<svg id="library" xmlns="http://www.w3.org/2000/svg" width="68.12mm" height="25.39mm" viewBox="0 0 193.11 71.98">
  <defs>
    <style>
      .cls-1 {
        fill: #f2f2f2;
        stroke-miterlimit: 1;
        stroke-width: 0.43px;
      }

      .cls-1, .cls-12, .cls-2 {
        stroke: #000;
      }

      .cls-12, .cls-2 {
        fill: none;
        stroke-width: 0.28px;
      }

      .cls-3 {
        fill: #666;
      }

      .cls-4 {
        fill: #8d8c8c;
      }

      .cls-5 {
        fill: #8c8663;
      }

      .cls-6 {
        fill: #b8af82;
      }

      .cls-7 {
        fill: #80795b;
      }

      .cls-8 {
        fill: #5e5b43;
      }

      .cls-9 {
        fill: #9a916c;
      }

      .cls-10, .cls-11, .cls-34, .cls-35 {
        isolation: isolate;
      }

      .cls-10, .cls-11 {
        font-size: 5.43px;
        font-family: TrebuchetMS, Trebuchet MS;
      }

      .cls-11 {
        letter-spacing: -0.02em;
      }

      .cls-12 {
        stroke-miterlimit: 10;
      }

      .cls-13 {
        fill: #d0d1d0;
      }

      .cls-14, .cls-21 {
        fill: #b7b8b9;
      }

      .cls-15 {
        fill: #40bb6a;
      }

      .cls-16 {
        fill: #918f90;
      }

      .cls-17, .cls-22 {
        fill: #d7d3d5;
      }

      .cls-18, .cls-35 {
        fill: #fff;
      }

      .cls-18 {
        fill-opacity: 0.51;
      }

      .cls-19 {
        fill: #545152;
      }

      .cls-20 {
        fill: #d2d1d3;
        stroke-opacity: 0.8;
        stroke-width: 0.01px;
      }

      .cls-20, .cls-21, .cls-22, .cls-28, .cls-29 {
        stroke: #0d0000;
      }

      .cls-21, .cls-22 {
        stroke-width: 0.02px;
      }

      .cls-23 {
        fill: #242424;
      }

      .cls-24, .cls-28 {
        fill: #b3b3b3;
      }

      .cls-25 {
        fill: #ccc;
      }

      .cls-26 {
        fill: #181818;
      }

      .cls-27, .cls-29 {
        fill: gray;
      }

      .cls-28, .cls-29 {
        stroke-width: 0.03px;
      }

      .cls-30 {
        fill: #678246;
      }

      .cls-31 {
        fill: #485933;
      }

      .cls-32 {
        fill: #87a85c;
      }

      .cls-33 {
        fill: #8b8b8b;
      }

      .cls-34, .cls-35 {
        opacity: 0.15;
      }

      .cls-36 {
        fill: #404040;
      }
    </style>
  </defs>
  <title>amperka-hardware-drawnings-library</title>
  <path id="troyka-one-unit" class="cls-1" d="M4.69.21A4.52,4.52,0,0,1,.22,4.72h0V67.3a4.48,4.48,0,0,1,4.49,4.47H67.27a4.47,4.47,0,0,1,4.46-4.5h0V4.72A4.49,4.49,0,0,1,67.27.24h0Z"/>
  <g id="troyka-pins2">
    <rect id="rect6749-8" class="cls-2" x="39.5" y="0.21" width="7.13" height="13.81" rx="0.14" ry="0.14"/>
    <rect id="rect6749-9-8" class="cls-2" x="32.41" y="0.21" width="7.13" height="13.81" rx="0.14" ry="0.14"/>
    <rect id="rect6749-9-3-2" class="cls-2" x="25.3" y="0.21" width="7.13" height="13.81" rx="0.14" ry="0.14"/>
    <circle id="path4180-4" class="cls-3" cx="43.07" cy="10.34" r="2.62"/>
    <circle id="path4180-2-5" class="cls-3" cx="35.96" cy="10.34" r="2.62"/>
    <rect id="rect4216-5" class="cls-3" x="26.24" y="7.71" width="5.23" height="5.23" rx="0.48" ry="0.48"/>
    <rect id="_0.1.5.0.0.6-7-1" data-name=" 0.1.5.0.0.6-7-1" class="cls-4" x="27.73" y="9.14" width="2.27" height="2.39"/>
    <rect id="_0.1.5.0.0.37-1-1" data-name=" 0.1.5.0.0.37-1-1" class="cls-5" x="28.29" y="9.72" width="1.17" height="1.23"/>
    <polygon id="_0.1.5.0.0.38-1-5" data-name=" 0.1.5.0.0.38-1-5" class="cls-6" points="30 9.14 27.73 9.14 28.28 9.71 29.44 9.71 30 9.14"/>
    <polygon id="_0.1.5.0.0.39-3-2" data-name=" 0.1.5.0.0.39-3-2" class="cls-7" points="30 11.53 29.44 10.95 29.44 9.71 30 9.14 30 11.53"/>
    <polygon id="_0.1.5.0.0.40-25-7" data-name=" 0.1.5.0.0.40-25-7" class="cls-8" points="27.73 11.53 28.28 10.95 29.44 10.95 30 11.53 27.73 11.53"/>
    <polygon id="_0.1.5.0.0.41-35-6" data-name=" 0.1.5.0.0.41-35-6" class="cls-9" points="27.73 11.53 27.73 9.14 28.28 9.71 28.28 10.95 27.73 11.53"/>
    <rect id="_0.1.5.0.0.7-6-40-4" data-name=" 0.1.5.0.0.7-6-40-4" class="cls-4" x="41.93" y="9.14" width="2.27" height="2.39"/>
    <rect id="_0.1.5.0.0.32-4-7-2" data-name=" 0.1.5.0.0.32-4-7-2" class="cls-5" x="42.48" y="9.72" width="1.17" height="1.23"/>
    <polygon id="_0.1.5.0.0.33-0-0-3" data-name=" 0.1.5.0.0.33-0-0-3" class="cls-6" points="43.65 9.71 44.19 9.14 41.93 9.14 42.48 9.71 43.65 9.71"/>
    <polygon id="_0.1.5.0.0.34-7-3-2" data-name=" 0.1.5.0.0.34-7-3-2" class="cls-7" points="44.19 9.14 44.19 11.53 43.65 10.95 43.65 9.71 44.19 9.14"/>
    <polygon id="_0.1.5.0.0.35-0-4-2" data-name=" 0.1.5.0.0.35-0-4-2" class="cls-8" points="44.19 11.53 41.93 11.53 42.48 10.95 43.65 10.95 44.19 11.53"/>
    <polygon id="_0.1.5.0.0.36-3-0-1" data-name=" 0.1.5.0.0.36-3-0-1" class="cls-9" points="42.48 10.95 41.93 11.53 41.93 9.14 42.48 9.71 42.48 10.95"/>
    <rect id="_0.1.5.0.0.7-2-8" data-name=" 0.1.5.0.0.7-2-8" class="cls-4" x="34.84" y="9.14" width="2.27" height="2.39"/>
    <rect id="_0.1.5.0.0.32-9-5" data-name=" 0.1.5.0.0.32-9-5" class="cls-5" x="35.39" y="9.72" width="1.17" height="1.23"/>
    <polygon id="_0.1.5.0.0.33-7-7" data-name=" 0.1.5.0.0.33-7-7" class="cls-6" points="37.09 9.14 34.84 9.14 35.38 9.71 36.55 9.71 37.09 9.14"/>
    <polygon id="_0.1.5.0.0.34-53-6" data-name=" 0.1.5.0.0.34-53-6" class="cls-7" points="37.09 11.53 36.55 10.95 36.55 9.71 37.09 9.14 37.09 11.53"/>
    <polygon id="_0.1.5.0.0.35-4-1" data-name=" 0.1.5.0.0.35-4-1" class="cls-8" points="34.84 11.53 35.38 10.95 36.55 10.95 37.09 11.53 34.84 11.53"/>
    <polygon id="_0.1.5.0.0.36-32-8" data-name=" 0.1.5.0.0.36-32-8" class="cls-9" points="34.84 11.53 34.84 9.14 35.38 9.71 35.38 10.95 34.84 11.53"/>
    <rect id="_0.1.5.0.0.6-2-26-9" data-name=" 0.1.5.0.0.6-2-26-9" class="cls-4" x="34.84" y="9.14" width="2.27" height="2.39"/>
    <rect id="_0.1.5.0.0.37-4-0-2" data-name=" 0.1.5.0.0.37-4-0-2" class="cls-5" x="35.39" y="9.72" width="1.17" height="1.23"/>
    <polygon id="_0.1.5.0.0.38-0-5-7" data-name=" 0.1.5.0.0.38-0-5-7" class="cls-6" points="36.55 9.71 37.09 9.14 34.84 9.14 35.38 9.71 36.55 9.71"/>
    <polygon id="_0.1.5.0.0.39-0-3-9" data-name=" 0.1.5.0.0.39-0-3-9" class="cls-7" points="37.09 9.14 37.09 11.53 36.55 10.95 36.55 9.71 37.09 9.14"/>
    <polygon id="_0.1.5.0.0.40-5-10-5" data-name=" 0.1.5.0.0.40-5-10-5" class="cls-8" points="37.09 11.53 34.84 11.53 35.38 10.95 36.55 10.95 37.09 11.53"/>
    <polygon id="_0.1.5.0.0.41-3-6-4" data-name=" 0.1.5.0.0.41-3-6-4" class="cls-9" points="35.38 10.95 34.84 11.53 34.84 9.14 35.38 9.71 35.38 10.95"/>
    <text class="cls-10" transform="translate(41.27 6.51)">Z</text>
    <text class="cls-11" transform="translate(34.29 6.48)">Y</text>
    <text class="cls-10" transform="translate(27.45 6.51)">X</text>
  </g>
  <g id="troyka-pins">
    <rect id="rect6749" class="cls-2" x="25.3" y="57.93" width="7.13" height="13.81" rx="0.14" ry="0.14"/>
    <rect id="rect6749-9" class="cls-2" x="32.41" y="57.93" width="7.13" height="13.81" rx="0.14" ry="0.14"/>
    <rect id="rect6749-9-3" class="cls-12" x="39.5" y="57.93" width="7.13" height="13.81" rx="0.14" ry="0.14"/>
    <circle id="path4180" class="cls-3" cx="28.85" cy="61.61" r="2.62"/>
    <circle id="path4180-2" class="cls-3" cx="35.96" cy="61.61" r="2.62"/>
    <rect id="rect4216" class="cls-3" x="40.46" y="59" width="5.23" height="5.23" rx="0.48" ry="0.48"/>
    <rect id="_0.1.5.0.0.6-7" data-name=" 0.1.5.0.0.6-7" class="cls-4" x="41.93" y="60.43" width="2.27" height="2.39"/>
    <rect id="_0.1.5.0.0.37-1" data-name=" 0.1.5.0.0.37-1" class="cls-5" x="42.48" y="61" width="1.17" height="1.23"/>
    <polygon id="_0.1.5.0.0.38-1" data-name=" 0.1.5.0.0.38-1" class="cls-6" points="42.48 62.23 41.94 62.8 44.19 62.8 43.65 62.23 42.48 62.23"/>
    <polygon id="_0.1.5.0.0.39-3" data-name=" 0.1.5.0.0.39-3" class="cls-7" points="41.94 62.8 41.94 60.44 42.48 61.01 42.48 62.23 41.94 62.8"/>
    <polygon id="_0.1.5.0.0.40-25" data-name=" 0.1.5.0.0.40-25" class="cls-8" points="41.94 60.44 44.19 60.44 43.65 61.01 42.48 61.01 41.94 60.44"/>
    <polygon id="_0.1.5.0.0.41-35" data-name=" 0.1.5.0.0.41-35" class="cls-9" points="43.65 61.01 44.19 60.44 44.19 62.8 43.65 62.23 43.65 61.01"/>
    <rect id="_0.1.5.0.0.7-6-40" data-name=" 0.1.5.0.0.7-6-40" class="cls-4" x="27.73" y="60.43" width="2.27" height="2.39"/>
    <rect id="_0.1.5.0.0.32-4-7" data-name=" 0.1.5.0.0.32-4-7" class="cls-5" x="28.27" y="61" width="1.17" height="1.23"/>
    <polygon id="_0.1.5.0.0.33-0-0" data-name=" 0.1.5.0.0.33-0-0" class="cls-6" points="29.44 62.23 28.28 62.23 27.73 62.8 30 62.8 29.44 62.23"/>
    <polygon id="_0.1.5.0.0.34-7-3" data-name=" 0.1.5.0.0.34-7-3" class="cls-7" points="28.28 62.23 27.73 62.8 27.73 60.44 28.28 61.01 28.28 62.23"/>
    <polygon id="_0.1.5.0.0.35-0-4" data-name=" 0.1.5.0.0.35-0-4" class="cls-8" points="28.28 61.01 27.73 60.44 30 60.44 29.44 61.01 28.28 61.01"/>
    <polygon id="_0.1.5.0.0.36-3-0" data-name=" 0.1.5.0.0.36-3-0" class="cls-9" points="29.44 62.23 29.44 61.01 30 60.44 30 62.8 29.44 62.23"/>
    <rect id="_0.1.5.0.0.7-2" data-name=" 0.1.5.0.0.7-2" class="cls-4" x="34.84" y="60.43" width="2.27" height="2.39"/>
    <rect id="_0.1.5.0.0.32-9" data-name=" 0.1.5.0.0.32-9" class="cls-5" x="35.37" y="61" width="1.17" height="1.23"/>
    <polygon id="_0.1.5.0.0.33-7" data-name=" 0.1.5.0.0.33-7" class="cls-6" points="35.38 62.23 34.84 62.8 37.09 62.8 36.55 62.23 35.38 62.23"/>
    <polygon id="_0.1.5.0.0.34-53" data-name=" 0.1.5.0.0.34-53" class="cls-7" points="34.84 62.8 34.84 60.44 35.38 61.01 35.38 62.23 34.84 62.8"/>
    <polygon id="_0.1.5.0.0.35-4" data-name=" 0.1.5.0.0.35-4" class="cls-8" points="34.84 60.44 37.09 60.44 36.55 61.01 35.38 61.01 34.84 60.44"/>
    <polygon id="_0.1.5.0.0.36-32" data-name=" 0.1.5.0.0.36-32" class="cls-9" points="36.55 61.01 37.09 60.44 37.09 62.8 36.55 62.23 36.55 61.01"/>
    <rect id="_0.1.5.0.0.6-2-26" data-name=" 0.1.5.0.0.6-2-26" class="cls-4" x="34.84" y="60.43" width="2.27" height="2.39"/>
    <rect id="_0.1.5.0.0.37-4-0" data-name=" 0.1.5.0.0.37-4-0" class="cls-5" x="35.39" y="61" width="1.17" height="1.23"/>
    <polygon id="_0.1.5.0.0.38-0-5" data-name=" 0.1.5.0.0.38-0-5" class="cls-6" points="36.55 62.23 35.38 62.23 34.84 62.8 37.09 62.8 36.55 62.23"/>
    <polygon id="_0.1.5.0.0.39-0-3" data-name=" 0.1.5.0.0.39-0-3" class="cls-7" points="35.38 62.23 34.84 62.8 34.84 60.44 35.38 61.01 35.38 62.23"/>
    <polygon id="_0.1.5.0.0.40-5-10" data-name=" 0.1.5.0.0.40-5-10" class="cls-8" points="35.38 61.01 34.84 60.44 37.09 60.44 36.55 61.01 35.38 61.01"/>
    <polygon id="_0.1.5.0.0.41-3-6" data-name=" 0.1.5.0.0.41-3-6" class="cls-9" points="36.55 62.23 36.55 61.01 37.09 60.44 37.09 62.8 36.55 62.23"/>
    <text class="cls-10" transform="translate(41.27 69.51)">G</text>
    <text class="cls-10" transform="translate(34.29 69.48)">V</text>
    <text class="cls-10" transform="translate(27.45 69.51)">S</text>
  </g>
  <g id="amperka-logo">
    <path id="path532-5-4-9-8-5-6-8-0" d="M11,10.39a2,2,0,1,1-2,2,2,2,0,0,1,2-2m0,5.32a3.28,3.28,0,1,0-3.3-3.29h0A3.27,3.27,0,0,0,11,15.71H11"/>
    <path id="path536-1-4-0-5-1-3-3-2" d="M11,4a2.31,2.31,0,1,1-.07,0H11m0,1.23a1,1,0,0,0,0,2,1,1,0,0,0,0-2"/>
    <path id="path540-3-7-2-9-1-0-6-4" d="M11.32,17.87a5.47,5.47,0,0,0,5.06-5.09A5.36,5.36,0,0,0,15.2,9l.4-.4a.61.61,0,0,0,.06-.85.6.6,0,0,0-.84,0h-.07l-.89.89a.58.58,0,0,0,0,.76,4.22,4.22,0,1,1-6,.08L8,9.4V9.33a.56.56,0,0,0,0-.76L7.14,7.7a.64.64,0,0,0-.85-.06.63.63,0,0,0,0,.88h0l.42.42a5.35,5.35,0,0,0-1.24,3.47A5.48,5.48,0,0,0,11,17.88h.43"/>
  </g>
  <g id="L1-0603">
    <path id="path6859-4-3-0-1-9-0-7-4" class="cls-13" d="M78.57,5.25V2.55h6.48v2.7H78.57"/>
    <path id="path6871-9-6-0-4-5-4-2-1" class="cls-14" d="M79.05,2.77a.23.23,0,0,1,.21-.21h5.1a.21.21,0,0,1,.21.21V5a.2.2,0,0,1-.2.2H79.28a.2.2,0,0,1-.2-.2h0Z"/>
    <path id="path6873-8-4-1-5-5-5-7-8" class="cls-15" d="M80.05,5.25h3.53V2.56H80.05Z"/>
    <path id="path6877-7-1-7-5-9-6-3-9" class="cls-15" d="M83.52,2.59H80.05V5.22h3.47Zm.06,0V5.25H80.05V2.56h3.53"/>
    <path id="path6879-87-7-8-1-1-8-9-2" class="cls-16" d="M83.43,2.65h-3.3v2.5h3.3Zm.21-.11v2.8H80.05a.13.13,0,0,1-.1-.11V2.56a.18.18,0,0,1,.1-.09h3.53a.06.06,0,0,1,.08,0h0"/>
    <path id="path6881-0-8-1-8-3-8-3-7" class="cls-17" d="M80.05,5.25h-.56V2.54h.56Z"/>
    <path id="path6875-42-1-4-9-5-0-2-6" class="cls-16" d="M83.46,2.65H80.05v2.5h3.37Zm.16,0v2.6a.08.08,0,0,1-.08.08H80.05V5.26h0V2.58a.08.08,0,0,1,.07-.08h3.53a.07.07,0,0,1,.07.07h0"/>
    <path id="path6883-46-4-9-5-9-8-4-5" class="cls-17" d="M84.17,5.25h-.56V2.54h.56Z"/>
    <path id="path6897-5-1-0-5-0-7-8-1" class="cls-18" d="M80.05,2.65h3.49V5.22H80.05Z"/>
    <path id="path6963-86-8-2-6-0-1-7-9" class="cls-19" d="M83.05,4.13h-.39v-.4h.39Z"/>
  </g>
  <g id="R1-0603">
    <rect id="rect21332-8-1-9-3-8-2-40-6-2-0-6-6-0-5-6-4-8-7-2-0-7-2-3-9" class="cls-20" x="78.14" y="10.04" width="2.59" height="2.72"/>
    <rect id="rect21332-8-1-9-3-8-2-40-6-2-0-6-6-0-5-6-4-8-7-2-0-7-2-3-10" class="cls-20" x="82.03" y="10.04" width="2.59" height="2.72"/>
    <rect class="cls-21" x="79.09" y="10.04" width="4.72" height="2.73" rx="0.34" ry="0.34"/>
    <path id="path26345-3-6-9-3-6-4-2-5-6-8-7-9-0-90-3-1-3-9-2-2-8-5-0-2-3-5" class="cls-22" d="M83.42,12.78H79.49V10.05h3.93Z"/>
    <path id="path26341-4-2-6-0-8-1-1-1-5-0-3-3-1-8-3-8-7-7-7-2-4-9-7-2-3-5" class="cls-23" d="M80,12.78h3V10.05H80Z"/>
  </g>
  <g id="R1-0603-2" data-name="R1-0603">
    <rect id="rect21332-8-1-9-3-8-2-40-6-2-0-6-6-0-5-6-4-8-7-2-0-7-2-3-9-2" data-name="rect21332-8-1-9-3-8-2-40-6-2-0-6-6-0-5-6-4-8-7-2-0-7-2-3-9" class="cls-20" x="74.03" y="8.17" width="2.72" height="2.59"/>
    <rect id="rect21332-8-1-9-3-8-2-40-6-2-0-6-6-0-5-6-4-8-7-2-0-7-2-3-10-2" data-name="rect21332-8-1-9-3-8-2-40-6-2-0-6-6-0-5-6-4-8-7-2-0-7-2-3-10" class="cls-20" x="74.03" y="12.06" width="2.72" height="2.59"/>
    <rect class="cls-21" x="74.02" y="9.12" width="2.73" height="4.72" rx="0.34" ry="0.34"/>
    <path id="path26345-3-6-9-3-6-4-2-5-6-8-7-9-0-90-3-1-3-9-2-2-8-5-0-2-3-5-2" data-name="path26345-3-6-9-3-6-4-2-5-6-8-7-9-0-90-3-1-3-9-2-2-8-5-0-2-3-5" class="cls-22" d="M74,13.45V9.52h2.73v3.93Z"/>
    <path id="path26341-4-2-6-0-8-1-1-1-5-0-3-3-1-8-3-8-7-7-7-2-4-9-7-2-3-5-2" data-name="path26341-4-2-6-0-8-1-1-1-5-0-3-3-1-8-3-8-7-7-7-2-4-9-7-2-3-5" class="cls-23" d="M74,10v3h2.73V10Z"/>
  </g>
  <g id="L1-0603-2" data-name="L1-0603">
    <path id="path6859-4-3-0-1-9-0-7-4-2" data-name="path6859-4-3-0-1-9-0-7-4" class="cls-13" d="M74.46.66h2.7V7.14h-2.7V.66"/>
    <path id="path6871-9-6-0-4-5-4-2-1-2" data-name="path6871-9-6-0-4-5-4-2-1" class="cls-14" d="M76.94,1.14a.23.23,0,0,1,.21.21v5.1a.21.21,0,0,1-.21.21H74.7a.2.2,0,0,1-.2-.2h0V1.37a.2.2,0,0,1,.2-.2h0Z"/>
    <path id="path6873-8-4-1-5-5-5-7-8-2" data-name="path6873-8-4-1-5-5-5-7-8" class="cls-15" d="M74.46,2.14V5.67h2.69V2.14Z"/>
    <path id="path6877-7-1-7-5-9-6-3-9-2" data-name="path6877-7-1-7-5-9-6-3-9" class="cls-15" d="M77.12,5.61V2.14H74.49V5.61Zm0,.06H74.46V2.14h2.69V5.67"/>
    <path id="path6879-87-7-8-1-1-8-9-2-2" data-name="path6879-87-7-8-1-1-8-9-2" class="cls-16" d="M77.06,5.52V2.22h-2.5v3.3Zm.11.21h-2.8V2.14a.12.12,0,0,1,.11-.1h2.67a.12.12,0,0,1,.09.1V5.67a.06.06,0,0,1,0,.08h0"/>
    <path id="path6881-0-8-1-8-3-8-3-7-2" data-name="path6881-0-8-1-8-3-8-3-7" class="cls-17" d="M74.46,2.14V1.58h2.71v.56Z"/>
    <path id="path6875-42-1-4-9-5-0-2-6-2" data-name="path6875-42-1-4-9-5-0-2-6" class="cls-16" d="M77.06,5.55V2.14h-2.5V5.51Zm0,.16h-2.6a.09.09,0,0,1-.08-.08h0V2.14h2.75a.08.08,0,0,1,.08.07V5.74a.07.07,0,0,1-.07.07h0"/>
    <path id="path6883-46-4-9-5-9-8-4-5-2" data-name="path6883-46-4-9-5-9-8-4-5" class="cls-17" d="M74.46,6.26V5.7h2.71v.56Z"/>
    <path id="path6897-5-1-0-5-0-7-8-1-2" data-name="path6897-5-1-0-5-0-7-8-1" class="cls-18" d="M77.06,2.14V5.63H74.49V2.14Z"/>
    <path id="path6963-86-8-2-6-0-1-7-9-2" data-name="path6963-86-8-2-6-0-1-7-9" class="cls-19" d="M75.58,5.14V4.75H76v.39Z"/>
  </g>
  <g id="T3-DPak">
    <rect id="rect22-9" class="cls-24" x="117.29" y="9.81" width="2.41" height="2.65"/>
    <rect id="rect24-5" class="cls-24" x="117.29" y="16.2" width="3.6" height="2.65"/>
    <rect id="rect26-0" class="cls-24" x="117.29" y="3.39" width="3.6" height="2.65"/>
    <polygon id="polygon15-4" class="cls-24" points="96.67 6.93 96.67 15.44 98.02 18.61 100.4 18.61 100.4 3.77 98.02 3.77 96.67 6.93"/>
    <rect id="rect31-0" class="cls-25" x="120.91" y="16.2" width="1.33" height="2.65"/>
    <rect id="rect33-9" class="cls-25" x="120.91" y="3.39" width="1.33" height="2.65"/>
    <polygon class="cls-26" points="102 1.78 100.22 3.25 100.22 18.89 102 20.51 117.39 20.51 117.39 1.78 102 1.78"/>
    <polygon class="cls-23" points="102.57 2.5 100.96 3.98 100.96 18.31 102.57 19.82 116.97 19.82 116.97 2.5 102.57 2.5"/>
    <rect id="rect38-5" class="cls-24" x="122.23" y="16.2" width="3.04" height="2.65"/>
    <rect id="rect40-2" class="cls-24" x="122.23" y="3.39" width="3.04" height="2.65"/>
  </g>
  <g id="T2-SOT23">
    <path id="path3479-7" class="cls-24" d="M133.68,3.46V5.08h-2.57V3.46Z"/>
    <path id="path3481-0" class="cls-27" d="M133.44,3.46V5.08h-.85V3.46Z"/>
    <path id="path3483-6" class="cls-24" d="M133.68,9v1.6h-2.57V9Z"/>
    <path id="path3485-6" class="cls-27" d="M133.44,9v1.6h-.85V9Z"/>
    <path id="path3487-1" class="cls-24" d="M137.14,6.22V7.84h2.56V6.22Z"/>
    <path id="path3489-6" class="cls-27" d="M137.44,6.22V7.84h.79V6.22Z"/>
    <path id="path3477-9" class="cls-23" d="M137.15,2.82v8.42h-3.48V2.82Z"/>
  </g>
  <g id="D1-SOD323">
    <rect id="rect21332-8-1-9-3-5-5-5-7-7-6" class="cls-20" x="90.32" y="8.98" width="3.8" height="4.08"/>
    <rect id="rect21332-1-0-1-9-2-0-7-3-5-9-5" class="cls-20" x="90.32" y="2.95" width="3.8" height="4.08"/>
    <path id="path32574-5-6-2-6-7" class="cls-28" d="M93.52,4h-2.7V5.9h2.7Z"/>
    <path id="path32578-9-7-2-9-4" class="cls-28" d="M93.48,10.17H91v1.9h2.54Z"/>
    <path id="path32580-3-1-0-1-3" class="cls-29" d="M93.48,11H91v.6h2.54Z"/>
    <path id="path32590-0-9-7-9-9" class="cls-23" d="M94.1,5.08H90.34V11H94.1Z"/>
    <path id="path32576-2-7-7-0-2" class="cls-29" d="M93.52,4.46h-2.7v.61h2.7Z"/>
  </g>
  <g id="X1-screw-3.96-3pin">
    <path id="rect9729-7-5-7-3-8-5-2-9" class="cls-30" d="M129.31,36.71h14.75c1.31,0,2.36.8,2.36,1.78V66.32c0,1-1,1.78-2.36,1.78H129.31c-1.3,0-2.36-.8-2.36-1.78V38.49C127,37.51,128,36.71,129.31,36.71Z"/>
    <path id="rect9729-3-2-1-4-1-3-4-0-8" class="cls-31" d="M143.61,36.72h2.26c.32,0,.57.19.57.43V67.68c0,.24-.25.43-.57.43h-2.26c-.31,0-.57-.19-.57-.43V37.15C143,36.91,143.3,36.72,143.61,36.72Z"/>
    <path id="rect9729-3-4-6-2-0-0-5-6-3-3" class="cls-32" d="M127.55,36.72h2.26c.31,0,.57.19.57.43V67.69c0,.24-.26.43-.57.43h-2.26c-.32,0-.57-.19-.57-.43V37.15C127,36.91,127.23,36.72,127.55,36.72Z"/>
    <g id="pin4">
      <path id="_0.2.13.5.1.0-8-0-9-31" data-name=" 0.2.13.5.1.0-8-0-9-31" class="cls-32" d="M141.46,62.92a4.75,4.75,0,0,1-4.7,4.69V58.22a4.72,4.72,0,0,1,4.74,4.7h0Z"/>
      <path id="_0.2.13.5.1.1-5-0-2-66" data-name=" 0.2.13.5.1.1-5-0-2-66" class="cls-31" d="M131.91,62.92a4.75,4.75,0,0,1,4.79-4.71h0V67.6A4.73,4.73,0,0,1,131.89,63h0Z"/>
      <path id="_0.2.13.5.1.2.0-8-9-1-1" data-name=" 0.2.13.5.1.2.0-8-9-1-1" class="cls-33" d="M140.53,62.92a3.86,3.86,0,0,0-7.71,0,3.71,3.71,0,0,0,1.11,2.65,3.87,3.87,0,0,0,6.6-2.65Z"/>
      <path id="_0.2.13.5.1.3.0-1-9-3-0" data-name=" 0.2.13.5.1.3.0-1-9-3-0" class="cls-3" d="M136.76,59.51a3.08,3.08,0,0,1,.91.13v6.73a3.09,3.09,0,0,1-.91.14,2.94,2.94,0,0,1-.88-.14V59.62A3.72,3.72,0,0,1,136.76,59.51Z"/>
      <path id="_0.2.13.5.1.4.0-0-6-5-2" data-name=" 0.2.13.5.1.4.0-0-6-5-2" class="cls-34" d="M135.93,66.51h-.17V59.64h.15Z"/>
      <path id="_0.2.13.5.1.4.1-0-85-6-0" data-name=" 0.2.13.5.1.4.1-0-85-6-0" class="cls-35" d="M137.41,59.57h.17v6.94h-.17Z"/>
      <path d="M136.76,59a4,4,0,1,0,4,4A4,4,0,0,0,136.76,59Zm0,7.53A3.56,3.56,0,1,1,140.32,63h0A3.56,3.56,0,0,1,136.76,66.51Z"/>
    </g>
    <g id="pin3">
      <path id="_0.2.13.5.1.0-8-0-9-31-2" data-name=" 0.2.13.5.1.0-8-0-9-31-2" class="cls-32" d="M141.46,52.51a4.73,4.73,0,0,1-4.7,4.69V47.81A4.74,4.74,0,0,1,141.46,52.51Z"/>
      <path id="_0.2.13.5.1.1-5-0-2-66-2" data-name=" 0.2.13.5.1.1-5-0-2-66-2" class="cls-31" d="M131.91,52.51a4.74,4.74,0,0,1,4.79-4.69h0v9.4a4.73,4.73,0,0,1-4.81-4.64h0Z"/>
      <path id="_0.2.13.5.1.2.0-8-9-1-1-2" data-name=" 0.2.13.5.1.2.0-8-9-1-1-2" class="cls-33" d="M140.53,52.51a3.86,3.86,0,0,0-7.71,0,3.75,3.75,0,0,0,1.11,2.66,3.86,3.86,0,0,0,5.46,0h0A3.77,3.77,0,0,0,140.53,52.51Z"/>
      <path id="_0.2.13.5.1.3.0-1-9-3-0-2" data-name=" 0.2.13.5.1.3.0-1-9-3-0-2" class="cls-3" d="M136.76,49.09a3.52,3.52,0,0,1,.91.14V56a3.08,3.08,0,0,1-.91.13,2.89,2.89,0,0,1-.88-.13V49.22A3.74,3.74,0,0,1,136.76,49.09Z"/>
      <path id="_0.2.13.5.1.4.0-0-6-5-2-2" data-name=" 0.2.13.5.1.4.0-0-6-5-2-2" class="cls-34" d="M135.93,56.09h-.17V49.24h.15Z"/>
      <path id="_0.2.13.5.1.4.1-0-85-6-0-2" data-name=" 0.2.13.5.1.4.1-0-85-6-0-2" class="cls-35" d="M137.41,49.17h.17v6.92h-.17Z"/>
      <path d="M136.76,48.58a4,4,0,1,0,4,4A4,4,0,0,0,136.76,48.58Zm0,7.55a3.56,3.56,0,1,1,3.56-3.56h0a3.55,3.55,0,0,1-3.54,3.56Z"/>
    </g>
    <g id="pin2">
      <path id="_0.2.13.5.1.0-8-0-9-31-3" data-name=" 0.2.13.5.1.0-8-0-9-31-3" class="cls-32" d="M141.46,42.11a4.75,4.75,0,0,1-4.7,4.7v-9.4A4.75,4.75,0,0,1,141.46,42.11Z"/>
      <path id="_0.2.13.5.1.1-5-0-2-66-3" data-name=" 0.2.13.5.1.1-5-0-2-66-3" class="cls-31" d="M131.91,42.11a4.74,4.74,0,0,1,4.76-4.7h.09v9.41A4.75,4.75,0,0,1,132,42.16h0Z"/>
      <path id="_0.2.13.5.1.2.0-8-9-1-1-3" data-name=" 0.2.13.5.1.2.0-8-9-1-1-3" class="cls-33" d="M140.53,42.11a3.86,3.86,0,0,0-7.71,0,3.78,3.78,0,0,0,1.11,2.67,3.89,3.89,0,0,0,5.47,0A3.82,3.82,0,0,0,140.53,42.11Z"/>
      <path id="_0.2.13.5.1.3.0-1-9-3-0-3" data-name=" 0.2.13.5.1.3.0-1-9-3-0-3" class="cls-3" d="M136.76,38.69a3.46,3.46,0,0,1,.91.14v6.74a3.45,3.45,0,0,1-.91.13,3.74,3.74,0,0,1-.88-.13V38.82A4.35,4.35,0,0,1,136.76,38.69Z"/>
      <path id="_0.2.13.5.1.4.0-0-6-5-2-3" data-name=" 0.2.13.5.1.4.0-0-6-5-2-3" class="cls-34" d="M135.93,45.7h-.17V38.84h.15Z"/>
      <path id="_0.2.13.5.1.4.1-0-85-6-0-3" data-name=" 0.2.13.5.1.4.1-0-85-6-0-3" class="cls-35" d="M137.41,38.77h.17V45.7h-.17Z"/>
      <path d="M136.76,38.18a4,4,0,1,0,4,4A4,4,0,0,0,136.76,38.18Zm0,7.56a3.57,3.57,0,1,1,3.56-3.57h0A3.56,3.56,0,0,1,136.76,45.74Z"/>
    </g>
  </g>
  <g id="X1-screw-3.96-4pin">
    <rect id="rect9729-7-5-7-3-8-5-2-9-2" data-name="rect9729-7-5-7-3-8-5-2-9" class="cls-30" x="103.2" y="25.88" width="19.47" height="41.72" rx="2.36" ry="2.36"/>
    <rect id="rect9729-3-2-1-4-1-3-4-0-8-2" data-name="rect9729-3-2-1-4-1-3-4-0-8" class="cls-31" x="119.29" y="25.92" width="3.4" height="41.69" rx="0.57" ry="0.57"/>
    <rect id="rect9729-3-4-6-2-0-0-5-6-3-3-2" data-name="rect9729-3-4-6-2-0-0-5-6-3-3" class="cls-32" x="103.23" y="25.83" width="3.4" height="41.79" rx="0.57" ry="0.57"/>
    <g id="pin4-2" data-name="pin4">
      <path id="_0.2.13.5.1.0-8-0-9-31-2-2" data-name=" 0.2.13.5.1.0-8-0-9-31" class="cls-32" d="M117.71,62.42a4.75,4.75,0,0,1-4.7,4.69V57.72a4.72,4.72,0,0,1,4.74,4.7h0Z"/>
      <path id="_0.2.13.5.1.1-5-0-2-66-2-2" data-name=" 0.2.13.5.1.1-5-0-2-66" class="cls-31" d="M108.16,62.42A4.75,4.75,0,0,1,113,57.71h0V67.1a4.73,4.73,0,0,1-4.81-4.65h0Z"/>
      <path id="_0.2.13.5.1.2.0-8-9-1-1-2-2" data-name=" 0.2.13.5.1.2.0-8-9-1-1" class="cls-33" d="M116.78,62.42a3.86,3.86,0,0,0-7.71,0,3.71,3.71,0,0,0,1.11,2.65,3.87,3.87,0,0,0,6.6-2.65Z"/>
      <path id="_0.2.13.5.1.3.0-1-9-3-0-2-2" data-name=" 0.2.13.5.1.3.0-1-9-3-0" class="cls-3" d="M113,59a3.08,3.08,0,0,1,.91.13v6.73A3.09,3.09,0,0,1,113,66a2.94,2.94,0,0,1-.88-.14V59.12A3.72,3.72,0,0,1,113,59Z"/>
      <path id="_0.2.13.5.1.4.0-0-6-5-2-2-2" data-name=" 0.2.13.5.1.4.0-0-6-5-2" class="cls-34" d="M112.18,66H112V59.14h.15Z"/>
      <path id="_0.2.13.5.1.4.1-0-85-6-0-2-2" data-name=" 0.2.13.5.1.4.1-0-85-6-0" class="cls-35" d="M113.66,59.07h.17V66h-.17Z"/>
      <path d="M113,58.48a4,4,0,1,0,4,4A4,4,0,0,0,113,58.48ZM113,66a3.56,3.56,0,1,1,3.56-3.56h0A3.56,3.56,0,0,1,113,66Z"/>
    </g>
    <g id="pin3-2" data-name="pin3">
      <path id="_0.2.13.5.1.0-8-0-9-31-2-3" data-name=" 0.2.13.5.1.0-8-0-9-31-2" class="cls-32" d="M117.71,52A4.73,4.73,0,0,1,113,56.7V47.31A4.74,4.74,0,0,1,117.71,52Z"/>
      <path id="_0.2.13.5.1.1-5-0-2-66-2-3" data-name=" 0.2.13.5.1.1-5-0-2-66-2" class="cls-31" d="M108.16,52A4.74,4.74,0,0,1,113,47.32h0v9.4a4.73,4.73,0,0,1-4.81-4.64h0Z"/>
      <path id="_0.2.13.5.1.2.0-8-9-1-1-2-3" data-name=" 0.2.13.5.1.2.0-8-9-1-1-2" class="cls-33" d="M116.78,52a3.86,3.86,0,0,0-7.71,0,3.75,3.75,0,0,0,1.11,2.66,3.86,3.86,0,0,0,5.46,0h0A3.77,3.77,0,0,0,116.78,52Z"/>
      <path id="_0.2.13.5.1.3.0-1-9-3-0-2-3" data-name=" 0.2.13.5.1.3.0-1-9-3-0-2" class="cls-3" d="M113,48.59a3.52,3.52,0,0,1,.91.14v6.73a3.08,3.08,0,0,1-.91.13,2.89,2.89,0,0,1-.88-.13V48.72A3.74,3.74,0,0,1,113,48.59Z"/>
      <path id="_0.2.13.5.1.4.0-0-6-5-2-2-3" data-name=" 0.2.13.5.1.4.0-0-6-5-2-2" class="cls-34" d="M112.18,55.59H112V48.74h.15Z"/>
      <path id="_0.2.13.5.1.4.1-0-85-6-0-2-3" data-name=" 0.2.13.5.1.4.1-0-85-6-0-2" class="cls-35" d="M113.66,48.67h.17v6.92h-.17Z"/>
      <path d="M113,48.08a4,4,0,1,0,4,4A4,4,0,0,0,113,48.08Zm0,7.55a3.56,3.56,0,1,1,3.56-3.56h0A3.55,3.55,0,0,1,113,55.63Z"/>
    </g>
    <g id="pin2-2" data-name="pin2">
      <path id="_0.2.13.5.1.0-8-0-9-31-3-2" data-name=" 0.2.13.5.1.0-8-0-9-31-3" class="cls-32" d="M117.71,41.61a4.75,4.75,0,0,1-4.7,4.7v-9.4A4.75,4.75,0,0,1,117.71,41.61Z"/>
      <path id="_0.2.13.5.1.1-5-0-2-66-3-2" data-name=" 0.2.13.5.1.1-5-0-2-66-3" class="cls-31" d="M108.16,41.61a4.74,4.74,0,0,1,4.76-4.7H113v9.41a4.75,4.75,0,0,1-4.81-4.66h0Z"/>
      <path id="_0.2.13.5.1.2.0-8-9-1-1-3-2" data-name=" 0.2.13.5.1.2.0-8-9-1-1-3" class="cls-33" d="M116.78,41.61a3.86,3.86,0,0,0-7.71,0,3.78,3.78,0,0,0,1.11,2.67,3.89,3.89,0,0,0,5.47,0A3.82,3.82,0,0,0,116.78,41.61Z"/>
      <path id="_0.2.13.5.1.3.0-1-9-3-0-3-2" data-name=" 0.2.13.5.1.3.0-1-9-3-0-3" class="cls-3" d="M113,38.19a3.46,3.46,0,0,1,.91.14v6.74a3.45,3.45,0,0,1-.91.13,3.74,3.74,0,0,1-.88-.13V38.32A4.35,4.35,0,0,1,113,38.19Z"/>
      <path id="_0.2.13.5.1.4.0-0-6-5-2-3-2" data-name=" 0.2.13.5.1.4.0-0-6-5-2-3" class="cls-34" d="M112.18,45.2H112V38.34h.15Z"/>
      <path id="_0.2.13.5.1.4.1-0-85-6-0-3-2" data-name=" 0.2.13.5.1.4.1-0-85-6-0-3" class="cls-35" d="M113.66,38.27h.17V45.2h-.17Z"/>
      <path d="M113,37.68a4,4,0,1,0,4,4A4,4,0,0,0,113,37.68Zm0,7.56a3.57,3.57,0,1,1,3.56-3.57h0A3.56,3.56,0,0,1,113,45.24Z"/>
    </g>
    <g id="pin1">
      <path id="_0.2.13.5.1.0-8-0-9-31-4" data-name=" 0.2.13.5.1.0-8-0-9-31-4" class="cls-32" d="M117.71,31.21A4.74,4.74,0,0,1,113,35.9V26.51A4.75,4.75,0,0,1,117.71,31.21Z"/>
      <path id="_0.2.13.5.1.1-5-0-2-66-4" data-name=" 0.2.13.5.1.1-5-0-2-66-4" class="cls-31" d="M108.16,31.21a4.74,4.74,0,0,1,4.78-4.7h0v9.4a4.74,4.74,0,0,1-4.81-4.65h0Z"/>
      <path id="_0.2.13.5.1.2.0-8-9-1-1-4" data-name=" 0.2.13.5.1.2.0-8-9-1-1-4" class="cls-33" d="M116.78,31.21a3.86,3.86,0,0,0-7.71,0,3.74,3.74,0,0,0,1.11,2.66,3.86,3.86,0,0,0,5.47,0A3.82,3.82,0,0,0,116.78,31.21Z"/>
      <path id="_0.2.13.5.1.3.0-1-9-3-0-4" data-name=" 0.2.13.5.1.3.0-1-9-3-0-4" class="cls-3" d="M113,27.79a3.09,3.09,0,0,1,.91.14v6.73a2.54,2.54,0,0,1-.91.13,2.65,2.65,0,0,1-.88-.13V27.92A5.19,5.19,0,0,1,113,27.79Z"/>
      <path id="_0.2.13.5.1.4.0-0-6-5-2-4" data-name=" 0.2.13.5.1.4.0-0-6-5-2-4" class="cls-34" d="M112.18,34.79H112V28h.15Z"/>
      <path id="_0.2.13.5.1.4.1-0-85-6-0-4" data-name=" 0.2.13.5.1.4.1-0-85-6-0-4" class="cls-35" d="M113.66,27.87h.17v6.92h-.17Z"/>
      <path d="M113,27.28a4,4,0,1,0,4,4A4,4,0,0,0,113,27.28Zm0,7.55a3.56,3.56,0,1,1,3.56-3.56h0A3.56,3.56,0,0,1,113,34.83Z"/>
    </g>
  </g>
  <g id="X1-screw-3.96-2pin">
    <path id="rect9729-7-5-7-3-8-5-2-9-3" data-name="rect9729-7-5-7-3-8-5-2-9" class="cls-30" d="M153.31,47.82h14.75c1.31,0,2.36.53,2.36,1.19V67.66c0,.66-1,1.19-2.36,1.19H153.31c-1.3,0-2.36-.53-2.36-1.19V49C151,48.35,152,47.82,153.31,47.82Z"/>
    <path id="rect9729-3-2-1-4-1-3-4-0-8-3" data-name="rect9729-3-2-1-4-1-3-4-0-8" class="cls-31" d="M167.61,47.83h2.26c.32,0,.57.13.57.29V68.57c0,.16-.25.29-.57.29h-2.26c-.31,0-.57-.13-.57-.29V48.12C167,48,167.3,47.83,167.61,47.83Z"/>
    <path id="rect9729-3-4-6-2-0-0-5-6-3-3-3" data-name="rect9729-3-4-6-2-0-0-5-6-3-3" class="cls-32" d="M151.55,47.82h2.26c.31,0,.57.13.57.28V68.58c0,.16-.26.29-.57.29h-2.26c-.32,0-.57-.13-.57-.29V48.1C151,48,151.23,47.82,151.55,47.82Z"/>
    <g id="pin4-3" data-name="pin4">
      <path id="_0.2.13.5.1.0-8-0-9-31-3-3" data-name=" 0.2.13.5.1.0-8-0-9-31" class="cls-32" d="M165.46,63.67a4.75,4.75,0,0,1-4.7,4.69V59a4.72,4.72,0,0,1,4.74,4.7h0Z"/>
      <path id="_0.2.13.5.1.1-5-0-2-66-3-3" data-name=" 0.2.13.5.1.1-5-0-2-66" class="cls-31" d="M155.91,63.67A4.75,4.75,0,0,1,160.7,59h0v9.39a4.73,4.73,0,0,1-4.81-4.65h0Z"/>
      <path id="_0.2.13.5.1.2.0-8-9-1-1-3-3" data-name=" 0.2.13.5.1.2.0-8-9-1-1" class="cls-33" d="M164.53,63.67a3.86,3.86,0,0,0-7.71,0,3.71,3.71,0,0,0,1.11,2.65,3.87,3.87,0,0,0,6.6-2.65Z"/>
      <path id="_0.2.13.5.1.3.0-1-9-3-0-3-3" data-name=" 0.2.13.5.1.3.0-1-9-3-0" class="cls-3" d="M160.76,60.26a3.08,3.08,0,0,1,.91.13v6.73a3.09,3.09,0,0,1-.91.14,2.94,2.94,0,0,1-.88-.14V60.37A3.72,3.72,0,0,1,160.76,60.26Z"/>
      <path id="_0.2.13.5.1.4.0-0-6-5-2-3-3" data-name=" 0.2.13.5.1.4.0-0-6-5-2" class="cls-34" d="M159.93,67.26h-.17V60.39h.15Z"/>
      <path id="_0.2.13.5.1.4.1-0-85-6-0-3-3" data-name=" 0.2.13.5.1.4.1-0-85-6-0" class="cls-35" d="M161.41,60.32h.17v6.94h-.17Z"/>
      <path d="M160.76,59.73a4,4,0,1,0,4,4A4,4,0,0,0,160.76,59.73Zm0,7.53a3.56,3.56,0,1,1,3.56-3.56h0A3.56,3.56,0,0,1,160.76,67.26Z"/>
    </g>
    <g id="pin3-3" data-name="pin3">
      <path id="_0.2.13.5.1.0-8-0-9-31-2-4" data-name=" 0.2.13.5.1.0-8-0-9-31-2" class="cls-32" d="M165.46,53.26a4.73,4.73,0,0,1-4.7,4.69V48.56A4.74,4.74,0,0,1,165.46,53.26Z"/>
      <path id="_0.2.13.5.1.1-5-0-2-66-2-4" data-name=" 0.2.13.5.1.1-5-0-2-66-2" class="cls-31" d="M155.91,53.26a4.74,4.74,0,0,1,4.79-4.69h0V58a4.73,4.73,0,0,1-4.81-4.64h0Z"/>
      <path id="_0.2.13.5.1.2.0-8-9-1-1-2-4" data-name=" 0.2.13.5.1.2.0-8-9-1-1-2" class="cls-33" d="M164.53,53.26a3.86,3.86,0,0,0-7.71,0,3.75,3.75,0,0,0,1.11,2.66,3.86,3.86,0,0,0,5.46,0h0A3.77,3.77,0,0,0,164.53,53.26Z"/>
      <path id="_0.2.13.5.1.3.0-1-9-3-0-2-4" data-name=" 0.2.13.5.1.3.0-1-9-3-0-2" class="cls-3" d="M160.76,49.84a3.52,3.52,0,0,1,.91.14v6.73a3.08,3.08,0,0,1-.91.13,2.89,2.89,0,0,1-.88-.13V50A3.74,3.74,0,0,1,160.76,49.84Z"/>
      <path id="_0.2.13.5.1.4.0-0-6-5-2-2-4" data-name=" 0.2.13.5.1.4.0-0-6-5-2-2" class="cls-34" d="M159.93,56.84h-.17V50h.15Z"/>
      <path id="_0.2.13.5.1.4.1-0-85-6-0-2-4" data-name=" 0.2.13.5.1.4.1-0-85-6-0-2" class="cls-35" d="M161.41,49.92h.17v6.92h-.17Z"/>
      <path d="M160.76,49.33a4,4,0,1,0,4,4A4,4,0,0,0,160.76,49.33Zm0,7.55a3.56,3.56,0,1,1,3.56-3.56h0a3.55,3.55,0,0,1-3.54,3.56Z"/>
    </g>
  </g>
  <g id="X1-screw-3.96-1pin">
    <path id="rect9729-7-5-7-3-8-5-2-9-4" data-name="rect9729-7-5-7-3-8-5-2-9" class="cls-30" d="M176,58.3h14.75c1.3,0,2.36.27,2.36.6v9.43c0,.33-1.06.6-2.36.6H176c-1.31,0-2.36-.27-2.36-.6V58.9C173.62,58.57,174.67,58.3,176,58.3Z"/>
    <path id="rect9729-3-2-1-4-1-3-4-0-8-4" data-name="rect9729-3-2-1-4-1-3-4-0-8" class="cls-31" d="M190.28,58.3h2.26c.31,0,.57.06.57.14V68.8c0,.08-.26.14-.57.14h-2.26c-.32,0-.57-.06-.57-.14V58.44C189.71,58.36,190,58.3,190.28,58.3Z"/>
    <path id="rect9729-3-4-6-2-0-0-5-6-3-3-4" data-name="rect9729-3-4-6-2-0-0-5-6-3-3" class="cls-32" d="M174.22,58.31h2.26c.31,0,.57.06.57.14V68.81c0,.08-.26.14-.57.14h-2.26c-.32,0-.57-.06-.57-.14V58.45C173.65,58.37,173.9,58.31,174.22,58.31Z"/>
    <g id="pin4-4" data-name="pin4">
      <path id="_0.2.13.5.1.0-8-0-9-31-4-2" data-name=" 0.2.13.5.1.0-8-0-9-31" class="cls-32" d="M188.13,63.75a4.74,4.74,0,0,1-4.7,4.69V59.05a4.72,4.72,0,0,1,4.74,4.7h0Z"/>
      <path id="_0.2.13.5.1.1-5-0-2-66-4-2" data-name=" 0.2.13.5.1.1-5-0-2-66" class="cls-31" d="M178.58,63.75A4.75,4.75,0,0,1,183.37,59h0v9.39a4.72,4.72,0,0,1-4.81-4.65h0Z"/>
      <path id="_0.2.13.5.1.2.0-8-9-1-1-4-2" data-name=" 0.2.13.5.1.2.0-8-9-1-1" class="cls-33" d="M187.2,63.75a3.86,3.86,0,0,0-7.71,0,3.71,3.71,0,0,0,1.11,2.65,3.86,3.86,0,0,0,5.47,0A3.9,3.9,0,0,0,187.2,63.75Z"/>
      <path id="_0.2.13.5.1.3.0-1-9-3-0-4-2" data-name=" 0.2.13.5.1.3.0-1-9-3-0" class="cls-3" d="M183.43,60.34a3.13,3.13,0,0,1,.91.13V67.2a3.14,3.14,0,0,1-.91.14,2.89,2.89,0,0,1-.88-.14V60.45A4.32,4.32,0,0,1,183.43,60.34Z"/>
      <path id="_0.2.13.5.1.4.0-0-6-5-2-4-2" data-name=" 0.2.13.5.1.4.0-0-6-5-2" class="cls-34" d="M182.6,67.34h-.17V60.47h.15Z"/>
      <path id="_0.2.13.5.1.4.1-0-85-6-0-4-2" data-name=" 0.2.13.5.1.4.1-0-85-6-0" class="cls-35" d="M184.08,60.4h.17v6.94h-.17Z"/>
      <path d="M183.43,59.81a4,4,0,1,0,4,4A4,4,0,0,0,183.43,59.81Zm0,7.53A3.56,3.56,0,1,1,187,63.78h0A3.56,3.56,0,0,1,183.43,67.34Z"/>
    </g>
  </g>
  <g id="JP1-2.54-2pins">
    <polygon id="_0.1.5.0.0.2-4-1-4-2-8" data-name=" 0.1.5.0.0.2-4-1-4-2-8" class="cls-36" points="144.57 28.87 143.06 27.34 139.07 27.34 135.7 27.34 131.73 27.34 130.2 28.87 130.2 32.85 131.73 34.37 135.7 34.37 139.07 34.37 143.06 34.37 144.57 32.85 144.57 28.87"/>
    <polygon id="_0.1.5.0.0.5-5-9-1-4-7" data-name=" 0.1.5.0.0.5-5-9-1-4-7" class="cls-36" points="144.57 28.87 143.06 27.34 139.07 27.34 135.7 27.34 131.73 27.34 130.2 28.87 130.2 32.85 131.73 34.37 135.7 34.37 139.07 34.37 143.06 34.37 144.57 32.85 144.57 28.87"/>
    <rect id="_0.1.5.0.0.6-6-6-6-9-7" data-name=" 0.1.5.0.0.6-6-6-6-9-7" class="cls-4" x="132.63" y="29.55" width="2.32" height="2.32"/>
    <rect id="_0.1.5.0.0.7-8-9-1-2-4" data-name=" 0.1.5.0.0.7-8-9-1-2-4" class="cls-4" x="139.91" y="29.55" width="2.32" height="2.32"/>
    <rect id="_0.1.5.0.0.32-0-8-6-2-6" data-name=" 0.1.5.0.0.32-0-8-6-2-6" class="cls-5" x="140.47" y="30.12" width="1.2" height="1.2"/>
    <polygon id="_0.1.5.0.0.33-77-2-3-1-8" data-name=" 0.1.5.0.0.33-77-2-3-1-8" class="cls-6" points="142.24 29.55 139.91 29.55 140.48 30.12 141.67 30.12 142.24 29.55"/>
    <polygon id="_0.1.5.0.0.34-4-5-3-9-4" data-name=" 0.1.5.0.0.34-4-5-3-9-4" class="cls-7" points="142.24 31.87 141.67 31.31 141.67 30.12 142.24 29.55 142.24 31.87"/>
    <polygon id="_0.1.5.0.0.35-3-5-5-0-6" data-name=" 0.1.5.0.0.35-3-5-5-0-6" class="cls-8" points="139.91 31.87 140.48 31.31 141.67 31.31 142.24 31.87 139.91 31.87"/>
    <polygon id="_0.1.5.0.0.36-1-4-5-0-9" data-name=" 0.1.5.0.0.36-1-4-5-0-9" class="cls-9" points="139.91 31.87 139.91 29.55 140.48 30.12 140.48 31.31 139.91 31.87"/>
    <rect id="_0.1.5.0.0.37-36-9-3-9-7" data-name=" 0.1.5.0.0.37-36-9-3-9-7" class="cls-5" x="133.2" y="30.12" width="1.19" height="1.2"/>
    <polygon id="_0.1.5.0.0.38-3-1-2-5-0" data-name=" 0.1.5.0.0.38-3-1-2-5-0" class="cls-6" points="134.95 29.55 132.63 29.55 133.2 30.12 134.39 30.12 134.95 29.55"/>
    <polygon id="_0.1.5.0.0.39-01-2-8-2-5" data-name=" 0.1.5.0.0.39-01-2-8-2-5" class="cls-7" points="134.95 31.87 134.39 31.31 134.39 30.12 134.95 29.55 134.95 31.87"/>
    <polygon id="_0.1.5.0.0.40-9-5-2-5-7" data-name=" 0.1.5.0.0.40-9-5-2-5-7" class="cls-8" points="132.63 31.87 133.2 31.31 134.39 31.31 134.95 31.87 132.63 31.87"/>
    <polygon id="_0.1.5.0.0.41-0-0-5-1-0" data-name=" 0.1.5.0.0.41-0-0-5-1-0" class="cls-9" points="132.63 31.87 132.63 29.55 133.2 30.12 133.2 31.31 132.63 31.87"/>
  </g>
</svg>
