<svg id="analog-line-sensor" xmlns="http://www.w3.org/2000/svg" width="24.461mm" height="35.95mm" viewBox="0 0 69.339 101.905">
  <defs>
    <style>
      .cls-1 {
        fill: #f2f2f2;
      }

      .cls-1, .cls-12, .cls-27, .cls-28 {
        stroke: #000;
      }

      .cls-1, .cls-12 {
        stroke-miterlimit: 1;
        stroke-width: 0.425px;
      }

      .cls-2 {
        fill: #414042;
      }

      .cls-3 {
        fill: #383839;
      }

      .cls-4 {
        fill: #4d4d4f;
      }

      .cls-5 {
        fill: #58595b;
      }

      .cls-6 {
        fill: #292829;
      }

      .cls-7 {
        fill: #636466;
      }

      .cls-8 {
        fill: #006cb3;
      }

      .cls-9 {
        fill: #0079bb;
      }

      .cls-10 {
        fill: #568fc8;
      }

      .cls-11 {
        fill: #3884c1;
      }

      .cls-12, .cls-27, .cls-28 {
        fill: none;
      }

      .cls-13 {
        fill: #8c8663;
      }

      .cls-14 {
        fill: #d1d3d4;
      }

      .cls-15 {
        fill: #f3ede8;
        stroke: #dddbdb;
        stroke-width: 0.283px;
      }

      .cls-15, .cls-28 {
        stroke-miterlimit: 10;
      }

      .cls-16 {
        fill: #9e965a;
      }

      .cls-17 {
        fill: #d2d1d3;
      }

      .cls-18 {
        fill: #b7b8b9;
      }

      .cls-19 {
        fill: #d7d3d5;
      }

      .cls-20 {
        fill: #966432;
      }

      .cls-21 {
        fill: #242424;
      }

      .cls-22 {
        fill: #bbffd0;
      }

      .cls-23 {
        fill: #545152;
      }

      .cls-24 {
        fill: #b3b3b3;
      }

      .cls-25 {
        fill: gray;
      }

      .cls-26, .cls-37 {
        fill: #fff;
      }

      .cls-27, .cls-28 {
        stroke-width: 0.28px;
      }

      .cls-29 {
        fill: #404040;
      }

      .cls-30 {
        fill: #8d8c8c;
      }

      .cls-31 {
        fill: #b8af82;
      }

      .cls-32 {
        fill: #80795b;
      }

      .cls-33 {
        fill: #5e5b43;
      }

      .cls-34 {
        fill: #9a916c;
      }

      .cls-35, .cls-36, .cls-37 {
        isolation: isolate;
      }

      .cls-35 {
        font-size: 5px;
        font-family: TrebuchetMS, Trebuchet MS;
      }

      .cls-36 {
        opacity: 0.1;
      }

      .cls-37 {
        opacity: 0.2;
      }

      .cls-38 {
        fill: #e2d6a1;
      }
    </style>
  </defs>
  <title>analog-line-sensor</title>
  <g id="top">
    <path class="cls-1" d="M28.594.213H.745A.533.533,0,0,0,.213.745V101.16a.534.534,0,0,0,.532.533H28.594a.535.535,0,0,0,.532-.533V.745A.534.534,0,0,0,28.594.213Zm-13.925,56.4a4.252,4.252,0,1,1,4.252-4.252A4.265,4.265,0,0,1,14.669,56.608Z" transform="translate(0 0)"/>
    <g>
      <path id="path15373" class="cls-2" d="M6.591,12.259V4.038l1.357-1.42,1.366,1.42v22.67L6.591,29.549V12.259Z" transform="translate(0 0)"/>
      <path id="path15377" class="cls-2" d="M6.591,29.549l2.723-2.841h10.7l2.733,2.841Z" transform="translate(0 0)"/>
      <path id="path15381" class="cls-3" d="M7.954,2.618,9.321,1.2H20.015l1.367,1.42-1.367,1.42H9.321Z" transform="translate(0 0)"/>
      <g>
        <path id="path15389" class="cls-4" d="M9.314,9.5V4.038h10.7v5.45h-.3Z" transform="translate(0 0)"/>
        <path id="path15393" class="cls-4" d="M9.314,14.978V9.5h.312l10.086-.01h.3v5.49H9.314Z" transform="translate(0 0)"/>
        <path id="path15397" class="cls-5" d="M9.314,16.118v-1.14h4.132v1.14H9.314Z" transform="translate(0 0)"/>
        <path id="path15401" class="cls-4" d="M9.314,26.708V16.118h10.7v10.59Z" transform="translate(0 0)"/>
        <path id="path15411" class="cls-5" d="M13.445,16.118v-1.14h2.438v1.14Z" transform="translate(0 0)"/>
        <path id="path15415" class="cls-5" d="M15.884,16.118v-1.14h4.131v1.14H15.884Z" transform="translate(0 0)"/>
      </g>
      <path id="path15419" class="cls-5" d="M20.015,16.118V4.038l1.367-1.42,1.366,1.42V29.549l-2.733-2.841Z" transform="translate(0 0)"/>
      <g>
        <g>
          <rect class="cls-6" x="10.165" y="16.93" width="9" height="9" rx="4.5"/>
          <path id="path15427" class="cls-2" d="M15.134,22.827a.992.992,0,0,1,1.292-.61,1.055,1.055,0,0,1,.586,1.343.991.991,0,0,1-1.291.609,1.054,1.054,0,0,1-.587-1.342" transform="translate(0 0)"/>
          <path id="path15431" class="cls-2" d="M11.676,20.132a.992.992,0,0,1,1.292-.609,1.054,1.054,0,0,1,.586,1.342.994.994,0,0,1-1.292.61,1.055,1.055,0,0,1-.586-1.343" transform="translate(0 0)"/>
          <path id="path15435" class="cls-7" d="M14.45,23.235a.5.5,0,0,1,.646-.3.528.528,0,0,1,.294.671.5.5,0,0,1-.647.3.529.529,0,0,1-.293-.671" transform="translate(0 0)"/>
          <path id="path15439" class="cls-5" d="M11.905,20.385a.5.5,0,0,1,.646-.3.527.527,0,0,1,.293.671.5.5,0,0,1-.646.3.529.529,0,0,1-.293-.672" transform="translate(0 0)"/>
        </g>
        <g>
          <rect class="cls-8" x="10.165" y="4.816" width="9" height="9" rx="4.5"/>
          <path id="path15443" class="cls-9" d="M14.8,10.591a.981.981,0,0,1,1.389.3,1.069,1.069,0,0,1-.292,1.443.98.98,0,0,1-1.388-.3,1.068,1.068,0,0,1,.291-1.444" transform="translate(0 0)"/>
          <path id="path15447" class="cls-9" d="M13.546,6.293a.981.981,0,0,1,1.389.3,1.069,1.069,0,0,1-.292,1.443.98.98,0,0,1-1.388-.3,1.069,1.069,0,0,1,.291-1.444" transform="translate(0 0)"/>
          <path id="path15451" class="cls-10" d="M14.017,10.5a.49.49,0,0,1,.694.151.532.532,0,0,1-.145.721.489.489,0,0,1-.694-.151.534.534,0,0,1,.145-.721" transform="translate(0 0)"/>
          <path id="path15455" class="cls-11" d="M13.586,6.638a.49.49,0,0,1,.694.151.532.532,0,0,1-.145.721.489.489,0,0,1-.694-.151.533.533,0,0,1,.145-.721" transform="translate(0 0)"/>
        </g>
      </g>
    </g>
    <rect class="cls-12" x="8.984" y="46.671" width="11.37" height="11.37" rx="5.685"/>
    <g>
      <g id="g15331">
        <path id="path15333" class="cls-13" d="M14.048,66.791l-1.626-.87a2.617,2.617,0,0,1,.423-.87l1.637.87.837-1.7a2.516,2.516,0,0,1,.836.44l-.836,1.7,1.635.88a2.379,2.379,0,0,1-.433.861l-1.635-.87-.838,1.7a2.294,2.294,0,0,1-.837-.45Z" transform="translate(0 0)"/>
      </g>
      <path id="path34105" class="cls-14" d="M13.482,62.046H12.071a.633.633,0,0,1-.12-.026v.947h1.531v-.921Z" transform="translate(0 0)"/>
      <rect id="rect34097" class="cls-14" x="13.846" y="70.283" width="1.528" height="0.921"/>
      <path id="path34101" class="cls-14" d="M17.48,62.02a.638.638,0,0,1-.118.025h-1.41v.922h1.529V62.02Z" transform="translate(0 0)"/>
      <g id="g15165">
        <rect id="rect34091" class="cls-15" x="11.103" y="62.661" width="7.133" height="7.928" rx="1.125"/>
      </g>
      <g id="g15335">
        <path id="path15337" class="cls-16" d="M12.422,65.921l1.626.87-.837,1.69a2.3,2.3,0,0,0,.837.451l.838-1.7,1.635.87a2.391,2.391,0,0,0,.433-.86l-1.635-.881.836-1.7a2.5,2.5,0,0,0-.836-.44l-.837,1.7-1.637-.87a2.608,2.608,0,0,0-.423.87m-.586,2.361a3.5,3.5,0,0,1,0-3.411,3.261,3.261,0,0,1,2.848-1.71,3.418,3.418,0,0,1,0,6.831,3.263,3.263,0,0,1-2.848-1.71" transform="translate(0 0)"/>
      </g>
    </g>
    <g id="C-0603">
      <rect id="rect21332-8-1-9-3-8-2-40-6-2-0-6-6-0-5-6-4-8-7-2-0-7-2-3-9-16-2" class="cls-17" x="23.342" y="80.37" width="2.26" height="2.26"/>
      <rect id="rect21332-8-1-9-3-8-2-40-6-2-0-6-6-0-5-6-4-8-7-2-0-7-2-3-10-16-2" class="cls-17" x="19.962" y="80.371" width="2.26" height="2.26"/>
      <path class="cls-18" d="M24.712,82.635h-3.88a.328.328,0,0,1-.33-.277v-1.7a.307.307,0,0,1,.324-.287h3.88a.31.31,0,0,1,.33.286v1.681a.321.321,0,0,1-.32.3h0Z" transform="translate(0 0)"/>
      <rect class="cls-19" x="20.93" y="80.367" width="3.685" height="2.27"/>
      <path id="path26341-4-2-6-0-8-1-1-1-5-0-3-3-1-8-3-8-7-7-7-2-4-9-7-2-3-5-16-2" class="cls-20" d="M24.192,80.368h-2.84v2.268h2.84Z" transform="translate(0 0)"/>
    </g>
    <g id="R-0603">
      <rect id="rect21332-8-1-9-3-8-2-40-6-2-0-6-6-0-5-6-4-8-7-2-0-7-2-3-9-16-5" class="cls-17" x="7.352" y="74.369" width="2.26" height="2.268"/>
      <rect id="rect21332-8-1-9-3-8-2-40-6-2-0-6-6-0-5-6-4-8-7-2-0-7-2-3-10-16-5" class="cls-17" x="3.962" y="74.369" width="2.26" height="2.268"/>
      <path class="cls-18" d="M8.722,76.637H4.855a.33.33,0,0,1-.33-.278v-1.7a.305.305,0,0,1,.324-.287h3.87a.308.308,0,0,1,.33.285V76.34a.322.322,0,0,1-.32.3h0Z" transform="translate(0 0)"/>
      <g id="path26345-3-6-9-3-6-4-2-5-6-8-7-9-0-90-3-1-3-9-2-2-8-5-0-2-3-5-16-5">
        <rect class="cls-19" x="4.942" y="74.369" width="3.68" height="2.268"/>
      </g>
      <path id="path26341-4-2-6-0-8-1-1-1-5-0-3-3-1-8-3-8-7-7-7-2-4-9-7-2-3-5-16-5" class="cls-21" d="M8.2,74.369H5.372v2.268H8.2Z" transform="translate(0 0)"/>
    </g>
    <g id="R-0603-2" data-name="R-0603">
      <rect id="rect21332-8-1-9-3-8-2-40-6-2-0-6-6-0-5-6-4-8-7-2-0-7-2-3-9-16-5-2" data-name="rect21332-8-1-9-3-8-2-40-6-2-0-6-6-0-5-6-4-8-7-2-0-7-2-3-9-16-5" class="cls-17" x="7.352" y="80.369" width="2.26" height="2.268"/>
      <rect id="rect21332-8-1-9-3-8-2-40-6-2-0-6-6-0-5-6-4-8-7-2-0-7-2-3-10-16-5-2" data-name="rect21332-8-1-9-3-8-2-40-6-2-0-6-6-0-5-6-4-8-7-2-0-7-2-3-10-16-5" class="cls-17" x="3.962" y="80.369" width="2.26" height="2.268"/>
      <path class="cls-18" d="M8.722,82.637H4.855a.33.33,0,0,1-.33-.278v-1.7a.305.305,0,0,1,.324-.287h3.87a.308.308,0,0,1,.33.285V82.34a.322.322,0,0,1-.32.3h0Z" transform="translate(0 0)"/>
      <g id="path26345-3-6-9-3-6-4-2-5-6-8-7-9-0-90-3-1-3-9-2-2-8-5-0-2-3-5-16-5-2" data-name="path26345-3-6-9-3-6-4-2-5-6-8-7-9-0-90-3-1-3-9-2-2-8-5-0-2-3-5-16-5">
        <rect class="cls-19" x="4.942" y="80.369" width="3.68" height="2.268"/>
      </g>
      <path id="path26341-4-2-6-0-8-1-1-1-5-0-3-3-1-8-3-8-7-7-7-2-4-9-7-2-3-5-16-5-2" data-name="path26341-4-2-6-0-8-1-1-1-5-0-3-3-1-8-3-8-7-7-7-2-4-9-7-2-3-5-16-5" class="cls-21" d="M8.2,80.369H5.372v2.268H8.2Z" transform="translate(0 0)"/>
    </g>
    <g id="R-0603-3" data-name="R-0603">
      <rect id="rect21332-8-1-9-3-8-2-40-6-2-0-6-6-0-5-6-4-8-7-2-0-7-2-3-9-16-5-3" data-name="rect21332-8-1-9-3-8-2-40-6-2-0-6-6-0-5-6-4-8-7-2-0-7-2-3-9-16-5" class="cls-17" x="13.572" y="90.391" width="2.268" height="2.26"/>
      <rect id="rect21332-8-1-9-3-8-2-40-6-2-0-6-6-0-5-6-4-8-7-2-0-7-2-3-10-16-5-3" data-name="rect21332-8-1-9-3-8-2-40-6-2-0-6-6-0-5-6-4-8-7-2-0-7-2-3-10-16-5" class="cls-17" x="13.572" y="93.781" width="2.268" height="2.26"/>
      <path class="cls-18" d="M15.84,91.281v3.867a.328.328,0,0,1-.278.33h-1.7a.306.306,0,0,1-.287-.324h0v-3.87a.31.31,0,0,1,.285-.33h1.683a.321.321,0,0,1,.3.32h0Z" transform="translate(0 0)"/>
      <g id="path26345-3-6-9-3-6-4-2-5-6-8-7-9-0-90-3-1-3-9-2-2-8-5-0-2-3-5-16-5-3" data-name="path26345-3-6-9-3-6-4-2-5-6-8-7-9-0-90-3-1-3-9-2-2-8-5-0-2-3-5-16-5">
        <rect class="cls-19" x="13.572" y="91.381" width="2.268" height="3.68"/>
      </g>
      <path id="path26341-4-2-6-0-8-1-1-1-5-0-3-3-1-8-3-8-7-7-7-2-4-9-7-2-3-5-16-5-3" data-name="path26341-4-2-6-0-8-1-1-1-5-0-3-3-1-8-3-8-7-7-7-2-4-9-7-2-3-5-16-5" class="cls-21" d="M13.572,91.8v2.83H15.84V91.8Z" transform="translate(0 0)"/>
    </g>
    <g id="R-0603-4" data-name="R-0603">
      <rect id="rect21332-8-1-9-3-8-2-40-6-2-0-6-6-0-5-6-4-8-7-2-0-7-2-3-9-16-5-4" data-name="rect21332-8-1-9-3-8-2-40-6-2-0-6-6-0-5-6-4-8-7-2-0-7-2-3-9-16-5" class="cls-17" x="23.352" y="74.369" width="2.26" height="2.268"/>
      <rect id="rect21332-8-1-9-3-8-2-40-6-2-0-6-6-0-5-6-4-8-7-2-0-7-2-3-10-16-5-4" data-name="rect21332-8-1-9-3-8-2-40-6-2-0-6-6-0-5-6-4-8-7-2-0-7-2-3-10-16-5" class="cls-17" x="19.962" y="74.369" width="2.26" height="2.268"/>
      <path class="cls-18" d="M24.722,76.637H20.855a.33.33,0,0,1-.33-.278v-1.7a.305.305,0,0,1,.324-.287h3.87a.308.308,0,0,1,.33.285V76.34a.322.322,0,0,1-.32.3h0Z" transform="translate(0 0)"/>
      <g id="path26345-3-6-9-3-6-4-2-5-6-8-7-9-0-90-3-1-3-9-2-2-8-5-0-2-3-5-16-5-4" data-name="path26345-3-6-9-3-6-4-2-5-6-8-7-9-0-90-3-1-3-9-2-2-8-5-0-2-3-5-16-5">
        <rect class="cls-19" x="20.942" y="74.369" width="3.68" height="2.268"/>
      </g>
      <path id="path26341-4-2-6-0-8-1-1-1-5-0-3-3-1-8-3-8-7-7-7-2-4-9-7-2-3-5-16-5-4" data-name="path26341-4-2-6-0-8-1-1-1-5-0-3-3-1-8-3-8-7-7-7-2-4-9-7-2-3-5-16-5" class="cls-21" d="M24.2,74.369h-2.83v2.268H24.2Z" transform="translate(0 0)"/>
    </g>
    <g id="LED-0603">
      <rect id="rect21332-8-1-9-3-8-2-40-6-2-0-6-6-0-5-6-4-8-7-2-0-7-2-3-9-16-8" class="cls-17" x="13.558" y="82.78" width="2.26" height="2.26"/>
      <rect id="rect21332-8-1-9-3-8-2-40-6-2-0-6-6-0-5-6-4-8-7-2-0-7-2-3-10-16-8" class="cls-17" x="13.558" y="79.391" width="2.26" height="2.26"/>
      <path class="cls-18" d="M13.554,84.171v-3.88a.329.329,0,0,1,.278-.33h1.7a.308.308,0,0,1,.288.328h0v3.879a.308.308,0,0,1-.285.331H13.852a.318.318,0,0,1-.3-.32h0Z" transform="translate(0 0)"/>
      <g id="path26345-3-6-9-3-6-4-2-5-6-8-7-9-0-90-3-1-3-9-2-2-8-5-0-2-3-5-16-8">
        <rect class="cls-19" x="13.553" y="80.371" width="2.27" height="3.68"/>
      </g>
      <path id="path26341-4-2-6-0-8-1-1-1-5-0-3-3-1-8-3-8-7-7-7-2-4-9-7-2-3-5-16-8" class="cls-22" d="M15.823,83.651v-2.84H13.555v2.84Z" transform="translate(0 0)"/>
      <path id="path6963-86-8-2-6-0-1-7-9-2-2" class="cls-23" d="M14.533,83.151V82.81h.34v.341Z" transform="translate(0 0)"/>
    </g>
    <g id="T-SOT23-5">
      <path id="path3479-7" class="cls-24" d="M3.49,96.946H5.11v-2.57H3.49Z" transform="translate(0 0)"/>
      <path id="path3481-0" class="cls-25" d="M3.49,95.466H5.11v-.86H3.49Z" transform="translate(0 0)"/>
      <path id="path3483-6" class="cls-24" d="M9.033,96.946h1.6v-2.57h-1.6Z" transform="translate(0 0)"/>
      <path id="path3485-6" class="cls-25" d="M9.033,95.466h1.6v-.86h-1.6Z" transform="translate(0 0)"/>
      <path id="path3487-1" class="cls-24" d="M3.49,88.357H5.11v2.558H3.49Z" transform="translate(0 0)"/>
      <path id="path3489-6" class="cls-25" d="M3.49,89.827H5.11v.78H3.49Z" transform="translate(0 0)"/>
      <path id="path3479-7-2" class="cls-24" d="M6.253,96.946H7.874v-2.57H6.253Z" transform="translate(0 0)"/>
      <path id="path3481-0-2" class="cls-25" d="M6.253,95.466H7.874v-.86H6.253Z" transform="translate(0 0)"/>
      <path id="path3487-1-2" class="cls-24" d="M9.022,88.357h1.622v2.558H9.022Z" transform="translate(0 0)"/>
      <path id="path3489-6-2" class="cls-25" d="M9.022,89.827h1.622v.78H9.022Z" transform="translate(0 0)"/>
      <path id="path3477-9" class="cls-21" d="M2.854,94.386h8.419v-3.48H2.854Z" transform="translate(0 0)"/>
    </g>
    <g id="T-SOT23-5-2" data-name="T-SOT23-5">
      <path id="path3479-7-2-2" data-name="path3479-7" class="cls-24" d="M18.778,88.357H20.4v2.57h-1.62Z" transform="translate(0 0)"/>
      <path id="path3483-6-2" data-name="path3483-6" class="cls-24" d="M24.321,88.357h1.6v2.57h-1.6Z" transform="translate(0 0)"/>
      <path id="path3487-1-2-2" data-name="path3487-1" class="cls-24" d="M18.778,96.946H20.4V94.388h-1.62Z" transform="translate(0 0)"/>
      <path id="path3479-7-2-3" data-name="path3479-7-2" class="cls-24" d="M21.541,88.357h1.621v2.57H21.541Z" transform="translate(0 0)"/>
      <path id="path3487-1-2-3" data-name="path3487-1-2" class="cls-24" d="M24.31,96.946h1.622V94.388H24.31Z" transform="translate(0 0)"/>
    </g>
  </g>
  <g id="bottom">
    <path class="cls-1" d="M68.594.213H40.745a.533.533,0,0,0-.532.532V101.16a.534.534,0,0,0,.532.533H68.594a.535.535,0,0,0,.532-.533V.745A.534.534,0,0,0,68.594.213Zm-13.925,56.4a4.252,4.252,0,1,1,4.252-4.252A4.265,4.265,0,0,1,54.669,56.608Z" transform="translate(0 0)"/>
    <g id="amperka-logo-2-2-2">
      <g id="g530-2-2-2">
        <path id="path532-2-2-2" d="M54.685,80.079a2.008,2.008,0,1,0,2.008,2.008h0a2.009,2.009,0,0,0-2.008-2.008h0m0,5.235a3.227,3.227,0,1,1,3.227-3.227,3.227,3.227,0,0,1-3.227,3.227h0" transform="translate(0 0)"/>
      </g>
      <g id="g534-2-2-2">
        <path id="path536-2-2-2" d="M54.685,73.812a2.229,2.229,0,1,0,2.229,2.229,2.228,2.228,0,0,0-2.229-2.229h0m0,1.219a1.01,1.01,0,1,1-1.009,1.011h0a1.009,1.009,0,0,1,1.009-1.01" transform="translate(0 0)"/>
      </g>
      <g id="g538-2-2-2">
        <path id="path540-2-2-2" d="M54.316,87.434a5.369,5.369,0,0,1-3.834-8.7l-.393-.394a.626.626,0,0,1-.06-.836.609.609,0,0,1,.858-.085l.005,0h0a.408.408,0,0,1,.044.04l.876.876a.531.531,0,0,1,0,.747h0a4.252,4.252,0,0,0-1.264,2.736,4.15,4.15,0,1,0,7.077-2.679l-.057-.057a.528.528,0,0,1,0-.747h0l.858-.857a.625.625,0,0,1,.836-.059.609.609,0,0,1,.085.857h0c-.013.016-.026.03-.04.045l-.412.412a5.371,5.371,0,0,1-4.572,8.7" transform="translate(0 0)"/>
      </g>
    </g>
    <g>
      <rect class="cls-26" x="46.335" y="12.549" width="5.669" height="5.669" rx="2.835"/>
      <rect class="cls-26" x="57.335" y="12.549" width="5.669" height="5.669" rx="2.835"/>
    </g>
    <g>
      <rect class="cls-4" x="47.043" y="13.258" width="4.252" height="4.252" rx="2.126"/>
      <rect class="cls-4" x="58.043" y="13.258" width="4.252" height="4.252" rx="2.126"/>
    </g>
    <g>
      <g>
        <path id="rect6749-2" class="cls-27" d="M44.115,30.843h6.8a.139.139,0,0,1,.139.139h0v13.53a.14.14,0,0,1-.14.14h-6.8a.139.139,0,0,1-.139-.139h0V30.983A.14.14,0,0,1,44.115,30.843Z" transform="translate(0 0)"/>
        <path id="rect6749-9-2" class="cls-27" d="M51.2,30.843h6.933a.141.141,0,0,1,.141.141h0V44.511a.139.139,0,0,1-.138.14H51.21a.142.142,0,0,1-.142-.141h0V30.983A.14.14,0,0,1,51.2,30.843Z" transform="translate(0 0)"/>
        <path id="rect6749-9-3-2-2" class="cls-28" d="M58.424,30.843h6.761a.138.138,0,0,1,.138.138h0v13.53a.14.14,0,0,1-.14.14H58.422a.138.138,0,0,1-.138-.138h0V30.983a.139.139,0,0,1,.138-.14Z" transform="translate(0 0)"/>
        <path id="path106654-2-2-2" class="cls-29" d="M49.255,30.811h-3.9l-1.5,1.578v4.042l1.5,1.578h4.2l1.5-1.578V32.387l-1.5-1.578Z" transform="translate(0 0)"/>
        <rect id="rect106656-2-2-2" class="cls-30" x="46.365" y="33.297" width="2.3" height="2.268"/>
        <rect id="rect106658-2-2-2" class="cls-13" x="46.965" y="33.79" width="1.2" height="1.184"/>
        <polygon id="polygon106660-2-2-2" class="cls-31" points="48.074 33.8 48.684 33.307 46.384 33.307 46.984 33.8 48.074 33.8"/>
        <polygon id="polygon106662-2-2-2" class="cls-32" points="48.684 33.307 48.684 35.575 48.074 34.974 48.074 33.8 48.684 33.307"/>
        <polygon id="polygon106664-2-2-2" class="cls-33" points="48.684 35.575 46.384 35.575 46.984 34.974 48.074 34.974 48.684 35.575"/>
        <polygon id="polygon106666-2-2-2" class="cls-34" points="46.984 34.974 46.384 35.575 46.384 33.307 46.984 33.8 46.984 34.974"/>
        <path id="path106672-2-2-2" class="cls-29" d="M56.464,30.811h-3.9l-1.5,1.578v4.042l1.5,1.578h4.21l1.5-1.578V32.387l-1.5-1.578Z" transform="translate(0 0)"/>
        <rect id="rect106674-2-2-2" class="cls-30" x="53.595" y="33.297" width="2.3" height="2.268"/>
        <rect id="rect106676-2-2-2" class="cls-13" x="54.195" y="33.79" width="1.2" height="1.184"/>
        <polygon id="polygon106678-2-2-2" class="cls-31" points="55.253 33.8 55.903 33.307 53.573 33.307 54.163 33.8 55.253 33.8"/>
        <polygon id="polygon106680-2-2-2" class="cls-32" points="55.903 33.307 55.903 35.575 55.253 34.974 55.253 33.8 55.903 33.307"/>
        <polygon id="polygon106682-2-2-2" class="cls-33" points="55.903 35.575 53.573 35.575 54.163 34.974 55.253 34.974 55.903 35.575"/>
        <polygon id="polygon106684-2-2-2" class="cls-34" points="54.163 34.974 53.573 35.575 53.573 33.307 54.163 33.8 54.163 34.974"/>
        <path id="path106726-2-2-2" class="cls-29" d="M63.584,30.811h-3.8l-1.5,1.578v4.042l1.5,1.578h4.2l1.5-1.578V32.387l-1.5-1.578Z" transform="translate(0 0)"/>
        <rect id="rect106728-2-2-2" class="cls-30" x="60.704" y="33.297" width="2.3" height="2.268"/>
        <rect id="rect106730-2-2-2" class="cls-13" x="61.304" y="33.79" width="1.2" height="1.184"/>
        <polygon id="polygon106732-2-2-2" class="cls-31" points="62.983 33.307 60.663 33.307 61.323 33.8 62.403 33.8 62.983 33.307"/>
        <polygon id="polygon106734-2-2-2" class="cls-32" points="62.983 35.575 62.403 34.974 62.403 33.8 62.983 33.307 62.983 35.575"/>
        <polygon id="polygon106736-2-2-2" class="cls-33" points="60.663 35.575 61.323 34.974 62.403 34.974 62.983 35.575 60.663 35.575"/>
        <polygon id="polygon106738-2-2-2" class="cls-34" points="60.663 35.575 60.663 33.307 61.323 33.8 61.323 34.974 60.663 35.575"/>
        <text class="cls-35" transform="translate(45.805 42.88)">G</text>
        <text class="cls-35" transform="translate(60.81 42.88)">S</text>
        <text class="cls-35" transform="translate(53.326 42.88)">V</text>
      </g>
      <g>
        <g>
          <circle id="_0.1.16.5.0.2-3-8-8" data-name=" 0.1.16.5.0.2-3-8-8" class="cls-31" cx="47.516" cy="34.399" r="1.9"/>
          <g>
            <polygon class="cls-31" points="46.366 18.043 46.366 23.762 46.366 35.18 48.666 35.18 48.666 23.762 48.666 18.043 48.066 14.445 46.866 14.445 46.366 18.043"/>
            <polygon id="_0.1.16.5.0.12-8-0-8" data-name=" 0.1.16.5.0.12-8-0-8" class="cls-36" points="48.366 18.043 48.666 18.043 48.666 35.18 48.366 35.18 48.366 18.043"/>
            <polygon id="_0.1.16.5.0.11-1-0-8" data-name=" 0.1.16.5.0.11-1-0-8" class="cls-37" points="46.366 18.043 46.566 18.043 46.566 35.18 46.366 35.18 46.366 18.043"/>
            <polygon id="polygon6029-5-3-8" class="cls-37" points="46.366 18.043 46.866 14.445 47.166 14.445 46.566 18.043 46.366 18.043"/>
            <polygon id="_0.1.16.5.0.1.3-8-7-8" data-name=" 0.1.16.5.0.1.3-8-7-8" class="cls-36" points="48.366 18.043 47.766 14.445 48.066 14.445 48.666 18.043 48.366 18.043"/>
            <polygon id="_0.1.16.5.0.1.1-5-3-8" data-name=" 0.1.16.5.0.1.1-5-3-8" class="cls-38" points="48.066 14.445 46.866 14.445 46.766 15.384 48.166 15.384 48.066 14.445"/>
            <polygon id="_0.1.16.5.0.6-3-1-8" data-name=" 0.1.16.5.0.6-3-1-8" class="cls-34" points="48.666 35.18 48.666 34.555 46.366 34.555 46.366 35.18 48.666 35.18"/>
            <polygon id="_0.1.16.5.0.7-7-4-8" data-name=" 0.1.16.5.0.7-7-4-8" class="cls-38" points="48.666 34.398 48.666 33.46 46.366 33.46 46.366 34.398 48.666 34.398"/>
          </g>
        </g>
        <g>
          <circle id="_0.1.16.5.0.2-3-8-8-2" data-name=" 0.1.16.5.0.2-3-8-8-2" class="cls-31" cx="54.738" cy="34.399" r="1.9"/>
          <g>
            <polygon class="cls-31" points="53.588 18.043 53.588 23.762 53.588 35.18 55.888 35.18 55.888 23.762 55.888 18.043 55.288 14.445 54.088 14.445 53.588 18.043"/>
            <polygon id="_0.1.16.5.0.12-8-0-8-2" data-name=" 0.1.16.5.0.12-8-0-8-2" class="cls-36" points="55.588 18.043 55.888 18.043 55.888 35.18 55.588 35.18 55.588 18.043"/>
            <polygon id="_0.1.16.5.0.11-1-0-8-2" data-name=" 0.1.16.5.0.11-1-0-8-2" class="cls-37" points="53.588 18.043 53.788 18.043 53.788 35.18 53.588 35.18 53.588 18.043"/>
            <polygon id="polygon6029-5-3-8-2" class="cls-37" points="53.588 18.043 54.088 14.445 54.388 14.445 53.788 18.043 53.588 18.043"/>
            <polygon id="_0.1.16.5.0.1.3-8-7-8-2" data-name=" 0.1.16.5.0.1.3-8-7-8-2" class="cls-36" points="55.588 18.043 54.988 14.445 55.288 14.445 55.888 18.043 55.588 18.043"/>
            <polygon id="_0.1.16.5.0.1.1-5-3-8-2" data-name=" 0.1.16.5.0.1.1-5-3-8-2" class="cls-38" points="55.288 14.445 54.088 14.445 53.988 15.384 55.388 15.384 55.288 14.445"/>
            <polygon id="_0.1.16.5.0.6-3-1-8-2" data-name=" 0.1.16.5.0.6-3-1-8-2" class="cls-34" points="55.888 35.18 55.888 34.555 53.588 34.555 53.588 35.18 55.888 35.18"/>
            <polygon id="_0.1.16.5.0.7-7-4-8-2" data-name=" 0.1.16.5.0.7-7-4-8-2" class="cls-38" points="55.888 34.398 55.888 33.46 53.588 33.46 53.588 34.398 55.888 34.398"/>
          </g>
        </g>
        <g>
          <circle id="_0.1.16.5.0.2-3-8-8-3" data-name=" 0.1.16.5.0.2-3-8-8-3" class="cls-31" cx="61.959" cy="34.399" r="1.9"/>
          <g>
            <polygon class="cls-31" points="60.81 18.043 60.81 23.762 60.81 35.18 63.11 35.18 63.11 23.762 63.11 18.043 62.51 14.445 61.31 14.445 60.81 18.043"/>
            <polygon id="_0.1.16.5.0.12-8-0-8-3" data-name=" 0.1.16.5.0.12-8-0-8-3" class="cls-36" points="62.81 18.043 63.11 18.043 63.11 35.18 62.81 35.18 62.81 18.043"/>
            <polygon id="_0.1.16.5.0.11-1-0-8-3" data-name=" 0.1.16.5.0.11-1-0-8-3" class="cls-37" points="60.81 18.043 61.01 18.043 61.01 35.18 60.81 35.18 60.81 18.043"/>
            <polygon id="polygon6029-5-3-8-3" class="cls-37" points="60.81 18.043 61.31 14.445 61.61 14.445 61.01 18.043 60.81 18.043"/>
            <polygon id="_0.1.16.5.0.1.3-8-7-8-3" data-name=" 0.1.16.5.0.1.3-8-7-8-3" class="cls-36" points="62.81 18.043 62.21 14.445 62.51 14.445 63.11 18.043 62.81 18.043"/>
            <polygon id="_0.1.16.5.0.1.1-5-3-8-3" data-name=" 0.1.16.5.0.1.1-5-3-8-3" class="cls-38" points="62.51 14.445 61.31 14.445 61.21 15.384 62.61 15.384 62.51 14.445"/>
            <polygon id="_0.1.16.5.0.6-3-1-8-3" data-name=" 0.1.16.5.0.6-3-1-8-3" class="cls-34" points="63.11 35.18 63.11 34.555 60.81 34.555 60.81 35.18 63.11 35.18"/>
            <polygon id="_0.1.16.5.0.7-7-4-8-3" data-name=" 0.1.16.5.0.7-7-4-8-3" class="cls-38" points="63.11 34.398 63.11 33.46 60.81 33.46 60.81 34.398 63.11 34.398"/>
          </g>
        </g>
      </g>
    </g>
  </g>
</svg>
