<?xml version='1.0' encoding='UTF-8' standalone='no'?>
<!-- Created with Fritzing (http://www.fritzing.org/) -->
<svg xmlns:svg='http://www.w3.org/2000/svg' xmlns='http://www.w3.org/2000/svg' version='1.2' baseProfile='tiny' x='0in' y='0in' width='2.42121in' height='1.215in' viewBox='0 0 174.327 87.48' >
<path stroke='#000000' stroke-width='3' stroke-linecap='round' stroke-linejoin='round' fill='none' d='M167.161,47.6874L172.827,47.6874' />
<path stroke='#ff0000' stroke-width='3' stroke-linecap='round' stroke-linejoin='round' fill='none' d='M167.161,33.9968L172.827,33.9968' />
<g partID='66120'><g xmlns="http://www.w3.org/2000/svg" id="breadboard">
 <rect xmlns="http://www.w3.org/2000/svg" height="2.9999" width="1" fill="#8C8C8C" x="161.495" y="46.1874" id="connector0pin"/>
 <rect xmlns="http://www.w3.org/2000/svg" height="2.9999" width="1" fill="#8C8C8C" x="161.495" y="32.4969" id="connector1pin"/>
 <g xmlns="http://www.w3.org/2000/svg" y1="47.689" stroke-width="3" y2="47.689" x1="167.161" x2="172.827" fill="none" stroke-linecap="round" stroke="#000000" id="connector0leg"/>
 <g xmlns="http://www.w3.org/2000/svg" y1="33.998" stroke-width="3" y2="33.998" x1="167.161" x2="172.827" fill="none" stroke-linecap="round" stroke="#FF0000" id="connector1leg"/>
 <path xmlns="http://www.w3.org/2000/svg" d="M161.46,85.2281c0,1.32895,-1.199,2.25192,-2.252,2.25192L2.252,87.48C0.761,87.48,0,86.724,0,85.2281L0,2.25092C0,1.06296,0.928,0,2.252,0l156.956,0c1.22,0,2.252,0.895969,2.252,2.25192L161.46,85.2281z" fill="#1A1A1A"/>
 <path xmlns="http://www.w3.org/2000/svg" stroke-width="1" d="M2.346,62.1199L2.346,9.58067c0,-0.774973,0.425,-1.41695,0.945,-1.41695c0.52,0,0.942,0.641978,0.942,1.41695l1,25.6261c0,0.778973,0.428,1.41695,0.945,1.41695s0.945,-0.637978,0.945,-1.41695l1,-19.8533c0,-0.778973,0.426,-1.41795,0.942,-1.41795c0.521,0,0.944,0.638978,0.944,1.41795l0,15.5995" fill="none" stroke="#C9C9C9"/>
 <path xmlns="http://www.w3.org/2000/svg" stroke-width="1" d="M150.794,59.273l0,15.5995c0,0.778973,0.426,1.41795,0.942,1.41795c0.521,0,0.945,-0.638978,0.945,-1.41795l1,-19.8533c0,-0.778973,0.424,-1.41695,0.944,-1.41695c0.519,0,0.941,0.637978,0.941,1.41695l1,25.6261c0,0.777973,0.428,1.41695,0.945,1.41695c0.517,0,0.945,-0.638978,0.945,-1.41695L158.456,49.1983c0,-0.775973,0.639,-1.41695,1.418,-1.41695l1.604,0" fill="none" stroke="#C9C9C9"/>
 <path xmlns="http://www.w3.org/2000/svg" stroke-width="1" d="M158.464,13.6095l0,18.9713c0,0.777973,0.639,1.41595,1.418,1.41595l1.604,0" fill="none" stroke="#C9C9C9"/>
 <rect xmlns="http://www.w3.org/2000/svg" height="15.7825" width="3.789" fill="#C9C9C9" x="1.865" y="56.5071"/>
 <rect xmlns="http://www.w3.org/2000/svg" height="15.7855" width="3.229" fill="#C9C9C9" x="155.348" y="13.6945"/>
 <g xmlns="http://www.w3.org/2000/svg">
  <path xmlns="http://www.w3.org/2000/svg" d="M152.505,37.9987c0,2.34092,-1.913,4.25185,-4.252,4.25185L14.741,42.2506c-2.339,0,-4.252,-1.91093,-4.252,-4.25185L10.489,6.81777c0,-2.33792,1.913,-4.25185,4.252,-4.25185l133.513,0c2.339,0,4.252,1.91393,4.252,4.25185L152.505,37.9987L152.505,37.9987z" fill="#353535"/>
  <path xmlns="http://www.w3.org/2000/svg" d="M111.624,2.63191l36.913,0c2.339,0,4.252,1.91093,4.252,4.25185l0,31.1879c0,2.33792,-1.913,4.25185,-4.252,4.25185l-36.913,0L111.624,2.63191z" fill="#CE925D"/>
  <path xmlns="http://www.w3.org/2000/svg" opacity="0.35" d="M15.063,40.6256c-1.76,0,-4.006,-1.62994,-4.006,-3.56188L11.057,28.139c0,1.93393,2.246,4.96483,4.006,4.96483l132.544,0c1.761,0,4.006,-3.0309,4.006,-4.96483l0,8.92569c0,1.93393,-2.245,3.56188,-4.006,3.56188L15.063,40.6266z" enable-background="new    "/>
  <path xmlns="http://www.w3.org/2000/svg" d="M152.385,22.1452c0,8.8887,-0.338,16.0924,-0.757,16.0924s-0.419,-32.1839,0,-32.1839S152.385,13.2585,152.385,22.1452" fill="#B2B2B2"/>
  <path xmlns="http://www.w3.org/2000/svg" d="M152.102,27.6311c-0.277,0,-0.277,-11.8916,0,-11.8916l-0.008,0.000999966c0,0.732975,0.594,1.32695,1.328,1.32695l0.6,0c0.732,0,1.327,0.59398,1.327,1.32795l0,6.57577c0,0.729975,-0.595,1.32795,-1.327,1.32795l-0.6,0c-0.734,0,-1.328,0.59398,-1.328,1.32595L152.102,27.6311L152.102,27.6311z" fill="#7C7C7C"/>
  <g xmlns="http://www.w3.org/2000/svg">
   <g xmlns="http://www.w3.org/2000/svg">
    <path xmlns="http://www.w3.org/2000/svg" d="M38.798,19.4223l-0.564,1.69994l-1.787,0l2.986,-8.99169l2.543,0l3.046,8.99169l-1.751,0l-0.587,-1.69994L38.798,19.4223zM40.752,13.4505l-0.024,0l-1.535,4.66584l3.106,0L40.752,13.4505z" fill="#E0E0E0"/>
    <path xmlns="http://www.w3.org/2000/svg" d="M47.306,19.4223l-0.564,1.69994l-1.784,0l2.983,-8.99169l2.543,0l3.046,8.99169l-1.751,0l-0.587,-1.69994L47.306,19.4223zM49.26,13.4505l-0.024,0L47.7,18.1164l3.106,0L49.26,13.4505z" fill="#E0E0E0"/>
    <path xmlns="http://www.w3.org/2000/svg" d="M58.49,21.1253l0,-8.99169l4.477,0c1.763,0,2.647,0.356988,2.647,2.33892c0,1.02796,-0.189,1.72694,-1.28,1.98793l0,0.0509983c1.259,0.143995,1.499,0.971967,1.499,2.10793c0,1.99093,-0.815,2.50691,-2.711,2.50691L58.49,21.1253L58.49,21.1253zM60.217,15.8975l2.479,0c0.975,0,1.188,-0.29999,1.188,-1.25896s-0.384,-1.03196,-1.235,-1.03196l-2.435,0L60.217,15.8975L60.217,15.8975zM60.217,19.6503l2.363,0c1.028,0,1.521,-0.0719975,1.521,-1.17496c0,-0.982966,-0.216,-1.27096,-1.232,-1.27096l-2.65,0L60.217,19.6503L60.217,19.6503z" fill="#E0E0E0"/>
    <path xmlns="http://www.w3.org/2000/svg" d="M71.172,20.3333l-0.036,0c-0.3,0.841971,-1.223,0.86297,-1.955,0.86297c-1.427,0,-2.351,-0.29999,-2.351,-2.00293c0,-1.51095,0.792,-1.93093,2.351,-1.93093c0.768,0,1.523,0.0119996,1.883,0.719975l0.048,0l0,-0.815972c0,-1.01897,-0.084,-1.37895,-1.343,-1.37895c-0.66,0,-1.188,0.0619979,-1.188,0.87497l-1.514,0c0,-1.83494,1.263,-1.90393,2.699,-1.90393c2.018,0,2.854,0.311989,2.854,2.42292l0,3.94286l-1.514,0L71.172,20.3333zM68.341,19.1943c0,0.88797,0.357,0.971967,1.379,0.971967c0.803,0,1.391,-0.0689976,1.391,-0.971967c0,-0.87497,-0.646,-0.898969,-1.391,-0.898969C68.952,18.2944,68.341,18.2944,68.341,19.1943z" fill="#E0E0E0"/>
    <path xmlns="http://www.w3.org/2000/svg" d="M73.358,14.8295l0.792,0l0,-1.42695l1.512,0l0,1.42695l2.41,0l0,1.15096l-2.41,0l0,3.22589c0.014,0.57598,0.014,0.838971,0.646,0.838971c0.852,0,0.756,-0.670977,0.756,-1.32795l1.331,0c0.024,1.90393,-0.456,2.47891,-2.087,2.47891c-1.655,0,-2.159,-0.383987,-2.159,-1.97893L74.149,15.9795l-0.792,0L73.358,14.8295L73.358,14.8295z" fill="#E0E0E0"/>
    <path xmlns="http://www.w3.org/2000/svg" d="M78.458,14.8295l0.792,0l0,-1.42695l1.511,0l0,1.42695l2.411,0l0,1.15096l-2.411,0l0,3.22589c0.012,0.57598,0.012,0.838971,0.646,0.838971c0.854,0,0.757,-0.670977,0.757,-1.32795l1.332,0c0.022,1.90393,-0.457,2.47891,-2.089,2.47891c-1.652,0,-2.156,-0.383987,-2.156,-1.97893L79.251,15.9795l-0.792,0L78.459,14.8295L78.458,14.8295z" fill="#E0E0E0"/>
    <path xmlns="http://www.w3.org/2000/svg" d="M89.927,19.1233c0,1.97893,-1.141,2.07493,-2.938,2.07493c-2.411,0,-2.899,-0.767974,-2.899,-3.20189c0,-2.25492,0.357,-3.23489,2.899,-3.23489c2.593,0,2.938,0.755974,2.938,3.50188l-4.33,0c0,1.35395,0.036,1.78694,1.391,1.78694c0.84,0,1.43,0.0119996,1.43,-0.925968L89.927,19.1233L89.927,19.1233zM88.415,17.3004c0,-1.29496,-0.192,-1.39495,-1.43,-1.39495c-1.308,0,-1.391,0.275991,-1.391,1.39495L88.415,17.3004z" fill="#E0E0E0"/>
    <path xmlns="http://www.w3.org/2000/svg" d="M92.532,14.8295L92.5,15.6575l0.06,0c0.3,-0.695976,0.948,-0.896969,1.679,-0.896969c1.332,0,1.655,0.791973,1.655,1.97893l0,0.503983l-1.415,0l0,-0.323989c0,-0.635978,-0.061,-1.00797,-0.768,-1.00797c-0.899,0,-1.163,0.518982,-1.142,1.33195l0,3.88587l-1.512,0l0,-6.29578L92.532,14.8295L92.532,14.8295z" fill="#E0E0E0"/>
    <path xmlns="http://www.w3.org/2000/svg" d="M100.413,21.3783c-0.351,1.42695,-0.639,2.53891,-2.398,2.53891c-0.216,0,-0.432,-0.0329989,-0.648,-0.0479984l0,-1.13996c0.108,0.0119996,0.22,0.0359988,0.324,0.0359988c0.947,0,1.092,-0.911969,1.227,-1.64594l-0.731,0l-2.075,-6.29578l1.562,0l1.595,5.36082l0.022,0l1.225,-5.36082l1.535,0L100.413,21.3783z" fill="#E0E0E0"/>
   </g>
  </g>
  <path xmlns="http://www.w3.org/2000/svg" opacity="0.35" d="M148.381,14.2885c0,1.41695,-1.54,2.56591,-3.44,2.56591L17.615,16.8544c-1.897,0,-3.438,-1.04896,-3.438,-2.46692L14.177,6.65177c0,-1.41795,1.54,-2.66791,3.438,-2.66791L144.94,3.98386c1.9,0,3.44,1.14996,3.44,2.56791L148.38,14.2885z" fill="#FFFFFF" enable-background="new    "/>
 </g>
 <g xmlns="http://www.w3.org/2000/svg">
  <path xmlns="http://www.w3.org/2000/svg" d="M8.499,81.0042c0,2.33792,1.912,4.25185,4.252,4.25185l133.51,0c2.339,0,4.252,-1.91393,4.252,-4.25185L150.513,49.8203c0,-2.33792,-1.913,-4.25185,-4.252,-4.25185L12.751,45.5684c-2.34,0,-4.252,1.91393,-4.252,4.25185L8.499,81.0042z" fill="#353535"/>
  <path xmlns="http://www.w3.org/2000/svg" d="M49.664,45.5714L12.751,45.5714c-2.34,0,-4.252,1.91393,-4.252,4.25185L8.499,81.0072c0,2.33792,1.912,4.25185,4.252,4.25185l36.913,0L49.664,45.5714z" fill="#CE925D"/>
  <path xmlns="http://www.w3.org/2000/svg" opacity="0.35" d="M145.94,83.6321c1.76,0,4.006,-1.63294,4.006,-3.56288l0,-8.92569c0,1.93393,-2.246,4.96483,-4.006,4.96483L13.395,76.1084c-1.76,0,-4.006,-3.0309,-4.006,-4.96483l0,8.92569c0,1.93393,2.246,3.56288,4.006,3.56288L145.94,83.6321z" enable-background="new    "/>
  <path xmlns="http://www.w3.org/2000/svg" d="M8.618,65.1508c0,8.8887,0.34,16.0924,0.759,16.0924s0.419,-32.1839,0,-32.1839S8.618,56.2641,8.618,65.1508" fill="#B2B2B2"/>
  <path xmlns="http://www.w3.org/2000/svg" d="M8.901,70.6376c0.278,0,0.278,-11.8916,0,-11.8916l0.008,0.000999966c0,0.732975,-0.594,1.32695,-1.325,1.32695L6.981,60.0739c-0.729,0,-1.327,0.59698,-1.327,1.32795l0,6.57677c0,0.730975,0.598,1.32795,1.327,1.32795l0.603,0c0.731,0,1.325,0.59398,1.325,1.32795L8.901,70.6376L8.901,70.6376z" fill="#7C7C7C"/>
  <g xmlns="http://www.w3.org/2000/svg">
   <g xmlns="http://www.w3.org/2000/svg">
    <path xmlns="http://www.w3.org/2000/svg" d="M123.065,65.8337l0.564,-1.70094l1.787,0l-2.986,8.99269l-2.543,0l-3.046,-8.99269l1.751,0l0.588,1.70094L123.065,65.8337zM121.111,71.8065l0.024,0l1.535,-4.66484l-3.107,0L121.111,71.8065z" fill="#E0E0E0"/>
    <path xmlns="http://www.w3.org/2000/svg" d="M114.557,65.8337l0.564,-1.70094l1.787,0l-2.986,8.99269l-2.543,0l-3.046,-8.99269l1.751,0l0.588,1.70094L114.557,65.8337zM112.603,71.8065l0.024,0l1.535,-4.66484l-3.107,0L112.603,71.8065z" fill="#E0E0E0"/>
    <path xmlns="http://www.w3.org/2000/svg" d="M103.374,64.1298l0,8.99269l-4.478,0c-1.763,0,-2.647,-0.355988,-2.647,-2.33892c0,-1.02796,0.189,-1.72794,1.28,-1.98793l0,-0.0499983c-1.259,-0.144995,-1.497,-0.972967,-1.497,-2.10793c0,-1.99193,0.813,-2.50691,2.711,-2.50691L103.374,64.1308L103.374,64.1298zM101.646,65.6058l-2.362,0c-1.028,0,-1.521,0.0719975,-1.521,1.17496c0,0.982966,0.216,1.27096,1.235,1.27096l2.647,0L101.645,65.6058zM101.646,69.3596l-2.481,0c-0.975,0,-1.188,0.29899,-1.188,1.25896s0.384,1.03196,1.235,1.03196l2.435,0L101.647,69.3596z" fill="#E0E0E0"/>
    <path xmlns="http://www.w3.org/2000/svg" d="M90.692,64.9218l0.036,0c0.299,-0.842971,1.222,-0.86397,1.955,-0.86397c1.428,0,2.352,0.29899,2.352,2.00193c0,1.51195,-0.791,1.93193,-2.352,1.93193c-0.768,0,-1.523,-0.0119996,-1.882,-0.720975l-0.048,0l0,0.815972c0,1.01997,0.084,1.37895,1.342,1.37895c0.66,0,1.188,-0.0619979,1.188,-0.87497l1.515,0c0,1.83394,-1.26,1.90293,-2.699,1.90293c-2.014,0,-2.853,-0.311989,-2.853,-2.42192l0,-3.94386l1.511,0L90.692,64.9218zM93.522,66.0607c0,-0.88697,-0.356,-0.970967,-1.379,-0.970967c-0.804,0,-1.391,0.0679977,-1.391,0.970967c0,0.87597,0.645,0.899969,1.391,0.899969C92.911,66.9617,93.522,66.9617,93.522,66.0607z" fill="#E0E0E0"/>
    <path xmlns="http://www.w3.org/2000/svg" d="M88.506,70.4266l-0.792,0l0,1.42795l-1.512,0l0,-1.42795l-2.41,0l0,-1.14996l2.41,0l0,-3.22689c-0.014,-0.57698,-0.014,-0.842971,-0.646,-0.842971c-0.852,0,-0.756,0.674977,-0.756,1.33295l-1.331,0c-0.024,-1.90493,0.456,-2.48091,2.087,-2.48091c1.655,0,2.159,0.382987,2.159,1.97893l0,3.23789l0.792,0L88.506,70.4266L88.506,70.4266z" fill="#E0E0E0"/>
    <path xmlns="http://www.w3.org/2000/svg" d="M83.406,70.4266l-0.792,0l0,1.42795l-1.511,0l0,-1.42795l-2.411,0l0,-1.14996l2.411,0l0,-3.22689c-0.012,-0.57698,-0.012,-0.842971,-0.646,-0.842971c-0.854,0,-0.757,0.674977,-0.757,1.33295l-1.332,0c-0.022,-1.90493,0.457,-2.48091,2.089,-2.48091c1.652,0,2.156,0.382987,2.156,1.97893l0,3.23789l0.792,0L83.405,70.4266L83.406,70.4266z" fill="#E0E0E0"/>
    <path xmlns="http://www.w3.org/2000/svg" d="M71.937,66.1337c0,-1.97993,1.141,-2.07593,2.938,-2.07593c2.411,0,2.899,0.767974,2.899,3.20289c0,2.25592,-0.357,3.23489,-2.899,3.23489c-2.593,0,-2.938,-0.755974,-2.938,-3.50188l4.33,0c0,-1.35395,-0.036,-1.78794,-1.391,-1.78794c-0.84,0,-1.43,-0.0119996,-1.43,0.926968L71.937,66.1327L71.937,66.1337zM73.448,67.9557c0,1.29596,0.192,1.39595,1.43,1.39595c1.308,0,1.391,-0.275991,1.391,-1.39595L73.448,67.9557z" fill="#E0E0E0"/>
    <path xmlns="http://www.w3.org/2000/svg" d="M69.331,70.4266l0.033,-0.826972l-0.06,0c-0.3,0.695976,-0.948,0.895969,-1.679,0.895969c-1.331,0,-1.655,-0.790973,-1.655,-1.97893l0,-0.503983l1.415,0l0,0.323989c0,0.634978,0.06,1.00797,0.768,1.00797c0.899,0,1.163,-0.519982,1.142,-1.33195l0,-3.88587l1.511,0l0,6.29578L69.331,70.4266L69.331,70.4266z" fill="#E0E0E0"/>
    <path xmlns="http://www.w3.org/2000/svg" d="M61.45,63.8768c0.351,-1.42895,0.639,-2.54091,2.398,-2.54091c0.216,0,0.432,0.0329989,0.648,0.0479984l0,1.13996c-0.108,-0.0119996,-0.219,-0.0359988,-0.324,-0.0359988c-0.948,0,-1.092,0.911969,-1.227,1.64594l0.731,0l2.075,6.29578l-1.562,0l-1.595,-5.36082l-0.023,0l-1.225,5.36082l-1.535,0L61.45,63.8768z" fill="#E0E0E0"/>
   </g>
  </g>
  <path xmlns="http://www.w3.org/2000/svg" opacity="0.35" d="M12.623,57.293c0,1.41995,1.54,2.56591,3.438,2.56591l127.326,0c1.897,0,3.438,-1.04896,3.438,-2.46692l0,-7.73573c0,-1.41795,-1.541,-2.66791,-3.438,-2.66791L16.063,46.9884c-1.897,0,-3.438,1.14996,-3.438,2.56791L12.623,57.293L12.623,57.293z" fill="#FFFFFF" enable-background="new    "/>
 </g>
 <g xmlns="http://www.w3.org/2000/svg">
  <path xmlns="http://www.w3.org/2000/svg" d="M8.053,0.142995l1.96,1.52195c0,0,1.398,1.58295,2.616,3.27089c0.726,1.00597,1.334,4.54884,2.23,5.44681c0.899,0.895969,2.182,1.08996,3.271,1.08996c0.303,0,25.249,0,25.552,0c1.09,0,2.37,-0.189993,3.27,-1.08996c0.898,-0.897969,1.509,-4.44085,2.232,-5.44681c1.217,-1.68794,2.616,-3.27089,2.616,-3.27089l1.96,-1.52195L8.053,0.142995z" fill="#1A1A1A"/>
  <path xmlns="http://www.w3.org/2000/svg" opacity="0.2" d="M10.883,1.29196l0.511,0.189993c0,0,0,0.706976,1.136,1.45895c0.681,0.448985,1.246,0.644978,2.085,1.04696c0.84,0.399986,2.035,0.485983,3.056,0.485983c0.282,0,26.191,0,26.478,0c1.021,0,2.213,-0.0859971,3.052,-0.485983c0.841,-0.401986,1.408,-0.597979,2.085,-1.04696c1.14,-0.751974,1.139,-1.45895,1.139,-1.45895l0.501,-0.187994L10.883,1.29196z" fill="#FFFFFF" enable-background="new    "/>
 </g>
 <g xmlns="http://www.w3.org/2000/svg">
  <path xmlns="http://www.w3.org/2000/svg" d="M107.719,0.142995l1.96,1.52195c0,0,1.398,1.58295,2.616,3.27089c0.726,1.00597,1.335,4.54884,2.23,5.44681c0.898,0.895969,2.182,1.08996,3.271,1.08996c0.304,0,25.249,0,25.552,0c1.09,0,2.369,-0.189993,3.271,-1.08996c0.897,-0.897969,1.508,-4.44085,2.231,-5.44681c1.217,-1.68794,2.615,-3.27089,2.615,-3.27089l1.961,-1.52195L107.719,0.142995z" fill="#1A1A1A"/>
  <path xmlns="http://www.w3.org/2000/svg" opacity="0.2" d="M110.549,1.29196l0.511,0.189993c0,0,0,0.706976,1.136,1.45895c0.681,0.448985,1.245,0.644978,2.085,1.04696c0.843,0.399986,2.035,0.485983,3.056,0.485983c0.282,0,26.192,0,26.479,0c1.021,0,2.213,-0.0859971,3.053,-0.485983c0.841,-0.401986,1.407,-0.597979,2.087,-1.04696c1.138,-0.751974,1.137,-1.45895,1.137,-1.45895l0.501,-0.187994L110.549,1.29196z" fill="#FFFFFF" enable-background="new    "/>
 </g>
 <g xmlns="http://www.w3.org/2000/svg">
  <path xmlns="http://www.w3.org/2000/svg" d="M8.053,87.14l1.96,-1.52495c0,0,1.398,-1.58195,2.616,-3.26889c0.726,-1.00597,1.334,-4.54884,2.23,-5.44781c0.899,-0.897969,2.182,-1.08996,3.271,-1.08996c0.303,0,25.249,0,25.552,0c1.09,0,2.37,0.187994,3.27,1.08996c0.898,0.898969,1.509,4.44185,2.232,5.44781c1.217,1.68694,2.616,3.26889,2.616,3.26889l1.96,1.52495L8.053,87.14z" fill="#1A1A1A"/>
  <path xmlns="http://www.w3.org/2000/svg" d="M10.883,85.9911l0.511,-0.187994c0,0,0,-0.707976,1.136,-1.45995c0.681,-0.448985,1.246,-0.645978,2.085,-1.04496c0.84,-0.400986,2.035,-0.485983,3.056,-0.485983c0.282,0,26.191,0,26.478,0c1.021,0,2.213,0.0849971,3.052,0.485983c0.841,0.397986,1.408,0.59598,2.085,1.04496c1.14,0.751974,1.139,1.45995,1.139,1.45995l0.501,0.184994L10.883,85.9911z"/>
 </g>
 <g xmlns="http://www.w3.org/2000/svg">
  <path xmlns="http://www.w3.org/2000/svg" d="M107.719,87.14l1.96,-1.52495c0,0,1.398,-1.58195,2.616,-3.26889c0.726,-1.00597,1.335,-4.54884,2.23,-5.44781c0.898,-0.897969,2.182,-1.08996,3.271,-1.08996c0.304,0,25.249,0,25.552,0c1.09,0,2.369,0.187994,3.271,1.08996c0.898,0.899969,1.508,4.44185,2.231,5.44781c1.217,1.68694,2.615,3.26889,2.615,3.26889l1.961,1.52495L107.719,87.14z" fill="#1A1A1A"/>
  <path xmlns="http://www.w3.org/2000/svg" d="M110.549,85.9911l0.511,-0.187994c0,0,0,-0.707976,1.136,-1.45995c0.681,-0.448985,1.245,-0.645978,2.085,-1.04496c0.843,-0.400986,2.035,-0.485983,3.056,-0.485983c0.282,0,26.192,0,26.479,0c1.021,0,2.213,0.0849971,3.053,0.485983c0.841,0.397986,1.407,0.59598,2.087,1.04496c1.138,0.751974,1.137,1.45995,1.137,1.45995l0.501,0.184994L110.549,85.9911z"/>
 </g>
 <path xmlns="http://www.w3.org/2000/svg" stroke-width="3" d="M161.495,47.6874l5.666,0" fill="none" stroke="#000000"/>
 <path xmlns="http://www.w3.org/2000/svg" stroke-width="3" d="M161.495,33.9968l5.666,0" fill="none" stroke="#FF0000"/>
</g>
</g></svg>