<svg id="battery-icr16340-li-ion-rechargeable" xmlns="http://www.w3.org/2000/svg" width="33mm" height="16.5mm" viewBox="0 0 93.5433 46.7717">
  <defs>
    <style>
      .cls-1 {
        fill: #353535;
      }

      .cls-10, .cls-12, .cls-13, .cls-2, .cls-8, .cls-9 {
        fill: #fea342;
      }

      .cls-3, .cls-6 {
        opacity: 0.35;
      }

      .cls-10, .cls-11, .cls-12, .cls-13, .cls-3, .cls-6, .cls-7, .cls-8, .cls-9 {
        isolation: isolate;
      }

      .cls-4 {
        fill: #b2b2b2;
      }

      .cls-5 {
        fill: #7c7c7c;
      }

      .cls-6 {
        fill: #fff;
      }

      .cls-7 {
        opacity: 0.88;
      }

      .cls-8 {
        font-size: 6px;
      }

      .cls-10, .cls-12, .cls-13, .cls-14, .cls-8, .cls-9 {
        font-family: TrebuchetMS, Trebuchet MS;
      }

      .cls-9 {
        font-size: 6.096px;
      }

      .cls-10 {
        font-size: 8.8455px;
      }

      .cls-12, .cls-13 {
        font-size: 3.6576px;
      }

      .cls-13 {
        letter-spacing: -0.162em;
      }

      .cls-14 {
        font-size: 12px;
      }
    </style>
  </defs>
  <title>battery-icr16340-li-ion-rechargeable</title>
  <g>
    <g id="E1-battery-aaa">
      <path class="cls-1" d="M91.7069,41.7628c0,2.7672-1.236,5.0089-2.74,5.0089H2.8479c-1.5044,0-2.74-2.2417-2.74-5.0089V4.97c0-2.7673,1.236-4.947,2.74-4.947H88.9665c1.5044,0,2.74,2.2415,2.74,5.0088Z"/>
      <path class="cls-2" d="M2.8479.0225H89.15c1.5044,0,2.74,2.2415,2.74,4.9933v36.747c0,2.7518-1.236,5.0089-2.74,5.0089l-86.8436-.099A2.99,2.99,0,0,1,.9649,45.47C-.43,42.5848.0942,38.5657.1075,21.3332.12,4.97-.0362,4.9332.4747,1.3532.7081-.2822,2.8479.0225,2.8479.0225Z"/>
      <path class="cls-3" d="M3.06,44.8548c-1.1372,0-2.5851-1.917-2.5851-4.205V30.1373c0,2.288,1.4479,5.8592,2.5851,5.8592H88.5215c1.13,0,2.585-3.5712,2.585-5.8592V40.65c0,2.288-1.4549,4.205-2.585,4.205Z"/>
      <path class="cls-4" d="M91.6292,23.026c0,10.466-.219,18.9532-.4874,18.9532s-.2684-37.9218,0-37.9218.4874,8.4872.4874,18.9686"/>
      <path class="cls-5" d="M91.4455,30.21c-.1765-4.6659-.1765-9.3559,0-14.0217h0c.0482.935.4261,1.6185.8547,1.5459h.3884c.43-.0809.81.6067.8547,1.546v7.73c-.0482.935-.4261,1.6185-.8547,1.5459H92.3c-.43-.0809-.81.6067-.8547,1.5459Z"/>
      <path class="cls-6" d="M4.7054,11.9036c-1.2218,0-2.1824-1.2985-2.1824-2.8445V4.7685c0-1.67.9888-3.0919,2.2178-3.0919H86.8264c1.2289,0,2.2248,1.345,2.2248,3.0919V13.89l-.0071-5c0,1.67-.9888,3.0145-2.2177,3.0145"/>
      <path class="cls-7" d="M3.06,46.0739c-1.1372,0-2.5851-1.917-2.5851-4.205V15.507c0,2.288,1.4479,5.8591,2.5851,5.8591H88.5215c1.13,0,2.1593-3.31,2.585-5.8591V41.8689c0,2.288-1.4549,4.205-2.585,4.205Z"/>
    </g>
    <g>
      <text class="cls-8" transform="translate(24.5175 27.5041) scale(0.6906 1)">3.7V</text>
      <text class="cls-9" transform="translate(49.7782 27.5041) scale(0.6906 1)">700mAh</text>
      <text class="cls-10" transform="translate(22.8622 37.6134) scale(1.0756 1)">ICR16340C</text>
    </g>
    <g class="cls-11">
      <text class="cls-12" transform="translate(27.8856 44.0294) scale(0.6906 1)">Energy </text>
      <text class="cls-13" transform="translate(36.5638 44.0294) scale(0.6906 1)">T</text>
      <text class="cls-12" transform="translate(37.6654 44.0294) scale(0.6906 1)"><tspan xml:space="preserve">echnolody  Co.,   Ltd.</tspan></text>
    </g>
    <text class="cls-14" transform="translate(77.0946 19.6482)">+</text>
    <text class="cls-14" transform="translate(6.4096 19.6489)">−</text>
  </g>
</svg>
