<?xml version="1.0" encoding="UTF-8" standalone="no"?>
<!-- Created with Fritzing (http://www.fritzing.org/) -->

<svg
   xmlns:dc="http://purl.org/dc/elements/1.1/"
   xmlns:cc="http://creativecommons.org/ns#"
   xmlns:rdf="http://www.w3.org/1999/02/22-rdf-syntax-ns#"
   xmlns:svg="http://www.w3.org/2000/svg"
   xmlns="http://www.w3.org/2000/svg"
   xmlns:sodipodi="http://sodipodi.sourceforge.net/DTD/sodipodi-0.dtd"
   xmlns:inkscape="http://www.inkscape.org/namespaces/inkscape"
   version="1.2"
   x="0in"
   y="0in"
   width="2.1203225in"
   height="0.98562294in"
   viewBox="0 0 152.66311 70.96485"
   id="svg125"
   sodipodi:docname="battery-holder-2aa.svg"
   inkscape:version="0.92.1 r15371">
  <metadata
     id="metadata131">
    <rdf:RDF>
      <cc:Work
         rdf:about="">
        <dc:format>image/svg+xml</dc:format>
        <dc:type
           rdf:resource="http://purl.org/dc/dcmitype/StillImage" />
        <dc:title></dc:title>
      </cc:Work>
    </rdf:RDF>
  </metadata>
  <defs
     id="defs129" />
  <sodipodi:namedview
     pagecolor="#ffffff"
     bordercolor="#666666"
     borderopacity="1"
     objecttolerance="10"
     gridtolerance="10"
     guidetolerance="10"
     inkscape:pageopacity="0"
     inkscape:pageshadow="2"
     inkscape:window-width="1920"
     inkscape:window-height="1017"
     id="namedview127"
     showgrid="false"
     fit-margin-top="0"
     fit-margin-left="0"
     fit-margin-right="0"
     fit-margin-bottom="0"
     inkscape:zoom="3.2697149"
     inkscape:cx="101.90973"
     inkscape:cy="24.008943"
     inkscape:window-x="-8"
     inkscape:window-y="-8"
     inkscape:window-maximized="1"
     inkscape:current-layer="svg125" />
  <g
     y1="47.689"
     y2="47.689"
     x1="167.161"
     x2="172.827"
     id="connector0leg"
     style="fill:none;stroke:#000000;stroke-width:3;stroke-linecap:round"
     transform="scale(0.8112118)" />
  <g
     y1="33.998"
     y2="33.998"
     x1="167.161"
     x2="172.827"
     id="connector1leg"
     style="fill:none;stroke:#ff0000;stroke-width:3;stroke-linecap:round"
     transform="scale(0.8112118)" />
  <path
     d="m 131.00665,38.684582 c 7.28709,2.254544 13.19922,2.593462 20.42338,0"
     id="path118"
     inkscape:connector-curvature="0"
     style="fill:none;stroke:#000000;stroke-width:2.43363547;stroke-linecap:round"
     sodipodi:nodetypes="cc" />
  <path
     d="m 130.99935,27.578565 c 5.77742,1.192836 13.17567,1.165254 19.74256,-3.440625"
     id="path120"
     inkscape:connector-curvature="0"
     style="fill:none;stroke:#ff0000;stroke-width:2.4337492;stroke-linecap:round;stroke-miterlimit:4;stroke-dasharray:none"
     sodipodi:nodetypes="cc" />
  <g
     id="g5073"
     transform="translate(-15.320258,-31.654126)">
    <rect
       style="fill:#8c8c8c;stroke-width:0.81121182"
       id="connector0pin"
       y="69.121887"
       x="146.3269"
       width="0.81121182"
       height="2.4335544" />
    <rect
       style="fill:#8c8c8c;stroke-width:0.81121182"
       id="connector1pin"
       y="58.015995"
       x="146.3269"
       width="0.81121182"
       height="2.4335544" />
    <path
       style="fill:#1a1a1a;stroke-width:0.81121182"
       inkscape:connector-curvature="0"
       id="path10"
       d="m 146.29852,100.79217 c 0,1.07806 -0.97265,1.82678 -1.82685,1.82678 l -127.324563,-2e-5 c -1.209517,0 -1.826849,-0.61327 -1.826849,-1.82676 V 33.480099 c 0,-0.963687 0.752805,-1.825973 1.826849,-1.825973 H 144.47167 c 0.98967,0 1.82685,0.726821 1.82685,1.826784 z" />
    <path
       style="fill:none;stroke:#c9c9c9;stroke-width:0.81121182"
       inkscape:connector-curvature="0"
       id="path12"
       d="M 17.223361,82.046522 V 39.426079 c 0,-0.628668 0.344765,-1.149447 0.766595,-1.149447 0.42183,0 0.764162,0.52078 0.764162,1.149447 l 0.811211,20.788194 c 0,0.631912 0.347199,1.149447 0.766596,1.149447 0.419396,0 0.766595,-0.517535 0.766595,-1.149447 l 0.811211,-16.105231 c 0,-0.631912 0.345577,-1.150258 0.764162,-1.150258 0.422641,0 0.765784,0.518347 0.765784,1.150258 v 12.654499" />
    <path
       style="fill:none;stroke:#c9c9c9;stroke-width:0.81121182"
       inkscape:connector-curvature="0"
       id="path14"
       d="m 137.64613,79.737083 v 12.654498 c 0,0.631913 0.34558,1.150258 0.76416,1.150258 0.42264,0 0.7666,-0.518346 0.7666,-1.150258 L 139.9881,76.28635 c 0,-0.631912 0.34395,-1.149446 0.76578,-1.149446 0.42102,0 0.76335,0.517535 0.76335,1.149446 l 0.81121,20.788195 c 0,0.631101 0.3472,1.149447 0.7666,1.149447 0.4194,0 0.76659,-0.518347 0.76659,-1.149447 V 71.564367 c 0,-0.629478 0.51837,-1.149446 1.1503,-1.149446 h 1.30119" />
    <path
       style="fill:none;stroke:#c9c9c9;stroke-width:0.81121182"
       inkscape:connector-curvature="0"
       id="path16"
       d="m 143.86812,42.694313 v 15.389742 c 0,0.631101 0.51837,1.148636 1.1503,1.148636 h 1.30119" />
    <rect
       style="fill:#c9c9c9;stroke-width:0.81121182"
       id="rect18"
       y="77.493355"
       x="16.833168"
       width="3.0736816"
       height="12.802951" />
    <rect
       style="fill:#c9c9c9;stroke-width:0.81121182"
       id="rect20"
       y="42.763268"
       x="141.34039"
       width="2.6194029"
       height="12.805384" />
    <g
       transform="matrix(0.8112118,0,0,0.8112118,15.320258,31.654126)"
       id="g56">
      <path
         style="fill:#353535"
         inkscape:connector-curvature="0"
         id="path22"
         d="m 152.505,37.9987 c 0,2.34092 -1.913,4.25185 -4.252,4.25185 l -133.512,5e-5 c -2.339,0 -4.252,-1.91093 -4.252,-4.25185 V 6.81777 c 0,-2.33792 1.913,-4.25185 4.252,-4.25185 h 133.513 c 2.339,0 4.252,1.91393 4.252,4.25185 z" />
      <path
         style="fill:#ce925d"
         inkscape:connector-curvature="0"
         id="path24"
         d="m 111.624,2.63191 h 36.913 c 2.339,0 4.252,1.91093 4.252,4.25185 v 31.1879 c 0,2.33792 -1.913,4.25185 -4.252,4.25185 h -36.913 z" />
      <path
         style="opacity:0.35"
         inkscape:connector-curvature="0"
         id="path26"
         enable-background="new    "
         d="m 15.063,40.6256 c -1.76,0 -4.006,-1.62994 -4.006,-3.56188 V 28.139 c 0,1.93393 2.246,4.96483 4.006,4.96483 h 132.544 c 1.761,0 4.006,-3.0309 4.006,-4.96483 v 8.92569 c 0,1.93393 -2.245,3.56188 -4.006,3.56188 l -132.544,3e-5 z" />
      <path
         style="fill:#b2b2b2"
         inkscape:connector-curvature="0"
         id="path28"
         d="m 152.385,22.1452 c 0,8.8887 -0.338,16.0924 -0.757,16.0924 -0.419,0 -0.419,-32.1839 0,-32.1839 0.419,0 0.757,7.2048 0.757,16.0915" />
      <path
         style="fill:#7c7c7c"
         inkscape:connector-curvature="0"
         id="path30"
         d="m 152.102,27.6311 c -0.277,0 -0.277,-11.8916 0,-11.8916 l -0.008,0.001 c 0,0.732975 0.594,1.32695 1.328,1.32695 h 0.6 c 0.732,0 1.327,0.59398 1.327,1.32795 v 6.57577 c 0,0.729975 -0.595,1.32795 -1.327,1.32795 h -0.6 c -0.734,0 -1.328,0.59398 -1.328,1.32595 l 0.008,0.006 z" />
      <g
         id="g52">
        <g
           id="g50">
          <path
             style="fill:#e0e0e0"
             inkscape:connector-curvature="0"
             id="path32"
             d="m 38.798,19.4223 -0.564,1.69994 h -1.787 l 2.986,-8.99169 h 2.543 l 3.046,8.99169 H 43.271 L 42.684,19.4223 Z m 1.954,-5.9718 h -0.024 l -1.535,4.66584 h 3.106 z" />
          <path
             style="fill:#e0e0e0"
             inkscape:connector-curvature="0"
             id="path34"
             d="m 47.306,19.4223 -0.564,1.69994 h -1.784 l 2.983,-8.99169 h 2.543 l 3.046,8.99169 H 51.779 L 51.192,19.4223 Z M 49.26,13.4505 H 49.236 L 47.7,18.1164 h 3.106 z" />
          <path
             style="fill:#e0e0e0"
             inkscape:connector-curvature="0"
             id="path36"
             d="m 58.49,21.1253 v -8.99169 h 4.477 c 1.763,0 2.647,0.356988 2.647,2.33892 0,1.02796 -0.189,1.72694 -1.28,1.98793 v 0.051 c 1.259,0.143995 1.499,0.971967 1.499,2.10793 0,1.99093 -0.815,2.50691 -2.711,2.50691 z m 1.727,-5.2278 h 2.479 c 0.975,0 1.188,-0.29999 1.188,-1.25896 0,-0.95897 -0.384,-1.03196 -1.235,-1.03196 h -2.435 z m 0,3.7528 h 2.363 c 1.028,0 1.521,-0.072 1.521,-1.17496 0,-0.982966 -0.216,-1.27096 -1.232,-1.27096 h -2.65 z" />
          <path
             style="fill:#e0e0e0"
             inkscape:connector-curvature="0"
             id="path38"
             d="m 71.172,20.3333 h -0.036 c -0.3,0.841971 -1.223,0.86297 -1.955,0.86297 -1.427,0 -2.351,-0.29999 -2.351,-2.00293 0,-1.51095 0.792,-1.93093 2.351,-1.93093 0.768,0 1.523,0.012 1.883,0.719975 h 0.048 v -0.815972 c 0,-1.01897 -0.084,-1.37895 -1.343,-1.37895 -0.66,0 -1.188,0.062 -1.188,0.87497 h -1.514 c 0,-1.83494 1.263,-1.90393 2.699,-1.90393 2.018,0 2.854,0.311989 2.854,2.42292 v 3.94286 h -1.514 z m -2.831,-1.139 c 0,0.88797 0.357,0.971967 1.379,0.971967 0.803,0 1.391,-0.069 1.391,-0.971967 0,-0.87497 -0.646,-0.898969 -1.391,-0.898969 C 68.952,18.2944 68.341,18.2944 68.341,19.1943 Z" />
          <path
             style="fill:#e0e0e0"
             inkscape:connector-curvature="0"
             id="path40"
             d="m 73.358,14.8295 h 0.792 v -1.42695 h 1.512 v 1.42695 h 2.41 v 1.15096 h -2.41 v 3.22589 c 0.014,0.57598 0.014,0.838971 0.646,0.838971 0.852,0 0.756,-0.670977 0.756,-1.32795 h 1.331 c 0.024,1.90393 -0.456,2.47891 -2.087,2.47891 -1.655,0 -2.159,-0.383987 -2.159,-1.97893 V 15.9795 h -0.792 z" />
          <path
             style="fill:#e0e0e0"
             inkscape:connector-curvature="0"
             id="path42"
             d="m 78.458,14.8295 h 0.792 v -1.42695 h 1.511 v 1.42695 h 2.411 v 1.15096 h -2.411 v 3.22589 c 0.012,0.57598 0.012,0.838971 0.646,0.838971 0.854,0 0.757,-0.670977 0.757,-1.32795 h 1.332 c 0.022,1.90393 -0.457,2.47891 -2.089,2.47891 -1.652,0 -2.156,-0.383987 -2.156,-1.97893 V 15.9795 h -0.792 v -1.15 z" />
          <path
             style="fill:#e0e0e0"
             inkscape:connector-curvature="0"
             id="path44"
             d="m 89.927,19.1233 c 0,1.97893 -1.141,2.07493 -2.938,2.07493 -2.411,0 -2.899,-0.767974 -2.899,-3.20189 0,-2.25492 0.357,-3.23489 2.899,-3.23489 2.593,0 2.938,0.755974 2.938,3.50188 h -4.33 c 0,1.35395 0.036,1.78694 1.391,1.78694 0.84,0 1.43,0.012 1.43,-0.925968 l 1.509,-0.001 z m -1.512,-1.8229 c 0,-1.29496 -0.192,-1.39495 -1.43,-1.39495 -1.308,0 -1.391,0.275991 -1.391,1.39495 z" />
          <path
             style="fill:#e0e0e0"
             inkscape:connector-curvature="0"
             id="path46"
             d="m 92.532,14.8295 -0.032,0.828 h 0.06 c 0.3,-0.695976 0.948,-0.896969 1.679,-0.896969 1.332,0 1.655,0.791973 1.655,1.97893 v 0.503983 h -1.415 v -0.323989 c 0,-0.635978 -0.061,-1.00797 -0.768,-1.00797 -0.899,0 -1.163,0.518982 -1.142,1.33195 v 3.88587 h -1.512 v -6.29578 l 1.475,-0.004 z" />
          <path
             style="fill:#e0e0e0"
             inkscape:connector-curvature="0"
             id="path48"
             d="m 100.413,21.3783 c -0.351,1.42695 -0.639,2.53891 -2.398,2.53891 -0.216,0 -0.432,-0.033 -0.648,-0.048 v -1.13996 c 0.108,0.012 0.22,0.036 0.324,0.036 0.947,0 1.092,-0.911969 1.227,-1.64594 h -0.731 l -2.075,-6.29578 h 1.562 l 1.595,5.36082 h 0.022 l 1.225,-5.36082 h 1.535 z" />
        </g>
      </g>
      <path
         style="opacity:0.35;fill:#ffffff"
         inkscape:connector-curvature="0"
         id="path54"
         enable-background="new    "
         d="m 148.381,14.2885 c 0,1.41695 -1.54,2.56591 -3.44,2.56591 l -127.326,-1e-5 c -1.897,0 -3.438,-1.04896 -3.438,-2.46692 V 6.65177 c 0,-1.41795 1.54,-2.66791 3.438,-2.66791 H 144.94 c 1.9,0 3.44,1.14996 3.44,2.56791 v 7.73673 z" />
    </g>
    <g
       transform="matrix(0.8112118,0,0,0.8112118,15.320258,31.654126)"
       id="g92">
      <path
         style="fill:#353535"
         inkscape:connector-curvature="0"
         id="path58"
         d="m 8.499,81.0042 c 0,2.33792 1.912,4.25185 4.252,4.25185 h 133.51 c 2.339,0 4.252,-1.91393 4.252,-4.25185 V 49.8203 c 0,-2.33792 -1.913,-4.25185 -4.252,-4.25185 l -133.51,-5e-5 c -2.34,0 -4.252,1.91393 -4.252,4.25185 z" />
      <path
         style="fill:#ce925d"
         inkscape:connector-curvature="0"
         id="path60"
         d="M 49.664,45.5714 H 12.751 c -2.34,0 -4.252,1.91393 -4.252,4.25185 V 81.0072 c 0,2.33792 1.912,4.25185 4.252,4.25185 h 36.913 z" />
      <path
         style="opacity:0.35"
         inkscape:connector-curvature="0"
         id="path62"
         enable-background="new    "
         d="m 145.94,83.6321 c 1.76,0 4.006,-1.63294 4.006,-3.56288 v -8.92569 c 0,1.93393 -2.246,4.96483 -4.006,4.96483 l -132.545,4e-5 c -1.76,0 -4.006,-3.0309 -4.006,-4.96483 v 8.92569 c 0,1.93393 2.246,3.56288 4.006,3.56288 z" />
      <path
         style="fill:#b2b2b2"
         inkscape:connector-curvature="0"
         id="path64"
         d="m 8.618,65.1508 c 0,8.8887 0.34,16.0924 0.759,16.0924 0.419,0 0.419,-32.1839 0,-32.1839 -0.419,0 -0.759,7.2048 -0.759,16.0915" />
      <path
         style="fill:#7c7c7c"
         inkscape:connector-curvature="0"
         id="path66"
         d="m 8.901,70.6376 c 0.278,0 0.278,-11.8916 0,-11.8916 l 0.008,10e-4 c 0,0.732975 -0.594,1.32695 -1.325,1.32695 l -0.603,-5e-5 c -0.729,0 -1.327,0.59698 -1.327,1.32795 v 6.57677 c 0,0.730975 0.598,1.32795 1.327,1.32795 h 0.603 c 0.731,0 1.325,0.59398 1.325,1.32795 l -0.008,0.0031 z" />
      <g
         id="g88">
        <g
           id="g86">
          <path
             style="fill:#e0e0e0"
             inkscape:connector-curvature="0"
             id="path68"
             d="m 123.065,65.8337 0.564,-1.70094 h 1.787 l -2.986,8.99269 h -2.543 l -3.046,-8.99269 h 1.751 l 0.588,1.70094 z m -1.954,5.9728 h 0.024 l 1.535,-4.66484 h -3.107 z" />
          <path
             style="fill:#e0e0e0"
             inkscape:connector-curvature="0"
             id="path70"
             d="m 114.557,65.8337 0.564,-1.70094 h 1.787 l -2.986,8.99269 h -2.543 l -3.046,-8.99269 h 1.751 l 0.588,1.70094 z m -1.954,5.9728 h 0.024 l 1.535,-4.66484 h -3.107 z" />
          <path
             style="fill:#e0e0e0"
             inkscape:connector-curvature="0"
             id="path72"
             d="m 103.374,64.1298 v 8.99269 h -4.478 c -1.763,0 -2.647,-0.355988 -2.647,-2.33892 0,-1.02796 0.189,-1.72794 1.28,-1.98793 v -0.05 c -1.259,-0.144995 -1.497,-0.972967 -1.497,-2.10793 0,-1.99193 0.813,-2.50691 2.711,-2.50691 l 4.631,-2e-6 z m -1.728,1.476 h -2.362 c -1.028,0 -1.521,0.072 -1.521,1.17496 0,0.982966 0.216,1.27096 1.235,1.27096 h 2.647 V 65.6058 Z m 0,3.7538 h -2.481 c -0.975,0 -1.188,0.29899 -1.188,1.25896 0,0.95997 0.384,1.03196 1.235,1.03196 h 2.435 V 69.3596 Z" />
          <path
             style="fill:#e0e0e0"
             inkscape:connector-curvature="0"
             id="path74"
             d="m 90.692,64.9218 h 0.036 c 0.299,-0.842971 1.222,-0.86397 1.955,-0.86397 1.428,0 2.352,0.29899 2.352,2.00193 0,1.51195 -0.791,1.93193 -2.352,1.93193 -0.768,0 -1.523,-0.012 -1.882,-0.720975 h -0.048 v 0.815972 c 0,1.01997 0.084,1.37895 1.342,1.37895 0.66,0 1.188,-0.062 1.188,-0.87497 h 1.515 c 0,1.83394 -1.26,1.90293 -2.699,1.90293 -2.014,0 -2.853,-0.311989 -2.853,-2.42192 v -3.94386 h 1.511 z m 2.83,1.1389 c 0,-0.88697 -0.356,-0.970967 -1.379,-0.970967 -0.804,0 -1.391,0.068 -1.391,0.970967 0,0.87597 0.645,0.899969 1.391,0.899969 0.768,0.001 1.379,0.001 1.379,-0.899969 z" />
          <path
             style="fill:#e0e0e0"
             inkscape:connector-curvature="0"
             id="path76"
             d="m 88.506,70.4266 h -0.792 v 1.42795 H 86.202 V 70.4266 h -2.41 v -1.14996 h 2.41 v -3.22689 c -0.014,-0.57698 -0.014,-0.842971 -0.646,-0.842971 -0.852,0 -0.756,0.674977 -0.756,1.33295 h -1.331 c -0.024,-1.90493 0.456,-2.48091 2.087,-2.48091 1.655,0 2.159,0.382987 2.159,1.97893 v 3.23789 h 0.792 z" />
          <path
             style="fill:#e0e0e0"
             inkscape:connector-curvature="0"
             id="path78"
             d="m 83.406,70.4266 h -0.792 v 1.42795 H 81.103 V 70.4266 h -2.411 v -1.14996 h 2.411 v -3.22689 c -0.012,-0.57698 -0.012,-0.842971 -0.646,-0.842971 -0.854,0 -0.757,0.674977 -0.757,1.33295 h -1.332 c -0.022,-1.90493 0.457,-2.48091 2.089,-2.48091 1.652,0 2.156,0.382987 2.156,1.97893 v 3.23789 h 0.792 V 70.4266 Z" />
          <path
             style="fill:#e0e0e0"
             inkscape:connector-curvature="0"
             id="path80"
             d="m 71.937,66.1337 c 0,-1.97993 1.141,-2.07593 2.938,-2.07593 2.411,0 2.899,0.767974 2.899,3.20289 0,2.25592 -0.357,3.23489 -2.899,3.23489 -2.593,0 -2.938,-0.755974 -2.938,-3.50188 h 4.33 c 0,-1.35395 -0.036,-1.78794 -1.391,-1.78794 -0.84,0 -1.43,-0.012 -1.43,0.926968 l -1.509,2e-6 z m 1.511,1.822 c 0,1.29596 0.192,1.39595 1.43,1.39595 1.308,0 1.391,-0.275991 1.391,-1.39595 z" />
          <path
             style="fill:#e0e0e0"
             inkscape:connector-curvature="0"
             id="path82"
             d="m 69.331,70.4266 0.033,-0.826972 h -0.06 c -0.3,0.695976 -0.948,0.895969 -1.679,0.895969 -1.331,0 -1.655,-0.790973 -1.655,-1.97893 v -0.503983 h 1.415 v 0.323989 c 0,0.634978 0.06,1.00797 0.768,1.00797 0.899,0 1.163,-0.519982 1.142,-1.33195 v -3.88587 h 1.511 v 6.29578 l -1.475,0.004 z" />
          <path
             style="fill:#e0e0e0"
             inkscape:connector-curvature="0"
             id="path84"
             d="m 61.45,63.8768 c 0.351,-1.42895 0.639,-2.54091 2.398,-2.54091 0.216,0 0.432,0.033 0.648,0.048 v 1.13996 c -0.108,-0.012 -0.219,-0.036 -0.324,-0.036 -0.948,0 -1.092,0.911969 -1.227,1.64594 h 0.731 l 2.075,6.29578 h -1.562 l -1.595,-5.36082 h -0.023 l -1.225,5.36082 h -1.535 z" />
        </g>
      </g>
      <path
         style="opacity:0.35;fill:#ffffff"
         inkscape:connector-curvature="0"
         id="path90"
         enable-background="new    "
         d="m 12.623,57.293 c 0,1.41995 1.54,2.56591 3.438,2.56591 h 127.326 c 1.897,0 3.438,-1.04896 3.438,-2.46692 v -7.73573 c 0,-1.41795 -1.541,-2.66791 -3.438,-2.66791 l -127.324,5e-5 c -1.897,0 -3.438,1.14996 -3.438,2.56791 z" />
    </g>
    <g
       transform="matrix(0.8112118,0,0,0.8112118,15.320258,31.654126)"
       id="g98">
      <path
         style="fill:#1a1a1a"
         inkscape:connector-curvature="0"
         id="path94"
         d="m 8.053,0.142995 1.96,1.52195 c 0,0 1.398,1.58295 2.616,3.27089 0.726,1.00597 1.334,4.54884 2.23,5.44681 0.899,0.895969 2.182,1.08996 3.271,1.08996 0.303,0 25.249,0 25.552,0 1.09,0 2.37,-0.189993 3.27,-1.08996 0.898,-0.897969 1.509,-4.44085 2.232,-5.44681 1.217,-1.68794 2.616,-3.27089 2.616,-3.27089 l 1.96,-1.52195 z" />
      <path
         style="opacity:0.2;fill:#ffffff"
         inkscape:connector-curvature="0"
         id="path96"
         enable-background="new    "
         d="m 10.883,1.29196 0.511,0.189993 c 0,0 0,0.706976 1.136,1.45895 0.681,0.448985 1.246,0.644978 2.085,1.04696 0.84,0.399986 2.035,0.485983 3.056,0.485983 0.282,0 26.191,0 26.478,0 1.021,0 2.213,-0.085997 3.052,-0.485983 0.841,-0.401986 1.408,-0.597979 2.085,-1.04696 1.14,-0.751974 1.139,-1.45895 1.139,-1.45895 l 0.501,-0.187994 z" />
    </g>
    <g
       transform="matrix(0.8112118,0,0,0.8112118,15.320258,31.654126)"
       id="g104">
      <path
         style="fill:#1a1a1a"
         inkscape:connector-curvature="0"
         id="path100"
         d="m 107.719,0.142995 1.96,1.52195 c 0,0 1.398,1.58295 2.616,3.27089 0.726,1.00597 1.335,4.54884 2.23,5.44681 0.898,0.895969 2.182,1.08996 3.271,1.08996 0.304,0 25.249,0 25.552,0 1.09,0 2.369,-0.189993 3.271,-1.08996 0.897,-0.897969 1.508,-4.44085 2.231,-5.44681 1.217,-1.68794 2.615,-3.27089 2.615,-3.27089 l 1.961,-1.52195 z" />
      <path
         style="opacity:0.2;fill:#ffffff"
         inkscape:connector-curvature="0"
         id="path102"
         enable-background="new    "
         d="m 110.549,1.29196 0.511,0.189993 c 0,0 0,0.706976 1.136,1.45895 0.681,0.448985 1.245,0.644978 2.085,1.04696 0.843,0.399986 2.035,0.485983 3.056,0.485983 0.282,0 26.192,0 26.479,0 1.021,0 2.213,-0.085997 3.053,-0.485983 0.841,-0.401986 1.407,-0.597979 2.087,-1.04696 1.138,-0.751974 1.137,-1.45895 1.137,-1.45895 l 0.501,-0.187994 z" />
    </g>
    <g
       transform="matrix(0.8112118,0,0,0.8112118,15.320258,31.654126)"
       id="g110">
      <path
         style="fill:#1a1a1a"
         inkscape:connector-curvature="0"
         id="path106"
         d="m 8.053,87.14 1.96,-1.52495 c 0,0 1.398,-1.58195 2.616,-3.26889 0.726,-1.00597 1.334,-4.54884 2.23,-5.44781 0.899,-0.897969 2.182,-1.08996 3.271,-1.08996 0.303,0 25.249,0 25.552,0 1.09,0 2.37,0.187994 3.27,1.08996 0.898,0.898969 1.509,4.44185 2.232,5.44781 1.217,1.68694 2.616,3.26889 2.616,3.26889 L 53.76,87.14 Z" />
      <path
         inkscape:connector-curvature="0"
         id="path108"
         d="m 10.883,85.9911 0.511,-0.187994 c 0,0 0,-0.707976 1.136,-1.45995 0.681,-0.448985 1.246,-0.645978 2.085,-1.04496 0.84,-0.400986 2.035,-0.485983 3.056,-0.485983 0.282,0 26.191,0 26.478,0 1.021,0 2.213,0.085 3.052,0.485983 0.841,0.397986 1.408,0.59598 2.085,1.04496 1.14,0.751974 1.139,1.45995 1.139,1.45995 l 0.501,0.184994 z" />
    </g>
    <g
       transform="matrix(0.8112118,0,0,0.8112118,15.320258,31.654126)"
       id="g116">
      <path
         style="fill:#1a1a1a"
         inkscape:connector-curvature="0"
         id="path112"
         d="m 107.719,87.14 1.96,-1.52495 c 0,0 1.398,-1.58195 2.616,-3.26889 0.726,-1.00597 1.335,-4.54884 2.23,-5.44781 0.898,-0.897969 2.182,-1.08996 3.271,-1.08996 0.304,0 25.249,0 25.552,0 1.09,0 2.369,0.187994 3.271,1.08996 0.898,0.899969 1.508,4.44185 2.231,5.44781 1.217,1.68694 2.615,3.26889 2.615,3.26889 l 1.961,1.52495 z" />
      <path
         inkscape:connector-curvature="0"
         id="path114"
         d="m 110.549,85.9911 0.511,-0.187994 c 0,0 0,-0.707976 1.136,-1.45995 0.681,-0.448985 1.245,-0.645978 2.085,-1.04496 0.843,-0.400986 2.035,-0.485983 3.056,-0.485983 0.282,0 26.192,0 26.479,0 1.021,0 2.213,0.085 3.053,0.485983 0.841,0.397986 1.407,0.59598 2.087,1.04496 1.138,0.751974 1.137,1.45995 1.137,1.45995 l 0.501,0.184994 z" />
    </g>
  </g>
</svg>
