<svg id="battery-holder-aaa-6" xmlns="http://www.w3.org/2000/svg" width="57.91mm" height="70.91mm" viewBox="0 0 164.17 201">
  <defs>
    <style>
      .cls-1 {
        fill: #1a1a1a;
      }

      .cls-12, .cls-13, .cls-2 {
        fill: none;
      }

      .cls-2 {
        stroke: #c9c9c9;
        stroke-width: 0.83px;
      }

      .cls-3 {
        fill: #c9c9c9;
      }

      .cls-4 {
        fill: #353535;
      }

      .cls-5 {
        fill: #ce925d;
      }

      .cls-10, .cls-6 {
        opacity: 0.35;
      }

      .cls-10, .cls-11, .cls-6 {
        isolation: isolate;
      }

      .cls-7 {
        fill: #b2b2b2;
      }

      .cls-8 {
        fill: #7c7c7c;
      }

      .cls-9 {
        fill: #e0e0e0;
      }

      .cls-10, .cls-11 {
        fill: #fff;
      }

      .cls-11 {
        opacity: 0.2;
      }

      .cls-12 {
        stroke: red;
      }

      .cls-12, .cls-13 {
        stroke-linecap: round;
        stroke-width: 2.13px;
      }

      .cls-13 {
        stroke: #000;
      }
    </style>
  </defs>
  <title>battery-holder-aaa-6</title>
  <g id="battery-holder">
    <path class="cls-1" d="M147.45,98.32V198.4a2.44,2.44,0,0,1-2.06,2.6H2.06C.7,201,0,200.13,0,198.4V2.6A2.37,2.37,0,0,1,2.06,0H145.39c1.12,0,2.06,1,2.06,2.6"/>
    <path id="J7" class="cls-2" d="M138.32,176.3v11.89a.89.89,0,1,0,1.73,0l.91-15.13a.88.88,0,1,1,1.72,0l.91,19.53a.88.88,0,1,0,1.73,0v-24a1.21,1.21,0,0,1,1.29-1.08h1.47"/>
    <g id="J6">
      <path class="cls-2" d="M1.88,180.24v-40a1,1,0,0,1,.87-1.08,1,1,0,0,1,.86,1.08l.91,19.52a1,1,0,0,0,.86,1.08,1,1,0,0,0,.87-1.08l.91-15.12A1,1,0,0,1,8,143.53a1,1,0,0,1,.86,1.08v11.88"/>
      <rect class="cls-3" x="1.44" y="175.97" width="3.46" height="12.03"/>
    </g>
    <g id="J5">
      <path class="cls-2" d="M137.31,123.26V111.37a.88.88,0,1,1,1.72,0L140,126.5a.88.88,0,1,0,1.72,0l.92-19.53a.88.88,0,1,1,1.72,0v40"/>
      <rect class="cls-3" x="141.29" y="142.73" width="3.46" height="12.03" rx="1.05" ry="1.05"/>
    </g>
    <g id="J4">
      <path class="cls-2" d="M1.88,113.1v-40A1,1,0,0,1,2.75,72a1,1,0,0,1,.86,1.08l.91,19.53a1,1,0,0,0,.86,1.08,1,1,0,0,0,.87-1.08l.91-15.13A1,1,0,0,1,8,76.38a1,1,0,0,1,.86,1.08V89.35"/>
      <rect class="cls-3" x="1.44" y="108.82" width="3.46" height="12.03"/>
    </g>
    <g id="J3">
      <path class="cls-2" d="M138.15,57V45.15a.88.88,0,1,1,1.72,0l.92,15.12a.88.88,0,1,0,1.72,0l.91-19.52a.89.89,0,1,1,1.73,0v40"/>
      <rect class="cls-3" x="142.13" y="76.51" width="3.46" height="12.03" rx="1.05" ry="1.05"/>
    </g>
    <g id="J2">
      <path class="cls-2" d="M1.88,47.49v-40a1,1,0,0,1,.87-1.08,1,1,0,0,1,.86,1.08L4.52,27a1,1,0,0,0,.86,1.08A1,1,0,0,0,6.25,27l.91-15.13A1,1,0,0,1,8,10.77a1,1,0,0,1,.86,1.08V23.74"/>
      <rect class="cls-3" x="1.44" y="43.21" width="3.46" height="12.03"/>
    </g>
    <g id="J1">
      <rect class="cls-3" x="141.87" y="10.44" width="2.95" height="12.03"/>
      <path id="Перемычка" class="cls-2" d="M144.71,10.37V24.83a1.22,1.22,0,0,0,1.3,1.08h1.46"/>
    </g>
    <g id="E6-battery-aaa">
      <path class="cls-4" d="M8.05,194.54c0,1.79,1.74,3.24,3.88,3.24H133.85c2.14,0,3.89-1.45,3.89-3.24V170.78c0-1.78-1.75-3.24-3.89-3.24H11.93c-2.14,0-3.88,1.46-3.88,3.24Z"/>
      <path class="cls-5" d="M45.64,167.54H11.93c-2.14,0-3.88,1.46-3.88,3.24v23.77c0,1.78,1.74,3.24,3.88,3.24H45.64V167.54Z"/>
      <path class="cls-6" d="M133.56,196.55c1.61,0,3.66-1.25,3.66-2.72V187c0,1.47-2.05,3.78-3.66,3.78h-121c-1.61,0-3.66-2.31-3.66-3.78v6.8c0,1.48,2.05,2.72,3.66,2.72Z"/>
      <path class="cls-7" d="M8.16,182.46c0,6.78.31,12.27.69,12.27s.38-24.53,0-24.53-.69,5.49-.69,12.26"/>
      <path class="cls-8" d="M8.41,186.65c.26,0,.26-9.07,0-9.07h0a1.13,1.13,0,0,1-1.21,1H6.66a1.12,1.12,0,0,0-1.21,1v5a1.12,1.12,0,0,0,1.21,1h.55a1.12,1.12,0,0,1,1.21,1Z"/>
      <g>
        <path class="cls-9" d="M112.67,183l.52-1.3h1.63l-2.73,6.85h-2.32L107,181.69h1.6l.53,1.3Zm-1.78,4.55h0l1.4-3.56h-2.84Z"/>
        <path class="cls-9" d="M120.67,183l.52-1.3h1.63l-2.73,6.85h-2.32L115,181.69h1.6l.53,1.3Zm-1.78,4.55h0l1.4-3.56h-2.84Z"/>
        <path class="cls-9" d="M104.9,183l.52-1.3h1.63l-2.73,6.85H102l-2.78-6.85h1.6l.53,1.3Zm-1.78,4.55h0l1.4-3.56H101.7Z"/>
        <path class="cls-9" d="M94.69,181.69v6.85H90.6c-1.61,0-2.42-.27-2.42-1.78,0-.79.18-1.32,1.17-1.52v0c-1.15-.11-1.37-.74-1.37-1.6,0-1.52.75-1.91,2.48-1.91Zm-1.58,1.12H91c-.93,0-1.39.06-1.39.9s.2,1,1.13,1h2.42v-1.86Zm0,2.86H90.85c-.89,0-1.09.23-1.09,1s.35.79,1.13.79h2.22v-1.75Z"/>
        <path class="cls-9" d="M83.11,182.29h0c.27-.64,1.12-.66,1.79-.66,1.3,0,2.14.23,2.14,1.53s-.72,1.47-2.14,1.47c-.71,0-1.39,0-1.72-.55h0v.62c0,.78.08,1.05,1.23,1.05.6,0,1.08,0,1.08-.66h1.39c0,1.39-1.15,1.45-2.47,1.45-1.84,0-2.6-.24-2.6-1.85v-3h1.38Zm2.58.87c0-.68-.32-.74-1.26-.74-.73,0-1.27.05-1.27.74s.59.68,1.27.68S85.69,183.84,85.69,183.16Z"/>
        <path class="cls-9" d="M81.11,186.48h-.72v1.09H79v-1.09h-2.2v-.87H79v-2.46c0-.44,0-.64-.59-.64-.78,0-.69.51-.69,1H76.51c0-1.45.42-1.89,1.91-1.89s2,.29,2,1.51v2.47h.72v.87Z"/>
        <path class="cls-9" d="M76.45,186.48h-.72v1.09H74.35v-1.09h-2.2v-.87h2.2v-2.46c0-.44,0-.64-.59-.64-.78,0-.69.51-.69,1H71.85c0-1.45.42-1.89,1.91-1.89s2,.29,2,1.51v2.47h.72v.87Z"/>
        <path class="cls-9" d="M66,183.21c0-1.51,1-1.58,2.68-1.58,2.21,0,2.65.59,2.65,2.44s-.33,2.47-2.65,2.47S66,186,66,183.87h4c0-1,0-1.36-1.27-1.36-.76,0-1.3,0-1.3.7Zm1.38,1.39c0,1,.18,1.06,1.31,1.06s1.27-.2,1.27-1.06Z"/>
        <path class="cls-9" d="M63.6,186.48l0-.63h-.05a1.59,1.59,0,0,1-1.54.69c-1.21,0-1.51-.61-1.51-1.51v-.38h1.29v.24c0,.49.06.77.7.77.82,0,1.07-.4,1-1v-3H65v4.79Z"/>
        <path class="cls-9" d="M56.4,181.49c.32-1.09.59-1.93,2.19-1.93.2,0,.4,0,.59,0v.87l-.29,0c-.87,0-1,.7-1.12,1.26h.67l1.89,4.8H58.9l-1.45-4.09h0l-1.12,4.09h-1.4Z"/>
      </g>
      <path class="cls-10" d="M11.81,176.48c0,1.08,1.41,2,3.14,2H131.23c1.73,0,3.14-.8,3.14-1.88v-5.89c0-1.08-1.41-2-3.14-2H15c-1.73,0-3.14.88-3.14,2v5.9Z"/>
    </g>
    <g id="E5-battery-aaa">
      <path class="cls-4" d="M138.43,161.4c0,1.79-1.74,3.24-3.88,3.24H12.62c-2.13,0-3.88-1.45-3.88-3.24V137.64c0-1.78,1.75-3.24,3.88-3.24H134.55c2.14,0,3.88,1.46,3.88,3.24V161.4Z"/>
      <path class="cls-5" d="M101.1,134.45h33.71c2.13,0,3.88,1.46,3.88,3.24v23.77c0,1.78-1.75,3.24-3.88,3.24H101.1Z"/>
      <path class="cls-6" d="M12.92,163.41c-1.61,0-3.66-1.25-3.66-2.72v-6.8c0,1.47,2.05,3.78,3.66,3.78H134c1.61,0,3.66-2.31,3.66-3.78v6.8c0,1.48-2.05,2.72-3.66,2.72Z"/>
      <path class="cls-7" d="M138.32,149.32c0,6.78-.31,12.27-.69,12.27s-.38-24.53,0-24.53.69,5.49.69,12.26"/>
      <path class="cls-8" d="M138.07,153.5c-.26,0-.26-9.06,0-9.06h0a1.12,1.12,0,0,0,1.21,1h.55a1.13,1.13,0,0,1,1.21,1v5a1.13,1.13,0,0,1-1.21,1h-.55a1.12,1.12,0,0,0-1.21,1Z"/>
      <g>
        <path class="cls-9" d="M34.59,147.25l-.51,1.29H32.45l2.72-6.85H37.5l2.78,6.85h-1.6l-.54-1.29Zm1.79-4.55h0L35,146.25h2.84Z"/>
        <path class="cls-9" d="M26.63,147.25l-.51,1.29H24.48l2.73-6.85h2.32l2.78,6.85H30.72l-.54-1.29Zm1.79-4.55h0L27,146.25h2.84Z"/>
        <path class="cls-9" d="M42.36,147.25l-.51,1.29H40.22l2.72-6.85h2.32l2.79,6.85h-1.6l-.54-1.29Zm1.79-4.55h0l-1.41,3.55h2.84Z"/>
        <path class="cls-9" d="M52.58,148.55v-6.86h4.08c1.61,0,2.42.28,2.42,1.79,0,.78-.17,1.31-1.17,1.51v0c1.15.11,1.37.74,1.37,1.61,0,1.51-.74,1.91-2.47,1.91Zm1.57-4h2.27c.89,0,1.08-.23,1.08-1s-.35-.78-1.13-.78H54.15v1.74Zm0,2.86h2.16c.94,0,1.39,0,1.39-.89s-.2-1-1.12-1H54.16v1.86Z"/>
        <path class="cls-9" d="M64.16,147.94h0c-.27.64-1.11.66-1.78.66-1.3,0-2.15-.23-2.15-1.53,0-1.15.73-1.47,2.15-1.47.7,0,1.39,0,1.72.55h0v-.62c0-.78-.07-1.05-1.22-1.05-.61,0-1.09.05-1.09.67H60.41c0-1.4,1.15-1.46,2.46-1.46,1.85,0,2.61.24,2.61,1.85v3H64.1Zm-2.59-.87c0,.68.33.75,1.26.75.73,0,1.27-.06,1.27-.75s-.59-.68-1.27-.68S61.57,146.39,61.57,147.07Z"/>
        <path class="cls-9" d="M66.15,143.75h.73v-1.09h1.38v1.09h2.2v.88h-2.2v2.45c0,.44,0,.64.59.64.78,0,.69-.51.69-1h1.21c0,1.45-.41,1.89-1.9,1.89s-2-.29-2-1.51v-2.46h-.73v-.88Z"/>
        <path class="cls-9" d="M70.81,143.75h.72v-1.09h1.38v1.09h2.21v.88H72.91v2.45c0,.44,0,.64.59.64.78,0,.7-.51.7-1h1.21c0,1.45-.42,1.89-1.91,1.89s-2-.29-2-1.51v-2.46h-.73v-.88Z"/>
        <path class="cls-9" d="M81.28,147c0,1.51-1,1.58-2.68,1.58-2.2,0-2.65-.58-2.65-2.44s.33-2.46,2.65-2.46,2.68.57,2.68,2.67h-4c0,1,0,1.36,1.27,1.36.77,0,1.31,0,1.31-.71Zm-1.38-1.39c0-1-.17-1.06-1.3-1.06s-1.27.21-1.27,1.06Z"/>
        <path class="cls-9" d="M83.66,143.75l0,.63h.06a1.57,1.57,0,0,1,1.53-.68c1.22,0,1.51.6,1.51,1.5v.39H85.44v-.25c0-.48,0-.77-.7-.77-.82,0-1.06.4-1,1v3H82.32v-4.8Z"/>
        <path class="cls-9" d="M90.86,148.74c-.32,1.09-.58,1.93-2.19,1.93-.2,0-.39,0-.59,0v-.87l.3,0c.86,0,1-.7,1.12-1.26h-.67l-1.9-4.8h1.43l1.46,4.09h0L91,143.74h1.4Z"/>
      </g>
      <path class="cls-10" d="M134.67,143.34c0,1.08-1.41,1.95-3.15,1.95H15.25c-1.73,0-3.14-.8-3.14-1.88v-5.89c0-1.08,1.4-2,3.14-2H131.52c1.74,0,3.15.88,3.15,2v5.9Z"/>
    </g>
    <g id="E4-battery-aaa">
      <path class="cls-4" d="M7.76,128.32c0,1.78,1.75,3.24,3.88,3.24H133.57c2.14,0,3.88-1.46,3.88-3.24V104.56c0-1.78-1.74-3.24-3.88-3.24H11.65c-2.14,0-3.89,1.46-3.89,3.24Z"/>
      <path class="cls-5" d="M45.35,101.32H11.65c-2.14,0-3.89,1.46-3.89,3.24v23.76c0,1.78,1.75,3.24,3.89,3.24h33.7V101.32Z"/>
      <path class="cls-6" d="M133.28,130.32c1.6,0,3.65-1.24,3.65-2.71v-6.8c0,1.47-2.05,3.78-3.65,3.78h-121c-1.6,0-3.66-2.31-3.66-3.78v6.8c0,1.47,2.06,2.71,3.66,2.71Z"/>
      <path class="cls-7" d="M7.87,116.24c0,6.77.31,12.26.69,12.26S9,104,8.56,104s-.69,5.49-.69,12.26"/>
      <path class="cls-8" d="M8.13,120.42a54.82,54.82,0,0,0,0-9.06h0a1.13,1.13,0,0,1-1.21,1H6.37a1.13,1.13,0,0,0-1.21,1v5a1.13,1.13,0,0,0,1.21,1h.56a1.13,1.13,0,0,1,1.21,1Z"/>
      <g>
        <path class="cls-9" d="M112.39,116.76l.51-1.3h1.63l-2.72,6.86h-2.33l-2.78-6.86h1.6l.54,1.3Zm-1.79,4.55h0l1.4-3.55h-2.83Z"/>
        <path class="cls-9" d="M120.39,116.76l.51-1.3h1.63l-2.72,6.86h-2.33l-2.78-6.86h1.6l.54,1.3Zm-1.79,4.55h0l1.4-3.55h-2.83Z"/>
        <path class="cls-9" d="M104.62,116.76l.51-1.3h1.63L104,122.32h-2.33l-2.78-6.86h1.6l.54,1.3Zm-1.79,4.55h0l1.4-3.55h-2.83Z"/>
        <path class="cls-9" d="M94.4,115.46v6.85H90.31c-1.61,0-2.41-.27-2.41-1.78,0-.78.17-1.31,1.17-1.51v0c-1.15-.11-1.37-.74-1.37-1.61,0-1.52.74-1.91,2.47-1.91Zm-1.57,1.13H90.67c-.94,0-1.39,0-1.39.89s.2,1,1.13,1h2.41v-1.86Zm0,2.86H90.56c-.89,0-1.08.23-1.08,1s.35.78,1.12.78h2.23v-1.74Z"/>
        <path class="cls-9" d="M82.82,116.07h0c.28-.65,1.12-.66,1.79-.66,1.3,0,2.15.23,2.15,1.52s-.72,1.47-2.15,1.47c-.7,0-1.39,0-1.72-.55h0v.63c0,.77.08,1,1.22,1,.61,0,1.09,0,1.09-.67h1.38c0,1.4-1.15,1.45-2.46,1.45-1.84,0-2.61-.24-2.61-1.85v-3h1.38Zm2.59.86c0-.67-.33-.74-1.26-.74-.74,0-1.27.06-1.27.74s.58.69,1.27.69S85.41,117.62,85.41,116.93Z"/>
        <path class="cls-9" d="M80.83,120.26H80.1v1.09H78.72v-1.09h-2.2v-.88h2.2v-2.46c0-.43,0-.64-.59-.64-.78,0-.69.52-.69,1H76.23c0-1.45.41-1.89,1.9-1.89s2,.29,2,1.5v2.47h.72v.88Z"/>
        <path class="cls-9" d="M76.17,120.26h-.73v1.09H74.07v-1.09H71.86v-.88h2.21v-2.46c0-.43,0-.64-.59-.64-.78,0-.69.52-.69,1H71.57c0-1.45.42-1.89,1.91-1.89s2,.29,2,1.5v2.47h.73v.88Z"/>
        <path class="cls-9" d="M65.69,117c0-1.51,1-1.58,2.69-1.58,2.2,0,2.65.58,2.65,2.44s-.33,2.46-2.65,2.46-2.69-.57-2.69-2.67h4c0-1,0-1.36-1.27-1.36-.77,0-1.31,0-1.31.71Zm1.39,1.39c0,1,.17,1.06,1.3,1.06s1.27-.21,1.27-1.06Z"/>
        <path class="cls-9" d="M63.32,120.26l0-.63h-.06a1.57,1.57,0,0,1-1.53.68c-1.22,0-1.52-.6-1.52-1.5v-.39h1.3v.25c0,.48.05.76.7.76.82,0,1.06-.39,1-1v-3h1.38v4.8Z"/>
        <path class="cls-9" d="M56.12,115.27c.32-1.09.58-1.94,2.19-1.94.19,0,.39,0,.59,0v.87c-.1,0-.2,0-.3,0-.86,0-1,.69-1.12,1.25h.67l1.89,4.8H58.62l-1.46-4.08h0L56,120.26h-1.4Z"/>
      </g>
      <path class="cls-10" d="M11.53,110.25c0,1.08,1.4,2,3.14,2H130.94c1.74,0,3.14-.8,3.14-1.88v-5.9c0-1.08-1.4-2-3.14-2H14.67c-1.73,0-3.14.88-3.14,2v5.89Z"/>
    </g>
    <g id="E3-battery-aaa">
      <path class="cls-4" d="M139.27,95.18c0,1.78-1.75,3.24-3.88,3.24H13.46c-2.13,0-3.88-1.46-3.88-3.24V71.42c0-1.78,1.75-3.24,3.88-3.24H135.39c2.13,0,3.88,1.46,3.88,3.24V95.18Z"/>
      <path class="cls-5" d="M101.94,68.23h33.71c2.13,0,3.88,1.46,3.88,3.24V95.23c0,1.79-1.75,3.24-3.88,3.24H101.94Z"/>
      <path class="cls-6" d="M13.76,97.18c-1.61,0-3.66-1.24-3.66-2.71v-6.8c0,1.47,2.05,3.78,3.66,3.78h121c1.6,0,3.66-2.31,3.66-3.78v6.8c0,1.47-2.06,2.71-3.66,2.71Z"/>
      <path class="cls-7" d="M139.16,83.1c0,6.77-.31,12.26-.69,12.26s-.38-24.52,0-24.52.69,5.49.69,12.26"/>
      <path class="cls-8" d="M138.9,87.28a54.82,54.82,0,0,1,0-9.06h0a1.12,1.12,0,0,0,1.21,1h.55a1.12,1.12,0,0,1,1.21,1v5a1.13,1.13,0,0,1-1.21,1h-.55a1.12,1.12,0,0,0-1.21,1Z"/>
      <g>
        <path class="cls-9" d="M35.43,81l-.51,1.3H33.28L36,75.47h2.32l2.78,6.85H39.52L39,81Zm1.79-4.55h0L35.79,80h2.84Z"/>
        <path class="cls-9" d="M27.47,81,27,82.32H25.32l2.73-6.85h2.32l2.78,6.85h-1.6L31,81Zm1.78-4.55h0L27.83,80h2.84Z"/>
        <path class="cls-9" d="M43.2,81l-.51,1.3H41.06l2.72-6.85H46.1l2.78,6.85H47.29L46.75,81ZM45,76.47h0L43.56,80H46.4Z"/>
        <path class="cls-9" d="M53.41,82.32V75.47H57.5c1.61,0,2.42.27,2.42,1.78,0,.78-.17,1.32-1.17,1.52v0c1.15.11,1.37.74,1.37,1.6,0,1.52-.74,1.91-2.48,1.91Zm1.58-4h2.27c.89,0,1.08-.23,1.08-1s-.35-.79-1.13-.79H55v1.75Zm0,2.86h2.16c.94,0,1.39-.06,1.39-.9s-.2-1-1.13-1H55V81.2Z"/>
        <path class="cls-9" d="M65,81.72h0c-.27.64-1.11.66-1.78.66-1.31,0-2.15-.23-2.15-1.53,0-1.15.72-1.47,2.15-1.47.7,0,1.39,0,1.72.55h0V79.3c0-.77-.08-1-1.23-1-.6,0-1.08,0-1.08.67H61.25c0-1.4,1.15-1.45,2.46-1.45,1.84,0,2.61.24,2.61,1.85v3H64.94Zm-2.59-.87c0,.68.33.74,1.26.74.73,0,1.27,0,1.27-.74s-.59-.68-1.27-.68S62.41,80.17,62.41,80.85Z"/>
        <path class="cls-9" d="M67,77.52h.73V76.44H69.1v1.08h2.2v.88H69.1v2.46c0,.44,0,.64.59.64.77,0,.69-.51.69-1h1.21c0,1.45-.41,1.89-1.9,1.89s-2-.3-2-1.51V78.4H67v-.88Z"/>
        <path class="cls-9" d="M71.65,77.52h.72V76.44h1.38v1.08H76v.88H73.75v2.46c0,.44,0,.64.59.64.78,0,.69-.51.69-1h1.22c0,1.45-.42,1.89-1.91,1.89s-2-.3-2-1.51V78.4h-.72v-.88Z"/>
        <path class="cls-9" d="M82.12,80.8c0,1.5-1,1.58-2.68,1.58-2.2,0-2.65-.59-2.65-2.44s.33-2.47,2.65-2.47,2.68.58,2.68,2.67h-4c0,1,0,1.36,1.27,1.36.77,0,1.3,0,1.3-.7Zm-1.38-1.39c0-1-.17-1.06-1.3-1.06s-1.27.21-1.27,1.06Z"/>
        <path class="cls-9" d="M84.5,77.52l0,.64h.06a1.57,1.57,0,0,1,1.53-.69c1.22,0,1.51.61,1.51,1.51v.38H86.28v-.24c0-.49-.06-.77-.7-.77-.82,0-1.06.39-1,1v3H83.16V77.53Z"/>
        <path class="cls-9" d="M91.7,82.51c-.32,1.09-.58,1.94-2.19,1.94-.2,0-.39,0-.59,0v-.87l.29,0c.87,0,1-.69,1.12-1.25h-.66l-1.9-4.8H89.2l1.46,4.08h0l1.11-4.08H93.2Z"/>
      </g>
      <path class="cls-10" d="M135.5,77.11c0,1.08-1.4,2-3.14,2H16.09c-1.73,0-3.14-.8-3.14-1.88v-5.9c0-1.08,1.4-2,3.14-2H132.36c1.74,0,3.15.88,3.15,2v5.89Z"/>
    </g>
    <g id="E2-battery-aaa">
      <path class="cls-4" d="M7.76,62.1c0,1.78,1.75,3.24,3.88,3.24H133.57c2.14,0,3.88-1.46,3.88-3.24V38.33c0-1.78-1.74-3.24-3.88-3.24H11.65c-2.14,0-3.89,1.46-3.89,3.24Z"/>
      <path class="cls-5" d="M45.35,35.1H11.65c-2.14,0-3.89,1.45-3.89,3.24V62.1c0,1.78,1.75,3.24,3.89,3.24h33.7V35.1Z"/>
      <path class="cls-6" d="M133.28,64.1c1.6,0,3.65-1.24,3.65-2.72v-6.8c0,1.48-2.05,3.79-3.65,3.79h-121c-1.6,0-3.66-2.31-3.66-3.79v6.8c0,1.48,2.06,2.72,3.66,2.72Z"/>
      <path class="cls-7" d="M7.87,50c0,6.77.31,12.26.69,12.26s.39-24.53,0-24.53S7.87,43.24,7.87,50"/>
      <path class="cls-8" d="M8.13,54.2a54.82,54.82,0,0,0,0-9.06h0a1.13,1.13,0,0,1-1.21,1H6.37a1.13,1.13,0,0,0-1.21,1v5a1.13,1.13,0,0,0,1.21,1h.56a1.13,1.13,0,0,1,1.21,1Z"/>
      <g>
        <path class="cls-9" d="M112.39,50.54l.51-1.3h1.63l-2.72,6.85h-2.33l-2.78-6.85h1.6l.54,1.3Zm-1.79,4.55h0l1.4-3.56h-2.83Z"/>
        <path class="cls-9" d="M120.39,50.54l.51-1.3h1.63l-2.72,6.85h-2.33l-2.78-6.85h1.6l.54,1.3Zm-1.79,4.55h0l1.4-3.56h-2.83Z"/>
        <path class="cls-9" d="M104.62,50.54l.51-1.3h1.63L104,56.09h-2.33l-2.78-6.85h1.6l.54,1.3Zm-1.79,4.55h0l1.4-3.56h-2.83Z"/>
        <path class="cls-9" d="M94.4,49.24v6.85H90.31c-1.61,0-2.41-.27-2.41-1.78,0-.79.17-1.32,1.17-1.52v0c-1.15-.11-1.37-.75-1.37-1.61,0-1.52.74-1.91,2.47-1.91Zm-1.57,1.12H90.67c-.94,0-1.39.06-1.39.9s.2,1,1.13,1h2.41V50.36Zm0,2.86H90.56c-.89,0-1.08.23-1.08,1s.35.79,1.12.79h2.23V53.22Z"/>
        <path class="cls-9" d="M82.82,49.84h0c.28-.64,1.12-.66,1.79-.66,1.3,0,2.15.23,2.15,1.53,0,1.15-.72,1.47-2.15,1.47-.7,0-1.39,0-1.72-.55h0v.62c0,.78.08,1,1.22,1,.61,0,1.09,0,1.09-.66h1.38c0,1.39-1.15,1.45-2.46,1.45-1.84,0-2.61-.24-2.61-1.85v-3h1.38Zm2.59.87c0-.68-.33-.74-1.26-.74-.74,0-1.27.05-1.27.74s.58.69,1.27.69S85.41,51.4,85.41,50.71Z"/>
        <path class="cls-9" d="M80.83,54H80.1v1.08H78.72V54h-2.2v-.88h2.2V50.7c0-.44,0-.64-.59-.64-.78,0-.69.51-.69,1H76.23c0-1.45.41-1.89,1.9-1.89s2,.3,2,1.51v2.47h.72V54Z"/>
        <path class="cls-9" d="M76.17,54h-.73v1.08H74.07V54H71.86v-.88h2.21V50.7c0-.44,0-.64-.59-.64-.78,0-.69.51-.69,1H71.57c0-1.45.42-1.89,1.91-1.89s2,.3,2,1.51v2.47h.73V54Z"/>
        <path class="cls-9" d="M65.69,50.76c0-1.5,1-1.58,2.69-1.58,2.2,0,2.65.59,2.65,2.44s-.33,2.47-2.65,2.47-2.69-.58-2.69-2.67h4c0-1,0-1.36-1.27-1.36-.77,0-1.31,0-1.31.7Zm1.39,1.39c0,1,.17,1.07,1.3,1.07s1.27-.21,1.27-1.07Z"/>
        <path class="cls-9" d="M63.32,54l0-.63h-.06a1.57,1.57,0,0,1-1.53.68c-1.22,0-1.52-.6-1.52-1.51V52.2h1.3v.24c0,.49.05.77.7.77.82,0,1.06-.39,1-1v-3h1.38V54Z"/>
        <path class="cls-9" d="M56.12,49c.32-1.08.58-1.93,2.19-1.93l.59,0V48l-.3,0c-.86,0-1,.69-1.12,1.25h.67L60,54H58.62L57.16,50h0L56,54h-1.4Z"/>
      </g>
      <path class="cls-10" d="M11.53,44c0,1.08,1.4,1.95,3.14,1.95H130.94c1.74,0,3.14-.8,3.14-1.88V38.21c0-1.08-1.4-2-3.14-2H14.67c-1.73,0-3.14.87-3.14,2V44Z"/>
    </g>
    <g id="E1-battery-aaa">
      <path class="cls-4" d="M139.27,29c0,1.79-1.75,3.24-3.88,3.24H13.46c-2.13,0-3.88-1.45-3.88-3.24V5.2C9.58,3.41,11.33,2,13.46,2H135.39c2.13,0,3.88,1.45,3.88,3.24V29Z"/>
      <path class="cls-5" d="M101.94,2h33.71c2.13,0,3.88,1.45,3.88,3.23V29c0,1.78-1.75,3.24-3.88,3.24H101.94Z"/>
      <path class="cls-6" d="M13.76,31c-1.61,0-3.66-1.24-3.66-2.72v-6.8c0,1.48,2.05,3.79,3.66,3.79h121c1.6,0,3.66-2.31,3.66-3.79v6.8c0,1.48-2.06,2.72-3.66,2.72Z"/>
      <path class="cls-7" d="M139.16,16.88c0,6.77-.31,12.26-.69,12.26s-.38-24.53,0-24.53.69,5.49.69,12.27"/>
      <path class="cls-8" d="M138.9,21.06a54.94,54.94,0,0,1,0-9.07h0a1.13,1.13,0,0,0,1.21,1h.55a1.12,1.12,0,0,1,1.21,1v5a1.13,1.13,0,0,1-1.21,1h-.55a1.12,1.12,0,0,0-1.21,1Z"/>
      <g>
        <path class="cls-9" d="M35.43,14.8l-.51,1.29H33.28L36,9.24h2.32l2.78,6.85H39.52L39,14.8Zm1.79-4.55h0l-1.4,3.56h2.84Z"/>
        <path class="cls-9" d="M27.47,14.8,27,16.09H25.32l2.73-6.85h2.32l2.78,6.85h-1.6L31,14.8Zm1.78-4.55h0l-1.4,3.56h2.84Z"/>
        <path class="cls-9" d="M43.2,14.8l-.51,1.29H41.06l2.72-6.85H46.1l2.78,6.85H47.29l-.54-1.29ZM45,10.25h0l-1.4,3.56H46.4Z"/>
        <path class="cls-9" d="M53.41,16.1V9.25H57.5c1.61,0,2.42.27,2.42,1.78,0,.78-.17,1.32-1.17,1.51v0c1.15.11,1.37.74,1.37,1.61,0,1.52-.74,1.91-2.48,1.91Zm1.58-4h2.27c.89,0,1.08-.22,1.08-.95s-.35-.79-1.13-.79H55v1.74ZM55,15h2.16c.94,0,1.39-.05,1.39-.89s-.2-1-1.13-1H55V15Z"/>
        <path class="cls-9" d="M65,15.49h0c-.27.65-1.11.66-1.78.66-1.31,0-2.15-.23-2.15-1.52s.72-1.47,2.15-1.47c.7,0,1.39,0,1.72.54h0v-.62c0-.78-.08-1.05-1.23-1.05-.6,0-1.08.05-1.08.67H61.25c0-1.4,1.15-1.45,2.46-1.45,1.84,0,2.61.23,2.61,1.84v3H64.94Zm-2.59-.86c0,.67.33.74,1.26.74.73,0,1.27-.06,1.27-.74s-.59-.69-1.27-.69S62.41,13.94,62.41,14.63Z"/>
        <path class="cls-9" d="M67,11.3h.73V10.21H69.1V11.3h2.2v.88H69.1v2.46c0,.43,0,.63.59.63.77,0,.69-.51.69-1h1.21c0,1.45-.41,1.89-1.9,1.89s-2-.29-2-1.51V12.18H67V11.3Z"/>
        <path class="cls-9" d="M71.65,11.3h.72V10.21h1.38V11.3H76v.88H73.75v2.46c0,.43,0,.63.59.63.78,0,.69-.51.69-1h1.22c0,1.45-.42,1.89-1.91,1.89s-2-.29-2-1.51V12.18h-.72V11.3Z"/>
        <path class="cls-9" d="M82.12,14.57c0,1.51-1,1.58-2.68,1.58-2.2,0-2.65-.58-2.65-2.44s.33-2.46,2.65-2.46,2.68.57,2.68,2.67h-4c0,1,0,1.36,1.27,1.36.77,0,1.3,0,1.3-.71Zm-1.38-1.39c0-1-.17-1.06-1.3-1.06s-1.27.21-1.27,1.06Z"/>
        <path class="cls-9" d="M84.5,11.3l0,.63h.06a1.56,1.56,0,0,1,1.53-.68c1.22,0,1.51.6,1.51,1.51v.38H86.28v-.25c0-.48-.06-.77-.7-.77-.82,0-1.06.4-1,1v3H83.16V11.3Z"/>
        <path class="cls-9" d="M91.7,16.29c-.32,1.09-.58,1.94-2.19,1.94-.2,0-.39,0-.59,0v-.87l.29,0c.87,0,1-.7,1.12-1.26h-.66l-1.9-4.79H89.2l1.46,4.08h0l1.11-4.08H93.2Z"/>
      </g>
      <path class="cls-10" d="M135.5,10.89c0,1.08-1.4,1.95-3.14,1.95H16.09C14.36,12.84,13,12,13,11V5.07c0-1.08,1.4-2,3.14-2H132.36c1.74,0,3.15.87,3.15,2v5.9Z"/>
    </g>
    <g>
      <path class="cls-1" d="M7.35.11,9.14,1.27s1.28,1.2,2.39,2.49c.67.77,1.22,3.47,2,4.15a4.64,4.64,0,0,0,3,.83H39.89a4.64,4.64,0,0,0,3-.83c.82-.68,1.38-3.38,2-4.15C46,2.48,47.31,1.27,47.31,1.27L49.1.11Z"/>
      <path class="cls-11" d="M9.94,1l.46.15s0,.54,1,1.11a16.68,16.68,0,0,0,1.91.8,8.27,8.27,0,0,0,2.79.37H40.32A8.25,8.25,0,0,0,43.1,3,16.68,16.68,0,0,0,45,2.24c1-.57,1-1.11,1-1.11L46.51,1Z"/>
    </g>
    <g>
      <path class="cls-1" d="M98.37.11l1.79,1.16s1.28,1.2,2.39,2.49c.66.77,1.22,3.47,2,4.15a4.62,4.62,0,0,0,3,.83h23.34a4.67,4.67,0,0,0,3-.83c.81-.68,1.37-3.38,2-4.15,1.11-1.28,2.39-2.49,2.39-2.49L140.11.11Z"/>
      <path class="cls-11" d="M101,1l.46.15s0,.54,1,1.11a17.27,17.27,0,0,0,1.9.8,8.4,8.4,0,0,0,2.8.37h24.18A8.25,8.25,0,0,0,134.12,3a16.68,16.68,0,0,0,1.91-.8c1-.57,1-1.11,1-1.11l.46-.14Z"/>
    </g>
    <g>
      <path class="cls-1" d="M98.37,200.06l1.79-1.16s1.28-1.2,2.39-2.49c.66-.77,1.22-3.47,2-4.15a4.62,4.62,0,0,1,3-.83h23.34a4.67,4.67,0,0,1,3,.83c.81.68,1.37,3.38,2,4.15,1.11,1.29,2.39,2.49,2.39,2.49l1.79,1.16Z"/>
      <path d="M101,199.19l.47-.15s0-.54,1-1.11a17.27,17.27,0,0,1,1.9-.8,8.34,8.34,0,0,1,2.79-.37h24.19a8.25,8.25,0,0,1,2.78.37,16.68,16.68,0,0,1,1.91.8c1,.57,1,1.11,1,1.11l.45.14Z"/>
    </g>
    <g>
      <path class="cls-1" d="M7.35,200.06l1.79-1.16s1.28-1.2,2.39-2.49c.67-.77,1.22-3.47,2-4.15a4.64,4.64,0,0,1,3-.83H39.89a4.64,4.64,0,0,1,3,.83c.82.68,1.38,3.38,2,4.15,1.11,1.29,2.39,2.49,2.39,2.49l1.79,1.16Z"/>
      <path d="M9.94,199.19l.46-.15s0-.54,1-1.11a16.68,16.68,0,0,1,1.91-.8,8.27,8.27,0,0,1,2.79-.37H40.32a8.25,8.25,0,0,1,2.78.37,16.68,16.68,0,0,1,1.91.8c1,.57,1,1.11,1,1.11l.46.14Z"/>
    </g>
  </g>
  <line id="line2" class="cls-12" x1="147.47" y1="25.91" x2="162.5" y2="25.91"/>
  <line id="line1" class="cls-13" x1="148.08" y1="167.54" x2="163.1" y2="167.54"/>
</svg>
