<svg id="bitface-breakout-garden" xmlns="http://www.w3.org/2000/svg" width="90.135mm" height="56.78mm" viewBox="0 0 255.501 160.951">
  <defs>
    <style>
      .cls-1 {
        fill: #323232;
      }

      .cls-2 {
        fill: #e2b537;
      }

      .cls-3, .cls-36, .cls-4 {
        font-size: 4px;
      }

      .cls-28, .cls-3, .cls-4 {
        fill: #242424;
      }

      .cls-3, .cls-36, .cls-4, .cls-5, .cls-7 {
        font-family: TrebuchetMS, Trebuchet MS;
      }

      .cls-4 {
        letter-spacing: 0.02em;
      }

      .cls-5 {
        font-size: 15px;
        letter-spacing: 0.05em;
      }

      .cls-17, .cls-18, .cls-19, .cls-36, .cls-5, .cls-6, .cls-7 {
        fill: #fff;
      }

      .cls-7 {
        font-size: 7px;
      }

      .cls-10, .cls-11, .cls-24, .cls-25, .cls-30, .cls-35, .cls-8, .cls-9 {
        fill: none;
        stroke-miterlimit: 10;
      }

      .cls-11, .cls-25, .cls-30, .cls-35, .cls-8 {
        stroke: #fff;
      }

      .cls-8, .cls-9 {
        stroke-width: 0.709px;
      }

      .cls-10, .cls-24, .cls-9 {
        stroke: #e2b537;
      }

      .cls-10 {
        stroke-width: 1.417px;
      }

      .cls-11 {
        stroke-width: 0.992px;
      }

      .cls-12, .cls-16 {
        fill: #8c8c8c;
      }

      .cls-13 {
        opacity: 0.24;
      }

      .cls-13, .cls-15, .cls-16, .cls-17, .cls-18, .cls-19, .cls-20, .cls-21, .cls-22, .cls-23 {
        isolation: isolate;
      }

      .cls-14 {
        fill: #f9f7e4;
        stroke: #edddc3;
        stroke-width: 0.132px;
      }

      .cls-15, .cls-26 {
        fill: #b3b3b3;
      }

      .cls-15 {
        opacity: 0.93;
      }

      .cls-16 {
        opacity: 0.23;
      }

      .cls-17 {
        opacity: 0.26;
      }

      .cls-18 {
        opacity: 0.28;
      }

      .cls-19 {
        opacity: 0.41;
      }

      .cls-20 {
        fill: red;
      }

      .cls-20, .cls-21, .cls-22 {
        opacity: 0.861;
      }

      .cls-21 {
        fill: blue;
      }

      .cls-22 {
        fill: lime;
      }

      .cls-23 {
        fill: #e6e6e6;
        opacity: 0.18;
      }

      .cls-24 {
        stroke-width: 1.417px;
      }

      .cls-25 {
        stroke-width: 0.992px;
      }

      .cls-27 {
        fill: gray;
      }

      .cls-29 {
        fill: #999;
      }

      .cls-30 {
        stroke-width: 0.283px;
      }

      .cls-31 {
        fill: #d2d1d3;
      }

      .cls-32 {
        fill: #b7b8b9;
      }

      .cls-33 {
        fill: #d7d3d5;
      }

      .cls-34 {
        fill: #966432;
      }

      .cls-35 {
        stroke-width: 0.283px;
      }
    </style>
  </defs>
  <title>bitface-breakout-garden</title>
  <g id="bottom">
    <path class="cls-1" d="M251.469,52.2v-23.9L225.549.067h-51.84l-27.5,28.224-.217,23.9h-4.055V74.1h2.832l6.623,39.732L177.6,141.475s-.056,14.612-.144,16.2c-.126,2.286.816,3.12,1.944,3.166,1.271.052,37.152.218,38.808,0s1.656-2.448,1.656-2.448l-.168-16.92,26.112-27.648,7.32-39.744H255.5V52.2Zm-98.6,34.364a3.2,3.2,0,1,1,3.2-3.2A3.2,3.2,0,0,1,152.869,86.559Zm31.036,60.251a.656.656,0,1,1,.656-.655A.655.655,0,0,1,183.905,146.81Zm7.334,0a.656.656,0,1,1,.656-.655A.655.655,0,0,1,191.239,146.81Zm7.334,0a.656.656,0,1,1,.656-.655A.655.655,0,0,1,198.573,146.81Zm.048-132.251a3.2,3.2,0,1,1,3.2-3.2A3.2,3.2,0,0,1,198.621,14.559Zm7.286,132.251a.656.656,0,1,1,.656-.655A.655.655,0,0,1,205.907,146.81Zm7.334,0a.656.656,0,1,1,.656-.655A.655.655,0,0,1,213.241,146.81Zm31.132-60.251a3.2,3.2,0,1,1,3.2-3.2A3.2,3.2,0,0,1,244.373,86.559Z"/>
    <g>
      <path class="cls-2" d="M180.561,143.4v17.472h6.688V143.4Zm3.344,3.415a.656.656,0,1,1,.656-.655A.655.655,0,0,1,183.905,146.81Z"/>
      <path class="cls-2" d="M187.9,143.4v17.472h6.688V143.4Zm3.344,3.415a.656.656,0,1,1,.656-.655A.655.655,0,0,1,191.239,146.81Z"/>
      <path class="cls-2" d="M195.229,143.4v17.472h6.688V143.4Zm3.344,3.415a.656.656,0,1,1,.656-.655A.655.655,0,0,1,198.573,146.81Z"/>
      <path class="cls-2" d="M202.563,143.4v17.472h6.688V143.4Zm3.344,3.415a.656.656,0,1,1,.656-.655A.655.655,0,0,1,205.907,146.81Z"/>
      <path class="cls-2" d="M209.9,143.4v17.472h6.688V143.4Zm3.344,3.415a.656.656,0,1,1,.656-.655A.655.655,0,0,1,213.241,146.81Z"/>
    </g>
    <g>
      <text class="cls-3" transform="translate(214.624 158.955) rotate(-90)">V</text>
      <text class="cls-4" transform="translate(207.314 158.955) rotate(-90)">D</text>
      <text class="cls-3" transform="translate(200.004 158.954) rotate(-90)">C</text>
      <text class="cls-3" transform="translate(192.694 158.955) rotate(-90)">S</text>
      <text class="cls-3" transform="translate(185.624 158.954) rotate(-90)">G</text>
    </g>
    <g>
      <text class="cls-5" transform="translate(193.117 33.232)">tronix</text>
      <path class="cls-6" d="M185.981,40.446v5.715h-5.1V40.446H162.966V36.384L184.1,10.657h1.88V35.31h3.975v5.136Zm-5.1-19.074L169.331,35.31h11.548Z"/>
      <g>
        <rect class="cls-6" x="194.465" y="35.349" width="3.685" height="5.102"/>
        <rect class="cls-6" x="202.376" y="35.349" width="3.685" height="5.102"/>
        <rect class="cls-6" x="210.288" y="35.349" width="3.685" height="5.102"/>
        <rect class="cls-6" x="218.2" y="35.349" width="3.685" height="5.102"/>
        <rect class="cls-6" x="226.112" y="35.349" width="3.685" height="5.102"/>
        <rect class="cls-6" x="234.024" y="35.349" width="3.685" height="5.102"/>
      </g>
    </g>
    <text class="cls-7" transform="translate(187.732 88.704)">BitFace</text>
  </g>
  <g id="top">
    <path class="cls-1" d="M109.536,52.128v-23.9L83.616,0H31.776L4.272,28.224l-.217,23.9H0v21.9H2.832L9.454,113.76l26.21,27.648s-.056,14.612-.144,16.2c-.126,2.286.816,3.12,1.944,3.166,1.271.052,37.152.218,38.808,0s1.656-2.448,1.656-2.448l-.168-16.92,26.112-27.648,7.32-39.744h2.376V52.128Zm-98.6,34.364a3.2,3.2,0,1,1,3.2-3.2A3.2,3.2,0,0,1,10.936,86.492Zm31.036,60.252a.656.656,0,1,1,.656-.656A.656.656,0,0,1,41.972,146.744Zm7.334,0a.656.656,0,1,1,.656-.656A.656.656,0,0,1,49.306,146.744Zm7.334,0a.656.656,0,1,1,.656-.656A.656.656,0,0,1,56.64,146.744Zm.048-132.252a3.2,3.2,0,1,1,3.2-3.2A3.2,3.2,0,0,1,56.688,14.492Zm7.286,132.252a.656.656,0,1,1,.656-.656A.656.656,0,0,1,63.974,146.744Zm7.334,0a.656.656,0,1,1,.656-.656A.656.656,0,0,1,71.308,146.744ZM102.44,86.492a3.2,3.2,0,1,1,3.2-3.2A3.2,3.2,0,0,1,102.44,86.492Z"/>
    <g>
      <rect class="cls-8" x="-5.061" y="58.848" width="19.776" height="8.256" transform="translate(-58.149 67.803) rotate(-90)"/>
      <g>
        <circle class="cls-9" cx="4.958" cy="68.496" r="2.829"/>
        <circle class="cls-9" cx="4.958" cy="57.141" r="2.829"/>
        <circle class="cls-8" cx="4.958" cy="62.818" r="1.593"/>
      </g>
    </g>
    <g>
      <rect class="cls-8" x="98.928" y="58.848" width="19.776" height="8.256" transform="translate(45.84 171.792) rotate(-90)"/>
      <g>
        <circle class="cls-9" cx="108.947" cy="68.496" r="2.829"/>
        <circle class="cls-9" cx="108.947" cy="57.141" r="2.829"/>
        <circle class="cls-8" cx="108.947" cy="62.818" r="1.593"/>
      </g>
    </g>
    <g>
      <g>
        <g>
          <circle class="cls-10" cx="56.784" cy="25.225" r="3.428"/>
          <circle class="cls-11" cx="56.784" cy="25.225" r="6.2"/>
        </g>
        <rect class="cls-8" x="48.144" y="4.544" width="17.28" height="29.664"/>
      </g>
      <g>
        <rect class="cls-8" x="23.896" y="15.248" width="19.776" height="8.256"/>
        <g>
          <circle class="cls-9" cx="28.265" cy="19.507" r="2.829"/>
          <circle class="cls-9" cx="39.619" cy="19.507" r="2.829"/>
          <circle class="cls-8" cx="33.942" cy="19.507" r="1.593"/>
        </g>
      </g>
      <g>
        <rect class="cls-8" x="69.896" y="15.248" width="19.776" height="8.256"/>
        <g>
          <circle class="cls-9" cx="74.265" cy="19.507" r="2.829"/>
          <circle class="cls-9" cx="85.619" cy="19.507" r="2.829"/>
          <circle class="cls-8" cx="79.942" cy="19.507" r="1.593"/>
        </g>
      </g>
    </g>
    <g>
      <circle class="cls-8" cx="56.784" cy="67.572" r="9.684"/>
      <g id="g13494-6-7">
        <rect id="pin5_2-0-5-7" data-name="pin5 2-0-5-7" class="cls-12" x="50.282" y="69.661" width="1.787" height="2.479"/>
        <rect id="pin3_2-1-4-7" data-name="pin3 2-1-4-7" class="cls-12" x="50.312" y="62.677" width="1.729" height="2.478"/>
        <rect id="pin2_2-5-5-1-7" data-name="pin2 2-5-5-1-7" class="cls-12" x="61.41" y="69.72" width="1.876" height="2.479"/>
        <rect id="pin0_2-7-8-4-7" data-name="pin0 2-7-8-4-7" class="cls-12" x="61.401" y="62.677" width="1.843" height="2.478"/>
        <polygon id="polygon5502-7-3-8-7" class="cls-13" points="62.046 62.98 62.046 72.56 52.288 72.561 51.829 72.165 61.586 72.163 61.586 62.583 62.046 62.98"/>
        <rect id="rect5504-2-6-4-7" class="cls-14" x="51.81" y="62.629" width="9.75" height="9.494"/>
        <ellipse id="ellipse5506-7-5-7" class="cls-15" cx="56.702" cy="67.355" rx="3.499" ry="3.531"/>
        <circle id="circle5508-3-6-7" class="cls-16" cx="56.659" cy="67.289" r="2.454" transform="translate(-11.328 123.107) rotate(-89.288)"/>
        <polygon id="polygon5510-4-5-4-7" class="cls-12" points="57.38 67.999 56.979 68.406 56.537 68.227 56.344 67.979 56.042 68.02 55.602 67.962 55.57 67.259 55.602 66.571 56.344 66.291 56.935 65.826 57.351 66.163 57.742 66.626 58.517 66.644 59.344 66.499 59.634 65.956 59.746 66.17 59.936 67.074 59.818 68.378 59.516 68.098 59.273 67.676 58.495 67.689 57.753 67.676 57.38 67.999"/>
        <path id="path5512-3-1-2-7" class="cls-12" d="M57.258,64.145l-.039,1.348.645.717,1.348-.072.086-.846-1.49-1.133Zm.267.832c0-.046.07-.089.138-.089s.133.054.131.1-.063.089-.139.089A.125.125,0,0,1,57.525,64.977Z"/>
        <path id="path5514-3-1-4-7" class="cls-12" d="M56.721,65.389l-.043-1.017-.489-.187-.874.289-.818.459-.559.7.789.043.688.545Zm-1.1-.509c.034-.109.107-.2.172-.176s.089.125.052.239-.105.192-.172.173-.086-.124-.052-.24Z"/>
        <path id="path5516-2-6-7" class="cls-12" d="M57.374,68.47l-.382.383.008.789.019.887.43-.057.5-.158.516-.259.416-.315.49-.5-.259-.4v-.732l-1.361-.015Zm.314.538a.253.253,0,0,1-.127-.027.1.1,0,0,1-.056-.081.118.118,0,0,1,.044-.088.21.21,0,0,1,.125-.043.193.193,0,0,1,.122.029.082.082,0,0,1,.055.077.1.1,0,0,1-.044.091.213.213,0,0,1-.119.043Z"/>
        <path id="path5518-9-9-7" class="cls-12" d="M56.089,70.5l.445.043.021-.835-.021-1.147-.473-.143-.574-.085-.373.515-.517.086-.544.057.544.747.617.458.388.158Zm0-1.277a.136.136,0,0,1,.095.039.08.08,0,0,1,.042.076.112.112,0,0,1-.038.084.149.149,0,0,1-.092.036.121.121,0,0,1-.1-.033.077.077,0,0,1-.041-.077A.086.086,0,0,1,56,69.268a.12.12,0,0,1,.093-.044Z"/>
        <path id="path5520-5-4-4-7" class="cls-12" d="M53.78,66.944l-.086-.746.66-.215.831.531.016,1.52-.833.416-.573-.087-.016-.673Z"/>
        <path id="path5524-3-1-7" class="cls-17" d="M53.463,66.34a4.327,4.327,0,0,0-.094.818,3.191,3.191,0,0,0,.067.646l.912-.187a2.436,2.436,0,0,1-.044-.459,2.153,2.153,0,0,1,.063-.53Zm1.124-.28A2.278,2.278,0,0,1,56.571,64.9a2.113,2.113,0,0,1,.42.041l.2-.908a3.433,3.433,0,0,0-.623-.06,3.2,3.2,0,0,0-2.85,1.739Z"/>
        <path id="path5526-5-7-7-7" class="cls-18" d="M58.481,68.909l.818.273A3.337,3.337,0,0,1,57.088,70.4l.217-.676A2.321,2.321,0,0,0,58.481,68.909Z"/>
        <circle id="color_circle1_2_-4-0-7" data-name="color circle1 2 -4-0-7" class="cls-19" cx="55.939" cy="67.16" r="0.182"/>
        <path id="rect6691-4-0-7" class="cls-20" d="M58.3,68.886h0a.374.374,0,0,0-.372-.374h0a.373.373,0,0,0-.373.372h0a.373.373,0,0,0,.371.374h0a.375.375,0,0,0,.373-.373h0Z"/>
        <path id="rect6691-1-3-7-7" class="cls-21" d="M58.331,65.9h0a.375.375,0,0,0-.373-.374h0a.374.374,0,0,0-.374.374h0a.375.375,0,0,0,.374.373h0a.372.372,0,0,0,.373-.372h0Z"/>
        <path id="rect6691-0-1-0-7" class="cls-22" d="M55.837,67.42h0a.371.371,0,0,0-.371-.373h0a.374.374,0,0,0-.373.373h0a.375.375,0,0,0,.373.374h0a.375.375,0,0,0,.374-.373h0Z"/>
        <ellipse id="color_circle2_2_-5-0-7" data-name="color circle2 2 -5-0-7" class="cls-23" cx="56.729" cy="67.405" rx="3.515" ry="3.53"/>
      </g>
    </g>
    <g>
      <g id="g13494-6-7-2" data-name="g13494-6-7">
        <rect id="pin5_2-0-5-7-2" data-name="pin5 2-0-5-7" class="cls-12" x="73.849" y="93.661" width="1.787" height="2.479"/>
        <rect id="pin3_2-1-4-7-2" data-name="pin3 2-1-4-7" class="cls-12" x="73.879" y="86.677" width="1.729" height="2.478"/>
        <rect id="pin2_2-5-5-1-7-2" data-name="pin2 2-5-5-1-7" class="cls-12" x="84.976" y="93.72" width="1.876" height="2.479"/>
        <rect id="pin0_2-7-8-4-7-2" data-name="pin0 2-7-8-4-7" class="cls-12" x="84.968" y="86.677" width="1.843" height="2.478"/>
        <polygon id="polygon5502-7-3-8-7-2" data-name="polygon5502-7-3-8-7" class="cls-13" points="85.612 86.98 85.612 96.56 75.855 96.562 75.396 96.165 85.153 96.163 85.153 86.583 85.612 86.98"/>
        <rect id="rect5504-2-6-4-7-2" data-name="rect5504-2-6-4-7" class="cls-14" x="75.377" y="86.629" width="9.75" height="9.494"/>
        <ellipse id="ellipse5506-7-5-7-2" data-name="ellipse5506-7-5-7" class="cls-15" cx="80.269" cy="91.355" rx="3.499" ry="3.531"/>
        <circle id="circle5508-3-6-7-2" data-name="circle5508-3-6-7" class="cls-16" cx="80.226" cy="91.289" r="2.454" transform="translate(-12.052 170.374) rotate(-89.288)"/>
        <polygon id="polygon5510-4-5-4-7-2" data-name="polygon5510-4-5-4-7" class="cls-12" points="80.946 91.999 80.546 92.406 80.104 92.227 79.911 91.979 79.609 92.02 79.169 91.962 79.137 91.259 79.169 90.571 79.911 90.291 80.501 89.826 80.918 90.163 81.309 90.626 82.083 90.644 82.91 90.499 83.201 89.956 83.313 90.17 83.503 91.074 83.384 92.378 83.082 92.098 82.84 91.676 82.062 91.689 81.319 91.676 80.946 91.999"/>
        <path id="path5512-3-1-2-7-2" data-name="path5512-3-1-2-7" class="cls-12" d="M80.825,88.145l-.039,1.348.645.717,1.348-.072.086-.846-1.491-1.133Zm.267.832c0-.046.069-.089.138-.089s.132.054.131.1-.063.089-.139.089A.124.124,0,0,1,81.092,88.977Z"/>
        <path id="path5514-3-1-4-7-2" data-name="path5514-3-1-4-7" class="cls-12" d="M80.287,89.389l-.043-1.017-.488-.187-.874.289-.818.459-.56.7.789.043.688.545Zm-1.1-.509c.035-.109.108-.2.172-.176s.09.125.053.239-.105.192-.173.173-.085-.124-.052-.24Z"/>
        <path id="path5516-2-6-7-2" data-name="path5516-2-6-7" class="cls-12" d="M80.941,92.47l-.382.383.007.789.019.887.431-.057.5-.158.517-.259.415-.315.49-.5-.258-.4v-.732l-1.362-.015Zm.314.538a.259.259,0,0,1-.128-.027.105.105,0,0,1-.055-.081.117.117,0,0,1,.043-.088.217.217,0,0,1,.126-.043.193.193,0,0,1,.122.029.085.085,0,0,1,.055.077.1.1,0,0,1-.044.091.216.216,0,0,1-.12.043Z"/>
        <path id="path5518-9-9-7-2" data-name="path5518-9-9-7" class="cls-12" d="M79.656,94.5l.445.043.021-.835L80.1,92.563l-.473-.143-.574-.085-.374.515-.516.086-.544.057.544.747.617.458.388.158Zm0-1.277a.138.138,0,0,1,.1.039.082.082,0,0,1,.042.076.112.112,0,0,1-.038.084.149.149,0,0,1-.092.036.12.12,0,0,1-.1-.033.077.077,0,0,1-.041-.077.086.086,0,0,1,.038-.082.12.12,0,0,1,.092-.044Z"/>
        <path id="path5520-5-4-4-7-2" data-name="path5520-5-4-4-7" class="cls-12" d="M77.347,90.944l-.086-.746.659-.215.832.531.015,1.52-.832.416-.574-.087-.015-.673Z"/>
        <path id="path5524-3-1-7-2" data-name="path5524-3-1-7" class="cls-17" d="M77.03,90.34a4.328,4.328,0,0,0-.095.818A3.184,3.184,0,0,0,77,91.8l.912-.187a2.357,2.357,0,0,1-.045-.459,2.2,2.2,0,0,1,.064-.53Zm1.124-.28A2.278,2.278,0,0,1,80.137,88.9a2.123,2.123,0,0,1,.421.041l.2-.908a3.425,3.425,0,0,0-.623-.06,3.2,3.2,0,0,0-2.849,1.739Z"/>
        <path id="path5526-5-7-7-7-2" data-name="path5526-5-7-7-7" class="cls-18" d="M82.048,92.909l.817.273A3.332,3.332,0,0,1,80.654,94.4l.218-.676A2.325,2.325,0,0,0,82.048,92.909Z"/>
        <circle id="color_circle1_2_-4-0-7-2" data-name="color circle1 2 -4-0-7" class="cls-19" cx="79.506" cy="91.16" r="0.182"/>
        <path id="rect6691-4-0-7-2" data-name="rect6691-4-0-7" class="cls-20" d="M81.862,92.886h0a.373.373,0,0,0-.371-.374h0a.373.373,0,0,0-.373.372h0a.372.372,0,0,0,.371.374h0a.374.374,0,0,0,.373-.373h0Z"/>
        <path id="rect6691-1-3-7-7-2" data-name="rect6691-1-3-7-7" class="cls-21" d="M81.9,89.9h0a.374.374,0,0,0-.372-.374h0a.374.374,0,0,0-.374.374h0a.375.375,0,0,0,.373.373h0a.373.373,0,0,0,.374-.372h0Z"/>
        <path id="rect6691-0-1-0-7-2" data-name="rect6691-0-1-0-7" class="cls-22" d="M79.4,91.42h0a.371.371,0,0,0-.371-.373h0a.373.373,0,0,0-.373.373h0a.375.375,0,0,0,.373.374h0a.375.375,0,0,0,.374-.373h0Z"/>
        <ellipse id="color_circle2_2_-5-0-7-2" data-name="color circle2 2 -5-0-7" class="cls-23" cx="80.296" cy="91.405" rx="3.515" ry="3.53"/>
      </g>
      <g id="g13494-6-7-3" data-name="g13494-6-7">
        <rect id="pin5_2-0-5-7-3" data-name="pin5 2-0-5-7" class="cls-12" x="26.716" y="93.661" width="1.787" height="2.479"/>
        <rect id="pin3_2-1-4-7-3" data-name="pin3 2-1-4-7" class="cls-12" x="26.745" y="86.677" width="1.729" height="2.478"/>
        <rect id="pin2_2-5-5-1-7-3" data-name="pin2 2-5-5-1-7" class="cls-12" x="37.843" y="93.72" width="1.876" height="2.479"/>
        <rect id="pin0_2-7-8-4-7-3" data-name="pin0 2-7-8-4-7" class="cls-12" x="37.834" y="86.677" width="1.843" height="2.478"/>
        <polygon id="polygon5502-7-3-8-7-3" data-name="polygon5502-7-3-8-7" class="cls-13" points="38.479 86.98 38.479 96.56 28.722 96.562 28.262 96.165 38.02 96.163 38.02 86.583 38.479 86.98"/>
        <rect id="rect5504-2-6-4-7-3" data-name="rect5504-2-6-4-7" class="cls-14" x="28.243" y="86.629" width="9.75" height="9.494"/>
        <ellipse id="ellipse5506-7-5-7-3" data-name="ellipse5506-7-5-7" class="cls-15" cx="33.136" cy="91.355" rx="3.499" ry="3.531"/>
        <circle id="circle5508-3-6-7-3" data-name="circle5508-3-6-7" class="cls-16" cx="33.093" cy="91.289" r="2.454" transform="translate(-58.6 123.244) rotate(-89.288)"/>
        <polygon id="polygon5510-4-5-4-7-3" data-name="polygon5510-4-5-4-7" class="cls-12" points="33.813 91.999 33.412 92.406 32.97 92.227 32.778 91.979 32.476 92.02 32.035 91.962 32.003 91.259 32.035 90.571 32.778 90.291 33.368 89.826 33.785 90.163 34.175 90.626 34.95 90.644 35.777 90.499 36.068 89.956 36.179 90.17 36.37 91.074 36.251 92.378 35.949 92.098 35.707 91.676 34.928 91.689 34.186 91.676 33.813 91.999"/>
        <path id="path5512-3-1-2-7-3" data-name="path5512-3-1-2-7" class="cls-12" d="M33.691,88.145l-.039,1.348.646.717,1.347-.072.086-.846-1.49-1.133Zm.267.832c0-.046.07-.089.139-.089s.132.054.13.1-.062.089-.139.089A.125.125,0,0,1,33.958,88.977Z"/>
        <path id="path5514-3-1-4-7-3" data-name="path5514-3-1-4-7" class="cls-12" d="M33.154,89.389l-.043-1.017-.489-.187-.873.289-.818.459-.56.7.789.043.688.545Zm-1.1-.509c.034-.109.108-.2.172-.176s.089.125.053.239-.106.192-.173.173-.086-.124-.052-.24Z"/>
        <path id="path5516-2-6-7-3" data-name="path5516-2-6-7" class="cls-12" d="M33.808,92.47l-.383.383.008.789.019.887.431-.057.5-.158.516-.259.416-.315.49-.5-.258-.4v-.732l-1.362-.015Zm.314.538a.259.259,0,0,1-.128-.027.1.1,0,0,1-.056-.081.118.118,0,0,1,.044-.088.217.217,0,0,1,.125-.043.2.2,0,0,1,.123.029.085.085,0,0,1,.055.077.1.1,0,0,1-.045.091.213.213,0,0,1-.119.043Z"/>
        <path id="path5518-9-9-7-3" data-name="path5518-9-9-7" class="cls-12" d="M32.522,94.5l.445.043.022-.835-.022-1.147-.473-.143-.573-.085-.374.515-.516.086-.545.057.545.747.617.458.387.158Zm0-1.277a.134.134,0,0,1,.095.039.079.079,0,0,1,.042.076.112.112,0,0,1-.038.084.147.147,0,0,1-.092.036.121.121,0,0,1-.1-.033.078.078,0,0,1-.041-.077.088.088,0,0,1,.038-.082.12.12,0,0,1,.093-.044Z"/>
        <path id="path5520-5-4-4-7-3" data-name="path5520-5-4-4-7" class="cls-12" d="M30.213,90.944l-.085-.746.659-.215.832.531.015,1.52-.833.416-.573-.087-.015-.673Z"/>
        <path id="path5524-3-1-7-3" data-name="path5524-3-1-7" class="cls-17" d="M29.9,90.34a4.327,4.327,0,0,0-.094.818,3.184,3.184,0,0,0,.067.646l.912-.187a2.436,2.436,0,0,1-.044-.459,2.154,2.154,0,0,1,.064-.53Zm1.125-.28A2.277,2.277,0,0,1,33,88.9a2.131,2.131,0,0,1,.421.041l.2-.908a3.425,3.425,0,0,0-.623-.06,3.2,3.2,0,0,0-2.85,1.739Z"/>
        <path id="path5526-5-7-7-7-3" data-name="path5526-5-7-7-7" class="cls-18" d="M34.915,92.909l.817.273A3.337,3.337,0,0,1,33.521,94.4l.218-.676A2.329,2.329,0,0,0,34.915,92.909Z"/>
        <circle id="color_circle1_2_-4-0-7-3" data-name="color circle1 2 -4-0-7" class="cls-19" cx="32.373" cy="91.16" r="0.182"/>
        <path id="rect6691-4-0-7-3" data-name="rect6691-4-0-7" class="cls-20" d="M34.729,92.886h0a.374.374,0,0,0-.372-.374h0a.372.372,0,0,0-.373.372h0a.372.372,0,0,0,.37.374h0a.375.375,0,0,0,.374-.373h0Z"/>
        <path id="rect6691-1-3-7-7-3" data-name="rect6691-1-3-7-7" class="cls-21" d="M34.764,89.9h0a.374.374,0,0,0-.372-.374h0a.373.373,0,0,0-.374.374h0a.374.374,0,0,0,.373.373h0a.374.374,0,0,0,.374-.372h0Z"/>
        <path id="rect6691-0-1-0-7-3" data-name="rect6691-0-1-0-7" class="cls-22" d="M32.271,91.42h0a.372.372,0,0,0-.372-.373h0a.373.373,0,0,0-.373.373h0a.375.375,0,0,0,.373.374h0a.375.375,0,0,0,.374-.373h0Z"/>
        <ellipse id="color_circle2_2_-5-0-7-3" data-name="color circle2 2 -5-0-7" class="cls-23" cx="33.162" cy="91.405" rx="3.515" ry="3.53"/>
      </g>
      <g id="g13494-6-7-4" data-name="g13494-6-7">
        <rect id="pin5_2-0-5-7-4" data-name="pin5 2-0-5-7" class="cls-12" x="26.582" y="105.097" width="1.787" height="2.479"/>
        <rect id="pin3_2-1-4-7-4" data-name="pin3 2-1-4-7" class="cls-12" x="26.612" y="98.113" width="1.729" height="2.478"/>
        <rect id="pin2_2-5-5-1-7-4" data-name="pin2 2-5-5-1-7" class="cls-12" x="37.71" y="105.156" width="1.876" height="2.479"/>
        <rect id="pin0_2-7-8-4-7-4" data-name="pin0 2-7-8-4-7" class="cls-12" x="37.701" y="98.113" width="1.843" height="2.478"/>
        <polygon id="polygon5502-7-3-8-7-4" data-name="polygon5502-7-3-8-7" class="cls-13" points="38.346 98.416 38.346 107.996 28.588 107.997 28.129 107.601 37.886 107.599 37.886 98.019 38.346 98.416"/>
        <rect id="rect5504-2-6-4-7-4" data-name="rect5504-2-6-4-7" class="cls-14" x="28.11" y="98.065" width="9.75" height="9.494"/>
        <ellipse id="ellipse5506-7-5-7-4" data-name="ellipse5506-7-5-7" class="cls-15" cx="33.002" cy="102.791" rx="3.499" ry="3.531"/>
        <circle id="circle5508-3-6-7-4" data-name="circle5508-3-6-7" class="cls-16" cx="32.959" cy="102.725" r="2.454" transform="translate(-70.167 134.405) rotate(-89.288)"/>
        <polygon id="polygon5510-4-5-4-7-4" data-name="polygon5510-4-5-4-7" class="cls-12" points="33.68 103.435 33.279 103.842 32.837 103.663 32.644 103.415 32.342 103.456 31.902 103.398 31.87 102.695 31.902 102.007 32.644 101.727 33.235 101.262 33.651 101.599 34.042 102.062 34.816 102.08 35.644 101.935 35.934 101.392 36.046 101.606 36.236 102.51 36.118 103.814 35.816 103.534 35.573 103.112 34.795 103.125 34.053 103.112 33.68 103.435"/>
        <path id="path5512-3-1-2-7-4" data-name="path5512-3-1-2-7" class="cls-12" d="M33.558,99.581l-.039,1.348.645.717,1.348-.072.086-.846L34.108,99.6Zm.267.832c0-.046.069-.089.138-.089s.133.054.131.1-.063.089-.139.089A.125.125,0,0,1,33.825,100.413Z"/>
        <path id="path5514-3-1-4-7-4" data-name="path5514-3-1-4-7" class="cls-12" d="M33.021,100.825l-.043-1.017-.489-.187-.874.289-.818.459-.559.7.789.043.688.545Zm-1.1-.509c.034-.109.107-.2.172-.176s.089.125.052.239-.1.192-.172.173-.086-.124-.052-.24Z"/>
        <path id="path5516-2-6-7-4" data-name="path5516-2-6-7" class="cls-12" d="M33.674,103.906l-.382.383.008.789.019.887.43-.057.5-.158.516-.259.416-.315.49-.5-.259-.4v-.732l-1.361-.015Zm.314.538a.253.253,0,0,1-.127-.027.1.1,0,0,1-.056-.081.118.118,0,0,1,.044-.088.21.21,0,0,1,.125-.043.193.193,0,0,1,.122.029.082.082,0,0,1,.055.077.1.1,0,0,1-.044.091.213.213,0,0,1-.119.043Z"/>
        <path id="path5518-9-9-7-4" data-name="path5518-9-9-7" class="cls-12" d="M32.389,105.938l.445.043.021-.835L32.834,104l-.473-.143-.574-.085-.373.515-.517.086-.544.057.544.747.617.458.388.158Zm0-1.277a.136.136,0,0,1,.1.039.08.08,0,0,1,.042.076.112.112,0,0,1-.038.084.149.149,0,0,1-.092.036.12.12,0,0,1-.1-.033.077.077,0,0,1-.041-.077.086.086,0,0,1,.038-.082.12.12,0,0,1,.093-.044Z"/>
        <path id="path5520-5-4-4-7-4" data-name="path5520-5-4-4-7" class="cls-12" d="M30.08,102.38l-.086-.746.66-.215.831.531.016,1.52-.833.416L30.1,103.8l-.016-.673Z"/>
        <path id="path5524-3-1-7-4" data-name="path5524-3-1-7" class="cls-17" d="M29.763,101.776a4.327,4.327,0,0,0-.094.818,3.191,3.191,0,0,0,.067.646l.912-.187a2.436,2.436,0,0,1-.044-.459,2.153,2.153,0,0,1,.063-.53Zm1.124-.28a2.278,2.278,0,0,1,1.984-1.162,2.113,2.113,0,0,1,.42.041l.2-.908a3.433,3.433,0,0,0-.623-.06,3.2,3.2,0,0,0-2.85,1.739Z"/>
        <path id="path5526-5-7-7-7-4" data-name="path5526-5-7-7-7" class="cls-18" d="M34.781,104.345l.818.273a3.337,3.337,0,0,1-2.211,1.214l.217-.676A2.321,2.321,0,0,0,34.781,104.345Z"/>
        <circle id="color_circle1_2_-4-0-7-4" data-name="color circle1 2 -4-0-7" class="cls-19" cx="32.239" cy="102.596" r="0.182"/>
        <path id="rect6691-4-0-7-4" data-name="rect6691-4-0-7" class="cls-20" d="M34.6,104.322h0a.374.374,0,0,0-.372-.374h0a.373.373,0,0,0-.373.372h0a.373.373,0,0,0,.371.374h0a.375.375,0,0,0,.373-.373h0Z"/>
        <path id="rect6691-1-3-7-7-4" data-name="rect6691-1-3-7-7" class="cls-21" d="M34.631,101.34h0a.375.375,0,0,0-.373-.374h0a.374.374,0,0,0-.374.374h0a.375.375,0,0,0,.374.373h0a.372.372,0,0,0,.373-.372h0Z"/>
        <path id="rect6691-0-1-0-7-4" data-name="rect6691-0-1-0-7" class="cls-22" d="M32.137,102.856h0a.371.371,0,0,0-.371-.373h0a.374.374,0,0,0-.373.373h0a.375.375,0,0,0,.373.374h0a.375.375,0,0,0,.374-.373h0Z"/>
        <ellipse id="color_circle2_2_-5-0-7-4" data-name="color circle2 2 -5-0-7" class="cls-23" cx="33.029" cy="102.841" rx="3.515" ry="3.53"/>
      </g>
      <g id="g13494-6-7-5" data-name="g13494-6-7">
        <rect id="pin5_2-0-5-7-5" data-name="pin5 2-0-5-7" class="cls-12" x="26.716" y="116.661" width="1.787" height="2.479"/>
        <rect id="pin3_2-1-4-7-5" data-name="pin3 2-1-4-7" class="cls-12" x="26.745" y="109.677" width="1.729" height="2.478"/>
        <rect id="pin2_2-5-5-1-7-5" data-name="pin2 2-5-5-1-7" class="cls-12" x="37.843" y="116.72" width="1.876" height="2.479"/>
        <rect id="pin0_2-7-8-4-7-5" data-name="pin0 2-7-8-4-7" class="cls-12" x="37.834" y="109.677" width="1.843" height="2.478"/>
        <polygon id="polygon5502-7-3-8-7-5" data-name="polygon5502-7-3-8-7" class="cls-13" points="38.479 109.98 38.479 119.56 28.722 119.562 28.262 119.165 38.02 119.163 38.02 109.583 38.479 109.98"/>
        <rect id="rect5504-2-6-4-7-5" data-name="rect5504-2-6-4-7" class="cls-14" x="28.243" y="109.629" width="9.75" height="9.494"/>
        <ellipse id="ellipse5506-7-5-7-5" data-name="ellipse5506-7-5-7" class="cls-15" cx="33.136" cy="114.355" rx="3.499" ry="3.531"/>
        <circle id="circle5508-3-6-7-5" data-name="circle5508-3-6-7" class="cls-16" cx="33.093" cy="114.289" r="2.454" transform="translate(-81.598 145.958) rotate(-89.288)"/>
        <polygon id="polygon5510-4-5-4-7-5" data-name="polygon5510-4-5-4-7" class="cls-12" points="33.813 114.999 33.412 115.406 32.97 115.227 32.778 114.979 32.476 115.02 32.035 114.962 32.003 114.259 32.035 113.571 32.778 113.291 33.368 112.826 33.785 113.163 34.175 113.626 34.95 113.644 35.777 113.499 36.068 112.956 36.179 113.17 36.37 114.074 36.251 115.378 35.949 115.098 35.707 114.676 34.928 114.689 34.186 114.676 33.813 114.999"/>
        <path id="path5512-3-1-2-7-5" data-name="path5512-3-1-2-7" class="cls-12" d="M33.691,111.145l-.039,1.348.646.717,1.347-.072.086-.846-1.49-1.133Zm.267.832c0-.046.07-.089.139-.089s.132.054.13.1-.062.089-.139.089A.125.125,0,0,1,33.958,111.977Z"/>
        <path id="path5514-3-1-4-7-5" data-name="path5514-3-1-4-7" class="cls-12" d="M33.154,112.389l-.043-1.017-.489-.187-.873.289-.818.459-.56.7.789.043.688.545Zm-1.1-.509c.034-.109.108-.2.172-.176s.089.125.053.239-.106.192-.173.173-.086-.124-.052-.24Z"/>
        <path id="path5516-2-6-7-5" data-name="path5516-2-6-7" class="cls-12" d="M33.808,115.47l-.383.383.008.789.019.887.431-.057.5-.157.516-.26.416-.315.49-.5-.258-.4v-.732l-1.362-.015Zm.314.538a.259.259,0,0,1-.128-.027.1.1,0,0,1-.056-.081.118.118,0,0,1,.044-.088.217.217,0,0,1,.125-.043.2.2,0,0,1,.123.029.085.085,0,0,1,.055.077.1.1,0,0,1-.045.091.213.213,0,0,1-.119.043Z"/>
        <path id="path5518-9-9-7-5" data-name="path5518-9-9-7" class="cls-12" d="M32.522,117.5l.445.043.022-.835-.022-1.147-.473-.143-.573-.085-.374.515-.516.086-.545.057.545.747.617.458.387.158Zm0-1.277a.134.134,0,0,1,.095.039.079.079,0,0,1,.042.076.112.112,0,0,1-.038.084.147.147,0,0,1-.092.036.121.121,0,0,1-.1-.033.078.078,0,0,1-.041-.077.088.088,0,0,1,.038-.082.12.12,0,0,1,.093-.044Z"/>
        <path id="path5520-5-4-4-7-5" data-name="path5520-5-4-4-7" class="cls-12" d="M30.213,113.944l-.085-.746.659-.215.832.531.015,1.52-.833.416-.573-.087-.015-.673Z"/>
        <path id="path5524-3-1-7-5" data-name="path5524-3-1-7" class="cls-17" d="M29.9,113.34a4.327,4.327,0,0,0-.094.818,3.184,3.184,0,0,0,.067.646l.912-.187a2.436,2.436,0,0,1-.044-.459,2.154,2.154,0,0,1,.064-.53Zm1.125-.28A2.277,2.277,0,0,1,33,111.9a2.131,2.131,0,0,1,.421.041l.2-.908a3.425,3.425,0,0,0-.623-.06,3.2,3.2,0,0,0-2.85,1.739Z"/>
        <path id="path5526-5-7-7-7-5" data-name="path5526-5-7-7-7" class="cls-18" d="M34.915,115.909l.817.273a3.337,3.337,0,0,1-2.211,1.214l.218-.676A2.329,2.329,0,0,0,34.915,115.909Z"/>
        <circle id="color_circle1_2_-4-0-7-5" data-name="color circle1 2 -4-0-7" class="cls-19" cx="32.373" cy="114.16" r="0.182"/>
        <path id="rect6691-4-0-7-5" data-name="rect6691-4-0-7" class="cls-20" d="M34.729,115.886h0a.374.374,0,0,0-.372-.374h0a.372.372,0,0,0-.373.372h0a.372.372,0,0,0,.37.374h0a.375.375,0,0,0,.374-.373h0Z"/>
        <path id="rect6691-1-3-7-7-5" data-name="rect6691-1-3-7-7" class="cls-21" d="M34.764,112.9h0a.374.374,0,0,0-.372-.374h0a.373.373,0,0,0-.374.374h0a.374.374,0,0,0,.373.373h0a.374.374,0,0,0,.374-.372h0Z"/>
        <path id="rect6691-0-1-0-7-5" data-name="rect6691-0-1-0-7" class="cls-22" d="M32.271,114.42h0a.372.372,0,0,0-.372-.373h0a.373.373,0,0,0-.373.373h0a.375.375,0,0,0,.373.374h0a.375.375,0,0,0,.374-.373h0Z"/>
        <ellipse id="color_circle2_2_-5-0-7-5" data-name="color circle2 2 -5-0-7" class="cls-23" cx="33.162" cy="114.405" rx="3.515" ry="3.53"/>
      </g>
      <g id="g13494-6-7-6" data-name="g13494-6-7">
        <rect id="pin5_2-0-5-7-6" data-name="pin5 2-0-5-7" class="cls-12" x="10.782" y="105.097" width="1.787" height="2.479"/>
        <rect id="pin3_2-1-4-7-6" data-name="pin3 2-1-4-7" class="cls-12" x="10.812" y="98.113" width="1.729" height="2.478"/>
        <rect id="pin2_2-5-5-1-7-6" data-name="pin2 2-5-5-1-7" class="cls-12" x="21.909" y="105.156" width="1.876" height="2.479"/>
        <rect id="pin0_2-7-8-4-7-6" data-name="pin0 2-7-8-4-7" class="cls-12" x="21.901" y="98.113" width="1.843" height="2.478"/>
        <polygon id="polygon5502-7-3-8-7-6" data-name="polygon5502-7-3-8-7" class="cls-13" points="22.546 98.416 22.546 107.996 12.788 107.997 12.329 107.601 22.086 107.599 22.086 98.019 22.546 98.416"/>
        <rect id="rect5504-2-6-4-7-6" data-name="rect5504-2-6-4-7" class="cls-14" x="12.31" y="98.065" width="9.75" height="9.494"/>
        <ellipse id="ellipse5506-7-5-7-6" data-name="ellipse5506-7-5-7" class="cls-15" cx="17.202" cy="102.791" rx="3.499" ry="3.531"/>
        <circle id="circle5508-3-6-7-6" data-name="circle5508-3-6-7" class="cls-16" cx="17.159" cy="102.725" r="2.454" transform="translate(-85.77 118.606) rotate(-89.288)"/>
        <polygon id="polygon5510-4-5-4-7-6" data-name="polygon5510-4-5-4-7" class="cls-12" points="17.88 103.435 17.479 103.842 17.037 103.663 16.844 103.415 16.542 103.456 16.102 103.398 16.07 102.695 16.102 102.007 16.844 101.727 17.435 101.262 17.851 101.599 18.242 102.062 19.016 102.08 19.844 101.935 20.134 101.392 20.246 101.606 20.436 102.51 20.318 103.814 20.016 103.534 19.773 103.112 18.995 103.125 18.253 103.112 17.88 103.435"/>
        <path id="path5512-3-1-2-7-6" data-name="path5512-3-1-2-7" class="cls-12" d="M17.758,99.581l-.039,1.348.645.717,1.348-.072.086-.846L18.308,99.6Zm.267.832c0-.046.069-.089.138-.089s.133.054.131.1-.063.089-.139.089A.125.125,0,0,1,18.025,100.413Z"/>
        <path id="path5514-3-1-4-7-6" data-name="path5514-3-1-4-7" class="cls-12" d="M17.221,100.825l-.043-1.017-.489-.187-.874.289-.818.459-.559.7.789.043.688.545Zm-1.1-.509c.034-.109.107-.2.172-.176s.089.125.052.239-.105.192-.172.173-.086-.124-.052-.24Z"/>
        <path id="path5516-2-6-7-6" data-name="path5516-2-6-7" class="cls-12" d="M17.874,103.906l-.382.383.008.789.019.887.43-.057.5-.158.516-.259.416-.315.49-.5-.259-.4v-.732l-1.361-.015Zm.314.538a.253.253,0,0,1-.127-.027.1.1,0,0,1-.056-.081.118.118,0,0,1,.044-.088.208.208,0,0,1,.125-.043.193.193,0,0,1,.122.029.082.082,0,0,1,.055.077.1.1,0,0,1-.044.091.213.213,0,0,1-.119.043Z"/>
        <path id="path5518-9-9-7-6" data-name="path5518-9-9-7" class="cls-12" d="M16.589,105.938l.445.043.021-.835L17.034,104l-.473-.143-.574-.085-.373.515-.517.086-.544.057.544.747.617.458.388.158Zm0-1.277a.136.136,0,0,1,.1.039.08.08,0,0,1,.042.076.112.112,0,0,1-.038.084.149.149,0,0,1-.092.036.12.12,0,0,1-.1-.033.077.077,0,0,1-.041-.077.086.086,0,0,1,.038-.082.12.12,0,0,1,.093-.044Z"/>
        <path id="path5520-5-4-4-7-6" data-name="path5520-5-4-4-7" class="cls-12" d="M14.28,102.38l-.086-.746.66-.215.831.531.016,1.52-.833.416L14.3,103.8l-.016-.673Z"/>
        <path id="path5524-3-1-7-6" data-name="path5524-3-1-7" class="cls-17" d="M13.963,101.776a4.327,4.327,0,0,0-.094.818,3.191,3.191,0,0,0,.067.646l.912-.187a2.436,2.436,0,0,1-.044-.459,2.153,2.153,0,0,1,.063-.53Zm1.124-.28a2.278,2.278,0,0,1,1.984-1.162,2.113,2.113,0,0,1,.42.041l.2-.908a3.436,3.436,0,0,0-.624-.06,3.2,3.2,0,0,0-2.849,1.739Z"/>
        <path id="path5526-5-7-7-7-6" data-name="path5526-5-7-7-7" class="cls-18" d="M18.981,104.345l.818.273a3.337,3.337,0,0,1-2.211,1.214l.217-.676A2.321,2.321,0,0,0,18.981,104.345Z"/>
        <circle id="color_circle1_2_-4-0-7-6" data-name="color circle1 2 -4-0-7" class="cls-19" cx="16.439" cy="102.596" r="0.182"/>
        <path id="rect6691-4-0-7-6" data-name="rect6691-4-0-7" class="cls-20" d="M18.8,104.322h0a.374.374,0,0,0-.372-.374h0a.373.373,0,0,0-.373.372h0a.372.372,0,0,0,.371.374h0a.375.375,0,0,0,.373-.373h0Z"/>
        <path id="rect6691-1-3-7-7-6" data-name="rect6691-1-3-7-7" class="cls-21" d="M18.831,101.34h0a.375.375,0,0,0-.373-.374h0a.374.374,0,0,0-.374.374h0a.375.375,0,0,0,.374.373h0a.372.372,0,0,0,.373-.372h0Z"/>
        <path id="rect6691-0-1-0-7-6" data-name="rect6691-0-1-0-7" class="cls-22" d="M16.337,102.856h0a.371.371,0,0,0-.371-.373h0a.374.374,0,0,0-.373.373h0a.375.375,0,0,0,.373.374h0a.375.375,0,0,0,.374-.373h0Z"/>
        <ellipse id="color_circle2_2_-5-0-7-6" data-name="color circle2 2 -5-0-7" class="cls-23" cx="17.229" cy="102.841" rx="3.515" ry="3.53"/>
      </g>
      <g id="g13494-6-7-7" data-name="g13494-6-7">
        <rect id="pin5_2-0-5-7-7" data-name="pin5 2-0-5-7" class="cls-12" x="42.382" y="105.097" width="1.787" height="2.479"/>
        <rect id="pin3_2-1-4-7-7" data-name="pin3 2-1-4-7" class="cls-12" x="42.412" y="98.113" width="1.729" height="2.478"/>
        <rect id="pin2_2-5-5-1-7-7" data-name="pin2 2-5-5-1-7" class="cls-12" x="53.51" y="105.156" width="1.876" height="2.479"/>
        <rect id="pin0_2-7-8-4-7-7" data-name="pin0 2-7-8-4-7" class="cls-12" x="53.501" y="98.113" width="1.843" height="2.478"/>
        <polygon id="polygon5502-7-3-8-7-7" data-name="polygon5502-7-3-8-7" class="cls-13" points="54.146 98.416 54.146 107.996 44.388 107.997 43.929 107.601 53.686 107.599 53.686 98.019 54.146 98.416"/>
        <rect id="rect5504-2-6-4-7-7" data-name="rect5504-2-6-4-7" class="cls-14" x="43.91" y="98.065" width="9.75" height="9.494"/>
        <ellipse id="ellipse5506-7-5-7-7" data-name="ellipse5506-7-5-7" class="cls-15" cx="48.802" cy="102.791" rx="3.499" ry="3.531"/>
        <circle id="circle5508-3-6-7-7" data-name="circle5508-3-6-7" class="cls-16" cx="48.759" cy="102.725" r="2.454" transform="translate(-54.563 150.204) rotate(-89.288)"/>
        <polygon id="polygon5510-4-5-4-7-7" data-name="polygon5510-4-5-4-7" class="cls-12" points="49.48 103.435 49.079 103.842 48.637 103.663 48.444 103.415 48.142 103.456 47.702 103.398 47.67 102.695 47.702 102.007 48.444 101.727 49.035 101.262 49.451 101.599 49.842 102.062 50.617 102.08 51.444 101.935 51.734 101.392 51.846 101.606 52.036 102.51 51.918 103.814 51.616 103.534 51.373 103.112 50.595 103.125 49.853 103.112 49.48 103.435"/>
        <path id="path5512-3-1-2-7-7" data-name="path5512-3-1-2-7" class="cls-12" d="M49.358,99.581l-.039,1.348.645.717,1.348-.072.086-.846L49.908,99.6Zm.267.832c0-.046.069-.089.138-.089s.133.054.131.1-.063.089-.139.089A.125.125,0,0,1,49.625,100.413Z"/>
        <path id="path5514-3-1-4-7-7" data-name="path5514-3-1-4-7" class="cls-12" d="M48.821,100.825l-.043-1.017-.489-.187-.874.289-.818.459-.559.7.789.043.688.545Zm-1.1-.509c.034-.109.107-.2.172-.176s.089.125.052.239-.105.192-.172.173-.086-.124-.052-.24Z"/>
        <path id="path5516-2-6-7-7" data-name="path5516-2-6-7" class="cls-12" d="M49.474,103.906l-.382.383.008.789.019.887.43-.057.5-.158.516-.259.416-.315.49-.5-.259-.4v-.732l-1.361-.015Zm.314.538a.253.253,0,0,1-.127-.027.1.1,0,0,1-.056-.081.118.118,0,0,1,.044-.088.21.21,0,0,1,.125-.043.193.193,0,0,1,.122.029.082.082,0,0,1,.055.077.1.1,0,0,1-.044.091.213.213,0,0,1-.119.043Z"/>
        <path id="path5518-9-9-7-7" data-name="path5518-9-9-7" class="cls-12" d="M48.189,105.938l.445.043.021-.835L48.634,104l-.473-.143-.574-.085-.373.515-.517.086-.544.057.544.747.617.458.388.158Zm0-1.277a.136.136,0,0,1,.095.039.08.08,0,0,1,.042.076.112.112,0,0,1-.038.084.149.149,0,0,1-.092.036.121.121,0,0,1-.1-.033.077.077,0,0,1-.041-.077.086.086,0,0,1,.038-.082.12.12,0,0,1,.093-.044Z"/>
        <path id="path5520-5-4-4-7-7" data-name="path5520-5-4-4-7" class="cls-12" d="M45.88,102.38l-.086-.746.66-.215.831.531.016,1.52-.833.416L45.9,103.8l-.016-.673Z"/>
        <path id="path5524-3-1-7-7" data-name="path5524-3-1-7" class="cls-17" d="M45.563,101.776a4.327,4.327,0,0,0-.094.818,3.191,3.191,0,0,0,.067.646l.912-.187a2.436,2.436,0,0,1-.044-.459,2.153,2.153,0,0,1,.063-.53Zm1.124-.28a2.278,2.278,0,0,1,1.984-1.162,2.113,2.113,0,0,1,.42.041l.2-.908a3.433,3.433,0,0,0-.623-.06,3.2,3.2,0,0,0-2.85,1.739Z"/>
        <path id="path5526-5-7-7-7-7" data-name="path5526-5-7-7-7" class="cls-18" d="M50.581,104.345l.818.273a3.337,3.337,0,0,1-2.211,1.214l.217-.676A2.321,2.321,0,0,0,50.581,104.345Z"/>
        <circle id="color_circle1_2_-4-0-7-7" data-name="color circle1 2 -4-0-7" class="cls-19" cx="48.039" cy="102.596" r="0.182"/>
        <path id="rect6691-4-0-7-7" data-name="rect6691-4-0-7" class="cls-20" d="M50.4,104.322h0a.374.374,0,0,0-.372-.374h0a.373.373,0,0,0-.373.372h0a.373.373,0,0,0,.371.374h0a.375.375,0,0,0,.373-.373h0Z"/>
        <path id="rect6691-1-3-7-7-7" data-name="rect6691-1-3-7-7" class="cls-21" d="M50.431,101.34h0a.375.375,0,0,0-.373-.374h0a.374.374,0,0,0-.374.374h0a.375.375,0,0,0,.374.373h0a.372.372,0,0,0,.373-.372h0Z"/>
        <path id="rect6691-0-1-0-7-7" data-name="rect6691-0-1-0-7" class="cls-22" d="M47.937,102.856h0a.371.371,0,0,0-.371-.373h0a.374.374,0,0,0-.373.373h0a.375.375,0,0,0,.373.374h0a.375.375,0,0,0,.374-.373h0Z"/>
        <ellipse id="color_circle2_2_-5-0-7-7" data-name="color circle2 2 -5-0-7" class="cls-23" cx="48.829" cy="102.841" rx="3.515" ry="3.53"/>
      </g>
      <g id="g13494-6-7-8" data-name="g13494-6-7">
        <rect id="pin5_2-0-5-7-8" data-name="pin5 2-0-5-7" class="cls-12" x="42.382" y="122.777" width="1.787" height="2.479"/>
        <rect id="pin3_2-1-4-7-8" data-name="pin3 2-1-4-7" class="cls-12" x="42.412" y="115.792" width="1.729" height="2.478"/>
        <rect id="pin2_2-5-5-1-7-8" data-name="pin2 2-5-5-1-7" class="cls-12" x="53.51" y="122.836" width="1.876" height="2.479"/>
        <rect id="pin0_2-7-8-4-7-8" data-name="pin0 2-7-8-4-7" class="cls-12" x="53.501" y="115.792" width="1.843" height="2.478"/>
        <polygon id="polygon5502-7-3-8-7-8" data-name="polygon5502-7-3-8-7" class="cls-13" points="54.146 116.096 54.146 125.676 44.388 125.677 43.929 125.281 53.686 125.279 53.686 115.698 54.146 116.096"/>
        <rect id="rect5504-2-6-4-7-8" data-name="rect5504-2-6-4-7" class="cls-14" x="43.91" y="115.745" width="9.75" height="9.494"/>
        <ellipse id="ellipse5506-7-5-7-8" data-name="ellipse5506-7-5-7" class="cls-15" cx="48.802" cy="120.471" rx="3.499" ry="3.531"/>
        <circle id="circle5508-3-6-7-8" data-name="circle5508-3-6-7" class="cls-16" cx="48.759" cy="120.404" r="2.454" transform="translate(-72.242 167.664) rotate(-89.288)"/>
        <polygon id="polygon5510-4-5-4-7-8" data-name="polygon5510-4-5-4-7" class="cls-12" points="49.48 121.115 49.079 121.522 48.637 121.343 48.444 121.095 48.142 121.136 47.702 121.078 47.67 120.375 47.702 119.687 48.444 119.407 49.035 118.942 49.451 119.279 49.842 119.741 50.617 119.76 51.444 119.615 51.734 119.072 51.846 119.286 52.036 120.19 51.918 121.494 51.616 121.214 51.373 120.792 50.595 120.805 49.853 120.792 49.48 121.115"/>
        <path id="path5512-3-1-2-7-8" data-name="path5512-3-1-2-7" class="cls-12" d="M49.358,117.261l-.039,1.348.645.716,1.348-.071.086-.846-1.49-1.133Zm.267.832c0-.047.069-.089.138-.089s.133.054.131.1-.063.088-.139.088A.123.123,0,0,1,49.625,118.093Z"/>
        <path id="path5514-3-1-4-7-8" data-name="path5514-3-1-4-7" class="cls-12" d="M48.821,118.505l-.043-1.018-.489-.186-.874.289-.818.459-.559.7.789.043.688.545Zm-1.1-.509c.034-.109.107-.2.172-.176s.089.125.052.239-.105.192-.172.173-.086-.124-.052-.24Z"/>
        <path id="path5516-2-6-7-8" data-name="path5516-2-6-7" class="cls-12" d="M49.474,121.586l-.382.383.008.789.019.886.43-.056.5-.158.516-.259.416-.315.49-.5-.259-.4v-.732l-1.361-.015Zm.314.538a.253.253,0,0,1-.127-.027.106.106,0,0,1-.056-.081.116.116,0,0,1,.044-.088.2.2,0,0,1,.125-.043.193.193,0,0,1,.122.029.082.082,0,0,1,.055.077.1.1,0,0,1-.044.091.2.2,0,0,1-.119.042Z"/>
        <path id="path5518-9-9-7-8" data-name="path5518-9-9-7" class="cls-12" d="M48.189,123.618l.445.043.021-.835-.021-1.147-.473-.143-.574-.085-.373.515-.517.086-.544.057.544.746.617.459.388.158Zm0-1.277a.136.136,0,0,1,.095.039.08.08,0,0,1,.042.076.112.112,0,0,1-.038.084.149.149,0,0,1-.092.036.121.121,0,0,1-.1-.033.077.077,0,0,1-.041-.077.086.086,0,0,1,.038-.082.12.12,0,0,1,.093-.044Z"/>
        <path id="path5520-5-4-4-7-8" data-name="path5520-5-4-4-7" class="cls-12" d="M45.88,120.059l-.086-.745.66-.215.831.531.016,1.52-.833.416-.573-.087-.016-.673Z"/>
        <path id="path5524-3-1-7-8" data-name="path5524-3-1-7" class="cls-17" d="M45.563,119.456a4.327,4.327,0,0,0-.094.818,3.191,3.191,0,0,0,.067.646l.912-.187a2.436,2.436,0,0,1-.044-.459,2.147,2.147,0,0,1,.063-.53Zm1.124-.28a2.278,2.278,0,0,1,1.984-1.162,2.113,2.113,0,0,1,.42.041l.2-.908a3.346,3.346,0,0,0-.623-.06,3.2,3.2,0,0,0-2.85,1.739Z"/>
        <path id="path5526-5-7-7-7-8" data-name="path5526-5-7-7-7" class="cls-18" d="M50.581,122.025l.818.273a3.335,3.335,0,0,1-2.211,1.213l.217-.675A2.321,2.321,0,0,0,50.581,122.025Z"/>
        <circle id="color_circle1_2_-4-0-7-8" data-name="color circle1 2 -4-0-7" class="cls-19" cx="48.039" cy="120.276" r="0.182"/>
        <path id="rect6691-4-0-7-8" data-name="rect6691-4-0-7" class="cls-20" d="M50.4,122h0a.373.373,0,0,0-.372-.373h0a.373.373,0,0,0-.373.372h0a.373.373,0,0,0,.371.374h0a.375.375,0,0,0,.373-.373h0Z"/>
        <path id="rect6691-1-3-7-7-8" data-name="rect6691-1-3-7-7" class="cls-21" d="M50.431,119.02h0a.375.375,0,0,0-.373-.374h0a.374.374,0,0,0-.374.374h0a.376.376,0,0,0,.374.373h0a.373.373,0,0,0,.373-.373Z"/>
        <path id="rect6691-0-1-0-7-8" data-name="rect6691-0-1-0-7" class="cls-22" d="M47.937,120.536h0a.371.371,0,0,0-.371-.373h0a.374.374,0,0,0-.373.373h0a.376.376,0,0,0,.373.374h0a.375.375,0,0,0,.374-.373h0Z"/>
        <ellipse id="color_circle2_2_-5-0-7-8" data-name="color circle2 2 -5-0-7" class="cls-23" cx="48.829" cy="120.521" rx="3.515" ry="3.53"/>
      </g>
      <g id="g13494-6-7-9" data-name="g13494-6-7">
        <rect id="pin5_2-0-5-7-9" data-name="pin5 2-0-5-7" class="cls-12" x="42.382" y="86.777" width="1.787" height="2.479"/>
        <rect id="pin3_2-1-4-7-9" data-name="pin3 2-1-4-7" class="cls-12" x="42.412" y="79.792" width="1.729" height="2.478"/>
        <rect id="pin2_2-5-5-1-7-9" data-name="pin2 2-5-5-1-7" class="cls-12" x="53.51" y="86.836" width="1.876" height="2.479"/>
        <rect id="pin0_2-7-8-4-7-9" data-name="pin0 2-7-8-4-7" class="cls-12" x="53.501" y="79.792" width="1.843" height="2.478"/>
        <polygon id="polygon5502-7-3-8-7-9" data-name="polygon5502-7-3-8-7" class="cls-13" points="54.146 80.096 54.146 89.676 44.388 89.677 43.929 89.281 53.686 89.279 53.686 79.698 54.146 80.096"/>
        <rect id="rect5504-2-6-4-7-9" data-name="rect5504-2-6-4-7" class="cls-14" x="43.91" y="79.745" width="9.75" height="9.494"/>
        <ellipse id="ellipse5506-7-5-7-9" data-name="ellipse5506-7-5-7" class="cls-15" cx="48.802" cy="84.471" rx="3.499" ry="3.531"/>
        <circle id="circle5508-3-6-7-9" data-name="circle5508-3-6-7" class="cls-16" cx="48.759" cy="84.404" r="2.454" transform="translate(-36.244 132.111) rotate(-89.288)"/>
        <polygon id="polygon5510-4-5-4-7-9" data-name="polygon5510-4-5-4-7" class="cls-12" points="49.48 85.114 49.079 85.522 48.637 85.343 48.444 85.095 48.142 85.136 47.702 85.078 47.67 84.375 47.702 83.687 48.444 83.407 49.035 82.942 49.451 83.279 49.842 83.741 50.617 83.76 51.444 83.615 51.734 83.072 51.846 83.286 52.036 84.19 51.918 85.494 51.616 85.214 51.373 84.792 50.595 84.805 49.853 84.792 49.48 85.114"/>
        <path id="path5512-3-1-2-7-9" data-name="path5512-3-1-2-7" class="cls-12" d="M49.358,81.261l-.039,1.348.645.716,1.348-.071.086-.846-1.49-1.133Zm.267.832c0-.047.069-.089.138-.089s.133.054.131.1-.063.088-.139.088A.123.123,0,0,1,49.625,82.093Z"/>
        <path id="path5514-3-1-4-7-9" data-name="path5514-3-1-4-7" class="cls-12" d="M48.821,82.505l-.043-1.018-.489-.186-.874.289-.818.459-.559.7.789.043.688.545ZM47.717,82c.034-.109.107-.2.172-.176s.089.125.052.239-.105.191-.172.173-.086-.124-.052-.24Z"/>
        <path id="path5516-2-6-7-9" data-name="path5516-2-6-7" class="cls-12" d="M49.474,85.586l-.382.383.008.789.019.886.43-.056.5-.158.516-.259.416-.315.49-.5-.259-.4v-.732l-1.361-.015Zm.314.538a.253.253,0,0,1-.127-.027.106.106,0,0,1-.056-.081.116.116,0,0,1,.044-.088.2.2,0,0,1,.125-.043.193.193,0,0,1,.122.029.082.082,0,0,1,.055.077.1.1,0,0,1-.044.091.2.2,0,0,1-.119.042Z"/>
        <path id="path5518-9-9-7-9" data-name="path5518-9-9-7" class="cls-12" d="M48.189,87.618l.445.043.021-.835-.021-1.147-.473-.143-.574-.085-.373.515-.517.086-.544.057.544.746.617.459.388.158Zm0-1.277a.136.136,0,0,1,.095.039.08.08,0,0,1,.042.076.112.112,0,0,1-.038.084.149.149,0,0,1-.092.036.125.125,0,0,1-.1-.033.077.077,0,0,1-.041-.077.086.086,0,0,1,.038-.082.12.12,0,0,1,.093-.044Z"/>
        <path id="path5520-5-4-4-7-9" data-name="path5520-5-4-4-7" class="cls-12" d="M45.88,84.059l-.086-.745.66-.215.831.531.016,1.52-.833.416-.573-.087-.016-.673Z"/>
        <path id="path5524-3-1-7-9" data-name="path5524-3-1-7" class="cls-17" d="M45.563,83.456a4.327,4.327,0,0,0-.094.818,3.191,3.191,0,0,0,.067.646l.912-.187a2.436,2.436,0,0,1-.044-.459,2.147,2.147,0,0,1,.063-.53Zm1.124-.28a2.278,2.278,0,0,1,1.984-1.162,2.113,2.113,0,0,1,.42.041l.2-.908a3.346,3.346,0,0,0-.623-.06,3.2,3.2,0,0,0-2.85,1.739Z"/>
        <path id="path5526-5-7-7-7-9" data-name="path5526-5-7-7-7" class="cls-18" d="M50.581,86.025l.818.273a3.335,3.335,0,0,1-2.211,1.213l.217-.675A2.321,2.321,0,0,0,50.581,86.025Z"/>
        <circle id="color_circle1_2_-4-0-7-9" data-name="color circle1 2 -4-0-7" class="cls-19" cx="48.039" cy="84.276" r="0.182"/>
        <path id="rect6691-4-0-7-9" data-name="rect6691-4-0-7" class="cls-20" d="M50.4,86h0a.373.373,0,0,0-.372-.373h0a.373.373,0,0,0-.373.372h0a.373.373,0,0,0,.371.374h0A.375.375,0,0,0,50.393,86h0Z"/>
        <path id="rect6691-1-3-7-7-9" data-name="rect6691-1-3-7-7" class="cls-21" d="M50.431,83.02h0a.375.375,0,0,0-.373-.374h0a.374.374,0,0,0-.374.374h0a.376.376,0,0,0,.374.373h0a.373.373,0,0,0,.373-.373Z"/>
        <path id="rect6691-0-1-0-7-9" data-name="rect6691-0-1-0-7" class="cls-22" d="M47.937,84.536h0a.371.371,0,0,0-.371-.373h0a.374.374,0,0,0-.373.373h0a.376.376,0,0,0,.373.374h0a.375.375,0,0,0,.374-.374h0Z"/>
        <ellipse id="color_circle2_2_-5-0-7-9" data-name="color circle2 2 -5-0-7" class="cls-23" cx="48.829" cy="84.521" rx="3.515" ry="3.53"/>
      </g>
      <g id="g13494-6-7-10" data-name="g13494-6-7">
        <rect id="pin5_2-0-5-7-10" data-name="pin5 2-0-5-7" class="cls-12" x="58.182" y="122.777" width="1.787" height="2.479"/>
        <rect id="pin3_2-1-4-7-10" data-name="pin3 2-1-4-7" class="cls-12" x="58.212" y="115.792" width="1.729" height="2.478"/>
        <rect id="pin2_2-5-5-1-7-10" data-name="pin2 2-5-5-1-7" class="cls-12" x="69.31" y="122.836" width="1.876" height="2.479"/>
        <rect id="pin0_2-7-8-4-7-10" data-name="pin0 2-7-8-4-7" class="cls-12" x="69.301" y="115.792" width="1.843" height="2.478"/>
        <polygon id="polygon5502-7-3-8-7-10" data-name="polygon5502-7-3-8-7" class="cls-13" points="69.946 116.096 69.946 125.676 60.188 125.677 59.729 125.281 69.486 125.279 69.486 115.698 69.946 116.096"/>
        <rect id="rect5504-2-6-4-7-10" data-name="rect5504-2-6-4-7" class="cls-14" x="59.71" y="115.745" width="9.75" height="9.494"/>
        <ellipse id="ellipse5506-7-5-7-10" data-name="ellipse5506-7-5-7" class="cls-15" cx="64.602" cy="120.471" rx="3.499" ry="3.531"/>
        <circle id="circle5508-3-6-7-10" data-name="circle5508-3-6-7" class="cls-16" cx="64.559" cy="120.404" r="2.454" transform="translate(-56.638 183.463) rotate(-89.288)"/>
        <polygon id="polygon5510-4-5-4-7-10" data-name="polygon5510-4-5-4-7" class="cls-12" points="65.28 121.115 64.879 121.522 64.437 121.343 64.244 121.095 63.942 121.136 63.502 121.078 63.47 120.375 63.502 119.687 64.244 119.407 64.835 118.942 65.251 119.279 65.642 119.741 66.417 119.76 67.244 119.615 67.534 119.072 67.646 119.286 67.836 120.19 67.718 121.494 67.416 121.214 67.173 120.792 66.395 120.805 65.653 120.792 65.28 121.115"/>
        <path id="path5512-3-1-2-7-10" data-name="path5512-3-1-2-7" class="cls-12" d="M65.158,117.261l-.039,1.348.645.716,1.348-.071.086-.846-1.49-1.133Zm.267.832c0-.047.07-.089.138-.089s.133.054.131.1-.063.088-.139.088A.123.123,0,0,1,65.425,118.093Z"/>
        <path id="path5514-3-1-4-7-10" data-name="path5514-3-1-4-7" class="cls-12" d="M64.621,118.505l-.043-1.018-.489-.186-.874.289-.818.459-.559.7.789.043.688.545Zm-1.1-.509c.034-.109.107-.2.172-.176s.089.125.052.239-.1.192-.172.173-.086-.124-.052-.24Z"/>
        <path id="path5516-2-6-7-10" data-name="path5516-2-6-7" class="cls-12" d="M65.274,121.586l-.382.383.008.789.019.886.43-.056.5-.158.516-.259.416-.315.49-.5-.259-.4v-.732l-1.361-.015Zm.314.538a.253.253,0,0,1-.127-.027.106.106,0,0,1-.056-.081.116.116,0,0,1,.044-.088.2.2,0,0,1,.125-.043.193.193,0,0,1,.122.029.082.082,0,0,1,.055.077.1.1,0,0,1-.044.091.2.2,0,0,1-.119.042Z"/>
        <path id="path5518-9-9-7-10" data-name="path5518-9-9-7" class="cls-12" d="M63.989,123.618l.445.043.021-.835-.021-1.147-.473-.143-.574-.085-.373.515-.517.086-.544.057.544.746.617.459.388.158Zm0-1.277a.136.136,0,0,1,.095.039.08.08,0,0,1,.042.076.112.112,0,0,1-.038.084.149.149,0,0,1-.092.036.121.121,0,0,1-.1-.033.077.077,0,0,1-.041-.077.086.086,0,0,1,.038-.082.12.12,0,0,1,.093-.044Z"/>
        <path id="path5520-5-4-4-7-10" data-name="path5520-5-4-4-7" class="cls-12" d="M61.68,120.059l-.086-.745.66-.215.831.531.016,1.52-.833.416-.573-.087-.016-.673Z"/>
        <path id="path5524-3-1-7-10" data-name="path5524-3-1-7" class="cls-17" d="M61.363,119.456a4.327,4.327,0,0,0-.094.818,3.191,3.191,0,0,0,.067.646l.912-.187a2.436,2.436,0,0,1-.044-.459,2.147,2.147,0,0,1,.063-.53Zm1.124-.28a2.278,2.278,0,0,1,1.984-1.162,2.113,2.113,0,0,1,.42.041l.2-.908a3.346,3.346,0,0,0-.623-.06,3.2,3.2,0,0,0-2.85,1.739Z"/>
        <path id="path5526-5-7-7-7-10" data-name="path5526-5-7-7-7" class="cls-18" d="M66.381,122.025l.818.273a3.335,3.335,0,0,1-2.211,1.213l.217-.675A2.321,2.321,0,0,0,66.381,122.025Z"/>
        <circle id="color_circle1_2_-4-0-7-10" data-name="color circle1 2 -4-0-7" class="cls-19" cx="63.839" cy="120.276" r="0.182"/>
        <path id="rect6691-4-0-7-10" data-name="rect6691-4-0-7" class="cls-20" d="M66.2,122h0a.373.373,0,0,0-.372-.373h0a.373.373,0,0,0-.373.372h0a.373.373,0,0,0,.371.374h0a.375.375,0,0,0,.373-.373h0Z"/>
        <path id="rect6691-1-3-7-7-10" data-name="rect6691-1-3-7-7" class="cls-21" d="M66.231,119.02h0a.375.375,0,0,0-.373-.374h0a.374.374,0,0,0-.374.374h0a.376.376,0,0,0,.374.373h0a.373.373,0,0,0,.373-.373Z"/>
        <path id="rect6691-0-1-0-7-10" data-name="rect6691-0-1-0-7" class="cls-22" d="M63.737,120.536h0a.371.371,0,0,0-.371-.373h0a.374.374,0,0,0-.373.373h0a.376.376,0,0,0,.373.374h0a.375.375,0,0,0,.374-.373h0Z"/>
        <ellipse id="color_circle2_2_-5-0-7-10" data-name="color circle2 2 -5-0-7" class="cls-23" cx="64.629" cy="120.521" rx="3.515" ry="3.53"/>
      </g>
      <g id="g13494-6-7-11" data-name="g13494-6-7">
        <rect id="pin5_2-0-5-7-11" data-name="pin5 2-0-5-7" class="cls-12" x="58.182" y="86.777" width="1.787" height="2.479"/>
        <rect id="pin3_2-1-4-7-11" data-name="pin3 2-1-4-7" class="cls-12" x="58.212" y="79.792" width="1.729" height="2.478"/>
        <rect id="pin2_2-5-5-1-7-11" data-name="pin2 2-5-5-1-7" class="cls-12" x="69.31" y="86.836" width="1.876" height="2.479"/>
        <rect id="pin0_2-7-8-4-7-11" data-name="pin0 2-7-8-4-7" class="cls-12" x="69.301" y="79.792" width="1.843" height="2.478"/>
        <polygon id="polygon5502-7-3-8-7-11" data-name="polygon5502-7-3-8-7" class="cls-13" points="69.946 80.096 69.946 89.676 60.188 89.677 59.729 89.281 69.486 89.279 69.486 79.698 69.946 80.096"/>
        <rect id="rect5504-2-6-4-7-11" data-name="rect5504-2-6-4-7" class="cls-14" x="59.71" y="79.745" width="9.75" height="9.494"/>
        <ellipse id="ellipse5506-7-5-7-11" data-name="ellipse5506-7-5-7" class="cls-15" cx="64.602" cy="84.471" rx="3.499" ry="3.531"/>
        <circle id="circle5508-3-6-7-11" data-name="circle5508-3-6-7" class="cls-16" cx="64.559" cy="84.404" r="2.454" transform="translate(-20.641 147.91) rotate(-89.288)"/>
        <polygon id="polygon5510-4-5-4-7-11" data-name="polygon5510-4-5-4-7" class="cls-12" points="65.28 85.114 64.879 85.522 64.437 85.343 64.244 85.095 63.942 85.136 63.502 85.078 63.47 84.375 63.502 83.687 64.244 83.407 64.835 82.942 65.251 83.279 65.642 83.741 66.417 83.76 67.244 83.615 67.534 83.072 67.646 83.286 67.836 84.19 67.718 85.494 67.416 85.214 67.173 84.792 66.395 84.805 65.653 84.792 65.28 85.114"/>
        <path id="path5512-3-1-2-7-11" data-name="path5512-3-1-2-7" class="cls-12" d="M65.158,81.261l-.039,1.348.645.716,1.348-.071.086-.846-1.49-1.133Zm.267.832c0-.047.07-.089.138-.089s.133.054.131.1-.063.088-.139.088A.123.123,0,0,1,65.425,82.093Z"/>
        <path id="path5514-3-1-4-7-11" data-name="path5514-3-1-4-7" class="cls-12" d="M64.621,82.505l-.043-1.018-.489-.186-.874.289-.818.459-.559.7.789.043.688.545ZM63.517,82c.034-.109.107-.2.172-.176s.089.125.052.239-.1.191-.172.173-.086-.124-.052-.24Z"/>
        <path id="path5516-2-6-7-11" data-name="path5516-2-6-7" class="cls-12" d="M65.274,85.586l-.382.383.008.789.019.886.43-.056.5-.158.516-.259.416-.315.49-.5-.259-.4v-.732l-1.361-.015Zm.314.538a.253.253,0,0,1-.127-.027.106.106,0,0,1-.056-.081.116.116,0,0,1,.044-.088.2.2,0,0,1,.125-.043.193.193,0,0,1,.122.029.082.082,0,0,1,.055.077.1.1,0,0,1-.044.091.2.2,0,0,1-.119.042Z"/>
        <path id="path5518-9-9-7-11" data-name="path5518-9-9-7" class="cls-12" d="M63.989,87.618l.445.043.021-.835-.021-1.147-.473-.143-.574-.085-.373.515-.517.086-.544.057.544.746.617.459.388.158Zm0-1.277a.136.136,0,0,1,.095.039.08.08,0,0,1,.042.076.112.112,0,0,1-.038.084.149.149,0,0,1-.092.036.125.125,0,0,1-.1-.033.077.077,0,0,1-.041-.077.086.086,0,0,1,.038-.082.12.12,0,0,1,.093-.044Z"/>
        <path id="path5520-5-4-4-7-11" data-name="path5520-5-4-4-7" class="cls-12" d="M61.68,84.059l-.086-.745.66-.215.831.531.016,1.52-.833.416-.573-.087-.016-.673Z"/>
        <path id="path5524-3-1-7-11" data-name="path5524-3-1-7" class="cls-17" d="M61.363,83.456a4.327,4.327,0,0,0-.094.818,3.191,3.191,0,0,0,.067.646l.912-.187a2.436,2.436,0,0,1-.044-.459,2.147,2.147,0,0,1,.063-.53Zm1.124-.28a2.278,2.278,0,0,1,1.984-1.162,2.113,2.113,0,0,1,.42.041l.2-.908a3.346,3.346,0,0,0-.623-.06,3.2,3.2,0,0,0-2.85,1.739Z"/>
        <path id="path5526-5-7-7-7-11" data-name="path5526-5-7-7-7" class="cls-18" d="M66.381,86.025l.818.273a3.335,3.335,0,0,1-2.211,1.213l.217-.675A2.321,2.321,0,0,0,66.381,86.025Z"/>
        <circle id="color_circle1_2_-4-0-7-11" data-name="color circle1 2 -4-0-7" class="cls-19" cx="63.839" cy="84.276" r="0.182"/>
        <path id="rect6691-4-0-7-11" data-name="rect6691-4-0-7" class="cls-20" d="M66.2,86h0a.373.373,0,0,0-.372-.373h0a.373.373,0,0,0-.373.372h0a.373.373,0,0,0,.371.374h0A.375.375,0,0,0,66.193,86h0Z"/>
        <path id="rect6691-1-3-7-7-11" data-name="rect6691-1-3-7-7" class="cls-21" d="M66.231,83.02h0a.375.375,0,0,0-.373-.374h0a.374.374,0,0,0-.374.374h0a.376.376,0,0,0,.374.373h0a.373.373,0,0,0,.373-.373Z"/>
        <path id="rect6691-0-1-0-7-11" data-name="rect6691-0-1-0-7" class="cls-22" d="M63.737,84.536h0a.371.371,0,0,0-.371-.373h0a.374.374,0,0,0-.373.373h0a.376.376,0,0,0,.373.374h0a.375.375,0,0,0,.374-.374h0Z"/>
        <ellipse id="color_circle2_2_-5-0-7-11" data-name="color circle2 2 -5-0-7" class="cls-23" cx="64.629" cy="84.521" rx="3.515" ry="3.53"/>
      </g>
      <g id="g13494-6-7-12" data-name="g13494-6-7">
        <rect id="pin5_2-0-5-7-12" data-name="pin5 2-0-5-7" class="cls-12" x="58.182" y="105.097" width="1.787" height="2.479"/>
        <rect id="pin3_2-1-4-7-12" data-name="pin3 2-1-4-7" class="cls-12" x="58.212" y="98.113" width="1.729" height="2.478"/>
        <rect id="pin2_2-5-5-1-7-12" data-name="pin2 2-5-5-1-7" class="cls-12" x="69.31" y="105.156" width="1.876" height="2.479"/>
        <rect id="pin0_2-7-8-4-7-12" data-name="pin0 2-7-8-4-7" class="cls-12" x="69.301" y="98.113" width="1.843" height="2.478"/>
        <polygon id="polygon5502-7-3-8-7-12" data-name="polygon5502-7-3-8-7" class="cls-13" points="69.946 98.416 69.946 107.996 60.188 107.997 59.729 107.601 69.486 107.599 69.486 98.019 69.946 98.416"/>
        <rect id="rect5504-2-6-4-7-12" data-name="rect5504-2-6-4-7" class="cls-14" x="59.71" y="98.065" width="9.75" height="9.494"/>
        <ellipse id="ellipse5506-7-5-7-12" data-name="ellipse5506-7-5-7" class="cls-15" cx="64.602" cy="102.791" rx="3.499" ry="3.531"/>
        <circle id="circle5508-3-6-7-12" data-name="circle5508-3-6-7" class="cls-16" cx="64.559" cy="102.725" r="2.454" transform="translate(-38.959 166.002) rotate(-89.288)"/>
        <polygon id="polygon5510-4-5-4-7-12" data-name="polygon5510-4-5-4-7" class="cls-12" points="65.28 103.435 64.879 103.842 64.437 103.663 64.244 103.415 63.942 103.456 63.502 103.398 63.47 102.695 63.502 102.007 64.244 101.727 64.835 101.262 65.251 101.599 65.642 102.062 66.417 102.08 67.244 101.935 67.534 101.392 67.646 101.606 67.836 102.51 67.718 103.814 67.416 103.534 67.173 103.112 66.395 103.125 65.653 103.112 65.28 103.435"/>
        <path id="path5512-3-1-2-7-12" data-name="path5512-3-1-2-7" class="cls-12" d="M65.158,99.581l-.039,1.348.645.717,1.348-.072.086-.846L65.708,99.6Zm.267.832c0-.046.07-.089.138-.089s.133.054.131.1-.063.089-.139.089A.125.125,0,0,1,65.425,100.413Z"/>
        <path id="path5514-3-1-4-7-12" data-name="path5514-3-1-4-7" class="cls-12" d="M64.621,100.825l-.043-1.017-.489-.187-.874.289-.818.459-.559.7.789.043.688.545Zm-1.1-.509c.034-.109.107-.2.172-.176s.089.125.052.239-.1.192-.172.173-.086-.124-.052-.24Z"/>
        <path id="path5516-2-6-7-12" data-name="path5516-2-6-7" class="cls-12" d="M65.274,103.906l-.382.383.008.789.019.887.43-.057.5-.158.516-.259.416-.315.49-.5-.259-.4v-.732l-1.361-.015Zm.314.538a.253.253,0,0,1-.127-.027.1.1,0,0,1-.056-.081.118.118,0,0,1,.044-.088.21.21,0,0,1,.125-.043.193.193,0,0,1,.122.029.082.082,0,0,1,.055.077.1.1,0,0,1-.044.091.213.213,0,0,1-.119.043Z"/>
        <path id="path5518-9-9-7-12" data-name="path5518-9-9-7" class="cls-12" d="M63.989,105.938l.445.043.021-.835L64.434,104l-.473-.143-.574-.085-.373.515-.517.086-.544.057.544.747.617.458.388.158Zm0-1.277a.136.136,0,0,1,.095.039.08.08,0,0,1,.042.076.112.112,0,0,1-.038.084A.149.149,0,0,1,64,104.9a.121.121,0,0,1-.1-.033.077.077,0,0,1-.041-.077.086.086,0,0,1,.038-.082.12.12,0,0,1,.093-.044Z"/>
        <path id="path5520-5-4-4-7-12" data-name="path5520-5-4-4-7" class="cls-12" d="M61.68,102.38l-.086-.746.66-.215.831.531.016,1.52-.833.416L61.7,103.8l-.016-.673Z"/>
        <path id="path5524-3-1-7-12" data-name="path5524-3-1-7" class="cls-17" d="M61.363,101.776a4.327,4.327,0,0,0-.094.818,3.191,3.191,0,0,0,.067.646l.912-.187a2.436,2.436,0,0,1-.044-.459,2.153,2.153,0,0,1,.063-.53Zm1.124-.28a2.278,2.278,0,0,1,1.984-1.162,2.113,2.113,0,0,1,.42.041l.2-.908a3.433,3.433,0,0,0-.623-.06,3.2,3.2,0,0,0-2.85,1.739Z"/>
        <path id="path5526-5-7-7-7-12" data-name="path5526-5-7-7-7" class="cls-18" d="M66.381,104.345l.818.273a3.337,3.337,0,0,1-2.211,1.214l.217-.676A2.321,2.321,0,0,0,66.381,104.345Z"/>
        <circle id="color_circle1_2_-4-0-7-12" data-name="color circle1 2 -4-0-7" class="cls-19" cx="63.839" cy="102.596" r="0.182"/>
        <path id="rect6691-4-0-7-12" data-name="rect6691-4-0-7" class="cls-20" d="M66.2,104.322h0a.374.374,0,0,0-.372-.374h0a.373.373,0,0,0-.373.372h0a.373.373,0,0,0,.371.374h0a.375.375,0,0,0,.373-.373h0Z"/>
        <path id="rect6691-1-3-7-7-12" data-name="rect6691-1-3-7-7" class="cls-21" d="M66.231,101.34h0a.375.375,0,0,0-.373-.374h0a.374.374,0,0,0-.374.374h0a.375.375,0,0,0,.374.373h0a.372.372,0,0,0,.373-.372h0Z"/>
        <path id="rect6691-0-1-0-7-12" data-name="rect6691-0-1-0-7" class="cls-22" d="M63.737,102.856h0a.371.371,0,0,0-.371-.373h0a.374.374,0,0,0-.373.373h0a.375.375,0,0,0,.373.374h0a.375.375,0,0,0,.374-.373h0Z"/>
        <ellipse id="color_circle2_2_-5-0-7-12" data-name="color circle2 2 -5-0-7" class="cls-23" cx="64.629" cy="102.841" rx="3.515" ry="3.53"/>
      </g>
      <g id="g13494-6-7-13" data-name="g13494-6-7">
        <rect id="pin5_2-0-5-7-13" data-name="pin5 2-0-5-7" class="cls-12" x="73.982" y="105.097" width="1.787" height="2.479"/>
        <rect id="pin3_2-1-4-7-13" data-name="pin3 2-1-4-7" class="cls-12" x="74.012" y="98.113" width="1.729" height="2.478"/>
        <rect id="pin2_2-5-5-1-7-13" data-name="pin2 2-5-5-1-7" class="cls-12" x="85.11" y="105.156" width="1.876" height="2.479"/>
        <rect id="pin0_2-7-8-4-7-13" data-name="pin0 2-7-8-4-7" class="cls-12" x="85.101" y="98.113" width="1.843" height="2.478"/>
        <polygon id="polygon5502-7-3-8-7-13" data-name="polygon5502-7-3-8-7" class="cls-13" points="85.746 98.416 85.746 107.996 75.989 107.997 75.529 107.601 85.286 107.599 85.286 98.019 85.746 98.416"/>
        <rect id="rect5504-2-6-4-7-13" data-name="rect5504-2-6-4-7" class="cls-14" x="75.51" y="98.065" width="9.75" height="9.494"/>
        <ellipse id="ellipse5506-7-5-7-13" data-name="ellipse5506-7-5-7" class="cls-15" cx="80.402" cy="102.791" rx="3.499" ry="3.531"/>
        <circle id="circle5508-3-6-7-13" data-name="circle5508-3-6-7" class="cls-16" cx="80.359" cy="102.725" r="2.454" transform="translate(-23.356 181.801) rotate(-89.288)"/>
        <polygon id="polygon5510-4-5-4-7-13" data-name="polygon5510-4-5-4-7" class="cls-12" points="81.08 103.435 80.679 103.842 80.237 103.663 80.044 103.415 79.742 103.456 79.302 103.398 79.27 102.695 79.302 102.007 80.044 101.727 80.635 101.262 81.051 101.599 81.442 102.062 82.217 102.08 83.044 101.935 83.334 101.392 83.446 101.606 83.636 102.51 83.518 103.814 83.216 103.534 82.973 103.112 82.195 103.125 81.453 103.112 81.08 103.435"/>
        <path id="path5512-3-1-2-7-13" data-name="path5512-3-1-2-7" class="cls-12" d="M80.958,99.581l-.039,1.348.645.717,1.348-.072.086-.846L81.508,99.6Zm.267.832c0-.046.07-.089.138-.089s.133.054.131.1-.063.089-.139.089A.125.125,0,0,1,81.225,100.413Z"/>
        <path id="path5514-3-1-4-7-13" data-name="path5514-3-1-4-7" class="cls-12" d="M80.421,100.825l-.043-1.017-.489-.187-.874.289-.818.459-.559.7.789.043.688.545Zm-1.1-.509c.034-.109.107-.2.172-.176s.089.125.052.239-.1.192-.172.173-.086-.124-.052-.24Z"/>
        <path id="path5516-2-6-7-13" data-name="path5516-2-6-7" class="cls-12" d="M81.074,103.906l-.382.383.008.789.019.887.43-.057.5-.158.516-.259.416-.315.49-.5-.259-.4v-.732l-1.361-.015Zm.314.538a.253.253,0,0,1-.127-.027.1.1,0,0,1-.056-.081.118.118,0,0,1,.044-.088.21.21,0,0,1,.125-.043.193.193,0,0,1,.122.029.082.082,0,0,1,.055.077.1.1,0,0,1-.044.091.213.213,0,0,1-.119.043Z"/>
        <path id="path5518-9-9-7-13" data-name="path5518-9-9-7" class="cls-12" d="M79.789,105.938l.445.043.021-.835L80.234,104l-.473-.143-.574-.085-.373.515-.517.086-.544.057.544.747.617.458.388.158Zm0-1.277a.136.136,0,0,1,.095.039.08.08,0,0,1,.042.076.112.112,0,0,1-.038.084.149.149,0,0,1-.092.036.121.121,0,0,1-.1-.033.077.077,0,0,1-.041-.077.086.086,0,0,1,.038-.082.12.12,0,0,1,.093-.044Z"/>
        <path id="path5520-5-4-4-7-13" data-name="path5520-5-4-4-7" class="cls-12" d="M77.48,102.38l-.086-.746.66-.215.831.531.016,1.52-.833.416L77.5,103.8l-.016-.673Z"/>
        <path id="path5524-3-1-7-13" data-name="path5524-3-1-7" class="cls-17" d="M77.163,101.776a4.327,4.327,0,0,0-.094.818,3.191,3.191,0,0,0,.067.646l.912-.187a2.436,2.436,0,0,1-.044-.459,2.153,2.153,0,0,1,.063-.53Zm1.124-.28a2.278,2.278,0,0,1,1.984-1.162,2.113,2.113,0,0,1,.42.041l.2-.908a3.433,3.433,0,0,0-.623-.06,3.2,3.2,0,0,0-2.85,1.739Z"/>
        <path id="path5526-5-7-7-7-13" data-name="path5526-5-7-7-7" class="cls-18" d="M82.181,104.345l.818.273a3.337,3.337,0,0,1-2.211,1.214l.217-.676A2.321,2.321,0,0,0,82.181,104.345Z"/>
        <circle id="color_circle1_2_-4-0-7-13" data-name="color circle1 2 -4-0-7" class="cls-19" cx="79.639" cy="102.596" r="0.182"/>
        <path id="rect6691-4-0-7-13" data-name="rect6691-4-0-7" class="cls-20" d="M82,104.322h0a.374.374,0,0,0-.372-.374h0a.373.373,0,0,0-.373.372h0a.373.373,0,0,0,.371.374h0a.375.375,0,0,0,.373-.373h0Z"/>
        <path id="rect6691-1-3-7-7-13" data-name="rect6691-1-3-7-7" class="cls-21" d="M82.031,101.34h0a.375.375,0,0,0-.373-.374h0a.374.374,0,0,0-.374.374h0a.375.375,0,0,0,.374.373h0a.372.372,0,0,0,.373-.372h0Z"/>
        <path id="rect6691-0-1-0-7-13" data-name="rect6691-0-1-0-7" class="cls-22" d="M79.538,102.856h0a.372.372,0,0,0-.372-.373h0a.374.374,0,0,0-.373.373h0a.375.375,0,0,0,.373.374h0a.375.375,0,0,0,.374-.373h0Z"/>
        <ellipse id="color_circle2_2_-5-0-7-13" data-name="color circle2 2 -5-0-7" class="cls-23" cx="80.429" cy="102.841" rx="3.515" ry="3.53"/>
      </g>
      <g id="g13494-6-7-14" data-name="g13494-6-7">
        <rect id="pin5_2-0-5-7-14" data-name="pin5 2-0-5-7" class="cls-12" x="73.849" y="116.661" width="1.787" height="2.479"/>
        <rect id="pin3_2-1-4-7-14" data-name="pin3 2-1-4-7" class="cls-12" x="73.879" y="109.677" width="1.729" height="2.478"/>
        <rect id="pin2_2-5-5-1-7-14" data-name="pin2 2-5-5-1-7" class="cls-12" x="84.976" y="116.72" width="1.876" height="2.479"/>
        <rect id="pin0_2-7-8-4-7-14" data-name="pin0 2-7-8-4-7" class="cls-12" x="84.968" y="109.677" width="1.843" height="2.478"/>
        <polygon id="polygon5502-7-3-8-7-14" data-name="polygon5502-7-3-8-7" class="cls-13" points="85.612 109.98 85.612 119.56 75.855 119.562 75.396 119.165 85.153 119.163 85.153 109.583 85.612 109.98"/>
        <rect id="rect5504-2-6-4-7-14" data-name="rect5504-2-6-4-7" class="cls-14" x="75.377" y="109.629" width="9.75" height="9.494"/>
        <ellipse id="ellipse5506-7-5-7-14" data-name="ellipse5506-7-5-7" class="cls-15" cx="80.269" cy="114.355" rx="3.499" ry="3.531"/>
        <circle id="circle5508-3-6-7-14" data-name="circle5508-3-6-7" class="cls-16" cx="80.226" cy="114.289" r="2.454" transform="translate(-35.051 193.088) rotate(-89.288)"/>
        <polygon id="polygon5510-4-5-4-7-14" data-name="polygon5510-4-5-4-7" class="cls-12" points="80.946 114.999 80.546 115.406 80.104 115.227 79.911 114.979 79.609 115.02 79.169 114.962 79.137 114.259 79.169 113.571 79.911 113.291 80.501 112.826 80.918 113.163 81.309 113.626 82.083 113.644 82.91 113.499 83.201 112.956 83.313 113.17 83.503 114.074 83.384 115.378 83.082 115.098 82.84 114.676 82.062 114.689 81.319 114.676 80.946 114.999"/>
        <path id="path5512-3-1-2-7-14" data-name="path5512-3-1-2-7" class="cls-12" d="M80.825,111.145l-.039,1.348.645.717,1.348-.072.086-.846-1.491-1.133Zm.267.832c0-.046.069-.089.138-.089s.132.054.131.1-.063.089-.139.089A.124.124,0,0,1,81.092,111.977Z"/>
        <path id="path5514-3-1-4-7-14" data-name="path5514-3-1-4-7" class="cls-12" d="M80.287,112.389l-.043-1.017-.488-.187-.874.289-.818.459-.56.7.789.043.688.545Zm-1.1-.509c.035-.109.108-.2.172-.176s.09.125.053.239-.105.192-.173.173-.085-.124-.052-.24Z"/>
        <path id="path5516-2-6-7-14" data-name="path5516-2-6-7" class="cls-12" d="M80.941,115.47l-.382.383.007.789.019.887.431-.057.5-.157.517-.26.415-.315.49-.5-.258-.4v-.732l-1.362-.015Zm.314.538a.259.259,0,0,1-.128-.027.105.105,0,0,1-.055-.081.117.117,0,0,1,.043-.088.217.217,0,0,1,.126-.043.193.193,0,0,1,.122.029.085.085,0,0,1,.055.077.1.1,0,0,1-.044.091.216.216,0,0,1-.12.043Z"/>
        <path id="path5518-9-9-7-14" data-name="path5518-9-9-7" class="cls-12" d="M79.656,117.5l.445.043.021-.835-.021-1.147-.473-.143-.574-.085-.374.515-.516.086-.544.057.544.747.617.458.388.158Zm0-1.277a.138.138,0,0,1,.1.039.082.082,0,0,1,.042.076.112.112,0,0,1-.038.084.149.149,0,0,1-.092.036.12.12,0,0,1-.1-.033.077.077,0,0,1-.041-.077.086.086,0,0,1,.038-.082.12.12,0,0,1,.092-.044Z"/>
        <path id="path5520-5-4-4-7-14" data-name="path5520-5-4-4-7" class="cls-12" d="M77.347,113.944l-.086-.746.659-.215.832.531.015,1.52-.832.416-.574-.087-.015-.673Z"/>
        <path id="path5524-3-1-7-14" data-name="path5524-3-1-7" class="cls-17" d="M77.03,113.34a4.328,4.328,0,0,0-.095.818A3.184,3.184,0,0,0,77,114.8l.912-.187a2.357,2.357,0,0,1-.045-.459,2.2,2.2,0,0,1,.064-.53Zm1.124-.28a2.278,2.278,0,0,1,1.983-1.162,2.123,2.123,0,0,1,.421.041l.2-.908a3.425,3.425,0,0,0-.623-.06,3.2,3.2,0,0,0-2.849,1.739Z"/>
        <path id="path5526-5-7-7-7-14" data-name="path5526-5-7-7-7" class="cls-18" d="M82.048,115.909l.817.273a3.332,3.332,0,0,1-2.211,1.214l.218-.676A2.325,2.325,0,0,0,82.048,115.909Z"/>
        <circle id="color_circle1_2_-4-0-7-14" data-name="color circle1 2 -4-0-7" class="cls-19" cx="79.506" cy="114.16" r="0.182"/>
        <path id="rect6691-4-0-7-14" data-name="rect6691-4-0-7" class="cls-20" d="M81.862,115.886h0a.373.373,0,0,0-.371-.374h0a.373.373,0,0,0-.373.372h0a.372.372,0,0,0,.371.374h0a.374.374,0,0,0,.373-.373h0Z"/>
        <path id="rect6691-1-3-7-7-14" data-name="rect6691-1-3-7-7" class="cls-21" d="M81.9,112.9h0a.374.374,0,0,0-.372-.374h0a.374.374,0,0,0-.374.374h0a.375.375,0,0,0,.373.373h0a.373.373,0,0,0,.374-.372h0Z"/>
        <path id="rect6691-0-1-0-7-14" data-name="rect6691-0-1-0-7" class="cls-22" d="M79.4,114.42h0a.371.371,0,0,0-.371-.373h0a.373.373,0,0,0-.373.373h0a.375.375,0,0,0,.373.374h0a.375.375,0,0,0,.374-.373h0Z"/>
        <ellipse id="color_circle2_2_-5-0-7-14" data-name="color circle2 2 -5-0-7" class="cls-23" cx="80.296" cy="114.405" rx="3.515" ry="3.53"/>
      </g>
      <g id="g13494-6-7-15" data-name="g13494-6-7">
        <rect id="pin5_2-0-5-7-15" data-name="pin5 2-0-5-7" class="cls-12" x="89.782" y="105.097" width="1.787" height="2.479"/>
        <rect id="pin3_2-1-4-7-15" data-name="pin3 2-1-4-7" class="cls-12" x="89.812" y="98.113" width="1.729" height="2.478"/>
        <rect id="pin2_2-5-5-1-7-15" data-name="pin2 2-5-5-1-7" class="cls-12" x="100.91" y="105.156" width="1.876" height="2.479"/>
        <rect id="pin0_2-7-8-4-7-15" data-name="pin0 2-7-8-4-7" class="cls-12" x="100.901" y="98.113" width="1.843" height="2.478"/>
        <polygon id="polygon5502-7-3-8-7-15" data-name="polygon5502-7-3-8-7" class="cls-13" points="101.546 98.416 101.546 107.996 91.789 107.997 91.329 107.601 101.086 107.599 101.086 98.019 101.546 98.416"/>
        <rect id="rect5504-2-6-4-7-15" data-name="rect5504-2-6-4-7" class="cls-14" x="91.31" y="98.065" width="9.75" height="9.494"/>
        <ellipse id="ellipse5506-7-5-7-15" data-name="ellipse5506-7-5-7" class="cls-15" cx="96.202" cy="102.791" rx="3.499" ry="3.531"/>
        <circle id="circle5508-3-6-7-15" data-name="circle5508-3-6-7" class="cls-16" cx="96.159" cy="102.725" r="2.454" transform="translate(-7.752 197.6) rotate(-89.288)"/>
        <polygon id="polygon5510-4-5-4-7-15" data-name="polygon5510-4-5-4-7" class="cls-12" points="96.88 103.435 96.479 103.842 96.037 103.663 95.844 103.415 95.542 103.456 95.102 103.398 95.07 102.695 95.102 102.007 95.844 101.727 96.435 101.262 96.851 101.599 97.242 102.062 98.017 102.08 98.844 101.935 99.134 101.392 99.246 101.606 99.436 102.51 99.318 103.814 99.016 103.534 98.773 103.112 97.995 103.125 97.253 103.112 96.88 103.435"/>
        <path id="path5512-3-1-2-7-15" data-name="path5512-3-1-2-7" class="cls-12" d="M96.758,99.581l-.039,1.348.645.717,1.348-.072.086-.846L97.308,99.6Zm.267.832c0-.046.07-.089.138-.089s.133.054.131.1-.063.089-.139.089A.125.125,0,0,1,97.025,100.413Z"/>
        <path id="path5514-3-1-4-7-15" data-name="path5514-3-1-4-7" class="cls-12" d="M96.221,100.825l-.043-1.017-.489-.187-.874.289-.818.459-.559.7.789.043.688.545Zm-1.1-.509c.034-.109.107-.2.172-.176s.089.125.052.239-.1.192-.172.173-.086-.124-.052-.24Z"/>
        <path id="path5516-2-6-7-15" data-name="path5516-2-6-7" class="cls-12" d="M96.874,103.906l-.382.383.008.789.019.887.43-.057.5-.158.516-.259.416-.315.49-.5-.259-.4v-.732l-1.361-.015Zm.315.538a.255.255,0,0,1-.128-.027.1.1,0,0,1-.056-.081.118.118,0,0,1,.044-.088.21.21,0,0,1,.125-.043.193.193,0,0,1,.122.029.082.082,0,0,1,.055.077.1.1,0,0,1-.044.091.213.213,0,0,1-.119.043Z"/>
        <path id="path5518-9-9-7-15" data-name="path5518-9-9-7" class="cls-12" d="M95.589,105.938l.445.043.021-.835L96.034,104l-.473-.143-.574-.085-.373.515-.517.086-.544.057.544.747.617.458.388.158Zm0-1.277a.136.136,0,0,1,.1.039.08.08,0,0,1,.042.076.112.112,0,0,1-.038.084.149.149,0,0,1-.092.036.121.121,0,0,1-.1-.033.077.077,0,0,1-.041-.077.086.086,0,0,1,.038-.082.12.12,0,0,1,.093-.044Z"/>
        <path id="path5520-5-4-4-7-15" data-name="path5520-5-4-4-7" class="cls-12" d="M93.28,102.38l-.086-.746.66-.215.831.531.016,1.52-.833.416L93.3,103.8l-.016-.673Z"/>
        <path id="path5524-3-1-7-15" data-name="path5524-3-1-7" class="cls-17" d="M92.963,101.776a4.327,4.327,0,0,0-.094.818,3.191,3.191,0,0,0,.067.646l.912-.187a2.436,2.436,0,0,1-.044-.459,2.153,2.153,0,0,1,.063-.53Zm1.124-.28a2.278,2.278,0,0,1,1.984-1.162,2.113,2.113,0,0,1,.42.041l.2-.908a3.433,3.433,0,0,0-.623-.06,3.2,3.2,0,0,0-2.85,1.739Z"/>
        <path id="path5526-5-7-7-7-15" data-name="path5526-5-7-7-7" class="cls-18" d="M97.981,104.345l.818.273a3.337,3.337,0,0,1-2.211,1.214l.217-.676A2.321,2.321,0,0,0,97.981,104.345Z"/>
        <circle id="color_circle1_2_-4-0-7-15" data-name="color circle1 2 -4-0-7" class="cls-19" cx="95.439" cy="102.596" r="0.182"/>
        <path id="rect6691-4-0-7-15" data-name="rect6691-4-0-7" class="cls-20" d="M97.8,104.322h0a.374.374,0,0,0-.372-.374h0a.373.373,0,0,0-.373.372h0a.373.373,0,0,0,.371.374h0a.375.375,0,0,0,.373-.373h0Z"/>
        <path id="rect6691-1-3-7-7-15" data-name="rect6691-1-3-7-7" class="cls-21" d="M97.831,101.34h0a.375.375,0,0,0-.373-.374h0a.374.374,0,0,0-.374.374h0a.375.375,0,0,0,.374.373h0a.372.372,0,0,0,.373-.372h0Z"/>
        <path id="rect6691-0-1-0-7-15" data-name="rect6691-0-1-0-7" class="cls-22" d="M95.338,102.856h0a.372.372,0,0,0-.372-.373h0a.374.374,0,0,0-.373.373h0a.376.376,0,0,0,.373.374h0a.375.375,0,0,0,.374-.373h0Z"/>
        <ellipse id="color_circle2_2_-5-0-7-15" data-name="color circle2 2 -5-0-7" class="cls-23" cx="96.229" cy="102.841" rx="3.515" ry="3.53"/>
      </g>
    </g>
    <g>
      <g>
        <circle class="cls-24" cx="28.284" cy="49.662" r="13.314"/>
        <circle class="cls-25" cx="28.284" cy="49.662" r="16.318"/>
      </g>
      <g>
        <circle class="cls-24" cx="85.284" cy="49.662" r="13.314"/>
        <circle class="cls-25" cx="85.284" cy="49.662" r="16.318"/>
      </g>
      <g id="g13494-6-7-16" data-name="g13494-6-7">
        <rect id="pin5_2-0-5-7-16" data-name="pin5 2-0-5-7" class="cls-12" x="21.782" y="51.75" width="1.787" height="2.479"/>
        <rect id="pin3_2-1-4-7-16" data-name="pin3 2-1-4-7" class="cls-12" x="21.812" y="44.766" width="1.729" height="2.478"/>
        <rect id="pin2_2-5-5-1-7-16" data-name="pin2 2-5-5-1-7" class="cls-12" x="32.91" y="51.81" width="1.876" height="2.479"/>
        <rect id="pin0_2-7-8-4-7-16" data-name="pin0 2-7-8-4-7" class="cls-12" x="32.901" y="44.766" width="1.843" height="2.478"/>
        <polygon id="polygon5502-7-3-8-7-16" data-name="polygon5502-7-3-8-7" class="cls-13" points="33.546 45.07 33.546 54.65 23.788 54.651 23.329 54.254 33.086 54.253 33.086 44.672 33.546 45.07"/>
        <rect id="rect5504-2-6-4-7-16" data-name="rect5504-2-6-4-7" class="cls-14" x="23.31" y="44.719" width="9.75" height="9.494"/>
        <ellipse id="ellipse5506-7-5-7-16" data-name="ellipse5506-7-5-7" class="cls-15" cx="28.202" cy="49.444" rx="3.499" ry="3.531"/>
        <circle id="circle5508-3-6-7-16" data-name="circle5508-3-6-7" class="cls-16" cx="28.159" cy="49.378" r="2.454" transform="translate(-21.565 76.922) rotate(-89.288)"/>
        <polygon id="polygon5510-4-5-4-7-16" data-name="polygon5510-4-5-4-7" class="cls-12" points="28.88 50.088 28.479 50.496 28.037 50.317 27.844 50.068 27.542 50.11 27.102 50.052 27.07 49.349 27.102 48.661 27.844 48.381 28.435 47.915 28.851 48.253 29.242 48.715 30.016 48.733 30.844 48.589 31.134 48.045 31.246 48.259 31.436 49.164 31.318 50.467 31.016 50.188 30.773 49.766 29.995 49.779 29.253 49.766 28.88 50.088"/>
        <path id="path5512-3-1-2-7-16" data-name="path5512-3-1-2-7" class="cls-12" d="M28.758,46.235l-.039,1.348.645.716,1.348-.072.086-.845-1.49-1.133Zm.267.832c0-.047.069-.09.138-.09s.133.055.131.1-.063.089-.139.089A.124.124,0,0,1,29.025,47.067Z"/>
        <path id="path5514-3-1-4-7-16" data-name="path5514-3-1-4-7" class="cls-12" d="M28.221,47.479l-.043-1.018-.489-.186-.874.289L26,47.022l-.559.7.789.043.688.545Zm-1.1-.509c.034-.11.107-.2.172-.176s.089.124.052.238-.105.192-.172.174-.086-.124-.052-.24Z"/>
        <path id="path5516-2-6-7-16" data-name="path5516-2-6-7" class="cls-12" d="M28.874,50.56l-.382.382.008.789.019.887.43-.056.5-.158.516-.259.416-.315.49-.5-.259-.4V50.2l-1.361-.015Zm.314.537a.253.253,0,0,1-.127-.026.107.107,0,0,1-.056-.081.115.115,0,0,1,.044-.088.2.2,0,0,1,.125-.043.187.187,0,0,1,.122.029.08.08,0,0,1,.055.076.1.1,0,0,1-.044.091.2.2,0,0,1-.119.043Z"/>
        <path id="path5518-9-9-7-16" data-name="path5518-9-9-7" class="cls-12" d="M27.589,52.591l.445.044.021-.836-.021-1.147-.473-.143-.574-.084-.373.515-.517.086-.544.057.544.746.617.459.388.157Zm0-1.276a.128.128,0,0,1,.1.039.079.079,0,0,1,.042.076.11.11,0,0,1-.038.083.143.143,0,0,1-.092.036.12.12,0,0,1-.1-.033.075.075,0,0,1-.041-.076.088.088,0,0,1,.038-.083.122.122,0,0,1,.093-.043Z"/>
        <path id="path5520-5-4-4-7-16" data-name="path5520-5-4-4-7" class="cls-12" d="M25.28,49.033l-.086-.745.66-.215.831.53.016,1.52-.833.416-.573-.086-.016-.674Z"/>
        <path id="path5524-3-1-7-16" data-name="path5524-3-1-7" class="cls-17" d="M24.963,48.43a4.327,4.327,0,0,0-.094.818,3.174,3.174,0,0,0,.067.645l.912-.186a2.436,2.436,0,0,1-.044-.459,2.161,2.161,0,0,1,.063-.531Zm1.124-.281a2.276,2.276,0,0,1,1.984-1.161,2.112,2.112,0,0,1,.42.04l.2-.907a3.264,3.264,0,0,0-.623-.06,3.2,3.2,0,0,0-2.85,1.739Z"/>
        <path id="path5526-5-7-7-7-16" data-name="path5526-5-7-7-7" class="cls-18" d="M29.981,51l.818.273a3.335,3.335,0,0,1-2.211,1.213l.217-.675A2.327,2.327,0,0,0,29.981,51Z"/>
        <circle id="color_circle1_2_-4-0-7-16" data-name="color circle1 2 -4-0-7" class="cls-19" cx="27.439" cy="49.249" r="0.182"/>
        <path id="rect6691-4-0-7-16" data-name="rect6691-4-0-7" class="cls-20" d="M29.8,50.975h0a.372.372,0,0,0-.372-.373h0a.373.373,0,0,0-.373.372h0a.372.372,0,0,0,.371.373h0a.374.374,0,0,0,.373-.373h0Z"/>
        <path id="rect6691-1-3-7-7-16" data-name="rect6691-1-3-7-7" class="cls-21" d="M29.831,47.993h0a.375.375,0,0,0-.373-.374h0a.375.375,0,0,0-.374.374h0a.375.375,0,0,0,.374.373h0a.372.372,0,0,0,.373-.372h0Z"/>
        <path id="rect6691-0-1-0-7-16" data-name="rect6691-0-1-0-7" class="cls-22" d="M27.337,49.509h0a.372.372,0,0,0-.371-.373h0a.375.375,0,0,0-.373.373h0a.375.375,0,0,0,.373.374h0a.375.375,0,0,0,.374-.373h0Z"/>
        <ellipse id="color_circle2_2_-5-0-7-16" data-name="color circle2 2 -5-0-7" class="cls-23" cx="28.229" cy="49.495" rx="3.515" ry="3.53"/>
      </g>
      <g id="g13494-6-7-17" data-name="g13494-6-7">
        <rect id="pin5_2-0-5-7-17" data-name="pin5 2-0-5-7" class="cls-12" x="78.782" y="51.75" width="1.787" height="2.479"/>
        <rect id="pin3_2-1-4-7-17" data-name="pin3 2-1-4-7" class="cls-12" x="78.812" y="44.766" width="1.729" height="2.478"/>
        <rect id="pin2_2-5-5-1-7-17" data-name="pin2 2-5-5-1-7" class="cls-12" x="89.91" y="51.81" width="1.876" height="2.479"/>
        <rect id="pin0_2-7-8-4-7-17" data-name="pin0 2-7-8-4-7" class="cls-12" x="89.901" y="44.766" width="1.843" height="2.478"/>
        <polygon id="polygon5502-7-3-8-7-17" data-name="polygon5502-7-3-8-7" class="cls-13" points="90.546 45.07 90.546 54.65 80.789 54.651 80.329 54.254 90.086 54.253 90.086 44.672 90.546 45.07"/>
        <rect id="rect5504-2-6-4-7-17" data-name="rect5504-2-6-4-7" class="cls-14" x="80.31" y="44.719" width="9.75" height="9.494"/>
        <ellipse id="ellipse5506-7-5-7-17" data-name="ellipse5506-7-5-7" class="cls-15" cx="85.202" cy="49.444" rx="3.499" ry="3.531"/>
        <circle id="circle5508-3-6-7-17" data-name="circle5508-3-6-7" class="cls-16" cx="85.159" cy="49.378" r="2.454" transform="translate(34.727 133.917) rotate(-89.288)"/>
        <polygon id="polygon5510-4-5-4-7-17" data-name="polygon5510-4-5-4-7" class="cls-12" points="85.88 50.088 85.479 50.496 85.037 50.317 84.844 50.068 84.542 50.11 84.102 50.052 84.07 49.349 84.102 48.661 84.844 48.381 85.435 47.915 85.851 48.253 86.242 48.715 87.017 48.733 87.844 48.589 88.134 48.045 88.246 48.259 88.436 49.164 88.318 50.467 88.016 50.188 87.773 49.766 86.995 49.779 86.253 49.766 85.88 50.088"/>
        <path id="path5512-3-1-2-7-17" data-name="path5512-3-1-2-7" class="cls-12" d="M85.758,46.235l-.039,1.348.645.716,1.348-.072.086-.845-1.49-1.133Zm.267.832c0-.047.07-.09.138-.09s.133.055.131.1-.063.089-.139.089A.124.124,0,0,1,86.025,47.067Z"/>
        <path id="path5514-3-1-4-7-17" data-name="path5514-3-1-4-7" class="cls-12" d="M85.221,47.479l-.043-1.018-.489-.186-.874.289L83,47.022l-.559.7.789.043.688.545Zm-1.1-.509c.034-.11.107-.2.172-.176s.089.124.052.238-.1.192-.172.174-.086-.124-.052-.24Z"/>
        <path id="path5516-2-6-7-17" data-name="path5516-2-6-7" class="cls-12" d="M85.874,50.56l-.382.382.008.789.019.887.43-.056.5-.158.516-.259.416-.315.49-.5-.259-.4V50.2l-1.361-.015Zm.315.537a.254.254,0,0,1-.128-.026.107.107,0,0,1-.056-.081.115.115,0,0,1,.044-.088.2.2,0,0,1,.125-.043.187.187,0,0,1,.122.029.08.08,0,0,1,.055.076.1.1,0,0,1-.044.091.2.2,0,0,1-.119.043Z"/>
        <path id="path5518-9-9-7-17" data-name="path5518-9-9-7" class="cls-12" d="M84.589,52.591l.445.044.021-.836-.021-1.147-.473-.143-.574-.084-.373.515-.517.086-.544.057.544.746.617.459.388.157Zm0-1.276a.128.128,0,0,1,.1.039.079.079,0,0,1,.042.076.11.11,0,0,1-.038.083.143.143,0,0,1-.092.036.121.121,0,0,1-.1-.033.075.075,0,0,1-.041-.076.088.088,0,0,1,.038-.083.122.122,0,0,1,.093-.043Z"/>
        <path id="path5520-5-4-4-7-17" data-name="path5520-5-4-4-7" class="cls-12" d="M82.28,49.033l-.086-.745.66-.215.831.53.016,1.52-.833.416-.573-.086-.016-.674Z"/>
        <path id="path5524-3-1-7-17" data-name="path5524-3-1-7" class="cls-17" d="M81.963,48.43a4.327,4.327,0,0,0-.094.818,3.174,3.174,0,0,0,.067.645l.912-.186a2.436,2.436,0,0,1-.044-.459,2.161,2.161,0,0,1,.063-.531Zm1.124-.281a2.276,2.276,0,0,1,1.984-1.161,2.112,2.112,0,0,1,.42.04l.2-.907a3.264,3.264,0,0,0-.623-.06,3.2,3.2,0,0,0-2.85,1.739Z"/>
        <path id="path5526-5-7-7-7-17" data-name="path5526-5-7-7-7" class="cls-18" d="M86.981,51l.818.273a3.335,3.335,0,0,1-2.211,1.213l.217-.675A2.327,2.327,0,0,0,86.981,51Z"/>
        <circle id="color_circle1_2_-4-0-7-17" data-name="color circle1 2 -4-0-7" class="cls-19" cx="84.439" cy="49.249" r="0.182"/>
        <path id="rect6691-4-0-7-17" data-name="rect6691-4-0-7" class="cls-20" d="M86.8,50.975h0a.372.372,0,0,0-.372-.373h0a.373.373,0,0,0-.373.372h0a.373.373,0,0,0,.371.373h0a.374.374,0,0,0,.373-.373h0Z"/>
        <path id="rect6691-1-3-7-7-17" data-name="rect6691-1-3-7-7" class="cls-21" d="M86.831,47.993h0a.375.375,0,0,0-.373-.374h0a.375.375,0,0,0-.374.374h0a.375.375,0,0,0,.374.373h0a.372.372,0,0,0,.373-.372h0Z"/>
        <path id="rect6691-0-1-0-7-17" data-name="rect6691-0-1-0-7" class="cls-22" d="M84.338,49.509h0a.373.373,0,0,0-.372-.373h0a.375.375,0,0,0-.373.373h0a.375.375,0,0,0,.373.374h0a.375.375,0,0,0,.374-.373h0Z"/>
        <ellipse id="color_circle2_2_-5-0-7-17" data-name="color circle2 2 -5-0-7" class="cls-23" cx="85.229" cy="49.495" rx="3.515" ry="3.53"/>
      </g>
    </g>
    <g>
      <g id="A-226">
        <path id="path31327" class="cls-26" d="M42.689,131.458l-1.856,1.855L39.416,131.9l1.854-1.854Z"/>
        <path id="path31329" class="cls-27" d="M42.1,130.866l-1.856,1.855-.45-.451,1.854-1.854Z"/>
        <path id="path31331" class="cls-26" d="M36.946,125.825,35.2,127.569l-1.417-1.416,1.744-1.744Z"/>
        <path id="path31333" class="cls-27" d="M36.686,125.565l-1.744,1.744-.45-.451,1.744-1.743Z"/>
        <path id="path31343" class="cls-28" d="M34.366,127.885l2.9-2.9,4.9,4.9-2.9,2.9"/>
        <polyline id="rect11025-9" class="cls-29" points="37.826 131.338 40.717 128.448 42.166 129.897 39.275 132.788 37.826 131.338"/>
      </g>
      <rect class="cls-30" x="32.224" y="125.717" width="11.975" height="6.229" transform="translate(102.289 10.714) rotate(45)"/>
    </g>
    <g id="C-0603">
      <rect id="rect21332-8-1-9-3-8-2-40-6-2-0-6-6-0-5-6-4-8-7-2-0-7-2-3-9-16-2" class="cls-31" x="49.319" y="110.568" width="2.26" height="2.26"/>
      <rect id="rect21332-8-1-9-3-8-2-40-6-2-0-6-6-0-5-6-4-8-7-2-0-7-2-3-10-16-2" class="cls-31" x="45.939" y="110.569" width="2.26" height="2.26"/>
      <path class="cls-32" d="M50.689,112.833h-3.88a.329.329,0,0,1-.33-.277v-1.7a.308.308,0,0,1,.324-.287h3.88a.311.311,0,0,1,.33.286v1.681a.321.321,0,0,1-.32.3h0Z"/>
      <rect class="cls-33" x="46.907" y="110.565" width="3.685" height="2.27"/>
      <path id="path26341-4-2-6-0-8-1-1-1-5-0-3-3-1-8-3-8-7-7-7-2-4-9-7-2-3-5-16-2" class="cls-34" d="M50.169,110.566h-2.84v2.268h2.84Z"/>
    </g>
    <g id="C-0603-2" data-name="C-0603">
      <rect id="rect21332-8-1-9-3-8-2-40-6-2-0-6-6-0-5-6-4-8-7-2-0-7-2-3-9-16-2-2" data-name="rect21332-8-1-9-3-8-2-40-6-2-0-6-6-0-5-6-4-8-7-2-0-7-2-3-9-16-2" class="cls-31" x="65.189" y="110.568" width="2.26" height="2.26"/>
      <rect id="rect21332-8-1-9-3-8-2-40-6-2-0-6-6-0-5-6-4-8-7-2-0-7-2-3-10-16-2-2" data-name="rect21332-8-1-9-3-8-2-40-6-2-0-6-6-0-5-6-4-8-7-2-0-7-2-3-10-16-2" class="cls-31" x="61.809" y="110.569" width="2.26" height="2.26"/>
      <path class="cls-32" d="M66.559,112.833h-3.88a.328.328,0,0,1-.33-.277v-1.7a.308.308,0,0,1,.324-.287h3.88a.311.311,0,0,1,.33.286v1.681a.321.321,0,0,1-.32.3h0Z"/>
      <rect class="cls-33" x="62.777" y="110.565" width="3.685" height="2.27"/>
      <path id="path26341-4-2-6-0-8-1-1-1-5-0-3-3-1-8-3-8-7-7-7-2-4-9-7-2-3-5-16-2-2" data-name="path26341-4-2-6-0-8-1-1-1-5-0-3-3-1-8-3-8-7-7-7-2-4-9-7-2-3-5-16-2" class="cls-34" d="M66.039,110.566H63.2v2.268h2.84Z"/>
    </g>
    <g id="C-0603-3" data-name="C-0603">
      <rect id="rect21332-8-1-9-3-8-2-40-6-2-0-6-6-0-5-6-4-8-7-2-0-7-2-3-9-16-2-3" data-name="rect21332-8-1-9-3-8-2-40-6-2-0-6-6-0-5-6-4-8-7-2-0-7-2-3-9-16-2" class="cls-31" x="57.344" y="53.178" width="2.26" height="2.26"/>
      <rect id="rect21332-8-1-9-3-8-2-40-6-2-0-6-6-0-5-6-4-8-7-2-0-7-2-3-10-16-2-3" data-name="rect21332-8-1-9-3-8-2-40-6-2-0-6-6-0-5-6-4-8-7-2-0-7-2-3-10-16-2" class="cls-31" x="53.964" y="53.179" width="2.26" height="2.26"/>
      <path class="cls-32" d="M58.714,55.443h-3.88a.33.33,0,0,1-.33-.277v-1.7a.306.306,0,0,1,.324-.287h3.88a.31.31,0,0,1,.33.286v1.681a.322.322,0,0,1-.32.3h0Z"/>
      <rect class="cls-33" x="54.932" y="53.175" width="3.685" height="2.27"/>
      <path id="path26341-4-2-6-0-8-1-1-1-5-0-3-3-1-8-3-8-7-7-7-2-4-9-7-2-3-5-16-2-3" data-name="path26341-4-2-6-0-8-1-1-1-5-0-3-3-1-8-3-8-7-7-7-2-4-9-7-2-3-5-16-2" class="cls-34" d="M58.194,53.176h-2.84v2.268h2.84Z"/>
    </g>
    <g id="C-0603-4" data-name="C-0603">
      <rect id="rect21332-8-1-9-3-8-2-40-6-2-0-6-6-0-5-6-4-8-7-2-0-7-2-3-9-16-2-4" data-name="rect21332-8-1-9-3-8-2-40-6-2-0-6-6-0-5-6-4-8-7-2-0-7-2-3-9-16-2" class="cls-31" x="28.615" y="67.317" width="2.26" height="2.26"/>
      <rect id="rect21332-8-1-9-3-8-2-40-6-2-0-6-6-0-5-6-4-8-7-2-0-7-2-3-10-16-2-4" data-name="rect21332-8-1-9-3-8-2-40-6-2-0-6-6-0-5-6-4-8-7-2-0-7-2-3-10-16-2" class="cls-31" x="25.235" y="67.318" width="2.26" height="2.26"/>
      <path class="cls-32" d="M29.985,69.582h-3.88a.329.329,0,0,1-.33-.277v-1.7a.308.308,0,0,1,.324-.287h3.88a.31.31,0,0,1,.33.286v1.681a.321.321,0,0,1-.32.3h0Z"/>
      <rect class="cls-33" x="26.203" y="67.314" width="3.685" height="2.27"/>
      <path id="path26341-4-2-6-0-8-1-1-1-5-0-3-3-1-8-3-8-7-7-7-2-4-9-7-2-3-5-16-2-4" data-name="path26341-4-2-6-0-8-1-1-1-5-0-3-3-1-8-3-8-7-7-7-2-4-9-7-2-3-5-16-2" class="cls-34" d="M29.465,67.315h-2.84v2.268h2.84Z"/>
    </g>
    <g id="C-0603-5" data-name="C-0603">
      <rect id="rect21332-8-1-9-3-8-2-40-6-2-0-6-6-0-5-6-4-8-7-2-0-7-2-3-9-16-2-5" data-name="rect21332-8-1-9-3-8-2-40-6-2-0-6-6-0-5-6-4-8-7-2-0-7-2-3-9-16-2" class="cls-31" x="85.844" y="67.317" width="2.26" height="2.26"/>
      <rect id="rect21332-8-1-9-3-8-2-40-6-2-0-6-6-0-5-6-4-8-7-2-0-7-2-3-10-16-2-5" data-name="rect21332-8-1-9-3-8-2-40-6-2-0-6-6-0-5-6-4-8-7-2-0-7-2-3-10-16-2" class="cls-31" x="82.464" y="67.318" width="2.26" height="2.26"/>
      <path class="cls-32" d="M87.214,69.582h-3.88a.328.328,0,0,1-.33-.277v-1.7a.308.308,0,0,1,.324-.287h3.88a.31.31,0,0,1,.33.286v1.681a.321.321,0,0,1-.32.3h0Z"/>
      <rect class="cls-33" x="83.432" y="67.314" width="3.685" height="2.27"/>
      <path id="path26341-4-2-6-0-8-1-1-1-5-0-3-3-1-8-3-8-7-7-7-2-4-9-7-2-3-5-16-2-5" data-name="path26341-4-2-6-0-8-1-1-1-5-0-3-3-1-8-3-8-7-7-7-2-4-9-7-2-3-5-16-2" class="cls-34" d="M86.694,67.315h-2.84v2.268h2.84Z"/>
    </g>
    <g id="C-0603-6" data-name="C-0603">
      <rect id="rect21332-8-1-9-3-8-2-40-6-2-0-6-6-0-5-6-4-8-7-2-0-7-2-3-9-16-2-6" data-name="rect21332-8-1-9-3-8-2-40-6-2-0-6-6-0-5-6-4-8-7-2-0-7-2-3-9-16-2" class="cls-31" x="65.218" y="93.413" width="2.26" height="2.26"/>
      <rect id="rect21332-8-1-9-3-8-2-40-6-2-0-6-6-0-5-6-4-8-7-2-0-7-2-3-10-16-2-6" data-name="rect21332-8-1-9-3-8-2-40-6-2-0-6-6-0-5-6-4-8-7-2-0-7-2-3-10-16-2" class="cls-31" x="61.838" y="93.414" width="2.26" height="2.26"/>
      <path class="cls-32" d="M66.588,95.678h-3.88a.329.329,0,0,1-.33-.277V93.7a.306.306,0,0,1,.324-.287h3.88a.31.31,0,0,1,.33.286v1.681a.321.321,0,0,1-.32.3h0Z"/>
      <rect class="cls-33" x="62.806" y="93.41" width="3.685" height="2.27"/>
      <path id="path26341-4-2-6-0-8-1-1-1-5-0-3-3-1-8-3-8-7-7-7-2-4-9-7-2-3-5-16-2-6" data-name="path26341-4-2-6-0-8-1-1-1-5-0-3-3-1-8-3-8-7-7-7-2-4-9-7-2-3-5-16-2" class="cls-34" d="M66.068,93.411h-2.84v2.268h2.84Z"/>
    </g>
    <g id="C-0603-7" data-name="C-0603">
      <rect id="rect21332-8-1-9-3-8-2-40-6-2-0-6-6-0-5-6-4-8-7-2-0-7-2-3-9-16-2-7" data-name="rect21332-8-1-9-3-8-2-40-6-2-0-6-6-0-5-6-4-8-7-2-0-7-2-3-9-16-2" class="cls-31" x="49.218" y="93.413" width="2.26" height="2.26"/>
      <rect id="rect21332-8-1-9-3-8-2-40-6-2-0-6-6-0-5-6-4-8-7-2-0-7-2-3-10-16-2-7" data-name="rect21332-8-1-9-3-8-2-40-6-2-0-6-6-0-5-6-4-8-7-2-0-7-2-3-10-16-2" class="cls-31" x="45.838" y="93.414" width="2.26" height="2.26"/>
      <path class="cls-32" d="M50.588,95.678h-3.88a.329.329,0,0,1-.33-.277V93.7a.306.306,0,0,1,.324-.287h3.88a.31.31,0,0,1,.33.286v1.681a.321.321,0,0,1-.32.3h0Z"/>
      <rect class="cls-33" x="46.806" y="93.41" width="3.685" height="2.27"/>
      <path id="path26341-4-2-6-0-8-1-1-1-5-0-3-3-1-8-3-8-7-7-7-2-4-9-7-2-3-5-16-2-7" data-name="path26341-4-2-6-0-8-1-1-1-5-0-3-3-1-8-3-8-7-7-7-2-4-9-7-2-3-5-16-2" class="cls-34" d="M50.068,93.411h-2.84v2.268h2.84Z"/>
    </g>
    <g id="R-0603-stroke">
      <g id="R-0603-2">
        <rect id="rect21332-8-1-9-3-8-2-40-6-2-0-6-6-0-5-6-4-8-7-2-0-7-2-3-9-16-5-2" class="cls-31" x="73.44" y="127.634" width="2.26" height="2.268" transform="translate(-69.212 90.444) rotate(-45)"/>
        <rect id="rect21332-8-1-9-3-8-2-40-6-2-0-6-6-0-5-6-4-8-7-2-0-7-2-3-10-16-5-2" class="cls-31" x="75.837" y="125.237" width="2.26" height="2.268" transform="translate(-66.815 91.437) rotate(-45)"/>
        <path class="cls-32" d="M73.6,128.136l2.736-2.737a.329.329,0,0,1,.429-.037l1.2,1.2a.31.31,0,0,1-.029.436h0L75.2,129.736a.31.31,0,0,1-.435.031l-1.189-1.188a.321.321,0,0,1,.014-.439h0Z"/>
        <g id="path26345-3-6-9-3-6-4-2-5-6-8-7-9-0-90-3-1-3-9-2-2-8-5-0-2-3-5-16-5-2">
          <rect class="cls-33" x="73.932" y="126.432" width="3.68" height="2.268" transform="translate(-68.01 90.942) rotate(-45)"/>
        </g>
        <path id="path26341-4-2-6-0-8-1-1-1-5-0-3-3-1-8-3-8-7-7-7-2-4-9-7-2-3-5-16-5-2" class="cls-28" d="M75.57,129.372l2-2-1.6-1.6-2,2Z"/>
      </g>
      <rect class="cls-35" x="72.226" y="125.585" width="7.087" height="3.968" transform="translate(-68.013 90.941) rotate(-45)"/>
    </g>
    <g>
      <text class="cls-36" transform="translate(26.131 57.888)">16</text>
      <text class="cls-36" transform="translate(54.367 75.817)">14</text>
      <text class="cls-36" transform="translate(83.131 57.888)">15</text>
      <text class="cls-36" transform="translate(78.901 122.859)">1</text>
      <text class="cls-36" transform="translate(63.738 128.948)">2</text>
      <text class="cls-36" transform="translate(47.404 128.948)">3</text>
      <text class="cls-36" transform="translate(31.391 122.859)">4</text>
      <text class="cls-36" transform="translate(15.829 111.698)">5</text>
      <text class="cls-36" transform="translate(78.871 85.628)">6</text>
      <text class="cls-36" transform="translate(63.859 78.834)">7</text>
      <text class="cls-36" transform="translate(47.7 78.834)">8</text>
      <text class="cls-36" transform="translate(31.501 85.628)">9</text>
      <text class="cls-36" transform="translate(69.946 104.341)">10</text>
      <text class="cls-36" transform="translate(95.358 111.698)">0</text>
      <text class="cls-36" transform="translate(54.448 104.445)">11</text>
      <text class="cls-36" transform="translate(38.623 104.444)">12</text>
      <text class="cls-36" transform="translate(22.848 104.341)">13</text>
    </g>
    <g>
      <path class="cls-2" d="M38.628,143.328V160.8h6.688V143.328Zm3.344,3.416a.656.656,0,1,1,.656-.656A.656.656,0,0,1,41.972,146.744Z"/>
      <path class="cls-2" d="M45.962,143.328V160.8H52.65V143.328Zm3.344,3.416a.656.656,0,1,1,.656-.656A.656.656,0,0,1,49.306,146.744Z"/>
      <path class="cls-2" d="M53.3,143.328V160.8h6.688V143.328Zm3.344,3.416a.656.656,0,1,1,.656-.656A.656.656,0,0,1,56.64,146.744Z"/>
      <path class="cls-2" d="M60.63,143.328V160.8h6.688V143.328Zm3.344,3.416a.656.656,0,1,1,.656-.656A.656.656,0,0,1,63.974,146.744Z"/>
      <path class="cls-2" d="M67.964,143.328V160.8h6.688V143.328Zm3.344,3.416a.656.656,0,1,1,.656-.656A.656.656,0,0,1,71.308,146.744Z"/>
    </g>
    <g>
      <text class="cls-3" transform="translate(43.451 158.889) rotate(-90)">V</text>
      <text class="cls-3" transform="translate(50.761 158.889) rotate(-90)">D</text>
      <text class="cls-3" transform="translate(58.071 158.888) rotate(-90)">C</text>
      <text class="cls-3" transform="translate(65.381 158.889) rotate(-90)">S</text>
      <text class="cls-3" transform="translate(72.691 158.888) rotate(-90)">G</text>
    </g>
  </g>
</svg>
