<?xml version='1.0' encoding='UTF-8' standalone='no'?>
<!-- Created with Fritzing (http://www.fritzing.org/) -->
<svg xmlns:svg='http://www.w3.org/2000/svg' xmlns='http://www.w3.org/2000/svg' version='1.2' baseProfile='tiny' x='0in' y='0in' width='1.80332in' height='1.40158in' viewBox='0 0 129.839 100.914' >
<g partID='69970'><g  id="breadboardbreadboard">
 <g  id="background">
  <rect  height="100.914" width="129.839" fill="#D9D9D9"/>
 </g>
 <rect  height="7.252" width="90.5" x="19.67" fill="#CCC9C9" y="46.83"/>
 <g transform="matrix(1, 0, 0, 1, -4.5, -9)">
  <g  id="sockets">
   <g  id="A1pin">
    <path  d="M9.427,19.858c0,-1.322,1.071,-2.396,2.395,-2.396c1.324,0,2.394,1.072,2.394,2.396" fill="#BFBFBF"/>
    <path  d="M14.214,19.858c0,1.319,-1.07,2.393,-2.394,2.393c-1.324,0,-2.395,-1.072,-2.395,-2.393" fill="#E6E6E6"/>
    <circle  cx="11.822" cy="19.857" r="1.196" fill="#383838"/>
   </g>
   <g  id="B1pin">
    <path  d="M9.427,27.058c0,-1.322,1.071,-2.396,2.395,-2.396c1.324,0,2.394,1.071,2.394,2.396" fill="#BFBFBF"/>
    <path  d="M14.214,27.058c0,1.321,-1.07,2.393,-2.394,2.393c-1.324,0,-2.395,-1.07,-2.395,-2.393l0,0" fill="#E6E6E6"/>
    <circle  cx="11.822" cy="27.057" r="1.197" fill="#383838"/>
   </g>
   <g  id="C1pin">
    <path  d="M9.427,34.256c0,-1.319,1.071,-2.394,2.395,-2.394c1.324,0,2.394,1.072,2.394,2.394" fill="#BFBFBF"/>
    <path  d="M14.214,34.256c0,1.322,-1.07,2.396,-2.394,2.396c-1.324,0,-2.395,-1.072,-2.395,-2.396" fill="#E6E6E6"/>
    <circle  cx="11.822" cy="34.257" r="1.196" fill="#383838"/>
   </g>
   <g  id="D1pin">
    <path  d="M9.427,41.457c0,-1.322,1.071,-2.396,2.395,-2.396c1.324,0,2.394,1.072,2.394,2.396" fill="#BFBFBF"/>
    <path  d="M14.214,41.457c0,1.321,-1.07,2.394,-2.394,2.394c-1.324,0,-2.395,-1.07,-2.395,-2.394l0,0" fill="#E6E6E6"/>
    <circle  cx="11.822" cy="41.457" r="1.197" fill="#383838"/>
   </g>
   <g  id="E1pin">
    <path  d="M9.427,48.657c0,-1.322,1.071,-2.394,2.395,-2.394c1.324,0,2.394,1.07,2.394,2.394" fill="#BFBFBF"/>
    <path  d="M14.214,48.657c0,1.322,-1.07,2.395,-2.394,2.395c-1.324,0,-2.395,-1.072,-2.395,-2.395l0,0" fill="#E6E6E6"/>
    <circle  cx="11.822" cy="48.657" r="1.197" fill="#383838"/>
   </g>
   <g  id="A2pin">
    <path  d="M16.627,19.858c0,-1.322,1.071,-2.396,2.395,-2.396c1.32,0,2.394,1.072,2.394,2.396" fill="#BFBFBF"/>
    <path  d="M21.414,19.858c0,1.319,-1.07,2.393,-2.393,2.395c-1.322,0,-2.396,-1.07,-2.396,-2.393c0,-0.002,0,-0.002,0,-0.002" fill="#E6E6E6"/>
    <circle  cx="19.022" cy="19.857" r="1.196" fill="#383838"/>
   </g>
   <g  id="B2pin">
    <path  d="M16.627,27.058c0,-1.322,1.071,-2.396,2.395,-2.396c1.32,0,2.394,1.071,2.394,2.396" fill="#BFBFBF"/>
    <path  d="M21.414,27.058c0,1.321,-1.07,2.395,-2.393,2.395c-1.322,0.002,-2.396,-1.07,-2.396,-2.393l0,-0.002" fill="#E6E6E6"/>
    <circle  cx="19.022" cy="27.057" r="1.197" fill="#383838"/>
   </g>
   <g  id="C2pin">
    <path  d="M16.627,34.256c0,-1.319,1.071,-2.394,2.395,-2.394c1.32,0,2.394,1.072,2.394,2.394" fill="#BFBFBF"/>
    <path  d="M21.414,34.256c0,1.322,-1.07,2.396,-2.393,2.396c-1.323,0,-2.396,-1.069,-2.396,-2.393c0,-0.002,0,-0.002,0,-0.004" fill="#E6E6E6"/>
    <circle  cx="19.022" cy="34.257" r="1.196" fill="#383838"/>
   </g>
   <g  id="D2pin">
    <path  d="M16.627,41.457c0,-1.322,1.071,-2.396,2.395,-2.396c1.32,0,2.394,1.072,2.394,2.396" fill="#BFBFBF"/>
    <path  d="M21.414,41.457c0,1.321,-1.07,2.396,-2.393,2.396c-1.323,0,-2.396,-1.07,-2.396,-2.394l0,-0.002" fill="#E6E6E6"/>
    <circle  cx="19.022" cy="41.457" r="1.197" fill="#383838"/>
   </g>
   <g  id="E2pin">
    <path  d="M16.627,48.657c0,-1.322,1.071,-2.394,2.395,-2.394c1.32,0,2.394,1.07,2.394,2.394" fill="#BFBFBF"/>
    <path  d="M21.414,48.657c0,1.322,-1.07,2.395,-2.393,2.395c-1.322,0.002,-2.396,-1.07,-2.396,-2.391c0,-0.002,0,-0.002,0,-0.004" fill="#E6E6E6"/>
    <circle  cx="19.022" cy="48.657" r="1.197" fill="#383838"/>
   </g>
   <g  id="A3pin">
    <path  d="M23.826,19.858c0,-1.322,1.072,-2.396,2.395,-2.396c1.321,0,2.395,1.072,2.395,2.396" fill="#BFBFBF"/>
    <path  d="M28.615,19.858c0,1.319,-1.072,2.393,-2.395,2.393c-1.321,0,-2.395,-1.072,-2.395,-2.393l0,0" fill="#E6E6E6"/>
    <circle  cx="26.221" cy="19.857" r="1.196" fill="#383838"/>
   </g>
   <g  id="B3pin">
    <path  d="M23.826,27.058c0,-1.322,1.072,-2.396,2.395,-2.396c1.321,0,2.395,1.071,2.395,2.396" fill="#BFBFBF"/>
    <path  d="M28.615,27.058c0,1.321,-1.072,2.393,-2.395,2.393c-1.321,0,-2.395,-1.07,-2.395,-2.393" fill="#E6E6E6"/>
    <circle  cx="26.221" cy="27.057" r="1.197" fill="#383838"/>
   </g>
   <g  id="C3pin">
    <path  d="M23.826,34.256c0,-1.319,1.072,-2.394,2.395,-2.394c1.321,0,2.395,1.072,2.395,2.394" fill="#BFBFBF"/>
    <path  d="M28.615,34.256c0,1.322,-1.072,2.396,-2.395,2.396c-1.321,0,-2.395,-1.072,-2.395,-2.396l0,0" fill="#E6E6E6"/>
    <circle  cx="26.221" cy="34.257" r="1.196" fill="#383838"/>
   </g>
   <g  id="D3pin">
    <path  d="M23.826,41.457c0,-1.322,1.072,-2.396,2.395,-2.396c1.321,0,2.395,1.072,2.395,2.396" fill="#BFBFBF"/>
    <path  d="M28.615,41.457c0,1.321,-1.072,2.394,-2.395,2.394c-1.321,0,-2.395,-1.07,-2.395,-2.394" fill="#E6E6E6"/>
    <circle  cx="26.221" cy="41.457" r="1.197" fill="#383838"/>
   </g>
   <g  id="E3pin">
    <path  d="M23.826,48.657c0,-1.322,1.072,-2.394,2.395,-2.394c1.321,0,2.395,1.07,2.395,2.394" fill="#BFBFBF"/>
    <path  d="M28.615,48.657c0,1.322,-1.072,2.395,-2.395,2.395c-1.321,0,-2.395,-1.072,-2.395,-2.395" fill="#E6E6E6"/>
    <circle  cx="26.221" cy="48.657" r="1.197" fill="#383838"/>
   </g>
   <g  id="A4pin">
    <path  d="M31.028,19.858c0,-1.322,1.072,-2.396,2.394,-2.396c1.322,0,2.395,1.072,2.395,2.396" fill="#BFBFBF"/>
    <path  d="M35.815,19.858c0,1.319,-1.071,2.393,-2.395,2.393c-1.32,0,-2.394,-1.072,-2.394,-2.393l0,0" fill="#E6E6E6"/>
    <circle  cx="33.42" cy="19.857" r="1.196" fill="#383838"/>
   </g>
   <g  id="B4pin">
    <path  d="M31.028,27.058c0,-1.322,1.072,-2.396,2.394,-2.396c1.322,0,2.395,1.071,2.395,2.396" fill="#BFBFBF"/>
    <path  d="M35.815,27.058c0,1.321,-1.071,2.393,-2.395,2.393c-1.32,0,-2.394,-1.07,-2.394,-2.393" fill="#E6E6E6"/>
    <circle  cx="33.42" cy="27.057" r="1.197" fill="#383838"/>
   </g>
   <g  id="C4pin">
    <path  d="M31.028,34.256c0,-1.319,1.072,-2.394,2.394,-2.394c1.322,0,2.395,1.072,2.395,2.394" fill="#BFBFBF"/>
    <path  d="M35.815,34.256c0,1.322,-1.071,2.396,-2.395,2.396c-1.32,0,-2.394,-1.072,-2.394,-2.396l0,0" fill="#E6E6E6"/>
    <circle  cx="33.42" cy="34.257" r="1.196" fill="#383838"/>
   </g>
   <g  id="D4pin">
    <path  d="M31.028,41.457c0,-1.322,1.072,-2.396,2.394,-2.396c1.322,0,2.395,1.072,2.395,2.396" fill="#BFBFBF"/>
    <path  d="M35.815,41.457c0,1.321,-1.071,2.394,-2.395,2.394c-1.32,0,-2.394,-1.07,-2.394,-2.394" fill="#E6E6E6"/>
    <circle  cx="33.42" cy="41.457" r="1.197" fill="#383838"/>
   </g>
   <g  id="E4pin">
    <path  d="M31.028,48.657c0,-1.322,1.072,-2.394,2.394,-2.394c1.322,0,2.395,1.07,2.395,2.394" fill="#BFBFBF"/>
    <path  d="M35.815,48.657c0,1.322,-1.071,2.395,-2.395,2.395c-1.32,0,-2.394,-1.072,-2.394,-2.395" fill="#E6E6E6"/>
    <circle  cx="33.42" cy="48.657" r="1.197" fill="#383838"/>
   </g>
   <g  id="A5pin">
    <path  d="M38.228,19.858c0,-1.322,1.07,-2.396,2.394,-2.396c1.324,0,2.395,1.072,2.395,2.396" fill="#BFBFBF"/>
    <path  d="M43.015,19.858c0,1.319,-1.071,2.393,-2.395,2.393c-1.324,0,-2.394,-1.072,-2.394,-2.393l0,0" fill="#E6E6E6"/>
    <circle  cx="40.62" cy="19.857" r="1.196" fill="#383838"/>
   </g>
   <g  id="B5pin">
    <path  d="M38.228,27.058c0,-1.322,1.07,-2.396,2.394,-2.396c1.324,0,2.395,1.071,2.395,2.396" fill="#BFBFBF"/>
    <path  d="M43.015,27.058c0,1.321,-1.071,2.393,-2.395,2.393c-1.324,0,-2.394,-1.07,-2.394,-2.393" fill="#E6E6E6"/>
    <circle  cx="40.62" cy="27.057" r="1.197" fill="#383838"/>
   </g>
   <g  id="C5pin">
    <path  d="M38.228,34.256c0,-1.319,1.07,-2.394,2.394,-2.394c1.324,0,2.395,1.072,2.395,2.394" fill="#BFBFBF"/>
    <path  d="M43.015,34.256c0,1.322,-1.071,2.396,-2.395,2.396c-1.324,0,-2.394,-1.072,-2.394,-2.396l0,0" fill="#E6E6E6"/>
    <circle  cx="40.62" cy="34.257" r="1.196" fill="#383838"/>
   </g>
   <g  id="D5pin">
    <path  d="M38.228,41.457c0,-1.322,1.07,-2.396,2.394,-2.396c1.324,0,2.395,1.072,2.395,2.396" fill="#BFBFBF"/>
    <path  d="M43.015,41.457c0,1.321,-1.071,2.394,-2.395,2.394c-1.324,0,-2.394,-1.07,-2.394,-2.394" fill="#E6E6E6"/>
    <circle  cx="40.62" cy="41.457" r="1.197" fill="#383838"/>
   </g>
   <g  id="E5pin">
    <path  d="M38.228,48.657c0,-1.322,1.07,-2.394,2.394,-2.394c1.324,0,2.395,1.07,2.395,2.394" fill="#BFBFBF"/>
    <path  d="M43.015,48.657c0,1.322,-1.071,2.395,-2.395,2.395c-1.324,0,-2.394,-1.072,-2.394,-2.395" fill="#E6E6E6"/>
    <circle  cx="40.62" cy="48.657" r="1.197" fill="#383838"/>
   </g>
   <g  id="A6pin">
    <path  d="M45.427,19.858c0,-1.322,1.071,-2.396,2.395,-2.396c1.324,0,2.394,1.072,2.394,2.396" fill="#BFBFBF"/>
    <path  d="M50.214,19.858c0,1.319,-1.07,2.393,-2.394,2.393c-1.324,0,-2.395,-1.072,-2.395,-2.393l0,0" fill="#E6E6E6"/>
    <circle  cx="47.822" cy="19.857" r="1.196" fill="#383838"/>
   </g>
   <g  id="B6pin">
    <path  d="M45.427,27.058c0,-1.322,1.071,-2.396,2.395,-2.396c1.324,0,2.394,1.071,2.394,2.396" fill="#BFBFBF"/>
    <path  d="M50.214,27.058c0,1.321,-1.07,2.393,-2.394,2.393c-1.324,0,-2.395,-1.07,-2.395,-2.393" fill="#E6E6E6"/>
    <circle  cx="47.822" cy="27.057" r="1.197" fill="#383838"/>
   </g>
   <g  id="C6pin">
    <path  d="M45.427,34.256c0,-1.319,1.071,-2.394,2.395,-2.394c1.324,0,2.394,1.072,2.394,2.394" fill="#BFBFBF"/>
    <path  d="M50.214,34.256c0,1.322,-1.07,2.396,-2.394,2.396c-1.324,0,-2.395,-1.072,-2.395,-2.396l0,0" fill="#E6E6E6"/>
    <circle  cx="47.822" cy="34.257" r="1.196" fill="#383838"/>
   </g>
   <g  id="D6pin">
    <path  d="M45.427,41.457c0,-1.322,1.071,-2.396,2.395,-2.396c1.324,0,2.394,1.072,2.394,2.396" fill="#BFBFBF"/>
    <path  d="M50.214,41.457c0,1.321,-1.07,2.394,-2.394,2.394c-1.324,0,-2.395,-1.07,-2.395,-2.394" fill="#E6E6E6"/>
    <circle  cx="47.822" cy="41.457" r="1.197" fill="#383838"/>
   </g>
   <g  id="E6pin">
    <path  d="M45.427,48.657c0,-1.322,1.071,-2.394,2.395,-2.394c1.324,0,2.394,1.07,2.394,2.394" fill="#BFBFBF"/>
    <path  d="M50.214,48.657c0,1.322,-1.07,2.395,-2.394,2.395c-1.324,0,-2.395,-1.072,-2.395,-2.395" fill="#E6E6E6"/>
    <circle  cx="47.822" cy="48.657" r="1.197" fill="#383838"/>
   </g>
   <g  id="A7pin">
    <path  d="M52.627,19.858c0,-1.322,1.071,-2.396,2.395,-2.396c1.32,0,2.394,1.072,2.394,2.396" fill="#BFBFBF"/>
    <path  d="M57.414,19.858c0,1.319,-1.072,2.393,-2.394,2.393s-2.395,-1.072,-2.395,-2.393l0,0" fill="#E6E6E6"/>
    <circle  cx="55.022" cy="19.857" r="1.196" fill="#383838"/>
   </g>
   <g  id="B7pin">
    <path  d="M52.627,27.058c0,-1.322,1.071,-2.396,2.395,-2.396c1.32,0,2.394,1.071,2.394,2.396" fill="#BFBFBF"/>
    <path  d="M57.414,27.058c0,1.321,-1.072,2.393,-2.394,2.393s-2.395,-1.07,-2.395,-2.393" fill="#E6E6E6"/>
    <circle  cx="55.022" cy="27.057" r="1.197" fill="#383838"/>
   </g>
   <g  id="C7pin">
    <path  d="M52.627,34.256c0,-1.319,1.071,-2.394,2.395,-2.394c1.32,0,2.394,1.072,2.394,2.394" fill="#BFBFBF"/>
    <path  d="M57.414,34.256c0,1.322,-1.072,2.396,-2.394,2.396s-2.395,-1.072,-2.395,-2.396l0,0" fill="#E6E6E6"/>
    <circle  cx="55.022" cy="34.257" r="1.196" fill="#383838"/>
   </g>
   <g  id="D7pin">
    <path  d="M52.627,41.457c0,-1.322,1.071,-2.396,2.395,-2.396c1.32,0,2.394,1.072,2.394,2.396" fill="#BFBFBF"/>
    <path  d="M57.414,41.457c0,1.321,-1.072,2.394,-2.394,2.394s-2.395,-1.07,-2.395,-2.394" fill="#E6E6E6"/>
    <circle  cx="55.022" cy="41.457" r="1.197" fill="#383838"/>
   </g>
   <g  id="E7pin">
    <path  d="M52.627,48.657c0,-1.322,1.071,-2.394,2.395,-2.394c1.32,0,2.394,1.07,2.394,2.394" fill="#BFBFBF"/>
    <path  d="M57.414,48.657c0,1.322,-1.072,2.395,-2.394,2.395s-2.395,-1.072,-2.395,-2.395" fill="#E6E6E6"/>
    <circle  cx="55.022" cy="48.657" r="1.197" fill="#383838"/>
   </g>
   <g  id="A8pin">
    <path  d="M59.826,19.858c0,-1.322,1.072,-2.396,2.395,-2.396c1.321,0,2.393,1.072,2.393,2.396" fill="#BFBFBF"/>
    <path  d="M64.614,19.858c0,1.319,-1.07,2.393,-2.393,2.393c-1.323,0,-2.395,-1.072,-2.395,-2.393l0,0" fill="#E6E6E6"/>
    <circle  cx="62.221" cy="19.857" r="1.196" fill="#383838"/>
   </g>
   <g  id="B8pin">
    <path  d="M59.826,27.058c0,-1.322,1.072,-2.396,2.395,-2.396c1.321,0,2.393,1.071,2.393,2.396" fill="#BFBFBF"/>
    <path  d="M64.614,27.058c0,1.321,-1.07,2.393,-2.393,2.393c-1.323,0,-2.395,-1.07,-2.395,-2.393" fill="#E6E6E6"/>
    <circle  cx="62.221" cy="27.057" r="1.197" fill="#383838"/>
   </g>
   <g  id="C8pin">
    <path  d="M59.826,34.256c0,-1.319,1.072,-2.394,2.395,-2.394c1.321,0,2.393,1.072,2.393,2.394" fill="#BFBFBF"/>
    <path  d="M64.614,34.256c0,1.322,-1.07,2.396,-2.393,2.396c-1.323,0,-2.395,-1.072,-2.395,-2.396l0,0" fill="#E6E6E6"/>
    <circle  cx="62.221" cy="34.257" r="1.196" fill="#383838"/>
   </g>
   <g  id="D8pin">
    <path  d="M59.826,41.457c0,-1.322,1.072,-2.396,2.395,-2.396c1.321,0,2.393,1.072,2.393,2.396" fill="#BFBFBF"/>
    <path  d="M64.614,41.457c0,1.321,-1.07,2.394,-2.393,2.394c-1.323,0,-2.395,-1.07,-2.395,-2.394" fill="#E6E6E6"/>
    <circle  cx="62.221" cy="41.457" r="1.197" fill="#383838"/>
   </g>
   <g  id="E8pin">
    <path  d="M59.826,48.657c0,-1.322,1.072,-2.394,2.395,-2.394c1.321,0,2.393,1.07,2.393,2.394" fill="#BFBFBF"/>
    <path  d="M64.614,48.657c0,1.322,-1.07,2.395,-2.393,2.395c-1.323,0,-2.395,-1.072,-2.395,-2.395" fill="#E6E6E6"/>
    <circle  cx="62.221" cy="48.657" r="1.197" fill="#383838"/>
   </g>
   <g  id="A9pin">
    <path  d="M67.028,19.858c0,-1.322,1.072,-2.396,2.393,-2.396c1.323,0,2.396,1.072,2.396,2.396" fill="#BFBFBF"/>
    <path  d="M71.815,19.858c0,1.319,-1.071,2.393,-2.396,2.393c-1.319,0,-2.393,-1.072,-2.393,-2.393l0,0" fill="#E6E6E6"/>
    <circle  cx="69.42" cy="19.857" r="1.196" fill="#383838"/>
   </g>
   <g  id="B9pin">
    <path  d="M67.028,27.058c0,-1.322,1.072,-2.396,2.393,-2.396c1.323,0,2.396,1.071,2.396,2.396" fill="#BFBFBF"/>
    <path  d="M71.815,27.058c0,1.321,-1.071,2.393,-2.396,2.393c-1.319,0,-2.393,-1.07,-2.393,-2.393" fill="#E6E6E6"/>
    <circle  cx="69.42" cy="27.057" r="1.197" fill="#383838"/>
   </g>
   <g  id="C9pin">
    <path  d="M67.028,34.256c0,-1.319,1.072,-2.394,2.393,-2.394c1.323,0,2.396,1.072,2.396,2.394" fill="#BFBFBF"/>
    <path  d="M71.815,34.256c0,1.322,-1.071,2.396,-2.396,2.396c-1.319,0,-2.393,-1.072,-2.393,-2.396l0,0" fill="#E6E6E6"/>
    <circle  cx="69.42" cy="34.257" r="1.196" fill="#383838"/>
   </g>
   <g  id="D9pin">
    <path  d="M67.028,41.457c0,-1.322,1.072,-2.396,2.393,-2.396c1.323,0,2.396,1.072,2.396,2.396" fill="#BFBFBF"/>
    <path  d="M71.815,41.457c0,1.321,-1.071,2.394,-2.396,2.394c-1.319,0,-2.393,-1.07,-2.393,-2.394" fill="#E6E6E6"/>
    <circle  cx="69.42" cy="41.457" r="1.197" fill="#383838"/>
   </g>
   <g  id="E9pin">
    <path  d="M67.028,48.657c0,-1.322,1.072,-2.394,2.393,-2.394c1.323,0,2.396,1.07,2.396,2.394" fill="#BFBFBF"/>
    <path  d="M71.815,48.657c0,1.322,-1.071,2.395,-2.396,2.395c-1.319,0,-2.393,-1.072,-2.393,-2.395" fill="#E6E6E6"/>
    <circle  cx="69.42" cy="48.657" r="1.197" fill="#383838"/>
   </g>
   <g  id="A10pin">
    <path  d="M74.227,19.858c0,-1.322,1.071,-2.396,2.396,-2.396c1.323,0,2.394,1.072,2.394,2.396" fill="#BFBFBF"/>
    <path  d="M79.014,19.858c0,1.319,-1.07,2.393,-2.394,2.393c-1.324,0,-2.396,-1.072,-2.396,-2.393l0,0" fill="#E6E6E6"/>
    <circle  cx="76.621" cy="19.857" r="1.196" fill="#383838"/>
   </g>
   <g  id="B10pin">
    <path  d="M74.227,27.058c0,-1.322,1.071,-2.396,2.396,-2.396c1.323,0,2.394,1.071,2.394,2.396" fill="#BFBFBF"/>
    <path  d="M79.014,27.058c0,1.321,-1.07,2.393,-2.394,2.393c-1.324,0,-2.396,-1.07,-2.396,-2.393" fill="#E6E6E6"/>
    <circle  cx="76.621" cy="27.057" r="1.197" fill="#383838"/>
   </g>
   <g  id="C10pin">
    <path  d="M74.227,34.256c0,-1.319,1.071,-2.394,2.396,-2.394c1.323,0,2.394,1.072,2.394,2.394" fill="#BFBFBF"/>
    <path  d="M79.014,34.256c0,1.322,-1.07,2.396,-2.394,2.396c-1.324,0,-2.396,-1.072,-2.396,-2.396l0,0" fill="#E6E6E6"/>
    <circle  cx="76.621" cy="34.257" r="1.196" fill="#383838"/>
   </g>
   <g  id="D10pin">
    <path  d="M74.227,41.457c0,-1.322,1.071,-2.396,2.396,-2.396c1.323,0,2.394,1.072,2.394,2.396" fill="#BFBFBF"/>
    <path  d="M79.014,41.457c0,1.321,-1.07,2.394,-2.394,2.394c-1.324,0,-2.396,-1.07,-2.396,-2.394" fill="#E6E6E6"/>
    <circle  cx="76.621" cy="41.457" r="1.197" fill="#383838"/>
   </g>
   <g  id="E10pin">
    <path  d="M74.227,48.657c0,-1.322,1.071,-2.394,2.396,-2.394c1.323,0,2.394,1.07,2.394,2.394" fill="#BFBFBF"/>
    <path  d="M79.014,48.657c0,1.322,-1.07,2.395,-2.394,2.395c-1.324,0,-2.396,-1.072,-2.396,-2.395" fill="#E6E6E6"/>
    <circle  cx="76.621" cy="48.657" r="1.197" fill="#383838"/>
   </g>
   <g  id="A11pin">
    <path  d="M81.428,19.858c0,-1.322,1.069,-2.396,2.394,-2.396s2.395,1.072,2.395,2.396" fill="#BFBFBF"/>
    <path  d="M86.214,19.858c0,1.319,-1.07,2.393,-2.395,2.393s-2.395,-1.072,-2.395,-2.393l0,0" fill="#E6E6E6"/>
    <circle  cx="83.821" cy="19.857" r="1.196" fill="#383838"/>
   </g>
   <g  id="B11pin">
    <path  d="M81.428,27.058c0,-1.322,1.069,-2.396,2.394,-2.396s2.395,1.071,2.395,2.396" fill="#BFBFBF"/>
    <path  d="M86.214,27.058c0,1.321,-1.07,2.393,-2.395,2.393s-2.395,-1.07,-2.395,-2.393" fill="#E6E6E6"/>
    <circle  cx="83.821" cy="27.057" r="1.197" fill="#383838"/>
   </g>
   <g  id="C11pin">
    <path  d="M81.428,34.256c0,-1.319,1.069,-2.394,2.394,-2.394s2.395,1.072,2.395,2.394" fill="#BFBFBF"/>
    <path  d="M86.214,34.256c0,1.322,-1.07,2.396,-2.395,2.396s-2.395,-1.072,-2.395,-2.396l0,0" fill="#E6E6E6"/>
    <circle  cx="83.821" cy="34.257" r="1.196" fill="#383838"/>
   </g>
   <g  id="D11pin">
    <path  d="M81.428,41.457c0,-1.322,1.069,-2.396,2.394,-2.396s2.395,1.072,2.395,2.396" fill="#BFBFBF"/>
    <path  d="M86.214,41.457c0,1.321,-1.07,2.394,-2.395,2.394s-2.395,-1.07,-2.395,-2.394" fill="#E6E6E6"/>
    <circle  cx="83.821" cy="41.457" r="1.197" fill="#383838"/>
   </g>
   <g  id="E11pin">
    <path  d="M81.428,48.657c0,-1.322,1.069,-2.394,2.394,-2.394s2.395,1.07,2.395,2.394" fill="#BFBFBF"/>
    <path  d="M86.214,48.657c0,1.322,-1.07,2.395,-2.395,2.395s-2.395,-1.072,-2.395,-2.395" fill="#E6E6E6"/>
    <circle  cx="83.821" cy="48.657" r="1.197" fill="#383838"/>
   </g>
   <g  id="A12pin">
    <path  d="M88.626,19.858c0,-1.322,1.072,-2.396,2.396,-2.396c1.318,0,2.393,1.072,2.393,2.396" fill="#BFBFBF"/>
    <path  d="M93.414,19.858c0,1.319,-1.072,2.393,-2.393,2.393c-1.322,0,-2.396,-1.072,-2.396,-2.393l0,0" fill="#E6E6E6"/>
    <circle  cx="91.022" cy="19.857" r="1.196" fill="#383838"/>
   </g>
   <g  id="B12pin">
    <path  d="M88.626,27.058c0,-1.322,1.072,-2.396,2.396,-2.396c1.318,0,2.393,1.071,2.393,2.396" fill="#BFBFBF"/>
    <path  d="M93.414,27.058c0,1.321,-1.072,2.393,-2.393,2.393c-1.322,0,-2.396,-1.07,-2.396,-2.393" fill="#E6E6E6"/>
    <circle  cx="91.022" cy="27.057" r="1.197" fill="#383838"/>
   </g>
   <g  id="C12pin">
    <path  d="M88.626,34.256c0,-1.319,1.072,-2.394,2.396,-2.394c1.318,0,2.393,1.072,2.393,2.394" fill="#BFBFBF"/>
    <path  d="M93.414,34.256c0,1.322,-1.072,2.396,-2.393,2.396c-1.322,0,-2.396,-1.072,-2.396,-2.396l0,0" fill="#E6E6E6"/>
    <circle  cx="91.022" cy="34.257" r="1.196" fill="#383838"/>
   </g>
   <g  id="D12pin">
    <path  d="M88.626,41.457c0,-1.322,1.072,-2.396,2.396,-2.396c1.318,0,2.393,1.072,2.393,2.396" fill="#BFBFBF"/>
    <path  d="M93.414,41.457c0,1.321,-1.072,2.394,-2.393,2.394c-1.322,0,-2.396,-1.07,-2.396,-2.394" fill="#E6E6E6"/>
    <circle  cx="91.022" cy="41.457" r="1.197" fill="#383838"/>
   </g>
   <g  id="E12pin">
    <path  d="M88.626,48.657c0,-1.322,1.072,-2.394,2.396,-2.394c1.318,0,2.393,1.07,2.393,2.394" fill="#BFBFBF"/>
    <path  d="M93.414,48.657c0,1.322,-1.072,2.395,-2.393,2.395c-1.322,0,-2.396,-1.072,-2.396,-2.395" fill="#E6E6E6"/>
    <circle  cx="91.022" cy="48.657" r="1.197" fill="#383838"/>
   </g>
   <g  id="A13pin">
    <path  d="M95.826,19.858c0,-1.322,1.072,-2.396,2.396,-2.396c1.322,0,2.393,1.072,2.393,2.396" fill="#BFBFBF"/>
    <path  d="M100.614,19.858c0,1.319,-1.069,2.393,-2.393,2.393s-2.396,-1.072,-2.396,-2.393l0,0" fill="#E6E6E6"/>
    <circle  cx="98.221" cy="19.857" r="1.196" fill="#383838"/>
   </g>
   <g  id="B13pin">
    <path  d="M95.826,27.058c0,-1.322,1.072,-2.396,2.396,-2.396c1.322,0,2.393,1.071,2.393,2.396" fill="#BFBFBF"/>
    <path  d="M100.614,27.058c0,1.321,-1.069,2.393,-2.393,2.393s-2.396,-1.07,-2.396,-2.393" fill="#E6E6E6"/>
    <circle  cx="98.221" cy="27.057" r="1.197" fill="#383838"/>
   </g>
   <g  id="C13pin">
    <path  d="M95.826,34.256c0,-1.319,1.072,-2.394,2.396,-2.394c1.322,0,2.393,1.072,2.393,2.394" fill="#BFBFBF"/>
    <path  d="M100.614,34.256c0,1.322,-1.069,2.396,-2.393,2.396s-2.396,-1.072,-2.396,-2.396l0,0" fill="#E6E6E6"/>
    <circle  cx="98.221" cy="34.257" r="1.196" fill="#383838"/>
   </g>
   <g  id="D13pin">
    <path  d="M95.826,41.457c0,-1.322,1.072,-2.396,2.396,-2.396c1.322,0,2.393,1.072,2.393,2.396" fill="#BFBFBF"/>
    <path  d="M100.614,41.457c0,1.321,-1.069,2.394,-2.393,2.394s-2.396,-1.07,-2.396,-2.394" fill="#E6E6E6"/>
    <circle  cx="98.221" cy="41.457" r="1.197" fill="#383838"/>
   </g>
   <g  id="E13pin">
    <path  d="M95.826,48.657c0,-1.322,1.072,-2.394,2.396,-2.394c1.322,0,2.393,1.07,2.393,2.394" fill="#BFBFBF"/>
    <path  d="M100.614,48.657c0,1.322,-1.069,2.395,-2.393,2.395s-2.396,-1.072,-2.396,-2.395" fill="#E6E6E6"/>
    <circle  cx="98.221" cy="48.657" r="1.197" fill="#383838"/>
   </g>
   <g  id="A14pin">
    <path  d="M103.028,19.858c0,-1.322,1.07,-2.396,2.394,-2.396c1.322,0,2.396,1.072,2.396,2.396" fill="#BFBFBF"/>
    <path  d="M107.815,19.858c0,1.319,-1.071,2.393,-2.396,2.393c-1.322,0,-2.394,-1.072,-2.394,-2.393l0,0" fill="#E6E6E6"/>
    <circle  cx="105.419" cy="19.857" r="1.196" fill="#383838"/>
   </g>
   <g  id="B14pin">
    <path  d="M103.028,27.058c0,-1.322,1.07,-2.396,2.394,-2.396c1.322,0,2.396,1.071,2.396,2.396" fill="#BFBFBF"/>
    <path  d="M107.815,27.058c0,1.321,-1.071,2.393,-2.396,2.393c-1.322,0,-2.394,-1.07,-2.394,-2.393" fill="#E6E6E6"/>
    <circle  cx="105.419" cy="27.057" r="1.197" fill="#383838"/>
   </g>
   <g  id="C14pin">
    <path  d="M103.028,34.256c0,-1.319,1.07,-2.394,2.394,-2.394c1.322,0,2.396,1.072,2.396,2.394" fill="#BFBFBF"/>
    <path  d="M107.815,34.256c0,1.322,-1.071,2.396,-2.396,2.396c-1.322,0,-2.394,-1.072,-2.394,-2.396l0,0" fill="#E6E6E6"/>
    <circle  cx="105.419" cy="34.257" r="1.196" fill="#383838"/>
   </g>
   <g  id="D14pin">
    <path  d="M103.028,41.457c0,-1.322,1.07,-2.396,2.394,-2.396c1.322,0,2.396,1.072,2.396,2.396" fill="#BFBFBF"/>
    <path  d="M107.815,41.457c0,1.321,-1.071,2.394,-2.396,2.394c-1.322,0,-2.394,-1.07,-2.394,-2.394" fill="#E6E6E6"/>
    <circle  cx="105.419" cy="41.457" r="1.197" fill="#383838"/>
   </g>
   <g  id="E14pin">
    <path  d="M103.028,48.657c0,-1.322,1.07,-2.394,2.394,-2.394c1.322,0,2.396,1.07,2.396,2.394" fill="#BFBFBF"/>
    <path  d="M107.815,48.657c0,1.322,-1.071,2.395,-2.396,2.395c-1.322,0,-2.394,-1.072,-2.394,-2.395" fill="#E6E6E6"/>
    <circle  cx="105.419" cy="48.657" r="1.197" fill="#383838"/>
   </g>
   <g  id="A15pin">
    <path  d="M110.227,19.858c0.002,-1.322,1.075,-2.394,2.397,-2.392c1.317,0.002,2.387,1.07,2.39,2.392" fill="#BFBFBF"/>
    <path  d="M115.014,19.858c0.002,1.319,-1.068,2.395,-2.39,2.396c-1.322,0.002,-2.396,-1.067,-2.397,-2.392c0,-0.002,0,-0.004,0,-0.006" fill="#E6E6E6"/>
    <circle  cx="112.621" cy="19.857" r="1.196" fill="#383838"/>
   </g>
   <g  id="B15pin">
    <path  d="M110.227,27.058c0.002,-1.322,1.075,-2.394,2.397,-2.392c1.317,0.002,2.387,1.071,2.39,2.392" fill="#BFBFBF"/>
    <path  d="M115.014,27.058c0.002,1.321,-1.068,2.395,-2.39,2.396c-1.322,0.002,-2.396,-1.068,-2.397,-2.39c0,-0.004,0,-0.006,0,-0.008" fill="#E6E6E6"/>
    <circle  cx="112.621" cy="27.057" r="1.197" fill="#383838"/>
   </g>
   <g  id="C15pin">
    <path  d="M110.227,34.256c0.002,-1.319,1.075,-2.392,2.397,-2.39c1.317,0.003,2.387,1.07,2.39,2.39" fill="#BFBFBF"/>
    <path  d="M115.014,34.256c0.002,1.322,-1.068,2.396,-2.39,2.397c-1.322,0.002,-2.396,-1.067,-2.397,-2.391c0,-0.002,0,-0.004,0,-0.008" fill="#E6E6E6"/>
    <circle  cx="112.621" cy="34.257" r="1.196" fill="#383838"/>
   </g>
   <g  id="D15pin">
    <path  d="M110.227,41.457c0.002,-1.322,1.075,-2.394,2.397,-2.392c1.317,0.002,2.387,1.07,2.39,2.392" fill="#BFBFBF"/>
    <path  d="M115.014,41.457c0.002,1.321,-1.068,2.396,-2.39,2.396c-1.322,0.002,-2.396,-1.067,-2.397,-2.391c0,-0.002,0,-0.004,0,-0.006" fill="#E6E6E6"/>
    <circle  cx="112.621" cy="41.457" r="1.197" fill="#383838"/>
   </g>
   <g  id="E15pin">
    <path  d="M110.227,48.657c0.002,-1.322,1.075,-2.394,2.397,-2.391c1.317,0.002,2.387,1.071,2.39,2.391" fill="#BFBFBF"/>
    <path  d="M115.014,48.657c0.002,1.322,-1.068,2.395,-2.39,2.396c-1.322,0.005,-2.396,-1.065,-2.397,-2.389c0,-0.002,0,-0.007,0,-0.009" fill="#E6E6E6"/>
    <circle  cx="112.621" cy="48.657" r="1.197" fill="#383838"/>
   </g>
   <g  id="A16pin">
    <path  d="M117.428,19.858c0.003,-1.322,1.073,-2.394,2.396,-2.392c1.318,0.002,2.389,1.07,2.391,2.392" fill="#BFBFBF"/>
    <path  d="M122.214,19.858c0.002,1.319,-1.066,2.395,-2.391,2.396s-2.395,-1.067,-2.396,-2.392c0,-0.002,0,-0.004,0,-0.006" fill="#E6E6E6"/>
    <circle  cx="119.821" cy="19.857" r="1.196" fill="#383838"/>
   </g>
   <g  id="B16pin">
    <path  d="M117.428,27.058c0.003,-1.322,1.073,-2.394,2.396,-2.392c1.318,0.002,2.389,1.071,2.391,2.392" fill="#BFBFBF"/>
    <path  d="M122.214,27.058c0.002,1.321,-1.066,2.395,-2.391,2.396s-2.395,-1.068,-2.396,-2.39c0,-0.004,0,-0.006,0,-0.008" fill="#E6E6E6"/>
    <circle  cx="119.821" cy="27.057" r="1.197" fill="#383838"/>
   </g>
   <g  id="C16pin">
    <path  d="M117.428,34.256c0.003,-1.319,1.073,-2.392,2.396,-2.39c1.318,0.003,2.389,1.07,2.391,2.39" fill="#BFBFBF"/>
    <path  d="M122.214,34.256c0.002,1.322,-1.066,2.396,-2.391,2.397s-2.395,-1.067,-2.396,-2.391c0,-0.002,0,-0.004,0,-0.008" fill="#E6E6E6"/>
    <circle  cx="119.821" cy="34.257" r="1.196" fill="#383838"/>
   </g>
   <g  id="D16pin">
    <path  d="M117.428,41.457c0.003,-1.322,1.073,-2.394,2.396,-2.392c1.318,0.002,2.389,1.07,2.391,2.392" fill="#BFBFBF"/>
    <path  d="M122.214,41.457c0.002,1.321,-1.066,2.396,-2.391,2.396c-1.322,0.002,-2.395,-1.067,-2.396,-2.391c0,-0.002,0,-0.004,0,-0.006" fill="#E6E6E6"/>
    <circle  cx="119.821" cy="41.457" r="1.197" fill="#383838"/>
   </g>
   <g  id="E16pin">
    <path  d="M117.428,48.657c0.003,-1.322,1.073,-2.394,2.396,-2.391c1.318,0.002,2.389,1.071,2.391,2.391" fill="#BFBFBF"/>
    <path  d="M122.214,48.657c0.002,1.322,-1.066,2.395,-2.391,2.396c-1.322,0.005,-2.395,-1.065,-2.396,-2.389c0,-0.002,0,-0.007,0,-0.009" fill="#E6E6E6"/>
    <circle  cx="119.821" cy="48.657" r="1.197" fill="#383838"/>
   </g>
   <g  id="A17pin">
    <path  d="M124.626,19.858c0.002,-1.322,1.074,-2.394,2.396,-2.392c1.318,0.002,2.389,1.07,2.391,2.392" fill="#BFBFBF"/>
    <path  d="M129.414,19.858c0.002,1.319,-1.067,2.395,-2.392,2.396c-1.321,0.002,-2.396,-1.067,-2.396,-2.392c0,-0.002,0,-0.004,0,-0.006" fill="#E6E6E6"/>
    <circle  cx="127.02" cy="19.857" r="1.196" fill="#383838"/>
   </g>
   <g  id="B17pin">
    <path  d="M124.626,27.058c0.002,-1.322,1.074,-2.394,2.396,-2.392c1.318,0.002,2.389,1.071,2.391,2.392" fill="#BFBFBF"/>
    <path  d="M129.414,27.058c0.002,1.321,-1.067,2.395,-2.392,2.396c-1.321,0.002,-2.396,-1.068,-2.396,-2.39c0,-0.004,0,-0.006,0,-0.008" fill="#E6E6E6"/>
    <circle  cx="127.02" cy="27.057" r="1.197" fill="#383838"/>
   </g>
   <g  id="C17pin">
    <path  d="M124.626,34.256c0.002,-1.319,1.074,-2.392,2.396,-2.39c1.318,0.003,2.389,1.07,2.391,2.39" fill="#BFBFBF"/>
    <path  d="M129.414,34.256c0.002,1.322,-1.067,2.396,-2.392,2.397c-1.321,0.002,-2.396,-1.067,-2.396,-2.391c0,-0.002,0,-0.004,0,-0.008" fill="#E6E6E6"/>
    <circle  cx="127.02" cy="34.257" r="1.196" fill="#383838"/>
   </g>
   <g  id="D17pin">
    <path  d="M124.626,41.457c0.002,-1.322,1.074,-2.394,2.396,-2.392c1.318,0.002,2.389,1.07,2.391,2.392" fill="#BFBFBF"/>
    <path  d="M129.414,41.457c0.002,1.321,-1.067,2.396,-2.392,2.396c-1.321,0.002,-2.396,-1.067,-2.396,-2.391c0,-0.002,0,-0.004,0,-0.006" fill="#E6E6E6"/>
    <circle  cx="127.02" cy="41.457" r="1.197" fill="#383838"/>
   </g>
   <g  id="E17pin">
    <path  d="M124.626,48.657c0.002,-1.322,1.074,-2.394,2.396,-2.391c1.318,0.002,2.389,1.071,2.391,2.391" fill="#BFBFBF"/>
    <path  d="M129.414,48.657c0.002,1.322,-1.067,2.395,-2.392,2.396c-1.321,0.005,-2.396,-1.065,-2.396,-2.389c0,-0.002,0,-0.007,0,-0.009" fill="#E6E6E6"/>
    <circle  cx="127.02" cy="48.657" r="1.197" fill="#383838"/>
   </g>
   <g  id="F1pin">
    <path  d="M9.427,70.256c0,-1.32,1.071,-2.395,2.395,-2.395c1.324,0,2.394,1.07,2.394,2.395" fill="#BFBFBF"/>
    <path  d="M14.214,70.256c0,1.322,-1.07,2.396,-2.394,2.396c-1.324,0,-2.395,-1.072,-2.395,-2.396l0,0" fill="#E6E6E6"/>
    <circle  cx="11.822" cy="70.257" r="1.196" fill="#383838"/>
   </g>
   <g  id="G1pin">
    <path  d="M9.427,77.457c0,-1.322,1.071,-2.396,2.395,-2.396c1.324,0,2.394,1.072,2.394,2.396" fill="#BFBFBF"/>
    <path  d="M14.214,77.457c0,1.32,-1.07,2.395,-2.394,2.395c-1.324,0,-2.395,-1.07,-2.395,-2.395l0,0" fill="#E6E6E6"/>
    <circle  cx="11.822" cy="77.456" r="1.196" fill="#383838"/>
   </g>
   <g  id="H1pin">
    <path  d="M9.427,84.657c0,-1.322,1.071,-2.394,2.395,-2.394c1.324,0,2.394,1.069,2.394,2.394" fill="#BFBFBF"/>
    <path  d="M14.214,84.657c0,1.321,-1.07,2.395,-2.394,2.395c-1.324,0,-2.395,-1.071,-2.395,-2.395" fill="#E6E6E6"/>
    <circle  cx="11.822" cy="84.657" r="1.197" fill="#383838"/>
   </g>
   <g  id="I1pin">
    <path  d="M9.427,91.857c0,-1.321,1.071,-2.396,2.395,-2.396c1.324,0,2.394,1.072,2.394,2.396" fill="#BFBFBF"/>
    <path  d="M14.214,91.857c0,1.319,-1.07,2.394,-2.394,2.394c-1.324,0,-2.395,-1.071,-2.395,-2.394l0,0" fill="#E6E6E6"/>
    <circle  cx="11.822" cy="91.857" r="1.196" fill="#383838"/>
   </g>
   <g  id="J1pin">
    <path  d="M9.427,99.059c0,-1.322,1.071,-2.396,2.395,-2.396c1.324,0,2.394,1.07,2.394,2.396" fill="#BFBFBF"/>
    <path  d="M14.214,99.059c0,1.32,-1.07,2.393,-2.394,2.393c-1.324,0,-2.395,-1.07,-2.395,-2.393l0,0" fill="#E6E6E6"/>
    <circle  cx="11.822" cy="99.057" r="1.197" fill="#383838"/>
   </g>
   <g  id="F2pin">
    <path  d="M16.627,70.256c0,-1.32,1.071,-2.395,2.395,-2.395c1.32,0,2.394,1.07,2.394,2.395" fill="#BFBFBF"/>
    <path  d="M21.414,70.256c0,1.322,-1.07,2.396,-2.393,2.396c-1.323,0,-2.396,-1.069,-2.396,-2.394c0,-0.002,0,-0.002,0,-0.004" fill="#E6E6E6"/>
    <circle  cx="19.022" cy="70.257" r="1.196" fill="#383838"/>
   </g>
   <g  id="G2pin">
    <path  d="M16.627,77.457c0,-1.322,1.071,-2.396,2.395,-2.396c1.32,0,2.394,1.072,2.394,2.396" fill="#BFBFBF"/>
    <path  d="M21.414,77.457c0,1.32,-1.07,2.396,-2.393,2.396c-1.323,0,-2.396,-1.07,-2.396,-2.395l0,-0.002" fill="#E6E6E6"/>
    <circle  cx="19.022" cy="77.456" r="1.196" fill="#383838"/>
   </g>
   <g  id="H2pin">
    <path  d="M16.627,84.657c0,-1.322,1.071,-2.394,2.395,-2.394c1.32,0,2.394,1.069,2.394,2.394" fill="#BFBFBF"/>
    <path  d="M21.414,84.657c0,1.321,-1.07,2.395,-2.393,2.395c-1.322,0.003,-2.396,-1.069,-2.396,-2.393c0,0,0,0,0,-0.002" fill="#E6E6E6"/>
    <circle  cx="19.022" cy="84.657" r="1.197" fill="#383838"/>
   </g>
   <g  id="I2pin">
    <path  d="M16.627,91.857c0,-1.321,1.071,-2.396,2.395,-2.396c1.32,0,2.394,1.072,2.394,2.396" fill="#BFBFBF"/>
    <path  d="M21.414,91.857c0,1.319,-1.07,2.394,-2.393,2.396c-1.322,0,-2.396,-1.069,-2.396,-2.394c0,-0.002,0,-0.002,0,-0.002" fill="#E6E6E6"/>
    <circle  cx="19.022" cy="91.857" r="1.196" fill="#383838"/>
   </g>
   <g  id="J2pin">
    <path  d="M16.627,99.059c0,-1.322,1.071,-2.396,2.395,-2.396c1.32,0,2.394,1.07,2.394,2.396" fill="#BFBFBF"/>
    <path  d="M21.414,99.059c0,1.32,-1.07,2.395,-2.393,2.395c-1.323,0,-2.396,-1.07,-2.396,-2.393l0,-0.002" fill="#E6E6E6"/>
    <circle  cx="19.022" cy="99.057" r="1.197" fill="#383838"/>
   </g>
   <g  id="F3pin">
    <path  d="M23.826,70.256c0,-1.32,1.072,-2.395,2.395,-2.395c1.321,0,2.395,1.07,2.395,2.395" fill="#BFBFBF"/>
    <path  d="M28.615,70.256c0,1.322,-1.072,2.396,-2.395,2.396c-1.321,0,-2.395,-1.072,-2.395,-2.396" fill="#E6E6E6"/>
    <circle  cx="26.221" cy="70.257" r="1.196" fill="#383838"/>
   </g>
   <g  id="G3pin">
    <path  d="M23.826,77.457c0,-1.322,1.072,-2.396,2.395,-2.396c1.321,0,2.395,1.072,2.395,2.396" fill="#BFBFBF"/>
    <path  d="M28.615,77.457c0,1.32,-1.072,2.395,-2.395,2.395c-1.321,0,-2.395,-1.07,-2.395,-2.395" fill="#E6E6E6"/>
    <circle  cx="26.221" cy="77.456" r="1.196" fill="#383838"/>
   </g>
   <g  id="H3pin">
    <path  d="M23.826,84.657c0,-1.322,1.072,-2.394,2.395,-2.394c1.321,0,2.395,1.069,2.395,2.394" fill="#BFBFBF"/>
    <path  d="M28.615,84.657c0,1.321,-1.072,2.395,-2.395,2.395c-1.321,0,-2.395,-1.071,-2.395,-2.395l0,0" fill="#E6E6E6"/>
    <circle  cx="26.221" cy="84.657" r="1.197" fill="#383838"/>
   </g>
   <g  id="I3pin">
    <path  d="M23.826,91.857c0,-1.321,1.072,-2.396,2.395,-2.396c1.321,0,2.395,1.072,2.395,2.396" fill="#BFBFBF"/>
    <path  d="M28.615,91.857c0,1.319,-1.072,2.394,-2.395,2.394c-1.321,0,-2.395,-1.071,-2.395,-2.394" fill="#E6E6E6"/>
    <circle  cx="26.221" cy="91.857" r="1.196" fill="#383838"/>
   </g>
   <g  id="J3pin">
    <path  d="M23.826,99.059c0,-1.322,1.072,-2.396,2.395,-2.396c1.321,0,2.395,1.07,2.395,2.396" fill="#BFBFBF"/>
    <path  d="M28.615,99.059c0,1.32,-1.072,2.393,-2.395,2.393c-1.321,0,-2.395,-1.07,-2.395,-2.393l0,0" fill="#E6E6E6"/>
    <circle  cx="26.221" cy="99.057" r="1.197" fill="#383838"/>
   </g>
   <g  id="F4pin">
    <path  d="M31.028,70.256c0,-1.32,1.072,-2.395,2.394,-2.395c1.322,0,2.395,1.07,2.395,2.395" fill="#BFBFBF"/>
    <path  d="M35.815,70.256c0,1.322,-1.071,2.396,-2.395,2.396c-1.32,0,-2.394,-1.072,-2.394,-2.396" fill="#E6E6E6"/>
    <circle  cx="33.42" cy="70.257" r="1.196" fill="#383838"/>
   </g>
   <g  id="G4pin">
    <path  d="M31.028,77.457c0,-1.322,1.072,-2.396,2.394,-2.396c1.322,0,2.395,1.072,2.395,2.396" fill="#BFBFBF"/>
    <path  d="M35.815,77.457c0,1.32,-1.071,2.395,-2.395,2.395c-1.32,0,-2.394,-1.07,-2.394,-2.395" fill="#E6E6E6"/>
    <circle  cx="33.42" cy="77.456" r="1.196" fill="#383838"/>
   </g>
   <g  id="H4pin">
    <path  d="M31.028,84.657c0,-1.322,1.072,-2.394,2.394,-2.394c1.322,0,2.395,1.069,2.395,2.394" fill="#BFBFBF"/>
    <path  d="M35.815,84.657c0,1.321,-1.071,2.395,-2.395,2.395c-1.32,0,-2.394,-1.071,-2.394,-2.395l0,0" fill="#E6E6E6"/>
    <circle  cx="33.42" cy="84.657" r="1.197" fill="#383838"/>
   </g>
   <g  id="I4pin">
    <path  d="M31.028,91.857c0,-1.321,1.072,-2.396,2.394,-2.396c1.322,0,2.395,1.072,2.395,2.396" fill="#BFBFBF"/>
    <path  d="M35.815,91.857c0,1.319,-1.071,2.394,-2.395,2.394c-1.32,0,-2.394,-1.071,-2.394,-2.394" fill="#E6E6E6"/>
    <circle  cx="33.42" cy="91.857" r="1.196" fill="#383838"/>
   </g>
   <g  id="J4pin">
    <path  d="M31.028,99.059c0,-1.322,1.072,-2.396,2.394,-2.396c1.322,0,2.395,1.07,2.395,2.396" fill="#BFBFBF"/>
    <path  d="M35.815,99.059c0,1.32,-1.071,2.393,-2.395,2.393c-1.32,0,-2.394,-1.07,-2.394,-2.393l0,0" fill="#E6E6E6"/>
    <circle  cx="33.42" cy="99.057" r="1.197" fill="#383838"/>
   </g>
   <g  id="F5pin">
    <path  d="M38.228,70.256c0,-1.32,1.07,-2.395,2.394,-2.395c1.324,0,2.395,1.07,2.395,2.395" fill="#BFBFBF"/>
    <path  d="M43.015,70.256c0,1.322,-1.071,2.396,-2.395,2.396c-1.324,0,-2.394,-1.072,-2.394,-2.396" fill="#E6E6E6"/>
    <circle  cx="40.62" cy="70.257" r="1.196" fill="#383838"/>
   </g>
   <g  id="G5pin">
    <path  d="M38.228,77.457c0,-1.322,1.07,-2.396,2.394,-2.396c1.324,0,2.395,1.072,2.395,2.396" fill="#BFBFBF"/>
    <path  d="M43.015,77.457c0,1.32,-1.071,2.395,-2.395,2.395c-1.324,0,-2.394,-1.07,-2.394,-2.395" fill="#E6E6E6"/>
    <circle  cx="40.62" cy="77.456" r="1.196" fill="#383838"/>
   </g>
   <g  id="H5pin">
    <path  d="M38.228,84.657c0,-1.322,1.07,-2.394,2.394,-2.394c1.324,0,2.395,1.069,2.395,2.394" fill="#BFBFBF"/>
    <path  d="M43.015,84.657c0,1.321,-1.071,2.395,-2.395,2.395c-1.324,0,-2.394,-1.071,-2.394,-2.395l0,0" fill="#E6E6E6"/>
    <circle  cx="40.62" cy="84.657" r="1.197" fill="#383838"/>
   </g>
   <g  id="I5pin">
    <path  d="M38.228,91.857c0,-1.321,1.07,-2.396,2.394,-2.396c1.324,0,2.395,1.072,2.395,2.396" fill="#BFBFBF"/>
    <path  d="M43.015,91.857c0,1.319,-1.071,2.394,-2.395,2.394c-1.324,0,-2.394,-1.071,-2.394,-2.394" fill="#E6E6E6"/>
    <circle  cx="40.62" cy="91.857" r="1.196" fill="#383838"/>
   </g>
   <g  id="J5pin">
    <path  d="M38.228,99.059c0,-1.322,1.07,-2.396,2.394,-2.396c1.324,0,2.395,1.07,2.395,2.396" fill="#BFBFBF"/>
    <path  d="M43.015,99.059c0,1.32,-1.071,2.393,-2.395,2.393c-1.324,0,-2.394,-1.07,-2.394,-2.393l0,0" fill="#E6E6E6"/>
    <circle  cx="40.62" cy="99.057" r="1.197" fill="#383838"/>
   </g>
   <g  id="F6pin">
    <path  d="M45.427,70.256c0,-1.32,1.071,-2.395,2.395,-2.395c1.324,0,2.394,1.07,2.394,2.395" fill="#BFBFBF"/>
    <path  d="M50.214,70.256c0,1.322,-1.07,2.396,-2.394,2.396c-1.324,0,-2.395,-1.072,-2.395,-2.396" fill="#E6E6E6"/>
    <circle  cx="47.822" cy="70.257" r="1.196" fill="#383838"/>
   </g>
   <g  id="G6pin">
    <path  d="M45.427,77.457c0,-1.322,1.071,-2.396,2.395,-2.396c1.324,0,2.394,1.072,2.394,2.396" fill="#BFBFBF"/>
    <path  d="M50.214,77.457c0,1.32,-1.07,2.395,-2.394,2.395c-1.324,0,-2.395,-1.07,-2.395,-2.395" fill="#E6E6E6"/>
    <circle  cx="47.822" cy="77.456" r="1.196" fill="#383838"/>
   </g>
   <g  id="H6pin">
    <path  d="M45.427,84.657c0,-1.322,1.071,-2.394,2.395,-2.394c1.324,0,2.394,1.069,2.394,2.394" fill="#BFBFBF"/>
    <path  d="M50.214,84.657c0,1.321,-1.07,2.395,-2.394,2.395c-1.324,0,-2.395,-1.071,-2.395,-2.395l0,0" fill="#E6E6E6"/>
    <circle  cx="47.822" cy="84.657" r="1.197" fill="#383838"/>
   </g>
   <g  id="I6pin">
    <path  d="M45.427,91.857c0,-1.321,1.071,-2.396,2.395,-2.396c1.324,0,2.394,1.072,2.394,2.396" fill="#BFBFBF"/>
    <path  d="M50.214,91.857c0,1.319,-1.07,2.394,-2.394,2.394c-1.324,0,-2.395,-1.071,-2.395,-2.394" fill="#E6E6E6"/>
    <circle  cx="47.822" cy="91.857" r="1.196" fill="#383838"/>
   </g>
   <g  id="J6pin">
    <path  d="M45.427,99.059c0,-1.322,1.071,-2.396,2.395,-2.396c1.324,0,2.394,1.07,2.394,2.396" fill="#BFBFBF"/>
    <path  d="M50.214,99.059c0,1.32,-1.07,2.393,-2.394,2.393c-1.324,0,-2.395,-1.07,-2.395,-2.393l0,0" fill="#E6E6E6"/>
    <circle  cx="47.822" cy="99.057" r="1.197" fill="#383838"/>
   </g>
   <g  id="F7pin">
    <path  d="M52.627,70.256c0,-1.32,1.071,-2.395,2.395,-2.395c1.32,0,2.394,1.07,2.394,2.395" fill="#BFBFBF"/>
    <path  d="M57.414,70.256c0,1.322,-1.072,2.396,-2.394,2.396s-2.395,-1.072,-2.395,-2.396" fill="#E6E6E6"/>
    <circle  cx="55.022" cy="70.257" r="1.196" fill="#383838"/>
   </g>
   <g  id="G7pin">
    <path  d="M52.627,77.457c0,-1.322,1.071,-2.396,2.395,-2.396c1.32,0,2.394,1.072,2.394,2.396" fill="#BFBFBF"/>
    <path  d="M57.414,77.457c0,1.32,-1.072,2.395,-2.394,2.395s-2.395,-1.07,-2.395,-2.395" fill="#E6E6E6"/>
    <circle  cx="55.022" cy="77.456" r="1.196" fill="#383838"/>
   </g>
   <g  id="H7pin">
    <path  d="M52.627,84.657c0,-1.322,1.071,-2.394,2.395,-2.394c1.32,0,2.394,1.069,2.394,2.394" fill="#BFBFBF"/>
    <path  d="M57.414,84.657c0,1.321,-1.072,2.395,-2.394,2.395s-2.395,-1.071,-2.395,-2.395l0,0" fill="#E6E6E6"/>
    <circle  cx="55.022" cy="84.657" r="1.197" fill="#383838"/>
   </g>
   <g  id="I7pin">
    <path  d="M52.627,91.857c0,-1.321,1.071,-2.396,2.395,-2.396c1.32,0,2.394,1.072,2.394,2.396" fill="#BFBFBF"/>
    <path  d="M57.414,91.857c0,1.319,-1.072,2.394,-2.394,2.394s-2.395,-1.071,-2.395,-2.394" fill="#E6E6E6"/>
    <circle  cx="55.022" cy="91.857" r="1.196" fill="#383838"/>
   </g>
   <g  id="J7pin">
    <path  d="M52.627,99.059c0,-1.322,1.071,-2.396,2.395,-2.396c1.32,0,2.394,1.07,2.394,2.396" fill="#BFBFBF"/>
    <path  d="M57.414,99.059c0,1.32,-1.072,2.393,-2.394,2.393s-2.395,-1.07,-2.395,-2.393l0,0" fill="#E6E6E6"/>
    <circle  cx="55.022" cy="99.057" r="1.197" fill="#383838"/>
   </g>
   <g  id="F8pin">
    <path  d="M59.826,70.256c0,-1.32,1.072,-2.395,2.395,-2.395c1.321,0,2.393,1.07,2.393,2.395" fill="#BFBFBF"/>
    <path  d="M64.614,70.256c0,1.322,-1.07,2.396,-2.393,2.396c-1.323,0,-2.395,-1.072,-2.395,-2.396" fill="#E6E6E6"/>
    <circle  cx="62.221" cy="70.257" r="1.196" fill="#383838"/>
   </g>
   <g  id="G8pin">
    <path  d="M59.826,77.457c0,-1.322,1.072,-2.396,2.395,-2.396c1.321,0,2.393,1.072,2.393,2.396" fill="#BFBFBF"/>
    <path  d="M64.614,77.457c0,1.32,-1.07,2.395,-2.393,2.395c-1.323,0,-2.395,-1.07,-2.395,-2.395" fill="#E6E6E6"/>
    <circle  cx="62.221" cy="77.456" r="1.196" fill="#383838"/>
   </g>
   <g  id="H8pin">
    <path  d="M59.826,84.657c0,-1.322,1.072,-2.394,2.395,-2.394c1.321,0,2.393,1.069,2.393,2.394" fill="#BFBFBF"/>
    <path  d="M64.614,84.657c0,1.321,-1.07,2.395,-2.393,2.395c-1.323,0,-2.395,-1.071,-2.395,-2.395l0,0" fill="#E6E6E6"/>
    <circle  cx="62.221" cy="84.657" r="1.197" fill="#383838"/>
   </g>
   <g  id="I8pin">
    <path  d="M59.826,91.857c0,-1.321,1.072,-2.396,2.395,-2.396c1.321,0,2.393,1.072,2.393,2.396" fill="#BFBFBF"/>
    <path  d="M64.614,91.857c0,1.319,-1.07,2.394,-2.393,2.394c-1.323,0,-2.395,-1.071,-2.395,-2.394" fill="#E6E6E6"/>
    <circle  cx="62.221" cy="91.857" r="1.196" fill="#383838"/>
   </g>
   <g  id="J8pin">
    <path  d="M59.826,99.059c0,-1.322,1.072,-2.396,2.395,-2.396c1.321,0,2.393,1.07,2.393,2.396" fill="#BFBFBF"/>
    <path  d="M64.614,99.059c0,1.32,-1.07,2.393,-2.393,2.393c-1.323,0,-2.395,-1.07,-2.395,-2.393l0,0" fill="#E6E6E6"/>
    <circle  cx="62.221" cy="99.057" r="1.197" fill="#383838"/>
   </g>
   <g  id="F9pin">
    <path  d="M67.028,70.256c0,-1.32,1.072,-2.395,2.393,-2.395c1.323,0,2.396,1.07,2.396,2.395" fill="#BFBFBF"/>
    <path  d="M71.815,70.256c0,1.322,-1.071,2.396,-2.396,2.396c-1.319,0,-2.393,-1.072,-2.393,-2.396" fill="#E6E6E6"/>
    <circle  cx="69.42" cy="70.257" r="1.196" fill="#383838"/>
   </g>
   <g  id="G9pin">
    <path  d="M67.028,77.457c0,-1.322,1.072,-2.396,2.393,-2.396c1.323,0,2.396,1.072,2.396,2.396" fill="#BFBFBF"/>
    <path  d="M71.815,77.457c0,1.32,-1.071,2.395,-2.396,2.395c-1.319,0,-2.393,-1.07,-2.393,-2.395" fill="#E6E6E6"/>
    <circle  cx="69.42" cy="77.456" r="1.196" fill="#383838"/>
   </g>
   <g  id="H9pin">
    <path  d="M67.028,84.657c0,-1.322,1.072,-2.394,2.393,-2.394c1.323,0,2.396,1.069,2.396,2.394" fill="#BFBFBF"/>
    <path  d="M71.815,84.657c0,1.321,-1.071,2.395,-2.396,2.395c-1.319,0,-2.393,-1.071,-2.393,-2.395l0,0" fill="#E6E6E6"/>
    <circle  cx="69.42" cy="84.657" r="1.197" fill="#383838"/>
   </g>
   <g  id="I9pin">
    <path  d="M67.028,91.857c0,-1.321,1.072,-2.396,2.393,-2.396c1.323,0,2.396,1.072,2.396,2.396" fill="#BFBFBF"/>
    <path  d="M71.815,91.857c0,1.319,-1.071,2.394,-2.396,2.394c-1.319,0,-2.393,-1.071,-2.393,-2.394" fill="#E6E6E6"/>
    <circle  cx="69.42" cy="91.857" r="1.196" fill="#383838"/>
   </g>
   <g  id="J9pin">
    <path  d="M67.028,99.059c0,-1.322,1.072,-2.396,2.393,-2.396c1.323,0,2.396,1.07,2.396,2.396" fill="#BFBFBF"/>
    <path  d="M71.815,99.059c0,1.32,-1.071,2.393,-2.396,2.393c-1.319,0,-2.393,-1.07,-2.393,-2.393l0,0" fill="#E6E6E6"/>
    <circle  cx="69.42" cy="99.057" r="1.197" fill="#383838"/>
   </g>
   <g  id="F10pin">
    <path  d="M74.227,70.256c0,-1.32,1.071,-2.395,2.396,-2.395c1.323,0,2.394,1.07,2.394,2.395" fill="#BFBFBF"/>
    <path  d="M79.014,70.256c0,1.322,-1.07,2.396,-2.394,2.396c-1.324,0,-2.396,-1.072,-2.396,-2.396" fill="#E6E6E6"/>
    <circle  cx="76.621" cy="70.257" r="1.196" fill="#383838"/>
   </g>
   <g  id="G10pin">
    <path  d="M74.227,77.457c0,-1.322,1.071,-2.396,2.396,-2.396c1.323,0,2.394,1.072,2.394,2.396" fill="#BFBFBF"/>
    <path  d="M79.014,77.457c0,1.32,-1.07,2.395,-2.394,2.395c-1.324,0,-2.396,-1.07,-2.396,-2.395" fill="#E6E6E6"/>
    <circle  cx="76.621" cy="77.456" r="1.196" fill="#383838"/>
   </g>
   <g  id="H10pin">
    <path  d="M74.227,84.657c0,-1.322,1.071,-2.394,2.396,-2.394c1.323,0,2.394,1.069,2.394,2.394" fill="#BFBFBF"/>
    <path  d="M79.014,84.657c0,1.321,-1.07,2.395,-2.394,2.395c-1.324,0,-2.396,-1.071,-2.396,-2.395l0,0" fill="#E6E6E6"/>
    <circle  cx="76.621" cy="84.657" r="1.197" fill="#383838"/>
   </g>
   <g  id="I10pin">
    <path  d="M74.227,91.857c0,-1.321,1.071,-2.396,2.396,-2.396c1.323,0,2.394,1.072,2.394,2.396" fill="#BFBFBF"/>
    <path  d="M79.014,91.857c0,1.319,-1.07,2.394,-2.394,2.394c-1.324,0,-2.396,-1.071,-2.396,-2.394" fill="#E6E6E6"/>
    <circle  cx="76.621" cy="91.857" r="1.196" fill="#383838"/>
   </g>
   <g  id="J10pin">
    <path  d="M74.227,99.059c0,-1.322,1.071,-2.396,2.396,-2.396c1.323,0,2.394,1.07,2.394,2.396" fill="#BFBFBF"/>
    <path  d="M79.014,99.059c0,1.32,-1.07,2.393,-2.394,2.393c-1.324,0,-2.396,-1.07,-2.396,-2.393l0,0" fill="#E6E6E6"/>
    <circle  cx="76.621" cy="99.057" r="1.197" fill="#383838"/>
   </g>
   <g  id="F11pin">
    <path  d="M81.428,70.256c0,-1.32,1.069,-2.395,2.394,-2.395s2.395,1.07,2.395,2.395" fill="#BFBFBF"/>
    <path  d="M86.214,70.256c0,1.322,-1.07,2.396,-2.395,2.396s-2.395,-1.072,-2.395,-2.396" fill="#E6E6E6"/>
    <circle  cx="83.821" cy="70.257" r="1.196" fill="#383838"/>
   </g>
   <g  id="G11pin">
    <path  d="M81.428,77.457c0,-1.322,1.069,-2.396,2.394,-2.396s2.395,1.072,2.395,2.396" fill="#BFBFBF"/>
    <path  d="M86.214,77.457c0,1.32,-1.07,2.395,-2.395,2.395s-2.395,-1.07,-2.395,-2.395" fill="#E6E6E6"/>
    <circle  cx="83.821" cy="77.456" r="1.196" fill="#383838"/>
   </g>
   <g  id="H11pin">
    <path  d="M81.428,84.657c0,-1.322,1.069,-2.394,2.394,-2.394s2.395,1.069,2.395,2.394" fill="#BFBFBF"/>
    <path  d="M86.214,84.657c0,1.321,-1.07,2.395,-2.395,2.395s-2.395,-1.071,-2.395,-2.395l0,0" fill="#E6E6E6"/>
    <circle  cx="83.821" cy="84.657" r="1.197" fill="#383838"/>
   </g>
   <g  id="I11pin">
    <path  d="M81.428,91.857c0,-1.321,1.069,-2.396,2.394,-2.396s2.395,1.072,2.395,2.396" fill="#BFBFBF"/>
    <path  d="M86.214,91.857c0,1.319,-1.07,2.394,-2.395,2.394s-2.395,-1.071,-2.395,-2.394" fill="#E6E6E6"/>
    <circle  cx="83.821" cy="91.857" r="1.196" fill="#383838"/>
   </g>
   <g  id="J11pin">
    <path  d="M81.428,99.059c0,-1.322,1.069,-2.396,2.394,-2.396s2.395,1.07,2.395,2.396" fill="#BFBFBF"/>
    <path  d="M86.214,99.059c0,1.32,-1.07,2.393,-2.395,2.393s-2.395,-1.07,-2.395,-2.393l0,0" fill="#E6E6E6"/>
    <circle  cx="83.821" cy="99.057" r="1.197" fill="#383838"/>
   </g>
   <g  id="F12pin">
    <path  d="M88.626,70.256c0,-1.32,1.072,-2.395,2.396,-2.395c1.318,0,2.393,1.07,2.393,2.395" fill="#BFBFBF"/>
    <path  d="M93.414,70.256c0,1.322,-1.072,2.396,-2.393,2.396c-1.322,0,-2.396,-1.072,-2.396,-2.396" fill="#E6E6E6"/>
    <circle  cx="91.022" cy="70.257" r="1.196" fill="#383838"/>
   </g>
   <g  id="G12pin">
    <path  d="M88.626,77.457c0,-1.322,1.072,-2.396,2.396,-2.396c1.318,0,2.393,1.072,2.393,2.396" fill="#BFBFBF"/>
    <path  d="M93.414,77.457c0,1.32,-1.072,2.395,-2.393,2.395c-1.322,0,-2.396,-1.07,-2.396,-2.395" fill="#E6E6E6"/>
    <circle  cx="91.022" cy="77.456" r="1.196" fill="#383838"/>
   </g>
   <g  id="H12pin">
    <path  d="M88.626,84.657c0,-1.322,1.072,-2.394,2.396,-2.394c1.318,0,2.393,1.069,2.393,2.394" fill="#BFBFBF"/>
    <path  d="M93.414,84.657c0,1.321,-1.072,2.395,-2.393,2.395c-1.322,0,-2.396,-1.071,-2.396,-2.395l0,0" fill="#E6E6E6"/>
    <circle  cx="91.022" cy="84.657" r="1.197" fill="#383838"/>
   </g>
   <g  id="I12pin">
    <path  d="M88.626,91.857c0,-1.321,1.072,-2.396,2.396,-2.396c1.318,0,2.393,1.072,2.393,2.396" fill="#BFBFBF"/>
    <path  d="M93.414,91.857c0,1.319,-1.072,2.394,-2.393,2.394c-1.322,0,-2.396,-1.071,-2.396,-2.394" fill="#E6E6E6"/>
    <circle  cx="91.022" cy="91.857" r="1.196" fill="#383838"/>
   </g>
   <g  id="J12pin">
    <path  d="M88.626,99.059c0,-1.322,1.072,-2.396,2.396,-2.396c1.318,0,2.393,1.07,2.393,2.396" fill="#BFBFBF"/>
    <path  d="M93.414,99.059c0,1.32,-1.072,2.393,-2.393,2.393c-1.322,0,-2.396,-1.07,-2.396,-2.393l0,0" fill="#E6E6E6"/>
    <circle  cx="91.022" cy="99.057" r="1.197" fill="#383838"/>
   </g>
   <g  id="F13pin">
    <path  d="M95.826,70.256c0,-1.32,1.072,-2.395,2.396,-2.395c1.322,0,2.393,1.07,2.393,2.395" fill="#BFBFBF"/>
    <path  d="M100.614,70.256c0,1.322,-1.069,2.396,-2.393,2.396s-2.396,-1.072,-2.396,-2.396" fill="#E6E6E6"/>
    <circle  cx="98.221" cy="70.257" r="1.196" fill="#383838"/>
   </g>
   <g  id="G13pin">
    <path  d="M95.826,77.457c0,-1.322,1.072,-2.396,2.396,-2.396c1.322,0,2.393,1.072,2.393,2.396" fill="#BFBFBF"/>
    <path  d="M100.614,77.457c0,1.32,-1.069,2.395,-2.393,2.395s-2.396,-1.07,-2.396,-2.395" fill="#E6E6E6"/>
    <circle  cx="98.221" cy="77.456" r="1.196" fill="#383838"/>
   </g>
   <g  id="H13pin">
    <path  d="M95.826,84.657c0,-1.322,1.072,-2.394,2.396,-2.394c1.322,0,2.393,1.069,2.393,2.394" fill="#BFBFBF"/>
    <path  d="M100.614,84.657c0,1.321,-1.069,2.395,-2.393,2.395s-2.396,-1.071,-2.396,-2.395l0,0" fill="#E6E6E6"/>
    <circle  cx="98.221" cy="84.657" r="1.197" fill="#383838"/>
   </g>
   <g  id="I13pin">
    <path  d="M95.826,91.857c0,-1.321,1.072,-2.396,2.396,-2.396c1.322,0,2.393,1.072,2.393,2.396" fill="#BFBFBF"/>
    <path  d="M100.614,91.857c0,1.319,-1.069,2.394,-2.393,2.394s-2.396,-1.071,-2.396,-2.394" fill="#E6E6E6"/>
    <circle  cx="98.221" cy="91.857" r="1.196" fill="#383838"/>
   </g>
   <g  id="J13pin">
    <path  d="M95.826,99.059c0,-1.322,1.072,-2.396,2.396,-2.396c1.322,0,2.393,1.07,2.393,2.396" fill="#BFBFBF"/>
    <path  d="M100.614,99.059c0,1.32,-1.069,2.393,-2.393,2.393s-2.396,-1.07,-2.396,-2.393l0,0" fill="#E6E6E6"/>
    <circle  cx="98.221" cy="99.057" r="1.197" fill="#383838"/>
   </g>
   <g  id="F14pin">
    <path  d="M103.028,70.256c0,-1.32,1.07,-2.395,2.394,-2.395c1.322,0,2.396,1.07,2.396,2.395" fill="#BFBFBF"/>
    <path  d="M107.815,70.256c0,1.322,-1.071,2.396,-2.396,2.396c-1.322,0,-2.394,-1.072,-2.394,-2.396" fill="#E6E6E6"/>
    <circle  cx="105.419" cy="70.257" r="1.196" fill="#383838"/>
   </g>
   <g  id="G14pin">
    <path  d="M103.028,77.457c0,-1.322,1.07,-2.396,2.394,-2.396c1.322,0,2.396,1.072,2.396,2.396" fill="#BFBFBF"/>
    <path  d="M107.815,77.457c0,1.32,-1.071,2.395,-2.396,2.395c-1.322,0,-2.394,-1.07,-2.394,-2.395" fill="#E6E6E6"/>
    <circle  cx="105.419" cy="77.456" r="1.196" fill="#383838"/>
   </g>
   <g  id="H14pin">
    <path  d="M103.028,84.657c0,-1.322,1.07,-2.394,2.394,-2.394c1.322,0,2.396,1.069,2.396,2.394" fill="#BFBFBF"/>
    <path  d="M107.815,84.657c0,1.321,-1.071,2.395,-2.396,2.395c-1.322,0,-2.394,-1.071,-2.394,-2.395l0,0" fill="#E6E6E6"/>
    <circle  cx="105.419" cy="84.657" r="1.197" fill="#383838"/>
   </g>
   <g  id="I14pin">
    <path  d="M103.028,91.857c0,-1.321,1.07,-2.396,2.394,-2.396c1.322,0,2.396,1.072,2.396,2.396" fill="#BFBFBF"/>
    <path  d="M107.815,91.857c0,1.319,-1.071,2.394,-2.396,2.394c-1.322,0,-2.394,-1.071,-2.394,-2.394" fill="#E6E6E6"/>
    <circle  cx="105.419" cy="91.857" r="1.196" fill="#383838"/>
   </g>
   <g  id="J14pin">
    <path  d="M103.028,99.059c0,-1.322,1.07,-2.396,2.394,-2.396c1.322,0,2.396,1.07,2.396,2.396" fill="#BFBFBF"/>
    <path  d="M107.815,99.059c0,1.32,-1.071,2.393,-2.396,2.393c-1.322,0,-2.394,-1.07,-2.394,-2.393l0,0" fill="#E6E6E6"/>
    <circle  cx="105.419" cy="99.057" r="1.197" fill="#383838"/>
   </g>
   <g  id="F15pin">
    <path  d="M110.227,70.256c0.002,-1.32,1.075,-2.392,2.397,-2.39c1.317,0.003,2.387,1.069,2.39,2.39" fill="#BFBFBF"/>
    <path  d="M115.014,70.256c0.002,1.322,-1.068,2.396,-2.39,2.396c-1.322,0.003,-2.396,-1.066,-2.397,-2.391c0,-0.002,0,-0.004,0,-0.008" fill="#E6E6E6"/>
    <circle  cx="112.621" cy="70.257" r="1.196" fill="#383838"/>
   </g>
   <g  id="G15pin">
    <path  d="M110.227,77.457c0.002,-1.322,1.075,-2.395,2.397,-2.393c1.317,0.002,2.387,1.07,2.39,2.393" fill="#BFBFBF"/>
    <path  d="M115.014,77.457c0.002,1.32,-1.068,2.396,-2.39,2.396c-1.322,0.002,-2.396,-1.067,-2.397,-2.392c0,-0.002,0,-0.004,0,-0.006" fill="#E6E6E6"/>
    <circle  cx="112.621" cy="77.456" r="1.196" fill="#383838"/>
   </g>
   <g  id="H15pin">
    <path  d="M110.227,84.657c0.002,-1.322,1.075,-2.394,2.397,-2.392c1.317,0.002,2.387,1.071,2.39,2.392" fill="#BFBFBF"/>
    <path  d="M115.014,84.657c0.002,1.321,-1.068,2.395,-2.39,2.396c-1.322,0.002,-2.396,-1.064,-2.397,-2.389c0,-0.002,0,-0.007,0,-0.01" fill="#E6E6E6"/>
    <circle  cx="112.621" cy="84.657" r="1.197" fill="#383838"/>
   </g>
   <g  id="I15pin">
    <path  d="M110.227,91.857c0.002,-1.321,1.075,-2.394,2.397,-2.392c1.317,0.002,2.387,1.07,2.39,2.392" fill="#BFBFBF"/>
    <path  d="M115.014,91.857c0.002,1.319,-1.068,2.396,-2.39,2.396c-1.322,0.002,-2.396,-1.066,-2.397,-2.393c0,-0.002,0,-0.004,0,-0.006" fill="#E6E6E6"/>
    <circle  cx="112.621" cy="91.857" r="1.196" fill="#383838"/>
   </g>
   <g  id="J15pin">
    <path  d="M110.227,99.059c0.002,-1.322,1.075,-2.395,2.397,-2.393c1.317,0.002,2.387,1.068,2.39,2.393" fill="#BFBFBF"/>
    <path  d="M115.014,99.059c0.002,1.32,-1.068,2.395,-2.39,2.396c-1.322,0.002,-2.396,-1.068,-2.397,-2.39c0,-0.004,0,-0.006,0,-0.008" fill="#E6E6E6"/>
    <circle  cx="112.621" cy="99.057" r="1.197" fill="#383838"/>
   </g>
   <g  id="F16pin">
    <path  d="M117.428,70.256c0.003,-1.32,1.073,-2.392,2.396,-2.39c1.318,0.003,2.389,1.069,2.391,2.39" fill="#BFBFBF"/>
    <path  d="M122.214,70.256c0.002,1.322,-1.066,2.396,-2.391,2.396c-1.324,0.002,-2.395,-1.066,-2.396,-2.391c0,-0.002,0,-0.004,0,-0.008" fill="#E6E6E6"/>
    <circle  cx="119.821" cy="70.257" r="1.196" fill="#383838"/>
   </g>
   <g  id="G16pin">
    <path  d="M117.428,77.457c0.003,-1.322,1.073,-2.395,2.396,-2.393c1.318,0.002,2.389,1.07,2.391,2.393" fill="#BFBFBF"/>
    <path  d="M122.214,77.457c0.002,1.32,-1.066,2.396,-2.391,2.396c-1.322,0.002,-2.395,-1.067,-2.396,-2.392c0,-0.002,0,-0.004,0,-0.006" fill="#E6E6E6"/>
    <circle  cx="119.821" cy="77.456" r="1.196" fill="#383838"/>
   </g>
   <g  id="H16pin">
    <path  d="M117.428,84.657c0.003,-1.322,1.073,-2.394,2.396,-2.392c1.318,0.002,2.389,1.071,2.391,2.392" fill="#BFBFBF"/>
    <path  d="M122.214,84.657c0.002,1.321,-1.066,2.395,-2.391,2.396c-1.324,0.002,-2.395,-1.064,-2.396,-2.389c0,-0.002,0,-0.007,0,-0.01" fill="#E6E6E6"/>
    <circle  cx="119.821" cy="84.657" r="1.197" fill="#383838"/>
   </g>
   <g  id="I16pin">
    <path  d="M117.428,91.857c0.003,-1.321,1.073,-2.394,2.396,-2.392c1.318,0.002,2.389,1.07,2.391,2.392" fill="#BFBFBF"/>
    <path  d="M122.214,91.857c0.002,1.319,-1.066,2.396,-2.391,2.396s-2.395,-1.066,-2.396,-2.393c0,-0.002,0,-0.004,0,-0.006" fill="#E6E6E6"/>
    <circle  cx="119.821" cy="91.857" r="1.196" fill="#383838"/>
   </g>
   <g  id="J16pin">
    <path  d="M117.428,99.059c0.003,-1.322,1.073,-2.395,2.396,-2.393c1.318,0.002,2.389,1.068,2.391,2.393" fill="#BFBFBF"/>
    <path  d="M122.214,99.059c0.002,1.32,-1.066,2.395,-2.391,2.396s-2.395,-1.068,-2.396,-2.39c0,-0.004,0,-0.006,0,-0.008" fill="#E6E6E6"/>
    <circle  cx="119.821" cy="99.057" r="1.197" fill="#383838"/>
   </g>
   <g  id="F17pin">
    <path  d="M124.626,70.256c0.002,-1.32,1.074,-2.392,2.396,-2.39c1.318,0.003,2.389,1.069,2.391,2.39" fill="#BFBFBF"/>
    <path  d="M129.414,70.256c0.002,1.322,-1.067,2.396,-2.392,2.396c-1.321,0.003,-2.396,-1.066,-2.396,-2.391c0,-0.002,0,-0.004,0,-0.008" fill="#E6E6E6"/>
    <circle  cx="127.02" cy="70.257" r="1.196" fill="#383838"/>
   </g>
   <g  id="G17pin">
    <path  d="M124.626,77.457c0.002,-1.322,1.074,-2.395,2.396,-2.393c1.318,0.002,2.389,1.07,2.391,2.393" fill="#BFBFBF"/>
    <path  d="M129.414,77.457c0.002,1.32,-1.067,2.396,-2.392,2.396c-1.321,0.002,-2.396,-1.067,-2.396,-2.392c0,-0.002,0,-0.004,0,-0.006" fill="#E6E6E6"/>
    <circle  cx="127.02" cy="77.456" r="1.196" fill="#383838"/>
   </g>
   <g  id="H17pin">
    <path  d="M124.626,84.657c0.002,-1.322,1.074,-2.394,2.396,-2.392c1.318,0.002,2.389,1.071,2.391,2.392" fill="#BFBFBF"/>
    <path  d="M129.414,84.657c0.002,1.321,-1.067,2.395,-2.392,2.396c-1.321,0.002,-2.396,-1.064,-2.396,-2.389c0,-0.002,0,-0.007,0,-0.01" fill="#E6E6E6"/>
    <circle  cx="127.02" cy="84.657" r="1.197" fill="#383838"/>
   </g>
   <g  id="I17pin">
    <path  d="M124.626,91.857c0.002,-1.321,1.074,-2.394,2.396,-2.392c1.318,0.002,2.389,1.07,2.391,2.392" fill="#BFBFBF"/>
    <path  d="M129.414,91.857c0.002,1.319,-1.067,2.396,-2.392,2.396c-1.321,0.002,-2.396,-1.066,-2.396,-2.393c0,-0.002,0,-0.004,0,-0.006" fill="#E6E6E6"/>
    <circle  cx="127.02" cy="91.857" r="1.196" fill="#383838"/>
   </g>
   <g  id="J17pin">
    <path  d="M124.626,99.059c0.002,-1.322,1.074,-2.395,2.396,-2.393c1.318,0.002,2.389,1.068,2.391,2.393" fill="#BFBFBF"/>
    <path  d="M129.414,99.059c0.002,1.32,-1.067,2.395,-2.392,2.396c-1.321,0.002,-2.396,-1.068,-2.396,-2.39c0,-0.004,0,-0.006,0,-0.008" fill="#E6E6E6"/>
    <circle  cx="127.02" cy="99.057" r="1.197" fill="#383838"/>
   </g>
  </g>
 </g>
</g>
</g></svg>