<?xml version="1.0" encoding="UTF-8" standalone="no"?>
<!-- Created with Inkscape (http://www.inkscape.org/) -->

<svg
   xmlns:dc="http://purl.org/dc/elements/1.1/"
   xmlns:cc="http://creativecommons.org/ns#"
   xmlns:rdf="http://www.w3.org/1999/02/22-rdf-syntax-ns#"
   xmlns:svg="http://www.w3.org/2000/svg"
   xmlns="http://www.w3.org/2000/svg"
   xmlns:xlink="http://www.w3.org/1999/xlink"
   xmlns:sodipodi="http://sodipodi.sourceforge.net/DTD/sodipodi-0.dtd"
   xmlns:inkscape="http://www.inkscape.org/namespaces/inkscape"
   width="35.27504mm"
   height="11.293375mm"
   viewBox="0 0 35.27504 11.293375"
   version="1.1"
   id="svg39831"
   inkscape:version="0.92.1 r15371"
   sodipodi:docname="dc-motor-12mm.svg">
  <defs
     id="defs39825">
    <clipPath
       id="clipPath3149"
       clipPathUnits="userSpaceOnUse">
      <path
         inkscape:connector-curvature="0"
         id="path3151"
         d="M 2.372,6.645 H 23.841 V 17.45 H 2.372 Z" />
    </clipPath>
    <clipPath
       id="clipPath3165"
       clipPathUnits="userSpaceOnUse">
      <path
         inkscape:connector-curvature="0"
         id="path3167"
         d="M 0,90 H 90 V 0 H 0 Z" />
    </clipPath>
    <clipPath
       id="clipPath3321"
       clipPathUnits="userSpaceOnUse">
      <path
         inkscape:connector-curvature="0"
         id="path3323"
         d="m 34.0879,88.6362 h 4.5928 v -7.6049 h -4.5928 z" />
    </clipPath>
    <clipPath
       id="clipPath3325"
       clipPathUnits="userSpaceOnUse">
      <path
         inkscape:connector-curvature="0"
         id="path3327"
         d="m 34.0879,88.6362 h 4.5928 v -7.6049 h -4.5928 z" />
    </clipPath>
    <clipPath
       id="clipPath3349"
       clipPathUnits="userSpaceOnUse">
      <path
         inkscape:connector-curvature="0"
         id="path3351"
         d="m 43.4316,88.603 h 3.9893 v -7.605 h -3.9893 z" />
    </clipPath>
    <clipPath
       id="clipPath3353"
       clipPathUnits="userSpaceOnUse">
      <path
         inkscape:connector-curvature="0"
         id="path3355"
         d="m 43.4316,88.603 h 3.9893 v -7.605 h -3.9893 z" />
    </clipPath>
    <clipPath
       id="clipPath3377"
       clipPathUnits="userSpaceOnUse">
      <path
         inkscape:connector-curvature="0"
         id="path3379"
         d="m 52.7187,88.6362 h 3.2657 v -7.6049 h -3.2657 z" />
    </clipPath>
    <clipPath
       id="clipPath3381"
       clipPathUnits="userSpaceOnUse">
      <path
         inkscape:connector-curvature="0"
         id="path3383"
         d="m 52.7187,88.6362 h 3.2657 v -7.6049 h -3.2657 z" />
    </clipPath>
    <clipPath
       id="clipPath3453"
       clipPathUnits="userSpaceOnUse">
      <path
         inkscape:connector-curvature="0"
         id="path3455"
         d="m 79.3516,70.2334 h 8.291 V 18.4463 h -8.291 z" />
    </clipPath>
    <clipPath
       id="clipPath3457"
       clipPathUnits="userSpaceOnUse">
      <path
         inkscape:connector-curvature="0"
         id="path3459"
         d="m 79.3516,70.2334 h 8.291 V 18.4463 h -8.291 z" />
    </clipPath>
    <clipPath
       id="clipPath3539"
       clipPathUnits="userSpaceOnUse">
      <path
         inkscape:connector-curvature="0"
         id="path3541"
         d="M 0,90 H 90 V 0 H 0 Z" />
    </clipPath>
    <clipPath
       id="clipPath3571"
       clipPathUnits="userSpaceOnUse">
      <path
         inkscape:connector-curvature="0"
         id="path3573"
         d="M 37.1958,38.2627 H 55.126 V 20.3301 H 37.1958 Z" />
    </clipPath>
    <clipPath
       id="clipPath3591"
       clipPathUnits="userSpaceOnUse">
      <path
         inkscape:connector-curvature="0"
         id="path3593"
         d="m 44.7119,36.9062 h 9.0567 v -9.1816 h -9.0567 z" />
    </clipPath>
    <clipPath
       id="clipPath3607"
       clipPathUnits="userSpaceOnUse">
      <path
         inkscape:connector-curvature="0"
         id="path3609"
         d="M 31.7607,39.7695 H 59.7275 V 15.2061 H 31.7607 Z" />
    </clipPath>
    <clipPath
       id="clipPath3623"
       clipPathUnits="userSpaceOnUse">
      <path
         inkscape:connector-curvature="0"
         id="path3625"
         d="M 32.874,42.6445 H 59.8691 V 16.3018 H 32.874 Z" />
    </clipPath>
    <clipPath
       id="SVGID_2_">
      <rect
         height="10.806"
         width="21.469999"
         y="14368.238"
         x="1810.887"
         id="use23" />
    </clipPath>
    <linearGradient
       gradientTransform="translate(0,4)"
       gradientUnits="userSpaceOnUse"
       y2="57.101559"
       x2="31.038923"
       y1="57.101559"
       x1="26.454226"
       id="linearGradient5719"
       xlink:href="#linearGradient5713"
       inkscape:collect="always" />
    <linearGradient
       id="linearGradient5713"
       inkscape:collect="always">
      <stop
         id="stop5715"
         offset="0"
         style="stop-color:#ffffff;stop-opacity:1;" />
      <stop
         id="stop5717"
         offset="1"
         style="stop-color:#ffffff;stop-opacity:0;" />
    </linearGradient>
    <linearGradient
       inkscape:collect="always"
       xlink:href="#linearGradient5713"
       id="linearGradient5736"
       gradientUnits="userSpaceOnUse"
       x1="26.454226"
       y1="57.101559"
       x2="31.038923"
       y2="57.101559"
       gradientTransform="rotate(-176.66844,45.540876,57.308407)" />
    <clipPath
       id="SVGID_2_-1">
      <use
         height="90"
         width="90"
         y="0"
         x="0"
         style="overflow:visible"
         id="use23-7"
         overflow="visible"
         xlink:href="#SVGID_1_" />
    </clipPath>
    <sodipodi:namedview
       units="px"
       inkscape:cy="53.53886"
       inkscape:cx="33.941586"
       inkscape:zoom="5.6568543"
       showgrid="false"
       guidetolerance="10"
       gridtolerance="10"
       objecttolerance="10"
       borderopacity="1"
       bordercolor="#666666"
       pagecolor="#ffffff"
       id="namedview153"
       inkscape:current-layer="layer2"
       inkscape:window-maximized="1"
       inkscape:window-y="-8"
       inkscape:window-x="-8"
       inkscape:window-height="837"
       inkscape:window-width="1600"
       inkscape:pageshadow="2"
       inkscape:pageopacity="0"
       showguides="true"
       inkscape:guide-bbox="true" />
    <defs
       id="defs19">
      <rect
         id="SVGID_1_"
         x="1810.887"
         y="14368.238"
         width="21.469999"
         height="10.806" />
    </defs>
    <clipPath
       id="clipPath3113">
      <use
         xlink:href="#SVGID_1_"
         overflow="visible"
         id="use3115"
         style="overflow:visible"
         x="0"
         y="0"
         width="90"
         height="90" />
    </clipPath>
    <clipPath
       clipPathUnits="userSpaceOnUse"
       id="clipPath3321-9-4">
      <path
         d="m 34.0879,88.6362 h 4.5928 v -7.6049 h -4.5928 z"
         id="path3323-4-1"
         inkscape:connector-curvature="0" />
    </clipPath>
    <clipPath
       clipPathUnits="userSpaceOnUse"
       id="clipPath3325-8-3">
      <path
         d="m 34.0879,88.6362 h 4.5928 v -7.6049 h -4.5928 z"
         id="path3327-8-2"
         inkscape:connector-curvature="0" />
    </clipPath>
    <clipPath
       clipPathUnits="userSpaceOnUse"
       id="clipPath3349-2-5-9">
      <path
         d="m 43.4316,88.603 h 3.9893 v -7.605 h -3.9893 z"
         id="path3351-4-3"
         inkscape:connector-curvature="0" />
    </clipPath>
    <clipPath
       clipPathUnits="userSpaceOnUse"
       id="clipPath3353-5-1-8">
      <path
         d="m 43.4316,88.603 h 3.9893 v -7.605 h -3.9893 z"
         id="path3355-5-7-5"
         inkscape:connector-curvature="0" />
    </clipPath>
    <clipPath
       clipPathUnits="userSpaceOnUse"
       id="clipPath3377-1-3">
      <path
         d="m 52.7187,88.6362 h 3.2657 v -7.6049 h -3.2657 z"
         id="path3379-7-4"
         inkscape:connector-curvature="0" />
    </clipPath>
    <clipPath
       clipPathUnits="userSpaceOnUse"
       id="clipPath3381-1-9">
      <path
         d="m 52.7187,88.6362 h 3.2657 v -7.6049 h -3.2657 z"
         id="path3383-1-0"
         inkscape:connector-curvature="0" />
    </clipPath>
    <clipPath
       clipPathUnits="userSpaceOnUse"
       id="clipPath3453-5-7">
      <path
         d="m 79.3516,70.2334 h 8.291 V 18.4463 h -8.291 z"
         id="path3455-2-1"
         inkscape:connector-curvature="0" />
    </clipPath>
    <clipPath
       clipPathUnits="userSpaceOnUse"
       id="clipPath3457-7-1">
      <path
         d="m 79.3516,70.2334 h 8.291 V 18.4463 h -8.291 z"
         id="path3459-6-7"
         inkscape:connector-curvature="0" />
    </clipPath>
    <linearGradient
       y2="57.101559"
       x2="31.038923"
       y1="57.101559"
       x1="26.454226"
       gradientTransform="rotate(180,117.54532,74.235565)"
       gradientUnits="userSpaceOnUse"
       id="linearGradient28713"
       xlink:href="#linearGradient5713"
       inkscape:collect="always" />
    <linearGradient
       y2="57.101559"
       x2="31.038923"
       y1="57.101559"
       x1="26.454226"
       gradientTransform="rotate(3.3315611,-533.28527,2552.1847)"
       gradientUnits="userSpaceOnUse"
       id="linearGradient28715"
       xlink:href="#linearGradient5713"
       inkscape:collect="always" />
    <clipPath
       clipPathUnits="userSpaceOnUse"
       id="clipPath3149-1-0">
      <path
         d="M 2.372,6.645 H 23.841 V 17.45 H 2.372 Z"
         id="path3151-7-8"
         inkscape:connector-curvature="0" />
    </clipPath>
    <rect
       id="rect40935"
       x="1810.887"
       y="14368.238"
       width="21.469999"
       height="10.806" />
  </defs>
  <sodipodi:namedview
     id="base"
     pagecolor="#ffffff"
     bordercolor="#666666"
     borderopacity="1.0"
     inkscape:pageopacity="0.0"
     inkscape:pageshadow="2"
     inkscape:zoom="1.8101934"
     inkscape:cx="74.456746"
     inkscape:cy="42.793866"
     inkscape:document-units="mm"
     inkscape:current-layer="layer1"
     showgrid="false"
     inkscape:measure-start="-176.224,177.605"
     inkscape:measure-end="-176.639,128.716"
     fit-margin-top="0"
     fit-margin-left="0"
     fit-margin-right="0"
     fit-margin-bottom="0"
     inkscape:window-width="1920"
     inkscape:window-height="1017"
     inkscape:window-x="-8"
     inkscape:window-y="-8"
     inkscape:window-maximized="1" />
  <metadata
     id="metadata39828">
    <rdf:RDF>
      <cc:Work
         rdf:about="">
        <dc:format>image/svg+xml</dc:format>
        <dc:type
           rdf:resource="http://purl.org/dc/dcmitype/StillImage" />
        <dc:title></dc:title>
      </cc:Work>
    </rdf:RDF>
  </metadata>
  <g
     inkscape:label="Layer 1"
     inkscape:groupmode="layer"
     id="layer1"
     transform="translate(102.13975,-207.61844)">
    <g
       id="g41164"
       transform="matrix(0.9526329,0,0,0.84660159,-48.420092,-3.7893134)">
      <rect
         style="fill:#8c8c8c;stroke-width:0.35277787"
         x="-55.803741"
         y="251.07742"
         height="0.35277188"
         id="connector0pin-5"
         width="0.35277787" />
      <rect
         style="fill:#8c8c8c;stroke-width:0.35277787"
         x="-55.839027"
         y="261.90964"
         height="0.35277188"
         id="connector1pin-7"
         width="0.35277787" />
      <path
         id="path50255"
         d="m -34.396166,251.62326 c 0,-0.36662 -0.299542,-0.66561 -0.665791,-0.66561 h -0.0073 c -0.366713,0 -0.666254,-0.21843 -0.666254,-0.4843 0,-0.26587 -0.299046,-0.48406 -0.665791,-0.48406 h -16.361437 v 12.84748 h 16.361437 c 0.366745,0 0.665791,-0.21843 0.665791,-0.4843 0,-0.26587 0.299541,-0.48406 0.666254,-0.48406 h 0.0073 c 0.366249,0 0.665791,-0.29946 0.665791,-0.66609 z"
         inkscape:connector-curvature="0"
         style="fill:#999999;stroke:#6d6d6d;stroke-width:0.35277787" />
      <path
         style="opacity:0.35;fill:#cccccc;stroke-width:0.35277787"
         inkscape:connector-curvature="0"
         d="m -34.961647,261.10016 h -0.0069 c -0.364398,0 -0.728762,0.14233 -0.728762,0.31613 0,0.17333 -0.230717,0.31613 -0.594585,0.31613 l -15.128809,1e-5 v 1.04587 h 14.996054 c 0.363439,0 0.660632,-0.21749 0.660632,-0.48266 0,-0.26516 0.298317,-0.48265 0.661524,-0.48265 h 0.0073 c 0.363902,0 0.661095,-0.29852 0.661095,-0.66326 v -0.48407 c 0,0.23908 -0.163777,0.4345 -0.527679,0.4345 z"
         id="path50259" />
      <rect
         style="fill:#878787;stroke-width:0.35277787"
         x="-54.101772"
         y="256.0564"
         height="0.71423143"
         width="0.2857199"
         id="rect50261" />
      <rect
         style="fill:#4d4d4d;stroke-width:0.35277787"
         x="-52.9659"
         y="255.75787"
         height="1.3114994"
         width="2.406116"
         id="rect50263" />
      <rect
         id="rect50265"
         width="0.84956086"
         height="4.2247915"
         y="254.30098"
         x="-53.815491"
         style="fill:#b3b3b3;stroke-width:0.35277787" />
      <polygon
         transform="matrix(0.23492639,0,0,0.23487114,-59.459782,249.86998)"
         id="polygon50267"
         points="27.642,0 27.642,25.9996 37.884,25.9996 37.884,29.7185 27.642,29.7185 27.642,55.7201 35.158,55.7201 35.158,30.6525 37.884,30.6525 37.884,25.0686 35.158,25.0686 35.158,0 "
         style="fill:#333333;stroke-width:1.5018295" />
      <path
         style="opacity:0.5;fill:#686868;stroke-width:0.35277787"
         inkscape:connector-curvature="0"
         d="m -35.562119,256.46152 c 0,3.11669 -0.178065,5.64175 -0.178065,5.64175 v -11.28278 c 0,0 0.178065,2.52624 0.178065,5.64103 z"
         id="path50271" />
      <path
         style="opacity:0.16000001;fill:#ffffff;stroke-width:0.35277787"
         inkscape:connector-curvature="0"
         d="m -36.009629,254.05978 c 0,0.3328 -0.334797,0.6022 -0.747315,0.6022 l -13.042867,1e-5 c -0.412783,0 -0.747316,-0.24638 -0.747316,-0.57942 v -3.00443 c 0,-0.33304 0.334533,-0.62663 0.747316,-0.62663 h 13.042867 c 0.412518,0 0.747315,0.2701 0.747315,0.60314 z"
         id="path50273" />
      <g
         transform="matrix(0.23492639,0,0,0.23487114,-59.459782,249.86998)"
         style="opacity:0.16000001;stroke-width:1.5018295"
         id="g50277">
        <path
           style="fill:#ffffff;stroke-width:1.5018295"
           inkscape:connector-curvature="0"
           d="m 105.595,18.1777 c 0,0.779987 -0.639,1.41698 -1.417,1.41698 h -0.352 c -0.777,0 -1.417,-0.637989 -1.417,-1.41698 V 7.68487 c 0,-0.779987 0.64,-1.41698 1.417,-1.41698 h 0.352 c 0.778,0 1.417,0.637989 1.417,1.41698 z"
           id="path50275" />
      </g>
      <g
         style="stroke-width:1.5018295"
         transform="matrix(0.23492639,0,0,0.23487114,-59.459782,249.86998)"
         id="g50283">
        <path
           style="stroke-width:1.5018295"
           inkscape:connector-curvature="0"
           d="m 92.049,24.6596 c -1.034,0 -1.876,-0.840986 -1.876,-1.87497 v -8.42186 c 0,-1.03498 0.842,-1.87697 1.876,-1.87697 1.034,0 1.876,0.841986 1.876,1.87697 v 8.42186 c 0,1.03297 -0.842,1.87497 -1.876,1.87497 z"
           id="path50279" />
        <path
           style="fill:#6b6b6b;stroke-width:1.5018295"
           inkscape:connector-curvature="0"
           d="m 92.049,12.9858 c 0.759,0 1.376,0.61799 1.376,1.37698 v 8.42186 c 0,0.759987 -0.617,1.37498 -1.376,1.37498 -0.759,0 -1.376,-0.61499 -1.376,-1.37498 v -8.42186 c 0,-0.75998 0.617,-1.37698 1.376,-1.37698 m 0,-1 c -1.312,0 -2.376,1.06398 -2.376,2.37696 v 8.42186 c 0,1.31198 1.062,2.37496 2.376,2.37496 1.312,0 2.376,-1.06198 2.376,-2.37496 v -8.42186 c 0,-1.31296 -1.064,-2.37696 -2.376,-2.37696 z"
           id="path50281" />
      </g>
      <g
         style="stroke-width:1.5018295"
         transform="matrix(0.23492639,0,0,0.23487114,-59.459782,249.86998)"
         id="g50289">
        <path
           style="stroke-width:1.5018295"
           inkscape:connector-curvature="0"
           d="m 92.049,43.2333 c -1.034,0 -1.876,-0.841986 -1.876,-1.87597 v -8.42086 c 0,-1.03498 0.842,-1.87697 1.876,-1.87697 1.034,0 1.876,0.841986 1.876,1.87697 v 8.42086 c 0,1.03397 -0.842,1.87597 -1.876,1.87597 z"
           id="path50285" />
        <path
           style="fill:#6b6b6b;stroke-width:1.5018295"
           inkscape:connector-curvature="0"
           d="m 92.049,31.5595 c 0.759,0 1.376,0.61799 1.376,1.37698 v 8.42086 c 0,0.758987 -0.617,1.37598 -1.376,1.37598 -0.759,0 -1.376,-0.61699 -1.376,-1.37598 v -8.42086 c 0,-0.75898 0.617,-1.37698 1.376,-1.37698 m 0,-1 c -1.312,0 -2.376,1.06398 -2.376,2.37696 v 8.42086 c 0,1.31198 1.062,2.37596 2.376,2.37596 1.312,0 2.376,-1.06198 2.376,-2.37596 v -8.42086 c 0,-1.31196 -1.064,-2.37696 -2.376,-2.37696 z"
           id="path50287" />
      </g>
      <g
         style="stroke-width:1.5018295"
         transform="matrix(0.23492639,0,0,0.23487114,-59.459782,249.86998)"
         id="g50295">
        <path
           style="stroke-width:1.5018295"
           inkscape:connector-curvature="0"
           d="m 92.049,6.0859 c -1.034,0 -1.876,-0.842986 -1.876,-1.87497 V 0.499992 h 3.752 v 3.71094 c 0,1.033978 -0.842,1.874968 -1.876,1.874968 z"
           id="path50291" />
        <path
           style="fill:#6b6b6b;stroke-width:1.5018295"
           inkscape:connector-curvature="0"
           d="m 93.425,0.999983 v 3.21095 c 0,0.757987 -0.617,1.37498 -1.376,1.37498 -0.759,0 -1.376,-0.61699 -1.376,-1.37498 v -3.21095 h 2.752 M 94.425,0 h -4.752 v 4.21093 c 0,1.31198 1.062,2.37496 2.376,2.37496 1.312,0 2.376,-1.06298 2.376,-2.37496 z"
           id="path50293" />
      </g>
      <g
         style="stroke-width:1.5018295"
         transform="matrix(0.23492639,0,0,0.23487114,-59.459782,249.86998)"
         id="g50301">
        <path
           style="stroke-width:1.5018295"
           inkscape:connector-curvature="0"
           d="m 90.173,55.2201 v -3.711 c 0,-1.03498 0.842,-1.87697 1.876,-1.87697 1.034,0 1.876,0.841986 1.876,1.87697 v 3.71094 z"
           id="path50297" />
        <path
           style="fill:#6b6b6b;stroke-width:1.5018295"
           inkscape:connector-curvature="0"
           d="m 92.049,50.1322 c 0.759,0 1.376,0.61799 1.376,1.37698 v 3.21095 H 90.673 V 51.5091 c 0,-0.7589 0.617,-1.3769 1.376,-1.3769 m 0,-1 c -1.312,0 -2.376,1.06198 -2.376,2.37696 v 4.21093 h 4.752 V 51.5091 c 0,-1.3119 -1.064,-2.3769 -2.376,-2.3769 z"
           id="path50299" />
      </g>
      <path
         id="path50303"
         d="m -55.605134,250.332 -0.176377,0.19332 v 1.05832 l 0.19718,0.19332 h 2.716047 v -1.44531 z m 0.54997,1.19874 c -0.263161,0 -0.47625,-0.21307 -0.47625,-0.47624 0,-0.26317 0.213089,-0.47624 0.47625,-0.47624 0.263194,0 0.47625,0.21307 0.47625,0.47624 0,0.26316 -0.213056,0.47624 -0.47625,0.47624 z"
         inkscape:connector-curvature="0"
         style="fill:#ed8f66;stroke-width:0.35277787" />
      <path
         id="path50305"
         d="m -55.605134,261.1868 -0.176377,0.19368 v 1.05831 l 0.19718,0.19332 h 2.716047 v -1.44531 z m 0.54997,1.1991 c -0.263161,0 -0.47625,-0.21308 -0.47625,-0.47625 0,-0.26317 0.213089,-0.47624 0.47625,-0.47624 0.263194,0 0.47625,0.21307 0.47625,0.47624 0,0.26317 -0.213056,0.47625 -0.47625,0.47625 z"
         inkscape:connector-curvature="0"
         style="fill:#ed8f66;stroke-width:0.35277787" />
      <rect
         ry="0.39999974"
         rx="0.39999974"
         y="250.37743"
         x="-56.2981"
         height="1.3481194"
         width="2.045325"
         id="rect57401"
         style="opacity:1;fill:#b3b3b3;fill-opacity:1;stroke:#000000;stroke-width:0.06535209;stroke-linecap:round;stroke-miterlimit:4;stroke-dasharray:none;stroke-opacity:1" />
      <rect
         style="opacity:1;fill:#b3b3b3;fill-opacity:1;stroke:#000000;stroke-width:0.06535209;stroke-linecap:round;stroke-miterlimit:4;stroke-dasharray:none;stroke-opacity:1"
         id="rect57403"
         width="2.045325"
         height="1.3481194"
         x="-56.358051"
         y="261.26056"
         rx="0.39999974"
         ry="0.39999974" />
      <g
         id="g57437"
         transform="matrix(0.43416247,0,0,-0.43416247,771.98165,559.07546)"
         style="stroke-width:0.76176363">
        <rect
           transform="scale(1,-1)"
           style="fill:#d4aa00;stroke-width:0.81254804"
           x="-1858.7142"
           y="-689.71289"
           height="7.1736569"
           width="16.816956"
           id="rect57429" />
        <rect
           transform="scale(1,-1)"
           style="fill:#2d2d2d;stroke-width:0.81254804"
           x="-1858.7142"
           y="-689.71289"
           height="7.1736569"
           width="0.58454311"
           id="rect57431" />
        <rect
           transform="scale(1,-1)"
           style="opacity:0.35;stroke-width:0.81254804"
           x="-1858.7142"
           y="-683.36487"
           height="0.82083517"
           width="16.816956"
           id="rect57433" />
        <path
           style="opacity:0.35;fill:#ffffff;stroke-width:0.81254804"
           inkscape:connector-curvature="0"
           d="m -1842.2822,687.73627 c 0,-0.40099 -0.3565,-0.72492 -0.7997,-0.72492 l -16.121,-10e-6 c -0.4406,0 -0.7997,0.29563 -0.7997,0.69661 v 0.58025 c 0,0.40255 0.3591,0.75322 0.7997,0.75322 h 16.121 c 0.4432,0 0.7997,-0.32551 0.7997,-0.72492 z"
           id="path57435" />
      </g>
      <g
         transform="matrix(0.43416247,0,0,-0.43416247,771.98165,549.47225)"
         id="g57427"
         style="stroke-width:0.76176363">
        <rect
           id="rect57409"
           width="16.816956"
           height="7.1736569"
           y="-689.71289"
           x="-1858.7142"
           style="fill:#d4aa00;stroke-width:0.81254804"
           transform="scale(1,-1)" />
        <rect
           id="rect57411"
           width="0.58454311"
           height="7.1736569"
           y="-689.71289"
           x="-1858.7142"
           style="fill:#2d2d2d;stroke-width:0.81254804"
           transform="scale(1,-1)" />
        <rect
           id="rect57413"
           width="16.816956"
           height="0.82083517"
           y="-683.36487"
           x="-1858.7142"
           style="opacity:0.35;stroke-width:0.81254804"
           transform="scale(1,-1)" />
        <path
           id="path57415"
           d="m -1842.2822,687.73627 c 0,-0.40099 -0.3565,-0.72492 -0.7997,-0.72492 l -16.121,-10e-6 c -0.4406,0 -0.7997,0.29563 -0.7997,0.69661 v 0.58025 c 0,0.40255 0.3591,0.75322 0.7997,0.75322 h 16.121 c 0.4432,0 0.7997,-0.32551 0.7997,-0.72492 z"
           inkscape:connector-curvature="0"
           style="opacity:0.35;fill:#ffffff;stroke-width:0.81254804" />
      </g>
      <g
         style="stroke-width:1.44666111"
         transform="matrix(0.12840678,0,0,0.46310679,-49.059838,243.692)"
         id="g50253">
        <rect
           style="fill:#878787;stroke-width:1.44666111"
           x="107.157"
           y="25.2206"
           height="4.5619202"
           width="12.975"
           id="rect50245" />
        <rect
           style="fill:#2d2d2d;stroke-width:1.44666111"
           x="107.157"
           y="25.2206"
           height="4.5619202"
           width="0.45100001"
           id="rect50247" />
        <rect
           style="opacity:0.35;stroke-width:1.44666111"
           x="107.157"
           y="29.2575"
           height="0.52199101"
           width="12.975"
           id="rect50249" />
        <path
           style="opacity:0.35;fill:#ffffff;stroke-width:1.44666111"
           inkscape:connector-curvature="0"
           d="m 119.835,26.4776 c 0,0.254996 -0.275,0.460992 -0.617,0.460992 l -12.438,8e-6 c -0.34,0 -0.617,-0.187997 -0.617,-0.442993 v -0.368994 c 0,-0.255996 0.277,-0.478992 0.617,-0.478992 h 12.438 c 0.342,0 0.617,0.206997 0.617,0.460992 z"
           id="path50251" />
      </g>
      <rect
         ry="0.31750003"
         rx="0.31749997"
         id="rect57441"
         width="1.1152552"
         height="13.284009"
         y="249.76904"
         x="-35.42926"
         style="fill:#aa8800;stroke-width:0.35277787" />
      <rect
         transform="rotate(90)"
         id="rect57457"
         width="1.0595955"
         height="5.3099213"
         y="27.130589"
         x="253.39853"
         style="fill:#666666;stroke:#000000;stroke-width:0.03518959;stroke-miterlimit:4;stroke-dasharray:none;stroke-opacity:1" />
      <g
         id="g57477"
         transform="matrix(0.95527228,0,0,0.46310679,-134.1205,243.70393)"
         style="stroke-width:0.53039229">
        <rect
           id="rect57469"
           width="12.975"
           height="4.5619202"
           y="25.2206"
           x="107.157"
           style="fill:#878787;stroke-width:0.53039229" />
        <rect
           id="rect57471"
           width="0.45100001"
           height="4.5619202"
           y="25.2206"
           x="107.157"
           style="fill:#2d2d2d;stroke-width:0.53039229" />
        <rect
           id="rect57473"
           width="12.975"
           height="0.52199101"
           y="29.2575"
           x="107.157"
           style="opacity:0.35;stroke-width:0.53039229" />
        <path
           id="path57475"
           d="m 119.835,26.4776 c 0,0.254996 -0.275,0.460992 -0.617,0.460992 l -12.438,8e-6 c -0.34,0 -0.617,-0.187997 -0.617,-0.442993 v -0.368994 c 0,-0.255996 0.277,-0.478992 0.617,-0.478992 h 12.438 c 0.342,0 0.617,0.206997 0.617,0.460992 z"
           inkscape:connector-curvature="0"
           style="opacity:0.35;fill:#ffffff;stroke-width:0.53039229" />
      </g>
      <rect
         style="fill:#666666;stroke:#000000;stroke-width:0.03518959;stroke-miterlimit:4;stroke-dasharray:none;stroke-opacity:1"
         x="-31.43342"
         y="252.6709"
         height="4.4809828"
         width="1.1152552"
         id="rect57459" />
      <rect
         style="fill:#666666;stroke:#000000;stroke-width:0.03518958;stroke-miterlimit:4;stroke-dasharray:none;stroke-opacity:1"
         x="-29.729187"
         y="251.2421"
         height="5.3099213"
         width="1.1152552"
         id="rect57461" />
      <rect
         style="fill:#666666;stroke:#000000;stroke-width:0.03518958;stroke-miterlimit:4;stroke-dasharray:none;stroke-opacity:1"
         x="-34.149055"
         y="254.34666"
         height="4.2866287"
         width="1.1152552"
         id="rect57439" />
      <rect
         style="fill:#666666;stroke:#000000;stroke-width:0.03518959;stroke-miterlimit:4;stroke-dasharray:none;stroke-opacity:1"
         x="259.50375"
         y="27.58078"
         height="6.7849064"
         width="0.7256366"
         id="rect57455"
         transform="rotate(90)" />
      <rect
         id="rect57451"
         width="1.1152552"
         height="2.419832"
         y="258.67828"
         x="-34.149055"
         style="fill:#666666;stroke:#000000;stroke-width:0.03518958;stroke-miterlimit:4;stroke-dasharray:none;stroke-opacity:1" />
      <rect
         id="rect57453"
         width="1.1152552"
         height="5.3099213"
         y="257.23941"
         x="-31.43342"
         style="fill:#666666;stroke:#000000;stroke-width:0.03518958;stroke-miterlimit:4;stroke-dasharray:none;stroke-opacity:1" />
      <rect
         id="rect57463"
         width="1.1152552"
         height="4.4514146"
         y="257.72202"
         x="-29.743074"
         style="fill:#666666;stroke:#000000;stroke-width:0.03518958;stroke-miterlimit:4;stroke-dasharray:none;stroke-opacity:1" />
      <rect
         style="fill:#aa8800;stroke-width:0.35277787"
         x="-32.868046"
         y="249.74123"
         height="9.1945114"
         width="1.1152552"
         id="rect57445"
         rx="0.31749997"
         ry="0.31750003" />
      <rect
         style="fill:#aa8800;stroke-width:0.35277787"
         x="-27.970856"
         y="249.71339"
         height="13.284009"
         width="1.1152552"
         id="rect57465"
         rx="0.31749997"
         ry="0.31750003" />
    </g>
  </g>
</svg>
