<?xml version='1.0' encoding='UTF-8' standalone='no'?>
<!-- Created with Fritzing (http://www.fritzing.org/) -->
<svg xmlns:svg='http://www.w3.org/2000/svg' xmlns='http://www.w3.org/2000/svg' version='1.2' baseProfile='tiny' x='0in' y='0in' width='1.69228in' height='0.77389in' viewBox='0 0 121.844 55.7201' >
<path stroke='#32bf4f' stroke-width='3' stroke-linecap='round' stroke-linejoin='round' fill='none' d='M3.71212,24.5726L1.71212,25.5726' />
<path stroke='#ffd500' stroke-width='3' stroke-linecap='round' stroke-linejoin='round' fill='none' d='M3.71212,33.0565L1.71212,33.0565' />
<g partID='66730'><g transform='translate(1.71212,0)' ><g xmlns="http://www.w3.org/2000/svg" id="breadboard">
 <rect xmlns="http://www.w3.org/2000/svg" height="0.999983" width="1" fill="#8C8C8C" x="19.321" y="12.5508" id="connector0pin"/>
 <rect xmlns="http://www.w3.org/2000/svg" height="0.999983" width="1" fill="#8C8C8C" x="19.221" y="43.2563" id="connector1pin"/>
 <g xmlns="http://www.w3.org/2000/svg">
  <rect xmlns="http://www.w3.org/2000/svg" height="4.56192" width="12.975" fill="#878787" x="107.157" y="25.2206"/>
  <rect xmlns="http://www.w3.org/2000/svg" height="4.56192" width="0.451" fill="#2D2D2D" x="107.157" y="25.2206"/>
  <rect xmlns="http://www.w3.org/2000/svg" height="0.521991" opacity="0.35" width="12.975" x="107.157" y="29.2575"/>
  <path xmlns="http://www.w3.org/2000/svg" opacity="0.35" d="M119.835,26.4776c0,0.254996,-0.275,0.460992,-0.617,0.460992L106.78,26.9386c-0.34,0,-0.617,-0.187997,-0.617,-0.442993l0,-0.368994c0,-0.255996,0.277,-0.478992,0.617,-0.478992l12.438,0c0.342,0,0.617,0.206997,0.617,0.460992L119.835,26.4776z" fill="#FFFFFF"/>
 </g>
 <g xmlns="http://www.w3.org/2000/svg">
  <path xmlns="http://www.w3.org/2000/svg" stroke-width="1" d="M106.687,7.46488c0,-1.56097,-1.275,-2.83395,-2.834,-2.83395l-0.031,0c-1.561,0,-2.836,-0.929985,-2.836,-2.06197c0,-1.13198,-1.273,-2.06097,-2.834,-2.06097L28.507,0.507992l0,54.7001l69.645,0c1.561,0,2.834,-0.929985,2.834,-2.06197s1.275,-2.06097,2.836,-2.06097l0.031,0c1.559,0,2.834,-1.27498,2.834,-2.83595L106.687,7.46488L106.687,7.46488z" fill="#6D6D6D" stroke="#6D6D6D"/>
 </g>
 <path xmlns="http://www.w3.org/2000/svg" opacity="0.35" d="M104.28,47.8142l-0.029,0c-1.551,0,-3.102,0.60599,-3.102,1.34598c0,0.737988,-0.982,1.34598,-2.531,1.34598L34.22,50.5062l0,4.45293l63.833,0c1.547,0,2.812,-0.925985,2.812,-2.05497c0,-1.12898,1.27,-2.05497,2.816,-2.05497l0.031,0c1.549,0,2.814,-1.27098,2.814,-2.82395l0,-2.06097C106.53,46.9822,105.829,47.8142,104.28,47.8142z"/>
 <rect xmlns="http://www.w3.org/2000/svg" height="3.04095" width="0.94" fill="#878787" x="23.905" y="26.3396"/>
 <rect xmlns="http://www.w3.org/2000/svg" height="5.58391" width="10.242" fill="#E5E500" x="27.642" y="25.0686"/>
 <g xmlns="http://www.w3.org/2000/svg">
  <rect xmlns="http://www.w3.org/2000/svg" height="17.9877" width="2.795" fill="#E5E500" x="24.847" y="18.8657"/>
  <polygon xmlns="http://www.w3.org/2000/svg" fill="#F3FF00" points="35.158,25.0686,35.158,0,27.642,0,27.642,25.9996,37.884,25.9996,37.884,29.7185,27.642,29.7185,27.642,55.7201,35.158,55.7201,35.158,30.6525,37.884,30.6525,37.884,25.0686"/>
 </g>
 <path xmlns="http://www.w3.org/2000/svg" opacity="0.5" d="M101.724,28.0645c0,13.2698,-0.758,24.0206,-0.758,24.0206L100.966,4.04693C100.966,4.04693,101.724,14.8028,101.724,28.0645z" fill="#686868"/>
 <path xmlns="http://www.w3.org/2000/svg" opacity="0.16" d="M99.819,17.8387c0,1.41698,-1.425,2.56396,-3.181,2.56396L41.119,20.4027c-1.757,0,-3.181,-1.04898,-3.181,-2.46696L37.938,5.14392c0,-1.41798,1.424,-2.66796,3.181,-2.66796l55.519,0c1.756,0,3.181,1.14998,3.181,2.56796L99.819,17.8387z" fill="#FFFFFF"/>
 <g xmlns="http://www.w3.org/2000/svg" opacity="0.16">
  <path xmlns="http://www.w3.org/2000/svg" d="M105.595,18.1777c0,0.779987,-0.639,1.41698,-1.417,1.41698l-0.352,0c-0.777,0,-1.417,-0.637989,-1.417,-1.41698L102.409,7.68487c0,-0.779987,0.64,-1.41698,1.417,-1.41698l0.352,0c0.778,0,1.417,0.637989,1.417,1.41698L105.595,18.1777z" fill="#FFFFFF"/>
 </g>
 <g xmlns="http://www.w3.org/2000/svg">
  <path xmlns="http://www.w3.org/2000/svg" d="M92.049,24.6596c-1.034,0,-1.876,-0.840986,-1.876,-1.87497l0,-8.42186c0,-1.03498,0.842,-1.87697,1.876,-1.87697s1.876,0.841986,1.876,1.87697l0,8.42186C93.925,23.8176,93.083,24.6596,92.049,24.6596L92.049,24.6596z"/>
  <path xmlns="http://www.w3.org/2000/svg" d="M92.049,12.9858c0.759,0,1.376,0.61799,1.376,1.37698l0,8.42186c0,0.759987,-0.617,1.37498,-1.376,1.37498s-1.376,-0.61499,-1.376,-1.37498l0,-8.42186C90.673,13.6028,91.29,12.9858,92.049,12.9858M92.049,11.9858c-1.312,0,-2.376,1.06398,-2.376,2.37696l0,8.42186c0,1.31198,1.062,2.37496,2.376,2.37496c1.312,0,2.376,-1.06198,2.376,-2.37496l0,-8.42186C94.425,13.0498,93.361,11.9858,92.049,11.9858L92.049,11.9858z" fill="#6B6B6B"/>
 </g>
 <g xmlns="http://www.w3.org/2000/svg">
  <path xmlns="http://www.w3.org/2000/svg" d="M92.049,43.2333c-1.034,0,-1.876,-0.841986,-1.876,-1.87597l0,-8.42086c0,-1.03498,0.842,-1.87697,1.876,-1.87697s1.876,0.841986,1.876,1.87697l0,8.42086C93.925,42.3913,93.083,43.2333,92.049,43.2333L92.049,43.2333z"/>
  <path xmlns="http://www.w3.org/2000/svg" d="M92.049,31.5595c0.759,0,1.376,0.61799,1.376,1.37698l0,8.42086c0,0.758987,-0.617,1.37598,-1.376,1.37598s-1.376,-0.61699,-1.376,-1.37598l0,-8.42086C90.673,32.1775,91.29,31.5595,92.049,31.5595M92.049,30.5595c-1.312,0,-2.376,1.06398,-2.376,2.37696l0,8.42086c0,1.31198,1.062,2.37596,2.376,2.37596c1.312,0,2.376,-1.06198,2.376,-2.37596l0,-8.42086C94.425,31.6245,93.361,30.5595,92.049,30.5595L92.049,30.5595z" fill="#6B6B6B"/>
 </g>
 <g xmlns="http://www.w3.org/2000/svg">
  <path xmlns="http://www.w3.org/2000/svg" d="M92.049,6.0859c-1.034,0,-1.876,-0.842986,-1.876,-1.87497L90.173,0.499992l3.752,0l0,3.71094C93.925,5.24491,93.083,6.0859,92.049,6.0859L92.049,6.0859z"/>
  <path xmlns="http://www.w3.org/2000/svg" d="M93.425,0.999983l0,3.21095c0,0.757987,-0.617,1.37498,-1.376,1.37498s-1.376,-0.61699,-1.376,-1.37498L90.673,0.999983L93.425,0.999983M94.425,0l-4.752,0l0,4.21093c0,1.31198,1.062,2.37496,2.376,2.37496c1.312,0,2.376,-1.06298,2.376,-2.37496L94.425,0L94.425,0z" fill="#6B6B6B"/>
 </g>
 <g xmlns="http://www.w3.org/2000/svg">
  <path xmlns="http://www.w3.org/2000/svg" d="M90.173,55.2201L90.173,51.5091c0,-1.03498,0.842,-1.87697,1.876,-1.87697s1.876,0.841986,1.876,1.87697l0,3.71094L90.173,55.2201z"/>
  <path xmlns="http://www.w3.org/2000/svg" d="M92.049,50.1322c0.759,0,1.376,0.61799,1.376,1.37698l0,3.21095l-2.752,0L90.673,51.5091C90.673,50.7502,91.29,50.1322,92.049,50.1322M92.049,49.1322c-1.312,0,-2.376,1.06198,-2.376,2.37696l0,4.21093l4.752,0L94.425,51.5091C94.425,50.1972,93.361,49.1322,92.049,49.1322L92.049,49.1322z" fill="#6B6B6B"/>
 </g>
 <g xmlns="http://www.w3.org/2000/svg" id="wires">
  <path xmlns="http://www.w3.org/2000/svg" d="M19.884,10.4378l-0.5,0.547991l0,2.99995l0.559,0.547991l7.699,0l0,-4.09693L19.884,10.4378L19.884,10.4378zM21.443,13.8358c-0.746,0,-1.35,-0.60399,-1.35,-1.34998c0,-0.745988,0.604,-1.34998,1.35,-1.34998s1.35,0.60399,1.35,1.34998C22.793,13.2318,22.189,13.8358,21.443,13.8358z" fill="#ED8F66"/>
  <path xmlns="http://www.w3.org/2000/svg" d="M19.884,41.2073l-0.5,0.548991l0,2.99995l0.559,0.547991l7.699,0l0,-4.09693L19.884,41.2073zM21.443,44.6063c-0.746,0,-1.35,-0.60399,-1.35,-1.34998s0.604,-1.34998,1.35,-1.34998s1.35,0.60399,1.35,1.34998S22.189,44.6063,21.443,44.6063z" fill="#ED8F66"/>
  <g xmlns="http://www.w3.org/2000/svg" y1="25.573" stroke-width="3" y2="24.573" x1="0" x2="2" fill="none" stroke-linecap="round" stroke="#32BF4F" id="connector0leg"/>
  <g xmlns="http://www.w3.org/2000/svg" y1="33.057" stroke-width="3" y2="33.057" x1="0" x2="2" fill="none" stroke-linecap="round" stroke="#FFD500" id="connector1leg"/>
  <path xmlns="http://www.w3.org/2000/svg" stroke-width="3" d="M2,24.5726C7.5,21.2266,9.094,12.5508,19.321,12.5508" fill="none" stroke="#32BF4F"/>
  <path xmlns="http://www.w3.org/2000/svg" stroke-width="3" d="M2,33.0565C9.512,33.3964,13.557,43.2563,19.221,43.2563" fill="none" stroke="#FFD500"/>
 </g>
</g>
</g></g></svg>