<?xml version="1.0" encoding="UTF-8" standalone="no"?>
<!-- Created with Inkscape (http://www.inkscape.org/) -->

<svg
   xmlns:dc="http://purl.org/dc/elements/1.1/"
   xmlns:cc="http://creativecommons.org/ns#"
   xmlns:rdf="http://www.w3.org/1999/02/22-rdf-syntax-ns#"
   xmlns:svg="http://www.w3.org/2000/svg"
   xmlns="http://www.w3.org/2000/svg"
   xmlns:sodipodi="http://sodipodi.sourceforge.net/DTD/sodipodi-0.dtd"
   xmlns:inkscape="http://www.inkscape.org/namespaces/inkscape"
   width="120.72834mm"
   height="87.558502mm"
   viewBox="0 0 120.72834 87.558502"
   version="1.1"
   id="svg8"
   inkscape:version="0.92.1 r15371"
   sodipodi:docname="display-raspberry-pi-5in-hdmi-top.svg">
  <defs
     id="defs2" />
  <sodipodi:namedview
     id="base"
     pagecolor="#ffffff"
     bordercolor="#666666"
     borderopacity="1.0"
     inkscape:pageopacity="0.0"
     inkscape:pageshadow="2"
     inkscape:zoom="0.35"
     inkscape:cx="132.43375"
     inkscape:cy="-60.249398"
     inkscape:document-units="mm"
     inkscape:current-layer="layer1"
     showgrid="false"
     inkscape:window-width="1366"
     inkscape:window-height="705"
     inkscape:window-x="-8"
     inkscape:window-y="-8"
     inkscape:window-maximized="1"
     fit-margin-top="0"
     fit-margin-left="0"
     fit-margin-right="0"
     fit-margin-bottom="0" />
  <metadata
     id="metadata5">
    <rdf:RDF>
      <cc:Work
         rdf:about="">
        <dc:format>image/svg+xml</dc:format>
        <dc:type
           rdf:resource="http://purl.org/dc/dcmitype/StillImage" />
        <dc:title></dc:title>
      </cc:Work>
    </rdf:RDF>
  </metadata>
  <g
     inkscape:label="Layer 1"
     inkscape:groupmode="layer"
     id="layer1"
     transform="translate(52.048692,-45.333841)">
    <g
       id="g4498">
      <path
         inkscape:connector-curvature="0"
         id="rect4485-9-1-1-2"
         d="m 68.637178,125.93441 c 0,-0.002 -0.003,-0.004 -0.004,-0.006 v -73.460072 -0.51573 -1.45107 -2.57039 l -5.3e-4,-0.555 c 0,-1.10795 -1.35879,-1.99988 -3.04682,-1.99988 -1.68804,0 -3.04734,0.89193 -3.04734,1.99988 v 0.53226 c -0.0105,0.007 -0.0165,0.0135 -0.0165,0.0227 v 3.83284 H -45.832415 v -1.40456 -2.39572 -0.51728 c 0,-1.03278 -1.36425,-1.86449 -3.05873,-1.86449 -1.69447,0 -3.05872,0.83171 -3.05872,1.86449 v 0.49609 c -0.0105,0.006 -0.0171,0.0127 -0.0171,0.0212 v 3.92999 c -0.008,0.0188 -0.015,0.038 -0.015,0.0589 v 74.538052 c 0,0.0443 0.022,0.0831 0.0543,0.11526 h -0.0233 c -0.0307,0 -0.0553,0.0125 -0.0553,0.0274 v 3.71035 c 0,0.008 0.006,0.0126 0.0165,0.0186 v 0.43513 c 0,0.90603 1.32251,1.63605 2.96519,1.63605 1.64268,0 2.96519,-0.73002 2.96519,-1.63605 v -0.45373 -2.10168 -1.56268 H 62.574018 v 3.67883 c 0,0.009 0.007,0.0157 0.0171,0.0227 v 0.51832 c 0,1.08042 1.34834,1.9508 3.02305,1.9508 1.67471,0 3.02305,-0.87038 3.02305,-1.9508 v -0.54105 -2.50632 z m -1.39681,-77.934212 a 1.7258594,1.7258594 0 0 1 -1.72598,1.72547 1.7258594,1.7258594 0 0 1 -1.72598,-1.72547 1.7258594,1.7258594 0 0 1 1.72598,-1.726 1.7258594,1.7258594 0 0 1 1.72598,1.726 z m -0.0708,82.067822 a 1.7258594,1.7258594 0 0 1 -1.72599,1.72599 1.7258594,1.7258594 0 0 1 -1.72598,-1.72599 1.7258594,1.7258594 0 0 1 1.72598,-1.72599 1.7258594,1.7258594 0 0 1 1.72599,1.72599 z M 54.104298,74.346917 v 0.711581 c 0,0.591891 -0.75106,1.06816 -1.68413,1.06816 h -2.97602 c -0.93306,0 -1.684133,-0.476269 -1.684133,-1.06816 v -0.711581 c 0,-0.591878 0.751073,-1.068149 1.684133,-1.068149 h 2.97602 c 0.93307,0 1.68413,0.476271 1.68413,1.068149 z M -3.2264052,71.737778 v 3.94497 c 0,0.10373 -0.13861,0.187589 -0.310581,0.187589 H -28.212995 c -0.17196,0 -0.31058,-0.0839 -0.31058,-0.187589 v -3.94497 c 0,-0.10372 0.13862,-0.18707 0.31058,-0.18707 h 24.6760088 c 0.171971,0 0.310581,0.0834 0.310581,0.18707 z M -47.097105,48.118018 a 1.7258594,1.7258594 0 0 1 -1.72599,1.72599 1.7258594,1.7258594 0 0 1 -1.72599,-1.72599 1.7258594,1.7258594 0 0 1 1.72599,-1.72548 1.7258594,1.7258594 0 0 1 1.72599,1.72548 z m -0.209821,81.669912 a 1.7258593,1.7258591 0 0 1 -1.72598,1.72598 1.7258593,1.7258591 0 0 1 -1.725989,-1.72598 1.7258593,1.7258591 0 0 1 1.725989,-1.72598 1.7258593,1.7258591 0 0 1 1.72598,1.72598 z"
         style="opacity:1;fill:#006387;fill-opacity:1;stroke:#414141;stroke-width:0.08485358;stroke-linecap:round;stroke-linejoin:bevel;stroke-miterlimit:4;stroke-dasharray:none;stroke-opacity:1" />
      <rect
         transform="rotate(90)"
         y="-67.896797"
         x="52.432693"
         height="119.16263"
         width="73.360802"
         id="rect9619-9-8-6-6-1-7"
         style="opacity:1;fill:#121112;fill-opacity:1;fill-rule:evenodd;stroke:#050505;stroke-width:0.83737952;stroke-linecap:square;stroke-linejoin:miter;stroke-miterlimit:10;stroke-dasharray:none;stroke-dashoffset:0;stroke-opacity:1" />
      <rect
         transform="rotate(90)"
         y="-60.78373"
         x="57.438377"
         height="104.93648"
         width="63.349411"
         id="rect8168-4-6-2-9-0"
         style="opacity:1;fill:#333333;fill-opacity:1;stroke:#1e1e1e;stroke-width:0.79570293;stroke-linecap:round;stroke-miterlimit:10;stroke-dasharray:none;stroke-opacity:1" />
    </g>
  </g>
</svg>
