<?xml version="1.0" encoding="UTF-8" standalone="no"?>
<!-- Created with Inkscape (http://www.inkscape.org/) -->

<svg
   xmlns:dc="http://purl.org/dc/elements/1.1/"
   xmlns:cc="http://creativecommons.org/ns#"
   xmlns:rdf="http://www.w3.org/1999/02/22-rdf-syntax-ns#"
   xmlns:svg="http://www.w3.org/2000/svg"
   xmlns="http://www.w3.org/2000/svg"
   xmlns:sodipodi="http://sodipodi.sourceforge.net/DTD/sodipodi-0.dtd"
   xmlns:inkscape="http://www.inkscape.org/namespaces/inkscape"
   width="164.17279mm"
   height="122.7598mm"
   viewBox="0 0 164.17279 122.7598"
   version="1.1"
   id="svg8"
   inkscape:version="0.92.1 r15371"
   sodipodi:docname="display-raspberry-pi-7in-hdmi-top.svg">
  <defs
     id="defs2" />
  <sodipodi:namedview
     id="base"
     pagecolor="#ffffff"
     bordercolor="#666666"
     borderopacity="1.0"
     inkscape:pageopacity="0.0"
     inkscape:pageshadow="2"
     inkscape:zoom="0.35"
     inkscape:cx="957.39066"
     inkscape:cy="-236.5844"
     inkscape:document-units="mm"
     inkscape:current-layer="layer1"
     showgrid="false"
     inkscape:window-width="1366"
     inkscape:window-height="705"
     inkscape:window-x="-8"
     inkscape:window-y="-8"
     inkscape:window-maximized="1"
     fit-margin-top="0"
     fit-margin-left="0"
     fit-margin-right="0"
     fit-margin-bottom="0" />
  <metadata
     id="metadata5">
    <rdf:RDF>
      <cc:Work
         rdf:about="">
        <dc:format>image/svg+xml</dc:format>
        <dc:type
           rdf:resource="http://purl.org/dc/dcmitype/StillImage" />
        <dc:title></dc:title>
      </cc:Work>
    </rdf:RDF>
  </metadata>
  <g
     inkscape:label="Layer 1"
     inkscape:groupmode="layer"
     id="layer1"
     transform="translate(270.31854,36.522757)">
    <g
       id="g4498">
      <path
         inkscape:connector-curvature="0"
         id="rect4513"
         d="m -267.60792,-36.497257 c -1.48762,0 -2.68512,1.19751 -2.68512,2.68513 v 3.74396 0.87383 9.38186 h 0.0202 v 89.33926 h -0.0202 v 9.38184 0.87386 3.74396 c 0,1.48762 1.1975,2.6851 2.68512,2.6851 h 2.35075 c 1.48762,0 2.68562,-1.19748 2.68562,-2.6851 v -3.74396 -0.87386 -0.43873 h 148.67879 v 0.43873 0.87386 3.74396 c 0,1.4876 1.19802,2.6851 2.68564,2.6851 h 2.35074 c 1.48761,0 2.68513,-1.1975 2.68513,-2.6851 v -3.74396 -0.87386 -9.38184 h -0.15299 v -98.00539 h -0.0362 v -0.71573 -0.87383 -3.74396 c 1e-5,-1.48762 -1.19801,-2.68513 -2.68563,-2.68513 h -2.35073 c -1.48762,0 -2.68514,1.19751 -2.68514,2.68513 v 3.74396 0.87383 0.71573 h -148.48961 v -0.71573 -0.87383 -3.74396 c 0,-1.48762 -1.198,-2.68513 -2.68562,-2.68513 z m 1.17563,2.4443 a 1.7210514,1.7210515 0 0 1 1.72082,1.72082 1.7210514,1.7210515 0 0 1 -1.72082,1.72136 1.7210514,1.7210515 0 0 1 -1.72133,-1.72136 1.7210514,1.7210515 0 0 1 1.72133,-1.72082 z m 156.21114,0 a 1.7210515,1.7210516 0 0 1 1.72081,1.72082 1.7210515,1.7210516 0 0 1 -1.72081,1.72136 1.7210515,1.7210516 0 0 1 -1.72133,-1.72136 1.7210515,1.7210516 0 0 1 1.72133,-1.72082 z m -156.21114,114.37803 a 1.7210516,1.7210517 0 0 1 1.72082,1.72135 1.7210516,1.7210517 0 0 1 -1.72082,1.72082 1.7210516,1.7210517 0 0 1 -1.72133,-1.72082 1.7210516,1.7210517 0 0 1 1.72133,-1.72135 z m 156.40029,0 a 1.7210516,1.7210516 0 0 1 1.72132,1.72135 1.7210516,1.7210516 0 0 1 -1.72132,1.72082 1.7210516,1.7210516 0 0 1 -1.72082,-1.72082 1.7210516,1.7210516 0 0 1 1.72082,-1.72135 z"
         style="opacity:1;vector-effect:none;fill:#006387;fill-opacity:1;fill-rule:nonzero;stroke:#797979;stroke-width:0.051;stroke-linecap:butt;stroke-linejoin:miter;stroke-miterlimit:4;stroke-dasharray:none;stroke-dashoffset:0;stroke-opacity:1" />
      <rect
         transform="rotate(90)"
         y="106.947"
         x="-24.078001"
         height="162.5703"
         width="97.870293"
         id="rect9619-9-8-6-6-1-7-5"
         style="opacity:1;fill:#121112;fill-opacity:1;fill-rule:evenodd;stroke:#050505;stroke-width:1.12970817;stroke-linecap:square;stroke-linejoin:miter;stroke-miterlimit:10;stroke-dasharray:none;stroke-dashoffset:0;stroke-opacity:1" />
      <rect
         transform="rotate(90)"
         y="114.44453"
         x="-19.801176"
         height="147.57523"
         width="82.334244"
         id="rect8168-4-6-2-9-0-7"
         style="opacity:1;fill:#333333;fill-opacity:1;stroke:#1e1e1e;stroke-width:1.07575512;stroke-linecap:round;stroke-miterlimit:10;stroke-dasharray:none;stroke-opacity:1" />
    </g>
  </g>
</svg>
