<?xml version="1.0" encoding="UTF-8" standalone="no"?>
<!-- Created with Inkscape (http://www.inkscape.org/) -->

<svg
   xmlns:dc="http://purl.org/dc/elements/1.1/"
   xmlns:cc="http://creativecommons.org/ns#"
   xmlns:rdf="http://www.w3.org/1999/02/22-rdf-syntax-ns#"
   xmlns:svg="http://www.w3.org/2000/svg"
   xmlns="http://www.w3.org/2000/svg"
   xmlns:sodipodi="http://sodipodi.sourceforge.net/DTD/sodipodi-0.dtd"
   xmlns:inkscape="http://www.inkscape.org/namespaces/inkscape"
   width="120.99883mm"
   height="88.334175mm"
   viewBox="0 0 120.99883 88.334175"
   version="1.1"
   id="svg4755"
   inkscape:version="0.92.1 r15371"
   sodipodi:docname="display-raspberry-pi-5in-hdmi_top.svg">
  <defs
     id="defs4749" />
  <sodipodi:namedview
     id="base"
     pagecolor="#ffffff"
     bordercolor="#666666"
     borderopacity="1.0"
     inkscape:pageopacity="0.0"
     inkscape:pageshadow="2"
     inkscape:zoom="0.98994949"
     inkscape:cx="460.31923"
     inkscape:cy="-104.81475"
     inkscape:document-units="mm"
     inkscape:current-layer="layer1"
     showgrid="false"
     fit-margin-top="0"
     fit-margin-left="0"
     fit-margin-right="0"
     fit-margin-bottom="0"
     inkscape:window-width="1920"
     inkscape:window-height="1017"
     inkscape:window-x="-8"
     inkscape:window-y="-8"
     inkscape:window-maximized="1" />
  <metadata
     id="metadata4752">
    <rdf:RDF>
      <cc:Work
         rdf:about="">
        <dc:format>image/svg+xml</dc:format>
        <dc:type
           rdf:resource="http://purl.org/dc/dcmitype/StillImage" />
        <dc:title></dc:title>
      </cc:Work>
    </rdf:RDF>
  </metadata>
  <g
     inkscape:label="Layer 1"
     inkscape:groupmode="layer"
     id="layer1"
     transform="translate(591.93393,172.76826)">
    <g
       id="g5316">
      <path
         id="rect4543-2-2-3"
         d="m -588.88554,-172.76826 c -1.68898,0 -3.04839,1.24321 -3.04839,2.78742 0,0.0246 0.003,0.0484 0.004,0.0729 h -0.004 v 3.30677 76.000014 3.306776 h 0.004 c -8e-4,0.0245 -0.004,0.04826 -0.004,0.07286 0,1.544219 1.35941,2.787428 3.04839,2.787428 h 0.0579 c 1.68898,0 3.04839,-1.243209 3.04839,-2.787428 0,-0.02461 -0.003,-0.04846 -0.004,-0.07286 h 0.004 v -3.30678 h 108.68949 v 3.306776 h 0.004 c 0,0.0245 -0.004,0.04826 -0.004,0.07286 0,1.544219 1.3594,2.787428 3.04839,2.787428 h 0.0579 c 1.68896,0 3.04837,-1.243209 3.04837,-2.787428 0,-0.02461 -0.003,-0.04836 -0.004,-0.07286 h 0.004 v -3.306776 -76.00001 -3.30677 h -0.004 c 0,-0.0245 0.004,-0.0483 0.004,-0.0729 0,-1.54421 -1.35941,-2.78742 -3.04837,-2.78742 h -0.0579 c -1.68899,0 -3.04839,1.24321 -3.04839,2.78742 0,0.0246 0.003,0.0484 0.004,0.0729 h -0.004 v 3.30677 h -108.68897 v -3.30677 h -0.004 c 7.9e-4,-0.0245 0.004,-0.0483 0.004,-0.0729 0,-1.54421 -1.35941,-2.78742 -3.04839,-2.78742 z m -0.0357,1.33376 h 0.1297 c 0.93348,0 1.68517,0.75119 1.68517,1.68466 v 0.13022 c 0,0.93347 -0.75169,1.68517 -1.68517,1.68517 h -0.1297 c -0.93347,0 -1.68517,-0.7517 -1.68517,-1.68517 v -0.13022 c 0,-0.93347 0.7517,-1.68466 1.68517,-1.68466 z m 114.84467,0 h 0.1297 c 0.93347,0 1.68518,0.75119 1.68518,1.68466 v 0.13022 c 0,0.93347 -0.75171,1.68517 -1.68518,1.68517 h -0.1297 c -0.93348,0 -1.68519,-0.7517 -1.68519,-1.68517 v -0.13022 c 0,-0.93347 0.75171,-1.68466 1.68519,-1.68466 z m -93.66819,24.89668 h 24.27604 c 0.19631,0 0.3545,0.15819 0.3545,0.3545 v 3.63905 c 0,0.19631 -0.15819,0.3545 -0.3545,0.3545 h -24.27604 c -0.19631,0 -0.3545,-0.15819 -0.3545,-0.3545 v -3.63905 c 0,-0.19631 0.15819,-0.3545 0.3545,-0.3545 z m 77.11467,1.70377 h 3.76359 c 0.71456,0 1.28984,0.5753 1.28984,1.28984 v 0.33177 c 0,0.71454 -0.57528,1.28984 -1.28984,1.28984 h -3.76359 c -0.71454,0 -1.28984,-0.5753 -1.28984,-1.28984 v -0.33177 c 0,-0.71454 0.5753,-1.28984 1.28984,-1.28984 z m -98.29115,55.566116 h 0.1297 c 0.93348,0 1.68517,0.751697 1.68517,1.685168 v 0.130225 c 0,0.933482 -0.75169,1.684653 -1.68517,1.684653 h -0.1297 c -0.93347,0 -1.68517,-0.751171 -1.68517,-1.684653 v -0.130225 c 0,-0.933471 0.7517,-1.685168 1.68517,-1.685168 z m 114.84467,0 h 0.1297 c 0.93347,0 1.68518,0.751697 1.68518,1.685168 v 0.130225 c 0,0.933471 -0.75171,1.684653 -1.68518,1.684653 h -0.1297 c -0.93348,0 -1.68519,-0.751182 -1.68519,-1.684653 v -0.130225 c 0,-0.933471 0.75171,-1.685168 1.68519,-1.685168 z"
         style="opacity:1;fill:#006387;fill-opacity:1;fill-rule:evenodd;stroke:none;stroke-width:0.99999988;stroke-linecap:round;stroke-miterlimit:4;stroke-dasharray:none;stroke-dashoffset:0;stroke-opacity:1"
         inkscape:connector-curvature="0" />
      <g
         transform="translate(-539.75001,-217.71428)"
         id="g4503">
        <rect
           style="opacity:1;fill:#121112;fill-opacity:1;fill-rule:evenodd;stroke:#050505;stroke-width:0.83737952;stroke-linecap:square;stroke-linejoin:miter;stroke-miterlimit:10;stroke-dasharray:none;stroke-dashoffset:0;stroke-opacity:1"
           id="rect9619-9-8-6-6-1-7"
           width="73.360802"
           height="119.16263"
           x="52.432693"
           y="-67.896797"
           transform="rotate(90)" />
        <rect
           style="opacity:1;fill:#333333;fill-opacity:1;stroke:#1e1e1e;stroke-width:0.79570293;stroke-linecap:round;stroke-miterlimit:10;stroke-dasharray:none;stroke-opacity:1"
           id="rect8168-4-6-2-9-0"
           width="63.349411"
           height="104.93648"
           x="57.438377"
           y="-60.78373"
           transform="rotate(90)" />
      </g>
    </g>
  </g>
</svg>
