<svg id="espruino-pico" xmlns="http://www.w3.org/2000/svg" xmlns:xlink="http://www.w3.org/1999/xlink" viewBox="0 0 94.614 43.927">
  <defs>
    <style>
      .cls-1 {
        fill: #121212;
      }

      .cls-2 {
        fill: #fdda2c;
      }

      .cls-3 {
        fill: #d2d1d3;
      }

      .cls-4 {
        fill: #b7b8b9;
      }

      .cls-5 {
        fill: #d7d3d5;
      }

      .cls-6 {
        fill: #b3b3b3;
      }

      .cls-7 {
        fill: #918985;
        stroke: #333;
      }

      .cls-25, .cls-26, .cls-28, .cls-7 {
        stroke-miterlimit: 10;
      }

      .cls-28, .cls-7 {
        stroke-width: 0.142px;
      }

      .cls-8 {
        fill: gray;
      }

      .cls-9 {
        fill: #242424;
      }

      .cls-10 {
        fill: #d1d3d4;
      }

      .cls-11 {
        fill: #966432;
      }

      .cls-12 {
        fill: #d0d1d0;
      }

      .cls-13 {
        fill: #b8b9ba;
      }

      .cls-14 {
        fill: #dcd237;
      }

      .cls-15 {
        fill: #ed660a;
      }

      .cls-16 {
        fill: #bbffd0;
      }

      .cls-17 {
        fill: #545152;
      }

      .cls-18 {
        fill: #393536;
      }

      .cls-19 {
        fill: #2f3131;
        opacity: 0.3;
      }

      .cls-20 {
        fill: #c8cbca;
      }

      .cls-21 {
        fill: #565857;
      }

      .cls-22 {
        fill: #484b4c;
      }

      .cls-23 {
        fill: url(#Безымянный_градиент_11);
      }

      .cls-24 {
        fill: #918f90;
      }

      .cls-25 {
        fill: #f5eff0;
      }

      .cls-25, .cls-26 {
        stroke: #000;
        stroke-width: 0.028px;
      }

      .cls-26, .cls-29 {
        fill: #fff;
      }

      .cls-27 {
        fill: #907f6c;
      }

      .cls-28 {
        fill: #753c21;
        stroke: #421b08;
      }

      .cls-29 {
        font-size: 3px;
        font-family: TrebuchetMS, Trebuchet MS;
      }

      .cls-30 {
        letter-spacing: -0.047em;
      }

      .cls-31 {
        letter-spacing: -0.106em;
      }
    </style>
    <linearGradient id="Безымянный_градиент_11" data-name="Безымянный градиент 11" x1="94.973" y1="-120.937" x2="94.973" y2="-131.362" gradientTransform="translate(-48.281 140.448)" gradientUnits="userSpaceOnUse">
      <stop offset="0" stop-color="#ccc"/>
      <stop offset="1" stop-color="#4f4c4d"/>
    </linearGradient>
  </defs>
  <title>espruino-pico</title>
  <g id="espruino-pico-2" data-name="espruino-pico">
    <g id="top">
      <path id="pcb" class="cls-1" d="M1.346.253H.072V8.036a1.2,1.2,0,0,1,.88,1.017,1.2,1.2,0,0,1-.88,1.016V11.7a1.2,1.2,0,0,1,.88,1.016,1.2,1.2,0,0,1-.88,1.017v1.383a1.2,1.2,0,0,1,.88,1.016,1.2,1.2,0,0,1-.88,1.018v1.653a1.2,1.2,0,0,1,.88,1.017,1.2,1.2,0,0,1-.88,1.017v1.383a1.2,1.2,0,0,1,.88,1.017,1.2,1.2,0,0,1-.88,1.016v1.612a1.2,1.2,0,0,1,.88,1.017A1.2,1.2,0,0,1,.072,27.9v1.382A1.2,1.2,0,0,1,.952,30.3a1.2,1.2,0,0,1-.88,1.016v1.653a1.2,1.2,0,0,1,.88,1.015A1.2,1.2,0,0,1,.072,35v8.768H1.285a1.738,1.738,0,0,1,1.528-1.317,1.746,1.746,0,0,1,1.521,1.327H8.508a1.745,1.745,0,0,1,1.521-1.327,1.746,1.746,0,0,1,1.522,1.327h4.108a1.745,1.745,0,0,1,1.52-1.327A1.744,1.744,0,0,1,18.7,43.782l4.264-.01a1.744,1.744,0,0,1,1.521-1.327,1.742,1.742,0,0,1,1.52,1.327h4.15a1.742,1.742,0,0,1,1.521-1.327,1.744,1.744,0,0,1,1.52,1.327H37.28a1.536,1.536,0,0,1,3.043,0h4.145a1.535,1.535,0,0,1,3.042,0h4.124a1.535,1.535,0,0,1,3.041,0h4.238a1.535,1.535,0,0,1,3.042,0h1.027V41.654a2.413,2.413,0,0,1,2-2.375v-.042H94.614V4.9H64.982V4.862a2.412,2.412,0,0,1-2-2.375V.253h-1a1.74,1.74,0,0,1-1.517,1.318A1.74,1.74,0,0,1,58.946.253H54.807A1.741,1.741,0,0,1,53.29,1.571,1.741,1.741,0,0,1,51.773.253H47.579a1.741,1.741,0,0,1-1.518,1.318A1.74,1.74,0,0,1,44.545.253H40.379a1.742,1.742,0,0,1-1.518,1.318A1.742,1.742,0,0,1,37.343.253H33.077A1.741,1.741,0,0,1,31.56,1.571,1.74,1.74,0,0,1,30.043.253H25.98a1.741,1.741,0,0,1-1.517,1.318A1.741,1.741,0,0,1,22.946.253H18.674a1.742,1.742,0,0,1-1.518,1.318A1.739,1.739,0,0,1,15.64.253H11.511A1.742,1.742,0,0,1,9.993,1.571,1.74,1.74,0,0,1,8.476.253H4.38A1.74,1.74,0,0,1,2.863,1.571,1.741,1.741,0,0,1,1.346.253Zm60.63,39.84a1.459,1.459,0,1,1-1.458-1.459A1.458,1.458,0,0,1,61.976,40.093Zm-7.28,0a1.458,1.458,0,1,1-1.458-1.459A1.458,1.458,0,0,1,54.7,40.093Zm-7.165,0a1.459,1.459,0,1,1-1.459-1.459A1.458,1.458,0,0,1,47.531,40.093Zm-7.186.032a1.459,1.459,0,1,1-1.459-1.459A1.46,1.46,0,0,1,40.345,40.125Zm-7.126-.032a1.459,1.459,0,1,1-1.458-1.459A1.458,1.458,0,0,1,33.219,40.093Zm-7.191.032a1.458,1.458,0,1,1-1.458-1.459A1.459,1.459,0,0,1,26.028,40.125ZM18.8,40.093a1.459,1.459,0,1,1-1.459-1.459A1.458,1.458,0,0,1,18.8,40.093Zm-7.232,0a1.459,1.459,0,1,1-1.459-1.459A1.459,1.459,0,0,1,11.572,40.093Zm-7.169,0a1.459,1.459,0,1,1-1.458-1.459A1.458,1.458,0,0,1,4.4,40.093Zm13.818-6.231a.875.875,0,1,1-.875-.875A.875.875,0,0,1,18.221,33.862Zm-3.6-.018a.875.875,0,1,1-.875-.875A.875.875,0,0,1,14.622,33.844Zm-3.6.018a.875.875,0,1,1-.875-.875A.875.875,0,0,1,11.024,33.862Zm-7.45.062a.971.971,0,1,1-.971-.971A.971.971,0,0,1,3.574,33.924Zm0-3.544a.971.971,0,1,1-.971-.971A.971.971,0,0,1,3.574,30.38Zm0-3.544a.971.971,0,1,1-.971-.971A.971.971,0,0,1,3.574,26.836Zm0-3.543a.971.971,0,1,1-.971-.97A.971.971,0,0,1,3.574,23.293Zm0-3.543a.971.971,0,1,1-.971-.97A.971.971,0,0,1,3.574,19.75Zm0-3.544a.971.971,0,1,1-.971-.97A.971.971,0,0,1,3.574,16.206Zm0-3.543a.971.971,0,1,1-.971-.971A.97.97,0,0,1,3.574,12.663Zm0-3.543A.971.971,0,1,1,2.6,8.149.97.97,0,0,1,3.574,9.12ZM62.005,4.048A1.458,1.458,0,1,1,60.547,2.59,1.458,1.458,0,0,1,62.005,4.048Zm-7.173,0A1.458,1.458,0,1,1,53.374,2.59,1.457,1.457,0,0,1,54.832,4.048Zm-7.228,0A1.458,1.458,0,1,1,46.145,2.59,1.457,1.457,0,0,1,47.6,4.048Zm-7.2,0A1.459,1.459,0,1,1,38.945,2.59,1.458,1.458,0,0,1,40.4,4.048Zm-7.3,0A1.459,1.459,0,1,1,31.644,2.59,1.458,1.458,0,0,1,33.1,4.048Zm-7.1,0A1.458,1.458,0,1,1,24.547,2.59,1.457,1.457,0,0,1,26.005,4.048Zm-7.306,0A1.459,1.459,0,1,1,17.24,2.59,1.457,1.457,0,0,1,18.7,4.048Zm-7.163,0A1.459,1.459,0,1,1,10.077,2.59,1.458,1.458,0,0,1,11.536,4.048Zm-7.131,0A1.458,1.458,0,1,1,2.947,2.59,1.458,1.458,0,0,1,4.405,4.048Z"/>
      <g>
        <rect id="PIN__usbV" class="cls-2" x="72.364" y="10.088" width="22.029" height="4.306"/>
        <rect id="PIN__usbGnd" class="cls-2" x="72.364" y="29.496" width="22.029" height="4.306"/>
        <rect id="PIN__usbD_" data-name="PIN__usbD+" class="cls-2" x="72.364" y="22.569" width="16.412" height="4.306"/>
        <rect id="PIN__usbD-" class="cls-2" x="72.364" y="16.953" width="16.412" height="4.306"/>
      </g>
      <g>
        <path id="PIN__a8" class="cls-2" d="M2.455,1.525a1.319,1.319,0,0,1-.186-.08c-.039-.02-.078-.042-.115-.065a1.625,1.625,0,0,1-.144-.107c-.04-.034-.08-.064-.12-.1-.022-.022-.042-.05-.064-.073A2.2,2.2,0,0,1,1.547.716C1.538.7,1.528.687,1.52.67A2.634,2.634,0,0,1,1.4.413C1.391.394,1.384.376,1.378.358a2.527,2.527,0,0,1-.1-.294v0H.763V4.836L2.185,6.258H3.71L5.131,4.836V.062H4.445v0a2.971,2.971,0,0,1-.1.294c-.008.018-.015.036-.022.055A2.634,2.634,0,0,1,4.207.67C4.2.687,4.188.7,4.18.716A2.208,2.208,0,0,1,3.9,1.1c-.022.023-.042.051-.064.073-.038.037-.079.067-.12.1a1.625,1.625,0,0,1-.144.107c-.038.023-.075.045-.114.065a1.238,1.238,0,0,1-.187.08c-.033.012-.066.024-.1.033a1.186,1.186,0,0,1-.308.043,1.163,1.163,0,0,1-.308-.043C2.52,1.549,2.489,1.537,2.455,1.525ZM4.4,4.074A1.456,1.456,0,1,1,2.947,2.618,1.456,1.456,0,0,1,4.4,4.074Z"/>
        <path id="PIN__b7" class="cls-2" d="M9.586,1.525a1.294,1.294,0,0,1-.188-.08c-.039-.02-.077-.042-.115-.065s-.095-.069-.142-.107-.082-.064-.121-.1C9,1.15,8.978,1.122,8.956,1.1A2.153,2.153,0,0,1,8.677.716.425.425,0,0,1,8.65.67,2.634,2.634,0,0,1,8.529.413C8.521.394,8.515.376,8.507.358A2.729,2.729,0,0,1,8.412.064v0H7.893V4.836L9.315,6.258H10.84l1.421-1.422V.062h-.686v0a2.974,2.974,0,0,1-.1.294c-.008.018-.013.036-.021.055a2.634,2.634,0,0,1-.121.257c-.008.017-.019.03-.027.046a2.2,2.2,0,0,1-.279.383c-.023.023-.043.051-.065.073-.039.037-.08.067-.121.1a1.6,1.6,0,0,1-.142.107c-.038.023-.076.045-.115.065a1.331,1.331,0,0,1-.187.08c-.033.012-.066.024-.1.033a1.169,1.169,0,0,1-.308.043,1.18,1.18,0,0,1-.308-.043C9.651,1.549,9.619,1.537,9.586,1.525Zm1.948,2.549a1.457,1.457,0,1,1-1.457-1.456A1.457,1.457,0,0,1,11.534,4.074Z"/>
        <path id="PIN__b6" class="cls-2" d="M16.749,1.525a1.238,1.238,0,0,1-.187-.08c-.039-.02-.076-.042-.114-.065a1.625,1.625,0,0,1-.144-.107c-.041-.034-.082-.064-.12-.1-.022-.022-.042-.05-.064-.073a2.208,2.208,0,0,1-.28-.383C15.832.7,15.821.687,15.813.67a2.634,2.634,0,0,1-.121-.257c-.007-.019-.014-.037-.022-.055a2.971,2.971,0,0,1-.1-.294v0h-.518V4.836l1.421,1.422H18l1.421-1.422V.062h-.685v0a2.527,2.527,0,0,1-.1.294c-.006.018-.013.036-.021.055A2.634,2.634,0,0,1,18.5.67c-.008.017-.018.03-.027.046a2.2,2.2,0,0,1-.279.383c-.022.023-.042.051-.065.073-.039.037-.079.067-.119.1a1.625,1.625,0,0,1-.144.107c-.037.023-.076.045-.115.065a1.319,1.319,0,0,1-.186.08c-.034.012-.065.024-.1.033a1.163,1.163,0,0,1-.308.043,1.186,1.186,0,0,1-.308-.043C16.815,1.549,16.782,1.537,16.749,1.525ZM18.7,4.074A1.457,1.457,0,1,1,17.24,2.618,1.456,1.456,0,0,1,18.7,4.074Z"/>
        <path id="PIN__b5" class="cls-2" d="M24.055,1.525a1.331,1.331,0,0,1-.187-.08c-.039-.02-.077-.042-.114-.065a1.625,1.625,0,0,1-.144-.107c-.04-.034-.081-.064-.119-.1-.023-.022-.043-.05-.064-.073a2.157,2.157,0,0,1-.28-.383C23.138.7,23.128.687,23.119.67,23.075.588,23.036.5,23,.413c-.007-.019-.015-.037-.022-.055a2.729,2.729,0,0,1-.095-.294v0h-.517V4.836l1.42,1.422h1.525L26.73,4.836V.062h-.684v0a2.974,2.974,0,0,1-.1.294l-.021.055a2.634,2.634,0,0,1-.121.257c-.009.017-.019.03-.028.046A2.153,2.153,0,0,1,25.5,1.1c-.022.023-.041.051-.065.073-.038.037-.079.067-.119.1a1.377,1.377,0,0,1-.144.107c-.037.023-.075.045-.114.065a1.372,1.372,0,0,1-.186.08c-.035.012-.067.024-.1.033a1.125,1.125,0,0,1-.616,0C24.121,1.549,24.089,1.537,24.055,1.525ZM26,4.074a1.456,1.456,0,1,1-1.456-1.456A1.456,1.456,0,0,1,26,4.074Z"/>
        <path id="PIN__b4" class="cls-2" d="M31.152,1.525a1.331,1.331,0,0,1-.187-.08c-.039-.02-.078-.042-.115-.065a1.772,1.772,0,0,1-.143-.107c-.04-.034-.081-.064-.12-.1-.022-.022-.043-.05-.064-.073a2.153,2.153,0,0,1-.279-.383A.307.307,0,0,1,30.217.67,2.634,2.634,0,0,1,30.1.413L30.074.358a2.524,2.524,0,0,1-.1-.294v0H29.46V4.836l1.422,1.422h1.525l1.42-1.422V.062h-.685v0c-.028.1-.06.2-.1.294-.008.018-.014.036-.021.055A2.634,2.634,0,0,1,32.9.67c-.009.017-.02.03-.027.046a2.208,2.208,0,0,1-.28.383c-.023.023-.042.051-.065.073-.038.037-.079.067-.12.1a1.478,1.478,0,0,1-.143.107c-.038.023-.075.045-.114.065a1.283,1.283,0,0,1-.187.08c-.033.012-.066.024-.1.033a1.18,1.18,0,0,1-.308.043,1.174,1.174,0,0,1-.308-.043C31.217,1.549,31.186,1.537,31.152,1.525ZM33.1,4.074a1.457,1.457,0,1,1-1.456-1.456A1.457,1.457,0,0,1,33.1,4.074Z"/>
        <path id="PIN__b3" class="cls-2" d="M38.454,1.463a1.415,1.415,0,0,1-.188-.08c-.039-.021-.077-.042-.115-.066a1.759,1.759,0,0,1-.142-.107c-.041-.033-.082-.063-.121-.1-.021-.023-.042-.05-.064-.073a2.161,2.161,0,0,1-.279-.384.511.511,0,0,1-.028-.046A2.643,2.643,0,0,1,37.4.35C37.389.331,37.383.314,37.375.3A2.712,2.712,0,0,1,37.28,0V0h-.519V4.774L38.182,6.2h1.526l1.421-1.422V0h-.686V0a2.954,2.954,0,0,1-.1.293c-.008.019-.014.036-.021.055a2.431,2.431,0,0,1-.121.257c-.008.017-.019.031-.027.046a2.212,2.212,0,0,1-.279.384c-.023.023-.043.05-.065.073-.039.037-.08.067-.121.1a1.759,1.759,0,0,1-.142.107c-.038.024-.076.045-.115.066a1.4,1.4,0,0,1-.187.08c-.033.011-.066.024-.1.033a1.125,1.125,0,0,1-.616,0C38.519,1.487,38.487,1.474,38.454,1.463ZM40.4,4.011a1.457,1.457,0,1,1-1.457-1.455A1.457,1.457,0,0,1,40.4,4.011Z"/>
        <path id="PIN__3.3" class="cls-2" d="M45.678,1.525a1.283,1.283,0,0,1-.187-.08c-.039-.02-.076-.042-.114-.065a1.478,1.478,0,0,1-.143-.107c-.041-.034-.082-.064-.12-.1-.023-.022-.042-.05-.065-.073a2.208,2.208,0,0,1-.28-.383C44.762.7,44.751.687,44.742.67a2.634,2.634,0,0,1-.121-.257C44.614.394,44.608.376,44.6.358a2.974,2.974,0,0,1-.1-.294h-.518V4.836l1.421,1.422h1.525l1.422-1.422V.063h-.687a2.524,2.524,0,0,1-.095.294c-.007.018-.014.036-.022.055a2.634,2.634,0,0,1-.121.257A.307.307,0,0,1,47.4.716a2.153,2.153,0,0,1-.279.383c-.021.023-.042.051-.064.073-.039.037-.08.067-.12.1a1.772,1.772,0,0,1-.143.107c-.037.023-.076.045-.116.065a1.271,1.271,0,0,1-.186.08c-.034.012-.065.024-.1.033a1.125,1.125,0,0,1-.616,0C45.744,1.549,45.711,1.537,45.678,1.525Zm1.948,2.549A1.456,1.456,0,1,1,46.17,2.618,1.456,1.456,0,0,1,47.626,4.074Z"/>
        <path id="PIN__vBat" class="cls-2" d="M52.882,1.525a1.331,1.331,0,0,1-.187-.08c-.039-.02-.077-.042-.114-.065a1.625,1.625,0,0,1-.144-.107c-.04-.034-.081-.064-.119-.1-.023-.022-.043-.05-.064-.073a2.157,2.157,0,0,1-.28-.383C51.965.7,51.955.687,51.946.67,51.9.588,51.863.5,51.826.413,51.819.394,51.811.376,51.8.358a2.729,2.729,0,0,1-.095-.294h-.518V4.836l1.421,1.422h1.524l1.421-1.422V.063h-.685a2.974,2.974,0,0,1-.1.294l-.021.055a2.634,2.634,0,0,1-.121.257c-.009.017-.019.03-.028.046a2.153,2.153,0,0,1-.279.383c-.022.023-.041.051-.065.073-.038.037-.079.067-.119.1A1.377,1.377,0,0,1,54,1.38c-.037.023-.075.045-.114.065a1.372,1.372,0,0,1-.186.08c-.034.012-.067.024-.1.033a1.125,1.125,0,0,1-.616,0C52.948,1.549,52.916,1.537,52.882,1.525ZM54.83,4.074a1.456,1.456,0,1,1-1.456-1.456A1.456,1.456,0,0,1,54.83,4.074Z"/>
        <path id="PIN__gnd" class="cls-2" d="M60.055,1.525a1.319,1.319,0,0,1-.186-.08c-.039-.02-.078-.042-.115-.065a1.625,1.625,0,0,1-.144-.107c-.04-.034-.081-.064-.119-.1-.023-.022-.043-.05-.065-.073a2.2,2.2,0,0,1-.279-.383A.425.425,0,0,1,59.12.67,2.634,2.634,0,0,1,59,.413c-.008-.019-.015-.037-.021-.055a2.527,2.527,0,0,1-.1-.294h-.519V4.836l1.422,1.422H61.31l1.421-1.422V.063h-.686a2.971,2.971,0,0,1-.095.294c-.008.018-.015.036-.022.055a2.634,2.634,0,0,1-.121.257c-.008.017-.019.03-.027.046a2.208,2.208,0,0,1-.28.383c-.022.023-.042.051-.064.073-.038.037-.079.067-.12.1a1.625,1.625,0,0,1-.144.107c-.038.023-.075.045-.114.065a1.238,1.238,0,0,1-.187.08c-.033.012-.066.024-.1.033a1.186,1.186,0,0,1-.308.043,1.163,1.163,0,0,1-.308-.043C60.12,1.549,60.089,1.537,60.055,1.525ZM62,4.074a1.456,1.456,0,1,1-1.456-1.456A1.456,1.456,0,0,1,62,4.074Z"/>
      </g>
      <g>
        <path id="PIN__a4" class="cls-2" d="M0,32.907H0c.067.018.133.04.2.063l.036.015a1.425,1.425,0,0,1,.172.081l.03.017a1.521,1.521,0,0,1,.254.185c.016.016.035.03.049.044s.045.053.067.079.05.063.072.1a.824.824,0,0,1,.042.077.8.8,0,0,1,.054.124A.575.575,0,0,1,1,33.755a.824.824,0,0,1,.028.2A.832.832,0,0,1,1,34.166a.651.651,0,0,1-.023.066.8.8,0,0,1-.054.124.824.824,0,0,1-.042.077.936.936,0,0,1-.072.094.86.86,0,0,1-.067.08.4.4,0,0,1-.049.043,1.42,1.42,0,0,1-.254.186l-.03.019a1.807,1.807,0,0,1-.172.08.267.267,0,0,1-.036.014,1.8,1.8,0,0,1-.2.064H0v.345H3.177l.947-.946V33.4l-.947-.947H0Zm3.639,1a.969.969,0,1,1-.969-.969A.969.969,0,0,1,3.639,33.905Z"/>
        <path id="PIN__a3" class="cls-2" d="M0,29.258H0a1.8,1.8,0,0,1,.2.064l.036.014a1.807,1.807,0,0,1,.172.08c.009.006.019.014.03.02a1.416,1.416,0,0,1,.254.185.5.5,0,0,1,.049.043.86.86,0,0,1,.067.08,1.078,1.078,0,0,1,.072.095.809.809,0,0,1,.042.076.813.813,0,0,1,.054.125A.467.467,0,0,1,1,30.106a.83.83,0,0,1,.028.2.824.824,0,0,1-.028.2.467.467,0,0,1-.023.066.857.857,0,0,1-.054.125c-.012.025-.027.051-.042.076s-.046.064-.072.1a1,1,0,0,1-.067.079c-.014.015-.033.029-.049.043a1.471,1.471,0,0,1-.254.186l-.03.017a1.6,1.6,0,0,1-.172.082L.2,31.3a2.042,2.042,0,0,1-.2.064H0v.456H3.177l.947-.945V29.859l-.947-.946H0Zm3.639,1.109a.969.969,0,1,1-.969-.97A.969.969,0,0,1,3.639,30.367Z"/>
        <path id="PIN__a2" class="cls-2" d="M0,25.832H0a1.6,1.6,0,0,1,.2.064l.036.014a1.425,1.425,0,0,1,.172.081c.009,0,.019.012.03.017a1.525,1.525,0,0,1,.254.186c.016.014.035.028.049.043s.045.053.067.08a1.092,1.092,0,0,1,.072.1.7.7,0,0,1,.042.076.813.813,0,0,1,.054.125A.427.427,0,0,1,1,26.68a.824.824,0,0,1,.028.205.816.816,0,0,1-.028.2.48.48,0,0,1-.023.067.857.857,0,0,1-.054.125c-.012.025-.027.05-.042.076a1.078,1.078,0,0,1-.072.1.86.86,0,0,1-.067.08c-.014.015-.033.027-.049.043a1.466,1.466,0,0,1-.254.185l-.03.019c-.055.03-.112.055-.172.081L.2,27.873a1.8,1.8,0,0,1-.2.064H0v.345H3.177l.947-.947V26.321l-.947-.946H0Zm3.639,1a.969.969,0,1,1-.969-.969A.969.969,0,0,1,3.639,26.828Z"/>
        <path id="PIN__a1" class="cls-2" d="M0,22.182H0c.067.018.133.039.2.062.012.006.024.01.036.015a1.6,1.6,0,0,1,.172.081l.03.017a1.475,1.475,0,0,1,.254.187c.016.014.035.028.049.043a1,1,0,0,1,.067.079,1.078,1.078,0,0,1,.072.095.824.824,0,0,1,.042.077.846.846,0,0,1,.054.124A.575.575,0,0,1,1,23.029a.832.832,0,0,1,.028.206A.824.824,0,0,1,1,23.44a.575.575,0,0,1-.023.066.762.762,0,0,1-.054.124.715.715,0,0,1-.042.077c-.022.033-.046.064-.072.1s-.042.053-.067.079-.033.029-.049.043a1.475,1.475,0,0,1-.254.187.146.146,0,0,0-.03.017,1.59,1.59,0,0,1-.172.08c-.012.006-.024.01-.036.015a1.792,1.792,0,0,1-.2.063H0v.456H3.177l.947-.946V22.784l-.947-.947H0Zm3.639,1.109a.969.969,0,1,1-.969-.97A.969.969,0,0,1,3.639,23.291Z"/>
        <path id="PIN__a0" class="cls-2" d="M0,18.755H0c.067.018.133.04.2.063.012.006.024.01.036.015a1.59,1.59,0,0,1,.172.08l.03.018a1.521,1.521,0,0,1,.254.185c.016.016.035.03.049.044s.045.053.067.079a1.092,1.092,0,0,1,.072.1.715.715,0,0,1,.042.077.8.8,0,0,1,.054.124A.516.516,0,0,1,1,19.6a.764.764,0,0,1,0,.41.59.59,0,0,1-.023.067.8.8,0,0,1-.054.124.824.824,0,0,1-.042.077.936.936,0,0,1-.072.094,1.013,1.013,0,0,1-.067.08.5.5,0,0,1-.049.043,1.42,1.42,0,0,1-.254.186l-.03.019a1.807,1.807,0,0,1-.172.08c-.012.006-.024.009-.036.014a1.8,1.8,0,0,1-.2.064H0v.345H3.177l.947-.946V19.245L3.177,18.3H0Zm3.639,1a.969.969,0,1,1-.969-.969A.969.969,0,0,1,3.639,19.753Z"/>
        <path id="PIN__a10" class="cls-2" d="M0,15.106H0a1.6,1.6,0,0,1,.2.064l.036.014a1.807,1.807,0,0,1,.172.08.22.22,0,0,0,.03.019,1.42,1.42,0,0,1,.254.186c.016.014.035.027.049.042s.045.053.067.08.05.063.072.1a.809.809,0,0,1,.042.076.813.813,0,0,1,.054.125A.467.467,0,0,1,1,15.954a.824.824,0,0,1,.028.2A.83.83,0,0,1,1,16.364a.467.467,0,0,1-.023.066.857.857,0,0,1-.054.125c-.012.025-.027.05-.042.076a1.078,1.078,0,0,1-.072.095.86.86,0,0,1-.067.08c-.014.015-.033.029-.049.043a1.525,1.525,0,0,1-.254.186c-.011,0-.021.012-.03.017a1.6,1.6,0,0,1-.172.082L.2,17.148c-.063.024-.129.045-.2.064H0v.456H3.177l.947-.946V15.707l-.947-.946H0Zm3.639,1.108a.969.969,0,1,1-.969-.969A.969.969,0,0,1,3.639,16.214Z"/>
        <path id="PIN__b9" class="cls-2" d="M0,11.679H0a1.607,1.607,0,0,1,.2.065l.036.013a1.812,1.812,0,0,1,.172.081c.009.005.019.013.03.018a1.525,1.525,0,0,1,.254.186c.016.014.035.028.049.043a1.013,1.013,0,0,1,.067.08.961.961,0,0,1,.072.1.7.7,0,0,1,.042.076.813.813,0,0,1,.054.125A.427.427,0,0,1,1,12.528a.761.761,0,0,1,0,.409A.48.48,0,0,1,.973,13a.846.846,0,0,1-.054.124.809.809,0,0,1-.042.076.961.961,0,0,1-.072.1,1.013,1.013,0,0,1-.067.08c-.014.015-.033.027-.049.043a1.466,1.466,0,0,1-.254.185l-.03.019c-.055.03-.112.055-.172.081L.2,13.721a1.8,1.8,0,0,1-.2.064H0v.345H3.177l.947-.947V12.169l-.947-.946H0Zm3.639,1a.969.969,0,1,1-.969-.969A.969.969,0,0,1,3.639,12.676Z"/>
        <path id="PIN__b8" class="cls-2" d="M0,8.03H0a2.035,2.035,0,0,1,.2.062l.036.015a1.6,1.6,0,0,1,.172.081l.03.017a1.475,1.475,0,0,1,.254.187c.016.014.035.028.049.042s.045.053.067.08a1.078,1.078,0,0,1,.072.095.824.824,0,0,1,.042.077.846.846,0,0,1,.054.124A.575.575,0,0,1,1,8.877a.826.826,0,0,1,.028.206A.83.83,0,0,1,1,9.288a.575.575,0,0,1-.023.066.762.762,0,0,1-.054.124.824.824,0,0,1-.042.077,1.078,1.078,0,0,1-.072.1,1,1,0,0,1-.067.079.512.512,0,0,1-.049.044,1.471,1.471,0,0,1-.254.186.216.216,0,0,0-.03.018,1.59,1.59,0,0,1-.172.08c-.012.006-.024.01-.036.015a2.038,2.038,0,0,1-.2.063H0v.456H3.177l.947-.947V8.631l-.947-.946H0ZM3.639,9.138a.969.969,0,1,1-.969-.969A.969.969,0,0,1,3.639,9.138Z"/>
      </g>
      <g>
        <path id="PIN__a5" class="cls-2" d="M.713,39.153v4.774h.518v0a2.524,2.524,0,0,1,.095-.294c.007-.018.014-.036.022-.055a2.634,2.634,0,0,1,.121-.257.307.307,0,0,1,.027-.046,2.153,2.153,0,0,1,.279-.383c.021-.023.042-.051.064-.073.039-.037.08-.067.12-.1a1.772,1.772,0,0,1,.143-.107c.037-.023.076-.045.115-.065a1.331,1.331,0,0,1,.187-.08c.034-.012.065-.024.1-.033a1.125,1.125,0,0,1,.616,0c.033.009.067.021.1.033a1.283,1.283,0,0,1,.187.08c.039.02.076.042.114.065a1.478,1.478,0,0,1,.143.107c.041.034.082.064.12.1.023.022.042.05.065.073a2.208,2.208,0,0,1,.28.383c.007.016.018.029.027.046a2.634,2.634,0,0,1,.121.257c.007.019.013.037.021.055.036.095.068.192.1.294v0H5.08V39.153L3.66,37.731H2.135Zm3.64.762A1.457,1.457,0,1,1,2.9,38.458,1.457,1.457,0,0,1,4.353,39.915Z"/>
        <path id="PIN__a6" class="cls-2" d="M7.929,39.153v4.774h.519v0a2.527,2.527,0,0,1,.1-.294c.007-.018.013-.036.021-.055a2.634,2.634,0,0,1,.121-.257c.008-.017.018-.03.027-.046a2.2,2.2,0,0,1,.279-.383c.022-.023.043-.051.064-.073.039-.037.08-.067.121-.1a1.772,1.772,0,0,1,.143-.107c.038-.023.076-.045.115-.065a1.283,1.283,0,0,1,.187-.08c.033-.012.065-.024.1-.033a1.128,1.128,0,0,1,.617,0c.034.009.066.021.1.033a1.283,1.283,0,0,1,.187.08c.039.02.077.042.115.065a1.772,1.772,0,0,1,.143.107c.041.034.082.064.121.1.021.022.042.05.064.073a2.2,2.2,0,0,1,.279.383c.009.016.019.029.027.046a2.634,2.634,0,0,1,.121.257c.008.019.014.037.022.055a2.729,2.729,0,0,1,.1.294v0H12.3V39.153l-1.422-1.422H9.351Zm3.641.762a1.457,1.457,0,1,1-1.457-1.457A1.456,1.456,0,0,1,11.57,39.915Z"/>
        <path id="PIN__a7" class="cls-2" d="M15.08,39.153v4.774H15.6v0a2.971,2.971,0,0,1,.095-.294c.008-.018.015-.036.022-.055a2.634,2.634,0,0,1,.121-.257c.009-.017.019-.03.027-.046a2.208,2.208,0,0,1,.28-.383c.022-.023.042-.051.064-.073.038-.037.079-.067.12-.1a1.625,1.625,0,0,1,.144-.107c.038-.023.075-.045.114-.065a1.283,1.283,0,0,1,.187-.08c.033-.012.066-.024.1-.033a1.188,1.188,0,0,1,.309-.043,1.174,1.174,0,0,1,.308.043c.035.009.066.021.1.033a1.319,1.319,0,0,1,.186.08c.039.02.078.042.115.065a1.625,1.625,0,0,1,.144.107c.04.034.081.064.12.1.022.022.043.05.064.073a2.2,2.2,0,0,1,.279.383.425.425,0,0,1,.027.046,2.634,2.634,0,0,1,.121.257c.008.019.015.037.022.055a2.524,2.524,0,0,1,.095.294v0h.686V39.153l-1.422-1.422H16.5Zm3.64.762a1.456,1.456,0,1,1-1.457-1.457A1.456,1.456,0,0,1,18.72,39.915Z"/>
        <path id="PIN__b1" class="cls-2" d="M22.387,39.153v4.774H22.9v0a2.974,2.974,0,0,1,.1-.294l.021-.055a2.634,2.634,0,0,1,.121-.257c.009-.017.019-.03.028-.046a2.153,2.153,0,0,1,.279-.383c.022-.023.041-.051.065-.073.038-.037.079-.067.119-.1a1.377,1.377,0,0,1,.144-.107c.037-.023.075-.045.114-.065a1.372,1.372,0,0,1,.186-.08c.034-.012.067-.024.1-.033a1.125,1.125,0,0,1,.616,0c.034.009.066.021.1.033a1.331,1.331,0,0,1,.187.08c.039.02.077.042.114.065a1.625,1.625,0,0,1,.144.107c.04.034.081.064.119.1.023.022.043.05.064.073a2.157,2.157,0,0,1,.28.383c.009.016.019.029.027.046a2.634,2.634,0,0,1,.121.257c.007.019.015.037.022.055a2.729,2.729,0,0,1,.095.294v0h.685V39.153l-1.421-1.422H23.807Zm3.638.762a1.456,1.456,0,1,1-1.455-1.457A1.455,1.455,0,0,1,26.025,39.915Z"/>
        <path id="PIN__b10" class="cls-2" d="M29.577,39.153v4.774H30.1v0a2.524,2.524,0,0,1,.095-.294c.007-.018.014-.036.022-.055.037-.089.076-.175.12-.257a.434.434,0,0,1,.028-.046,2.153,2.153,0,0,1,.279-.383c.021-.023.042-.051.064-.073.039-.037.08-.067.12-.1a1.612,1.612,0,0,1,.143-.107c.037-.023.076-.045.115-.065a1.331,1.331,0,0,1,.187-.08c.034-.012.065-.024.1-.033a1.125,1.125,0,0,1,.616,0c.033.009.067.021.1.033a1.331,1.331,0,0,1,.187.08c.039.02.076.042.114.065a1.612,1.612,0,0,1,.143.107c.041.034.082.064.12.1.023.022.042.05.065.073a2.153,2.153,0,0,1,.279.383c.008.016.019.029.028.046a2.634,2.634,0,0,1,.121.257.52.52,0,0,0,.021.055c.036.095.068.192.1.294v0h.685V39.153l-1.421-1.422H31Zm3.64.762a1.457,1.457,0,1,1-1.456-1.457A1.457,1.457,0,0,1,33.217,39.915Z"/>
        <path id="PIN__b13" class="cls-2" d="M36.7,39.153v4.774h.518v0a2.974,2.974,0,0,1,.1-.294c.008-.018.013-.036.021-.055a2.634,2.634,0,0,1,.121-.257c.008-.017.019-.03.027-.046a2.2,2.2,0,0,1,.279-.383c.023-.023.043-.051.065-.073.039-.037.08-.067.121-.1a1.6,1.6,0,0,1,.142-.107c.038-.023.076-.045.115-.065a1.283,1.283,0,0,1,.187-.08c.033-.012.066-.024.1-.033a1.125,1.125,0,0,1,.616,0c.034.009.066.021.1.033a1.294,1.294,0,0,1,.188.08c.039.02.077.042.115.065s.095.069.142.107.082.064.121.1c.021.022.042.05.064.073a2.153,2.153,0,0,1,.279.383.425.425,0,0,1,.027.046,2.634,2.634,0,0,1,.121.257c.008.019.014.037.022.055a2.729,2.729,0,0,1,.1.294v0h.687V39.153l-1.422-1.422H38.123Zm3.64.762a1.457,1.457,0,1,1-1.456-1.457A1.456,1.456,0,0,1,40.342,39.915Z"/>
        <path id="PIN__b14" class="cls-2" d="M43.889,39.153v4.774h.518v0a2.732,2.732,0,0,1,.1-.294l.021-.055a2.634,2.634,0,0,1,.121-.257c.009-.017.019-.03.027-.046a2.208,2.208,0,0,1,.28-.383c.022-.023.042-.051.064-.073.038-.037.079-.067.12-.1a1.625,1.625,0,0,1,.144-.107c.038-.023.075-.045.114-.065a1.283,1.283,0,0,1,.187-.08c.033-.012.066-.024.1-.033a1.128,1.128,0,0,1,.617,0c.035.009.066.021.1.033a1.319,1.319,0,0,1,.186.08c.039.02.078.042.115.065a1.625,1.625,0,0,1,.144.107c.04.034.081.064.12.1.022.022.042.05.064.073a2.2,2.2,0,0,1,.279.383.425.425,0,0,1,.027.046,2.634,2.634,0,0,1,.121.257c.008.019.015.037.021.055a2.527,2.527,0,0,1,.1.294v0h.685V39.153l-1.421-1.422H45.31Zm3.64.762a1.456,1.456,0,1,1-1.457-1.457A1.456,1.456,0,0,1,47.529,39.915Z"/>
        <path id="PIN__b15" class="cls-2" d="M51.055,39.153v4.774h.517v0a2.729,2.729,0,0,1,.095-.294c.007-.018.015-.036.022-.055a2.634,2.634,0,0,1,.121-.257c.008-.017.018-.03.027-.046a2.157,2.157,0,0,1,.28-.383c.021-.023.041-.051.064-.073.038-.037.079-.067.119-.1a1.625,1.625,0,0,1,.144-.107c.037-.023.075-.045.114-.065a1.331,1.331,0,0,1,.187-.08c.034-.012.066-.024.1-.033a1.125,1.125,0,0,1,.616,0c.034.009.067.021.1.033a1.319,1.319,0,0,1,.186.08c.039.02.077.042.114.065a1.377,1.377,0,0,1,.144.107c.04.034.081.064.119.1.024.022.043.05.065.073a2.208,2.208,0,0,1,.28.383c.008.016.018.029.027.046a2.634,2.634,0,0,1,.121.257l.021.055a2.732,2.732,0,0,1,.1.294v0h.684V39.153L54,37.731H52.476Zm3.639.762a1.456,1.456,0,1,1-1.456-1.457A1.456,1.456,0,0,1,54.694,39.915Z"/>
        <path id="PIN__batIn" class="cls-2" d="M58.334,39.153v4.774h.518v0a2.524,2.524,0,0,1,.095-.294l.022-.055a2.634,2.634,0,0,1,.121-.257.307.307,0,0,1,.027-.046,2.153,2.153,0,0,1,.279-.383c.021-.023.042-.051.064-.073.039-.037.08-.067.12-.1a1.772,1.772,0,0,1,.143-.107c.037-.023.077-.045.116-.065a1.271,1.271,0,0,1,.186-.08c.034-.012.065-.024.1-.033a1.125,1.125,0,0,1,.616,0c.034.009.067.021.1.033a1.283,1.283,0,0,1,.187.08c.039.02.076.042.114.065a1.625,1.625,0,0,1,.144.107c.04.034.081.064.119.1.023.022.042.05.065.073a2.208,2.208,0,0,1,.28.383c.007.016.018.029.027.046a2.634,2.634,0,0,1,.121.257c.007.019.013.037.021.055a2.974,2.974,0,0,1,.1.294v0H62.7V39.153l-1.42-1.422H59.756Zm3.64.762a1.457,1.457,0,1,1-1.456-1.457A1.456,1.456,0,0,1,61.974,39.915Z"/>
      </g>
      <path id="PIN__gnd-2" data-name="PIN__gnd" class="cls-2" d="M8.838,35.173h2.621V32.552H8.838Zm2.184-1.311a.874.874,0,1,1-.873-.873A.873.873,0,0,1,11.022,33.862Z"/>
      <path id="PIN__3.3-2" data-name="PIN__3.3" class="cls-2" d="M12.437,33.844a1.311,1.311,0,1,0,1.31-1.311A1.309,1.309,0,0,0,12.437,33.844Zm2.184,0a.874.874,0,1,1-.874-.874A.874.874,0,0,1,14.621,33.844Z"/>
      <path id="PIN__vbat-2" data-name="PIN__vbat" class="cls-2" d="M16.035,33.844a1.311,1.311,0,1,0,1.311-1.311A1.31,1.31,0,0,0,16.035,33.844Zm2.184,0a.874.874,0,1,1-.873-.874A.873.873,0,0,1,18.219,33.844Z"/>
      <g>
        <g>
          <rect id="rect21332-8-1-9-3-8-2-40-6-2-0-6-6-0-5-6-4-8-7-2-0-7-2-3-10-16-5-3" class="cls-3" x="9.928" y="22.643" width="2.104" height="1.932"/>
          <rect id="rect21332-8-1-9-3-8-2-40-6-2-0-6-6-0-5-6-4-8-7-2-0-7-2-3-9-16-5-3" class="cls-3" x="7.158" y="22.643" width="2.059" height="1.933"/>
          <path class="cls-4" d="M7.736,22.643h3.671a.3.3,0,0,1,.313.236V24.33a.283.283,0,0,1-.312.245H7.736a.284.284,0,0,1-.313-.244V22.9a.29.29,0,0,1,.3-.253Z"/>
        </g>
        <g>
          <rect id="rect21332-8-1-9-3-8-2-40-6-2-0-6-6-0-5-6-4-8-7-2-0-7-2-3-10-16-5-4" class="cls-3" x="9.928" y="18.944" width="2.104" height="1.932"/>
          <rect id="rect21332-8-1-9-3-8-2-40-6-2-0-6-6-0-5-6-4-8-7-2-0-7-2-3-9-16-5-4" class="cls-3" x="7.157" y="18.944" width="2.059" height="1.932"/>
          <path class="cls-4" d="M7.736,18.944h3.671a.3.3,0,0,1,.313.236v1.451a.283.283,0,0,1-.312.245H7.736a.283.283,0,0,1-.313-.244V19.2a.29.29,0,0,1,.3-.254Z"/>
        </g>
        <g>
          <rect id="rect21332-8-1-9-3-8-2-40-6-2-0-6-6-0-5-6-4-8-7-2-0-7-2-3-10-16-5-5" class="cls-3" x="9.904" y="15.245" width="2.104" height="1.924"/>
          <rect id="rect21332-8-1-9-3-8-2-40-6-2-0-6-6-0-5-6-4-8-7-2-0-7-2-3-9-16-5-5" class="cls-3" x="7.134" y="15.253" width="2.059" height="1.924"/>
          <path class="cls-4" d="M7.713,15.253h3.67a.305.305,0,0,1,.314.235v1.446a.283.283,0,0,1-.312.243H7.713a.282.282,0,0,1-.313-.242V15.507a.29.29,0,0,1,.3-.253h.01Z"/>
        </g>
        <g id="path26345-3-6-9-3-6-4-2-5-6-8-7-9-0-90-3-1-3-9-2-2-8-5-0-2-3-5-16-5-2-2">
          <rect class="cls-5" x="7.717" y="15.245" width="3.68" height="9.331"/>
        </g>
        <path id="path26341-4-2-6-0-8-1-1-1-5-0-3-3-1-8-3-8-7-7-7-2-4-9-7-2-3-5-16-5-2-2" class="cls-6" d="M7.866,24.577h3.312V15.245H7.866Z"/>
        <rect class="cls-7" x="8.289" y="15.476" width="2.467" height="8.897" rx="0.421"/>
      </g>
      <g id="T-SOT23">
        <path id="path3479-7-2-2" class="cls-6" d="M60.747,20.845h-1.57v-2.57h1.57Z"/>
        <path id="path3481-0-2-2" class="cls-8" d="M60.747,20.605h-1.57v-.85h1.57Z"/>
        <path id="path3483-6-2" class="cls-6" d="M55.257,20.845h-1.6v-2.57h1.6Z"/>
        <path id="path3485-6-2" class="cls-8" d="M55.257,20.605h-1.6v-.85h1.6Z"/>
        <path id="path3487-1-2-2" class="cls-6" d="M58.037,24.3h-1.62v2.56h1.62Z"/>
        <path id="path3489-6-2-2" class="cls-8" d="M58.037,24.6h-1.62v.79h1.62Z"/>
        <path id="path3477-9-2" class="cls-9" d="M61.437,24.313h-8.42v-3.48h8.42Z"/>
      </g>
      <g id="T-SOT23-2" data-name="T-SOT23">
        <path id="path3479-7-2-2-2" data-name="path3479-7-2-2" class="cls-6" d="M57.464,28.035v1.57h-2.57v-1.57Z"/>
        <path id="path3481-0-2-2-2" data-name="path3481-0-2-2" class="cls-8" d="M55.984,28.035v1.57h-.85v-1.57Z"/>
        <path id="path3483-6-2-2" data-name="path3483-6-2" class="cls-6" d="M57.464,33.524v1.6h-2.57v-1.6Z"/>
        <path id="path3485-6-2-2" data-name="path3485-6-2" class="cls-8" d="M55.984,33.524v1.6h-.85v-1.6Z"/>
        <path id="path3487-1-2-2-2" data-name="path3487-1-2-2" class="cls-6" d="M48.875,30.745v1.62h2.56v-1.62Z"/>
        <path id="path3489-6-2-2-2" data-name="path3489-6-2-2" class="cls-8" d="M50.345,30.745v1.62h.79v-1.62Z"/>
        <path id="path3477-9-2-2" data-name="path3477-9-2" class="cls-9" d="M54.905,27.345v8.42h-3.48v-8.42Z"/>
      </g>
      <g id="QFN-48">
        <rect class="cls-9" x="17.804" y="11.616" width="19.843" height="19.843"/>
        <g>
          <g>
            <g id="path3870-5-4-1-3-9-13-48-64-51-216-25-34">
              <rect class="cls-10" x="19.519" y="31.459" width="0.85" height="0.85"/>
            </g>
            <g id="rect36057-3-4-8-4-7-5-0-7-5-24-7-7-2-5-48-13-48-64-51-216-25-34">
              <rect class="cls-8" x="19.519" y="31.861" width="0.85" height="0.094"/>
            </g>
          </g>
          <g>
            <g id="path3870-5-4-1-3-9-13-48-64-51-216-25-35">
              <rect class="cls-10" x="20.934" y="31.459" width="0.85" height="0.85"/>
            </g>
            <g id="rect36057-3-4-8-4-7-5-0-7-5-24-7-7-2-5-48-13-48-64-51-216-25-35">
              <rect class="cls-8" x="20.934" y="31.861" width="0.85" height="0.094"/>
            </g>
          </g>
          <g>
            <g id="path3870-5-4-1-3-9-13-48-64-51-216-25-36">
              <rect class="cls-10" x="22.349" y="31.459" width="0.85" height="0.85"/>
            </g>
            <g id="rect36057-3-4-8-4-7-5-0-7-5-24-7-7-2-5-48-13-48-64-51-216-25-36">
              <rect class="cls-8" x="22.349" y="31.861" width="0.85" height="0.094"/>
            </g>
          </g>
          <g>
            <g id="path3870-5-4-1-3-9-13-48-64-51-216-25-37">
              <rect class="cls-10" x="23.764" y="31.459" width="0.85" height="0.85"/>
            </g>
            <g id="rect36057-3-4-8-4-7-5-0-7-5-24-7-7-2-5-48-13-48-64-51-216-25-37">
              <rect class="cls-8" x="23.764" y="31.861" width="0.85" height="0.094"/>
            </g>
          </g>
          <g>
            <g id="path3870-5-4-1-3-9-13-48-64-51-216-25-38">
              <rect class="cls-10" x="25.178" y="31.459" width="0.85" height="0.85"/>
            </g>
            <g id="rect36057-3-4-8-4-7-5-0-7-5-24-7-7-2-5-48-13-48-64-51-216-25-38">
              <rect class="cls-8" x="25.178" y="31.861" width="0.85" height="0.094"/>
            </g>
          </g>
          <g>
            <g id="path3870-5-4-1-3-9-13-48-64-51-216-25-39">
              <rect class="cls-10" x="26.593" y="31.459" width="0.85" height="0.85"/>
            </g>
            <g id="rect36057-3-4-8-4-7-5-0-7-5-24-7-7-2-5-48-13-48-64-51-216-25-39">
              <rect class="cls-8" x="26.593" y="31.861" width="0.85" height="0.094"/>
            </g>
          </g>
          <g>
            <g id="path3870-5-4-1-3-9-13-48-64-51-216-25-40">
              <rect class="cls-10" x="28.008" y="31.459" width="0.85" height="0.85"/>
            </g>
            <g id="rect36057-3-4-8-4-7-5-0-7-5-24-7-7-2-5-48-13-48-64-51-216-25-40">
              <rect class="cls-8" x="28.008" y="31.861" width="0.85" height="0.094"/>
            </g>
          </g>
          <g>
            <g id="path3870-5-4-1-3-9-13-48-64-51-216-25-41">
              <rect class="cls-10" x="29.423" y="31.459" width="0.85" height="0.85"/>
            </g>
            <g id="rect36057-3-4-8-4-7-5-0-7-5-24-7-7-2-5-48-13-48-64-51-216-25-41">
              <rect class="cls-8" x="29.423" y="31.861" width="0.85" height="0.094"/>
            </g>
          </g>
          <g>
            <g id="path3870-5-4-1-3-9-13-48-64-51-216-25-42">
              <rect class="cls-10" x="30.837" y="31.459" width="0.85" height="0.85"/>
            </g>
            <g id="rect36057-3-4-8-4-7-5-0-7-5-24-7-7-2-5-48-13-48-64-51-216-25-42">
              <rect class="cls-8" x="30.837" y="31.861" width="0.85" height="0.094"/>
            </g>
          </g>
          <g>
            <g id="path3870-5-4-1-3-9-13-48-64-51-216-25-43">
              <rect class="cls-10" x="32.252" y="31.459" width="0.85" height="0.85"/>
            </g>
            <g id="rect36057-3-4-8-4-7-5-0-7-5-24-7-7-2-5-48-13-48-64-51-216-25-43">
              <rect class="cls-8" x="32.252" y="31.861" width="0.85" height="0.094"/>
            </g>
          </g>
          <g>
            <g id="path3870-5-4-1-3-9-13-48-64-51-216-25-44">
              <rect class="cls-10" x="33.667" y="31.459" width="0.85" height="0.85"/>
            </g>
            <g id="rect36057-3-4-8-4-7-5-0-7-5-24-7-7-2-5-48-13-48-64-51-216-25-44">
              <rect class="cls-8" x="33.667" y="31.861" width="0.85" height="0.094"/>
            </g>
          </g>
          <g>
            <g id="path3870-5-4-1-3-9-13-48-64-51-216-25-45">
              <rect class="cls-10" x="35.082" y="31.459" width="0.85" height="0.85"/>
            </g>
            <g id="rect36057-3-4-8-4-7-5-0-7-5-24-7-7-2-5-48-13-48-64-51-216-25-45">
              <rect class="cls-8" x="35.082" y="31.861" width="0.85" height="0.094"/>
            </g>
          </g>
        </g>
        <g>
          <g>
            <g id="path3870-5-4-1-3-9-13-48-64-51-216-25-46">
              <rect class="cls-10" x="19.519" y="10.766" width="0.85" height="0.85"/>
            </g>
            <g id="rect36057-3-4-8-4-7-5-0-7-5-24-7-7-2-5-48-13-48-64-51-216-25-46">
              <rect class="cls-8" x="19.519" y="11.168" width="0.85" height="0.094"/>
            </g>
          </g>
          <g>
            <g id="path3870-5-4-1-3-9-13-48-64-51-216-25-47">
              <rect class="cls-10" x="20.934" y="10.766" width="0.85" height="0.85"/>
            </g>
            <g id="rect36057-3-4-8-4-7-5-0-7-5-24-7-7-2-5-48-13-48-64-51-216-25-47">
              <rect class="cls-8" x="20.934" y="11.168" width="0.85" height="0.094"/>
            </g>
          </g>
          <g>
            <g id="path3870-5-4-1-3-9-13-48-64-51-216-25-48">
              <rect class="cls-10" x="22.349" y="10.766" width="0.85" height="0.85"/>
            </g>
            <g id="rect36057-3-4-8-4-7-5-0-7-5-24-7-7-2-5-48-13-48-64-51-216-25-48">
              <rect class="cls-8" x="22.349" y="11.168" width="0.85" height="0.094"/>
            </g>
          </g>
          <g>
            <g id="path3870-5-4-1-3-9-13-48-64-51-216-25-49">
              <rect class="cls-10" x="23.764" y="10.766" width="0.85" height="0.85"/>
            </g>
            <g id="rect36057-3-4-8-4-7-5-0-7-5-24-7-7-2-5-48-13-48-64-51-216-25-49">
              <rect class="cls-8" x="23.764" y="11.168" width="0.85" height="0.094"/>
            </g>
          </g>
          <g>
            <g id="path3870-5-4-1-3-9-13-48-64-51-216-25-50">
              <rect class="cls-10" x="25.178" y="10.766" width="0.85" height="0.85"/>
            </g>
            <g id="rect36057-3-4-8-4-7-5-0-7-5-24-7-7-2-5-48-13-48-64-51-216-25-50">
              <rect class="cls-8" x="25.178" y="11.168" width="0.85" height="0.094"/>
            </g>
          </g>
          <g>
            <g id="path3870-5-4-1-3-9-13-48-64-51-216-25-51">
              <rect class="cls-10" x="26.593" y="10.766" width="0.85" height="0.85"/>
            </g>
            <g id="rect36057-3-4-8-4-7-5-0-7-5-24-7-7-2-5-48-13-48-64-51-216-25-51">
              <rect class="cls-8" x="26.593" y="11.168" width="0.85" height="0.094"/>
            </g>
          </g>
          <g>
            <g id="path3870-5-4-1-3-9-13-48-64-51-216-25-52">
              <rect class="cls-10" x="28.008" y="10.766" width="0.85" height="0.85"/>
            </g>
            <g id="rect36057-3-4-8-4-7-5-0-7-5-24-7-7-2-5-48-13-48-64-51-216-25-52">
              <rect class="cls-8" x="28.008" y="11.168" width="0.85" height="0.094"/>
            </g>
          </g>
          <g>
            <g id="path3870-5-4-1-3-9-13-48-64-51-216-25-53">
              <rect class="cls-10" x="29.423" y="10.766" width="0.85" height="0.85"/>
            </g>
            <g id="rect36057-3-4-8-4-7-5-0-7-5-24-7-7-2-5-48-13-48-64-51-216-25-53">
              <rect class="cls-8" x="29.423" y="11.168" width="0.85" height="0.094"/>
            </g>
          </g>
          <g>
            <g id="path3870-5-4-1-3-9-13-48-64-51-216-25-54">
              <rect class="cls-10" x="30.837" y="10.766" width="0.85" height="0.85"/>
            </g>
            <g id="rect36057-3-4-8-4-7-5-0-7-5-24-7-7-2-5-48-13-48-64-51-216-25-54">
              <rect class="cls-8" x="30.837" y="11.168" width="0.85" height="0.094"/>
            </g>
          </g>
          <g>
            <g id="path3870-5-4-1-3-9-13-48-64-51-216-25-55">
              <rect class="cls-10" x="32.252" y="10.766" width="0.85" height="0.85"/>
            </g>
            <g id="rect36057-3-4-8-4-7-5-0-7-5-24-7-7-2-5-48-13-48-64-51-216-25-55">
              <rect class="cls-8" x="32.252" y="11.168" width="0.85" height="0.094"/>
            </g>
          </g>
          <g>
            <g id="path3870-5-4-1-3-9-13-48-64-51-216-25-56">
              <rect class="cls-10" x="33.667" y="10.766" width="0.85" height="0.85"/>
            </g>
            <g id="rect36057-3-4-8-4-7-5-0-7-5-24-7-7-2-5-48-13-48-64-51-216-25-56">
              <rect class="cls-8" x="33.667" y="11.168" width="0.85" height="0.094"/>
            </g>
          </g>
          <g>
            <g id="path3870-5-4-1-3-9-13-48-64-51-216-25-57">
              <rect class="cls-10" x="35.082" y="10.766" width="0.85" height="0.85"/>
            </g>
            <g id="rect36057-3-4-8-4-7-5-0-7-5-24-7-7-2-5-48-13-48-64-51-216-25-57">
              <rect class="cls-8" x="35.082" y="11.168" width="0.85" height="0.094"/>
            </g>
          </g>
        </g>
        <g>
          <g>
            <g id="path3870-5-4-1-3-9-13-48-64-51-216-25-58">
              <rect class="cls-10" x="37.647" y="13.332" width="0.85" height="0.85"/>
            </g>
            <g id="rect36057-3-4-8-4-7-5-0-7-5-24-7-7-2-5-48-13-48-64-51-216-25-58">
              <rect class="cls-8" x="38.001" y="13.331" width="0.094" height="0.85"/>
            </g>
          </g>
          <g>
            <g id="path3870-5-4-1-3-9-13-48-64-51-216-25-59">
              <rect class="cls-10" x="37.647" y="14.746" width="0.85" height="0.85"/>
            </g>
            <g id="rect36057-3-4-8-4-7-5-0-7-5-24-7-7-2-5-48-13-48-64-51-216-25-59">
              <rect class="cls-8" x="38.001" y="14.746" width="0.094" height="0.85"/>
            </g>
          </g>
          <g>
            <g id="path3870-5-4-1-3-9-13-48-64-51-216-25-60">
              <rect class="cls-10" x="37.647" y="16.161" width="0.85" height="0.85"/>
            </g>
            <g id="rect36057-3-4-8-4-7-5-0-7-5-24-7-7-2-5-48-13-48-64-51-216-25-60">
              <rect class="cls-8" x="38.001" y="16.161" width="0.094" height="0.85"/>
            </g>
          </g>
          <g>
            <g id="path3870-5-4-1-3-9-13-48-64-51-216-25-61">
              <rect class="cls-10" x="37.647" y="17.576" width="0.85" height="0.85"/>
            </g>
            <g id="rect36057-3-4-8-4-7-5-0-7-5-24-7-7-2-5-48-13-48-64-51-216-25-61">
              <rect class="cls-8" x="38.001" y="17.576" width="0.094" height="0.85"/>
            </g>
          </g>
          <g>
            <g id="path3870-5-4-1-3-9-13-48-64-51-216-25-62">
              <rect class="cls-10" x="37.647" y="18.99" width="0.85" height="0.85"/>
            </g>
            <g id="rect36057-3-4-8-4-7-5-0-7-5-24-7-7-2-5-48-13-48-64-51-216-25-62">
              <rect class="cls-8" x="38.001" y="18.99" width="0.094" height="0.85"/>
            </g>
          </g>
          <g>
            <g id="path3870-5-4-1-3-9-13-48-64-51-216-25-63">
              <rect class="cls-10" x="37.647" y="20.405" width="0.85" height="0.85"/>
            </g>
            <g id="rect36057-3-4-8-4-7-5-0-7-5-24-7-7-2-5-48-13-48-64-51-216-25-63">
              <rect class="cls-8" x="38.001" y="20.405" width="0.094" height="0.85"/>
            </g>
          </g>
          <g>
            <g id="path3870-5-4-1-3-9-13-48-64-51-216-25-64">
              <rect class="cls-10" x="37.647" y="21.82" width="0.85" height="0.85"/>
            </g>
            <g id="rect36057-3-4-8-4-7-5-0-7-5-24-7-7-2-5-48-13-48-64-51-216-25-64">
              <rect class="cls-8" x="38.001" y="21.82" width="0.094" height="0.85"/>
            </g>
          </g>
          <g>
            <g id="path3870-5-4-1-3-9-13-48-64-51-216-25-65">
              <rect class="cls-10" x="37.647" y="23.235" width="0.85" height="0.85"/>
            </g>
            <g id="rect36057-3-4-8-4-7-5-0-7-5-24-7-7-2-5-48-13-48-64-51-216-25-65">
              <rect class="cls-8" x="38.001" y="23.235" width="0.094" height="0.85"/>
            </g>
          </g>
          <g>
            <g id="path3870-5-4-1-3-9-13-48-64-51-216-25-66">
              <rect class="cls-10" x="37.647" y="24.649" width="0.85" height="0.85"/>
            </g>
            <g id="rect36057-3-4-8-4-7-5-0-7-5-24-7-7-2-5-48-13-48-64-51-216-25-66">
              <rect class="cls-8" x="38.001" y="24.649" width="0.094" height="0.85"/>
            </g>
          </g>
          <g>
            <g id="path3870-5-4-1-3-9-13-48-64-51-216-25-67">
              <rect class="cls-10" x="37.647" y="26.064" width="0.85" height="0.85"/>
            </g>
            <g id="rect36057-3-4-8-4-7-5-0-7-5-24-7-7-2-5-48-13-48-64-51-216-25-67">
              <rect class="cls-8" x="38.001" y="26.064" width="0.094" height="0.85"/>
            </g>
          </g>
          <g>
            <g id="path3870-5-4-1-3-9-13-48-64-51-216-25-68">
              <rect class="cls-10" x="37.647" y="27.479" width="0.85" height="0.85"/>
            </g>
            <g id="rect36057-3-4-8-4-7-5-0-7-5-24-7-7-2-5-48-13-48-64-51-216-25-68">
              <rect class="cls-8" x="38.001" y="27.479" width="0.094" height="0.85"/>
            </g>
          </g>
          <g>
            <g id="path3870-5-4-1-3-9-13-48-64-51-216-25-69">
              <rect class="cls-10" x="37.647" y="28.894" width="0.85" height="0.85"/>
            </g>
            <g id="rect36057-3-4-8-4-7-5-0-7-5-24-7-7-2-5-48-13-48-64-51-216-25-69">
              <rect class="cls-8" x="38.001" y="28.893" width="0.094" height="0.85"/>
            </g>
          </g>
        </g>
        <g>
          <g>
            <g id="path3870-5-4-1-3-9-13-48-64-51-216-25-70">
              <rect class="cls-10" x="16.954" y="13.332" width="0.85" height="0.85"/>
            </g>
            <g id="rect36057-3-4-8-4-7-5-0-7-5-24-7-7-2-5-48-13-48-64-51-216-25-70">
              <rect class="cls-8" x="17.309" y="13.331" width="0.094" height="0.85"/>
            </g>
          </g>
          <g>
            <g id="path3870-5-4-1-3-9-13-48-64-51-216-25-71">
              <rect class="cls-10" x="16.954" y="14.746" width="0.85" height="0.85"/>
            </g>
            <g id="rect36057-3-4-8-4-7-5-0-7-5-24-7-7-2-5-48-13-48-64-51-216-25-71">
              <rect class="cls-8" x="17.309" y="14.746" width="0.094" height="0.85"/>
            </g>
          </g>
          <g>
            <g id="path3870-5-4-1-3-9-13-48-64-51-216-25-72">
              <rect class="cls-10" x="16.954" y="16.161" width="0.85" height="0.85"/>
            </g>
            <g id="rect36057-3-4-8-4-7-5-0-7-5-24-7-7-2-5-48-13-48-64-51-216-25-72">
              <rect class="cls-8" x="17.309" y="16.161" width="0.094" height="0.85"/>
            </g>
          </g>
          <g>
            <g id="path3870-5-4-1-3-9-13-48-64-51-216-25-73">
              <rect class="cls-10" x="16.954" y="17.576" width="0.85" height="0.85"/>
            </g>
            <g id="rect36057-3-4-8-4-7-5-0-7-5-24-7-7-2-5-48-13-48-64-51-216-25-73">
              <rect class="cls-8" x="17.309" y="17.576" width="0.094" height="0.85"/>
            </g>
          </g>
          <g>
            <g id="path3870-5-4-1-3-9-13-48-64-51-216-25-74">
              <rect class="cls-10" x="16.954" y="18.99" width="0.85" height="0.85"/>
            </g>
            <g id="rect36057-3-4-8-4-7-5-0-7-5-24-7-7-2-5-48-13-48-64-51-216-25-74">
              <rect class="cls-8" x="17.309" y="18.99" width="0.094" height="0.85"/>
            </g>
          </g>
          <g>
            <g id="path3870-5-4-1-3-9-13-48-64-51-216-25-75">
              <rect class="cls-10" x="16.954" y="20.405" width="0.85" height="0.85"/>
            </g>
            <g id="rect36057-3-4-8-4-7-5-0-7-5-24-7-7-2-5-48-13-48-64-51-216-25-75">
              <rect class="cls-8" x="17.309" y="20.405" width="0.094" height="0.85"/>
            </g>
          </g>
          <g>
            <g id="path3870-5-4-1-3-9-13-48-64-51-216-25-76">
              <rect class="cls-10" x="16.954" y="21.82" width="0.85" height="0.85"/>
            </g>
            <g id="rect36057-3-4-8-4-7-5-0-7-5-24-7-7-2-5-48-13-48-64-51-216-25-76">
              <rect class="cls-8" x="17.309" y="21.82" width="0.094" height="0.85"/>
            </g>
          </g>
          <g>
            <g id="path3870-5-4-1-3-9-13-48-64-51-216-25-77">
              <rect class="cls-10" x="16.954" y="23.235" width="0.85" height="0.85"/>
            </g>
            <g id="rect36057-3-4-8-4-7-5-0-7-5-24-7-7-2-5-48-13-48-64-51-216-25-77">
              <rect class="cls-8" x="17.309" y="23.235" width="0.094" height="0.85"/>
            </g>
          </g>
          <g>
            <g id="path3870-5-4-1-3-9-13-48-64-51-216-25-78">
              <rect class="cls-10" x="16.954" y="24.649" width="0.85" height="0.85"/>
            </g>
            <g id="rect36057-3-4-8-4-7-5-0-7-5-24-7-7-2-5-48-13-48-64-51-216-25-78">
              <rect class="cls-8" x="17.309" y="24.649" width="0.094" height="0.85"/>
            </g>
          </g>
          <g>
            <g id="path3870-5-4-1-3-9-13-48-64-51-216-25-79">
              <rect class="cls-10" x="16.954" y="26.064" width="0.85" height="0.85"/>
            </g>
            <g id="rect36057-3-4-8-4-7-5-0-7-5-24-7-7-2-5-48-13-48-64-51-216-25-79">
              <rect class="cls-8" x="17.309" y="26.064" width="0.094" height="0.85"/>
            </g>
          </g>
          <g>
            <g id="path3870-5-4-1-3-9-13-48-64-51-216-25-80">
              <rect class="cls-10" x="16.954" y="27.479" width="0.85" height="0.85"/>
            </g>
            <g id="rect36057-3-4-8-4-7-5-0-7-5-24-7-7-2-5-48-13-48-64-51-216-25-80">
              <rect class="cls-8" x="17.309" y="27.479" width="0.094" height="0.85"/>
            </g>
          </g>
          <g>
            <g id="path3870-5-4-1-3-9-13-48-64-51-216-25-81">
              <rect class="cls-10" x="16.954" y="28.894" width="0.85" height="0.85"/>
            </g>
            <g id="rect36057-3-4-8-4-7-5-0-7-5-24-7-7-2-5-48-13-48-64-51-216-25-81">
              <rect class="cls-8" x="17.309" y="28.893" width="0.094" height="0.85"/>
            </g>
          </g>
        </g>
      </g>
      <g id="С-0402">
        <rect id="rect21332-8-1-9-3-8-2-40-6-2-0-6-6-0-5-6-4-8-7-2-0-7-2-3-9-16-7" class="cls-3" x="34.353" y="33.619" width="1.417" height="1.41"/>
        <rect id="rect21332-8-1-9-3-8-2-40-6-2-0-6-6-0-5-6-4-8-7-2-0-7-2-3-10-16-7" class="cls-3" x="32.223" y="33.619" width="1.417" height="1.41"/>
        <path class="cls-4" d="M35.205,35.033H32.782a.206.206,0,0,1-.206-.173V33.8a.193.193,0,0,1,.206-.179h2.423a.193.193,0,0,1,.206.178v1.053a.2.2,0,0,1-.2.186h-.006Z"/>
        <rect class="cls-5" x="32.788" y="33.614" width="2.41" height="1.42"/>
        <path id="path26341-4-2-6-0-8-1-1-1-5-0-3-3-1-8-3-8-7-7-7-2-4-9-7-2-3-5-16-7" class="cls-11" d="M34.994,33.615h-2v1.42h2Z"/>
      </g>
      <g id="С-0402-2" data-name="С-0402">
        <rect id="rect21332-8-1-9-3-8-2-40-6-2-0-6-6-0-5-6-4-8-7-2-0-7-2-3-9-16-7-2" data-name="rect21332-8-1-9-3-8-2-40-6-2-0-6-6-0-5-6-4-8-7-2-0-7-2-3-9-16-7" class="cls-3" x="52.35" y="25.039" width="1.417" height="1.41"/>
        <rect id="rect21332-8-1-9-3-8-2-40-6-2-0-6-6-0-5-6-4-8-7-2-0-7-2-3-10-16-7-2" data-name="rect21332-8-1-9-3-8-2-40-6-2-0-6-6-0-5-6-4-8-7-2-0-7-2-3-10-16-7" class="cls-3" x="50.22" y="25.039" width="1.417" height="1.41"/>
        <path class="cls-4" d="M53.2,26.453H50.779a.206.206,0,0,1-.206-.173V25.215a.193.193,0,0,1,.206-.179H53.2a.193.193,0,0,1,.206.178v1.053a.2.2,0,0,1-.2.186H53.2Z"/>
        <rect class="cls-5" x="50.786" y="25.034" width="2.41" height="1.42"/>
        <path id="path26341-4-2-6-0-8-1-1-1-5-0-3-3-1-8-3-8-7-7-7-2-4-9-7-2-3-5-16-7-2" data-name="path26341-4-2-6-0-8-1-1-1-5-0-3-3-1-8-3-8-7-7-7-2-4-9-7-2-3-5-16-7" class="cls-11" d="M52.991,25.035h-2v1.42h2Z"/>
      </g>
      <g id="С-0402-3" data-name="С-0402">
        <rect id="rect21332-8-1-9-3-8-2-40-6-2-0-6-6-0-5-6-4-8-7-2-0-7-2-3-9-16-7-3" data-name="rect21332-8-1-9-3-8-2-40-6-2-0-6-6-0-5-6-4-8-7-2-0-7-2-3-9-16-7" class="cls-3" x="54.353" y="7.619" width="1.417" height="1.41"/>
        <rect id="rect21332-8-1-9-3-8-2-40-6-2-0-6-6-0-5-6-4-8-7-2-0-7-2-3-10-16-7-3" data-name="rect21332-8-1-9-3-8-2-40-6-2-0-6-6-0-5-6-4-8-7-2-0-7-2-3-10-16-7" class="cls-3" x="52.223" y="7.619" width="1.417" height="1.41"/>
        <path class="cls-4" d="M55.205,9.033H52.782a.206.206,0,0,1-.206-.173V7.8a.193.193,0,0,1,.206-.179h2.423a.193.193,0,0,1,.206.178V8.847a.2.2,0,0,1-.2.186h-.006Z"/>
        <rect class="cls-5" x="52.788" y="7.614" width="2.41" height="1.42"/>
        <path id="path26341-4-2-6-0-8-1-1-1-5-0-3-3-1-8-3-8-7-7-7-2-4-9-7-2-3-5-16-7-3" data-name="path26341-4-2-6-0-8-1-1-1-5-0-3-3-1-8-3-8-7-7-7-2-4-9-7-2-3-5-16-7" class="cls-11" d="M54.994,7.615h-2v1.42h2Z"/>
      </g>
      <g id="R-0402">
        <rect id="rect21332-8-1-9-3-8-2-40-6-2-0-6-6-0-5-6-4-8-7-2-0-7-2-3-9-16-7-2-2" data-name="rect21332-8-1-9-3-8-2-40-6-2-0-6-6-0-5-6-4-8-7-2-0-7-2-3-9-16-7-2" class="cls-3" x="41.415" y="34.012" width="1.417" height="1.41"/>
        <rect id="rect21332-8-1-9-3-8-2-40-6-2-0-6-6-0-5-6-4-8-7-2-0-7-2-3-10-16-7-2-2" data-name="rect21332-8-1-9-3-8-2-40-6-2-0-6-6-0-5-6-4-8-7-2-0-7-2-3-10-16-7-2" class="cls-3" x="39.285" y="34.012" width="1.417" height="1.41"/>
        <path class="cls-4" d="M42.267,35.426H39.845a.206.206,0,0,1-.206-.173V34.188a.192.192,0,0,1,.2-.179h2.424a.193.193,0,0,1,.206.178V35.24a.2.2,0,0,1-.2.186h-.006Z"/>
        <rect class="cls-5" x="39.851" y="34.007" width="2.41" height="1.42"/>
        <path id="path26341-4-2-6-0-8-1-1-1-5-0-3-3-1-8-3-8-7-7-7-2-4-9-7-2-3-5-16-7-2-2" data-name="path26341-4-2-6-0-8-1-1-1-5-0-3-3-1-8-3-8-7-7-7-2-4-9-7-2-3-5-16-7-2" class="cls-9" d="M42.056,34.008h-2v1.42h2Z"/>
      </g>
      <g id="R-0402-2" data-name="R-0402">
        <rect id="rect21332-8-1-9-3-8-2-40-6-2-0-6-6-0-5-6-4-8-7-2-0-7-2-3-9-16-7-2-3" data-name="rect21332-8-1-9-3-8-2-40-6-2-0-6-6-0-5-6-4-8-7-2-0-7-2-3-9-16-7-2" class="cls-3" x="59.354" y="30.944" width="1.41" height="1.417"/>
        <rect id="rect21332-8-1-9-3-8-2-40-6-2-0-6-6-0-5-6-4-8-7-2-0-7-2-3-10-16-7-2-3" data-name="rect21332-8-1-9-3-8-2-40-6-2-0-6-6-0-5-6-4-8-7-2-0-7-2-3-10-16-7-2" class="cls-3" x="59.354" y="33.074" width="1.41" height="1.417"/>
        <path class="cls-4" d="M60.767,31.509v2.422a.2.2,0,0,1-.173.206H59.53a.192.192,0,0,1-.18-.2h0V31.509a.194.194,0,0,1,.179-.206h1.053a.2.2,0,0,1,.185.2h0Z"/>
        <rect class="cls-5" x="59.349" y="31.516" width="1.42" height="2.41"/>
        <path id="path26341-4-2-6-0-8-1-1-1-5-0-3-3-1-8-3-8-7-7-7-2-4-9-7-2-3-5-16-7-2-3" data-name="path26341-4-2-6-0-8-1-1-1-5-0-3-3-1-8-3-8-7-7-7-2-4-9-7-2-3-5-16-7-2" class="cls-9" d="M59.349,31.721v2h1.42v-2Z"/>
      </g>
      <g id="R-0402-3" data-name="R-0402">
        <rect id="rect21332-8-1-9-3-8-2-40-6-2-0-6-6-0-5-6-4-8-7-2-0-7-2-3-9-16-7-2-4" data-name="rect21332-8-1-9-3-8-2-40-6-2-0-6-6-0-5-6-4-8-7-2-0-7-2-3-9-16-7-2" class="cls-3" x="62.354" y="30.944" width="1.41" height="1.417"/>
        <rect id="rect21332-8-1-9-3-8-2-40-6-2-0-6-6-0-5-6-4-8-7-2-0-7-2-3-10-16-7-2-4" data-name="rect21332-8-1-9-3-8-2-40-6-2-0-6-6-0-5-6-4-8-7-2-0-7-2-3-10-16-7-2" class="cls-3" x="62.354" y="33.074" width="1.41" height="1.417"/>
        <path class="cls-4" d="M63.767,31.509v2.422a.2.2,0,0,1-.173.206H62.53a.192.192,0,0,1-.18-.2h0V31.509a.194.194,0,0,1,.179-.206h1.053a.2.2,0,0,1,.185.2h0Z"/>
        <rect class="cls-5" x="62.349" y="31.516" width="1.42" height="2.41"/>
        <path id="path26341-4-2-6-0-8-1-1-1-5-0-3-3-1-8-3-8-7-7-7-2-4-9-7-2-3-5-16-7-2-4" data-name="path26341-4-2-6-0-8-1-1-1-5-0-3-3-1-8-3-8-7-7-7-2-4-9-7-2-3-5-16-7-2" class="cls-9" d="M62.349,31.721v2h1.42v-2Z"/>
      </g>
      <g id="R-0402-4" data-name="R-0402">
        <rect id="rect21332-8-1-9-3-8-2-40-6-2-0-6-6-0-5-6-4-8-7-2-0-7-2-3-9-16-7-2-5" data-name="rect21332-8-1-9-3-8-2-40-6-2-0-6-6-0-5-6-4-8-7-2-0-7-2-3-9-16-7-2" class="cls-3" x="41.415" y="28.012" width="1.417" height="1.41"/>
        <rect id="rect21332-8-1-9-3-8-2-40-6-2-0-6-6-0-5-6-4-8-7-2-0-7-2-3-10-16-7-2-5" data-name="rect21332-8-1-9-3-8-2-40-6-2-0-6-6-0-5-6-4-8-7-2-0-7-2-3-10-16-7-2" class="cls-3" x="39.285" y="28.012" width="1.417" height="1.41"/>
        <path class="cls-4" d="M42.267,29.426H39.845a.207.207,0,0,1-.206-.173V28.188a.192.192,0,0,1,.2-.179h2.424a.192.192,0,0,1,.206.178V29.24a.2.2,0,0,1-.2.186h-.006Z"/>
        <rect class="cls-5" x="39.851" y="28.007" width="2.41" height="1.42"/>
        <path id="path26341-4-2-6-0-8-1-1-1-5-0-3-3-1-8-3-8-7-7-7-2-4-9-7-2-3-5-16-7-2-5" data-name="path26341-4-2-6-0-8-1-1-1-5-0-3-3-1-8-3-8-7-7-7-2-4-9-7-2-3-5-16-7-2" class="cls-9" d="M42.056,28.008h-2v1.42h2Z"/>
      </g>
      <g id="R-0402-5" data-name="R-0402">
        <rect id="rect21332-8-1-9-3-8-2-40-6-2-0-6-6-0-5-6-4-8-7-2-0-7-2-3-9-16-7-2-6" data-name="rect21332-8-1-9-3-8-2-40-6-2-0-6-6-0-5-6-4-8-7-2-0-7-2-3-9-16-7-2" class="cls-3" x="40.415" y="8.012" width="1.417" height="1.41"/>
        <rect id="rect21332-8-1-9-3-8-2-40-6-2-0-6-6-0-5-6-4-8-7-2-0-7-2-3-10-16-7-2-6" data-name="rect21332-8-1-9-3-8-2-40-6-2-0-6-6-0-5-6-4-8-7-2-0-7-2-3-10-16-7-2" class="cls-3" x="38.285" y="8.012" width="1.417" height="1.41"/>
        <path class="cls-4" d="M41.267,9.426H38.845a.207.207,0,0,1-.206-.173V8.188a.192.192,0,0,1,.2-.179h2.424a.192.192,0,0,1,.206.178V9.24a.2.2,0,0,1-.2.186h-.006Z"/>
        <rect class="cls-5" x="38.851" y="8.007" width="2.41" height="1.42"/>
        <path id="path26341-4-2-6-0-8-1-1-1-5-0-3-3-1-8-3-8-7-7-7-2-4-9-7-2-3-5-16-7-2-6" data-name="path26341-4-2-6-0-8-1-1-1-5-0-3-3-1-8-3-8-7-7-7-2-4-9-7-2-3-5-16-7-2" class="cls-9" d="M41.056,8.008h-2v1.42h2Z"/>
      </g>
      <g id="R-0402-6" data-name="R-0402">
        <rect id="rect21332-8-1-9-3-8-2-40-6-2-0-6-6-0-5-6-4-8-7-2-0-7-2-3-9-16-7-2-7" data-name="rect21332-8-1-9-3-8-2-40-6-2-0-6-6-0-5-6-4-8-7-2-0-7-2-3-9-16-7-2" class="cls-3" x="12.11" y="25.784" width="1.417" height="1.41"/>
        <rect id="rect21332-8-1-9-3-8-2-40-6-2-0-6-6-0-5-6-4-8-7-2-0-7-2-3-10-16-7-2-7" data-name="rect21332-8-1-9-3-8-2-40-6-2-0-6-6-0-5-6-4-8-7-2-0-7-2-3-10-16-7-2" class="cls-3" x="9.98" y="25.784" width="1.417" height="1.41"/>
        <path class="cls-4" d="M12.962,27.2H10.54a.206.206,0,0,1-.206-.173V25.96a.192.192,0,0,1,.2-.179h2.424a.193.193,0,0,1,.206.178v1.053a.2.2,0,0,1-.2.186h-.006Z"/>
        <rect class="cls-5" x="10.545" y="25.779" width="2.41" height="1.42"/>
        <path id="path26341-4-2-6-0-8-1-1-1-5-0-3-3-1-8-3-8-7-7-7-2-4-9-7-2-3-5-16-7-2-7" data-name="path26341-4-2-6-0-8-1-1-1-5-0-3-3-1-8-3-8-7-7-7-2-4-9-7-2-3-5-16-7-2" class="cls-9" d="M12.75,25.78h-2V27.2h2Z"/>
      </g>
      <g id="R-0402-7" data-name="R-0402">
        <rect id="rect21332-8-1-9-3-8-2-40-6-2-0-6-6-0-5-6-4-8-7-2-0-7-2-3-9-16-7-2-8" data-name="rect21332-8-1-9-3-8-2-40-6-2-0-6-6-0-5-6-4-8-7-2-0-7-2-3-9-16-7-2" class="cls-3" x="45.415" y="23.012" width="1.417" height="1.41"/>
        <rect id="rect21332-8-1-9-3-8-2-40-6-2-0-6-6-0-5-6-4-8-7-2-0-7-2-3-10-16-7-2-8" data-name="rect21332-8-1-9-3-8-2-40-6-2-0-6-6-0-5-6-4-8-7-2-0-7-2-3-10-16-7-2" class="cls-3" x="43.285" y="23.012" width="1.417" height="1.41"/>
        <path class="cls-4" d="M46.267,24.426H43.845a.207.207,0,0,1-.206-.173V23.188a.192.192,0,0,1,.2-.179h2.424a.192.192,0,0,1,.206.178V24.24a.2.2,0,0,1-.2.186h-.006Z"/>
        <rect class="cls-5" x="43.851" y="23.007" width="2.41" height="1.42"/>
        <path id="path26341-4-2-6-0-8-1-1-1-5-0-3-3-1-8-3-8-7-7-7-2-4-9-7-2-3-5-16-7-2-8" data-name="path26341-4-2-6-0-8-1-1-1-5-0-3-3-1-8-3-8-7-7-7-2-4-9-7-2-3-5-16-7-2" class="cls-9" d="M46.056,23.008h-2v1.42h2Z"/>
      </g>
      <g id="R-0805">
        <rect id="rect21332-8-1-9-3-8-2-40-6-2-0-6-6-0-5-6-4-8-7-2-0-7-2-3-9-16-6" class="cls-3" x="62.902" y="18.614" width="3.4" height="2.9"/>
        <rect id="rect21332-8-1-9-3-8-2-40-6-2-0-6-6-0-5-6-4-8-7-2-0-7-2-3-10-16-6" class="cls-3" x="62.902" y="23.633" width="3.4" height="2.9"/>
        <path class="cls-4" d="M66.3,20.154v4.84a.42.42,0,0,1-.42.42h-2.55a.41.41,0,0,1-.43-.389h0v-4.84a.41.41,0,0,1,.41-.41h2.56a.429.429,0,0,1,.43.41h0Z"/>
        <g id="path26345-3-6-9-3-6-4-2-5-6-8-7-9-0-90-3-1-3-9-2-2-8-5-0-2-3-5-16-6">
          <rect class="cls-5" x="62.902" y="20.444" width="3.4" height="4.25"/>
        </g>
        <path id="path26341-4-2-6-0-8-1-1-1-5-0-3-3-1-8-3-8-7-7-7-2-4-9-7-2-3-5-16-6" class="cls-9" d="M62.9,21.164v2.83h3.4v-2.83Z"/>
      </g>
      <g id="C-TypeA">
        <path id="path13353-9-3-4" class="cls-12" d="M64.045,12.459v4.535H53.273V12.459Z"/>
        <path id="path13355-4-7-4" class="cls-13" d="M53.557,12.744v3.968h10.2V12.744Z"/>
        <path id="path13359-4-4-4" class="cls-14" d="M54.224,17a.1.1,0,0,1-.1-.1V12.55c0-.043.039-.082.1-.09h8.87c.062.006.106.046.1.09V16.9c0,.053,0,.1-.1.1Z"/>
        <path id="path13373-3-3-4" class="cls-15" d="M55.541,16.994V12.459H54.123v4.535Z"/>
      </g>
      <g id="LED-0603-3">
        <rect id="rect21332-8-1-9-3-8-2-40-6-2-0-6-6-0-5-6-4-8-7-2-0-7-2-3-9-16-8-3" class="cls-3" x="44.474" y="28.842" width="1.522" height="1.522"/>
        <rect id="rect21332-8-1-9-3-8-2-40-6-2-0-6-6-0-5-6-4-8-7-2-0-7-2-3-10-16-8-3" class="cls-3" x="44.474" y="31.125" width="1.522" height="1.522"/>
        <path class="cls-4" d="M46,29.428v2.614a.223.223,0,0,1-.187.222H44.665a.208.208,0,0,1-.193-.222h0V29.428a.209.209,0,0,1,.192-.223H45.8a.215.215,0,0,1,.2.216h0Z"/>
        <g id="path26345-3-6-9-3-6-4-2-5-6-8-7-9-0-90-3-1-3-9-2-2-8-5-0-2-3-5-16-8-3">
          <rect class="cls-5" x="44.47" y="29.509" width="1.529" height="2.479"/>
        </g>
        <path id="path26341-4-2-6-0-8-1-1-1-5-0-3-3-1-8-3-8-7-7-7-2-4-9-7-2-3-5-16-8-3" class="cls-16" d="M44.471,29.778v1.913H46V29.778Z"/>
        <path id="path6963-86-8-2-6-0-1-7-9-2-2-3" class="cls-17" d="M45.34,30.115v.229h-.229v-.229Z"/>
      </g>
      <g id="LED-0603-4">
        <rect id="rect21332-8-1-9-3-8-2-40-6-2-0-6-6-0-5-6-4-8-7-2-0-7-2-3-9-16-8-4" class="cls-3" x="39.153" y="31.754" width="1.522" height="1.522"/>
        <rect id="rect21332-8-1-9-3-8-2-40-6-2-0-6-6-0-5-6-4-8-7-2-0-7-2-3-10-16-8-4" class="cls-3" x="41.436" y="31.754" width="1.522" height="1.522"/>
        <path class="cls-4" d="M39.739,31.752h2.614a.222.222,0,0,1,.222.186v1.148a.208.208,0,0,1-.222.193H39.739a.209.209,0,0,1-.223-.192V31.952a.216.216,0,0,1,.216-.2h.007Z"/>
        <g id="path26345-3-6-9-3-6-4-2-5-6-8-7-9-0-90-3-1-3-9-2-2-8-5-0-2-3-5-16-8-4">
          <rect class="cls-5" x="39.82" y="31.751" width="2.479" height="1.529"/>
        </g>
        <path id="path26341-4-2-6-0-8-1-1-1-5-0-3-3-1-8-3-8-7-7-7-2-4-9-7-2-3-5-16-8-4" class="cls-16" d="M40.1,33.279h1.913V31.751H40.1Z"/>
        <path id="path6963-86-8-2-6-0-1-7-9-2-2-4" class="cls-17" d="M40.426,32.411h.229v.229h-.229Z"/>
      </g>
      <g>
        <g>
          <g id="g8621-6-4-6-8-9">
            <path id="path8623-7-5-8-7-6" class="cls-12" d="M42.883,11.05h-.649c-.184,0-.334,1.468-.334,3.261s.15,3.261.334,3.261h.649Z"/>
          </g>
          <g id="g8625-5-5-1-7-2">
            <path id="path8627-9-3-9-5-7" class="cls-18" d="M42.881,17.525V11.1h-.647c-.183,0-.332,1.442-.332,3.214s.149,3.214.332,3.214Zm0-6.521v6.614h-.651c-.185,0-.336-1.484-.336-3.307S42.049,11,42.234,11Z"/>
          </g>
          <path id="path8629-7-5-0-3-3" class="cls-13" d="M42.883,17.571H42.49V11.05h.393Z"/>
        </g>
        <g>
          <g id="g8621-6-4-6-8-9-2" data-name="g8621-6-4-6-8-9">
            <path id="path8623-7-5-8-7-6-2" data-name="path8623-7-5-8-7-6" class="cls-12" d="M50.5,17.479h.649c.184,0,.334-1.467.334-3.26s-.15-3.261-.334-3.261H50.5Z"/>
          </g>
          <g id="g8625-5-5-1-7-2-2" data-name="g8625-5-5-1-7-2">
            <path id="path8627-9-3-9-5-7-2" data-name="path8627-9-3-9-5-7" class="cls-18" d="M50.5,11v6.429h.648c.183,0,.332-1.442.332-3.215S51.332,11,51.149,11Zm0,6.521V10.911h.651c.185,0,.335,1.484.335,3.307s-.15,3.307-.335,3.307Z"/>
          </g>
          <path id="path8629-7-5-0-3-3-2" data-name="path8629-7-5-0-3-3" class="cls-13" d="M50.5,10.958h.393v6.521H50.5Z"/>
        </g>
        <rect class="cls-12" x="43.552" y="7.28" width="2.371" height="2.122"/>
        <rect class="cls-12" x="47.795" y="7.28" width="2.371" height="2.122"/>
        <rect class="cls-13" x="47.795" y="8.055" width="2.371" height="1.398"/>
        <rect class="cls-13" x="43.552" y="8.055" width="2.371" height="1.398"/>
        <g>
          <rect class="cls-12" x="43.552" y="19.386" width="2.371" height="2.122"/>
          <rect class="cls-12" x="47.795" y="19.386" width="2.371" height="2.122"/>
          <rect class="cls-13" x="43.552" y="19.246" width="2.371" height="1.398"/>
          <rect class="cls-13" x="47.795" y="19.246" width="2.371" height="1.398"/>
        </g>
        <rect class="cls-19" x="42.885" y="9.777" width="7.613" height="10.275"/>
        <rect class="cls-20" x="42.885" y="9.236" width="7.613" height="10.275"/>
        <path class="cls-19" d="M49.4,14.779a3.7,3.7,0,0,0-1.6-3.224h-2.2a3.7,3.7,0,0,0-1.6,3.224A3.707,3.707,0,0,0,45.59,18h2.2A3.7,3.7,0,0,0,49.4,14.779Z"/>
        <path class="cls-21" d="M49.4,14.311a3.7,3.7,0,0,0-1.6-3.224h-2.2a3.7,3.7,0,0,0-1.6,3.224,3.707,3.707,0,0,0,1.6,3.225h2.2A3.7,3.7,0,0,0,49.4,14.311Z"/>
        <path class="cls-22" d="M49.012,14.311a3.176,3.176,0,0,0-1.375-2.766h-1.89a3.177,3.177,0,0,0-1.376,2.766,3.174,3.174,0,0,0,1.376,2.766h1.89A3.174,3.174,0,0,0,49.012,14.311Z"/>
        <path id="path8633-3-2-7-9-8" class="cls-23" d="M50.278,19.328V9.269H43.1V19.328Zm-7.393.183V9.086H50.5V19.511Z"/>
        <path id="path8641-1-7-2-8-9" class="cls-24" d="M48.531,19.443V19.05H45.26v.393Zm-3.373.1v-.595h3.474v.595Z"/>
        <path id="path8637-3-7-6-1-7" class="cls-24" d="M48.531,9.6V9.205H45.26V9.6Zm-3.373.1V9.1h3.474v.6Z"/>
      </g>
      <g>
        <g>
          <g>
            <rect id="rect21332-8-1-9-3-8-2-40-6-2-0-6-6-0-5-6-4-8-7-2-0-7-2-3-9-16-6-2" data-name="rect21332-8-1-9-3-8-2-40-6-2-0-6-6-0-5-6-4-8-7-2-0-7-2-3-9-16-6" class="cls-3" x="57.785" y="8.273" width="2.49" height="2.919"/>
            <rect id="rect21332-8-1-9-3-8-2-40-6-2-0-6-6-0-5-6-4-8-7-2-0-7-2-3-10-16-6-2" data-name="rect21332-8-1-9-3-8-2-40-6-2-0-6-6-0-5-6-4-8-7-2-0-7-2-3-10-16-6" class="cls-3" x="62.095" y="8.273" width="2.49" height="2.919"/>
          </g>
          <path class="cls-4" d="M58.609,8.273h5.109a.408.408,0,0,1,.443.361v2.189a.389.389,0,0,1-.411.369H58.641a.4.4,0,0,1-.432-.352v-2.2a.412.412,0,0,1,.432-.369h-.032Z"/>
          <g id="path26345-3-6-9-3-6-4-2-5-6-8-7-9-0-90-3-1-3-9-2-2-8-5-0-2-3-5-16-6-2" data-name="path26345-3-6-9-3-6-4-2-5-6-8-7-9-0-90-3-1-3-9-2-2-8-5-0-2-3-5-16-6">
            <rect class="cls-5" x="59.304" y="8.273" width="3.649" height="2.919"/>
          </g>
          <path id="path26341-4-2-6-0-8-1-1-1-5-0-3-3-1-8-3-8-7-7-7-2-4-9-7-2-3-5-16-6-2" data-name="path26341-4-2-6-0-8-1-1-1-5-0-3-3-1-8-3-8-7-7-7-2-4-9-7-2-3-5-16-6" class="cls-25" d="M58.729,11.176h4.912v-2.9H58.729Z"/>
          <g>
            <path class="cls-26" d="M63.641,8.558a1.173,1.173,0,0,0,0,2.341Z"/>
            <path class="cls-27" d="M63.641,9.28a.449.449,0,0,0,0,.9Z"/>
          </g>
          <g>
            <path class="cls-26" d="M58.738,8.558a1.173,1.173,0,0,1,0,2.341Z"/>
            <path class="cls-27" d="M58.738,9.28a.449.449,0,0,1,0,.9Z"/>
          </g>
        </g>
        <rect class="cls-28" x="60.468" y="9.584" width="1.433" height="0.297" rx="0.148"/>
      </g>
      <text class="cls-29" transform="translate(69.195 37.458)">Espruino <tspan class="cls-30" x="12.306" y="0">P</tspan><tspan x="13.838" y="0">ico</tspan></text>
      <text class="cls-29" transform="translate(66.862 8.273)">ww<tspan class="cls-31" x="4.465" y="0">w</tspan><tspan x="6.379" y="0">.espruino.com</tspan></text>
    </g>
  </g>
</svg>
