<?xml version='1.0' encoding='UTF-8' standalone='no'?>
<!-- Created with Fritzing (http://www.fritzing.org/) -->
<svg xmlns:svg='http://www.w3.org/2000/svg' xmlns='http://www.w3.org/2000/svg' version='1.2' baseProfile='tiny' x='0in' y='0in' width='4.64644in' height='2.32004in' viewBox='0 0 334.543 167.043' >
<path stroke='#8c8c8c' stroke-width='2.15136' stroke-linecap='round' stroke-linejoin='round' fill='none' d='M135.244,79.55L135.244,104.166' />
<path stroke='#8c8c8c' stroke-width='2.15136' stroke-linecap='round' stroke-linejoin='round' fill='none' d='M142.446,79.55L142.446,104.166' />
<g partID='61930'><g transform='translate(130.717,50.3432)' ><g xmlns="http://www.w3.org/2000/svg" id="breadboard">
 <rect xmlns="http://www.w3.org/2000/svg" x="3.45096" fill="none" y="25.421" height="0.72" id="connector0pin" width="2.15208"/>
 <rect xmlns="http://www.w3.org/2000/svg" x="10.651" fill="none" y="25.421" height="0.72" id="connector1pin" width="2.15424"/>
 <g xmlns="http://www.w3.org/2000/svg" stroke-linecap="round" stroke="#8C8C8C" fill="none" stroke-width="2.15136" id="connector0leg" y1="40.565" y2="74.754" x1="6.287" x2="6.287"/>
 <g xmlns="http://www.w3.org/2000/svg" stroke-linecap="round" stroke="#8C8C8C" fill="none" stroke-width="2.15136" id="connector1leg" y1="40.565" y2="74.754" x1="16.29" x2="16.29"/>
 <rect xmlns="http://www.w3.org/2000/svg" x="3.45096" fill="#8C8C8C" y="19.3795" height="9.82728" width="2.15136"/>
 <path xmlns="http://www.w3.org/2000/svg" fill="#8C8C8C" d="M12.8045,29.2068c0,-1.1736,-1.06488,-2.1024,-2.088,-2.9916c-0.41616,-0.3672,-1.19952,-1.00152,-1.19952,-1.42488l0,-5.47056l-2.16144,0l0,5.78016c0,1.0584,0.94752,1.87848,1.94616,2.74824c0.44424,0.37584,1.34856,1.24992,1.34856,1.76976"/>
 <g xmlns="http://www.w3.org/2000/svg" id="g12">
  <path xmlns="http://www.w3.org/2000/svg" fill="#e60000" opacity="0.3" id="color_path14" d="M14.1732,13.001L14.1732,7.0884C14.1732,3.1752,11.0052,0,7.08768,0C3.1752,0,0,3.16944,0,7.0884l0,13.649c1.47384,1.65096,4.0968,2.75256,7.08768,2.75256c4.61952,0,8.36856,-2.61792,8.36856,-5.85936l0,-1.52352C15.4555,14.9645,14.9818,13.9032,14.1732,13.001z"/>
  <path xmlns="http://www.w3.org/2000/svg" fill="#E6E6E6" opacity="0.5" id="path16" d="M14.1732,13.001L14.1732,7.0884C14.1732,3.1752,11.0052,0,7.08768,0C3.1752,0,0,3.16944,0,7.0884l0,13.649c1.47384,1.65096,4.0968,2.75256,7.08768,2.75256c4.61952,0,8.36856,-2.61792,8.36856,-5.85936l0,-1.52352C15.4555,14.9645,14.9818,13.9032,14.1732,13.001z"/>
  <path xmlns="http://www.w3.org/2000/svg" fill="#D1D1D1" opacity="0.9" id="path18" d="M14.1732,13.001l0,3.10536c0,2.73888,-3.16584,4.96512,-7.08552,4.96512C3.1752,21.0715,0,18.8525,0,16.1064l0,3.10536L0,20.736c1.47384,1.65168,4.0968,2.75256,7.08768,2.75256c4.61952,0,8.36856,-2.61792,8.36856,-5.85864L15.4562,16.1064C15.4555,14.9645,14.9818,13.9032,14.1732,13.001z"/>
  <path xmlns="http://www.w3.org/2000/svg" fill="#e60000" opacity="0.7" id="color_path20" d="M14.1732,13.001l0,3.10536c0,2.73888,-3.16584,4.96512,-7.08552,4.96512C3.1752,21.0715,0,18.8525,0,16.1064l0,3.10536L0,20.736c1.47384,1.65168,4.0968,2.75256,7.08768,2.75256c4.61952,0,8.36856,-2.61792,8.36856,-5.85864L15.4562,16.1064C15.4555,14.9645,14.9818,13.9032,14.1732,13.001z"/>
  <path xmlns="http://www.w3.org/2000/svg" fill="#e60000" opacity="0.25" id="color_path22" d="M14.1732,13.001l0,3.10536c0,2.73888,-3.16584,4.96512,-7.08552,4.96512C3.1752,21.0715,0,18.8525,0,16.1064l0,3.10536c1.47384,1.65024,4.0968,2.75256,7.08768,2.75256c4.61952,0,8.36856,-2.61792,8.36856,-5.85864C15.4555,14.9645,14.9818,13.9032,14.1732,13.001z"/>
  <ellipse xmlns="http://www.w3.org/2000/svg" rx="7.08696" fill="#E6E6E6" ry="4.9608" opacity="0.25" id="ellipse24" cx="7.08768" cy="16.1064"/>
  <ellipse xmlns="http://www.w3.org/2000/svg" rx="7.08696" fill="#e60000" ry="4.9608" opacity="0.25" id="color_ellipse26" cx="7.08768" cy="16.1064"/>
  <polygon xmlns="http://www.w3.org/2000/svg" fill="#666666" points="2.2032,9.648,2.2032,16.1071,3.19608,16.1071,3.19608,13.0946,6.0156,13.0946,10.0123,8.80488,3.40704,8.80488" id="polygon28"/>
  <polygon xmlns="http://www.w3.org/2000/svg" fill="#666666" points="10.7784,8.52408,11.2147,9.03384,7.41168,13.0946,11.0599,13.0946,11.0599,16.1071,11.9736,16.1071,11.9736,8.52408" id="polygon30"/>
  <path xmlns="http://www.w3.org/2000/svg" fill="#e60000" opacity="0.65" id="color_path32" d="M14.1732,13.001L14.1732,7.0884C14.1732,3.1752,11.0052,0,7.08768,0C3.1752,0,0,3.16944,0,7.0884l0,13.649c1.47384,1.65096,4.0968,2.75256,7.08768,2.75256c4.61952,0,8.36856,-2.61792,8.36856,-5.85936l0,-1.52352C15.4555,14.9645,14.9818,13.9032,14.1732,13.001z"/>
  <path xmlns="http://www.w3.org/2000/svg" fill="#FFFFFF" opacity="0.5" id="path34" d="M10.3882,3.75408l1.4364,-0.2736c-0.84168,-1.13184,-2.08224,-1.95768,-3.54168,-2.23848l0.25416,1.08072C9.30096,2.59344,9.94392,3.1032,10.3882,3.75408z"/>
  <path xmlns="http://www.w3.org/2000/svg" fill="#FFFFFF" opacity="0.5" id="path36" d="M0.76824,19.926l0,1.51992c0.64872,0.5292,1.43352,0.97632,2.3076,1.31688l0,-1.52496C2.19744,20.9016,1.41912,20.4559,0.76824,19.926z"/>
  <path xmlns="http://www.w3.org/2000/svg" fill="#FFFFFF" opacity="0.5" id="path38" d="M11.0729,20.2097c-0.2556,0.1224,-0.52992,0.22968,-0.80568,0.32976c-0.05832,0.01944,-0.11736,0.04032,-0.17784,0.05832c-0.56376,0.17928,-1.16136,0.31896,-1.79496,0.39456c-0.07488,0.00936,-0.1512,0.01872,-0.22464,0.01944c-0.3204,0.03024,-0.64368,0.05832,-0.97056,0.05832c-0.14832,0,-0.30744,-0.01512,-0.4716,-0.02376c-1.20024,-0.05688,-2.33064,-0.31464,-3.2976,-0.73944L3.33,11.9174L3.33,7.092c0,-1.47096,0.84816,-2.72952,2.0736,-3.34944L5.38128,3.68928l-1.24776,-1.512c-1.66968,1.00296,-2.79,2.8224,-2.79,4.91184l0,11.9052c-0.04968,-0.04968,-0.30816,-0.30888,-0.48024,-0.52992l-0.30744,0.6876c1.40112,1.48176,3.8088,2.46168,6.54264,2.46168c1.67976,0,3.23712,-0.37368,4.51152,-1.00224l-0.52704,-0.40896C11.0729,20.2097,11.0729,20.2097,11.0729,20.2097z"/>
 </g>
</g>
</g></g><path stroke='#8c8c8c' stroke-width='2.0952' stroke-linecap='round' stroke-linejoin='round' fill='none' d='M69.0961,108.722L68.0485,108.722' />
<path stroke='#8c8c8c' stroke-width='2.0952' stroke-linecap='round' stroke-linejoin='round' fill='none' d='M95.806,108.722L96.8536,108.722' />
<g partID='62860'><g transform='translate(67.0009,105.09)' ><g xmlns="http://www.w3.org/2000/svg" id="breadboard">
 <rect xmlns="http://www.w3.org/2000/svg" x="0.36" fill="none" y="2.5848" height="0.72" id="connector0pin" width="0.72"/>
 <rect xmlns="http://www.w3.org/2000/svg" x="29.8202" fill="none" y="2.5848" height="0.72" id="connector1pin" width="0.72"/>
 <line xmlns="http://www.w3.org/2000/svg" stroke-linecap="round" stroke="#8C8C8C" fill="none" stroke-width="2.0952" id="connector0leg" y1="3.6324" y2="3.6324" x1="1.0476" x2="2.0952"/>
 <line xmlns="http://www.w3.org/2000/svg" stroke-linecap="round" stroke="#8C8C8C" fill="none" stroke-width="2.0952" id="connector1leg" y1="3.6324" y2="3.6324" x1="29.8526" x2="28.805"/>
 <path xmlns="http://www.w3.org/2000/svg" stroke="#8C8C8C" fill="none" stroke-width="2.0952" d="M1.0476,3.6324l28.3666,0"/>
 <path xmlns="http://www.w3.org/2000/svg" fill="#D9B477" id="body" d="M10.2478,0.49536c-0.36,-0.1656,-0.9792,-0.2952,-1.3752,-0.2952l-1.9872,0c-0.396,0,-0.72,0.324,-0.72,0.72l0,5.35608c0,0.39672,0.324,0.72,0.72,0.72l1.9872,0c0.396,0,1.0152,-0.13608,1.3752,-0.2952l0.072,-0.03528c0.36,-0.1656,0.9792,-0.2952,1.3752,-0.2952l7.1856,0c0.39672,0,1.01448,0.13608,1.37448,0.2952l0.07272,0.03528c0.36,0.1656,0.97776,0.2952,1.3752,0.2952l1.9872,0c0.39744,0,0.72,-0.32328,0.72,-0.72L24.4102,0.92016c0,-0.396,-0.32256,-0.72,-0.72,-0.72l-1.9872,0c-0.39744,0,-1.0152,0.1368,-1.3752,0.2952l-0.07272,0.036c-0.36,0.1656,-0.97776,0.2952,-1.37448,0.2952l-7.1856,0c-0.396,0,-1.0152,-0.1368,-1.3752,-0.2952L10.2478,0.49536z"/>
 <rect xmlns="http://www.w3.org/2000/svg" x="22.019" fill="#ad9f4e" y="0.19368" height="6.79536" id="gold_band" width="0.70272"/>
 <rect xmlns="http://www.w3.org/2000/svg" fill="#8a3d06" x="16.1726" y="0.82656" height="5.5368" id="band_rd_multiplier" width="1.8504"/>
 <rect xmlns="http://www.w3.org/2000/svg" fill="#c40808" x="12.4726" y="0.82656" height="5.5368" id="band_2_nd" width="1.8504"/>
 <path xmlns="http://www.w3.org/2000/svg" fill="#c40808" id="band_1_st" d="M10.6286,0.63936c-0.1152,-0.036,-0.2232,-0.072,-0.3096,-0.1152l-0.072,-0.036c-0.36,-0.16488,-0.9792,-0.2952,-1.3752,-0.2952l-0.0864,0l0,6.79608l0.0864,0c0.396,0,1.0152,-0.13608,1.3752,-0.2952l0.072,-0.03528c0.0864,-0.04464,0.1944,-0.07992,0.3096,-0.1152L10.6286,0.63936z"/>
 <path xmlns="http://www.w3.org/2000/svg" opacity="0.3" id="Shadow" d="M23.711,4.0896L23.711,4.0896c0,0.37944,-0.13032,0.69912,-0.2952,0.69912l-1.9224,0c-0.38016,0,-0.97776,-0.05616,-1.33272,-0.1224L20.088,4.65048c-0.34488,-0.0648,-0.94896,-0.1224,-1.33344,-0.1224L11.808,4.52808c-0.3816,0,-0.9792,0.0576,-1.332,0.1224l-0.072,0.01512c-0.3456,0.06552,-0.9432,0.1224,-1.332,0.1224l-0.3168,0l-1.0008,0l-0.3096,0c-0.3816,0,-0.6984,0.29376,-0.6984,0.64512l0,0.24696L6.7464,5.8392l0,0.1728c0,0.36,0.3168,0.64512,0.6984,0.64512l1.62,0c0.3816,0,0.9792,-0.1224,1.332,-0.26712l0.072,-0.02808c0.3456,-0.14112,0.9504,-0.26496,1.332,-0.26496l6.94656,0c0.37944,0,0.97704,0.12384,1.33416,0.26568l0.07416,0.02808c0.34488,0.14472,0.94464,0.26712,1.33344,0.26712l2.2248,0c0.38088,0,0.69912,-0.2952,0.69912,-0.64512L24.413,5.472L24.413,4.49928L24.413,2.65536C24.1358,2.76336,23.711,3.06576,23.711,4.0896z"/>
 <rect xmlns="http://www.w3.org/2000/svg" x="22.019" y="3.48336" height="3.15288" opacity="0.4" id="ShadowExtra" width="0.70272"/>
 <path xmlns="http://www.w3.org/2000/svg" fill="#FFFFFF" opacity="0.25" id="ReflexRight" d="M19.751,1.08576c0.22968,0,0.49104,-0.1008,0.6624,-0.1728c0.2016,-0.0792,0.57672,-0.144,0.96624,-0.144l1.46088,0c0.22464,0,0.22464,0.2448,0.22464,0.3744c0,0.1296,-0.01512,0.3816,-0.22464,0.3816l-3.06,0c-0.10728,0,-0.2304,-0.1152,-0.2304,-0.22392C19.5566,1.21536,19.6286,1.08576,19.751,1.08576z"/>
 <circle xmlns="http://www.w3.org/2000/svg" fill="#FFFFFF" opacity="0.35" id="ReflexLeft" cx="6.99984" cy="1.13616" r="0.432"/>
 <rect xmlns="http://www.w3.org/2000/svg" x="22.019" fill="#FFFF33" y="0.42336" height="1.62" opacity="0.5" id="Reflex_gold" width="0.70272"/>
 <rect xmlns="http://www.w3.org/2000/svg" x="22.019" fill="#FFFFFF" y="0.78336" height="0.7488" opacity="0.5" id="Reflex_extra" width="0.70272"/>
</g>
</g></g><g partID='63290'><g transform='translate(237.59,0)' ><g xmlns="http://www.w3.org/2000/svg" id="breadboard">
 <g xmlns="http://www.w3.org/2000/svg" id="path4_1_">
  <path xmlns="http://www.w3.org/2000/svg" fill="#D2D2D2" d="M93.354,17.336c1.188,0,2.019,1.078,2.019,2.021l0,145.667c0,1.338,-0.687,2.021,-2.019,2.021L2.017,167.045c-1.068,0,-2.017,-0.842,-2.017,-2.021L0,19.349c0,-1.097,0.791,-2.017,2.017,-2.017L93.354,17.336L93.354,17.336z"/>
 </g>
 <g xmlns="http://www.w3.org/2000/svg" id="path4_2_">
  <path xmlns="http://www.w3.org/2000/svg" fill="#FFC900" d="M0,52.665L0,19.356c0,-1.1,0.791,-2.023,2.017,-2.023l91.334,0.003l0,0c1.188,0,2.019,1.078,2.019,2.024l0,33.302L0,52.662L0,52.665z"/>
 </g>
 <g xmlns="http://www.w3.org/2000/svg" enable-background="new    " opacity="0.36" id="path4_3_">
  <path xmlns="http://www.w3.org/2000/svg" fill="#1D1D1D" d="M0,42.54L0,19.356c0,-1.1,0.791,-2.023,2.017,-2.023l91.334,0.003l0,0c1.188,0,2.019,1.078,2.019,2.024l0,23.174L0,42.534L0,42.54z"/>
 </g>
 <g xmlns="http://www.w3.org/2000/svg" id="path112_1_">
  <g xmlns="http://www.w3.org/2000/svg">
   <path xmlns="http://www.w3.org/2000/svg" d="M54.395,17.299c0,-3.708,0,-13.548,15.071,-13.548c9.581,0,9.839,4.772,16.691,4.772l11.44,0l0,2.617l-11.44,0c-7.56,0,-7.821,-4.776,-16.691,-4.776C57.02,6.361,57.02,13.476,57.02,17.299L54.395,17.299z"/>
  </g>
 </g>
 <g xmlns="http://www.w3.org/2000/svg" id="path114_1_">
  <g xmlns="http://www.w3.org/2000/svg">
   <path xmlns="http://www.w3.org/2000/svg" fill="#FF0000" d="M42.132,17.268c0,-4.806,4.915,-17.271,27.323,-17.269c9.738,0,8.736,2.047,16.701,2.047l11.433,0l0,2.618L86.156,4.664c-8.584,0,-7.578,-2.05,-16.701,-2.05c-20.163,0,-24.698,10.854,-24.698,14.659l-2.625,0L42.132,17.268z"/>
  </g>
 </g>
 <g xmlns="http://www.w3.org/2000/svg" enable-background="new    " opacity="0.35" id="path22_1_">
  <path xmlns="http://www.w3.org/2000/svg" d="M0.939,22.415c0,-1.79,1.651,-4.064,3.62,-4.064l9.048,0c-1.968,0,-5.033,2.28,-5.033,4.064l0,139.522c0,1.789,3.065,4.055,5.033,4.055L4.559,165.992c-1.969,0,-3.62,-2.266,-3.62,-4.055L0.939,22.415L0.939,22.415z"/>
 </g>
 <g xmlns="http://www.w3.org/2000/svg" enable-background="new    " opacity="0.35" id="path22_2_">
  <path xmlns="http://www.w3.org/2000/svg" fill="#FFFFFF" d="M94.314,161.72c0,1.789,-1.649,4.064,-3.623,4.064l-9.043,0c1.957,0,5.026,-2.275,5.026,-4.064L86.674,22.201c0,-1.788,-3.069,-4.055,-5.026,-4.055l9.043,0c1.974,0,3.623,2.267,3.623,4.055L94.314,161.72L94.314,161.72z"/>
 </g>
 <g xmlns="http://www.w3.org/2000/svg">
  <g xmlns="http://www.w3.org/2000/svg" enable-background="new    ">
   <path xmlns="http://www.w3.org/2000/svg" d="M61.35,53.96l0,0.907l-3.158,0L58.192,53.96L61.35,53.96z"/>
  </g>
  <g xmlns="http://www.w3.org/2000/svg" enable-background="new    ">
   <path xmlns="http://www.w3.org/2000/svg" d="M56.26,62.349l8.666,0l0,6.266l-1.021,0l0,-5.119L61.25,63.496l0,4.794l-1.018,0l0,-4.794l-2.949,0l0,5.32L56.26,68.816L56.26,62.349z"/>
   <path xmlns="http://www.w3.org/2000/svg" d="M62.805,75.49l-0.084,-1.058c0.418,-0.094,0.723,-0.229,0.91,-0.402c0.305,-0.288,0.455,-0.642,0.455,-1.064c0,-0.339,-0.094,-0.637,-0.283,-0.893c-0.244,-0.335,-0.602,-0.599,-1.07,-0.792c-0.469,-0.193,-1.137,-0.294,-2.004,-0.302c0.393,0.256,0.682,0.569,0.869,0.94c0.189,0.371,0.284,0.759,0.284,1.165c0,0.709,-0.262,1.313,-0.782,1.812c-0.521,0.499,-1.197,0.748,-2.024,0.748c-0.546,0,-1.05,-0.117,-1.517,-0.352c-0.469,-0.234,-0.826,-0.557,-1.074,-0.967c-0.248,-0.41,-0.371,-0.875,-0.371,-1.395c0,-0.887,0.326,-1.61,0.979,-2.169c0.652,-0.56,1.729,-0.839,3.227,-0.839c1.676,0,2.893,0.31,3.652,0.928c0.661,0.54,0.992,1.267,0.992,2.181c0,0.682,-0.189,1.24,-0.572,1.676C64.006,75.142,63.479,75.404,62.805,75.49zM59.068,71.145c-0.366,0,-0.717,0.078,-1.053,0.233c-0.334,0.155,-0.592,0.374,-0.767,0.653c-0.177,0.28,-0.265,0.573,-0.265,0.881c0,0.449,0.183,0.835,0.543,1.159c0.363,0.323,0.855,0.485,1.479,0.485c0.599,0,1.07,-0.16,1.415,-0.479c0.346,-0.319,0.518,-0.721,0.518,-1.206c0,-0.48,-0.172,-0.889,-0.518,-1.224C60.079,71.313,59.627,71.145,59.068,71.145z"/>
   <path xmlns="http://www.w3.org/2000/svg" d="M60.533,76.702c1.025,0,1.85,0.105,2.475,0.316c0.624,0.21,1.105,0.524,1.445,0.94c0.339,0.416,0.508,0.938,0.508,1.569c0,0.465,-0.094,0.873,-0.279,1.224c-0.188,0.351,-0.457,0.64,-0.812,0.869c-0.353,0.229,-0.782,0.408,-1.288,0.538c-0.507,0.13,-1.189,0.195,-2.049,0.195c-1.018,0,-1.838,-0.104,-2.463,-0.313c-0.623,-0.209,-1.106,-0.521,-1.447,-0.937s-0.512,-0.941,-0.512,-1.575c0,-0.835,0.3,-1.492,0.897,-1.969C57.732,76.988,58.906,76.702,60.533,76.702zM60.533,77.796c-1.422,0,-2.369,0.167,-2.84,0.5s-0.707,0.744,-0.707,1.232c0,0.488,0.236,0.899,0.709,1.232c0.474,0.333,1.42,0.5,2.838,0.5c1.427,0,2.375,-0.167,2.844,-0.5s0.703,-0.748,0.703,-1.244c0,-0.489,-0.206,-0.879,-0.62,-1.17C62.932,77.979,61.956,77.796,60.533,77.796z"/>
   <path xmlns="http://www.w3.org/2000/svg" d="M58.548,83.441l0.142,1.064c-0.604,0.122,-1.037,0.33,-1.303,0.624c-0.267,0.294,-0.398,0.652,-0.398,1.074c0,0.5,0.174,0.922,0.521,1.268c0.349,0.344,0.776,0.52,1.289,0.52c0.488,0,0.894,-0.16,1.209,-0.48c0.315,-0.316,0.478,-0.725,0.478,-1.217c0,-0.201,-0.039,-0.451,-0.119,-0.75L61.3,85.66c-0.008,0.07,-0.012,0.129,-0.012,0.172c0,0.453,0.118,0.859,0.354,1.223c0.235,0.363,0.602,0.547,1.094,0.547c0.391,0,0.714,-0.135,0.97,-0.396c0.256,-0.264,0.384,-0.605,0.384,-1.023c0,-0.412,-0.13,-0.758,-0.39,-1.033c-0.261,-0.275,-0.65,-0.453,-1.171,-0.531l0.188,-1.063c0.715,0.129,1.268,0.426,1.658,0.888c0.393,0.461,0.588,1.035,0.588,1.72c0,0.473,-0.104,0.907,-0.304,1.307c-0.203,0.397,-0.479,0.703,-0.831,0.914s-0.725,0.315,-1.117,0.315c-0.374,0,-0.715,-0.103,-1.021,-0.303c-0.309,-0.199,-0.551,-0.498,-0.732,-0.894c-0.118,0.515,-0.363,0.912,-0.734,1.194c-0.373,0.283,-0.84,0.427,-1.397,0.427c-0.759,0,-1.397,-0.277,-1.925,-0.828c-0.525,-0.553,-0.789,-1.25,-0.789,-2.092c0,-0.763,0.228,-1.394,0.681,-1.896C57.24,83.799,57.826,83.512,58.548,83.441z"/>
   <path xmlns="http://www.w3.org/2000/svg" d="M56.26,93.58l2.075,0l0,-3.76l0.976,0l5.615,3.955l0,0.869l-5.615,0l0,1.17l-0.976,0l0,-1.17L56.26,94.644L56.26,93.58zM59.311,93.58l3.907,0l-3.907,-2.713L59.311,93.58z"/>
   <path xmlns="http://www.w3.org/2000/svg" d="M58.529,96.902l0.096,1.117c-0.544,0.082,-0.952,0.271,-1.227,0.574c-0.273,0.303,-0.41,0.664,-0.41,1.092c0,0.512,0.191,0.943,0.578,1.301c0.387,0.354,0.897,0.531,1.537,0.531c0.605,0,1.086,-0.17,1.438,-0.512s0.525,-0.787,0.525,-1.34c0,-0.342,-0.078,-0.65,-0.233,-0.928c-0.155,-0.275,-0.356,-0.492,-0.604,-0.65l0.129,-1l4.451,0.84l0,4.313l-1.017,0l0,-3.459l-2.329,-0.467c0.362,0.52,0.544,1.064,0.544,1.637c0,0.758,-0.263,1.396,-0.786,1.916s-1.197,0.779,-2.021,0.779c-0.784,0,-1.464,-0.229,-2.033,-0.688c-0.701,-0.557,-1.054,-1.313,-1.054,-2.273c0,-0.787,0.223,-1.434,0.662,-1.932C57.217,97.257,57.801,96.973,58.529,96.902z"/>
   <path xmlns="http://www.w3.org/2000/svg" d="M60.533,103.635c1.025,0,1.85,0.105,2.475,0.316c0.624,0.211,1.105,0.523,1.445,0.939c0.339,0.416,0.508,0.938,0.508,1.568c0,0.465,-0.094,0.871,-0.279,1.225c-0.188,0.352,-0.457,0.641,-0.812,0.867c-0.353,0.229,-0.782,0.408,-1.288,0.537c-0.507,0.133,-1.189,0.195,-2.049,0.195c-1.018,0,-1.838,-0.104,-2.463,-0.313c-0.623,-0.209,-1.106,-0.521,-1.447,-0.938s-0.512,-0.941,-0.512,-1.574c0,-0.836,0.3,-1.492,0.897,-1.969C57.732,103.92,58.906,103.635,60.533,103.635zM60.533,104.729c-1.422,0,-2.369,0.166,-2.84,0.5c-0.471,0.332,-0.707,0.741,-0.707,1.231c0,0.488,0.236,0.897,0.709,1.231c0.474,0.332,1.42,0.498,2.838,0.498c1.427,0,2.375,-0.166,2.844,-0.498c0.469,-0.334,0.703,-0.748,0.703,-1.243c0,-0.49,-0.206,-0.88,-0.62,-1.173C62.932,104.912,61.956,104.729,60.533,104.729z"/>
   <path xmlns="http://www.w3.org/2000/svg" d="M63.791,113.802l1.021,0l0,5.609l-0.826,0c-0.588,-0.554,-1.368,-1.101,-2.342,-1.642c-0.975,-0.541,-1.976,-0.961,-3.004,-1.256c-0.726,-0.214,-1.52,-0.351,-2.383,-0.408l0,-1.095c0.684,0.013,1.506,0.146,2.473,0.402c0.965,0.256,1.896,0.623,2.793,1.103c0.896,0.479,1.65,0.987,2.268,1.528L63.791,113.802z"/>
   <path xmlns="http://www.w3.org/2000/svg" d="M56.26,120.848l8.666,0l0,3.252c0,0.661,-0.088,1.192,-0.263,1.594c-0.177,0.397,-0.445,0.714,-0.812,0.938c-0.363,0.228,-0.744,0.341,-1.145,0.341c-0.37,0,-0.721,-0.103,-1.046,-0.302c-0.327,-0.2,-0.593,-0.506,-0.793,-0.912c-0.153,0.525,-0.415,0.929,-0.786,1.209c-0.37,0.283,-0.809,0.425,-1.313,0.425c-0.406,0,-0.783,-0.086,-1.133,-0.259c-0.35,-0.172,-0.617,-0.383,-0.808,-0.635s-0.332,-0.567,-0.429,-0.949c-0.099,-0.381,-0.146,-0.846,-0.146,-1.397l0,-3.305L56.26,120.848zM57.282,121.996l0,2.156c0,0.371,0.014,0.631,0.042,0.781c0.047,0.264,0.126,0.482,0.236,0.66c0.108,0.18,0.271,0.322,0.479,0.438c0.211,0.112,0.454,0.17,0.729,0.17c0.321,0,0.604,-0.082,0.842,-0.248c0.238,-0.164,0.406,-0.396,0.504,-0.688c0.097,-0.295,0.146,-0.718,0.146,-1.269l0,-2.004L57.282,121.996L57.282,121.996zM61.284,121.996l0,1.873c0,0.508,0.032,0.873,0.101,1.094c0.088,0.291,0.23,0.512,0.432,0.658c0.201,0.148,0.453,0.223,0.759,0.223c0.286,0,0.541,-0.068,0.76,-0.207c0.22,-0.139,0.368,-0.336,0.449,-0.592c0.079,-0.256,0.12,-0.695,0.12,-1.318l0,-1.729L61.284,121.996L61.284,121.996z"/>
   <path xmlns="http://www.w3.org/2000/svg" d="M57.282,134.131L56.26,134.131l0,-5.729c0.256,-0.008,0.504,0.033,0.739,0.125c0.39,0.145,0.774,0.379,1.151,0.699c0.379,0.32,0.814,0.787,1.313,1.393c0.771,0.941,1.385,1.578,1.835,1.91c0.451,0.33,0.878,0.496,1.28,0.496c0.422,0,0.775,-0.15,1.064,-0.451c0.291,-0.303,0.437,-0.695,0.437,-1.18c0,-0.516,-0.153,-0.922,-0.461,-1.23c-0.31,-0.307,-0.731,-0.463,-1.276,-0.467l0.112,-1.094c0.813,0.072,1.438,0.355,1.864,0.846c0.428,0.488,0.642,1.145,0.642,1.969c0,0.832,-0.229,1.49,-0.69,1.975c-0.461,0.485,-1.031,0.729,-1.713,0.729c-0.349,0,-0.688,-0.07,-1.023,-0.213c-0.336,-0.145,-0.688,-0.377,-1.059,-0.707c-0.369,-0.328,-0.879,-0.875,-1.524,-1.643c-0.536,-0.637,-0.899,-1.047,-1.091,-1.229c-0.19,-0.182,-0.383,-0.332,-0.576,-0.449L57.282,134.131L57.282,134.131z"/>
   <path xmlns="http://www.w3.org/2000/svg" d="M60.533,135.271c1.025,0,1.85,0.104,2.475,0.314c0.624,0.211,1.105,0.523,1.445,0.939c0.339,0.414,0.508,0.938,0.508,1.568c0,0.465,-0.094,0.873,-0.279,1.225c-0.188,0.352,-0.457,0.641,-0.812,0.869c-0.353,0.229,-0.782,0.406,-1.288,0.537c-0.507,0.131,-1.189,0.195,-2.049,0.195c-1.018,0,-1.838,-0.105,-2.463,-0.314c-0.623,-0.209,-1.106,-0.52,-1.447,-0.936s-0.512,-0.941,-0.512,-1.576c0,-0.836,0.3,-1.492,0.897,-1.969C57.732,135.559,58.906,135.271,60.533,135.271zM60.533,136.365c-1.422,0,-2.369,0.168,-2.84,0.5c-0.471,0.334,-0.707,0.744,-0.707,1.232c0,0.486,0.236,0.898,0.709,1.23c0.474,0.334,1.42,0.5,2.838,0.5c1.427,0,2.375,-0.166,2.844,-0.5c0.469,-0.332,0.703,-0.748,0.703,-1.244c0,-0.486,-0.206,-0.879,-0.62,-1.17C62.932,136.549,61.956,136.365,60.533,136.365z"/>
  </g>
  <g xmlns="http://www.w3.org/2000/svg" enable-background="new    ">
   <path xmlns="http://www.w3.org/2000/svg" d="M41.735,62.349L50.4,62.349l0,6.266l-1.021,0l0,-5.119l-2.654,0l0,4.794l-1.017,0l0,-4.794l-2.95,0l0,5.32l-1.022,0L41.735,62.349L41.735,62.349z"/>
   <path xmlns="http://www.w3.org/2000/svg" d="M49.266,70.04l1.022,0l0,5.61l-0.827,0c-0.588,-0.552,-1.368,-1.099,-2.342,-1.64c-0.973,-0.542,-1.974,-0.961,-3.003,-1.256c-0.725,-0.213,-1.519,-0.349,-2.382,-0.408l0,-1.094c0.682,0.012,1.505,0.146,2.471,0.402c0.966,0.256,1.896,0.624,2.793,1.103c0.896,0.479,1.652,0.988,2.268,1.528L49.266,70.04z"/>
   <path xmlns="http://www.w3.org/2000/svg" d="M41.735,77.086L50.4,77.086l0,3.251c0,0.662,-0.088,1.193,-0.262,1.593c-0.178,0.4,-0.445,0.713,-0.813,0.94c-0.364,0.227,-0.745,0.34,-1.144,0.34c-0.37,0,-0.719,-0.101,-1.046,-0.301c-0.327,-0.201,-0.592,-0.505,-0.793,-0.911c-0.153,0.524,-0.415,0.927,-0.786,1.209c-0.37,0.282,-0.808,0.423,-1.312,0.423c-0.406,0,-0.783,-0.086,-1.133,-0.258c-0.349,-0.171,-0.617,-0.383,-0.807,-0.635c-0.19,-0.252,-0.332,-0.569,-0.429,-0.949s-0.145,-0.847,-0.145,-1.398l0,-3.304L41.735,77.086zM42.757,78.233l0,2.157c0,0.371,0.014,0.631,0.042,0.78c0.047,0.264,0.126,0.485,0.236,0.662c0.11,0.178,0.271,0.323,0.481,0.438c0.211,0.113,0.454,0.171,0.73,0.171c0.322,0,0.604,-0.083,0.842,-0.248c0.238,-0.166,0.406,-0.395,0.503,-0.689c0.097,-0.293,0.145,-0.716,0.145,-1.268l0,-2.004L42.757,78.233L42.757,78.233zM46.759,78.233l0,1.874c0,0.508,0.033,0.873,0.101,1.094c0.087,0.292,0.23,0.511,0.432,0.659s0.453,0.222,0.757,0.222c0.287,0,0.541,-0.069,0.76,-0.207c0.218,-0.138,0.368,-0.335,0.449,-0.591c0.08,-0.256,0.121,-0.696,0.121,-1.318l0,-1.732L46.759,78.233L46.759,78.233z"/>
   <path xmlns="http://www.w3.org/2000/svg" d="M46.008,84.777c1.025,0,1.85,0.104,2.475,0.314c0.625,0.213,1.106,0.524,1.445,0.94c0.34,0.416,0.508,0.938,0.508,1.569c0,0.465,-0.094,0.873,-0.278,1.224c-0.188,0.352,-0.457,0.641,-0.812,0.868c-0.354,0.229,-0.783,0.408,-1.289,0.539c-0.507,0.129,-1.189,0.195,-2.049,0.195c-1.017,0,-1.837,-0.104,-2.462,-0.313c-0.624,-0.209,-1.107,-0.521,-1.448,-0.938c-0.341,-0.412,-0.511,-0.938,-0.511,-1.572c0,-0.836,0.299,-1.492,0.898,-1.971C43.206,85.063,44.381,84.777,46.008,84.777zM46.008,85.871c-1.422,0,-2.369,0.166,-2.84,0.5c-0.471,0.332,-0.706,0.744,-0.706,1.232c0,0.486,0.236,0.896,0.709,1.23c0.473,0.332,1.419,0.5,2.837,0.5c1.427,0,2.375,-0.168,2.844,-0.5c0.468,-0.334,0.703,-0.748,0.703,-1.244c0,-0.486,-0.205,-0.879,-0.62,-1.17C48.406,86.055,47.431,85.871,46.008,85.871z"/>
   <path xmlns="http://www.w3.org/2000/svg" d="M42.757,97.104l-1.022,0l0,-5.729c0.256,-0.008,0.503,0.033,0.739,0.123c0.39,0.146,0.774,0.381,1.152,0.701c0.378,0.318,0.815,0.783,1.313,1.393c0.772,0.941,1.384,1.578,1.835,1.908c0.451,0.332,0.878,0.498,1.28,0.498c0.422,0,0.777,-0.152,1.066,-0.453c0.29,-0.301,0.435,-0.693,0.435,-1.18c0,-0.514,-0.152,-0.924,-0.461,-1.229c-0.308,-0.309,-0.732,-0.463,-1.276,-0.467l0.112,-1.094c0.815,0.073,1.438,0.354,1.865,0.844c0.428,0.49,0.641,1.146,0.641,1.97c0,0.831,-0.229,1.489,-0.689,1.975c-0.461,0.486,-1.032,0.728,-1.714,0.728c-0.347,0,-0.688,-0.069,-1.023,-0.211c-0.335,-0.144,-0.688,-0.379,-1.058,-0.707c-0.37,-0.33,-0.879,-0.877,-1.525,-1.642c-0.536,-0.639,-0.899,-1.049,-1.091,-1.229c-0.19,-0.18,-0.383,-0.329,-0.576,-0.448L42.757,97.104L42.757,97.104z"/>
   <path xmlns="http://www.w3.org/2000/svg" d="M44.335,98.125l1.07,0l0,3.27l-1.07,0L44.335,98.125z"/>
   <path xmlns="http://www.w3.org/2000/svg" d="M41.735,102.707L50.4,102.707l0,2.984c0,0.674,-0.041,1.188,-0.123,1.543c-0.114,0.496,-0.321,0.92,-0.621,1.271c-0.387,0.457,-0.88,0.8,-1.48,1.025c-0.6,0.226,-1.288,0.34,-2.061,0.34c-0.658,0,-1.241,-0.076,-1.749,-0.229c-0.509,-0.154,-0.93,-0.353,-1.263,-0.593c-0.333,-0.239,-0.595,-0.502,-0.786,-0.789c-0.191,-0.284,-0.336,-0.631,-0.435,-1.032c-0.099,-0.403,-0.147,-0.869,-0.147,-1.394L41.735,102.707zM42.757,103.854l0,1.851c0,0.571,0.054,1.021,0.16,1.346c0.106,0.324,0.256,0.584,0.449,0.777c0.271,0.271,0.637,0.483,1.097,0.635c0.459,0.152,1.016,0.229,1.67,0.229c0.906,0,1.603,-0.147,2.089,-0.446c0.487,-0.298,0.813,-0.658,0.979,-1.084c0.117,-0.31,0.178,-0.804,0.178,-1.484l0,-1.819l-6.622,0L42.757,103.854z"/>
   <path xmlns="http://www.w3.org/2000/svg" d="M48.279,116.539l-0.083,-1.059c0.418,-0.096,0.722,-0.229,0.91,-0.402c0.306,-0.287,0.455,-0.641,0.455,-1.063c0,-0.342,-0.094,-0.639,-0.283,-0.895c-0.242,-0.336,-0.602,-0.602,-1.068,-0.793c-0.468,-0.193,-1.137,-0.293,-2.004,-0.303c0.391,0.258,0.68,0.568,0.869,0.939c0.189,0.371,0.284,0.758,0.284,1.164c0,0.709,-0.262,1.314,-0.783,1.813c-0.522,0.498,-1.197,0.748,-2.025,0.748c-0.544,0,-1.049,-0.115,-1.516,-0.352c-0.468,-0.234,-0.825,-0.557,-1.073,-0.967s-0.372,-0.875,-0.372,-1.396c0,-0.887,0.326,-1.607,0.978,-2.168c0.652,-0.561,1.728,-0.84,3.225,-0.84c1.676,0,2.893,0.309,3.651,0.928c0.662,0.541,0.994,1.27,0.994,2.184c0,0.682,-0.189,1.238,-0.574,1.676C49.48,116.191,48.952,116.453,48.279,116.539zM44.542,112.193c-0.366,0,-0.717,0.078,-1.052,0.232c-0.335,0.156,-0.591,0.373,-0.766,0.652c-0.176,0.279,-0.263,0.572,-0.263,0.881c0,0.449,0.181,0.836,0.543,1.16c0.363,0.32,0.855,0.482,1.479,0.482c0.599,0,1.07,-0.16,1.415,-0.479c0.346,-0.32,0.518,-0.723,0.518,-1.207c0,-0.48,-0.172,-0.889,-0.518,-1.223C45.554,112.361,45.102,112.193,44.542,112.193z"/>
   <path xmlns="http://www.w3.org/2000/svg" d="M46.008,117.75c1.025,0,1.85,0.105,2.475,0.316c0.625,0.211,1.106,0.523,1.445,0.939c0.34,0.414,0.508,0.938,0.508,1.568c0,0.465,-0.094,0.873,-0.278,1.225c-0.188,0.352,-0.457,0.641,-0.812,0.869c-0.354,0.229,-0.783,0.406,-1.289,0.537c-0.507,0.131,-1.189,0.193,-2.049,0.193c-1.017,0,-1.837,-0.104,-2.462,-0.313c-0.624,-0.209,-1.107,-0.521,-1.448,-0.938c-0.341,-0.416,-0.511,-0.939,-0.511,-1.574c0,-0.836,0.299,-1.492,0.898,-1.971C43.206,118.037,44.381,117.75,46.008,117.75zM46.008,118.844c-1.422,0,-2.369,0.168,-2.84,0.5c-0.471,0.334,-0.706,0.744,-0.706,1.232s0.236,0.9,0.709,1.232c0.473,0.334,1.419,0.5,2.837,0.5c1.427,0,2.375,-0.166,2.844,-0.5c0.468,-0.332,0.703,-0.748,0.703,-1.244c0,-0.488,-0.205,-0.879,-0.62,-1.17C48.406,119.027,47.431,118.844,46.008,118.844z"/>
   <path xmlns="http://www.w3.org/2000/svg" d="M44.335,124.365l1.07,0l0,3.27l-1.07,0L44.335,124.365z"/>
   <path xmlns="http://www.w3.org/2000/svg" d="M41.735,132.523l0,-1.064l6.78,0c-0.244,-0.256,-0.488,-0.592,-0.733,-1.008c-0.244,-0.416,-0.427,-0.789,-0.55,-1.119l1.029,0c0.279,0.594,0.618,1.115,1.016,1.561c0.396,0.445,0.785,0.76,1.158,0.945l0,0.686L41.735,132.524L41.735,132.523z"/>
  </g>
  <g xmlns="http://www.w3.org/2000/svg" enable-background="new    ">
   <path xmlns="http://www.w3.org/2000/svg" d="M33.558,54.625l-2.469,0l0,2.468l-0.907,0l0,-2.468l-2.48,0l0,-0.908l2.48,0l0,-2.48l0.907,0l0,2.48l2.469,0L33.558,54.625z"/>
  </g>
  <g xmlns="http://www.w3.org/2000/svg" enable-background="new    ">
   <path xmlns="http://www.w3.org/2000/svg" d="M27.205,65.902l0,-1.064l6.78,0c-0.244,-0.256,-0.488,-0.592,-0.733,-1.008c-0.244,-0.416,-0.427,-0.789,-0.55,-1.12l1.029,0c0.279,0.595,0.618,1.115,1.017,1.561c0.397,0.445,0.784,0.76,1.158,0.946l0,0.686L27.205,65.902L27.205,65.902z"/>
   <path xmlns="http://www.w3.org/2000/svg" d="M27.205,71.737l0,-1.064l6.78,0c-0.244,-0.256,-0.488,-0.592,-0.733,-1.008c-0.244,-0.416,-0.427,-0.789,-0.55,-1.12l1.029,0c0.279,0.595,0.618,1.115,1.017,1.561c0.397,0.445,0.784,0.76,1.158,0.946l0,0.686L27.205,71.737L27.205,71.737z"/>
   <path xmlns="http://www.w3.org/2000/svg" d="M31.479,74.462c1.025,0,1.85,0.105,2.475,0.316c0.624,0.21,1.106,0.524,1.445,0.94s0.508,0.938,0.508,1.569c0,0.465,-0.094,0.873,-0.28,1.224c-0.188,0.351,-0.457,0.64,-0.811,0.869c-0.353,0.229,-0.782,0.408,-1.288,0.538c-0.507,0.13,-1.189,0.195,-2.049,0.195c-1.017,0,-1.837,-0.104,-2.462,-0.313c-0.624,-0.209,-1.107,-0.521,-1.448,-0.937c-0.341,-0.416,-0.511,-0.941,-0.511,-1.575c0,-0.835,0.299,-1.492,0.898,-1.969C28.677,74.747,29.852,74.462,31.479,74.462zM31.479,75.555c-1.422,0,-2.369,0.167,-2.84,0.5c-0.471,0.333,-0.706,0.744,-0.706,1.232c0,0.488,0.236,0.899,0.709,1.232s1.419,0.5,2.837,0.5c1.427,0,2.375,-0.167,2.844,-0.5c0.469,-0.333,0.703,-0.748,0.703,-1.244c0,-0.489,-0.206,-0.879,-0.62,-1.17C33.877,75.739,32.902,75.555,31.479,75.555z"/>
   <path xmlns="http://www.w3.org/2000/svg" d="M31.479,81.195c1.025,0,1.85,0.105,2.475,0.316c0.624,0.21,1.106,0.524,1.445,0.939c0.339,0.416,0.508,0.939,0.508,1.57c0,0.464,-0.094,0.873,-0.28,1.223c-0.188,0.352,-0.457,0.641,-0.811,0.87c-0.353,0.229,-0.782,0.408,-1.288,0.537c-0.507,0.131,-1.189,0.195,-2.049,0.195c-1.017,0,-1.837,-0.104,-2.462,-0.313c-0.624,-0.209,-1.107,-0.521,-1.448,-0.938c-0.341,-0.414,-0.511,-0.938,-0.511,-1.574c0,-0.836,0.299,-1.492,0.898,-1.969C28.677,81.48,29.852,81.195,31.479,81.195zM31.479,82.288c-1.422,0,-2.369,0.166,-2.84,0.5c-0.471,0.332,-0.706,0.743,-0.706,1.232c0,0.488,0.236,0.898,0.709,1.232c0.473,0.332,1.419,0.499,2.837,0.499c1.427,0,2.375,-0.167,2.844,-0.499c0.469,-0.334,0.703,-0.748,0.703,-1.244c0,-0.489,-0.206,-0.879,-0.62,-1.171C33.877,82.472,32.902,82.288,31.479,82.288z"/>
   <path xmlns="http://www.w3.org/2000/svg" d="M27.205,88.225l6.277,0l0,0.95l-0.88,0c0.307,0.197,0.555,0.459,0.741,0.787c0.188,0.326,0.281,0.699,0.281,1.117c0,0.465,-0.097,0.846,-0.29,1.144c-0.193,0.299,-0.463,0.508,-0.81,0.631c0.732,0.496,1.1,1.144,1.1,1.938c0,0.623,-0.173,1.103,-0.518,1.438c-0.345,0.334,-0.876,0.502,-1.593,0.502l-4.31,0l0,-1.06l3.955,0c0.425,0,0.731,-0.032,0.919,-0.104c0.187,-0.067,0.338,-0.192,0.452,-0.375c0.114,-0.183,0.171,-0.396,0.171,-0.639c0,-0.44,-0.146,-0.808,-0.439,-1.101c-0.294,-0.291,-0.764,-0.438,-1.41,-0.438l-3.647,0l0,-1.063l4.079,0c0.473,0,0.827,-0.088,1.063,-0.262c0.236,-0.172,0.354,-0.457,0.354,-0.854c0,-0.299,-0.078,-0.574,-0.236,-0.83c-0.157,-0.254,-0.388,-0.438,-0.691,-0.553c-0.304,-0.113,-0.741,-0.17,-1.313,-0.17l-3.257,0l0,-1.063l0.002,0L27.205,88.225z"/>
   <path xmlns="http://www.w3.org/2000/svg" d="M27.205,97.492l8.666,3.328l0,1.236l-8.666,3.547l0,-1.309l2.625,-1.012L29.83,99.66l-2.625,-0.951L27.205,97.492zM30.764,99.994l0,2.938l2.4,-0.904c0.729,-0.275,1.328,-0.479,1.797,-0.613c-0.556,-0.111,-1.107,-0.268,-1.655,-0.469L30.764,99.994z"/>
   <path xmlns="http://www.w3.org/2000/svg" d="M27.205,106.383l8.666,0l0,1.064l-3.109,0c0.575,0.496,0.863,1.123,0.863,1.879c0,0.467,-0.092,0.869,-0.275,1.213c-0.183,0.342,-0.437,0.588,-0.76,0.736c-0.322,0.146,-0.792,0.221,-1.406,0.221l-3.979,0l0,-1.064l3.979,0c0.532,0,0.919,-0.115,1.161,-0.346c0.242,-0.23,0.364,-0.557,0.364,-0.979c0,-0.314,-0.082,-0.611,-0.246,-0.891c-0.163,-0.275,-0.385,-0.477,-0.665,-0.594c-0.279,-0.119,-0.666,-0.18,-1.158,-0.18l-3.435,0L27.205,106.383z"/>
   <path xmlns="http://www.w3.org/2000/svg" d="M29.493,116.189l0.142,1.063c-0.604,0.123,-1.037,0.33,-1.304,0.625c-0.266,0.293,-0.398,0.648,-0.398,1.072c0,0.5,0.173,0.922,0.52,1.268c0.347,0.348,0.776,0.52,1.289,0.52c0.488,0,0.892,-0.16,1.209,-0.479c0.316,-0.319,0.476,-0.727,0.476,-1.219c0,-0.201,-0.039,-0.451,-0.118,-0.75l0.934,0.117c-0.008,0.071,-0.012,0.129,-0.012,0.172c0,0.453,0.118,0.86,0.354,1.225c0.237,0.361,0.602,0.543,1.094,0.543c0.391,0,0.714,-0.133,0.97,-0.396c0.256,-0.264,0.384,-0.604,0.384,-1.021c0,-0.414,-0.13,-0.76,-0.39,-1.035c-0.26,-0.273,-0.65,-0.453,-1.171,-0.531l0.189,-1.063c0.713,0.129,1.266,0.428,1.658,0.889s0.588,1.033,0.588,1.721c0,0.473,-0.102,0.908,-0.304,1.307c-0.203,0.396,-0.48,0.701,-0.831,0.912s-0.723,0.316,-1.117,0.316c-0.374,0,-0.715,-0.102,-1.022,-0.301c-0.307,-0.201,-0.552,-0.5,-0.733,-0.895c-0.118,0.512,-0.363,0.91,-0.735,1.191c-0.373,0.283,-0.839,0.428,-1.398,0.428c-0.757,0,-1.398,-0.275,-1.924,-0.828c-0.526,-0.553,-0.789,-1.248,-0.789,-2.094c0,-0.762,0.227,-1.393,0.68,-1.895S28.772,116.261,29.493,116.189z"/>
   <path xmlns="http://www.w3.org/2000/svg" d="M27.205,123.514l1.212,0l0,1.213l-1.212,0L27.205,123.514z"/>
   <path xmlns="http://www.w3.org/2000/svg" d="M34.737,126.352l1.022,0l0,5.608l-0.827,0c-0.588,-0.551,-1.368,-1.099,-2.342,-1.64c-0.973,-0.543,-1.974,-0.961,-3.003,-1.258c-0.725,-0.213,-1.519,-0.349,-2.382,-0.405l0,-1.095c0.682,0.013,1.505,0.146,2.471,0.399c0.966,0.258,1.896,0.625,2.793,1.104c0.897,0.479,1.652,0.988,2.268,1.526L34.737,126.352z"/>
   <path xmlns="http://www.w3.org/2000/svg" d="M27.205,135.922l8.666,-3.357l0,1.242l-6.296,2.252c-0.504,0.184,-0.978,0.332,-1.418,0.455c0.473,0.133,0.945,0.289,1.418,0.467l6.296,2.344l0,1.17l-8.666,-3.395L27.205,135.922z"/>
  </g>
 </g>
 <rect xmlns="http://www.w3.org/2000/svg" x="87.98" fill="none" y="2.046" height="2.618" id="connector0pin" width="9.607"/>
 <rect xmlns="http://www.w3.org/2000/svg" x="87.98" fill="none" y="8.525" height="2.618" id="connector1pin" width="9.607"/>
</g>
</g></g></svg>