<svg id="espruino-pico" xmlns="http://www.w3.org/2000/svg" xmlns:xlink="http://www.w3.org/1999/xlink" viewBox="0 0 94.838 96.375">
  <defs>
    <style>
      .cls-1 {
        fill: #121212;
      }

      .cls-2 {
        fill: #fdda2c;
      }

      .cls-3 {
        font-size: 4px;
        letter-spacing: 0.018em;
      }

      .cls-3, .cls-36, .cls-39, .cls-6, .cls-9 {
        fill: #fff;
      }

      .cls-3, .cls-39, .cls-6 {
        font-family: TrebuchetMS, Trebuchet MS;
      }

      .cls-4 {
        letter-spacing: -0.029em;
      }

      .cls-5 {
        letter-spacing: 0.018em;
      }

      .cls-6 {
        font-size: 2px;
      }

      .cls-7 {
        letter-spacing: -0.106em;
      }

      .cls-8 {
        letter-spacing: -0.047em;
      }

      .cls-9 {
        opacity: 0.96;
      }

      .cls-10, .cls-11, .cls-12 {
        fill: none;
        stroke: #646464;
        stroke-width: 0.283px;
      }

      .cls-10, .cls-11, .cls-12, .cls-17, .cls-35, .cls-36, .cls-38 {
        stroke-miterlimit: 10;
      }

      .cls-11 {
        stroke-dasharray: 1.944 1.944;
      }

      .cls-12 {
        stroke-dasharray: 1.944 1.944;
      }

      .cls-13 {
        fill: #d2d1d3;
      }

      .cls-14 {
        fill: #b7b8b9;
      }

      .cls-15 {
        fill: #d7d3d5;
      }

      .cls-16 {
        fill: #b3b3b3;
      }

      .cls-17 {
        fill: #918985;
        stroke: #333;
      }

      .cls-17, .cls-38 {
        stroke-width: 0.142px;
      }

      .cls-18 {
        fill: gray;
      }

      .cls-19 {
        fill: #242424;
      }

      .cls-20 {
        fill: #d1d3d4;
      }

      .cls-21 {
        fill: #966432;
      }

      .cls-22 {
        fill: #d0d1d0;
      }

      .cls-23 {
        fill: #b8b9ba;
      }

      .cls-24 {
        fill: #dcd237;
      }

      .cls-25 {
        fill: #ed660a;
      }

      .cls-26 {
        fill: #bbffd0;
      }

      .cls-27 {
        fill: #545152;
      }

      .cls-28 {
        fill: #393536;
      }

      .cls-29 {
        fill: #2f3131;
        opacity: 0.3;
      }

      .cls-30 {
        fill: #c8cbca;
      }

      .cls-31 {
        fill: #565857;
      }

      .cls-32 {
        fill: #484b4c;
      }

      .cls-33 {
        fill: url(#Безымянный_градиент_11);
      }

      .cls-34 {
        fill: #918f90;
      }

      .cls-35 {
        fill: #f5eff0;
      }

      .cls-35, .cls-36 {
        stroke: #000;
        stroke-width: 0.028px;
      }

      .cls-37 {
        fill: #907f6c;
      }

      .cls-38 {
        fill: #753c21;
        stroke: #421b08;
      }

      .cls-39 {
        font-size: 3px;
      }
    </style>
    <linearGradient id="Безымянный_градиент_11" data-name="Безымянный градиент 11" x1="46.691" y1="19.511" x2="46.691" y2="9.086" gradientTransform="translate(94.614 43.927) rotate(180)" gradientUnits="userSpaceOnUse">
      <stop offset="0" stop-color="#ccc"/>
      <stop offset="1" stop-color="#4f4c4d"/>
    </linearGradient>
  </defs>
  <title>espruino-pico</title>
  <g id="espruino-pico-2" data-name="espruino-pico">
    <g id="bottom">
      <g>
        <path id="pcb" class="cls-1" d="M91.975,53.911a1.741,1.741,0,0,1-1.517-1.318H86.363a1.533,1.533,0,0,1-3.035,0H79.2a1.533,1.533,0,0,1-3.035,0H71.892a1.531,1.531,0,0,1-3.033,0H64.8a1.532,1.532,0,0,1-3.034,0H57.5a1.533,1.533,0,0,1-3.035,0H50.293a1.532,1.532,0,0,1-3.034,0H43.065a1.531,1.531,0,0,1-3.033,0h-4.14a1.74,1.74,0,0,1-1.517,1.318,1.741,1.741,0,0,1-1.517-1.318h-1v2.234a2.411,2.411,0,0,1-2,2.375v.042H.224V91.577H29.857v.042a2.413,2.413,0,0,1,2,2.375v2.119h1.028a1.744,1.744,0,0,1,1.52-1.328,1.742,1.742,0,0,1,1.521,1.328h4.238a1.534,1.534,0,0,1,3.041,0h4.124a1.535,1.535,0,0,1,3.042,0h4.145a1.536,1.536,0,0,1,3.043,0h4.083a1.535,1.535,0,0,1,3.042,0h4.149a1.534,1.534,0,0,1,3.041,0l4.264.009a1.535,1.535,0,0,1,3.042,0h4.108a1.536,1.536,0,0,1,3.043,0h4.175a1.54,1.54,0,0,1,3.049-.009h1.212V87.344a1.027,1.027,0,0,1,0-2.033V83.659a1.028,1.028,0,0,1,0-2.034V80.243a1.028,1.028,0,0,1,0-2.034V76.6a1.027,1.027,0,0,1,0-2.033V73.18a1.028,1.028,0,0,1,0-2.034V69.493a1.028,1.028,0,0,1,0-2.034V66.076a1.027,1.027,0,0,1,0-2.033V62.409a1.027,1.027,0,0,1,0-2.033V52.593H93.492A1.74,1.74,0,0,1,91.975,53.911ZM34.32,90.974a1.459,1.459,0,1,1-1.458,1.459A1.457,1.457,0,0,1,34.32,90.974Zm7.28,0a1.459,1.459,0,1,1-1.458,1.459A1.457,1.457,0,0,1,41.6,90.974Zm7.166,0a1.459,1.459,0,1,1-1.459,1.459A1.458,1.458,0,0,1,48.766,90.974Zm7.187.032a1.459,1.459,0,1,1-1.459,1.459A1.458,1.458,0,0,1,55.953,91.006Zm7.124-.032a1.459,1.459,0,1,1-1.458,1.459A1.457,1.457,0,0,1,63.077,90.974Zm7.191.032a1.459,1.459,0,1,1-1.458,1.459A1.457,1.457,0,0,1,70.268,91.006Zm7.225-.032a1.459,1.459,0,1,1-1.459,1.459A1.458,1.458,0,0,1,77.493,90.974Zm7.232,0a1.459,1.459,0,1,1-1.459,1.459A1.459,1.459,0,0,1,84.725,90.974Zm7.168,0a1.459,1.459,0,1,1-1.458,1.459A1.457,1.457,0,0,1,91.893,90.974Zm-14.4-5.646a.875.875,0,1,1-.875.875A.875.875,0,0,1,77.493,85.328Zm3.6-.019a.875.875,0,1,1-.875.875A.875.875,0,0,1,81.091,85.309Zm3.6.019a.875.875,0,1,1-.875.875A.874.874,0,0,1,84.689,85.328Zm7.546-.035a.971.971,0,1,1-.97.971A.971.971,0,0,1,92.235,85.293Zm0-3.543a.971.971,0,1,1-.97.97A.971.971,0,0,1,92.235,81.75Zm0-3.544a.971.971,0,1,1-.97.97A.971.971,0,0,1,92.235,78.206Zm0-3.543a.971.971,0,1,1-.97.97A.97.97,0,0,1,92.235,74.663Zm0-3.543a.971.971,0,1,1-.97.971A.971.971,0,0,1,92.235,71.12Zm0-3.544a.971.971,0,1,1-.97.971A.972.972,0,0,1,92.235,67.576Zm0-3.544a.971.971,0,1,1-.97.971A.972.972,0,0,1,92.235,64.032Zm0-3.543a.971.971,0,1,1-.97.971A.971.971,0,0,1,92.235,60.489ZM34.291,54.93a1.459,1.459,0,1,1-1.458,1.458A1.459,1.459,0,0,1,34.291,54.93Zm7.173,0a1.459,1.459,0,1,1-1.458,1.458A1.458,1.458,0,0,1,41.464,54.93Zm7.229,0a1.459,1.459,0,1,1-1.459,1.458A1.459,1.459,0,0,1,48.693,54.93Zm7.2,0a1.459,1.459,0,1,1-1.459,1.458A1.459,1.459,0,0,1,55.893,54.93Zm7.3,0a1.459,1.459,0,1,1-1.458,1.458A1.458,1.458,0,0,1,63.194,54.93Zm7.1,0a1.459,1.459,0,1,1-1.458,1.458A1.458,1.458,0,0,1,70.291,54.93Zm7.307,0a1.459,1.459,0,1,1-1.459,1.458A1.458,1.458,0,0,1,77.6,54.93Zm7.163,0A1.459,1.459,0,1,1,83.3,56.388,1.459,1.459,0,0,1,84.761,54.93Zm7.13,0a1.459,1.459,0,1,1-1.458,1.458A1.459,1.459,0,0,1,91.891,54.93Z"/>
        <g>
          <path id="PIN__a8" class="cls-2" d="M92.383,94.85a1.172,1.172,0,0,1,.186.08,1.3,1.3,0,0,1,.115.065,1.625,1.625,0,0,1,.144.107c.04.033.081.064.12.1.022.022.043.049.064.073a2.2,2.2,0,0,1,.279.383.347.347,0,0,1,.027.046,2.528,2.528,0,0,1,.121.257c.008.019.015.036.022.055a2.508,2.508,0,0,1,.095.293v0h.518V91.538l-1.422-1.421H91.128l-1.42,1.421v4.774h.685v0a2.714,2.714,0,0,1,.1-.293l.021-.055a2.528,2.528,0,0,1,.121-.257c.009-.017.019-.031.027-.046a2.208,2.208,0,0,1,.28-.383c.023-.024.042-.051.064-.073.038-.037.079-.068.12-.1A1.625,1.625,0,0,1,91.266,95c.038-.024.075-.045.114-.065a1.182,1.182,0,0,1,.187-.08c.033-.012.066-.025.1-.034a1.231,1.231,0,0,1,.309-.042,1.217,1.217,0,0,1,.308.042C92.318,94.825,92.349,94.838,92.383,94.85ZM90.435,92.3a1.456,1.456,0,1,1,1.456,1.456A1.456,1.456,0,0,1,90.435,92.3Z"/>
          <path id="PIN__b7" class="cls-2" d="M85.253,94.85a1.223,1.223,0,0,1,.187.08c.039.02.077.041.115.065a1.759,1.759,0,0,1,.142.107c.041.033.082.064.121.1.022.022.042.049.064.073a2.153,2.153,0,0,1,.279.383.511.511,0,0,1,.028.046c.044.082.083.167.121.257.007.019.013.036.021.055a2.954,2.954,0,0,1,.1.293v0h.518V91.538l-1.421-1.421H84l-1.422,1.421v4.774h.686v0a2.954,2.954,0,0,1,.1-.293c.008-.019.014-.036.021-.055a2.763,2.763,0,0,1,.121-.257.511.511,0,0,1,.028-.046,2.2,2.2,0,0,1,.278-.383c.023-.024.043-.051.065-.073.039-.037.08-.068.121-.1A1.759,1.759,0,0,1,84.135,95c.038-.024.076-.045.115-.065a1.223,1.223,0,0,1,.187-.08c.034-.012.066-.025.1-.034a1.15,1.15,0,0,1,.616,0C85.187,94.825,85.219,94.838,85.253,94.85ZM83.3,92.3a1.457,1.457,0,1,1,1.457,1.456A1.457,1.457,0,0,1,83.3,92.3Z"/>
          <path id="PIN__b6" class="cls-2" d="M78.089,94.85a1.193,1.193,0,0,1,.188.08c.039.02.076.041.114.065a1.772,1.772,0,0,1,.143.107c.041.033.082.064.12.1.022.022.042.049.064.073a2.157,2.157,0,0,1,.28.383c.008.015.019.029.028.046a2.758,2.758,0,0,1,.12.257c.007.019.014.036.022.055a2.952,2.952,0,0,1,.095.293v0h.518V91.538l-1.42-1.421H76.835l-1.421,1.421v4.774H76.1v0a2.714,2.714,0,0,1,.1-.293l.021-.055a2.528,2.528,0,0,1,.121-.257.506.506,0,0,1,.027-.046,2.2,2.2,0,0,1,.279-.383c.022-.024.042-.051.065-.073.039-.037.08-.068.12-.1A1.612,1.612,0,0,1,76.972,95a1.3,1.3,0,0,1,.115-.065,1.212,1.212,0,0,1,.186-.08c.034-.012.066-.025.1-.034a1.211,1.211,0,0,1,.308-.042,1.223,1.223,0,0,1,.308.042C78.023,94.825,78.056,94.838,78.089,94.85ZM76.141,92.3A1.457,1.457,0,1,1,77.6,93.757,1.456,1.456,0,0,1,76.141,92.3Z"/>
          <path id="PIN__b5" class="cls-2" d="M70.784,94.85a1.256,1.256,0,0,1,.186.08,1.286,1.286,0,0,1,.114.065,1.377,1.377,0,0,1,.144.107c.04.033.081.064.119.1.024.022.043.049.065.073a2.153,2.153,0,0,1,.279.383c.009.015.019.029.028.046a2.528,2.528,0,0,1,.121.257c.006.019.014.036.021.055a2.954,2.954,0,0,1,.1.293v0h.516V91.538l-1.42-1.421H69.529l-1.421,1.421v4.774h.685v0a2.712,2.712,0,0,1,.095-.293c.007-.019.015-.036.022-.055a2.758,2.758,0,0,1,.12-.257c.009-.017.019-.031.028-.046a2.157,2.157,0,0,1,.28-.383c.021-.024.041-.051.064-.073.038-.037.079-.068.119-.1A1.625,1.625,0,0,1,69.666,95a1.286,1.286,0,0,1,.114-.065,1.223,1.223,0,0,1,.187-.08c.034-.012.066-.025.1-.034a1.15,1.15,0,0,1,.616,0C70.717,94.825,70.75,94.838,70.784,94.85ZM68.835,92.3a1.456,1.456,0,1,1,1.456,1.456A1.456,1.456,0,0,1,68.835,92.3Z"/>
          <path id="PIN__b4" class="cls-2" d="M63.687,94.85a1.256,1.256,0,0,1,.186.08,1.3,1.3,0,0,1,.115.065,1.612,1.612,0,0,1,.143.107c.04.033.081.064.12.1.023.022.043.049.064.073a2.153,2.153,0,0,1,.279.383.352.352,0,0,1,.028.046,2.763,2.763,0,0,1,.121.257l.021.055a2.714,2.714,0,0,1,.1.293v0h.517V91.538l-1.421-1.421H62.432l-1.421,1.421v4.774H61.7v0c.028-.1.06-.2.1-.293.008-.019.015-.036.021-.055a2.763,2.763,0,0,1,.121-.257c.009-.017.02-.031.028-.046a2.157,2.157,0,0,1,.28-.383c.022-.024.041-.051.064-.073.038-.037.079-.068.12-.1A1.612,1.612,0,0,1,62.569,95c.038-.024.075-.045.114-.065a1.223,1.223,0,0,1,.187-.08c.034-.012.067-.025.1-.034a1.223,1.223,0,0,1,.308-.042,1.211,1.211,0,0,1,.308.042C63.621,94.825,63.652,94.838,63.687,94.85ZM61.738,92.3a1.457,1.457,0,1,1,1.456,1.456A1.456,1.456,0,0,1,61.738,92.3Z"/>
          <path id="PIN__b3" class="cls-2" d="M56.385,94.912a1.331,1.331,0,0,1,.187.08c.039.021.077.042.115.065s.095.07.142.108.082.063.121.1c.022.022.042.05.065.073a2.2,2.2,0,0,1,.278.383c.009.016.02.03.028.046a2.546,2.546,0,0,1,.121.258c.007.018.013.036.021.054a2.974,2.974,0,0,1,.1.294v0h.518V91.6l-1.421-1.422H55.131L53.709,91.6v4.774H54.4v0a2.729,2.729,0,0,1,.095-.294c.008-.018.014-.036.022-.054a2.778,2.778,0,0,1,.12-.258c.008-.016.019-.03.028-.046a2.153,2.153,0,0,1,.279-.383c.022-.023.043-.051.064-.073.039-.037.08-.067.121-.1s.093-.075.142-.108.076-.044.115-.065a1.294,1.294,0,0,1,.188-.08c.033-.012.065-.024.1-.033a1.125,1.125,0,0,1,.616,0C56.319,94.888,56.352,94.9,56.385,94.912Zm-1.949-2.549a1.457,1.457,0,1,1,1.457,1.456A1.456,1.456,0,0,1,54.436,92.363Z"/>
          <path id="PIN__3.3" class="cls-2" d="M49.16,94.85a1.182,1.182,0,0,1,.187.08c.039.02.076.041.114.065a1.625,1.625,0,0,1,.144.107c.041.033.082.064.12.1.022.022.042.049.064.073a2.208,2.208,0,0,1,.28.383c.008.015.018.029.027.046a2.528,2.528,0,0,1,.121.257l.021.055a2.714,2.714,0,0,1,.1.293v0h.518V91.538l-1.421-1.421H47.906l-1.422,1.421v4.774h.686v0a2.508,2.508,0,0,1,.095-.293c.007-.019.014-.036.022-.055a2.528,2.528,0,0,1,.121-.257.347.347,0,0,1,.027-.046,2.2,2.2,0,0,1,.279-.383c.021-.024.042-.051.064-.073.039-.037.08-.068.12-.1A1.625,1.625,0,0,1,48.043,95a1.3,1.3,0,0,1,.115-.065,1.212,1.212,0,0,1,.186-.08c.034-.012.065-.025.1-.034a1.217,1.217,0,0,1,.308-.042,1.231,1.231,0,0,1,.309.042C49.094,94.825,49.127,94.838,49.16,94.85ZM47.212,92.3a1.456,1.456,0,1,1,1.457,1.456A1.455,1.455,0,0,1,47.212,92.3Z"/>
          <path id="PIN__vBat" class="cls-2" d="M41.957,94.85a1.256,1.256,0,0,1,.186.08,1.286,1.286,0,0,1,.114.065,1.491,1.491,0,0,1,.144.107c.04.033.081.064.119.1.024.022.043.049.065.073a2.153,2.153,0,0,1,.279.383c.009.015.019.029.028.046a2.528,2.528,0,0,1,.121.257c.006.019.014.036.021.055a2.954,2.954,0,0,1,.1.293v0h.516V91.538l-1.42-1.421H40.7l-1.421,1.421v4.774h.685v0a2.712,2.712,0,0,1,.095-.293c.007-.019.015-.036.022-.055a2.758,2.758,0,0,1,.12-.257c.009-.017.019-.031.028-.046a2.157,2.157,0,0,1,.28-.383c.021-.024.041-.051.064-.073.038-.037.079-.068.119-.1A1.491,1.491,0,0,1,40.839,95a1.286,1.286,0,0,1,.114-.065,1.223,1.223,0,0,1,.187-.08c.034-.012.066-.025.1-.034a1.15,1.15,0,0,1,.616,0C41.89,94.825,41.923,94.838,41.957,94.85ZM40.008,92.3a1.456,1.456,0,1,1,1.456,1.456A1.456,1.456,0,0,1,40.008,92.3Z"/>
          <path id="PIN__gnd" class="cls-2" d="M34.783,94.85a1.172,1.172,0,0,1,.186.08,1.3,1.3,0,0,1,.115.065,1.625,1.625,0,0,1,.144.107c.04.033.081.064.12.1.022.022.043.049.064.073a2.2,2.2,0,0,1,.279.383.347.347,0,0,1,.027.046,2.528,2.528,0,0,1,.121.257c.008.019.015.036.022.055a2.508,2.508,0,0,1,.1.293v0h.518V91.538l-1.422-1.421H33.528l-1.42,1.421v4.774h.685v0a2.714,2.714,0,0,1,.1-.293l.021-.055a2.528,2.528,0,0,1,.121-.257c.009-.017.019-.031.027-.046a2.208,2.208,0,0,1,.28-.383c.022-.024.042-.051.064-.073.038-.037.079-.068.12-.1A1.625,1.625,0,0,1,33.666,95c.038-.024.075-.045.114-.065a1.182,1.182,0,0,1,.187-.08c.033-.012.066-.025.1-.034a1.231,1.231,0,0,1,.309-.042,1.217,1.217,0,0,1,.308.042C34.718,94.825,34.749,94.838,34.783,94.85ZM32.835,92.3a1.456,1.456,0,1,1,1.456,1.456A1.456,1.456,0,0,1,32.835,92.3Z"/>
        </g>
        <g>
          <path id="PIN__a4" class="cls-2" d="M94.838,62.468h0c-.067-.018-.132-.04-.2-.063a.388.388,0,0,0-.036-.015,1.579,1.579,0,0,1-.171-.081l-.031-.017a1.471,1.471,0,0,1-.254-.186c-.016-.015-.034-.029-.049-.044a1,1,0,0,1-.067-.079.9.9,0,0,1-.071-.095.652.652,0,0,1-.043-.077.8.8,0,0,1-.054-.124.567.567,0,0,1-.022-.066.743.743,0,0,1,0-.411.567.567,0,0,1,.022-.066.8.8,0,0,1,.054-.124.581.581,0,0,1,.043-.077.9.9,0,0,1,.071-.095c.022-.027.042-.054.067-.08a.64.64,0,0,1,.049-.042,1.425,1.425,0,0,1,.254-.187l.031-.018a1.574,1.574,0,0,1,.171-.08l.036-.015a1.865,1.865,0,0,1,.2-.063h0v-.345H91.661l-.946.945v1.016l.946.946h3.177Zm-3.639-1a.97.97,0,1,1,.969.97A.969.969,0,0,1,91.2,61.469Z"/>
          <path id="PIN__a3" class="cls-2" d="M94.838,66.117h0a1.666,1.666,0,0,1-.2-.065l-.036-.013c-.059-.025-.117-.051-.171-.08-.01-.006-.02-.014-.031-.02a1.416,1.416,0,0,1-.254-.185c-.016-.015-.034-.027-.049-.043a1.013,1.013,0,0,1-.067-.08.9.9,0,0,1-.071-.095.652.652,0,0,1-.043-.077.8.8,0,0,1-.054-.124.478.478,0,0,1-.022-.067.736.736,0,0,1,0-.409.426.426,0,0,1,.022-.066.857.857,0,0,1,.054-.125.64.64,0,0,1,.043-.076.82.82,0,0,1,.071-.1,1.013,1.013,0,0,1,.067-.08l.049-.043a1.521,1.521,0,0,1,.254-.185l.031-.018a1.8,1.8,0,0,1,.171-.082l.036-.013a1.87,1.87,0,0,1,.2-.064h0v-.457H91.661l-.946.946v1.016l.946.946h3.177ZM91.2,65.008a.97.97,0,1,1,.969.969A.969.969,0,0,1,91.2,65.008Z"/>
          <path id="PIN__a2" class="cls-2" d="M94.838,69.543h0a1.87,1.87,0,0,1-.2-.064l-.036-.014a1.579,1.579,0,0,1-.171-.081.307.307,0,0,0-.031-.017,1.475,1.475,0,0,1-.254-.187.487.487,0,0,1-.049-.043.86.86,0,0,1-.067-.08.9.9,0,0,1-.071-.095.64.64,0,0,1-.043-.076.813.813,0,0,1-.054-.125.464.464,0,0,1-.022-.066.739.739,0,0,1,0-.41.464.464,0,0,1,.022-.066.857.857,0,0,1,.054-.125.731.731,0,0,1,.043-.076.9.9,0,0,1,.071-.095.86.86,0,0,1,.067-.08c.015-.015.033-.028.049-.043a1.471,1.471,0,0,1,.254-.186.314.314,0,0,0,.031-.018,1.793,1.793,0,0,1,.171-.081l.036-.014a1.865,1.865,0,0,1,.2-.063h0v-.345H91.661l-.946.947v1.015l.946.945h3.177Zm-3.639-1a.97.97,0,1,1,.969.969A.969.969,0,0,1,91.2,68.547Z"/>
          <path id="PIN__a1" class="cls-2" d="M94.838,73.193h0c-.067-.018-.132-.039-.2-.063l-.036-.014a1.793,1.793,0,0,1-.171-.081l-.031-.018a1.471,1.471,0,0,1-.254-.186c-.016-.015-.034-.028-.049-.043a1.013,1.013,0,0,1-.067-.08.8.8,0,0,1-.071-.094.743.743,0,0,1-.043-.077.846.846,0,0,1-.054-.124.582.582,0,0,1-.022-.067.739.739,0,0,1,0-.41.567.567,0,0,1,.022-.066.762.762,0,0,1,.054-.124.581.581,0,0,1,.043-.077.913.913,0,0,1,.071-.1c.022-.026.042-.053.067-.079s.033-.029.049-.044a1.525,1.525,0,0,1,.254-.186c.011-.005.021-.012.031-.017a1.406,1.406,0,0,1,.171-.08c.012-.006.025-.01.036-.015a1.865,1.865,0,0,1,.2-.063h0V70.63H91.661l-.946.947v1.014l.946.947h3.177ZM91.2,72.084a.97.97,0,1,1,.969.969A.969.969,0,0,1,91.2,72.084Z"/>
          <path id="PIN__a0" class="cls-2" d="M94.838,76.62h0c-.067-.018-.132-.04-.2-.063a.388.388,0,0,0-.036-.015,1.579,1.579,0,0,1-.171-.081l-.031-.017a1.471,1.471,0,0,1-.254-.186l-.049-.043c-.025-.026-.045-.053-.067-.079a1.031,1.031,0,0,1-.071-.1.652.652,0,0,1-.043-.077.8.8,0,0,1-.054-.124.567.567,0,0,1-.022-.066.743.743,0,0,1,0-.411.567.567,0,0,1,.022-.066.8.8,0,0,1,.054-.124.652.652,0,0,1,.043-.077A.8.8,0,0,1,94.033,75a.86.86,0,0,1,.067-.08.487.487,0,0,1,.049-.043,1.425,1.425,0,0,1,.254-.187.314.314,0,0,0,.031-.018,1.574,1.574,0,0,1,.171-.08c.012-.006.025-.01.036-.015.064-.024.129-.045.2-.063h0v-.345H91.661l-.946.946V76.13l.946.946h3.177Zm-3.639-1a.97.97,0,1,1,.969.969A.969.969,0,0,1,91.2,75.622Z"/>
          <path id="PIN__a10" class="cls-2" d="M94.838,80.269h0a1.87,1.87,0,0,1-.2-.064l-.036-.014c-.059-.025-.117-.051-.171-.08-.01-.006-.02-.014-.031-.02a1.416,1.416,0,0,1-.254-.185c-.016-.014-.034-.027-.049-.043a.86.86,0,0,1-.067-.08.9.9,0,0,1-.071-.095.731.731,0,0,1-.043-.076.813.813,0,0,1-.054-.125.511.511,0,0,1-.022-.066.739.739,0,0,1,0-.41.464.464,0,0,1,.022-.066.857.857,0,0,1,.054-.125.64.64,0,0,1,.043-.076.913.913,0,0,1,.071-.1c.022-.027.042-.054.067-.08l.049-.043a1.521,1.521,0,0,1,.254-.185.327.327,0,0,1,.031-.017,1.416,1.416,0,0,1,.171-.082l.036-.014c.064-.024.129-.046.2-.064h0v-.457H91.661l-.946.946v1.016l.946.946h3.177ZM91.2,79.16a.97.97,0,1,1,.969.969A.969.969,0,0,1,91.2,79.16Z"/>
          <path id="PIN__b9" class="cls-2" d="M94.838,83.7h0a1.662,1.662,0,0,1-.2-.064l-.036-.014a1.579,1.579,0,0,1-.171-.081c-.01,0-.02-.012-.031-.017a1.525,1.525,0,0,1-.254-.186c-.016-.014-.034-.028-.049-.043s-.045-.053-.067-.08a1.031,1.031,0,0,1-.071-.1.64.64,0,0,1-.043-.076.813.813,0,0,1-.054-.125.464.464,0,0,1-.022-.066.739.739,0,0,1,0-.41.511.511,0,0,1,.022-.066,1.044,1.044,0,0,1,.1-.2.9.9,0,0,1,.071-.095A.86.86,0,0,1,94.1,82c.015-.015.033-.028.049-.043a1.466,1.466,0,0,1,.254-.185l.031-.019a1.793,1.793,0,0,1,.171-.081l.036-.014c.064-.024.129-.045.2-.063h0v-.345H91.661l-.946.947v1.015l.946.946h3.177Zm-3.639-1a.97.97,0,1,1,.969.969A.969.969,0,0,1,91.2,82.7Z"/>
          <path id="PIN__b8" class="cls-2" d="M94.838,87.345h0c-.067-.018-.132-.039-.2-.063l-.036-.014a1.579,1.579,0,0,1-.171-.081l-.031-.018a1.471,1.471,0,0,1-.254-.186c-.016-.014-.034-.028-.049-.043a.86.86,0,0,1-.067-.08.8.8,0,0,1-.071-.094.743.743,0,0,1-.043-.077.846.846,0,0,1-.054-.124.638.638,0,0,1-.022-.066.743.743,0,0,1,0-.411.567.567,0,0,1,.022-.066.762.762,0,0,1,.054-.124.581.581,0,0,1,.043-.077,1.031,1.031,0,0,1,.071-.1c.022-.026.042-.053.067-.079s.033-.029.049-.044a1.525,1.525,0,0,1,.254-.186.307.307,0,0,0,.031-.017,1.406,1.406,0,0,1,.171-.08c.012-.006.025-.01.036-.015a1.865,1.865,0,0,1,.2-.063h0v-.457H91.661l-.946.947v1.014l.946.947h3.177ZM91.2,86.236a.97.97,0,1,1,.969.97A.969.969,0,0,1,91.2,86.236Z"/>
        </g>
        <g>
          <path id="PIN__a5" class="cls-2" d="M94.125,57.222V52.448h-.517v0a2.732,2.732,0,0,1-.1.294l-.021.054a2.546,2.546,0,0,1-.121.258.421.421,0,0,1-.028.045,2.171,2.171,0,0,1-.278.384c-.022.023-.042.05-.065.073-.039.037-.08.067-.12.1a1.612,1.612,0,0,1-.143.107c-.037.024-.076.045-.115.066a1.51,1.51,0,0,1-.186.08c-.035.011-.066.024-.1.033a1.212,1.212,0,0,1-.308.043,1.224,1.224,0,0,1-.308-.043c-.033-.009-.066-.022-.1-.033a1.46,1.46,0,0,1-.187-.08c-.039-.021-.076-.042-.114-.066a1.612,1.612,0,0,1-.143-.107c-.041-.033-.082-.063-.12-.1-.023-.023-.042-.05-.064-.073a2.13,2.13,0,0,1-.28-.384c-.008-.015-.019-.029-.028-.045-.044-.082-.083-.168-.121-.258q-.009-.027-.021-.054c-.036-.095-.068-.192-.1-.294v0h-.685v4.774l1.421,1.422H92.7Zm-3.64-.762a1.457,1.457,0,1,1,1.456,1.456A1.457,1.457,0,0,1,90.485,56.46Z"/>
          <path id="PIN__a6" class="cls-2" d="M86.909,57.222V52.448H86.39v0a2.729,2.729,0,0,1-.095.294c-.008.018-.014.036-.022.054a2.546,2.546,0,0,1-.121.258.412.412,0,0,1-.027.045,2.125,2.125,0,0,1-.279.384c-.022.023-.043.05-.064.073-.039.037-.08.067-.121.1a1.772,1.772,0,0,1-.143.107c-.037.024-.076.045-.115.066a1.348,1.348,0,0,1-.187.08c-.033.011-.065.024-.1.033a1.224,1.224,0,0,1-.308.043,1.212,1.212,0,0,1-.308-.043c-.035-.009-.067-.022-.1-.033a1.4,1.4,0,0,1-.187-.08c-.039-.021-.077-.042-.115-.066a1.772,1.772,0,0,1-.143-.107c-.04-.033-.081-.063-.12-.1-.022-.023-.042-.05-.065-.073a2.175,2.175,0,0,1-.279-.384c-.008-.015-.019-.029-.027-.045a2.546,2.546,0,0,1-.121-.258c-.008-.018-.014-.036-.021-.054a2.732,2.732,0,0,1-.1-.294v0h-.686v4.774l1.421,1.422h1.525Zm-3.641-.762a1.457,1.457,0,1,1,1.457,1.456A1.456,1.456,0,0,1,83.268,56.46Z"/>
          <path id="PIN__a7" class="cls-2" d="M79.758,57.222V52.448H79.24v0a2.971,2.971,0,0,1-.095.294c-.008.018-.015.036-.022.054a2.546,2.546,0,0,1-.121.258c-.008.016-.019.03-.027.045a2.179,2.179,0,0,1-.28.384c-.022.023-.042.05-.064.073-.038.037-.079.067-.12.1a1.772,1.772,0,0,1-.143.107c-.039.024-.076.045-.115.066a1.348,1.348,0,0,1-.187.08c-.033.011-.066.024-.1.033a1.231,1.231,0,0,1-.308.043,1.205,1.205,0,0,1-.308-.043c-.036-.009-.067-.022-.1-.033a1.447,1.447,0,0,1-.186-.08c-.039-.021-.078-.042-.115-.066a1.625,1.625,0,0,1-.144-.107c-.04-.033-.08-.063-.119-.1-.023-.023-.043-.05-.065-.073a2.175,2.175,0,0,1-.279-.384c-.009-.015-.019-.029-.027-.045a2.546,2.546,0,0,1-.121-.258q-.012-.027-.021-.054a2.527,2.527,0,0,1-.1-.294v0h-.685v4.774l1.421,1.422h1.525Zm-3.64-.762a1.457,1.457,0,1,1,1.457,1.456A1.456,1.456,0,0,1,76.118,56.46Z"/>
          <path id="PIN__b1" class="cls-2" d="M72.452,57.222V52.448h-.517v0a2.732,2.732,0,0,1-.1.294l-.021.054a2.546,2.546,0,0,1-.121.258c-.009.016-.019.03-.027.045a2.179,2.179,0,0,1-.28.384c-.022.023-.041.05-.065.073s-.079.067-.119.1a1.377,1.377,0,0,1-.144.107c-.037.024-.075.045-.114.066a1.447,1.447,0,0,1-.186.08c-.034.011-.066.024-.1.033a1.212,1.212,0,0,1-.308.043,1.224,1.224,0,0,1-.308-.043c-.034-.009-.066-.022-.1-.033a1.389,1.389,0,0,1-.186-.08c-.039-.021-.078-.042-.115-.066a1.625,1.625,0,0,1-.144-.107c-.04-.033-.081-.063-.119-.1-.023-.023-.043-.05-.064-.073a2.179,2.179,0,0,1-.28-.384c-.009-.015-.019-.029-.027-.045a2.546,2.546,0,0,1-.121-.258l-.022-.054a2.729,2.729,0,0,1-.095-.294v0h-.685v4.774l1.421,1.422h1.525Zm-3.639-.762a1.456,1.456,0,1,1,1.455,1.456A1.455,1.455,0,0,1,68.813,56.46Z"/>
          <path id="PIN__b10" class="cls-2" d="M65.261,57.222V52.448h-.517v0a2.732,2.732,0,0,1-.1.294c-.007.018-.013.036-.021.054a2.546,2.546,0,0,1-.121.258.421.421,0,0,1-.028.045,2.121,2.121,0,0,1-.278.384c-.022.023-.042.05-.065.073-.039.037-.08.067-.12.1a1.478,1.478,0,0,1-.143.107c-.037.024-.076.045-.115.066a1.51,1.51,0,0,1-.186.08c-.034.011-.066.024-.1.033a1.212,1.212,0,0,1-.308.043,1.224,1.224,0,0,1-.308-.043c-.033-.009-.066-.022-.1-.033a1.415,1.415,0,0,1-.188-.08c-.039-.021-.076-.042-.114-.066a1.772,1.772,0,0,1-.143-.107c-.041-.033-.082-.063-.12-.1-.022-.023-.042-.05-.064-.073a2.13,2.13,0,0,1-.28-.384c-.008-.015-.019-.029-.028-.045a2.778,2.778,0,0,1-.12-.258c-.007-.018-.014-.036-.022-.054a2.971,2.971,0,0,1-.095-.294v0h-.686v4.774l1.421,1.422H63.84Zm-3.639-.762a1.456,1.456,0,1,1,1.455,1.456A1.456,1.456,0,0,1,61.622,56.46Z"/>
          <path id="PIN__b13" class="cls-2" d="M58.137,57.222V52.448h-.519v0a2.732,2.732,0,0,1-.1.294c-.007.018-.013.036-.021.054a2.546,2.546,0,0,1-.121.258c-.008.016-.018.03-.027.045a2.175,2.175,0,0,1-.279.384c-.023.023-.043.05-.064.073-.039.037-.08.067-.121.1a1.772,1.772,0,0,1-.143.107c-.038.024-.076.045-.115.066a1.4,1.4,0,0,1-.187.08c-.033.011-.065.024-.1.033a1.128,1.128,0,0,1-.617,0c-.034-.009-.066-.022-.1-.033a1.348,1.348,0,0,1-.187-.08c-.039-.021-.077-.042-.115-.066a1.772,1.772,0,0,1-.143-.107c-.041-.033-.082-.063-.121-.1-.021-.023-.042-.05-.064-.073a2.175,2.175,0,0,1-.279-.384c-.009-.015-.019-.029-.027-.045a2.546,2.546,0,0,1-.121-.258c-.008-.018-.014-.036-.022-.054a2.729,2.729,0,0,1-.095-.294v0h-.687v4.774l1.422,1.422h1.525ZM54.5,56.46a1.457,1.457,0,1,1,1.457,1.456A1.456,1.456,0,0,1,54.5,56.46Z"/>
          <path id="PIN__b14" class="cls-2" d="M50.949,57.222V52.448h-.518v0a2.971,2.971,0,0,1-.095.294c-.008.018-.015.036-.022.054a2.546,2.546,0,0,1-.121.258c-.008.016-.019.03-.027.045a2.13,2.13,0,0,1-.28.384c-.022.023-.042.05-.064.073-.038.037-.079.067-.12.1a1.772,1.772,0,0,1-.143.107c-.038.024-.075.045-.114.066a1.415,1.415,0,0,1-.188.08c-.033.011-.066.024-.1.033a1.231,1.231,0,0,1-.308.043,1.205,1.205,0,0,1-.308-.043c-.036-.009-.067-.022-.1-.033a1.447,1.447,0,0,1-.186-.08c-.039-.021-.078-.042-.115-.066A1.478,1.478,0,0,1,48,53.658c-.04-.033-.081-.063-.12-.1-.023-.023-.043-.05-.065-.073a2.175,2.175,0,0,1-.279-.384c-.009-.015-.019-.029-.027-.045a2.546,2.546,0,0,1-.121-.258c-.008-.018-.014-.036-.021-.054a2.732,2.732,0,0,1-.1-.294v0h-.685v4.774L48,58.644h1.525Zm-3.64-.762a1.457,1.457,0,1,1,1.457,1.456A1.456,1.456,0,0,1,47.309,56.46Z"/>
          <path id="PIN__b15" class="cls-2" d="M43.783,57.222V52.448h-.517v0a2.729,2.729,0,0,1-.095.294c-.007.018-.015.036-.021.054-.038.09-.077.176-.121.258-.009.016-.019.03-.028.045a2.13,2.13,0,0,1-.28.384c-.021.023-.041.05-.064.073s-.079.067-.119.1a1.491,1.491,0,0,1-.144.107c-.037.024-.075.045-.114.066a1.46,1.46,0,0,1-.187.08c-.034.011-.066.024-.1.033a1.125,1.125,0,0,1-.616,0c-.034-.009-.066-.022-.1-.033a1.51,1.51,0,0,1-.186-.08c-.039-.021-.077-.042-.114-.066a1.491,1.491,0,0,1-.144-.107c-.04-.033-.081-.063-.119-.1s-.043-.05-.065-.073a2.125,2.125,0,0,1-.279-.384c-.009-.015-.019-.029-.028-.045a2.546,2.546,0,0,1-.121-.258c-.006-.018-.014-.036-.021-.054a2.974,2.974,0,0,1-.1-.294v0h-.684v4.774l1.421,1.422h1.525Zm-3.639-.762A1.456,1.456,0,1,1,41.6,57.916,1.456,1.456,0,0,1,40.144,56.46Z"/>
          <path id="PIN__batIn" class="cls-2" d="M36.5,57.222V52.448h-.518v0a2.524,2.524,0,0,1-.095.294c-.007.018-.014.036-.022.054a2.546,2.546,0,0,1-.121.258.3.3,0,0,1-.027.045,2.125,2.125,0,0,1-.279.384c-.021.023-.042.05-.064.073-.039.037-.08.067-.12.1a1.772,1.772,0,0,1-.143.107c-.037.024-.076.045-.115.066a1.46,1.46,0,0,1-.187.08c-.034.011-.065.024-.1.033a1.212,1.212,0,0,1-.308.043,1.224,1.224,0,0,1-.308-.043c-.033-.009-.067-.022-.1-.033a1.46,1.46,0,0,1-.187-.08c-.039-.021-.076-.042-.114-.066a1.478,1.478,0,0,1-.143-.107c-.041-.033-.082-.063-.12-.1s-.042-.05-.065-.073a2.125,2.125,0,0,1-.279-.384c-.008-.015-.019-.029-.028-.045a2.546,2.546,0,0,1-.121-.258q-.009-.027-.021-.054c-.036-.095-.068-.192-.1-.294v0h-.685v4.774l1.421,1.422h1.525Zm-3.64-.762a1.457,1.457,0,1,1,1.456,1.456A1.457,1.457,0,0,1,32.864,56.46Z"/>
        </g>
        <g>
          <path id="PIN__gnd-2" data-name="PIN__gnd" class="cls-2" d="M86,84.864H83.379v2.621H86Zm-2.184,1.311a.874.874,0,1,1,.873.873A.873.873,0,0,1,83.816,86.175Z"/>
          <path id="PIN__3.3-2" data-name="PIN__3.3" class="cls-2" d="M82.4,86.193a1.31,1.31,0,1,0-1.31,1.311A1.309,1.309,0,0,0,82.4,86.193Zm-2.184,0a.874.874,0,1,1,.874.874A.874.874,0,0,1,80.217,86.193Z"/>
          <path id="PIN__vbat-2" data-name="PIN__vbat" class="cls-2" d="M78.8,86.193a1.311,1.311,0,1,0-1.31,1.311A1.309,1.309,0,0,0,78.8,86.193Zm-2.184,0a.874.874,0,1,1,.874.874A.873.873,0,0,1,76.619,86.193Z"/>
        </g>
      </g>
      <g>
        <text class="cls-3" transform="translate(52.513 72.835) scale(1.208 1)">Espruino<tspan class="cls-4"><tspan x="0" y="5">P</tspan><tspan class="cls-5" x="2.115" y="5">ico</tspan></tspan></text>
        <text class="cls-6" transform="translate(52.513 80.857)">ww<tspan class="cls-7" x="2.977" y="0">w</tspan><tspan x="4.253" y="0">.espruino.com/</tspan><tspan class="cls-8" x="18.115" y="0">P</tspan><tspan x="19.137" y="0">ico</tspan></text>
      </g>
      <rect class="cls-9" x="0.421" y="57.401" width="30.912" height="33.936"/>
      <g>
        <g>
          <line class="cls-10" x1="15.573" y1="57.822" x2="15.573" y2="59.239"/>
          <polyline class="cls-10" points="15.573 61.893 15.573 63.31 14.156 63.32"/>
          <line class="cls-11" x1="12.212" y1="63.334" x2="9.297" y2="63.355"/>
          <polyline class="cls-10" points="8.325 63.361 6.908 63.372 6.908 61.954"/>
          <polyline class="cls-10" points="6.908 59.239 6.908 57.884 6.908 57.822"/>
        </g>
        <g>
          <line class="cls-10" x1="31.214" y1="57.667" x2="31.214" y2="59.084"/>
          <polyline class="cls-10" points="31.214 61.738 31.214 63.155 29.797 63.155"/>
          <line class="cls-12" x1="27.853" y1="63.155" x2="24.938" y2="63.155"/>
          <polyline class="cls-10" points="23.966 63.155 22.549 63.155 22.549 61.738"/>
          <line class="cls-10" x1="22.549" y1="59.084" x2="22.549" y2="57.667"/>
        </g>
        <g>
          <line class="cls-10" x1="15.573" y1="91.602" x2="15.573" y2="90.185"/>
          <polyline class="cls-10" points="15.573 87.531 15.573 86.114 14.156 86.114"/>
          <line class="cls-12" x1="12.212" y1="86.114" x2="9.297" y2="86.114"/>
          <polyline class="cls-10" points="8.325 86.114 6.908 86.114 6.908 87.531"/>
          <line class="cls-10" x1="6.908" y1="90.185" x2="6.908" y2="91.602"/>
        </g>
        <g>
          <line class="cls-10" x1="31.214" y1="91.615" x2="31.214" y2="90.198"/>
          <polyline class="cls-10" points="31.214 87.544 31.214 86.127 29.797 86.127"/>
          <line class="cls-12" x1="27.853" y1="86.127" x2="24.938" y2="86.127"/>
          <polyline class="cls-10" points="23.966 86.127 22.549 86.127 22.549 87.544"/>
          <line class="cls-10" x1="22.549" y1="90.198" x2="22.549" y2="91.615"/>
        </g>
      </g>
      <g>
        <circle class="cls-2" cx="34.356" cy="62.335" r="1.415"/>
        <circle class="cls-2" cx="38.271" cy="62.335" r="1.415"/>
        <circle class="cls-2" cx="42.185" cy="62.335" r="1.415"/>
        <circle class="cls-2" cx="46.099" cy="62.335" r="1.415"/>
        <circle class="cls-2" cx="50.013" cy="62.335" r="1.415"/>
        <circle class="cls-2" cx="53.927" cy="62.335" r="1.415"/>
      </g>
      <g>
        <rect id="PIN__usbD-" class="cls-2" x="37.298" y="70.182" width="10.126" height="2.754"/>
        <rect id="PIN__usbD--2" data-name="PIN__usbD-" class="cls-2" x="37.298" y="75.882" width="10.126" height="2.755"/>
      </g>
      <g>
        <g>
          <polygon id="PIN__usbD_" data-name="PIN__usbD+" class="cls-2" points="74.831 62.673 73.414 64.155 74.831 65.635 71.57 65.635 71.57 62.673 74.831 62.673"/>
          <polygon id="PIN__usbD_2" data-name="PIN__usbD+" class="cls-2" points="77.528 62.673 77.528 65.636 75.232 65.635 73.873 64.154 75.232 62.673 77.528 62.673"/>
        </g>
        <g>
          <polygon id="PIN__usbD_3" data-name="PIN__usbD+" class="cls-2" points="36.619 81.986 35.202 83.468 36.619 84.948 33.358 84.948 33.358 81.986 36.619 81.986"/>
          <polygon id="PIN__usbD_4" data-name="PIN__usbD+" class="cls-2" points="39.317 81.986 39.317 84.949 37.02 84.948 35.661 83.467 37.02 81.986 39.317 81.986"/>
        </g>
      </g>
      <g>
        <rect class="cls-2" x="59.674" y="62.157" width="6.807" height="4.51" rx="1.648"/>
        <rect class="cls-2" x="59.674" y="82.157" width="6.807" height="4.51" rx="1.648"/>
      </g>
    </g>
    <g id="top">
      <path id="pcb-2" data-name="pcb" class="cls-1" d="M93.268,43.674h1.274V35.891a1.027,1.027,0,0,1,0-2.033V32.224a1.027,1.027,0,0,1,0-2.033V28.808a1.2,1.2,0,0,1-.88-1.017,1.2,1.2,0,0,1,.88-1.017V25.12a1.2,1.2,0,0,1-.88-1.016,1.2,1.2,0,0,1,.88-1.018V21.7a1.2,1.2,0,0,1-.88-1.017,1.2,1.2,0,0,1,.88-1.017V18.058a1.2,1.2,0,0,1-.88-1.017,1.2,1.2,0,0,1,.88-1.017V14.641a1.2,1.2,0,0,1-.88-1.016,1.2,1.2,0,0,1,.88-1.017V10.956a1.2,1.2,0,0,1-.88-1.016,1.2,1.2,0,0,1,.88-1.017V.154H93.329A1.74,1.74,0,0,1,91.8,1.472,1.746,1.746,0,0,1,90.28.145H86.106a1.746,1.746,0,0,1-1.522,1.327A1.745,1.745,0,0,1,83.063.145H78.955a1.746,1.746,0,0,1-1.521,1.327A1.744,1.744,0,0,1,75.913.145L71.649.154a1.744,1.744,0,0,1-1.521,1.327A1.742,1.742,0,0,1,68.608.154h-4.15a1.742,1.742,0,0,1-1.521,1.327A1.746,1.746,0,0,1,61.416.154H57.334a1.746,1.746,0,0,1-1.522,1.327A1.744,1.744,0,0,1,54.291.154H50.146a1.745,1.745,0,0,1-1.52,1.327A1.744,1.744,0,0,1,47.1.154H42.98a1.743,1.743,0,0,1-1.52,1.327A1.744,1.744,0,0,1,39.939.154H35.7A1.742,1.742,0,0,1,34.18,1.481,1.746,1.746,0,0,1,32.659.154H31.632V2.272a2.411,2.411,0,0,1-2,2.375v.042H0V39.023H29.632v.042a2.411,2.411,0,0,1,2,2.374v2.235h1a1.739,1.739,0,0,1,1.516-1.319,1.741,1.741,0,0,1,1.518,1.319h4.139a1.531,1.531,0,0,1,3.033,0h4.195a1.532,1.532,0,0,1,3.034,0h4.166a1.532,1.532,0,0,1,3.035,0h4.267a1.532,1.532,0,0,1,3.034,0h4.063a1.531,1.531,0,0,1,3.033,0H75.94a1.532,1.532,0,0,1,3.034,0H83.1a1.532,1.532,0,0,1,3.035,0h4.1a1.532,1.532,0,0,1,3.034,0ZM32.638,3.834A1.459,1.459,0,1,1,34.1,5.293,1.458,1.458,0,0,1,32.638,3.834Zm7.28,0a1.458,1.458,0,1,1,1.458,1.459A1.458,1.458,0,0,1,39.918,3.834Zm7.165,0a1.459,1.459,0,1,1,1.459,1.459A1.458,1.458,0,0,1,47.083,3.834ZM54.269,3.8a1.459,1.459,0,1,1,1.459,1.459A1.459,1.459,0,0,1,54.269,3.8Zm7.126.032a1.459,1.459,0,1,1,1.458,1.459A1.458,1.458,0,0,1,61.4,3.834ZM68.586,3.8a1.458,1.458,0,1,1,1.458,1.459A1.458,1.458,0,0,1,68.586,3.8Zm7.224.032a1.459,1.459,0,1,1,1.459,1.459A1.458,1.458,0,0,1,75.81,3.834Zm7.231,0A1.459,1.459,0,1,1,84.5,5.293,1.459,1.459,0,0,1,83.041,3.834Zm7.17,0a1.458,1.458,0,1,1,1.458,1.459A1.458,1.458,0,0,1,90.211,3.834Zm-13.818,6.23a.875.875,0,1,1,.875.875A.875.875,0,0,1,76.393,10.064Zm3.6.019a.875.875,0,1,1,.875.875A.875.875,0,0,1,79.992,10.083Zm3.6-.019a.875.875,0,1,1,.875.875A.875.875,0,0,1,83.59,10.064ZM91.04,10a.971.971,0,1,1,.971.97A.971.971,0,0,1,91.04,10Zm0,3.543a.971.971,0,1,1,.971.971A.97.97,0,0,1,91.04,13.546Zm0,3.544a.971.971,0,1,1,.971.971A.97.97,0,0,1,91.04,17.09Zm0,3.543a.971.971,0,1,1,.971.971A.97.97,0,0,1,91.04,20.633Zm0,3.543a.971.971,0,1,1,.971.971A.971.971,0,0,1,91.04,24.176Zm0,3.544a.971.971,0,1,1,.971.971A.971.971,0,0,1,91.04,27.72Zm0,3.544a.971.971,0,1,1,.971.971A.971.971,0,0,1,91.04,31.264Zm0,3.543a.971.971,0,1,1,.971.971A.971.971,0,0,1,91.04,34.807ZM32.608,39.879a1.459,1.459,0,1,1,1.458,1.458A1.459,1.459,0,0,1,32.608,39.879Zm7.174,0a1.458,1.458,0,1,1,1.458,1.458A1.457,1.457,0,0,1,39.782,39.879Zm7.227,0a1.459,1.459,0,1,1,1.459,1.458A1.458,1.458,0,0,1,47.009,39.879Zm7.2,0a1.459,1.459,0,1,1,1.459,1.458A1.458,1.458,0,0,1,54.21,39.879Zm7.3,0a1.459,1.459,0,1,1,1.458,1.458A1.458,1.458,0,0,1,61.512,39.879Zm7.1,0a1.458,1.458,0,1,1,1.458,1.458A1.457,1.457,0,0,1,68.609,39.879Zm7.306,0a1.459,1.459,0,1,1,1.459,1.458A1.457,1.457,0,0,1,75.915,39.879Zm7.163,0a1.459,1.459,0,1,1,1.459,1.458A1.458,1.458,0,0,1,83.078,39.879Zm7.13,0a1.459,1.459,0,1,1,1.458,1.458A1.459,1.459,0,0,1,90.208,39.879Z"/>
      <g>
        <rect id="PIN__usbV" class="cls-2" x="0.222" y="29.532" width="22.029" height="4.306"/>
        <rect id="PIN__usbGnd" class="cls-2" x="0.222" y="10.125" width="22.029" height="4.306"/>
        <rect id="PIN__usbD_5" data-name="PIN__usbD+" class="cls-2" x="5.838" y="17.052" width="16.412" height="4.306"/>
        <rect id="PIN__usbD--3" data-name="PIN__usbD-" class="cls-2" x="5.838" y="22.668" width="16.412" height="4.306"/>
      </g>
      <g>
        <path id="PIN__a8-2" data-name="PIN__a8" class="cls-2" d="M92.159,42.4a1.447,1.447,0,0,1,.186.08c.039.021.078.042.115.066a1.478,1.478,0,0,1,.143.107c.04.033.081.063.12.1.023.023.043.05.065.074a2.166,2.166,0,0,1,.279.383.506.506,0,0,1,.027.046,2.431,2.431,0,0,1,.121.257c.008.019.014.036.021.055a2.714,2.714,0,0,1,.1.293v0h.518V39.09l-1.422-1.422H90.9L89.483,39.09v4.774h.686v0a2.952,2.952,0,0,1,.095-.293c.008-.019.015-.036.022-.055a2.431,2.431,0,0,1,.121-.257c.008-.017.019-.031.027-.046a2.122,2.122,0,0,1,.28-.383c.022-.024.042-.051.064-.074.038-.037.079-.067.12-.1a1.772,1.772,0,0,1,.143-.107c.038-.024.075-.045.114-.066a1.415,1.415,0,0,1,.188-.08c.033-.011.066-.024.1-.033a1.231,1.231,0,0,1,.308-.043,1.205,1.205,0,0,1,.308.043C92.093,42.377,92.125,42.39,92.159,42.4Zm-1.948-2.548a1.456,1.456,0,1,1,1.455,1.455A1.456,1.456,0,0,1,90.211,39.853Z"/>
        <path id="PIN__b7-2" data-name="PIN__b7" class="cls-2" d="M85.028,42.4a1.348,1.348,0,0,1,.187.08c.039.021.078.042.115.066a1.772,1.772,0,0,1,.143.107c.041.033.082.063.121.1.021.023.042.05.064.074a2.166,2.166,0,0,1,.279.383.506.506,0,0,1,.027.046,2.431,2.431,0,0,1,.121.257c.008.019.014.036.022.055a2.712,2.712,0,0,1,.095.293v0h.519V39.09L85.3,37.668H83.774L82.353,39.09v4.774h.686v0a2.714,2.714,0,0,1,.1-.293c.007-.019.013-.036.021-.055a2.431,2.431,0,0,1,.121-.257c.008-.017.019-.031.027-.046a2.166,2.166,0,0,1,.279-.383c.023-.024.043-.051.065-.074.039-.037.08-.067.12-.1a1.772,1.772,0,0,1,.143-.107c.038-.024.076-.045.115-.066a1.4,1.4,0,0,1,.187-.08c.033-.011.065-.024.1-.033a1.212,1.212,0,0,1,.308-.043,1.224,1.224,0,0,1,.308.043C84.963,42.377,85,42.39,85.028,42.4ZM83.08,39.853a1.457,1.457,0,1,1,1.457,1.455A1.456,1.456,0,0,1,83.08,39.853Z"/>
        <path id="PIN__b6-2" data-name="PIN__b6" class="cls-2" d="M77.865,42.4a1.4,1.4,0,0,1,.187.08c.039.021.076.042.114.066a1.625,1.625,0,0,1,.144.107c.041.033.082.063.12.1.022.023.042.05.064.074a2.171,2.171,0,0,1,.28.383c.008.015.018.029.027.046a2.431,2.431,0,0,1,.121.257c.007.019.014.036.022.055a2.952,2.952,0,0,1,.095.293v0h.518V39.09l-1.421-1.422H76.611L75.19,39.09v4.774h.685v0a2.335,2.335,0,0,1,.1-.293c.006-.019.013-.036.021-.055a2.431,2.431,0,0,1,.121-.257.347.347,0,0,1,.027-.046,2.166,2.166,0,0,1,.279-.383c.021-.024.042-.051.064-.074.039-.037.08-.067.12-.1a1.625,1.625,0,0,1,.144-.107c.037-.024.076-.045.115-.066a1.447,1.447,0,0,1,.186-.08c.034-.011.065-.024.1-.033a1.128,1.128,0,0,1,.617,0C77.8,42.377,77.832,42.39,77.865,42.4Zm-1.948-2.548a1.456,1.456,0,1,1,1.457,1.455A1.455,1.455,0,0,1,75.917,39.853Z"/>
        <path id="PIN__b5-2" data-name="PIN__b5" class="cls-2" d="M70.559,42.4a1.46,1.46,0,0,1,.187.08c.039.021.077.042.114.066a1.625,1.625,0,0,1,.144.107c.04.033.081.063.119.1.023.023.043.05.064.074a2.122,2.122,0,0,1,.28.383.506.506,0,0,1,.027.046,2.431,2.431,0,0,1,.121.257c.007.019.015.036.022.055a2.712,2.712,0,0,1,.095.293v0h.517V39.09l-1.421-1.422H69.3l-1.42,1.422v4.774h.684v0a2.714,2.714,0,0,1,.1-.293l.021-.055a2.431,2.431,0,0,1,.121-.257c.009-.017.019-.031.027-.046a2.171,2.171,0,0,1,.28-.383c.022-.024.041-.051.065-.074s.079-.067.119-.1a1.377,1.377,0,0,1,.144-.107c.037-.024.075-.045.114-.066a1.447,1.447,0,0,1,.186-.08c.034-.011.067-.024.1-.033a1.212,1.212,0,0,1,.308-.043,1.224,1.224,0,0,1,.308.043C70.493,42.377,70.525,42.39,70.559,42.4Zm-1.948-2.548a1.456,1.456,0,1,1,1.456,1.455A1.455,1.455,0,0,1,68.611,39.853Z"/>
        <path id="PIN__b4-2" data-name="PIN__b4" class="cls-2" d="M63.462,42.4a1.389,1.389,0,0,1,.186.08c.039.021.079.042.116.066a1.772,1.772,0,0,1,.143.107c.04.033.081.063.12.1.022.023.043.05.064.074a2.166,2.166,0,0,1,.279.383.347.347,0,0,1,.027.046,2.431,2.431,0,0,1,.121.257c.008.019.015.036.022.055a2.508,2.508,0,0,1,.095.293v0h.518V39.09l-1.422-1.422H62.207l-1.42,1.422v4.774h.685v0a2.954,2.954,0,0,1,.1-.293l.021-.055a2.431,2.431,0,0,1,.121-.257c.009-.017.02-.031.027-.046a2.171,2.171,0,0,1,.28-.383c.023-.024.042-.051.065-.074s.078-.067.119-.1a1.625,1.625,0,0,1,.144-.107c.038-.024.075-.045.114-.066a1.4,1.4,0,0,1,.187-.08c.033-.011.066-.024.1-.033a1.125,1.125,0,0,1,.616,0C63.4,42.377,63.428,42.39,63.462,42.4Zm-1.948-2.548a1.457,1.457,0,1,1,1.456,1.455A1.456,1.456,0,0,1,61.514,39.853Z"/>
        <path id="PIN__b3-2" data-name="PIN__b3" class="cls-2" d="M56.16,42.464a1.294,1.294,0,0,1,.188.08c.039.02.077.042.115.065s.095.069.142.107.082.064.121.1c.021.022.042.05.064.073a2.153,2.153,0,0,1,.279.383.425.425,0,0,1,.027.046,2.634,2.634,0,0,1,.121.257c.008.019.014.037.022.055a2.729,2.729,0,0,1,.1.294v0h.519V39.153l-1.422-1.422H54.906l-1.421,1.422v4.774h.686v0a2.974,2.974,0,0,1,.1-.294c.008-.018.013-.036.021-.055a2.634,2.634,0,0,1,.121-.257c.008-.017.019-.03.027-.046a2.2,2.2,0,0,1,.279-.383c.023-.023.043-.051.065-.073.039-.037.08-.067.121-.1a1.6,1.6,0,0,1,.142-.107c.038-.023.076-.045.115-.065a1.283,1.283,0,0,1,.187-.08c.033-.012.065-.024.1-.033a1.125,1.125,0,0,1,.616,0C56.1,42.44,56.127,42.452,56.16,42.464Zm-1.948-2.549a1.457,1.457,0,1,1,1.457,1.456A1.457,1.457,0,0,1,54.212,39.915Z"/>
        <path id="PIN__3.3-3" data-name="PIN__3.3" class="cls-2" d="M48.936,42.4a1.46,1.46,0,0,1,.187.08c.039.021.076.042.114.066a1.478,1.478,0,0,1,.143.107c.041.033.082.063.12.1s.042.05.065.074a2.117,2.117,0,0,1,.279.383c.008.015.019.029.028.046a2.431,2.431,0,0,1,.121.257c.007.019.013.036.021.055.036.094.068.192.1.293v0h.517V39.09l-1.42-1.422H47.682L46.26,39.09v4.774h.686v0a2.508,2.508,0,0,1,.095-.293c.007-.019.014-.036.022-.055a2.431,2.431,0,0,1,.121-.257.264.264,0,0,1,.027-.046,2.117,2.117,0,0,1,.279-.383c.021-.024.042-.051.064-.074.039-.037.08-.067.12-.1a1.772,1.772,0,0,1,.143-.107c.037-.024.076-.045.115-.066a1.46,1.46,0,0,1,.187-.08c.034-.011.065-.024.1-.033a1.212,1.212,0,0,1,.308-.043,1.224,1.224,0,0,1,.308.043C48.869,42.377,48.9,42.39,48.936,42.4Zm-1.948-2.548a1.456,1.456,0,1,1,1.456,1.455A1.455,1.455,0,0,1,46.988,39.853Z"/>
        <path id="PIN__vBat-3" data-name="PIN__vBat" class="cls-2" d="M41.732,42.4a1.46,1.46,0,0,1,.187.08c.039.021.077.042.114.066a1.625,1.625,0,0,1,.144.107c.04.033.081.063.119.1s.043.05.064.074a2.122,2.122,0,0,1,.28.383.506.506,0,0,1,.027.046,2.431,2.431,0,0,1,.121.257c.007.019.015.036.022.055a2.712,2.712,0,0,1,.095.293v0h.517V39.09L42,37.668H40.477l-1.42,1.422v4.774h.684v0a2.714,2.714,0,0,1,.1-.293l.021-.055a2.431,2.431,0,0,1,.121-.257c.009-.017.019-.031.027-.046a2.171,2.171,0,0,1,.28-.383c.022-.024.041-.051.065-.074s.079-.067.119-.1a1.377,1.377,0,0,1,.144-.107c.037-.024.075-.045.114-.066a1.447,1.447,0,0,1,.186-.08c.034-.011.066-.024.1-.033a1.212,1.212,0,0,1,.308-.043,1.224,1.224,0,0,1,.308.043C41.666,42.377,41.7,42.39,41.732,42.4Zm-1.948-2.548a1.456,1.456,0,1,1,1.456,1.455A1.455,1.455,0,0,1,39.784,39.853Z"/>
        <path id="PIN__gnd-3" data-name="PIN__gnd" class="cls-2" d="M34.559,42.4a1.447,1.447,0,0,1,.186.08c.039.021.078.042.115.066a1.478,1.478,0,0,1,.143.107c.04.033.081.063.12.1.023.023.043.05.065.074a2.166,2.166,0,0,1,.279.383.506.506,0,0,1,.027.046,2.431,2.431,0,0,1,.121.257c.008.019.014.036.021.055a2.511,2.511,0,0,1,.1.293v0h.518V39.09l-1.422-1.422H33.3L31.883,39.09v4.774h.686v0a2.952,2.952,0,0,1,.095-.293c.008-.019.015-.036.022-.055a2.431,2.431,0,0,1,.121-.257c.008-.017.019-.031.027-.046a2.122,2.122,0,0,1,.28-.383c.022-.024.042-.051.064-.074.038-.037.079-.067.12-.1a1.772,1.772,0,0,1,.143-.107c.038-.024.075-.045.114-.066a1.415,1.415,0,0,1,.188-.08c.033-.011.066-.024.1-.033a1.231,1.231,0,0,1,.308-.043,1.205,1.205,0,0,1,.308.043C34.493,42.377,34.525,42.39,34.559,42.4Zm-1.948-2.548a1.456,1.456,0,1,1,1.455,1.455A1.456,1.456,0,0,1,32.611,39.853Z"/>
      </g>
      <g>
        <path id="PIN__a4-2" data-name="PIN__a4" class="cls-2" d="M94.614,11.02h0c-.067-.019-.133-.04-.2-.064l-.036-.014a1.812,1.812,0,0,1-.172-.081l-.03-.018a1.475,1.475,0,0,1-.255-.185c-.015-.015-.034-.029-.048-.044a1.013,1.013,0,0,1-.068-.079c-.025-.031-.049-.062-.071-.1s-.03-.051-.043-.077a.8.8,0,0,1-.053-.124.651.651,0,0,1-.023-.066.768.768,0,0,1,0-.411.575.575,0,0,1,.023-.066.8.8,0,0,1,.053-.124c.013-.027.028-.052.043-.077a1.117,1.117,0,0,1,.071-.1c.023-.027.042-.054.068-.08s.033-.029.048-.043a1.479,1.479,0,0,1,.255-.186c.011-.006.02-.013.03-.018a1.42,1.42,0,0,1,.172-.08l.036-.015a1.792,1.792,0,0,1,.2-.063h0V8.568H91.437l-.947.946v1.015l.947.947h3.177Zm-3.639-1a.969.969,0,1,1,.969.97A.969.969,0,0,1,90.975,10.021Z"/>
        <path id="PIN__a3-2" data-name="PIN__a3" class="cls-2" d="M94.614,14.669h0a1.607,1.607,0,0,1-.2-.065l-.036-.013c-.06-.025-.117-.051-.172-.08-.01-.006-.019-.014-.03-.02a1.424,1.424,0,0,1-.255-.185c-.015-.015-.034-.027-.048-.043a1.027,1.027,0,0,1-.068-.08,1.133,1.133,0,0,1-.071-.1c-.015-.025-.03-.049-.043-.076a.841.841,0,0,1-.053-.124.48.48,0,0,1-.023-.067.761.761,0,0,1,0-.409.48.48,0,0,1,.023-.067.841.841,0,0,1,.053-.124c.013-.026.028-.051.043-.077s.046-.064.071-.1a1.027,1.027,0,0,1,.068-.08c.014-.015.033-.028.048-.043a1.475,1.475,0,0,1,.255-.185c.011-.006.02-.013.03-.018a1.817,1.817,0,0,1,.172-.082l.036-.013a2.045,2.045,0,0,1,.2-.065h0v-.456H91.437l-.947.946v1.016l.947.946h3.177ZM90.975,13.56a.969.969,0,1,1,.969.969A.969.969,0,0,1,90.975,13.56Z"/>
        <path id="PIN__a2-2" data-name="PIN__a2" class="cls-2" d="M94.614,18.1h0a1.8,1.8,0,0,1-.2-.064l-.036-.014a1.6,1.6,0,0,1-.172-.081c-.01,0-.019-.013-.03-.018a1.479,1.479,0,0,1-.255-.186.478.478,0,0,1-.048-.043.87.87,0,0,1-.068-.08c-.025-.031-.049-.062-.071-.1s-.03-.05-.043-.076a.808.808,0,0,1-.053-.125.516.516,0,0,1-.023-.066.764.764,0,0,1,0-.41.467.467,0,0,1,.023-.066.852.852,0,0,1,.053-.125c.013-.025.028-.051.043-.076s.046-.064.071-.1.042-.054.068-.08.033-.027.048-.043a1.53,1.53,0,0,1,.255-.185l.03-.018a1.812,1.812,0,0,1,.172-.081l.036-.014a1.792,1.792,0,0,1,.2-.063h0v-.345H91.437l-.947.946v1.015l.947.946h3.177Zm-3.639-1a.969.969,0,1,1,.969.97A.969.969,0,0,1,90.975,17.1Z"/>
        <path id="PIN__a1-2" data-name="PIN__a1" class="cls-2" d="M94.614,21.745h0a2.038,2.038,0,0,1-.2-.063c-.012-.006-.024-.009-.036-.014a1.812,1.812,0,0,1-.172-.081l-.03-.018a1.479,1.479,0,0,1-.255-.186c-.015-.015-.034-.028-.048-.043a1.027,1.027,0,0,1-.068-.08.978.978,0,0,1-.071-.095c-.015-.025-.03-.05-.043-.077a.829.829,0,0,1-.053-.123.59.59,0,0,1-.023-.067.764.764,0,0,1,0-.41.59.59,0,0,1,.023-.067.787.787,0,0,1,.053-.123.808.808,0,0,1,.043-.077,1.133,1.133,0,0,1,.071-.1c.023-.026.042-.054.068-.079s.033-.029.048-.044a1.479,1.479,0,0,1,.255-.186.3.3,0,0,0,.03-.018,1.807,1.807,0,0,1,.172-.08l.036-.014a1.8,1.8,0,0,1,.2-.064h0v-.456H91.437l-.947.947v1.014l.947.947h3.177Zm-3.639-1.109a.969.969,0,1,1,.969.969A.969.969,0,0,1,90.975,20.636Z"/>
        <path id="PIN__a0-2" data-name="PIN__a0" class="cls-2" d="M94.614,25.172h0c-.067-.019-.133-.04-.2-.063-.012-.006-.024-.01-.036-.015a1.6,1.6,0,0,1-.172-.081L94.179,25a1.479,1.479,0,0,1-.255-.186c-.015-.015-.034-.029-.048-.044a1.013,1.013,0,0,1-.068-.079c-.025-.031-.049-.062-.071-.095s-.03-.051-.043-.077a.8.8,0,0,1-.053-.124.651.651,0,0,1-.023-.066.768.768,0,0,1,0-.411.575.575,0,0,1,.023-.066.8.8,0,0,1,.053-.124c.013-.027.028-.052.043-.077s.046-.064.071-.1.042-.054.068-.08a.627.627,0,0,1,.048-.042,1.433,1.433,0,0,1,.255-.187l.03-.018a1.42,1.42,0,0,1,.172-.08l.036-.015a1.792,1.792,0,0,1,.2-.063h0v-.345H91.437l-.947.945v1.016l.947.946h3.177Zm-3.639-1a.969.969,0,1,1,.969.97A.969.969,0,0,1,90.975,24.173Z"/>
        <path id="PIN__a10-2" data-name="PIN__a10" class="cls-2" d="M94.614,28.821h0a1.607,1.607,0,0,1-.2-.065l-.036-.013c-.06-.025-.117-.051-.172-.08-.01-.006-.019-.014-.03-.02a1.424,1.424,0,0,1-.255-.185c-.015-.015-.034-.027-.048-.043a1.027,1.027,0,0,1-.068-.08c-.025-.031-.049-.062-.071-.1s-.03-.05-.043-.077a.758.758,0,0,1-.053-.124.48.48,0,0,1-.023-.067.761.761,0,0,1,0-.409.427.427,0,0,1,.023-.066.852.852,0,0,1,.053-.125c.013-.026.028-.051.043-.076s.046-.065.071-.1.042-.054.068-.08.033-.028.048-.043a1.53,1.53,0,0,1,.255-.185c.011-.006.02-.013.03-.018a1.6,1.6,0,0,1,.172-.081l.036-.014a2.042,2.042,0,0,1,.2-.064h0v-.457H91.437l-.947.946V28.22l.947.946h3.177Zm-3.639-1.109a.969.969,0,1,1,.969.969A.969.969,0,0,1,90.975,27.712Z"/>
        <path id="PIN__b9-2" data-name="PIN__b9" class="cls-2" d="M94.614,32.247h0a1.6,1.6,0,0,1-.2-.064l-.036-.014a1.6,1.6,0,0,1-.172-.081.291.291,0,0,0-.03-.017,1.484,1.484,0,0,1-.255-.187.478.478,0,0,1-.048-.043.87.87,0,0,1-.068-.08c-.025-.031-.049-.062-.071-.095s-.03-.05-.043-.076a.808.808,0,0,1-.053-.125.467.467,0,0,1-.023-.066.764.764,0,0,1,0-.41.467.467,0,0,1,.023-.066.852.852,0,0,1,.053-.125c.013-.025.028-.051.043-.076s.046-.064.071-.1a.87.87,0,0,1,.068-.08c.014-.015.033-.028.048-.043a1.479,1.479,0,0,1,.255-.186.3.3,0,0,0,.03-.018,1.812,1.812,0,0,1,.172-.081l.036-.014a1.792,1.792,0,0,1,.2-.063h0V29.8H91.437l-.947.947v1.015l.947.945h3.177Zm-3.639-1a.969.969,0,1,1,.969.969A.969.969,0,0,1,90.975,31.251Z"/>
        <path id="PIN__b8-2" data-name="PIN__b8" class="cls-2" d="M94.614,35.9h0a2.038,2.038,0,0,1-.2-.063l-.036-.014a1.812,1.812,0,0,1-.172-.081l-.03-.018a1.479,1.479,0,0,1-.255-.186c-.015-.015-.034-.028-.048-.043a1.027,1.027,0,0,1-.068-.08,1.1,1.1,0,0,1-.071-.094c-.015-.026-.03-.051-.043-.077a.841.841,0,0,1-.053-.124.59.59,0,0,1-.023-.067.764.764,0,0,1,0-.41.575.575,0,0,1,.023-.066.758.758,0,0,1,.053-.124c.013-.027.028-.052.043-.077s.046-.065.071-.1.042-.053.068-.079.033-.029.048-.044a1.534,1.534,0,0,1,.255-.186c.011,0,.02-.012.03-.017a1.42,1.42,0,0,1,.172-.08l.036-.015a1.792,1.792,0,0,1,.2-.063h0v-.457H91.437l-.947.947V35.3l.947.947h3.177Zm-3.639-1.109a.969.969,0,1,1,.969.969A.969.969,0,0,1,90.975,34.788Z"/>
      </g>
      <g>
        <path id="PIN__a5-2" data-name="PIN__a5" class="cls-2" d="M93.9,4.774V0h-.518V0A2.508,2.508,0,0,1,93.287.3c-.007.019-.014.037-.022.055a2.431,2.431,0,0,1-.121.257.264.264,0,0,1-.027.046,2.117,2.117,0,0,1-.279.383c-.021.024-.042.051-.064.074-.039.037-.08.067-.12.1a1.772,1.772,0,0,1-.143.107c-.038.024-.077.045-.116.066a1.389,1.389,0,0,1-.186.08c-.034.011-.065.024-.1.033a1.125,1.125,0,0,1-.616,0c-.034-.009-.067-.022-.1-.033a1.4,1.4,0,0,1-.187-.08c-.039-.021-.076-.042-.114-.066a1.625,1.625,0,0,1-.144-.107c-.04-.033-.081-.063-.119-.1-.023-.023-.042-.05-.065-.074a2.171,2.171,0,0,1-.28-.383c-.007-.015-.018-.029-.027-.046A2.431,2.431,0,0,1,90.336.35L90.315.3a2.954,2.954,0,0,1-.1-.293V0h-.685V4.774L90.954,6.2h1.525Zm-3.64-.763a1.457,1.457,0,1,1,1.456,1.457A1.456,1.456,0,0,1,90.261,4.011Z"/>
        <path id="PIN__a6-2" data-name="PIN__a6" class="cls-2" d="M86.685,4.774V0h-.519V0a2.714,2.714,0,0,1-.1.293c-.007.019-.013.037-.021.055a2.431,2.431,0,0,1-.121.257c-.008.017-.019.031-.027.046a2.166,2.166,0,0,1-.279.383c-.023.024-.043.051-.065.074-.039.037-.08.067-.12.1a1.772,1.772,0,0,1-.143.107c-.038.024-.076.045-.115.066a1.4,1.4,0,0,1-.187.08c-.033.011-.065.024-.1.033a1.212,1.212,0,0,1-.308.043,1.224,1.224,0,0,1-.308-.043c-.034-.009-.066-.022-.1-.033a1.348,1.348,0,0,1-.187-.08c-.04-.021-.077-.042-.115-.066a1.772,1.772,0,0,1-.143-.107c-.041-.033-.082-.063-.121-.1-.021-.023-.042-.05-.064-.074a2.117,2.117,0,0,1-.279-.383.347.347,0,0,1-.027-.046A2.431,2.431,0,0,1,83.12.35C83.112.332,83.106.314,83.1.3A2.712,2.712,0,0,1,83,0V0h-.687V4.774L83.738,6.2h1.525Zm-3.641-.763A1.457,1.457,0,1,1,84.5,5.468,1.456,1.456,0,0,1,83.044,4.011Z"/>
        <path id="PIN__a7-2" data-name="PIN__a7" class="cls-2" d="M79.534,4.774V0h-.518V0a2.954,2.954,0,0,1-.1.293c-.008.019-.014.037-.021.055a2.431,2.431,0,0,1-.121.257c-.009.017-.02.031-.027.046a2.171,2.171,0,0,1-.28.383c-.023.024-.042.051-.065.074-.038.037-.079.067-.119.1a1.625,1.625,0,0,1-.144.107c-.038.024-.075.045-.114.066a1.4,1.4,0,0,1-.187.08c-.033.011-.066.024-.1.033a1.125,1.125,0,0,1-.616,0c-.035-.009-.066-.022-.1-.033a1.389,1.389,0,0,1-.186-.08c-.039-.021-.079-.042-.116-.066a1.772,1.772,0,0,1-.143-.107c-.04-.033-.081-.063-.12-.1-.022-.023-.043-.05-.064-.074a2.117,2.117,0,0,1-.279-.383.264.264,0,0,1-.027-.046A2.431,2.431,0,0,1,75.97.35C75.962.332,75.955.314,75.948.3A2.508,2.508,0,0,1,75.853,0V0h-.686V4.774L76.588,6.2h1.525Zm-3.64-.763A1.456,1.456,0,1,1,77.35,5.468,1.455,1.455,0,0,1,75.894,4.011Z"/>
        <path id="PIN__b1-2" data-name="PIN__b1" class="cls-2" d="M72.227,4.774V0H71.71V0A2.712,2.712,0,0,1,71.614.3c-.007.019-.015.037-.021.055-.038.09-.077.176-.121.257-.009.017-.019.031-.028.046a2.122,2.122,0,0,1-.28.383c-.021.024-.041.051-.064.074s-.079.067-.119.1a1.491,1.491,0,0,1-.144.107c-.037.024-.075.045-.114.066a1.46,1.46,0,0,1-.187.08c-.034.011-.066.024-.1.033a1.125,1.125,0,0,1-.616,0c-.034-.009-.066-.022-.1-.033a1.51,1.51,0,0,1-.186-.08c-.039-.021-.077-.042-.114-.066a1.491,1.491,0,0,1-.144-.107c-.04-.033-.081-.063-.119-.1s-.043-.05-.064-.074a2.122,2.122,0,0,1-.28-.383C68.8.638,68.793.624,68.784.607A2.647,2.647,0,0,1,68.663.35C68.657.332,68.649.314,68.642.3a2.954,2.954,0,0,1-.1-.293V0h-.684V4.774L69.282,6.2h1.525Zm-3.639-.763a1.456,1.456,0,1,1,1.456,1.457A1.456,1.456,0,0,1,68.588,4.011Z"/>
        <path id="PIN__b10-2" data-name="PIN__b10" class="cls-2" d="M65.037,4.774V0h-.518V0A2.508,2.508,0,0,1,64.423.3c-.007.019-.014.037-.022.055a2.431,2.431,0,0,1-.121.257.264.264,0,0,1-.027.046,2.117,2.117,0,0,1-.279.383c-.021.024-.042.051-.064.074-.039.037-.08.067-.12.1a1.772,1.772,0,0,1-.143.107c-.037.024-.076.045-.115.066a1.46,1.46,0,0,1-.187.08c-.034.011-.065.024-.1.033a1.218,1.218,0,0,1-.308.043,1.224,1.224,0,0,1-.308-.043c-.034-.009-.067-.022-.1-.033a1.4,1.4,0,0,1-.187-.08c-.039-.021-.076-.042-.114-.066a1.478,1.478,0,0,1-.143-.107c-.041-.033-.082-.063-.12-.1s-.042-.05-.065-.074a2.171,2.171,0,0,1-.28-.383C61.613.638,61.6.624,61.593.607A2.431,2.431,0,0,1,61.472.35C61.465.332,61.459.314,61.451.3,61.415.2,61.383.1,61.355,0V0H60.67V4.774L62.09,6.2h1.525ZM61.4,4.011a1.457,1.457,0,1,1,1.456,1.457A1.457,1.457,0,0,1,61.4,4.011Z"/>
        <path id="PIN__b13-2" data-name="PIN__b13" class="cls-2" d="M57.912,4.774V0h-.518V0A2.954,2.954,0,0,1,57.3.3c-.008.019-.014.037-.021.055a2.431,2.431,0,0,1-.121.257.511.511,0,0,1-.028.046,2.162,2.162,0,0,1-.278.383c-.023.024-.043.051-.065.074-.039.037-.08.067-.121.1a1.759,1.759,0,0,1-.142.107c-.038.024-.076.045-.115.066a1.46,1.46,0,0,1-.187.08c-.034.011-.066.024-.1.033a1.125,1.125,0,0,1-.616,0c-.034-.009-.066-.022-.1-.033a1.46,1.46,0,0,1-.187-.08c-.039-.021-.077-.042-.115-.066a1.759,1.759,0,0,1-.142-.107c-.041-.033-.082-.063-.121-.1-.022-.023-.042-.05-.064-.074A2.117,2.117,0,0,1,54.5.653a.511.511,0,0,1-.028-.046C54.424.526,54.385.44,54.347.35,54.34.332,54.334.314,54.326.3A2.954,2.954,0,0,1,54.23,0V0h-.686V4.774L54.966,6.2h1.525Zm-3.641-.763a1.457,1.457,0,1,1,1.457,1.457A1.457,1.457,0,0,1,54.271,4.011Z"/>
        <path id="PIN__b14-2" data-name="PIN__b14" class="cls-2" d="M50.725,4.774V0h-.518V0a2.954,2.954,0,0,1-.1.293L50.09.35a2.431,2.431,0,0,1-.121.257c-.009.017-.019.031-.027.046a2.171,2.171,0,0,1-.28.383c-.023.024-.042.051-.064.074-.039.037-.079.067-.12.1a1.625,1.625,0,0,1-.144.107c-.038.024-.075.045-.114.066a1.4,1.4,0,0,1-.187.08c-.033.011-.066.024-.1.033a1.232,1.232,0,0,1-.309.043,1.218,1.218,0,0,1-.308-.043c-.035-.009-.066-.022-.1-.033a1.389,1.389,0,0,1-.186-.08c-.039-.021-.078-.042-.115-.066a1.625,1.625,0,0,1-.144-.107c-.04-.033-.081-.063-.12-.1-.022-.023-.043-.05-.064-.074a2.166,2.166,0,0,1-.279-.383.347.347,0,0,1-.027-.046A2.431,2.431,0,0,1,47.161.35C47.153.332,47.146.314,47.139.3a2.508,2.508,0,0,1-.1-.293V0h-.686V4.774L47.779,6.2H49.3Zm-3.64-.763a1.456,1.456,0,1,1,1.457,1.457A1.456,1.456,0,0,1,47.085,4.011Z"/>
        <path id="PIN__b15-2" data-name="PIN__b15" class="cls-2" d="M43.559,4.774V0h-.517V0A2.712,2.712,0,0,1,42.946.3c-.007.019-.015.037-.022.055A2.431,2.431,0,0,1,42.8.607a.506.506,0,0,1-.027.046,2.171,2.171,0,0,1-.28.383c-.021.024-.041.051-.064.074-.038.037-.079.067-.119.1a1.5,1.5,0,0,1-.145.107c-.037.024-.075.045-.114.066a1.389,1.389,0,0,1-.186.08c-.034.011-.066.024-.1.033a1.224,1.224,0,0,1-.308.043,1.212,1.212,0,0,1-.308-.043c-.035-.009-.067-.022-.1-.033a1.447,1.447,0,0,1-.186-.08c-.039-.021-.077-.042-.114-.066a1.5,1.5,0,0,1-.145-.107c-.04-.033-.081-.063-.119-.1s-.042-.05-.064-.074a2.171,2.171,0,0,1-.28-.383c-.009-.015-.018-.029-.027-.046A2.431,2.431,0,0,1,39.995.35C39.988.332,39.98.314,39.974.3a2.511,2.511,0,0,1-.1-.293V0h-.684V4.774L40.613,6.2h1.525ZM39.92,4.011a1.456,1.456,0,1,1,1.456,1.457A1.455,1.455,0,0,1,39.92,4.011Z"/>
        <path id="PIN__batIn-2" data-name="PIN__batIn" class="cls-2" d="M36.28,4.774V0h-.518V0a2.508,2.508,0,0,1-.1.293c-.007.019-.014.037-.022.055a2.431,2.431,0,0,1-.121.257A.347.347,0,0,1,35.5.653a2.166,2.166,0,0,1-.279.383c-.021.024-.042.051-.064.074-.039.037-.08.067-.12.1a1.625,1.625,0,0,1-.144.107c-.037.024-.076.045-.115.066a1.447,1.447,0,0,1-.186.08c-.034.011-.065.024-.1.033a1.218,1.218,0,0,1-.308.043,1.232,1.232,0,0,1-.309-.043c-.033-.009-.066-.022-.1-.033a1.4,1.4,0,0,1-.187-.08c-.039-.021-.076-.042-.114-.066a1.625,1.625,0,0,1-.144-.107c-.041-.033-.082-.063-.12-.1-.022-.023-.042-.05-.064-.074a2.171,2.171,0,0,1-.28-.383c-.008-.015-.018-.029-.027-.046A2.431,2.431,0,0,1,32.715.35L32.694.3A2.714,2.714,0,0,1,32.6,0V0h-.686V4.774L33.333,6.2h1.525Zm-3.64-.763A1.456,1.456,0,1,1,34.1,5.468,1.456,1.456,0,0,1,32.64,4.011Z"/>
      </g>
      <path id="PIN__gnd-4" data-name="PIN__gnd" class="cls-2" d="M85.776,8.754H83.155v2.621h2.621Zm-2.185,1.31a.874.874,0,1,1,.874.874A.874.874,0,0,1,83.591,10.064Z"/>
      <path id="PIN__3.3-4" data-name="PIN__3.3" class="cls-2" d="M82.177,10.083a1.311,1.311,0,1,0-1.31,1.31A1.31,1.31,0,0,0,82.177,10.083Zm-2.184,0a.874.874,0,1,1,.874.873A.874.874,0,0,1,79.993,10.083Z"/>
      <path id="PIN__vbat-4" data-name="PIN__vbat" class="cls-2" d="M78.579,10.083a1.311,1.311,0,1,0-1.311,1.31A1.31,1.31,0,0,0,78.579,10.083Zm-2.184,0a.874.874,0,1,1,.873.873A.873.873,0,0,1,76.4,10.083Z"/>
      <g>
        <g>
          <rect id="rect21332-8-1-9-3-8-2-40-6-2-0-6-6-0-5-6-4-8-7-2-0-7-2-3-10-16-5-3" class="cls-13" x="82.582" y="19.352" width="2.104" height="1.932"/>
          <rect id="rect21332-8-1-9-3-8-2-40-6-2-0-6-6-0-5-6-4-8-7-2-0-7-2-3-9-16-5-3" class="cls-13" x="85.397" y="19.351" width="2.059" height="1.933"/>
          <path class="cls-14" d="M86.878,21.284H83.207a.3.3,0,0,1-.313-.236V19.6a.282.282,0,0,1,.312-.245h3.672a.283.283,0,0,1,.313.243V21.03a.29.29,0,0,1-.3.253h-.009Z"/>
        </g>
        <g>
          <rect id="rect21332-8-1-9-3-8-2-40-6-2-0-6-6-0-5-6-4-8-7-2-0-7-2-3-10-16-5-4" class="cls-13" x="82.582" y="23.051" width="2.104" height="1.932"/>
          <rect id="rect21332-8-1-9-3-8-2-40-6-2-0-6-6-0-5-6-4-8-7-2-0-7-2-3-9-16-5-4" class="cls-13" x="85.398" y="23.051" width="2.059" height="1.932"/>
          <path class="cls-14" d="M86.878,24.983H83.207a.3.3,0,0,1-.313-.237V23.3a.282.282,0,0,1,.312-.244h3.672a.283.283,0,0,1,.313.243v1.435a.29.29,0,0,1-.3.253h-.009Z"/>
        </g>
        <g>
          <rect id="rect21332-8-1-9-3-8-2-40-6-2-0-6-6-0-5-6-4-8-7-2-0-7-2-3-10-16-5-5" class="cls-13" x="82.605" y="26.758" width="2.104" height="1.924"/>
          <rect id="rect21332-8-1-9-3-8-2-40-6-2-0-6-6-0-5-6-4-8-7-2-0-7-2-3-9-16-5-5" class="cls-13" x="85.421" y="26.749" width="2.059" height="1.924"/>
          <path class="cls-14" d="M86.9,28.673H83.23a.3.3,0,0,1-.313-.235V26.993a.282.282,0,0,1,.312-.243H86.9a.282.282,0,0,1,.313.242V28.42a.289.289,0,0,1-.3.252H86.9Z"/>
        </g>
        <g id="path26345-3-6-9-3-6-4-2-5-6-8-7-9-0-90-3-1-3-9-2-2-8-5-0-2-3-5-16-5-2-2">
          <rect class="cls-15" x="83.217" y="19.351" width="3.68" height="9.331"/>
        </g>
        <path id="path26341-4-2-6-0-8-1-1-1-5-0-3-3-1-8-3-8-7-7-7-2-4-9-7-2-3-5-16-5-2-2" class="cls-16" d="M86.748,19.35H83.436v9.332h3.312Z"/>
        <rect class="cls-17" x="83.859" y="19.554" width="2.467" height="8.897" rx="0.421" transform="translate(170.184 48.005) rotate(-180)"/>
      </g>
      <g id="T-SOT23">
        <path id="path3479-7-2-2" class="cls-16" d="M33.867,23.082h1.57v2.57h-1.57Z"/>
        <path id="path3481-0-2-2" class="cls-18" d="M33.867,23.322h1.57v.85h-1.57Z"/>
        <path id="path3483-6-2" class="cls-16" d="M39.356,23.082h1.6v2.57h-1.6Z"/>
        <path id="path3485-6-2" class="cls-18" d="M39.356,23.322h1.6v.85h-1.6Z"/>
        <path id="path3487-1-2-2" class="cls-16" d="M36.576,19.623H38.2v-2.56h-1.62Z"/>
        <path id="path3489-6-2-2" class="cls-18" d="M36.576,19.323H38.2v-.79h-1.62Z"/>
        <path id="path3477-9-2" class="cls-19" d="M33.177,19.613H41.6v3.48h-8.42Z"/>
      </g>
      <g id="T-SOT23-2" data-name="T-SOT23">
        <path id="path3479-7-2-2-2" data-name="path3479-7-2-2" class="cls-16" d="M37.15,15.891V14.322h2.57v1.569Z"/>
        <path id="path3481-0-2-2-2" data-name="path3481-0-2-2" class="cls-18" d="M38.63,15.891V14.322h.85v1.569Z"/>
        <path id="path3483-6-2-2" data-name="path3483-6-2" class="cls-16" d="M37.15,10.4V8.8h2.57v1.6Z"/>
        <path id="path3485-6-2-2" data-name="path3485-6-2" class="cls-18" d="M38.63,10.4V8.8h.85v1.6Z"/>
        <path id="path3487-1-2-2-2" data-name="path3487-1-2-2" class="cls-16" d="M45.739,13.182v-1.62h-2.56v1.62Z"/>
        <path id="path3489-6-2-2-2" data-name="path3489-6-2-2" class="cls-18" d="M44.269,13.182v-1.62h-.79v1.62Z"/>
        <path id="path3477-9-2-2" data-name="path3477-9-2" class="cls-19" d="M39.709,16.581V8.161h3.48v8.42Z"/>
      </g>
      <g id="QFN-48">
        <rect class="cls-19" x="56.967" y="12.468" width="19.843" height="19.843"/>
        <g>
          <g>
            <g id="path3870-5-4-1-3-9-13-48-64-51-216-25-34">
              <rect class="cls-20" x="74.245" y="11.617" width="0.85" height="0.85"/>
            </g>
            <g id="rect36057-3-4-8-4-7-5-0-7-5-24-7-7-2-5-48-13-48-64-51-216-25-34">
              <rect class="cls-18" x="74.244" y="11.972" width="0.85" height="0.094"/>
            </g>
          </g>
          <g>
            <g id="path3870-5-4-1-3-9-13-48-64-51-216-25-35">
              <rect class="cls-20" x="72.83" y="11.617" width="0.85" height="0.85"/>
            </g>
            <g id="rect36057-3-4-8-4-7-5-0-7-5-24-7-7-2-5-48-13-48-64-51-216-25-35">
              <rect class="cls-18" x="72.829" y="11.972" width="0.85" height="0.094"/>
            </g>
          </g>
          <g>
            <g id="path3870-5-4-1-3-9-13-48-64-51-216-25-36">
              <rect class="cls-20" x="71.415" y="11.617" width="0.85" height="0.85"/>
            </g>
            <g id="rect36057-3-4-8-4-7-5-0-7-5-24-7-7-2-5-48-13-48-64-51-216-25-36">
              <rect class="cls-18" x="71.415" y="11.972" width="0.85" height="0.094"/>
            </g>
          </g>
          <g>
            <g id="path3870-5-4-1-3-9-13-48-64-51-216-25-37">
              <rect class="cls-20" x="70" y="11.617" width="0.85" height="0.85"/>
            </g>
            <g id="rect36057-3-4-8-4-7-5-0-7-5-24-7-7-2-5-48-13-48-64-51-216-25-37">
              <rect class="cls-18" x="70" y="11.972" width="0.85" height="0.094"/>
            </g>
          </g>
          <g>
            <g id="path3870-5-4-1-3-9-13-48-64-51-216-25-38">
              <rect class="cls-20" x="68.586" y="11.617" width="0.85" height="0.85"/>
            </g>
            <g id="rect36057-3-4-8-4-7-5-0-7-5-24-7-7-2-5-48-13-48-64-51-216-25-38">
              <rect class="cls-18" x="68.585" y="11.972" width="0.85" height="0.094"/>
            </g>
          </g>
          <g>
            <g id="path3870-5-4-1-3-9-13-48-64-51-216-25-39">
              <rect class="cls-20" x="67.171" y="11.617" width="0.85" height="0.85"/>
            </g>
            <g id="rect36057-3-4-8-4-7-5-0-7-5-24-7-7-2-5-48-13-48-64-51-216-25-39">
              <rect class="cls-18" x="67.17" y="11.972" width="0.85" height="0.094"/>
            </g>
          </g>
          <g>
            <g id="path3870-5-4-1-3-9-13-48-64-51-216-25-40">
              <rect class="cls-20" x="65.756" y="11.617" width="0.85" height="0.85"/>
            </g>
            <g id="rect36057-3-4-8-4-7-5-0-7-5-24-7-7-2-5-48-13-48-64-51-216-25-40">
              <rect class="cls-18" x="65.756" y="11.972" width="0.85" height="0.094"/>
            </g>
          </g>
          <g>
            <g id="path3870-5-4-1-3-9-13-48-64-51-216-25-41">
              <rect class="cls-20" x="64.341" y="11.617" width="0.85" height="0.85"/>
            </g>
            <g id="rect36057-3-4-8-4-7-5-0-7-5-24-7-7-2-5-48-13-48-64-51-216-25-41">
              <rect class="cls-18" x="64.341" y="11.972" width="0.85" height="0.094"/>
            </g>
          </g>
          <g>
            <g id="path3870-5-4-1-3-9-13-48-64-51-216-25-42">
              <rect class="cls-20" x="62.927" y="11.617" width="0.85" height="0.85"/>
            </g>
            <g id="rect36057-3-4-8-4-7-5-0-7-5-24-7-7-2-5-48-13-48-64-51-216-25-42">
              <rect class="cls-18" x="62.926" y="11.972" width="0.85" height="0.094"/>
            </g>
          </g>
          <g>
            <g id="path3870-5-4-1-3-9-13-48-64-51-216-25-43">
              <rect class="cls-20" x="61.512" y="11.617" width="0.85" height="0.85"/>
            </g>
            <g id="rect36057-3-4-8-4-7-5-0-7-5-24-7-7-2-5-48-13-48-64-51-216-25-43">
              <rect class="cls-18" x="61.511" y="11.972" width="0.85" height="0.094"/>
            </g>
          </g>
          <g>
            <g id="path3870-5-4-1-3-9-13-48-64-51-216-25-44">
              <rect class="cls-20" x="60.097" y="11.617" width="0.85" height="0.85"/>
            </g>
            <g id="rect36057-3-4-8-4-7-5-0-7-5-24-7-7-2-5-48-13-48-64-51-216-25-44">
              <rect class="cls-18" x="60.097" y="11.972" width="0.85" height="0.094"/>
            </g>
          </g>
          <g>
            <g id="path3870-5-4-1-3-9-13-48-64-51-216-25-45">
              <rect class="cls-20" x="58.682" y="11.617" width="0.85" height="0.85"/>
            </g>
            <g id="rect36057-3-4-8-4-7-5-0-7-5-24-7-7-2-5-48-13-48-64-51-216-25-45">
              <rect class="cls-18" x="58.682" y="11.972" width="0.85" height="0.094"/>
            </g>
          </g>
        </g>
        <g>
          <g>
            <g id="path3870-5-4-1-3-9-13-48-64-51-216-25-46">
              <rect class="cls-20" x="74.245" y="32.31" width="0.85" height="0.85"/>
            </g>
            <g id="rect36057-3-4-8-4-7-5-0-7-5-24-7-7-2-5-48-13-48-64-51-216-25-46">
              <rect class="cls-18" x="74.244" y="32.665" width="0.85" height="0.094"/>
            </g>
          </g>
          <g>
            <g id="path3870-5-4-1-3-9-13-48-64-51-216-25-47">
              <rect class="cls-20" x="72.83" y="32.31" width="0.85" height="0.85"/>
            </g>
            <g id="rect36057-3-4-8-4-7-5-0-7-5-24-7-7-2-5-48-13-48-64-51-216-25-47">
              <rect class="cls-18" x="72.829" y="32.665" width="0.85" height="0.094"/>
            </g>
          </g>
          <g>
            <g id="path3870-5-4-1-3-9-13-48-64-51-216-25-48">
              <rect class="cls-20" x="71.415" y="32.31" width="0.85" height="0.85"/>
            </g>
            <g id="rect36057-3-4-8-4-7-5-0-7-5-24-7-7-2-5-48-13-48-64-51-216-25-48">
              <rect class="cls-18" x="71.415" y="32.665" width="0.85" height="0.094"/>
            </g>
          </g>
          <g>
            <g id="path3870-5-4-1-3-9-13-48-64-51-216-25-49">
              <rect class="cls-20" x="70" y="32.31" width="0.85" height="0.85"/>
            </g>
            <g id="rect36057-3-4-8-4-7-5-0-7-5-24-7-7-2-5-48-13-48-64-51-216-25-49">
              <rect class="cls-18" x="70" y="32.665" width="0.85" height="0.094"/>
            </g>
          </g>
          <g>
            <g id="path3870-5-4-1-3-9-13-48-64-51-216-25-50">
              <rect class="cls-20" x="68.586" y="32.31" width="0.85" height="0.85"/>
            </g>
            <g id="rect36057-3-4-8-4-7-5-0-7-5-24-7-7-2-5-48-13-48-64-51-216-25-50">
              <rect class="cls-18" x="68.585" y="32.665" width="0.85" height="0.094"/>
            </g>
          </g>
          <g>
            <g id="path3870-5-4-1-3-9-13-48-64-51-216-25-51">
              <rect class="cls-20" x="67.171" y="32.31" width="0.85" height="0.85"/>
            </g>
            <g id="rect36057-3-4-8-4-7-5-0-7-5-24-7-7-2-5-48-13-48-64-51-216-25-51">
              <rect class="cls-18" x="67.17" y="32.665" width="0.85" height="0.094"/>
            </g>
          </g>
          <g>
            <g id="path3870-5-4-1-3-9-13-48-64-51-216-25-52">
              <rect class="cls-20" x="65.756" y="32.31" width="0.85" height="0.85"/>
            </g>
            <g id="rect36057-3-4-8-4-7-5-0-7-5-24-7-7-2-5-48-13-48-64-51-216-25-52">
              <rect class="cls-18" x="65.756" y="32.665" width="0.85" height="0.094"/>
            </g>
          </g>
          <g>
            <g id="path3870-5-4-1-3-9-13-48-64-51-216-25-53">
              <rect class="cls-20" x="64.341" y="32.31" width="0.85" height="0.85"/>
            </g>
            <g id="rect36057-3-4-8-4-7-5-0-7-5-24-7-7-2-5-48-13-48-64-51-216-25-53">
              <rect class="cls-18" x="64.341" y="32.665" width="0.85" height="0.094"/>
            </g>
          </g>
          <g>
            <g id="path3870-5-4-1-3-9-13-48-64-51-216-25-54">
              <rect class="cls-20" x="62.927" y="32.31" width="0.85" height="0.85"/>
            </g>
            <g id="rect36057-3-4-8-4-7-5-0-7-5-24-7-7-2-5-48-13-48-64-51-216-25-54">
              <rect class="cls-18" x="62.926" y="32.665" width="0.85" height="0.094"/>
            </g>
          </g>
          <g>
            <g id="path3870-5-4-1-3-9-13-48-64-51-216-25-55">
              <rect class="cls-20" x="61.512" y="32.31" width="0.85" height="0.85"/>
            </g>
            <g id="rect36057-3-4-8-4-7-5-0-7-5-24-7-7-2-5-48-13-48-64-51-216-25-55">
              <rect class="cls-18" x="61.511" y="32.665" width="0.85" height="0.094"/>
            </g>
          </g>
          <g>
            <g id="path3870-5-4-1-3-9-13-48-64-51-216-25-56">
              <rect class="cls-20" x="60.097" y="32.31" width="0.85" height="0.85"/>
            </g>
            <g id="rect36057-3-4-8-4-7-5-0-7-5-24-7-7-2-5-48-13-48-64-51-216-25-56">
              <rect class="cls-18" x="60.097" y="32.665" width="0.85" height="0.094"/>
            </g>
          </g>
          <g>
            <g id="path3870-5-4-1-3-9-13-48-64-51-216-25-57">
              <rect class="cls-20" x="58.682" y="32.31" width="0.85" height="0.85"/>
            </g>
            <g id="rect36057-3-4-8-4-7-5-0-7-5-24-7-7-2-5-48-13-48-64-51-216-25-57">
              <rect class="cls-18" x="58.682" y="32.665" width="0.85" height="0.094"/>
            </g>
          </g>
        </g>
        <g>
          <g>
            <g id="path3870-5-4-1-3-9-13-48-64-51-216-25-58">
              <rect class="cls-20" x="56.117" y="29.745" width="0.85" height="0.85"/>
            </g>
            <g id="rect36057-3-4-8-4-7-5-0-7-5-24-7-7-2-5-48-13-48-64-51-216-25-58">
              <rect class="cls-18" x="56.519" y="29.745" width="0.094" height="0.85"/>
            </g>
          </g>
          <g>
            <g id="path3870-5-4-1-3-9-13-48-64-51-216-25-59">
              <rect class="cls-20" x="56.117" y="28.33" width="0.85" height="0.85"/>
            </g>
            <g id="rect36057-3-4-8-4-7-5-0-7-5-24-7-7-2-5-48-13-48-64-51-216-25-59">
              <rect class="cls-18" x="56.519" y="28.33" width="0.094" height="0.85"/>
            </g>
          </g>
          <g>
            <g id="path3870-5-4-1-3-9-13-48-64-51-216-25-60">
              <rect class="cls-20" x="56.117" y="26.916" width="0.85" height="0.85"/>
            </g>
            <g id="rect36057-3-4-8-4-7-5-0-7-5-24-7-7-2-5-48-13-48-64-51-216-25-60">
              <rect class="cls-18" x="56.519" y="26.915" width="0.094" height="0.85"/>
            </g>
          </g>
          <g>
            <g id="path3870-5-4-1-3-9-13-48-64-51-216-25-61">
              <rect class="cls-20" x="56.117" y="25.501" width="0.85" height="0.85"/>
            </g>
            <g id="rect36057-3-4-8-4-7-5-0-7-5-24-7-7-2-5-48-13-48-64-51-216-25-61">
              <rect class="cls-18" x="56.519" y="25.501" width="0.094" height="0.85"/>
            </g>
          </g>
          <g>
            <g id="path3870-5-4-1-3-9-13-48-64-51-216-25-62">
              <rect class="cls-20" x="56.117" y="24.086" width="0.85" height="0.85"/>
            </g>
            <g id="rect36057-3-4-8-4-7-5-0-7-5-24-7-7-2-5-48-13-48-64-51-216-25-62">
              <rect class="cls-18" x="56.519" y="24.086" width="0.094" height="0.85"/>
            </g>
          </g>
          <g>
            <g id="path3870-5-4-1-3-9-13-48-64-51-216-25-63">
              <rect class="cls-20" x="56.117" y="22.671" width="0.85" height="0.85"/>
            </g>
            <g id="rect36057-3-4-8-4-7-5-0-7-5-24-7-7-2-5-48-13-48-64-51-216-25-63">
              <rect class="cls-18" x="56.519" y="22.671" width="0.094" height="0.85"/>
            </g>
          </g>
          <g>
            <g id="path3870-5-4-1-3-9-13-48-64-51-216-25-64">
              <rect class="cls-20" x="56.117" y="21.257" width="0.85" height="0.85"/>
            </g>
            <g id="rect36057-3-4-8-4-7-5-0-7-5-24-7-7-2-5-48-13-48-64-51-216-25-64">
              <rect class="cls-18" x="56.519" y="21.256" width="0.094" height="0.85"/>
            </g>
          </g>
          <g>
            <g id="path3870-5-4-1-3-9-13-48-64-51-216-25-65">
              <rect class="cls-20" x="56.117" y="19.842" width="0.85" height="0.85"/>
            </g>
            <g id="rect36057-3-4-8-4-7-5-0-7-5-24-7-7-2-5-48-13-48-64-51-216-25-65">
              <rect class="cls-18" x="56.519" y="19.842" width="0.094" height="0.85"/>
            </g>
          </g>
          <g>
            <g id="path3870-5-4-1-3-9-13-48-64-51-216-25-66">
              <rect class="cls-20" x="56.117" y="18.427" width="0.85" height="0.85"/>
            </g>
            <g id="rect36057-3-4-8-4-7-5-0-7-5-24-7-7-2-5-48-13-48-64-51-216-25-66">
              <rect class="cls-18" x="56.519" y="18.427" width="0.094" height="0.85"/>
            </g>
          </g>
          <g>
            <g id="path3870-5-4-1-3-9-13-48-64-51-216-25-67">
              <rect class="cls-20" x="56.117" y="17.013" width="0.85" height="0.85"/>
            </g>
            <g id="rect36057-3-4-8-4-7-5-0-7-5-24-7-7-2-5-48-13-48-64-51-216-25-67">
              <rect class="cls-18" x="56.519" y="17.012" width="0.094" height="0.85"/>
            </g>
          </g>
          <g>
            <g id="path3870-5-4-1-3-9-13-48-64-51-216-25-68">
              <rect class="cls-20" x="56.117" y="15.598" width="0.85" height="0.85"/>
            </g>
            <g id="rect36057-3-4-8-4-7-5-0-7-5-24-7-7-2-5-48-13-48-64-51-216-25-68">
              <rect class="cls-18" x="56.519" y="15.597" width="0.094" height="0.85"/>
            </g>
          </g>
          <g>
            <g id="path3870-5-4-1-3-9-13-48-64-51-216-25-69">
              <rect class="cls-20" x="56.117" y="14.183" width="0.85" height="0.85"/>
            </g>
            <g id="rect36057-3-4-8-4-7-5-0-7-5-24-7-7-2-5-48-13-48-64-51-216-25-69">
              <rect class="cls-18" x="56.519" y="14.183" width="0.094" height="0.85"/>
            </g>
          </g>
        </g>
        <g>
          <g>
            <g id="path3870-5-4-1-3-9-13-48-64-51-216-25-70">
              <rect class="cls-20" x="76.809" y="29.745" width="0.85" height="0.85"/>
            </g>
            <g id="rect36057-3-4-8-4-7-5-0-7-5-24-7-7-2-5-48-13-48-64-51-216-25-70">
              <rect class="cls-18" x="77.212" y="29.745" width="0.094" height="0.85"/>
            </g>
          </g>
          <g>
            <g id="path3870-5-4-1-3-9-13-48-64-51-216-25-71">
              <rect class="cls-20" x="76.809" y="28.33" width="0.85" height="0.85"/>
            </g>
            <g id="rect36057-3-4-8-4-7-5-0-7-5-24-7-7-2-5-48-13-48-64-51-216-25-71">
              <rect class="cls-18" x="77.212" y="28.33" width="0.094" height="0.85"/>
            </g>
          </g>
          <g>
            <g id="path3870-5-4-1-3-9-13-48-64-51-216-25-72">
              <rect class="cls-20" x="76.809" y="26.916" width="0.85" height="0.85"/>
            </g>
            <g id="rect36057-3-4-8-4-7-5-0-7-5-24-7-7-2-5-48-13-48-64-51-216-25-72">
              <rect class="cls-18" x="77.212" y="26.915" width="0.094" height="0.85"/>
            </g>
          </g>
          <g>
            <g id="path3870-5-4-1-3-9-13-48-64-51-216-25-73">
              <rect class="cls-20" x="76.809" y="25.501" width="0.85" height="0.85"/>
            </g>
            <g id="rect36057-3-4-8-4-7-5-0-7-5-24-7-7-2-5-48-13-48-64-51-216-25-73">
              <rect class="cls-18" x="77.212" y="25.501" width="0.094" height="0.85"/>
            </g>
          </g>
          <g>
            <g id="path3870-5-4-1-3-9-13-48-64-51-216-25-74">
              <rect class="cls-20" x="76.809" y="24.086" width="0.85" height="0.85"/>
            </g>
            <g id="rect36057-3-4-8-4-7-5-0-7-5-24-7-7-2-5-48-13-48-64-51-216-25-74">
              <rect class="cls-18" x="77.212" y="24.086" width="0.094" height="0.85"/>
            </g>
          </g>
          <g>
            <g id="path3870-5-4-1-3-9-13-48-64-51-216-25-75">
              <rect class="cls-20" x="76.809" y="22.671" width="0.85" height="0.85"/>
            </g>
            <g id="rect36057-3-4-8-4-7-5-0-7-5-24-7-7-2-5-48-13-48-64-51-216-25-75">
              <rect class="cls-18" x="77.212" y="22.671" width="0.094" height="0.85"/>
            </g>
          </g>
          <g>
            <g id="path3870-5-4-1-3-9-13-48-64-51-216-25-76">
              <rect class="cls-20" x="76.809" y="21.257" width="0.85" height="0.85"/>
            </g>
            <g id="rect36057-3-4-8-4-7-5-0-7-5-24-7-7-2-5-48-13-48-64-51-216-25-76">
              <rect class="cls-18" x="77.212" y="21.256" width="0.094" height="0.85"/>
            </g>
          </g>
          <g>
            <g id="path3870-5-4-1-3-9-13-48-64-51-216-25-77">
              <rect class="cls-20" x="76.809" y="19.842" width="0.85" height="0.85"/>
            </g>
            <g id="rect36057-3-4-8-4-7-5-0-7-5-24-7-7-2-5-48-13-48-64-51-216-25-77">
              <rect class="cls-18" x="77.212" y="19.842" width="0.094" height="0.85"/>
            </g>
          </g>
          <g>
            <g id="path3870-5-4-1-3-9-13-48-64-51-216-25-78">
              <rect class="cls-20" x="76.809" y="18.427" width="0.85" height="0.85"/>
            </g>
            <g id="rect36057-3-4-8-4-7-5-0-7-5-24-7-7-2-5-48-13-48-64-51-216-25-78">
              <rect class="cls-18" x="77.212" y="18.427" width="0.094" height="0.85"/>
            </g>
          </g>
          <g>
            <g id="path3870-5-4-1-3-9-13-48-64-51-216-25-79">
              <rect class="cls-20" x="76.809" y="17.013" width="0.85" height="0.85"/>
            </g>
            <g id="rect36057-3-4-8-4-7-5-0-7-5-24-7-7-2-5-48-13-48-64-51-216-25-79">
              <rect class="cls-18" x="77.212" y="17.012" width="0.094" height="0.85"/>
            </g>
          </g>
          <g>
            <g id="path3870-5-4-1-3-9-13-48-64-51-216-25-80">
              <rect class="cls-20" x="76.809" y="15.598" width="0.85" height="0.85"/>
            </g>
            <g id="rect36057-3-4-8-4-7-5-0-7-5-24-7-7-2-5-48-13-48-64-51-216-25-80">
              <rect class="cls-18" x="77.212" y="15.597" width="0.094" height="0.85"/>
            </g>
          </g>
          <g>
            <g id="path3870-5-4-1-3-9-13-48-64-51-216-25-81">
              <rect class="cls-20" x="76.809" y="14.183" width="0.85" height="0.85"/>
            </g>
            <g id="rect36057-3-4-8-4-7-5-0-7-5-24-7-7-2-5-48-13-48-64-51-216-25-81">
              <rect class="cls-18" x="77.212" y="14.183" width="0.094" height="0.85"/>
            </g>
          </g>
        </g>
      </g>
      <g id="С-0402">
        <rect id="rect21332-8-1-9-3-8-2-40-6-2-0-6-6-0-5-6-4-8-7-2-0-7-2-3-9-16-7" class="cls-13" x="58.844" y="8.897" width="1.417" height="1.41"/>
        <rect id="rect21332-8-1-9-3-8-2-40-6-2-0-6-6-0-5-6-4-8-7-2-0-7-2-3-10-16-7" class="cls-13" x="60.974" y="8.897" width="1.417" height="1.41"/>
        <path class="cls-14" d="M59.409,8.894h2.422a.206.206,0,0,1,.207.173v1.064a.2.2,0,0,1-.206.18H59.409a.194.194,0,0,1-.206-.179V9.079a.2.2,0,0,1,.2-.186h.006Z"/>
        <rect class="cls-15" x="59.416" y="8.892" width="2.41" height="1.42"/>
        <path id="path26341-4-2-6-0-8-1-1-1-5-0-3-3-1-8-3-8-7-7-7-2-4-9-7-2-3-5-16-7" class="cls-21" d="M59.62,10.312h2V8.892h-2Z"/>
      </g>
      <g id="С-0402-2" data-name="С-0402">
        <rect id="rect21332-8-1-9-3-8-2-40-6-2-0-6-6-0-5-6-4-8-7-2-0-7-2-3-9-16-7-2" data-name="rect21332-8-1-9-3-8-2-40-6-2-0-6-6-0-5-6-4-8-7-2-0-7-2-3-9-16-7" class="cls-13" x="40.847" y="17.477" width="1.417" height="1.41"/>
        <rect id="rect21332-8-1-9-3-8-2-40-6-2-0-6-6-0-5-6-4-8-7-2-0-7-2-3-10-16-7-2" data-name="rect21332-8-1-9-3-8-2-40-6-2-0-6-6-0-5-6-4-8-7-2-0-7-2-3-10-16-7" class="cls-13" x="42.977" y="17.477" width="1.417" height="1.41"/>
        <path class="cls-14" d="M41.412,17.474h2.422a.206.206,0,0,1,.207.173v1.064a.194.194,0,0,1-.206.18H41.412a.194.194,0,0,1-.206-.179V17.659a.2.2,0,0,1,.2-.185h.006Z"/>
        <rect class="cls-15" x="41.419" y="17.472" width="2.41" height="1.42"/>
        <path id="path26341-4-2-6-0-8-1-1-1-5-0-3-3-1-8-3-8-7-7-7-2-4-9-7-2-3-5-16-7-2" data-name="path26341-4-2-6-0-8-1-1-1-5-0-3-3-1-8-3-8-7-7-7-2-4-9-7-2-3-5-16-7" class="cls-21" d="M41.623,18.892h2v-1.42h-2Z"/>
      </g>
      <g id="С-0402-3" data-name="С-0402">
        <rect id="rect21332-8-1-9-3-8-2-40-6-2-0-6-6-0-5-6-4-8-7-2-0-7-2-3-9-16-7-3" data-name="rect21332-8-1-9-3-8-2-40-6-2-0-6-6-0-5-6-4-8-7-2-0-7-2-3-9-16-7" class="cls-13" x="38.844" y="34.897" width="1.417" height="1.41"/>
        <rect id="rect21332-8-1-9-3-8-2-40-6-2-0-6-6-0-5-6-4-8-7-2-0-7-2-3-10-16-7-3" data-name="rect21332-8-1-9-3-8-2-40-6-2-0-6-6-0-5-6-4-8-7-2-0-7-2-3-10-16-7" class="cls-13" x="40.974" y="34.897" width="1.417" height="1.41"/>
        <path class="cls-14" d="M39.409,34.894h2.422a.206.206,0,0,1,.207.173v1.064a.2.2,0,0,1-.206.18H39.409a.194.194,0,0,1-.206-.179V35.079a.2.2,0,0,1,.2-.185h.006Z"/>
        <rect class="cls-15" x="39.416" y="34.892" width="2.41" height="1.42"/>
        <path id="path26341-4-2-6-0-8-1-1-1-5-0-3-3-1-8-3-8-7-7-7-2-4-9-7-2-3-5-16-7-3" data-name="path26341-4-2-6-0-8-1-1-1-5-0-3-3-1-8-3-8-7-7-7-2-4-9-7-2-3-5-16-7" class="cls-21" d="M39.62,36.312h2v-1.42h-2Z"/>
      </g>
      <g id="R-0402">
        <rect id="rect21332-8-1-9-3-8-2-40-6-2-0-6-6-0-5-6-4-8-7-2-0-7-2-3-9-16-7-2-2" data-name="rect21332-8-1-9-3-8-2-40-6-2-0-6-6-0-5-6-4-8-7-2-0-7-2-3-9-16-7-2" class="cls-13" x="51.782" y="8.504" width="1.417" height="1.41"/>
        <rect id="rect21332-8-1-9-3-8-2-40-6-2-0-6-6-0-5-6-4-8-7-2-0-7-2-3-10-16-7-2-2" data-name="rect21332-8-1-9-3-8-2-40-6-2-0-6-6-0-5-6-4-8-7-2-0-7-2-3-10-16-7-2" class="cls-13" x="53.911" y="8.504" width="1.417" height="1.41"/>
        <path class="cls-14" d="M52.347,8.5h2.422a.2.2,0,0,1,.206.173V9.738a.194.194,0,0,1-.2.18H52.347a.193.193,0,0,1-.206-.179V8.686a.2.2,0,0,1,.2-.185h.006Z"/>
        <rect class="cls-15" x="52.353" y="8.499" width="2.41" height="1.42"/>
        <path id="path26341-4-2-6-0-8-1-1-1-5-0-3-3-1-8-3-8-7-7-7-2-4-9-7-2-3-5-16-7-2-2" data-name="path26341-4-2-6-0-8-1-1-1-5-0-3-3-1-8-3-8-7-7-7-2-4-9-7-2-3-5-16-7-2" class="cls-19" d="M52.558,9.919h2V8.5h-2Z"/>
      </g>
      <g id="R-0402-2" data-name="R-0402">
        <rect id="rect21332-8-1-9-3-8-2-40-6-2-0-6-6-0-5-6-4-8-7-2-0-7-2-3-9-16-7-2-3" data-name="rect21332-8-1-9-3-8-2-40-6-2-0-6-6-0-5-6-4-8-7-2-0-7-2-3-9-16-7-2" class="cls-13" x="33.85" y="11.565" width="1.41" height="1.417"/>
        <rect id="rect21332-8-1-9-3-8-2-40-6-2-0-6-6-0-5-6-4-8-7-2-0-7-2-3-10-16-7-2-3" data-name="rect21332-8-1-9-3-8-2-40-6-2-0-6-6-0-5-6-4-8-7-2-0-7-2-3-10-16-7-2" class="cls-13" x="33.85" y="9.436" width="1.41" height="1.417"/>
        <path class="cls-14" d="M33.847,12.418V9.995a.2.2,0,0,1,.173-.206h1.064a.194.194,0,0,1,.18.205h0v2.423a.194.194,0,0,1-.179.206H34.032a.2.2,0,0,1-.186-.2h0Z"/>
        <rect class="cls-15" x="33.845" y="10.001" width="1.42" height="2.41"/>
        <path id="path26341-4-2-6-0-8-1-1-1-5-0-3-3-1-8-3-8-7-7-7-2-4-9-7-2-3-5-16-7-2-3" data-name="path26341-4-2-6-0-8-1-1-1-5-0-3-3-1-8-3-8-7-7-7-2-4-9-7-2-3-5-16-7-2" class="cls-19" d="M35.265,12.206v-2h-1.42v2Z"/>
      </g>
      <g id="R-0402-3" data-name="R-0402">
        <rect id="rect21332-8-1-9-3-8-2-40-6-2-0-6-6-0-5-6-4-8-7-2-0-7-2-3-9-16-7-2-4" data-name="rect21332-8-1-9-3-8-2-40-6-2-0-6-6-0-5-6-4-8-7-2-0-7-2-3-9-16-7-2" class="cls-13" x="30.85" y="11.565" width="1.41" height="1.417"/>
        <rect id="rect21332-8-1-9-3-8-2-40-6-2-0-6-6-0-5-6-4-8-7-2-0-7-2-3-10-16-7-2-4" data-name="rect21332-8-1-9-3-8-2-40-6-2-0-6-6-0-5-6-4-8-7-2-0-7-2-3-10-16-7-2" class="cls-13" x="30.85" y="9.436" width="1.41" height="1.417"/>
        <path class="cls-14" d="M30.847,12.418V9.995a.2.2,0,0,1,.173-.206h1.064a.194.194,0,0,1,.18.205h0v2.423a.194.194,0,0,1-.179.206H31.032a.2.2,0,0,1-.186-.2h0Z"/>
        <rect class="cls-15" x="30.845" y="10.001" width="1.42" height="2.41"/>
        <path id="path26341-4-2-6-0-8-1-1-1-5-0-3-3-1-8-3-8-7-7-7-2-4-9-7-2-3-5-16-7-2-4" data-name="path26341-4-2-6-0-8-1-1-1-5-0-3-3-1-8-3-8-7-7-7-2-4-9-7-2-3-5-16-7-2" class="cls-19" d="M32.265,12.206v-2h-1.42v2Z"/>
      </g>
      <g id="R-0402-4" data-name="R-0402">
        <rect id="rect21332-8-1-9-3-8-2-40-6-2-0-6-6-0-5-6-4-8-7-2-0-7-2-3-9-16-7-2-5" data-name="rect21332-8-1-9-3-8-2-40-6-2-0-6-6-0-5-6-4-8-7-2-0-7-2-3-9-16-7-2" class="cls-13" x="51.782" y="14.504" width="1.417" height="1.41"/>
        <rect id="rect21332-8-1-9-3-8-2-40-6-2-0-6-6-0-5-6-4-8-7-2-0-7-2-3-10-16-7-2-5" data-name="rect21332-8-1-9-3-8-2-40-6-2-0-6-6-0-5-6-4-8-7-2-0-7-2-3-10-16-7-2" class="cls-13" x="53.911" y="14.504" width="1.417" height="1.41"/>
        <path class="cls-14" d="M52.347,14.5h2.422a.2.2,0,0,1,.206.173v1.064a.194.194,0,0,1-.2.18H52.347a.193.193,0,0,1-.206-.179V14.686a.2.2,0,0,1,.2-.185h.006Z"/>
        <rect class="cls-15" x="52.353" y="14.499" width="2.41" height="1.42"/>
        <path id="path26341-4-2-6-0-8-1-1-1-5-0-3-3-1-8-3-8-7-7-7-2-4-9-7-2-3-5-16-7-2-5" data-name="path26341-4-2-6-0-8-1-1-1-5-0-3-3-1-8-3-8-7-7-7-2-4-9-7-2-3-5-16-7-2" class="cls-19" d="M52.558,15.919h2V14.5h-2Z"/>
      </g>
      <g id="R-0402-5" data-name="R-0402">
        <rect id="rect21332-8-1-9-3-8-2-40-6-2-0-6-6-0-5-6-4-8-7-2-0-7-2-3-9-16-7-2-6" data-name="rect21332-8-1-9-3-8-2-40-6-2-0-6-6-0-5-6-4-8-7-2-0-7-2-3-9-16-7-2" class="cls-13" x="52.782" y="34.504" width="1.417" height="1.41"/>
        <rect id="rect21332-8-1-9-3-8-2-40-6-2-0-6-6-0-5-6-4-8-7-2-0-7-2-3-10-16-7-2-6" data-name="rect21332-8-1-9-3-8-2-40-6-2-0-6-6-0-5-6-4-8-7-2-0-7-2-3-10-16-7-2" class="cls-13" x="54.911" y="34.504" width="1.417" height="1.41"/>
        <path class="cls-14" d="M53.347,34.5h2.422a.2.2,0,0,1,.206.173v1.064a.194.194,0,0,1-.2.18H53.347a.193.193,0,0,1-.206-.179V34.686a.2.2,0,0,1,.2-.185h.006Z"/>
        <rect class="cls-15" x="53.353" y="34.499" width="2.41" height="1.42"/>
        <path id="path26341-4-2-6-0-8-1-1-1-5-0-3-3-1-8-3-8-7-7-7-2-4-9-7-2-3-5-16-7-2-6" data-name="path26341-4-2-6-0-8-1-1-1-5-0-3-3-1-8-3-8-7-7-7-2-4-9-7-2-3-5-16-7-2" class="cls-19" d="M53.558,35.919h2V34.5h-2Z"/>
      </g>
      <g id="R-0402-6" data-name="R-0402">
        <rect id="rect21332-8-1-9-3-8-2-40-6-2-0-6-6-0-5-6-4-8-7-2-0-7-2-3-9-16-7-2-7" data-name="rect21332-8-1-9-3-8-2-40-6-2-0-6-6-0-5-6-4-8-7-2-0-7-2-3-9-16-7-2" class="cls-13" x="81.087" y="16.732" width="1.417" height="1.41"/>
        <rect id="rect21332-8-1-9-3-8-2-40-6-2-0-6-6-0-5-6-4-8-7-2-0-7-2-3-10-16-7-2-7" data-name="rect21332-8-1-9-3-8-2-40-6-2-0-6-6-0-5-6-4-8-7-2-0-7-2-3-10-16-7-2" class="cls-13" x="83.217" y="16.732" width="1.417" height="1.41"/>
        <path class="cls-14" d="M81.652,16.729h2.422a.2.2,0,0,1,.206.173v1.064a.193.193,0,0,1-.2.18H81.652a.194.194,0,0,1-.206-.179V16.914a.2.2,0,0,1,.2-.185h.006Z"/>
        <rect class="cls-15" x="81.659" y="16.727" width="2.41" height="1.42"/>
        <path id="path26341-4-2-6-0-8-1-1-1-5-0-3-3-1-8-3-8-7-7-7-2-4-9-7-2-3-5-16-7-2-7" data-name="path26341-4-2-6-0-8-1-1-1-5-0-3-3-1-8-3-8-7-7-7-2-4-9-7-2-3-5-16-7-2" class="cls-19" d="M81.864,18.147h2v-1.42h-2Z"/>
      </g>
      <g id="R-0402-7" data-name="R-0402">
        <rect id="rect21332-8-1-9-3-8-2-40-6-2-0-6-6-0-5-6-4-8-7-2-0-7-2-3-9-16-7-2-8" data-name="rect21332-8-1-9-3-8-2-40-6-2-0-6-6-0-5-6-4-8-7-2-0-7-2-3-9-16-7-2" class="cls-13" x="47.782" y="19.504" width="1.417" height="1.41"/>
        <rect id="rect21332-8-1-9-3-8-2-40-6-2-0-6-6-0-5-6-4-8-7-2-0-7-2-3-10-16-7-2-8" data-name="rect21332-8-1-9-3-8-2-40-6-2-0-6-6-0-5-6-4-8-7-2-0-7-2-3-10-16-7-2" class="cls-13" x="49.911" y="19.504" width="1.417" height="1.41"/>
        <path class="cls-14" d="M48.347,19.5h2.422a.2.2,0,0,1,.206.173v1.064a.194.194,0,0,1-.2.18H48.347a.193.193,0,0,1-.206-.179V19.686a.2.2,0,0,1,.2-.185h.006Z"/>
        <rect class="cls-15" x="48.353" y="19.499" width="2.41" height="1.42"/>
        <path id="path26341-4-2-6-0-8-1-1-1-5-0-3-3-1-8-3-8-7-7-7-2-4-9-7-2-3-5-16-7-2-8" data-name="path26341-4-2-6-0-8-1-1-1-5-0-3-3-1-8-3-8-7-7-7-2-4-9-7-2-3-5-16-7-2" class="cls-19" d="M48.558,20.919h2V19.5h-2Z"/>
      </g>
      <g id="R-0805">
        <rect id="rect21332-8-1-9-3-8-2-40-6-2-0-6-6-0-5-6-4-8-7-2-0-7-2-3-9-16-6" class="cls-13" x="28.312" y="22.413" width="3.4" height="2.9"/>
        <rect id="rect21332-8-1-9-3-8-2-40-6-2-0-6-6-0-5-6-4-8-7-2-0-7-2-3-10-16-6" class="cls-13" x="28.312" y="17.393" width="3.4" height="2.9"/>
        <path class="cls-14" d="M28.312,23.773v-4.84a.42.42,0,0,1,.42-.42h2.55a.41.41,0,0,1,.43.389h0v4.84a.411.411,0,0,1-.41.41h-2.56a.43.43,0,0,1-.43-.41h0Z"/>
        <g id="path26345-3-6-9-3-6-4-2-5-6-8-7-9-0-90-3-1-3-9-2-2-8-5-0-2-3-5-16-6">
          <rect class="cls-15" x="28.312" y="19.233" width="3.4" height="4.25"/>
        </g>
        <path id="path26341-4-2-6-0-8-1-1-1-5-0-3-3-1-8-3-8-7-7-7-2-4-9-7-2-3-5-16-6" class="cls-19" d="M31.711,22.763v-2.83h-3.4v2.83Z"/>
      </g>
      <g id="C-TypeA">
        <path id="path13353-9-3-4" class="cls-22" d="M30.569,31.468V26.933H41.341v4.535Z"/>
        <path id="path13355-4-7-4" class="cls-23" d="M41.057,31.183V27.214h-10.2v3.969Z"/>
        <path id="path13359-4-4-4" class="cls-24" d="M40.39,26.931a.1.1,0,0,1,.1.095v4.35c0,.044-.039.083-.1.09H31.52c-.062-.006-.106-.046-.1-.09v-4.35c0-.053,0-.095.1-.095Z"/>
        <path id="path13373-3-3-4" class="cls-25" d="M39.073,26.933v4.535h1.418V26.933Z"/>
      </g>
      <g id="LED-0603-3">
        <rect id="rect21332-8-1-9-3-8-2-40-6-2-0-6-6-0-5-6-4-8-7-2-0-7-2-3-9-16-8-3" class="cls-13" x="48.618" y="13.563" width="1.522" height="1.522"/>
        <rect id="rect21332-8-1-9-3-8-2-40-6-2-0-6-6-0-5-6-4-8-7-2-0-7-2-3-10-16-8-3" class="cls-13" x="48.618" y="11.279" width="1.522" height="1.522"/>
        <path class="cls-14" d="M48.615,14.5V11.885a.222.222,0,0,1,.187-.222h1.147a.208.208,0,0,1,.193.221h0V14.5a.208.208,0,0,1-.192.222H48.815a.215.215,0,0,1-.2-.215h0Z"/>
        <g id="path26345-3-6-9-3-6-4-2-5-6-8-7-9-0-90-3-1-3-9-2-2-8-5-0-2-3-5-16-8-3">
          <rect class="cls-15" x="48.614" y="11.939" width="1.529" height="2.479"/>
        </g>
        <path id="path26341-4-2-6-0-8-1-1-1-5-0-3-3-1-8-3-8-7-7-7-2-4-9-7-2-3-5-16-8-3" class="cls-26" d="M50.143,14.149V12.235H48.615v1.914Z"/>
        <path id="path6963-86-8-2-6-0-1-7-9-2-2-3" class="cls-27" d="M49.274,13.812v-.229H49.5v.229Z"/>
      </g>
      <g id="LED-0603-4">
        <rect id="rect21332-8-1-9-3-8-2-40-6-2-0-6-6-0-5-6-4-8-7-2-0-7-2-3-9-16-8-4" class="cls-13" x="53.939" y="10.65" width="1.522" height="1.522"/>
        <rect id="rect21332-8-1-9-3-8-2-40-6-2-0-6-6-0-5-6-4-8-7-2-0-7-2-3-10-16-8-4" class="cls-13" x="51.655" y="10.65" width="1.522" height="1.522"/>
        <path class="cls-14" d="M54.875,12.175H52.261a.223.223,0,0,1-.222-.187V10.841a.208.208,0,0,1,.221-.193h2.615a.208.208,0,0,1,.223.192v1.135a.216.216,0,0,1-.216.2h-.007Z"/>
        <g id="path26345-3-6-9-3-6-4-2-5-6-8-7-9-0-90-3-1-3-9-2-2-8-5-0-2-3-5-16-8-4">
          <rect class="cls-15" x="52.315" y="10.646" width="2.479" height="1.529"/>
        </g>
        <path id="path26341-4-2-6-0-8-1-1-1-5-0-3-3-1-8-3-8-7-7-7-2-4-9-7-2-3-5-16-8-4" class="cls-26" d="M54.515,10.648H52.6v1.527h1.914Z"/>
        <path id="path6963-86-8-2-6-0-1-7-9-2-2-4" class="cls-27" d="M54.188,11.516h-.229v-.229h.229Z"/>
      </g>
      <g>
        <g>
          <g id="g8621-6-4-6-8-9">
            <path id="path8623-7-5-8-7-6" class="cls-22" d="M51.731,32.876h.649c.184,0,.334-1.467.334-3.26s-.15-3.261-.334-3.261h-.649Z"/>
          </g>
          <g id="g8625-5-5-1-7-2">
            <path id="path8627-9-3-9-5-7" class="cls-28" d="M51.733,26.4V32.83h.647c.183,0,.332-1.442.332-3.215S52.563,26.4,52.38,26.4Zm0,6.521V26.308h.651c.185,0,.336,1.484.336,3.307s-.151,3.307-.336,3.307Z"/>
          </g>
          <path id="path8629-7-5-0-3-3" class="cls-23" d="M51.731,26.355h.393v6.521h-.393Z"/>
        </g>
        <g>
          <g id="g8621-6-4-6-8-9-2" data-name="g8621-6-4-6-8-9">
            <path id="path8623-7-5-8-7-6-2" data-name="path8623-7-5-8-7-6" class="cls-22" d="M44.114,26.447h-.649c-.184,0-.334,1.467-.334,3.261s.15,3.261.334,3.261h.649Z"/>
          </g>
          <g id="g8625-5-5-1-7-2-2" data-name="g8625-5-5-1-7-2">
            <path id="path8627-9-3-9-5-7-2" data-name="path8627-9-3-9-5-7" class="cls-28" d="M44.113,32.922V26.494h-.648c-.183,0-.332,1.442-.332,3.214s.149,3.214.332,3.214Zm0-6.521v6.614h-.651c-.185,0-.335-1.484-.335-3.307s.15-3.307.335-3.307Z"/>
          </g>
          <path id="path8629-7-5-0-3-3-2" data-name="path8629-7-5-0-3-3" class="cls-23" d="M44.114,32.968h-.393V26.447h.393Z"/>
        </g>
        <rect class="cls-22" x="48.691" y="34.525" width="2.371" height="2.122"/>
        <rect class="cls-22" x="44.447" y="34.525" width="2.371" height="2.122"/>
        <rect class="cls-23" x="44.447" y="34.474" width="2.371" height="1.398"/>
        <rect class="cls-23" x="48.691" y="34.474" width="2.371" height="1.398"/>
        <g>
          <rect class="cls-22" x="48.691" y="22.418" width="2.371" height="2.122"/>
          <rect class="cls-22" x="44.447" y="22.418" width="2.371" height="2.122"/>
          <rect class="cls-23" x="48.691" y="23.283" width="2.371" height="1.398"/>
          <rect class="cls-23" x="44.447" y="23.283" width="2.371" height="1.398"/>
        </g>
        <rect class="cls-29" x="44.116" y="23.874" width="7.613" height="10.275"/>
        <rect class="cls-30" x="44.116" y="24.415" width="7.613" height="10.275"/>
        <path class="cls-29" d="M45.218,29.147a3.7,3.7,0,0,0,1.6,3.225h2.2a3.7,3.7,0,0,0,1.6-3.225,3.7,3.7,0,0,0-1.6-3.224h-2.2A3.7,3.7,0,0,0,45.218,29.147Z"/>
        <path class="cls-31" d="M45.218,29.615a3.7,3.7,0,0,0,1.6,3.225h2.2a3.7,3.7,0,0,0,1.6-3.225,3.7,3.7,0,0,0-1.6-3.224h-2.2A3.7,3.7,0,0,0,45.218,29.615Z"/>
        <path class="cls-32" d="M45.6,29.615a3.174,3.174,0,0,0,1.375,2.767h1.889a3.468,3.468,0,0,0,0-5.533H46.977A3.174,3.174,0,0,0,45.6,29.615Z"/>
        <path id="path8633-3-2-7-9-8" class="cls-33" d="M44.335,24.6V34.657H51.51V24.6Zm7.394-.184V34.841H44.116V24.415Z"/>
        <path id="path8641-1-7-2-8-9" class="cls-34" d="M46.083,24.484v.393h3.271v-.393Zm3.373-.1v.6H45.982v-.6Z"/>
        <path id="path8637-3-7-6-1-7" class="cls-34" d="M46.083,34.329v.393h3.271v-.393Zm3.372-.1v.6H45.982v-.6Z"/>
      </g>
      <g>
        <g>
          <g>
            <rect id="rect21332-8-1-9-3-8-2-40-6-2-0-6-6-0-5-6-4-8-7-2-0-7-2-3-9-16-6-2" data-name="rect21332-8-1-9-3-8-2-40-6-2-0-6-6-0-5-6-4-8-7-2-0-7-2-3-9-16-6" class="cls-13" x="34.339" y="32.734" width="2.49" height="2.919"/>
            <rect id="rect21332-8-1-9-3-8-2-40-6-2-0-6-6-0-5-6-4-8-7-2-0-7-2-3-10-16-6-2" data-name="rect21332-8-1-9-3-8-2-40-6-2-0-6-6-0-5-6-4-8-7-2-0-7-2-3-10-16-6" class="cls-13" x="30.029" y="32.734" width="2.49" height="2.919"/>
          </g>
          <path class="cls-14" d="M36,35.654H30.9a.408.408,0,0,1-.443-.361V33.1a.389.389,0,0,1,.41-.369h5.11a.4.4,0,0,1,.432.352v2.2a.413.413,0,0,1-.432.37H36Z"/>
          <g id="path26345-3-6-9-3-6-4-2-5-6-8-7-9-0-90-3-1-3-9-2-2-8-5-0-2-3-5-16-6-2" data-name="path26345-3-6-9-3-6-4-2-5-6-8-7-9-0-90-3-1-3-9-2-2-8-5-0-2-3-5-16-6">
            <rect class="cls-15" x="31.661" y="32.734" width="3.649" height="2.919"/>
          </g>
          <path id="path26341-4-2-6-0-8-1-1-1-5-0-3-3-1-8-3-8-7-7-7-2-4-9-7-2-3-5-16-6-2" data-name="path26341-4-2-6-0-8-1-1-1-5-0-3-3-1-8-3-8-7-7-7-2-4-9-7-2-3-5-16-6" class="cls-35" d="M35.885,32.751H30.972v2.9h4.913Z"/>
          <g>
            <path class="cls-36" d="M30.972,35.368a1.172,1.172,0,0,0,0-2.34Z"/>
            <path class="cls-37" d="M30.972,34.646a.448.448,0,1,0,0-.9Z"/>
          </g>
          <g>
            <path class="cls-36" d="M35.876,35.368a1.172,1.172,0,0,1,0-2.34Z"/>
            <path class="cls-37" d="M35.876,34.646a.448.448,0,0,1,0-.9Z"/>
          </g>
        </g>
        <rect class="cls-38" x="32.712" y="34.046" width="1.433" height="0.297" rx="0.148" transform="translate(66.858 68.388) rotate(-180)"/>
      </g>
      <text class="cls-39" transform="translate(25.419 6.468) rotate(180)">Espruino <tspan class="cls-8" x="12.306" y="0">P</tspan><tspan x="13.838" y="0">ico</tspan></text>
      <text class="cls-39" transform="translate(27.752 35.653) rotate(180)">ww<tspan class="cls-7" x="4.465" y="0">w</tspan><tspan x="6.379" y="0">.espruino.com</tspan></text>
    </g>
  </g>
</svg>
