<svg id="fingerprint-reader-capacitive-round" xmlns="http://www.w3.org/2000/svg" xmlns:xlink="http://www.w3.org/1999/xlink" width="47.34mm" height="20mm" viewBox="0 0 134.192 56.693">
  <defs>
    <style>
      .cls-1 {
        fill: #ccc;
      }

      .cls-2 {
        fill: #999;
      }

      .cls-22, .cls-24, .cls-29, .cls-3 {
        fill: #b3b3b3;
      }

      .cls-4 {
        fill: #1b1c1c;
      }

      .cls-25, .cls-5 {
        fill: gray;
      }

      .cls-6 {
        fill: url(#Безымянный_градиент);
      }

      .cls-7 {
        fill: #323332;
      }

      .cls-8 {
        fill: #171918;
      }

      .cls-9 {
        fill: #fff;
      }

      .cls-10, .cls-23 {
        fill: #d2d1d3;
      }

      .cls-11 {
        fill: #b7b8b9;
      }

      .cls-12 {
        fill: #d7d3d5;
      }

      .cls-13 {
        fill: #966432;
      }

      .cls-14 {
        fill: #242424;
      }

      .cls-15 {
        fill: #231f20;
      }

      .cls-16 {
        fill: #d2d2d1;
      }

      .cls-17 {
        fill: #babbbc;
      }

      .cls-18 {
        fill: #3c3b3c;
      }

      .cls-19 {
        fill: #c8c8c8;
      }

      .cls-20 {
        fill: #ebdeb6;
        stroke: #efaf03;
        stroke-width: 0.03px;
      }

      .cls-21 {
        fill: #f1f3c5;
      }

      .cls-22 {
        stroke: #1d1b17;
      }

      .cls-22, .cls-23, .cls-24, .cls-25, .cls-28 {
        stroke-opacity: 0.8;
      }

      .cls-22, .cls-23, .cls-25 {
        stroke-width: 0.011px;
      }

      .cls-23 {
        stroke: #0d0000;
        opacity: 0.507;
        isolation: isolate;
      }

      .cls-24, .cls-25 {
        stroke: #2d2a23;
      }

      .cls-24 {
        stroke-width: 0.02px;
      }

      .cls-26 {
        fill: #e8d8aa;
      }

      .cls-27 {
        fill: #d3d2d1;
      }

      .cls-28 {
        fill: none;
        stroke: #eed18b;
        stroke-linecap: round;
        stroke-width: 0.1px;
      }

      .cls-29 {
        stroke: #545451;
        stroke-width: 0.029px;
      }
    </style>
    <radialGradient id="Безымянный_градиент" data-name="Безымянный градиент" cx="28.349" cy="183.524" r="22.678" gradientTransform="translate(-0.002 -155.181)" gradientUnits="userSpaceOnUse">
      <stop offset="0" stop-color="#fff"/>
      <stop offset="0.373" stop-color="#fdfdfd"/>
      <stop offset="0.507" stop-color="#f6f6f6"/>
      <stop offset="0.603" stop-color="#ebebeb"/>
      <stop offset="0.68" stop-color="#dadada"/>
      <stop offset="0.746" stop-color="#c4c4c4"/>
      <stop offset="0.805" stop-color="#a8a8a8"/>
      <stop offset="0.858" stop-color="#888"/>
      <stop offset="0.907" stop-color="#626262"/>
      <stop offset="0.952" stop-color="#373737"/>
      <stop offset="0.993" stop-color="#090909"/>
      <stop offset="1"/>
    </radialGradient>
  </defs>
  <title>fingerprint-reader-capacitive-round</title>
  <g id="fingerprint-reader-capacitive-round-2" data-name="fingerprint-reader-capacitive-round">
    <g id="top">
      <g>
        <rect class="cls-1" x="4.252" y="4.252" width="48.189" height="48.189" rx="23.748" ry="23.748"/>
        <path class="cls-2" d="M28.693,8.5A19.518,19.518,0,0,1,48.189,28v.693a19.519,19.519,0,0,1-19.5,19.5H28a19.518,19.518,0,0,1-19.5-19.5V28A19.518,19.518,0,0,1,28,8.5h.693m0-8.5H28A28.082,28.082,0,0,0,0,28v.693a28.082,28.082,0,0,0,28,28h.693a28.082,28.082,0,0,0,28-28V28A28.082,28.082,0,0,0,28.693,0Z" transform="translate(0 0)"/>
      </g>
      <g>
        <rect class="cls-1" x="7.087" y="7.087" width="42.52" height="42.52" rx="21.083" ry="21.083"/>
        <path class="cls-3" d="M28.524,8.5A19.689,19.689,0,0,1,48.189,28.169v.355A19.689,19.689,0,0,1,28.524,48.189h-.355A19.689,19.689,0,0,1,8.5,28.524v-.355A19.687,19.687,0,0,1,28.169,8.5h.355m0-2.835h-.355a22.567,22.567,0,0,0-22.5,22.5v.355a22.567,22.567,0,0,0,22.5,22.5h.355a22.567,22.567,0,0,0,22.5-22.5v-.355A22.567,22.567,0,0,0,28.524,5.665Z" transform="translate(0 0)"/>
      </g>
      <g>
        <path class="cls-4" d="M28.346,48.047a19.7,19.7,0,1,1,19.7-19.7h0A19.722,19.722,0,0,1,28.346,48.047Z" transform="translate(0 0)"/>
        <path class="cls-5" d="M28.347,8.787a19.56,19.56,0,1,1-19.56,19.56h0A19.559,19.559,0,0,1,28.346,8.787h0m0-.283h0A19.9,19.9,0,0,0,8.5,28.346h0A19.9,19.9,0,0,0,28.346,48.189h0A19.9,19.9,0,0,0,48.189,28.346h0A19.9,19.9,0,0,0,28.347,8.5Z" transform="translate(0 0)"/>
      </g>
      <path class="cls-6" d="M28.524,8.5A19.689,19.689,0,0,1,48.189,28.169v.355A19.689,19.689,0,0,1,28.524,48.189h-.355A19.689,19.689,0,0,1,8.5,28.524v-.355A19.687,19.687,0,0,1,28.169,8.5h.355m0-2.835h-.355a22.567,22.567,0,0,0-22.5,22.5v.355a22.567,22.567,0,0,0,22.5,22.5h.355a22.567,22.567,0,0,0,22.5-22.5v-.355A22.567,22.567,0,0,0,28.524,5.665Z" transform="translate(0 0)"/>
      <path class="cls-7" d="M28.524,5.811A22.384,22.384,0,0,1,50.882,28.169v.355A22.385,22.385,0,0,1,28.524,50.882h-.355A22.384,22.384,0,0,1,5.811,28.524v-.355A22.384,22.384,0,0,1,28.169,5.811h.355m0-.142h-.355a22.567,22.567,0,0,0-22.5,22.5v.355a22.567,22.567,0,0,0,22.5,22.5h.355a22.567,22.567,0,0,0,22.5-22.5v-.355A22.567,22.567,0,0,0,28.524,5.669Z" transform="translate(0 0)"/>
    </g>
    <g id="botom">
      <g>
        <g>
          <path class="cls-4" d="M105.845,56.48A28.134,28.134,0,1,1,133.98,28.347,28.133,28.133,0,0,1,105.845,56.48Z" transform="translate(0 0)"/>
          <path class="cls-8" d="M105.845.425A27.922,27.922,0,1,1,77.924,28.348v0A27.923,27.923,0,0,1,105.845.425m0-.425A28.43,28.43,0,0,0,77.5,28.346h0a28.347,28.347,0,0,0,56.693,0h0A28.43,28.43,0,0,0,105.845,0Z" transform="translate(0 0)"/>
        </g>
        <path class="cls-9" d="M105.845,4.181A24.166,24.166,0,1,1,81.68,28.348v0h0A24.194,24.194,0,0,1,105.845,4.181m0-2.835a27.082,27.082,0,0,0-27,27h0a27,27,0,0,0,54,0h0A27.079,27.079,0,0,0,105.845,1.346Z" transform="translate(0 0)"/>
      </g>
      <g id="С-0402">
        <rect id="rect21332-8-1-9-3-8-2-40-6-2-0-6-6-0-5-6-4-8-7-2-0-7-2-3-9-16-7" class="cls-10" x="83.561" y="31.328" width="1.41" height="1.417"/>
        <rect id="rect21332-8-1-9-3-8-2-40-6-2-0-6-6-0-5-6-4-8-7-2-0-7-2-3-10-16-7" class="cls-10" x="83.561" y="29.198" width="1.41" height="1.417"/>
        <path class="cls-11" d="M83.557,32.18V29.757a.2.2,0,0,1,.173-.206H84.8a.193.193,0,0,1,.18.205h0V32.18a.194.194,0,0,1-.179.206H83.742a.2.2,0,0,1-.185-.2h0Z" transform="translate(0 0)"/>
        <rect class="cls-12" x="83.556" y="29.763" width="1.42" height="2.41"/>
        <path id="path26341-4-2-6-0-8-1-1-1-5-0-3-3-1-8-3-8-7-7-7-2-4-9-7-2-3-5-16-7" class="cls-13" d="M84.976,31.968v-2h-1.42v2Z" transform="translate(0 0)"/>
      </g>
      <g id="С-0402-2">
        <rect id="rect21332-8-1-9-3-8-2-40-6-2-0-6-6-0-5-6-4-8-7-2-0-7-2-3-9-16-7-2" class="cls-10" x="102.639" y="7.719" width="1.41" height="1.417"/>
        <rect id="rect21332-8-1-9-3-8-2-40-6-2-0-6-6-0-5-6-4-8-7-2-0-7-2-3-10-16-7-2" class="cls-10" x="102.639" y="5.589" width="1.41" height="1.417"/>
        <path class="cls-11" d="M102.635,8.571V6.148a.2.2,0,0,1,.173-.206h1.069a.194.194,0,0,1,.18.205h0V8.571a.194.194,0,0,1-.179.206h-1.053a.2.2,0,0,1-.185-.2h0Z" transform="translate(0 0)"/>
        <rect class="cls-12" x="102.634" y="6.154" width="1.42" height="2.41"/>
        <path id="path26341-4-2-6-0-8-1-1-1-5-0-3-3-1-8-3-8-7-7-7-2-4-9-7-2-3-5-16-7-2" class="cls-13" d="M104.054,8.359v-2h-1.42v2Z" transform="translate(0 0)"/>
      </g>
      <g id="С-0402-3">
        <rect id="rect21332-8-1-9-3-8-2-40-6-2-0-6-6-0-5-6-4-8-7-2-0-7-2-3-9-16-7-3" class="cls-10" x="94.622" y="11.267" width="1.417" height="1.41"/>
        <rect id="rect21332-8-1-9-3-8-2-40-6-2-0-6-6-0-5-6-4-8-7-2-0-7-2-3-10-16-7-3" class="cls-10" x="92.492" y="11.267" width="1.417" height="1.41"/>
        <path class="cls-11" d="M95.474,12.68H93.052a.207.207,0,0,1-.207-.173V11.443a.2.2,0,0,1,.206-.18h2.423a.193.193,0,0,1,.206.179V12.5a.2.2,0,0,1-.2.185h-.006Z" transform="translate(0 0)"/>
        <rect class="cls-12" x="93.058" y="11.261" width="2.41" height="1.42"/>
        <path id="path26341-4-2-6-0-8-1-1-1-5-0-3-3-1-8-3-8-7-7-7-2-4-9-7-2-3-5-16-7-3" class="cls-13" d="M95.263,11.261h-2v1.42h2Z" transform="translate(0 0)"/>
      </g>
      <g id="С-0402-4">
        <rect id="rect21332-8-1-9-3-8-2-40-6-2-0-6-6-0-5-6-4-8-7-2-0-7-2-3-9-16-7-4" class="cls-10" x="104.622" y="22.267" width="1.417" height="1.41"/>
        <rect id="rect21332-8-1-9-3-8-2-40-6-2-0-6-6-0-5-6-4-8-7-2-0-7-2-3-10-16-7-4" class="cls-10" x="102.492" y="22.267" width="1.417" height="1.41"/>
        <path class="cls-11" d="M105.474,23.68h-2.422a.207.207,0,0,1-.207-.173V22.443a.2.2,0,0,1,.206-.18h2.423a.194.194,0,0,1,.206.179V23.5a.2.2,0,0,1-.2.185h-.006Z" transform="translate(0 0)"/>
        <rect class="cls-12" x="103.058" y="22.261" width="2.41" height="1.42"/>
        <path id="path26341-4-2-6-0-8-1-1-1-5-0-3-3-1-8-3-8-7-7-7-2-4-9-7-2-3-5-16-7-4" class="cls-13" d="M105.263,22.261h-2v1.42h2Z" transform="translate(0 0)"/>
      </g>
      <g id="С-0402-5">
        <rect id="rect21332-8-1-9-3-8-2-40-6-2-0-6-6-0-5-6-4-8-7-2-0-7-2-3-9-16-7-5" class="cls-10" x="104.622" y="16.267" width="1.417" height="1.41"/>
        <rect id="rect21332-8-1-9-3-8-2-40-6-2-0-6-6-0-5-6-4-8-7-2-0-7-2-3-10-16-7-5" class="cls-10" x="102.492" y="16.267" width="1.417" height="1.41"/>
        <path class="cls-11" d="M105.474,17.68h-2.422a.207.207,0,0,1-.207-.173V16.443a.2.2,0,0,1,.206-.18h2.423a.194.194,0,0,1,.206.179V17.5a.2.2,0,0,1-.2.185h-.006Z" transform="translate(0 0)"/>
        <rect class="cls-12" x="103.058" y="16.261" width="2.41" height="1.42"/>
        <path id="path26341-4-2-6-0-8-1-1-1-5-0-3-3-1-8-3-8-7-7-7-2-4-9-7-2-3-5-16-7-5" class="cls-13" d="M105.263,16.261h-2v1.42h2Z" transform="translate(0 0)"/>
      </g>
      <g id="С-0402-6">
        <rect id="rect21332-8-1-9-3-8-2-40-6-2-0-6-6-0-5-6-4-8-7-2-0-7-2-3-9-16-7-6" class="cls-10" x="104.622" y="13.267" width="1.417" height="1.41"/>
        <rect id="rect21332-8-1-9-3-8-2-40-6-2-0-6-6-0-5-6-4-8-7-2-0-7-2-3-10-16-7-6" class="cls-10" x="102.492" y="13.267" width="1.417" height="1.41"/>
        <path class="cls-11" d="M105.474,14.68h-2.422a.207.207,0,0,1-.207-.173V13.443a.2.2,0,0,1,.206-.18h2.423a.194.194,0,0,1,.206.179V14.5a.2.2,0,0,1-.2.185h-.006Z" transform="translate(0 0)"/>
        <rect class="cls-12" x="103.058" y="13.261" width="2.41" height="1.42"/>
        <path id="path26341-4-2-6-0-8-1-1-1-5-0-3-3-1-8-3-8-7-7-7-2-4-9-7-2-3-5-16-7-6" class="cls-13" d="M105.263,13.261h-2v1.42h2Z" transform="translate(0 0)"/>
      </g>
      <g id="С-0402-7">
        <rect id="rect21332-8-1-9-3-8-2-40-6-2-0-6-6-0-5-6-4-8-7-2-0-7-2-3-9-16-7-7" class="cls-10" x="94.622" y="8.267" width="1.417" height="1.41"/>
        <rect id="rect21332-8-1-9-3-8-2-40-6-2-0-6-6-0-5-6-4-8-7-2-0-7-2-3-10-16-7-7" class="cls-10" x="92.492" y="8.267" width="1.417" height="1.41"/>
        <path class="cls-11" d="M95.474,9.68H93.052a.207.207,0,0,1-.207-.173V8.443a.2.2,0,0,1,.206-.18h2.423a.193.193,0,0,1,.206.179V9.495a.2.2,0,0,1-.2.185Z" transform="translate(0 0)"/>
        <rect class="cls-12" x="93.058" y="8.261" width="2.41" height="1.42"/>
        <path id="path26341-4-2-6-0-8-1-1-1-5-0-3-3-1-8-3-8-7-7-7-2-4-9-7-2-3-5-16-7-7" class="cls-13" d="M95.263,8.261h-2v1.42h2Z" transform="translate(0 0)"/>
      </g>
      <g id="С-0402-8">
        <rect id="rect21332-8-1-9-3-8-2-40-6-2-0-6-6-0-5-6-4-8-7-2-0-7-2-3-9-16-7-8" class="cls-10" x="90.561" y="40.328" width="1.41" height="1.417"/>
        <rect id="rect21332-8-1-9-3-8-2-40-6-2-0-6-6-0-5-6-4-8-7-2-0-7-2-3-10-16-7-8" class="cls-10" x="90.561" y="38.198" width="1.41" height="1.417"/>
        <path class="cls-11" d="M90.557,41.18V38.757a.2.2,0,0,1,.173-.206H91.8a.192.192,0,0,1,.18.2h0V41.18a.194.194,0,0,1-.179.206H90.742a.2.2,0,0,1-.185-.2h0Z" transform="translate(0 0)"/>
        <rect class="cls-12" x="90.556" y="38.763" width="1.42" height="2.41"/>
        <path id="path26341-4-2-6-0-8-1-1-1-5-0-3-3-1-8-3-8-7-7-7-2-4-9-7-2-3-5-16-7-8" class="cls-13" d="M91.976,40.968v-2h-1.42v2Z" transform="translate(0 0)"/>
      </g>
      <g id="R-0402">
        <rect id="rect21332-8-1-9-3-8-2-40-6-2-0-6-6-0-5-6-4-8-7-2-0-7-2-3-9-16-7-2-2" class="cls-10" x="83.561" y="26.397" width="1.41" height="1.417"/>
        <rect id="rect21332-8-1-9-3-8-2-40-6-2-0-6-6-0-5-6-4-8-7-2-0-7-2-3-10-16-7-2-2" class="cls-10" x="83.561" y="24.267" width="1.41" height="1.417"/>
        <path class="cls-11" d="M83.557,27.249V24.826a.2.2,0,0,1,.173-.206H84.8a.193.193,0,0,1,.18.2h0v2.423a.194.194,0,0,1-.179.206H83.742a.2.2,0,0,1-.185-.2Z" transform="translate(0 0)"/>
        <rect class="cls-12" x="83.556" y="24.833" width="1.42" height="2.41"/>
        <path id="path26341-4-2-6-0-8-1-1-1-5-0-3-3-1-8-3-8-7-7-7-2-4-9-7-2-3-5-16-7-2-2" class="cls-14" d="M84.976,27.037v-2h-1.42v2Z" transform="translate(0 0)"/>
      </g>
      <g id="R-0402-2">
        <rect id="rect21332-8-1-9-3-8-2-40-6-2-0-6-6-0-5-6-4-8-7-2-0-7-2-3-9-16-7-2-3" class="cls-10" x="88.561" y="40.397" width="1.41" height="1.417"/>
        <rect id="rect21332-8-1-9-3-8-2-40-6-2-0-6-6-0-5-6-4-8-7-2-0-7-2-3-10-16-7-2-3" class="cls-10" x="88.561" y="38.267" width="1.41" height="1.417"/>
        <path class="cls-11" d="M88.557,41.249V38.826a.2.2,0,0,1,.173-.206H89.8a.193.193,0,0,1,.18.205h0v2.423a.194.194,0,0,1-.179.206H88.742a.2.2,0,0,1-.185-.2h0Z" transform="translate(0 0)"/>
        <rect class="cls-12" x="88.556" y="38.833" width="1.42" height="2.41"/>
        <path id="path26341-4-2-6-0-8-1-1-1-5-0-3-3-1-8-3-8-7-7-7-2-4-9-7-2-3-5-16-7-2-3" class="cls-14" d="M89.976,41.037v-2h-1.42v2Z" transform="translate(0 0)"/>
      </g>
      <g id="R-0402-3">
        <rect id="rect21332-8-1-9-3-8-2-40-6-2-0-6-6-0-5-6-4-8-7-2-0-7-2-3-9-16-7-2-4" class="cls-10" x="90.561" y="44.397" width="1.41" height="1.417"/>
        <rect id="rect21332-8-1-9-3-8-2-40-6-2-0-6-6-0-5-6-4-8-7-2-0-7-2-3-10-16-7-2-4" class="cls-10" x="90.561" y="42.267" width="1.41" height="1.417"/>
        <path class="cls-11" d="M90.557,45.249V42.826a.2.2,0,0,1,.173-.206H91.8a.193.193,0,0,1,.18.205h0v2.423a.194.194,0,0,1-.179.206H90.742a.2.2,0,0,1-.185-.2h0Z" transform="translate(0 0)"/>
        <rect class="cls-12" x="90.556" y="42.833" width="1.42" height="2.41"/>
        <path id="path26341-4-2-6-0-8-1-1-1-5-0-3-3-1-8-3-8-7-7-7-2-4-9-7-2-3-5-16-7-2-4" class="cls-14" d="M91.976,45.037v-2h-1.42v2Z" transform="translate(0 0)"/>
      </g>
      <g id="R-0402-4">
        <rect id="rect21332-8-1-9-3-8-2-40-6-2-0-6-6-0-5-6-4-8-7-2-0-7-2-3-9-16-7-2-5" class="cls-10" x="92.561" y="44.397" width="1.41" height="1.417"/>
        <rect id="rect21332-8-1-9-3-8-2-40-6-2-0-6-6-0-5-6-4-8-7-2-0-7-2-3-10-16-7-2-5" class="cls-10" x="92.561" y="42.267" width="1.41" height="1.417"/>
        <path class="cls-11" d="M92.557,45.249V42.826a.2.2,0,0,1,.173-.206H93.8a.193.193,0,0,1,.18.205h0v2.423a.194.194,0,0,1-.179.206H92.742a.2.2,0,0,1-.185-.2h0Z" transform="translate(0 0)"/>
        <rect class="cls-12" x="92.556" y="42.833" width="1.42" height="2.41"/>
        <path id="path26341-4-2-6-0-8-1-1-1-5-0-3-3-1-8-3-8-7-7-7-2-4-9-7-2-3-5-16-7-2-5" class="cls-14" d="M93.976,45.037v-2h-1.42v2Z" transform="translate(0 0)"/>
      </g>
      <g id="R-0402-5">
        <rect id="rect21332-8-1-9-3-8-2-40-6-2-0-6-6-0-5-6-4-8-7-2-0-7-2-3-9-16-7-2-6" class="cls-10" x="92.561" y="40.397" width="1.41" height="1.417"/>
        <rect id="rect21332-8-1-9-3-8-2-40-6-2-0-6-6-0-5-6-4-8-7-2-0-7-2-3-10-16-7-2-6" class="cls-10" x="92.561" y="38.267" width="1.41" height="1.417"/>
        <path class="cls-11" d="M92.557,41.249V38.826a.2.2,0,0,1,.173-.206H93.8a.193.193,0,0,1,.18.205h0v2.423a.194.194,0,0,1-.179.206H92.742a.2.2,0,0,1-.185-.2h0Z" transform="translate(0 0)"/>
        <rect class="cls-12" x="92.556" y="38.833" width="1.42" height="2.41"/>
        <path id="path26341-4-2-6-0-8-1-1-1-5-0-3-3-1-8-3-8-7-7-7-2-4-9-7-2-3-5-16-7-2-6" class="cls-14" d="M93.976,41.037v-2h-1.42v2Z" transform="translate(0 0)"/>
      </g>
      <g id="R-0402-6">
        <rect id="rect21332-8-1-9-3-8-2-40-6-2-0-6-6-0-5-6-4-8-7-2-0-7-2-3-9-16-7-2-7" class="cls-10" x="94.561" y="38.397" width="1.41" height="1.417"/>
        <rect id="rect21332-8-1-9-3-8-2-40-6-2-0-6-6-0-5-6-4-8-7-2-0-7-2-3-10-16-7-2-7" class="cls-10" x="94.561" y="36.267" width="1.41" height="1.417"/>
        <path class="cls-11" d="M94.557,39.249V36.826a.2.2,0,0,1,.173-.206H95.8a.193.193,0,0,1,.18.205h0v2.423a.194.194,0,0,1-.179.206H94.742a.2.2,0,0,1-.185-.2h0Z" transform="translate(0 0)"/>
        <rect class="cls-12" x="94.556" y="36.833" width="1.42" height="2.41"/>
        <path id="path26341-4-2-6-0-8-1-1-1-5-0-3-3-1-8-3-8-7-7-7-2-4-9-7-2-3-5-16-7-2-7" class="cls-14" d="M95.976,39.037v-2h-1.42v2Z" transform="translate(0 0)"/>
      </g>
      <g id="R-0402-7">
        <rect id="rect21332-8-1-9-3-8-2-40-6-2-0-6-6-0-5-6-4-8-7-2-0-7-2-3-9-16-7-2-8" class="cls-10" x="96.561" y="38.397" width="1.41" height="1.417"/>
        <rect id="rect21332-8-1-9-3-8-2-40-6-2-0-6-6-0-5-6-4-8-7-2-0-7-2-3-10-16-7-2-8" class="cls-10" x="96.561" y="36.267" width="1.41" height="1.417"/>
        <path class="cls-11" d="M96.557,39.249V36.826a.2.2,0,0,1,.173-.206H97.8a.193.193,0,0,1,.18.205h0v2.423a.194.194,0,0,1-.179.206H96.742a.2.2,0,0,1-.185-.2h0Z" transform="translate(0 0)"/>
        <rect class="cls-12" x="96.556" y="36.833" width="1.42" height="2.41"/>
        <path id="path26341-4-2-6-0-8-1-1-1-5-0-3-3-1-8-3-8-7-7-7-2-4-9-7-2-3-5-16-7-2-8" class="cls-14" d="M97.976,39.037v-2h-1.42v2Z" transform="translate(0 0)"/>
      </g>
      <g id="R-0402-8">
        <rect id="rect21332-8-1-9-3-8-2-40-6-2-0-6-6-0-5-6-4-8-7-2-0-7-2-3-9-16-7-2-9" class="cls-10" x="102.561" y="30.397" width="1.41" height="1.417"/>
        <rect id="rect21332-8-1-9-3-8-2-40-6-2-0-6-6-0-5-6-4-8-7-2-0-7-2-3-10-16-7-2-9" class="cls-10" x="102.561" y="28.267" width="1.41" height="1.417"/>
        <path class="cls-11" d="M102.557,31.249V28.826a.2.2,0,0,1,.173-.206H103.8a.193.193,0,0,1,.18.2h0v2.423a.194.194,0,0,1-.179.206h-1.053a.2.2,0,0,1-.185-.2h0Z" transform="translate(0 0)"/>
        <rect class="cls-12" x="102.556" y="28.833" width="1.42" height="2.41"/>
        <path id="path26341-4-2-6-0-8-1-1-1-5-0-3-3-1-8-3-8-7-7-7-2-4-9-7-2-3-5-16-7-2-9" class="cls-14" d="M103.976,31.037v-2h-1.42v2Z" transform="translate(0 0)"/>
      </g>
      <g id="R-0402-9">
        <rect id="rect21332-8-1-9-3-8-2-40-6-2-0-6-6-0-5-6-4-8-7-2-0-7-2-3-9-16-7-2-10" class="cls-10" x="98.639" y="7.788" width="1.41" height="1.417"/>
        <rect id="rect21332-8-1-9-3-8-2-40-6-2-0-6-6-0-5-6-4-8-7-2-0-7-2-3-10-16-7-2-10" class="cls-10" x="98.639" y="5.658" width="1.41" height="1.417"/>
        <path class="cls-11" d="M98.635,8.64V6.217a.2.2,0,0,1,.173-.206h1.069a.194.194,0,0,1,.18.205h0V8.64a.194.194,0,0,1-.179.206H98.82a.2.2,0,0,1-.185-.2h0Z" transform="translate(0 0)"/>
        <rect class="cls-12" x="98.634" y="6.224" width="1.42" height="2.41"/>
        <path id="path26341-4-2-6-0-8-1-1-1-5-0-3-3-1-8-3-8-7-7-7-2-4-9-7-2-3-5-16-7-2-10" class="cls-14" d="M100.054,8.428v-2h-1.42v2Z" transform="translate(0 0)"/>
      </g>
      <g id="R-0402-10">
        <rect id="rect21332-8-1-9-3-8-2-40-6-2-0-6-6-0-5-6-4-8-7-2-0-7-2-3-9-16-7-2-11" class="cls-10" x="100.639" y="7.788" width="1.41" height="1.417"/>
        <rect id="rect21332-8-1-9-3-8-2-40-6-2-0-6-6-0-5-6-4-8-7-2-0-7-2-3-10-16-7-2-11" class="cls-10" x="100.639" y="5.658" width="1.41" height="1.417"/>
        <path class="cls-11" d="M100.635,8.64V6.217a.2.2,0,0,1,.173-.206h1.069a.194.194,0,0,1,.18.205h0V8.64a.194.194,0,0,1-.179.206h-1.053a.2.2,0,0,1-.185-.2h0Z" transform="translate(0 0)"/>
        <rect class="cls-12" x="100.634" y="6.224" width="1.42" height="2.41"/>
        <path id="path26341-4-2-6-0-8-1-1-1-5-0-3-3-1-8-3-8-7-7-7-2-4-9-7-2-3-5-16-7-2-11" class="cls-14" d="M102.054,8.428v-2h-1.42v2Z" transform="translate(0 0)"/>
      </g>
      <g id="R-0402-11">
        <rect id="rect21332-8-1-9-3-8-2-40-6-2-0-6-6-0-5-6-4-8-7-2-0-7-2-3-9-16-7-2-12" class="cls-10" x="105.639" y="7.788" width="1.41" height="1.417"/>
        <rect id="rect21332-8-1-9-3-8-2-40-6-2-0-6-6-0-5-6-4-8-7-2-0-7-2-3-10-16-7-2-12" class="cls-10" x="105.639" y="5.658" width="1.41" height="1.417"/>
        <path class="cls-11" d="M105.635,8.64V6.217a.2.2,0,0,1,.173-.206h1.069a.194.194,0,0,1,.18.205h0V8.64a.2.2,0,0,1-.179.206h-1.053a.2.2,0,0,1-.185-.2h0Z" transform="translate(0 0)"/>
        <rect class="cls-12" x="105.634" y="6.224" width="1.42" height="2.41"/>
        <path id="path26341-4-2-6-0-8-1-1-1-5-0-3-3-1-8-3-8-7-7-7-2-4-9-7-2-3-5-16-7-2-12" class="cls-14" d="M107.054,8.428v-2h-1.42v2Z" transform="translate(0 0)"/>
      </g>
      <g id="R-0402-12">
        <rect id="rect21332-8-1-9-3-8-2-40-6-2-0-6-6-0-5-6-4-8-7-2-0-7-2-3-9-16-7-2-13" class="cls-10" x="104.622" y="25.336" width="1.417" height="1.41"/>
        <rect id="rect21332-8-1-9-3-8-2-40-6-2-0-6-6-0-5-6-4-8-7-2-0-7-2-3-10-16-7-2-13" class="cls-10" x="102.492" y="25.336" width="1.417" height="1.41"/>
        <path class="cls-11" d="M105.474,26.749h-2.423a.2.2,0,0,1-.206-.173V25.512a.2.2,0,0,1,.206-.18h2.423a.194.194,0,0,1,.206.179v1.053a.2.2,0,0,1-.2.185Z" transform="translate(0 0)"/>
        <rect class="cls-12" x="103.058" y="25.331" width="2.41" height="1.42"/>
        <path id="path26341-4-2-6-0-8-1-1-1-5-0-3-3-1-8-3-8-7-7-7-2-4-9-7-2-3-5-16-7-2-13" class="cls-14" d="M105.263,25.33h-2v1.42h2Z" transform="translate(0 0)"/>
      </g>
      <g id="R-0402-13">
        <rect id="rect21332-8-1-9-3-8-2-40-6-2-0-6-6-0-5-6-4-8-7-2-0-7-2-3-9-16-7-2-14" class="cls-10" x="89.622" y="13.336" width="1.417" height="1.41"/>
        <rect id="rect21332-8-1-9-3-8-2-40-6-2-0-6-6-0-5-6-4-8-7-2-0-7-2-3-10-16-7-2-14" class="cls-10" x="87.492" y="13.336" width="1.417" height="1.41"/>
        <path class="cls-11" d="M90.474,14.749H88.051a.2.2,0,0,1-.206-.173V13.512a.2.2,0,0,1,.206-.18h2.423a.193.193,0,0,1,.206.179v1.053a.2.2,0,0,1-.2.185Z" transform="translate(0 0)"/>
        <rect class="cls-12" x="88.058" y="13.331" width="2.41" height="1.42"/>
        <path id="path26341-4-2-6-0-8-1-1-1-5-0-3-3-1-8-3-8-7-7-7-2-4-9-7-2-3-5-16-7-2-14" class="cls-14" d="M90.263,13.33h-2v1.42h2Z" transform="translate(0 0)"/>
      </g>
      <g id="C-0805">
        <rect id="rect21332-8-1-9-3-8-2-40-6-2-0-6-6-0-5-6-4-8-7-2-0-7-2-3-9-16-3" class="cls-10" x="100.883" y="41.08" width="2.9" height="3.4"/>
        <rect id="rect21332-8-1-9-3-8-2-40-6-2-0-6-6-0-5-6-4-8-7-2-0-7-2-3-10-16-3" class="cls-10" x="95.834" y="41.08" width="2.9" height="3.4"/>
        <path class="cls-11" d="M102.223,44.48h-4.84a.42.42,0,0,1-.42-.42V41.51a.41.41,0,0,1,.389-.43h4.841a.409.409,0,0,1,.41.41h0v2.56a.429.429,0,0,1-.41.43Z" transform="translate(0 0)"/>
        <g id="path26345-3-6-9-3-6-4-2-5-6-8-7-9-0-90-3-1-3-9-2-2-8-5-0-2-3-5-16-3">
          <rect class="cls-12" x="97.664" y="41.08" width="4.25" height="3.4"/>
        </g>
        <path id="path26341-4-2-6-0-8-1-1-1-5-0-3-3-1-8-3-8-7-7-7-2-4-9-7-2-3-5-16-3" class="cls-13" d="M101.223,41.08h-2.84v3.4h2.84Z" transform="translate(0 0)"/>
      </g>
      <g>
        <path id="path8783-7-1" class="cls-15" d="M101.356,18.041V32.28a.188.188,0,0,1-.177.2h0a.2.2,0,0,1-.2-.2h0V18.041a.2.2,0,0,1,.4,0h0" transform="translate(0 0)"/>
        <path id="path8787-1-6" class="cls-15" d="M101.356,18.041a.2.2,0,0,1-.2.2H86.918a.2.2,0,0,1,0-.4h14.238a.2.2,0,0,1,.2.2" transform="translate(0 0)"/>
        <path id="path8791-4-8" class="cls-15" d="M87.118,18.041V31.32a.19.19,0,0,1-.19.19h0a.188.188,0,0,1-.2-.177v0h0V18.041a.2.2,0,0,1,.2-.2h0a.2.2,0,0,1,.19.2h0" transform="translate(0 0)"/>
        <path id="path8795-0-8" class="cls-15" d="M87.837,32.28a.2.2,0,0,1-.08.16.189.189,0,0,1-.26,0h0l-.72-1a.213.213,0,0,1,0-.28.191.191,0,0,1,.269,0h0l.72,1a.222.222,0,0,1,0,.12" transform="translate(0 0)"/>
        <path id="path8799-0-4" class="cls-15" d="M101.356,32.28a.2.2,0,0,1-.2.2H87.637a.2.2,0,1,1,0-.4h13.519a.2.2,0,0,1,.2.2" transform="translate(0 0)"/>
        <path id="path13723-9-6" class="cls-16" d="M88.427,18.111v-.59h1v.59Z" transform="translate(0 0)"/>
        <path id="path13725-1-4" class="cls-16" d="M89.837,18.111v-.59h1v.59Z" transform="translate(0 0)"/>
        <path id="path13727-5-1" class="cls-16" d="M91.337,18.111v-.59h1v.59Z" transform="translate(0 0)"/>
        <path id="path13729-6-0" class="cls-16" d="M92.837,18.111v-.59h1v.59Z" transform="translate(0 0)"/>
        <path id="path13731-5-2" class="cls-16" d="M94.247,18.111v-.59h1v.59Z" transform="translate(0 0)"/>
        <path id="path13733-2-0" class="cls-16" d="M95.7,18.111v-.59h1v.59Z" transform="translate(0 0)"/>
        <path id="path13735-4-3" class="cls-16" d="M97.157,18.111v-.59h1v.59Z" transform="translate(0 0)"/>
        <path id="path13737-3-4" class="cls-16" d="M98.606,18.111v-.59h1v.59Z" transform="translate(0 0)"/>
        <path id="path13751-3-3" class="cls-16" d="M99.636,31.96v.59h-1v-.59Z" transform="translate(0 0)"/>
        <path id="path13753-3-9" class="cls-16" d="M98.177,31.96v.59h-1v-.59Z" transform="translate(0 0)"/>
        <path id="path13755-8-7" class="cls-16" d="M96.727,31.96v.59h-1v-.59Z" transform="translate(0 0)"/>
        <path id="path13757-4-6" class="cls-16" d="M95.267,31.96v.59h-1v-.59Z" transform="translate(0 0)"/>
        <path id="path13759-2-1" class="cls-16" d="M93.837,31.96v.59h-1v-.59Z" transform="translate(0 0)"/>
        <path id="path13761-8-7" class="cls-16" d="M92.357,31.96v.59h-1v-.59Z" transform="translate(0 0)"/>
        <path id="path13763-2-2" class="cls-16" d="M90.907,31.96v.59h-1v-.59Z" transform="translate(0 0)"/>
        <path id="path13765-9-1" class="cls-16" d="M89.447,31.96v.59h-1v-.59Z" transform="translate(0 0)"/>
        <path id="path13779-6-9" class="cls-16" d="M87,29.63v1h-.6v-1Z" transform="translate(0 0)"/>
        <path id="path13781-4-1" class="cls-16" d="M87,28.171v1h-.6v-1Z" transform="translate(0 0)"/>
        <path id="path13783-3-4" class="cls-16" d="M87,26.751v1h-.6v-1Z" transform="translate(0 0)"/>
        <path id="path13785-1-7" class="cls-16" d="M87,25.261v1h-.6v-1Z" transform="translate(0 0)"/>
        <path id="path13787-6-9" class="cls-16" d="M87,23.811v1h-.6v-1Z" transform="translate(0 0)"/>
        <path id="path13789-5-8" class="cls-16" d="M87,22.351v1h-.6v-1Z" transform="translate(0 0)"/>
        <path id="path13809-8-7" class="cls-16" d="M101.066,21.921v-1h.59v1Z" transform="translate(0 0)"/>
        <path id="path13811-2-9" class="cls-16" d="M101.066,23.381v-1h.59v1Z" transform="translate(0 0)"/>
        <path id="path13813-0-5" class="cls-16" d="M101.066,24.831v-1h.59v1Z" transform="translate(0 0)"/>
        <path id="path13815-3-1" class="cls-16" d="M101.066,26.291v-1h.59v1Z" transform="translate(0 0)"/>
        <path id="path13817-8-4" class="cls-16" d="M101.066,27.751v-1h.59v1Z" transform="translate(0 0)"/>
        <path id="path13819-7-0" class="cls-16" d="M101.066,29.2v-1h.59v1Z" transform="translate(0 0)"/>
        <path id="path13821-9-1" class="cls-16" d="M101.066,30.65v-1h.59v1Z" transform="translate(0 0)"/>
        <path id="path13823-2-0" class="cls-17" d="M90.837,17.631V32.47h-.81V17.631Z" transform="translate(0 0)"/>
        <path id="path13825-5-1" class="cls-17" d="M92.257,17.631V32.47h-.82V17.631Z" transform="translate(0 0)"/>
        <path id="path13827-2-2" class="cls-17" d="M93.707,17.631V32.47H92.9V17.631Z" transform="translate(0 0)"/>
        <path id="path13829-4-8" class="cls-17" d="M95.167,17.631V32.47h-.82V17.631Z" transform="translate(0 0)"/>
        <path id="path13831-6-0" class="cls-17" d="M96.617,17.631V32.47h-.78V17.631Z" transform="translate(0 0)"/>
        <path id="path13833-3-4" class="cls-17" d="M98.077,17.631V32.47h-.82V17.631Z" transform="translate(0 0)"/>
        <path id="path13835-8-2" class="cls-17" d="M89.347,17.631V32.47h-.82V17.631Z" transform="translate(0 0)"/>
        <path id="path13837-9-5" class="cls-17" d="M99.526,17.631V32.47h-.81V17.631Z" transform="translate(0 0)"/>
        <path id="path13839-9-9" class="cls-17" d="M101.446,28.28v.81H86.608v-.81Z" transform="translate(0 0)"/>
        <path id="path13841-9-9" class="cls-17" d="M101.446,26.821v.82H86.608v-.82Z" transform="translate(0 0)"/>
        <path id="path13843-2-2" class="cls-17" d="M101.446,25.371v.81H86.608v-.81Z" transform="translate(0 0)"/>
        <path id="path13845-2-6" class="cls-17" d="M101.446,23.911v.84H86.608v-.8Z" transform="translate(0 0)"/>
        <path id="path13847-6-3" class="cls-17" d="M101.446,22.461v.81H86.608v-.81Z" transform="translate(0 0)"/>
        <g>
          <path id="path13791-3-6" class="cls-16" d="M87,20.9v1h-.6v-1Z" transform="translate(0 0)"/>
          <path id="path13849-2-5" class="cls-17" d="M101.446,21v.82H86.608V21Z" transform="translate(0 0)"/>
        </g>
        <path id="path13851-7-9" class="cls-17" d="M101.446,29.75v.82H86.608v-.82Z" transform="translate(0 0)"/>
        <g>
          <path id="path13793-5-0" class="cls-16" d="M87,19.441v1h-.6v-1Z" transform="translate(0 0)"/>
          <path id="path13807-3-6" class="cls-16" d="M101.066,20.471v-1h.59v1Z" transform="translate(0 0)"/>
          <path id="path13853-4-0" class="cls-17" d="M101.446,19.551v.81H86.608v-.81Z" transform="translate(0 0)"/>
        </g>
        <path id="path13855-2-7" class="cls-18" d="M101.066,18.141V31.96H87V18.141Z" transform="translate(0 0)"/>
        <path id="path13907-2-8" class="cls-19" d="M99.027,19.75a.41.41,0,0,1,.41.41h0a.409.409,0,0,1-.408.41h0a.43.43,0,0,1-.41-.41h0a.43.43,0,0,1,.41-.41" transform="translate(0 0)"/>
      </g>
      <g>
        <path id="rect27317-5" class="cls-20" d="M115.685,44.328h8.98l-.054-31.964h-8.948v0l.022,31.964" transform="translate(0 0)"/>
        <rect id="rect27317-3-8" class="cls-21" x="124.478" y="14.165" width="0.375" height="28.783"/>
        <rect id="rect36049-9-4-8-0-6-2-1-3-5-8-8-9-5-9-3-3-2-88" class="cls-22" x="120.759" y="19.649" width="2.361" height="0.243"/>
        <rect id="rect36049-9-4-8-0-6-2-1-3-5-8-8-9-5-9-3-3-2-88-2" class="cls-22" x="120.759" y="23.132" width="2.361" height="0.243"/>
        <rect id="rect36049-9-4-8-0-6-2-1-3-5-8-8-9-5-9-3-3-2-88-3" class="cls-22" x="120.759" y="26.614" width="2.361" height="0.243"/>
        <rect id="rect36049-9-4-8-0-6-2-1-3-5-8-8-9-5-9-3-3-2-88-4" class="cls-22" x="120.759" y="30.096" width="2.361" height="0.243"/>
        <rect id="rect36049-9-4-8-0-6-2-1-3-5-8-8-9-5-9-3-3-2-88-5" class="cls-22" x="120.759" y="33.579" width="2.361" height="0.243"/>
        <rect id="rect36049-9-4-8-0-6-2-1-3-5-8-8-9-5-9-3-3-2-88-6" class="cls-22" x="120.759" y="37.061" width="2.361" height="0.243"/>
        <g>
          <g>
            <rect id="rect21332-8-1-9-3-8-2-40-6-2-0-6-4-9-2-4-6-3-2-0-1-7-7-10-6-8-2-7-8-4-44" class="cls-23" x="109.119" y="36.485" width="2.035" height="1.382"/>
            <rect id="rect36049-9-4-8-0-6-2-1-3-5-82-5-6-5-6-4-1-84" class="cls-24" x="109.883" y="36.682" width="4.579" height="0.987"/>
            <rect id="rect36051-8-8-2-7-2-0-4-8-2-2-5-8-5-7-7-4-03" class="cls-25" x="111.409" y="36.682" width="1.526" height="0.987"/>
            <rect id="rect36049-9-4-8-0-6-2-1-3-5-8-8-9-5-9-3-3-2-6" class="cls-22" x="114.462" y="37.077" width="1.781" height="0.197"/>
          </g>
          <g>
            <rect id="rect21332-8-1-9-3-8-2-40-6-2-0-6-4-9-2-4-6-3-2-0-1-7-7-10-6-8-2-7-8-4-49" class="cls-23" x="109.119" y="33.002" width="2.035" height="1.382"/>
            <rect id="rect36049-9-4-8-0-6-2-1-3-5-82-5-6-5-6-4-1-21" class="cls-24" x="109.883" y="33.2" width="4.579" height="0.987"/>
            <rect id="rect36051-8-8-2-7-2-0-4-8-2-2-5-8-5-7-7-4-89" class="cls-25" x="111.409" y="33.2" width="1.526" height="0.987"/>
            <rect id="rect36049-9-4-8-0-6-2-1-3-5-8-8-9-5-9-3-3-2-8" class="cls-22" x="114.462" y="33.594" width="1.781" height="0.197"/>
          </g>
          <g>
            <rect id="rect21332-8-1-9-3-8-2-40-6-2-0-6-4-9-2-4-6-3-2-0-1-7-7-10-6-8-2-7-8-4-0" class="cls-23" x="109.119" y="29.52" width="2.035" height="1.382"/>
            <rect id="rect36049-9-4-8-0-6-2-1-3-5-82-5-6-5-6-4-1-9" class="cls-24" x="109.883" y="29.717" width="4.579" height="0.987"/>
            <rect id="rect36051-8-8-2-7-2-0-4-8-2-2-5-8-5-7-7-4-7" class="cls-25" x="111.409" y="29.717" width="1.526" height="0.987"/>
            <rect id="rect36049-9-4-8-0-6-2-1-3-5-8-8-9-5-9-3-3-2-3" class="cls-22" x="114.462" y="30.112" width="1.781" height="0.197"/>
          </g>
          <g>
            <rect id="rect21332-8-1-9-3-8-2-40-6-2-0-6-4-9-2-4-6-3-2-0-1-7-7-10-6-8-2-7-8-4-7" class="cls-23" x="109.119" y="26.039" width="2.035" height="1.382"/>
            <rect id="rect36049-9-4-8-0-6-2-1-3-5-82-5-6-5-6-4-1-91" class="cls-24" x="109.883" y="26.236" width="4.579" height="0.987"/>
            <rect id="rect36051-8-8-2-7-2-0-4-8-2-2-5-8-5-7-7-4-6" class="cls-25" x="111.409" y="26.236" width="1.526" height="0.987"/>
            <rect id="rect36049-9-4-8-0-6-2-1-3-5-8-8-9-5-9-3-3-2-85" class="cls-22" x="114.462" y="26.631" width="1.781" height="0.197"/>
          </g>
          <g>
            <rect id="rect21332-8-1-9-3-8-2-40-6-2-0-6-4-9-2-4-6-3-2-0-1-7-7-10-6-8-2-7-8-4-79" class="cls-23" x="109.119" y="22.556" width="2.035" height="1.382"/>
            <rect id="rect36049-9-4-8-0-6-2-1-3-5-82-5-6-5-6-4-1-0" class="cls-24" x="109.883" y="22.754" width="4.579" height="0.987"/>
            <rect id="rect36051-8-8-2-7-2-0-4-8-2-2-5-8-5-7-7-4-60" class="cls-25" x="111.409" y="22.754" width="1.526" height="0.987"/>
            <rect id="rect36049-9-4-8-0-6-2-1-3-5-8-8-9-5-9-3-3-2-39" class="cls-22" x="114.462" y="23.148" width="1.781" height="0.197"/>
          </g>
          <g>
            <rect id="rect21332-8-1-9-3-8-2-40-6-2-0-6-4-9-2-4-6-3-2-0-1-7-7-10-6-8-2-7-8-4-30" class="cls-23" x="109.119" y="19.074" width="2.035" height="1.382"/>
            <rect id="rect36049-9-4-8-0-6-2-1-3-5-82-5-6-5-6-4-1-46" class="cls-24" x="109.883" y="19.271" width="4.579" height="0.987"/>
            <rect id="rect36051-8-8-2-7-2-0-4-8-2-2-5-8-5-7-7-4-45" class="cls-25" x="111.409" y="19.271" width="1.526" height="0.987"/>
            <rect id="rect36049-9-4-8-0-6-2-1-3-5-8-8-9-5-9-3-3-2-88-11" class="cls-22" x="114.462" y="19.666" width="1.781" height="0.197"/>
          </g>
        </g>
        <rect id="rect69212-7-6-0-9-6-0-7-5" class="cls-21" x="120.312" y="41.203" width="2.358" height="1.615"/>
        <rect id="rect69212-7-6-0-9-6-0-7-5-2" class="cls-21" x="120.312" y="14.198" width="2.358" height="1.615"/>
        <rect id="rect69212-7-6-0-9-6-0-7-5-3" class="cls-26" x="122.687" y="14.198" width="1.978" height="1.615"/>
        <rect id="rect69212-7-6-0-9-6-0-7-5-4" class="cls-26" x="122.687" y="41.232" width="1.978" height="1.615"/>
        <rect class="cls-21" x="113.73" y="14.193" width="7.864" height="28.624"/>
        <rect id="rect27317-6-5" class="cls-27" x="122.611" y="14.198" width="0.076" height="1.615"/>
        <rect id="rect27317-6-5-2" class="cls-27" x="122.611" y="41.232" width="0.076" height="1.615"/>
        <rect id="rect27317-6-5-3" class="cls-27" x="113.73" y="42.785" width="8.881" height="0.065"/>
        <rect id="rect27317-6-5-4" class="cls-27" x="113.73" y="14.161" width="8.94" height="0.065"/>
        <polygon id="rect69212-7-6-0-9-6-0-7-5-5" class="cls-28" points="121.491 40.979 121.491 15.813 121.491 15.813 121.491 40.979 121.491 40.979"/>
        <rect id="rect27317-6-2" class="cls-29" x="113.73" y="33.322" width="1.031" height="0.755"/>
        <rect id="rect27317-6-3" class="cls-29" x="113.73" y="29.84" width="1.031" height="0.755"/>
        <rect id="rect27317-6-4" class="cls-29" x="113.73" y="26.358" width="1.031" height="0.755"/>
        <rect id="rect27317-6-5-5" class="cls-29" x="113.73" y="22.875" width="1.031" height="0.755"/>
        <rect id="rect27317-6-6" class="cls-29" x="113.73" y="19.393" width="1.031" height="0.755"/>
        <rect id="rect27317-6-8" class="cls-29" x="113.73" y="36.805" width="1.031" height="0.755"/>
      </g>
    </g>
  </g>
</svg>
