<?xml version="1.0" encoding="UTF-8"?>
<!DOCTYPE svg PUBLIC "-//W3C//DTD SVG 1.1//EN" "http://www.w3.org/Graphics/SVG/1.1/DTD/svg11.dtd">
<!-- Creator: CorelDRAW X6 -->
<svg xmlns="http://www.w3.org/2000/svg" xml:space="preserve" width="35.744mm" height="21.5463mm" version="1.1" style="shape-rendering:geometricPrecision; text-rendering:geometricPrecision; image-rendering:optimizeQuality; fill-rule:evenodd; clip-rule:evenodd"
viewBox="0 0 3510 2116"
 xmlns:xlink="http://www.w3.org/1999/xlink">
 <defs>
  <style type="text/css">
   <![CDATA[
    .str0 {stroke:black;stroke-width:7.48206}
    .str1 {stroke:black;stroke-width:7.48206;stroke-linecap:round}
    .fil2 {fill:none}
    .fil0 {fill:#292929}
    .fil5 {fill:#5E5E5E}
    .fil4 {fill:#636363}
    .fil3 {fill:#916565}
    .fil1 {fill:#A3A3A3}
   ]]>
  </style>
 </defs>
 <g id="Слой_x0020_1">
  <metadata id="CorelCorpID_0Corel-Layer"/>
  <rect class="fil0 str0" x="642" y="16" width="2225" height="1078"/>
  <circle class="fil1 str0" transform="matrix(0.866025 -0.5 0.5 0.866025 1748.27 1064.14)" r="1048"/>
  <circle class="fil2 str0" transform="matrix(0.798928 -0.461261 0.461261 0.798928 1748.27 1064.14)" r="1048"/>
  <g id="_930499888">
   <path class="fil2 str1" d="M2638 1084c0,291 -151,573 -421,729"/>
   <path class="fil2 str1" d="M1997 1084c0,69 -36,137 -100,174"/>
   <line class="fil2 str1" x1="1896" y1="1258" x2="2217" y2= "1813" />
   <line class="fil2 str1" x1="1997" y1="1084" x2="2638" y2= "1084" />
  </g>
  <g id="_930837312">
   <path class="fil2 str1" d="M2176 1845c-252,145 -572,156 -842,0"/>
   <path class="fil2 str1" d="M1856 1289c-60,35 -136,37 -201,0"/>
   <line class="fil2 str1" x1="1655" y1="1289" x2="1334" y2= "1845" />
   <line class="fil2 str1" x1="1856" y1="1289" x2="2176" y2= "1845" />
  </g>
  <g id="_930830624">
   <path class="fil2 str1" d="M1286 1825c-252,-146 -421,-418 -421,-729"/>
   <path class="fil2 str1" d="M1607 1270c-60,-35 -100,-100 -100,-174"/>
   <line class="fil2 str1" x1="1507" y1="1096" x2="865" y2= "1096" />
   <line class="fil2 str1" x1="1607" y1="1270" x2="1286" y2= "1825" />
  </g>
  <g id="_930835200">
   <path class="fil2 str1" d="M858 1045c0,-291 151,-573 421,-729"/>
   <path class="fil2 str1" d="M1500 1045c0,-69 36,-137 100,-174"/>
   <line class="fil2 str1" x1="1600" y1="871" x2="1279" y2= "315" />
   <line class="fil2 str1" x1="1500" y1="1045" x2="858" y2= "1045" />
  </g>
  <g id="_931218896">
   <path class="fil2 str1" d="M1320 283c252,-145 572,-156 842,0"/>
   <path class="fil2 str1" d="M1641 839c60,-35 136,-37 201,0"/>
   <line class="fil2 str1" x1="1842" y1="839" x2="2162" y2= "284" />
   <line class="fil2 str1" x1="1641" y1="839" x2="1320" y2= "283" />
  </g>
  <g id="_930176160">
   <path class="fil2 str1" d="M2210 303c252,146 421,418 421,729"/>
   <path class="fil2 str1" d="M1890 859c60,35 100,100 100,174"/>
   <line class="fil2 str1" x1="1990" y1="1032" x2="2631" y2= "1032" />
   <line class="fil2 str1" x1="1890" y1="859" x2="2210" y2= "303" />
  </g>
  <circle class="fil2 str0" transform="matrix(0.866025 -0.5 0.5 0.866025 1748.27 1064.14)" r="205"/>
  <g id="_930377744">
   <path class="fil3 str1" d="M35 16l-31 68 31 -68zm-31 68l31 -68 -31 68z"/>
   <line class="fil2 str1" x1="35" y1="16" x2="67" y2= "84" />
   <line class="fil2 str1" x1="98" y1="16" x2="67" y2= "84" />
   <line class="fil2 str1" x1="98" y1="16" x2="129" y2= "84" />
   <line class="fil2 str1" x1="161" y1="16" x2="129" y2= "84" />
   <line class="fil2 str1" x1="161" y1="16" x2="192" y2= "84" />
   <line class="fil2 str1" x1="223" y1="16" x2="192" y2= "84" />
   <line class="fil2 str1" x1="223" y1="16" x2="255" y2= "84" />
   <line class="fil2 str1" x1="286" y1="16" x2="255" y2= "84" />
   <line class="fil2 str1" x1="286" y1="16" x2="318" y2= "84" />
   <line class="fil2 str1" x1="349" y1="16" x2="318" y2= "84" />
   <line class="fil2 str1" x1="349" y1="16" x2="380" y2= "84" />
   <line class="fil2 str1" x1="412" y1="16" x2="380" y2= "84" />
   <line class="fil2 str1" x1="412" y1="16" x2="443" y2= "84" />
   <line class="fil2 str1" x1="474" y1="16" x2="443" y2= "84" />
   <line class="fil2 str1" x1="474" y1="16" x2="506" y2= "84" />
   <polygon class="fil4 str0" points="35,16 67,84 98,16 129,84 161,16 192,84 223,16 255,84 286,16 318,84 349,16 380,84 412,16 443,84 474,16 506,84 537,16 569,84 600,16 631,84 642,84 642,1076 620,1026 588,1094 557,1026 525,1094 494,1026 463,1094 431,1026 400,1094 369,1026 337,1094 306,1026 274,1094 243,1026 212,1094 180,1026 149,1094 117,1026 86,1094 55,1026 23,1094 4,84 "/>
   <line class="fil2 str1" x1="537" y1="16" x2="506" y2= "84" />
   <line class="fil2 str1" x1="537" y1="16" x2="569" y2= "84" />
   <line class="fil2 str1" x1="600" y1="16" x2="569" y2= "84" />
   <line class="fil2 str1" x1="600" y1="16" x2="631" y2= "84" />
   <line class="fil2 str1" x1="55" y1="1026" x2="23" y2= "1094" />
   <line class="fil2 str1" x1="55" y1="1026" x2="86" y2= "1094" />
   <line class="fil2 str1" x1="117" y1="1026" x2="86" y2= "1094" />
   <line class="fil2 str1" x1="117" y1="1026" x2="149" y2= "1094" />
   <line class="fil2 str1" x1="180" y1="1026" x2="149" y2= "1094" />
   <line class="fil2 str1" x1="180" y1="1026" x2="212" y2= "1094" />
   <line class="fil2 str1" x1="243" y1="1026" x2="212" y2= "1094" />
   <line class="fil2 str1" x1="243" y1="1026" x2="274" y2= "1094" />
   <line class="fil2 str1" x1="306" y1="1026" x2="274" y2= "1094" />
   <line class="fil2 str1" x1="306" y1="1026" x2="337" y2= "1094" />
   <line class="fil2 str1" x1="369" y1="1026" x2="337" y2= "1094" />
   <line class="fil2 str1" x1="369" y1="1026" x2="400" y2= "1094" />
   <line class="fil2 str1" x1="431" y1="1026" x2="400" y2= "1094" />
   <line class="fil2 str1" x1="431" y1="1026" x2="463" y2= "1094" />
   <line class="fil2 str1" x1="494" y1="1026" x2="463" y2= "1094" />
   <line class="fil2 str1" x1="494" y1="1026" x2="525" y2= "1094" />
   <line class="fil2 str1" x1="557" y1="1026" x2="525" y2= "1094" />
   <line class="fil2 str1" x1="557" y1="1026" x2="588" y2= "1094" />
   <line class="fil2 str1" x1="620" y1="1026" x2="588" y2= "1094" />
   <line class="fil2 str1" x1="620" y1="1026" x2="642" y2= "1076" />
   <line class="fil2 str1" x1="4" y1="84" x2="23" y2= "1094" />
   <line class="fil2 str1" x1="631" y1="84" x2="642" y2= "84" />
   <line class="fil2 str1" x1="67" y1="84" x2="117" y2= "1026" />
   <line class="fil2 str1" x1="55" y1="1026" x2="4" y2= "84" />
   <line class="fil2 str1" x1="129" y1="84" x2="180" y2= "1026" />
   <line class="fil2 str1" x1="243" y1="1026" x2="192" y2= "84" />
   <line class="fil2 str1" x1="255" y1="84" x2="306" y2= "1026" />
   <line class="fil2 str1" x1="318" y1="84" x2="369" y2= "1026" />
   <line class="fil2 str1" x1="380" y1="84" x2="431" y2= "1026" />
   <line class="fil2 str1" x1="443" y1="84" x2="494" y2= "1026" />
   <line class="fil2 str1" x1="557" y1="1026" x2="506" y2= "84" />
   <line class="fil2 str1" x1="569" y1="84" x2="620" y2= "1026" />
   <line class="fil2 str1" x1="642" y1="1094" x2="642" y2= "16" />
  </g>
  <g id="_931259696">
   <polygon class="fil5 str0" points="3486,16 3506,1026 3475,1094 3443,1026 3412,1094 3380,1026 3349,1094 3318,1026 3286,1094 3255,1026 3223,1094 3192,1026 3161,1094 3129,1026 3098,1094 3067,1026 3035,1094 3004,1026 2972,1094 2941,1026 2910,1094 2878,1026 2867,1026 2867,818 2867,35 2890,84 2921,16 2953,84 2984,16 3016,84 3047,16 3078,84 3110,16 3141,84 3173,16 3204,84 3235,16 3267,84 3298,16 3329,84 3361,16 3392,84 3424,16 3455,84 "/>
   <g>
    <line class="fil2 str1" x1="2867" y1="16" x2="2867" y2= "1094" />
    <line class="fil2 str1" x1="3475" y1="1094" x2="3506" y2= "1026" />
    <line class="fil2 str1" x1="3475" y1="1094" x2="3443" y2= "1026" />
    <line class="fil2 str1" x1="3412" y1="1094" x2="3443" y2= "1026" />
    <line class="fil2 str1" x1="3412" y1="1094" x2="3380" y2= "1026" />
    <line class="fil2 str1" x1="3349" y1="1094" x2="3380" y2= "1026" />
    <line class="fil2 str1" x1="3349" y1="1094" x2="3318" y2= "1026" />
    <line class="fil2 str1" x1="3286" y1="1094" x2="3318" y2= "1026" />
    <line class="fil2 str1" x1="3286" y1="1094" x2="3255" y2= "1026" />
    <line class="fil2 str1" x1="3223" y1="1094" x2="3255" y2= "1026" />
    <line class="fil2 str1" x1="3223" y1="1094" x2="3192" y2= "1026" />
    <line class="fil2 str1" x1="3161" y1="1094" x2="3192" y2= "1026" />
    <line class="fil2 str1" x1="3161" y1="1094" x2="3129" y2= "1026" />
    <line class="fil2 str1" x1="3098" y1="1094" x2="3129" y2= "1026" />
    <line class="fil2 str1" x1="3098" y1="1094" x2="3067" y2= "1026" />
    <line class="fil2 str1" x1="3035" y1="1094" x2="3067" y2= "1026" />
    <line class="fil2 str1" x1="3035" y1="1094" x2="3004" y2= "1026" />
    <line class="fil2 str1" x1="2972" y1="1094" x2="3004" y2= "1026" />
    <line class="fil2 str1" x1="2972" y1="1094" x2="2941" y2= "1026" />
    <line class="fil2 str1" x1="2910" y1="1094" x2="2941" y2= "1026" />
    <line class="fil2 str1" x1="2910" y1="1094" x2="2878" y2= "1026" />
    <line class="fil2 str1" x1="3455" y1="84" x2="3486" y2= "16" />
    <line class="fil2 str1" x1="3455" y1="84" x2="3424" y2= "16" />
    <line class="fil2 str1" x1="3392" y1="84" x2="3424" y2= "16" />
    <line class="fil2 str1" x1="3392" y1="84" x2="3361" y2= "16" />
    <line class="fil2 str1" x1="3329" y1="84" x2="3361" y2= "16" />
    <line class="fil2 str1" x1="3329" y1="84" x2="3298" y2= "16" />
    <line class="fil2 str1" x1="3267" y1="84" x2="3298" y2= "16" />
    <line class="fil2 str1" x1="3267" y1="84" x2="3235" y2= "16" />
    <line class="fil2 str1" x1="3204" y1="84" x2="3235" y2= "16" />
    <line class="fil2 str1" x1="3204" y1="84" x2="3173" y2= "16" />
    <line class="fil2 str1" x1="3141" y1="84" x2="3173" y2= "16" />
    <line class="fil2 str1" x1="3141" y1="84" x2="3110" y2= "16" />
    <line class="fil2 str1" x1="3078" y1="84" x2="3110" y2= "16" />
    <line class="fil2 str1" x1="3078" y1="84" x2="3047" y2= "16" />
    <line class="fil2 str1" x1="3016" y1="84" x2="3047" y2= "16" />
    <line class="fil2 str1" x1="3016" y1="84" x2="2984" y2= "16" />
    <line class="fil2 str1" x1="2953" y1="84" x2="2984" y2= "16" />
    <line class="fil2 str1" x1="2953" y1="84" x2="2921" y2= "16" />
    <line class="fil2 str1" x1="2890" y1="84" x2="2921" y2= "16" />
    <line class="fil2 str1" x1="2890" y1="84" x2="2867" y2= "35" />
    <line class="fil2 str1" x1="3506" y1="1026" x2="3486" y2= "16" />
    <line class="fil2 str1" x1="2878" y1="1026" x2="2867" y2= "1026" />
    <line class="fil2 str1" x1="3443" y1="1026" x2="3392" y2= "84" />
    <line class="fil2 str1" x1="3455" y1="84" x2="3506" y2= "1026" />
    <line class="fil2 str1" x1="3380" y1="1026" x2="3329" y2= "84" />
    <line class="fil2 str1" x1="3267" y1="84" x2="3318" y2= "1026" />
    <line class="fil2 str1" x1="3255" y1="1026" x2="3204" y2= "84" />
    <line class="fil2 str1" x1="3192" y1="1026" x2="3141" y2= "84" />
    <line class="fil2 str1" x1="3129" y1="1026" x2="3078" y2= "84" />
    <line class="fil2 str1" x1="3067" y1="1026" x2="3016" y2= "84" />
    <line class="fil2 str1" x1="2953" y1="84" x2="3004" y2= "1026" />
    <line class="fil2 str1" x1="2941" y1="1026" x2="2890" y2= "84" />
   </g>
   <line class="fil2 str0" x1="2878" y1="1026" x2="2867" y2= "818" />
  </g>
 </g>
</svg>
