<svg id="home-lamp" xmlns="http://www.w3.org/2000/svg" xmlns:xlink="http://www.w3.org/1999/xlink" width="41.526mm" height="129.236mm" viewBox="0 0 117.712 366.337">
  <defs>
    <style>
      .cls-1 {
        fill: url(#Безымянный_градиент_70);
      }

      .cls-2 {
        fill: #ededed;
      }

      .cls-3, .cls-5 {
        fill: none;
        stroke: #575756;
        stroke-miterlimit: 10;
      }

      .cls-3 {
        stroke-width: 1.417px;
      }

      .cls-4 {
        fill: #575756;
      }

      .cls-5 {
        stroke-width: 0.709px;
      }

      .cls-6 {
        fill: url(#Безымянный_градиент_96);
      }

      .cls-7 {
        fill: #c6c6c6;
      }

      .cls-14, .cls-7 {
        opacity: 0.26;
      }

      .cls-8 {
        fill: url(#Безымянный_градиент_17);
      }

      .cls-9 {
        fill: url(#Безымянный_градиент_34);
      }

      .cls-10 {
        fill: url(#Безымянный_градиент_29);
      }

      .cls-11 {
        fill: url(#Безымянный_градиент_49);
      }

      .cls-12 {
        fill: #ffed00;
      }

      .cls-13 {
        fill: url(#Безымянный_градиент_28);
      }

      .cls-14 {
        fill: #f7efa6;
      }

      .cls-15 {
        fill: url(#Безымянный_градиент_37);
      }

      .cls-16 {
        fill: #3c3c3b;
      }

      .cls-17 {
        fill: url(#Безымянный_градиент_46);
      }

      .cls-18, .cls-20, .cls-21 {
        opacity: 0.81;
      }

      .cls-18 {
        fill: url(#Безымянный_градиент_55);
      }

      .cls-19 {
        fill: #383838;
      }

      .cls-20 {
        fill: #acb1ad;
      }

      .cls-21 {
        fill: url(#Безымянный_градиент_57);
      }
    </style>
    <linearGradient id="Безымянный_градиент_70" data-name="Безымянный градиент 70" x1="9.916" y1="286.85" x2="107.822" y2="286.85" gradientUnits="userSpaceOnUse">
      <stop offset="0" stop-color="#9d9d9c"/>
      <stop offset="0.23" stop-color="#9f9f9e"/>
      <stop offset="0.321" stop-color="#a5a6a5"/>
      <stop offset="0.387" stop-color="#b1b2b0"/>
      <stop offset="0.441" stop-color="#c1c3c1"/>
      <stop offset="0.487" stop-color="#d6dad6"/>
      <stop offset="0.503" stop-color="#dfe3df"/>
      <stop offset="0.52" stop-color="#d5d8d4"/>
      <stop offset="0.562" stop-color="#c0c2c0"/>
      <stop offset="0.612" stop-color="#b0b1b0"/>
      <stop offset="0.673" stop-color="#a5a6a4"/>
      <stop offset="0.76" stop-color="#9f9f9e"/>
      <stop offset="1" stop-color="#9d9d9c"/>
    </linearGradient>
    <linearGradient id="Безымянный_градиент_96" data-name="Безымянный градиент 96" x1="9.916" y1="286.85" x2="107.822" y2="286.85" gradientUnits="userSpaceOnUse">
      <stop offset="0" stop-color="#9d9d9c"/>
      <stop offset="0.088" stop-color="#9f9f9e" stop-opacity="0.977"/>
      <stop offset="0.168" stop-color="#a3a4a2" stop-opacity="0.907"/>
      <stop offset="0.245" stop-color="#abacaa" stop-opacity="0.789"/>
      <stop offset="0.321" stop-color="#b6b7b5" stop-opacity="0.623"/>
      <stop offset="0.394" stop-color="#c4c6c4" stop-opacity="0.409"/>
      <stop offset="0.466" stop-color="#d5d8d5" stop-opacity="0.151"/>
      <stop offset="0.503" stop-color="#dfe3df" stop-opacity="0"/>
      <stop offset="0.517" stop-color="#dbdfdb" stop-opacity="0.057"/>
      <stop offset="0.599" stop-color="#c8cbc8" stop-opacity="0.343"/>
      <stop offset="0.681" stop-color="#b9bab8" stop-opacity="0.58"/>
      <stop offset="0.762" stop-color="#adaeac" stop-opacity="0.764"/>
      <stop offset="0.843" stop-color="#a4a4a3" stop-opacity="0.895"/>
      <stop offset="0.923" stop-color="#9f9f9e" stop-opacity="0.974"/>
      <stop offset="1" stop-color="#9d9d9c"/>
    </linearGradient>
    <radialGradient id="Безымянный_градиент_17" data-name="Безымянный градиент 17" cx="59.58" cy="306.06" r="54.898" gradientUnits="userSpaceOnUse">
      <stop offset="0" stop-color="#fcea51"/>
      <stop offset="0.309" stop-color="#fcea50" stop-opacity="0.992"/>
      <stop offset="0.446" stop-color="#fcea4f" stop-opacity="0.963"/>
      <stop offset="0.55" stop-color="#fcea4b" stop-opacity="0.912"/>
      <stop offset="0.637" stop-color="#fcea47" stop-opacity="0.841"/>
      <stop offset="0.713" stop-color="#fcea41" stop-opacity="0.748"/>
      <stop offset="0.782" stop-color="#fcea39" stop-opacity="0.633"/>
      <stop offset="0.845" stop-color="#fcea30" stop-opacity="0.496"/>
      <stop offset="0.904" stop-color="#fcea26" stop-opacity="0.338"/>
      <stop offset="0.957" stop-color="#fcea1b" stop-opacity="0.164"/>
      <stop offset="1" stop-color="#fcea10" stop-opacity="0"/>
    </radialGradient>
    <radialGradient id="Безымянный_градиент_34" data-name="Безымянный градиент 34" cx="60.498" cy="309.95" r="56.802" gradientTransform="translate(-3.379 -63.135) scale(1.029 1.172)" gradientUnits="userSpaceOnUse">
      <stop offset="0" stop-color="#fcea51"/>
      <stop offset="0.374" stop-color="#fcea51" stop-opacity="0.993"/>
      <stop offset="0.508" stop-color="#fcea4f" stop-opacity="0.966"/>
      <stop offset="0.604" stop-color="#fcea4c" stop-opacity="0.919"/>
      <stop offset="0.682" stop-color="#fcea47" stop-opacity="0.852"/>
      <stop offset="0.748" stop-color="#fcea42" stop-opacity="0.764"/>
      <stop offset="0.807" stop-color="#fcea3b" stop-opacity="0.656"/>
      <stop offset="0.86" stop-color="#fcea32" stop-opacity="0.527"/>
      <stop offset="0.909" stop-color="#fcea29" stop-opacity="0.378"/>
      <stop offset="0.954" stop-color="#fcea1d" stop-opacity="0.207"/>
      <stop offset="0.995" stop-color="#fcea12" stop-opacity="0.025"/>
      <stop offset="1" stop-color="#fcea10" stop-opacity="0"/>
    </radialGradient>
    <radialGradient id="Безымянный_градиент_29" data-name="Безымянный градиент 29" cx="59.58" cy="306.06" r="50.563" xlink:href="#Безымянный_градиент_17"/>
    <linearGradient id="Безымянный_градиент_49" data-name="Безымянный градиент 49" x1="9.916" y1="286.85" x2="107.822" y2="286.85" gradientUnits="userSpaceOnUse">
      <stop offset="0" stop-color="#f9d633" stop-opacity="0"/>
      <stop offset="0.038" stop-color="#fadb2b" stop-opacity="0.164"/>
      <stop offset="0.078" stop-color="#fadf24" stop-opacity="0.306"/>
      <stop offset="0.122" stop-color="#fbe21e" stop-opacity="0.429"/>
      <stop offset="0.169" stop-color="#fbe519" stop-opacity="0.528"/>
      <stop offset="0.222" stop-color="#fce715" stop-opacity="0.605"/>
      <stop offset="0.284" stop-color="#fce912" stop-opacity="0.659"/>
      <stop offset="0.36" stop-color="#fcea10" stop-opacity="0.691"/>
      <stop offset="0.503" stop-color="#fcea10" stop-opacity="0.7"/>
      <stop offset="0.602" stop-color="#fcea11" stop-opacity="0.688"/>
      <stop offset="0.678" stop-color="#fce913" stop-opacity="0.649"/>
      <stop offset="0.746" stop-color="#fce716" stop-opacity="0.585"/>
      <stop offset="0.809" stop-color="#fbe41a" stop-opacity="0.493"/>
      <stop offset="0.869" stop-color="#fbe120" stop-opacity="0.375"/>
      <stop offset="0.927" stop-color="#fadd28" stop-opacity="0.229"/>
      <stop offset="0.982" stop-color="#f9d830" stop-opacity="0.06"/>
      <stop offset="1" stop-color="#f9d633" stop-opacity="0"/>
    </linearGradient>
    <linearGradient id="Безымянный_градиент_28" data-name="Безымянный градиент 28" x1="9.916" y1="286.85" x2="107.822" y2="286.85" gradientUnits="userSpaceOnUse">
      <stop offset="0" stop-color="#fcea10"/>
      <stop offset="0.087" stop-color="#fbea12" stop-opacity="0.987"/>
      <stop offset="0.165" stop-color="#f9ea19" stop-opacity="0.946"/>
      <stop offset="0.241" stop-color="#f6e925" stop-opacity="0.878"/>
      <stop offset="0.315" stop-color="#f1e935" stop-opacity="0.782"/>
      <stop offset="0.387" stop-color="#ebe849" stop-opacity="0.659"/>
      <stop offset="0.458" stop-color="#e3e763" stop-opacity="0.51"/>
      <stop offset="0.503" stop-color="#dee675" stop-opacity="0.4"/>
      <stop offset="0.527" stop-color="#e1e66c" stop-opacity="0.456"/>
      <stop offset="0.607" stop-color="#e9e750" stop-opacity="0.621"/>
      <stop offset="0.687" stop-color="#f0e839" stop-opacity="0.757"/>
      <stop offset="0.767" stop-color="#f5e927" stop-opacity="0.864"/>
      <stop offset="0.846" stop-color="#f9ea1a" stop-opacity="0.939"/>
      <stop offset="0.924" stop-color="#fbea13" stop-opacity="0.985"/>
      <stop offset="1" stop-color="#fcea10"/>
    </linearGradient>
    <linearGradient id="Безымянный_градиент_37" data-name="Безымянный градиент 37" x1="52.668" y1="63.692" x2="66.563" y2="63.692" gradientUnits="userSpaceOnUse">
      <stop offset="0.003" stop-color="#4e5657"/>
      <stop offset="0.031" stop-color="#727777"/>
      <stop offset="0.061" stop-color="#8f9292"/>
      <stop offset="0.09" stop-color="#a4a5a6"/>
      <stop offset="0.118" stop-color="#b1b1b1"/>
      <stop offset="0.145" stop-color="#b5b5b5"/>
      <stop offset="0.179" stop-color="#a9a9a9"/>
      <stop offset="0.315" stop-color="#7d7e7e"/>
      <stop offset="0.452" stop-color="#595a5a"/>
      <stop offset="0.588" stop-color="#3d3e3e"/>
      <stop offset="0.725" stop-color="#292a2b"/>
      <stop offset="0.862" stop-color="#1d1e1f"/>
      <stop offset="1" stop-color="#191a1b"/>
    </linearGradient>
    <linearGradient id="Безымянный_градиент_46" data-name="Безымянный градиент 46" x1="40.931" y1="127.959" x2="78.659" y2="127.959" gradientUnits="userSpaceOnUse">
      <stop offset="0.003" stop-color="#4e5657"/>
      <stop offset="0.106" stop-color="#505859"/>
      <stop offset="0.144" stop-color="#575e5f"/>
      <stop offset="0.17" stop-color="#62696a"/>
      <stop offset="0.192" stop-color="#737879"/>
      <stop offset="0.21" stop-color="#898d8d"/>
      <stop offset="0.226" stop-color="#a4a5a5"/>
      <stop offset="0.235" stop-color="#b5b5b5"/>
      <stop offset="0.302" stop-color="#979797"/>
      <stop offset="0.404" stop-color="#717171"/>
      <stop offset="0.509" stop-color="#515152"/>
      <stop offset="0.618" stop-color="#38393a"/>
      <stop offset="0.732" stop-color="#272829"/>
      <stop offset="0.855" stop-color="#1c1d1e"/>
      <stop offset="1" stop-color="#191a1b"/>
    </linearGradient>
    <linearGradient id="Безымянный_градиент_55" data-name="Безымянный градиент 55" x1="44.259" y1="176.727" x2="44.259" y2="140.247" gradientUnits="userSpaceOnUse">
      <stop offset="0.003" stop-color="#babfbc"/>
      <stop offset="0.57" stop-color="#dfe3df"/>
      <stop offset="0.67" stop-color="#dbdfdb"/>
      <stop offset="0.776" stop-color="#ced2ce"/>
      <stop offset="0.885" stop-color="#b9bdba"/>
      <stop offset="0.994" stop-color="#9ca09d"/>
      <stop offset="1" stop-color="#9a9e9b"/>
    </linearGradient>
    <linearGradient id="Безымянный_градиент_57" data-name="Безымянный градиент 57" x1="44.035" y1="221.847" x2="44.035" y2="194.887" gradientUnits="userSpaceOnUse">
      <stop offset="0.003" stop-color="#babfbc"/>
      <stop offset="0.067" stop-color="#cbcfcc"/>
      <stop offset="0.146" stop-color="#d6dbd7"/>
      <stop offset="0.258" stop-color="#dde1dd"/>
      <stop offset="0.57" stop-color="#dfe3df"/>
      <stop offset="0.674" stop-color="#d4d8d4"/>
      <stop offset="0.858" stop-color="#b6bab6"/>
      <stop offset="1" stop-color="#9a9e9b"/>
    </linearGradient>
  </defs>
  <title>home-lamp</title>
  <g id="лампочка-патрон">
    <g id="лампа">
      <path class="cls-1" d="M62.1,348.087c-15.862-.249-32.375-7.4-42.01-19.465-4.876-6.107-16.6-29.783-5.632-50.028,6.44-11.89,12.006-19.8,14.186-26.957,3.824-12.564,1.831-19.92,4.715-24.255,2.235-3.413,10.481-.733,27.667-1.291,21.7.983,23.492-3.067,25,7.152.423,28.525,13.323,34.543,19.116,49.474C115.152,316.765,96.328,346.5,62.1,348.087Z"/>
      <path class="cls-2" d="M61.97,339.58c-13.76-.294-27.567-6.66-35.236-16.264-2.629-3.293-14.04-23.611-4.8-40.672,2.052-3.788,4.066-7.252,5.843-10.308,4.05-6.966,7.249-12.468,9-18.223a78.007,78.007,0,0,0,3.07-17.222c.077-.893.163-1.889.263-2.763,1.194.026,2.646.1,4.275.185,3.134.161,7.035.361,11.71.361,1.624,0,3.262-.024,4.874-.073,2.547.111,5.023.164,7.558.164,2.65,0,4.909-.06,6.724-.108.836-.023,1.6-.043,2.294-.055.572,21.037,7.661,31.619,13.379,40.153a58.243,58.243,0,0,1,6.159,10.714c4.156,14.456,2.395,28.547-4.849,38.712C85.628,333.452,74.887,338.914,61.97,339.58Z"/>
      <g>
        <line class="cls-3" x1="50.859" y1="227.559" x2="50.859" y2="252.349"/>
        <line class="cls-3" x1="67.518" y1="227.559" x2="67.806" y2="253.335"/>
        <line class="cls-3" x1="61.99" y1="227.545" x2="62.213" y2="247.548"/>
        <line class="cls-3" x1="56.423" y1="227.559" x2="56.646" y2="247.562"/>
        <path class="cls-4" d="M59.213,246.511a9.989,9.989,0,0,0-8.42,15.38,10.359,10.359,0,0,0,.94,1.24,1.494,1.494,0,0,1,1.02-1,8.44,8.44,0,0,1-2.12-5.63,8.58,8.58,0,0,1,17.16,0,8.5,8.5,0,0,1-1.39,4.68,9.645,9.645,0,0,1-.88,1.12,1.851,1.851,0,0,1,.76,1.26,9.82,9.82,0,0,0,1.06-1.26,9.986,9.986,0,0,0-8.13-15.79Zm4.36,17.38a8.739,8.739,0,0,1-1.38.66,8.649,8.649,0,0,1-2.98.53,8.416,8.416,0,0,1-3.48-.74,8.217,8.217,0,0,1-1.47-.84,1.993,1.993,0,0,1,.06.49,2.328,2.328,0,0,1-.26,1.08,9.31,9.31,0,0,0,1.26.64,9.942,9.942,0,0,0,7.34.17,8.937,8.937,0,0,0,1.3-.59,2.206,2.206,0,0,1-.4-1.3A.34.34,0,0,1,63.573,263.891Z"/>
        <ellipse class="cls-3" cx="58.725" cy="284.488" rx="4.736" ry="1.888"/>
        <path class="cls-3" d="M59.211,247.215c3.987-.326,7.584,3.528,7.584,3.528-.288,2.832-3.943,5.187-7.411,5.188-2.58,0-7.122-1.088-7.405-5.251-.013-.183,0,.184,0,0C51.979,250.68,53.643,247.671,59.211,247.215Z"/>
        <path class="cls-4" d="M52.943,260.691a2.439,2.439,0,0,0-1.07.25,2.965,2.965,0,0,0-1.08.95,10.359,10.359,0,0,0,.94,1.24,1.494,1.494,0,0,1,1.02-1,1.225,1.225,0,0,1,.19-.02,1.531,1.531,0,0,1,1.32,1.39,1.993,1.993,0,0,1,.06.49,2.328,2.328,0,0,1-.26,1.08,9.31,9.31,0,0,0,1.26.64,3.647,3.647,0,0,0,.41-1.37c0-.12.01-.23.01-.35A3.08,3.08,0,0,0,52.943,260.691Z"/>
        <path class="cls-4" d="M66.4,261.181a2.443,2.443,0,0,0-1.46-.49,3.08,3.08,0,0,0-2.79,3.3,3.691,3.691,0,0,0,.51,1.89,8.937,8.937,0,0,0,1.3-.59,2.206,2.206,0,0,1-.4-1.3.34.34,0,0,1,.01-.1c.03-.98.65-1.78,1.37-1.78a1,1,0,0,1,.58.19,1.851,1.851,0,0,1,.76,1.26,9.82,9.82,0,0,0,1.06-1.26A2.957,2.957,0,0,0,66.4,261.181Z"/>
        <rect class="cls-3" x="56.535" y="265.711" width="4.937" height="17.241"/>
        <path class="cls-3" d="M51.435,261.927,40.942,300.656s.407.727,4.3,1.207c.688.085,5.424-.48,5.424-.48a32.973,32.973,0,0,0,8.058,1.488,40.561,40.561,0,0,0,7.014-1.152,31.5,31.5,0,0,0,6.288.5,18.131,18.131,0,0,0,6.192-1.872v-.658L66.283,261.076"/>
        <path class="cls-5" d="M40.942,300.656s.407-4.057,4.3-4.537c.688-.085,5.424.48,5.424.48a32.973,32.973,0,0,1,8.058-1.488,40.561,40.561,0,0,1,7.014,1.152,31.582,31.582,0,0,1,6.288-.5,9.645,9.645,0,0,1,6.192,3.872v.658"/>
        <line class="cls-5" x1="54.886" y1="285.553" x2="46.007" y2="301.475"/>
        <line class="cls-5" x1="62.795" y1="286.43" x2="72.813" y2="302.073"/>
      </g>
      <path class="cls-6" d="M62.1,348.087c-15.862-.249-32.375-7.4-42.01-19.465-4.876-6.107-16.6-29.783-5.632-50.028,6.44-11.89,12.006-19.8,14.186-26.957,3.824-12.564,1.831-19.92,4.715-24.255,2.235-3.413,10.481-.733,27.667-1.291,21.7.983,23.492-3.067,25,7.152.423,28.525,13.323,34.543,19.116,49.474C115.152,316.765,96.328,346.5,62.1,348.087Z"/>
      <path class="cls-7" d="M61.97,339.58c-13.76-.294-27.567-6.66-35.236-16.264-2.629-3.293-14.04-23.611-4.8-40.672,2.052-3.788,4.066-7.252,5.843-10.308,4.05-6.966,7.249-12.468,9-18.223a78.007,78.007,0,0,0,3.07-17.222c.077-.893.163-10.031.263-10.906,1.194.027,2.646.1,4.275.186,3.134.161,7.035.361,11.71.361,1.624,0,3.262-.025,4.874-.073,2.547.11,5.023.164,7.558.164,2.65,0,4.909-.06,6.724-.108.836-.023,1.6-.043,2.294-.055.572,21.037,7.661,39.761,13.379,48.295a58.243,58.243,0,0,1,6.159,10.714c4.156,14.456,2.395,28.547-4.849,38.712C85.628,333.452,74.887,338.914,61.97,339.58Z"/>
    </g>
    <g id="лампа_горит" data-name="лампа горит">
      <ellipse class="cls-8" cx="59.58" cy="306.06" rx="55.296" ry="54.497"/>
      <ellipse class="cls-9" cx="58.856" cy="300.232" rx="58.856" ry="66.105"/>
      <ellipse class="cls-10" cx="59.58" cy="306.06" rx="50.93" ry="50.194"/>
      <path class="cls-11" d="M62.1,348.087c-15.862-.249-32.375-7.4-42.01-19.465-4.876-6.107-16.6-29.783-5.632-50.028,6.44-11.89,12.006-19.8,14.186-26.957,3.824-12.564,1.831-19.92,4.715-24.255,2.235-3.413,10.481-.733,27.667-1.291,21.7.983,23.492-3.067,25,7.152.423,28.525,13.323,34.543,19.116,49.474C115.152,316.765,96.328,346.5,62.1,348.087Z"/>
      <path class="cls-12" d="M61.97,339.58c-13.76-.294-27.567-6.66-35.236-16.264-2.629-3.293-14.04-23.611-4.8-40.672,2.052-3.788,4.066-7.252,5.843-10.308,4.05-6.966,7.249-12.468,9-18.223a78.007,78.007,0,0,0,3.07-17.222c.077-.893.163-1.889.263-2.763,1.194.026,2.646.1,4.275.185,3.134.161,7.035.361,11.71.361,1.624,0,3.262-.024,4.874-.073,2.547.111,5.023.164,7.558.164,2.65,0,4.909-.06,6.724-.108.836-.023,1.6-.043,2.294-.055.572,21.037,7.661,31.619,13.379,40.153a58.243,58.243,0,0,1,6.159,10.714c4.156,14.456,2.395,28.547-4.849,38.712C85.628,333.452,74.887,338.914,61.97,339.58Z"/>
      <path class="cls-13" d="M62.1,348.087c-15.862-.249-32.375-7.4-42.01-19.465-4.876-6.107-16.6-29.783-5.632-50.028,6.44-11.89,12.006-19.8,14.186-26.957,3.824-12.564,1.831-19.92,4.715-24.255,2.235-3.413,10.481-.733,27.667-1.291,21.7.983,23.492-3.067,25,7.152.423,28.525,13.323,34.543,19.116,49.474C115.152,316.765,96.328,346.5,62.1,348.087Z"/>
      <path class="cls-14" d="M61.97,339.58c-13.76-.294-27.567-6.66-35.236-16.264-2.629-3.293-14.04-23.611-4.8-40.672,2.052-3.788,4.066-7.252,5.843-10.308,4.05-6.966,7.249-12.468,9-18.223a78.007,78.007,0,0,0,3.07-17.222c.077-.893.163-10.031.263-10.906,1.194.027,2.646.1,4.275.186,3.134.161,7.035.361,11.71.361,1.624,0,3.262-.025,4.874-.073,2.547.11,5.023.164,7.558.164,2.65,0,4.909-.06,6.724-.108.836-.023,1.6-.043,2.294-.055.572,21.037,7.661,39.761,13.379,48.295a58.243,58.243,0,0,1,6.159,10.714c4.156,14.456,2.395,28.547-4.849,38.712C85.628,333.452,74.887,338.914,61.97,339.58Z"/>
    </g>
    <g id="патрон">
      <rect class="cls-15" x="52.668" width="13.895" height="127.383"/>
      <path class="cls-16" d="M52.307,127.959H67.955A26.544,26.544,0,0,1,94.5,154.5V175.1a0,0,0,0,1,0,0H25.763a0,0,0,0,1,0,0V154.5A26.544,26.544,0,0,1,52.307,127.959Z"/>
      <rect class="cls-17" x="40.931" y="126.231" width="37.728" height="3.456"/>
      <path class="cls-18" d="M46.011,140.247h1.344a4.392,4.392,0,0,1,4.392,4.392v29.568a2.52,2.52,0,0,1-2.52,2.52H39.291a2.52,2.52,0,0,1-2.52-2.52v-24.72a9.24,9.24,0,0,1,9.24-9.24Z"/>
      <rect class="cls-16" x="23.651" y="172.599" width="72" height="22.464"/>
      <path class="cls-19" d="M91.03,175.1H83.372s1.63-12.7.648-16.608c-.933-3.72-6.153-14.1-6.153-14.1l8.725-.743s3.949,9.206,4.772,13.118C92.116,160.335,91.03,175.1,91.03,175.1Z"/>
      <path class="cls-16" d="M96.336,227.561s-27.3,1.5-36.685,1.5c-9.48,0-37.344-2.128-37.344-2.128s-1.881-2.141-.576-7.1,4.032-5.568,5.568-13.056a25.861,25.861,0,0,0-.192-11.712H91.629s-.979,7.349,0,11.712c.767,3.416,3.569,9.21,4.79,14.016C97.585,225.38,96.336,227.561,96.336,227.561Z"/>
      <polygon class="cls-20" points="51.747 228.764 36.323 227.789 36.323 221.847 51.747 221.847 51.747 228.764"/>
      <rect class="cls-20" x="36.323" y="172.887" width="15.424" height="21.696"/>
      <rect class="cls-21" x="36.323" y="194.887" width="15.424" height="26.96"/>
      <rect class="cls-19" x="84.748" y="172.599" width="6.881" height="22.464"/>
      <polygon class="cls-19" points="90.909 227.848 83.363 228.224 83.363 194.599 90.909 194.599 90.909 227.848"/>
    </g>
  </g>
</svg>
