<svg id="power-plug" xmlns="http://www.w3.org/2000/svg" xmlns:xlink="http://www.w3.org/1999/xlink" width="82.976mm" height="102.848mm" viewBox="0 0 235.208 291.539">
  <defs>
    <style>
      .cls-1, .cls-14, .cls-17, .cls-19, .cls-2, .cls-3, .cls-4 {
        fill: none;
      }

      .cls-1 {
        stroke: blue;
      }

      .cls-1, .cls-2, .cls-3, .cls-4 {
        stroke-linecap: round;
      }

      .cls-1, .cls-14, .cls-17, .cls-18, .cls-19, .cls-2, .cls-21, .cls-22, .cls-3, .cls-4, .cls-5 {
        stroke-miterlimit: 10;
      }

      .cls-1, .cls-2, .cls-3 {
        stroke-width: 4.252px;
      }

      .cls-2 {
        stroke: #78461e;
      }

      .cls-3 {
        stroke: #ff0;
      }

      .cls-4 {
        stroke: #007d00;
        stroke-width: 2.126px;
      }

      .cls-5 {
        fill: #c1c1c1;
      }

      .cls-21, .cls-22, .cls-5 {
        stroke: #000;
        stroke-width: 0.1px;
      }

      .cls-6 {
        fill: url(#Безымянный_градиент_13);
      }

      .cls-7 {
        fill: url(#Безымянный_градиент_13-2);
      }

      .cls-8 {
        fill: url(#Безымянный_градиент_13-3);
      }

      .cls-9 {
        fill: url(#Безымянный_градиент_13-4);
      }

      .cls-10 {
        fill: #191818;
      }

      .cls-11 {
        fill: url(#Безымянный_градиент_6);
      }

      .cls-12 {
        fill: url(#Безымянный_градиент_6-2);
      }

      .cls-13 {
        fill: url(#Безымянный_градиент_7);
      }

      .cls-14 {
        stroke: url(#Безымянный_градиент_8);
      }

      .cls-15 {
        fill: url(#Безымянный_градиент_9);
      }

      .cls-16 {
        fill: url(#Безымянный_градиент_10);
      }

      .cls-17 {
        stroke: #191919;
      }

      .cls-18 {
        stroke-width: 0.5px;
        fill: url(#Безымянный_градиент_11);
        stroke: url(#Безымянный_градиент_12);
      }

      .cls-19 {
        stroke: #333;
        stroke-width: 17.008px;
      }

      .cls-20 {
        fill: #141314;
      }

      .cls-21 {
        fill: url(#Безымянный_градиент_13-5);
      }

      .cls-22 {
        fill: url(#Безымянный_градиент_13-6);
      }

      .cls-23 {
        fill: #3a3a3a;
      }

      .cls-24 {
        fill: url(#Безымянный_градиент_64);
      }
    </style>
    <linearGradient id="Безымянный_градиент_13" data-name="Безымянный градиент 13" x1="-1012.082" y1="1796.799" x2="-997.507" y2="1771.556" gradientTransform="translate(-1761.016 -973.836) rotate(-90)" gradientUnits="userSpaceOnUse">
      <stop offset="0" stop-color="#303030"/>
      <stop offset="0.245" stop-color="#242424"/>
      <stop offset="0.622" stop-color="#181818"/>
      <stop offset="1" stop-color="#141414"/>
    </linearGradient>
    <linearGradient id="Безымянный_градиент_13-2" x1="-980.482" y1="1788.52" x2="-975.823" y2="1780.45" xlink:href="#Безымянный_градиент_13"/>
    <linearGradient id="Безымянный_градиент_13-3" x1="-1012.082" y1="1851.122" x2="-997.507" y2="1825.878" xlink:href="#Безымянный_градиент_13"/>
    <linearGradient id="Безымянный_градиент_13-4" x1="-980.482" y1="1842.843" x2="-975.823" y2="1834.773" xlink:href="#Безымянный_градиент_13"/>
    <linearGradient id="Безымянный_градиент_6" data-name="Безымянный градиент 6" x1="-1061.666" y1="1786.731" x2="-1074.492" y2="1773.905" gradientTransform="translate(-1761.079 -974.347) rotate(-90)" gradientUnits="userSpaceOnUse">
      <stop offset="0"/>
      <stop offset="1" stop-color="#696969"/>
    </linearGradient>
    <linearGradient id="Безымянный_градиент_6-2" x1="-1082.92" y1="1847.759" x2="-1063.175" y2="1847.759" xlink:href="#Безымянный_градиент_6"/>
    <radialGradient id="Безымянный_градиент_7" data-name="Безымянный градиент 7" cx="-1100.887" cy="1811.629" r="17.325" gradientTransform="translate(-1761.016 -5085.583) rotate(-90) scale(4.7 1)" gradientUnits="userSpaceOnUse">
      <stop offset="0" stop-color="#3b3b3b"/>
      <stop offset="1"/>
    </radialGradient>
    <radialGradient id="Безымянный_градиент_8" data-name="Безымянный градиент 8" cx="-1097.377" cy="1811.629" r="16.187" gradientTransform="translate(-1761.079 -974.347) rotate(-90)" gradientUnits="userSpaceOnUse">
      <stop offset="0.027" stop-color="#363636"/>
      <stop offset="0.278" stop-color="#2e2e2e"/>
      <stop offset="0.669" stop-color="#181818"/>
      <stop offset="1"/>
    </radialGradient>
    <linearGradient id="Безымянный_градиент_9" data-name="Безымянный градиент 9" x1="-1126.676" y1="1811.314" x2="-1097.88" y2="1811.314" gradientTransform="translate(-1761.016 -973.836) rotate(-90)" gradientUnits="userSpaceOnUse">
      <stop offset="0" stop-color="#3b3b3b"/>
      <stop offset="0.219" stop-color="#242424"/>
      <stop offset="0.479" stop-color="#101010"/>
      <stop offset="0.74" stop-color="#040404"/>
      <stop offset="1"/>
    </linearGradient>
    <linearGradient id="Безымянный_градиент_10" data-name="Безымянный градиент 10" x1="-1119.084" y1="1958.942" x2="-1111.376" y2="1958.942" gradientTransform="translate(-1645.362 -2056.826) rotate(-90) scale(1.974 0.866)" gradientUnits="userSpaceOnUse">
      <stop offset="0" stop-color="#3d3d3d"/>
      <stop offset="0.036" stop-color="#3b3b3b"/>
      <stop offset="0.641" stop-color="#212121"/>
      <stop offset="1" stop-color="#171717"/>
    </linearGradient>
    <linearGradient id="Безымянный_градиент_11" data-name="Безымянный градиент 11" x1="-1052.973" y1="1817.35" x2="-1052.973" y2="1805.278" gradientTransform="translate(-1761.079 -974.347) rotate(-90)" gradientUnits="userSpaceOnUse">
      <stop offset="0" stop-color="#e0e0e0"/>
      <stop offset="1" stop-color="#1a1a1a"/>
    </linearGradient>
    <linearGradient id="Безымянный_градиент_12" data-name="Безымянный градиент 12" x1="-1079.017" y1="1811.314" x2="-1026.929" y2="1811.314" gradientTransform="translate(-1761.079 -974.347) rotate(-90)" gradientUnits="userSpaceOnUse">
      <stop offset="0"/>
      <stop offset="1" stop-color="#2e2e2e"/>
    </linearGradient>
    <linearGradient id="Безымянный_градиент_13-5" x1="-1159.468" y1="1830.02" x2="-1134.509" y2="1786.789" xlink:href="#Безымянный_градиент_13"/>
    <linearGradient id="Безымянный_градиент_13-6" x1="-1324.624" y1="1968.638" x2="-1295.157" y2="1917.6" gradientTransform="translate(-1761.016 -1140.617) rotate(-90)" xlink:href="#Безымянный_градиент_13"/>
    <linearGradient id="Безымянный_градиент_64" data-name="Безымянный градиент 64" x1="184.034" y1="421.325" x2="184.034" y2="388.607" gradientTransform="matrix(1, 0, 0, -1, 0, 473.327)" gradientUnits="userSpaceOnUse">
      <stop offset="0" stop-color="#606060"/>
      <stop offset="0.488" stop-color="#5e5e5e"/>
      <stop offset="0.688" stop-color="#575757"/>
      <stop offset="0.836" stop-color="#4b4b4b"/>
      <stop offset="0.957" stop-color="#3a3939"/>
      <stop offset="1" stop-color="#323131"/>
    </linearGradient>
  </defs>
  <title>home-power-plug</title>
  <g id="power-plug-2">
    <polyline class="cls-1" points="43.344 228.919 43.344 247.97 43.344 270.416 43.344 289.278"/>
    <polyline class="cls-2" points="48.339 229.044 48.339 248.095 48.339 270.541 48.339 289.403"/>
    <g>
      <polyline class="cls-3" points="53.333 228.919 53.333 247.97 53.333 270.416 53.333 289.278"/>
      <line class="cls-4" x1="53.333" y1="259.098" x2="53.333" y2="290.457"/>
    </g>
    <g>
      <g>
        <path class="cls-5" d="M18.233,55.684V3.728A3.166,3.166,0,0,1,21.4.561h3.559a3.083,3.083,0,0,1,3.083,3.083h0v52.04a.708.708,0,0,1-.708.708H18.941a.708.708,0,0,1-.708-.708Z" transform="translate(-0.063 -0.511)"/>
        <path class="cls-6" d="M20.968,56.393V5.676a.249.249,0,0,1,.25-.25H25.14a.166.166,0,0,1,.166.166h0v50.8H20.968Z" transform="translate(-0.063 -0.511)"/>
        <path class="cls-7" d="M18.233,5.339v.378h9.808v-.5A4.666,4.666,0,0,0,23.389.561h-.377A4.791,4.791,0,0,0,18.233,5.339Z" transform="translate(-0.063 -0.511)"/>
      </g>
      <g>
        <path class="cls-5" d="M72.556,55.684V3.728A3.166,3.166,0,0,1,75.722.561h3.559a3.083,3.083,0,0,1,3.083,3.083h0v52.04a.708.708,0,0,1-.709.708H73.264a.708.708,0,0,1-.708-.708Z" transform="translate(-0.063 -0.511)"/>
        <path class="cls-8" d="M75.291,56.393V5.676a.249.249,0,0,1,.25-.25h3.921a.166.166,0,0,1,.167.166h0v50.8H75.291Z" transform="translate(-0.063 -0.511)"/>
        <path class="cls-9" d="M72.556,5.339v.378h9.808v-.5A4.666,4.666,0,0,0,77.711.561h-.377A4.792,4.792,0,0,0,72.556,5.339Z" transform="translate(-0.063 -0.511)"/>
      </g>
    </g>
    <path class="cls-10" d="M101.163,54.129V80.41a34.132,34.132,0,0,1-1.509,8.928L74,108.955H27.224L1.572,89.338S.063,83.876.063,81.416V54.129a1.006,1.006,0,0,1,1.006-1.006h99.088a1.006,1.006,0,0,1,1.006,1.006Z" transform="translate(-0.063 -0.511)"/>
    <polygon class="cls-11" points="27.161 88.828 27.161 106.935 27.161 108.444 1.509 88.828 3.018 88.828 27.161 88.828"/>
    <polygon class="cls-12" points="73.939 88.828 73.939 106.935 73.77 108.573 99.591 88.828 98.082 88.828 73.939 88.828"/>
    <path class="cls-13" d="M73.924,53.123l-.348,70.921H27.3V53.123Z" transform="translate(-0.063 -0.511)"/>
    <line class="cls-14" x1="27.664" y1="123.03" x2="73.436" y2="123.03"/>
    <path class="cls-15" d="M82.678,138.442h0c0,.648-.127,1.913-.127,1.913L70.972,152.84H30.619l-12.588-12.2s-.112-1.7-.112-2.2h0c0-.4.076-1.858.076-1.858l9.229-12.54H73.5l9.01,12.192S82.678,137.693,82.678,138.442Z" transform="translate(-0.063 -0.511)"/>
    <rect class="cls-16" x="30.053" y="137.114" width="40.49" height="15.215" rx="0.333"/>
    <path class="cls-17" d="M57.654,54.17l-.125,50.39a.376.376,0,0,1-.377.371H44.074c-.207,0-.377-.167-.377-.835V53.972Z" transform="translate(-0.063 -0.511)"/>
    <rect class="cls-18" x="44.2" y="52.832" width="12.072" height="51.588" rx="0.25"/>
    <polyline class="cls-19" points="48.434 199.421 48.434 218.472 48.434 240.918 48.434 259.78"/>
    <g>
      <polygon class="cls-20" points="64.813 153.005 60.285 200.113 36.141 200.113 32.055 152.329 64.813 153.005"/>
      <path class="cls-21" d="M70.972,152.84l-.743,1.509-18.835,1.389.04,1.6L68.5,158.741l-1.812,11.11-14.549.535-.183,1.123,14.481,1.631-1.949,11.952-13.257.987-.2,1.214,11.249,1.472-1.934,11.859H36.2l-.6-4.88c7.181-.328,12.911-.936,12.911-.936l-.047-1.65s-6.766-.148-14.284-1.05L33.1,180.324l15.218-.75-.088-2.543-16.266-.3-1.379-11.149,17.443-.2-.4-3.244-16.258-.62-1.073-8.68Z" transform="translate(-0.063 -0.511)"/>
    </g>
  </g>
  <g>
    <g>
      <polyline class="cls-1" points="179.01 229.5 179.01 248.371 179.01 270.605 179.01 289.289"/>
      <polyline class="cls-2" points="184.005 229.624 184.005 248.495 184.005 270.729 184.005 289.413"/>
      <g>
        <polyline class="cls-3" points="188.999 229.5 188.999 248.371 188.999 270.605 188.999 289.289"/>
        <line class="cls-4" x1="188.999" y1="259.395" x2="188.999" y2="290.457"/>
      </g>
    </g>
    <polyline class="cls-19" points="184.004 260.092 184.004 109.91 184.004 181.292"/>
    <g>
      <rect class="cls-10" x="134.433" y="94.363" width="100.775" height="11.725" rx="0.72"/>
      <path class="cls-10" d="M229.652,116.637V79.43a34.467,34.467,0,0,0-1.36-8.573L205.157,52H162.966L139.831,70.857a45.369,45.369,0,0,0-1.36,7.605v39.143a45.369,45.369,0,0,0,1.36,7.6l23.135,18.854h42.191l23.135-18.854A34.467,34.467,0,0,0,229.652,116.637Z" transform="translate(-0.063 -0.511)"/>
      <g>
        <polygon class="cls-20" points="202.513 144.501 197.38 200.618 169.892 200.618 165.077 144.768 202.513 144.501"/>
        <path class="cls-22" d="M204.392,142.826l-.09,4.467-19.641,1.4.04,1.877,18.9,1.651-1.812,13.054-16.382.629-.183,1.319,16.313,1.917-1.948,14.043-15.09,1.16-.2,1.426,14.809,1.73-1.547,13.934H169.7l-.833-5.734c7.181-.385,12.911-1.1,12.911-1.1l-.047-1.939a141.1,141.1,0,0,1-14.284-1.233l-1.082-13.846,15.218-.881-.088-2.988-16.266-.351-1.379-13.1,17.443-.233-.4-3.812-17.3-.729-.112-12.892Z" transform="translate(-0.063 -0.511)"/>
      </g>
      <path class="cls-23" d="M212.967,118.673V84.322a2.533,2.533,0,0,0-.08-.631l-1.442-5.611a2.6,2.6,0,0,0-2.52-1.935h-50.1c-1.905,0-1.848.665-2.227,1.669l-1.455,5.945a2.548,2.548,0,0,0-.164.9v34.017a11.91,11.91,0,0,0,2.574,7.39,23.394,23.394,0,0,1,5.248,13.3l.327,6.9a2.585,2.585,0,0,0,2.6,2.446H202.3a2.586,2.586,0,0,0,2.595-2.419l.418-7.167a24.074,24.074,0,0,1,5.179-13.187A11.914,11.914,0,0,0,212.967,118.673Z" transform="translate(-0.063 -0.511)"/>
      <path class="cls-24" d="M205.158,52H162.966L155.1,83.888a.929.929,0,0,0,1,.833h55.874a.929.929,0,0,0,1-.833Z" transform="translate(-0.063 -0.511)"/>
    </g>
  </g>
</svg>
