<svg id="iskra-mini" xmlns="http://www.w3.org/2000/svg" viewBox="0 0 93.97 57.12">
  <defs>
    <style>
      .cls-1 {
        fill: #f2f2f2;
        stroke-width: 0.43px;
      }

      .cls-1, .cls-21 {
        stroke: #000;
      }

      .cls-1, .cls-18, .cls-21 {
        stroke-miterlimit: 10;
      }

      .cls-2 {
        fill: #242424;
      }

      .cls-3 {
        fill: #d1d3d4;
      }

      .cls-4 {
        fill: gray;
      }

      .cls-5 {
        fill: #b4b4b4;
      }

      .cls-6 {
        fill: #231f20;
      }

      .cls-7 {
        fill: #d5d3d5;
      }

      .cls-8 {
        fill: #7b7979;
      }

      .cls-9 {
        fill: #d2d1d3;
      }

      .cls-10 {
        fill: #b7b8b9;
      }

      .cls-11 {
        fill: #d7d3d5;
      }

      .cls-12 {
        fill: #bbffd0;
      }

      .cls-13 {
        fill: #545152;
      }

      .cls-14 {
        fill: #b3b3b3;
      }

      .cls-15 {
        fill: #c8c8c8;
      }

      .cls-16 {
        fill: #969696;
      }

      .cls-17 {
        fill: #966432;
      }

      .cls-18, .cls-21 {
        fill: none;
      }

      .cls-18 {
        stroke: #ffbf00;
        stroke-width: 1.4px;
      }

      .cls-19 {
        font-size: 2px;
        font-family: TrebuchetMS, Trebuchet MS;
      }

      .cls-20 {
        letter-spacing: -0.02em;
      }

      .cls-21 {
        stroke-width: 0.28px;
      }
    </style>
  </defs>
  <title>iskra-mini</title>
  <g id="iskra-mini-2" data-name="iskra-mini">
    <path class="cls-1" d="M93.76,56.91V.21H.21v56.7ZM7.32,38a2.13,2.13,0,1,1,2.12-2.12A2.12,2.12,0,0,1,7.32,38Zm2.12,5.1A2.13,2.13,0,1,1,7.32,41,2.12,2.12,0,0,1,9.44,43.08ZM7.32,30.77a2.13,2.13,0,1,1,2.12-2.13A2.13,2.13,0,0,1,7.32,30.77Zm0-7.22a2.13,2.13,0,1,1,2.12-2.12A2.12,2.12,0,0,1,7.32,23.55ZM79.41,52.27a2.13,2.13,0,1,1,2.13-2.13A2.13,2.13,0,0,1,79.41,52.27Zm7.28-14.41a2.13,2.13,0,1,1,2.13-2.13A2.12,2.12,0,0,1,86.69,37.86ZM88.82,43a2.13,2.13,0,1,1-2.13-2.13A2.13,2.13,0,0,1,88.82,43ZM86.69,23.43a2.13,2.13,0,1,1,2.13-2.13A2.12,2.12,0,0,1,86.69,23.43Zm0-7.22a2.13,2.13,0,1,1,2.13-2.12A2.12,2.12,0,0,1,86.69,16.21ZM86.63,4.83A2.13,2.13,0,1,1,84.5,7,2.12,2.12,0,0,1,86.63,4.83Zm0,43.19a2.13,2.13,0,1,1-2.13,2.12A2.12,2.12,0,0,1,86.63,48ZM79.41,4.83A2.13,2.13,0,1,1,77.28,7,2.13,2.13,0,0,1,79.41,4.83Zm0,28.78a2.13,2.13,0,1,1-2.12,2.12A2.12,2.12,0,0,1,79.4,33.61Zm0,7.21A2.13,2.13,0,1,1,77.28,43,2.13,2.13,0,0,1,79.4,40.82Zm-7.21-36A2.13,2.13,0,1,1,70.07,7,2.13,2.13,0,0,1,72.19,4.83Zm0,43.19a2.13,2.13,0,1,1-2.12,2.12A2.12,2.12,0,0,1,72.19,48ZM65,4.83A2.13,2.13,0,1,1,62.85,7,2.12,2.12,0,0,1,65,4.83ZM65,48a2.13,2.13,0,1,1-2.13,2.12A2.12,2.12,0,0,1,65,48ZM57.76,4.83A2.13,2.13,0,1,1,55.63,7,2.13,2.13,0,0,1,57.76,4.83Zm0,43.19a2.13,2.13,0,1,1-2.13,2.12A2.13,2.13,0,0,1,57.76,48ZM50.54,4.83A2.13,2.13,0,1,1,48.42,7,2.13,2.13,0,0,1,50.54,4.83Zm0,43.19a2.13,2.13,0,1,1-2.12,2.12A2.12,2.12,0,0,1,50.54,48ZM43.33,4.83A2.13,2.13,0,1,1,41.2,7,2.12,2.12,0,0,1,43.33,4.83Zm0,43.19a2.13,2.13,0,1,1-2.13,2.12A2.12,2.12,0,0,1,43.33,48ZM36.11,4.83A2.13,2.13,0,1,1,34,7,2.13,2.13,0,0,1,36.11,4.83Zm0,43.19A2.13,2.13,0,1,1,34,50.14,2.12,2.12,0,0,1,36.11,48ZM28.9,4.83A2.13,2.13,0,1,1,26.77,7,2.12,2.12,0,0,1,28.9,4.83ZM28.9,48a2.13,2.13,0,1,1-2.13,2.12A2.12,2.12,0,0,1,28.9,48ZM21.68,4.83A2.13,2.13,0,1,1,19.55,7,2.13,2.13,0,0,1,21.68,4.83Zm0,43.19a2.13,2.13,0,1,1-2.13,2.12A2.13,2.13,0,0,1,21.68,48ZM14.46,4.83A2.13,2.13,0,1,1,12.34,7,2.13,2.13,0,0,1,14.46,4.83Zm0,43.19a2.13,2.13,0,1,1-2.12,2.12A2.12,2.12,0,0,1,14.46,48ZM7.32,16.34a2.13,2.13,0,1,1,2.12-2.13A2.13,2.13,0,0,1,7.32,16.34ZM7.25,4.83A2.13,2.13,0,1,1,5.12,7,2.12,2.12,0,0,1,7.25,4.83ZM7.25,48a2.13,2.13,0,1,1-2.13,2.12A2.12,2.12,0,0,1,7.25,48Z"/>
    <g id="mega328p">
      <rect class="cls-2" x="51.42" y="22.56" width="19.84" height="19.84" rx="1.09" ry="1.09"/>
      <g>
        <g>
          <g id="path3870-5-4-1-3-9-13-48-41">
            <rect class="cls-3" x="52.8" y="19.32" width="1.14" height="3.24"/>
          </g>
          <g id="rect36057-3-4-8-4-7-5-0-7-5-24-7-7-2-5-48-13-48-41">
            <rect class="cls-4" x="52.8" y="20.85" width="1.14" height="0.36"/>
          </g>
        </g>
        <g>
          <g id="path3870-5-4-1-3-9-13-48-41-2" data-name="path3870-5-4-1-3-9-13-48-41">
            <rect class="cls-3" x="66.46" y="19.32" width="1.14" height="3.24"/>
          </g>
          <g id="rect36057-3-4-8-4-7-5-0-7-5-24-7-7-2-5-48-13-48-41-2" data-name="rect36057-3-4-8-4-7-5-0-7-5-24-7-7-2-5-48-13-48-41">
            <rect class="cls-4" x="66.46" y="20.85" width="1.14" height="0.36"/>
          </g>
        </g>
        <g>
          <g id="path3870-5-4-1-3-9-13-48-41-3" data-name="path3870-5-4-1-3-9-13-48-41">
            <rect class="cls-3" x="55.07" y="19.32" width="1.14" height="3.24"/>
          </g>
          <g id="rect36057-3-4-8-4-7-5-0-7-5-24-7-7-2-5-48-13-48-41-3" data-name="rect36057-3-4-8-4-7-5-0-7-5-24-7-7-2-5-48-13-48-41">
            <rect class="cls-4" x="55.07" y="20.85" width="1.14" height="0.36"/>
          </g>
        </g>
        <g>
          <g id="path3870-5-4-1-3-9-13-48-41-4" data-name="path3870-5-4-1-3-9-13-48-41">
            <rect class="cls-3" x="57.35" y="19.32" width="1.14" height="3.24"/>
          </g>
          <g id="rect36057-3-4-8-4-7-5-0-7-5-24-7-7-2-5-48-13-48-41-4" data-name="rect36057-3-4-8-4-7-5-0-7-5-24-7-7-2-5-48-13-48-41">
            <rect class="cls-4" x="57.35" y="20.85" width="1.14" height="0.36"/>
          </g>
        </g>
        <g>
          <g id="path3870-5-4-1-3-9-13-48-41-5" data-name="path3870-5-4-1-3-9-13-48-41">
            <rect class="cls-3" x="59.63" y="19.32" width="1.14" height="3.24"/>
          </g>
          <g id="rect36057-3-4-8-4-7-5-0-7-5-24-7-7-2-5-48-13-48-41-5" data-name="rect36057-3-4-8-4-7-5-0-7-5-24-7-7-2-5-48-13-48-41">
            <rect class="cls-4" x="59.63" y="20.85" width="1.14" height="0.36"/>
          </g>
        </g>
        <g>
          <g id="path3870-5-4-1-3-9-13-48-41-6" data-name="path3870-5-4-1-3-9-13-48-41">
            <rect class="cls-3" x="61.9" y="19.32" width="1.14" height="3.24"/>
          </g>
          <g id="rect36057-3-4-8-4-7-5-0-7-5-24-7-7-2-5-48-13-48-41-6" data-name="rect36057-3-4-8-4-7-5-0-7-5-24-7-7-2-5-48-13-48-41">
            <rect class="cls-4" x="61.9" y="20.85" width="1.14" height="0.36"/>
          </g>
        </g>
        <g>
          <g id="path3870-5-4-1-3-9-13-48-41-7" data-name="path3870-5-4-1-3-9-13-48-41">
            <rect class="cls-3" x="64.18" y="19.32" width="1.14" height="3.24"/>
          </g>
          <g id="rect36057-3-4-8-4-7-5-0-7-5-24-7-7-2-5-48-13-48-41-7" data-name="rect36057-3-4-8-4-7-5-0-7-5-24-7-7-2-5-48-13-48-41">
            <rect class="cls-4" x="64.18" y="20.85" width="1.14" height="0.36"/>
          </g>
        </g>
        <g>
          <g id="path3870-5-4-1-3-9-13-48-41-8" data-name="path3870-5-4-1-3-9-13-48-41">
            <rect class="cls-3" x="68.73" y="19.32" width="1.14" height="3.24"/>
          </g>
          <g id="rect36057-3-4-8-4-7-5-0-7-5-24-7-7-2-5-48-13-48-41-8" data-name="rect36057-3-4-8-4-7-5-0-7-5-24-7-7-2-5-48-13-48-41">
            <rect class="cls-4" x="68.73" y="20.85" width="1.14" height="0.36"/>
          </g>
        </g>
      </g>
      <g>
        <g>
          <g id="path3870-5-4-1-3-9-13-48-41-9" data-name="path3870-5-4-1-3-9-13-48-41">
            <rect class="cls-3" x="52.8" y="42.41" width="1.14" height="3.24"/>
          </g>
          <g id="rect36057-3-4-8-4-7-5-0-7-5-24-7-7-2-5-48-13-48-41-9" data-name="rect36057-3-4-8-4-7-5-0-7-5-24-7-7-2-5-48-13-48-41">
            <rect class="cls-4" x="52.8" y="43.94" width="1.14" height="0.36"/>
          </g>
        </g>
        <g>
          <g id="path3870-5-4-1-3-9-13-48-41-10" data-name="path3870-5-4-1-3-9-13-48-41">
            <rect class="cls-3" x="66.46" y="42.41" width="1.14" height="3.24"/>
          </g>
          <g id="rect36057-3-4-8-4-7-5-0-7-5-24-7-7-2-5-48-13-48-41-10" data-name="rect36057-3-4-8-4-7-5-0-7-5-24-7-7-2-5-48-13-48-41">
            <rect class="cls-4" x="66.46" y="43.94" width="1.14" height="0.36"/>
          </g>
        </g>
        <g>
          <g id="path3870-5-4-1-3-9-13-48-41-11" data-name="path3870-5-4-1-3-9-13-48-41">
            <rect class="cls-3" x="55.07" y="42.41" width="1.14" height="3.24"/>
          </g>
          <g id="rect36057-3-4-8-4-7-5-0-7-5-24-7-7-2-5-48-13-48-41-11" data-name="rect36057-3-4-8-4-7-5-0-7-5-24-7-7-2-5-48-13-48-41">
            <rect class="cls-4" x="55.07" y="43.94" width="1.14" height="0.36"/>
          </g>
        </g>
        <g>
          <g id="path3870-5-4-1-3-9-13-48-41-12" data-name="path3870-5-4-1-3-9-13-48-41">
            <rect class="cls-3" x="57.35" y="42.41" width="1.14" height="3.24"/>
          </g>
          <g id="rect36057-3-4-8-4-7-5-0-7-5-24-7-7-2-5-48-13-48-41-12" data-name="rect36057-3-4-8-4-7-5-0-7-5-24-7-7-2-5-48-13-48-41">
            <rect class="cls-4" x="57.35" y="43.94" width="1.14" height="0.36"/>
          </g>
        </g>
        <g>
          <g id="path3870-5-4-1-3-9-13-48-41-13" data-name="path3870-5-4-1-3-9-13-48-41">
            <rect class="cls-3" x="59.63" y="42.41" width="1.14" height="3.24"/>
          </g>
          <g id="rect36057-3-4-8-4-7-5-0-7-5-24-7-7-2-5-48-13-48-41-13" data-name="rect36057-3-4-8-4-7-5-0-7-5-24-7-7-2-5-48-13-48-41">
            <rect class="cls-4" x="59.63" y="43.94" width="1.14" height="0.36"/>
          </g>
        </g>
        <g>
          <g id="path3870-5-4-1-3-9-13-48-41-14" data-name="path3870-5-4-1-3-9-13-48-41">
            <rect class="cls-3" x="61.9" y="42.41" width="1.14" height="3.24"/>
          </g>
          <g id="rect36057-3-4-8-4-7-5-0-7-5-24-7-7-2-5-48-13-48-41-14" data-name="rect36057-3-4-8-4-7-5-0-7-5-24-7-7-2-5-48-13-48-41">
            <rect class="cls-4" x="61.9" y="43.94" width="1.14" height="0.36"/>
          </g>
        </g>
        <g>
          <g id="path3870-5-4-1-3-9-13-48-41-15" data-name="path3870-5-4-1-3-9-13-48-41">
            <rect class="cls-3" x="64.18" y="42.41" width="1.14" height="3.24"/>
          </g>
          <g id="rect36057-3-4-8-4-7-5-0-7-5-24-7-7-2-5-48-13-48-41-15" data-name="rect36057-3-4-8-4-7-5-0-7-5-24-7-7-2-5-48-13-48-41">
            <rect class="cls-4" x="64.18" y="43.94" width="1.14" height="0.36"/>
          </g>
        </g>
        <g>
          <g id="path3870-5-4-1-3-9-13-48-41-16" data-name="path3870-5-4-1-3-9-13-48-41">
            <rect class="cls-3" x="68.73" y="42.41" width="1.14" height="3.24"/>
          </g>
          <g id="rect36057-3-4-8-4-7-5-0-7-5-24-7-7-2-5-48-13-48-41-16" data-name="rect36057-3-4-8-4-7-5-0-7-5-24-7-7-2-5-48-13-48-41">
            <rect class="cls-4" x="68.73" y="43.94" width="1.14" height="0.36"/>
          </g>
        </g>
      </g>
      <g>
        <g>
          <g id="path3870-5-4-1-3-9-13-48-41-17" data-name="path3870-5-4-1-3-9-13-48-41">
            <rect class="cls-3" x="48.16" y="23.95" width="3.24" height="1.14"/>
          </g>
          <g id="rect36057-3-4-8-4-7-5-0-7-5-24-7-7-2-5-48-13-48-41-17" data-name="rect36057-3-4-8-4-7-5-0-7-5-24-7-7-2-5-48-13-48-41">
            <rect class="cls-4" x="49.51" y="23.95" width="0.36" height="1.14"/>
          </g>
        </g>
        <g>
          <g id="path3870-5-4-1-3-9-13-48-41-18" data-name="path3870-5-4-1-3-9-13-48-41">
            <rect class="cls-3" x="48.16" y="37.61" width="3.24" height="1.14"/>
          </g>
          <g id="rect36057-3-4-8-4-7-5-0-7-5-24-7-7-2-5-48-13-48-41-18" data-name="rect36057-3-4-8-4-7-5-0-7-5-24-7-7-2-5-48-13-48-41">
            <rect class="cls-4" x="49.51" y="37.61" width="0.36" height="1.14"/>
          </g>
        </g>
        <g>
          <g id="path3870-5-4-1-3-9-13-48-41-19" data-name="path3870-5-4-1-3-9-13-48-41">
            <rect class="cls-3" x="48.16" y="26.22" width="3.24" height="1.14"/>
          </g>
          <g id="rect36057-3-4-8-4-7-5-0-7-5-24-7-7-2-5-48-13-48-41-19" data-name="rect36057-3-4-8-4-7-5-0-7-5-24-7-7-2-5-48-13-48-41">
            <rect class="cls-4" x="49.51" y="26.22" width="0.36" height="1.14"/>
          </g>
        </g>
        <g>
          <g id="path3870-5-4-1-3-9-13-48-41-20" data-name="path3870-5-4-1-3-9-13-48-41">
            <rect class="cls-3" x="48.16" y="28.5" width="3.24" height="1.14"/>
          </g>
          <g id="rect36057-3-4-8-4-7-5-0-7-5-24-7-7-2-5-48-13-48-41-20" data-name="rect36057-3-4-8-4-7-5-0-7-5-24-7-7-2-5-48-13-48-41">
            <rect class="cls-4" x="49.51" y="28.5" width="0.36" height="1.14"/>
          </g>
        </g>
        <g>
          <g id="path3870-5-4-1-3-9-13-48-41-21" data-name="path3870-5-4-1-3-9-13-48-41">
            <rect class="cls-3" x="48.16" y="30.78" width="3.24" height="1.14"/>
          </g>
          <g id="rect36057-3-4-8-4-7-5-0-7-5-24-7-7-2-5-48-13-48-41-21" data-name="rect36057-3-4-8-4-7-5-0-7-5-24-7-7-2-5-48-13-48-41">
            <rect class="cls-4" x="49.51" y="30.78" width="0.36" height="1.14"/>
          </g>
        </g>
        <g>
          <g id="path3870-5-4-1-3-9-13-48-41-22" data-name="path3870-5-4-1-3-9-13-48-41">
            <rect class="cls-3" x="48.16" y="33.05" width="3.24" height="1.14"/>
          </g>
          <g id="rect36057-3-4-8-4-7-5-0-7-5-24-7-7-2-5-48-13-48-41-22" data-name="rect36057-3-4-8-4-7-5-0-7-5-24-7-7-2-5-48-13-48-41">
            <rect class="cls-4" x="49.51" y="33.05" width="0.36" height="1.14"/>
          </g>
        </g>
        <g>
          <g id="path3870-5-4-1-3-9-13-48-41-23" data-name="path3870-5-4-1-3-9-13-48-41">
            <rect class="cls-3" x="48.16" y="35.33" width="3.24" height="1.14"/>
          </g>
          <g id="rect36057-3-4-8-4-7-5-0-7-5-24-7-7-2-5-48-13-48-41-23" data-name="rect36057-3-4-8-4-7-5-0-7-5-24-7-7-2-5-48-13-48-41">
            <rect class="cls-4" x="49.51" y="35.33" width="0.36" height="1.14"/>
          </g>
        </g>
        <g>
          <g id="path3870-5-4-1-3-9-13-48-41-24" data-name="path3870-5-4-1-3-9-13-48-41">
            <rect class="cls-3" x="48.16" y="39.88" width="3.24" height="1.14"/>
          </g>
          <g id="rect36057-3-4-8-4-7-5-0-7-5-24-7-7-2-5-48-13-48-41-24" data-name="rect36057-3-4-8-4-7-5-0-7-5-24-7-7-2-5-48-13-48-41">
            <rect class="cls-4" x="49.51" y="39.88" width="0.36" height="1.14"/>
          </g>
        </g>
      </g>
      <g>
        <g>
          <g id="path3870-5-4-1-3-9-13-48-41-25" data-name="path3870-5-4-1-3-9-13-48-41">
            <rect class="cls-3" x="71.28" y="39.88" width="3.24" height="1.14"/>
          </g>
          <g id="rect36057-3-4-8-4-7-5-0-7-5-24-7-7-2-5-48-13-48-41-25" data-name="rect36057-3-4-8-4-7-5-0-7-5-24-7-7-2-5-48-13-48-41">
            <rect class="cls-4" x="72.82" y="39.88" width="0.36" height="1.14"/>
          </g>
        </g>
        <g>
          <g id="path3870-5-4-1-3-9-13-48-41-26" data-name="path3870-5-4-1-3-9-13-48-41">
            <rect class="cls-3" x="71.28" y="26.22" width="3.24" height="1.14"/>
          </g>
          <g id="rect36057-3-4-8-4-7-5-0-7-5-24-7-7-2-5-48-13-48-41-26" data-name="rect36057-3-4-8-4-7-5-0-7-5-24-7-7-2-5-48-13-48-41">
            <rect class="cls-4" x="72.82" y="26.22" width="0.36" height="1.14"/>
          </g>
        </g>
        <g>
          <g id="path3870-5-4-1-3-9-13-48-41-27" data-name="path3870-5-4-1-3-9-13-48-41">
            <rect class="cls-3" x="71.28" y="37.61" width="3.24" height="1.14"/>
          </g>
          <g id="rect36057-3-4-8-4-7-5-0-7-5-24-7-7-2-5-48-13-48-41-27" data-name="rect36057-3-4-8-4-7-5-0-7-5-24-7-7-2-5-48-13-48-41">
            <rect class="cls-4" x="72.82" y="37.61" width="0.36" height="1.14"/>
          </g>
        </g>
        <g>
          <g id="path3870-5-4-1-3-9-13-48-41-28" data-name="path3870-5-4-1-3-9-13-48-41">
            <rect class="cls-3" x="71.28" y="35.33" width="3.24" height="1.14"/>
          </g>
          <g id="rect36057-3-4-8-4-7-5-0-7-5-24-7-7-2-5-48-13-48-41-28" data-name="rect36057-3-4-8-4-7-5-0-7-5-24-7-7-2-5-48-13-48-41">
            <rect class="cls-4" x="72.82" y="35.33" width="0.36" height="1.14"/>
          </g>
        </g>
        <g>
          <g id="path3870-5-4-1-3-9-13-48-41-29" data-name="path3870-5-4-1-3-9-13-48-41">
            <rect class="cls-3" x="71.28" y="33.05" width="3.24" height="1.14"/>
          </g>
          <g id="rect36057-3-4-8-4-7-5-0-7-5-24-7-7-2-5-48-13-48-41-29" data-name="rect36057-3-4-8-4-7-5-0-7-5-24-7-7-2-5-48-13-48-41">
            <rect class="cls-4" x="72.82" y="33.05" width="0.36" height="1.14"/>
          </g>
        </g>
        <g>
          <g id="path3870-5-4-1-3-9-13-48-41-30" data-name="path3870-5-4-1-3-9-13-48-41">
            <rect class="cls-3" x="71.28" y="30.78" width="3.24" height="1.14"/>
          </g>
          <g id="rect36057-3-4-8-4-7-5-0-7-5-24-7-7-2-5-48-13-48-41-30" data-name="rect36057-3-4-8-4-7-5-0-7-5-24-7-7-2-5-48-13-48-41">
            <rect class="cls-4" x="72.82" y="30.78" width="0.36" height="1.14"/>
          </g>
        </g>
        <g>
          <g id="path3870-5-4-1-3-9-13-48-41-31" data-name="path3870-5-4-1-3-9-13-48-41">
            <rect class="cls-3" x="71.28" y="28.5" width="3.24" height="1.14"/>
          </g>
          <g id="rect36057-3-4-8-4-7-5-0-7-5-24-7-7-2-5-48-13-48-41-31" data-name="rect36057-3-4-8-4-7-5-0-7-5-24-7-7-2-5-48-13-48-41">
            <rect class="cls-4" x="72.82" y="28.5" width="0.36" height="1.14"/>
          </g>
        </g>
        <g>
          <g id="path3870-5-4-1-3-9-13-48-41-32" data-name="path3870-5-4-1-3-9-13-48-41">
            <rect class="cls-3" x="71.28" y="23.95" width="3.24" height="1.14"/>
          </g>
          <g id="rect36057-3-4-8-4-7-5-0-7-5-24-7-7-2-5-48-13-48-41-32" data-name="rect36057-3-4-8-4-7-5-0-7-5-24-7-7-2-5-48-13-48-41">
            <rect class="cls-4" x="72.82" y="23.95" width="0.36" height="1.14"/>
          </g>
        </g>
      </g>
      <path id="rect25548-0-9-3-9-8-3-8-3-2" class="cls-5" d="M54.43,24.4h0a.67.67,0,0,1-.67.67h0a.67.67,0,0,1-.67-.67h0a.67.67,0,0,1,.67-.67h0a.67.67,0,0,1,.67.67Z"/>
    </g>
    <g id="QS">
      <path id="path9761-7-4" class="cls-6" d="M39,38.44a.2.2,0,0,1-.2-.2V18.69a.2.2,0,1,1,.4,0V38.24a.2.2,0,0,1-.2.2"/>
      <path id="path9765-4-7" class="cls-6" d="M28.88,38.44a.2.2,0,0,1-.2-.2V18.69a.2.2,0,1,1,.4,0V38.24a.2.2,0,0,1-.2.2"/>
      <path id="path9769-1-6" class="cls-6" d="M28.88,18.89h0a.21.21,0,0,1-.15-.25l.49-1.93v-.06L30.43,15h0l1.45-1.21H32l1.93-.24,2,.24H36L37.7,15v.09l1.21,1.69v.09l.25,1.93A.19.19,0,0,1,39,19h0a.19.19,0,0,1-.22-.15h0L38.54,17l-1.16-1.62L35.8,14.05l-1.88-.24-1.82.24L30.72,15.2l-1.17,1.64-.48,1.89a.18.18,0,0,1-.19.15"/>
      <path id="path9781-9-7" class="cls-6" d="M34,43.51h0l-2-.46h-.06l-1.45-1h0l-1.26-1.7v-.07l-.49-1.93a.18.18,0,0,1,.1-.22.17.17,0,0,1,.22.1h0l.48,1.9,1.16,1.63,1.39.92,1.85.47,1.91-.51,1.63-.93,1.14-1.66.23-1.83a.19.19,0,0,1,.2-.16h0a.22.22,0,0,1,.18.23l-.25,1.93v.09l-1.2,1.74-.06.06-1.69,1h0l-1.93.49h0"/>
      <path id="path13009-9-5" class="cls-7" d="M34.06,11.61c-3.24,0-5.89,2.07-6.19,4.72V39.87c0,2.88,2.79,5.22,6.22,5.22s6.21-2.34,6.21-5.22V16.33c-.3-2.65-3-4.72-6.18-4.72"/>
      <path id="path13013-6-9" class="cls-8" d="M27.91,16.39V39.87c0,2.84,2.76,5.16,6.15,5.16s6.15-2.32,6.15-5.16V16.33c-.3-2.66-2.93-4.66-6.12-4.66s-5.82,2-6.12,4.66v.06Zm6.15,28.76c-3.46,0-6.28-2.37-6.28-5.28V16.26c.33-2.69,3-4.72,6.24-4.72s5.9,2,6.24,4.72V39.87c0,2.91-2.81,5.28-6.27,5.28"/>
      <path id="path13017-2-6" class="cls-7" d="M34.06,12.53a5.33,5.33,0,0,0-5.46,4.52v22.2a5.51,5.51,0,0,0,11,0V17.05a5.3,5.3,0,0,0-5.45-4.46"/>
      <path id="path13021-7-5" class="cls-8" d="M28.64,17.05v22.2a5.45,5.45,0,0,0,10.84,0V17.05a5.5,5.5,0,0,0-10.78,0h-.06Zm5.42,27.18a5.31,5.31,0,0,1-5.55-5V16.93a5.63,5.63,0,0,1,11,0V39.24a5.29,5.29,0,0,1-5.54,5"/>
      <path id="path13037-5-4" class="cls-7" d="M34.06,13.72a4.58,4.58,0,0,0-4.54,4.13V38.41a4.56,4.56,0,0,0,9.11.44h0v-21a4.56,4.56,0,0,0-4.54-4.13"/>
      <path id="path13041-0-3" class="cls-8" d="M29.56,17.91v20.5a4.5,4.5,0,0,0,9,0V17.85a4.5,4.5,0,0,0-9,0Zm4.5,25.14a4.64,4.64,0,0,1-4.62-4.63V17.78a4.62,4.62,0,0,1,9.19,0V38.41a4.62,4.62,0,0,1-4.57,4.64"/>
    </g>
    <g id="LED-0805">
      <rect id="rect21332-8-1-9-3-8-2-40-6-2-0-6-6-0-5-6-4-8-7-2-0-7-2-3-9-16-9" class="cls-9" x="62.92" y="12.31" width="2.9" height="3.4"/>
      <rect id="rect21332-8-1-9-3-8-2-40-6-2-0-6-6-0-5-6-4-8-7-2-0-7-2-3-10-16-9" class="cls-9" x="67.94" y="12.31" width="2.9" height="3.4"/>
      <path class="cls-10" d="M64.45,12.31h4.84a.42.42,0,0,1,.42.42h0v2.55a.4.4,0,0,1-.38.43H64.48a.41.41,0,0,1-.41-.41h0V12.74a.44.44,0,0,1,.41-.43h0Z"/>
      <rect class="cls-11" x="64.76" y="12.31" width="4.25" height="3.4"/>
      <path id="path26341-4-2-6-0-8-1-1-1-5-0-3-3-1-8-3-8-7-7-7-2-4-9-7-2-3-5-16-9" class="cls-12" d="M65.45,15.71h2.84v-3.4H65.45Z"/>
      <path id="path6963-86-8-2-6-0-1-7-9-2-3" class="cls-13" d="M65.71,13.8h.39v.42h-.39Z"/>
    </g>
    <g id="LED-0805-2" data-name="LED-0805">
      <rect id="rect21332-8-1-9-3-8-2-40-6-2-0-6-6-0-5-6-4-8-7-2-0-7-2-3-9-16-9-2" data-name="rect21332-8-1-9-3-8-2-40-6-2-0-6-6-0-5-6-4-8-7-2-0-7-2-3-9-16-9" class="cls-9" x="78.18" y="16.79" width="3.4" height="2.9"/>
      <rect id="rect21332-8-1-9-3-8-2-40-6-2-0-6-6-0-5-6-4-8-7-2-0-7-2-3-10-16-9-2" data-name="rect21332-8-1-9-3-8-2-40-6-2-0-6-6-0-5-6-4-8-7-2-0-7-2-3-10-16-9" class="cls-9" x="78.18" y="21.81" width="3.4" height="2.9"/>
      <path class="cls-10" d="M81.58,18.32v4.84a.42.42,0,0,1-.42.42H78.61a.41.41,0,0,1-.43-.39h0V18.35a.41.41,0,0,1,.41-.41h2.56a.43.43,0,0,1,.43.41h0Z"/>
      <rect class="cls-11" x="78.18" y="18.63" width="3.4" height="4.25"/>
      <path id="path26341-4-2-6-0-8-1-1-1-5-0-3-3-1-8-3-8-7-7-7-2-4-9-7-2-3-5-16-9-2" data-name="path26341-4-2-6-0-8-1-1-1-5-0-3-3-1-8-3-8-7-7-7-2-4-9-7-2-3-5-16-9" class="cls-12" d="M78.18,19.32v2.84h3.4V19.32Z"/>
      <path id="path6963-86-8-2-6-0-1-7-9-2-3-2" data-name="path6963-86-8-2-6-0-1-7-9-2-3" class="cls-13" d="M80.09,19.58V20h-.42v-.39Z"/>
    </g>
    <g id="T-SOT235">
      <path id="path3479-7" class="cls-14" d="M12.81,25.15V23.53h2.57v1.62Z"/>
      <path id="path3481-0" class="cls-4" d="M14.29,25.15V23.53h.86v1.62Z"/>
      <path id="path3483-6" class="cls-14" d="M12.81,19.61V18h2.57v1.6Z"/>
      <path id="path3485-6" class="cls-4" d="M14.29,19.61V18h.86v1.6Z"/>
      <path id="path3487-1" class="cls-14" d="M21.4,25.15V23.53H18.84v1.62Z"/>
      <path id="path3489-6" class="cls-4" d="M19.93,25.15V23.53h-.78v1.62Z"/>
      <path id="path3477-9" class="cls-2" d="M15.37,25.79V17.37h3.48v8.42Z"/>
      <path id="path3479-7-2" class="cls-14" d="M12.81,22.39V20.77h2.57v1.62Z"/>
      <path id="path3481-0-2" class="cls-4" d="M14.29,22.39V20.77h.86v1.62Z"/>
      <path id="path3487-1-2" class="cls-14" d="M21.4,19.62V18H18.84v1.62Z"/>
      <path id="path3489-6-2" class="cls-4" d="M19.93,19.62V18h-.78v1.62Z"/>
    </g>
    <g id="D-SOD323">
      <rect id="rect21332-8-1-9-3-5-5-5-7-7-6" class="cls-9" x="11.93" y="11.62" width="4.08" height="3.8"/>
      <rect id="rect21332-1-0-1-9-2-0-7-3-5-9-5" class="cls-9" x="17.96" y="11.62" width="4.08" height="3.8"/>
      <path id="path32574-5-6-2-6-7" class="cls-14" d="M21,14.87v-2.7h-1.9v2.7Z"/>
      <path id="path32578-9-7-2-9-4" class="cls-14" d="M14.83,14.78V12.25h-1.9v2.54Z"/>
      <path id="path32580-3-1-0-1-3" class="cls-4" d="M14,14.78V12.25h-.6v2.54Z"/>
      <path id="path32590-0-9-7-9-9" class="cls-2" d="M19.92,15.4V11.64H14V15.4Z"/>
      <path id="path32576-2-7-7-0-2" class="cls-4" d="M20.54,14.87v-2.7h-.61v2.7Z"/>
    </g>
    <g id="but">
      <polygon id="polygon666" class="cls-15" points="18.66 37.51 18.66 34.47 12.38 34.47 12.38 44.57 18.66 44.57 18.66 41.53 18.51 41.53 18.51 37.51 18.66 37.51"/>
      <circle id="circle668" cx="15.52" cy="39.4" r="2.03"/>
      <rect class="cls-16" x="13.65" y="33.61" width="3.75" height="0.86"/>
      <rect class="cls-16" x="13.65" y="44.57" width="3.75" height="0.86"/>
    </g>
    <g id="R-0805">
      <g>
        <rect id="rect21332-8-1-9-3-8-2-40-6-2-0-6-6-0-5-6-4-8-7-2-0-7-2-3-9-16-6" class="cls-9" x="41.43" y="38.15" width="3.4" height="2.9"/>
        <rect id="rect21332-8-1-9-3-8-2-40-6-2-0-6-6-0-5-6-4-8-7-2-0-7-2-3-10-16-6" class="cls-9" x="41.43" y="33.13" width="3.4" height="2.9"/>
      </g>
      <g>
        <path class="cls-10" d="M41.43,39.51V34.67a.42.42,0,0,1,.42-.42H44.4a.41.41,0,0,1,.43.39h0v4.84a.41.41,0,0,1-.41.41H41.86a.43.43,0,0,1-.43-.41h0Z"/>
        <g id="path26345-3-6-9-3-6-4-2-5-6-8-7-9-0-90-3-1-3-9-2-2-8-5-0-2-3-5-16-6">
          <rect class="cls-11" x="41.43" y="34.97" width="3.4" height="4.25"/>
        </g>
        <path id="path26341-4-2-6-0-8-1-1-1-5-0-3-3-1-8-3-8-7-7-7-2-4-9-7-2-3-5-16-6" class="cls-2" d="M44.83,38.5V35.67h-3.4V38.5Z"/>
      </g>
    </g>
    <g id="R-0805-2" data-name="R-0805">
      <g>
        <rect id="rect21332-8-1-9-3-8-2-40-6-2-0-6-6-0-5-6-4-8-7-2-0-7-2-3-9-16-6-2" data-name="rect21332-8-1-9-3-8-2-40-6-2-0-6-6-0-5-6-4-8-7-2-0-7-2-3-9-16-6" class="cls-9" x="52.19" y="12.31" width="2.9" height="3.4"/>
        <rect id="rect21332-8-1-9-3-8-2-40-6-2-0-6-6-0-5-6-4-8-7-2-0-7-2-3-10-16-6-2" data-name="rect21332-8-1-9-3-8-2-40-6-2-0-6-6-0-5-6-4-8-7-2-0-7-2-3-10-16-6" class="cls-9" x="57.21" y="12.31" width="2.9" height="3.4"/>
      </g>
      <g>
        <path class="cls-10" d="M53.73,12.31h4.84a.42.42,0,0,1,.42.42h0v2.55a.41.41,0,0,1-.39.43H53.76a.41.41,0,0,1-.41-.41h0V12.74a.43.43,0,0,1,.41-.43h0Z"/>
        <g id="path26345-3-6-9-3-6-4-2-5-6-8-7-9-0-90-3-1-3-9-2-2-8-5-0-2-3-5-16-6-2" data-name="path26345-3-6-9-3-6-4-2-5-6-8-7-9-0-90-3-1-3-9-2-2-8-5-0-2-3-5-16-6">
          <rect class="cls-11" x="54.02" y="12.31" width="4.25" height="3.4"/>
        </g>
        <path id="path26341-4-2-6-0-8-1-1-1-5-0-3-3-1-8-3-8-7-7-7-2-4-9-7-2-3-5-16-6-2" data-name="path26341-4-2-6-0-8-1-1-1-5-0-3-3-1-8-3-8-7-7-7-2-4-9-7-2-3-5-16-6" class="cls-2" d="M54.74,15.71h2.83v-3.4H54.74Z"/>
      </g>
    </g>
    <g id="R-0805-3" data-name="R-0805">
      <g>
        <rect id="rect21332-8-1-9-3-8-2-40-6-2-0-6-6-0-5-6-4-8-7-2-0-7-2-3-9-16-6-3" data-name="rect21332-8-1-9-3-8-2-40-6-2-0-6-6-0-5-6-4-8-7-2-0-7-2-3-9-16-6" class="cls-9" x="73.66" y="12.19" width="2.9" height="3.4"/>
        <rect id="rect21332-8-1-9-3-8-2-40-6-2-0-6-6-0-5-6-4-8-7-2-0-7-2-3-10-16-6-3" data-name="rect21332-8-1-9-3-8-2-40-6-2-0-6-6-0-5-6-4-8-7-2-0-7-2-3-10-16-6" class="cls-9" x="78.68" y="12.19" width="2.9" height="3.4"/>
      </g>
      <g>
        <path class="cls-10" d="M75.2,12.19H80a.42.42,0,0,1,.42.42h0v2.55a.41.41,0,0,1-.39.43H75.23a.41.41,0,0,1-.41-.41h0V12.62a.43.43,0,0,1,.41-.43h0Z"/>
        <g id="path26345-3-6-9-3-6-4-2-5-6-8-7-9-0-90-3-1-3-9-2-2-8-5-0-2-3-5-16-6-3" data-name="path26345-3-6-9-3-6-4-2-5-6-8-7-9-0-90-3-1-3-9-2-2-8-5-0-2-3-5-16-6">
          <rect class="cls-11" x="75.49" y="12.19" width="4.25" height="3.4"/>
        </g>
        <path id="path26341-4-2-6-0-8-1-1-1-5-0-3-3-1-8-3-8-7-7-7-2-4-9-7-2-3-5-16-6-3" data-name="path26341-4-2-6-0-8-1-1-1-5-0-3-3-1-8-3-8-7-7-7-2-4-9-7-2-3-5-16-6" class="cls-2" d="M76.21,15.59H79v-3.4H76.21Z"/>
      </g>
    </g>
    <g id="R-0805-4" data-name="R-0805">
      <g>
        <rect id="rect21332-8-1-9-3-8-2-40-6-2-0-6-6-0-5-6-4-8-7-2-0-7-2-3-9-16-6-4" data-name="rect21332-8-1-9-3-8-2-40-6-2-0-6-6-0-5-6-4-8-7-2-0-7-2-3-9-16-6" class="cls-9" x="22.14" y="37.51" width="3.4" height="2.9"/>
        <rect id="rect21332-8-1-9-3-8-2-40-6-2-0-6-6-0-5-6-4-8-7-2-0-7-2-3-10-16-6-4" data-name="rect21332-8-1-9-3-8-2-40-6-2-0-6-6-0-5-6-4-8-7-2-0-7-2-3-10-16-6" class="cls-9" x="22.14" y="42.52" width="3.4" height="2.9"/>
      </g>
      <g>
        <path class="cls-10" d="M25.54,39v4.84a.42.42,0,0,1-.42.42H22.57a.4.4,0,0,1-.43-.38h0V39.08a.41.41,0,0,1,.41-.41h2.56a.42.42,0,0,1,.43.41h0Z"/>
        <g id="path26345-3-6-9-3-6-4-2-5-6-8-7-9-0-90-3-1-3-9-2-2-8-5-0-2-3-5-16-6-4" data-name="path26345-3-6-9-3-6-4-2-5-6-8-7-9-0-90-3-1-3-9-2-2-8-5-0-2-3-5-16-6">
          <rect class="cls-11" x="22.14" y="39.33" width="3.4" height="4.25"/>
        </g>
        <path id="path26341-4-2-6-0-8-1-1-1-5-0-3-3-1-8-3-8-7-7-7-2-4-9-7-2-3-5-16-6-4" data-name="path26341-4-2-6-0-8-1-1-1-5-0-3-3-1-8-3-8-7-7-7-2-4-9-7-2-3-5-16-6" class="cls-2" d="M22.14,40.05v2.83h3.4V40.05Z"/>
      </g>
    </g>
    <g id="C-0805">
      <rect id="rect21332-8-1-9-3-8-2-40-6-2-0-6-6-0-5-6-4-8-7-2-0-7-2-3-9-16-3" class="cls-9" x="41.43" y="27.84" width="3.4" height="2.9"/>
      <rect id="rect21332-8-1-9-3-8-2-40-6-2-0-6-6-0-5-6-4-8-7-2-0-7-2-3-10-16-3" class="cls-9" x="41.43" y="22.79" width="3.4" height="2.9"/>
      <path class="cls-10" d="M41.43,29.18V24.34a.42.42,0,0,1,.42-.42H44.4a.41.41,0,0,1,.43.39h0v4.84a.41.41,0,0,1-.41.41H41.86a.43.43,0,0,1-.43-.41h0Z"/>
      <g id="path26345-3-6-9-3-6-4-2-5-6-8-7-9-0-90-3-1-3-9-2-2-8-5-0-2-3-5-16-3">
        <rect class="cls-11" x="41.43" y="24.62" width="3.4" height="4.25"/>
      </g>
      <path id="path26341-4-2-6-0-8-1-1-1-5-0-3-3-1-8-3-8-7-7-7-2-4-9-7-2-3-5-16-3" class="cls-17" d="M44.83,28.18V25.34h-3.4v2.84Z"/>
    </g>
    <g id="C-0805-2" data-name="C-0805">
      <rect id="rect21332-8-1-9-3-8-2-40-6-2-0-6-6-0-5-6-4-8-7-2-0-7-2-3-9-16-3-2" data-name="rect21332-8-1-9-3-8-2-40-6-2-0-6-6-0-5-6-4-8-7-2-0-7-2-3-9-16-3" class="cls-9" x="11.68" y="28.42" width="2.9" height="3.4"/>
      <rect id="rect21332-8-1-9-3-8-2-40-6-2-0-6-6-0-5-6-4-8-7-2-0-7-2-3-10-16-3-2" data-name="rect21332-8-1-9-3-8-2-40-6-2-0-6-6-0-5-6-4-8-7-2-0-7-2-3-10-16-3" class="cls-9" x="16.73" y="28.42" width="2.9" height="3.4"/>
      <path class="cls-10" d="M13.24,28.42h4.84a.42.42,0,0,1,.42.42h0v2.55a.43.43,0,0,1-.39.43H13.27a.41.41,0,0,1-.41-.41h0V28.85a.43.43,0,0,1,.41-.43h0Z"/>
      <g id="path26345-3-6-9-3-6-4-2-5-6-8-7-9-0-90-3-1-3-9-2-2-8-5-0-2-3-5-16-3-2" data-name="path26345-3-6-9-3-6-4-2-5-6-8-7-9-0-90-3-1-3-9-2-2-8-5-0-2-3-5-16-3">
        <rect class="cls-11" x="13.55" y="28.42" width="4.25" height="3.4"/>
      </g>
      <path id="path26341-4-2-6-0-8-1-1-1-5-0-3-3-1-8-3-8-7-7-7-2-4-9-7-2-3-5-16-3-2" data-name="path26341-4-2-6-0-8-1-1-1-5-0-3-3-1-8-3-8-7-7-7-2-4-9-7-2-3-5-16-3" class="cls-17" d="M14.24,31.82h2.84v-3.4H14.24Z"/>
    </g>
    <g id="C-0805-3" data-name="C-0805">
      <rect id="rect21332-8-1-9-3-8-2-40-6-2-0-6-6-0-5-6-4-8-7-2-0-7-2-3-9-16-3-3" data-name="rect21332-8-1-9-3-8-2-40-6-2-0-6-6-0-5-6-4-8-7-2-0-7-2-3-9-16-3" class="cls-9" x="22.14" y="33.47" width="3.4" height="2.9"/>
      <rect id="rect21332-8-1-9-3-8-2-40-6-2-0-6-6-0-5-6-4-8-7-2-0-7-2-3-10-16-3-3" data-name="rect21332-8-1-9-3-8-2-40-6-2-0-6-6-0-5-6-4-8-7-2-0-7-2-3-10-16-3" class="cls-9" x="22.14" y="28.42" width="3.4" height="2.9"/>
      <path class="cls-10" d="M22.14,34.81V30a.42.42,0,0,1,.42-.42h2.55a.4.4,0,0,1,.43.38h0v4.84a.41.41,0,0,1-.41.41H22.57a.44.44,0,0,1-.43-.41h0Z"/>
      <g id="path26345-3-6-9-3-6-4-2-5-6-8-7-9-0-90-3-1-3-9-2-2-8-5-0-2-3-5-16-3-3" data-name="path26345-3-6-9-3-6-4-2-5-6-8-7-9-0-90-3-1-3-9-2-2-8-5-0-2-3-5-16-3">
        <rect class="cls-11" x="22.14" y="30.25" width="3.4" height="4.25"/>
      </g>
      <path id="path26341-4-2-6-0-8-1-1-1-5-0-3-3-1-8-3-8-7-7-7-2-4-9-7-2-3-5-16-3-3" data-name="path26341-4-2-6-0-8-1-1-1-5-0-3-3-1-8-3-8-7-7-7-2-4-9-7-2-3-5-16-3" class="cls-17" d="M25.54,33.81V31h-3.4v2.84Z"/>
    </g>
    <g id="C-0805-4" data-name="C-0805">
      <rect id="rect21332-8-1-9-3-8-2-40-6-2-0-6-6-0-5-6-4-8-7-2-0-7-2-3-9-16-3-4" data-name="rect21332-8-1-9-3-8-2-40-6-2-0-6-6-0-5-6-4-8-7-2-0-7-2-3-9-16-3" class="cls-9" x="41.43" y="17.44" width="2.9" height="3.4"/>
      <rect id="rect21332-8-1-9-3-8-2-40-6-2-0-6-6-0-5-6-4-8-7-2-0-7-2-3-10-16-3-4" data-name="rect21332-8-1-9-3-8-2-40-6-2-0-6-6-0-5-6-4-8-7-2-0-7-2-3-10-16-3" class="cls-9" x="46.48" y="17.44" width="2.9" height="3.4"/>
      <path class="cls-10" d="M43,17.44h4.84a.42.42,0,0,1,.42.42h0v2.55a.41.41,0,0,1-.39.43H43a.41.41,0,0,1-.41-.41h0V17.87a.43.43,0,0,1,.41-.43h0Z"/>
      <g id="path26345-3-6-9-3-6-4-2-5-6-8-7-9-0-90-3-1-3-9-2-2-8-5-0-2-3-5-16-3-4" data-name="path26345-3-6-9-3-6-4-2-5-6-8-7-9-0-90-3-1-3-9-2-2-8-5-0-2-3-5-16-3">
        <rect class="cls-11" x="43.3" y="17.44" width="4.25" height="3.4"/>
      </g>
      <path id="path26341-4-2-6-0-8-1-1-1-5-0-3-3-1-8-3-8-7-7-7-2-4-9-7-2-3-5-16-3-4" data-name="path26341-4-2-6-0-8-1-1-1-5-0-3-3-1-8-3-8-7-7-7-2-4-9-7-2-3-5-16-3" class="cls-17" d="M44,20.84h2.84v-3.4H44Z"/>
    </g>
    <g id="C-0805-5" data-name="C-0805">
      <rect id="rect21332-8-1-9-3-8-2-40-6-2-0-6-6-0-5-6-4-8-7-2-0-7-2-3-9-16-3-5" data-name="rect21332-8-1-9-3-8-2-40-6-2-0-6-6-0-5-6-4-8-7-2-0-7-2-3-9-16-3" class="cls-9" x="41.43" y="12.31" width="2.9" height="3.4"/>
      <rect id="rect21332-8-1-9-3-8-2-40-6-2-0-6-6-0-5-6-4-8-7-2-0-7-2-3-10-16-3-5" data-name="rect21332-8-1-9-3-8-2-40-6-2-0-6-6-0-5-6-4-8-7-2-0-7-2-3-10-16-3" class="cls-9" x="46.48" y="12.31" width="2.9" height="3.4"/>
      <path class="cls-10" d="M43,12.31h4.84a.42.42,0,0,1,.42.42h0v2.55a.41.41,0,0,1-.39.43H43a.41.41,0,0,1-.41-.41h0V12.74a.43.43,0,0,1,.41-.43h0Z"/>
      <g id="path26345-3-6-9-3-6-4-2-5-6-8-7-9-0-90-3-1-3-9-2-2-8-5-0-2-3-5-16-3-5" data-name="path26345-3-6-9-3-6-4-2-5-6-8-7-9-0-90-3-1-3-9-2-2-8-5-0-2-3-5-16-3">
        <rect class="cls-11" x="43.3" y="12.31" width="4.25" height="3.4"/>
      </g>
      <path id="path26341-4-2-6-0-8-1-1-1-5-0-3-3-1-8-3-8-7-7-7-2-4-9-7-2-3-5-16-3-5" data-name="path26341-4-2-6-0-8-1-1-1-5-0-3-3-1-8-3-8-7-7-7-2-4-9-7-2-3-5-16-3" class="cls-17" d="M44,15.71h2.84v-3.4H44Z"/>
    </g>
    <g id="C-0805-6" data-name="C-0805">
      <rect id="rect21332-8-1-9-3-8-2-40-6-2-0-6-6-0-5-6-4-8-7-2-0-7-2-3-9-16-3-6" data-name="rect21332-8-1-9-3-8-2-40-6-2-0-6-6-0-5-6-4-8-7-2-0-7-2-3-9-16-3" class="cls-9" x="41.43" y="42.44" width="2.9" height="3.4"/>
      <rect id="rect21332-8-1-9-3-8-2-40-6-2-0-6-6-0-5-6-4-8-7-2-0-7-2-3-10-16-3-6" data-name="rect21332-8-1-9-3-8-2-40-6-2-0-6-6-0-5-6-4-8-7-2-0-7-2-3-10-16-3" class="cls-9" x="46.48" y="42.44" width="2.9" height="3.4"/>
      <path class="cls-10" d="M43,42.44h4.84a.42.42,0,0,1,.42.42h0v2.55a.41.41,0,0,1-.39.43H43a.41.41,0,0,1-.41-.41h0V42.87a.43.43,0,0,1,.41-.43h0Z"/>
      <g id="path26345-3-6-9-3-6-4-2-5-6-8-7-9-0-90-3-1-3-9-2-2-8-5-0-2-3-5-16-3-6" data-name="path26345-3-6-9-3-6-4-2-5-6-8-7-9-0-90-3-1-3-9-2-2-8-5-0-2-3-5-16-3">
        <rect class="cls-11" x="43.3" y="42.44" width="4.25" height="3.4"/>
      </g>
      <path id="path26341-4-2-6-0-8-1-1-1-5-0-3-3-1-8-3-8-7-7-7-2-4-9-7-2-3-5-16-3-6" data-name="path26341-4-2-6-0-8-1-1-1-5-0-3-3-1-8-3-8-7-7-7-2-4-9-7-2-3-5-16-3" class="cls-17" d="M44,45.84h2.84v-3.4H44Z"/>
    </g>
    <g id="C-0805-7" data-name="C-0805">
      <rect id="rect21332-8-1-9-3-8-2-40-6-2-0-6-6-0-5-6-4-8-7-2-0-7-2-3-9-16-3-7" data-name="rect21332-8-1-9-3-8-2-40-6-2-0-6-6-0-5-6-4-8-7-2-0-7-2-3-9-16-3" class="cls-9" x="78.18" y="27.94" width="2.9" height="3.4"/>
      <rect id="rect21332-8-1-9-3-8-2-40-6-2-0-6-6-0-5-6-4-8-7-2-0-7-2-3-10-16-3-7" data-name="rect21332-8-1-9-3-8-2-40-6-2-0-6-6-0-5-6-4-8-7-2-0-7-2-3-10-16-3" class="cls-9" x="83.23" y="27.94" width="2.9" height="3.4"/>
      <path class="cls-10" d="M79.74,27.94h4.84a.42.42,0,0,1,.42.42h0v2.55a.41.41,0,0,1-.39.43H79.77a.41.41,0,0,1-.41-.41h0V28.37a.43.43,0,0,1,.41-.43h0Z"/>
      <g id="path26345-3-6-9-3-6-4-2-5-6-8-7-9-0-90-3-1-3-9-2-2-8-5-0-2-3-5-16-3-7" data-name="path26345-3-6-9-3-6-4-2-5-6-8-7-9-0-90-3-1-3-9-2-2-8-5-0-2-3-5-16-3">
        <rect class="cls-11" x="80.05" y="27.94" width="4.25" height="3.4"/>
      </g>
      <path id="path26341-4-2-6-0-8-1-1-1-5-0-3-3-1-8-3-8-7-7-7-2-4-9-7-2-3-5-16-3-7" data-name="path26341-4-2-6-0-8-1-1-1-5-0-3-3-1-8-3-8-7-7-7-2-4-9-7-2-3-5-16-3" class="cls-17" d="M80.74,31.34h2.84v-3.4H80.74Z"/>
    </g>
    <g id="pins">
      <path id="path3566-3-5-5-2-1-3-8-7" class="cls-18" d="M88.55,50.16a1.94,1.94,0,1,0-1.94,2A2,2,0,0,0,88.55,50.16Z"/>
      <path id="path3566-3-5-5-2-1-3-8-7-2" data-name="path3566-3-5-5-2-1-3-8-7" class="cls-18" d="M81.34,50.16a1.95,1.95,0,1,0-2,2A2,2,0,0,0,81.34,50.16Z"/>
      <path id="path3566-3-5-5-2-1-3-8-7-3" data-name="path3566-3-5-5-2-1-3-8-7" class="cls-18" d="M74.12,50.16a1.94,1.94,0,1,0-1.94,2A2,2,0,0,0,74.12,50.16Z"/>
      <path id="path3566-3-5-5-2-1-3-8-7-4" data-name="path3566-3-5-5-2-1-3-8-7" class="cls-18" d="M66.91,50.16a1.95,1.95,0,1,0-2,2A2,2,0,0,0,66.91,50.16Z"/>
      <path id="path3566-3-5-5-2-1-3-8-7-5" data-name="path3566-3-5-5-2-1-3-8-7" class="cls-18" d="M59.69,50.16a1.94,1.94,0,1,0-1.94,2A2,2,0,0,0,59.69,50.16Z"/>
      <path id="path3566-3-5-5-2-1-3-8-7-6" data-name="path3566-3-5-5-2-1-3-8-7" class="cls-18" d="M52.48,50.16a1.95,1.95,0,1,0-1.95,2A2,2,0,0,0,52.48,50.16Z"/>
      <path id="path3566-3-5-5-2-1-3-8-7-7" data-name="path3566-3-5-5-2-1-3-8-7" class="cls-18" d="M45.26,50.16a1.94,1.94,0,1,0-1.94,2A2,2,0,0,0,45.26,50.16Z"/>
      <path id="path3566-3-5-5-2-1-3-8-7-8" data-name="path3566-3-5-5-2-1-3-8-7" class="cls-18" d="M38.05,50.16a1.95,1.95,0,1,0-1.95,2A2,2,0,0,0,38.05,50.16Z"/>
      <path id="path3566-3-5-5-2-1-3-8-7-9" data-name="path3566-3-5-5-2-1-3-8-7" class="cls-18" d="M30.83,50.16a1.94,1.94,0,1,0-1.94,2A2,2,0,0,0,30.83,50.16Z"/>
      <path id="path3566-3-5-5-2-1-3-8-7-10" data-name="path3566-3-5-5-2-1-3-8-7" class="cls-18" d="M23.62,50.16a1.95,1.95,0,1,0-1.95,2A2,2,0,0,0,23.62,50.16Z"/>
      <path id="path3566-3-5-5-2-1-3-8-7-11" data-name="path3566-3-5-5-2-1-3-8-7" class="cls-18" d="M16.4,50.16a1.94,1.94,0,1,0-1.94,2A2,2,0,0,0,16.4,50.16Z"/>
      <path id="path3566-3-5-5-2-1-3-8-7-12" data-name="path3566-3-5-5-2-1-3-8-7" class="cls-18" d="M9.19,50.16a1.95,1.95,0,1,0-1.95,2A2,2,0,0,0,9.19,50.16Z"/>
      <path id="path3566-3-5-5-2-1-3-8-7-13" data-name="path3566-3-5-5-2-1-3-8-7" class="cls-18" d="M9.27,43.1a1.94,1.94,0,1,0-1.94,1.95A2,2,0,0,0,9.27,43.1Z"/>
      <path id="path3566-3-5-5-2-1-3-8-7-14" data-name="path3566-3-5-5-2-1-3-8-7" class="cls-18" d="M9.27,35.87a1.94,1.94,0,1,0-1.94,2A1.94,1.94,0,0,0,9.27,35.87Z"/>
      <path id="path3566-3-5-5-2-1-3-8-7-15" data-name="path3566-3-5-5-2-1-3-8-7" class="cls-18" d="M9.27,28.65a1.94,1.94,0,1,0-1.94,2A2,2,0,0,0,9.27,28.65Z"/>
      <path id="path3566-3-5-5-2-1-3-8-7-16" data-name="path3566-3-5-5-2-1-3-8-7" class="cls-18" d="M9.27,21.42a1.94,1.94,0,1,0-1.94,2A1.94,1.94,0,0,0,9.27,21.42Z"/>
      <path id="path3566-3-5-5-2-1-3-8-7-17" data-name="path3566-3-5-5-2-1-3-8-7" class="cls-18" d="M9.27,14.2a1.94,1.94,0,1,0-1.94,2A2,2,0,0,0,9.27,14.2Z"/>
      <path id="path3566-3-5-5-2-1-3-8-7-18" data-name="path3566-3-5-5-2-1-3-8-7" class="cls-18" d="M88.7,14.12a1.94,1.94,0,1,0-1.94,2A2,2,0,0,0,88.7,14.12Z"/>
      <path id="path3566-3-5-5-2-1-3-8-7-19" data-name="path3566-3-5-5-2-1-3-8-7" class="cls-18" d="M88.7,21.33a1.94,1.94,0,1,0-1.94,2A1.95,1.95,0,0,0,88.7,21.33Z"/>
      <path id="path3566-3-5-5-2-1-3-8-7-20" data-name="path3566-3-5-5-2-1-3-8-7" class="cls-18" d="M88.7,35.74a1.94,1.94,0,1,0-1.94,2A1.94,1.94,0,0,0,88.7,35.74Z"/>
      <path id="path3566-3-5-5-2-1-3-8-7-21" data-name="path3566-3-5-5-2-1-3-8-7" class="cls-18" d="M88.7,43a1.94,1.94,0,1,0-1.94,2A2,2,0,0,0,88.7,43Z"/>
      <path id="path3566-3-5-5-2-1-3-8-7-22" data-name="path3566-3-5-5-2-1-3-8-7" class="cls-18" d="M81.22,43a1.95,1.95,0,1,0-1.94,2A2,2,0,0,0,81.22,43Z"/>
      <path id="path3566-3-5-5-2-1-3-8-7-23" data-name="path3566-3-5-5-2-1-3-8-7" class="cls-18" d="M81.22,35.74a1.95,1.95,0,1,0-1.94,2A1.94,1.94,0,0,0,81.22,35.74Z"/>
      <path id="path3566-3-5-5-2-1-3-8-7-24" data-name="path3566-3-5-5-2-1-3-8-7" class="cls-18" d="M88.55,7a1.94,1.94,0,1,0-1.94,2A1.94,1.94,0,0,0,88.55,7Z"/>
      <path id="path3566-3-5-5-2-1-3-8-7-25" data-name="path3566-3-5-5-2-1-3-8-7" class="cls-18" d="M81.34,7a1.95,1.95,0,1,0-2,2A1.95,1.95,0,0,0,81.34,7Z"/>
      <path id="path3566-3-5-5-2-1-3-8-7-26" data-name="path3566-3-5-5-2-1-3-8-7" class="cls-18" d="M74.12,7a1.94,1.94,0,1,0-1.94,2A1.94,1.94,0,0,0,74.12,7Z"/>
      <path id="path3566-3-5-5-2-1-3-8-7-27" data-name="path3566-3-5-5-2-1-3-8-7" class="cls-18" d="M66.91,7a1.95,1.95,0,1,0-2,2A1.95,1.95,0,0,0,66.91,7Z"/>
      <path id="path3566-3-5-5-2-1-3-8-7-28" data-name="path3566-3-5-5-2-1-3-8-7" class="cls-18" d="M59.69,7a1.94,1.94,0,1,0-1.94,2A1.94,1.94,0,0,0,59.69,7Z"/>
      <path id="path3566-3-5-5-2-1-3-8-7-29" data-name="path3566-3-5-5-2-1-3-8-7" class="cls-18" d="M52.48,7a1.95,1.95,0,1,0-1.95,2A1.95,1.95,0,0,0,52.48,7Z"/>
      <path id="path3566-3-5-5-2-1-3-8-7-30" data-name="path3566-3-5-5-2-1-3-8-7" class="cls-18" d="M45.26,7a1.94,1.94,0,1,0-1.94,2A1.94,1.94,0,0,0,45.26,7Z"/>
      <path id="path3566-3-5-5-2-1-3-8-7-31" data-name="path3566-3-5-5-2-1-3-8-7" class="cls-18" d="M38.05,7A1.95,1.95,0,1,0,36.1,9,1.95,1.95,0,0,0,38.05,7Z"/>
      <path id="path3566-3-5-5-2-1-3-8-7-32" data-name="path3566-3-5-5-2-1-3-8-7" class="cls-18" d="M30.83,7a1.94,1.94,0,1,0-1.94,2A1.94,1.94,0,0,0,30.83,7Z"/>
      <path id="path3566-3-5-5-2-1-3-8-7-33" data-name="path3566-3-5-5-2-1-3-8-7" class="cls-18" d="M23.62,7a1.95,1.95,0,1,0-1.95,2A1.95,1.95,0,0,0,23.62,7Z"/>
      <path id="path3566-3-5-5-2-1-3-8-7-34" data-name="path3566-3-5-5-2-1-3-8-7" class="cls-18" d="M16.4,7a1.94,1.94,0,1,0-1.94,2A1.94,1.94,0,0,0,16.4,7Z"/>
      <path id="path3566-3-5-5-2-1-3-8-7-35" data-name="path3566-3-5-5-2-1-3-8-7" class="cls-18" d="M9.19,7A1.95,1.95,0,1,0,7.24,9,1.95,1.95,0,0,0,9.19,7Z"/>
      <text class="cls-19" transform="translate(5.74 2.66)">VIN</text>
      <text class="cls-19" transform="translate(12.53 2.66)">GND</text>
      <text class="cls-19" transform="translate(20.04 2.66)">RS<tspan class="cls-20" x="2.13" y="0">T</tspan></text>
      <text class="cls-19" transform="translate(27.25 2.66)">+5V</text>
      <text class="cls-19" transform="translate(34.99 2.66)">A3</text>
      <text class="cls-19" transform="translate(42.2 2.66)">A2</text>
      <text class="cls-19" transform="translate(49.42 2.66)">A1</text>
      <text class="cls-19" transform="translate(63.92 2.66)">13</text>
      <text class="cls-19" transform="translate(71.13 2.66)">12</text>
      <text class="cls-19" transform="translate(78.35 2.66)">11</text>
      <text class="cls-19" transform="translate(85.56 2.66)">10</text>
      <polygon class="cls-21" points="15.93 3.55 12.98 3.55 10.9 5.64 10.9 8.59 12.98 10.67 15.93 10.67 18.02 8.59 18.02 5.64 15.93 3.55"/>
      <polygon class="cls-21" points="8.72 3.43 5.77 3.43 3.69 5.52 3.69 8.47 5.77 10.55 8.72 10.55 10.8 8.47 10.8 5.52 8.72 3.43"/>
      <polygon class="cls-21" points="23.15 3.55 20.2 3.55 18.12 5.64 18.12 8.59 20.2 10.67 23.15 10.67 25.23 8.59 25.23 5.64 23.15 3.55"/>
      <polygon class="cls-21" points="30.36 3.55 27.41 3.55 25.33 5.64 25.33 8.59 27.41 10.67 30.36 10.67 32.45 8.59 32.45 5.64 30.36 3.55"/>
      <polygon class="cls-21" points="37.58 3.55 34.63 3.55 32.55 5.64 32.55 8.59 34.63 10.67 37.58 10.67 39.66 8.59 39.66 5.64 37.58 3.55"/>
      <polygon class="cls-21" points="44.79 3.55 41.84 3.55 39.76 5.64 39.76 8.59 41.84 10.67 44.79 10.67 46.88 8.59 46.88 5.64 44.79 3.55"/>
      <polygon class="cls-21" points="52.01 3.55 49.06 3.55 46.98 5.64 46.98 8.59 49.06 10.67 52.01 10.67 54.09 8.59 54.09 5.64 52.01 3.55"/>
      <polygon class="cls-21" points="59.22 3.55 56.27 3.55 54.19 5.64 54.19 8.59 56.27 10.67 59.22 10.67 61.31 8.59 61.31 5.64 59.22 3.55"/>
      <polygon class="cls-21" points="66.44 3.55 63.49 3.55 61.41 5.64 61.41 8.59 63.49 10.67 66.44 10.67 68.52 8.59 68.52 5.64 66.44 3.55"/>
      <polygon class="cls-21" points="73.65 3.55 70.7 3.55 68.62 5.64 68.62 8.59 70.7 10.67 73.65 10.67 75.74 8.59 75.74 5.64 73.65 3.55"/>
      <polygon class="cls-21" points="80.87 3.55 77.92 3.55 75.83 5.64 75.83 8.59 77.92 10.67 80.87 10.67 82.95 8.59 82.95 5.64 80.87 3.55"/>
      <polygon class="cls-21" points="88.08 3.55 85.14 3.55 83.05 5.64 83.05 8.59 85.14 10.67 88.08 10.67 90.17 8.59 90.17 5.64 88.08 3.55"/>
      <polygon class="cls-21" points="8.72 46.6 5.77 46.6 3.69 48.69 3.69 51.63 5.77 53.72 8.72 53.72 10.8 51.63 10.8 48.69 8.72 46.6"/>
      <polygon class="cls-21" points="15.93 46.6 12.98 46.6 10.9 48.69 10.9 51.63 12.98 53.72 15.93 53.72 18.02 51.63 18.02 48.69 15.93 46.6"/>
      <polygon class="cls-21" points="23.15 46.6 20.2 46.6 18.12 48.69 18.12 51.63 20.2 53.72 23.15 53.72 25.23 51.63 25.23 48.69 23.15 46.6"/>
      <polygon class="cls-21" points="30.36 46.6 27.41 46.6 25.33 48.69 25.33 51.63 27.41 53.72 30.36 53.72 32.45 51.63 32.45 48.69 30.36 46.6"/>
      <polygon class="cls-21" points="37.58 46.6 34.63 46.6 32.55 48.69 32.55 51.63 34.63 53.72 37.58 53.72 39.66 51.63 39.66 48.69 37.58 46.6"/>
      <polygon class="cls-21" points="44.79 46.6 41.84 46.6 39.76 48.69 39.76 51.63 41.84 53.72 44.79 53.72 46.88 51.63 46.88 48.69 44.79 46.6"/>
      <polygon class="cls-21" points="52.01 46.6 49.06 46.6 46.98 48.69 46.98 51.63 49.06 53.72 52.01 53.72 54.09 51.63 54.09 48.69 52.01 46.6"/>
      <polygon class="cls-21" points="59.22 46.6 56.27 46.6 54.19 48.69 54.19 51.63 56.27 53.72 59.22 53.72 61.31 51.63 61.31 48.69 59.22 46.6"/>
      <polygon class="cls-21" points="66.44 46.6 63.49 46.6 61.41 48.69 61.41 51.63 63.49 53.72 66.44 53.72 68.52 51.63 68.52 48.69 66.44 46.6"/>
      <polygon class="cls-21" points="73.65 46.6 70.7 46.6 68.62 48.69 68.62 51.63 70.7 53.72 73.65 53.72 75.74 51.63 75.74 48.69 73.65 46.6"/>
      <polygon class="cls-21" points="80.87 46.6 77.92 46.6 75.83 48.69 75.83 51.63 77.92 53.72 80.87 53.72 82.95 51.63 82.95 48.69 80.87 46.6"/>
      <polygon class="cls-21" points="88.08 46.6 85.14 46.6 83.05 48.69 83.05 51.63 85.14 53.72 88.08 53.72 90.17 51.63 90.17 48.69 88.08 46.6"/>
      <polygon class="cls-21" points="88.23 17.77 85.28 17.77 83.2 19.85 83.2 22.8 85.28 24.88 88.23 24.88 90.32 22.8 90.32 19.85 88.23 17.77"/>
      <polygon class="cls-21" points="88.23 10.56 85.28 10.56 83.2 12.64 83.2 15.59 85.28 17.68 88.23 17.68 90.32 15.59 90.32 12.64 88.23 10.56"/>
      <polygon class="cls-21" points="8.72 39.41 5.77 39.41 3.69 41.49 3.69 44.44 5.77 46.52 8.72 46.52 10.8 44.44 10.8 41.49 8.72 39.41"/>
      <polygon class="cls-21" points="8.72 32.21 5.77 32.21 3.69 34.3 3.69 37.24 5.77 39.33 8.72 39.33 10.8 37.24 10.8 34.3 8.72 32.21"/>
      <polygon class="cls-21" points="8.72 25.02 5.77 25.02 3.69 27.1 3.69 30.05 5.77 32.13 8.72 32.13 10.8 30.05 10.8 27.1 8.72 25.02"/>
      <polygon class="cls-21" points="8.72 17.82 5.77 17.82 3.69 19.91 3.69 22.86 5.77 24.94 8.72 24.94 10.8 22.86 10.8 19.91 8.72 17.82"/>
      <polygon class="cls-21" points="8.72 10.63 5.77 10.63 3.69 12.71 3.69 15.66 5.77 17.75 8.72 17.75 10.8 15.66 10.8 12.71 8.72 10.63"/>
      <polygon class="cls-21" points="90.17 34.41 88.08 32.33 85.14 32.33 83.05 34.41 83.05 44.47 85.14 46.56 88.08 46.56 90.17 44.47 90.17 34.41"/>
      <polygon class="cls-21" points="82.95 34.41 80.87 32.33 77.92 32.33 75.83 34.41 75.83 44.47 77.92 46.56 80.87 46.56 82.95 44.47 82.95 34.41"/>
      <path class="cls-21" d="M90.13,44.56"/>
      <path class="cls-21" d="M88.05,46.64"/>
      <path class="cls-21" d="M85.1,46.64"/>
      <path class="cls-21" d="M83,44.56"/>
      <path class="cls-21" d="M83.08,41.46"/>
      <text class="cls-19" transform="translate(56.63 2.66)">A0</text>
      <text class="cls-19" transform="translate(92.74 15.97) rotate(-90)">GND</text>
      <text class="cls-19" transform="translate(92.74 22.97) rotate(-90)">+5V</text>
      <text class="cls-19" transform="translate(92.66 36.72) rotate(-90)">A6</text>
      <text class="cls-19" transform="translate(92.49 44.35) rotate(-90)">A4</text>
      <text class="cls-19" transform="translate(74.49 44.35) rotate(-90)">A5</text>
      <text class="cls-19" transform="translate(86.08 55.95)">9</text>
      <text class="cls-19" transform="translate(78.87 55.95)">8</text>
      <text class="cls-19" transform="translate(71.65 55.95)">7</text>
      <text class="cls-19" transform="translate(64.44 55.95)">6</text>
      <text class="cls-19" transform="translate(57.22 55.95)">5</text>
      <text class="cls-19" transform="translate(50.01 55.95)">4</text>
      <text class="cls-19" transform="translate(42.79 56.04)">3</text>
      <text class="cls-19" transform="translate(35.58 55.95)">2</text>
      <text class="cls-19" transform="translate(26.96 55.95)">GND</text>
      <text class="cls-19" transform="translate(20.04 55.95)">RS<tspan class="cls-20" x="2.13" y="0">T</tspan></text>
      <text class="cls-19" transform="translate(13.32 55.95)">RX</text>
      <text class="cls-19" transform="translate(6.11 55.95)">TX</text>
      <text class="cls-19" transform="translate(2.8 43.49) rotate(-90)">7</text>
      <text class="cls-19" transform="translate(2.8 36.91) rotate(-90)">TX</text>
      <text class="cls-19" transform="translate(2.8 29.71) rotate(-90)">RX</text>
      <text class="cls-19" transform="translate(2.8 23.02) rotate(-90)">+5V</text>
      <text class="cls-19" transform="translate(2.8 16.11) rotate(-90)">GND</text>
    </g>
  </g>
</svg>
