<svg id="iskra-mini" xmlns="http://www.w3.org/2000/svg" viewBox="0 0 93.98 57.13">
  <defs>
    <style>
      .cls-1 {
        fill: #f2f2f2;
        stroke-width: 0.43px;
      }

      .cls-1, .cls-22 {
        stroke: #000;
      }

      .cls-1, .cls-18, .cls-22 {
        stroke-miterlimit: 10;
      }

      .cls-2 {
        fill: #242424;
      }

      .cls-3 {
        fill: #d1d3d4;
      }

      .cls-4 {
        fill: gray;
      }

      .cls-5 {
        fill: #b4b4b4;
      }

      .cls-6 {
        fill: #231f20;
      }

      .cls-7 {
        fill: #d5d3d5;
      }

      .cls-8 {
        fill: #7b7979;
      }

      .cls-9 {
        fill: #d2d1d3;
      }

      .cls-10 {
        fill: #b7b8b9;
      }

      .cls-11 {
        fill: #d7d3d5;
      }

      .cls-12 {
        fill: #bbffd0;
      }

      .cls-13 {
        fill: #545152;
      }

      .cls-14 {
        fill: #b3b3b3;
      }

      .cls-15 {
        fill: #c8c8c8;
      }

      .cls-16 {
        fill: #969696;
      }

      .cls-17 {
        fill: #966432;
      }

      .cls-18, .cls-22 {
        fill: none;
      }

      .cls-18 {
        stroke: #ffbf00;
        stroke-width: 1.4px;
      }

      .cls-19, .cls-20, .cls-21 {
        isolation: isolate;
      }

      .cls-19, .cls-21 {
        font-size: 2px;
        font-family: TrebuchetMS, Trebuchet MS;
      }

      .cls-21 {
        letter-spacing: -0.04em;
      }

      .cls-22 {
        stroke-width: 0.28px;
      }
    </style>
  </defs>
  <title>iskra-mini</title>
  <g id="iskra-mini-2">
    <path class="cls-1" d="M93.76,56.91V.21H.21v56.7ZM7.32,38a2.13,2.13,0,1,1,2.12-2.14v0A2.12,2.12,0,0,1,7.32,38Zm2.12,5.1A2.13,2.13,0,1,1,7.28,41h0a2.11,2.11,0,0,1,2.12,2.08ZM7.32,30.77a2.13,2.13,0,1,1,2.12-2.14h0A2.14,2.14,0,0,1,7.32,30.77Zm0-7.22a2.13,2.13,0,1,1,2.12-2.14v0A2.12,2.12,0,0,1,7.32,23.55ZM79.41,52.27a2.13,2.13,0,1,1,2.13-2.13h0A2.13,2.13,0,0,1,79.41,52.27Zm7.28-14.41a2.13,2.13,0,1,1,2.13-2.13h0a2.12,2.12,0,0,1-2.11,2.13ZM88.82,43a2.13,2.13,0,1,1-2.13-2.13h0A2.13,2.13,0,0,1,88.82,43ZM86.69,23.43a2.13,2.13,0,1,1,2.13-2.13h0a2.12,2.12,0,0,1-2.11,2.13Zm0-7.22a2.13,2.13,0,1,1,2.13-2.13h0a2.12,2.12,0,0,1-2.12,2.12ZM86.63,4.83a2.1,2.1,0,1,1-.06,0Zm0,43.19a2.13,2.13,0,1,1-2.13,2.13h0A2.12,2.12,0,0,1,86.6,48h0ZM79.41,4.83A2.13,2.13,0,1,1,77.28,7a2.13,2.13,0,0,1,2.13-2.17Zm0,28.78a2.13,2.13,0,1,1-2.12,2.14v0a2.12,2.12,0,0,1,2.11-2.12Zm0,7.21A2.13,2.13,0,1,1,77.28,43a2.13,2.13,0,0,1,2.13-2.18h0Zm-7.21-36A2.13,2.13,0,1,1,70.07,7,2.13,2.13,0,0,1,72.2,4.82h0ZM72.2,48a2.13,2.13,0,1,1-2.12,2.14v0A2.12,2.12,0,0,1,72.19,48h0ZM65,4.83a2.11,2.11,0,1,1-.08,0ZM65,48a2.13,2.13,0,1,1-2.13,2.13h0A2.12,2.12,0,0,1,65,48ZM57.76,4.83A2.13,2.13,0,1,1,55.63,7a2.13,2.13,0,0,1,2.13-2.17Zm0,43.19a2.13,2.13,0,1,1-2.13,2.13h0A2.13,2.13,0,0,1,57.75,48h0ZM50.54,4.83A2.13,2.13,0,1,1,48.42,7a2.13,2.13,0,0,1,2.12-2.17Zm0,43.19a2.13,2.13,0,1,1-2.12,2.14v0A2.12,2.12,0,0,1,50.52,48h0ZM43.33,4.83a2.1,2.1,0,1,1-.06,0Zm0,43.19a2.13,2.13,0,1,1-2.13,2.13h0A2.12,2.12,0,0,1,43.3,48h0ZM36.11,4.83A2.13,2.13,0,1,1,34,7a2.13,2.13,0,0,1,2.11-2.17Zm0,43.19A2.13,2.13,0,1,1,34,50.17v0A2.12,2.12,0,0,1,36.1,48h0ZM28.9,4.83a2.1,2.1,0,1,1-.06,0ZM28.9,48a2.13,2.13,0,1,1-2.13,2.13h0A2.12,2.12,0,0,1,28.89,48ZM21.68,4.83A2.13,2.13,0,1,1,19.55,7a2.13,2.13,0,0,1,2.13-2.17Zm0,43.19a2.13,2.13,0,1,1-2.13,2.13h0A2.13,2.13,0,0,1,21.67,48h0ZM14.46,4.83A2.13,2.13,0,1,1,12.34,7a2.13,2.13,0,0,1,2.12-2.17Zm0,43.19a2.13,2.13,0,1,1-2.12,2.14v0A2.12,2.12,0,0,1,14.44,48h0ZM7.32,16.34A2.13,2.13,0,1,1,9.44,14.2h0A2.14,2.14,0,0,1,7.32,16.34ZM7.25,4.83a2.1,2.1,0,1,1-.06,0ZM7.25,48a2.13,2.13,0,1,1-2.13,2.13h0A2.12,2.12,0,0,1,7.24,48Z" transform="translate(0.01 0)"/>
    <g id="mega328p">
      <rect class="cls-2" x="51.42" y="22.56" width="19.84" height="19.84" rx="1.09" ry="1.09"/>
      <g>
        <g>
          <g id="path3870-5-4-1-3-9-13-48-41">
            <rect class="cls-3" x="52.8" y="19.32" width="1.14" height="3.24"/>
          </g>
          <g id="rect36057-3-4-8-4-7-5-0-7-5-24-7-7-2-5-48-13-48-41">
            <rect class="cls-4" x="52.8" y="20.86" width="1.14" height="0.36"/>
          </g>
        </g>
        <g>
          <g id="path3870-5-4-1-3-9-13-48-41-2">
            <rect class="cls-3" x="66.46" y="19.32" width="1.14" height="3.24"/>
          </g>
          <g id="rect36057-3-4-8-4-7-5-0-7-5-24-7-7-2-5-48-13-48-41-2">
            <rect class="cls-4" x="66.46" y="20.86" width="1.14" height="0.36"/>
          </g>
        </g>
        <g>
          <g id="path3870-5-4-1-3-9-13-48-41-3">
            <rect class="cls-3" x="55.07" y="19.32" width="1.14" height="3.24"/>
          </g>
          <g id="rect36057-3-4-8-4-7-5-0-7-5-24-7-7-2-5-48-13-48-41-3">
            <rect class="cls-4" x="55.07" y="20.86" width="1.14" height="0.36"/>
          </g>
        </g>
        <g>
          <g id="path3870-5-4-1-3-9-13-48-41-4">
            <rect class="cls-3" x="57.35" y="19.32" width="1.14" height="3.24"/>
          </g>
          <g id="rect36057-3-4-8-4-7-5-0-7-5-24-7-7-2-5-48-13-48-41-4">
            <rect class="cls-4" x="57.35" y="20.86" width="1.14" height="0.36"/>
          </g>
        </g>
        <g>
          <g id="path3870-5-4-1-3-9-13-48-41-5">
            <rect class="cls-3" x="59.64" y="19.32" width="1.14" height="3.24"/>
          </g>
          <g id="rect36057-3-4-8-4-7-5-0-7-5-24-7-7-2-5-48-13-48-41-5">
            <rect class="cls-4" x="59.64" y="20.86" width="1.14" height="0.36"/>
          </g>
        </g>
        <g>
          <g id="path3870-5-4-1-3-9-13-48-41-6">
            <rect class="cls-3" x="61.91" y="19.32" width="1.14" height="3.24"/>
          </g>
          <g id="rect36057-3-4-8-4-7-5-0-7-5-24-7-7-2-5-48-13-48-41-6">
            <rect class="cls-4" x="61.91" y="20.86" width="1.14" height="0.36"/>
          </g>
        </g>
        <g>
          <g id="path3870-5-4-1-3-9-13-48-41-7">
            <rect class="cls-3" x="64.19" y="19.32" width="1.14" height="3.24"/>
          </g>
          <g id="rect36057-3-4-8-4-7-5-0-7-5-24-7-7-2-5-48-13-48-41-7">
            <rect class="cls-4" x="64.19" y="20.86" width="1.14" height="0.36"/>
          </g>
        </g>
        <g>
          <g id="path3870-5-4-1-3-9-13-48-41-8">
            <rect class="cls-3" x="68.74" y="19.32" width="1.14" height="3.24"/>
          </g>
          <g id="rect36057-3-4-8-4-7-5-0-7-5-24-7-7-2-5-48-13-48-41-8">
            <rect class="cls-4" x="68.74" y="20.86" width="1.14" height="0.36"/>
          </g>
        </g>
      </g>
      <g>
        <g>
          <g id="path3870-5-4-1-3-9-13-48-41-9">
            <rect class="cls-3" x="52.8" y="42.41" width="1.14" height="3.24"/>
          </g>
          <g id="rect36057-3-4-8-4-7-5-0-7-5-24-7-7-2-5-48-13-48-41-9">
            <rect class="cls-4" x="52.8" y="43.94" width="1.14" height="0.36"/>
          </g>
        </g>
        <g>
          <g id="path3870-5-4-1-3-9-13-48-41-10">
            <rect class="cls-3" x="66.46" y="42.41" width="1.14" height="3.24"/>
          </g>
          <g id="rect36057-3-4-8-4-7-5-0-7-5-24-7-7-2-5-48-13-48-41-10">
            <rect class="cls-4" x="66.46" y="43.94" width="1.14" height="0.36"/>
          </g>
        </g>
        <g>
          <g id="path3870-5-4-1-3-9-13-48-41-11">
            <rect class="cls-3" x="55.07" y="42.41" width="1.14" height="3.24"/>
          </g>
          <g id="rect36057-3-4-8-4-7-5-0-7-5-24-7-7-2-5-48-13-48-41-11">
            <rect class="cls-4" x="55.07" y="43.94" width="1.14" height="0.36"/>
          </g>
        </g>
        <g>
          <g id="path3870-5-4-1-3-9-13-48-41-12">
            <rect class="cls-3" x="57.35" y="42.41" width="1.14" height="3.24"/>
          </g>
          <g id="rect36057-3-4-8-4-7-5-0-7-5-24-7-7-2-5-48-13-48-41-12">
            <rect class="cls-4" x="57.35" y="43.94" width="1.14" height="0.36"/>
          </g>
        </g>
        <g>
          <g id="path3870-5-4-1-3-9-13-48-41-13">
            <rect class="cls-3" x="59.64" y="42.41" width="1.14" height="3.24"/>
          </g>
          <g id="rect36057-3-4-8-4-7-5-0-7-5-24-7-7-2-5-48-13-48-41-13">
            <rect class="cls-4" x="59.64" y="43.94" width="1.14" height="0.36"/>
          </g>
        </g>
        <g>
          <g id="path3870-5-4-1-3-9-13-48-41-14">
            <rect class="cls-3" x="61.91" y="42.41" width="1.14" height="3.24"/>
          </g>
          <g id="rect36057-3-4-8-4-7-5-0-7-5-24-7-7-2-5-48-13-48-41-14">
            <rect class="cls-4" x="61.91" y="43.94" width="1.14" height="0.36"/>
          </g>
        </g>
        <g>
          <g id="path3870-5-4-1-3-9-13-48-41-15">
            <rect class="cls-3" x="64.19" y="42.41" width="1.14" height="3.24"/>
          </g>
          <g id="rect36057-3-4-8-4-7-5-0-7-5-24-7-7-2-5-48-13-48-41-15">
            <rect class="cls-4" x="64.19" y="43.94" width="1.14" height="0.36"/>
          </g>
        </g>
        <g>
          <g id="path3870-5-4-1-3-9-13-48-41-16">
            <rect class="cls-3" x="68.74" y="42.41" width="1.14" height="3.24"/>
          </g>
          <g id="rect36057-3-4-8-4-7-5-0-7-5-24-7-7-2-5-48-13-48-41-16">
            <rect class="cls-4" x="68.74" y="43.94" width="1.14" height="0.36"/>
          </g>
        </g>
      </g>
      <g>
        <g>
          <g id="path3870-5-4-1-3-9-13-48-41-17">
            <rect class="cls-3" x="48.16" y="23.96" width="3.24" height="1.14"/>
          </g>
          <g id="rect36057-3-4-8-4-7-5-0-7-5-24-7-7-2-5-48-13-48-41-17">
            <rect class="cls-4" x="49.51" y="23.96" width="0.36" height="1.14"/>
          </g>
        </g>
        <g>
          <g id="path3870-5-4-1-3-9-13-48-41-18">
            <rect class="cls-3" x="48.16" y="37.62" width="3.24" height="1.14"/>
          </g>
          <g id="rect36057-3-4-8-4-7-5-0-7-5-24-7-7-2-5-48-13-48-41-18">
            <rect class="cls-4" x="49.51" y="37.62" width="0.36" height="1.14"/>
          </g>
        </g>
        <g>
          <g id="path3870-5-4-1-3-9-13-48-41-19">
            <rect class="cls-3" x="48.16" y="26.22" width="3.24" height="1.14"/>
          </g>
          <g id="rect36057-3-4-8-4-7-5-0-7-5-24-7-7-2-5-48-13-48-41-19">
            <rect class="cls-4" x="49.51" y="26.22" width="0.36" height="1.14"/>
          </g>
        </g>
        <g>
          <g id="path3870-5-4-1-3-9-13-48-41-20">
            <rect class="cls-3" x="48.16" y="28.51" width="3.24" height="1.14"/>
          </g>
          <g id="rect36057-3-4-8-4-7-5-0-7-5-24-7-7-2-5-48-13-48-41-20">
            <rect class="cls-4" x="49.51" y="28.51" width="0.36" height="1.14"/>
          </g>
        </g>
        <g>
          <g id="path3870-5-4-1-3-9-13-48-41-21">
            <rect class="cls-3" x="48.16" y="30.79" width="3.24" height="1.14"/>
          </g>
          <g id="rect36057-3-4-8-4-7-5-0-7-5-24-7-7-2-5-48-13-48-41-21">
            <rect class="cls-4" x="49.51" y="30.79" width="0.36" height="1.14"/>
          </g>
        </g>
        <g>
          <g id="path3870-5-4-1-3-9-13-48-41-22">
            <rect class="cls-3" x="48.16" y="33.05" width="3.24" height="1.14"/>
          </g>
          <g id="rect36057-3-4-8-4-7-5-0-7-5-24-7-7-2-5-48-13-48-41-22">
            <rect class="cls-4" x="49.51" y="33.05" width="0.36" height="1.14"/>
          </g>
        </g>
        <g>
          <g id="path3870-5-4-1-3-9-13-48-41-23">
            <rect class="cls-3" x="48.16" y="35.34" width="3.24" height="1.14"/>
          </g>
          <g id="rect36057-3-4-8-4-7-5-0-7-5-24-7-7-2-5-48-13-48-41-23">
            <rect class="cls-4" x="49.51" y="35.34" width="0.36" height="1.14"/>
          </g>
        </g>
        <g>
          <g id="path3870-5-4-1-3-9-13-48-41-24">
            <rect class="cls-3" x="48.16" y="39.89" width="3.24" height="1.14"/>
          </g>
          <g id="rect36057-3-4-8-4-7-5-0-7-5-24-7-7-2-5-48-13-48-41-24">
            <rect class="cls-4" x="49.51" y="39.89" width="0.36" height="1.14"/>
          </g>
        </g>
      </g>
      <g>
        <g>
          <g id="path3870-5-4-1-3-9-13-48-41-25">
            <rect class="cls-3" x="71.28" y="39.89" width="3.24" height="1.14"/>
          </g>
          <g id="rect36057-3-4-8-4-7-5-0-7-5-24-7-7-2-5-48-13-48-41-25">
            <rect class="cls-4" x="72.82" y="39.89" width="0.36" height="1.14"/>
          </g>
        </g>
        <g>
          <g id="path3870-5-4-1-3-9-13-48-41-26">
            <rect class="cls-3" x="71.28" y="26.22" width="3.24" height="1.14"/>
          </g>
          <g id="rect36057-3-4-8-4-7-5-0-7-5-24-7-7-2-5-48-13-48-41-26">
            <rect class="cls-4" x="72.82" y="26.22" width="0.36" height="1.14"/>
          </g>
        </g>
        <g>
          <g id="path3870-5-4-1-3-9-13-48-41-27">
            <rect class="cls-3" x="71.28" y="37.62" width="3.24" height="1.14"/>
          </g>
          <g id="rect36057-3-4-8-4-7-5-0-7-5-24-7-7-2-5-48-13-48-41-27">
            <rect class="cls-4" x="72.82" y="37.62" width="0.36" height="1.14"/>
          </g>
        </g>
        <g>
          <g id="path3870-5-4-1-3-9-13-48-41-28">
            <rect class="cls-3" x="71.28" y="35.34" width="3.24" height="1.14"/>
          </g>
          <g id="rect36057-3-4-8-4-7-5-0-7-5-24-7-7-2-5-48-13-48-41-28">
            <rect class="cls-4" x="72.82" y="35.34" width="0.36" height="1.14"/>
          </g>
        </g>
        <g>
          <g id="path3870-5-4-1-3-9-13-48-41-29">
            <rect class="cls-3" x="71.28" y="33.05" width="3.24" height="1.14"/>
          </g>
          <g id="rect36057-3-4-8-4-7-5-0-7-5-24-7-7-2-5-48-13-48-41-29">
            <rect class="cls-4" x="72.82" y="33.05" width="0.36" height="1.14"/>
          </g>
        </g>
        <g>
          <g id="path3870-5-4-1-3-9-13-48-41-30">
            <rect class="cls-3" x="71.28" y="30.79" width="3.24" height="1.14"/>
          </g>
          <g id="rect36057-3-4-8-4-7-5-0-7-5-24-7-7-2-5-48-13-48-41-30">
            <rect class="cls-4" x="72.82" y="30.79" width="0.36" height="1.14"/>
          </g>
        </g>
        <g>
          <g id="path3870-5-4-1-3-9-13-48-41-31">
            <rect class="cls-3" x="71.28" y="28.51" width="3.24" height="1.14"/>
          </g>
          <g id="rect36057-3-4-8-4-7-5-0-7-5-24-7-7-2-5-48-13-48-41-31">
            <rect class="cls-4" x="72.82" y="28.51" width="0.36" height="1.14"/>
          </g>
        </g>
        <g>
          <g id="path3870-5-4-1-3-9-13-48-41-32">
            <rect class="cls-3" x="71.28" y="23.96" width="3.24" height="1.14"/>
          </g>
          <g id="rect36057-3-4-8-4-7-5-0-7-5-24-7-7-2-5-48-13-48-41-32">
            <rect class="cls-4" x="72.82" y="23.96" width="0.36" height="1.14"/>
          </g>
        </g>
      </g>
      <path id="rect25548-0-9-3-9-8-3-8-3-2" class="cls-5" d="M54.43,24.4h0a.67.67,0,0,1-.67.67h0a.67.67,0,0,1-.67-.67h0a.67.67,0,0,1,.67-.67h0A.67.67,0,0,1,54.43,24.4Z" transform="translate(0.01 0)"/>
    </g>
    <g id="QS">
      <path id="path9761-7-4" class="cls-6" d="M39,38.44a.2.2,0,0,1-.2-.2h0V18.69a.2.2,0,1,1,.4,0V38.24a.2.2,0,0,1-.2.2h0" transform="translate(0.01 0)"/>
      <path id="path9765-4-7" class="cls-6" d="M28.88,38.44a.2.2,0,0,1-.2-.2h0V18.69a.2.2,0,1,1,.4,0h0V38.24a.2.2,0,0,1-.2.2h0" transform="translate(0.01 0)"/>
      <path id="path9769-1-6" class="cls-6" d="M28.88,18.89h0a.21.21,0,0,1-.15-.25l.49-1.93v-.06L30.43,15h0l1.45-1.21H32l1.93-.24,2,.24H36L37.7,15v.09l1.21,1.69v.09l.25,1.93A.19.19,0,0,1,39,19h0a.19.19,0,0,1-.22-.15h0L38.54,17l-1.16-1.62L35.8,14.05l-1.88-.24-1.82.24L30.72,15.2l-1.17,1.64-.48,1.89a.18.18,0,0,1-.19.15" transform="translate(0.01 0)"/>
      <path id="path9781-9-7" class="cls-6" d="M34,43.51h0l-2-.46h-.06l-1.45-1h0l-1.26-1.7v-.07l-.49-1.93a.18.18,0,0,1,.1-.22.17.17,0,0,1,.22.1h0l.48,1.9,1.16,1.63,1.39.92,1.85.47,1.91-.51,1.63-.93,1.14-1.66.23-1.83a.19.19,0,0,1,.2-.16h0a.22.22,0,0,1,.18.23L39,40.22v.09l-1.2,1.74-.06.06-1.69,1h0l-1.93.49h0" transform="translate(0.01 0)"/>
      <path id="path13009-9-5" class="cls-7" d="M34.06,11.61c-3.24,0-5.89,2.07-6.19,4.72V39.87c0,2.88,2.79,5.22,6.22,5.22s6.21-2.34,6.21-5.22V16.33c-.3-2.65-3-4.72-6.18-4.72" transform="translate(0.01 0)"/>
      <path id="path13013-6-9" class="cls-8" d="M27.91,16.39V39.87c0,2.84,2.76,5.16,6.15,5.16s6.15-2.32,6.15-5.16V16.33c-.3-2.66-2.93-4.66-6.12-4.66s-5.82,2-6.12,4.66v.06Zm6.15,28.76c-3.46,0-6.28-2.37-6.28-5.28V16.26c.33-2.69,3-4.72,6.24-4.72s5.9,2,6.24,4.72V39.87c0,2.91-2.81,5.28-6.27,5.28" transform="translate(0.01 0)"/>
      <path id="path13017-2-6" class="cls-7" d="M34.06,12.53a5.33,5.33,0,0,0-5.46,4.52v22.2a5.51,5.51,0,0,0,11,0V17.05a5.3,5.3,0,0,0-5.45-4.46" transform="translate(0.01 0)"/>
      <path id="path13021-7-5" class="cls-8" d="M28.64,17.05v22.2a5.45,5.45,0,0,0,10.84,0V17.05a5.5,5.5,0,0,0-10.78,0Zm5.42,27.18a5.31,5.31,0,0,1-5.55-5V16.93a5.63,5.63,0,0,1,11,0V39.24a5.29,5.29,0,0,1-5.54,5" transform="translate(0.01 0)"/>
      <path id="path13037-5-4" class="cls-7" d="M34.06,13.72a4.58,4.58,0,0,0-4.54,4.13V38.41a4.56,4.56,0,1,0,9.11.44h0v-21a4.56,4.56,0,0,0-4.54-4.13" transform="translate(0.01 0)"/>
      <path id="path13041-0-3" class="cls-8" d="M29.56,17.91v20.5a4.5,4.5,0,1,0,9,0V17.85a4.5,4.5,0,1,0-9,0Zm4.5,25.14a4.64,4.64,0,0,1-4.62-4.63V17.78a4.62,4.62,0,0,1,9.19,0V38.41a4.62,4.62,0,0,1-4.57,4.64" transform="translate(0.01 0)"/>
    </g>
    <g id="LED-0805">
      <rect id="rect21332-8-1-9-3-8-2-40-6-2-0-6-6-0-5-6-4-8-7-2-0-7-2-3-9-16-9" class="cls-9" x="62.92" y="12.32" width="2.9" height="3.4"/>
      <rect id="rect21332-8-1-9-3-8-2-40-6-2-0-6-6-0-5-6-4-8-7-2-0-7-2-3-10-16-9" class="cls-9" x="67.95" y="12.32" width="2.9" height="3.4"/>
      <path class="cls-10" d="M64.45,12.31h4.84a.42.42,0,0,1,.42.42h0v2.55a.4.4,0,0,1-.37.43H64.48a.41.41,0,0,1-.41-.41h0V12.74a.44.44,0,0,1,.41-.43h0Z" transform="translate(0.01 0)"/>
      <rect class="cls-11" x="64.77" y="12.32" width="4.25" height="3.4"/>
      <path id="path26341-4-2-6-0-8-1-1-1-5-0-3-3-1-8-3-8-7-7-7-2-4-9-7-2-3-5-16-9" class="cls-12" d="M65.45,15.71h2.84v-3.4H65.45Z" transform="translate(0.01 0)"/>
      <path id="path6963-86-8-2-6-0-1-7-9-2-3" class="cls-13" d="M65.71,13.8h.39v.42h-.39Z" transform="translate(0.01 0)"/>
    </g>
    <g id="LED-0805-2">
      <rect id="rect21332-8-1-9-3-8-2-40-6-2-0-6-6-0-5-6-4-8-7-2-0-7-2-3-9-16-9-2" class="cls-9" x="78.19" y="16.8" width="3.4" height="2.9"/>
      <rect id="rect21332-8-1-9-3-8-2-40-6-2-0-6-6-0-5-6-4-8-7-2-0-7-2-3-10-16-9-2" class="cls-9" x="78.19" y="21.81" width="3.4" height="2.9"/>
      <path class="cls-10" d="M81.58,18.32v4.84a.42.42,0,0,1-.42.42H78.61a.41.41,0,0,1-.43-.39h0V18.35a.41.41,0,0,1,.41-.41h2.56a.43.43,0,0,1,.43.41h0Z" transform="translate(0.01 0)"/>
      <rect class="cls-11" x="78.19" y="18.63" width="3.4" height="4.25"/>
      <path id="path26341-4-2-6-0-8-1-1-1-5-0-3-3-1-8-3-8-7-7-7-2-4-9-7-2-3-5-16-9-2" class="cls-12" d="M78.18,19.32v2.84h3.4V19.32Z" transform="translate(0.01 0)"/>
      <path id="path6963-86-8-2-6-0-1-7-9-2-3-2" class="cls-13" d="M80.09,19.58V20h-.42v-.39Z" transform="translate(0.01 0)"/>
    </g>
    <g id="T-SOT235">
      <path id="path3479-7" class="cls-14" d="M12.81,25.15V23.53h2.57v1.62Z" transform="translate(0.01 0)"/>
      <path id="path3481-0" class="cls-4" d="M14.29,25.15V23.53h.86v1.62Z" transform="translate(0.01 0)"/>
      <path id="path3483-6" class="cls-14" d="M12.81,19.61V18h2.57v1.6Z" transform="translate(0.01 0)"/>
      <path id="path3485-6" class="cls-4" d="M14.29,19.61V18h.86v1.6Z" transform="translate(0.01 0)"/>
      <path id="path3487-1" class="cls-14" d="M21.4,25.15V23.53H18.84v1.62Z" transform="translate(0.01 0)"/>
      <path id="path3489-6" class="cls-4" d="M19.93,25.15V23.53h-.78v1.62Z" transform="translate(0.01 0)"/>
      <path id="path3477-9" class="cls-2" d="M15.37,25.79V17.37h3.48v8.42Z" transform="translate(0.01 0)"/>
      <path id="path3479-7-2" class="cls-14" d="M12.81,22.39V20.77h2.57v1.62Z" transform="translate(0.01 0)"/>
      <path id="path3481-0-2" class="cls-4" d="M14.29,22.39V20.77h.86v1.62Z" transform="translate(0.01 0)"/>
      <path id="path3487-1-2" class="cls-14" d="M21.4,19.62V18H18.84v1.62Z" transform="translate(0.01 0)"/>
      <path id="path3489-6-2" class="cls-4" d="M19.93,19.62V18h-.78v1.62Z" transform="translate(0.01 0)"/>
    </g>
    <g id="D-SOD323">
      <rect id="rect21332-8-1-9-3-5-5-5-7-7-6" class="cls-9" x="11.94" y="11.62" width="4.08" height="3.8"/>
      <rect id="rect21332-1-0-1-9-2-0-7-3-5-9-5" class="cls-9" x="17.96" y="11.62" width="4.08" height="3.8"/>
      <path id="path32574-5-6-2-6-7" class="cls-14" d="M21,14.87v-2.7H19.1v2.7Z" transform="translate(0.01 0)"/>
      <path id="path32578-9-7-2-9-4" class="cls-14" d="M14.83,14.78V12.25h-1.9v2.54Z" transform="translate(0.01 0)"/>
      <path id="path32580-3-1-0-1-3" class="cls-4" d="M14,14.78V12.25h-.6v2.54Z" transform="translate(0.01 0)"/>
      <path id="path32590-0-9-7-9-9" class="cls-2" d="M19.92,15.4V11.64H14V15.4Z" transform="translate(0.01 0)"/>
      <path id="path32576-2-7-7-0-2" class="cls-4" d="M20.54,14.87v-2.7h-.61v2.7Z" transform="translate(0.01 0)"/>
    </g>
    <g id="but">
      <polygon id="polygon666" class="cls-15" points="18.66 37.52 18.66 34.48 12.38 34.48 12.38 44.58 18.66 44.58 18.66 41.53 18.52 41.53 18.52 37.52 18.66 37.52"/>
      <circle id="circle668" cx="15.53" cy="39.41" r="2.03"/>
      <rect class="cls-16" x="13.65" y="33.62" width="3.75" height="0.86"/>
      <rect class="cls-16" x="13.65" y="44.57" width="3.75" height="0.86"/>
    </g>
    <g id="R-0805">
      <g>
        <rect id="rect21332-8-1-9-3-8-2-40-6-2-0-6-6-0-5-6-4-8-7-2-0-7-2-3-9-16-6" class="cls-9" x="41.44" y="38.16" width="3.4" height="2.9"/>
        <rect id="rect21332-8-1-9-3-8-2-40-6-2-0-6-6-0-5-6-4-8-7-2-0-7-2-3-10-16-6" class="cls-9" x="41.44" y="33.14" width="3.4" height="2.9"/>
      </g>
      <g>
        <path class="cls-10" d="M41.43,39.51V34.67a.42.42,0,0,1,.42-.42H44.4a.41.41,0,0,1,.43.39h0v4.84a.41.41,0,0,1-.41.41H41.86a.43.43,0,0,1-.43-.41h0Z" transform="translate(0.01 0)"/>
        <g id="path26345-3-6-9-3-6-4-2-5-6-8-7-9-0-90-3-1-3-9-2-2-8-5-0-2-3-5-16-6">
          <rect class="cls-11" x="41.44" y="34.98" width="3.4" height="4.25"/>
        </g>
        <path id="path26341-4-2-6-0-8-1-1-1-5-0-3-3-1-8-3-8-7-7-7-2-4-9-7-2-3-5-16-6" class="cls-2" d="M44.83,38.5V35.67h-3.4V38.5Z" transform="translate(0.01 0)"/>
      </g>
    </g>
    <g id="R-0805-2">
      <g>
        <rect id="rect21332-8-1-9-3-8-2-40-6-2-0-6-6-0-5-6-4-8-7-2-0-7-2-3-9-16-6-2" class="cls-9" x="52.19" y="12.32" width="2.9" height="3.4"/>
        <rect id="rect21332-8-1-9-3-8-2-40-6-2-0-6-6-0-5-6-4-8-7-2-0-7-2-3-10-16-6-2" class="cls-9" x="57.21" y="12.32" width="2.9" height="3.4"/>
      </g>
      <g>
        <path class="cls-10" d="M53.73,12.31h4.84a.42.42,0,0,1,.42.42h0v2.55a.41.41,0,0,1-.39.43H53.76a.41.41,0,0,1-.41-.41h0V12.74a.43.43,0,0,1,.41-.43h0Z" transform="translate(0.01 0)"/>
        <g id="path26345-3-6-9-3-6-4-2-5-6-8-7-9-0-90-3-1-3-9-2-2-8-5-0-2-3-5-16-6-2">
          <rect class="cls-11" x="54.03" y="12.32" width="4.25" height="3.4"/>
        </g>
        <path id="path26341-4-2-6-0-8-1-1-1-5-0-3-3-1-8-3-8-7-7-7-2-4-9-7-2-3-5-16-6-2" class="cls-2" d="M54.74,15.71h2.83v-3.4H54.74Z" transform="translate(0.01 0)"/>
      </g>
    </g>
    <g id="R-0805-3">
      <g>
        <rect id="rect21332-8-1-9-3-8-2-40-6-2-0-6-6-0-5-6-4-8-7-2-0-7-2-3-9-16-6-3" class="cls-9" x="73.67" y="12.19" width="2.9" height="3.4"/>
        <rect id="rect21332-8-1-9-3-8-2-40-6-2-0-6-6-0-5-6-4-8-7-2-0-7-2-3-10-16-6-3" class="cls-9" x="78.69" y="12.19" width="2.9" height="3.4"/>
      </g>
      <g>
        <path class="cls-10" d="M75.2,12.19H80a.42.42,0,0,1,.42.42h0v2.55a.41.41,0,0,1-.39.43h-4.8a.41.41,0,0,1-.41-.41h0V12.62a.43.43,0,0,1,.41-.43h0Z" transform="translate(0.01 0)"/>
        <g id="path26345-3-6-9-3-6-4-2-5-6-8-7-9-0-90-3-1-3-9-2-2-8-5-0-2-3-5-16-6-3">
          <rect class="cls-11" x="75.49" y="12.19" width="4.25" height="3.4"/>
        </g>
        <path id="path26341-4-2-6-0-8-1-1-1-5-0-3-3-1-8-3-8-7-7-7-2-4-9-7-2-3-5-16-6-3" class="cls-2" d="M76.21,15.59H79v-3.4H76.21Z" transform="translate(0.01 0)"/>
      </g>
    </g>
    <g id="R-0805-4">
      <g>
        <rect id="rect21332-8-1-9-3-8-2-40-6-2-0-6-6-0-5-6-4-8-7-2-0-7-2-3-9-16-6-4" class="cls-9" x="22.14" y="37.51" width="3.4" height="2.9"/>
        <rect id="rect21332-8-1-9-3-8-2-40-6-2-0-6-6-0-5-6-4-8-7-2-0-7-2-3-10-16-6-4" class="cls-9" x="22.14" y="42.53" width="3.4" height="2.9"/>
      </g>
      <g>
        <path class="cls-10" d="M25.54,39v4.84a.42.42,0,0,1-.42.42H22.57a.4.4,0,0,1-.43-.37h0v-4.8a.41.41,0,0,1,.41-.41h2.56a.42.42,0,0,1,.43.41h0Z" transform="translate(0.01 0)"/>
        <g id="path26345-3-6-9-3-6-4-2-5-6-8-7-9-0-90-3-1-3-9-2-2-8-5-0-2-3-5-16-6-4">
          <rect class="cls-11" x="22.14" y="39.34" width="3.4" height="4.25"/>
        </g>
        <path id="path26341-4-2-6-0-8-1-1-1-5-0-3-3-1-8-3-8-7-7-7-2-4-9-7-2-3-5-16-6-4" class="cls-2" d="M22.14,40.05v2.83h3.4V40.05Z" transform="translate(0.01 0)"/>
      </g>
    </g>
    <g id="C-0805">
      <rect id="rect21332-8-1-9-3-8-2-40-6-2-0-6-6-0-5-6-4-8-7-2-0-7-2-3-9-16-3" class="cls-9" x="41.44" y="27.85" width="3.4" height="2.9"/>
      <rect id="rect21332-8-1-9-3-8-2-40-6-2-0-6-6-0-5-6-4-8-7-2-0-7-2-3-10-16-3" class="cls-9" x="41.44" y="22.8" width="3.4" height="2.9"/>
      <path class="cls-10" d="M41.43,29.18V24.34a.42.42,0,0,1,.42-.42H44.4a.41.41,0,0,1,.43.39h0v4.84a.41.41,0,0,1-.41.41H41.86a.43.43,0,0,1-.43-.41h0Z" transform="translate(0.01 0)"/>
      <g id="path26345-3-6-9-3-6-4-2-5-6-8-7-9-0-90-3-1-3-9-2-2-8-5-0-2-3-5-16-3">
        <rect class="cls-11" x="41.44" y="24.63" width="3.4" height="4.25"/>
      </g>
      <path id="path26341-4-2-6-0-8-1-1-1-5-0-3-3-1-8-3-8-7-7-7-2-4-9-7-2-3-5-16-3" class="cls-17" d="M44.83,28.18V25.34h-3.4v2.84Z" transform="translate(0.01 0)"/>
    </g>
    <g id="C-0805-2">
      <rect id="rect21332-8-1-9-3-8-2-40-6-2-0-6-6-0-5-6-4-8-7-2-0-7-2-3-9-16-3-2" class="cls-9" x="11.69" y="28.43" width="2.9" height="3.4"/>
      <rect id="rect21332-8-1-9-3-8-2-40-6-2-0-6-6-0-5-6-4-8-7-2-0-7-2-3-10-16-3-2" class="cls-9" x="16.73" y="28.43" width="2.9" height="3.4"/>
      <path class="cls-10" d="M13.24,28.42h4.84a.42.42,0,0,1,.42.42h0v2.55a.43.43,0,0,1-.39.43H13.27a.41.41,0,0,1-.41-.41h0V28.85a.43.43,0,0,1,.41-.43h0Z" transform="translate(0.01 0)"/>
      <g id="path26345-3-6-9-3-6-4-2-5-6-8-7-9-0-90-3-1-3-9-2-2-8-5-0-2-3-5-16-3-2">
        <rect class="cls-11" x="13.56" y="28.43" width="4.25" height="3.4"/>
      </g>
      <path id="path26341-4-2-6-0-8-1-1-1-5-0-3-3-1-8-3-8-7-7-7-2-4-9-7-2-3-5-16-3-2" class="cls-17" d="M14.24,31.82h2.84v-3.4H14.24Z" transform="translate(0.01 0)"/>
    </g>
    <g id="C-0805-3">
      <rect id="rect21332-8-1-9-3-8-2-40-6-2-0-6-6-0-5-6-4-8-7-2-0-7-2-3-9-16-3-3" class="cls-9" x="22.14" y="33.48" width="3.4" height="2.9"/>
      <rect id="rect21332-8-1-9-3-8-2-40-6-2-0-6-6-0-5-6-4-8-7-2-0-7-2-3-10-16-3-3" class="cls-9" x="22.14" y="28.43" width="3.4" height="2.9"/>
      <path class="cls-10" d="M22.14,34.81V30a.42.42,0,0,1,.42-.42h2.55a.4.4,0,0,1,.43.37h0V34.8a.41.41,0,0,1-.41.41H22.57a.44.44,0,0,1-.43-.41h0Z" transform="translate(0.01 0)"/>
      <g id="path26345-3-6-9-3-6-4-2-5-6-8-7-9-0-90-3-1-3-9-2-2-8-5-0-2-3-5-16-3-3">
        <rect class="cls-11" x="22.14" y="30.26" width="3.4" height="4.25"/>
      </g>
      <path id="path26341-4-2-6-0-8-1-1-1-5-0-3-3-1-8-3-8-7-7-7-2-4-9-7-2-3-5-16-3-3" class="cls-17" d="M25.54,33.81V31h-3.4v2.84Z" transform="translate(0.01 0)"/>
    </g>
    <g id="C-0805-4">
      <rect id="rect21332-8-1-9-3-8-2-40-6-2-0-6-6-0-5-6-4-8-7-2-0-7-2-3-9-16-3-4" class="cls-9" x="41.44" y="17.45" width="2.9" height="3.4"/>
      <rect id="rect21332-8-1-9-3-8-2-40-6-2-0-6-6-0-5-6-4-8-7-2-0-7-2-3-10-16-3-4" class="cls-9" x="46.48" y="17.45" width="2.9" height="3.4"/>
      <path class="cls-10" d="M43,17.44h4.84a.42.42,0,0,1,.42.42h0v2.55a.41.41,0,0,1-.39.43H43a.41.41,0,0,1-.41-.41h0V17.87a.43.43,0,0,1,.41-.43Z" transform="translate(0.01 0)"/>
      <g id="path26345-3-6-9-3-6-4-2-5-6-8-7-9-0-90-3-1-3-9-2-2-8-5-0-2-3-5-16-3-4">
        <rect class="cls-11" x="43.3" y="17.45" width="4.25" height="3.4"/>
      </g>
      <path id="path26341-4-2-6-0-8-1-1-1-5-0-3-3-1-8-3-8-7-7-7-2-4-9-7-2-3-5-16-3-4" class="cls-17" d="M44,20.84h2.84v-3.4H44Z" transform="translate(0.01 0)"/>
    </g>
    <g id="C-0805-5">
      <rect id="rect21332-8-1-9-3-8-2-40-6-2-0-6-6-0-5-6-4-8-7-2-0-7-2-3-9-16-3-5" class="cls-9" x="41.44" y="12.32" width="2.9" height="3.4"/>
      <rect id="rect21332-8-1-9-3-8-2-40-6-2-0-6-6-0-5-6-4-8-7-2-0-7-2-3-10-16-3-5" class="cls-9" x="46.48" y="12.32" width="2.9" height="3.4"/>
      <path class="cls-10" d="M43,12.31h4.84a.42.42,0,0,1,.42.42h0v2.55a.41.41,0,0,1-.39.43H43a.41.41,0,0,1-.41-.41h0V12.74a.43.43,0,0,1,.41-.43Z" transform="translate(0.01 0)"/>
      <g id="path26345-3-6-9-3-6-4-2-5-6-8-7-9-0-90-3-1-3-9-2-2-8-5-0-2-3-5-16-3-5">
        <rect class="cls-11" x="43.3" y="12.32" width="4.25" height="3.4"/>
      </g>
      <path id="path26341-4-2-6-0-8-1-1-1-5-0-3-3-1-8-3-8-7-7-7-2-4-9-7-2-3-5-16-3-5" class="cls-17" d="M44,15.71h2.84v-3.4H44Z" transform="translate(0.01 0)"/>
    </g>
    <g id="C-0805-6">
      <rect id="rect21332-8-1-9-3-8-2-40-6-2-0-6-6-0-5-6-4-8-7-2-0-7-2-3-9-16-3-6" class="cls-9" x="41.44" y="42.44" width="2.9" height="3.4"/>
      <rect id="rect21332-8-1-9-3-8-2-40-6-2-0-6-6-0-5-6-4-8-7-2-0-7-2-3-10-16-3-6" class="cls-9" x="46.48" y="42.44" width="2.9" height="3.4"/>
      <path class="cls-10" d="M43,42.44h4.84a.42.42,0,0,1,.42.42h0v2.55a.41.41,0,0,1-.39.43H43a.41.41,0,0,1-.41-.41h0V42.87a.43.43,0,0,1,.41-.43Z" transform="translate(0.01 0)"/>
      <g id="path26345-3-6-9-3-6-4-2-5-6-8-7-9-0-90-3-1-3-9-2-2-8-5-0-2-3-5-16-3-6">
        <rect class="cls-11" x="43.3" y="42.44" width="4.25" height="3.4"/>
      </g>
      <path id="path26341-4-2-6-0-8-1-1-1-5-0-3-3-1-8-3-8-7-7-7-2-4-9-7-2-3-5-16-3-6" class="cls-17" d="M44,45.84h2.84v-3.4H44Z" transform="translate(0.01 0)"/>
    </g>
    <g id="C-0805-7">
      <rect id="rect21332-8-1-9-3-8-2-40-6-2-0-6-6-0-5-6-4-8-7-2-0-7-2-3-9-16-3-7" class="cls-9" x="78.19" y="27.95" width="2.9" height="3.4"/>
      <rect id="rect21332-8-1-9-3-8-2-40-6-2-0-6-6-0-5-6-4-8-7-2-0-7-2-3-10-16-3-7" class="cls-9" x="83.24" y="27.95" width="2.9" height="3.4"/>
      <path class="cls-10" d="M79.74,27.94h4.84a.42.42,0,0,1,.42.42h0v2.55a.41.41,0,0,1-.39.43H79.77a.41.41,0,0,1-.41-.41h0V28.37a.43.43,0,0,1,.41-.43h0Z" transform="translate(0.01 0)"/>
      <g id="path26345-3-6-9-3-6-4-2-5-6-8-7-9-0-90-3-1-3-9-2-2-8-5-0-2-3-5-16-3-7">
        <rect class="cls-11" x="80.06" y="27.95" width="4.25" height="3.4"/>
      </g>
      <path id="path26341-4-2-6-0-8-1-1-1-5-0-3-3-1-8-3-8-7-7-7-2-4-9-7-2-3-5-16-3-7" class="cls-17" d="M80.74,31.34h2.84v-3.4H80.74Z" transform="translate(0.01 0)"/>
    </g>
    <g id="pins">
      <path id="path3566-3-5-5-2-1-3-8-7" class="cls-18" d="M88.55,50.16a1.94,1.94,0,1,0-1.94,2A2,2,0,0,0,88.55,50.16Z" transform="translate(0.01 0)"/>
      <path id="path3566-3-5-5-2-1-3-8-7-2" class="cls-18" d="M81.34,50.16a2,2,0,1,0-2,2A2,2,0,0,0,81.34,50.16Z" transform="translate(0.01 0)"/>
      <path id="path3566-3-5-5-2-1-3-8-7-3" class="cls-18" d="M74.12,50.16a1.94,1.94,0,1,0-1.94,2A2,2,0,0,0,74.12,50.16Z" transform="translate(0.01 0)"/>
      <path id="path3566-3-5-5-2-1-3-8-7-4" class="cls-18" d="M66.91,50.16a2,2,0,1,0-2,2A2,2,0,0,0,66.91,50.16Z" transform="translate(0.01 0)"/>
      <path id="path3566-3-5-5-2-1-3-8-7-5" class="cls-18" d="M59.69,50.16a1.94,1.94,0,1,0-1.94,2A2,2,0,0,0,59.69,50.16Z" transform="translate(0.01 0)"/>
      <path id="path3566-3-5-5-2-1-3-8-7-6" class="cls-18" d="M52.48,50.16a2,2,0,1,0-1.95,2A2,2,0,0,0,52.48,50.16Z" transform="translate(0.01 0)"/>
      <path id="path3566-3-5-5-2-1-3-8-7-7" class="cls-18" d="M45.26,50.16a1.94,1.94,0,1,0-1.94,2A2,2,0,0,0,45.26,50.16Z" transform="translate(0.01 0)"/>
      <path id="path3566-3-5-5-2-1-3-8-7-8" class="cls-18" d="M38.05,50.16a2,2,0,1,0-1.95,2A2,2,0,0,0,38.05,50.16Z" transform="translate(0.01 0)"/>
      <path id="path3566-3-5-5-2-1-3-8-7-9" class="cls-18" d="M30.83,50.16a1.94,1.94,0,1,0-1.94,2A2,2,0,0,0,30.83,50.16Z" transform="translate(0.01 0)"/>
      <path id="path3566-3-5-5-2-1-3-8-7-10" class="cls-18" d="M23.62,50.16a2,2,0,1,0-1.95,2A2,2,0,0,0,23.62,50.16Z" transform="translate(0.01 0)"/>
      <path id="path3566-3-5-5-2-1-3-8-7-11" class="cls-18" d="M16.4,50.16a1.94,1.94,0,1,0-1.94,2A2,2,0,0,0,16.4,50.16Z" transform="translate(0.01 0)"/>
      <path id="path3566-3-5-5-2-1-3-8-7-12" class="cls-18" d="M9.19,50.16a2,2,0,1,0-1.95,2A2,2,0,0,0,9.19,50.16Z" transform="translate(0.01 0)"/>
      <path id="path3566-3-5-5-2-1-3-8-7-13" class="cls-18" d="M9.27,43.1a1.94,1.94,0,1,0-1.94,1.95A2,2,0,0,0,9.27,43.1Z" transform="translate(0.01 0)"/>
      <path id="path3566-3-5-5-2-1-3-8-7-14" class="cls-18" d="M9.27,35.87a2,2,0,1,0,0,.06Z" transform="translate(0.01 0)"/>
      <path id="path3566-3-5-5-2-1-3-8-7-15" class="cls-18" d="M9.27,28.65a1.94,1.94,0,1,0-1.94,2A2,2,0,0,0,9.27,28.65Z" transform="translate(0.01 0)"/>
      <path id="path3566-3-5-5-2-1-3-8-7-16" class="cls-18" d="M9.27,21.42a2,2,0,1,0,0,.06Z" transform="translate(0.01 0)"/>
      <path id="path3566-3-5-5-2-1-3-8-7-17" class="cls-18" d="M9.27,14.2a1.94,1.94,0,1,0-1.94,2A2,2,0,0,0,9.27,14.2Z" transform="translate(0.01 0)"/>
      <path id="path3566-3-5-5-2-1-3-8-7-18" class="cls-18" d="M88.7,14.12a1.94,1.94,0,1,0-1.94,2A2,2,0,0,0,88.7,14.12Z" transform="translate(0.01 0)"/>
      <path id="path3566-3-5-5-2-1-3-8-7-19" class="cls-18" d="M88.7,21.33a1.94,1.94,0,1,0-1.94,2,1.94,1.94,0,0,0,1.94-2Z" transform="translate(0.01 0)"/>
      <path id="path3566-3-5-5-2-1-3-8-7-20" class="cls-18" d="M88.7,35.74a2,2,0,1,0,0,.06Z" transform="translate(0.01 0)"/>
      <path id="path3566-3-5-5-2-1-3-8-7-21" class="cls-18" d="M88.7,43a1.94,1.94,0,1,0-1.94,2A2,2,0,0,0,88.7,43Z" transform="translate(0.01 0)"/>
      <path id="path3566-3-5-5-2-1-3-8-7-22" class="cls-18" d="M81.22,43a2,2,0,1,0-1.94,2A2,2,0,0,0,81.22,43Z" transform="translate(0.01 0)"/>
      <path id="path3566-3-5-5-2-1-3-8-7-23" class="cls-18" d="M81.22,35.74a2,2,0,1,0,0,.06Z" transform="translate(0.01 0)"/>
      <path id="path3566-3-5-5-2-1-3-8-7-24" class="cls-18" d="M88.55,7a2,2,0,1,0,0,.06Z" transform="translate(0.01 0)"/>
      <path id="path3566-3-5-5-2-1-3-8-7-25" class="cls-18" d="M81.34,7a2,2,0,1,0,0,.1Z" transform="translate(0.01 0)"/>
      <path id="path3566-3-5-5-2-1-3-8-7-26" class="cls-18" d="M74.12,7a2,2,0,1,0,0,.06Z" transform="translate(0.01 0)"/>
      <path id="path3566-3-5-5-2-1-3-8-7-27" class="cls-18" d="M66.91,7a2,2,0,1,0,0,.1Z" transform="translate(0.01 0)"/>
      <path id="path3566-3-5-5-2-1-3-8-7-28" class="cls-18" d="M59.69,7a2,2,0,1,0,0,.06Z" transform="translate(0.01 0)"/>
      <path id="path3566-3-5-5-2-1-3-8-7-29" class="cls-18" d="M52.48,7a2,2,0,1,0-1.95,2,1.95,1.95,0,0,0,1.95-2Z" transform="translate(0.01 0)"/>
      <path id="path3566-3-5-5-2-1-3-8-7-30" class="cls-18" d="M45.26,7a2,2,0,1,0,0,.06Z" transform="translate(0.01 0)"/>
      <path id="path3566-3-5-5-2-1-3-8-7-31" class="cls-18" d="M38.05,7A2,2,0,1,0,36.1,9a1.95,1.95,0,0,0,1.95-2Z" transform="translate(0.01 0)"/>
      <path id="path3566-3-5-5-2-1-3-8-7-32" class="cls-18" d="M30.83,7a2,2,0,1,0,0,.06Z" transform="translate(0.01 0)"/>
      <path id="path3566-3-5-5-2-1-3-8-7-33" class="cls-18" d="M23.62,7a2,2,0,1,0-1.95,2,1.95,1.95,0,0,0,1.95-2Z" transform="translate(0.01 0)"/>
      <path id="path3566-3-5-5-2-1-3-8-7-34" class="cls-18" d="M16.4,7a2,2,0,1,0,0,.06Z" transform="translate(0.01 0)"/>
      <path id="path3566-3-5-5-2-1-3-8-7-35" class="cls-18" d="M9.19,7A2,2,0,1,0,7.24,9,1.95,1.95,0,0,0,9.19,7Z" transform="translate(0.01 0)"/>
      <text class="cls-19" transform="translate(5.74 2.66)">VIN</text>
      <text class="cls-19" transform="translate(12.53 2.66)">GND</text>
      <g class="cls-20">
        <text class="cls-19" transform="translate(20.05 2.66)">RS</text>
        <text class="cls-21" transform="translate(22.18 2.66)">T</text>
      </g>
      <text class="cls-19" transform="translate(27.26 2.66)">+5V</text>
      <text class="cls-19" transform="translate(34.99 2.66)">A3</text>
      <text class="cls-19" transform="translate(42.21 2.66)">A2</text>
      <text class="cls-19" transform="translate(49.42 2.66)">A1</text>
      <text class="cls-19" transform="translate(63.92 2.66)">13</text>
      <text class="cls-19" transform="translate(71.14 2.66)">12</text>
      <text class="cls-19" transform="translate(78.36 2.66)">11</text>
      <text class="cls-19" transform="translate(85.56 2.66)">10</text>
      <polygon class="cls-22" points="15.94 3.56 12.98 3.56 10.9 5.64 10.9 8.6 12.98 10.68 15.94 10.68 18.02 8.6 18.02 5.64 15.94 3.56"/>
      <polygon class="cls-22" points="8.72 3.44 5.78 3.44 3.69 5.53 3.69 8.47 5.78 10.55 8.72 10.55 10.8 8.47 10.8 5.53 8.72 3.44"/>
      <polygon class="cls-22" points="23.16 3.56 20.2 3.56 18.13 5.64 18.13 8.6 20.2 10.68 23.16 10.68 25.23 8.6 25.23 5.64 23.16 3.56"/>
      <polygon class="cls-22" points="30.36 3.56 27.41 3.56 25.34 5.64 25.34 8.6 27.41 10.68 30.36 10.68 32.45 8.6 32.45 5.64 30.36 3.56"/>
      <polygon class="cls-22" points="37.59 3.56 34.63 3.56 32.55 5.64 32.55 8.6 34.63 10.68 37.59 10.68 39.66 8.6 39.66 5.64 37.59 3.56"/>
      <polygon class="cls-22" points="44.8 3.56 41.84 3.56 39.77 5.64 39.77 8.6 41.84 10.68 44.8 10.68 46.88 8.6 46.88 5.64 44.8 3.56"/>
      <polygon class="cls-22" points="52.02 3.56 49.06 3.56 46.98 5.64 46.98 8.6 49.06 10.68 52.02 10.68 54.09 8.6 54.09 5.64 52.02 3.56"/>
      <polygon class="cls-22" points="59.23 3.56 56.27 3.56 54.2 5.64 54.2 8.6 56.27 10.68 59.23 10.68 61.31 8.6 61.31 5.64 59.23 3.56"/>
      <polygon class="cls-22" points="66.44 3.56 63.49 3.56 61.41 5.64 61.41 8.6 63.49 10.68 66.44 10.68 68.53 8.6 68.53 5.64 66.44 3.56"/>
      <polygon class="cls-22" points="73.66 3.56 70.7 3.56 68.63 5.64 68.63 8.6 70.7 10.68 73.66 10.68 75.75 8.6 75.75 5.64 73.66 3.56"/>
      <polygon class="cls-22" points="80.88 3.56 77.92 3.56 75.83 5.64 75.83 8.6 77.92 10.68 80.88 10.68 82.95 8.6 82.95 5.64 80.88 3.56"/>
      <polygon class="cls-22" points="88.08 3.56 85.14 3.56 83.06 5.64 83.06 8.6 85.14 10.68 88.08 10.68 90.17 8.6 90.17 5.64 88.08 3.56"/>
      <polygon class="cls-22" points="8.72 46.6 5.78 46.6 3.69 48.7 3.69 51.63 5.78 53.73 8.72 53.73 10.8 51.63 10.8 48.7 8.72 46.6"/>
      <polygon class="cls-22" points="15.94 46.6 12.98 46.6 10.9 48.7 10.9 51.63 12.98 53.73 15.94 53.73 18.02 51.63 18.02 48.7 15.94 46.6"/>
      <polygon class="cls-22" points="23.16 46.6 20.2 46.6 18.13 48.7 18.13 51.63 20.2 53.73 23.16 53.73 25.23 51.63 25.23 48.7 23.16 46.6"/>
      <polygon class="cls-22" points="30.36 46.6 27.41 46.6 25.34 48.7 25.34 51.63 27.41 53.73 30.36 53.73 32.45 51.63 32.45 48.7 30.36 46.6"/>
      <polygon class="cls-22" points="37.59 46.6 34.63 46.6 32.55 48.7 32.55 51.63 34.63 53.73 37.59 53.73 39.66 51.63 39.66 48.7 37.59 46.6"/>
      <polygon class="cls-22" points="44.8 46.6 41.84 46.6 39.77 48.7 39.77 51.63 41.84 53.73 44.8 53.73 46.88 51.63 46.88 48.7 44.8 46.6"/>
      <polygon class="cls-22" points="52.02 46.6 49.06 46.6 46.98 48.7 46.98 51.63 49.06 53.73 52.02 53.73 54.09 51.63 54.09 48.7 52.02 46.6"/>
      <polygon class="cls-22" points="59.23 46.6 56.27 46.6 54.2 48.7 54.2 51.63 56.27 53.73 59.23 53.73 61.31 51.63 61.31 48.7 59.23 46.6"/>
      <polygon class="cls-22" points="66.44 46.6 63.49 46.6 61.41 48.7 61.41 51.63 63.49 53.73 66.44 53.73 68.53 51.63 68.53 48.7 66.44 46.6"/>
      <polygon class="cls-22" points="73.66 46.6 70.7 46.6 68.63 48.7 68.63 51.63 70.7 53.73 73.66 53.73 75.75 51.63 75.75 48.7 73.66 46.6"/>
      <polygon class="cls-22" points="80.88 46.6 77.92 46.6 75.83 48.7 75.83 51.63 77.92 53.73 80.88 53.73 82.95 51.63 82.95 48.7 80.88 46.6"/>
      <polygon class="cls-22" points="88.08 46.6 85.14 46.6 83.06 48.7 83.06 51.63 85.14 53.73 88.08 53.73 90.17 51.63 90.17 48.7 88.08 46.6"/>
      <polygon class="cls-22" points="88.23 17.77 85.28 17.77 83.2 19.86 83.2 22.8 85.28 24.89 88.23 24.89 90.33 22.8 90.33 19.86 88.23 17.77"/>
      <polygon class="cls-22" points="88.23 10.56 85.28 10.56 83.2 12.64 83.2 15.6 85.28 17.68 88.23 17.68 90.33 15.6 90.33 12.64 88.23 10.56"/>
      <polygon class="cls-22" points="8.72 39.41 5.78 39.41 3.69 41.49 3.69 44.45 5.78 46.52 8.72 46.52 10.8 44.45 10.8 41.49 8.72 39.41"/>
      <polygon class="cls-22" points="8.72 32.22 5.78 32.22 3.69 34.3 3.69 37.24 5.78 39.34 8.72 39.34 10.8 37.24 10.8 34.3 8.72 32.22"/>
      <polygon class="cls-22" points="8.72 25.02 5.78 25.02 3.69 27.11 3.69 30.05 5.78 32.13 8.72 32.13 10.8 30.05 10.8 27.11 8.72 25.02"/>
      <polygon class="cls-22" points="8.72 17.82 5.78 17.82 3.69 19.91 3.69 22.86 5.78 24.95 8.72 24.95 10.8 22.86 10.8 19.91 8.72 17.82"/>
      <polygon class="cls-22" points="8.72 10.63 5.78 10.63 3.69 12.71 3.69 15.66 5.78 17.75 8.72 17.75 10.8 15.66 10.8 12.71 8.72 10.63"/>
      <polygon class="cls-22" points="90.17 34.41 88.08 32.34 85.14 32.34 83.06 34.41 83.06 44.48 85.14 46.56 88.08 46.56 90.17 44.48 90.17 34.41"/>
      <polygon class="cls-22" points="82.95 34.41 80.88 32.34 77.92 32.34 75.83 34.41 75.83 44.48 77.92 46.56 80.88 46.56 82.95 44.48 82.95 34.41"/>
      <path class="cls-22" d="M90.13,44.56" transform="translate(0.01 0)"/>
      <path class="cls-22" d="M88.05,46.64" transform="translate(0.01 0)"/>
      <path class="cls-22" d="M85.1,46.64" transform="translate(0.01 0)"/>
      <path class="cls-22" d="M83,44.56" transform="translate(0.01 0)"/>
      <path class="cls-22" d="M83.08,41.46" transform="translate(0.01 0)"/>
      <text class="cls-19" transform="translate(56.64 2.66)">A0</text>
      <text class="cls-19" transform="translate(92.74 15.98) rotate(-90)">GND</text>
      <text class="cls-19" transform="translate(92.74 22.98) rotate(-90)">+5V</text>
      <text class="cls-19" transform="translate(92.67 36.73) rotate(-90)">A6</text>
      <text class="cls-19" transform="translate(92.49 44.35) rotate(-90)">A4</text>
      <text class="cls-19" transform="translate(74.49 44.35) rotate(-90)">A5</text>
      <text class="cls-19" transform="translate(86.09 55.96)">9</text>
      <text class="cls-19" transform="translate(78.87 55.96)">8</text>
      <text class="cls-19" transform="translate(71.65 55.96)">7</text>
      <text class="cls-19" transform="translate(64.45 55.96)">6</text>
      <text class="cls-19" transform="translate(57.23 55.96)">5</text>
      <text class="cls-19" transform="translate(50.02 55.96)">4</text>
      <text class="cls-19" transform="translate(42.8 56.04)">3</text>
      <text class="cls-19" transform="translate(35.59 55.96)">2</text>
      <text class="cls-19" transform="translate(26.96 55.96)">GND</text>
      <g class="cls-20">
        <text class="cls-19" transform="translate(20.05 55.96)">RS</text>
        <text class="cls-21" transform="translate(22.18 55.96)">T</text>
      </g>
      <text class="cls-19" transform="translate(13.33 55.96)">RX</text>
      <text class="cls-19" transform="translate(6.11 55.96)">TX</text>
      <text class="cls-19" transform="translate(2.8 43.49) rotate(-90)">7</text>
      <text class="cls-19" transform="translate(2.8 36.92) rotate(-90)">TX</text>
      <text class="cls-19" transform="translate(2.8 29.72) rotate(-90)">RX</text>
      <text class="cls-19" transform="translate(2.8 23.02) rotate(-90)">+5V</text>
      <text class="cls-19" transform="translate(2.8 16.11) rotate(-90)">GND</text>
    </g>
  </g>
</svg>
