<svg id="iskra-mini" xmlns="http://www.w3.org/2000/svg" width="33.1541mm" height="20.1542mm" viewBox="0 0 93.98 57.13">
  <defs>
    <style>
      .cls-1 {
        fill: #f2f2f2;
        stroke-width: 0.43px;
      }

      .cls-1, .cls-21 {
        stroke: #000;
      }

      .cls-1, .cls-18, .cls-21 {
        stroke-miterlimit: 10;
      }

      .cls-2 {
        fill: #242424;
      }

      .cls-3 {
        fill: #d1d3d4;
      }

      .cls-4 {
        fill: gray;
      }

      .cls-5 {
        fill: #b4b4b4;
      }

      .cls-6 {
        fill: #231f20;
      }

      .cls-7 {
        fill: #d5d3d5;
      }

      .cls-8 {
        fill: #7b7979;
      }

      .cls-9 {
        fill: #d2d1d3;
      }

      .cls-10 {
        fill: #b7b8b9;
      }

      .cls-11 {
        fill: #d7d3d5;
      }

      .cls-12 {
        fill: #bbffd0;
      }

      .cls-13 {
        fill: #545152;
      }

      .cls-14 {
        fill: #b3b3b3;
      }

      .cls-15 {
        fill: #c8c8c8;
      }

      .cls-16 {
        fill: #969696;
      }

      .cls-17 {
        fill: #966432;
      }

      .cls-18, .cls-21 {
        fill: none;
      }

      .cls-18 {
        stroke: #ffbf00;
        stroke-width: 1.4px;
      }

      .cls-19, .cls-20 {
        isolation: isolate;
        font-size: 2px;
        font-family: TrebuchetMS, Trebuchet MS;
      }

      .cls-20 {
        letter-spacing: -0.0581em;
      }

      .cls-21 {
        stroke-width: 0.28px;
      }
    </style>
  </defs>
  <title>iskra-mini</title>
  <g id="iskra-mini-2">
    <path class="cls-1" d="M93.77,56.91V.21H.22v56.7ZM7.33,38a2.13,2.13,0,1,1,2.12-2.14h0A2.12,2.12,0,0,1,7.35,38Zm2.12,5.1A2.13,2.13,0,1,1,7.29,41h0a2.11,2.11,0,0,1,2.12,2.08ZM7.33,30.77a2.13,2.13,0,1,1,2.12-2.14h0A2.14,2.14,0,0,1,7.33,30.77Zm0-7.22a2.13,2.13,0,1,1,2.12-2.14h0a2.12,2.12,0,0,1-2.1,2.14ZM79.42,52.27a2.13,2.13,0,1,1,2.13-2.13h0A2.13,2.13,0,0,1,79.42,52.27ZM86.7,37.86a2.13,2.13,0,1,1,2.13-2.13h0a2.12,2.12,0,0,1-2.11,2.13H86.7ZM88.83,43a2.13,2.13,0,1,1-2.13-2.13h0A2.13,2.13,0,0,1,88.83,43ZM86.7,23.43a2.13,2.13,0,1,1,2.13-2.13h0a2.12,2.12,0,0,1-2.11,2.13H86.7Zm0-7.22a2.13,2.13,0,1,1,2.13-2.13h0a2.12,2.12,0,0,1-2.12,2.12h0ZM86.64,4.83a2.1,2.1,0,1,1-.06,0Zm0,43.19a2.13,2.13,0,1,1-2.13,2.13h0A2.12,2.12,0,0,1,86.6,48h.01ZM79.42,4.83a2.1313,2.1313,0,1,1-.04,0C79.3931,4.83,79.4065,4.83,79.42,4.83Zm0,28.78a2.13,2.13,0,1,1-2.12,2.14h0a2.12,2.12,0,0,1,2.11-2.12Zm0,7.21a2.1305,2.1305,0,1,1-.0506.0006c.0169,0,.0337-.0006.0506-.0006Zm-7.21-36a2.1305,2.1305,0,1,1-.0506.0006c.0169,0,.0337-.0006.0506-.0006Zm0,43.18a2.13,2.13,0,1,1-2.12,2.14h0A2.12,2.12,0,0,1,72.19,48h.02ZM65.01,4.83a2.11,2.11,0,1,1-.08,0Zm0,43.17a2.13,2.13,0,1,1-2.13,2.13h0A2.12,2.12,0,0,1,64.99,48ZM57.77,4.83a2.1313,2.1313,0,1,1-.04,0C57.7431,4.83,57.7565,4.83,57.77,4.83Zm0,43.19a2.13,2.13,0,1,1-2.13,2.13h0A2.13,2.13,0,0,1,57.75,48h.01ZM50.55,4.83a2.1332,2.1332,0,1,1-.03,0Zm0,43.19a2.13,2.13,0,1,1-2.12,2.14h0A2.12,2.12,0,0,1,50.51,48l.02,0h0ZM43.34,4.83a2.1,2.1,0,1,1-.06,0Zm0,43.19a2.13,2.13,0,1,1-2.13,2.13h0A2.12,2.12,0,0,1,43.3,48h.01ZM36.12,4.83a2.1313,2.1313,0,1,1-.02,0Zm0,43.19a2.13,2.13,0,1,1-2.11,2.15h0a2.12,2.12,0,0,1,2.0693-2.1695L36.11,48h0ZM28.91,4.83a2.1,2.1,0,1,1-.06,0Zm0,43.17a2.13,2.13,0,1,1-2.13,2.13h0A2.12,2.12,0,0,1,28.89,48h.02ZM21.69,4.83a2.1313,2.1313,0,1,1-.04,0C21.6631,4.83,21.6765,4.83,21.69,4.83Zm0,43.19a2.13,2.13,0,1,1-2.13,2.13h0A2.13,2.13,0,0,1,21.67,48h.01ZM14.47,4.83a2.1332,2.1332,0,1,1-.03,0Zm0,43.19a2.13,2.13,0,1,1-2.12,2.14h0A2.12,2.12,0,0,1,14.43,48l.02,0h0ZM7.33,16.34A2.13,2.13,0,1,1,9.45,14.2h0A2.14,2.14,0,0,1,7.33,16.34ZM7.26,4.83a2.1,2.1,0,1,1-.06,0ZM7.26,48a2.13,2.13,0,1,1-2.13,2.13h0A2.12,2.12,0,0,1,7.24,48h.02Z" transform="translate(-0.005 0.005)"/>
    <g id="mega328p">
      <rect class="cls-2" x="51.415" y="22.565" width="19.84" height="19.84" rx="1.09" ry="1.09"/>
      <g>
        <g>
          <g id="path3870-5-4-1-3-9-13-48-41">
            <rect class="cls-3" x="52.795" y="19.325" width="1.14" height="3.24"/>
          </g>
          <g id="rect36057-3-4-8-4-7-5-0-7-5-24-7-7-2-5-48-13-48-41">
            <rect class="cls-4" x="52.795" y="20.865" width="1.14" height="0.36"/>
          </g>
        </g>
        <g>
          <g id="path3870-5-4-1-3-9-13-48-41-2">
            <rect class="cls-3" x="66.455" y="19.325" width="1.14" height="3.24"/>
          </g>
          <g id="rect36057-3-4-8-4-7-5-0-7-5-24-7-7-2-5-48-13-48-41-2">
            <rect class="cls-4" x="66.455" y="20.865" width="1.14" height="0.36"/>
          </g>
        </g>
        <g>
          <g id="path3870-5-4-1-3-9-13-48-41-3">
            <rect class="cls-3" x="55.065" y="19.325" width="1.14" height="3.24"/>
          </g>
          <g id="rect36057-3-4-8-4-7-5-0-7-5-24-7-7-2-5-48-13-48-41-3">
            <rect class="cls-4" x="55.065" y="20.865" width="1.14" height="0.36"/>
          </g>
        </g>
        <g>
          <g id="path3870-5-4-1-3-9-13-48-41-4">
            <rect class="cls-3" x="57.345" y="19.325" width="1.14" height="3.24"/>
          </g>
          <g id="rect36057-3-4-8-4-7-5-0-7-5-24-7-7-2-5-48-13-48-41-4">
            <rect class="cls-4" x="57.345" y="20.865" width="1.14" height="0.36"/>
          </g>
        </g>
        <g>
          <g id="path3870-5-4-1-3-9-13-48-41-5">
            <rect class="cls-3" x="59.635" y="19.325" width="1.14" height="3.24"/>
          </g>
          <g id="rect36057-3-4-8-4-7-5-0-7-5-24-7-7-2-5-48-13-48-41-5">
            <rect class="cls-4" x="59.635" y="20.865" width="1.14" height="0.36"/>
          </g>
        </g>
        <g>
          <g id="path3870-5-4-1-3-9-13-48-41-6">
            <rect class="cls-3" x="61.905" y="19.325" width="1.14" height="3.24"/>
          </g>
          <g id="rect36057-3-4-8-4-7-5-0-7-5-24-7-7-2-5-48-13-48-41-6">
            <rect class="cls-4" x="61.905" y="20.865" width="1.14" height="0.36"/>
          </g>
        </g>
        <g>
          <g id="path3870-5-4-1-3-9-13-48-41-7">
            <rect class="cls-3" x="64.185" y="19.325" width="1.14" height="3.24"/>
          </g>
          <g id="rect36057-3-4-8-4-7-5-0-7-5-24-7-7-2-5-48-13-48-41-7">
            <rect class="cls-4" x="64.185" y="20.865" width="1.14" height="0.36"/>
          </g>
        </g>
        <g>
          <g id="path3870-5-4-1-3-9-13-48-41-8">
            <rect class="cls-3" x="68.735" y="19.325" width="1.14" height="3.24"/>
          </g>
          <g id="rect36057-3-4-8-4-7-5-0-7-5-24-7-7-2-5-48-13-48-41-8">
            <rect class="cls-4" x="68.735" y="20.865" width="1.14" height="0.36"/>
          </g>
        </g>
      </g>
      <g>
        <g>
          <g id="path3870-5-4-1-3-9-13-48-41-9">
            <rect class="cls-3" x="52.795" y="42.415" width="1.14" height="3.24"/>
          </g>
          <g id="rect36057-3-4-8-4-7-5-0-7-5-24-7-7-2-5-48-13-48-41-9">
            <rect class="cls-4" x="52.795" y="43.945" width="1.14" height="0.36"/>
          </g>
        </g>
        <g>
          <g id="path3870-5-4-1-3-9-13-48-41-10">
            <rect class="cls-3" x="66.455" y="42.415" width="1.14" height="3.24"/>
          </g>
          <g id="rect36057-3-4-8-4-7-5-0-7-5-24-7-7-2-5-48-13-48-41-10">
            <rect class="cls-4" x="66.455" y="43.945" width="1.14" height="0.36"/>
          </g>
        </g>
        <g>
          <g id="path3870-5-4-1-3-9-13-48-41-11">
            <rect class="cls-3" x="55.065" y="42.415" width="1.14" height="3.24"/>
          </g>
          <g id="rect36057-3-4-8-4-7-5-0-7-5-24-7-7-2-5-48-13-48-41-11">
            <rect class="cls-4" x="55.065" y="43.945" width="1.14" height="0.36"/>
          </g>
        </g>
        <g>
          <g id="path3870-5-4-1-3-9-13-48-41-12">
            <rect class="cls-3" x="57.345" y="42.415" width="1.14" height="3.24"/>
          </g>
          <g id="rect36057-3-4-8-4-7-5-0-7-5-24-7-7-2-5-48-13-48-41-12">
            <rect class="cls-4" x="57.345" y="43.945" width="1.14" height="0.36"/>
          </g>
        </g>
        <g>
          <g id="path3870-5-4-1-3-9-13-48-41-13">
            <rect class="cls-3" x="59.635" y="42.415" width="1.14" height="3.24"/>
          </g>
          <g id="rect36057-3-4-8-4-7-5-0-7-5-24-7-7-2-5-48-13-48-41-13">
            <rect class="cls-4" x="59.635" y="43.945" width="1.14" height="0.36"/>
          </g>
        </g>
        <g>
          <g id="path3870-5-4-1-3-9-13-48-41-14">
            <rect class="cls-3" x="61.905" y="42.415" width="1.14" height="3.24"/>
          </g>
          <g id="rect36057-3-4-8-4-7-5-0-7-5-24-7-7-2-5-48-13-48-41-14">
            <rect class="cls-4" x="61.905" y="43.945" width="1.14" height="0.36"/>
          </g>
        </g>
        <g>
          <g id="path3870-5-4-1-3-9-13-48-41-15">
            <rect class="cls-3" x="64.185" y="42.415" width="1.14" height="3.24"/>
          </g>
          <g id="rect36057-3-4-8-4-7-5-0-7-5-24-7-7-2-5-48-13-48-41-15">
            <rect class="cls-4" x="64.185" y="43.945" width="1.14" height="0.36"/>
          </g>
        </g>
        <g>
          <g id="path3870-5-4-1-3-9-13-48-41-16">
            <rect class="cls-3" x="68.735" y="42.415" width="1.14" height="3.24"/>
          </g>
          <g id="rect36057-3-4-8-4-7-5-0-7-5-24-7-7-2-5-48-13-48-41-16">
            <rect class="cls-4" x="68.735" y="43.945" width="1.14" height="0.36"/>
          </g>
        </g>
      </g>
      <g>
        <g>
          <g id="path3870-5-4-1-3-9-13-48-41-17">
            <rect class="cls-3" x="48.155" y="23.965" width="3.24" height="1.14"/>
          </g>
          <g id="rect36057-3-4-8-4-7-5-0-7-5-24-7-7-2-5-48-13-48-41-17">
            <rect class="cls-4" x="49.505" y="23.965" width="0.36" height="1.14"/>
          </g>
        </g>
        <g>
          <g id="path3870-5-4-1-3-9-13-48-41-18">
            <rect class="cls-3" x="48.155" y="37.625" width="3.24" height="1.14"/>
          </g>
          <g id="rect36057-3-4-8-4-7-5-0-7-5-24-7-7-2-5-48-13-48-41-18">
            <rect class="cls-4" x="49.505" y="37.625" width="0.36" height="1.14"/>
          </g>
        </g>
        <g>
          <g id="path3870-5-4-1-3-9-13-48-41-19">
            <rect class="cls-3" x="48.155" y="26.225" width="3.24" height="1.14"/>
          </g>
          <g id="rect36057-3-4-8-4-7-5-0-7-5-24-7-7-2-5-48-13-48-41-19">
            <rect class="cls-4" x="49.505" y="26.225" width="0.36" height="1.14"/>
          </g>
        </g>
        <g>
          <g id="path3870-5-4-1-3-9-13-48-41-20">
            <rect class="cls-3" x="48.155" y="28.515" width="3.24" height="1.14"/>
          </g>
          <g id="rect36057-3-4-8-4-7-5-0-7-5-24-7-7-2-5-48-13-48-41-20">
            <rect class="cls-4" x="49.505" y="28.515" width="0.36" height="1.14"/>
          </g>
        </g>
        <g>
          <g id="path3870-5-4-1-3-9-13-48-41-21">
            <rect class="cls-3" x="48.155" y="30.795" width="3.24" height="1.14"/>
          </g>
          <g id="rect36057-3-4-8-4-7-5-0-7-5-24-7-7-2-5-48-13-48-41-21">
            <rect class="cls-4" x="49.505" y="30.795" width="0.36" height="1.14"/>
          </g>
        </g>
        <g>
          <g id="path3870-5-4-1-3-9-13-48-41-22">
            <rect class="cls-3" x="48.155" y="33.055" width="3.24" height="1.14"/>
          </g>
          <g id="rect36057-3-4-8-4-7-5-0-7-5-24-7-7-2-5-48-13-48-41-22">
            <rect class="cls-4" x="49.505" y="33.055" width="0.36" height="1.14"/>
          </g>
        </g>
        <g>
          <g id="path3870-5-4-1-3-9-13-48-41-23">
            <rect class="cls-3" x="48.155" y="35.345" width="3.24" height="1.14"/>
          </g>
          <g id="rect36057-3-4-8-4-7-5-0-7-5-24-7-7-2-5-48-13-48-41-23">
            <rect class="cls-4" x="49.505" y="35.345" width="0.36" height="1.14"/>
          </g>
        </g>
        <g>
          <g id="path3870-5-4-1-3-9-13-48-41-24">
            <rect class="cls-3" x="48.155" y="39.895" width="3.24" height="1.14"/>
          </g>
          <g id="rect36057-3-4-8-4-7-5-0-7-5-24-7-7-2-5-48-13-48-41-24">
            <rect class="cls-4" x="49.505" y="39.895" width="0.36" height="1.14"/>
          </g>
        </g>
      </g>
      <g>
        <g>
          <g id="path3870-5-4-1-3-9-13-48-41-25">
            <rect class="cls-3" x="71.275" y="39.895" width="3.24" height="1.14"/>
          </g>
          <g id="rect36057-3-4-8-4-7-5-0-7-5-24-7-7-2-5-48-13-48-41-25">
            <rect class="cls-4" x="72.815" y="39.895" width="0.36" height="1.14"/>
          </g>
        </g>
        <g>
          <g id="path3870-5-4-1-3-9-13-48-41-26">
            <rect class="cls-3" x="71.275" y="26.225" width="3.24" height="1.14"/>
          </g>
          <g id="rect36057-3-4-8-4-7-5-0-7-5-24-7-7-2-5-48-13-48-41-26">
            <rect class="cls-4" x="72.815" y="26.225" width="0.36" height="1.14"/>
          </g>
        </g>
        <g>
          <g id="path3870-5-4-1-3-9-13-48-41-27">
            <rect class="cls-3" x="71.275" y="37.625" width="3.24" height="1.14"/>
          </g>
          <g id="rect36057-3-4-8-4-7-5-0-7-5-24-7-7-2-5-48-13-48-41-27">
            <rect class="cls-4" x="72.815" y="37.625" width="0.36" height="1.14"/>
          </g>
        </g>
        <g>
          <g id="path3870-5-4-1-3-9-13-48-41-28">
            <rect class="cls-3" x="71.275" y="35.345" width="3.24" height="1.14"/>
          </g>
          <g id="rect36057-3-4-8-4-7-5-0-7-5-24-7-7-2-5-48-13-48-41-28">
            <rect class="cls-4" x="72.815" y="35.345" width="0.36" height="1.14"/>
          </g>
        </g>
        <g>
          <g id="path3870-5-4-1-3-9-13-48-41-29">
            <rect class="cls-3" x="71.275" y="33.055" width="3.24" height="1.14"/>
          </g>
          <g id="rect36057-3-4-8-4-7-5-0-7-5-24-7-7-2-5-48-13-48-41-29">
            <rect class="cls-4" x="72.815" y="33.055" width="0.36" height="1.14"/>
          </g>
        </g>
        <g>
          <g id="path3870-5-4-1-3-9-13-48-41-30">
            <rect class="cls-3" x="71.275" y="30.795" width="3.24" height="1.14"/>
          </g>
          <g id="rect36057-3-4-8-4-7-5-0-7-5-24-7-7-2-5-48-13-48-41-30">
            <rect class="cls-4" x="72.815" y="30.795" width="0.36" height="1.14"/>
          </g>
        </g>
        <g>
          <g id="path3870-5-4-1-3-9-13-48-41-31">
            <rect class="cls-3" x="71.275" y="28.515" width="3.24" height="1.14"/>
          </g>
          <g id="rect36057-3-4-8-4-7-5-0-7-5-24-7-7-2-5-48-13-48-41-31">
            <rect class="cls-4" x="72.815" y="28.515" width="0.36" height="1.14"/>
          </g>
        </g>
        <g>
          <g id="path3870-5-4-1-3-9-13-48-41-32">
            <rect class="cls-3" x="71.275" y="23.965" width="3.24" height="1.14"/>
          </g>
          <g id="rect36057-3-4-8-4-7-5-0-7-5-24-7-7-2-5-48-13-48-41-32">
            <rect class="cls-4" x="72.815" y="23.965" width="0.36" height="1.14"/>
          </g>
        </g>
      </g>
      <path id="rect25548-0-9-3-9-8-3-8-3-2" class="cls-5" d="M54.44,24.4h0a.67.67,0,0,1-.67.67h0a.67.67,0,0,1-.67-.67h0a.67.67,0,0,1,.67-.67h0A.67.67,0,0,1,54.44,24.4Z" transform="translate(-0.005 0.005)"/>
    </g>
    <g id="QS">
      <path id="path9761-7-4" class="cls-6" d="M39.01,38.44a.2.2,0,0,1-.2-.2h0V18.69a.2.2,0,0,1,.4,0V38.24a.2.2,0,0,1-.2.2h0" transform="translate(-0.005 0.005)"/>
      <path id="path9765-4-7" class="cls-6" d="M28.89,38.44a.2.2,0,0,1-.2-.2h0V18.69a.2.2,0,1,1,.4-.0006V18.69h0V38.24a.2.2,0,0,1-.2.2h0" transform="translate(-0.005 0.005)"/>
      <path id="path9769-1-6" class="cls-6" d="M28.89,18.89h0a.21.21,0,0,1-.15-.25l.49-1.93v-.06L30.44,15h0l1.45-1.21h.12l1.93-.24,2,.24h.07L37.71,15v.09l1.21,1.69v.09l.25,1.93a.19.19,0,0,1-.16.2h0a.19.19,0,0,1-.22-.15h0L38.55,17l-1.16-1.62-1.58-1.33-1.88-.24-1.82.24L30.73,15.2l-1.17,1.64-.48,1.89a.18.18,0,0,1-.19.15" transform="translate(-0.005 0.005)"/>
      <path id="path9781-9-7" class="cls-6" d="M34.01,43.51h0l-2-.46h-.06l-1.45-1h0l-1.26-1.7v-.07l-.49-1.93a.18.18,0,0,1,.1-.22.17.17,0,0,1,.2194.0984l.0006.0016h0l.48,1.9,1.16,1.63,1.39.92,1.85.47,1.91-.51,1.63-.93,1.14-1.66.23-1.83a.19.19,0,0,1,.2-.16h0a.22.22,0,0,1,.18.23l-.23,1.93v.09l-1.2,1.74-.06.06-1.69,1h0l-1.93.49h0" transform="translate(-0.005 0.005)"/>
      <path id="path13009-9-5" class="cls-7" d="M34.07,11.61c-3.24,0-5.89,2.07-6.19,4.72V39.87c0,2.88,2.79,5.22,6.22,5.22s6.21-2.34,6.21-5.22V16.33c-.3-2.65-3-4.72-6.18-4.72" transform="translate(-0.005 0.005)"/>
      <path id="path13013-6-9" class="cls-8" d="M27.92,16.39V39.87c0,2.84,2.76,5.16,6.15,5.16s6.15-2.32,6.15-5.16V16.33c-.3-2.66-2.93-4.66-6.12-4.66s-5.82,2-6.12,4.66v.06Zm6.15,28.76c-3.46,0-6.28-2.37-6.28-5.28V16.26c.33-2.69,3-4.72,6.24-4.72s5.9,2,6.24,4.72V39.87c0,2.91-2.81,5.28-6.27,5.28" transform="translate(-0.005 0.005)"/>
      <path id="path13017-2-6" class="cls-7" d="M34.07,12.53a5.33,5.33,0,0,0-5.46,4.52v22.2a5.51,5.51,0,0,0,11,0V17.05a5.3,5.3,0,0,0-5.45-4.46" transform="translate(-0.005 0.005)"/>
      <path id="path13021-7-5" class="cls-8" d="M28.65,17.05v22.2a5.45,5.45,0,0,0,10.84,0V17.05a5.5,5.5,0,0,0-10.78,0Zm5.42,27.18a5.31,5.31,0,0,1-5.55-5V16.93a5.63,5.63,0,0,1,11,0V39.24a5.29,5.29,0,0,1-5.54,5" transform="translate(-0.005 0.005)"/>
      <path id="path13037-5-4" class="cls-7" d="M34.07,13.72a4.58,4.58,0,0,0-4.54,4.13V38.41a4.56,4.56,0,1,0,9.11.44h0v-21a4.56,4.56,0,0,0-4.54-4.13" transform="translate(-0.005 0.005)"/>
      <path id="path13041-0-3" class="cls-8" d="M29.57,17.91v20.5a4.5,4.5,0,0,0,9,.0059V17.85a4.5,4.5,0,0,0-9,0Zm4.5,25.14a4.64,4.64,0,0,1-4.62-4.63V17.78a4.62,4.62,0,0,1,9.19,0V38.41a4.62,4.62,0,0,1-4.57,4.64" transform="translate(-0.005 0.005)"/>
    </g>
    <g id="LED-0805">
      <rect id="rect21332-8-1-9-3-8-2-40-6-2-0-6-6-0-5-6-4-8-7-2-0-7-2-3-9-16-9" class="cls-9" x="62.915" y="12.325" width="2.9" height="3.4"/>
      <rect id="rect21332-8-1-9-3-8-2-40-6-2-0-6-6-0-5-6-4-8-7-2-0-7-2-3-10-16-9" class="cls-9" x="67.945" y="12.325" width="2.9" height="3.4"/>
      <path class="cls-10" d="M64.46,12.31H69.3a.42.42,0,0,1,.42.42h0v2.55a.4.4,0,0,1-.3678.43l-.0022,0H64.49a.41.41,0,0,1-.41-.41h0V12.74a.44.44,0,0,1,.41-.43h-.03Z" transform="translate(-0.005 0.005)"/>
      <rect class="cls-11" x="64.765" y="12.325" width="4.25" height="3.4"/>
      <path id="path26341-4-2-6-0-8-1-1-1-5-0-3-3-1-8-3-8-7-7-7-2-4-9-7-2-3-5-16-9" class="cls-12" d="M65.46,15.71H68.3v-3.4H65.46Z" transform="translate(-0.005 0.005)"/>
      <path id="path6963-86-8-2-6-0-1-7-9-2-3" class="cls-13" d="M65.72,13.8h.39v.42h-.39Z" transform="translate(-0.005 0.005)"/>
    </g>
    <g id="LED-0805-2">
      <rect id="rect21332-8-1-9-3-8-2-40-6-2-0-6-6-0-5-6-4-8-7-2-0-7-2-3-9-16-9-2" class="cls-9" x="78.185" y="16.805" width="3.4" height="2.9"/>
      <rect id="rect21332-8-1-9-3-8-2-40-6-2-0-6-6-0-5-6-4-8-7-2-0-7-2-3-10-16-9-2" class="cls-9" x="78.185" y="21.815" width="3.4" height="2.9"/>
      <path class="cls-10" d="M81.59,18.32v4.84a.42.42,0,0,1-.42.42H78.62a.41.41,0,0,1-.43-.389V23.19h0V18.35a.41.41,0,0,1,.41-.41h2.56a.43.43,0,0,1,.43.41h0Z" transform="translate(-0.005 0.005)"/>
      <rect class="cls-11" x="78.185" y="18.635" width="3.4" height="4.25"/>
      <path id="path26341-4-2-6-0-8-1-1-1-5-0-3-3-1-8-3-8-7-7-7-2-4-9-7-2-3-5-16-9-2" class="cls-12" d="M78.19,19.32v2.84h3.4V19.32Z" transform="translate(-0.005 0.005)"/>
      <path id="path6963-86-8-2-6-0-1-7-9-2-3-2" class="cls-13" d="M80.1,19.58V20h-.42v-.39Z" transform="translate(-0.005 0.005)"/>
    </g>
    <g id="T-SOT235">
      <path id="path3479-7" class="cls-14" d="M12.82,25.15V23.53h2.57v1.62Z" transform="translate(-0.005 0.005)"/>
      <path id="path3481-0" class="cls-4" d="M14.3,25.15V23.53h.86v1.62Z" transform="translate(-0.005 0.005)"/>
      <path id="path3483-6" class="cls-14" d="M12.82,19.61V18h2.57v1.6Z" transform="translate(-0.005 0.005)"/>
      <path id="path3485-6" class="cls-4" d="M14.3,19.61V18h.86v1.6Z" transform="translate(-0.005 0.005)"/>
      <path id="path3487-1" class="cls-14" d="M21.41,25.15V23.53H18.85v1.62Z" transform="translate(-0.005 0.005)"/>
      <path id="path3489-6" class="cls-4" d="M19.94,25.15V23.53h-.78v1.62Z" transform="translate(-0.005 0.005)"/>
      <path id="path3477-9" class="cls-2" d="M15.38,25.79V17.37h3.48v8.42Z" transform="translate(-0.005 0.005)"/>
      <path id="path3479-7-2" class="cls-14" d="M12.82,22.39V20.77h2.57v1.62Z" transform="translate(-0.005 0.005)"/>
      <path id="path3481-0-2" class="cls-4" d="M14.3,22.39V20.77h.86v1.62Z" transform="translate(-0.005 0.005)"/>
      <path id="path3487-1-2" class="cls-14" d="M21.41,19.62V18H18.85v1.62Z" transform="translate(-0.005 0.005)"/>
      <path id="path3489-6-2" class="cls-4" d="M19.94,19.62V18h-.78v1.62Z" transform="translate(-0.005 0.005)"/>
    </g>
    <g id="D-SOD323">
      <rect id="rect21332-8-1-9-3-5-5-5-7-7-6" class="cls-9" x="11.935" y="11.625" width="4.08" height="3.8"/>
      <rect id="rect21332-1-0-1-9-2-0-7-3-5-9-5" class="cls-9" x="17.955" y="11.625" width="4.08" height="3.8"/>
      <path id="path32574-5-6-2-6-7" class="cls-14" d="M21.01,14.87v-2.7h-1.9v2.7Z" transform="translate(-0.005 0.005)"/>
      <path id="path32578-9-7-2-9-4" class="cls-14" d="M14.84,14.78V12.25h-1.9v2.54Z" transform="translate(-0.005 0.005)"/>
      <path id="path32580-3-1-0-1-3" class="cls-4" d="M14.01,14.78V12.25h-.6v2.54Z" transform="translate(-0.005 0.005)"/>
      <path id="path32590-0-9-7-9-9" class="cls-2" d="M19.93,15.4V11.64H14.01V15.4Z" transform="translate(-0.005 0.005)"/>
      <path id="path32576-2-7-7-0-2" class="cls-4" d="M20.55,14.87v-2.7h-.61v2.7Z" transform="translate(-0.005 0.005)"/>
    </g>
    <g id="but">
      <polygon id="polygon666" class="cls-15" points="18.655 37.525 18.655 34.485 12.375 34.485 12.375 44.585 18.655 44.585 18.655 41.535 18.515 41.535 18.515 37.525 18.655 37.525"/>
      <circle id="circle668" cx="15.525" cy="39.415" r="2.03"/>
      <rect class="cls-16" x="13.645" y="33.625" width="3.75" height="0.86"/>
      <rect class="cls-16" x="13.645" y="44.575" width="3.75" height="0.86"/>
    </g>
    <g id="R-0805">
      <g>
        <rect id="rect21332-8-1-9-3-8-2-40-6-2-0-6-6-0-5-6-4-8-7-2-0-7-2-3-9-16-6" class="cls-9" x="41.435" y="38.165" width="3.4" height="2.9"/>
        <rect id="rect21332-8-1-9-3-8-2-40-6-2-0-6-6-0-5-6-4-8-7-2-0-7-2-3-10-16-6" class="cls-9" x="41.435" y="33.145" width="3.4" height="2.9"/>
      </g>
      <g>
        <path class="cls-10" d="M41.44,39.51V34.67a.42.42,0,0,1,.42-.42h2.55a.41.41,0,0,1,.43.389v.001h0v4.84a.41.41,0,0,1-.41.41H41.87a.43.43,0,0,1-.43-.41h0Z" transform="translate(-0.005 0.005)"/>
        <g id="path26345-3-6-9-3-6-4-2-5-6-8-7-9-0-90-3-1-3-9-2-2-8-5-0-2-3-5-16-6">
          <rect class="cls-11" x="41.435" y="34.985" width="3.4" height="4.25"/>
        </g>
        <path id="path26341-4-2-6-0-8-1-1-1-5-0-3-3-1-8-3-8-7-7-7-2-4-9-7-2-3-5-16-6" class="cls-2" d="M44.84,38.5V35.67h-3.4V38.5Z" transform="translate(-0.005 0.005)"/>
      </g>
    </g>
    <g id="R-0805-2">
      <g>
        <rect id="rect21332-8-1-9-3-8-2-40-6-2-0-6-6-0-5-6-4-8-7-2-0-7-2-3-9-16-6-2" class="cls-9" x="52.185" y="12.325" width="2.9" height="3.4"/>
        <rect id="rect21332-8-1-9-3-8-2-40-6-2-0-6-6-0-5-6-4-8-7-2-0-7-2-3-10-16-6-2" class="cls-9" x="57.205" y="12.325" width="2.9" height="3.4"/>
      </g>
      <g>
        <path class="cls-10" d="M53.74,12.31h4.84a.42.42,0,0,1,.42.42h0v2.55a.41.41,0,0,1-.389.43H53.77a.41.41,0,0,1-.41-.41h0V12.74a.43.43,0,0,1,.41-.43h-.03Z" transform="translate(-0.005 0.005)"/>
        <g id="path26345-3-6-9-3-6-4-2-5-6-8-7-9-0-90-3-1-3-9-2-2-8-5-0-2-3-5-16-6-2">
          <rect class="cls-11" x="54.025" y="12.325" width="4.25" height="3.4"/>
        </g>
        <path id="path26341-4-2-6-0-8-1-1-1-5-0-3-3-1-8-3-8-7-7-7-2-4-9-7-2-3-5-16-6-2" class="cls-2" d="M54.75,15.71h2.83v-3.4H54.75Z" transform="translate(-0.005 0.005)"/>
      </g>
    </g>
    <g id="R-0805-3">
      <g>
        <rect id="rect21332-8-1-9-3-8-2-40-6-2-0-6-6-0-5-6-4-8-7-2-0-7-2-3-9-16-6-3" class="cls-9" x="73.665" y="12.195" width="2.9" height="3.4"/>
        <rect id="rect21332-8-1-9-3-8-2-40-6-2-0-6-6-0-5-6-4-8-7-2-0-7-2-3-10-16-6-3" class="cls-9" x="78.685" y="12.195" width="2.9" height="3.4"/>
      </g>
      <g>
        <path class="cls-10" d="M75.21,12.19h4.8a.42.42,0,0,1,.42.42h0v2.55a.41.41,0,0,1-.389.43H75.24a.41.41,0,0,1-.41-.41h0V12.62a.43.43,0,0,1,.41-.43h-.03Z" transform="translate(-0.005 0.005)"/>
        <g id="path26345-3-6-9-3-6-4-2-5-6-8-7-9-0-90-3-1-3-9-2-2-8-5-0-2-3-5-16-6-3">
          <rect class="cls-11" x="75.485" y="12.195" width="4.25" height="3.4"/>
        </g>
        <path id="path26341-4-2-6-0-8-1-1-1-5-0-3-3-1-8-3-8-7-7-7-2-4-9-7-2-3-5-16-6-3" class="cls-2" d="M76.22,15.59h2.79v-3.4H76.22Z" transform="translate(-0.005 0.005)"/>
      </g>
    </g>
    <g id="R-0805-4">
      <g>
        <rect id="rect21332-8-1-9-3-8-2-40-6-2-0-6-6-0-5-6-4-8-7-2-0-7-2-3-9-16-6-4" class="cls-9" x="22.135" y="37.515" width="3.4" height="2.9"/>
        <rect id="rect21332-8-1-9-3-8-2-40-6-2-0-6-6-0-5-6-4-8-7-2-0-7-2-3-10-16-6-4" class="cls-9" x="22.135" y="42.535" width="3.4" height="2.9"/>
      </g>
      <g>
        <path class="cls-10" d="M25.55,39v4.84a.42.42,0,0,1-.42.42H22.58a.4.4,0,0,1-.43-.3677l0-.0023h0v-4.8a.41.41,0,0,1,.41-.41h2.56a.42.42,0,0,1,.43.41v0h0Z" transform="translate(-0.005 0.005)"/>
        <g id="path26345-3-6-9-3-6-4-2-5-6-8-7-9-0-90-3-1-3-9-2-2-8-5-0-2-3-5-16-6-4">
          <rect class="cls-11" x="22.135" y="39.345" width="3.4" height="4.25"/>
        </g>
        <path id="path26341-4-2-6-0-8-1-1-1-5-0-3-3-1-8-3-8-7-7-7-2-4-9-7-2-3-5-16-6-4" class="cls-2" d="M22.15,40.05v2.83h3.4V40.05Z" transform="translate(-0.005 0.005)"/>
      </g>
    </g>
    <g id="C-0805">
      <rect id="rect21332-8-1-9-3-8-2-40-6-2-0-6-6-0-5-6-4-8-7-2-0-7-2-3-9-16-3" class="cls-9" x="41.435" y="27.855" width="3.4" height="2.9"/>
      <rect id="rect21332-8-1-9-3-8-2-40-6-2-0-6-6-0-5-6-4-8-7-2-0-7-2-3-10-16-3" class="cls-9" x="41.435" y="22.805" width="3.4" height="2.9"/>
      <path class="cls-10" d="M41.44,29.18V24.34a.42.42,0,0,1,.42-.42h2.55a.41.41,0,0,1,.43.389v.001h0v4.84a.41.41,0,0,1-.41.41H41.87a.43.43,0,0,1-.43-.41h0Z" transform="translate(-0.005 0.005)"/>
      <g id="path26345-3-6-9-3-6-4-2-5-6-8-7-9-0-90-3-1-3-9-2-2-8-5-0-2-3-5-16-3">
        <rect class="cls-11" x="41.435" y="24.635" width="3.4" height="4.25"/>
      </g>
      <path id="path26341-4-2-6-0-8-1-1-1-5-0-3-3-1-8-3-8-7-7-7-2-4-9-7-2-3-5-16-3" class="cls-17" d="M44.84,28.18V25.34h-3.4v2.84Z" transform="translate(-0.005 0.005)"/>
    </g>
    <g id="C-0805-2">
      <rect id="rect21332-8-1-9-3-8-2-40-6-2-0-6-6-0-5-6-4-8-7-2-0-7-2-3-9-16-3-2" class="cls-9" x="11.685" y="28.435" width="2.9" height="3.4"/>
      <rect id="rect21332-8-1-9-3-8-2-40-6-2-0-6-6-0-5-6-4-8-7-2-0-7-2-3-10-16-3-2" class="cls-9" x="16.725" y="28.435" width="2.9" height="3.4"/>
      <path class="cls-10" d="M13.25,28.42h4.84a.42.42,0,0,1,.42.42h0v2.55a.43.43,0,0,1-.39.43H13.28a.41.41,0,0,1-.41-.41h0V28.85a.43.43,0,0,1,.41-.43h-.03Z" transform="translate(-0.005 0.005)"/>
      <g id="path26345-3-6-9-3-6-4-2-5-6-8-7-9-0-90-3-1-3-9-2-2-8-5-0-2-3-5-16-3-2">
        <rect class="cls-11" x="13.555" y="28.435" width="4.25" height="3.4"/>
      </g>
      <path id="path26341-4-2-6-0-8-1-1-1-5-0-3-3-1-8-3-8-7-7-7-2-4-9-7-2-3-5-16-3-2" class="cls-17" d="M14.25,31.82h2.84v-3.4H14.25Z" transform="translate(-0.005 0.005)"/>
    </g>
    <g id="C-0805-3">
      <rect id="rect21332-8-1-9-3-8-2-40-6-2-0-6-6-0-5-6-4-8-7-2-0-7-2-3-9-16-3-3" class="cls-9" x="22.135" y="33.485" width="3.4" height="2.9"/>
      <rect id="rect21332-8-1-9-3-8-2-40-6-2-0-6-6-0-5-6-4-8-7-2-0-7-2-3-10-16-3-3" class="cls-9" x="22.135" y="28.435" width="3.4" height="2.9"/>
      <path class="cls-10" d="M22.15,34.81V30a.42.42,0,0,1,.42-.42h2.55a.4.4,0,0,1,.43.3678l0,.0022h0V34.8a.41.41,0,0,1-.41.41H22.58a.44.44,0,0,1-.43-.41h0Z" transform="translate(-0.005 0.005)"/>
      <g id="path26345-3-6-9-3-6-4-2-5-6-8-7-9-0-90-3-1-3-9-2-2-8-5-0-2-3-5-16-3-3">
        <rect class="cls-11" x="22.135" y="30.265" width="3.4" height="4.25"/>
      </g>
      <path id="path26341-4-2-6-0-8-1-1-1-5-0-3-3-1-8-3-8-7-7-7-2-4-9-7-2-3-5-16-3-3" class="cls-17" d="M25.55,33.81V31h-3.4v2.84Z" transform="translate(-0.005 0.005)"/>
    </g>
    <g id="C-0805-4">
      <rect id="rect21332-8-1-9-3-8-2-40-6-2-0-6-6-0-5-6-4-8-7-2-0-7-2-3-9-16-3-4" class="cls-9" x="41.435" y="17.455" width="2.9" height="3.4"/>
      <rect id="rect21332-8-1-9-3-8-2-40-6-2-0-6-6-0-5-6-4-8-7-2-0-7-2-3-10-16-3-4" class="cls-9" x="46.475" y="17.455" width="2.9" height="3.4"/>
      <path class="cls-10" d="M43.01,17.44h4.84a.42.42,0,0,1,.42.42h0v2.55a.41.41,0,0,1-.389.43H43.01a.41.41,0,0,1-.41-.41h0V17.87A.43.43,0,0,1,43.01,17.44Z" transform="translate(-0.005 0.005)"/>
      <g id="path26345-3-6-9-3-6-4-2-5-6-8-7-9-0-90-3-1-3-9-2-2-8-5-0-2-3-5-16-3-4">
        <rect class="cls-11" x="43.295" y="17.455" width="4.25" height="3.4"/>
      </g>
      <path id="path26341-4-2-6-0-8-1-1-1-5-0-3-3-1-8-3-8-7-7-7-2-4-9-7-2-3-5-16-3-4" class="cls-17" d="M44.01,20.84h2.84v-3.4H44.01Z" transform="translate(-0.005 0.005)"/>
    </g>
    <g id="C-0805-5">
      <rect id="rect21332-8-1-9-3-8-2-40-6-2-0-6-6-0-5-6-4-8-7-2-0-7-2-3-9-16-3-5" class="cls-9" x="41.435" y="12.325" width="2.9" height="3.4"/>
      <rect id="rect21332-8-1-9-3-8-2-40-6-2-0-6-6-0-5-6-4-8-7-2-0-7-2-3-10-16-3-5" class="cls-9" x="46.475" y="12.325" width="2.9" height="3.4"/>
      <path class="cls-10" d="M43.01,12.31h4.84a.42.42,0,0,1,.42.42h0v2.55a.41.41,0,0,1-.389.43H43.01a.41.41,0,0,1-.41-.41h0V12.74A.43.43,0,0,1,43.01,12.31Z" transform="translate(-0.005 0.005)"/>
      <g id="path26345-3-6-9-3-6-4-2-5-6-8-7-9-0-90-3-1-3-9-2-2-8-5-0-2-3-5-16-3-5">
        <rect class="cls-11" x="43.295" y="12.325" width="4.25" height="3.4"/>
      </g>
      <path id="path26341-4-2-6-0-8-1-1-1-5-0-3-3-1-8-3-8-7-7-7-2-4-9-7-2-3-5-16-3-5" class="cls-17" d="M44.01,15.71h2.84v-3.4H44.01Z" transform="translate(-0.005 0.005)"/>
    </g>
    <g id="C-0805-6">
      <rect id="rect21332-8-1-9-3-8-2-40-6-2-0-6-6-0-5-6-4-8-7-2-0-7-2-3-9-16-3-6" class="cls-9" x="41.435" y="42.445" width="2.9" height="3.4"/>
      <rect id="rect21332-8-1-9-3-8-2-40-6-2-0-6-6-0-5-6-4-8-7-2-0-7-2-3-10-16-3-6" class="cls-9" x="46.475" y="42.445" width="2.9" height="3.4"/>
      <path class="cls-10" d="M43.01,42.44h4.84a.42.42,0,0,1,.42.42h0v2.55a.41.41,0,0,1-.389.43H43.01a.41.41,0,0,1-.41-.41h0V42.87A.43.43,0,0,1,43.01,42.44Z" transform="translate(-0.005 0.005)"/>
      <g id="path26345-3-6-9-3-6-4-2-5-6-8-7-9-0-90-3-1-3-9-2-2-8-5-0-2-3-5-16-3-6">
        <rect class="cls-11" x="43.295" y="42.445" width="4.25" height="3.4"/>
      </g>
      <path id="path26341-4-2-6-0-8-1-1-1-5-0-3-3-1-8-3-8-7-7-7-2-4-9-7-2-3-5-16-3-6" class="cls-17" d="M44.01,45.84h2.84v-3.4H44.01Z" transform="translate(-0.005 0.005)"/>
    </g>
    <g id="C-0805-7">
      <rect id="rect21332-8-1-9-3-8-2-40-6-2-0-6-6-0-5-6-4-8-7-2-0-7-2-3-9-16-3-7" class="cls-9" x="78.185" y="27.955" width="2.9" height="3.4"/>
      <rect id="rect21332-8-1-9-3-8-2-40-6-2-0-6-6-0-5-6-4-8-7-2-0-7-2-3-10-16-3-7" class="cls-9" x="83.235" y="27.955" width="2.9" height="3.4"/>
      <path class="cls-10" d="M79.75,27.94h4.84a.42.42,0,0,1,.42.42h0v2.55a.41.41,0,0,1-.389.43H79.78a.41.41,0,0,1-.41-.41h0V28.37a.43.43,0,0,1,.41-.43h-.03Z" transform="translate(-0.005 0.005)"/>
      <g id="path26345-3-6-9-3-6-4-2-5-6-8-7-9-0-90-3-1-3-9-2-2-8-5-0-2-3-5-16-3-7">
        <rect class="cls-11" x="80.055" y="27.955" width="4.25" height="3.4"/>
      </g>
      <path id="path26341-4-2-6-0-8-1-1-1-5-0-3-3-1-8-3-8-7-7-7-2-4-9-7-2-3-5-16-3-7" class="cls-17" d="M80.75,31.34h2.84v-3.4H80.75Z" transform="translate(-0.005 0.005)"/>
    </g>
    <g id="pins">
      <path id="path3566-3-5-5-2-1-3-8-7" class="cls-18" d="M88.56,50.16a1.94,1.94,0,1,0-1.94,2A2,2,0,0,0,88.56,50.16Z" transform="translate(-0.005 0.005)"/>
      <path id="path3566-3-5-5-2-1-3-8-7-2" class="cls-18" d="M81.35,50.16a2,2,0,1,0-2,2A2,2,0,0,0,81.35,50.16Z" transform="translate(-0.005 0.005)"/>
      <path id="path3566-3-5-5-2-1-3-8-7-3" class="cls-18" d="M74.13,50.16a1.94,1.94,0,1,0-1.94,2A2,2,0,0,0,74.13,50.16Z" transform="translate(-0.005 0.005)"/>
      <path id="path3566-3-5-5-2-1-3-8-7-4" class="cls-18" d="M66.92,50.16a2,2,0,1,0-2,2A2,2,0,0,0,66.92,50.16Z" transform="translate(-0.005 0.005)"/>
      <path id="path3566-3-5-5-2-1-3-8-7-5" class="cls-18" d="M59.7,50.16a1.94,1.94,0,1,0-1.94,2A2,2,0,0,0,59.7,50.16Z" transform="translate(-0.005 0.005)"/>
      <path id="path3566-3-5-5-2-1-3-8-7-6" class="cls-18" d="M52.49,50.16a2,2,0,1,0-1.9994,2.0006L50.54,52.16A2,2,0,0,0,52.49,50.16Z" transform="translate(-0.005 0.005)"/>
      <path id="path3566-3-5-5-2-1-3-8-7-7" class="cls-18" d="M45.27,50.16a1.94,1.94,0,1,0-1.94,2A2,2,0,0,0,45.27,50.16Z" transform="translate(-0.005 0.005)"/>
      <path id="path3566-3-5-5-2-1-3-8-7-8" class="cls-18" d="M38.06,50.16a2,2,0,1,0-1.9994,2.0006L36.11,52.16A2,2,0,0,0,38.06,50.16Z" transform="translate(-0.005 0.005)"/>
      <path id="path3566-3-5-5-2-1-3-8-7-9" class="cls-18" d="M30.84,50.16a1.94,1.94,0,1,0-1.94,2A2,2,0,0,0,30.84,50.16Z" transform="translate(-0.005 0.005)"/>
      <path id="path3566-3-5-5-2-1-3-8-7-10" class="cls-18" d="M23.63,50.16a2,2,0,1,0-1.9994,2.0006L21.68,52.16A2,2,0,0,0,23.63,50.16Z" transform="translate(-0.005 0.005)"/>
      <path id="path3566-3-5-5-2-1-3-8-7-11" class="cls-18" d="M16.41,50.16a1.94,1.94,0,1,0-1.94,2A2,2,0,0,0,16.41,50.16Z" transform="translate(-0.005 0.005)"/>
      <path id="path3566-3-5-5-2-1-3-8-7-12" class="cls-18" d="M9.2,50.16a2,2,0,1,0-1.9994,2.0006L7.25,52.16A2,2,0,0,0,9.2,50.16Z" transform="translate(-0.005 0.005)"/>
      <path id="path3566-3-5-5-2-1-3-8-7-13" class="cls-18" d="M9.28,43.1a1.94,1.94,0,1,0-1.94,1.95A2,2,0,0,0,9.28,43.1Z" transform="translate(-0.005 0.005)"/>
      <path id="path3566-3-5-5-2-1-3-8-7-14" class="cls-18" d="M9.28,35.87a2,2,0,1,0,0,.06Z" transform="translate(-0.005 0.005)"/>
      <path id="path3566-3-5-5-2-1-3-8-7-15" class="cls-18" d="M9.28,28.65a1.94,1.94,0,1,0-1.94,2A2,2,0,0,0,9.28,28.65Z" transform="translate(-0.005 0.005)"/>
      <path id="path3566-3-5-5-2-1-3-8-7-16" class="cls-18" d="M9.28,21.42a2,2,0,1,0,0,.06Z" transform="translate(-0.005 0.005)"/>
      <path id="path3566-3-5-5-2-1-3-8-7-17" class="cls-18" d="M9.28,14.2a1.94,1.94,0,1,0-1.94,2A2,2,0,0,0,9.28,14.2Z" transform="translate(-0.005 0.005)"/>
      <path id="path3566-3-5-5-2-1-3-8-7-18" class="cls-18" d="M88.71,14.12a1.94,1.94,0,1,0-1.94,2A2,2,0,0,0,88.71,14.12Z" transform="translate(-0.005 0.005)"/>
      <path id="path3566-3-5-5-2-1-3-8-7-19" class="cls-18" d="M88.71,21.33a1.9409,1.9409,0,1,0,.0009.0609Q88.7109,21.36,88.71,21.33Z" transform="translate(-0.005 0.005)"/>
      <path id="path3566-3-5-5-2-1-3-8-7-20" class="cls-18" d="M88.71,35.74a2,2,0,1,0,0,.06Z" transform="translate(-0.005 0.005)"/>
      <path id="path3566-3-5-5-2-1-3-8-7-21" class="cls-18" d="M88.71,43a1.94,1.94,0,1,0-1.94,2A2,2,0,0,0,88.71,43Z" transform="translate(-0.005 0.005)"/>
      <path id="path3566-3-5-5-2-1-3-8-7-22" class="cls-18" d="M81.23,43a2,2,0,1,0-1.9991,2.0009L79.29,45A2,2,0,0,0,81.23,43Z" transform="translate(-0.005 0.005)"/>
      <path id="path3566-3-5-5-2-1-3-8-7-23" class="cls-18" d="M81.23,35.74a2,2,0,1,0,0,.06Z" transform="translate(-0.005 0.005)"/>
      <path id="path3566-3-5-5-2-1-3-8-7-24" class="cls-18" d="M88.56,7a2,2,0,1,0,0,.06Z" transform="translate(-0.005 0.005)"/>
      <path id="path3566-3-5-5-2-1-3-8-7-25" class="cls-18" d="M81.35,7a2,2,0,1,0,0,.1Z" transform="translate(-0.005 0.005)"/>
      <path id="path3566-3-5-5-2-1-3-8-7-26" class="cls-18" d="M74.13,7a2,2,0,1,0,0,.06Z" transform="translate(-0.005 0.005)"/>
      <path id="path3566-3-5-5-2-1-3-8-7-27" class="cls-18" d="M66.92,7a2,2,0,1,0,0,.1Z" transform="translate(-0.005 0.005)"/>
      <path id="path3566-3-5-5-2-1-3-8-7-28" class="cls-18" d="M59.7,7a2,2,0,1,0,0,.06Z" transform="translate(-0.005 0.005)"/>
      <path id="path3566-3-5-5-2-1-3-8-7-29" class="cls-18" d="M52.49,7a2,2,0,1,0-1.9994,2.0006L50.54,9a1.95,1.95,0,0,0,1.9506-1.9493Q52.4906,7.0254,52.49,7Z" transform="translate(-0.005 0.005)"/>
      <path id="path3566-3-5-5-2-1-3-8-7-30" class="cls-18" d="M45.27,7a2,2,0,1,0,0,.06Z" transform="translate(-0.005 0.005)"/>
      <path id="path3566-3-5-5-2-1-3-8-7-31" class="cls-18" d="M38.06,7a2,2,0,1,0-1.9994,2.0006L36.11,9a1.95,1.95,0,0,0,1.9506-1.9493Q38.0606,7.0254,38.06,7Z" transform="translate(-0.005 0.005)"/>
      <path id="path3566-3-5-5-2-1-3-8-7-32" class="cls-18" d="M30.84,7a2,2,0,1,0,0,.06Z" transform="translate(-0.005 0.005)"/>
      <path id="path3566-3-5-5-2-1-3-8-7-33" class="cls-18" d="M23.63,7a2,2,0,1,0-1.9994,2.0006L21.68,9a1.95,1.95,0,0,0,1.9506-1.9493Q23.6306,7.0254,23.63,7Z" transform="translate(-0.005 0.005)"/>
      <path id="path3566-3-5-5-2-1-3-8-7-34" class="cls-18" d="M16.41,7a2,2,0,1,0,0,.06Z" transform="translate(-0.005 0.005)"/>
      <path id="path3566-3-5-5-2-1-3-8-7-35" class="cls-18" d="M9.2,7A2,2,0,1,0,7.2006,9.0006L7.25,9A1.95,1.95,0,0,0,9.2006,7.0507Q9.2006,7.0254,9.2,7Z" transform="translate(-0.005 0.005)"/>
      <text class="cls-19" transform="translate(5.735 2.665)">VIN</text>
      <text class="cls-19" transform="translate(12.525 2.665)">GND</text>
      <g>
        <text class="cls-19" transform="translate(20.045 2.665)">RS</text>
        <text class="cls-20" transform="translate(22.175 2.665)">T</text>
      </g>
      <text class="cls-19" transform="translate(27.255 2.665)">+5V</text>
      <text class="cls-19" transform="translate(34.985 2.665)">A3</text>
      <text class="cls-19" transform="translate(42.205 2.665)">A2</text>
      <text class="cls-19" transform="translate(49.415 2.665)">A1</text>
      <text class="cls-19" transform="translate(63.915 2.665)">13</text>
      <text class="cls-19" transform="translate(71.135 2.665)">12</text>
      <text class="cls-19" transform="translate(78.355 2.665)">11</text>
      <text class="cls-19" transform="translate(85.555 2.665)">10</text>
      <polygon class="cls-21" points="15.935 3.565 12.975 3.565 10.895 5.645 10.895 8.605 12.975 10.685 15.935 10.685 18.015 8.605 18.015 5.645 15.935 3.565"/>
      <polygon class="cls-21" points="8.715 3.445 5.775 3.445 3.685 5.535 3.685 8.475 5.775 10.555 8.715 10.555 10.795 8.475 10.795 5.535 8.715 3.445"/>
      <polygon class="cls-21" points="23.155 3.565 20.195 3.565 18.125 5.645 18.125 8.605 20.195 10.685 23.155 10.685 25.225 8.605 25.225 5.645 23.155 3.565"/>
      <polygon class="cls-21" points="30.355 3.565 27.405 3.565 25.335 5.645 25.335 8.605 27.405 10.685 30.355 10.685 32.445 8.605 32.445 5.645 30.355 3.565"/>
      <polygon class="cls-21" points="37.585 3.565 34.625 3.565 32.545 5.645 32.545 8.605 34.625 10.685 37.585 10.685 39.655 8.605 39.655 5.645 37.585 3.565"/>
      <polygon class="cls-21" points="44.795 3.565 41.835 3.565 39.765 5.645 39.765 8.605 41.835 10.685 44.795 10.685 46.875 8.605 46.875 5.645 44.795 3.565"/>
      <polygon class="cls-21" points="52.015 3.565 49.055 3.565 46.975 5.645 46.975 8.605 49.055 10.685 52.015 10.685 54.085 8.605 54.085 5.645 52.015 3.565"/>
      <polygon class="cls-21" points="59.225 3.565 56.265 3.565 54.195 5.645 54.195 8.605 56.265 10.685 59.225 10.685 61.305 8.605 61.305 5.645 59.225 3.565"/>
      <polygon class="cls-21" points="66.435 3.565 63.485 3.565 61.405 5.645 61.405 8.605 63.485 10.685 66.435 10.685 68.525 8.605 68.525 5.645 66.435 3.565"/>
      <polygon class="cls-21" points="73.655 3.565 70.695 3.565 68.625 5.645 68.625 8.605 70.695 10.685 73.655 10.685 75.745 8.605 75.745 5.645 73.655 3.565"/>
      <polygon class="cls-21" points="80.875 3.565 77.915 3.565 75.825 5.645 75.825 8.605 77.915 10.685 80.875 10.685 82.945 8.605 82.945 5.645 80.875 3.565"/>
      <polygon class="cls-21" points="88.075 3.565 85.135 3.565 83.055 5.645 83.055 8.605 85.135 10.685 88.075 10.685 90.165 8.605 90.165 5.645 88.075 3.565"/>
      <polygon class="cls-21" points="8.715 46.605 5.775 46.605 3.685 48.705 3.685 51.635 5.775 53.735 8.715 53.735 10.795 51.635 10.795 48.705 8.715 46.605"/>
      <polygon class="cls-21" points="15.935 46.605 12.975 46.605 10.895 48.705 10.895 51.635 12.975 53.735 15.935 53.735 18.015 51.635 18.015 48.705 15.935 46.605"/>
      <polygon class="cls-21" points="23.155 46.605 20.195 46.605 18.125 48.705 18.125 51.635 20.195 53.735 23.155 53.735 25.225 51.635 25.225 48.705 23.155 46.605"/>
      <polygon class="cls-21" points="30.355 46.605 27.405 46.605 25.335 48.705 25.335 51.635 27.405 53.735 30.355 53.735 32.445 51.635 32.445 48.705 30.355 46.605"/>
      <polygon class="cls-21" points="37.585 46.605 34.625 46.605 32.545 48.705 32.545 51.635 34.625 53.735 37.585 53.735 39.655 51.635 39.655 48.705 37.585 46.605"/>
      <polygon class="cls-21" points="44.795 46.605 41.835 46.605 39.765 48.705 39.765 51.635 41.835 53.735 44.795 53.735 46.875 51.635 46.875 48.705 44.795 46.605"/>
      <polygon class="cls-21" points="52.015 46.605 49.055 46.605 46.975 48.705 46.975 51.635 49.055 53.735 52.015 53.735 54.085 51.635 54.085 48.705 52.015 46.605"/>
      <polygon class="cls-21" points="59.225 46.605 56.265 46.605 54.195 48.705 54.195 51.635 56.265 53.735 59.225 53.735 61.305 51.635 61.305 48.705 59.225 46.605"/>
      <polygon class="cls-21" points="66.435 46.605 63.485 46.605 61.405 48.705 61.405 51.635 63.485 53.735 66.435 53.735 68.525 51.635 68.525 48.705 66.435 46.605"/>
      <polygon class="cls-21" points="73.655 46.605 70.695 46.605 68.625 48.705 68.625 51.635 70.695 53.735 73.655 53.735 75.745 51.635 75.745 48.705 73.655 46.605"/>
      <polygon class="cls-21" points="80.875 46.605 77.915 46.605 75.825 48.705 75.825 51.635 77.915 53.735 80.875 53.735 82.945 51.635 82.945 48.705 80.875 46.605"/>
      <polygon class="cls-21" points="88.075 46.605 85.135 46.605 83.055 48.705 83.055 51.635 85.135 53.735 88.075 53.735 90.165 51.635 90.165 48.705 88.075 46.605"/>
      <polygon class="cls-21" points="88.225 17.775 85.275 17.775 83.195 19.865 83.195 22.805 85.275 24.895 88.225 24.895 90.325 22.805 90.325 19.865 88.225 17.775"/>
      <polygon class="cls-21" points="88.225 10.565 85.275 10.565 83.195 12.645 83.195 15.605 85.275 17.685 88.225 17.685 90.325 15.605 90.325 12.645 88.225 10.565"/>
      <polygon class="cls-21" points="8.715 39.415 5.775 39.415 3.685 41.495 3.685 44.455 5.775 46.525 8.715 46.525 10.795 44.455 10.795 41.495 8.715 39.415"/>
      <polygon class="cls-21" points="8.715 32.225 5.775 32.225 3.685 34.305 3.685 37.245 5.775 39.345 8.715 39.345 10.795 37.245 10.795 34.305 8.715 32.225"/>
      <polygon class="cls-21" points="8.715 25.025 5.775 25.025 3.685 27.115 3.685 30.055 5.775 32.135 8.715 32.135 10.795 30.055 10.795 27.115 8.715 25.025"/>
      <polygon class="cls-21" points="8.715 17.825 5.775 17.825 3.685 19.915 3.685 22.865 5.775 24.955 8.715 24.955 10.795 22.865 10.795 19.915 8.715 17.825"/>
      <polygon class="cls-21" points="8.715 10.635 5.775 10.635 3.685 12.715 3.685 15.665 5.775 17.755 8.715 17.755 10.795 15.665 10.795 12.715 8.715 10.635"/>
      <polygon class="cls-21" points="90.165 34.415 88.075 32.345 85.135 32.345 83.055 34.415 83.055 44.485 85.135 46.565 88.075 46.565 90.165 44.485 90.165 34.415"/>
      <polygon class="cls-21" points="82.945 34.415 80.875 32.345 77.915 32.345 75.825 34.415 75.825 44.485 77.915 46.565 80.875 46.565 82.945 44.485 82.945 34.415"/>
      <path class="cls-21" d="M90.14,44.56" transform="translate(-0.005 0.005)"/>
      <path class="cls-21" d="M88.06,46.64" transform="translate(-0.005 0.005)"/>
      <path class="cls-21" d="M85.11,46.64" transform="translate(-0.005 0.005)"/>
      <path class="cls-21" d="M83.01,44.56" transform="translate(-0.005 0.005)"/>
      <path class="cls-21" d="M83.09,41.46" transform="translate(-0.005 0.005)"/>
      <text class="cls-19" transform="translate(56.635 2.665)">A0</text>
      <text class="cls-19" transform="translate(92.735 15.9848) rotate(-90)">GND</text>
      <text class="cls-19" transform="translate(92.735 22.9848) rotate(-90)">+5V</text>
      <text class="cls-19" transform="translate(92.665 36.7348) rotate(-90)">A6</text>
      <text class="cls-19" transform="translate(92.485 44.3549) rotate(-90)">A4</text>
      <text class="cls-19" transform="translate(74.485 44.3549) rotate(-90)">A5</text>
      <text class="cls-19" transform="translate(86.085 55.965)">9</text>
      <text class="cls-19" transform="translate(78.865 55.965)">8</text>
      <text class="cls-19" transform="translate(71.645 55.965)">7</text>
      <text class="cls-19" transform="translate(64.445 55.965)">6</text>
      <text class="cls-19" transform="translate(57.225 55.965)">5</text>
      <text class="cls-19" transform="translate(50.015 55.965)">4</text>
      <text class="cls-19" transform="translate(42.795 56.045)">3</text>
      <text class="cls-19" transform="translate(35.585 55.965)">2</text>
      <text class="cls-19" transform="translate(26.955 55.965)">GND</text>
      <g>
        <text class="cls-19" transform="translate(20.045 55.965)">RS</text>
        <text class="cls-20" transform="translate(22.175 55.965)">T</text>
      </g>
      <text class="cls-19" transform="translate(13.325 55.965)">RX</text>
      <text class="cls-19" transform="translate(6.105 55.965)">TX</text>
      <text class="cls-19" transform="translate(2.795 43.4946) rotate(-90)">7</text>
      <text class="cls-19" transform="translate(2.795 36.9252) rotate(-90)">TX</text>
      <text class="cls-19" transform="translate(2.795 29.725) rotate(-90)">RX</text>
      <text class="cls-19" transform="translate(2.795 23.0248) rotate(-90)">+5V</text>
      <text class="cls-19" transform="translate(2.795 16.1147) rotate(-90)">GND</text>
    </g>
  </g>
</svg>
