<svg id="led-strip" xmlns="http://www.w3.org/2000/svg" width="115.9643mm" height="13.3087mm" viewBox="0 0 328.7176 37.7256">
  <defs>
    <style>
      .cls-1, .cls-2, .cls-7 {
        fill: none;
      }

      .cls-1 {
        stroke: red;
      }

      .cls-1, .cls-2 {
        stroke-width: 0.7937px;
      }

      .cls-11, .cls-12, .cls-17, .cls-2, .cls-3 {
        stroke: #000;
      }

      .cls-17, .cls-3 {
        fill: #f9f9f9;
      }

      .cls-3 {
        stroke-width: 0.1795px;
      }

      .cls-4 {
        fill: #8c8c8c;
      }

      .cls-5 {
        stroke: #c1bdbd;
        stroke-width: 0.3585px;
      }

      .cls-6 {
        fill: #ff0;
      }

      .cls-7 {
        stroke: #fff;
        stroke-width: 0.1316px;
      }

      .cls-8 {
        fill: #fff;
      }

      .cls-9 {
        fill: #c4c3c2;
      }

      .cls-10 {
        isolation: isolate;
        font-size: 16px;
        font-family: TrebuchetMS, Trebuchet MS;
      }

      .cls-11, .cls-12 {
        fill: #999;
      }

      .cls-11 {
        stroke-width: 0.1587px;
      }

      .cls-12 {
        stroke-width: 0.1587px;
      }

      .cls-13 {
        fill: #d2d1d3;
      }

      .cls-14 {
        fill: #b7b8b9;
      }

      .cls-15 {
        fill: #d7d3d5;
      }

      .cls-16 {
        fill: #242424;
      }

      .cls-17 {
        stroke-width: 0.1795px;
      }
    </style>
  </defs>
  <title>led-strip</title>
  <g id="led-strip-2" data-name="led-strip">
    <path id="path33523-9" class="cls-1" d="M38.1405,24.9158c-17.7032-9.3743-14.4687,9.253-37.973-1.687" transform="translate(0 3.4706)"/>
    <path id="path33523-9-7" class="cls-2" d="M39.9951,6.3154C22.2919-3.0588,25.5264,15.5684,2.022,4.6284" transform="translate(0 3.4706)"/>
    <g id="seg">
      <rect id="rect36944" class="cls-3" x="37.6461" y="3.6345" width="145.5845" height="30.3172"/>
      <g id="led">
        <path id="path3505-3" class="cls-4" d="M78.2728,10.0655,74.9716,10.03l.02-1.6535,3.3019.0374Z" transform="translate(0 3.4706)"/>
        <path id="path3509-6" class="cls-4" d="M65.0662,9.922l-3.3019-.0374.017-1.6521,3.3012.0357Z" transform="translate(0 3.4706)"/>
        <path id="path3513-86" class="cls-4" d="M64.9206,23.1289l-3.3027-.0375.02-1.652,3.3011.0357Z" transform="translate(0 3.4706)"/>
        <ellipse id="path5554-80" class="cls-5" cx="63.5569" cy="12.3859" rx="2.5571" ry="2.5228"/>
        <path id="path3517-3" class="cls-4" d="M78.1286,23.2738l-3.3027-.0351.017-1.6521,3.3019.0334Z" transform="translate(0 3.4706)"/>
        <ellipse id="path5554-8-7" class="cls-5" cx="76.6056" cy="12.451" rx="2.5571" ry="2.5228"/>
        <path id="path3521-0" class="cls-4" d="M78.2728,10.0655,74.9716,10.03l.02-1.6535,3.3019.0374Z" transform="translate(0 3.4706)"/>
        <ellipse id="path5554-82-1" class="cls-5" cx="63.1992" cy="25.8038" rx="2.5571" ry="2.5228"/>
        <path id="path3525-7" class="cls-4" d="M65.0662,9.922l-3.3019-.0374.017-1.6521,3.3012.0357Z" transform="translate(0 3.4706)"/>
        <ellipse id="path5554-4-9" class="cls-5" cx="76.5553" cy="25.8124" rx="2.5571" ry="2.5228"/>
        <path id="path3529-08" class="cls-4" d="M64.9206,23.1289l-3.3027-.0375.02-1.652,3.3011.0357Z" transform="translate(0 3.4706)"/>
        <path id="path3533-34" class="cls-4" d="M78.1286,23.2738l-3.3027-.0351.017-1.6521,3.3019.0334Z" transform="translate(0 3.4706)"/>
        <path id="path3545-6" class="cls-4" d="M73.2266,15.7585a3.2708,3.2708,0,1,1-3.2341-3.3079,3.2735,3.2735,0,0,1,3.2341,3.3079" transform="translate(0 3.4706)"/>
        <path id="path3549-4" class="cls-4" d="M75.7657,12.9272a.4129.4129,0,1,1,.408.4169.4121.4121,0,0,1-.408-.4169M74.5813,14.56l-.017,1.6521.8249.0085.0085-.8256,1.6595-.8085.4-5.353-1.65-.02-.02,1.6506L74.5805,14.56" transform="translate(0 3.4706)"/>
        <path id="path3553-5" class="cls-4" d="M75.7024,18.7091a.4128.4128,0,0,1,.4169-.41.4133.4133,0,1,1-.4169.41m-.314-2.49-.825-.0085-.02,1.6491,1.1419,2.0847-.0284,2.474,1.6513.02L77.03,17.0631Z" transform="translate(0 3.4706)"/>
        <path id="path3557-0" class="cls-4" d="M63.3207,18.5722a.4129.4129,0,1,1,.4072.4154.4107.4107,0,0,1-.4072-.4154m-.3222-1.6648-.5467,5.3687,1.652.017.0284-2.4763,4.6347-2.0212-1.6327-1.6678Z" transform="translate(0 3.4706)"/>
        <path id="path3561-9" class="cls-4" d="M63.3851,12.7911a.4121.4121,0,1,1,.4072.4177.4075.4075,0,0,1-.4072-.4177M62.599,9.0685l.4266,5.3627,4.1179.8712,1.6685-1.6312-4.5893-2.11.0284-2.4756Z" transform="translate(0 3.4706)"/>
        <path id="path3565-7" class="cls-6" d="M72.0918,15.77a1.2374,1.2374,0,1,1-1.2254-1.2523A1.2388,1.2388,0,0,1,72.0918,15.77" transform="translate(0 3.4706)"/>
        <path id="path3581-91" class="cls-6" d="M77.1839,15.1124a6.5,6.5,0,1,1-6.4271-6.5733,6.5,6.5,0,0,1,6.4271,6.5733" transform="translate(0 3.4706)"/>
        <path id="path3585-8" class="cls-7" d="M77.1839,15.1124a6.5,6.5,0,1,1-6.4271-6.5733,6.5,6.5,0,0,1,6.4271,6.5733Z" transform="translate(0 3.4706)"/>
        <path id="path3601-9" class="cls-8" d="M72.6745,11.5433a4.0282,4.0282,0,0,1,2.0339,3.5436,3.9407,3.9407,0,0,1-.08.7443l1.6095.3812a5.7385,5.7385,0,0,0,.1194-1.1106,5.6718,5.6718,0,0,0-3.0379-5.09Zm-.47-2.0034a8.4157,8.4157,0,0,0-1.4567-.1751,5.5944,5.5944,0,0,0-1.1441.1029l.3155,1.6215a3.6441,3.6441,0,0,1,.8085-.0723,4.076,4.076,0,0,1,.9517.1216Z" transform="translate(0 3.4706)"/>
        <path id="path3617-6" d="M60.8809,24.7675l.0814-17.5393-1.0405.9567.0227,17.3645,20.1023-.047.7571-.7981Z" transform="translate(0 3.4706)"/>
        <path id="path3637-3" class="cls-9" d="M80.0414,24.7055l.0022-18.9136L62.458,5.789l.71-.7042,17.6335.0113.0015,19.6076" transform="translate(0 3.4706)"/>
      </g>
      <g id="led-2" data-name="led">
        <path id="path3505-3-7" class="cls-4" d="M118.2752,10.0655,114.974,10.03l.02-1.6536,3.3019.0374Z" transform="translate(0 3.4706)"/>
        <path id="path3509-6-8" class="cls-4" d="M105.0686,9.922l-3.3019-.0374.017-1.6521,3.3011.0357Z" transform="translate(0 3.4706)"/>
        <path id="path3513-86-5" class="cls-4" d="M104.9229,23.1288l-3.3026-.0374.02-1.652,3.3012.0357Z" transform="translate(0 3.4706)"/>
        <ellipse id="path5554-80-0" class="cls-5" cx="103.5593" cy="12.3859" rx="2.5571" ry="2.5228"/>
        <path id="path3517-3-2" class="cls-4" d="M118.131,23.2739l-3.3027-.0352.017-1.6521,3.3019.0335Z" transform="translate(0 3.4706)"/>
        <ellipse id="path5554-8-7-3" class="cls-5" cx="116.6079" cy="12.4511" rx="2.5571" ry="2.5228"/>
        <path id="path3521-0-9" class="cls-4" d="M118.2752,10.0655,114.974,10.03l.02-1.6536,3.3019.0374Z" transform="translate(0 3.4706)"/>
        <ellipse id="path5554-82-1-5" class="cls-5" cx="103.2016" cy="25.8038" rx="2.5571" ry="2.5228"/>
        <path id="path3525-7-3" class="cls-4" d="M105.0686,9.922l-3.3019-.0374.017-1.6521,3.3011.0357Z" transform="translate(0 3.4706)"/>
        <ellipse id="path5554-4-9-6" class="cls-5" cx="116.5577" cy="25.8124" rx="2.5571" ry="2.5228"/>
        <path id="path3529-08-1" class="cls-4" d="M104.9229,23.1288l-3.3026-.0374.02-1.652,3.3012.0357Z" transform="translate(0 3.4706)"/>
        <path id="path3533-34-7" class="cls-4" d="M118.131,23.2739l-3.3027-.0352.017-1.6521,3.3019.0335Z" transform="translate(0 3.4706)"/>
        <path id="path3545-6-0" class="cls-4" d="M113.2289,15.7585a3.2708,3.2708,0,1,1-3.234-3.3079,3.2734,3.2734,0,0,1,3.234,3.3079" transform="translate(0 3.4706)"/>
        <path id="path3549-4-7" class="cls-4" d="M115.7681,12.9272a.4129.4129,0,1,1,.408.417.4121.4121,0,0,1-.408-.417M114.5836,14.56l-.017,1.6521.825.0085.0085-.8256,1.66-.8085.4-5.353-1.65-.02-.02,1.6506L114.5829,14.56" transform="translate(0 3.4706)"/>
        <path id="path3553-5-6" class="cls-4" d="M115.7048,18.7091a.4127.4127,0,0,1,.4169-.41.4132.4132,0,1,1-.4169.41m-.314-2.49-.8249-.0086-.02,1.6491,1.1419,2.0847-.0283,2.474,1.6513.02-.279-5.3753Z" transform="translate(0 3.4706)"/>
        <path id="path3557-0-2" class="cls-4" d="M103.3231,18.5722a.4128.4128,0,1,1,.4072.4154.4107.4107,0,0,1-.4072-.4154m-.3223-1.6648-.5467,5.3687,1.6521.017.0283-2.4763,4.6348-2.0212-1.6327-1.6677Z" transform="translate(0 3.4706)"/>
        <path id="path3561-9-4" class="cls-4" d="M103.3875,12.7911a.4121.4121,0,1,1,.4072.4177.4077.4077,0,0,1-.4072-.4177m-.7861-3.7226.4266,5.3627,4.1179.8712,1.6684-1.6312-4.5892-2.11.0284-2.4755Z" transform="translate(0 3.4706)"/>
        <path id="path3565-7-6" class="cls-6" d="M112.0942,15.77a1.2374,1.2374,0,1,1-1.2254-1.2523,1.2388,1.2388,0,0,1,1.2254,1.2523" transform="translate(0 3.4706)"/>
        <path id="path3581-91-6" class="cls-6" d="M117.1862,15.1124a6.5,6.5,0,1,1-6.427-6.5732,6.5,6.5,0,0,1,6.427,6.5732" transform="translate(0 3.4706)"/>
        <path id="path3585-8-6" class="cls-7" d="M117.1862,15.1124a6.5,6.5,0,1,1-6.427-6.5732A6.5,6.5,0,0,1,117.1862,15.1124Z" transform="translate(0 3.4706)"/>
        <path id="path3601-9-9" class="cls-8" d="M112.6769,11.5433a4.0285,4.0285,0,0,1,2.0339,3.5436,3.9491,3.9491,0,0,1-.08.7444l1.6095.3811a5.7307,5.7307,0,0,0,.1193-1.1106,5.6712,5.6712,0,0,0-3.0378-5.09Zm-.47-2.0033a8.4146,8.4146,0,0,0-1.4566-.1752,5.5938,5.5938,0,0,0-1.1441.1029l.3155,1.6215a3.6615,3.6615,0,0,1,.8085-.0723,4.092,4.092,0,0,1,.9517.1216Z" transform="translate(0 3.4706)"/>
        <path id="path3617-6-7" d="M100.8833,24.7676l.0814-17.5394-1.04.9567L99.9469,25.55l20.1023-.0471.7571-.7981Z" transform="translate(0 3.4706)"/>
        <path id="path3637-3-9" class="cls-9" d="M120.0438,24.7055l.0022-18.9137L102.46,5.789l.71-.7042,17.6335.0113.0015,19.6076" transform="translate(0 3.4706)"/>
      </g>
      <g id="led-3" data-name="led">
        <path id="path3505-3-9" class="cls-4" d="M158.3884,10.0655l-3.3012-.0357.02-1.6536,3.302.0374Z" transform="translate(0 3.4706)"/>
        <path id="path3509-6-83" class="cls-4" d="M145.1818,9.922,141.88,9.8846l.017-1.6521,3.3011.0357Z" transform="translate(0 3.4706)"/>
        <path id="path3513-86-52" class="cls-4" d="M145.0361,23.1288l-3.3026-.0374.02-1.652,3.3012.0357Z" transform="translate(0 3.4706)"/>
        <ellipse id="path5554-80-8" class="cls-5" cx="143.6725" cy="12.3859" rx="2.5571" ry="2.5228"/>
        <path id="path3517-3-3" class="cls-4" d="M158.2441,23.2739l-3.3026-.0352.017-1.6521,3.3019.0335Z" transform="translate(0 3.4706)"/>
        <ellipse id="path5554-8-7-5" class="cls-5" cx="156.7211" cy="12.451" rx="2.5571" ry="2.5228"/>
        <path id="path3521-0-8" class="cls-4" d="M158.3884,10.0655l-3.3012-.0357.02-1.6536,3.302.0374Z" transform="translate(0 3.4706)"/>
        <ellipse id="path5554-82-1-4" class="cls-5" cx="143.3147" cy="25.8038" rx="2.5571" ry="2.5228"/>
        <path id="path3525-7-2" class="cls-4" d="M145.1818,9.922,141.88,9.8846l.017-1.6521,3.3011.0357Z" transform="translate(0 3.4706)"/>
        <ellipse id="path5554-4-9-1" class="cls-5" cx="156.6708" cy="25.8124" rx="2.5571" ry="2.5228"/>
        <path id="path3529-08-15" class="cls-4" d="M145.0361,23.1288l-3.3026-.0374.02-1.652,3.3012.0357Z" transform="translate(0 3.4706)"/>
        <path id="path3533-34-76" class="cls-4" d="M158.2441,23.2739l-3.3026-.0352.017-1.6521,3.3019.0335Z" transform="translate(0 3.4706)"/>
        <path id="path3545-6-2" class="cls-4" d="M153.3421,15.7585a3.2708,3.2708,0,1,1-3.2341-3.3079,3.2735,3.2735,0,0,1,3.2341,3.3079" transform="translate(0 3.4706)"/>
        <path id="path3549-4-77" class="cls-4" d="M155.8812,12.9272a.4129.4129,0,1,1,.408.417.4122.4122,0,0,1-.408-.417M154.6968,14.56l-.017,1.6521.8249.0085.0085-.8256,1.66-.8085.4-5.353-1.65-.02-.02,1.6506L154.6961,14.56" transform="translate(0 3.4706)"/>
        <path id="path3553-5-2" class="cls-4" d="M155.8179,18.7091a.4127.4127,0,0,1,.4169-.41.4132.4132,0,1,1-.4169.41m-.314-2.49-.8249-.0086-.02,1.6491,1.1418,2.0847-.0283,2.474,1.6513.02-.2789-5.3753Z" transform="translate(0 3.4706)"/>
        <path id="path3557-0-5" class="cls-4" d="M143.4362,18.5722a.4129.4129,0,1,1,.4073.4154.4108.4108,0,0,1-.4073-.4154m-.3222-1.6648-.5467,5.3687,1.6521.017.0284-2.4763,4.6347-2.0212L147.25,16.1279Z" transform="translate(0 3.4706)"/>
        <path id="path3561-9-2" class="cls-4" d="M143.5007,12.7911a.4121.4121,0,1,1,.4072.4177.4077.4077,0,0,1-.4072-.4177m-.7861-3.7226.4266,5.3627,4.1178.8712,1.6685-1.6312-4.5892-2.11.0283-2.4755Z" transform="translate(0 3.4706)"/>
        <path id="path3565-7-69" class="cls-6" d="M152.2074,15.77a1.2374,1.2374,0,1,1-1.2254-1.2523,1.2388,1.2388,0,0,1,1.2254,1.2523" transform="translate(0 3.4706)"/>
        <path id="path3581-91-3" class="cls-6" d="M157.2994,15.1124a6.5,6.5,0,1,1-6.427-6.5732,6.5,6.5,0,0,1,6.427,6.5732" transform="translate(0 3.4706)"/>
        <path id="path3585-8-0" class="cls-7" d="M157.2994,15.1124a6.5,6.5,0,1,1-6.427-6.5732A6.5,6.5,0,0,1,157.2994,15.1124Z" transform="translate(0 3.4706)"/>
        <path id="path3601-9-7" class="cls-8" d="M152.79,11.5433a4.0285,4.0285,0,0,1,2.0339,3.5436,3.9656,3.9656,0,0,1-.08.7444l1.61.3811a5.7463,5.7463,0,0,0,.1193-1.1106,5.6715,5.6715,0,0,0-3.0379-5.09ZM152.32,9.54a8.4146,8.4146,0,0,0-1.4566-.1752,5.5938,5.5938,0,0,0-1.1441.1029l.3155,1.6215a3.6435,3.6435,0,0,1,.8085-.0723,4.076,4.076,0,0,1,.9517.1216Z" transform="translate(0 3.4706)"/>
        <path id="path3617-6-0" d="M140.9965,24.7676l.0813-17.5394-1.0405.9567L140.06,25.55l20.1023-.0471.7571-.7981Z" transform="translate(0 3.4706)"/>
        <path id="path3637-3-2" class="cls-9" d="M160.1569,24.7055l.0023-18.9137L142.5735,5.789l.71-.7042,17.6335.0113.0015,19.6076" transform="translate(0 3.4706)"/>
      </g>
      <text class="cls-10" transform="translate(43.3666 33.53)">+</text>
      <text class="cls-10" transform="translate(43.8988 14.0115)">−</text>
      <path id="contact" class="cls-11" d="M38.9183,2.8583a2.762,2.762,0,1,1,0,5.5239H37.6864V2.8583Z" transform="translate(0 3.4706)"/>
      <path id="contact-2" data-name="contact" class="cls-11" d="M38.8774,22.373a2.762,2.762,0,1,1,0,5.5239H37.6455V22.373Z" transform="translate(0 3.4706)"/>
      <text class="cls-10" transform="translate(166.8441 33.2419)">+</text>
      <text class="cls-10" transform="translate(167.3773 13.7234)">−</text>
      <path id="contact-3" data-name="contact" class="cls-12" d="M181.9478,2.7214a2.762,2.762,0,1,0,0,5.5239H183.18V2.7214Z" transform="translate(0 3.4706)"/>
      <path id="contact-4" data-name="contact" class="cls-12" d="M181.9886,22.2361a2.762,2.762,0,1,0,0,5.5239h1.2319V22.2361Z" transform="translate(0 3.4706)"/>
      <g id="R-0603">
        <rect id="rect21332-8-1-9-3-8-2-40-6-2-0-6-6-0-5-6-4-8-7-2-0-7-2-3-9-16-5" class="cls-13" x="129.6091" y="19.3527" width="2.2677" height="2.2598"/>
        <rect id="rect21332-8-1-9-3-8-2-40-6-2-0-6-6-0-5-6-4-8-7-2-0-7-2-3-10-16-5" class="cls-13" x="129.6091" y="15.963" width="2.2677" height="2.2598"/>
        <path class="cls-14" d="M129.6091,17.252v-3.87a.329.329,0,0,1,.2772-.33h1.7028a.3089.3089,0,0,1,.2871.3287v.0012h0v3.87a.3089.3089,0,0,1-.2858.33h-1.6842a.3189.3189,0,0,1-.297-.32h0Z" transform="translate(0 3.4706)"/>
        <g id="path26345-3-6-9-3-6-4-2-5-6-8-7-9-0-90-3-1-3-9-2-2-8-5-0-2-3-5-16-5">
          <rect class="cls-15" x="129.6091" y="16.943" width="2.2677" height="3.6797"/>
        </g>
        <path id="path26341-4-2-6-0-8-1-1-1-5-0-3-3-1-8-3-8-7-7-7-2-4-9-7-2-3-5-16-5" class="cls-16" d="M131.8768,16.7321v-2.83h-2.2677v2.83Z" transform="translate(0 3.4706)"/>
      </g>
      <g id="R-0603-2" data-name="R-0603">
        <rect id="rect21332-8-1-9-3-8-2-40-6-2-0-6-6-0-5-6-4-8-7-2-0-7-2-3-9-16-5-2" data-name="rect21332-8-1-9-3-8-2-40-6-2-0-6-6-0-5-6-4-8-7-2-0-7-2-3-9-16-5" class="cls-13" x="89.5513" y="19.3527" width="2.2677" height="2.2598"/>
        <rect id="rect21332-8-1-9-3-8-2-40-6-2-0-6-6-0-5-6-4-8-7-2-0-7-2-3-10-16-5-2" data-name="rect21332-8-1-9-3-8-2-40-6-2-0-6-6-0-5-6-4-8-7-2-0-7-2-3-10-16-5" class="cls-13" x="89.5513" y="15.963" width="2.2677" height="2.2598"/>
        <path class="cls-14" d="M89.5513,17.252v-3.87a.329.329,0,0,1,.2772-.33h1.7028a.3088.3088,0,0,1,.2871.3287v.0012h0v3.87a.3089.3089,0,0,1-.2858.33H89.8484a.3189.3189,0,0,1-.297-.32h0Z" transform="translate(0 3.4706)"/>
        <g id="path26345-3-6-9-3-6-4-2-5-6-8-7-9-0-90-3-1-3-9-2-2-8-5-0-2-3-5-16-5-2" data-name="path26345-3-6-9-3-6-4-2-5-6-8-7-9-0-90-3-1-3-9-2-2-8-5-0-2-3-5-16-5">
          <rect class="cls-15" x="89.5513" y="16.943" width="2.2677" height="3.6797"/>
        </g>
        <path id="path26341-4-2-6-0-8-1-1-1-5-0-3-3-1-8-3-8-7-7-7-2-4-9-7-2-3-5-16-5-2" data-name="path26341-4-2-6-0-8-1-1-1-5-0-3-3-1-8-3-8-7-7-7-2-4-9-7-2-3-5-16-5" class="cls-16" d="M91.819,16.7321v-2.83H89.5513v2.83Z" transform="translate(0 3.4706)"/>
      </g>
    </g>
    <g id="seg-2" data-name="seg">
      <rect id="rect36944-3" class="cls-17" x="183.0432" y="3.6277" width="145.5846" height="30.3134"/>
      <g id="led-4" data-name="led">
        <path id="path3505-3-75" class="cls-4" d="M223.67,10.2419l-3.3011-.0358.02-1.6535,3.3019.0374Z" transform="translate(0 3.4706)"/>
        <path id="path3509-6-9" class="cls-4" d="M210.4634,10.0984l-3.3019-.0374.017-1.6521,3.3011.0358Z" transform="translate(0 3.4706)"/>
        <path id="path3513-86-1" class="cls-4" d="M210.3177,23.3053l-3.3026-.0374.02-1.6521,3.3011.0357Z" transform="translate(0 3.4706)"/>
        <ellipse id="path5554-80-6" class="cls-5" cx="208.9541" cy="12.5624" rx="2.5571" ry="2.5228"/>
        <path id="path3517-3-7" class="cls-4" d="M223.5257,23.45l-3.3026-.0352.0169-1.6521,3.302.0335Z" transform="translate(0 3.4706)"/>
        <ellipse id="path5554-8-7-55" class="cls-5" cx="222.0027" cy="12.6275" rx="2.5571" ry="2.5228"/>
        <path id="path3521-0-6" class="cls-4" d="M223.67,10.2419l-3.3011-.0358.02-1.6535,3.3019.0374Z" transform="translate(0 3.4706)"/>
        <ellipse id="path5554-82-1-3" class="cls-5" cx="208.5963" cy="25.9802" rx="2.5571" ry="2.5228"/>
        <path id="path3525-7-1" class="cls-4" d="M210.4634,10.0984l-3.3019-.0374.017-1.6521,3.3011.0358Z" transform="translate(0 3.4706)"/>
        <ellipse id="path5554-4-9-9" class="cls-5" cx="221.9524" cy="25.9888" rx="2.5571" ry="2.5228"/>
        <path id="path3529-08-5" class="cls-4" d="M210.3177,23.3053l-3.3026-.0374.02-1.6521,3.3011.0357Z" transform="translate(0 3.4706)"/>
        <path id="path3533-34-3" class="cls-4" d="M223.5257,23.45l-3.3026-.0352.0169-1.6521,3.302.0335Z" transform="translate(0 3.4706)"/>
        <path id="path3545-6-6" class="cls-4" d="M218.6237,15.9349a3.2708,3.2708,0,1,1-3.234-3.3079,3.2735,3.2735,0,0,1,3.234,3.3079" transform="translate(0 3.4706)"/>
        <path id="path3549-4-3" class="cls-4" d="M221.1628,13.1036a.4129.4129,0,1,1,.408.417.4122.4122,0,0,1-.408-.417m-1.1844,1.6327-.017,1.6521.8249.0085.0085-.8256,1.66-.8085.4-5.353-1.65-.02-.02,1.65-1.2068,3.6957" transform="translate(0 3.4706)"/>
        <path id="path3553-5-8" class="cls-4" d="M221.1,18.8855a.4127.4127,0,0,1,.4169-.41.4132.4132,0,1,1-.4169.41m-.314-2.49-.8249-.0086-.02,1.6491,1.1419,2.0847-.0283,2.474,1.6513.02-.2789-5.3753Z" transform="translate(0 3.4706)"/>
        <path id="path3557-0-1" class="cls-4" d="M208.7178,18.7486a.4129.4129,0,1,1,.4072.4154.4108.4108,0,0,1-.4072-.4154m-.3222-1.6648-.5467,5.3687,1.6521.017.0283-2.4763,4.6347-2.0212-1.6326-1.6677Z" transform="translate(0 3.4706)"/>
        <path id="path3561-9-5" class="cls-4" d="M208.7823,12.9675a.4121.4121,0,1,1,.4072.4177.4076.4076,0,0,1-.4072-.4177m-.7862-3.7226.4267,5.3627,4.1178.8712,1.6685-1.6312-4.5892-2.11.0283-2.4755Z" transform="translate(0 3.4706)"/>
        <path id="path3565-7-68" class="cls-6" d="M217.489,15.9465a1.2375,1.2375,0,1,1-1.2254-1.2523,1.2388,1.2388,0,0,1,1.2254,1.2523" transform="translate(0 3.4706)"/>
        <path id="path3581-91-2" class="cls-6" d="M222.581,15.2888a6.5,6.5,0,1,1-6.427-6.5732,6.5,6.5,0,0,1,6.427,6.5732" transform="translate(0 3.4706)"/>
        <path id="path3585-8-8" class="cls-7" d="M222.581,15.2888a6.5,6.5,0,1,1-6.427-6.5732A6.5,6.5,0,0,1,222.581,15.2888Z" transform="translate(0 3.4706)"/>
        <path id="path3601-9-8" class="cls-8" d="M218.0716,11.72a4.0285,4.0285,0,0,1,2.0339,3.5436,3.9656,3.9656,0,0,1-.08.7444l1.6095.3811a5.7307,5.7307,0,0,0,.1193-1.1106,5.6712,5.6712,0,0,0-3.0378-5.09Zm-.47-2.0034a8.4169,8.4169,0,0,0-1.4567-.1751,5.5944,5.5944,0,0,0-1.1441.1029l.3155,1.6215a3.6621,3.6621,0,0,1,.8085-.0723,4.0913,4.0913,0,0,1,.9517.1216Z" transform="translate(0 3.4706)"/>
        <path id="path3617-6-02" d="M206.2781,24.944l.0813-17.5394-1.04.9567.0227,17.3646,20.1023-.0471.7571-.7981Z" transform="translate(0 3.4706)"/>
        <path id="path3637-3-27" class="cls-9" d="M225.4385,24.8819l.0022-18.9136-17.5856-.0029.71-.7042,17.6335.0114.0015,19.6075" transform="translate(0 3.4706)"/>
      </g>
      <g id="led-5" data-name="led">
        <path id="path3505-3-7-9" class="cls-4" d="M263.6723,10.2615l-3.3011-.0357.02-1.6536,3.3019.0374Z" transform="translate(0 3.4706)"/>
        <path id="path3509-6-8-6" class="cls-4" d="M250.4657,10.118l-3.3019-.0374.017-1.6521,3.3011.0358Z" transform="translate(0 3.4706)"/>
        <path id="path3513-86-5-9" class="cls-4" d="M250.32,23.3249l-3.3027-.0375.02-1.652,3.3011.0357Z" transform="translate(0 3.4706)"/>
        <ellipse id="path5554-80-0-6" class="cls-5" cx="248.9564" cy="12.582" rx="2.5571" ry="2.5228"/>
        <path id="path3517-3-2-7" class="cls-4" d="M263.5281,23.47l-3.3027-.0351.017-1.6521,3.3019.0335Z" transform="translate(0 3.4706)"/>
        <ellipse id="path5554-8-7-3-5" class="cls-5" cx="262.005" cy="12.647" rx="2.5571" ry="2.5228"/>
        <path id="path3521-0-9-2" class="cls-4" d="M263.6723,10.2615l-3.3011-.0357.02-1.6536,3.3019.0374Z" transform="translate(0 3.4706)"/>
        <ellipse id="path5554-82-1-5-7" class="cls-5" cx="248.5987" cy="25.9998" rx="2.5571" ry="2.5228"/>
        <path id="path3525-7-3-1" class="cls-4" d="M250.4657,10.118l-3.3019-.0374.017-1.6521,3.3011.0358Z" transform="translate(0 3.4706)"/>
        <ellipse id="path5554-4-9-6-0" class="cls-5" cx="261.9548" cy="26.0084" rx="2.5571" ry="2.5228"/>
        <path id="path3529-08-1-3" class="cls-4" d="M250.32,23.3249l-3.3027-.0375.02-1.652,3.3011.0357Z" transform="translate(0 3.4706)"/>
        <path id="path3533-34-7-8" class="cls-4" d="M263.5281,23.47l-3.3027-.0351.017-1.6521,3.3019.0335Z" transform="translate(0 3.4706)"/>
        <path id="path3545-6-0-0" class="cls-4" d="M258.6261,15.9545a3.2708,3.2708,0,1,1-3.2341-3.3079,3.2735,3.2735,0,0,1,3.2341,3.3079" transform="translate(0 3.4706)"/>
        <path id="path3549-4-7-0" class="cls-4" d="M261.1652,13.1233a.4129.4129,0,1,1,.408.4169.4121.4121,0,0,1-.408-.4169m-1.1844,1.6327-.017,1.6521.8249.0085.0085-.8257,1.66-.8085.4-5.3529-1.65-.02-.02,1.6506L259.98,14.7559" transform="translate(0 3.4706)"/>
        <path id="path3553-5-6-4" class="cls-4" d="M261.1019,18.9051a.4128.4128,0,0,1,.4169-.41.4132.4132,0,1,1-.4169.41m-.314-2.49-.8249-.0085-.02,1.6491,1.1419,2.0846-.0283,2.474,1.6513.02-.2789-5.3754Z" transform="translate(0 3.4706)"/>
        <path id="path3557-0-2-6" class="cls-4" d="M248.72,18.7682a.4129.4129,0,1,1,.4072.4155.4108.4108,0,0,1-.4072-.4155m-.3222-1.6648-.5467,5.3687,1.6521.017.0283-2.4762,4.6347-2.0213-1.6326-1.6677Z" transform="translate(0 3.4706)"/>
        <path id="path3561-9-4-7" class="cls-4" d="M248.7846,12.9871a.4121.4121,0,1,1,.4073.4177.4077.4077,0,0,1-.4073-.4177m-.7861-3.7226.4267,5.3627,4.1178.8712,1.6685-1.6313-4.5893-2.11.0284-2.4755Z" transform="translate(0 3.4706)"/>
        <path id="path3565-7-6-7" class="cls-6" d="M257.4913,15.9661a1.2374,1.2374,0,1,1-1.2254-1.2523,1.2388,1.2388,0,0,1,1.2254,1.2523" transform="translate(0 3.4706)"/>
        <path id="path3581-91-6-8" class="cls-6" d="M262.5834,15.3084a6.5,6.5,0,1,1-6.4271-6.5732,6.5,6.5,0,0,1,6.4271,6.5732" transform="translate(0 3.4706)"/>
        <path id="path3585-8-6-2" class="cls-7" d="M262.5834,15.3084a6.5,6.5,0,1,1-6.4271-6.5732A6.5,6.5,0,0,1,262.5834,15.3084Z" transform="translate(0 3.4706)"/>
        <path id="path3601-9-9-3" class="cls-8" d="M258.074,11.7393a4.0285,4.0285,0,0,1,2.0339,3.5436,3.9573,3.9573,0,0,1-.08.7444l1.61.3811a5.7376,5.7376,0,0,0,.1193-1.1106,5.6714,5.6714,0,0,0-3.0378-5.09Zm-.47-2.0033a8.4169,8.4169,0,0,0-1.4567-.1752,5.6014,5.6014,0,0,0-1.1441.1029l.3155,1.6215a3.6561,3.6561,0,0,1,.8085-.0722,4.0859,4.0859,0,0,1,.9517.1215Z" transform="translate(0 3.4706)"/>
        <path id="path3617-6-7-8" d="M246.2805,24.9636l.0813-17.5393-1.04.9566.0227,17.3646,20.1023-.0471.757-.798Z" transform="translate(0 3.4706)"/>
        <path id="path3637-3-9-7" class="cls-9" d="M265.4409,24.9015l.0022-18.9136L247.8575,5.985l.71-.7042,17.6335.0113L266.2029,24.9" transform="translate(0 3.4706)"/>
      </g>
      <g id="led-6" data-name="led">
        <path id="path3505-3-9-6" class="cls-4" d="M303.7855,9.9216l-3.3012-.0357.02-1.6536,3.3019.0374Z" transform="translate(0 3.4706)"/>
        <path id="path3509-6-83-1" class="cls-4" d="M290.5789,9.7781l-3.3019-.0374.017-1.6521,3.3011.0357Z" transform="translate(0 3.4706)"/>
        <path id="path3513-86-52-5" class="cls-4" d="M290.4333,22.9849l-3.3027-.0374.02-1.652,3.3011.0357Z" transform="translate(0 3.4706)"/>
        <ellipse id="path5554-80-8-9" class="cls-5" cx="289.0696" cy="12.242" rx="2.5571" ry="2.5228"/>
        <path id="path3517-3-3-5" class="cls-4" d="M303.6412,23.13l-3.3026-.0351.017-1.6521,3.3019.0334Z" transform="translate(0 3.4706)"/>
        <ellipse id="path5554-8-7-5-2" class="cls-5" cx="302.1182" cy="12.3071" rx="2.5571" ry="2.5228"/>
        <path id="path3521-0-8-0" class="cls-4" d="M303.7855,9.9216l-3.3012-.0357.02-1.6536,3.3019.0374Z" transform="translate(0 3.4706)"/>
        <ellipse id="path5554-82-1-4-8" class="cls-5" cx="288.7119" cy="25.6599" rx="2.5571" ry="2.5228"/>
        <path id="path3525-7-2-1" class="cls-4" d="M290.5789,9.7781l-3.3019-.0374.017-1.6521,3.3011.0357Z" transform="translate(0 3.4706)"/>
        <ellipse id="path5554-4-9-1-4" class="cls-5" cx="302.0679" cy="25.6685" rx="2.5571" ry="2.5228"/>
        <path id="path3529-08-15-4" class="cls-4" d="M290.4333,22.9849l-3.3027-.0374.02-1.652,3.3011.0357Z" transform="translate(0 3.4706)"/>
        <path id="path3533-34-76-9" class="cls-4" d="M303.6412,23.13l-3.3026-.0351.017-1.6521,3.3019.0334Z" transform="translate(0 3.4706)"/>
        <path id="path3545-6-2-9" class="cls-4" d="M298.7393,15.6145a3.2708,3.2708,0,1,1-3.234-3.3078,3.2735,3.2735,0,0,1,3.234,3.3078" transform="translate(0 3.4706)"/>
        <path id="path3549-4-77-0" class="cls-4" d="M301.2784,12.7834a.4129.4129,0,1,1,.408.4169.4121.4121,0,0,1-.408-.4169m-1.1845,1.6326-.017,1.6521.8249.0086.0086-.8257,1.66-.8085.4-5.353-1.65-.02L301.3,10.72l-1.2068,3.6956" transform="translate(0 3.4706)"/>
        <path id="path3553-5-2-8" class="cls-4" d="M301.215,18.5652a.4132.4132,0,1,1,.4073.4162.4128.4128,0,0,1-.4073-.4162m-.3139-2.49-.825-.0085-.02,1.649,1.1419,2.0847-.0284,2.474,1.6514.02-.279-5.3754Z" transform="translate(0 3.4706)"/>
        <path id="path3557-0-5-7" class="cls-4" d="M288.8334,18.4283a.4128.4128,0,1,1,.4072.4154.4107.4107,0,0,1-.4072-.4154m-.3222-1.6648-.5468,5.3687,1.6521.017.0284-2.4763,4.6347-2.0212-1.6327-1.6677Z" transform="translate(0 3.4706)"/>
        <path id="path3561-9-2-7" class="cls-4" d="M288.8978,12.6471a.4121.4121,0,1,1,.4072.4177.4075.4075,0,0,1-.4072-.4177m-.7861-3.7225.4266,5.3627,4.1179.8712,1.6684-1.6312-4.5892-2.11.0283-2.4755Z" transform="translate(0 3.4706)"/>
        <path id="path3565-7-69-8" class="cls-6" d="M297.6045,15.6262a1.2374,1.2374,0,1,1-1.2254-1.2523,1.2388,1.2388,0,0,1,1.2254,1.2523" transform="translate(0 3.4706)"/>
        <path id="path3581-91-3-9" class="cls-6" d="M302.6965,14.9685a6.5,6.5,0,1,1-6.427-6.5733,6.5,6.5,0,0,1,6.427,6.5733" transform="translate(0 3.4706)"/>
        <path id="path3585-8-0-3" class="cls-7" d="M302.6965,14.9685a6.5,6.5,0,1,1-6.427-6.5733A6.5,6.5,0,0,1,302.6965,14.9685Z" transform="translate(0 3.4706)"/>
        <path id="path3601-9-7-6" class="cls-8" d="M298.1872,11.3994a4.0285,4.0285,0,0,1,2.0339,3.5436,3.9573,3.9573,0,0,1-.08.7444l1.61.3811a5.7385,5.7385,0,0,0,.1193-1.1106,5.6714,5.6714,0,0,0-3.0378-5.09Zm-.47-2.0033a8.4169,8.4169,0,0,0-1.4567-.1752,5.5944,5.5944,0,0,0-1.1441.1029l.3155,1.6215a3.6621,3.6621,0,0,1,.8085-.0723,4.0913,4.0913,0,0,1,.9517.1216Z" transform="translate(0 3.4706)"/>
        <path id="path3617-6-0-6" d="M286.3936,24.6237l.0814-17.5394-1.0405.9567.0226,17.3646,20.1023-.0471.7571-.7981Z" transform="translate(0 3.4706)"/>
        <path id="path3637-3-2-7" class="cls-9" d="M305.5541,24.5616l.0022-18.9137-17.5856-.0028.71-.7042,17.6335.0113.0015,19.6076" transform="translate(0 3.4706)"/>
      </g>
      <text class="cls-10" transform="translate(189.2963 14.011)">−</text>
      <path id="contact-5" data-name="contact" class="cls-11" d="M184.2971,2.7228a2.762,2.762,0,1,1,0,5.5239h-1.2319V2.7228Z" transform="translate(0 3.4706)"/>
      <path id="contact-6" data-name="contact" class="cls-11" d="M184.2863,22.235a2.762,2.762,0,1,1,0,5.524h-1.2319V22.2351Z" transform="translate(0 3.4706)"/>
      <text class="cls-10" transform="translate(188.7631 33.5305)">+</text>
      <text class="cls-10" transform="translate(312.2416 33.2424)">+</text>
      <text class="cls-10" transform="translate(312.7748 13.7229)">−</text>
      <path id="contact-7" data-name="contact" class="cls-12" d="M327.3449,2.7212a2.762,2.762,0,1,0,0,5.5239h1.2319V2.7212Z" transform="translate(0 3.4706)"/>
      <path id="contact-8" data-name="contact" class="cls-12" d="M327.3858,22.2359a2.762,2.762,0,1,0,0,5.5239h1.2319V22.2359Z" transform="translate(0 3.4706)"/>
      <g id="R-0603-3" data-name="R-0603">
        <rect id="rect21332-8-1-9-3-8-2-40-6-2-0-6-6-0-5-6-4-8-7-2-0-7-2-3-9-16-5-3" data-name="rect21332-8-1-9-3-8-2-40-6-2-0-6-6-0-5-6-4-8-7-2-0-7-2-3-9-16-5" class="cls-13" x="275.0063" y="19.1643" width="2.2677" height="2.2598"/>
        <rect id="rect21332-8-1-9-3-8-2-40-6-2-0-6-6-0-5-6-4-8-7-2-0-7-2-3-10-16-5-3" data-name="rect21332-8-1-9-3-8-2-40-6-2-0-6-6-0-5-6-4-8-7-2-0-7-2-3-10-16-5" class="cls-13" x="275.0063" y="15.7746" width="2.2677" height="2.2598"/>
        <path class="cls-14" d="M275.0063,17.0637v-3.87a.3289.3289,0,0,1,.2772-.33h1.7028a.3089.3089,0,0,1,.2871.3287v.0012h0v3.87a.3091.3091,0,0,1-.2858.33h-1.6842a.3189.3189,0,0,1-.297-.32h0Z" transform="translate(0 3.4706)"/>
        <g id="path26345-3-6-9-3-6-4-2-5-6-8-7-9-0-90-3-1-3-9-2-2-8-5-0-2-3-5-16-5-3" data-name="path26345-3-6-9-3-6-4-2-5-6-8-7-9-0-90-3-1-3-9-2-2-8-5-0-2-3-5-16-5">
          <rect class="cls-15" x="275.0063" y="16.7546" width="2.2677" height="3.6797"/>
        </g>
        <path id="path26341-4-2-6-0-8-1-1-1-5-0-3-3-1-8-3-8-7-7-7-2-4-9-7-2-3-5-16-5-3" data-name="path26341-4-2-6-0-8-1-1-1-5-0-3-3-1-8-3-8-7-7-7-2-4-9-7-2-3-5-16-5" class="cls-16" d="M277.274,16.5438v-2.83h-2.2677v2.83Z" transform="translate(0 3.4706)"/>
      </g>
      <g id="R-0603-4" data-name="R-0603">
        <rect id="rect21332-8-1-9-3-8-2-40-6-2-0-6-6-0-5-6-4-8-7-2-0-7-2-3-9-16-5-4" data-name="rect21332-8-1-9-3-8-2-40-6-2-0-6-6-0-5-6-4-8-7-2-0-7-2-3-9-16-5" class="cls-13" x="234.9485" y="19.2477" width="2.2677" height="2.2598"/>
        <rect id="rect21332-8-1-9-3-8-2-40-6-2-0-6-6-0-5-6-4-8-7-2-0-7-2-3-10-16-5-4" data-name="rect21332-8-1-9-3-8-2-40-6-2-0-6-6-0-5-6-4-8-7-2-0-7-2-3-10-16-5" class="cls-13" x="234.9485" y="15.858" width="2.2677" height="2.2598"/>
        <path class="cls-14" d="M234.9485,17.147v-3.87a.329.329,0,0,1,.2772-.33h1.7028a.3089.3089,0,0,1,.2871.3287v.0012h0v3.87a.309.309,0,0,1-.2858.33h-1.6842a.3188.3188,0,0,1-.297-.32h0Z" transform="translate(0 3.4706)"/>
        <g id="path26345-3-6-9-3-6-4-2-5-6-8-7-9-0-90-3-1-3-9-2-2-8-5-0-2-3-5-16-5-4" data-name="path26345-3-6-9-3-6-4-2-5-6-8-7-9-0-90-3-1-3-9-2-2-8-5-0-2-3-5-16-5">
          <rect class="cls-15" x="234.9485" y="16.838" width="2.2677" height="3.6797"/>
        </g>
        <path id="path26341-4-2-6-0-8-1-1-1-5-0-3-3-1-8-3-8-7-7-7-2-4-9-7-2-3-5-16-5-4" data-name="path26341-4-2-6-0-8-1-1-1-5-0-3-3-1-8-3-8-7-7-7-2-4-9-7-2-3-5-16-5" class="cls-16" d="M237.2162,16.6271v-2.83h-2.2677v2.83Z" transform="translate(0 3.4706)"/>
      </g>
    </g>
  </g>
</svg>
