<?xml version='1.0' encoding='UTF-8' standalone='no'?>
<!-- Created with Fritzing (http://www.fritzing.org/) -->
<svg xmlns:svg='http://www.w3.org/2000/svg' xmlns='http://www.w3.org/2000/svg' version='1.2' baseProfile='tiny' x='0in' y='0in' width='2.5in' height='0.7in' viewBox='0 0 180 50.4' >
<g partID='75200'><g transform="matrix(1, 0, 0, 1, 0, -309.6)">
 <g  id="breadboard">
  <g transform="matrix(1, 0, 0, 1, 0, -481.888)">
   <path  style="color:#000000;stroke-linecap:round;stroke-linejoin:miter;stroke-miterlimit:4;stroke-dasharray:none;stroke-dashoffset:0;marker:none;visibility:visible;display:inline;overflow:visible;enable-background:accumulate" d="m3.6,802.288,86.4,0,-7.2,28.8,-79.2,0m0,0,0,-28.8" fill="#f2f2f2" stroke-width="0.36" stroke-opacity="1" id="path5607" stroke="#000000"/>
  </g>
  <g transform="matrix(1, 0, 0, 1, 0, -481.888)">
   <path  style="color:#000000;stroke-linecap:round;stroke-linejoin:miter;stroke-miterlimit:4;stroke-dasharray:none;stroke-dashoffset:0;marker:none;visibility:visible;display:inline;overflow:visible;enable-background:accumulate" d="m176.4,831.088,-86.4,0,7.2,-28.8,79.2,0m0,0,0,28.8" fill="#f2f2f2" stroke-width="0.36" stroke-opacity="1" id="path7626" stroke="#000000"/>
  </g>
  <g transform="matrix(1, 0, 0, 1, 0, 309.6)">
   <rect  style="stroke-linecap:butt;stroke-linejoin:round;stroke-miterlimit:4;stroke-dasharray:none;stroke-dashoffset:0;display:inline" width="5.4" height="3.6" rx="1.8" x="4.5" fill="#c87137" y="23.4" stroke-width="0.072" stroke-opacity="0.7037037" fill-opacity="0.70899467" id="connector2pin" stroke="#000000"/>
  </g>
  <rect  style="stroke-linecap:butt;stroke-linejoin:round;stroke-miterlimit:4;stroke-dasharray:none;stroke-dashoffset:0;display:inline" width="5.4" height="3.6" rx="1.8" x="4.5" fill="#c87137" y="325.822" stroke-width="0.072" stroke-opacity="0.7037037" fill-opacity="0.70899467" id="connector1pin" stroke="#000000"/>
  <rect  style="stroke-linecap:butt;stroke-linejoin:round;stroke-miterlimit:4;stroke-dasharray:none;stroke-dashoffset:0;display:inline" width="5.4" height="3.6" rx="1.8" x="4.5" fill="#c87137" y="340.222" stroke-width="0.072" stroke-opacity="0.7037037" fill-opacity="0.70899467" id="connector3pin" stroke="#000000"/>
  <rect  style="stroke-linecap:butt;stroke-linejoin:round;stroke-miterlimit:4;stroke-dasharray:none;stroke-dashoffset:0;display:inline" width="5.4" height="3.6" rx="1.8" x="170.114" fill="#c87137" y="333" stroke-width="0.072" stroke-opacity="0.7037037" fill-opacity="0.70899467" id="connector5pin" stroke="#000000"/>
  <rect  style="stroke-linecap:butt;stroke-linejoin:round;stroke-miterlimit:4;stroke-dasharray:none;stroke-dashoffset:0;display:inline" width="5.4" height="3.6" rx="1.8" x="170.114" fill="#c87137" y="325.822" stroke-width="0.072" stroke-opacity="0.7037037" fill-opacity="0.70899467" id="connector6pin" stroke="#000000"/>
  <rect  style="stroke-linecap:butt;stroke-linejoin:round;stroke-miterlimit:4;stroke-dasharray:none;stroke-dashoffset:0;display:inline" width="5.4" height="3.6" rx="1.8" x="170.114" fill="#c87137" y="340.222" stroke-width="0.072" stroke-opacity="0.7037037" fill-opacity="0.70899467" id="connector4pin" stroke="#000000"/>
  <g transform="matrix(1, 0, 0, 1, 0, 309.6)">
   <path  style="stroke-linecap:butt;stroke-linejoin:round;stroke-miterlimit:4;stroke-dasharray:none;stroke-dashoffset:0;display:inline" d="m7.74,18a0.54,0.54,0,1,1,-1.08,0,0.54,0.54,0,1,1,1.08,0z" fill="#000000" stroke-width="0.072" stroke-opacity="0.7037037" fill-opacity="0.86243388" id="path8777" stroke="#000000"/>
  </g>
  <g transform="matrix(1, 0, 0, 1, 0, 316.786)">
   <path  style="stroke-linecap:butt;stroke-linejoin:round;stroke-miterlimit:4;stroke-dasharray:none;stroke-dashoffset:0;display:inline" d="m7.74,18a0.54,0.54,0,1,1,-1.08,0,0.54,0.54,0,1,1,1.08,0z" fill="#000000" stroke-width="0.072" stroke-opacity="0.7037037" fill-opacity="0.86243388" id="path8779" stroke="#000000"/>
  </g>
  <g transform="matrix(1, 0, 0, 1, 0, 323.986)">
   <path  style="stroke-linecap:butt;stroke-linejoin:round;stroke-miterlimit:4;stroke-dasharray:none;stroke-dashoffset:0;display:inline" d="m7.74,18a0.54,0.54,0,1,1,-1.08,0,0.54,0.54,0,1,1,1.08,0z" fill="#000000" stroke-width="0.072" stroke-opacity="0.7037037" fill-opacity="0.86243388" id="path8781" stroke="#000000"/>
  </g>
  <g transform="matrix(1, 0, 0, 1, 165.614, 309.6)">
   <path  style="stroke-linecap:butt;stroke-linejoin:round;stroke-miterlimit:4;stroke-dasharray:none;stroke-dashoffset:0;display:inline" d="m7.74,18a0.54,0.54,0,1,1,-1.08,0,0.54,0.54,0,1,1,1.08,0z" fill="#000000" stroke-width="0.072" stroke-opacity="0.7037037" fill-opacity="0.86243388" id="path8783" stroke="#000000"/>
  </g>
  <g transform="matrix(1, 0, 0, 1, 165.614, 316.786)">
   <path  style="stroke-linecap:butt;stroke-linejoin:round;stroke-miterlimit:4;stroke-dasharray:none;stroke-dashoffset:0;display:inline" d="m7.74,18a0.54,0.54,0,1,1,-1.08,0,0.54,0.54,0,1,1,1.08,0z" fill="#000000" stroke-width="0.072" stroke-opacity="0.7037037" fill-opacity="0.86243388" id="path8785" stroke="#000000"/>
  </g>
  <g transform="matrix(1, 0, 0, 1, 165.614, 323.986)">
   <path  style="stroke-linecap:butt;stroke-linejoin:round;stroke-miterlimit:4;stroke-dasharray:none;stroke-dashoffset:0;display:inline" d="m7.74,18a0.54,0.54,0,1,1,-1.08,0,0.54,0.54,0,1,1,1.08,0z" fill="#000000" stroke-width="0.072" stroke-opacity="0.7037037" fill-opacity="0.86243388" id="path8787" stroke="#000000"/>
  </g>
  <g transform="matrix(0, -1.09259, 1.09259, 0, 23.4933, 354.467)">
   <g  style="stroke-miterlimit:4;stroke-dasharray:none;display:inline" stroke-width="0.0658983" stroke-opacity="0.58730164" id="g4615" stroke="#000000">
    <g transform="matrix(0.8, 0, 0, 1, 2.16, -324)">
     <g  style="stroke-miterlimit:4;stroke-dasharray:none;display:inline" stroke-width="0.0736765" stroke-opacity="0.58730164" id="g21454" stroke="#000000">
      <g transform="scale(-1,-1)">
       <rect  style="stroke-miterlimit:4;stroke-dasharray:none;display:inline" width="1.8" height="2.88" x="-10.8" fill="url(#linearGradient3512)" y="-338.76" stroke-width="0.0736765" stroke-opacity="0.58730164" fill-opacity="1" id="rect4194" stroke="#000000"/>
      </g>
      <g transform="scale(-1,-1)">
       <rect  style="stroke-miterlimit:4;stroke-dasharray:none;display:inline" width="1.8" height="2.88" x="-10.8" fill="url(#linearGradient3514)" y="-343.44" stroke-width="0.0736765" stroke-opacity="0.58730164" fill-opacity="1" id="rect21446" stroke="#000000"/>
      </g>
      <g transform="scale(-1,-1)">
       <rect  style="stroke-miterlimit:4;stroke-dasharray:none;display:inline" width="1.8" height="2.88" x="-10.8" fill="url(#linearGradient3516)" y="-348.12" stroke-width="0.0736765" stroke-opacity="0.58730164" fill-opacity="1" id="rect21450" stroke="#000000"/>
      </g>
     </g>
    </g>
    <g transform="matrix(-0.8, 0, 0, -1, 33.84, 360)">
     <g  style="stroke-miterlimit:4;stroke-dasharray:none;display:inline" stroke-width="0.0736765" stroke-opacity="0.58730164" id="g21459" stroke="#000000">
      <g transform="scale(-1,-1)">
       <rect  style="stroke-miterlimit:4;stroke-dasharray:none;display:inline" width="1.8" height="2.88" x="-10.8" fill="url(#linearGradient3518)" y="-338.76" stroke-width="0.0736765" stroke-opacity="0.58730164" fill-opacity="1" id="rect21461" stroke="#000000"/>
      </g>
      <g transform="scale(-1,-1)">
       <rect  style="stroke-miterlimit:4;stroke-dasharray:none;display:inline" width="1.8" height="2.88" x="-10.8" fill="url(#linearGradient3520)" y="-343.44" stroke-width="0.0736765" stroke-opacity="0.58730164" fill-opacity="1" id="rect21463" stroke="#000000"/>
      </g>
      <g transform="scale(-1,-1)">
       <rect  style="stroke-miterlimit:4;stroke-dasharray:none;display:inline" width="1.8" height="2.88" x="-10.8" fill="url(#linearGradient3522)" y="-348.12" stroke-width="0.0736765" stroke-opacity="0.58730164" fill-opacity="1" id="rect21465" stroke="#000000"/>
      </g>
     </g>
    </g>
    <g transform="matrix(1, 0, 0, 1, 0, -324)">
     <rect  style="stroke-miterlimit:4;stroke-dasharray:none;display:inline" width="14.4" height="14.4" x="10.8" fill="#e6e6e6" y="334.8" stroke-width="0.0658983" stroke-opacity="0.58730164" fill-opacity="1" id="rect21392" stroke="#000000"/>
    </g>
    <path  style="stroke-miterlimit:4;stroke-dasharray:none;display:inline" d="m23.4,18a5.4,5.4,0,1,1,-10.8,0,5.4,5.4,0,1,1,10.8,0z" fill="#b1b1b1" stroke-width="0.0658983" stroke-opacity="0.58730164" fill-opacity="1" id="path21480" stroke="#000000"/>
    <g transform="matrix(1, 0, 0, 1, 14.4, -11.16)">
     <path  style="stroke-miterlimit:4;stroke-dasharray:none;display:inline" d="m5.4,32.4a1.8,1.8,0,1,1,-3.6,0,1.8,1.8,0,1,1,3.6,0z" fill="#1423ff" stroke-width="0.0658983" stroke-opacity="0.58730164" fill-opacity="1" id="path21498" stroke="#000000"/>
    </g>
    <g transform="matrix(1, 0, 0, 1, 11.16, -14.4)">
     <path  style="stroke-miterlimit:4;stroke-dasharray:none;display:inline" d="m5.4,32.4a1.8,1.8,0,1,1,-3.6,0,1.8,1.8,0,1,1,3.6,0z" fill="#ff2a2a" stroke-width="0.0658983" stroke-opacity="0.58730164" fill-opacity="1" id="path21500" stroke="#000000"/>
    </g>
    <g transform="matrix(1, 0, 0, 1, 14.4, -17.64)">
     <path  style="stroke-miterlimit:4;stroke-dasharray:none;display:inline" d="m5.4,32.4a1.8,1.8,0,1,1,-3.6,0,1.8,1.8,0,1,1,3.6,0z" fill="#00ff0b" stroke-width="0.0658983" stroke-opacity="0.58730164" fill-opacity="1" id="path21526" stroke="#000000"/>
    </g>
    <g transform="matrix(1, 0, 0, 1, 0, -324)">
     <g  style="stroke-miterlimit:4;stroke-dasharray:none;display:inline" stroke-width="0.0658983" stroke-opacity="0.58730164" id="g4576" stroke="#000000">
      <g transform="matrix(1, 0, 0, 1, 0, 324)">
       <rect  style="stroke-linecap:butt;stroke-linejoin:round;stroke-miterlimit:4;stroke-dasharray:none;stroke-dashoffset:0" width="2.88" height="2.88" x="19.44" fill="#552200" y="16.56" stroke-width="0.0658983" stroke-opacity="0.58730164" id="rect3804" stroke="#000000"/>
      </g>
      <g transform="matrix(1, 0, 0, 1, 0, 324)">
       <path  style="color:#000000;stroke-linecap:round;stroke-linejoin:miter;stroke-miterlimit:4;stroke-dasharray:none;stroke-dashoffset:0;marker:none;visibility:visible;display:inline;overflow:visible;enable-background:accumulate" d="m19.8,16.92,2.16,0,0,0.36,-2.16,0,0,0.36,2.16,0,0,0.36,-2.16,0,0,0.36,2.16,0,0,0.36,-2.16,0,0,0.36,2.16,0" fill="none" stroke-width="0.0658983" stroke-opacity="0.58730164" id="path4574" stroke="#000000"/>
      </g>
     </g>
    </g>
    <path  style="stroke-miterlimit:4;stroke-dasharray:none" d="m23.4,18a5.4,5.4,0,1,1,-10.8,0,5.4,5.4,0,1,1,10.8,0z" fill="url(#radialGradient3524)" stroke-width="0.0658983" stroke-opacity="0.58730164" fill-opacity="1" id="path4583" stroke="#000000"/>
   </g>
  </g>
  <path  style="color:#000000;stroke-linecap:round;stroke-linejoin:round;stroke-miterlimit:4;stroke-dasharray:none;stroke-dashoffset:0;marker:none;visibility:visible;display:inline;overflow:visible;enable-background:accumulate" d="m34.2,347.4,0,-25.2,16.2,0,1.8,3.6,0,21.6z" fill="none" stroke-width="0.216" stroke-opacity="0.62962964" id="path6264" stroke="#000000"/>
  <path  style="color:#000000;stroke-linecap:round;stroke-linejoin:miter;stroke-miterlimit:4;stroke-dasharray:none;stroke-dashoffset:0;marker:none;visibility:visible;display:inline;overflow:visible;enable-background:accumulate" d="m62.1,328.5,0,4.5m-1.6e-06,-4.49844c0.00088,-0.497056,-0.401385,-0.900696,-0.898441,-0.90156,-0.00128,0,-0.00264,0,-0.00392,0m-5.39764,0,5.4,0m-6.3,0.90156c-0.00088,-0.497056,0.401385,-0.900696,0.898441,-0.90156,0.00128,0,0.00264,0,0.00392,0m-0.902362,5.4,0,-4.5" fill="none" stroke-width="0.216" stroke-opacity="0.62962964" id="path6316" stroke="#000000"/>
  <path  style="color:#000000;stroke-linecap:round;stroke-linejoin:miter;stroke-miterlimit:4;stroke-dasharray:none;stroke-dashoffset:0;marker:none;visibility:visible;display:inline;overflow:visible;enable-background:accumulate" d="m62.1,341.1,0,-4.5m-1.6e-06,4.49844c0.00088,0.497056,-0.401385,0.900696,-0.898441,0.90156,-0.00128,0,-0.00264,0,-0.00392,0m-5.39764,0,5.4,0m-6.3,-0.90156c-0.00088,0.497056,0.401385,0.900696,0.898441,0.90156,0.00128,0,0.00264,0,0.00392,0m-0.902362,-5.4,0,4.5" fill="none" stroke-width="0.216" stroke-opacity="0.63137255" id="path6321" stroke="#000000"/>
  <rect  style="stroke-linecap:butt;stroke-linejoin:round;stroke-miterlimit:4;stroke-dasharray:none;stroke-dashoffset:0" width="5.4" height="5.4" x="55.8" fill="#6c5d53" y="332.1" stroke-width="0.072" stroke-opacity="0.63137255" id="rect6323" stroke="#000000"/>
  <rect  width="5.4" height="2.7" x="55.8" fill="url(#linearGradient3526)" y="329.4" fill-opacity="1" id="rect6325" stroke="none"/>
  <g transform="scale(-1,-1)">
   <rect  width="5.4" height="2.7" x="-61.2" fill="url(#linearGradient3528)" y="-340.2" fill-opacity="1" id="rect6335" stroke="none"/>
  </g>
  <g transform="matrix(1, 0, 0, 1, -16.5118, 13.8777)">
   <g  style="font-style:normal;font-variant:normal;font-weight:normal;font-stretch:normal;line-height:125%;letter-spacing:0px;word-spacing:0px;font-family:OCR A Std;-inkscape-font-specification:OCR A Std" xml:space="preserve" xmlns:xml="http://www.w3.org/XML/1998/namespace" fill="#000000" fill-opacity="0.70899467" id="text6339" stroke="none" font-size="0">
    <text  style="font-style:normal;font-variant:normal;font-weight:500;font-stretch:normal;text-align:end;line-height:125%;writing-mode:lr-tb;text-anchor:end;font-family:OCRA;-inkscape-font-specification:OCRA Medium" x="34.2" fill="#000000" y="329.4" fill-opacity="0.70899467" id="tspan6341" font-size="0">+5V</text>
   </g>
  </g>
  <g transform="matrix(1, 0, 0, 1, -16.5086, -13.8124)">
   <g  style="font-style:normal;font-variant:normal;font-weight:normal;font-stretch:normal;line-height:125%;letter-spacing:0px;word-spacing:0px;font-family:OCR A Std;-inkscape-font-specification:OCR A Std" xml:space="preserve" xmlns:xml="http://www.w3.org/XML/1998/namespace" fill="#000000" fill-opacity="0.70899467" id="text6343" stroke="none" font-size="0">
    <text  style="font-style:normal;font-variant:normal;font-weight:500;font-stretch:normal;text-align:end;line-height:125%;writing-mode:lr-tb;text-anchor:end;font-family:OCRA;-inkscape-font-specification:OCRA Medium" x="34.2" fill="#000000" y="342.72" fill-opacity="0.70899467" id="tspan6345" font-size="0">GND</text>
   </g>
  </g>
  <g transform="matrix(1, 0, 0, 1, 12.2543, -11.8324)">
   <g  style="font-style:normal;font-variant:normal;font-weight:normal;font-stretch:normal;line-height:125%;letter-spacing:0px;word-spacing:0px;font-family:OCR A Std;-inkscape-font-specification:OCR A Std" xml:space="preserve" xmlns:xml="http://www.w3.org/XML/1998/namespace" fill="#000000" fill-opacity="0.70899467" id="text6347" stroke="none" font-size="0">
    <text  style="font-style:normal;font-variant:normal;font-weight:500;font-stretch:normal;text-align:end;line-height:125%;writing-mode:lr-tb;text-anchor:end;font-family:OCRA;-inkscape-font-specification:OCRA Medium" x="69.12" fill="#000000" y="340.74" fill-opacity="0.70899467" id="tspan6349" font-size="0">GND</text>
   </g>
  </g>
  <g transform="matrix(1, 0, 0, 1, 12.4343, 11.8977)">
   <g  style="font-style:normal;font-variant:normal;font-weight:normal;font-stretch:normal;line-height:125%;letter-spacing:0px;word-spacing:0px;font-family:OCR A Std;-inkscape-font-specification:OCR A Std" xml:space="preserve" xmlns:xml="http://www.w3.org/XML/1998/namespace" fill="#000000" fill-opacity="0.70899467" id="text6351" stroke="none" font-size="0">
    <text  style="font-style:normal;font-variant:normal;font-weight:500;font-stretch:normal;text-align:end;line-height:125%;writing-mode:lr-tb;text-anchor:end;font-family:OCRA;-inkscape-font-specification:OCRA Medium" x="68.94" fill="#000000" y="331.38" fill-opacity="0.70899467" id="tspan6353" font-size="0">+5V</text>
   </g>
  </g>
  <g transform="matrix(1, 0, 0, 1, -12.8958, 12.0585)">
   <g  style="font-style:normal;font-variant:normal;font-weight:normal;font-stretch:normal;line-height:125%;letter-spacing:0px;word-spacing:0px;font-family:OCR A Std;-inkscape-font-specification:OCR A Std" xml:space="preserve" xmlns:xml="http://www.w3.org/XML/1998/namespace" fill="#000000" fill-opacity="0.70899467" id="text6355" stroke="none" font-size="0">
    <g style="font-style:normal;font-variant:normal;font-weight:500;font-stretch:normal;text-align:end;line-height:125%;writing-mode:lr-tb;text-anchor:end;font-family:OCRA;-inkscape-font-specification:OCRA Medium" fill="#000000" fill-opacity="0.70899467" id="tspan6357" font-size="0">
     <text x="38.25" y="405" id="tspan3415">Din</text>
    </g>
   </g>
  </g>
  <g transform="matrix(1, 0, 0, 1, 14.5879, 11.9961)">
   <g  style="font-style:normal;font-variant:normal;font-weight:normal;font-stretch:normal;line-height:125%;letter-spacing:0px;word-spacing:0px;font-family:OCR A Std;-inkscape-font-specification:OCR A Std" xml:space="preserve" xmlns:xml="http://www.w3.org/XML/1998/namespace" fill="#000000" fill-opacity="0.70899467" id="text6359" stroke="none" font-size="0">
    <g style="font-style:normal;font-variant:normal;font-weight:500;font-stretch:normal;text-align:end;line-height:125%;writing-mode:lr-tb;text-anchor:end;font-family:OCRA;-inkscape-font-specification:OCRA Medium" fill="#000000" fill-opacity="0.70899467" id="tspan6361" font-size="0">
     <text x="83.474998" y="405" id="tspan3413">Dout</text>
    </g>
   </g>
  </g>
  <path  style="color:#000000;marker:none;visibility:visible;display:inline;overflow:visible;enable-background:accumulate" d="m22.4518,333.624,5.04,0,0,-1.26,2.16,2.16,-1.98,2.16,0,-1.26,-5.22,0" fill="#000000" stroke-width="0.36" fill-opacity="0.70899467" id="path7613" stroke="none"/>
  <g transform="matrix(0, -1.09259, 1.09259, 0, 109.898, 355.187)">
   <g  style="stroke-miterlimit:4;stroke-dasharray:none;display:inline" stroke-width="0.0658983" stroke-opacity="0.58730164" id="g7628" stroke="#000000">
    <g transform="matrix(0.8, 0, 0, 1, 2.16, -324)">
     <g  style="stroke-miterlimit:4;stroke-dasharray:none;display:inline" stroke-width="0.0736765" stroke-opacity="0.58730164" id="g7630" stroke="#000000">
      <g transform="scale(-1,-1)">
       <rect  style="stroke-miterlimit:4;stroke-dasharray:none;display:inline" width="1.8" height="2.88" x="-10.8" fill="url(#linearGradient3530)" y="-338.76" stroke-width="0.0736765" stroke-opacity="0.58730164" fill-opacity="1" id="rect7632" stroke="#000000"/>
      </g>
      <g transform="scale(-1,-1)">
       <rect  style="stroke-miterlimit:4;stroke-dasharray:none;display:inline" width="1.8" height="2.88" x="-10.8" fill="url(#linearGradient3532)" y="-343.44" stroke-width="0.0736765" stroke-opacity="0.58730164" fill-opacity="1" id="rect7634" stroke="#000000"/>
      </g>
      <g transform="scale(-1,-1)">
       <rect  style="stroke-miterlimit:4;stroke-dasharray:none;display:inline" width="1.8" height="2.88" x="-10.8" fill="url(#linearGradient3534)" y="-348.12" stroke-width="0.0736765" stroke-opacity="0.58730164" fill-opacity="1" id="rect7636" stroke="#000000"/>
      </g>
     </g>
    </g>
    <g transform="matrix(-0.8, 0, 0, -1, 33.84, 360)">
     <g  style="stroke-miterlimit:4;stroke-dasharray:none;display:inline" stroke-width="0.0736765" stroke-opacity="0.58730164" id="g7638" stroke="#000000">
      <g transform="scale(-1,-1)">
       <rect  style="stroke-miterlimit:4;stroke-dasharray:none;display:inline" width="1.8" height="2.88" x="-10.8" fill="url(#linearGradient3536)" y="-338.76" stroke-width="0.0736765" stroke-opacity="0.58730164" fill-opacity="1" id="rect7640" stroke="#000000"/>
      </g>
      <g transform="scale(-1,-1)">
       <rect  style="stroke-miterlimit:4;stroke-dasharray:none;display:inline" width="1.8" height="2.88" x="-10.8" fill="url(#linearGradient3538)" y="-343.44" stroke-width="0.0736765" stroke-opacity="0.58730164" fill-opacity="1" id="rect7642" stroke="#000000"/>
      </g>
      <g transform="scale(-1,-1)">
       <rect  style="stroke-miterlimit:4;stroke-dasharray:none;display:inline" width="1.8" height="2.88" x="-10.8" fill="url(#linearGradient3540)" y="-348.12" stroke-width="0.0736765" stroke-opacity="0.58730164" fill-opacity="1" id="rect7644" stroke="#000000"/>
      </g>
     </g>
    </g>
    <g transform="matrix(1, 0, 0, 1, 0, -324)">
     <rect  style="stroke-miterlimit:4;stroke-dasharray:none;display:inline" width="14.4" height="14.4" x="10.8" fill="#e6e6e6" y="334.8" stroke-width="0.0658983" stroke-opacity="0.58730164" fill-opacity="1" id="rect7646" stroke="#000000"/>
    </g>
    <path  style="stroke-miterlimit:4;stroke-dasharray:none;display:inline" d="m23.4,18a5.4,5.4,0,1,1,-10.8,0,5.4,5.4,0,1,1,10.8,0z" fill="#b1b1b1" stroke-width="0.0658983" stroke-opacity="0.58730164" fill-opacity="1" id="path7648" stroke="#000000"/>
    <g transform="matrix(1, 0, 0, 1, 14.4, -11.16)">
     <path  style="stroke-miterlimit:4;stroke-dasharray:none;display:inline" d="m5.4,32.4a1.8,1.8,0,1,1,-3.6,0,1.8,1.8,0,1,1,3.6,0z" fill="#1423ff" stroke-width="0.0658983" stroke-opacity="0.58730164" fill-opacity="1" id="path7650" stroke="#000000"/>
    </g>
    <g transform="matrix(1, 0, 0, 1, 11.16, -14.4)">
     <path  style="stroke-miterlimit:4;stroke-dasharray:none;display:inline" d="m5.4,32.4a1.8,1.8,0,1,1,-3.6,0,1.8,1.8,0,1,1,3.6,0z" fill="#ff2a2a" stroke-width="0.0658983" stroke-opacity="0.58730164" fill-opacity="1" id="path7652" stroke="#000000"/>
    </g>
    <g transform="matrix(1, 0, 0, 1, 14.4, -17.64)">
     <path  style="stroke-miterlimit:4;stroke-dasharray:none;display:inline" d="m5.4,32.4a1.8,1.8,0,1,1,-3.6,0,1.8,1.8,0,1,1,3.6,0z" fill="#00ff0b" stroke-width="0.0658983" stroke-opacity="0.58730164" fill-opacity="1" id="path7654" stroke="#000000"/>
    </g>
    <g transform="matrix(1, 0, 0, 1, 0, -324)">
     <g  style="stroke-miterlimit:4;stroke-dasharray:none;display:inline" stroke-width="0.0658983" stroke-opacity="0.58730164" id="g7656" stroke="#000000">
      <g transform="matrix(1, 0, 0, 1, 0, 324)">
       <rect  style="stroke-linecap:butt;stroke-linejoin:round;stroke-miterlimit:4;stroke-dasharray:none;stroke-dashoffset:0" width="2.88" height="2.88" x="19.44" fill="#552200" y="16.56" stroke-width="0.0658983" stroke-opacity="0.58730164" id="rect7658" stroke="#000000"/>
      </g>
      <g transform="matrix(1, 0, 0, 1, 0, 324)">
       <path  style="color:#000000;stroke-linecap:round;stroke-linejoin:miter;stroke-miterlimit:4;stroke-dasharray:none;stroke-dashoffset:0;marker:none;visibility:visible;display:inline;overflow:visible;enable-background:accumulate" d="m19.8,16.92,2.16,0,0,0.36,-2.16,0,0,0.36,2.16,0,0,0.36,-2.16,0,0,0.36,2.16,0,0,0.36,-2.16,0,0,0.36,2.16,0" fill="none" stroke-width="0.0658983" stroke-opacity="0.58730164" id="path7660" stroke="#000000"/>
      </g>
     </g>
    </g>
    <path  style="stroke-miterlimit:4;stroke-dasharray:none" d="m23.4,18a5.4,5.4,0,1,1,-10.8,0,5.4,5.4,0,1,1,10.8,0z" fill="url(#radialGradient3542)" stroke-width="0.0658983" stroke-opacity="0.58730164" fill-opacity="1" id="path7662" stroke="#000000"/>
   </g>
  </g>
  <path  style="color:#000000;stroke-linecap:round;stroke-linejoin:round;stroke-miterlimit:4;stroke-dasharray:none;stroke-dashoffset:0;marker:none;visibility:visible;display:inline;overflow:visible;enable-background:accumulate" d="m120.605,348.12,0,-25.2,16.2,0,1.8,3.6,0,21.6z" fill="none" stroke-width="0.216" stroke-opacity="0.62962964" id="path7664" stroke="#000000"/>
  <path  style="color:#000000;stroke-linecap:round;stroke-linejoin:miter;stroke-miterlimit:4;stroke-dasharray:none;stroke-dashoffset:0;marker:none;visibility:visible;display:inline;overflow:visible;enable-background:accumulate" d="m148.505,329.22,0,4.5m0,-4.49844c0.0008,-0.497056,-0.401384,-0.900696,-0.89844,-0.90156,-0.0016,0,-0.0024,0,-0.004,0m-5.39764,0,5.4,0m-6.3,0.90156c-0.0008,-0.497056,0.401384,-0.900696,0.89844,-0.90156,0.0016,0,0.0024,0,0.004,0m-0.90236,5.4,0,-4.5" fill="none" stroke-width="0.216" stroke-opacity="0.62962964" id="path7666" stroke="#000000"/>
  <path  style="color:#000000;stroke-linecap:round;stroke-linejoin:miter;stroke-miterlimit:4;stroke-dasharray:none;stroke-dashoffset:0;marker:none;visibility:visible;display:inline;overflow:visible;enable-background:accumulate" d="m148.505,341.82,0,-4.5m0,4.49844c0.0008,0.497056,-0.401384,0.900696,-0.89844,0.90156,-0.0016,0,-0.0024,0,-0.004,0m-5.39764,0,5.4,0m-6.3,-0.90156c-0.0008,0.497056,0.401384,0.900696,0.89844,0.90156,0.0016,0,0.0024,0,0.004,0m-0.90236,-5.4,0,4.5" fill="none" stroke-width="0.216" stroke-opacity="0.63137255" id="path7668" stroke="#000000"/>
  <rect  style="stroke-linecap:butt;stroke-linejoin:round;stroke-miterlimit:4;stroke-dasharray:none;stroke-dashoffset:0" width="5.4" height="5.4" x="142.205" fill="#6c5d53" y="332.82" stroke-width="0.072" stroke-opacity="0.63137255" id="rect7670" stroke="#000000"/>
  <rect  width="5.4" height="2.7" x="142.205" fill="url(#linearGradient3544)" y="330.12" fill-opacity="1" id="rect7672" stroke="none"/>
  <g transform="scale(-1,-1)">
   <rect  width="5.4" height="2.7" x="-147.605" fill="url(#linearGradient3546)" y="-340.92" fill-opacity="1" id="rect7674" stroke="none"/>
  </g>
  <g transform="matrix(1, 0, 0, 1, -14.9771, 13.1577)">
   <g  style="font-style:normal;font-variant:normal;font-weight:normal;font-stretch:normal;line-height:125%;letter-spacing:0px;word-spacing:0px;font-family:OCR A Std;-inkscape-font-specification:OCR A Std" xml:space="preserve" xmlns:xml="http://www.w3.org/XML/1998/namespace" fill="#000000" fill-opacity="0.70899467" id="text7676" stroke="none" font-size="0">
    <text  style="font-style:normal;font-variant:normal;font-weight:500;font-stretch:normal;text-align:end;line-height:125%;writing-mode:lr-tb;text-anchor:end;font-family:OCRA;-inkscape-font-specification:OCRA Medium" x="120.605" fill="#000000" y="330.12" fill-opacity="0.70899467" id="tspan7678" font-size="0">+5V</text>
   </g>
  </g>
  <g transform="matrix(1, 0, 0, 1, -14.9739, -14.5324)">
   <g  style="font-style:normal;font-variant:normal;font-weight:normal;font-stretch:normal;line-height:125%;letter-spacing:0px;word-spacing:0px;font-family:OCR A Std;-inkscape-font-specification:OCR A Std" xml:space="preserve" xmlns:xml="http://www.w3.org/XML/1998/namespace" fill="#000000" fill-opacity="0.70899467" id="text7680" stroke="none" font-size="0">
    <text  style="font-style:normal;font-variant:normal;font-weight:500;font-stretch:normal;text-align:end;line-height:125%;writing-mode:lr-tb;text-anchor:end;font-family:OCRA;-inkscape-font-specification:OCRA Medium" x="120.605" fill="#000000" y="343.44" fill-opacity="0.70899467" id="tspan7682" font-size="0">GND</text>
   </g>
  </g>
  <g transform="matrix(1, 0, 0, 1, 14.0317, -12.5524)">
   <g  style="font-style:normal;font-variant:normal;font-weight:normal;font-stretch:normal;line-height:125%;letter-spacing:0px;word-spacing:0px;font-family:OCR A Std;-inkscape-font-specification:OCR A Std" xml:space="preserve" xmlns:xml="http://www.w3.org/XML/1998/namespace" fill="#000000" fill-opacity="0.70899467" id="text7684" stroke="none" font-size="0">
    <text  style="font-style:normal;font-variant:normal;font-weight:500;font-stretch:normal;text-align:end;line-height:125%;writing-mode:lr-tb;text-anchor:end;font-family:OCRA;-inkscape-font-specification:OCRA Medium" x="155.525" fill="#000000" y="341.46" fill-opacity="0.70899467" id="tspan7686" font-size="0">GND</text>
   </g>
  </g>
  <g transform="matrix(1, 0, 0, 1, 14.2117, 11.1777)">
   <g  style="font-style:normal;font-variant:normal;font-weight:normal;font-stretch:normal;line-height:125%;letter-spacing:0px;word-spacing:0px;font-family:OCR A Std;-inkscape-font-specification:OCR A Std" xml:space="preserve" xmlns:xml="http://www.w3.org/XML/1998/namespace" fill="#000000" fill-opacity="0.70899467" id="text7688" stroke="none" font-size="0">
    <text  style="font-style:normal;font-variant:normal;font-weight:500;font-stretch:normal;text-align:end;line-height:125%;writing-mode:lr-tb;text-anchor:end;font-family:OCRA;-inkscape-font-specification:OCRA Medium" x="155.345" fill="#000000" y="332.1" fill-opacity="0.70899467" id="tspan7690" font-size="0">+5V</text>
   </g>
  </g>
  <g transform="matrix(1, 0, 0, 1, -2.59135, 9.80375)">
   <g  style="font-style:normal;font-variant:normal;font-weight:normal;font-stretch:normal;line-height:125%;letter-spacing:0px;word-spacing:0px;font-family:OCR A Std;-inkscape-font-specification:OCR A Std" xml:space="preserve" xmlns:xml="http://www.w3.org/XML/1998/namespace" fill="#000000" fill-opacity="0.70899467" id="text7692" stroke="none" font-size="0">
    <g style="font-style:normal;font-variant:normal;font-weight:500;font-stretch:normal;text-align:end;line-height:125%;writing-mode:lr-tb;text-anchor:end;font-family:OCRA;-inkscape-font-specification:OCRA Medium" fill="#000000" fill-opacity="0.70899467" id="tspan7694" font-size="0">
     <text x="135.2942" y="407.81839" id="tspan3411">Din</text>
    </g>
   </g>
  </g>
  <g transform="matrix(1, 0, 0, 1, 13.7343, 11.0568)">
   <g  style="font-style:normal;font-variant:normal;font-weight:normal;font-stretch:normal;line-height:125%;letter-spacing:0px;word-spacing:0px;font-family:OCR A Std;-inkscape-font-specification:OCR A Std" xml:space="preserve" xmlns:xml="http://www.w3.org/XML/1998/namespace" fill="#000000" fill-opacity="0.70899467" id="text7696" stroke="none" font-size="0">
    <g style="font-style:normal;font-variant:normal;font-weight:500;font-stretch:normal;text-align:end;line-height:125%;writing-mode:lr-tb;text-anchor:end;font-family:OCRA;-inkscape-font-specification:OCRA Medium" fill="#000000" fill-opacity="0.70899467" id="tspan7698" font-size="0">
     <text x="194.77011" y="406.17404" id="tspan3409">Dout</text>
    </g>
   </g>
  </g>
  <path  style="color:#000000;marker:none;visibility:visible;display:inline;overflow:visible;enable-background:accumulate" d="m110.392,333.248,5.04,0,0,-1.26,2.16,2.16,-1.98,2.16,0,-1.26,-5.22,0" fill="#000000" stroke-width="0.36" fill-opacity="0.70899467" id="path7700" stroke="none"/>
  <path  style="color:#000000;stroke-linecap:round;stroke-linejoin:miter;stroke-miterlimit:4;stroke-dasharray:none;stroke-dashoffset:0;marker:none;marker-start:url(#InfiniteLineStart);marker-end:url(#InfiniteLineEnd);visibility:visible;display:inline;overflow:visible;enable-background:accumulate" d="m82.08,352.08,8.64,-34.56" fill="none" stroke-width="0.36" stroke-opacity="1" id="path7720" stroke="#000000"/>
  <path  style="color:#000000;stroke-linecap:round;stroke-linejoin:miter;stroke-miterlimit:4;stroke-dasharray:none;stroke-dashoffset:0;marker:none;marker-start:url(#InfiniteLineStart);marker-end:url(#InfiniteLineEnd);visibility:visible;display:inline;overflow:visible;enable-background:accumulate" d="m89.28,352.08,8.64,-34.56" fill="none" stroke-width="0.36" stroke-opacity="1" id="path8757" stroke="#000000"/>
 </g>
</g>
</g></svg>