<svg id="lidar-tf02-pro" xmlns="http://www.w3.org/2000/svg" xmlns:xlink="http://www.w3.org/1999/xlink" width="148.042mm" height="63.124mm" viewBox="0 0 419.646 178.934">
  <defs>
    <style>
      .cls-1 {
        fill: #383838;
      }

      .cls-2, .cls-8 {
        fill: none;
      }

      .cls-2 {
        stroke: #242424;
        stroke-width: 11.339px;
      }

      .cls-13, .cls-2, .cls-22, .cls-8 {
        stroke-miterlimit: 10;
      }

      .cls-3 {
        fill: url(#Безымянный_градиент_63);
      }

      .cls-4 {
        fill: #1a1a1a;
      }

      .cls-5 {
        fill: #141414;
      }

      .cls-6 {
        fill: url(#Безымянный_градиент_32);
      }

      .cls-7 {
        fill: url(#Безымянный_градиент_209);
      }

      .cls-8 {
        stroke: #191919;
        stroke-width: 2.126px;
      }

      .cls-22, .cls-9 {
        fill: #191919;
      }

      .cls-10 {
        fill: url(#Безымянный_градиент_216);
      }

      .cls-11 {
        fill: url(#Безымянный_градиент_213);
      }

      .cls-12 {
        fill: url(#Безымянный_градиент_219);
      }

      .cls-13 {
        fill: #3a3a3a;
        stroke: #1a1a1a;
        stroke-width: 2.126px;
      }

      .cls-14 {
        fill: url(#Безымянный_градиент_81);
      }

      .cls-15 {
        fill: url(#Безымянный_градиент_79);
      }

      .cls-16 {
        fill: #323232;
      }

      .cls-17 {
        fill: url(#Безымянный_градиент_78);
      }

      .cls-18 {
        fill: url(#Безымянный_градиент_63-2);
      }

      .cls-19 {
        fill: url(#Безымянный_градиент_32-2);
      }

      .cls-20 {
        fill: #666;
      }

      .cls-21 {
        fill: #2d2d2d;
      }

      .cls-22 {
        stroke: #4d4d4d;
        stroke-width: 0.425px;
      }

      .cls-23 {
        fill: #3e3e3e;
      }

      .cls-24 {
        fill: #303030;
      }

      .cls-25 {
        fill: #494946;
      }
    </style>
    <linearGradient id="Безымянный_градиент_63" data-name="Безымянный градиент 63" x1="311.913" y1="124.942" x2="331.756" y2="124.942" gradientUnits="userSpaceOnUse">
      <stop offset="0.003" stop-color="#1a1a1a" stop-opacity="0.5"/>
      <stop offset="0.522" stop-color="#706f72" stop-opacity="0.2"/>
      <stop offset="0.633" stop-color="#a5a4a6" stop-opacity="0.2"/>
      <stop offset="0.746" stop-color="#f2f2f2" stop-opacity="0.2"/>
      <stop offset="0.814" stop-color="#9e9e9e" stop-opacity="0.2"/>
      <stop offset="0.928" stop-color="#2a2a2a" stop-opacity="0.2"/>
      <stop offset="1" stop-opacity="0.2"/>
    </linearGradient>
    <linearGradient id="Безымянный_градиент_32" data-name="Безымянный градиент 32" x1="303.551" y1="110.938" x2="340.118" y2="110.938" gradientUnits="userSpaceOnUse">
      <stop offset="0.003" stop-color="#1a1a1a" stop-opacity="0.5"/>
      <stop offset="0.061" stop-color="#fff" stop-opacity="0.3"/>
      <stop offset="0.095" stop-color="#d2d2d3" stop-opacity="0.269"/>
      <stop offset="0.143" stop-color="#a6a5a7" stop-opacity="0.238"/>
      <stop offset="0.204" stop-color="#878688" stop-opacity="0.216"/>
      <stop offset="0.288" stop-color="#757477" stop-opacity="0.203"/>
      <stop offset="0.522" stop-color="#706f72" stop-opacity="0.2"/>
      <stop offset="0.733" stop-color="#757477" stop-opacity="0.204"/>
      <stop offset="0.809" stop-color="#868688" stop-opacity="0.217"/>
      <stop offset="0.863" stop-color="#a5a4a6" stop-opacity="0.241"/>
      <stop offset="0.906" stop-color="#d0d0d1" stop-opacity="0.274"/>
      <stop offset="0.93" stop-color="#f2f2f2" stop-opacity="0.3"/>
      <stop offset="1" stop-opacity="0.5"/>
    </linearGradient>
    <radialGradient id="Безымянный_градиент_209" data-name="Безымянный градиент 209" cx="377.574" cy="20.95" r="5.004" gradientTransform="translate(-13.096 -12.014) scale(1.067)" gradientUnits="userSpaceOnUse">
      <stop offset="0" stop-color="#4d4d4d"/>
      <stop offset="0.189" stop-color="#525252"/>
      <stop offset="0.42" stop-color="#616161"/>
      <stop offset="0.478" stop-color="#666"/>
      <stop offset="0.697" stop-color="#535353"/>
      <stop offset="1" stop-color="#333"/>
    </radialGradient>
    <radialGradient id="Безымянный_градиент_216" data-name="Безымянный градиент 216" cx="250.644" cy="100.233" r="5.004" xlink:href="#Безымянный_градиент_209"/>
    <radialGradient id="Безымянный_градиент_213" data-name="Безымянный градиент 213" cx="250.509" cy="20.95" r="5.004" xlink:href="#Безымянный_градиент_209"/>
    <radialGradient id="Безымянный_градиент_219" data-name="Безымянный градиент 219" cx="377.574" cy="100.233" r="5.004" xlink:href="#Безымянный_градиент_209"/>
    <linearGradient id="Безымянный_градиент_81" data-name="Безымянный градиент 81" x1="19.332" y1="53.834" x2="176.244" y2="53.834" gradientUnits="userSpaceOnUse">
      <stop offset="0" stop-opacity="0.2"/>
      <stop offset="0.025" stop-color="#151415" stop-opacity="0.237"/>
      <stop offset="0.093" stop-color="#3e3d3f" stop-opacity="0.31"/>
      <stop offset="0.178" stop-color="#5b5a5c" stop-opacity="0.362"/>
      <stop offset="0.298" stop-color="#6b6a6d" stop-opacity="0.392"/>
      <stop offset="0.628" stop-color="#706f72" stop-opacity="0.4"/>
      <stop offset="0.844" stop-color="#6a696c" stop-opacity="0.421"/>
      <stop offset="0.921" stop-color="#555456" stop-opacity="0.495"/>
      <stop offset="0.976" stop-color="#303030" stop-opacity="0.623"/>
      <stop offset="0.997" stop-color="#1a1a1a" stop-opacity="0.7"/>
    </linearGradient>
    <linearGradient id="Безымянный_градиент_79" data-name="Безымянный градиент 79" y1="53.354" x2="19.91" y2="53.354" gradientUnits="userSpaceOnUse">
      <stop offset="0.003" stop-color="#1a1a1a" stop-opacity="0.7"/>
      <stop offset="0.074" stop-color="#2d2c2d" stop-opacity="0.635"/>
      <stop offset="0.372" stop-color="#706f72" stop-opacity="0.4"/>
      <stop offset="0.519" stop-color="#4d4d4f" stop-opacity="0.338"/>
      <stop offset="0.814" stop-color="#151515" stop-opacity="0.237"/>
      <stop offset="1" stop-opacity="0.2"/>
    </linearGradient>
    <linearGradient id="Безымянный_градиент_78" data-name="Безымянный градиент 78" x1="175.736" y1="53.354" x2="195.646" y2="53.354" gradientUnits="userSpaceOnUse">
      <stop offset="0" stop-opacity="0.2"/>
      <stop offset="0.186" stop-color="#151515" stop-opacity="0.237"/>
      <stop offset="0.481" stop-color="#4d4d4f" stop-opacity="0.338"/>
      <stop offset="0.628" stop-color="#706f72" stop-opacity="0.4"/>
      <stop offset="0.926" stop-color="#2d2c2d" stop-opacity="0.635"/>
      <stop offset="0.997" stop-color="#1a1a1a" stop-opacity="0.7"/>
    </linearGradient>
    <linearGradient id="Безымянный_градиент_63-2" x1="87.913" y1="124.942" x2="107.755" y2="124.942" xlink:href="#Безымянный_градиент_63"/>
    <linearGradient id="Безымянный_градиент_32-2" x1="79.551" y1="110.938" x2="116.118" y2="110.938" xlink:href="#Безымянный_градиент_32"/>
  </defs>
  <title>lidar-tf02-pro</title>
  <g id="bottom">
    <g>
      <path class="cls-1" d="M235.98,40.354a5.481,5.481,0,0,1-3.62,2.61,10.638,10.638,0,0,0-.01,20.78,5.449,5.449,0,0,1,3.61,2.6l7.95,13.94,1.536-.05V25.994l-1.536.43Zm-2.09,17.26a4.25,4.25,0,1,1,4.26-4.26A4.276,4.276,0,0,1,233.89,57.614Z"/>
      <path class="cls-1" d="M399.736,26.424l-1.536-.238V81.1l1.536-.814,7.95-13.94a5.449,5.449,0,0,1,3.61-2.6,10.636,10.636,0,0,0-.01-20.78,5.481,5.481,0,0,1-3.62-2.61Zm5.76,26.93a4.25,4.25,0,1,1,4.26,4.26A4.276,4.276,0,0,1,405.5,53.354Z"/>
    </g>
    <g>
      <line class="cls-2" x1="321.834" y1="130.346" x2="321.834" y2="178.934"/>
      <g>
        <g>
          <rect class="cls-1" x="311.913" y="116.962" width="19.843" height="15.959"/>
          <rect class="cls-3" x="311.913" y="116.962" width="19.843" height="15.959"/>
        </g>
        <g>
          <rect class="cls-4" x="315.412" y="119.422" width="3.277" height="3.216" rx="1.608"/>
          <path class="cls-5" d="M317.019,122.355a1.325,1.325,0,0,1,0-2.649,1.325,1.325,0,1,1,.062,2.649Z"/>
          <rect class="cls-4" x="324.98" y="119.422" width="3.277" height="3.216" rx="1.608"/>
          <path class="cls-5" d="M326.588,122.355a1.356,1.356,0,1,1,.061,0Z"/>
        </g>
      </g>
      <g>
        <rect class="cls-1" x="303.551" y="104.56" width="36.567" height="12.756"/>
        <rect class="cls-6" x="303.551" y="104.56" width="36.567" height="12.756"/>
      </g>
    </g>
    <path class="cls-1" d="M393.914,0H249.924l-6.04,6.42V98.34l6.16,6.54H393.8l5.98-6.36V6.23Z"/>
    <g>
      <g>
        <rect class="cls-4" x="382.594" y="3.22" width="14.112" height="14.112" rx="7.056"/>
        <g>
          <circle class="cls-4" cx="389.65" cy="10.276" r="5.712"/>
          <circle class="cls-7" cx="389.65" cy="10.333" r="5.337"/>
          <line class="cls-8" x1="385.842" y1="10.276" x2="393.458" y2="10.276"/>
          <line class="cls-8" x1="389.65" y1="14.084" x2="389.65" y2="6.468"/>
        </g>
      </g>
      <g>
        <rect class="cls-4" x="247.202" y="87.788" width="14.112" height="14.112" rx="7.056"/>
        <g>
          <circle class="cls-9" cx="254.258" cy="94.844" r="5.712"/>
          <circle class="cls-10" cx="254.258" cy="94.901" r="5.337"/>
          <line class="cls-8" x1="250.45" y1="94.844" x2="258.066" y2="94.844"/>
          <line class="cls-8" x1="254.258" y1="98.652" x2="254.258" y2="91.036"/>
        </g>
      </g>
      <g>
        <rect class="cls-4" x="247.058" y="3.22" width="14.112" height="14.112" rx="7.056"/>
        <g>
          <circle class="cls-9" cx="254.114" cy="10.276" r="5.712"/>
          <circle class="cls-11" cx="254.114" cy="10.333" r="5.337"/>
          <line class="cls-8" x1="250.306" y1="10.276" x2="257.922" y2="10.276"/>
          <line class="cls-8" x1="254.114" y1="14.084" x2="254.114" y2="6.468"/>
        </g>
      </g>
      <g>
        <rect class="cls-4" x="382.594" y="87.788" width="14.112" height="14.112" rx="7.056"/>
        <g>
          <circle class="cls-9" cx="389.65" cy="94.844" r="5.712"/>
          <circle class="cls-12" cx="389.65" cy="94.901" r="5.337"/>
          <line class="cls-8" x1="385.842" y1="94.844" x2="393.458" y2="94.844"/>
          <line class="cls-8" x1="389.65" y1="98.652" x2="389.65" y2="91.036"/>
        </g>
      </g>
    </g>
    <path class="cls-13" d="M395.659,26.76V78.17a3.48,3.48,0,0,1-3.48,3.48h-14.45a3.48,3.48,0,0,0-3.48,3.48V97.8a3.48,3.48,0,0,1-3.48,3.48H272.9a3.48,3.48,0,0,1-3.48-3.48V85.13a3.48,3.48,0,0,0-3.48-3.48h-14.45a3.48,3.48,0,0,1-3.48-3.48V26.76a3.48,3.48,0,0,1,3.48-3.48h14.45a3.48,3.48,0,0,0,3.48-3.48V7.08A3.48,3.48,0,0,1,272.9,3.6h97.87a3.48,3.48,0,0,1,3.48,3.48V19.8a3.48,3.48,0,0,0,3.48,3.48h14.45A3.48,3.48,0,0,1,395.659,26.76Z"/>
  </g>
  <g id="top">
    <g>
      <rect class="cls-1" x="19.332" y="29.258" width="156.912" height="49.152"/>
      <rect class="cls-14" x="19.332" y="29.258" width="156.912" height="49.152"/>
    </g>
    <g>
      <g>
        <path class="cls-1" d="M11.98,40.354a5.481,5.481,0,0,1-3.62,2.61,10.638,10.638,0,0,0-.01,20.78,5.449,5.449,0,0,1,3.61,2.6l7.95,13.94V26.424ZM9.89,57.614a4.25,4.25,0,1,1,4.26-4.26A4.276,4.276,0,0,1,9.89,57.614Z"/>
        <path class="cls-15" d="M11.98,40.354a5.481,5.481,0,0,1-3.62,2.61,10.638,10.638,0,0,0-.01,20.78,5.449,5.449,0,0,1,3.61,2.6l7.95,13.94V26.424ZM9.89,57.614a4.25,4.25,0,1,1,4.26-4.26A4.276,4.276,0,0,1,9.89,57.614Z"/>
      </g>
      <g>
        <path class="cls-16" d="M175.736,26.424v53.86l7.95-13.94a5.449,5.449,0,0,1,3.61-2.6,10.636,10.636,0,0,0-.01-20.78,5.481,5.481,0,0,1-3.62-2.61Zm5.76,26.93a4.25,4.25,0,1,1,4.26,4.26A4.276,4.276,0,0,1,181.5,53.354Z"/>
        <path class="cls-17" d="M175.736,26.424v53.86l7.95-13.94a5.449,5.449,0,0,1,3.61-2.6,10.636,10.636,0,0,0-.01-20.78,5.481,5.481,0,0,1-3.62-2.61Zm5.76,26.93a4.25,4.25,0,1,1,4.26,4.26A4.276,4.276,0,0,1,181.5,53.354Z"/>
      </g>
    </g>
    <g>
      <line class="cls-2" x1="97.834" y1="130.346" x2="97.834" y2="178.934"/>
      <g>
        <g>
          <rect class="cls-1" x="87.913" y="116.962" width="19.843" height="15.959"/>
          <rect class="cls-18" x="87.913" y="116.962" width="19.843" height="15.959"/>
        </g>
        <g>
          <rect class="cls-4" x="91.412" y="119.422" width="3.277" height="3.216" rx="1.608"/>
          <path class="cls-5" d="M93.019,122.355a1.325,1.325,0,0,1,0-2.649,1.325,1.325,0,1,1,.062,2.649Z"/>
          <rect class="cls-4" x="100.98" y="119.422" width="3.277" height="3.216" rx="1.608"/>
          <path class="cls-5" d="M102.588,122.355a1.355,1.355,0,1,1,.061,0Z"/>
        </g>
      </g>
      <g>
        <rect class="cls-1" x="79.551" y="104.56" width="36.567" height="12.756"/>
        <rect class="cls-19" x="79.551" y="104.56" width="36.567" height="12.756"/>
      </g>
    </g>
    <g>
      <path class="cls-20" d="M169.914,0H25.924l-6.04,6.42V29.96h3v3.12h-3v7.63h3v3.12h-3v7.63h3v3.12h-3v7.63h3v3.12h-3v7.63h3v3.12h-3V98.34l6.16,6.54H169.8l5.98-6.36V6.23Zm5.86,76.08h-3V72.96h3Zm0-10.75h-3V62.21h3Zm0-10.75h-3V51.46h3Zm0-10.75h-3V40.71h3Zm0-10.75h-3V29.96h3Z"/>
      <polygon class="cls-21" points="27.268 102.045 22.719 97.215 22.719 7.544 27.149 2.835 168.69 2.835 172.949 7.355 172.949 97.397 168.579 102.045 27.268 102.045"/>
    </g>
    <g>
      <rect class="cls-22" x="39.482" y="20.893" width="56.693" height="64.346" rx="4.82"/>
      <rect class="cls-22" x="99.482" y="20.893" width="56.693" height="64.346" rx="4.82"/>
    </g>
    <rect class="cls-23" x="53.842" y="0.036" width="87.984" height="1.152"/>
    <g>
      <rect class="cls-24" x="22.676" y="29.961" width="2.8" height="3.12"/>
      <rect class="cls-24" x="22.676" y="40.711" width="2.8" height="3.12"/>
      <rect class="cls-24" x="22.676" y="51.461" width="2.8" height="3.12"/>
      <rect class="cls-24" x="22.676" y="62.211" width="2.8" height="3.12"/>
      <rect class="cls-24" x="22.676" y="72.961" width="2.8" height="3.12"/>
    </g>
    <g>
      <rect class="cls-25" x="170.177" y="29.96" width="2.851" height="3.12" transform="translate(343.205 63.041) rotate(-180)"/>
      <rect class="cls-25" x="170.177" y="40.71" width="2.851" height="3.12" transform="translate(343.205 84.541) rotate(-180)"/>
      <rect class="cls-25" x="170.177" y="51.46" width="2.851" height="3.12" transform="translate(343.205 106.041) rotate(-180)"/>
      <rect class="cls-25" x="170.177" y="62.211" width="2.851" height="3.12" transform="translate(343.205 127.541) rotate(-180)"/>
      <rect class="cls-25" x="170.177" y="72.961" width="2.851" height="3.12" transform="translate(343.205 149.041) rotate(-180)"/>
    </g>
  </g>
</svg>
