<svg id="lidar-tfmini-plus" xmlns="http://www.w3.org/2000/svg" xmlns:xlink="http://www.w3.org/1999/xlink" width="134.43mm" height="39.779mm" viewBox="0 0 381.062 112.76">
  <defs>
    <style>
      .cls-1, .cls-11, .cls-16, .cls-18, .cls-2, .cls-3, .cls-4, .cls-6 {
        fill: none;
      }

      .cls-1 {
        stroke: #22b573;
      }

      .cls-1, .cls-2, .cls-3, .cls-4 {
        stroke-linecap: round;
        stroke-width: 1.417px;
      }

      .cls-1, .cls-11, .cls-13, .cls-14, .cls-15, .cls-16, .cls-18, .cls-2, .cls-3, .cls-4, .cls-6 {
        stroke-miterlimit: 10;
      }

      .cls-14, .cls-15, .cls-18, .cls-2 {
        stroke: #000;
      }

      .cls-3 {
        stroke: red;
      }

      .cls-4 {
        stroke: #ccc;
      }

      .cls-5 {
        fill: #1a1a1a;
      }

      .cls-6 {
        stroke: #1a1a1a;
        stroke-width: 3.484px;
      }

      .cls-7 {
        fill: #141313;
      }

      .cls-8 {
        fill: #111;
      }

      .cls-9 {
        fill: url(#Безымянный_градиент_54);
      }

      .cls-10 {
        fill: #262626;
      }

      .cls-11 {
        stroke: #fff;
        stroke-width: 1.16px;
        opacity: 0.1;
      }

      .cls-11, .cls-16, .cls-17, .cls-19 {
        isolation: isolate;
      }

      .cls-12 {
        fill: #f4ba64;
      }

      .cls-13 {
        stroke: #e29047;
        stroke-width: 0.425px;
      }

      .cls-14 {
        fill: #161616;
      }

      .cls-14, .cls-15 {
        stroke-width: 0.709px;
      }

      .cls-15 {
        fill: #2d2d2d;
      }

      .cls-16 {
        stroke: #515151;
        stroke-width: 1.417px;
      }

      .cls-16, .cls-17 {
        opacity: 0.28;
      }

      .cls-17 {
        fill: #515151;
      }

      .cls-18 {
        stroke-width: 0.992px;
      }

      .cls-19 {
        fill: url(#Безымянный_градиент_28);
      }
    </style>
    <linearGradient id="Безымянный_градиент_54" data-name="Безымянный градиент 54" x1="231.16" y1="126.675" x2="277.902" y2="45.716" gradientUnits="userSpaceOnUse">
      <stop offset="0.047" stop-color="#1a1a1a" stop-opacity="0.2"/>
      <stop offset="0.277" stop-color="#1e1e1e" stop-opacity="0.208"/>
      <stop offset="0.365" stop-color="#2e2e2e" stop-opacity="0.238"/>
      <stop offset="0.428" stop-color="#4a4a4a" stop-opacity="0.289"/>
      <stop offset="0.479" stop-color="#707070" stop-opacity="0.361"/>
      <stop offset="0.494" stop-color="gray" stop-opacity="0.39"/>
      <stop offset="0.752" stop-color="#515151" stop-opacity="0.395"/>
      <stop offset="1" stop-color="#1a1a1a" stop-opacity="0.4"/>
    </linearGradient>
    <linearGradient id="Безымянный_градиент_28" data-name="Безымянный градиент 28" x1="126.497" y1="111.739" x2="126.497" y2="60.655" gradientUnits="userSpaceOnUse">
      <stop offset="0.008" stop-opacity="0.5"/>
      <stop offset="0.262" stop-color="#050505" stop-opacity="0.492"/>
      <stop offset="0.353" stop-color="#161616" stop-opacity="0.462"/>
      <stop offset="0.417" stop-color="#353535" stop-opacity="0.411"/>
      <stop offset="0.439" stop-color="#444" stop-opacity="0.386"/>
      <stop offset="1" stop-color="#f2f2f2" stop-opacity="0.1"/>
    </linearGradient>
  </defs>
  <title>lidar-tfmini-plus</title>
  <g id="bottom">
    <g>
      <g id="Слой_4" data-name="Слой 4">
        <path class="cls-1" d="M359.7,80.614c.791-20.831-7.009-11.682-5.665-33.474"/>
        <path class="cls-2" d="M360.705,80.686c-.791-20.831,6.25-11.85,4.906-33.642"/>
        <path class="cls-3" d="M360.921,81.275c-.1-24.524,18.215-10.9,16.775-35.239"/>
        <path class="cls-4" d="M359.625,81.131c.1-24.524-18.829-10.759-17.389-35.095"/>
        <path class="cls-5" d="M344.956,50.16H339.4c-.422,0-.763-.648-.763-1.447V11.922c0-.8.341-1.447.763-1.447h5.56c.422,0,.763.648.763,1.447V48.713C345.719,49.512,345.378,50.16,344.956,50.16Z"/>
        <path class="cls-5" d="M356.737,50.16h-5.56c-.422,0-.763-.648-.763-1.447V11.922c0-.8.341-1.447.763-1.447h5.56c.421,0,.763.648.763,1.447V48.713C357.5,49.512,357.158,50.16,356.737,50.16Z"/>
        <path class="cls-5" d="M368.518,50.16h-5.56c-.422,0-.764-.648-.764-1.447V11.922c0-.8.342-1.447.764-1.447h5.56c.421,0,.763.648.763,1.447V48.713C369.281,49.512,368.939,50.16,368.518,50.16Z"/>
        <path class="cls-5" d="M380.3,50.16h-5.56c-.422,0-.764-.648-.764-1.447V11.922c0-.8.342-1.447.764-1.447h5.56c.421,0,.763.648.763,1.447V48.713C381.062,49.512,380.72,50.16,380.3,50.16Z"/>
      </g>
      <g id="Слой_3" data-name="Слой 3">
        <path class="cls-6" d="M254.588,42.476c-.6-6.9.494-19.428,2.466-25.529,2.187-6.766,7.936-15.928,24.064-15.16,26.4.628,30.72,16.9,28.378,79.732.028,37.165,52.181,34.793,50.757.386-.006-.153-.013-2.825-.021-2.979"/>
      </g>
    </g>
    <rect class="cls-7" x="248.337" y="58.085" width="12.3" height="2.4"/>
    <path class="cls-8" d="M304.143,62.1v48.273h0a2.073,2.073,0,0,1-2.113,2.033H206.944a2.075,2.075,0,0,1-2.013-2.134V62.1c0-.034,0-.068,0-.1h0a2.073,2.073,0,0,1,2.113-2.033H302.03A2.136,2.136,0,0,1,304.143,62.1Z"/>
    <path class="cls-9" d="M304.143,62.1v48.273h0a2.073,2.073,0,0,1-2.113,2.033H206.944a2.075,2.075,0,0,1-2.013-2.134V62.1c0-.034,0-.068,0-.1h0a2.073,2.073,0,0,1,2.113-2.033H302.03A2.136,2.136,0,0,1,304.143,62.1Z"/>
    <rect class="cls-10" x="207.766" y="62.799" width="93.542" height="46.771"/>
    <polygon id="polygon83480" class="cls-10" points="257.936 47.785 256.636 45.185 256.636 41.485 252.336 41.485 252.336 45.185 251.036 47.785 251.036 58.185 257.936 58.185 257.936 47.785"/>
    <polyline id="polyline83754" class="cls-11" points="255.536 42.785 255.536 45.585 256.836 48.185 256.836 56.885"/>
    <g>
      <g>
        <path class="cls-12" d="M213.505,64.018h0a.548.548,0,0,0,.926.248h0a.548.548,0,0,1,.921.532h0a.548.548,0,0,0,.678.678h0a.548.548,0,0,1,.531.921h0a.548.548,0,0,0,.249.926h0a.549.549,0,0,1,0,1.064h0a.548.548,0,0,0-.249.926h0a.548.548,0,0,1-.531.921h0a.548.548,0,0,0-.678.678h0a.548.548,0,0,1-.921.532h0a.548.548,0,0,0-.926.248h0a.549.549,0,0,1-1.064,0h0a.548.548,0,0,0-.926-.248h0a.548.548,0,0,1-.921-.532h0a.548.548,0,0,0-.678-.678h0a.548.548,0,0,1-.532-.921h0a.548.548,0,0,0-.248-.926h0a.548.548,0,0,1,0-1.064h0a.549.549,0,0,0,.248-.926h0a.548.548,0,0,1,.532-.921h0a.548.548,0,0,0,.678-.678h0a.548.548,0,0,1,.921-.532h0a.549.549,0,0,0,.926-.248h0A.548.548,0,0,1,213.505,64.018Z"/>
        <circle class="cls-13" cx="212.973" cy="67.855" r="2.126"/>
      </g>
      <g>
        <path class="cls-12" d="M297.105,101.018h0a.548.548,0,0,0,.926.248h0a.548.548,0,0,1,.921.532h0a.548.548,0,0,0,.678.678h0a.548.548,0,0,1,.532.921h0a.548.548,0,0,0,.248.926h0a.549.549,0,0,1,0,1.064h0a.548.548,0,0,0-.248.926h0a.548.548,0,0,1-.532.921h0a.548.548,0,0,0-.678.678h0a.548.548,0,0,1-.921.532h0a.548.548,0,0,0-.926.248h0a.549.549,0,0,1-1.064,0h0a.548.548,0,0,0-.926-.248h0a.548.548,0,0,1-.921-.532h0a.548.548,0,0,0-.678-.678h0a.548.548,0,0,1-.532-.921h0a.548.548,0,0,0-.248-.926h0a.548.548,0,0,1,0-1.064h0a.548.548,0,0,0,.248-.926h0a.548.548,0,0,1,.532-.921h0a.548.548,0,0,0,.678-.678h0a.548.548,0,0,1,.921-.532h0a.548.548,0,0,0,.926-.248h0A.548.548,0,0,1,297.105,101.018Z"/>
        <circle class="cls-13" cx="296.573" cy="104.855" r="2.126"/>
      </g>
    </g>
  </g>
  <g id="top">
    <g>
      <g id="Слой_4-2" data-name="Слой 4">
        <path class="cls-1" d="M21.365,80.614c-.791-20.831,7.009-11.682,5.665-33.474"/>
        <path class="cls-2" d="M20.357,80.686c.791-20.831-6.25-11.85-4.906-33.642"/>
        <path class="cls-3" d="M20.141,81.275c.1-24.524-18.215-10.9-16.775-35.239"/>
        <path class="cls-4" d="M21.437,81.131c-.1-24.524,18.828-10.759,17.388-35.095"/>
        <path class="cls-5" d="M36.106,50.16h5.56c.422,0,.763-.648.763-1.447V11.922c0-.8-.341-1.447-.763-1.447h-5.56c-.422,0-.763.648-.763,1.447V48.713C35.343,49.512,35.684,50.16,36.106,50.16Z"/>
        <path class="cls-5" d="M24.325,50.16h5.56c.422,0,.763-.648.763-1.447V11.922c0-.8-.341-1.447-.763-1.447h-5.56c-.422,0-.763.648-.763,1.447V48.713C23.562,49.512,23.9,50.16,24.325,50.16Z"/>
        <path class="cls-5" d="M12.544,50.16H18.1c.422,0,.764-.648.764-1.447V11.922c0-.8-.342-1.447-.764-1.447h-5.56c-.421,0-.763.648-.763,1.447V48.713C11.781,49.512,12.123,50.16,12.544,50.16Z"/>
        <path class="cls-5" d="M.763,50.16h5.56c.422,0,.764-.648.764-1.447V11.922c0-.8-.342-1.447-.764-1.447H.763c-.421,0-.763.648-.763,1.447V48.713C0,49.512.342,50.16.763,50.16Z"/>
      </g>
      <g id="Слой_3-2" data-name="Слой 3">
        <path class="cls-6" d="M126.473,42.476c.6-6.9-.493-19.428-2.465-25.529-2.188-6.766-7.936-15.928-24.064-15.16-26.4.628-30.72,16.9-28.378,79.732-.029,37.165-52.181,34.793-50.758.386.007-.153.014-2.825.022-2.979"/>
      </g>
    </g>
    <rect class="cls-7" x="120.437" y="58.085" width="12.3" height="2.4"/>
    <path class="cls-14" d="M79.044,59.965h94.985A2.072,2.072,0,0,1,176.142,62h0c0,.033,0,.067,0,.1v48.172a2.075,2.075,0,0,1-2.012,2.134H79.044a2.073,2.073,0,0,1-2.113-2.033h0c0-.034,0-.068,0-.1V62.1A2.136,2.136,0,0,1,79.044,59.965Z"/>
    <path class="cls-15" d="M77.737,98.285v-24.2c0-3.1,10.5-13.7,13.6-13.7h70.6c3.1,0,13.6,10.6,13.6,13.7v24.2c0,3.1-10.5,13.7-13.6,13.7h-70.6C88.237,111.985,77.737,101.385,77.737,98.285Z"/>
    <path class="cls-16" d="M79.017,97.968V74.4c0-3.019,10.225-13.342,13.244-13.342h68.752c3.019,0,13.244,10.323,13.244,13.342V97.968c0,3.019-10.225,13.341-13.244,13.341H92.261C89.242,111.31,79.017,100.987,79.017,97.968Z"/>
    <rect class="cls-17" x="125.573" y="60.185" width="2.127" height="51.6"/>
    <line class="cls-18" x1="126.637" y1="60.185" x2="126.637" y2="111.785"/>
    <polygon id="polygon83480-2" data-name="polygon83480" class="cls-10" points="123.138 58.185 130.038 58.185 130.038 47.785 128.738 45.185 128.738 41.485 124.438 41.485 124.438 45.185 123.138 47.785 123.138 58.185"/>
    <polyline id="polyline83754-2" data-name="polyline83754" class="cls-11" points="124.238 56.885 124.238 48.185 125.538 45.585 125.538 42.785"/>
    <path class="cls-19" d="M77.969,98.176V74.218c0-3.069,10.42-13.563,13.5-13.563h70.063c3.077,0,13.5,10.494,13.5,13.563V98.176c0,3.069-10.42,13.563-13.5,13.563H91.465C88.389,111.739,77.969,101.245,77.969,98.176Z"/>
  </g>
</svg>
