<svg id="_lidar-tf02" data-name=" lidar-tf02" xmlns="http://www.w3.org/2000/svg" xmlns:xlink="http://www.w3.org/1999/xlink" width="242.1mm" height="84.738mm" viewBox="0 0 686.268 240.203">
  <defs>
    <style>
      .cls-1, .cls-13, .cls-2, .cls-3, .cls-4, .cls-6 {
        fill: none;
      }

      .cls-1 {
        stroke: #22b573;
      }

      .cls-1, .cls-2, .cls-3, .cls-4 {
        stroke-linecap: round;
        stroke-width: 2.835px;
      }

      .cls-1, .cls-13, .cls-2, .cls-22, .cls-3, .cls-4, .cls-6, .cls-8 {
        stroke-miterlimit: 10;
      }

      .cls-2, .cls-8 {
        stroke: #000;
      }

      .cls-3 {
        stroke: red;
      }

      .cls-4 {
        stroke: #ccc;
      }

      .cls-5 {
        fill: #1a1a1a;
      }

      .cls-6 {
        stroke: #242424;
        stroke-width: 11.339px;
      }

      .cls-7 {
        fill: #232323;
      }

      .cls-8 {
        fill: #494848;
        stroke-width: 0.71px;
      }

      .cls-9 {
        fill: #d1d3d4;
      }

      .cls-10 {
        fill: #2d2d2d;
      }

      .cls-11 {
        fill: #303030;
      }

      .cls-12 {
        fill: url(#Безымянный_градиент_219);
      }

      .cls-13 {
        stroke: #191919;
        stroke-width: 2.126px;
      }

      .cls-14, .cls-22 {
        fill: #191919;
      }

      .cls-15 {
        fill: url(#Безымянный_градиент_219-2);
      }

      .cls-16 {
        fill: url(#Безымянный_градиент_219-3);
      }

      .cls-17 {
        fill: url(#Безымянный_градиент_219-4);
      }

      .cls-18 {
        fill: #323232;
      }

      .cls-19 {
        fill: url(#Безымянный_градиент_78);
      }

      .cls-20 {
        fill: url(#Безымянный_градиент_2);
      }

      .cls-21 {
        fill: #666;
      }

      .cls-22 {
        stroke: #4d4d4d;
        stroke-width: 0.425px;
      }

      .cls-23 {
        fill: #494946;
      }
    </style>
    <radialGradient id="Безымянный_градиент_219" data-name="Безымянный градиент 219" cx="501.053" cy="34.72" r="5.004" gradientTransform="translate(-14.067 -26.305) scale(1.067)" gradientUnits="userSpaceOnUse">
      <stop offset="0" stop-color="#4d4d4d"/>
      <stop offset="0.189" stop-color="#525252"/>
      <stop offset="0.42" stop-color="#616161"/>
      <stop offset="0.478" stop-color="#666"/>
      <stop offset="0.697" stop-color="#535353"/>
      <stop offset="1" stop-color="#333"/>
    </radialGradient>
    <radialGradient id="Безымянный_градиент_219-2" cx="380.243" cy="113.283" r="5.004" xlink:href="#Безымянный_градиент_219"/>
    <radialGradient id="Безымянный_градиент_219-3" cx="380.243" cy="34.72" r="5.004" xlink:href="#Безымянный_градиент_219"/>
    <radialGradient id="Безымянный_градиент_219-4" cx="501.053" cy="113.283" r="5.004" xlink:href="#Безымянный_градиент_219"/>
    <linearGradient id="Безымянный_градиент_78" data-name="Безымянный градиент 78" x1="308.307" y1="52.455" x2="329.807" y2="52.455" gradientUnits="userSpaceOnUse">
      <stop offset="0" stop-opacity="0.2"/>
      <stop offset="0.186" stop-color="#151515" stop-opacity="0.237"/>
      <stop offset="0.481" stop-color="#4d4d4f" stop-opacity="0.338"/>
      <stop offset="0.628" stop-color="#706f72" stop-opacity="0.4"/>
      <stop offset="0.926" stop-color="#2d2c2d" stop-opacity="0.635"/>
      <stop offset="0.997" stop-color="#1a1a1a" stop-opacity="0.7"/>
    </linearGradient>
    <linearGradient id="Безымянный_градиент_2" data-name="Безымянный градиент 2" x1="195.465" y1="52.503" x2="216.965" y2="52.503" gradientTransform="matrix(-1, 0, 0, 1, 350.68, 0)" gradientUnits="userSpaceOnUse">
      <stop offset="0.003" stop-color="#1a1a1a" stop-opacity="0.7"/>
      <stop offset="0.074" stop-color="#2d2c2d" stop-opacity="0.635"/>
      <stop offset="0.372" stop-color="#706f72" stop-opacity="0.4"/>
      <stop offset="0.519" stop-color="#4d4d4f" stop-opacity="0.338"/>
      <stop offset="0.814" stop-color="#151515" stop-opacity="0.237"/>
      <stop offset="1" stop-opacity="0.2"/>
    </linearGradient>
  </defs>
  <title>lidar-tf02</title>
  <g id="bottom">
    <g>
      <g id="Слой_4" data-name="Слой 4">
        <path class="cls-1" d="M664.3,71.56c.791,20.831-6.406,11.708-5.062,33.5"/>
        <path class="cls-2" d="M666.343,71.46c-.791,20.831,5.819,11.9,4.475,33.7"/>
        <path class="cls-3" d="M668.312,70.695c-.1,24.525,16.031,11.133,14.591,35.469"/>
        <path class="cls-4" d="M662.033,70.695c.1,24.525-16.03,11.133-14.59,35.469"/>
        <path class="cls-5" d="M650.163,102.04H644.6c-.421,0-.763.648-.763,1.447v36.791c0,.8.342,1.447.763,1.447h5.561c.421,0,.763-.648.763-1.447V103.487C650.926,102.688,650.584,102.04,650.163,102.04Z"/>
        <path class="cls-5" d="M661.943,102.04h-5.56c-.421,0-.763.648-.763,1.447v36.791c0,.8.342,1.447.763,1.447h5.56c.422,0,.764-.648.764-1.447V103.487C662.707,102.688,662.365,102.04,661.943,102.04Z"/>
        <path class="cls-5" d="M673.724,102.04h-5.56c-.421,0-.763.648-.763,1.447v36.791c0,.8.342,1.447.763,1.447h5.56c.422,0,.764-.648.764-1.447V103.487C674.488,102.688,674.146,102.04,673.724,102.04Z"/>
        <path class="cls-5" d="M685.505,102.04h-5.56c-.422,0-.763.648-.763,1.447v36.791c0,.8.341,1.447.763,1.447h5.56c.422,0,.763-.648.763-1.447V103.487C686.268,102.688,685.927,102.04,685.505,102.04Z"/>
      </g>
      <g id="Слой_3" data-name="Слой 3">
        <path class="cls-6" d="M455.33,150.66c-1.192,13.7.941,38.587,4.9,50.688,4.2,12.845,17.2,34.024,52.626,33.16,52.422-1.246,57.888-39.744,51.5-161.368.057-73.791,103.607-69.081,100.779-.766-.012.3-.027,5.608-.043,5.914"/>
      </g>
    </g>
    <g>
      <path id="rect5420" class="cls-7" d="M446.645,151.592v-27.66a3.571,3.571,0,0,1,3.75-3.35h11.19a3.56,3.56,0,0,1,3.74,3.35v27.66a3.569,3.569,0,0,1-3.74,3.36H450.4A3.58,3.58,0,0,1,446.645,151.592Z"/>
      <path class="cls-8" d="M459.115,147.642"/>
      <path id="path7753-6-5-10" class="cls-9" d="M448.315,130.052h3.9v-1.57h-3.9Z"/>
      <path id="path7753-6-5-4-7" class="cls-9" d="M448.315,134.432h3.9v-1.57h-3.9Z"/>
      <path id="path7753-6-5-48-5" class="cls-9" d="M448.315,138.782h3.9v-1.54h-3.9Z"/>
      <path id="path7753-6-5-8-8" class="cls-9" d="M448.315,143.192h3.9v-1.57h-3.9Z"/>
      <path id="path7753-6-5-41-2" class="cls-9" d="M448.315,147.572h3.9V146h-3.9Z"/>
      <path id="path7753-6-5-3-0" class="cls-9" d="M448.315,151.952h3.9v-1.57h-3.9Z"/>
      <path id="path7753-6-5-1-3" class="cls-9" d="M459.711,130.052h3.814v-1.57h-3.814Z"/>
      <path id="path7753-6-5-4-8-3" class="cls-9" d="M459.711,134.432h3.814v-1.57h-3.814Z"/>
      <path id="path7753-6-5-48-1-0" class="cls-9" d="M459.711,138.782h3.814v-1.54h-3.814Z"/>
      <path id="path7753-6-5-8-6-0" class="cls-9" d="M459.711,143.192h3.814v-1.57h-3.814Z"/>
      <path id="path7753-6-5-41-0-0" class="cls-9" d="M459.711,147.572h3.814V146h-3.814Z"/>
      <path id="path7753-6-5-3-8-1" class="cls-9" d="M459.711,151.952h3.814v-1.57h-3.814Z"/>
    </g>
    <rect class="cls-10" x="440.415" y="103.122" width="31.18" height="20.96"/>
    <polygon class="cls-10" points="379.498 94.36 389.698 104.89 522.318 104.89 532.568 94.36 532.568 10.54 522.318 0 389.698 0 379.498 10.54 379.498 94.36"/>
    <g>
      <rect class="cls-11" x="532.568" y="29.39" width="0.1" height="3.12"/>
      <rect class="cls-11" x="532.568" y="40.14" width="0.1" height="3.12"/>
      <rect class="cls-11" x="532.568" y="50.89" width="0.1" height="3.12"/>
      <rect class="cls-11" x="532.568" y="61.64" width="0.1" height="3.12"/>
      <rect class="cls-11" x="532.568" y="72.39" width="0.1" height="3.12"/>
    </g>
    <g>
      <g>
        <rect class="cls-5" x="513.334" y="3.617" width="14.112" height="14.112" rx="7.056"/>
        <g>
          <circle class="cls-5" cx="520.39" cy="10.673" r="5.712"/>
          <circle class="cls-12" cx="520.39" cy="10.73" r="5.337"/>
          <line class="cls-13" x1="516.582" y1="10.673" x2="524.198" y2="10.673"/>
          <line class="cls-13" x1="520.39" y1="14.481" x2="520.39" y2="6.865"/>
        </g>
      </g>
      <g>
        <rect class="cls-5" x="384.47" y="87.417" width="14.112" height="14.112" rx="7.056"/>
        <g>
          <circle class="cls-14" cx="391.526" cy="94.473" r="5.712"/>
          <circle class="cls-15" cx="391.526" cy="94.53" r="5.337"/>
          <line class="cls-13" x1="387.718" y1="94.473" x2="395.334" y2="94.473"/>
          <line class="cls-13" x1="391.526" y1="98.281" x2="391.526" y2="90.665"/>
        </g>
      </g>
      <g>
        <rect class="cls-5" x="384.47" y="3.617" width="14.112" height="14.112" rx="7.056"/>
        <g>
          <circle class="cls-14" cx="391.526" cy="10.673" r="5.712"/>
          <circle class="cls-16" cx="391.526" cy="10.73" r="5.337"/>
          <line class="cls-13" x1="387.718" y1="10.673" x2="395.334" y2="10.673"/>
          <line class="cls-13" x1="391.526" y1="14.481" x2="391.526" y2="6.865"/>
        </g>
      </g>
      <g>
        <rect class="cls-5" x="513.334" y="87.417" width="14.112" height="14.112" rx="7.056"/>
        <g>
          <circle class="cls-14" cx="520.39" cy="94.473" r="5.712"/>
          <circle class="cls-17" cx="520.39" cy="94.53" r="5.337"/>
          <line class="cls-13" x1="516.582" y1="94.473" x2="524.198" y2="94.473"/>
          <line class="cls-13" x1="520.39" y1="98.281" x2="520.39" y2="90.665"/>
        </g>
      </g>
    </g>
    <g>
      <path class="cls-10" d="M542.637,43.03l-10.05-14.46-1.719.167.153,47.511,1.566.092,10.05-13.8c4-.85,6.71-1.78,8.52-3.24s2.68-3.49,2.93-6.52C553.587,45.84,549.587,43.84,542.637,43.03Zm4.71,12.43a4.273,4.273,0,1,1,1.24-3.01A4.272,4.272,0,0,1,547.347,55.46Z"/>
      <path class="cls-10" d="M358,52.828c.25,3.03,1.12,5.06,2.93,6.52s4.52,2.39,8.52,3.24l10.05,13.8,1.252.248-.1-48.192-1.156.174-10.05,14.46C362.5,43.888,358.5,45.888,358,52.828Zm5.5-.33a4.234,4.234,0,1,1,1.24,3.01A4.248,4.248,0,0,1,363.5,52.5Z"/>
    </g>
  </g>
  <g id="top">
    <g>
      <g id="Слой_4-2" data-name="Слой 4">
        <path class="cls-1" d="M21.968,71.56c-.791,20.831,6.406,11.708,5.062,33.5"/>
        <path class="cls-2" d="M19.926,71.46c.791,20.831-5.819,11.9-4.475,33.7"/>
        <path class="cls-3" d="M17.956,70.695c.1,24.525-16.03,11.133-14.59,35.469"/>
        <path class="cls-4" d="M24.235,70.695c-.1,24.525,16.03,11.133,14.59,35.469"/>
        <path class="cls-5" d="M36.106,102.04h5.56c.422,0,.763.648.763,1.447v36.791c0,.8-.341,1.447-.763,1.447h-5.56c-.422,0-.763-.648-.763-1.447V103.487C35.343,102.688,35.684,102.04,36.106,102.04Z"/>
        <path class="cls-5" d="M24.325,102.04h5.56c.422,0,.763.648.763,1.447v36.791c0,.8-.341,1.447-.763,1.447h-5.56c-.422,0-.763-.648-.763-1.447V103.487C23.562,102.688,23.9,102.04,24.325,102.04Z"/>
        <path class="cls-5" d="M12.544,102.04H18.1c.422,0,.764.648.764,1.447v36.791c0,.8-.342,1.447-.764,1.447h-5.56c-.421,0-.763-.648-.763-1.447V103.487C11.781,102.688,12.123,102.04,12.544,102.04Z"/>
        <path class="cls-5" d="M.763,102.04h5.56c.422,0,.764.648.764,1.447v36.791c0,.8-.342,1.447-.764,1.447H.763c-.421,0-.763-.648-.763-1.447V103.487C0,102.688.342,102.04.763,102.04Z"/>
      </g>
      <g id="Слой_3-2" data-name="Слой 3">
        <path class="cls-6" d="M230.939,150.66c1.191,13.7-.942,38.587-4.9,50.688-4.2,12.845-17.2,34.024-52.627,33.16-52.422-1.246-57.888-39.744-51.5-161.368C121.863-.651,18.314,4.059,21.141,72.374c.013.3.027,5.608.044,5.914"/>
      </g>
    </g>
    <g>
      <path id="rect5420-2" data-name="rect5420" class="cls-7" d="M237.419,154.952h-11.19a3.57,3.57,0,0,1-3.74-3.36v-27.66a3.56,3.56,0,0,1,3.74-3.35h11.19a3.57,3.57,0,0,1,3.75,3.35v27.66A3.579,3.579,0,0,1,237.419,154.952Z"/>
      <path class="cls-8" d="M228.7,147.642"/>
      <path id="path7753-6-5-10-2" data-name="path7753-6-5-10" class="cls-9" d="M239.5,128.482h-3.9v1.57h3.9Z"/>
      <path id="path7753-6-5-4-7-2" data-name="path7753-6-5-4-7" class="cls-9" d="M239.5,132.862h-3.9v1.57h3.9Z"/>
      <path id="path7753-6-5-48-5-2" data-name="path7753-6-5-48-5" class="cls-9" d="M239.5,137.242h-3.9v1.54h3.9Z"/>
      <path id="path7753-6-5-8-8-2" data-name="path7753-6-5-8-8" class="cls-9" d="M239.5,141.622h-3.9v1.57h3.9Z"/>
      <path id="path7753-6-5-41-2-2" data-name="path7753-6-5-41-2" class="cls-9" d="M239.5,146h-3.9v1.57h3.9Z"/>
      <path id="path7753-6-5-3-0-2" data-name="path7753-6-5-3-0" class="cls-9" d="M239.5,150.382h-3.9v1.57h3.9Z"/>
      <path id="path7753-6-5-1-3-2" data-name="path7753-6-5-1-3" class="cls-9" d="M228.1,128.482h-3.814v1.57H228.1Z"/>
      <path id="path7753-6-5-4-8-3-2" data-name="path7753-6-5-4-8-3" class="cls-9" d="M228.1,132.862h-3.814v1.57H228.1Z"/>
      <path id="path7753-6-5-48-1-0-2" data-name="path7753-6-5-48-1-0" class="cls-9" d="M228.1,137.242h-3.814v1.54H228.1Z"/>
      <path id="path7753-6-5-8-6-0-2" data-name="path7753-6-5-8-6-0" class="cls-9" d="M228.1,141.622h-3.814v1.57H228.1Z"/>
      <path id="path7753-6-5-41-0-0-2" data-name="path7753-6-5-41-0-0" class="cls-9" d="M228.1,146h-3.814v1.57H228.1Z"/>
      <path id="path7753-6-5-3-8-1-2" data-name="path7753-6-5-3-8-1" class="cls-9" d="M228.1,150.382h-3.814v1.57H228.1Z"/>
    </g>
    <rect class="cls-18" x="216.219" y="103.122" width="31.18" height="20.96"/>
    <rect class="cls-10" x="155.211" y="28.164" width="153.288" height="48.576"/>
    <g>
      <path class="cls-10" d="M318.357,43.03l-10.05-14.46V76.34l10.05-13.8c4-.85,6.71-1.78,8.52-3.24s2.68-3.49,2.93-6.52C329.307,45.84,325.307,43.84,318.357,43.03Zm4.71,12.43a4.273,4.273,0,1,1,1.24-3.01A4.272,4.272,0,0,1,323.067,55.46Z"/>
      <path class="cls-19" d="M318.357,43.03l-10.05-14.46V76.34l10.05-13.8c4-.85,6.71-1.78,8.52-3.24s2.68-3.49,2.93-6.52C329.307,45.84,325.307,43.84,318.357,43.03Zm4.71,12.43a4.273,4.273,0,1,1,1.24-3.01A4.272,4.272,0,0,1,323.067,55.46Z"/>
    </g>
    <g>
      <path class="cls-10" d="M133.715,52.828c.25,3.03,1.12,5.06,2.93,6.52s4.52,2.39,8.52,3.24l10.05,13.8V28.618l-10.05,14.46C138.215,43.888,134.215,45.888,133.715,52.828Zm5.5-.33a4.234,4.234,0,1,1,1.24,3.01A4.248,4.248,0,0,1,139.215,52.5Z"/>
      <path class="cls-20" d="M133.715,52.828c.25,3.03,1.12,5.06,2.93,6.52s4.52,2.39,8.52,3.24l10.05,13.8V28.618l-10.05,14.46C138.215,43.888,134.215,45.888,133.715,52.828Zm5.5-.33a4.234,4.234,0,1,1,1.24,3.01A4.248,4.248,0,0,1,139.215,52.5Z"/>
    </g>
    <polygon class="cls-21" points="305.517 29.39 305.517 32.51 308.317 32.51 308.317 40.14 305.517 40.14 305.517 43.26 308.317 43.26 308.317 50.89 305.517 50.89 305.517 54.01 308.317 54.01 308.317 61.64 305.517 61.64 305.517 64.76 308.317 64.76 308.317 72.39 305.517 72.39 305.517 75.51 308.317 75.51 308.317 94.36 298.117 104.89 165.497 104.89 155.247 94.36 155.247 75.51 157.897 75.51 157.897 72.39 155.247 72.39 155.247 64.76 157.897 64.76 157.897 61.64 155.247 61.64 155.247 54.01 157.897 54.01 157.897 50.89 155.247 50.89 155.247 43.26 157.897 43.26 157.897 40.14 155.247 40.14 155.247 32.51 157.897 32.51 157.897 29.39 155.247 29.39 155.247 10.54 165.497 0 298.117 0 308.317 10.54 308.317 29.39 305.517 29.39"/>
    <path class="cls-10" d="M167.778,2.846H295.84l9.851,9.952V92.107l-9.851,9.952H167.778l-9.851-9.952v-79.3Z"/>
    <rect class="cls-22" x="220.599" y="13.512" width="77.24" height="77.24" rx="38.15"/>
    <circle class="cls-22" cx="190.309" cy="52.452" r="20.91"/>
    <g>
      <rect class="cls-11" x="157.929" y="29.394" width="2.753" height="3.12"/>
      <rect class="cls-11" x="157.929" y="40.144" width="2.753" height="3.12"/>
      <rect class="cls-11" x="157.929" y="50.894" width="2.753" height="3.12"/>
      <rect class="cls-11" x="157.929" y="61.644" width="2.753" height="3.12"/>
      <rect class="cls-11" x="157.929" y="72.394" width="2.753" height="3.12"/>
    </g>
    <g>
      <rect class="cls-11" x="155.147" y="29.39" width="0.1" height="3.12"/>
      <rect class="cls-11" x="155.147" y="40.14" width="0.1" height="3.12"/>
      <rect class="cls-11" x="155.147" y="50.89" width="0.1" height="3.12"/>
      <rect class="cls-11" x="155.147" y="61.64" width="0.1" height="3.12"/>
      <rect class="cls-11" x="155.147" y="72.39" width="0.1" height="3.12"/>
    </g>
    <g>
      <rect class="cls-23" x="302.937" y="29.394" width="2.802" height="3.12" transform="translate(608.675 61.908) rotate(-180)"/>
      <rect class="cls-23" x="302.937" y="40.144" width="2.802" height="3.12" transform="translate(608.675 83.408) rotate(-180)"/>
      <rect class="cls-23" x="302.937" y="50.894" width="2.802" height="3.12" transform="translate(608.675 104.908) rotate(-180)"/>
      <rect class="cls-23" x="302.937" y="61.644" width="2.802" height="3.12" transform="translate(608.675 126.408) rotate(-180)"/>
      <rect class="cls-23" x="302.937" y="72.394" width="2.802" height="3.12" transform="translate(608.675 147.908) rotate(-180)"/>
    </g>
  </g>
</svg>
