<svg id="lidar-tf02-pro" xmlns="http://www.w3.org/2000/svg" xmlns:xlink="http://www.w3.org/1999/xlink" width="241.747mm" height="79.874mm" viewBox="0 0 685.268 226.415">
  <defs>
    <style>
      .cls-1 {
        fill: #383838;
      }

      .cls-12, .cls-2, .cls-3, .cls-4, .cls-5, .cls-7 {
        fill: none;
      }

      .cls-2 {
        stroke: #22b573;
      }

      .cls-2, .cls-3, .cls-4, .cls-5 {
        stroke-linecap: round;
        stroke-width: 2.835px;
      }

      .cls-12, .cls-17, .cls-2, .cls-26, .cls-3, .cls-4, .cls-5, .cls-7 {
        stroke-miterlimit: 10;
      }

      .cls-3 {
        stroke: #000;
      }

      .cls-4 {
        stroke: red;
      }

      .cls-5 {
        stroke: #ccc;
      }

      .cls-6 {
        fill: #1a1a1a;
      }

      .cls-7 {
        stroke: #242424;
        stroke-width: 11.339px;
      }

      .cls-8 {
        fill: url(#Безымянный_градиент_32);
      }

      .cls-9 {
        fill: url(#Безымянный_градиент_63);
      }

      .cls-10 {
        fill: #141414;
      }

      .cls-11 {
        fill: url(#Безымянный_градиент_209);
      }

      .cls-12 {
        stroke: #191919;
        stroke-width: 2.126px;
      }

      .cls-13, .cls-26 {
        fill: #191919;
      }

      .cls-14 {
        fill: url(#Безымянный_градиент_216);
      }

      .cls-15 {
        fill: url(#Безымянный_градиент_213);
      }

      .cls-16 {
        fill: url(#Безымянный_градиент_219);
      }

      .cls-17 {
        fill: #3a3a3a;
        stroke: #1a1a1a;
        stroke-width: 2.126px;
      }

      .cls-18 {
        fill: url(#Безымянный_градиент_81);
      }

      .cls-19 {
        fill: url(#Безымянный_градиент_79);
      }

      .cls-20 {
        fill: #323232;
      }

      .cls-21 {
        fill: url(#Безымянный_градиент_78);
      }

      .cls-22 {
        fill: url(#Безымянный_градиент_63-2);
      }

      .cls-23 {
        fill: url(#Безымянный_градиент_32-2);
      }

      .cls-24 {
        fill: #666;
      }

      .cls-25 {
        fill: #2d2d2d;
      }

      .cls-26 {
        stroke: #4d4d4d;
        stroke-width: 0.425px;
      }

      .cls-27 {
        fill: #3e3e3e;
      }

      .cls-28 {
        fill: #303030;
      }

      .cls-29 {
        fill: #494946;
      }
    </style>
    <linearGradient id="Безымянный_градиент_32" data-name="Безымянный градиент 32" x1="437.07" y1="116.198" x2="473.637" y2="116.198" gradientUnits="userSpaceOnUse">
      <stop offset="0.003" stop-color="#1a1a1a" stop-opacity="0.5"/>
      <stop offset="0.061" stop-color="#fff" stop-opacity="0.3"/>
      <stop offset="0.095" stop-color="#d2d2d3" stop-opacity="0.269"/>
      <stop offset="0.143" stop-color="#a6a5a7" stop-opacity="0.238"/>
      <stop offset="0.204" stop-color="#878688" stop-opacity="0.216"/>
      <stop offset="0.288" stop-color="#757477" stop-opacity="0.203"/>
      <stop offset="0.522" stop-color="#706f72" stop-opacity="0.2"/>
      <stop offset="0.733" stop-color="#757477" stop-opacity="0.204"/>
      <stop offset="0.809" stop-color="#868688" stop-opacity="0.217"/>
      <stop offset="0.863" stop-color="#a5a4a6" stop-opacity="0.241"/>
      <stop offset="0.906" stop-color="#d0d0d1" stop-opacity="0.274"/>
      <stop offset="0.93" stop-color="#f2f2f2" stop-opacity="0.3"/>
      <stop offset="1" stop-opacity="0.5"/>
    </linearGradient>
    <linearGradient id="Безымянный_градиент_63" data-name="Безымянный градиент 63" x1="445.432" y1="130.202" x2="465.275" y2="130.202" gradientUnits="userSpaceOnUse">
      <stop offset="0.003" stop-color="#1a1a1a" stop-opacity="0.5"/>
      <stop offset="0.522" stop-color="#706f72" stop-opacity="0.2"/>
      <stop offset="0.633" stop-color="#a5a4a6" stop-opacity="0.2"/>
      <stop offset="0.746" stop-color="#f2f2f2" stop-opacity="0.2"/>
      <stop offset="0.814" stop-color="#9e9e9e" stop-opacity="0.2"/>
      <stop offset="0.928" stop-color="#2a2a2a" stop-opacity="0.2"/>
      <stop offset="1" stop-opacity="0.2"/>
    </linearGradient>
    <radialGradient id="Безымянный_градиент_209" data-name="Безымянный градиент 209" cx="503.659" cy="39.279" r="5.004" gradientTransform="translate(-14.067 -26.305) scale(1.067)" gradientUnits="userSpaceOnUse">
      <stop offset="0" stop-color="#4d4d4d"/>
      <stop offset="0.189" stop-color="#525252"/>
      <stop offset="0.42" stop-color="#616161"/>
      <stop offset="0.478" stop-color="#666"/>
      <stop offset="0.697" stop-color="#535353"/>
      <stop offset="1" stop-color="#333"/>
    </radialGradient>
    <radialGradient id="Безымянный_градиент_216" data-name="Безымянный градиент 216" cx="376.729" cy="118.562" r="5.004" xlink:href="#Безымянный_градиент_209"/>
    <radialGradient id="Безымянный_градиент_213" data-name="Безымянный градиент 213" cx="376.594" cy="39.279" r="5.004" xlink:href="#Безымянный_градиент_209"/>
    <radialGradient id="Безымянный_градиент_219" data-name="Безымянный градиент 219" cx="503.659" cy="118.562" r="5.004" xlink:href="#Безымянный_градиент_209"/>
    <linearGradient id="Безымянный_градиент_81" data-name="Безымянный градиент 81" x1="152.851" y1="59.094" x2="309.763" y2="59.094" gradientUnits="userSpaceOnUse">
      <stop offset="0" stop-opacity="0.2"/>
      <stop offset="0.025" stop-color="#151415" stop-opacity="0.237"/>
      <stop offset="0.093" stop-color="#3e3d3f" stop-opacity="0.31"/>
      <stop offset="0.178" stop-color="#5b5a5c" stop-opacity="0.362"/>
      <stop offset="0.298" stop-color="#6b6a6d" stop-opacity="0.392"/>
      <stop offset="0.628" stop-color="#706f72" stop-opacity="0.4"/>
      <stop offset="0.844" stop-color="#6a696c" stop-opacity="0.421"/>
      <stop offset="0.921" stop-color="#555456" stop-opacity="0.495"/>
      <stop offset="0.976" stop-color="#303030" stop-opacity="0.623"/>
      <stop offset="0.997" stop-color="#1a1a1a" stop-opacity="0.7"/>
    </linearGradient>
    <linearGradient id="Безымянный_градиент_79" data-name="Безымянный градиент 79" x1="133.519" y1="58.614" x2="153.429" y2="58.614" gradientUnits="userSpaceOnUse">
      <stop offset="0.003" stop-color="#1a1a1a" stop-opacity="0.7"/>
      <stop offset="0.074" stop-color="#2d2c2d" stop-opacity="0.635"/>
      <stop offset="0.372" stop-color="#706f72" stop-opacity="0.4"/>
      <stop offset="0.519" stop-color="#4d4d4f" stop-opacity="0.338"/>
      <stop offset="0.814" stop-color="#151515" stop-opacity="0.237"/>
      <stop offset="1" stop-opacity="0.2"/>
    </linearGradient>
    <linearGradient id="Безымянный_градиент_78" data-name="Безымянный градиент 78" x1="309.255" y1="58.614" x2="329.165" y2="58.614" gradientUnits="userSpaceOnUse">
      <stop offset="0" stop-opacity="0.2"/>
      <stop offset="0.186" stop-color="#151515" stop-opacity="0.237"/>
      <stop offset="0.481" stop-color="#4d4d4f" stop-opacity="0.338"/>
      <stop offset="0.628" stop-color="#706f72" stop-opacity="0.4"/>
      <stop offset="0.926" stop-color="#2d2c2d" stop-opacity="0.635"/>
      <stop offset="0.997" stop-color="#1a1a1a" stop-opacity="0.7"/>
    </linearGradient>
    <linearGradient id="Безымянный_градиент_63-2" x1="221.432" y1="130.202" x2="241.275" y2="130.202" xlink:href="#Безымянный_градиент_63"/>
    <linearGradient id="Безымянный_градиент_32-2" x1="213.07" y1="116.198" x2="249.637" y2="116.198" xlink:href="#Безымянный_градиент_32"/>
  </defs>
  <title>lidar-tf02-pro</title>
  <g id="bottom">
    <g>
      <path class="cls-1" d="M369.5,45.614a5.481,5.481,0,0,1-3.62,2.61,10.638,10.638,0,0,0-.01,20.78,5.449,5.449,0,0,1,3.61,2.6l7.95,13.94,1.536-.05V31.254l-1.536.43Zm-2.09,17.26a4.25,4.25,0,1,1,4.26-4.26A4.276,4.276,0,0,1,367.409,62.874Z"/>
      <path class="cls-1" d="M533.255,31.684l-1.536-.238V86.358l1.536-.814,7.951-13.94a5.449,5.449,0,0,1,3.61-2.6,10.636,10.636,0,0,0-.01-20.78,5.481,5.481,0,0,1-3.62-2.61Zm5.761,26.93a4.25,4.25,0,1,1,4.26,4.26A4.276,4.276,0,0,1,539.016,58.614Z"/>
    </g>
    <g>
      <g>
        <g id="Слой_4" data-name="Слой 4">
          <path class="cls-2" d="M663.3,57.772c.791,20.831-6.406,11.708-5.062,33.5"/>
          <path class="cls-3" d="M665.343,57.672c-.791,20.832,5.819,11.9,4.475,33.7"/>
          <path class="cls-4" d="M667.312,56.907c-.1,24.525,16.031,11.133,14.591,35.469"/>
          <path class="cls-5" d="M661.033,56.907c.1,24.525-16.03,11.133-14.59,35.469"/>
          <path class="cls-6" d="M649.163,88.252H643.6c-.421,0-.763.648-.763,1.447V126.49c0,.8.342,1.447.763,1.447h5.561c.421,0,.763-.648.763-1.447V89.7C649.926,88.9,649.584,88.252,649.163,88.252Z"/>
          <path class="cls-6" d="M660.943,88.252h-5.56c-.421,0-.763.648-.763,1.447V126.49c0,.8.342,1.447.763,1.447h5.56c.422,0,.764-.648.764-1.447V89.7C661.707,88.9,661.365,88.252,660.943,88.252Z"/>
          <path class="cls-6" d="M672.724,88.252h-5.56c-.421,0-.763.648-.763,1.447V126.49c0,.8.342,1.447.763,1.447h5.56c.422,0,.764-.648.764-1.447V89.7C673.488,88.9,673.146,88.252,672.724,88.252Z"/>
          <path class="cls-6" d="M684.505,88.252h-5.56c-.422,0-.763.648-.763,1.447V126.49c0,.8.341,1.447.763,1.447h5.56c.422,0,.763-.648.763-1.447V89.7C685.268,88.9,684.927,88.252,684.505,88.252Z"/>
        </g>
        <g id="Слой_3" data-name="Слой 3">
          <path class="cls-7" d="M454.33,136.873c-1.192,13.7.941,38.586,4.9,50.688,4.2,12.844,17.2,34.023,52.626,33.159,52.422-1.246,57.888-39.744,51.5-161.367.057-73.791,103.607-69.082,100.779-.767-.012.3-.027,5.608-.043,5.915"/>
        </g>
      </g>
      <g>
        <rect class="cls-1" x="437.07" y="109.82" width="36.567" height="12.756"/>
        <rect class="cls-8" x="437.07" y="109.82" width="36.567" height="12.756"/>
      </g>
      <g>
        <g>
          <rect class="cls-1" x="445.432" y="122.222" width="19.843" height="15.959"/>
          <rect class="cls-9" x="445.432" y="122.222" width="19.843" height="15.959"/>
        </g>
        <g>
          <rect class="cls-6" x="448.931" y="124.682" width="3.277" height="3.216" rx="1.608"/>
          <path class="cls-10" d="M450.539,127.615a1.356,1.356,0,1,1,.061,0Z"/>
          <rect class="cls-6" x="458.499" y="124.682" width="3.277" height="3.216" rx="1.608"/>
          <path class="cls-10" d="M460.107,127.615a1.355,1.355,0,1,1,.062,0Z"/>
        </g>
      </g>
    </g>
    <path class="cls-1" d="M527.433,5.26H383.443l-6.04,6.42V103.6l6.16,6.54h143.76l5.98-6.36V11.49Z"/>
    <g>
      <g>
        <rect class="cls-6" x="516.113" y="8.48" width="14.112" height="14.112" rx="7.056"/>
        <g>
          <circle class="cls-6" cx="523.169" cy="15.536" r="5.712"/>
          <circle class="cls-11" cx="523.169" cy="15.593" r="5.337"/>
          <line class="cls-12" x1="519.361" y1="15.536" x2="526.977" y2="15.536"/>
          <line class="cls-12" x1="523.169" y1="19.344" x2="523.169" y2="11.728"/>
        </g>
      </g>
      <g>
        <rect class="cls-6" x="380.721" y="93.048" width="14.112" height="14.112" rx="7.056"/>
        <g>
          <circle class="cls-13" cx="387.777" cy="100.104" r="5.712"/>
          <circle class="cls-14" cx="387.777" cy="100.161" r="5.337"/>
          <line class="cls-12" x1="383.969" y1="100.104" x2="391.585" y2="100.104"/>
          <line class="cls-12" x1="387.777" y1="103.912" x2="387.777" y2="96.296"/>
        </g>
      </g>
      <g>
        <rect class="cls-6" x="380.577" y="8.48" width="14.112" height="14.112" rx="7.056"/>
        <g>
          <circle class="cls-13" cx="387.633" cy="15.536" r="5.712"/>
          <circle class="cls-15" cx="387.633" cy="15.593" r="5.337"/>
          <line class="cls-12" x1="383.825" y1="15.536" x2="391.441" y2="15.536"/>
          <line class="cls-12" x1="387.633" y1="19.344" x2="387.633" y2="11.728"/>
        </g>
      </g>
      <g>
        <rect class="cls-6" x="516.113" y="93.048" width="14.112" height="14.112" rx="7.056"/>
        <g>
          <circle class="cls-13" cx="523.169" cy="100.104" r="5.712"/>
          <circle class="cls-16" cx="523.169" cy="100.161" r="5.337"/>
          <line class="cls-12" x1="519.361" y1="100.104" x2="526.977" y2="100.104"/>
          <line class="cls-12" x1="523.169" y1="103.912" x2="523.169" y2="96.296"/>
        </g>
      </g>
    </g>
    <path class="cls-17" d="M529.178,32.02V83.43a3.48,3.48,0,0,1-3.48,3.48h-14.45a3.48,3.48,0,0,0-3.48,3.48v12.67a3.48,3.48,0,0,1-3.48,3.48h-97.87a3.48,3.48,0,0,1-3.48-3.48V90.39a3.48,3.48,0,0,0-3.48-3.48h-14.45a3.48,3.48,0,0,1-3.48-3.48V32.02a3.48,3.48,0,0,1,3.48-3.48h14.45a3.48,3.48,0,0,0,3.48-3.48V12.34a3.48,3.48,0,0,1,3.48-3.48h97.87a3.48,3.48,0,0,1,3.48,3.48V25.06a3.48,3.48,0,0,0,3.48,3.48H525.7A3.48,3.48,0,0,1,529.178,32.02Z"/>
  </g>
  <g id="top">
    <g>
      <rect class="cls-1" x="152.851" y="34.518" width="156.912" height="49.152"/>
      <rect class="cls-18" x="152.851" y="34.518" width="156.912" height="49.152"/>
    </g>
    <g>
      <g>
        <path class="cls-1" d="M145.5,45.614a5.481,5.481,0,0,1-3.62,2.61,10.638,10.638,0,0,0-.01,20.78,5.449,5.449,0,0,1,3.61,2.6l7.95,13.94V31.684Zm-2.09,17.26a4.25,4.25,0,1,1,4.26-4.26A4.276,4.276,0,0,1,143.409,62.874Z"/>
        <path class="cls-19" d="M145.5,45.614a5.481,5.481,0,0,1-3.62,2.61,10.638,10.638,0,0,0-.01,20.78,5.449,5.449,0,0,1,3.61,2.6l7.95,13.94V31.684Zm-2.09,17.26a4.25,4.25,0,1,1,4.26-4.26A4.276,4.276,0,0,1,143.409,62.874Z"/>
      </g>
      <g>
        <path class="cls-20" d="M309.255,31.684v53.86l7.95-13.94a5.449,5.449,0,0,1,3.61-2.6,10.636,10.636,0,0,0-.01-20.78,5.481,5.481,0,0,1-3.62-2.61Zm5.76,26.93a4.25,4.25,0,1,1,4.26,4.26A4.276,4.276,0,0,1,315.015,58.614Z"/>
        <path class="cls-21" d="M309.255,31.684v53.86l7.95-13.94a5.449,5.449,0,0,1,3.61-2.6,10.636,10.636,0,0,0-.01-20.78,5.481,5.481,0,0,1-3.62-2.61Zm5.76,26.93a4.25,4.25,0,1,1,4.26,4.26A4.276,4.276,0,0,1,315.015,58.614Z"/>
      </g>
    </g>
    <g>
      <g>
        <g id="Слой_4-2" data-name="Слой 4">
          <path class="cls-2" d="M21.968,57.772c-.791,20.831,6.406,11.708,5.062,33.5"/>
          <path class="cls-3" d="M19.926,57.672c.791,20.832-5.819,11.9-4.475,33.7"/>
          <path class="cls-4" d="M17.956,56.907c.1,24.525-16.03,11.133-14.59,35.469"/>
          <path class="cls-5" d="M24.235,56.907c-.1,24.525,16.03,11.133,14.59,35.469"/>
          <path class="cls-6" d="M36.106,88.252h5.56c.422,0,.763.648.763,1.447V126.49c0,.8-.341,1.447-.763,1.447h-5.56c-.422,0-.763-.648-.763-1.447V89.7C35.343,88.9,35.684,88.252,36.106,88.252Z"/>
          <path class="cls-6" d="M24.325,88.252h5.56c.422,0,.763.648.763,1.447V126.49c0,.8-.341,1.447-.763,1.447h-5.56c-.422,0-.763-.648-.763-1.447V89.7C23.562,88.9,23.9,88.252,24.325,88.252Z"/>
          <path class="cls-6" d="M12.544,88.252H18.1c.422,0,.764.648.764,1.447V126.49c0,.8-.342,1.447-.764,1.447h-5.56c-.421,0-.763-.648-.763-1.447V89.7C11.781,88.9,12.123,88.252,12.544,88.252Z"/>
          <path class="cls-6" d="M.763,88.252h5.56c.422,0,.764.648.764,1.447V126.49c0,.8-.342,1.447-.764,1.447H.763c-.421,0-.763-.648-.763-1.447V89.7C0,88.9.342,88.252.763,88.252Z"/>
        </g>
        <g id="Слой_3-2" data-name="Слой 3">
          <path class="cls-7" d="M230.939,136.873c1.191,13.7-.942,38.586-4.9,50.688-4.2,12.844-17.2,34.023-52.627,33.159-52.422-1.246-57.888-39.744-51.5-161.367-.057-73.791-103.606-69.082-100.779-.767.013.3.027,5.608.044,5.915"/>
        </g>
      </g>
      <g>
        <g>
          <rect class="cls-1" x="221.432" y="122.222" width="19.843" height="15.959"/>
          <rect class="cls-22" x="221.432" y="122.222" width="19.843" height="15.959"/>
        </g>
        <g>
          <rect class="cls-6" x="224.931" y="124.682" width="3.277" height="3.216" rx="1.608"/>
          <path class="cls-10" d="M226.539,127.615a1.356,1.356,0,1,1,.061,0Z"/>
          <rect class="cls-6" x="234.499" y="124.682" width="3.277" height="3.216" rx="1.608"/>
          <path class="cls-10" d="M236.107,127.615a1.356,1.356,0,1,1,.061,0Z"/>
        </g>
      </g>
      <g>
        <rect class="cls-1" x="213.07" y="109.82" width="36.567" height="12.756"/>
        <rect class="cls-23" x="213.07" y="109.82" width="36.567" height="12.756"/>
      </g>
    </g>
    <g>
      <path class="cls-24" d="M303.433,5.26H159.443l-6.04,6.42V35.22h3v3.12h-3v7.63h3v3.12h-3v7.63h3v3.12h-3v7.63h3v3.12h-3v7.63h3v3.12h-3V103.6l6.16,6.54h143.76l5.98-6.36V11.49Zm5.86,76.08h-3V78.22h3Zm0-10.75h-3V67.47h3Zm0-10.75h-3V56.72h3Zm0-10.75h-3V45.97h3Zm0-10.75h-3V35.22h3Z"/>
      <polygon class="cls-25" points="160.788 107.305 156.238 102.475 156.238 12.804 160.668 8.095 302.209 8.095 306.468 12.615 306.468 102.657 302.098 107.305 160.788 107.305"/>
    </g>
    <g>
      <rect class="cls-26" x="173.001" y="26.153" width="56.693" height="64.346" rx="4.82"/>
      <rect class="cls-26" x="233.001" y="26.153" width="56.693" height="64.346" rx="4.82"/>
    </g>
    <rect class="cls-27" x="187.361" y="5.296" width="87.984" height="1.152"/>
    <g>
      <rect class="cls-28" x="156.195" y="35.22" width="2.8" height="3.12"/>
      <rect class="cls-28" x="156.195" y="45.97" width="2.8" height="3.12"/>
      <rect class="cls-28" x="156.195" y="56.72" width="2.8" height="3.12"/>
      <rect class="cls-28" x="156.195" y="67.47" width="2.8" height="3.12"/>
      <rect class="cls-28" x="156.195" y="78.22" width="2.8" height="3.12"/>
    </g>
    <g>
      <rect class="cls-29" x="303.697" y="35.22" width="2.851" height="3.12" transform="translate(610.244 73.561) rotate(-180)"/>
      <rect class="cls-29" x="303.697" y="45.97" width="2.851" height="3.12" transform="translate(610.244 95.061) rotate(-180)"/>
      <rect class="cls-29" x="303.697" y="56.72" width="2.851" height="3.12" transform="translate(610.244 116.561) rotate(-180)"/>
      <rect class="cls-29" x="303.697" y="67.47" width="2.851" height="3.12" transform="translate(610.244 138.061) rotate(-180)"/>
      <rect class="cls-29" x="303.697" y="78.22" width="2.851" height="3.12" transform="translate(610.244 159.561) rotate(-180)"/>
    </g>
  </g>
</svg>
