<svg id="microbit-moisture-sensor" xmlns="http://www.w3.org/2000/svg" width="93.918mm" height="117.827mm" viewBox="0 0 266.223 333.998">
  <defs>
    <style>
      .cls-1, .cls-8, .cls-9 {
        fill: #323232;
      }

      .cls-2 {
        fill: #f2c955;
      }

      .cls-3 {
        fill: #c8bf99;
      }

      .cls-4 {
        fill: #e2b537;
      }

      .cls-5 {
        font-size: 8px;
      }

      .cls-11, .cls-5, .cls-6, .cls-7 {
        fill: #fff;
      }

      .cls-5, .cls-6 {
        font-family: TrebuchetMS, Trebuchet MS;
      }

      .cls-6 {
        font-size: 5px;
      }

      .cls-7 {
        stroke: #323232;
      }

      .cls-10, .cls-12, .cls-19, .cls-7, .cls-8, .cls-9 {
        stroke-miterlimit: 10;
      }

      .cls-10, .cls-12, .cls-19, .cls-8, .cls-9 {
        stroke: #fff;
      }

      .cls-12, .cls-8 {
        stroke-width: 1.417px;
      }

      .cls-10, .cls-9 {
        stroke-width: 0.283px;
      }

      .cls-10, .cls-12, .cls-19 {
        fill: none;
      }

      .cls-13 {
        fill: #d2d1d3;
      }

      .cls-14 {
        fill: #b7b8b9;
      }

      .cls-15 {
        fill: #d7d3d5;
      }

      .cls-16 {
        fill: #242424;
      }

      .cls-17 {
        fill: #b3b3b3;
      }

      .cls-18 {
        fill: gray;
      }

      .cls-19 {
        stroke-width: 0.567px;
      }
    </style>
  </defs>
  <title>microbit-moisture-sensor</title>
  <g id="bottom">
    <path class="cls-1" d="M256.686,117.922h-103.7a2.573,2.573,0,0,0-2.573,2.573v20.367a2.573,2.573,0,0,0,2.573,2.572h3.271l15.983,61.038h.009v8H194.07l1-1.508h19.452l1,1.508h21.827v-8h0l16.064-61.038h3.272a2.572,2.572,0,0,0,2.572-2.572V120.5A2.572,2.572,0,0,0,256.686,117.922Zm-59.046,18.11a1.418,1.418,0,1,1,1.417-1.417A1.422,1.422,0,0,1,197.64,136.032Zm0-6.864a1.418,1.418,0,1,1,1.417-1.418A1.422,1.422,0,0,1,197.64,129.168Zm7.26,6.864a1.418,1.418,0,1,1,1.417-1.417A1.422,1.422,0,0,1,204.9,136.032Zm0-6.864a1.418,1.418,0,1,1,1.417-1.418A1.422,1.422,0,0,1,204.9,129.168Zm7.26,6.864a1.418,1.418,0,1,1,1.417-1.417A1.422,1.422,0,0,1,212.16,136.032Zm0-6.864a1.418,1.418,0,1,1,1.417-1.418A1.422,1.422,0,0,1,212.16,129.168Z"/>
    <g>
      <path class="cls-1" d="M264.426,36.432c-5.568-11.424-19.982-10.246-26.112-9.792-5.184.384-17.3,7.3-17.3,7.3l1.368-3.648a31.2,31.2,0,0,0,1.344-13.44c-.546-4.1-4.8-15.84-15.888-16.32-8.674-.375-14.926,9-17.9,14.592-3.168,5.952-3.072,19.968-3.072,19.968s-2.16-1.776-2.928-2.352a89.894,89.894,0,0,0-9.984-5.424,23.59,23.59,0,0,0-14.592-.864c-7.44,1.824-11.538,12.3-11.76,14.544-1.152,11.664,12.384,18.784,15.456,19.44,3.092.66,17.04,3.312,14.4,3.7S165.882,70.9,165.882,70.9a24.37,24.37,0,0,0-6.413,11.034c-1.539,6.528-.959,12.7.125,15.174a19.967,19.967,0,0,0,9.648,9.408,27.5,27.5,0,0,0,13.584,1.344c3.456-.768,7.575-3.678,9.792-5.376,1.517-1.163,5.952-4.8,5.952-4.8l-.192,21.355H212.97l-.192-25.195s8.064,4.992,10.176,6.336,9.984,2.3,13.632,1.152,5.184-2.3,9.408-6.72,4.224-12.192,3.84-15.936c-1.011-9.859-12.672-15.936-12.672-15.936s6.336-1.728,7.488-2.112,9.408-2.112,12.48-4.032S269.148,46.121,264.426,36.432ZM161.172,44.973a5.811,5.811,0,1,1,5.811-5.811A5.811,5.811,0,0,1,161.172,44.973ZM206.65,18.782a5.811,5.811,0,1,1,5.811-5.811A5.811,5.811,0,0,1,206.65,18.782Zm46.293,28.255a5.811,5.811,0,1,1,5.811-5.811A5.811,5.811,0,0,1,252.943,47.037Z"/>
      <path class="cls-2" d="M149.9,33.744c-2.732,4.363-3.048,6.6-2.85,8.7L157.5,47.8A9.36,9.36,0,0,0,166,31.12l-8.7-4.435C156.858,26.628,153.114,28.608,149.9,33.744Zm15.944,7.8a5.243,5.243,0,1,1-2.288-7.053A5.243,5.243,0,0,1,165.842,41.544Z"/>
      <path class="cls-2" d="M207.09,0c-5.148,0-9.384,3.864-9.8,4.392v9.23a9.36,9.36,0,1,0,18.72,0V3.222C216.01,2.184,212.238,0,207.09,0Zm-.44,18.215a5.244,5.244,0,1,1,5.244-5.244A5.244,5.244,0,0,1,206.65,18.215Z"/>
      <path class="cls-2" d="M257.478,28.689l-9.368,4.494a9.36,9.36,0,1,0,8.5,16.677l9.434-4.832c.182-2.272.749-6.081-1.983-10.444C260.85,29.448,257.928,28.633,257.478,28.689Zm-6.917,7.866a5.243,5.243,0,1,1-2.289,7.052A5.242,5.242,0,0,1,250.561,36.555Z"/>
    </g>
    <g>
      <path class="cls-3" d="M215.52,212.468v113.06l6.55,8.47h8.73l6.55-8.47V212.468Zm7.42,107.09a1.1,1.1,0,1,1,1.09-1.1A1.1,1.1,0,0,1,222.94,319.558Zm0-7.2a1.1,1.1,0,1,1,1.09-1.1A1.1,1.1,0,0,1,222.94,312.358Zm0-7.2a1.1,1.1,0,1,1,1.09-1.1A1.1,1.1,0,0,1,222.94,305.158Zm0-7.2a1.1,1.1,0,1,1,1.09-1.1A1.1,1.1,0,0,1,222.94,297.958Zm0-7.2a1.1,1.1,0,1,1,1.09-1.1A1.1,1.1,0,0,1,222.94,290.758Zm0-7.2a1.1,1.1,0,1,1,1.09-1.1A1.1,1.1,0,0,1,222.94,283.558Zm0-7.2a1.1,1.1,0,1,1,1.09-1.1A1.1,1.1,0,0,1,222.94,276.358Zm0-7.2a1.1,1.1,0,1,1,1.09-1.1A1.1,1.1,0,0,1,222.94,269.158Zm0-7.2a1.1,1.1,0,1,1,1.09-1.1A1.1,1.1,0,0,1,222.94,261.958Zm0-7.2a1.1,1.1,0,1,1,1.09-1.1A1.1,1.1,0,0,1,222.94,254.758Zm0-7.2a1.1,1.1,0,1,1,1.09-1.1A1.1,1.1,0,0,1,222.94,247.558Zm0-7.2a1.1,1.1,0,1,1,1.09-1.1A1.1,1.1,0,0,1,222.94,240.358Zm0-7.2a1.1,1.1,0,1,1,1.09-1.1A1.1,1.1,0,0,1,222.94,233.158Zm0-7.2a1.1,1.1,0,1,1,1.09-1.1A1.1,1.1,0,0,1,222.94,225.958Zm0-7.2a1.1,1.1,0,1,1,1.09-1.1A1.1,1.1,0,0,1,222.94,218.758Zm7,104.4a1.1,1.1,0,1,1,1.09-1.1A1.1,1.1,0,0,1,229.94,323.158Zm0-7.2a1.1,1.1,0,1,1,1.09-1.1A1.1,1.1,0,0,1,229.94,315.958Zm0-7.2a1.1,1.1,0,1,1,1.09-1.1A1.1,1.1,0,0,1,229.94,308.758Zm0-7.2a1.1,1.1,0,1,1,1.09-1.1A1.1,1.1,0,0,1,229.94,301.558Zm0-7.2a1.1,1.1,0,1,1,1.09-1.1A1.1,1.1,0,0,1,229.94,294.358Zm0-7.2a1.1,1.1,0,1,1,1.09-1.1A1.1,1.1,0,0,1,229.94,287.158Zm0-7.2a1.1,1.1,0,1,1,1.09-1.1A1.1,1.1,0,0,1,229.94,279.958Zm0-7.2a1.1,1.1,0,1,1,1.09-1.1A1.1,1.1,0,0,1,229.94,272.758Zm0-7.2a1.1,1.1,0,1,1,1.09-1.1A1.1,1.1,0,0,1,229.94,265.558Zm0-7.2a1.1,1.1,0,1,1,1.09-1.1A1.1,1.1,0,0,1,229.94,258.358Zm0-7.2a1.1,1.1,0,1,1,1.09-1.1A1.1,1.1,0,0,1,229.94,251.158Zm0-7.2a1.1,1.1,0,1,1,1.09-1.1A1.1,1.1,0,0,1,229.94,243.958Zm0-7.2a1.1,1.1,0,1,1,1.09-1.1A1.1,1.1,0,0,1,229.94,236.758Zm0-7.2a1.1,1.1,0,1,1,1.09-1.1A1.1,1.1,0,0,1,229.94,229.558Zm0-7.2a1.1,1.1,0,1,1,1.09-1.1A1.1,1.1,0,0,1,229.94,222.358Zm0-7.2a1.1,1.1,0,1,1,1.09-1.1A1.1,1.1,0,0,1,229.94,215.158Z"/>
      <path class="cls-3" d="M172.24,212.468v113.06l6.34,8.47h9.14l6.35-8.47V212.468Zm7.77,110.69a1.1,1.1,0,1,1,1.1-1.1A1.095,1.095,0,0,1,180.01,323.158Zm0-7.2a1.1,1.1,0,1,1,1.1-1.1A1.095,1.095,0,0,1,180.01,315.958Zm0-7.2a1.1,1.1,0,1,1,1.1-1.1A1.095,1.095,0,0,1,180.01,308.758Zm0-7.2a1.1,1.1,0,1,1,1.1-1.1A1.095,1.095,0,0,1,180.01,301.558Zm0-7.2a1.1,1.1,0,1,1,1.1-1.1A1.095,1.095,0,0,1,180.01,294.358Zm0-7.2a1.1,1.1,0,1,1,1.1-1.1A1.095,1.095,0,0,1,180.01,287.158Zm0-7.2a1.1,1.1,0,1,1,1.1-1.1A1.095,1.095,0,0,1,180.01,279.958Zm0-7.2a1.1,1.1,0,1,1,1.1-1.1A1.095,1.095,0,0,1,180.01,272.758Zm0-7.2a1.1,1.1,0,1,1,1.1-1.1A1.095,1.095,0,0,1,180.01,265.558Zm0-7.2a1.1,1.1,0,1,1,1.1-1.1A1.095,1.095,0,0,1,180.01,258.358Zm0-7.2a1.1,1.1,0,1,1,1.1-1.1A1.095,1.095,0,0,1,180.01,251.158Zm0-7.2a1.1,1.1,0,1,1,1.1-1.1A1.095,1.095,0,0,1,180.01,243.958Zm0-7.2a1.1,1.1,0,1,1,1.1-1.1A1.095,1.095,0,0,1,180.01,236.758Zm0-7.2a1.1,1.1,0,1,1,1.1-1.1A1.095,1.095,0,0,1,180.01,229.558Zm0-7.2a1.1,1.1,0,1,1,1.1-1.1A1.095,1.095,0,0,1,180.01,222.358Zm0-7.2a1.1,1.1,0,1,1,1.1-1.1A1.095,1.095,0,0,1,180.01,215.158Zm7,104.4a1.1,1.1,0,1,1,1.1-1.1A1.095,1.095,0,0,1,187.01,319.558Zm0-7.2a1.1,1.1,0,1,1,1.1-1.1A1.095,1.095,0,0,1,187.01,312.358Zm0-7.2a1.1,1.1,0,1,1,1.1-1.1A1.095,1.095,0,0,1,187.01,305.158Zm0-7.2a1.1,1.1,0,1,1,1.1-1.1A1.095,1.095,0,0,1,187.01,297.958Zm0-7.2a1.1,1.1,0,1,1,1.1-1.1A1.095,1.095,0,0,1,187.01,290.758Zm0-7.2a1.1,1.1,0,1,1,1.1-1.1A1.095,1.095,0,0,1,187.01,283.558Zm0-7.2a1.1,1.1,0,1,1,1.1-1.1A1.095,1.095,0,0,1,187.01,276.358Zm0-7.2a1.1,1.1,0,1,1,1.1-1.1A1.095,1.095,0,0,1,187.01,269.158Zm0-7.2a1.1,1.1,0,1,1,1.1-1.1A1.095,1.095,0,0,1,187.01,261.958Zm0-7.2a1.1,1.1,0,1,1,1.1-1.1A1.095,1.095,0,0,1,187.01,254.758Zm0-7.2a1.1,1.1,0,1,1,1.1-1.1A1.095,1.095,0,0,1,187.01,247.558Zm0-7.2a1.1,1.1,0,1,1,1.1-1.1A1.095,1.095,0,0,1,187.01,240.358Zm0-7.2a1.1,1.1,0,1,1,1.1-1.1A1.095,1.095,0,0,1,187.01,233.158Zm0-7.2a1.1,1.1,0,1,1,1.1-1.1A1.095,1.095,0,0,1,187.01,225.958Zm0-7.2a1.1,1.1,0,1,1,1.1-1.1A1.095,1.095,0,0,1,187.01,218.758Z"/>
      <path class="cls-2" d="M173.94,212.468v109.65l5.35,8.21h7.72l5.36-8.21V212.468Zm6.07,110.69a1.1,1.1,0,1,1,1.1-1.1A1.095,1.095,0,0,1,180.01,323.158Zm0-7.2a1.1,1.1,0,1,1,1.1-1.1A1.095,1.095,0,0,1,180.01,315.958Zm0-7.2a1.1,1.1,0,1,1,1.1-1.1A1.095,1.095,0,0,1,180.01,308.758Zm0-7.2a1.1,1.1,0,1,1,1.1-1.1A1.095,1.095,0,0,1,180.01,301.558Zm0-7.2a1.1,1.1,0,1,1,1.1-1.1A1.095,1.095,0,0,1,180.01,294.358Zm0-7.2a1.1,1.1,0,1,1,1.1-1.1A1.095,1.095,0,0,1,180.01,287.158Zm0-7.2a1.1,1.1,0,1,1,1.1-1.1A1.095,1.095,0,0,1,180.01,279.958Zm0-7.2a1.1,1.1,0,1,1,1.1-1.1A1.095,1.095,0,0,1,180.01,272.758Zm0-7.2a1.1,1.1,0,1,1,1.1-1.1A1.095,1.095,0,0,1,180.01,265.558Zm0-7.2a1.1,1.1,0,1,1,1.1-1.1A1.095,1.095,0,0,1,180.01,258.358Zm0-7.2a1.1,1.1,0,1,1,1.1-1.1A1.095,1.095,0,0,1,180.01,251.158Zm0-7.2a1.1,1.1,0,1,1,1.1-1.1A1.095,1.095,0,0,1,180.01,243.958Zm0-7.2a1.1,1.1,0,1,1,1.1-1.1A1.095,1.095,0,0,1,180.01,236.758Zm0-7.2a1.1,1.1,0,1,1,1.1-1.1A1.095,1.095,0,0,1,180.01,229.558Zm0-7.2a1.1,1.1,0,1,1,1.1-1.1A1.095,1.095,0,0,1,180.01,222.358Zm0-7.2a1.1,1.1,0,1,1,1.1-1.1A1.095,1.095,0,0,1,180.01,215.158Zm7,104.4a1.1,1.1,0,1,1,1.1-1.1A1.095,1.095,0,0,1,187.01,319.558Zm0-7.2a1.1,1.1,0,1,1,1.1-1.1A1.095,1.095,0,0,1,187.01,312.358Zm0-7.2a1.1,1.1,0,1,1,1.1-1.1A1.095,1.095,0,0,1,187.01,305.158Zm0-7.2a1.1,1.1,0,1,1,1.1-1.1A1.095,1.095,0,0,1,187.01,297.958Zm0-7.2a1.1,1.1,0,1,1,1.1-1.1A1.095,1.095,0,0,1,187.01,290.758Zm0-7.2a1.1,1.1,0,1,1,1.1-1.1A1.095,1.095,0,0,1,187.01,283.558Zm0-7.2a1.1,1.1,0,1,1,1.1-1.1A1.095,1.095,0,0,1,187.01,276.358Zm0-7.2a1.1,1.1,0,1,1,1.1-1.1A1.095,1.095,0,0,1,187.01,269.158Zm0-7.2a1.1,1.1,0,1,1,1.1-1.1A1.095,1.095,0,0,1,187.01,261.958Zm0-7.2a1.1,1.1,0,1,1,1.1-1.1A1.095,1.095,0,0,1,187.01,254.758Zm0-7.2a1.1,1.1,0,1,1,1.1-1.1A1.095,1.095,0,0,1,187.01,247.558Zm0-7.2a1.1,1.1,0,1,1,1.1-1.1A1.095,1.095,0,0,1,187.01,240.358Zm0-7.2a1.1,1.1,0,1,1,1.1-1.1A1.095,1.095,0,0,1,187.01,233.158Zm0-7.2a1.1,1.1,0,1,1,1.1-1.1A1.095,1.095,0,0,1,187.01,225.958Zm0-7.2a1.1,1.1,0,1,1,1.1-1.1A1.095,1.095,0,0,1,187.01,218.758Z"/>
      <path class="cls-2" d="M217.22,212.468v109.65l5.53,8.21h7.37l5.53-8.21V212.468Zm5.72,107.09a1.1,1.1,0,1,1,1.09-1.1A1.1,1.1,0,0,1,222.94,319.558Zm0-7.2a1.1,1.1,0,1,1,1.09-1.1A1.1,1.1,0,0,1,222.94,312.358Zm0-7.2a1.1,1.1,0,1,1,1.09-1.1A1.1,1.1,0,0,1,222.94,305.158Zm0-7.2a1.1,1.1,0,1,1,1.09-1.1A1.1,1.1,0,0,1,222.94,297.958Zm0-7.2a1.1,1.1,0,1,1,1.09-1.1A1.1,1.1,0,0,1,222.94,290.758Zm0-7.2a1.1,1.1,0,1,1,1.09-1.1A1.1,1.1,0,0,1,222.94,283.558Zm0-7.2a1.1,1.1,0,1,1,1.09-1.1A1.1,1.1,0,0,1,222.94,276.358Zm0-7.2a1.1,1.1,0,1,1,1.09-1.1A1.1,1.1,0,0,1,222.94,269.158Zm0-7.2a1.1,1.1,0,1,1,1.09-1.1A1.1,1.1,0,0,1,222.94,261.958Zm0-7.2a1.1,1.1,0,1,1,1.09-1.1A1.1,1.1,0,0,1,222.94,254.758Zm0-7.2a1.1,1.1,0,1,1,1.09-1.1A1.1,1.1,0,0,1,222.94,247.558Zm0-7.2a1.1,1.1,0,1,1,1.09-1.1A1.1,1.1,0,0,1,222.94,240.358Zm0-7.2a1.1,1.1,0,1,1,1.09-1.1A1.1,1.1,0,0,1,222.94,233.158Zm0-7.2a1.1,1.1,0,1,1,1.09-1.1A1.1,1.1,0,0,1,222.94,225.958Zm0-7.2a1.1,1.1,0,1,1,1.09-1.1A1.1,1.1,0,0,1,222.94,218.758Zm7,104.4a1.1,1.1,0,1,1,1.09-1.1A1.1,1.1,0,0,1,229.94,323.158Zm0-7.2a1.1,1.1,0,1,1,1.09-1.1A1.1,1.1,0,0,1,229.94,315.958Zm0-7.2a1.1,1.1,0,1,1,1.09-1.1A1.1,1.1,0,0,1,229.94,308.758Zm0-7.2a1.1,1.1,0,1,1,1.09-1.1A1.1,1.1,0,0,1,229.94,301.558Zm0-7.2a1.1,1.1,0,1,1,1.09-1.1A1.1,1.1,0,0,1,229.94,294.358Zm0-7.2a1.1,1.1,0,1,1,1.09-1.1A1.1,1.1,0,0,1,229.94,287.158Zm0-7.2a1.1,1.1,0,1,1,1.09-1.1A1.1,1.1,0,0,1,229.94,279.958Zm0-7.2a1.1,1.1,0,1,1,1.09-1.1A1.1,1.1,0,0,1,229.94,272.758Zm0-7.2a1.1,1.1,0,1,1,1.09-1.1A1.1,1.1,0,0,1,229.94,265.558Zm0-7.2a1.1,1.1,0,1,1,1.09-1.1A1.1,1.1,0,0,1,229.94,258.358Zm0-7.2a1.1,1.1,0,1,1,1.09-1.1A1.1,1.1,0,0,1,229.94,251.158Zm0-7.2a1.1,1.1,0,1,1,1.09-1.1A1.1,1.1,0,0,1,229.94,243.958Zm0-7.2a1.1,1.1,0,1,1,1.09-1.1A1.1,1.1,0,0,1,229.94,236.758Zm0-7.2a1.1,1.1,0,1,1,1.09-1.1A1.1,1.1,0,0,1,229.94,229.558Zm0-7.2a1.1,1.1,0,1,1,1.09-1.1A1.1,1.1,0,0,1,229.94,222.358Zm0-7.2a1.1,1.1,0,1,1,1.09-1.1A1.1,1.1,0,0,1,229.94,215.158Z"/>
    </g>
    <g>
      <g>
        <path class="cls-4" d="M209.815,125.2v5.1a2.345,2.345,0,1,0,4.689,0v-5.1a2.345,2.345,0,0,0-4.689,0Zm.927,2.552a1.418,1.418,0,1,1,1.418,1.417A1.422,1.422,0,0,1,210.742,127.751Z"/>
        <path class="cls-4" d="M202.555,125.2v5.1a2.345,2.345,0,1,0,4.689,0v-5.1a2.345,2.345,0,0,0-4.689,0Zm.927,2.552a1.418,1.418,0,1,1,1.418,1.417A1.422,1.422,0,0,1,203.482,127.751Z"/>
        <path class="cls-4" d="M195.3,125.2v5.1a2.345,2.345,0,1,0,4.689,0v-5.1a2.345,2.345,0,0,0-4.689,0Zm.927,2.552a1.418,1.418,0,1,1,1.418,1.417A1.422,1.422,0,0,1,196.222,127.751Z"/>
      </g>
      <g>
        <path class="cls-4" d="M204.9,133.2a1.418,1.418,0,1,1-1.418,1.418A1.422,1.422,0,0,1,204.9,133.2m0-.992a2.41,2.41,0,1,0,2.409,2.41,2.413,2.413,0,0,0-2.409-2.41Z"/>
        <path class="cls-4" d="M197.64,133.2a1.418,1.418,0,1,1-1.418,1.418,1.422,1.422,0,0,1,1.418-1.418m0-.992a2.41,2.41,0,1,0,2.409,2.41,2.413,2.413,0,0,0-2.409-2.41Z"/>
        <g>
          <path class="cls-4" d="M212.16,133.2a1.418,1.418,0,1,1-1.418,1.418,1.422,1.422,0,0,1,1.418-1.418m0-.992a2.41,2.41,0,1,0,2.409,2.41,2.413,2.413,0,0,0-2.409-2.41Z"/>
          <path class="cls-4" d="M213.577,133.2v2.835h-2.835V133.2h2.835m.992-.992H209.75v4.819h4.819v-4.819Z"/>
        </g>
      </g>
    </g>
    <g>
      <text class="cls-5" transform="translate(200.839 31.623)">SIG</text>
      <text class="cls-5" transform="translate(229.012 53.416)">GND</text>
      <text class="cls-5" transform="translate(168.964 53.416)">VCC</text>
      <text class="cls-6" transform="translate(194.509 51.544)">MOISTURE<tspan x="2.744" y="6">SENSOR</tspan></text>
      <text class="cls-5" transform="translate(202.045 108.605) rotate(90)">SIG</text>
      <text class="cls-5" transform="translate(216.218 129.398)">GND</text>
      <text class="cls-5" transform="translate(179.17 129.398)">VCC</text>
    </g>
  </g>
  <g id="top">
    <path class="cls-3" d="M68.52,212.468v113.06L75.07,334H83.8l6.55-8.47V212.468Zm7.42,107.09a1.1,1.1,0,1,1,1.09-1.1A1.1,1.1,0,0,1,75.94,319.558Zm0-7.2a1.1,1.1,0,1,1,1.09-1.1A1.1,1.1,0,0,1,75.94,312.358Zm0-7.2a1.1,1.1,0,1,1,1.09-1.1A1.1,1.1,0,0,1,75.94,305.158Zm0-7.2a1.1,1.1,0,1,1,1.09-1.1A1.1,1.1,0,0,1,75.94,297.958Zm0-7.2a1.1,1.1,0,1,1,1.09-1.1A1.1,1.1,0,0,1,75.94,290.758Zm0-7.2a1.1,1.1,0,1,1,1.09-1.1A1.1,1.1,0,0,1,75.94,283.558Zm0-7.2a1.1,1.1,0,1,1,1.09-1.1A1.1,1.1,0,0,1,75.94,276.358Zm0-7.2a1.1,1.1,0,1,1,1.09-1.1A1.1,1.1,0,0,1,75.94,269.158Zm0-7.2a1.1,1.1,0,1,1,1.09-1.1A1.1,1.1,0,0,1,75.94,261.958Zm0-7.2a1.1,1.1,0,1,1,1.09-1.1A1.1,1.1,0,0,1,75.94,254.758Zm0-7.2a1.1,1.1,0,1,1,1.09-1.1A1.1,1.1,0,0,1,75.94,247.558Zm0-7.2a1.1,1.1,0,1,1,1.09-1.1A1.1,1.1,0,0,1,75.94,240.358Zm0-7.2a1.1,1.1,0,1,1,1.09-1.1A1.1,1.1,0,0,1,75.94,233.158Zm0-7.2a1.1,1.1,0,1,1,1.09-1.1A1.1,1.1,0,0,1,75.94,225.958Zm0-7.2a1.1,1.1,0,1,1,1.09-1.1A1.1,1.1,0,0,1,75.94,218.758Zm7,104.4a1.1,1.1,0,1,1,1.09-1.1A1.1,1.1,0,0,1,82.94,323.158Zm0-7.2a1.1,1.1,0,1,1,1.09-1.1A1.1,1.1,0,0,1,82.94,315.958Zm0-7.2a1.1,1.1,0,1,1,1.09-1.1A1.1,1.1,0,0,1,82.94,308.758Zm0-7.2a1.1,1.1,0,1,1,1.09-1.1A1.1,1.1,0,0,1,82.94,301.558Zm0-7.2a1.1,1.1,0,1,1,1.09-1.1A1.1,1.1,0,0,1,82.94,294.358Zm0-7.2a1.1,1.1,0,1,1,1.09-1.1A1.1,1.1,0,0,1,82.94,287.158Zm0-7.2a1.1,1.1,0,1,1,1.09-1.1A1.1,1.1,0,0,1,82.94,279.958Zm0-7.2a1.1,1.1,0,1,1,1.09-1.1A1.1,1.1,0,0,1,82.94,272.758Zm0-7.2a1.1,1.1,0,1,1,1.09-1.1A1.1,1.1,0,0,1,82.94,265.558Zm0-7.2a1.1,1.1,0,1,1,1.09-1.1A1.1,1.1,0,0,1,82.94,258.358Zm0-7.2a1.1,1.1,0,1,1,1.09-1.1A1.1,1.1,0,0,1,82.94,251.158Zm0-7.2a1.1,1.1,0,1,1,1.09-1.1A1.1,1.1,0,0,1,82.94,243.958Zm0-7.2a1.1,1.1,0,1,1,1.09-1.1A1.1,1.1,0,0,1,82.94,236.758Zm0-7.2a1.1,1.1,0,1,1,1.09-1.1A1.1,1.1,0,0,1,82.94,229.558Zm0-7.2a1.1,1.1,0,1,1,1.09-1.1A1.1,1.1,0,0,1,82.94,222.358Zm0-7.2a1.1,1.1,0,1,1,1.09-1.1A1.1,1.1,0,0,1,82.94,215.158Z"/>
    <path class="cls-1" d="M109.671,117.987H5.966a2.573,2.573,0,0,0-2.573,2.573v20.366A2.573,2.573,0,0,0,5.966,143.5H9.237L25.22,204.536h.009v8l21.827-.08h0l1-1.427H67.507l1,1.507H90.334v-8h0L106.4,143.5h3.272a2.573,2.573,0,0,0,2.573-2.573V120.56A2.573,2.573,0,0,0,109.671,117.987ZM50.625,136.1a1.417,1.417,0,1,1,1.417-1.417A1.421,1.421,0,0,1,50.625,136.1Zm0-6.864a1.417,1.417,0,1,1,1.417-1.417A1.422,1.422,0,0,1,50.625,129.232Zm7.26,6.864a1.417,1.417,0,1,1,1.417-1.417A1.422,1.422,0,0,1,57.885,136.1Zm0-6.864a1.417,1.417,0,1,1,1.417-1.417A1.422,1.422,0,0,1,57.885,129.232Zm7.26,6.864a1.417,1.417,0,1,1,1.417-1.417A1.422,1.422,0,0,1,65.145,136.1Zm0-6.864a1.417,1.417,0,1,1,1.417-1.417A1.422,1.422,0,0,1,65.145,129.232Z"/>
    <g>
      <g>
        <path class="cls-7" d="M117.426,36.432c-5.568-11.424-19.982-10.246-26.112-9.792-5.184.384-17.3,7.3-17.3,7.3l1.368-3.648a31.2,31.2,0,0,0,1.344-13.44c-.546-4.1-4.8-15.84-15.888-16.32-8.674-.375-14.926,9-17.9,14.592-3.168,5.952-3.072,19.968-3.072,19.968s-2.16-1.776-2.928-2.352a89.894,89.894,0,0,0-9.984-5.424,23.59,23.59,0,0,0-14.592-.864C4.914,28.272.816,38.747.594,40.992-.558,52.656,12.978,59.776,16.05,60.432c3.092.66,17.04,3.312,14.4,3.7S18.882,70.9,18.882,70.9A24.37,24.37,0,0,0,12.469,81.93c-1.539,6.528-.959,12.7.125,15.174a19.967,19.967,0,0,0,9.648,9.408,27.5,27.5,0,0,0,13.584,1.344c3.456-.768,7.575-3.678,9.792-5.376,1.517-1.163,5.952-4.8,5.952-4.8l-.192,21.355H65.97L65.778,93.84s8.064,4.992,10.176,6.336,9.984,2.3,13.632,1.152,5.184-2.3,9.408-6.72,4.224-12.192,3.84-15.936c-1.011-9.859-12.672-15.936-12.672-15.936s6.336-1.728,7.488-2.112,9.408-2.112,12.48-4.032S122.148,46.121,117.426,36.432ZM14.172,44.973a5.811,5.811,0,1,1,5.811-5.811A5.811,5.811,0,0,1,14.172,44.973ZM59.65,18.782a5.811,5.811,0,1,1,5.811-5.811A5.811,5.811,0,0,1,59.65,18.782Zm46.293,28.255a5.811,5.811,0,1,1,5.811-5.811A5.811,5.811,0,0,1,105.943,47.037Z"/>
        <path class="cls-1" d="M37.554,63.888s-8.181,3.367-10.752,4.8A25.84,25.84,0,0,0,14.9,84.24c-.591,2.472-1.152,8.592,0,10.944.851,1.738,2.88,5.784,5.568,7.488a18.841,18.841,0,0,0,9.792,3.072c4.44.049,9.31-2.077,12.48-4.416,5.856-4.32,10.968-11.448,12.288-17.664.282-1.328.768-7.752.768-7.752a13.527,13.527,0,0,1-5.76,0c-3.072-.7-8.064-4.728-9.216-6.264A56.91,56.91,0,0,1,37.554,63.888Z"/>
        <path class="cls-1" d="M57.81,76.272s6.422,10.37,7.92,12.312C69.618,93.624,77.9,100.392,86.178,99.6c7.3-.7,14.4-8.712,14.688-16.272.275-7.231-5.184-14.328-10.08-17.28-6.565-3.958-16.992-4.032-16.992-4.032a6.822,6.822,0,0,1-1.3,4.752,36.845,36.845,0,0,1-4.9,5.472,49.436,49.436,0,0,1-6.048,3.168A16.476,16.476,0,0,1,57.81,76.272Z"/>
        <path class="cls-1" d="M72.21,11.664a26.481,26.481,0,0,0-4.8-5.856s-3.835-2.784-7.1-2.016-7.174,2.444-8.93,4.128A32.328,32.328,0,0,0,42.816,22.7c-.822,3.3-.524,9.024.245,13.1.675,3.586,4.573,7.055,4.573,7.055s5.977-1.5,7.9-1.448a30.178,30.178,0,0,1,7.175,1.448c1.536.576,2.688.96,2.688.96s3.59-5.807,4.992-7.968c2.3-3.552,4.128-10.848,4.128-15.744A21.954,21.954,0,0,0,72.21,11.664ZM59.65,18.782a5.811,5.811,0,1,1,5.811-5.811A5.811,5.811,0,0,1,59.65,18.782Z"/>
        <path class="cls-1" d="M113.538,36.024c-2.107-3.582-7.168-5.543-8.448-5.976a39.71,39.71,0,0,0-13.152-.864c-3.888.576-10.172,3.062-14.3,5.52-4.165,2.478-9.6,10.608-9.6,10.608s2.808,3.168,3.744,4.392a13.258,13.258,0,0,1,2.376,5.544c.144,1.728.072,4.032.072,4.032s5.328.432,7.272.5,9.7.16,15.276-1.745c3.358-1.146,7.843-2.51,10.255-3.914C113.465,50.371,117.138,42.144,113.538,36.024Zm-7.595,11.013a5.811,5.811,0,1,1,5.811-5.811A5.811,5.811,0,0,1,105.943,47.037Z"/>
        <path class="cls-1" d="M36.114,35.664a62.31,62.31,0,0,0-7.776-5.184c-1.728-.864-7.008-2.732-10.368-2.688-2.715.036-9.024,1.728-11.9,5.76C4.19,36.178,2.85,42.541,3.954,45.84,7.06,55.125,19.122,59.376,24.4,60.24c1.61.264,9.122.672,10.609.576a9.151,9.151,0,0,1,1.967,0s0-7.488,1.632-9.792a80.839,80.839,0,0,1,6.048-6.755S38.2,37.431,36.114,35.664ZM14.172,44.973a5.811,5.811,0,1,1,5.811-5.811A5.811,5.811,0,0,1,14.172,44.973Z"/>
        <path class="cls-2" d="M2.9,33.744c-2.732,4.363-3.048,6.6-2.85,8.7L10.5,47.8A9.36,9.36,0,1,0,19,31.12l-8.7-4.435C9.858,26.628,6.114,28.608,2.9,33.744Zm15.944,7.8a5.243,5.243,0,1,1-2.289-7.053A5.243,5.243,0,0,1,18.842,41.544Z"/>
        <path class="cls-2" d="M60.09,0c-5.148,0-9.384,3.864-9.8,4.392v9.23a9.36,9.36,0,0,0,18.72,0V3.222C69.01,2.184,65.238,0,60.09,0Zm-.44,18.215a5.244,5.244,0,1,1,5.244-5.244A5.244,5.244,0,0,1,59.65,18.215Z"/>
        <path class="cls-2" d="M110.478,28.689l-9.368,4.494a9.36,9.36,0,0,0,8.5,16.677l9.435-4.832c.182-2.272.749-6.081-1.983-10.444C113.85,29.448,110.928,28.633,110.478,28.689Zm-6.917,7.866a5.243,5.243,0,1,1-2.289,7.052A5.242,5.242,0,0,1,103.561,36.555Z"/>
        <rect class="cls-8" x="37.254" y="41.64" width="37.08" height="34.272" rx="17.136"/>
        <g>
          <path class="cls-9" d="M62.466,57.418c-1.008,1.438-2.478,2.983-4.465.608-.86-1.028-.488-2.944,1.026-4.459s3.511-1.974,4.459-1.026S63.7,55.664,62.466,57.418Z"/>
          <ellipse class="cls-9" cx="62.466" cy="60.401" rx="2.688" ry="1.776"/>
          <ellipse class="cls-9" cx="49.53" cy="61.169" rx="3.864" ry="2.544"/>
          <ellipse class="cls-9" cx="52.609" cy="65.324" rx="3.126" ry="1.903" transform="translate(-30.683 75.186) rotate(-57.906)"/>
          <path class="cls-9" d="M60.749,61.794a3.736,3.736,0,0,1-1.083,2.662c-.247.247.664,2.824.664,2.824s-2.087-1.929-2.408-1.853a3.89,3.89,0,0,1-.892.1A3.96,3.96,0,0,1,52.986,61.8c0-.466.053-1.739.408-1.739a6.114,6.114,0,0,0,2.928-.6,5,5,0,0,0,1.394-1.382C59.142,58.078,60.749,59.7,60.749,61.794Z"/>
          <path class="cls-9" d="M58.338,55.961a4.013,4.013,0,0,1-.692,2.254,4.218,4.218,0,0,1-1.729,1.46,4.3,4.3,0,0,1-1.8.39,4.106,4.106,0,1,1,4.218-4.1Z"/>
          <g>
            <g>
              <path class="cls-10" d="M53.394,51.863c-.012-.207-.048-2.475.564-3.123"/>
              <ellipse class="cls-9" cx="54.195" cy="48.325" rx="0.606" ry="0.522" transform="translate(-17.381 60.539) rotate(-51.406)"/>
            </g>
            <g>
              <path class="cls-10" d="M51.024,53.1c-.4-.306-3.06-1.072-3.853-.667"/>
              <ellipse class="cls-9" cx="46.705" cy="52.54" rx="0.606" ry="0.522" transform="translate(-16.434 21.633) rotate(-22.283)"/>
            </g>
          </g>
          <g>
            <path class="cls-11" d="M53.175,62.91c0-.012,1.926-.831,3.611-1.7a19.736,19.736,0,0,0,2.992-1.782c.063-.191.659.808.659.808l.21.661a19.408,19.408,0,0,1-2.931,2.1c-1.044.516-3.541,1.462-3.541,1.462l-.6-.755Z"/>
            <path class="cls-11" d="M57.839,65.3a3.368,3.368,0,0,0,1.777-.981l.008.333.247,1.191.261,1.1-1.17-.9a2.868,2.868,0,0,0-.621-.54A3.2,3.2,0,0,1,57.839,65.3Z"/>
          </g>
          <g>
            <ellipse class="cls-11" cx="52.328" cy="56.542" rx="0.6" ry="1.14" transform="translate(-21.261 33.739) rotate(-30)"/>
            <ellipse class="cls-11" cx="55.304" cy="54.718" rx="0.6" ry="1.14" transform="translate(-18.203 29.237) rotate(-25.576)"/>
            <path class="cls-11" d="M54.306,58.052a1.073,1.073,0,0,0,1.032-.24c.384-.432.336-.672.336-.672"/>
          </g>
        </g>
      </g>
      <g>
        <polygon class="cls-12" points="89.58 203.36 26.138 203.36 10.396 143.242 105.402 143.242 89.58 203.36"/>
        <rect class="cls-12" x="4.38" y="118.576" width="107.064" height="23.88" rx="1.764"/>
      </g>
      <g>
        <path class="cls-11" d="M52.263,26.214c.573,2.134-1.077,4.769-3.368,4.769a3.815,3.815,0,0,1-3.367-4.769c.718-1.959,1.928-2.82,2.686-4.252a12.438,12.438,0,0,0,.681-2.793,12.024,12.024,0,0,0,.719,2.787C50.458,23.472,51.8,24.5,52.263,26.214Z"/>
        <path class="cls-1" d="M50.615,25.076A3.447,3.447,0,0,1,51.7,27.064,3.622,3.622,0,0,1,50.627,29.4s-.181.047-.107-.21a10.484,10.484,0,0,0,.329-2.175c-.01-.263-.418-1.937-.418-1.937Z"/>
      </g>
    </g>
    <path class="cls-3" d="M33.02,212.468H25.24v113.06L31.58,334h9.14l6.35-8.47-.014-113.076Zm-.01,110.69a1.1,1.1,0,1,1,1.1-1.1A1.095,1.095,0,0,1,33.01,323.158Zm0-7.2a1.1,1.1,0,1,1,1.1-1.1A1.095,1.095,0,0,1,33.01,315.958Zm0-7.2a1.1,1.1,0,1,1,1.1-1.1A1.095,1.095,0,0,1,33.01,308.758Zm0-7.2a1.1,1.1,0,1,1,1.1-1.1A1.095,1.095,0,0,1,33.01,301.558Zm0-7.2a1.1,1.1,0,1,1,1.1-1.1A1.095,1.095,0,0,1,33.01,294.358Zm0-7.2a1.1,1.1,0,1,1,1.1-1.1A1.095,1.095,0,0,1,33.01,287.158Zm0-7.2a1.1,1.1,0,1,1,1.1-1.1A1.095,1.095,0,0,1,33.01,279.958Zm0-7.2a1.1,1.1,0,1,1,1.1-1.1A1.095,1.095,0,0,1,33.01,272.758Zm0-7.2a1.1,1.1,0,1,1,1.1-1.1A1.095,1.095,0,0,1,33.01,265.558Zm0-7.2a1.1,1.1,0,1,1,1.1-1.1A1.095,1.095,0,0,1,33.01,258.358Zm0-7.2a1.1,1.1,0,1,1,1.1-1.1A1.095,1.095,0,0,1,33.01,251.158Zm0-7.2a1.1,1.1,0,1,1,1.1-1.1A1.095,1.095,0,0,1,33.01,243.958Zm0-7.2a1.1,1.1,0,1,1,1.1-1.1A1.095,1.095,0,0,1,33.01,236.758Zm0-7.2a1.1,1.1,0,1,1,1.1-1.1A1.095,1.095,0,0,1,33.01,229.558Zm0-7.2a1.1,1.1,0,1,1,1.1-1.1A1.095,1.095,0,0,1,33.01,222.358Zm0-7.2a1.1,1.1,0,1,1,1.1-1.1A1.095,1.095,0,0,1,33.01,215.158Zm7,104.4a1.1,1.1,0,1,1,1.1-1.1A1.095,1.095,0,0,1,40.01,319.558Zm0-7.2a1.1,1.1,0,1,1,1.1-1.1A1.095,1.095,0,0,1,40.01,312.358Zm0-7.2a1.1,1.1,0,1,1,1.1-1.1A1.095,1.095,0,0,1,40.01,305.158Zm0-7.2a1.1,1.1,0,1,1,1.1-1.1A1.095,1.095,0,0,1,40.01,297.958Zm0-7.2a1.1,1.1,0,1,1,1.1-1.1A1.095,1.095,0,0,1,40.01,290.758Zm0-7.2a1.1,1.1,0,1,1,1.1-1.1A1.095,1.095,0,0,1,40.01,283.558Zm0-7.2a1.1,1.1,0,1,1,1.1-1.1A1.095,1.095,0,0,1,40.01,276.358Zm0-7.2a1.1,1.1,0,1,1,1.1-1.1A1.095,1.095,0,0,1,40.01,269.158Zm0-7.2a1.1,1.1,0,1,1,1.1-1.1A1.095,1.095,0,0,1,40.01,261.958Zm0-7.2a1.1,1.1,0,1,1,1.1-1.1A1.095,1.095,0,0,1,40.01,254.758Zm0-7.2a1.1,1.1,0,1,1,1.1-1.1A1.095,1.095,0,0,1,40.01,247.558Zm0-7.2a1.1,1.1,0,1,1,1.1-1.1A1.095,1.095,0,0,1,40.01,240.358Zm0-7.2a1.1,1.1,0,1,1,1.1-1.1A1.095,1.095,0,0,1,40.01,233.158Zm0-7.2a1.1,1.1,0,1,1,1.1-1.1A1.095,1.095,0,0,1,40.01,225.958Zm0-7.2a1.1,1.1,0,1,1,1.1-1.1A1.095,1.095,0,0,1,40.01,218.758Z"/>
    <path class="cls-2" d="M26.94,212.468v109.65l5.35,8.21h7.72l5.36-8.21V212.468Zm6.07,110.69a1.1,1.1,0,1,1,1.1-1.1A1.095,1.095,0,0,1,33.01,323.158Zm0-7.2a1.1,1.1,0,1,1,1.1-1.1A1.095,1.095,0,0,1,33.01,315.958Zm0-7.2a1.1,1.1,0,1,1,1.1-1.1A1.095,1.095,0,0,1,33.01,308.758Zm0-7.2a1.1,1.1,0,1,1,1.1-1.1A1.095,1.095,0,0,1,33.01,301.558Zm0-7.2a1.1,1.1,0,1,1,1.1-1.1A1.095,1.095,0,0,1,33.01,294.358Zm0-7.2a1.1,1.1,0,1,1,1.1-1.1A1.095,1.095,0,0,1,33.01,287.158Zm0-7.2a1.1,1.1,0,1,1,1.1-1.1A1.095,1.095,0,0,1,33.01,279.958Zm0-7.2a1.1,1.1,0,1,1,1.1-1.1A1.095,1.095,0,0,1,33.01,272.758Zm0-7.2a1.1,1.1,0,1,1,1.1-1.1A1.095,1.095,0,0,1,33.01,265.558Zm0-7.2a1.1,1.1,0,1,1,1.1-1.1A1.095,1.095,0,0,1,33.01,258.358Zm0-7.2a1.1,1.1,0,1,1,1.1-1.1A1.095,1.095,0,0,1,33.01,251.158Zm0-7.2a1.1,1.1,0,1,1,1.1-1.1A1.095,1.095,0,0,1,33.01,243.958Zm0-7.2a1.1,1.1,0,1,1,1.1-1.1A1.095,1.095,0,0,1,33.01,236.758Zm0-7.2a1.1,1.1,0,1,1,1.1-1.1A1.095,1.095,0,0,1,33.01,229.558Zm0-7.2a1.1,1.1,0,1,1,1.1-1.1A1.095,1.095,0,0,1,33.01,222.358Zm0-7.2a1.1,1.1,0,1,1,1.1-1.1A1.095,1.095,0,0,1,33.01,215.158Zm7,104.4a1.1,1.1,0,1,1,1.1-1.1A1.095,1.095,0,0,1,40.01,319.558Zm0-7.2a1.1,1.1,0,1,1,1.1-1.1A1.095,1.095,0,0,1,40.01,312.358Zm0-7.2a1.1,1.1,0,1,1,1.1-1.1A1.095,1.095,0,0,1,40.01,305.158Zm0-7.2a1.1,1.1,0,1,1,1.1-1.1A1.095,1.095,0,0,1,40.01,297.958Zm0-7.2a1.1,1.1,0,1,1,1.1-1.1A1.095,1.095,0,0,1,40.01,290.758Zm0-7.2a1.1,1.1,0,1,1,1.1-1.1A1.095,1.095,0,0,1,40.01,283.558Zm0-7.2a1.1,1.1,0,1,1,1.1-1.1A1.095,1.095,0,0,1,40.01,276.358Zm0-7.2a1.1,1.1,0,1,1,1.1-1.1A1.095,1.095,0,0,1,40.01,269.158Zm0-7.2a1.1,1.1,0,1,1,1.1-1.1A1.095,1.095,0,0,1,40.01,261.958Zm0-7.2a1.1,1.1,0,1,1,1.1-1.1A1.095,1.095,0,0,1,40.01,254.758Zm0-7.2a1.1,1.1,0,1,1,1.1-1.1A1.095,1.095,0,0,1,40.01,247.558Zm0-7.2a1.1,1.1,0,1,1,1.1-1.1A1.095,1.095,0,0,1,40.01,240.358Zm0-7.2a1.1,1.1,0,1,1,1.1-1.1A1.095,1.095,0,0,1,40.01,233.158Zm0-7.2a1.1,1.1,0,1,1,1.1-1.1A1.095,1.095,0,0,1,40.01,225.958Zm0-7.2a1.1,1.1,0,1,1,1.1-1.1A1.095,1.095,0,0,1,40.01,218.758Z"/>
    <path class="cls-2" d="M70.22,212.468v109.65l5.53,8.21h7.37l5.53-8.21V212.468Zm5.72,107.09a1.1,1.1,0,1,1,1.09-1.1A1.1,1.1,0,0,1,75.94,319.558Zm0-7.2a1.1,1.1,0,1,1,1.09-1.1A1.1,1.1,0,0,1,75.94,312.358Zm0-7.2a1.1,1.1,0,1,1,1.09-1.1A1.1,1.1,0,0,1,75.94,305.158Zm0-7.2a1.1,1.1,0,1,1,1.09-1.1A1.1,1.1,0,0,1,75.94,297.958Zm0-7.2a1.1,1.1,0,1,1,1.09-1.1A1.1,1.1,0,0,1,75.94,290.758Zm0-7.2a1.1,1.1,0,1,1,1.09-1.1A1.1,1.1,0,0,1,75.94,283.558Zm0-7.2a1.1,1.1,0,1,1,1.09-1.1A1.1,1.1,0,0,1,75.94,276.358Zm0-7.2a1.1,1.1,0,1,1,1.09-1.1A1.1,1.1,0,0,1,75.94,269.158Zm0-7.2a1.1,1.1,0,1,1,1.09-1.1A1.1,1.1,0,0,1,75.94,261.958Zm0-7.2a1.1,1.1,0,1,1,1.09-1.1A1.1,1.1,0,0,1,75.94,254.758Zm0-7.2a1.1,1.1,0,1,1,1.09-1.1A1.1,1.1,0,0,1,75.94,247.558Zm0-7.2a1.1,1.1,0,1,1,1.09-1.1A1.1,1.1,0,0,1,75.94,240.358Zm0-7.2a1.1,1.1,0,1,1,1.09-1.1A1.1,1.1,0,0,1,75.94,233.158Zm0-7.2a1.1,1.1,0,1,1,1.09-1.1A1.1,1.1,0,0,1,75.94,225.958Zm0-7.2a1.1,1.1,0,1,1,1.09-1.1A1.1,1.1,0,0,1,75.94,218.758Zm7,104.4a1.1,1.1,0,1,1,1.09-1.1A1.1,1.1,0,0,1,82.94,323.158Zm0-7.2a1.1,1.1,0,1,1,1.09-1.1A1.1,1.1,0,0,1,82.94,315.958Zm0-7.2a1.1,1.1,0,1,1,1.09-1.1A1.1,1.1,0,0,1,82.94,308.758Zm0-7.2a1.1,1.1,0,1,1,1.09-1.1A1.1,1.1,0,0,1,82.94,301.558Zm0-7.2a1.1,1.1,0,1,1,1.09-1.1A1.1,1.1,0,0,1,82.94,294.358Zm0-7.2a1.1,1.1,0,1,1,1.09-1.1A1.1,1.1,0,0,1,82.94,287.158Zm0-7.2a1.1,1.1,0,1,1,1.09-1.1A1.1,1.1,0,0,1,82.94,279.958Zm0-7.2a1.1,1.1,0,1,1,1.09-1.1A1.1,1.1,0,0,1,82.94,272.758Zm0-7.2a1.1,1.1,0,1,1,1.09-1.1A1.1,1.1,0,0,1,82.94,265.558Zm0-7.2a1.1,1.1,0,1,1,1.09-1.1A1.1,1.1,0,0,1,82.94,258.358Zm0-7.2a1.1,1.1,0,1,1,1.09-1.1A1.1,1.1,0,0,1,82.94,251.158Zm0-7.2a1.1,1.1,0,1,1,1.09-1.1A1.1,1.1,0,0,1,82.94,243.958Zm0-7.2a1.1,1.1,0,1,1,1.09-1.1A1.1,1.1,0,0,1,82.94,236.758Zm0-7.2a1.1,1.1,0,1,1,1.09-1.1A1.1,1.1,0,0,1,82.94,229.558Zm0-7.2a1.1,1.1,0,1,1,1.09-1.1A1.1,1.1,0,0,1,82.94,222.358Zm0-7.2a1.1,1.1,0,1,1,1.09-1.1A1.1,1.1,0,0,1,82.94,215.158Z"/>
    <g id="R-0603">
      <rect id="rect21332-8-1-9-3-8-2-40-6-2-0-6-6-0-5-6-4-8-7-2-0-7-2-3-9-16-5" class="cls-13" x="52.835" y="160.312" width="2.268" height="2.26"/>
      <rect id="rect21332-8-1-9-3-8-2-40-6-2-0-6-6-0-5-6-4-8-7-2-0-7-2-3-10-16-5" class="cls-13" x="52.835" y="156.922" width="2.268" height="2.26"/>
      <path class="cls-14" d="M52.835,161.682v-3.867a.328.328,0,0,1,.278-.33h1.7a.306.306,0,0,1,.287.324h0v3.87a.31.31,0,0,1-.285.33H53.132a.321.321,0,0,1-.3-.32h0Z"/>
      <g id="path26345-3-6-9-3-6-4-2-5-6-8-7-9-0-90-3-1-3-9-2-2-8-5-0-2-3-5-16-5">
        <rect class="cls-15" x="52.835" y="157.902" width="2.268" height="3.68"/>
      </g>
      <path id="path26341-4-2-6-0-8-1-1-1-5-0-3-3-1-8-3-8-7-7-7-2-4-9-7-2-3-5-16-5" class="cls-16" d="M55.1,161.162v-2.83H52.835v2.83Z"/>
    </g>
    <g id="R-0603-2" data-name="R-0603">
      <rect id="rect21332-8-1-9-3-8-2-40-6-2-0-6-6-0-5-6-4-8-7-2-0-7-2-3-9-16-5-2" data-name="rect21332-8-1-9-3-8-2-40-6-2-0-6-6-0-5-6-4-8-7-2-0-7-2-3-9-16-5" class="cls-13" x="60.835" y="160.312" width="2.268" height="2.26"/>
      <rect id="rect21332-8-1-9-3-8-2-40-6-2-0-6-6-0-5-6-4-8-7-2-0-7-2-3-10-16-5-2" data-name="rect21332-8-1-9-3-8-2-40-6-2-0-6-6-0-5-6-4-8-7-2-0-7-2-3-10-16-5" class="cls-13" x="60.835" y="156.922" width="2.268" height="2.26"/>
      <path class="cls-14" d="M60.835,161.682v-3.867a.328.328,0,0,1,.278-.33h1.7a.306.306,0,0,1,.287.324h0v3.87a.31.31,0,0,1-.285.33H61.132a.321.321,0,0,1-.3-.32h0Z"/>
      <g id="path26345-3-6-9-3-6-4-2-5-6-8-7-9-0-90-3-1-3-9-2-2-8-5-0-2-3-5-16-5-2" data-name="path26345-3-6-9-3-6-4-2-5-6-8-7-9-0-90-3-1-3-9-2-2-8-5-0-2-3-5-16-5">
        <rect class="cls-15" x="60.835" y="157.902" width="2.268" height="3.68"/>
      </g>
      <path id="path26341-4-2-6-0-8-1-1-1-5-0-3-3-1-8-3-8-7-7-7-2-4-9-7-2-3-5-16-5-2" data-name="path26341-4-2-6-0-8-1-1-1-5-0-3-3-1-8-3-8-7-7-7-2-4-9-7-2-3-5-16-5" class="cls-16" d="M63.1,161.162v-2.83H60.835v2.83Z"/>
    </g>
    <g id="T-SOT23-3">
      <path id="path3479-7-2-2" class="cls-17" d="M54.284,176.268h1.57v2.57h-1.57Z"/>
      <path id="path3481-0-2-2" class="cls-18" d="M54.284,176.508h1.57v.85h-1.57Z"/>
      <path id="path3483-6-2" class="cls-17" d="M59.773,176.268h1.6v2.57h-1.6Z"/>
      <path id="path3485-6-2" class="cls-18" d="M59.773,176.508h1.6v.85h-1.6Z"/>
      <path id="path3487-1-2-2" class="cls-17" d="M56.993,172.809h1.621v-2.56H56.993Z"/>
      <path id="path3489-6-2-2" class="cls-18" d="M56.993,172.509h1.621v-.79H56.993Z"/>
      <path id="path3477-9-2" class="cls-16" d="M53.594,172.8h8.42v3.48h-8.42Z"/>
    </g>
    <g>
      <g>
        <path class="cls-19" d="M54.264,127.545a3.384,3.384,0,0,1-3.384,3.384,3.667,3.667,0,0,1-3.7-3.384,3.357,3.357,0,0,1,.027-.428,3.715,3.715,0,0,1,3.672-2.956A3.384,3.384,0,0,1,54.264,127.545Z"/>
        <circle class="cls-19" cx="57.88" cy="127.545" r="3.384"/>
        <path class="cls-19" d="M68.592,127.545a3.68,3.68,0,0,1-3.712,3.384,3.384,3.384,0,1,1,0-6.768A3.68,3.68,0,0,1,68.592,127.545Z"/>
      </g>
      <line class="cls-19" x1="47.208" y1="126.753" x2="47.208" y2="141.928"/>
      <line class="cls-19" x1="68.592" y1="127.545" x2="68.592" y2="141.928"/>
      <rect class="cls-19" x="50.88" y="138.345" width="14" height="4.32"/>
      <line class="cls-19" x1="57.9" y1="138.393" x2="57.9" y2="142.713"/>
    </g>
    <g>
      <g>
        <path class="cls-4" d="M50.64,122.855A2.351,2.351,0,0,0,48.3,125.2v5.1a2.345,2.345,0,1,0,4.689,0v-5.1A2.351,2.351,0,0,0,50.64,122.855Zm0,6.313a1.418,1.418,0,1,1,1.417-1.417A1.422,1.422,0,0,1,50.64,129.168Z"/>
        <path class="cls-4" d="M57.9,122.855a2.351,2.351,0,0,0-2.345,2.344v5.1a2.345,2.345,0,1,0,4.689,0v-5.1A2.351,2.351,0,0,0,57.9,122.855Zm0,6.313a1.418,1.418,0,1,1,1.417-1.417A1.422,1.422,0,0,1,57.9,129.168Z"/>
        <path class="cls-4" d="M65.16,122.855a2.351,2.351,0,0,0-2.345,2.344v5.1a2.345,2.345,0,1,0,4.689,0v-5.1A2.351,2.351,0,0,0,65.16,122.855Zm0,6.313a1.418,1.418,0,1,1,1.417-1.417A1.422,1.422,0,0,1,65.16,129.168Z"/>
      </g>
      <g>
        <path class="cls-4" d="M57.9,133.2a1.418,1.418,0,1,1-1.418,1.418A1.422,1.422,0,0,1,57.9,133.2m0-.992a2.41,2.41,0,1,0,2.409,2.41,2.413,2.413,0,0,0-2.409-2.41Z"/>
        <path class="cls-4" d="M65.16,133.2a1.418,1.418,0,1,1-1.418,1.418A1.422,1.422,0,0,1,65.16,133.2m0-.992a2.41,2.41,0,1,0,2.409,2.41,2.413,2.413,0,0,0-2.409-2.41Z"/>
        <g>
          <path class="cls-4" d="M50.64,133.2a1.418,1.418,0,1,1-1.418,1.418A1.422,1.422,0,0,1,50.64,133.2m0-.992a2.41,2.41,0,1,0,2.409,2.41,2.413,2.413,0,0,0-2.409-2.41Z"/>
          <path class="cls-4" d="M52.057,133.2v2.835H49.222V133.2h2.835m.992-.992H48.23v4.819h4.819v-4.819Z"/>
        </g>
      </g>
    </g>
  </g>
</svg>
