<svg id="motor-dc-12mm" xmlns="http://www.w3.org/2000/svg" width="39.9438mm" height="12.2365mm" viewBox="0 0 113.2266 34.6862">
  <defs>
    <style>
      .cls-1, .cls-2 {
        fill: none;
        stroke-linecap: round;
        stroke-width: 2.8346px;
      }

      .cls-1 {
        stroke: red;
      }

      .cls-17, .cls-2 {
        stroke: #000;
      }

      .cls-3 {
        fill: #999;
        stroke: #6d6d6d;
        stroke-width: 0.3014px;
      }

      .cls-4 {
        fill: #ccc;
      }

      .cls-15, .cls-16, .cls-4 {
        opacity: 0.35;
      }

      .cls-10, .cls-15, .cls-16, .cls-4, .cls-9 {
        isolation: isolate;
      }

      .cls-5 {
        fill: #878787;
      }

      .cls-6 {
        fill: #4d4d4d;
      }

      .cls-7 {
        fill: #b3b3b3;
      }

      .cls-8 {
        fill: #333;
      }

      .cls-9 {
        fill: #686868;
        opacity: 0.5;
      }

      .cls-10, .cls-12, .cls-16 {
        fill: #fff;
      }

      .cls-10, .cls-11 {
        opacity: 0.16;
      }

      .cls-13 {
        fill: #6b6b6b;
      }

      .cls-14 {
        fill: #2d2d2d;
      }

      .cls-17 {
        fill: #666;
        stroke-width: 0.0325px;
      }

      .cls-18 {
        fill: #d4aa00;
      }

      .cls-19 {
        fill: #a80;
      }
    </style>
  </defs>
  <title>motor-dc-12mm</title>
  <g>
    <line class="cls-1" x1="1.4173" y1="3.7028" x2="16.7507" y2="3.7028"/>
    <line class="cls-2" x1="1.4173" y1="31.1408" x2="16.7507" y2="31.1408"/>
  </g>
  <g id="motor">
    <path id="path50255" class="cls-3" d="M63.1377,4.9657a1.7048,1.7048,0,0,0-1.6695-1.7306H61.45c-.92,0-1.6706-.5679-1.6706-1.2592S59.03.7174,58.11.7174H17.0846V34.1215H58.11c.92,0,1.6694-.568,1.6694-1.2593s.7511-1.2586,1.6706-1.2586h.0183a1.7059,1.7059,0,0,0,1.6694-1.7318Z" transform="translate(-0.0001 0.0013)"/>
    <path id="path50259" class="cls-4" d="M61.72,29.6061h-.0173c-.9137,0-1.8273.37-1.8273.822s-.5785.8219-1.4909.8219H20.45v2.7193H58.0514a1.5034,1.5034,0,0,0,1.6565-1.2549c0-.6895.748-1.2549,1.6587-1.2549h.0183a1.6966,1.6966,0,0,0,1.6576-1.7245V28.4764c0,.6216-.4106,1.13-1.3231,1.13Z" transform="translate(-0.0001 0.0013)"/>
    <rect id="rect50261" class="cls-5" x="13.727" y="16.4934" width="0.7164" height="1.857"/>
    <rect id="rect50263" class="cls-6" x="16.5751" y="15.7172" width="6.0332" height="3.4099"/>
    <rect id="rect50265" class="cls-7" x="14.4448" y="11.9292" width="2.1302" height="10.9846"/>
    <polygon id="polygon50267" class="cls-8" points="22.608 16.285 22.608 18.557 16.575 18.557 16.575 34.435 21.002 34.435 21.002 19.127 22.608 19.127 22.608 15.717 21.002 15.717 21.002 0.408 16.575 0.408 16.575 16.285 22.608 16.285"/>
    <path id="path50271" class="cls-9" d="M60.2141,17.5454c0,8.1036-.4465,14.6689-.4465,14.6689V2.8785S60.2141,9.4469,60.2141,17.5454Z" transform="translate(-0.0001 0.0013)"/>
    <path id="path50273" class="cls-10" d="M59.092,11.3008a1.7407,1.7407,0,0,1-1.8738,1.5658H24.514a1.6972,1.6972,0,0,1-1.8732-1.5007L22.64,11.36V3.5484a1.7875,1.7875,0,0,1,1.8738-1.6292H57.2182A1.7419,1.7419,0,0,1,59.092,3.4873Z" transform="translate(-0.0001 0.0013)"/>
    <g id="g50277" class="cls-11">
      <path id="path50275" class="cls-12" d="M62.4943,11.5078a.8532.8532,0,0,1-.8347.8653h-.2073a.8541.8541,0,0,1-.8347-.8653V5.1a.8536.8536,0,0,1,.8347-.8653H61.66a.8535.8535,0,0,1,.8347.8653Z" transform="translate(-0.0001 0.0013)"/>
    </g>
    <g id="g50283">
      <path id="path50279" d="M54.5149,15.4662a1.1271,1.1271,0,0,1-1.1051-1.145V9.1781a1.1058,1.1058,0,0,1,2.21-.0842c.0011.0281.0011.0561,0,.0842v5.1431A1.1273,1.1273,0,0,1,54.5149,15.4662Z" transform="translate(-0.0001 0.0013)"/>
      <path id="path50281" class="cls-13" d="M54.5149,8.3372a.8269.8269,0,0,1,.81.8409v5.1431a.8111.8111,0,0,1-1.6211.06q-.0011-.03,0-.06V9.1781a.8267.8267,0,0,1,.8106-.8409m0-.6106a1.4262,1.4262,0,0,0-1.4,1.4515v5.143a1.4,1.4,0,0,0,2.7992.067q.0009-.0336,0-.067V9.1781a1.4262,1.4262,0,0,0-1.3987-1.4515Z" transform="translate(-0.0001 0.0013)"/>
    </g>
    <g id="g50289">
      <path id="path50285" d="M54.5149,26.8087A1.1275,1.1275,0,0,1,53.41,25.6631V20.5206a1.1058,1.1058,0,0,1,2.21-.0842c.0011.0281.0011.0561,0,.0842v5.1425A1.1275,1.1275,0,0,1,54.5149,26.8087Z" transform="translate(-0.0001 0.0013)"/>
      <path id="path50287" class="cls-13" d="M54.5149,19.68a.827.827,0,0,1,.81.8408v5.1425a.8111.8111,0,0,1-1.6211.06q-.0011-.03,0-.06V20.5206a.8271.8271,0,0,1,.8106-.8408m0-.6107a1.4262,1.4262,0,0,0-1.4,1.4515v5.1425a1.4,1.4,0,1,0,2.7992.1c.0012-.0334.0012-.067,0-.1V20.5206a1.4266,1.4266,0,0,0-1.3987-1.4515Z" transform="translate(-0.0001 0.0013)"/>
    </g>
    <g id="g50295">
      <path id="path50291" d="M54.5149,4.1236A1.1278,1.1278,0,0,1,53.41,2.9786V.7125h2.21V2.9786A1.1269,1.1269,0,0,1,54.5149,4.1236Z" transform="translate(-0.0001 0.0013)"/>
      <path id="path50293" class="cls-13" d="M55.3254,1.0178V2.9786a.8111.8111,0,0,1-1.6211.06q-.0011-.03,0-.06V1.0178h1.6211m.5891-.6107H53.1153V2.9786a1.4,1.4,0,1,0,2.7992.067q.0009-.0336,0-.067Z" transform="translate(-0.0001 0.0013)"/>
    </g>
    <g id="g50301">
      <path id="path50297" d="M53.41,34.1287V31.8625a1.1058,1.1058,0,0,1,2.21-.0842c.0011.0281.0011.0561,0,.0842v2.2662Z" transform="translate(-0.0001 0.0013)"/>
      <path id="path50299" class="cls-13" d="M54.5149,31.0217a.827.827,0,0,1,.81.8408v1.9609H53.7043V31.8625a.8271.8271,0,0,1,.8106-.8408m0-.6107a1.4254,1.4254,0,0,0-1.4,1.45v2.5728h2.7992V31.8625A1.4265,1.4265,0,0,0,54.5149,30.411Z" transform="translate(-0.0001 0.0013)"/>
    </g>
    <g id="g50253">
      <rect id="rect50245" class="cls-5" x="60.8709" y="14.7135" width="4.1776" height="5.493"/>
      <rect id="rect50247" class="cls-14" x="60.8709" y="14.7135" width="0.1452" height="5.493"/>
      <rect id="rect50249" class="cls-15" x="60.8709" y="19.5743" width="4.1776" height="0.6285"/>
      <path id="path50251" class="cls-16" d="M64.9529,16.2258c0,.307-.0885.555-.1986.555H60.75c-.11,0-.1987-.2263-.1987-.5334v-.4443c0-.3082.0892-.5767.1987-.5767h4.0047c.11,0,.1986.2492.1986.5551Z" transform="translate(-0.0001 0.0013)"/>
    </g>
  </g>
  <g id="shaft">
    <rect id="rect57469" class="cls-5" x="70.9989" y="14.7445" width="42.2277" height="5.493"/>
    <rect id="rect57471" class="cls-14" x="70.9989" y="14.7445" width="1.4678" height="5.493"/>
    <rect id="rect57473" class="cls-15" x="70.9989" y="19.6054" width="42.2277" height="0.6285"/>
    <path id="path57475" class="cls-16" d="M112.26,16.2568c0,.307-.895.5551-2.008.5551h-40.48c-1.1066,0-2.0081-.2264-2.0081-.5334v-.4443c0-.3083.9015-.5768,2.0081-.5768h40.48c1.113,0,2.008.2493,2.008.5551Z" transform="translate(-0.0001 0.0013)"/>
  </g>
  <g id="reducer">
    <rect id="rect57453" class="cls-17" x="71.4869" y="19.5693" width="3.2629" height="13.806"/>
    <rect id="rect57455" class="cls-17" x="62.908" y="25.4567" width="19.8505" height="1.8867"/>
    <g id="g57437">
      <rect id="rect57429" class="cls-18" x="61.0454" y="25.7797" width="21.3614" height="8.0979"/>
      <rect id="rect57431" class="cls-14" x="61.0454" y="25.7797" width="0.7426" height="8.0979"/>
      <rect id="rect57433" class="cls-15" x="61.0454" y="32.9456" width="21.3614" height="0.9266"/>
      <path id="path57435" class="cls-16" d="M81.9178,28.01a.9314.9314,0,0,1-1.0158.8183H60.4248c-.56,0-1.0158-.3337-1.0158-.7863v-.655a.9558.9558,0,0,1,1.0158-.85H80.902a.9325.9325,0,0,1,1.0158.8183Z" transform="translate(-0.0001 0.0013)"/>
    </g>
    <g id="g57427">
      <rect id="rect57409" class="cls-18" x="61.0454" y="0.8109" width="21.3614" height="8.0979"/>
      <rect id="rect57411" class="cls-14" x="61.0454" y="0.8109" width="0.7426" height="8.0979"/>
      <rect id="rect57413" class="cls-15" x="61.0454" y="7.9768" width="21.3614" height="0.9266"/>
      <path id="path57415" class="cls-16" d="M81.9178,3.0409a.9314.9314,0,0,1-1.0158.8183H60.4248c-.56,0-1.0158-.3337-1.0158-.7863v-.655a.9558.9558,0,0,1,1.0158-.85H80.902a.9325.9325,0,0,1,1.0158.8183Z" transform="translate(-0.0001 0.0013)"/>
    </g>
    <path id="rect57441" class="cls-19" d="M60.6538.1447h1.5481a.8139.8139,0,0,1,.8574.7619V33.9217a.814.814,0,0,1-.8574.762H60.6538a.8141.8141,0,0,1-.8574-.762V.9066A.8139.8139,0,0,1,60.6538.1447Z" transform="translate(-0.0001 0.0013)"/>
    <rect id="rect57457" class="cls-17" x="68.5404" y="9.5828" width="15.5352" height="2.755"/>
    <rect id="rect57459" class="cls-17" x="71.4869" y="7.6909" width="3.2629" height="11.6508"/>
    <rect id="rect57461" class="cls-17" x="76.4729" y="3.976" width="3.2629" height="13.806"/>
    <rect id="rect57439" class="cls-17" x="63.5418" y="12.048" width="3.2629" height="17.5541"/>
    <rect id="rect57463" class="cls-17" x="76.4323" y="20.8241" width="3.2629" height="11.5739"/>
    <path id="rect57445" class="cls-19" d="M68.1471.0724h1.5481a1.0037,1.0037,0,0,1,.8574,1.1031v32.405a1.0039,1.0039,0,0,1-.8574,1.1032H68.1471a1.004,1.004,0,0,1-.8574-1.1032V1.1755A1.0039,1.0039,0,0,1,68.1471.0724Z" transform="translate(-0.0001 0.0013)"/>
    <path id="rect57465" class="cls-19" d="M82.4747,0h1.5482A.8137.8137,0,0,1,84.88.7619V33.7771a.8139.8139,0,0,1-.8573.762H82.4747a.8141.8141,0,0,1-.8574-.762V.7619A.8139.8139,0,0,1,82.4747,0Z" transform="translate(-0.0001 0.0013)"/>
  </g>
</svg>
