<svg id="nextion-io-expansion-board" xmlns="http://www.w3.org/2000/svg" xmlns:xlink="http://www.w3.org/1999/xlink" width="136.993mm" height="45mm" viewBox="0 0 388.326 127.559">
  <defs>
    <style>
      .cls-1 {
        fill: #04417c;
      }

      .cls-2 {
        fill: #cccab4;
      }

      .cls-3, .cls-34, .cls-35, .cls-41, .cls-43, .cls-44, .cls-45, .cls-7 {
        fill: #fff;
      }

      .cls-19, .cls-25, .cls-27, .cls-4, .cls-5 {
        fill: none;
      }

      .cls-4, .cls-5 {
        stroke: #f7931e;
      }

      .cls-19, .cls-23, .cls-24, .cls-25, .cls-27, .cls-4, .cls-5 {
        stroke-miterlimit: 10;
      }

      .cls-4 {
        stroke-width: 0.5px;
      }

      .cls-25, .cls-27, .cls-5 {
        stroke-width: 0.283px;
      }

      .cls-6 {
        fill: #f7931e;
      }

      .cls-12, .cls-32, .cls-34, .cls-35, .cls-7 {
        isolation: isolate;
      }

      .cls-43, .cls-7 {
        font-size: 4px;
      }

      .cls-41, .cls-43, .cls-44, .cls-45, .cls-7 {
        font-family: TrebuchetMS, Trebuchet MS;
      }

      .cls-8 {
        fill: #ebdeb6;
      }

      .cls-9 {
        fill: #b3b3b3;
      }

      .cls-10 {
        fill: #494949;
      }

      .cls-11 {
        fill: #dddbd9;
      }

      .cls-12, .cls-16 {
        fill: #d2d1d3;
      }

      .cls-12 {
        opacity: 0.507;
      }

      .cls-13 {
        fill: gray;
      }

      .cls-14 {
        fill: #dcc580;
      }

      .cls-15 {
        fill: #242424;
      }

      .cls-17 {
        fill: #b7b8b9;
      }

      .cls-18 {
        fill: #d7d3d5;
      }

      .cls-19, .cls-27 {
        stroke: #fff;
      }

      .cls-19 {
        stroke-width: 0.283px;
      }

      .cls-20 {
        fill: #966432;
      }

      .cls-21 {
        fill: #bbffd0;
      }

      .cls-22 {
        fill: #545152;
      }

      .cls-23 {
        fill: #3c3c3b;
      }

      .cls-23, .cls-24 {
        stroke: #13100d;
        stroke-width: 0.028px;
      }

      .cls-24 {
        fill: #13100d;
      }

      .cls-25 {
        stroke: #333;
      }

      .cls-26 {
        fill: #333;
      }

      .cls-28 {
        fill: #8c8c8c;
      }

      .cls-29 {
        fill: #999;
      }

      .cls-30 {
        fill: #3f3f3f;
      }

      .cls-31 {
        fill: url(#Безымянный_градиент_2);
      }

      .cls-32, .cls-35 {
        opacity: 0.6;
      }

      .cls-33 {
        fill: #f36a52;
      }

      .cls-34 {
        opacity: 0.5;
      }

      .cls-36 {
        fill: url(#Безымянный_градиент_2-2);
      }

      .cls-37 {
        fill: url(#Безымянный_градиент_2-3);
      }

      .cls-38 {
        fill: url(#Безымянный_градиент_2-4);
      }

      .cls-39 {
        fill: url(#Безымянный_градиент_2-5);
      }

      .cls-40 {
        fill: url(#Безымянный_градиент_2-6);
      }

      .cls-41 {
        font-size: 5px;
      }

      .cls-42 {
        letter-spacing: -0.018em;
      }

      .cls-44 {
        font-size: 10px;
      }

      .cls-45 {
        font-size: 7px;
      }
    </style>
    <linearGradient id="Безымянный_градиент_2" data-name="Безымянный градиент 2" x1="-24827.225" y1="-16215.03" x2="-24816.925" y2="-16215.03" gradientTransform="translate(25050.837 16324.471)" gradientUnits="userSpaceOnUse">
      <stop offset="0" stop-color="#333"/>
      <stop offset="1" stop-color="#3c3c3c"/>
    </linearGradient>
    <linearGradient id="Безымянный_градиент_2-2" x1="-24909.964" y1="-16215.016" x2="-24899.664" y2="-16215.016" xlink:href="#Безымянный_градиент_2"/>
    <linearGradient id="Безымянный_градиент_2-3" x1="-24909.964" y1="-16285.016" x2="-24899.664" y2="-16285.016" xlink:href="#Безымянный_градиент_2"/>
    <linearGradient id="Безымянный_градиент_2-4" x1="-24826.964" y1="-16285.016" x2="-24816.664" y2="-16285.016" xlink:href="#Безымянный_градиент_2"/>
    <linearGradient id="Безымянный_градиент_2-5" x1="-24867.981" y1="-16306.506" x2="-24857.681" y2="-16306.506" xlink:href="#Безымянный_градиент_2"/>
    <linearGradient id="Безымянный_градиент_2-6" x1="-24867.981" y1="-16261.506" x2="-24857.681" y2="-16261.506" xlink:href="#Безымянный_градиент_2"/>
  </defs>
  <title>nextion-io-expansion-board</title>
  <g id="nextion-io-expansion-board-2" data-name="nextion-io-expansion-board">
    <g id="bottom">
      <path class="cls-1" d="M204.074,8.15V119.409a8.174,8.174,0,0,0,8.15,8.15H382.886a5.456,5.456,0,0,0,5.44-5.44V8.15A8.175,8.175,0,0,0,380.176,0H212.224A8.174,8.174,0,0,0,204.074,8.15Zm169.8,109.488a4.536,4.536,0,1,1,4.535,4.536A4.549,4.549,0,0,1,373.873,117.638Zm0-107.717a4.536,4.536,0,1,1,4.535,4.535A4.549,4.549,0,0,1,373.873,9.921ZM361.2,115.008a1.418,1.418,0,1,1,1.418,1.417A1.422,1.422,0,0,1,361.2,115.008Zm0-7.209a1.418,1.418,0,1,1,1.418,1.417A1.422,1.422,0,0,1,361.2,107.8Zm-7.2,7.209a1.418,1.418,0,1,1,1.418,1.417A1.422,1.422,0,0,1,354,115.008Zm0-7.209a1.418,1.418,0,1,1,1.418,1.417A1.422,1.422,0,0,1,354,107.8Zm-7.2,7.209a1.422,1.422,0,0,1,1.418-1.417h0a1.417,1.417,0,1,1,0,2.834h0A1.421,1.421,0,0,1,346.8,115.008Zm0-7.209a1.422,1.422,0,0,1,1.418-1.418h0a1.418,1.418,0,0,1,0,2.835h0A1.422,1.422,0,0,1,346.8,107.8Zm-7.2,7.209a1.418,1.418,0,1,1,1.418,1.417A1.422,1.422,0,0,1,339.6,115.008Zm0-7.209a1.418,1.418,0,1,1,1.418,1.417A1.422,1.422,0,0,1,339.6,107.8Zm-7.2,7.209a1.418,1.418,0,1,1,1.418,1.417A1.422,1.422,0,0,1,332.4,115.008Zm0-7.209a1.418,1.418,0,1,1,1.418,1.417A1.422,1.422,0,0,1,332.4,107.8Zm-122.941,9.839a4.536,4.536,0,1,1,4.535,4.536A4.549,4.549,0,0,1,209.456,117.638Zm0-107.717a4.536,4.536,0,1,1,4.535,4.535A4.549,4.549,0,0,1,209.456,9.921Z"/>
      <g>
        <path class="cls-2" d="M371.22,9.921a7.188,7.188,0,1,0,7.188-7.188A7.21,7.21,0,0,0,371.22,9.921Zm12.336-.285a.666.666,0,1,1,.666.666A.668.668,0,0,1,383.556,9.636Zm-4.374-5.43a.666.666,0,1,1-.666-.666A.668.668,0,0,1,379.182,4.206Zm3.942,1.674a.666.666,0,1,1-.666-.666A.668.668,0,0,1,383.124,5.88Zm-1.332,8.088a.666.666,0,1,1,.666.666A.668.668,0,0,1,381.792,13.968Zm-3.942,1.668a.666.666,0,1,1,.666.666A.668.668,0,0,1,377.85,15.636Zm-3.977-5.715a4.536,4.536,0,1,1,4.535,4.535A4.549,4.549,0,0,1,373.873,9.921Zm-.27,4.047a.666.666,0,1,1,.666.666A.668.668,0,0,1,373.6,13.968ZM373.5,5.88a.666.666,0,1,1,.666.666A.668.668,0,0,1,373.5,5.88Zm-1.566,3.756a.666.666,0,1,1,.666.666A.668.668,0,0,1,371.929,9.636Z"/>
        <path class="cls-2" d="M206.8,9.921a7.188,7.188,0,1,0,7.188-7.188A7.21,7.21,0,0,0,206.8,9.921Zm12.336-.285a.666.666,0,1,1,.666.666A.668.668,0,0,1,219.139,9.636Zm-4.374-5.43a.666.666,0,1,1-.666-.666A.668.668,0,0,1,214.765,4.206Zm3.942,1.674a.666.666,0,1,1-.666-.666A.668.668,0,0,1,218.707,5.88Zm-1.332,8.088a.666.666,0,1,1,.666.666A.668.668,0,0,1,217.375,13.968Zm-3.942,1.668a.666.666,0,1,1,.666.666A.668.668,0,0,1,213.433,15.636Zm-3.977-5.715a4.536,4.536,0,1,1,4.535,4.535A4.549,4.549,0,0,1,209.456,9.921Zm-.27,4.047a.666.666,0,1,1,.666.666A.668.668,0,0,1,209.186,13.968Zm-.108-8.088a.666.666,0,1,1,.666.666A.668.668,0,0,1,209.078,5.88Zm-1.566,3.756a.666.666,0,1,1,.666.666A.668.668,0,0,1,207.512,9.636Z"/>
        <path class="cls-2" d="M206.8,117.638a7.188,7.188,0,1,0,7.188-7.188A7.209,7.209,0,0,0,206.8,117.638Zm12.336-.285a.666.666,0,1,1,.666.666A.668.668,0,0,1,219.139,117.353Zm-4.374-5.43a.666.666,0,1,1-.666-.666A.668.668,0,0,1,214.765,111.923Zm3.942,1.674a.666.666,0,1,1-.666-.666A.668.668,0,0,1,218.707,113.6Zm-1.332,8.088a.666.666,0,1,1,.666.666A.668.668,0,0,1,217.375,121.685Zm-3.942,1.668a.666.666,0,1,1,.666.666A.668.668,0,0,1,213.433,123.353Zm-3.977-5.715a4.536,4.536,0,1,1,4.535,4.536A4.549,4.549,0,0,1,209.456,117.638Zm-.27,4.047a.666.666,0,1,1,.666.666A.668.668,0,0,1,209.186,121.685Zm-.108-8.088a.666.666,0,1,1,.666.666A.668.668,0,0,1,209.078,113.6Zm-1.566,3.756a.666.666,0,1,1,.666.666A.668.668,0,0,1,207.512,117.353Z"/>
        <path class="cls-2" d="M371.22,117.638a7.188,7.188,0,1,0,7.188-7.188A7.209,7.209,0,0,0,371.22,117.638Zm12.336-.285a.666.666,0,1,1,.666.666A.668.668,0,0,1,383.556,117.353Zm-4.374-5.43a.666.666,0,1,1-.666-.666A.668.668,0,0,1,379.182,111.923Zm3.942,1.674a.666.666,0,1,1-.666-.666A.668.668,0,0,1,383.124,113.6Zm-1.332,8.088a.666.666,0,1,1,.666.666A.668.668,0,0,1,381.792,121.685Zm-3.942,1.668a.666.666,0,1,1,.666.666A.668.668,0,0,1,377.85,123.353Zm-3.977-5.715a4.536,4.536,0,1,1,4.535,4.536A4.549,4.549,0,0,1,373.873,117.638Zm-.27,4.047a.666.666,0,1,1,.666.666A.668.668,0,0,1,373.6,121.685ZM373.5,113.6a.666.666,0,1,1,.666.666A.668.668,0,0,1,373.5,113.6Zm-1.566,3.756a.666.666,0,1,1,.666.666A.668.668,0,0,1,371.929,117.353Z"/>
      </g>
      <g>
        <rect class="cls-3" x="381.792" y="5.214" width="1.332" height="1.332" rx="0.666" transform="translate(764.916 11.76) rotate(-180)"/>
        <rect class="cls-3" x="377.85" y="3.54" width="1.332" height="1.332" rx="0.666" transform="translate(757.031 8.412) rotate(-180)"/>
        <rect class="cls-3" x="373.495" y="5.214" width="1.332" height="1.332" rx="0.666" transform="translate(748.321 11.76) rotate(-180)"/>
        <rect class="cls-3" x="371.929" y="8.97" width="1.332" height="1.332" rx="0.666" transform="translate(745.189 19.272) rotate(180)"/>
        <rect class="cls-3" x="373.603" y="13.302" width="1.332" height="1.332" rx="0.666" transform="translate(748.537 27.936) rotate(-180)"/>
        <rect class="cls-3" x="377.85" y="14.97" width="1.332" height="1.332" rx="0.666" transform="translate(757.031 31.272) rotate(180)"/>
        <rect class="cls-3" x="381.792" y="13.302" width="1.332" height="1.332" rx="0.666" transform="translate(764.916 27.936) rotate(-180)"/>
        <rect class="cls-3" x="383.556" y="8.97" width="1.332" height="1.332" rx="0.666" transform="translate(768.444 19.272) rotate(-180)"/>
      </g>
      <g>
        <rect class="cls-3" x="381.792" y="112.931" width="1.332" height="1.332" rx="0.666" transform="translate(764.916 227.194) rotate(-180)"/>
        <rect class="cls-3" x="377.85" y="111.257" width="1.332" height="1.332" rx="0.666" transform="translate(757.031 223.846) rotate(-180)"/>
        <rect class="cls-3" x="373.495" y="112.931" width="1.332" height="1.332" rx="0.666" transform="translate(748.321 227.194) rotate(-180)"/>
        <rect class="cls-3" x="371.929" y="116.687" width="1.332" height="1.332" rx="0.666" transform="translate(745.189 234.706) rotate(-180)"/>
        <rect class="cls-3" x="373.603" y="121.019" width="1.332" height="1.332" rx="0.666" transform="translate(748.537 243.37) rotate(-180)"/>
        <rect class="cls-3" x="377.85" y="122.687" width="1.332" height="1.332" rx="0.666" transform="translate(757.031 246.706) rotate(180)"/>
        <rect class="cls-3" x="381.792" y="121.019" width="1.332" height="1.332" rx="0.666" transform="translate(764.916 243.37) rotate(-180)"/>
        <rect class="cls-3" x="383.556" y="116.687" width="1.332" height="1.332" rx="0.666" transform="translate(768.444 234.706) rotate(-180)"/>
      </g>
      <g>
        <rect class="cls-3" x="217.375" y="112.931" width="1.332" height="1.332" rx="0.666" transform="translate(436.082 227.194) rotate(180)"/>
        <rect class="cls-3" x="213.433" y="111.257" width="1.332" height="1.332" rx="0.666" transform="translate(428.198 223.846) rotate(180)"/>
        <rect class="cls-3" x="209.078" y="112.931" width="1.332" height="1.332" rx="0.666" transform="translate(419.488 227.194) rotate(-180)"/>
        <rect class="cls-3" x="207.512" y="116.687" width="1.332" height="1.332" rx="0.666" transform="translate(416.356 234.706) rotate(-180)"/>
        <rect class="cls-3" x="209.186" y="121.019" width="1.332" height="1.332" rx="0.666" transform="translate(419.704 243.37) rotate(-180)"/>
        <rect class="cls-3" x="213.433" y="122.687" width="1.332" height="1.332" rx="0.666" transform="translate(428.198 246.706) rotate(180)"/>
        <rect class="cls-3" x="217.375" y="121.019" width="1.332" height="1.332" rx="0.666" transform="translate(436.082 243.37) rotate(180)"/>
        <rect class="cls-3" x="219.139" y="116.687" width="1.332" height="1.332" rx="0.666" transform="translate(439.61 234.706) rotate(-180)"/>
      </g>
      <g>
        <rect class="cls-3" x="217.375" y="5.214" width="1.332" height="1.332" rx="0.666" transform="translate(436.082 11.76) rotate(-180)"/>
        <rect class="cls-3" x="213.433" y="3.54" width="1.332" height="1.332" rx="0.666" transform="translate(428.198 8.412) rotate(180)"/>
        <rect class="cls-3" x="209.078" y="5.214" width="1.332" height="1.332" rx="0.666" transform="translate(419.488 11.76) rotate(180)"/>
        <rect class="cls-3" x="207.512" y="8.97" width="1.332" height="1.332" rx="0.666" transform="translate(416.356 19.272) rotate(-180)"/>
        <rect class="cls-3" x="209.186" y="13.302" width="1.332" height="1.332" rx="0.666" transform="translate(419.704 27.936) rotate(-180)"/>
        <rect class="cls-3" x="213.433" y="14.97" width="1.332" height="1.332" rx="0.666" transform="translate(428.198 31.272) rotate(180)"/>
        <rect class="cls-3" x="217.375" y="13.302" width="1.332" height="1.332" rx="0.666" transform="translate(436.082 27.936) rotate(180)"/>
        <rect class="cls-3" x="219.139" y="8.97" width="1.332" height="1.332" rx="0.666" transform="translate(439.61 19.272) rotate(-180)"/>
      </g>
      <g>
        <rect class="cls-4" x="361.274" y="106.381" width="2.835" height="2.835" rx="1.417" transform="translate(725.382 215.598) rotate(-180)"/>
        <rect class="cls-4" x="354.074" y="106.381" width="2.835" height="2.835" rx="1.417" transform="translate(710.982 215.598) rotate(-180)"/>
        <rect class="cls-4" x="346.874" y="106.381" width="2.835" height="2.835" rx="1.417" transform="matrix(-1, 0, 0, -1, 696.582, 215.598)"/>
        <rect class="cls-4" x="339.674" y="106.381" width="2.835" height="2.835" rx="1.417" transform="matrix(-1, 0, 0, -1, 682.182, 215.598)"/>
        <rect class="cls-4" x="332.474" y="106.381" width="2.835" height="2.835" rx="1.417" transform="translate(667.782 215.598) rotate(-180)"/>
        <rect class="cls-5" x="361.274" y="113.591" width="2.835" height="2.835" rx="1.417" transform="translate(725.382 230.016) rotate(-180)"/>
        <path class="cls-6" d="M360.976,113.368v3.319h3.384v-3.319Zm.3,1.64a1.417,1.417,0,1,1,1.417,1.417A1.421,1.421,0,0,1,361.274,115.008Z"/>
        <rect class="cls-4" x="354.074" y="113.591" width="2.835" height="2.835" rx="1.417" transform="translate(710.982 230.016) rotate(-180)"/>
        <rect class="cls-4" x="346.874" y="113.591" width="2.835" height="2.835" rx="1.417" transform="translate(696.582 230.016) rotate(-180)"/>
        <rect class="cls-4" x="339.674" y="113.591" width="2.835" height="2.835" rx="1.417" transform="matrix(-1, 0, 0, -1, 682.182, 230.016)"/>
        <rect class="cls-4" x="332.474" y="113.591" width="2.835" height="2.835" rx="1.417" transform="translate(667.782 230.016) rotate(-180)"/>
      </g>
    </g>
    <g id="top">
      <path class="cls-1" d="M176.208,0H8.257A8.174,8.174,0,0,0,.107,8.15V122.119a5.456,5.456,0,0,0,5.44,5.44H176.208a8.174,8.174,0,0,0,8.15-8.15V8.15A8.174,8.174,0,0,0,176.208,0ZM10.024,122.174a4.536,4.536,0,1,1,4.536-4.536A4.549,4.549,0,0,1,10.024,122.174Zm0-107.718A4.536,4.536,0,1,1,14.56,9.921,4.549,4.549,0,0,1,10.024,14.456ZM25.818,116.425a1.417,1.417,0,1,1,1.417-1.417A1.42,1.42,0,0,1,25.818,116.425Zm0-7.209a1.418,1.418,0,1,1,1.417-1.417A1.421,1.421,0,0,1,25.818,109.216Zm7.2,7.209a1.417,1.417,0,1,1,1.417-1.417A1.421,1.421,0,0,1,33.018,116.425Zm0-7.209a1.418,1.418,0,1,1,1.417-1.417A1.422,1.422,0,0,1,33.018,109.216Zm7.2,7.209h0a1.417,1.417,0,1,1,0-2.834h0a1.417,1.417,0,0,1,0,2.834Zm0-7.209h0a1.418,1.418,0,1,1,0-2.835h0a1.418,1.418,0,0,1,0,2.835Zm7.2,7.209a1.417,1.417,0,1,1,1.417-1.417A1.421,1.421,0,0,1,47.418,116.425Zm0-7.209a1.418,1.418,0,1,1,1.417-1.417A1.422,1.422,0,0,1,47.418,109.216Zm7.2,7.209a1.417,1.417,0,1,1,1.417-1.417A1.421,1.421,0,0,1,54.618,116.425Zm0-7.209a1.418,1.418,0,1,1,1.417-1.417A1.422,1.422,0,0,1,54.618,109.216Zm119.823,12.958a4.536,4.536,0,1,1,4.535-4.536A4.549,4.549,0,0,1,174.441,122.174Zm0-107.718a4.536,4.536,0,1,1,4.535-4.535A4.549,4.549,0,0,1,174.441,14.456Z"/>
      <g>
        <g>
          <text class="cls-7" transform="translate(21.114 98.216)">+5V</text>
          <text class="cls-7" transform="translate(21.114 66.223)">GND</text>
          <text class="cls-7" transform="translate(21.114 94.662)">I0_7</text>
          <text class="cls-7" transform="translate(21.114 73.332)">I0_1</text>
          <text class="cls-7" transform="translate(21.114 76.887)">I0_2</text>
          <text class="cls-7" transform="translate(21.114 80.442)">I0_3</text>
          <text class="cls-7" transform="translate(21.114 83.997)">I0_4</text>
          <text class="cls-7" transform="translate(21.114 87.552)">I0_5</text>
          <text class="cls-7" transform="translate(21.114 91.106)">I0_6</text>
          <text class="cls-7" transform="translate(21.114 69.778)">I0_0</text>
        </g>
        <g>
          <g>
            <g>
              <path id="rect27317-5-2-2-2" class="cls-8" d="M9.433,104.882H4.045V56.693H9.433l2.632,3.07v41.589l-2.632,3.376Z"/>
              <rect id="rect27317-6-2" class="cls-9" x="9.452" y="100.917" width="4.757" height="3.965"/>
              <rect id="rect27317-6-5-2-3" class="cls-9" x="9.452" y="56.693" width="4.738" height="4.384"/>
            </g>
            <rect id="rect27317-3-8-2-2-2" class="cls-10" y="56.693" width="4.581" height="48.189"/>
          </g>
          <rect class="cls-11" x="4.695" y="58.819" width="9.514" height="43.937"/>
          <g>
            <g>
              <g>
                <rect id="rect21332-8-1-9-3-8-2-40-6-2-0-6-4-9-2-4-6-3-2-0-1-7-7-10-6-8-2-7-8-4-61-2" class="cls-12" x="16.181" y="65.117" width="1.214" height="1.694"/>
                <rect id="rect36049-9-4-8-0-6-2-1-3-5-82-5-6-5-6-4-1-6-2" class="cls-9" x="14.209" y="65.359" width="2.731" height="1.21"/>
                <rect id="rect36051-8-8-2-7-2-0-4-8-2-2-5-8-5-7-7-4-4-2" class="cls-13" x="15.119" y="65.359" width="0.91" height="1.21"/>
              </g>
              <rect class="cls-14" x="14.209" y="65.48" width="0.467" height="0.968"/>
            </g>
            <g>
              <g>
                <rect id="rect21332-8-1-9-3-8-2-40-6-2-0-6-4-9-2-4-6-3-2-0-1-7-7-10-6-8-2-7-8-4-61-2-2" class="cls-12" x="16.181" y="68.438" width="1.214" height="1.694"/>
                <rect id="rect36049-9-4-8-0-6-2-1-3-5-82-5-6-5-6-4-1-6-2-2" class="cls-9" x="14.209" y="68.68" width="2.731" height="1.21"/>
                <rect id="rect36051-8-8-2-7-2-0-4-8-2-2-5-8-5-7-7-4-4-2-2" class="cls-13" x="15.119" y="68.68" width="0.91" height="1.21"/>
              </g>
              <rect class="cls-14" x="14.209" y="68.801" width="0.467" height="0.968"/>
            </g>
            <g>
              <g>
                <rect id="rect21332-8-1-9-3-8-2-40-6-2-0-6-4-9-2-4-6-3-2-0-1-7-7-10-6-8-2-7-8-4-61-2-3" class="cls-12" x="16.181" y="71.76" width="1.214" height="1.694"/>
                <rect id="rect36049-9-4-8-0-6-2-1-3-5-82-5-6-5-6-4-1-6-2-3" class="cls-9" x="14.209" y="72.002" width="2.731" height="1.21"/>
                <rect id="rect36051-8-8-2-7-2-0-4-8-2-2-5-8-5-7-7-4-4-2-3" class="cls-13" x="15.119" y="72.002" width="0.91" height="1.21"/>
              </g>
              <rect class="cls-14" x="14.209" y="72.123" width="0.467" height="0.968"/>
            </g>
            <g>
              <g>
                <rect id="rect21332-8-1-9-3-8-2-40-6-2-0-6-4-9-2-4-6-3-2-0-1-7-7-10-6-8-2-7-8-4-61-2-4" class="cls-12" x="16.181" y="75.081" width="1.214" height="1.694"/>
                <rect id="rect36049-9-4-8-0-6-2-1-3-5-82-5-6-5-6-4-1-6-2-4" class="cls-9" x="14.209" y="75.323" width="2.731" height="1.21"/>
                <rect id="rect36051-8-8-2-7-2-0-4-8-2-2-5-8-5-7-7-4-4-2-4" class="cls-13" x="15.119" y="75.323" width="0.91" height="1.21"/>
              </g>
              <rect class="cls-14" x="14.209" y="75.444" width="0.467" height="0.968"/>
            </g>
            <g>
              <g>
                <rect id="rect21332-8-1-9-3-8-2-40-6-2-0-6-4-9-2-4-6-3-2-0-1-7-7-10-6-8-2-7-8-4-61-2-5" class="cls-12" x="16.181" y="78.402" width="1.214" height="1.694"/>
                <rect id="rect36049-9-4-8-0-6-2-1-3-5-82-5-6-5-6-4-1-6-2-5" class="cls-9" x="14.209" y="78.645" width="2.731" height="1.21"/>
                <rect id="rect36051-8-8-2-7-2-0-4-8-2-2-5-8-5-7-7-4-4-2-5" class="cls-13" x="15.119" y="78.645" width="0.91" height="1.21"/>
              </g>
              <rect class="cls-14" x="14.209" y="78.765" width="0.467" height="0.968"/>
            </g>
            <g>
              <g>
                <rect id="rect21332-8-1-9-3-8-2-40-6-2-0-6-4-9-2-4-6-3-2-0-1-7-7-10-6-8-2-7-8-4-61-2-6" class="cls-12" x="16.181" y="81.724" width="1.214" height="1.694"/>
                <rect id="rect36049-9-4-8-0-6-2-1-3-5-82-5-6-5-6-4-1-6-2-6" class="cls-9" x="14.209" y="81.966" width="2.731" height="1.21"/>
                <rect id="rect36051-8-8-2-7-2-0-4-8-2-2-5-8-5-7-7-4-4-2-6" class="cls-13" x="15.119" y="81.966" width="0.91" height="1.21"/>
              </g>
              <rect class="cls-14" x="14.209" y="82.087" width="0.467" height="0.968"/>
            </g>
            <g>
              <g>
                <rect id="rect21332-8-1-9-3-8-2-40-6-2-0-6-4-9-2-4-6-3-2-0-1-7-7-10-6-8-2-7-8-4-61-2-7" class="cls-12" x="16.181" y="85.045" width="1.214" height="1.694"/>
                <rect id="rect36049-9-4-8-0-6-2-1-3-5-82-5-6-5-6-4-1-6-2-7" class="cls-9" x="14.209" y="85.287" width="2.731" height="1.21"/>
                <rect id="rect36051-8-8-2-7-2-0-4-8-2-2-5-8-5-7-7-4-4-2-7" class="cls-13" x="15.119" y="85.287" width="0.91" height="1.21"/>
              </g>
              <rect class="cls-14" x="14.209" y="85.408" width="0.467" height="0.968"/>
            </g>
            <g>
              <g>
                <rect id="rect21332-8-1-9-3-8-2-40-6-2-0-6-4-9-2-4-6-3-2-0-1-7-7-10-6-8-2-7-8-4-61-2-8" class="cls-12" x="16.181" y="88.367" width="1.214" height="1.694"/>
                <rect id="rect36049-9-4-8-0-6-2-1-3-5-82-5-6-5-6-4-1-6-2-8" class="cls-9" x="14.209" y="88.609" width="2.731" height="1.21"/>
                <rect id="rect36051-8-8-2-7-2-0-4-8-2-2-5-8-5-7-7-4-4-2-8" class="cls-13" x="15.119" y="88.609" width="0.91" height="1.21"/>
              </g>
              <rect class="cls-14" x="14.209" y="88.73" width="0.467" height="0.968"/>
            </g>
            <g>
              <g>
                <rect id="rect21332-8-1-9-3-8-2-40-6-2-0-6-4-9-2-4-6-3-2-0-1-7-7-10-6-8-2-7-8-4-61-2-9-2" class="cls-12" x="16.181" y="91.688" width="1.214" height="1.694"/>
                <rect id="rect36049-9-4-8-0-6-2-1-3-5-82-5-6-5-6-4-1-6-2-9-2" class="cls-9" x="14.209" y="91.93" width="2.731" height="1.21"/>
                <rect id="rect36051-8-8-2-7-2-0-4-8-2-2-5-8-5-7-7-4-4-2-9-2" class="cls-13" x="15.119" y="91.93" width="0.91" height="1.21"/>
              </g>
              <rect class="cls-14" x="14.209" y="92.051" width="0.467" height="0.968"/>
            </g>
            <g>
              <g>
                <rect id="rect21332-8-1-9-3-8-2-40-6-2-0-6-4-9-2-4-6-3-2-0-1-7-7-10-6-8-2-7-8-4-61-2-10-2" class="cls-12" x="16.181" y="95.01" width="1.214" height="1.694"/>
                <rect id="rect36049-9-4-8-0-6-2-1-3-5-82-5-6-5-6-4-1-6-2-10-2" class="cls-9" x="14.209" y="95.252" width="2.731" height="1.21"/>
                <rect id="rect36051-8-8-2-7-2-0-4-8-2-2-5-8-5-7-7-4-4-2-10-2" class="cls-13" x="15.119" y="95.252" width="0.91" height="1.21"/>
              </g>
              <rect class="cls-14" x="14.209" y="95.373" width="0.467" height="0.968"/>
            </g>
          </g>
        </g>
      </g>
      <g id="T-SOT23-3">
        <path id="path3479-7-2-2" class="cls-9" d="M49.124,55.55v1.57h-2.57V55.55Z"/>
        <path id="path3481-0-2-2" class="cls-13" d="M48.884,55.55v1.57h-.85V55.55Z"/>
        <path id="path3483-6-2" class="cls-9" d="M49.124,61.039v1.6h-2.57v-1.6Z"/>
        <path id="path3485-6-2" class="cls-13" d="M48.884,61.039v1.6h-.85v-1.6Z"/>
        <path id="path3487-1-2-2" class="cls-9" d="M52.583,58.259V59.88h2.56V58.259Z"/>
        <path id="path3489-6-2-2" class="cls-13" d="M52.883,58.259V59.88h.79V58.259Z"/>
        <path id="path3477-9-2" class="cls-15" d="M52.593,54.86v8.42h-3.48V54.86Z"/>
      </g>
      <g id="T-SOT23-3-2" data-name="T-SOT23-3">
        <path id="path3479-7-2-2-2" data-name="path3479-7-2-2" class="cls-9" d="M49.124,67.55v1.57h-2.57V67.55Z"/>
        <path id="path3481-0-2-2-2" data-name="path3481-0-2-2" class="cls-13" d="M48.884,67.55v1.57h-.85V67.55Z"/>
        <path id="path3483-6-2-2" data-name="path3483-6-2" class="cls-9" d="M49.124,73.039v1.6h-2.57v-1.6Z"/>
        <path id="path3485-6-2-2" data-name="path3485-6-2" class="cls-13" d="M48.884,73.039v1.6h-.85v-1.6Z"/>
        <path id="path3487-1-2-2-2" data-name="path3487-1-2-2" class="cls-9" d="M52.583,70.259V71.88h2.56V70.259Z"/>
        <path id="path3489-6-2-2-2" data-name="path3489-6-2-2" class="cls-13" d="M52.883,70.259V71.88h.79V70.259Z"/>
        <path id="path3477-9-2-2" data-name="path3477-9-2" class="cls-15" d="M52.593,66.86v8.42h-3.48V66.86Z"/>
      </g>
      <g id="R-0603-stroke">
        <g id="R-0603-2">
          <rect id="rect21332-8-1-9-3-8-2-40-6-2-0-6-6-0-5-6-4-8-7-2-0-7-2-3-9-16-5-2" class="cls-16" x="34.138" y="60.117" width="2.268" height="2.26"/>
          <rect id="rect21332-8-1-9-3-8-2-40-6-2-0-6-6-0-5-6-4-8-7-2-0-7-2-3-10-16-5-2" class="cls-16" x="34.138" y="56.727" width="2.268" height="2.26"/>
          <path class="cls-17" d="M34.138,61.487v-3.87a.33.33,0,0,1,.277-.33h1.7a.307.307,0,0,1,.287.328h0v3.87a.312.312,0,0,1-.286.331H34.435a.321.321,0,0,1-.3-.321h0Z"/>
          <g id="path26345-3-6-9-3-6-4-2-5-6-8-7-9-0-90-3-1-3-9-2-2-8-5-0-2-3-5-16-5-2">
            <rect class="cls-18" x="34.138" y="57.707" width="2.268" height="3.68"/>
          </g>
          <path id="path26341-4-2-6-0-8-1-1-1-5-0-3-3-1-8-3-8-7-7-7-2-4-9-7-2-3-5-16-5-2" class="cls-15" d="M36.406,60.967V58.136H34.138v2.831Z"/>
        </g>
        <rect class="cls-19" x="33.288" y="56.008" width="3.968" height="7.087"/>
      </g>
      <g id="R-0603-stroke-2" data-name="R-0603-stroke">
        <g id="R-0603-2-2" data-name="R-0603-2">
          <rect id="rect21332-8-1-9-3-8-2-40-6-2-0-6-6-0-5-6-4-8-7-2-0-7-2-3-9-16-5-2-2" data-name="rect21332-8-1-9-3-8-2-40-6-2-0-6-6-0-5-6-4-8-7-2-0-7-2-3-9-16-5-2" class="cls-16" x="40.138" y="60.117" width="2.268" height="2.26"/>
          <rect id="rect21332-8-1-9-3-8-2-40-6-2-0-6-6-0-5-6-4-8-7-2-0-7-2-3-10-16-5-2-2" data-name="rect21332-8-1-9-3-8-2-40-6-2-0-6-6-0-5-6-4-8-7-2-0-7-2-3-10-16-5-2" class="cls-16" x="40.138" y="56.727" width="2.268" height="2.26"/>
          <path class="cls-17" d="M40.138,61.487v-3.87a.33.33,0,0,1,.277-.33h1.7a.307.307,0,0,1,.287.328h0v3.87a.312.312,0,0,1-.286.331H40.435a.321.321,0,0,1-.3-.321h0Z"/>
          <g id="path26345-3-6-9-3-6-4-2-5-6-8-7-9-0-90-3-1-3-9-2-2-8-5-0-2-3-5-16-5-2-2" data-name="path26345-3-6-9-3-6-4-2-5-6-8-7-9-0-90-3-1-3-9-2-2-8-5-0-2-3-5-16-5-2">
            <rect class="cls-18" x="40.138" y="57.707" width="2.268" height="3.68"/>
          </g>
          <path id="path26341-4-2-6-0-8-1-1-1-5-0-3-3-1-8-3-8-7-7-7-2-4-9-7-2-3-5-16-5-2-2" data-name="path26341-4-2-6-0-8-1-1-1-5-0-3-3-1-8-3-8-7-7-7-2-4-9-7-2-3-5-16-5-2" class="cls-15" d="M42.406,60.967V58.136H40.138v2.831Z"/>
        </g>
        <rect class="cls-19" x="39.288" y="56.008" width="3.968" height="7.087"/>
      </g>
      <g id="R-0603-stroke-3" data-name="R-0603-stroke">
        <g id="R-0603-2-3" data-name="R-0603-2">
          <rect id="rect21332-8-1-9-3-8-2-40-6-2-0-6-6-0-5-6-4-8-7-2-0-7-2-3-9-16-5-2-3" data-name="rect21332-8-1-9-3-8-2-40-6-2-0-6-6-0-5-6-4-8-7-2-0-7-2-3-9-16-5-2" class="cls-16" x="33.838" y="8.417" width="2.26" height="2.268"/>
          <rect id="rect21332-8-1-9-3-8-2-40-6-2-0-6-6-0-5-6-4-8-7-2-0-7-2-3-10-16-5-2-3" data-name="rect21332-8-1-9-3-8-2-40-6-2-0-6-6-0-5-6-4-8-7-2-0-7-2-3-10-16-5-2" class="cls-16" x="30.448" y="8.417" width="2.26" height="2.268"/>
          <path class="cls-17" d="M35.208,10.685h-3.87a.331.331,0,0,1-.33-.277v-1.7a.309.309,0,0,1,.329-.287h3.87a.31.31,0,0,1,.33.286v1.681a.319.319,0,0,1-.32.3h0Z"/>
          <g id="path26345-3-6-9-3-6-4-2-5-6-8-7-9-0-90-3-1-3-9-2-2-8-5-0-2-3-5-16-5-2-3" data-name="path26345-3-6-9-3-6-4-2-5-6-8-7-9-0-90-3-1-3-9-2-2-8-5-0-2-3-5-16-5-2">
            <rect class="cls-18" x="31.428" y="8.417" width="3.68" height="2.268"/>
          </g>
          <path id="path26341-4-2-6-0-8-1-1-1-5-0-3-3-1-8-3-8-7-7-7-2-4-9-7-2-3-5-16-5-2-3" data-name="path26341-4-2-6-0-8-1-1-1-5-0-3-3-1-8-3-8-7-7-7-2-4-9-7-2-3-5-16-5-2" class="cls-15" d="M34.688,8.417h-2.83v2.268h2.83Z"/>
        </g>
        <rect class="cls-19" x="29.729" y="7.567" width="7.087" height="3.968"/>
      </g>
      <g id="R-0603-stroke-4" data-name="R-0603-stroke">
        <g id="R-0603-2-4" data-name="R-0603-2">
          <rect id="rect21332-8-1-9-3-8-2-40-6-2-0-6-6-0-5-6-4-8-7-2-0-7-2-3-9-16-5-2-4" data-name="rect21332-8-1-9-3-8-2-40-6-2-0-6-6-0-5-6-4-8-7-2-0-7-2-3-9-16-5-2" class="cls-16" x="48.838" y="8.417" width="2.26" height="2.268"/>
          <rect id="rect21332-8-1-9-3-8-2-40-6-2-0-6-6-0-5-6-4-8-7-2-0-7-2-3-10-16-5-2-4" data-name="rect21332-8-1-9-3-8-2-40-6-2-0-6-6-0-5-6-4-8-7-2-0-7-2-3-10-16-5-2" class="cls-16" x="45.448" y="8.417" width="2.26" height="2.268"/>
          <path class="cls-17" d="M50.208,10.685h-3.87a.331.331,0,0,1-.33-.277v-1.7a.309.309,0,0,1,.329-.287h3.87a.31.31,0,0,1,.33.286v1.681a.319.319,0,0,1-.32.3h0Z"/>
          <g id="path26345-3-6-9-3-6-4-2-5-6-8-7-9-0-90-3-1-3-9-2-2-8-5-0-2-3-5-16-5-2-4" data-name="path26345-3-6-9-3-6-4-2-5-6-8-7-9-0-90-3-1-3-9-2-2-8-5-0-2-3-5-16-5-2">
            <rect class="cls-18" x="46.428" y="8.417" width="3.68" height="2.268"/>
          </g>
          <path id="path26341-4-2-6-0-8-1-1-1-5-0-3-3-1-8-3-8-7-7-7-2-4-9-7-2-3-5-16-5-2-4" data-name="path26341-4-2-6-0-8-1-1-1-5-0-3-3-1-8-3-8-7-7-7-2-4-9-7-2-3-5-16-5-2" class="cls-15" d="M49.688,8.417h-2.83v2.268h2.83Z"/>
        </g>
        <rect class="cls-19" x="44.729" y="7.567" width="7.087" height="3.968"/>
      </g>
      <g id="R-0603-stroke-5" data-name="R-0603-stroke">
        <g id="R-0603-2-5" data-name="R-0603-2">
          <rect id="rect21332-8-1-9-3-8-2-40-6-2-0-6-6-0-5-6-4-8-7-2-0-7-2-3-9-16-5-2-5" data-name="rect21332-8-1-9-3-8-2-40-6-2-0-6-6-0-5-6-4-8-7-2-0-7-2-3-9-16-5-2" class="cls-16" x="40.138" y="72.117" width="2.268" height="2.26"/>
          <rect id="rect21332-8-1-9-3-8-2-40-6-2-0-6-6-0-5-6-4-8-7-2-0-7-2-3-10-16-5-2-5" data-name="rect21332-8-1-9-3-8-2-40-6-2-0-6-6-0-5-6-4-8-7-2-0-7-2-3-10-16-5-2" class="cls-16" x="40.138" y="68.727" width="2.268" height="2.26"/>
          <path class="cls-17" d="M40.138,73.487v-3.87a.33.33,0,0,1,.277-.33h1.7a.307.307,0,0,1,.287.329h0v3.869a.312.312,0,0,1-.286.331H40.435a.321.321,0,0,1-.3-.32h0Z"/>
          <g id="path26345-3-6-9-3-6-4-2-5-6-8-7-9-0-90-3-1-3-9-2-2-8-5-0-2-3-5-16-5-2-5" data-name="path26345-3-6-9-3-6-4-2-5-6-8-7-9-0-90-3-1-3-9-2-2-8-5-0-2-3-5-16-5-2">
            <rect class="cls-18" x="40.138" y="69.707" width="2.268" height="3.68"/>
          </g>
          <path id="path26341-4-2-6-0-8-1-1-1-5-0-3-3-1-8-3-8-7-7-7-2-4-9-7-2-3-5-16-5-2-5" data-name="path26341-4-2-6-0-8-1-1-1-5-0-3-3-1-8-3-8-7-7-7-2-4-9-7-2-3-5-16-5-2" class="cls-15" d="M42.406,72.967V70.136H40.138v2.831Z"/>
        </g>
        <rect class="cls-19" x="39.288" y="68.008" width="3.968" height="7.087"/>
      </g>
      <g id="R-0603-stroke-6" data-name="R-0603-stroke">
        <g id="R-0603-2-6" data-name="R-0603-2">
          <rect id="rect21332-8-1-9-3-8-2-40-6-2-0-6-6-0-5-6-4-8-7-2-0-7-2-3-9-16-5-2-6" data-name="rect21332-8-1-9-3-8-2-40-6-2-0-6-6-0-5-6-4-8-7-2-0-7-2-3-9-16-5-2" class="cls-16" x="34.138" y="72.117" width="2.268" height="2.26"/>
          <rect id="rect21332-8-1-9-3-8-2-40-6-2-0-6-6-0-5-6-4-8-7-2-0-7-2-3-10-16-5-2-6" data-name="rect21332-8-1-9-3-8-2-40-6-2-0-6-6-0-5-6-4-8-7-2-0-7-2-3-10-16-5-2" class="cls-16" x="34.138" y="68.727" width="2.268" height="2.26"/>
          <path class="cls-17" d="M34.138,73.487v-3.87a.33.33,0,0,1,.277-.33h1.7a.307.307,0,0,1,.287.329h0v3.869a.312.312,0,0,1-.286.331H34.435a.321.321,0,0,1-.3-.32h0Z"/>
          <g id="path26345-3-6-9-3-6-4-2-5-6-8-7-9-0-90-3-1-3-9-2-2-8-5-0-2-3-5-16-5-2-6" data-name="path26345-3-6-9-3-6-4-2-5-6-8-7-9-0-90-3-1-3-9-2-2-8-5-0-2-3-5-16-5-2">
            <rect class="cls-18" x="34.138" y="69.707" width="2.268" height="3.68"/>
          </g>
          <path id="path26341-4-2-6-0-8-1-1-1-5-0-3-3-1-8-3-8-7-7-7-2-4-9-7-2-3-5-16-5-2-6" data-name="path26341-4-2-6-0-8-1-1-1-5-0-3-3-1-8-3-8-7-7-7-2-4-9-7-2-3-5-16-5-2" class="cls-15" d="M36.406,72.967V70.136H34.138v2.831Z"/>
        </g>
        <rect class="cls-19" x="33.288" y="68.008" width="3.968" height="7.087"/>
      </g>
      <g id="C-0603-stroke">
        <g id="C-0603-2">
          <rect id="rect21332-8-1-9-3-8-2-40-6-2-0-6-6-0-5-6-4-8-7-2-0-7-2-3-9-16-2-2" class="cls-16" x="83.766" y="42.404" width="2.26" height="2.26"/>
          <rect id="rect21332-8-1-9-3-8-2-40-6-2-0-6-6-0-5-6-4-8-7-2-0-7-2-3-10-16-2-2" class="cls-16" x="83.766" y="39.024" width="2.26" height="2.26"/>
          <path class="cls-17" d="M83.762,43.774v-3.88a.327.327,0,0,1,.277-.33h1.7a.308.308,0,0,1,.287.329h0v3.88a.31.31,0,0,1-.286.33H84.059a.32.32,0,0,1-.3-.32h0Z"/>
          <rect class="cls-18" x="83.76" y="39.991" width="2.27" height="3.685"/>
          <path id="path26341-4-2-6-0-8-1-1-1-5-0-3-3-1-8-3-8-7-7-7-2-4-9-7-2-3-5-16-2-2" class="cls-20" d="M86.029,43.254v-2.84H83.761v2.84Z"/>
        </g>
        <rect class="cls-19" x="82.911" y="38.3" width="3.968" height="7.087"/>
      </g>
      <g id="C-0603-stroke-2" data-name="C-0603-stroke">
        <g id="C-0603-2-2" data-name="C-0603-2">
          <rect id="rect21332-8-1-9-3-8-2-40-6-2-0-6-6-0-5-6-4-8-7-2-0-7-2-3-9-16-2-2-2" data-name="rect21332-8-1-9-3-8-2-40-6-2-0-6-6-0-5-6-4-8-7-2-0-7-2-3-9-16-2-2" class="cls-16" x="135.766" y="42.404" width="2.26" height="2.26"/>
          <rect id="rect21332-8-1-9-3-8-2-40-6-2-0-6-6-0-5-6-4-8-7-2-0-7-2-3-10-16-2-2-2" data-name="rect21332-8-1-9-3-8-2-40-6-2-0-6-6-0-5-6-4-8-7-2-0-7-2-3-10-16-2-2" class="cls-16" x="135.766" y="39.024" width="2.26" height="2.26"/>
          <path class="cls-17" d="M135.762,43.774v-3.88a.327.327,0,0,1,.277-.33h1.7a.308.308,0,0,1,.287.329h0v3.88a.31.31,0,0,1-.286.33h-1.681a.32.32,0,0,1-.3-.32h0Z"/>
          <rect class="cls-18" x="135.76" y="39.991" width="2.27" height="3.685"/>
          <path id="path26341-4-2-6-0-8-1-1-1-5-0-3-3-1-8-3-8-7-7-7-2-4-9-7-2-3-5-16-2-2-2" data-name="path26341-4-2-6-0-8-1-1-1-5-0-3-3-1-8-3-8-7-7-7-2-4-9-7-2-3-5-16-2-2" class="cls-20" d="M138.029,43.254v-2.84h-2.268v2.84Z"/>
        </g>
        <rect class="cls-19" x="134.911" y="38.3" width="3.968" height="7.087"/>
      </g>
      <g id="C-0603-stroke-3" data-name="C-0603-stroke">
        <g id="C-0603-2-3" data-name="C-0603-2">
          <rect id="rect21332-8-1-9-3-8-2-40-6-2-0-6-6-0-5-6-4-8-7-2-0-7-2-3-9-16-2-2-3" data-name="rect21332-8-1-9-3-8-2-40-6-2-0-6-6-0-5-6-4-8-7-2-0-7-2-3-9-16-2-2" class="cls-16" x="95.766" y="64.404" width="2.26" height="2.26"/>
          <rect id="rect21332-8-1-9-3-8-2-40-6-2-0-6-6-0-5-6-4-8-7-2-0-7-2-3-10-16-2-2-3" data-name="rect21332-8-1-9-3-8-2-40-6-2-0-6-6-0-5-6-4-8-7-2-0-7-2-3-10-16-2-2" class="cls-16" x="95.766" y="61.024" width="2.26" height="2.26"/>
          <path class="cls-17" d="M95.762,65.774v-3.88a.327.327,0,0,1,.277-.33h1.7a.308.308,0,0,1,.287.329h0v3.88a.31.31,0,0,1-.286.33H96.059a.32.32,0,0,1-.3-.32h0Z"/>
          <rect class="cls-18" x="95.76" y="61.991" width="2.27" height="3.685"/>
          <path id="path26341-4-2-6-0-8-1-1-1-5-0-3-3-1-8-3-8-7-7-7-2-4-9-7-2-3-5-16-2-2-3" data-name="path26341-4-2-6-0-8-1-1-1-5-0-3-3-1-8-3-8-7-7-7-2-4-9-7-2-3-5-16-2-2" class="cls-20" d="M98.029,65.254v-2.84H95.761v2.84Z"/>
        </g>
        <rect class="cls-19" x="94.911" y="60.3" width="3.968" height="7.087"/>
      </g>
      <g id="C-0603-stroke-4" data-name="C-0603-stroke">
        <g id="C-0603-2-4" data-name="C-0603-2">
          <rect id="rect21332-8-1-9-3-8-2-40-6-2-0-6-6-0-5-6-4-8-7-2-0-7-2-3-9-16-2-2-4" data-name="rect21332-8-1-9-3-8-2-40-6-2-0-6-6-0-5-6-4-8-7-2-0-7-2-3-9-16-2-2" class="cls-16" x="83.766" y="110.404" width="2.26" height="2.26"/>
          <rect id="rect21332-8-1-9-3-8-2-40-6-2-0-6-6-0-5-6-4-8-7-2-0-7-2-3-10-16-2-2-4" data-name="rect21332-8-1-9-3-8-2-40-6-2-0-6-6-0-5-6-4-8-7-2-0-7-2-3-10-16-2-2" class="cls-16" x="83.766" y="107.024" width="2.26" height="2.26"/>
          <path class="cls-17" d="M83.762,111.774v-3.88a.327.327,0,0,1,.277-.33h1.7a.308.308,0,0,1,.287.329h0v3.88a.31.31,0,0,1-.286.33H84.059a.32.32,0,0,1-.3-.32h0Z"/>
          <rect class="cls-18" x="83.76" y="107.991" width="2.27" height="3.685"/>
          <path id="path26341-4-2-6-0-8-1-1-1-5-0-3-3-1-8-3-8-7-7-7-2-4-9-7-2-3-5-16-2-2-4" data-name="path26341-4-2-6-0-8-1-1-1-5-0-3-3-1-8-3-8-7-7-7-2-4-9-7-2-3-5-16-2-2" class="cls-20" d="M86.029,111.254v-2.84H83.761v2.84Z"/>
        </g>
        <rect class="cls-19" x="82.911" y="106.3" width="3.968" height="7.087"/>
      </g>
      <g id="C-0603-stroke-5" data-name="C-0603-stroke">
        <g id="C-0603-2-5" data-name="C-0603-2">
          <rect id="rect21332-8-1-9-3-8-2-40-6-2-0-6-6-0-5-6-4-8-7-2-0-7-2-3-9-16-2-2-5" data-name="rect21332-8-1-9-3-8-2-40-6-2-0-6-6-0-5-6-4-8-7-2-0-7-2-3-9-16-2-2" class="cls-16" x="135.766" y="110.404" width="2.26" height="2.26"/>
          <rect id="rect21332-8-1-9-3-8-2-40-6-2-0-6-6-0-5-6-4-8-7-2-0-7-2-3-10-16-2-2-5" data-name="rect21332-8-1-9-3-8-2-40-6-2-0-6-6-0-5-6-4-8-7-2-0-7-2-3-10-16-2-2" class="cls-16" x="135.766" y="107.024" width="2.26" height="2.26"/>
          <path class="cls-17" d="M135.762,111.774v-3.88a.327.327,0,0,1,.277-.33h1.7a.308.308,0,0,1,.287.329h0v3.88a.31.31,0,0,1-.286.33h-1.681a.32.32,0,0,1-.3-.32h0Z"/>
          <rect class="cls-18" x="135.76" y="107.991" width="2.27" height="3.685"/>
          <path id="path26341-4-2-6-0-8-1-1-1-5-0-3-3-1-8-3-8-7-7-7-2-4-9-7-2-3-5-16-2-2-5" data-name="path26341-4-2-6-0-8-1-1-1-5-0-3-3-1-8-3-8-7-7-7-2-4-9-7-2-3-5-16-2-2" class="cls-20" d="M138.029,111.254v-2.84h-2.268v2.84Z"/>
        </g>
        <rect class="cls-19" x="134.911" y="106.3" width="3.968" height="7.087"/>
      </g>
      <g id="C-0603-stroke-6" data-name="C-0603-stroke">
        <g id="C-0603-2-6" data-name="C-0603-2">
          <rect id="rect21332-8-1-9-3-8-2-40-6-2-0-6-6-0-5-6-4-8-7-2-0-7-2-3-9-16-2-2-6" data-name="rect21332-8-1-9-3-8-2-40-6-2-0-6-6-0-5-6-4-8-7-2-0-7-2-3-9-16-2-2" class="cls-16" x="95.766" y="20.404" width="2.26" height="2.26"/>
          <rect id="rect21332-8-1-9-3-8-2-40-6-2-0-6-6-0-5-6-4-8-7-2-0-7-2-3-10-16-2-2-6" data-name="rect21332-8-1-9-3-8-2-40-6-2-0-6-6-0-5-6-4-8-7-2-0-7-2-3-10-16-2-2" class="cls-16" x="95.766" y="17.024" width="2.26" height="2.26"/>
          <path class="cls-17" d="M95.762,21.774v-3.88a.327.327,0,0,1,.277-.33h1.7a.308.308,0,0,1,.287.329h0v3.88a.31.31,0,0,1-.286.33H96.059a.32.32,0,0,1-.3-.32h0Z"/>
          <rect class="cls-18" x="95.76" y="17.991" width="2.27" height="3.685"/>
          <path id="path26341-4-2-6-0-8-1-1-1-5-0-3-3-1-8-3-8-7-7-7-2-4-9-7-2-3-5-16-2-2-6" data-name="path26341-4-2-6-0-8-1-1-1-5-0-3-3-1-8-3-8-7-7-7-2-4-9-7-2-3-5-16-2-2" class="cls-20" d="M98.029,21.254v-2.84H95.761v2.84Z"/>
        </g>
        <rect class="cls-19" x="94.911" y="16.3" width="3.968" height="7.087"/>
      </g>
      <g id="LED-0805-stroke">
        <rect class="cls-19" x="57.924" y="6.556" width="9.921" height="5.102"/>
        <g id="LED-0805-2">
          <rect id="rect21332-8-1-9-3-8-2-40-6-2-0-6-6-0-5-6-4-8-7-2-0-7-2-3-9-16-9-2" class="cls-16" x="63.944" y="7.406" width="2.9" height="3.4"/>
          <rect id="rect21332-8-1-9-3-8-2-40-6-2-0-6-6-0-5-6-4-8-7-2-0-7-2-3-10-16-9-2" class="cls-16" x="58.925" y="7.406" width="2.9" height="3.4"/>
          <path class="cls-17" d="M65.314,10.8h-4.84a.42.42,0,0,1-.42-.42V7.828a.411.411,0,0,1,.389-.43h4.84a.412.412,0,0,1,.41.41v2.56a.429.429,0,0,1-.41.43h.031Z"/>
          <rect class="cls-18" x="60.754" y="7.406" width="4.25" height="3.4"/>
          <path id="path26341-4-2-6-0-8-1-1-1-5-0-3-3-1-8-3-8-7-7-7-2-4-9-7-2-3-5-16-9-2" class="cls-21" d="M64.315,7.4h-2.84v3.4h2.84Z"/>
          <path id="path6963-86-8-2-6-0-1-7-9-2-3-2-2" class="cls-22" d="M64.055,9.317h-.39V8.9h.39Z"/>
        </g>
      </g>
      <g>
        <rect class="cls-4" x="24.4" y="106.381" width="2.835" height="2.835" rx="1.417"/>
        <rect class="cls-4" x="31.6" y="106.381" width="2.835" height="2.835" rx="1.417"/>
        <rect class="cls-4" x="38.8" y="106.381" width="2.835" height="2.835" rx="1.417"/>
        <rect class="cls-4" x="46" y="106.381" width="2.835" height="2.835" rx="1.417"/>
        <rect class="cls-4" x="53.2" y="106.381" width="2.835" height="2.835" rx="1.417"/>
        <rect class="cls-5" x="24.4" y="113.591" width="2.835" height="2.835" rx="1.417"/>
        <path class="cls-6" d="M24.148,113.368v3.319h3.384v-3.319Zm1.67,3.057a1.417,1.417,0,1,1,1.417-1.417A1.42,1.42,0,0,1,25.818,116.425Z"/>
        <rect class="cls-4" x="31.6" y="113.591" width="2.835" height="2.835" rx="1.417"/>
        <rect class="cls-4" x="38.8" y="113.591" width="2.835" height="2.835" rx="1.417"/>
        <rect class="cls-4" x="46" y="113.591" width="2.835" height="2.835" rx="1.417"/>
        <rect class="cls-4" x="53.2" y="113.591" width="2.835" height="2.835" rx="1.417"/>
      </g>
      <g>
        <g>
          <path class="cls-23" d="M11.532,33.168A17.234,17.234,0,1,1,28.767,50.4,17.234,17.234,0,0,1,11.532,33.168Z"/>
          <g>
            <circle class="cls-23" cx="28.767" cy="33.168" r="15.873"/>
            <path class="cls-24" d="M26.693,33.168a2.073,2.073,0,1,1,2.074,2.074A2.075,2.075,0,0,1,26.693,33.168Z"/>
          </g>
        </g>
        <g>
          <rect class="cls-25" x="14.675" y="26.817" width="6.538" height="6.538" rx="3.269"/>
          <path class="cls-26" d="M20.9,31.194l-1.522-.488c-.517-.106-.847-.18-1.184-.269l-.011.01c.113.308.208.6.345,1.1L19,33.055l-.66.25L17.577,30.4l-2.863-.281.157-.794,1.651.27c.388.092.647.114,1.014.192l.018-.016c-.073-.4-.11-.485-.18-.865L17,27.125l.691-.2.45,2.877,2.977.634Z"/>
        </g>
      </g>
      <g>
        <path class="cls-2" d="M10.024,2.733a7.188,7.188,0,1,0,7.188,7.188A7.209,7.209,0,0,0,10.024,2.733ZM4.21,10.3a.666.666,0,1,1,.666-.666A.668.668,0,0,1,4.21,10.3ZM9.917,3.54a.666.666,0,1,1-.666.666A.668.668,0,0,1,9.917,3.54ZM5.974,5.214a.666.666,0,1,1-.666.666A.668.668,0,0,1,5.974,5.214Zm0,9.42a.666.666,0,1,1,.666-.666A.668.668,0,0,1,5.974,14.634ZM9.917,16.3a.666.666,0,1,1,.666-.666A.668.668,0,0,1,9.917,16.3Zm.107-1.846A4.536,4.536,0,1,1,14.56,9.921,4.549,4.549,0,0,1,10.024,14.456Zm4.14.178a.666.666,0,1,1,.666-.666A.668.668,0,0,1,14.164,14.634Zm.108-8.088a.666.666,0,1,1,.666-.666A.668.668,0,0,1,14.272,6.546ZM15.838,10.3a.666.666,0,1,1,.666-.666A.668.668,0,0,1,15.838,10.3Z"/>
        <path class="cls-2" d="M174.441,2.733a7.188,7.188,0,1,0,7.188,7.188A7.208,7.208,0,0,0,174.441,2.733ZM168.627,10.3a.666.666,0,1,1,.666-.666A.668.668,0,0,1,168.627,10.3Zm5.707-6.762a.666.666,0,1,1-.666.666A.668.668,0,0,1,174.334,3.54Zm-3.943,1.674a.666.666,0,1,1-.666.666A.668.668,0,0,1,170.391,5.214Zm0,9.42a.666.666,0,1,1,.666-.666A.668.668,0,0,1,170.391,14.634Zm3.943,1.668a.666.666,0,1,1,.666-.666A.668.668,0,0,1,174.334,16.3Zm.107-1.846a4.536,4.536,0,1,1,4.535-4.535A4.549,4.549,0,0,1,174.441,14.456Zm4.14.178a.666.666,0,1,1,.666-.666A.668.668,0,0,1,178.581,14.634Zm.108-8.088a.666.666,0,1,1,.666-.666A.668.668,0,0,1,178.689,6.546Zm1.566,3.756a.666.666,0,1,1,.666-.666A.668.668,0,0,1,180.255,10.3Z"/>
        <path class="cls-2" d="M174.441,110.45a7.188,7.188,0,1,0,7.188,7.188A7.209,7.209,0,0,0,174.441,110.45Zm-5.814,7.569a.666.666,0,1,1,.666-.666A.668.668,0,0,1,168.627,118.019Zm5.707-6.762a.666.666,0,1,1-.666.666A.668.668,0,0,1,174.334,111.257Zm-3.943,1.674a.666.666,0,1,1-.666.666A.668.668,0,0,1,170.391,112.931Zm0,9.42a.666.666,0,1,1,.666-.666A.668.668,0,0,1,170.391,122.351Zm3.943,1.668a.666.666,0,1,1,.666-.666A.668.668,0,0,1,174.334,124.019Zm.107-1.845a4.536,4.536,0,1,1,4.535-4.536A4.549,4.549,0,0,1,174.441,122.174Zm4.14.177a.666.666,0,1,1,.666-.666A.668.668,0,0,1,178.581,122.351Zm.108-8.088a.666.666,0,1,1,.666-.666A.668.668,0,0,1,178.689,114.263Zm1.566,3.756a.666.666,0,1,1,.666-.666A.668.668,0,0,1,180.255,118.019Z"/>
        <path class="cls-2" d="M10.024,110.45a7.188,7.188,0,1,0,7.188,7.188A7.21,7.21,0,0,0,10.024,110.45ZM4.21,118.019a.666.666,0,1,1,.666-.666A.668.668,0,0,1,4.21,118.019Zm5.707-6.762a.666.666,0,1,1-.666.666A.668.668,0,0,1,9.917,111.257Zm-3.943,1.674a.666.666,0,1,1-.666.666A.668.668,0,0,1,5.974,112.931Zm0,9.42a.666.666,0,1,1,.666-.666A.668.668,0,0,1,5.974,122.351Zm3.943,1.668a.666.666,0,1,1,.666-.666A.668.668,0,0,1,9.917,124.019Zm.107-1.845a4.536,4.536,0,1,1,4.536-4.536A4.549,4.549,0,0,1,10.024,122.174Zm4.14.177a.666.666,0,1,1,.666-.666A.668.668,0,0,1,14.164,122.351Zm.108-8.088a.666.666,0,1,1,.666-.666A.668.668,0,0,1,14.272,114.263Zm1.566,3.756a.666.666,0,1,1,.666-.666A.668.668,0,0,1,15.838,118.019Z"/>
      </g>
      <g>
        <rect class="cls-3" x="5.308" y="5.214" width="1.332" height="1.332" rx="0.666"/>
        <rect class="cls-3" x="9.251" y="3.54" width="1.332" height="1.332" rx="0.666"/>
        <rect class="cls-3" x="13.606" y="5.214" width="1.332" height="1.332" rx="0.666"/>
        <rect class="cls-3" x="15.172" y="8.97" width="1.332" height="1.332" rx="0.666"/>
        <rect class="cls-3" x="13.498" y="13.302" width="1.332" height="1.332" rx="0.666"/>
        <rect class="cls-3" x="9.251" y="14.97" width="1.332" height="1.332" rx="0.666"/>
        <rect class="cls-3" x="5.308" y="13.302" width="1.332" height="1.332" rx="0.666"/>
        <rect class="cls-3" x="3.544" y="8.97" width="1.332" height="1.332" rx="0.666"/>
      </g>
      <g>
        <rect class="cls-3" x="5.308" y="112.931" width="1.332" height="1.332" rx="0.666"/>
        <rect class="cls-3" x="9.251" y="111.257" width="1.332" height="1.332" rx="0.666"/>
        <rect class="cls-3" x="13.606" y="112.931" width="1.332" height="1.332" rx="0.666"/>
        <rect class="cls-3" x="15.172" y="116.687" width="1.332" height="1.332" rx="0.666"/>
        <rect class="cls-3" x="13.498" y="121.019" width="1.332" height="1.332" rx="0.666"/>
        <rect class="cls-3" x="9.251" y="122.687" width="1.332" height="1.332" rx="0.666"/>
        <rect class="cls-3" x="5.308" y="121.019" width="1.332" height="1.332" rx="0.666"/>
        <rect class="cls-3" x="3.544" y="116.687" width="1.332" height="1.332" rx="0.666"/>
      </g>
      <g>
        <rect class="cls-3" x="169.725" y="112.931" width="1.332" height="1.332" rx="0.666"/>
        <rect class="cls-3" x="173.668" y="111.257" width="1.332" height="1.332" rx="0.666"/>
        <rect class="cls-3" x="178.023" y="112.931" width="1.332" height="1.332" rx="0.666"/>
        <rect class="cls-3" x="179.589" y="116.687" width="1.332" height="1.332" rx="0.666"/>
        <rect class="cls-3" x="177.915" y="121.019" width="1.332" height="1.332" rx="0.666"/>
        <rect class="cls-3" x="173.668" y="122.687" width="1.332" height="1.332" rx="0.666"/>
        <rect class="cls-3" x="169.725" y="121.019" width="1.332" height="1.332" rx="0.666"/>
        <rect class="cls-3" x="167.961" y="116.687" width="1.332" height="1.332" rx="0.666"/>
      </g>
      <g>
        <rect class="cls-3" x="169.725" y="5.214" width="1.332" height="1.332" rx="0.666"/>
        <rect class="cls-3" x="173.668" y="3.54" width="1.332" height="1.332" rx="0.666"/>
        <rect class="cls-3" x="178.023" y="5.214" width="1.332" height="1.332" rx="0.666"/>
        <rect class="cls-3" x="179.589" y="8.97" width="1.332" height="1.332" rx="0.666"/>
        <rect class="cls-3" x="177.915" y="13.302" width="1.332" height="1.332" rx="0.666"/>
        <rect class="cls-3" x="173.668" y="14.97" width="1.332" height="1.332" rx="0.666"/>
        <rect class="cls-3" x="169.725" y="13.302" width="1.332" height="1.332" rx="0.666"/>
        <rect class="cls-3" x="167.961" y="8.97" width="1.332" height="1.332" rx="0.666"/>
      </g>
      <rect class="cls-27" x="23.032" y="104.85" width="34.368" height="13.169"/>
      <g id="BT-2.54-4pin">
        <g id="breadboard">
          <polygon class="cls-28" points="158.322 121.301 158.322 113.032 160.492 113.032 160.492 121.301 158.322 121.301"/>
          <polygon class="cls-28" points="143.944 105.832 143.944 97.563 146.074 97.563 146.074 105.832 143.944 105.832"/>
          <polygon class="cls-28" points="158.322 105.832 158.322 97.563 160.492 97.563 160.492 105.832 158.322 105.832"/>
          <polygon class="cls-28" points="143.944 121.301 143.944 113.032 146.074 113.032 146.074 121.301 143.944 121.301"/>
          <rect x="143.532" y="100.622" width="17.648" height="17.648"/>
          <path class="cls-29" d="M161.168,116.851a1.438,1.438,0,0,1-1.43,1.37h-14.78a1.44,1.44,0,0,1-1.44-1.42V102.023a1.459,1.459,0,0,1,1.44-1.44H159.7a1.43,1.43,0,0,1,1.44,1.418v14.85Z"/>
          <circle cx="146.092" cy="103.192" r="1.53"/>
          <circle cx="158.651" cy="103.222" r="1.53"/>
          <circle cx="158.631" cy="115.771" r="1.53"/>
          <circle cx="146.052" cy="115.741" r="1.53"/>
          <circle class="cls-30" cx="152.332" cy="109.441" r="5.15"/>
          <circle class="cls-31" cx="152.332" cy="109.441" r="5.15"/>
          <circle class="cls-32" cx="152.452" cy="110.051" r="4.53"/>
          <circle class="cls-33" cx="152.37" cy="109.397" r="4.42" transform="translate(-24.974 48.294) rotate(-16.666)"/>
          <path class="cls-34" d="M145.852,103.223a.226.226,0,0,1,.17-.15l-.15-1h-.18a1.164,1.164,0,0,0-.76.71Z"/>
          <path class="cls-34" d="M158.412,103.223a.19.19,0,0,1,.17-.14l-.15-1h-.18a1.164,1.164,0,0,0-.76.71Z"/>
          <path class="cls-34" d="M158.412,115.7a.309.309,0,0,1,.16-.14l-.15-1h-.17a1.258,1.258,0,0,0-.76.72Z"/>
          <path class="cls-34" d="M145.852,115.681a.253.253,0,0,1,.16-.14l-.15-1h-.17a1.288,1.288,0,0,0-.76.74Z"/>
          <path class="cls-35" d="M153.922,105.382a5.032,5.032,0,0,0-1.08-.28,4.714,4.714,0,0,0-2.63.54l-.1.25a5,5,0,0,1,2.93-.61,6.016,6.016,0,0,1,.93.2Z"/>
        </g>
      </g>
      <g id="BT-2.54-4pin-2" data-name="BT-2.54-4pin">
        <g id="breadboard-2" data-name="breadboard">
          <polygon class="cls-28" points="75.583 121.315 75.583 113.046 77.753 113.046 77.753 121.315 75.583 121.315"/>
          <polygon class="cls-28" points="61.205 105.846 61.205 97.577 63.335 97.577 63.335 105.846 61.205 105.846"/>
          <polygon class="cls-28" points="75.583 105.846 75.583 97.577 77.753 97.577 77.753 105.846 75.583 105.846"/>
          <polygon class="cls-28" points="61.205 121.315 61.205 113.046 63.335 113.046 63.335 121.315 61.205 121.315"/>
          <rect x="60.793" y="100.636" width="17.648" height="17.648"/>
          <path class="cls-29" d="M78.429,116.865a1.438,1.438,0,0,1-1.43,1.37H62.219a1.44,1.44,0,0,1-1.44-1.42V102.037a1.46,1.46,0,0,1,1.44-1.44H76.958a1.43,1.43,0,0,1,1.44,1.418v14.85Z"/>
          <circle cx="63.353" cy="103.206" r="1.53"/>
          <circle cx="75.912" cy="103.236" r="1.53"/>
          <circle cx="75.892" cy="115.785" r="1.53"/>
          <circle cx="63.313" cy="115.755" r="1.53"/>
          <circle class="cls-30" cx="69.593" cy="109.455" r="5.15"/>
          <circle class="cls-36" cx="69.593" cy="109.455" r="5.15"/>
          <circle class="cls-32" cx="69.713" cy="110.065" r="4.53"/>
          <circle class="cls-33" cx="69.631" cy="109.411" r="4.42" transform="matrix(0.958, -0.287, 0.287, 0.958, -28.453, 24.566)"/>
          <path class="cls-34" d="M63.113,103.237a.227.227,0,0,1,.17-.15l-.15-1h-.18a1.164,1.164,0,0,0-.76.71Z"/>
          <path class="cls-34" d="M75.673,103.237a.19.19,0,0,1,.17-.14l-.15-1h-.18a1.164,1.164,0,0,0-.76.71Z"/>
          <path class="cls-34" d="M75.673,115.715a.309.309,0,0,1,.16-.14l-.15-1h-.17a1.258,1.258,0,0,0-.76.72Z"/>
          <path class="cls-34" d="M63.113,115.7a.253.253,0,0,1,.16-.14l-.15-1h-.17a1.288,1.288,0,0,0-.76.74Z"/>
          <path class="cls-35" d="M71.183,105.4a5.017,5.017,0,0,0-1.08-.28,4.714,4.714,0,0,0-2.63.54l-.1.25a5,5,0,0,1,2.93-.61,6.016,6.016,0,0,1,.93.2Z"/>
        </g>
      </g>
      <g id="BT-2.54-4pin-3" data-name="BT-2.54-4pin">
        <g id="breadboard-3" data-name="breadboard">
          <polygon class="cls-28" points="75.583 51.315 75.583 43.046 77.753 43.046 77.753 51.315 75.583 51.315"/>
          <polygon class="cls-28" points="61.205 35.846 61.205 27.577 63.335 27.577 63.335 35.846 61.205 35.846"/>
          <polygon class="cls-28" points="75.583 35.846 75.583 27.577 77.753 27.577 77.753 35.846 75.583 35.846"/>
          <polygon class="cls-28" points="61.205 51.315 61.205 43.046 63.335 43.046 63.335 51.315 61.205 51.315"/>
          <rect x="60.793" y="30.636" width="17.648" height="17.648"/>
          <path class="cls-29" d="M78.429,46.865A1.438,1.438,0,0,1,77,48.235H62.219a1.44,1.44,0,0,1-1.44-1.42V32.037a1.46,1.46,0,0,1,1.44-1.44H76.958a1.43,1.43,0,0,1,1.44,1.418v14.85Z"/>
          <circle cx="63.353" cy="33.206" r="1.53"/>
          <circle cx="75.912" cy="33.236" r="1.53"/>
          <circle cx="75.892" cy="45.785" r="1.53"/>
          <circle cx="63.313" cy="45.755" r="1.53"/>
          <circle class="cls-30" cx="69.593" cy="39.455" r="5.15"/>
          <circle class="cls-37" cx="69.593" cy="39.455" r="5.15"/>
          <circle class="cls-32" cx="69.713" cy="40.065" r="4.53"/>
          <circle class="cls-33" cx="69.631" cy="39.411" r="4.42" transform="matrix(0.958, -0.287, 0.287, 0.958, -8.378, 21.625)"/>
          <path class="cls-34" d="M63.113,33.237a.227.227,0,0,1,.17-.15l-.15-1h-.18a1.164,1.164,0,0,0-.76.71Z"/>
          <path class="cls-34" d="M75.673,33.237a.19.19,0,0,1,.17-.14l-.15-1h-.18a1.164,1.164,0,0,0-.76.71Z"/>
          <path class="cls-34" d="M75.673,45.715a.309.309,0,0,1,.16-.14l-.15-1h-.17a1.258,1.258,0,0,0-.76.72Z"/>
          <path class="cls-34" d="M63.113,45.7a.253.253,0,0,1,.16-.14l-.15-1h-.17a1.288,1.288,0,0,0-.76.74Z"/>
          <path class="cls-35" d="M71.183,35.4a5.017,5.017,0,0,0-1.08-.28,4.714,4.714,0,0,0-2.63.54l-.1.25a5,5,0,0,1,2.93-.61,6.016,6.016,0,0,1,.93.2Z"/>
        </g>
      </g>
      <g id="BT-2.54-4pin-4" data-name="BT-2.54-4pin">
        <g id="breadboard-4" data-name="breadboard">
          <polygon class="cls-28" points="158.583 51.315 158.583 43.046 160.753 43.046 160.753 51.315 158.583 51.315"/>
          <polygon class="cls-28" points="144.205 35.846 144.205 27.577 146.335 27.577 146.335 35.846 144.205 35.846"/>
          <polygon class="cls-28" points="158.583 35.846 158.583 27.577 160.753 27.577 160.753 35.846 158.583 35.846"/>
          <polygon class="cls-28" points="144.205 51.315 144.205 43.046 146.335 43.046 146.335 51.315 144.205 51.315"/>
          <rect x="143.793" y="30.636" width="17.648" height="17.648"/>
          <path class="cls-29" d="M161.429,46.865a1.438,1.438,0,0,1-1.43,1.37h-14.78a1.44,1.44,0,0,1-1.44-1.42V32.037a1.46,1.46,0,0,1,1.44-1.44h14.739a1.43,1.43,0,0,1,1.44,1.418v14.85Z"/>
          <circle cx="146.353" cy="33.206" r="1.53"/>
          <circle cx="158.912" cy="33.236" r="1.53"/>
          <circle cx="158.892" cy="45.785" r="1.53"/>
          <circle cx="146.313" cy="45.755" r="1.53"/>
          <circle class="cls-30" cx="152.593" cy="39.455" r="5.15"/>
          <circle class="cls-38" cx="152.593" cy="39.455" r="5.15"/>
          <circle class="cls-32" cx="152.713" cy="40.065" r="4.53"/>
          <circle class="cls-33" cx="152.631" cy="39.411" r="4.42" transform="translate(-4.891 45.429) rotate(-16.666)"/>
          <path class="cls-34" d="M146.113,33.237a.227.227,0,0,1,.17-.15l-.15-1h-.18a1.164,1.164,0,0,0-.76.71Z"/>
          <path class="cls-34" d="M158.673,33.237a.19.19,0,0,1,.17-.14l-.15-1h-.18a1.164,1.164,0,0,0-.76.71Z"/>
          <path class="cls-34" d="M158.673,45.715a.309.309,0,0,1,.16-.14l-.15-1h-.17a1.258,1.258,0,0,0-.76.72Z"/>
          <path class="cls-34" d="M146.113,45.7a.253.253,0,0,1,.16-.14l-.15-1h-.17a1.288,1.288,0,0,0-.76.74Z"/>
          <path class="cls-35" d="M154.183,35.4a5.017,5.017,0,0,0-1.08-.28,4.714,4.714,0,0,0-2.63.54l-.1.25a5,5,0,0,1,2.93-.61,6.016,6.016,0,0,1,.93.2Z"/>
        </g>
      </g>
      <g id="BT-2.54-4pin-5" data-name="BT-2.54-4pin">
        <g id="breadboard-5" data-name="breadboard">
          <polygon class="cls-28" points="117.566 29.825 117.566 21.556 119.736 21.556 119.736 29.825 117.566 29.825"/>
          <polygon class="cls-28" points="103.188 14.356 103.188 6.087 105.318 6.087 105.318 14.356 103.188 14.356"/>
          <polygon class="cls-28" points="117.566 14.356 117.566 6.087 119.736 6.087 119.736 14.356 117.566 14.356"/>
          <polygon class="cls-28" points="103.188 29.825 103.188 21.556 105.318 21.556 105.318 29.825 103.188 29.825"/>
          <rect x="102.776" y="9.146" width="17.648" height="17.648"/>
          <path class="cls-29" d="M120.412,25.375a1.439,1.439,0,0,1-1.43,1.37H104.2a1.441,1.441,0,0,1-1.44-1.42V10.547a1.459,1.459,0,0,1,1.44-1.44h14.739a1.429,1.429,0,0,1,1.44,1.418v14.85Z"/>
          <circle cx="105.336" cy="11.716" r="1.53"/>
          <circle cx="117.895" cy="11.746" r="1.53"/>
          <circle cx="117.875" cy="24.295" r="1.53"/>
          <circle cx="105.296" cy="24.265" r="1.53"/>
          <circle class="cls-30" cx="111.576" cy="17.965" r="5.15"/>
          <circle class="cls-39" cx="111.576" cy="17.965" r="5.15"/>
          <circle class="cls-32" cx="111.696" cy="18.575" r="4.53"/>
          <circle class="cls-33" cx="111.614" cy="17.921" r="4.42" transform="matrix(0.958, -0.287, 0.287, 0.958, -0.451, 32.763)"/>
          <path class="cls-34" d="M105.1,11.747a.225.225,0,0,1,.17-.15l-.15-1h-.18a1.164,1.164,0,0,0-.76.71Z"/>
          <path class="cls-34" d="M117.656,11.747a.19.19,0,0,1,.17-.14l-.15-1h-.18a1.164,1.164,0,0,0-.76.71Z"/>
          <path class="cls-34" d="M117.656,24.225a.3.3,0,0,1,.16-.14l-.15-1h-.17a1.258,1.258,0,0,0-.76.72Z"/>
          <path class="cls-34" d="M105.1,24.205a.251.251,0,0,1,.16-.14l-.15-1h-.17a1.285,1.285,0,0,0-.76.74Z"/>
          <path class="cls-35" d="M113.166,13.906a5.017,5.017,0,0,0-1.08-.28,4.714,4.714,0,0,0-2.63.54l-.1.25a5,5,0,0,1,2.93-.61,6.016,6.016,0,0,1,.93.2Z"/>
        </g>
      </g>
      <g id="BT-2.54-4pin-6" data-name="BT-2.54-4pin">
        <g id="breadboard-6" data-name="breadboard">
          <polygon class="cls-28" points="117.566 74.825 117.566 66.556 119.736 66.556 119.736 74.825 117.566 74.825"/>
          <polygon class="cls-28" points="103.188 59.356 103.188 51.087 105.318 51.087 105.318 59.356 103.188 59.356"/>
          <polygon class="cls-28" points="117.566 59.356 117.566 51.087 119.736 51.087 119.736 59.356 117.566 59.356"/>
          <polygon class="cls-28" points="103.188 74.825 103.188 66.556 105.318 66.556 105.318 74.825 103.188 74.825"/>
          <rect x="102.776" y="54.146" width="17.648" height="17.648"/>
          <path class="cls-29" d="M120.412,70.375a1.439,1.439,0,0,1-1.43,1.37H104.2a1.441,1.441,0,0,1-1.44-1.42V55.547a1.459,1.459,0,0,1,1.44-1.44h14.739a1.429,1.429,0,0,1,1.44,1.418v14.85Z"/>
          <circle cx="105.336" cy="56.716" r="1.53"/>
          <circle cx="117.895" cy="56.746" r="1.53"/>
          <circle cx="117.875" cy="69.295" r="1.53"/>
          <circle cx="105.296" cy="69.265" r="1.53"/>
          <circle class="cls-30" cx="111.576" cy="62.965" r="5.15"/>
          <circle class="cls-40" cx="111.576" cy="62.965" r="5.15"/>
          <circle class="cls-32" cx="111.696" cy="63.575" r="4.53"/>
          <circle class="cls-33" cx="111.614" cy="62.921" r="4.42" transform="translate(-13.357 34.653) rotate(-16.666)"/>
          <path class="cls-34" d="M105.1,56.747a.225.225,0,0,1,.17-.15l-.15-1h-.18a1.164,1.164,0,0,0-.76.71Z"/>
          <path class="cls-34" d="M117.656,56.747a.19.19,0,0,1,.17-.14l-.15-1h-.18a1.164,1.164,0,0,0-.76.71Z"/>
          <path class="cls-34" d="M117.656,69.225a.309.309,0,0,1,.16-.14l-.15-1h-.17a1.258,1.258,0,0,0-.76.72Z"/>
          <path class="cls-34" d="M105.1,69.205a.251.251,0,0,1,.16-.14l-.15-1h-.17a1.285,1.285,0,0,0-.76.74Z"/>
          <path class="cls-35" d="M113.166,58.906a5.017,5.017,0,0,0-1.08-.28,4.714,4.714,0,0,0-2.63.54l-.1.25a5,5,0,0,1,2.93-.61,6.016,6.016,0,0,1,.93.2Z"/>
        </g>
      </g>
      <g>
        <text class="cls-41" transform="translate(58.345 17.055)">LED</text>
        <text class="cls-41" transform="translate(56.956 21.52)">(IO6)</text>
        <text class="cls-41" transform="translate(43.405 21.521)">(IO7)</text>
        <text class="cls-41" transform="translate(43.491 17.055)">BEE<tspan class="cls-42" x="8.186" y="0">P</tspan></text>
        <text class="cls-41" transform="translate(64.883 69.205)">(IO5)</text>
        <text class="cls-41" transform="translate(107.193 45.785)">(IO4)</text>
        <text class="cls-41" transform="translate(148.21 69.205)">(IO2)</text>
        <text class="cls-41" transform="translate(104.716 93.383)">(IO3)</text>
        <text class="cls-41" transform="translate(146.899 93.078)">(IO1)</text>
        <text class="cls-41" transform="translate(63.881 93.187)">(IOO)</text>
        <text class="cls-43" transform="translate(29.388 123.166)">IO6</text>
        <text class="cls-43" transform="translate(22.794 102.984)">IO7</text>
        <text class="cls-43" transform="translate(29.408 102.983)">IO5</text>
        <text class="cls-43" transform="translate(36.71 123.166)">IO4</text>
        <text class="cls-43" transform="translate(44.033 123.167)">IO2</text>
        <text class="cls-43" transform="translate(36.523 102.983)">IO3</text>
        <text class="cls-43" transform="translate(43.638 102.984)">IO1</text>
        <text class="cls-43" transform="translate(51.356 123.166)">IOO</text>
      </g>
      <text class="cls-43" transform="translate(50.752 102.983)">GND</text>
      <text class="cls-43" transform="translate(23.524 123.167)">5V</text>
      <g>
        <text class="cls-44" transform="translate(141.456 87.361)">Enter</text>
        <text class="cls-44" transform="translate(141.96 62.363)">Right</text>
        <text class="cls-44" transform="translate(98.879 86.787)">Down</text>
        <text class="cls-44" transform="translate(106.381 39.404)">Up</text>
        <text class="cls-44" transform="translate(60.765 62.363)">Left</text>
        <text class="cls-44" transform="translate(61.676 87.36)">Esc</text>
        <text class="cls-45" transform="translate(84.911 122.122)">Expansion Board</text>
      </g>
    </g>
  </g>
</svg>
