<svg id="nextion-io-adapter" xmlns="http://www.w3.org/2000/svg" width="30.043mm" height="20mm" viewBox="0 0 85.16 56.693">
  <title>nextion-io-adapter</title>
  <g id="nextion-io-adapter-2" data-name="nextion-io-adapter">
    <g id="top">
      <path d="M81.379,0H3.9A3.792,3.792,0,0,0,.121,3.781v49.13A3.792,3.792,0,0,0,3.9,56.693H81.379a3.793,3.793,0,0,0,3.781-3.782V3.781A3.793,3.793,0,0,0,81.379,0ZM31.3,54.142a4.536,4.536,0,1,1,4.535-4.536A4.549,4.549,0,0,1,31.3,54.142Zm0-42.52a4.536,4.536,0,1,1,4.535-4.535A4.549,4.549,0,0,1,31.3,11.622Z" style="fill: #1b1615"/>
      <rect x="53.72" y="9.866" width="14.688" height="38.064" rx="0.144" style="fill: none;stroke: #fff;stroke-miterlimit: 10;stroke-width: 0.283464580774307px"/>
      <g>
        <g>
          <g>
            <path id="rect27317-5-2-2-2" d="M9.433,52.928H4.045V4.739H9.433l2.632,3.07V49.4L9.433,52.774Z" style="fill: #ebdeb6"/>
            <rect id="rect27317-6-2" x="9.452" y="48.964" width="4.757" height="3.965" style="fill: #b3b3b3"/>
            <rect id="rect27317-6-5-2-3" x="9.452" y="4.739" width="4.738" height="4.384" style="fill: #b3b3b3"/>
          </g>
          <rect id="rect27317-3-8-2-2-2" y="4.739" width="4.581" height="48.189" style="fill: #494949"/>
        </g>
        <rect x="4.695" y="6.865" width="9.514" height="43.937" style="fill: #dddbd9"/>
        <g>
          <g>
            <g>
              <rect id="rect21332-8-1-9-3-8-2-40-6-2-0-6-4-9-2-4-6-3-2-0-1-7-7-10-6-8-2-7-8-4-61-2" x="16.181" y="13.163" width="1.214" height="1.694" style="fill: #d2d1d3;opacity: 0.507000029087067;isolation: isolate"/>
              <rect id="rect36049-9-4-8-0-6-2-1-3-5-82-5-6-5-6-4-1-6-2" x="14.209" y="13.405" width="2.731" height="1.21" style="fill: #b3b3b3"/>
              <rect id="rect36051-8-8-2-7-2-0-4-8-2-2-5-8-5-7-7-4-4-2" x="15.119" y="13.405" width="0.91" height="1.21" style="fill: gray"/>
            </g>
            <rect x="14.209" y="13.526" width="0.467" height="0.968" style="fill: #dcc580"/>
          </g>
          <g>
            <g>
              <rect id="rect21332-8-1-9-3-8-2-40-6-2-0-6-4-9-2-4-6-3-2-0-1-7-7-10-6-8-2-7-8-4-61-2-2" x="16.181" y="16.485" width="1.214" height="1.694" style="fill: #d2d1d3;opacity: 0.507000029087067;isolation: isolate"/>
              <rect id="rect36049-9-4-8-0-6-2-1-3-5-82-5-6-5-6-4-1-6-2-2" x="14.209" y="16.727" width="2.731" height="1.21" style="fill: #b3b3b3"/>
              <rect id="rect36051-8-8-2-7-2-0-4-8-2-2-5-8-5-7-7-4-4-2-2" x="15.119" y="16.727" width="0.91" height="1.21" style="fill: gray"/>
            </g>
            <rect x="14.209" y="16.848" width="0.467" height="0.968" style="fill: #dcc580"/>
          </g>
          <g>
            <g>
              <rect id="rect21332-8-1-9-3-8-2-40-6-2-0-6-4-9-2-4-6-3-2-0-1-7-7-10-6-8-2-7-8-4-61-2-3" x="16.181" y="19.806" width="1.214" height="1.694" style="fill: #d2d1d3;opacity: 0.507000029087067;isolation: isolate"/>
              <rect id="rect36049-9-4-8-0-6-2-1-3-5-82-5-6-5-6-4-1-6-2-3" x="14.209" y="20.048" width="2.731" height="1.21" style="fill: #b3b3b3"/>
              <rect id="rect36051-8-8-2-7-2-0-4-8-2-2-5-8-5-7-7-4-4-2-3" x="15.119" y="20.048" width="0.91" height="1.21" style="fill: gray"/>
            </g>
            <rect x="14.209" y="20.169" width="0.467" height="0.968" style="fill: #dcc580"/>
          </g>
          <g>
            <g>
              <rect id="rect21332-8-1-9-3-8-2-40-6-2-0-6-4-9-2-4-6-3-2-0-1-7-7-10-6-8-2-7-8-4-61-2-4" x="16.181" y="23.128" width="1.214" height="1.694" style="fill: #d2d1d3;opacity: 0.507000029087067;isolation: isolate"/>
              <rect id="rect36049-9-4-8-0-6-2-1-3-5-82-5-6-5-6-4-1-6-2-4" x="14.209" y="23.37" width="2.731" height="1.21" style="fill: #b3b3b3"/>
              <rect id="rect36051-8-8-2-7-2-0-4-8-2-2-5-8-5-7-7-4-4-2-4" x="15.119" y="23.37" width="0.91" height="1.21" style="fill: gray"/>
            </g>
            <rect x="14.209" y="23.491" width="0.467" height="0.968" style="fill: #dcc580"/>
          </g>
          <g>
            <g>
              <rect id="rect21332-8-1-9-3-8-2-40-6-2-0-6-4-9-2-4-6-3-2-0-1-7-7-10-6-8-2-7-8-4-61-2-5" x="16.181" y="26.449" width="1.214" height="1.694" style="fill: #d2d1d3;opacity: 0.507000029087067;isolation: isolate"/>
              <rect id="rect36049-9-4-8-0-6-2-1-3-5-82-5-6-5-6-4-1-6-2-5" x="14.209" y="26.691" width="2.731" height="1.21" style="fill: #b3b3b3"/>
              <rect id="rect36051-8-8-2-7-2-0-4-8-2-2-5-8-5-7-7-4-4-2-5" x="15.119" y="26.691" width="0.91" height="1.21" style="fill: gray"/>
            </g>
            <rect x="14.209" y="26.812" width="0.467" height="0.968" style="fill: #dcc580"/>
          </g>
          <g>
            <g>
              <rect id="rect21332-8-1-9-3-8-2-40-6-2-0-6-4-9-2-4-6-3-2-0-1-7-7-10-6-8-2-7-8-4-61-2-6" x="16.181" y="29.77" width="1.214" height="1.694" style="fill: #d2d1d3;opacity: 0.507000029087067;isolation: isolate"/>
              <rect id="rect36049-9-4-8-0-6-2-1-3-5-82-5-6-5-6-4-1-6-2-6" x="14.209" y="30.013" width="2.731" height="1.21" style="fill: #b3b3b3"/>
              <rect id="rect36051-8-8-2-7-2-0-4-8-2-2-5-8-5-7-7-4-4-2-6" x="15.119" y="30.013" width="0.91" height="1.21" style="fill: gray"/>
            </g>
            <rect x="14.209" y="30.133" width="0.467" height="0.968" style="fill: #dcc580"/>
          </g>
          <g>
            <g>
              <rect id="rect21332-8-1-9-3-8-2-40-6-2-0-6-4-9-2-4-6-3-2-0-1-7-7-10-6-8-2-7-8-4-61-2-7" x="16.181" y="33.092" width="1.214" height="1.694" style="fill: #d2d1d3;opacity: 0.507000029087067;isolation: isolate"/>
              <rect id="rect36049-9-4-8-0-6-2-1-3-5-82-5-6-5-6-4-1-6-2-7" x="14.209" y="33.334" width="2.731" height="1.21" style="fill: #b3b3b3"/>
              <rect id="rect36051-8-8-2-7-2-0-4-8-2-2-5-8-5-7-7-4-4-2-7" x="15.119" y="33.334" width="0.91" height="1.21" style="fill: gray"/>
            </g>
            <rect x="14.209" y="33.455" width="0.467" height="0.968" style="fill: #dcc580"/>
          </g>
          <g>
            <g>
              <rect id="rect21332-8-1-9-3-8-2-40-6-2-0-6-4-9-2-4-6-3-2-0-1-7-7-10-6-8-2-7-8-4-61-2-8" x="16.181" y="36.413" width="1.214" height="1.694" style="fill: #d2d1d3;opacity: 0.507000029087067;isolation: isolate"/>
              <rect id="rect36049-9-4-8-0-6-2-1-3-5-82-5-6-5-6-4-1-6-2-8" x="14.209" y="36.655" width="2.731" height="1.21" style="fill: #b3b3b3"/>
              <rect id="rect36051-8-8-2-7-2-0-4-8-2-2-5-8-5-7-7-4-4-2-8" x="15.119" y="36.655" width="0.91" height="1.21" style="fill: gray"/>
            </g>
            <rect x="14.209" y="36.776" width="0.467" height="0.968" style="fill: #dcc580"/>
          </g>
          <g>
            <g>
              <rect id="rect21332-8-1-9-3-8-2-40-6-2-0-6-4-9-2-4-6-3-2-0-1-7-7-10-6-8-2-7-8-4-61-2-9-2" x="16.181" y="39.735" width="1.214" height="1.694" style="fill: #d2d1d3;opacity: 0.507000029087067;isolation: isolate"/>
              <rect id="rect36049-9-4-8-0-6-2-1-3-5-82-5-6-5-6-4-1-6-2-9-2" x="14.209" y="39.977" width="2.731" height="1.21" style="fill: #b3b3b3"/>
              <rect id="rect36051-8-8-2-7-2-0-4-8-2-2-5-8-5-7-7-4-4-2-9-2" x="15.119" y="39.977" width="0.91" height="1.21" style="fill: gray"/>
            </g>
            <rect x="14.209" y="40.098" width="0.467" height="0.968" style="fill: #dcc580"/>
          </g>
          <g>
            <g>
              <rect id="rect21332-8-1-9-3-8-2-40-6-2-0-6-4-9-2-4-6-3-2-0-1-7-7-10-6-8-2-7-8-4-61-2-10-2" x="16.181" y="43.056" width="1.214" height="1.694" style="fill: #d2d1d3;opacity: 0.507000029087067;isolation: isolate"/>
              <rect id="rect36049-9-4-8-0-6-2-1-3-5-82-5-6-5-6-4-1-6-2-10-2" x="14.209" y="43.298" width="2.731" height="1.21" style="fill: #b3b3b3"/>
              <rect id="rect36051-8-8-2-7-2-0-4-8-2-2-5-8-5-7-7-4-4-2-10-2" x="15.119" y="43.298" width="0.91" height="1.21" style="fill: gray"/>
            </g>
            <rect x="14.209" y="43.419" width="0.467" height="0.968" style="fill: #dcc580"/>
          </g>
        </g>
      </g>
      <g>
        <g>
          <path id="path106672-2" d="M62.873,17.548h3.9l1.5-1.6v-4.1l-1.5-1.6h-4.21l-1.5,1.6v4.1l1.5,1.6Z" style="fill: #404040"/>
          <rect id="rect106674-2" x="63.443" y="12.729" width="2.3" height="2.3" style="fill: #8d8c8c"/>
          <rect id="rect106676-2" x="63.943" y="13.329" width="1.2" height="1.2" style="fill: #8c8663"/>
          <polygon id="polygon106678-2" points="64.084 14.519 63.434 15.019 65.764 15.019 65.174 14.519 64.084 14.519" style="fill: #b8af82"/>
          <polygon id="polygon106680-2" points="63.434 15.019 63.434 12.719 64.084 13.329 64.084 14.519 63.434 15.019" style="fill: #80795b"/>
          <polygon id="polygon106682-2" points="63.434 12.719 65.764 12.719 65.174 13.329 64.084 13.329 63.434 12.719" style="fill: #5e5b43"/>
          <polygon id="polygon106684-2" points="65.174 13.329 65.764 12.719 65.764 15.019 65.174 14.519 65.174 13.329" style="fill: #9a916c"/>
          <path id="path106726-2" d="M55.754,17.548h3.8l1.5-1.6v-4.1l-1.5-1.6h-4.2l-1.5,1.6v4.1l1.5,1.6Z" style="fill: #404040"/>
          <rect id="rect106728-2" x="56.334" y="12.729" width="2.3" height="2.3" style="fill: #8d8c8c"/>
          <rect id="rect106730-2" x="56.834" y="13.329" width="1.2" height="1.2" style="fill: #8c8663"/>
          <polygon id="polygon106732-2" points="56.354 15.019 58.674 15.019 58.014 14.519 56.934 14.519 56.354 15.019" style="fill: #b8af82"/>
          <polygon id="polygon106734-2" points="56.354 12.719 56.934 13.329 56.934 14.519 56.354 15.019 56.354 12.719" style="fill: #80795b"/>
          <polygon id="polygon106736-2" points="58.674 12.719 58.014 13.329 56.934 13.329 56.354 12.719 58.674 12.719" style="fill: #5e5b43"/>
          <polygon id="polygon106738-2" points="58.674 12.719 58.674 15.019 58.014 14.519 58.014 13.329 58.674 12.719" style="fill: #9a916c"/>
        </g>
        <g>
          <path id="path106672-2-2" data-name="path106672-2" d="M62.873,25.048h3.9l1.5-1.6v-4.1l-1.5-1.6h-4.21l-1.5,1.6v4.1l1.5,1.6Z" style="fill: #404040"/>
          <rect id="rect106674-2-2" data-name="rect106674-2" x="63.443" y="20.229" width="2.3" height="2.3" style="fill: #8d8c8c"/>
          <rect id="rect106676-2-2" data-name="rect106676-2" x="63.943" y="20.829" width="1.2" height="1.2" style="fill: #8c8663"/>
          <polygon id="polygon106678-2-2" data-name="polygon106678-2" points="64.084 22.019 63.434 22.519 65.764 22.519 65.174 22.019 64.084 22.019" style="fill: #b8af82"/>
          <polygon id="polygon106680-2-2" data-name="polygon106680-2" points="63.434 22.519 63.434 20.219 64.084 20.829 64.084 22.019 63.434 22.519" style="fill: #80795b"/>
          <polygon id="polygon106682-2-2" data-name="polygon106682-2" points="63.434 20.219 65.764 20.219 65.174 20.829 64.084 20.829 63.434 20.219" style="fill: #5e5b43"/>
          <polygon id="polygon106684-2-2" data-name="polygon106684-2" points="65.174 20.829 65.764 20.219 65.764 22.519 65.174 22.019 65.174 20.829" style="fill: #9a916c"/>
          <path id="path106726-2-2" data-name="path106726-2" d="M55.754,25.048h3.8l1.5-1.6v-4.1l-1.5-1.6h-4.2l-1.5,1.6v4.1l1.5,1.6Z" style="fill: #404040"/>
          <rect id="rect106728-2-2" data-name="rect106728-2" x="56.334" y="20.229" width="2.3" height="2.3" style="fill: #8d8c8c"/>
          <rect id="rect106730-2-2" data-name="rect106730-2" x="56.834" y="20.829" width="1.2" height="1.2" style="fill: #8c8663"/>
          <polygon id="polygon106732-2-2" data-name="polygon106732-2" points="56.354 22.519 58.674 22.519 58.014 22.019 56.934 22.019 56.354 22.519" style="fill: #b8af82"/>
          <polygon id="polygon106734-2-2" data-name="polygon106734-2" points="56.354 20.219 56.934 20.829 56.934 22.019 56.354 22.519 56.354 20.219" style="fill: #80795b"/>
          <polygon id="polygon106736-2-2" data-name="polygon106736-2" points="58.674 20.219 58.014 20.829 56.934 20.829 56.354 20.219 58.674 20.219" style="fill: #5e5b43"/>
          <polygon id="polygon106738-2-2" data-name="polygon106738-2" points="58.674 20.219 58.674 22.519 58.014 22.019 58.014 20.829 58.674 20.219" style="fill: #9a916c"/>
        </g>
        <g>
          <path id="path106672-2-3" data-name="path106672-2" d="M62.873,32.548h3.9l1.5-1.6v-4.1l-1.5-1.6h-4.21l-1.5,1.6v4.1l1.5,1.6Z" style="fill: #404040"/>
          <rect id="rect106674-2-3" data-name="rect106674-2" x="63.443" y="27.729" width="2.3" height="2.3" style="fill: #8d8c8c"/>
          <rect id="rect106676-2-3" data-name="rect106676-2" x="63.943" y="28.329" width="1.2" height="1.2" style="fill: #8c8663"/>
          <polygon id="polygon106678-2-3" data-name="polygon106678-2" points="64.084 29.519 63.434 30.019 65.764 30.019 65.174 29.519 64.084 29.519" style="fill: #b8af82"/>
          <polygon id="polygon106680-2-3" data-name="polygon106680-2" points="63.434 30.019 63.434 27.719 64.084 28.329 64.084 29.519 63.434 30.019" style="fill: #80795b"/>
          <polygon id="polygon106682-2-3" data-name="polygon106682-2" points="63.434 27.719 65.764 27.719 65.174 28.329 64.084 28.329 63.434 27.719" style="fill: #5e5b43"/>
          <polygon id="polygon106684-2-3" data-name="polygon106684-2" points="65.174 28.329 65.764 27.719 65.764 30.019 65.174 29.519 65.174 28.329" style="fill: #9a916c"/>
          <path id="path106726-2-3" data-name="path106726-2" d="M55.754,32.548h3.8l1.5-1.6v-4.1l-1.5-1.6h-4.2l-1.5,1.6v4.1l1.5,1.6Z" style="fill: #404040"/>
          <rect id="rect106728-2-3" data-name="rect106728-2" x="56.334" y="27.729" width="2.3" height="2.3" style="fill: #8d8c8c"/>
          <rect id="rect106730-2-3" data-name="rect106730-2" x="56.834" y="28.329" width="1.2" height="1.2" style="fill: #8c8663"/>
          <polygon id="polygon106732-2-3" data-name="polygon106732-2" points="56.354 30.019 58.674 30.019 58.014 29.519 56.934 29.519 56.354 30.019" style="fill: #b8af82"/>
          <polygon id="polygon106734-2-3" data-name="polygon106734-2" points="56.354 27.719 56.934 28.329 56.934 29.519 56.354 30.019 56.354 27.719" style="fill: #80795b"/>
          <polygon id="polygon106736-2-3" data-name="polygon106736-2" points="58.674 27.719 58.014 28.329 56.934 28.329 56.354 27.719 58.674 27.719" style="fill: #5e5b43"/>
          <polygon id="polygon106738-2-3" data-name="polygon106738-2" points="58.674 27.719 58.674 30.019 58.014 29.519 58.014 28.329 58.674 27.719" style="fill: #9a916c"/>
        </g>
        <g>
          <path id="path106672-2-4" data-name="path106672-2" d="M62.873,40.048h3.9l1.5-1.6v-4.1l-1.5-1.6h-4.21l-1.5,1.6v4.1l1.5,1.6Z" style="fill: #404040"/>
          <rect id="rect106674-2-4" data-name="rect106674-2" x="63.443" y="35.229" width="2.3" height="2.3" style="fill: #8d8c8c"/>
          <rect id="rect106676-2-4" data-name="rect106676-2" x="63.943" y="35.829" width="1.2" height="1.2" style="fill: #8c8663"/>
          <polygon id="polygon106678-2-4" data-name="polygon106678-2" points="64.084 37.019 63.434 37.519 65.764 37.519 65.174 37.019 64.084 37.019" style="fill: #b8af82"/>
          <polygon id="polygon106680-2-4" data-name="polygon106680-2" points="63.434 37.519 63.434 35.219 64.084 35.829 64.084 37.019 63.434 37.519" style="fill: #80795b"/>
          <polygon id="polygon106682-2-4" data-name="polygon106682-2" points="63.434 35.219 65.764 35.219 65.174 35.829 64.084 35.829 63.434 35.219" style="fill: #5e5b43"/>
          <polygon id="polygon106684-2-4" data-name="polygon106684-2" points="65.174 35.829 65.764 35.219 65.764 37.519 65.174 37.019 65.174 35.829" style="fill: #9a916c"/>
          <path id="path106726-2-4" data-name="path106726-2" d="M55.754,40.048h3.8l1.5-1.6v-4.1l-1.5-1.6h-4.2l-1.5,1.6v4.1l1.5,1.6Z" style="fill: #404040"/>
          <rect id="rect106728-2-4" data-name="rect106728-2" x="56.334" y="35.229" width="2.3" height="2.3" style="fill: #8d8c8c"/>
          <rect id="rect106730-2-4" data-name="rect106730-2" x="56.834" y="35.829" width="1.2" height="1.2" style="fill: #8c8663"/>
          <polygon id="polygon106732-2-4" data-name="polygon106732-2" points="56.354 37.519 58.674 37.519 58.014 37.019 56.934 37.019 56.354 37.519" style="fill: #b8af82"/>
          <polygon id="polygon106734-2-4" data-name="polygon106734-2" points="56.354 35.219 56.934 35.829 56.934 37.019 56.354 37.519 56.354 35.219" style="fill: #80795b"/>
          <polygon id="polygon106736-2-4" data-name="polygon106736-2" points="58.674 35.219 58.014 35.829 56.934 35.829 56.354 35.219 58.674 35.219" style="fill: #5e5b43"/>
          <polygon id="polygon106738-2-4" data-name="polygon106738-2" points="58.674 35.219 58.674 37.519 58.014 37.019 58.014 35.829 58.674 35.219" style="fill: #9a916c"/>
        </g>
        <g>
          <path id="path106672-2-5" data-name="path106672-2" d="M62.873,47.548h3.9l1.5-1.6v-4.1l-1.5-1.6h-4.21l-1.5,1.6v4.1l1.5,1.6Z" style="fill: #404040"/>
          <rect id="rect106674-2-5" data-name="rect106674-2" x="63.443" y="42.729" width="2.3" height="2.3" style="fill: #8d8c8c"/>
          <rect id="rect106676-2-5" data-name="rect106676-2" x="63.943" y="43.329" width="1.2" height="1.2" style="fill: #8c8663"/>
          <polygon id="polygon106678-2-5" data-name="polygon106678-2" points="64.084 44.519 63.434 45.019 65.764 45.019 65.174 44.519 64.084 44.519" style="fill: #b8af82"/>
          <polygon id="polygon106680-2-5" data-name="polygon106680-2" points="63.434 45.019 63.434 42.719 64.084 43.329 64.084 44.519 63.434 45.019" style="fill: #80795b"/>
          <polygon id="polygon106682-2-5" data-name="polygon106682-2" points="63.434 42.719 65.764 42.719 65.174 43.329 64.084 43.329 63.434 42.719" style="fill: #5e5b43"/>
          <polygon id="polygon106684-2-5" data-name="polygon106684-2" points="65.174 43.329 65.764 42.719 65.764 45.019 65.174 44.519 65.174 43.329" style="fill: #9a916c"/>
          <path id="path106726-2-5" data-name="path106726-2" d="M55.754,47.548h3.8l1.5-1.6v-4.1l-1.5-1.6h-4.2l-1.5,1.6v4.1l1.5,1.6Z" style="fill: #404040"/>
          <rect id="rect106728-2-5" data-name="rect106728-2" x="56.334" y="42.729" width="2.3" height="2.3" style="fill: #8d8c8c"/>
          <rect id="rect106730-2-5" data-name="rect106730-2" x="56.834" y="43.329" width="1.2" height="1.2" style="fill: #8c8663"/>
          <polygon id="polygon106732-2-5" data-name="polygon106732-2" points="56.354 45.019 58.674 45.019 58.014 44.519 56.934 44.519 56.354 45.019" style="fill: #b8af82"/>
          <polygon id="polygon106734-2-5" data-name="polygon106734-2" points="56.354 42.719 56.934 43.329 56.934 44.519 56.354 45.019 56.354 42.719" style="fill: #80795b"/>
          <polygon id="polygon106736-2-5" data-name="polygon106736-2" points="58.674 42.719 58.014 43.329 56.934 43.329 56.354 42.719 58.674 42.719" style="fill: #5e5b43"/>
          <polygon id="polygon106738-2-5" data-name="polygon106738-2" points="58.674 42.719 58.674 45.019 58.014 44.519 58.014 43.329 58.674 42.719" style="fill: #9a916c"/>
        </g>
        <g>
          <text transform="translate(42.641 15.494)" style="isolation: isolate;font-size: 4px;fill: #fff;font-family: TrebuchetMS, Trebuchet MS">+5V</text>
          <text transform="translate(70.158 44.75)" style="isolation: isolate;font-size: 4px;fill: #fff;font-family: TrebuchetMS, Trebuchet MS">GND</text>
          <text transform="translate(70.158 15.494)" style="isolation: isolate;font-size: 4px;fill: #fff;font-family: TrebuchetMS, Trebuchet MS">I0_7</text>
          <text transform="translate(70.158 37.436)" style="isolation: isolate;font-size: 4px;fill: #fff;font-family: TrebuchetMS, Trebuchet MS">I0_1</text>
          <text transform="translate(42.641 36.801)" style="isolation: isolate;font-size: 4px;fill: #fff;font-family: TrebuchetMS, Trebuchet MS">I0_2</text>
          <text transform="translate(70.158 30.122)" style="isolation: isolate;font-size: 4px;fill: #fff;font-family: TrebuchetMS, Trebuchet MS">I0_3</text>
          <text transform="translate(42.641 29.699)" style="isolation: isolate;font-size: 4px;fill: #fff;font-family: TrebuchetMS, Trebuchet MS">I0_4</text>
          <text transform="translate(70.158 22.808)" style="isolation: isolate;font-size: 4px;fill: #fff;font-family: TrebuchetMS, Trebuchet MS">I0_5</text>
          <text transform="translate(42.641 22.596)" style="isolation: isolate;font-size: 4px;fill: #fff;font-family: TrebuchetMS, Trebuchet MS">I0_6</text>
          <text transform="translate(42.641 43.903)" style="isolation: isolate;font-size: 4px;fill: #fff;font-family: TrebuchetMS, Trebuchet MS">I0_0</text>
        </g>
      </g>
      <text transform="translate(41.624 54.162)" style="font-size: 4px;fill: #fff;font-family: TrebuchetMS, Trebuchet MS">Nextion IO<tspan x="18.811" y="0" style="letter-spacing: -0.05517578125em"> </tspan><tspan x="19.795" y="0">Adapter </tspan></text>
    </g>
  </g>
</svg>
