<?xml version="1.0" encoding="UTF-8" standalone="no"?>
<!-- Created with Inkscape (http://www.inkscape.org/) -->

<svg
   xmlns:dc="http://purl.org/dc/elements/1.1/"
   xmlns:cc="http://creativecommons.org/ns#"
   xmlns:rdf="http://www.w3.org/1999/02/22-rdf-syntax-ns#"
   xmlns:svg="http://www.w3.org/2000/svg"
   xmlns="http://www.w3.org/2000/svg"
   xmlns:xlink="http://www.w3.org/1999/xlink"
   xmlns:sodipodi="http://sodipodi.sourceforge.net/DTD/sodipodi-0.dtd"
   xmlns:inkscape="http://www.inkscape.org/namespaces/inkscape"
   width="64.187378mm"
   height="109.83932mm"
   viewBox="0 0 64.187378 109.83932"
   version="1.1"
   id="svg4618"
   inkscape:version="0.92.1 r15371"
   sodipodi:docname="noolite-srf-1-3000-remote-control-switch.svg">
  <defs
     id="defs4612">
    <linearGradient
       inkscape:collect="always"
       xlink:href="#linearGradient1390"
       id="linearGradient1392"
       x1="45.610794"
       y1="155.16374"
       x2="45.582085"
       y2="154.11954"
       gradientUnits="userSpaceOnUse"
       gradientTransform="translate(-369.79952,-195.12636)" />
    <linearGradient
       inkscape:collect="always"
       id="linearGradient1390">
      <stop
         style="stop-color:#959595;stop-opacity:1"
         offset="0"
         id="stop1386" />
      <stop
         style="stop-color:#a9a9a9;stop-opacity:0;"
         offset="1"
         id="stop1388" />
    </linearGradient>
    <linearGradient
       gradientTransform="translate(-369.79952,-195.12636)"
       inkscape:collect="always"
       xlink:href="#linearGradient1390"
       id="linearGradient1392-6"
       x1="45.77047"
       y1="190.05721"
       x2="45.683453"
       y2="191.6235"
       gradientUnits="userSpaceOnUse" />
    <linearGradient
       inkscape:collect="always"
       xlink:href="#linearGradient1129"
       id="linearGradient1131"
       x1="20.673969"
       y1="181.20116"
       x2="17.474428"
       y2="180.4628"
       gradientUnits="userSpaceOnUse"
       gradientTransform="translate(-369.79952,-195.12636)" />
    <linearGradient
       inkscape:collect="always"
       id="linearGradient1129">
      <stop
         style="stop-color:#a7ada7;stop-opacity:1;"
         offset="0"
         id="stop1125" />
      <stop
         style="stop-color:#a7ada7;stop-opacity:0;"
         offset="1"
         id="stop1127" />
    </linearGradient>
    <linearGradient
       inkscape:collect="always"
       xlink:href="#linearGradient1095"
       id="linearGradient1097"
       x1="71.497482"
       y1="181.74074"
       x2="74.832458"
       y2="180.80722"
       gradientUnits="userSpaceOnUse"
       gradientTransform="translate(-369.79952,-195.12636)" />
    <linearGradient
       inkscape:collect="always"
       id="linearGradient1095">
      <stop
         style="stop-color:#a7ada7;stop-opacity:1;"
         offset="0"
         id="stop1091" />
      <stop
         style="stop-color:#bec3be;stop-opacity:0"
         offset="1"
         id="stop1093" />
    </linearGradient>
    <linearGradient
       inkscape:collect="always"
       xlink:href="#linearGradient1057"
       id="linearGradient1059"
       x1="46.516434"
       y1="145.88312"
       x2="46.270317"
       y2="136.53059"
       gradientUnits="userSpaceOnUse"
       gradientTransform="translate(-369.79952,-195.12636)" />
    <linearGradient
       inkscape:collect="always"
       id="linearGradient1057">
      <stop
         style="stop-color:#f4f3f1;stop-opacity:1;"
         offset="0"
         id="stop1053" />
      <stop
         style="stop-color:#b3ac9e;stop-opacity:0"
         offset="1"
         id="stop1055" />
    </linearGradient>
    <linearGradient
       inkscape:collect="always"
       xlink:href="#linearGradient1209"
       id="linearGradient1211"
       x1="47.510792"
       y1="231.56389"
       x2="48.032887"
       y2="236.95889"
       gradientUnits="userSpaceOnUse"
       gradientTransform="matrix(1.0023422,0,0,0.99702116,-369.97923,-189.29)" />
    <linearGradient
       inkscape:collect="always"
       id="linearGradient1209">
      <stop
         style="stop-color:#f4f3f1;stop-opacity:1;"
         offset="0"
         id="stop1205" />
      <stop
         style="stop-color:#f4f3f1;stop-opacity:0;"
         offset="1"
         id="stop1207" />
    </linearGradient>
  </defs>
  <sodipodi:namedview
     id="base"
     pagecolor="#ffffff"
     bordercolor="#666666"
     borderopacity="1.0"
     inkscape:pageopacity="0.0"
     inkscape:pageshadow="2"
     inkscape:zoom="0.98994949"
     inkscape:cx="312.28972"
     inkscape:cy="153.76626"
     inkscape:document-units="mm"
     inkscape:current-layer="layer1"
     showgrid="false"
     fit-margin-top="0"
     fit-margin-left="0"
     fit-margin-right="0"
     fit-margin-bottom="0"
     inkscape:window-width="1366"
     inkscape:window-height="705"
     inkscape:window-x="-8"
     inkscape:window-y="-8"
     inkscape:window-maximized="1" />
  <metadata
     id="metadata4615">
    <rdf:RDF>
      <cc:Work
         rdf:about="">
        <dc:format>image/svg+xml</dc:format>
        <dc:type
           rdf:resource="http://purl.org/dc/dcmitype/StillImage" />
        <dc:title></dc:title>
      </cc:Work>
    </rdf:RDF>
  </metadata>
  <g
     inkscape:label="Layer 1"
     inkscape:groupmode="layer"
     id="layer1"
     transform="translate(355.64131,58.788708)">
    <path
       style="opacity:1;fill:#eaeaea;fill-opacity:1;fill-rule:evenodd;stroke:#34342f;stroke-width:0.2;stroke-miterlimit:4;stroke-dasharray:none;stroke-opacity:0.52941165;paint-order:stroke fill markers"
       d="m -338.65361,-58.48715 c -8.80127,0 -15.88637,13.10605 -15.88637,29.385801 v 42.02844 c -0.17595,2.703719 -0.12452,4.407379 0.0739,6.300391 0,17.57458 13.69666,31.72313 30.71027,31.72313 17.0136,0 30.71078,-14.14855 30.71078,-31.72313 0.14895,-2.62954 0.19603,-4.358661 0.30489,-6.300391 v -42.02844 c 0,-16.279751 -7.08561,-29.385801 -15.88688,-29.385801 z"
       id="rect977"
       inkscape:connector-curvature="0"
       sodipodi:nodetypes="ssccsccsss" />
    <path
       style="opacity:1;fill:url(#linearGradient1211);fill-opacity:1;fill-rule:evenodd;stroke:none;stroke-width:0.19993564;stroke-miterlimit:4;stroke-dasharray:none;stroke-opacity:0.52941165;paint-order:stroke fill markers"
       d="m -348.37963,37.846711 c -4.64178,-6.48811 -6.94086,-14.258869 -5.59083,-36.0245496 l 60.31219,0.807709 c 1.74147,21.0661806 -0.47058,28.3864896 -5.62826,35.7171806 -4.17792,5.938171 -12.14884,9.501411 -23.13108,11.404161 -15.8787,-2.5183 -20.54439,-5.46363 -25.96202,-11.904501 z"
       id="rect981-1-2"
       inkscape:connector-curvature="0"
       sodipodi:nodetypes="cccscc" />
    <path
       style="opacity:1;fill:url(#linearGradient1059);fill-opacity:1;fill-rule:evenodd;stroke:none;stroke-width:0.2;stroke-miterlimit:4;stroke-dasharray:none;stroke-opacity:0.52941165;paint-order:stroke fill markers"
       d="m -339.75859,-58.41933 c -1.74911,0.0205 -6.12207,0.96507 -10.56808,8.87759 -4.84387,8.62055 -6.19582,23.8286 -4.78703,52.7479894 l 62.93788,-1.073168 c 1.81729,-27.9899804 0.10207,-41.6669014 -4.0059,-50.2542714 -3.94006,-8.23638 -9.91256,-10.69294 -12.09726,-10.66732 z"
       id="rect981-1"
       inkscape:connector-curvature="0"
       sodipodi:nodetypes="ssccsss" />
    <circle
       style="opacity:1;fill:#1a1a1a;fill-opacity:1;fill-rule:nonzero;stroke:#40403a;stroke-width:0.49999997;stroke-linecap:round;stroke-linejoin:round;stroke-miterlimit:4;stroke-dasharray:none;stroke-dashoffset:0;stroke-opacity:0.52941165;paint-order:stroke fill markers"
       id="path815-6"
       cx="-324.40372"
       cy="-21.677948"
       r="19.25" />
    <path
       inkscape:connector-curvature="0"
       style="opacity:1;fill:#f4f4f4;fill-opacity:1;fill-rule:nonzero;stroke:#c3c3c3;stroke-width:0.49999997;stroke-linecap:round;stroke-linejoin:round;stroke-miterlimit:4;stroke-dasharray:none;stroke-dashoffset:0;stroke-opacity:1;paint-order:stroke fill markers"
       d="m -334.08438,-46.81758 c -8.09877,0 -14.61875,6.51998 -14.61875,14.61874 v 20.3507 c 0,8.0987614 6.51998,14.6187404 14.61875,14.6187404 h 20.35121 c 8.09876,0 14.61874,-6.519979 14.61874,-14.6187404 v -20.3507 c 0,-8.09876 -6.51998,-14.61874 -14.61874,-14.61874 z m 1.29914,21.548551 a 3.3162468,3.3162468 0 0 1 3.31608,3.316078 3.3162468,3.3162468 0 0 1 -3.31608,3.316592 3.3162468,3.3162468 0 0 1 -3.31608,-3.316592 3.3162468,3.3162468 0 0 1 3.31608,-3.316078 z m 17.25476,0 a 3.3162468,3.3162468 0 0 1 3.31659,3.316078 3.3162468,3.3162468 0 0 1 -3.31659,3.316592 3.3162468,3.3162468 0 0 1 -3.31608,-3.316592 3.3162468,3.3162468 0 0 1 3.31608,-3.316078 z"
       id="rect817-4" />
    <path
       style="opacity:1;fill:#eae9e9;fill-opacity:1;fill-rule:nonzero;stroke:#c3c3c3;stroke-width:0.5;stroke-linecap:round;stroke-linejoin:round;stroke-miterlimit:4;stroke-dasharray:none;stroke-dashoffset:0;stroke-opacity:1;paint-order:stroke fill markers"
       d="m -333.05071,-46.00461 c -8.09877,0 -14.61875,6.51998 -14.61875,14.61874 v 18.262451 c 0,8.0987694 6.51998,14.6187484 14.61875,14.6187484 h 18.26245 c 8.09876,0 14.61874,-6.519979 14.61874,-14.6187484 V -31.38587 c 0,-8.09876 -6.51998,-14.61874 -14.61874,-14.61874 z m 9.13122,4.49998 a 19.25,19.25 0 0 1 19.24999,19.249991 19.25,19.25 0 0 1 -19.24999,19.2499804 19.25,19.25 0 0 1 -19.24999,-19.2499804 19.25,19.25 0 0 1 19.24999,-19.249991 z"
       id="rect817-0-0"
       inkscape:connector-curvature="0" />
    <rect
       style="opacity:1;fill:none;fill-opacity:1;fill-rule:nonzero;stroke:#c3c3c3;stroke-width:0.5;stroke-linecap:round;stroke-linejoin:round;stroke-miterlimit:4;stroke-dasharray:none;stroke-dashoffset:0;stroke-opacity:1;paint-order:stroke fill markers"
       id="rect817-4-7"
       width="46.455807"
       height="46.455807"
       x="-347.1474"
       y="-45.482544"
       ry="14.618706"
       rx="14.618705" />
    <rect
       style="opacity:1;fill:#0bff6b;fill-opacity:1;fill-rule:evenodd;stroke:#060605;stroke-width:0.2;stroke-miterlimit:4;stroke-dasharray:none;stroke-opacity:0.52941165;paint-order:stroke fill markers"
       id="rect981-1-6"
       width="6.8668585"
       height="3.6504366"
       x="-327.24234"
       y="31.243855"
       rx="12.736331"
       ry="8.9626608" />
    <path
       style="opacity:1;fill:url(#linearGradient1097);fill-opacity:1;fill-rule:evenodd;stroke:none;stroke-width:0.19999999;stroke-miterlimit:4;stroke-dasharray:none;stroke-opacity:0.52941165;paint-order:stroke fill markers"
       d="m -292.64243,-30.157061 c -0.014,-4.321209 0.0342,-15.729999 -3.73512,-19.068249 -6.0342,8.65571 0.13289,26.29475 -2.95648,41.7187204 8.35602,14.698121 6.87325,32.9422816 6.78554,6.10049 z"
       id="rect981-1-8"
       inkscape:connector-curvature="0"
       sodipodi:nodetypes="cccsc" />
    <path
       style="opacity:1;fill:url(#linearGradient1131);fill-opacity:1;fill-rule:evenodd;stroke:none;stroke-width:0.19999999;stroke-miterlimit:4;stroke-dasharray:none;stroke-opacity:0.52941165;paint-order:stroke fill markers"
       d="m -355.24545,-27.734811 c -0.76394,-4.321209 1.52202,-17.698949 5.13989,-21.037199 4.49605,9.64018 -1.81196,17.065301 2.06027,41.2264824 -8.02029,14.69812 -6.56904,35.3880576 -6.90162,6.10049 z"
       id="rect981-1-8-4"
       inkscape:connector-curvature="0"
       sodipodi:nodetypes="cccsc" />
    <path
       style="opacity:1;fill:#f8f8f8;fill-opacity:1;fill-rule:evenodd;stroke:#34342f;stroke-width:0.2;stroke-miterlimit:4;stroke-dasharray:none;stroke-opacity:0.52941165;paint-order:stroke fill markers"
       d="m -341.36199,-30.00764 c -0.87651,2.77086 -0.90363,2.183691 -1.48745,5.78916 l 2.59409,0.0473 z"
       id="rect981-3"
       inkscape:connector-curvature="0"
       sodipodi:nodetypes="cccc" />
    <path
       style="opacity:1;fill:#f8f8f8;fill-opacity:1;fill-rule:evenodd;stroke:#34342f;stroke-width:0.2;stroke-miterlimit:4;stroke-dasharray:none;stroke-opacity:0.52941165;paint-order:stroke fill markers"
       d="m -306.51581,-29.89466 c 0.57196,1.639649 1.20819,2.879831 1.44394,5.615141 l -2.55058,0.0475 z"
       id="rect981-3-4"
       inkscape:connector-curvature="0"
       sodipodi:nodetypes="cccc" />
    <path
       style="opacity:1;fill:#f8f8f8;fill-opacity:1;fill-rule:evenodd;stroke:#34342f;stroke-width:0.2;stroke-miterlimit:4;stroke-dasharray:none;stroke-opacity:0.52941165;paint-order:stroke fill markers"
       d="m -306.68785,-14.464401 c 1.29508,-2.979939 1.41404,-4.000648 1.65453,-5.594249 l -2.48517,-0.095 z"
       id="rect981-3-4-8"
       inkscape:connector-curvature="0"
       sodipodi:nodetypes="cccc" />
    <path
       style="opacity:1;fill:#f8f8f8;fill-opacity:1;fill-rule:evenodd;stroke:#34342f;stroke-width:0.2;stroke-miterlimit:4;stroke-dasharray:none;stroke-opacity:0.52941165;paint-order:stroke fill markers"
       d="m -341.25481,-14.594309 c -1.29507,-2.979941 -1.32702,-3.91364 -1.56751,-5.507241 l 2.52868,-0.008 z"
       id="rect981-3-4-8-9"
       inkscape:connector-curvature="0"
       sodipodi:nodetypes="cccc" />
    <path
       style="fill:none;fill-opacity:1;stroke:#999999;stroke-width:0.38534221;stroke-opacity:1"
       inkscape:connector-curvature="0"
       d="m -304.74209,-21.686891 c 0.004,-10.956519 -8.58861,-19.864899 -19.17646,-19.864899 -10.57153,0 -19.15606,8.92506 -19.15606,19.864899"
       id="0.2.13.2.1.1-16-0-2"
       sodipodi:nodetypes="csc" />
    <rect
       style="opacity:1;fill:#eaeaea;fill-opacity:1;fill-rule:evenodd;stroke:none;stroke-width:0.19999999;stroke-miterlimit:4;stroke-dasharray:none;stroke-opacity:0.52941165;paint-order:stroke fill markers"
       id="rect981-16"
       width="3.8"
       height="4.8000002"
       x="-325.85638"
       y="-41.585388"
       rx="0"
       ry="0" />
    <rect
       style="opacity:1;fill:#eaeaea;fill-opacity:1;fill-rule:evenodd;stroke:none;stroke-width:0.2;stroke-miterlimit:4;stroke-dasharray:none;stroke-opacity:0.52941165;paint-order:stroke fill markers"
       id="rect981-16-3"
       width="3.8"
       height="4.7999997"
       x="-325.85638"
       y="-7.6067352"
       rx="0"
       ry="0" />
    <rect
       style="opacity:1;fill:url(#linearGradient1392-6);fill-opacity:1;fill-rule:evenodd;stroke:none;stroke-width:0.2;stroke-miterlimit:4;stroke-dasharray:none;stroke-opacity:0.52941165;paint-order:stroke fill markers"
       id="rect981-16-5-6"
       width="2.7558069"
       height="3.8290839"
       x="-325.40695"
       y="-7.3317566"
       rx="0"
       ry="0" />
    <circle
       style="opacity:1;fill:none;fill-opacity:1;fill-rule:nonzero;stroke:#010101;stroke-width:0.2;stroke-linecap:round;stroke-linejoin:round;stroke-miterlimit:4;stroke-dasharray:none;stroke-dashoffset:0;stroke-opacity:0.52941165;paint-order:stroke fill markers"
       id="path815-6-3-3-6"
       cx="-315.46881"
       cy="-21.985596"
       r="3.3162467" />
    <g
       id="g867"
       transform="translate(-369.79952,-195.12636)">
      <circle
         r="3.3162467"
         cy="173.20229"
         cx="36.979336"
         id="path815-6-3-3-6-0"
         style="opacity:1;fill:none;fill-opacity:1;fill-rule:nonzero;stroke:#010101;stroke-width:0.2;stroke-linecap:round;stroke-linejoin:round;stroke-miterlimit:4;stroke-dasharray:none;stroke-dashoffset:0;stroke-opacity:0.52941165;paint-order:stroke fill markers" />
    </g>
    <rect
       style="opacity:1;fill:none;fill-opacity:1;fill-rule:evenodd;stroke:#060605;stroke-width:0.30000001;stroke-miterlimit:4;stroke-dasharray:none;stroke-opacity:0.52941165;paint-order:stroke fill markers"
       id="rect981-1-6-5"
       width="6.8668585"
       height="3.6504366"
       x="-327.32138"
       y="31.224766"
       rx="12.736331"
       ry="8.9626608" />
    <path
       style="fill:none;fill-opacity:1;stroke:#f2f2f2;stroke-width:0.60000002;stroke-miterlimit:4;stroke-dasharray:none;stroke-opacity:1"
       inkscape:connector-curvature="0"
       d="m -343.08641,-21.670209 c -0.0162,10.193668 8.55357,18.4334204 19.09008,18.4334204 10.53246,0 19.09009,-8.2551294 19.09009,-18.4334204"
       id="0.2.13.2.1.0-0-6-9"
       sodipodi:nodetypes="csc" />
    <rect
       style="opacity:1;fill:url(#linearGradient1392);fill-opacity:1;fill-rule:evenodd;stroke:none;stroke-width:0.2;stroke-miterlimit:4;stroke-dasharray:none;stroke-opacity:0.52941165;paint-order:stroke fill markers"
       id="rect981-16-5"
       width="2.7558069"
       height="4.4511046"
       x="-325.31995"
       y="-41.803055"
       rx="0"
       ry="0" />
  </g>
</svg>
