<svg id="openmv-super-telephoto-lens" xmlns="http://www.w3.org/2000/svg" xmlns:xlink="http://www.w3.org/1999/xlink" width="40.676mm" height="14.286mm" viewBox="0 0 115.301 40.497">
  <defs>
    <style>
      .cls-1, .cls-17, .cls-3, .cls-5, .cls-6, .cls-8 {
        fill: none;
      }

      .cls-1, .cls-3, .cls-6 {
        stroke: #000;
      }

      .cls-1, .cls-3, .cls-5, .cls-6 {
        stroke-miterlimit: 10;
      }

      .cls-1 {
        stroke-width: 0.283px;
      }

      .cls-17, .cls-2, .cls-4, .cls-8, .cls-9 {
        stroke-miterlimit: 17.399;
      }

      .cls-2, .cls-8, .cls-9 {
        stroke-width: 0.283px;
      }

      .cls-2 {
        fill: url(#Безымянный_градиент_5);
        stroke: url(#Безымянный_градиент_13);
      }

      .cls-3 {
        stroke-width: 0.567px;
      }

      .cls-4 {
        fill: #282426;
        stroke-width: 0.709px;
      }

      .cls-4, .cls-8, .cls-9 {
        stroke: #333;
      }

      .cls-5 {
        stroke: #4d4d4d;
      }

      .cls-5, .cls-6 {
        stroke-width: 0.85px;
      }

      .cls-7, .cls-9 {
        fill: #3f3d3e;
      }

      .cls-10 {
        fill: url(#Безымянный_градиент_18);
      }

      .cls-11 {
        fill: url(#Безымянный_градиент_101);
      }

      .cls-12 {
        fill: url(#Безымянный_градиент_19);
      }

      .cls-13 {
        fill: url(#Безымянный_градиент_19-2);
      }

      .cls-14 {
        fill: url(#Безымянный_градиент_19-3);
      }

      .cls-15 {
        fill: url(#Безымянный_градиент_63);
      }

      .cls-16 {
        fill: url(#Безымянный_градиент_50);
      }

      .cls-17 {
        stroke: #5b5a5a;
      }

      .cls-18 {
        fill: url(#Безымянный_градиент_38);
      }
    </style>
    <linearGradient id="Безымянный_градиент_5" data-name="Безымянный градиент 5" x1="58.33" y1="20.292" x2="100.126" y2="20.292" gradientTransform="translate(58.936 99.52) rotate(-90)" gradientUnits="userSpaceOnUse">
      <stop offset="0.025" stop-color="#282426"/>
      <stop offset="0.906" stop-color="#282426"/>
      <stop offset="1" stop-color="#282426"/>
    </linearGradient>
    <linearGradient id="Безымянный_градиент_13" data-name="Безымянный градиент 13" x1="58.188" y1="20.292" x2="100.268" y2="20.292" gradientTransform="translate(58.936 99.52) rotate(-90)" gradientUnits="userSpaceOnUse">
      <stop offset="0.025" stop-color="#1a1a1a"/>
      <stop offset="1"/>
    </linearGradient>
    <radialGradient id="Безымянный_градиент_18" data-name="Безымянный градиент 18" cx="15.407" cy="20.252" r="7.559" gradientTransform="translate(0.069 -6.337) scale(1.313 1.313)" gradientUnits="userSpaceOnUse">
      <stop offset="0" stop-color="#fff" stop-opacity="0"/>
      <stop offset="0.765" stop-color="#080808" stop-opacity="0.1"/>
      <stop offset="1" stop-color="#0d0d0d" stop-opacity="0.9"/>
    </radialGradient>
    <radialGradient id="Безымянный_градиент_101" data-name="Безымянный градиент 101" cx="20.047" cy="20.244" r="8.402" gradientTransform="translate(0.003 -0.245) scale(1.012 1.012)" gradientUnits="userSpaceOnUse">
      <stop offset="0.008" stop-color="#fff" stop-opacity="0.7"/>
      <stop offset="0.092" stop-color="#fff" stop-opacity="0.728"/>
      <stop offset="0.308" stop-color="#fff" stop-opacity="0.782"/>
      <stop offset="0.5" stop-color="#fff" stop-opacity="0.8"/>
      <stop offset="0.696" stop-color="#fff" stop-opacity="0.78"/>
      <stop offset="0.93" stop-color="#fff" stop-opacity="0.723"/>
      <stop offset="1" stop-color="#fff" stop-opacity="0.7"/>
    </radialGradient>
    <linearGradient id="Безымянный_градиент_19" data-name="Безымянный градиент 19" x1="15.627" y1="22.624" x2="17.627" y2="22.624" gradientUnits="userSpaceOnUse">
      <stop offset="0.017" stop-color="#b3b3b3" stop-opacity="0.6"/>
      <stop offset="0.259" stop-color="#bdbdbd" stop-opacity="0.547"/>
      <stop offset="0.623" stop-color="#d9d9d9" stop-opacity="0.401"/>
      <stop offset="1" stop-color="#fff" stop-opacity="0.2"/>
    </linearGradient>
    <linearGradient id="Безымянный_градиент_19-2" x1="23.193" y1="18.669" x2="25.193" y2="18.669" xlink:href="#Безымянный_градиент_19"/>
    <linearGradient id="Безымянный_градиент_19-3" x1="19.556" y1="20.669" x2="20.406" y2="20.669" xlink:href="#Безымянный_градиент_19"/>
    <radialGradient id="Безымянный_градиент_63" data-name="Безымянный градиент 63" cx="20.292" cy="20.244" r="4.51" gradientUnits="userSpaceOnUse">
      <stop offset="0.014" stop-color="#fff" stop-opacity="0.3"/>
      <stop offset="0.085" stop-color="#eeccec" stop-opacity="0.349"/>
      <stop offset="0.235" stop-color="#d274cd" stop-opacity="0.432"/>
      <stop offset="0.379" stop-color="#c13fba" stop-opacity="0.483"/>
      <stop offset="0.506" stop-color="#bb2db3" stop-opacity="0.5"/>
      <stop offset="0.559" stop-color="#bc32b5" stop-opacity="0.511"/>
      <stop offset="0.624" stop-color="#c13fb9" stop-opacity="0.542"/>
      <stop offset="0.694" stop-color="#c855c1" stop-opacity="0.595"/>
      <stop offset="0.768" stop-color="#d273cc" stop-opacity="0.667"/>
      <stop offset="0.845" stop-color="#df9bdb" stop-opacity="0.761"/>
      <stop offset="0.923" stop-color="#eecaec" stop-opacity="0.874"/>
      <stop offset="1" stop-color="#fff"/>
    </radialGradient>
    <radialGradient id="Безымянный_градиент_50" data-name="Безымянный градиент 50" cx="23.71" cy="19.902" r="9.921" gradientTransform="translate(-0.032 2.897) scale(0.857 0.857)" gradientUnits="userSpaceOnUse">
      <stop offset="0.025" stop-color="#fff" stop-opacity="0.1"/>
      <stop offset="0.034" stop-color="#fff" stop-opacity="0.237"/>
      <stop offset="0.045" stop-color="#fff" stop-opacity="0.361"/>
      <stop offset="0.057" stop-color="#fff" stop-opacity="0.467"/>
      <stop offset="0.07" stop-color="#fff" stop-opacity="0.553"/>
      <stop offset="0.085" stop-color="#fff" stop-opacity="0.62"/>
      <stop offset="0.105" stop-color="#fff" stop-opacity="0.666"/>
      <stop offset="0.132" stop-color="#fff" stop-opacity="0.693"/>
      <stop offset="0.207" stop-color="#fff" stop-opacity="0.7"/>
      <stop offset="0.545" stop-color="#fff" stop-opacity="0.513"/>
      <stop offset="0.596" stop-color="#fff" stop-opacity="0.455"/>
      <stop offset="0.781" stop-color="#fff" stop-opacity="0.263"/>
      <stop offset="0.921" stop-color="#fff" stop-opacity="0.145"/>
      <stop offset="1" stop-color="#fff" stop-opacity="0.1"/>
    </radialGradient>
    <linearGradient id="Безымянный_градиент_38" data-name="Безымянный градиент 38" x1="24.54" y1="27.634" x2="16.043" y2="12.916" gradientUnits="userSpaceOnUse">
      <stop offset="0.025" stop-color="#ab2bb3" stop-opacity="0.1"/>
      <stop offset="0.122" stop-color="#b23cb9" stop-opacity="0.116"/>
      <stop offset="0.25" stop-color="#c56ecb" stop-opacity="0.163"/>
      <stop offset="0.396" stop-color="#e5bee8" stop-opacity="0.239"/>
      <stop offset="0.492" stop-color="#fff" stop-opacity="0.3"/>
      <stop offset="0.525" stop-color="#f4e4f5" stop-opacity="0.274"/>
      <stop offset="0.642" stop-color="#d493d8" stop-opacity="0.198"/>
      <stop offset="0.76" stop-color="#bd59c4" stop-opacity="0.144"/>
      <stop offset="0.879" stop-color="#b036b7" stop-opacity="0.111"/>
      <stop offset="1" stop-color="#ab2bb3" stop-opacity="0.1"/>
    </linearGradient>
  </defs>
  <title>openmv-super-telephoto-lens</title>
  <g id="side">
    <path class="cls-1" d="M99.863,5.166"/>
    <g>
      <rect class="cls-2" x="62.22" y="-0.606" width="34.016" height="41.796" rx="0.505" transform="translate(99.52 -58.936) rotate(90)"/>
      <line class="cls-3" x1="74.955" y1="3.266" x2="74.955" y2="37.282"/>
      <line class="cls-3" x1="73.742" y1="3.284" x2="73.742" y2="37.3"/>
      <line class="cls-3" x1="71.317" y1="3.284" x2="71.317" y2="37.3"/>
      <line class="cls-3" x1="70.104" y1="3.284" x2="70.104" y2="37.3"/>
      <line class="cls-3" x1="67.679" y1="3.284" x2="67.679" y2="37.3"/>
      <line class="cls-3" x1="66.466" y1="3.284" x2="66.466" y2="37.3"/>
      <line class="cls-3" x1="72.529" y1="3.284" x2="72.529" y2="37.3"/>
      <line class="cls-3" x1="68.891" y1="3.284" x2="68.891" y2="37.3"/>
      <line class="cls-3" x1="65.254" y1="3.284" x2="65.254" y2="37.3"/>
      <line class="cls-3" x1="64.041" y1="3.284" x2="64.041" y2="37.3"/>
      <line class="cls-3" x1="62.828" y1="3.284" x2="62.828" y2="37.3"/>
      <line class="cls-3" x1="61.616" y1="3.284" x2="61.616" y2="37.3"/>
      <line class="cls-3" x1="60.403" y1="3.284" x2="60.403" y2="37.3"/>
      <line class="cls-3" x1="59.19" y1="3.284" x2="59.19" y2="37.3"/>
    </g>
    <g>
      <g>
        <rect class="cls-4" x="67.601" y="11.775" width="39.685" height="17.008" rx="0.842" transform="translate(107.722 -67.164) rotate(90)"/>
        <g>
          <g>
            <line class="cls-5" x1="79.147" y1="1.211" x2="95.691" y2="1.211"/>
            <line class="cls-6" x1="79.147" y1="1.767" x2="95.691" y2="1.767"/>
          </g>
          <g>
            <line class="cls-5" x1="79.147" y1="16.411" x2="95.691" y2="16.411"/>
            <line class="cls-6" x1="79.147" y1="16.967" x2="95.691" y2="16.967"/>
          </g>
          <g>
            <line class="cls-5" x1="79.147" y1="18.944" x2="95.691" y2="18.944"/>
            <line class="cls-6" x1="79.147" y1="19.5" x2="95.691" y2="19.5"/>
          </g>
          <g>
            <line class="cls-5" x1="79.147" y1="21.478" x2="95.691" y2="21.478"/>
            <line class="cls-6" x1="79.147" y1="22.034" x2="95.691" y2="22.034"/>
          </g>
          <g>
            <line class="cls-5" x1="79.147" y1="24.011" x2="95.691" y2="24.011"/>
            <line class="cls-6" x1="79.147" y1="24.567" x2="95.691" y2="24.567"/>
          </g>
          <g>
            <line class="cls-5" x1="79.147" y1="26.544" x2="95.691" y2="26.544"/>
            <line class="cls-6" x1="79.147" y1="27.1" x2="95.691" y2="27.1"/>
          </g>
          <g>
            <line class="cls-5" x1="79.147" y1="29.078" x2="95.691" y2="29.078"/>
            <line class="cls-6" x1="79.147" y1="29.634" x2="95.691" y2="29.634"/>
          </g>
          <g>
            <line class="cls-5" x1="79.147" y1="39.211" x2="95.691" y2="39.211"/>
            <line class="cls-6" x1="79.147" y1="39.767" x2="95.691" y2="39.767"/>
          </g>
          <g>
            <line class="cls-5" x1="79.147" y1="36.678" x2="95.691" y2="36.678"/>
            <line class="cls-6" x1="79.147" y1="37.234" x2="95.691" y2="37.234"/>
          </g>
          <g>
            <line class="cls-5" x1="79.147" y1="34.144" x2="95.691" y2="34.144"/>
            <line class="cls-6" x1="79.147" y1="34.7" x2="95.691" y2="34.7"/>
          </g>
          <g>
            <line class="cls-5" x1="79.147" y1="31.611" x2="95.691" y2="31.611"/>
            <line class="cls-6" x1="79.147" y1="32.167" x2="95.691" y2="32.167"/>
          </g>
          <g>
            <line class="cls-5" x1="79.147" y1="13.878" x2="95.691" y2="13.878"/>
            <line class="cls-6" x1="79.147" y1="14.434" x2="95.691" y2="14.434"/>
          </g>
          <g>
            <line class="cls-5" x1="79.147" y1="11.344" x2="95.691" y2="11.344"/>
            <line class="cls-6" x1="79.147" y1="11.9" x2="95.691" y2="11.9"/>
          </g>
          <g>
            <line class="cls-5" x1="79.147" y1="8.811" x2="95.691" y2="8.811"/>
            <line class="cls-6" x1="79.147" y1="9.367" x2="95.691" y2="9.367"/>
          </g>
          <g>
            <line class="cls-5" x1="79.147" y1="6.278" x2="95.691" y2="6.278"/>
            <line class="cls-6" x1="79.147" y1="6.834" x2="95.691" y2="6.834"/>
          </g>
          <g>
            <line class="cls-5" x1="79.147" y1="3.744" x2="95.691" y2="3.744"/>
            <line class="cls-6" x1="79.147" y1="4.3" x2="95.691" y2="4.3"/>
          </g>
        </g>
      </g>
      <g>
        <rect class="cls-4" x="86.601" y="11.775" width="39.685" height="17.008" rx="0.842" transform="translate(126.722 -86.164) rotate(90)"/>
        <g>
          <g>
            <line class="cls-5" x1="98.147" y1="1.211" x2="114.691" y2="1.211"/>
            <line class="cls-6" x1="98.147" y1="1.767" x2="114.691" y2="1.767"/>
          </g>
          <g>
            <line class="cls-5" x1="98.147" y1="16.411" x2="114.691" y2="16.411"/>
            <line class="cls-6" x1="98.147" y1="16.967" x2="114.691" y2="16.967"/>
          </g>
          <g>
            <line class="cls-5" x1="98.147" y1="18.944" x2="114.691" y2="18.944"/>
            <line class="cls-6" x1="98.147" y1="19.5" x2="114.691" y2="19.5"/>
          </g>
          <g>
            <line class="cls-5" x1="98.147" y1="21.478" x2="114.691" y2="21.478"/>
            <line class="cls-6" x1="98.147" y1="22.034" x2="114.691" y2="22.034"/>
          </g>
          <g>
            <line class="cls-5" x1="98.147" y1="24.011" x2="114.691" y2="24.011"/>
            <line class="cls-6" x1="98.147" y1="24.567" x2="114.691" y2="24.567"/>
          </g>
          <g>
            <line class="cls-5" x1="98.147" y1="26.544" x2="114.691" y2="26.544"/>
            <line class="cls-6" x1="98.147" y1="27.1" x2="114.691" y2="27.1"/>
          </g>
          <g>
            <line class="cls-5" x1="98.147" y1="29.078" x2="114.691" y2="29.078"/>
            <line class="cls-6" x1="98.147" y1="29.634" x2="114.691" y2="29.634"/>
          </g>
          <g>
            <line class="cls-5" x1="98.147" y1="39.211" x2="114.691" y2="39.211"/>
            <line class="cls-6" x1="98.147" y1="39.767" x2="114.691" y2="39.767"/>
          </g>
          <g>
            <line class="cls-5" x1="98.147" y1="36.678" x2="114.691" y2="36.678"/>
            <line class="cls-6" x1="98.147" y1="37.234" x2="114.691" y2="37.234"/>
          </g>
          <g>
            <line class="cls-5" x1="98.147" y1="34.144" x2="114.691" y2="34.144"/>
            <line class="cls-6" x1="98.147" y1="34.7" x2="114.691" y2="34.7"/>
          </g>
          <g>
            <line class="cls-5" x1="98.147" y1="31.611" x2="114.691" y2="31.611"/>
            <line class="cls-6" x1="98.147" y1="32.167" x2="114.691" y2="32.167"/>
          </g>
          <g>
            <line class="cls-5" x1="98.147" y1="13.878" x2="114.691" y2="13.878"/>
            <line class="cls-6" x1="98.147" y1="14.434" x2="114.691" y2="14.434"/>
          </g>
          <g>
            <line class="cls-5" x1="98.147" y1="11.344" x2="114.691" y2="11.344"/>
            <line class="cls-6" x1="98.147" y1="11.9" x2="114.691" y2="11.9"/>
          </g>
          <g>
            <line class="cls-5" x1="98.147" y1="8.811" x2="114.691" y2="8.811"/>
            <line class="cls-6" x1="98.147" y1="9.367" x2="114.691" y2="9.367"/>
          </g>
          <g>
            <line class="cls-5" x1="98.147" y1="6.278" x2="114.691" y2="6.278"/>
            <line class="cls-6" x1="98.147" y1="6.834" x2="114.691" y2="6.834"/>
          </g>
          <g>
            <line class="cls-5" x1="98.147" y1="3.744" x2="114.691" y2="3.744"/>
            <line class="cls-6" x1="98.147" y1="4.3" x2="114.691" y2="4.3"/>
          </g>
        </g>
      </g>
    </g>
  </g>
  <g id="top">
    <g>
      <g>
        <path class="cls-7" d="M20.283,40.355v0c-.309,0-.6-.795-.9-.807s-.661.757-.965.733-.532-.841-.834-.878-.722.7-1.022.652-.459-.883-.757-.946-.779.636-1.074.56-.379-.919-.671-1.008-.833.563-1.12.46-.293-.95-.575-1.066-.882.483-1.158.354-.2-.974-.471-1.116-.925.4-1.187.24-.105-.988-.36-1.156-.959.3-1.2.122-.006-.993-.243-1.186-.984.206-1.211,0,.094-.988-.123-1.2-1,.107-1.2-.12.193-.974,0-1.211-1,.006-1.186-.24.289-.95.12-1.205-1-.093-1.157-.357.382-.916.238-1.187-.986-.19-1.116-.468.469-.874.352-1.158-.963-.283-1.067-.573.55-.826.459-1.12S.908,26.1.831,25.8s.622-.773.559-1.074-.9-.451-.946-.755.688-.716.65-1.022-.853-.527-.878-.834.746-.656.733-.965-.807-.6-.807-.9.8-.6.807-.9-.757-.662-.733-.965.841-.532.878-.834-.7-.722-.65-1.022.883-.458.946-.756-.635-.78-.559-1.075.92-.378,1.01-.669-.562-.834-.459-1.121.951-.291,1.067-.573-.481-.883-.351-1.159.974-.2,1.117-.469-.394-.925-.238-1.188.988-.1,1.157-.356-.3-.96-.119-1.206.993,0,1.187-.24S5,6.728,5.2,6.5s.988.1,1.205-.119-.1-1,.123-1.2.973.2,1.211,0,0-1,.243-1.187.949.293,1.2.124.1-1,.36-1.156.915.384,1.186.241.193-.986.471-1.116.873.471,1.157.355.285-.963.575-1.066.825.551,1.12.461.372-.932.67-1.009.772.624,1.073.561.452-.9.756-.946.716.689,1.022.652.527-.854.834-.878.656.745.965.733.595-.807.9-.807v0c.308,0,.6.8.9.807s.662-.758.965-.733.533.841.835.878.721-.7,1.021-.652.459.883.757.946.779-.636,1.074-.561.379.92.671,1.009.833-.563,1.12-.46.293.95.575,1.066.882-.483,1.159-.354.2.974.47,1.116.925-.4,1.188-.24.1.988.359,1.156.959-.3,1.205-.122.006.993.243,1.186.984-.206,1.211,0-.094.988.123,1.2,1-.107,1.2.12-.193.974,0,1.211,1-.006,1.187.24-.29.95-.121,1.205,1,.093,1.157.357-.382.916-.238,1.187.986.19,1.117.468-.47.874-.353,1.158.963.283,1.067.572-.549.827-.459,1.121.933.371,1.01.669-.623.772-.56,1.074.9.451.946.755-.688.716-.65,1.022.853.527.878.834-.745.656-.733.965.807.6.807.9-.8.6-.807.9.757.662.733.965-.841.532-.878.834.7.722.65,1.022-.883.458-.946.756.635.78.559,1.075-.92.378-1.01.669.562.834.459,1.121-.951.291-1.067.573.481.883.351,1.159-.973.2-1.117.469.394.925.238,1.187-.988.1-1.157.357.3.96.119,1.206-.993,0-1.187.24.2.984,0,1.211-.989-.1-1.206.119.105,1-.123,1.2-.973-.2-1.211,0,0,1.005-.243,1.187-.948-.293-1.2-.124-.1,1-.36,1.156-.915-.384-1.186-.241-.192.986-.471,1.116-.873-.471-1.157-.355-.285.963-.575,1.066-.825-.551-1.119-.461-.372.932-.67,1.009-.773-.624-1.074-.561-.452.895-.756.946-.715-.689-1.022-.652-.527.854-.834.878-.656-.746-.965-.733S20.591,40.355,20.283,40.355Z"/>
        <path class="cls-8" d="M20.283,40.355v0c-.309,0-.6-.795-.9-.807s-.661.757-.965.733-.532-.841-.834-.878-.722.7-1.022.652-.459-.883-.757-.946-.779.636-1.074.56-.379-.919-.671-1.008-.833.563-1.12.46-.293-.95-.575-1.066-.882.483-1.158.354-.2-.974-.471-1.116-.925.4-1.187.24-.105-.988-.36-1.156-.959.3-1.2.122-.006-.993-.243-1.186-.984.206-1.211,0,.094-.988-.123-1.2-1,.107-1.2-.12.193-.974,0-1.211-1,.006-1.186-.24.289-.95.12-1.205-1-.093-1.157-.357.382-.916.238-1.187-.986-.19-1.116-.468.469-.874.352-1.158-.963-.283-1.067-.573.55-.826.459-1.12S.908,26.1.831,25.8s.622-.773.559-1.074-.9-.451-.946-.755.688-.716.65-1.022-.853-.527-.878-.834.746-.656.733-.965-.807-.6-.807-.9.8-.6.807-.9-.757-.662-.733-.965.841-.532.878-.834-.7-.722-.65-1.022.883-.458.946-.756-.635-.78-.559-1.075.92-.378,1.01-.669-.562-.834-.459-1.121.951-.291,1.067-.573-.481-.883-.351-1.159.974-.2,1.117-.469-.394-.925-.238-1.188.988-.1,1.157-.356-.3-.96-.119-1.206.993,0,1.187-.24S5,6.728,5.2,6.5s.988.1,1.205-.119-.1-1,.123-1.2.973.2,1.211,0,0-1,.243-1.187.949.293,1.2.124.1-1,.36-1.156.915.384,1.186.241.193-.986.471-1.116.873.471,1.157.355.285-.963.575-1.066.825.551,1.12.461.372-.932.67-1.009.772.624,1.073.561.452-.9.756-.946.716.689,1.022.652.527-.854.834-.878.656.745.965.733.595-.807.9-.807v0c.308,0,.6.8.9.807s.662-.758.965-.733.533.841.835.878.721-.7,1.021-.652.459.883.757.946.779-.636,1.074-.561.379.92.671,1.009.833-.563,1.12-.46.293.95.575,1.066.882-.483,1.159-.354.2.974.47,1.116.925-.4,1.188-.24.1.988.359,1.156.959-.3,1.205-.122.006.993.243,1.186.984-.206,1.211,0-.094.988.123,1.2,1-.107,1.2.12-.193.974,0,1.211,1-.006,1.187.24-.29.95-.121,1.205,1,.093,1.157.357-.382.916-.238,1.187.986.19,1.117.468-.47.874-.353,1.158.963.283,1.067.572-.549.827-.459,1.121.933.371,1.01.669-.623.772-.56,1.074.9.451.946.755-.688.716-.65,1.022.853.527.878.834-.745.656-.733.965.807.6.807.9-.8.6-.807.9.757.662.733.965-.841.532-.878.834.7.722.65,1.022-.883.458-.946.756.635.78.559,1.075-.92.378-1.01.669.562.834.459,1.121-.951.291-1.067.573.481.883.351,1.159-.973.2-1.117.469.394.925.238,1.187-.988.1-1.157.357.3.96.119,1.206-.993,0-1.187.24.2.984,0,1.211-.989-.1-1.206.119.105,1-.123,1.2-.973-.2-1.211,0,0,1.005-.243,1.187-.948-.293-1.2-.124-.1,1-.36,1.156-.915-.384-1.186-.241-.192.986-.471,1.116-.873-.471-1.157-.355-.285.963-.575,1.066-.825-.551-1.119-.461-.372.932-.67,1.009-.773-.624-1.074-.561-.452.895-.756.946-.715-.689-1.022-.652-.527.854-.834.878-.656-.746-.965-.733S20.591,40.355,20.283,40.355Z"/>
      </g>
      <rect class="cls-9" x="0.449" y="0.401" width="39.685" height="39.685" rx="19.842"/>
    </g>
    <g>
      <rect class="cls-10" x="10.37" y="10.322" width="19.843" height="19.843" rx="9.921"/>
      <path class="cls-11" d="M20.292,28.748h0a8.529,8.529,0,0,1-8.5-8.5h0a8.528,8.528,0,0,1,8.5-8.5h.1a8.424,8.424,0,0,1,8.4,8.4v.105A8.529,8.529,0,0,1,20.292,28.748Z"/>
      <rect class="cls-12" x="15.627" y="21.624" width="2" height="2" rx="1"/>
      <rect class="cls-13" x="23.193" y="17.669" width="2" height="2" rx="1"/>
      <rect class="cls-14" x="19.556" y="20.244" width="0.85" height="0.85" rx="0.425"/>
      <path class="cls-15" d="M20.292,15.733a4.511,4.511,0,1,0,4.51,4.511A4.524,4.524,0,0,0,20.292,15.733Zm0,7.345a2.835,2.835,0,1,1,2.834-2.834A2.843,2.843,0,0,1,20.292,23.078Z"/>
      <rect class="cls-16" x="11.788" y="11.452" width="17.008" height="17.008" rx="8.504"/>
      <rect class="cls-17" x="11.788" y="11.771" width="17.008" height="17.008" rx="8.504"/>
      <rect class="cls-18" x="11.788" y="11.771" width="17.008" height="17.008" rx="8.504"/>
    </g>
  </g>
</svg>
