<svg id="pimoroni-micro-bit-enviro-bit" xmlns="http://www.w3.org/2000/svg" xmlns:xlink="http://www.w3.org/1999/xlink" width="143.74mm" height="28.189mm" viewBox="0 0 407.451 79.905">
  <defs>
    <style>
      .cls-1, .cls-5 {
        fill: #323232;
      }

      .cls-2 {
        fill: #1e1e1e;
      }

      .cls-3, .cls-6, .cls-8 {
        fill: #fff;
      }

      .cls-32, .cls-35, .cls-4, .cls-82, .cls-9 {
        fill: none;
      }

      .cls-35, .cls-4 {
        stroke: #fff;
      }

      .cls-35, .cls-4, .cls-82 {
        stroke-miterlimit: 10;
      }

      .cls-4 {
        stroke-width: 0.992px;
      }

      .cls-34, .cls-5, .cls-6 {
        font-size: 6px;
      }

      .cls-5, .cls-6 {
        font-family: TrebuchetMS, Trebuchet MS;
        letter-spacing: -0.05em;
      }

      .cls-7 {
        letter-spacing: -0.193em;
      }

      .cls-8 {
        font-size: 7px;
        letter-spacing: -0.05em;
      }

      .cls-34, .cls-8 {
        font-family: TrebuchetMS-Bold, Trebuchet MS;
        font-weight: 700;
      }

      .cls-10 {
        fill: #d2d1d3;
      }

      .cls-11 {
        fill: #b7b8b9;
      }

      .cls-12 {
        fill: #d7d3d5;
      }

      .cls-13 {
        fill: #966432;
      }

      .cls-14 {
        fill: #242424;
      }

      .cls-15 {
        fill: #bbffd0;
      }

      .cls-16 {
        fill: #545152;
      }

      .cls-17 {
        fill: #b3b3b3;
      }

      .cls-18 {
        fill: gray;
      }

      .cls-19 {
        fill: #e3e4e5;
      }

      .cls-20 {
        fill: #a4a4a5;
      }

      .cls-21 {
        fill: #696c70;
      }

      .cls-22, .cls-27 {
        stroke: gray;
      }

      .cls-22, .cls-23, .cls-27, .cls-31 {
        stroke-width: 0.057px;
      }

      .cls-22 {
        fill: url(#Безымянный_градиент_46);
      }

      .cls-23 {
        fill: #666;
        stroke: #e6e6e6;
      }

      .cls-24 {
        fill: #c8be8b;
      }

      .cls-25 {
        fill: #7b7158;
      }

      .cls-26 {
        fill: #5e5136;
      }

      .cls-27 {
        fill: url(#Безымянный_градиент_34);
      }

      .cls-28 {
        fill: url(#Безымянный_градиент_64);
      }

      .cls-29 {
        fill: #fffbdc;
        opacity: 0.38;
      }

      .cls-30 {
        fill: url(#Безымянный_градиент_45);
      }

      .cls-31 {
        fill: #2a2215;
      }

      .cls-31, .cls-32 {
        stroke: #f2f2f2;
      }

      .cls-32 {
        stroke-linecap: round;
      }

      .cls-32, .cls-35 {
        stroke-width: 0.709px;
      }

      .cls-33 {
        fill: #fbe3ae;
      }

      .cls-36 {
        fill: #e2b433;
      }

      .cls-37 {
        fill: #2b2929;
      }

      .cls-38 {
        fill: #101010;
      }

      .cls-39 {
        fill: #aaacaf;
      }

      .cls-40 {
        fill: url(#Безымянный_градиент_63);
      }

      .cls-41 {
        fill: #d1d3d4;
      }

      .cls-42 {
        fill: url(#Безымянный_градиент_90);
      }

      .cls-43 {
        fill: url(#Безымянный_градиент_90-2);
      }

      .cls-44 {
        fill: url(#Безымянный_градиент_90-3);
      }

      .cls-45 {
        fill: url(#Безымянный_градиент_90-4);
      }

      .cls-46 {
        fill: url(#Безымянный_градиент_90-5);
      }

      .cls-47 {
        fill: url(#Безымянный_градиент_90-6);
      }

      .cls-48 {
        fill: url(#Безымянный_градиент_90-7);
      }

      .cls-49 {
        fill: url(#Безымянный_градиент_90-8);
      }

      .cls-50 {
        fill: url(#Безымянный_градиент_90-9);
      }

      .cls-51 {
        fill: url(#Безымянный_градиент_90-10);
      }

      .cls-52 {
        fill: url(#Безымянный_градиент_90-11);
      }

      .cls-53 {
        fill: url(#Безымянный_градиент_90-12);
      }

      .cls-54 {
        fill: url(#Безымянный_градиент_90-13);
      }

      .cls-55 {
        fill: url(#Безымянный_градиент_90-14);
      }

      .cls-56 {
        fill: url(#Безымянный_градиент_90-15);
      }

      .cls-57 {
        fill: url(#Безымянный_градиент_90-16);
      }

      .cls-58 {
        fill: url(#Безымянный_градиент_90-17);
      }

      .cls-59 {
        fill: url(#Безымянный_градиент_90-18);
      }

      .cls-60 {
        fill: url(#Безымянный_градиент_90-19);
      }

      .cls-61 {
        fill: url(#Безымянный_градиент_90-20);
      }

      .cls-62 {
        fill: url(#Безымянный_градиент_90-21);
      }

      .cls-63 {
        fill: url(#Безымянный_градиент_90-22);
      }

      .cls-64 {
        fill: url(#Безымянный_градиент_90-23);
      }

      .cls-65 {
        fill: url(#Безымянный_градиент_90-24);
      }

      .cls-66 {
        fill: url(#Безымянный_градиент_90-25);
      }

      .cls-67 {
        fill: url(#Безымянный_градиент_90-26);
      }

      .cls-68 {
        fill: url(#Безымянный_градиент_90-27);
      }

      .cls-69 {
        fill: url(#Безымянный_градиент_90-28);
      }

      .cls-70 {
        fill: url(#Безымянный_градиент_90-29);
      }

      .cls-71 {
        fill: url(#Безымянный_градиент_90-30);
      }

      .cls-72 {
        fill: url(#Безымянный_градиент_90-31);
      }

      .cls-73 {
        fill: url(#Безымянный_градиент_90-32);
      }

      .cls-74 {
        fill: url(#Безымянный_градиент_90-33);
      }

      .cls-75 {
        fill: url(#Безымянный_градиент_90-34);
      }

      .cls-76 {
        fill: url(#Безымянный_градиент_90-35);
      }

      .cls-77 {
        fill: url(#Безымянный_градиент_90-36);
      }

      .cls-78 {
        fill: url(#Безымянный_градиент_90-37);
      }

      .cls-79 {
        fill: url(#Безымянный_градиент_90-38);
      }

      .cls-80 {
        fill: url(#Безымянный_градиент_90-39);
      }

      .cls-81 {
        fill: url(#Безымянный_градиент_90-40);
      }

      .cls-82 {
        stroke: #ccc;
        stroke-width: 0.283px;
      }

      .cls-83 {
        fill: #79452d;
      }
    </style>
    <linearGradient id="Безымянный_градиент_46" data-name="Безымянный градиент 46" x1="73.375" y1="75.361" x2="73.375" y2="69.673" gradientTransform="translate(-33.742 -4.721)" gradientUnits="userSpaceOnUse">
      <stop offset="0" stop-color="#ccc"/>
      <stop offset="0.102" stop-color="#bbb"/>
      <stop offset="0.256" stop-color="#a8a8a8"/>
      <stop offset="0.415" stop-color="#9d9d9d"/>
      <stop offset="0.584" stop-color="#999"/>
      <stop offset="0.659" stop-color="#a1a1a1"/>
      <stop offset="0.778" stop-color="#b8b8b8"/>
      <stop offset="0.925" stop-color="#ddd"/>
      <stop offset="1" stop-color="#f2f2f2"/>
    </linearGradient>
    <linearGradient id="Безымянный_градиент_34" data-name="Безымянный градиент 34" x1="70.758" y1="-42.573" x2="70.758" y2="-49.471" gradientTransform="translate(87.413 111.201)" gradientUnits="userSpaceOnUse">
      <stop offset="0" stop-color="#ad8138"/>
      <stop offset="0.01" stop-color="#af833b"/>
      <stop offset="0.137" stop-color="#c19d59"/>
      <stop offset="0.261" stop-color="#ceaf6f"/>
      <stop offset="0.381" stop-color="#d5ba7c"/>
      <stop offset="0.489" stop-color="#d8be81"/>
      <stop offset="0.632" stop-color="#d9c084"/>
      <stop offset="0.732" stop-color="#ddc78d"/>
      <stop offset="0.818" stop-color="#e4d29c"/>
      <stop offset="0.897" stop-color="#ede1b2"/>
      <stop offset="0.97" stop-color="#f9f5ce"/>
      <stop offset="1" stop-color="#ffffdc"/>
    </linearGradient>
    <linearGradient id="Безымянный_градиент_64" data-name="Безымянный градиент 64" x1="155.034" y1="65.194" x2="161.154" y2="65.194" gradientTransform="translate(92.899 223.288) rotate(-90)" gradientUnits="userSpaceOnUse">
      <stop offset="0" stop-color="#f7f1c9" stop-opacity="0"/>
      <stop offset="0.024" stop-color="#f5eec4" stop-opacity="0.076"/>
      <stop offset="0.099" stop-color="#f1e6b6" stop-opacity="0.291"/>
      <stop offset="0.178" stop-color="#ecdfaa" stop-opacity="0.481"/>
      <stop offset="0.26" stop-color="#e9d99f" stop-opacity="0.641"/>
      <stop offset="0.345" stop-color="#e6d497" stop-opacity="0.772"/>
      <stop offset="0.436" stop-color="#e4d090" stop-opacity="0.873"/>
      <stop offset="0.533" stop-color="#e2cd8c" stop-opacity="0.944"/>
      <stop offset="0.643" stop-color="#e1cc89" stop-opacity="0.987"/>
      <stop offset="0.791" stop-color="#e1cb88"/>
      <stop offset="0.838" stop-color="#e1cb89" stop-opacity="0.988"/>
      <stop offset="0.867" stop-color="#e2cd8b" stop-opacity="0.95"/>
      <stop offset="0.892" stop-color="#e4d090" stop-opacity="0.885"/>
      <stop offset="0.914" stop-color="#e6d496" stop-opacity="0.793"/>
      <stop offset="0.935" stop-color="#e9d99f" stop-opacity="0.674"/>
      <stop offset="0.954" stop-color="#ecdfa9" stop-opacity="0.528"/>
      <stop offset="0.972" stop-color="#f1e6b5" stop-opacity="0.354"/>
      <stop offset="0.988" stop-color="#f5eec3" stop-opacity="0.158"/>
      <stop offset="1" stop-color="#f9f5ce" stop-opacity="0"/>
    </linearGradient>
    <linearGradient id="Безымянный_градиент_45" data-name="Безымянный градиент 45" x1="75.272" y1="-45.944" x2="66.245" y2="-45.944" gradientTransform="translate(87.335 111.122)" gradientUnits="userSpaceOnUse">
      <stop offset="0" stop-color="#f7f1c9"/>
      <stop offset="0.001" stop-color="#f7f0c8" stop-opacity="0.986"/>
      <stop offset="0.021" stop-color="#f1e7bb" stop-opacity="0.801"/>
      <stop offset="0.043" stop-color="#ecdeaf" stop-opacity="0.635"/>
      <stop offset="0.067" stop-color="#e7d7a4" stop-opacity="0.482"/>
      <stop offset="0.093" stop-color="#e3d09a" stop-opacity="0.351"/>
      <stop offset="0.122" stop-color="#dfca92" stop-opacity="0.241"/>
      <stop offset="0.154" stop-color="#ddc68c" stop-opacity="0.151"/>
      <stop offset="0.192" stop-color="#dbc287" stop-opacity="0.083"/>
      <stop offset="0.239" stop-color="#d9c084" stop-opacity="0.035"/>
      <stop offset="0.305" stop-color="#d8be82" stop-opacity="0.008"/>
      <stop offset="0.489" stop-color="#d8be81" stop-opacity="0"/>
      <stop offset="0.551" stop-color="#d9bf82" stop-opacity="0.017"/>
      <stop offset="0.615" stop-color="#dac286" stop-opacity="0.067"/>
      <stop offset="0.681" stop-color="#ddc68d" stop-opacity="0.151"/>
      <stop offset="0.748" stop-color="#e1cd96" stop-opacity="0.268"/>
      <stop offset="0.815" stop-color="#e6d5a1" stop-opacity="0.419"/>
      <stop offset="0.883" stop-color="#ecdfb0" stop-opacity="0.605"/>
      <stop offset="0.95" stop-color="#f3ebc0" stop-opacity="0.819"/>
      <stop offset="1" stop-color="#f9f5ce"/>
    </linearGradient>
    <linearGradient id="Безымянный_градиент_63" data-name="Безымянный градиент 63" x1="16.934" y1="16.902" x2="171.422" y2="16.902" gradientUnits="userSpaceOnUse">
      <stop offset="0" stop-color="gray"/>
      <stop offset="0.194" stop-color="#969798"/>
      <stop offset="0.387" stop-color="#a5a6a9"/>
      <stop offset="0.531" stop-color="#aaacaf"/>
      <stop offset="0.648" stop-color="#a7a9ab"/>
      <stop offset="0.755" stop-color="#9c9ea0"/>
      <stop offset="0.857" stop-color="#8b8c8e"/>
      <stop offset="0.955" stop-color="#737474"/>
      <stop offset="1" stop-color="#666"/>
    </linearGradient>
    <linearGradient id="Безымянный_градиент_90" data-name="Безымянный градиент 90" x1="22.14" y1="29.917" x2="24.401" y2="29.917" gradientUnits="userSpaceOnUse">
      <stop offset="0" stop-color="#333" stop-opacity="0.4"/>
      <stop offset="0.106" stop-color="#676767" stop-opacity="0.573"/>
      <stop offset="0.212" stop-color="#949494" stop-opacity="0.725"/>
      <stop offset="0.311" stop-color="#b7b7b7" stop-opacity="0.844"/>
      <stop offset="0.4" stop-color="#d1d1d1" stop-opacity="0.929"/>
      <stop offset="0.476" stop-color="#e0e0e0" stop-opacity="0.981"/>
      <stop offset="0.531" stop-color="#e6e6e6"/>
      <stop offset="0.585" stop-color="#e2e2e2" stop-opacity="0.985"/>
      <stop offset="0.65" stop-color="#d5d5d5" stop-opacity="0.943"/>
      <stop offset="0.72" stop-color="silver" stop-opacity="0.873"/>
      <stop offset="0.795" stop-color="#a3a3a3" stop-opacity="0.775"/>
      <stop offset="0.874" stop-color="#7d7d7d" stop-opacity="0.65"/>
      <stop offset="0.953" stop-color="#505050" stop-opacity="0.498"/>
      <stop offset="1" stop-color="#333" stop-opacity="0.4"/>
    </linearGradient>
    <linearGradient id="Безымянный_градиент_90-2" x1="25.776" y1="29.917" x2="28.037" y2="29.917" xlink:href="#Безымянный_градиент_90"/>
    <linearGradient id="Безымянный_градиент_90-3" x1="29.412" y1="29.917" x2="31.674" y2="29.917" xlink:href="#Безымянный_градиент_90"/>
    <linearGradient id="Безымянный_градиент_90-4" x1="33.049" y1="29.917" x2="35.31" y2="29.917" xlink:href="#Безымянный_градиент_90"/>
    <linearGradient id="Безымянный_градиент_90-5" x1="36.685" y1="29.917" x2="38.946" y2="29.917" xlink:href="#Безымянный_градиент_90"/>
    <linearGradient id="Безымянный_градиент_90-6" x1="40.321" y1="29.917" x2="42.583" y2="29.917" xlink:href="#Безымянный_градиент_90"/>
    <linearGradient id="Безымянный_градиент_90-7" x1="43.957" y1="29.917" x2="46.219" y2="29.917" xlink:href="#Безымянный_градиент_90"/>
    <linearGradient id="Безымянный_градиент_90-8" x1="47.594" y1="29.917" x2="49.855" y2="29.917" xlink:href="#Безымянный_градиент_90"/>
    <linearGradient id="Безымянный_градиент_90-9" x1="51.23" y1="29.917" x2="53.491" y2="29.917" xlink:href="#Безымянный_градиент_90"/>
    <linearGradient id="Безымянный_градиент_90-10" x1="54.866" y1="29.917" x2="57.128" y2="29.917" xlink:href="#Безымянный_градиент_90"/>
    <linearGradient id="Безымянный_градиент_90-11" x1="58.503" y1="29.917" x2="60.764" y2="29.917" xlink:href="#Безымянный_градиент_90"/>
    <linearGradient id="Безымянный_градиент_90-12" x1="62.139" y1="29.917" x2="64.4" y2="29.917" xlink:href="#Безымянный_градиент_90"/>
    <linearGradient id="Безымянный_градиент_90-13" x1="65.775" y1="29.917" x2="68.037" y2="29.917" xlink:href="#Безымянный_градиент_90"/>
    <linearGradient id="Безымянный_градиент_90-14" x1="69.411" y1="29.917" x2="71.673" y2="29.917" xlink:href="#Безымянный_градиент_90"/>
    <linearGradient id="Безымянный_градиент_90-15" x1="73.048" y1="29.917" x2="75.309" y2="29.917" xlink:href="#Безымянный_градиент_90"/>
    <linearGradient id="Безымянный_градиент_90-16" x1="76.684" y1="29.917" x2="78.945" y2="29.917" xlink:href="#Безымянный_градиент_90"/>
    <linearGradient id="Безымянный_градиент_90-17" x1="80.32" y1="29.917" x2="82.582" y2="29.917" xlink:href="#Безымянный_градиент_90"/>
    <linearGradient id="Безымянный_градиент_90-18" x1="83.957" y1="29.917" x2="86.218" y2="29.917" xlink:href="#Безымянный_градиент_90"/>
    <linearGradient id="Безымянный_градиент_90-19" x1="87.593" y1="29.917" x2="89.854" y2="29.917" xlink:href="#Безымянный_градиент_90"/>
    <linearGradient id="Безымянный_градиент_90-20" x1="91.229" y1="29.917" x2="93.491" y2="29.917" xlink:href="#Безымянный_градиент_90"/>
    <linearGradient id="Безымянный_градиент_90-21" x1="94.865" y1="29.917" x2="97.127" y2="29.917" xlink:href="#Безымянный_градиент_90"/>
    <linearGradient id="Безымянный_градиент_90-22" x1="98.502" y1="29.917" x2="100.763" y2="29.917" xlink:href="#Безымянный_градиент_90"/>
    <linearGradient id="Безымянный_градиент_90-23" x1="102.138" y1="29.917" x2="104.399" y2="29.917" xlink:href="#Безымянный_градиент_90"/>
    <linearGradient id="Безымянный_градиент_90-24" x1="105.774" y1="29.917" x2="108.036" y2="29.917" xlink:href="#Безымянный_градиент_90"/>
    <linearGradient id="Безымянный_градиент_90-25" x1="109.411" y1="29.917" x2="111.672" y2="29.917" xlink:href="#Безымянный_градиент_90"/>
    <linearGradient id="Безымянный_градиент_90-26" x1="113.047" y1="29.917" x2="115.308" y2="29.917" xlink:href="#Безымянный_градиент_90"/>
    <linearGradient id="Безымянный_градиент_90-27" x1="116.683" y1="29.917" x2="118.945" y2="29.917" xlink:href="#Безымянный_градиент_90"/>
    <linearGradient id="Безымянный_градиент_90-28" x1="120.319" y1="29.917" x2="122.581" y2="29.917" xlink:href="#Безымянный_градиент_90"/>
    <linearGradient id="Безымянный_градиент_90-29" x1="123.956" y1="29.917" x2="126.217" y2="29.917" xlink:href="#Безымянный_градиент_90"/>
    <linearGradient id="Безымянный_градиент_90-30" x1="127.592" y1="29.917" x2="129.853" y2="29.917" xlink:href="#Безымянный_градиент_90"/>
    <linearGradient id="Безымянный_градиент_90-31" x1="131.228" y1="29.917" x2="133.49" y2="29.917" xlink:href="#Безымянный_градиент_90"/>
    <linearGradient id="Безымянный_градиент_90-32" x1="134.865" y1="29.917" x2="137.126" y2="29.917" xlink:href="#Безымянный_градиент_90"/>
    <linearGradient id="Безымянный_градиент_90-33" x1="138.501" y1="29.917" x2="140.762" y2="29.917" xlink:href="#Безымянный_градиент_90"/>
    <linearGradient id="Безымянный_градиент_90-34" x1="142.137" y1="29.917" x2="144.399" y2="29.917" xlink:href="#Безымянный_градиент_90"/>
    <linearGradient id="Безымянный_градиент_90-35" x1="145.773" y1="29.917" x2="148.035" y2="29.917" xlink:href="#Безымянный_градиент_90"/>
    <linearGradient id="Безымянный_градиент_90-36" x1="149.41" y1="29.917" x2="151.671" y2="29.917" xlink:href="#Безымянный_градиент_90"/>
    <linearGradient id="Безымянный_градиент_90-37" x1="153.046" y1="29.917" x2="155.307" y2="29.917" xlink:href="#Безымянный_градиент_90"/>
    <linearGradient id="Безымянный_градиент_90-38" x1="156.682" y1="29.917" x2="158.944" y2="29.917" xlink:href="#Безымянный_градиент_90"/>
    <linearGradient id="Безымянный_градиент_90-39" x1="160.319" y1="29.917" x2="162.58" y2="29.917" xlink:href="#Безымянный_градиент_90"/>
    <linearGradient id="Безымянный_градиент_90-40" x1="163.955" y1="29.917" x2="166.216" y2="29.917" xlink:href="#Безымянный_градиент_90"/>
  </defs>
  <title>pimoroni-microbit-envirobit</title>
  <g id="bottom">
    <path class="cls-1" d="M398.243,0H229.573a9.236,9.236,0,0,0-9.209,9.208V70.162a9.236,9.236,0,0,0,9.209,9.208h168.67a9.236,9.236,0,0,0,9.208-9.208V9.208A9.236,9.236,0,0,0,398.243,0ZM233.75,72.449a4.5,4.5,0,0,1-3.139,3.138,4.552,4.552,0,0,1-5.6-5.6,4.49,4.49,0,0,1,3.138-3.138A4.552,4.552,0,0,1,233.75,72.449Zm0-63.062a4.493,4.493,0,0,1-3.139,3.138,4.552,4.552,0,0,1-5.6-5.6,4.494,4.494,0,0,1,3.138-3.138A4.553,4.553,0,0,1,233.75,9.387ZM402.807,72.449a4.494,4.494,0,0,1-3.138,3.138,4.552,4.552,0,0,1-5.6-5.6,4.49,4.49,0,0,1,3.138-3.138A4.552,4.552,0,0,1,402.807,72.449Zm0-63.062a4.49,4.49,0,0,1-3.138,3.138,4.552,4.552,0,0,1-5.6-5.6A4.494,4.494,0,0,1,397.2,3.783,4.552,4.552,0,0,1,402.807,9.387Z"/>
    <g>
      <path class="cls-2" d="M398.583,1.013A7.087,7.087,0,1,0,405.67,8.1,7.086,7.086,0,0,0,398.583,1.013Zm0,11.622A4.536,4.536,0,1,1,403.119,8.1,4.549,4.549,0,0,1,398.583,12.635Z"/>
      <path class="cls-2" d="M398.4,64.062a7.087,7.087,0,1,0,7.087,7.087A7.087,7.087,0,0,0,398.4,64.062Zm0,11.623a4.536,4.536,0,1,1,4.536-4.536A4.549,4.549,0,0,1,398.4,75.685Z"/>
      <path class="cls-2" d="M229.448,1.013A7.087,7.087,0,1,0,236.535,8.1,7.086,7.086,0,0,0,229.448,1.013Zm0,11.622A4.536,4.536,0,1,1,233.984,8.1,4.549,4.549,0,0,1,229.448,12.635Z"/>
      <path class="cls-2" d="M229.268,64.062a7.087,7.087,0,1,0,7.087,7.087A7.087,7.087,0,0,0,229.268,64.062Zm0,11.623a4.536,4.536,0,1,1,4.536-4.536A4.549,4.549,0,0,1,229.268,75.685Z"/>
    </g>
    <rect class="cls-3" x="357.962" y="2.751" width="20.256" height="20.256" rx="3.348"/>
    <g>
      <path class="cls-3" d="M324.306,19.359V6.5H326.9V2.847a.1.1,0,0,0-.1-.1H285.35a2.619,2.619,0,0,0-2.612,2.611v15.2a2.455,2.455,0,0,0,2.447,2.448H326.8a.1.1,0,0,0,.1-.1V19.359Z"/>
      <path class="cls-4" d="M326.9,4.191s13.627-.02,17.159-.008a1.916,1.916,0,0,1,1.391.605l.37.394a1.554,1.554,0,0,1,.422,1.064V19.478a2.134,2.134,0,0,1-.49,1.361h0a2.136,2.136,0,0,1-1.647.776H326.9"/>
    </g>
    <g>
      <path class="cls-3" d="M328.917,17.091V8.5h1.646V11.6a2.331,2.331,0,0,1,1.805-.867,2.428,2.428,0,0,1,1.881.823,3.41,3.41,0,0,1,.744,2.365,3.6,3.6,0,0,1-.759,2.455,2.368,2.368,0,0,1-1.843.861,2.272,2.272,0,0,1-1.051-.267,2.5,2.5,0,0,1-.894-.788v.914Zm1.635-3.246a2.649,2.649,0,0,0,.3,1.43,1.3,1.3,0,0,0,1.137.656,1.165,1.165,0,0,0,.929-.466A2.288,2.288,0,0,0,333.305,14a2.428,2.428,0,0,0-.386-1.538,1.223,1.223,0,0,0-.99-.472,1.241,1.241,0,0,0-.985.46A2.108,2.108,0,0,0,330.552,13.845Z"/>
      <path class="cls-3" d="M336.557,10.025V8.5H338.2v1.523Zm0,7.066V10.869H338.2v6.222Z"/>
      <path class="cls-3" d="M342.985,10.869v1.312H341.86v2.508a6.343,6.343,0,0,0,.032.888.367.367,0,0,0,.147.208.469.469,0,0,0,.278.082,2.137,2.137,0,0,0,.662-.158l.141,1.277a3.274,3.274,0,0,1-1.3.246,2.078,2.078,0,0,1-.8-.149,1.175,1.175,0,0,1-.524-.387,1.53,1.53,0,0,1-.231-.642,7.837,7.837,0,0,1-.053-1.16V12.181h-.756V10.869h.756V9.632l1.652-.961v2.2Z"/>
    </g>
    <g>
      <path class="cls-3" d="M241.274,26.727H281.71a.1.1,0,0,1,.1.1V34.5a.1.1,0,0,1-.1.1h-40.6a2.447,2.447,0,0,1-2.447-2.447V29.338a2.612,2.612,0,0,1,2.612-2.612Z"/>
      <path class="cls-3" d="M241.274,36.583H281.71a.1.1,0,0,1,.1.1v7.68a.1.1,0,0,1-.1.1h-40.6a2.447,2.447,0,0,1-2.447-2.447V39.194a2.612,2.612,0,0,1,2.612-2.612Z"/>
      <text class="cls-5" transform="translate(255.83 32.449)">what is it?</text>
      <text class="cls-5" transform="translate(246.806 42.615)">project ideas:</text>
    </g>
    <text class="cls-6" transform="translate(284.563 42.615)">Air quality senso<tspan class="cls-7" x="39.317" y="0">r</tspan><tspan x="40.494" y="0">, weather station, clap sensor</tspan></text>
    <text class="cls-6" transform="translate(284.563 32.449)">Sensors to learn about the world around you.</text>
    <text class="cls-6" transform="translate(284.563 49.143)">colour sorte<tspan class="cls-7" x="28.629" y="0">r</tspan><tspan x="29.806" y="0">, intruder detecto</tspan><tspan class="cls-7" x="72.986" y="0">r</tspan><tspan x="74.163" y="0">, night light.</tspan></text>
    <g>
      <path class="cls-3" d="M241.678,52.5h40.436a.1.1,0,0,1,.1.1v7.68a.1.1,0,0,1-.1.1h-40.6a2.447,2.447,0,0,1-2.447-2.447V55.114a2.612,2.612,0,0,1,2.612-2.612Z"/>
      <path class="cls-3" d="M241.678,61.5h40.436a.1.1,0,0,1,.1.1v7.68a.1.1,0,0,1-.1.1h-40.6a2.447,2.447,0,0,1-2.447-2.447V64.114a2.612,2.612,0,0,1,2.612-2.612Z"/>
      <text class="cls-5" transform="translate(252.786 58.951)">created by:</text>
      <text class="cls-5" transform="translate(246.218 67.459)">help and info:</text>
      <text class="cls-8" transform="translate(284.162 58.951)">PIMORONI in Sheffield,UK.</text>
      <text class="cls-6" transform="translate(284.162 67.415)">http://pimoroni.com/envirobit</text>
    </g>
    <g>
      <path class="cls-1" d="M290.9,14.223h-4.724a1.61,1.61,0,0,0,.544,1.195,2,2,0,0,0,1.346.427,2.208,2.208,0,0,0,1.605-.535l.6,1.148a3.884,3.884,0,0,1-2.433.642,3.271,3.271,0,0,1-2.393-.862,3.213,3.213,0,0,1-.879-2.4,3.289,3.289,0,0,1,.966-2.463,3.456,3.456,0,0,1,4.627-.109,2.819,2.819,0,0,1,.871,2.127A4.107,4.107,0,0,1,290.9,14.223Zm-4.668-1.129h3.248a1.437,1.437,0,0,0-1.606-1.412A1.575,1.575,0,0,0,286.231,13.094Z"/>
      <path class="cls-1" d="M296.518,16.98V13.262a1.825,1.825,0,0,0-.325-1.2,1.32,1.32,0,0,0-1.058-.379,1.876,1.876,0,0,0-1.328.649V16.98h-1.543V10.547h1.111l.284.6a2.335,2.335,0,0,1,1.859-.722,2.505,2.505,0,0,1,1.861.688,2.609,2.609,0,0,1,.683,1.92V16.98Z"/>
      <path class="cls-1" d="M302.47,17.1h-.556l-2.988-6.553h1.691l1.581,3.928,1.7-3.928h1.635Z"/>
      <path class="cls-1" d="M307.206,16.98v-5.2h-.846V10.547h2.409V16.98Zm.8-8.926a.876.876,0,0,1,.633.255.853.853,0,0,1,0,1.232.913.913,0,0,1-1.266,0,.855.855,0,0,1,0-1.232A.876.876,0,0,1,308,8.054Z"/>
      <path class="cls-1" d="M314.387,11.946a1.653,1.653,0,0,0-.907-.264,1.246,1.246,0,0,0-.954.474,1.7,1.7,0,0,0-.417,1.16V16.98h-1.543V10.547h1.543v.588a2.223,2.223,0,0,1,1.722-.709,2.527,2.527,0,0,1,1.211.235Z"/>
      <path class="cls-1" d="M315.535,13.748a3.344,3.344,0,0,1,.874-2.4,3.427,3.427,0,0,1,4.647-.036,3.415,3.415,0,0,1,.833,2.432,3.432,3.432,0,0,1-.849,2.445,3.444,3.444,0,0,1-4.668-.009A3.475,3.475,0,0,1,315.535,13.748Zm1.606,0q0,2.127,1.574,2.127a1.365,1.365,0,0,0,1.145-.553,2.538,2.538,0,0,0,.423-1.574q0-2.1-1.568-2.1a1.373,1.373,0,0,0-1.148.553A2.468,2.468,0,0,0,317.141,13.748Z"/>
    </g>
    <g>
      <path class="cls-1" d="M360.378,17.225a4.972,4.972,0,0,1,.5-.566,4.937,4.937,0,0,0,1.156-2.065,3.048,3.048,0,0,0-.19-2.326.521.521,0,0,0-.245-.284c-.646-.274-1.036-1.795-1.052-1.979A4.222,4.222,0,0,1,361.96,6.8a3.257,3.257,0,0,1,2.85-.867.806.806,0,0,0,.731-.194,8.034,8.034,0,0,1,1.233-.751,3.268,3.268,0,0,1,2.286-.065,2.7,2.7,0,0,1,1.751,1.362c.17.308.646,1.327,1.252,1.327.517.1,1.034.207,1.539.35A3.627,3.627,0,0,1,375.4,10a3.569,3.569,0,0,1,.033,2.187,5.1,5.1,0,0,1-.8,1.332,8.345,8.345,0,0,1-1.081.891c-.093.078-.21.2-.211.3-.01.662-.233.832-.593,1.8a5.8,5.8,0,0,1-2.181,2.047.745.745,0,0,0-.246.226.978.978,0,0,1-.747.447.687.687,0,0,0-.29.155,6.721,6.721,0,0,1-1.786.816,8.086,8.086,0,0,0-.757.317c-.263-.227-.163-.478-.16-.711.006-.435-.118-.544-.548-.426-.4.11-.788.268-1.189.378-.383.105-.777.176-1.26.284.1-.222.172-.346.216-.479a1.446,1.446,0,0,0,.109-.48c-.017-.418-.275-.582-.691-.476-.457.116-.915.231-1.374.338a1.593,1.593,0,0,1-.314,0c.025-.3.25-.419.386-.6a8.406,8.406,0,0,0,.5-.727.456.456,0,0,0-.013-.617c-.19-.185-.391-.073-.577.015A3.2,3.2,0,0,1,360.378,17.225ZM363.2,14.26c.354-.068.626-.126.9-.173a8.967,8.967,0,0,0,.946-.155.6.6,0,0,1,.622.124.5.5,0,0,0,.391.111.915.915,0,0,1,.753.119c.244.129.544.336.767.285.5-.112.719.172.926.472a11.254,11.254,0,0,1,.686,1.2c.083.16.156.324.36.287.332-.059.7-.095.878-.436a14.5,14.5,0,0,0,.958-1.941,10.428,10.428,0,0,0,.321-1.862c.052-.344-.025-.476-.35-.609-.209-.086-.436-.128-.645-.215a5.642,5.642,0,0,0-2.6-.533,1.993,1.993,0,0,0-1.095.21c-.195.136-.368-.026-.463-.193a1.449,1.449,0,0,0-.649-.507,3.144,3.144,0,0,0-1.668-.164.652.652,0,0,0-.55.619c-.02.334-.009.67-.009,1a2.093,2.093,0,0,1-.286,1.172A1.682,1.682,0,0,0,363.2,14.26Zm5.056-5.1a3.8,3.8,0,0,1,.454-.4c.155-.1.358-.129.51-.232a.757.757,0,0,0,.314-.359,1.418,1.418,0,0,0-.081-1.033,1.7,1.7,0,0,0-.749-.656,1.512,1.512,0,0,0-1.634.015.743.743,0,0,0-.3.436,8.147,8.147,0,0,0,.03,1.1c.026.541.554.834.652,1.455l.428-.5Zm-.72,8.038c.493-.2.687-.5.609-.929-.048-.266-.416-.5-.834-.545a19.057,19.057,0,0,0-2.136-.641c-.566,0-.728.151-.654.595a1.007,1.007,0,0,0,.186.458C365.121,17.3,367.078,17.347,367.539,17.2Z"/>
      <rect class="cls-1" x="365.243" y="11.943" width="0.883" height="1" rx="0.441" transform="translate(27.324 -126.812) rotate(20.421)"/>
      <rect class="cls-1" x="368.185" y="12.474" width="0.883" height="1" rx="0.441" transform="translate(27.694 -127.806) rotate(20.421)"/>
      <circle class="cls-1" cx="367.493" cy="7.599" r="0.285"/>
      <circle class="cls-1" cx="368.458" cy="7.775" r="0.285"/>
    </g>
  </g>
  <g id="top">
    <path class="cls-1" d="M178.243,0H9.572A9.236,9.236,0,0,0,.364,9.208V70.162A9.236,9.236,0,0,0,9.572,79.37H178.243a9.236,9.236,0,0,0,9.208-9.208V9.208A9.236,9.236,0,0,0,178.243,0ZM13.75,72.449a4.5,4.5,0,0,1-3.139,3.138,4.552,4.552,0,0,1-5.6-5.6,4.49,4.49,0,0,1,3.138-3.138A4.552,4.552,0,0,1,13.75,72.449Zm0-63.062a4.493,4.493,0,0,1-3.139,3.138,4.552,4.552,0,0,1-5.6-5.6A4.494,4.494,0,0,1,8.146,3.783,4.553,4.553,0,0,1,13.75,9.387ZM182.807,72.449a4.494,4.494,0,0,1-3.138,3.138,4.552,4.552,0,0,1-5.6-5.6,4.49,4.49,0,0,1,3.138-3.138A4.552,4.552,0,0,1,182.807,72.449Zm0-63.062a4.49,4.49,0,0,1-3.138,3.138,4.552,4.552,0,0,1-5.6-5.6A4.494,4.494,0,0,1,177.2,3.783,4.552,4.552,0,0,1,182.807,9.387Z"/>
    <g>
      <path class="cls-2" d="M178.583,1.013A7.087,7.087,0,1,0,185.669,8.1,7.086,7.086,0,0,0,178.583,1.013Zm0,11.622A4.536,4.536,0,1,1,183.119,8.1,4.549,4.549,0,0,1,178.583,12.635Z"/>
      <path class="cls-2" d="M178.4,64.062a7.087,7.087,0,1,0,7.086,7.087A7.087,7.087,0,0,0,178.4,64.062Zm0,11.623a4.536,4.536,0,1,1,4.536-4.536A4.549,4.549,0,0,1,178.4,75.685Z"/>
      <path class="cls-2" d="M9.448,1.013A7.087,7.087,0,1,0,16.534,8.1,7.086,7.086,0,0,0,9.448,1.013Zm0,11.622A4.536,4.536,0,1,1,13.984,8.1,4.549,4.549,0,0,1,9.448,12.635Z"/>
      <path class="cls-2" d="M9.268,64.062a7.087,7.087,0,1,0,7.086,7.087A7.087,7.087,0,0,0,9.268,64.062Zm0,11.623A4.536,4.536,0,1,1,13.8,71.149,4.549,4.549,0,0,1,9.268,75.685Z"/>
    </g>
    <g>
      <path class="cls-9" d="M155.069,71a23.187,23.187,0,0,0,1.753,8.863l2.156.017a22.509,22.509,0,0,1-1.77-8.88c0-12.24,8.875-21.115,21.115-21.115a22.448,22.448,0,0,1,9.107,1.874l.01-2.156A23.263,23.263,0,0,0,155.069,71Z"/>
      <path class="cls-9" d="M159.5,71a18.734,18.734,0,0,0,2.235,8.9c.993,0,1.989.006,2.98.006a16.262,16.262,0,0,1,22.686-22.4l.013-2.978A18.816,18.816,0,0,0,159.5,71Z"/>
      <path class="cls-9" d="M164.51,71a13.751,13.751,0,0,0,3.253,8.895c1.242-.006,2.457-.016,3.618-.032a11.259,11.259,0,1,1,15.992-15.555l.017-3.712A13.8,13.8,0,0,0,164.51,71Z"/>
      <circle class="cls-9" cx="178.323" cy="71.003" r="4.536" transform="translate(-11.543 42.87) rotate(-13.283)"/>
      <path class="cls-9" d="M178.323,61.435a9.569,9.569,0,0,0-3.755,18.37c1.836-.047,3.451-.112,4.7-.2a9.345,9.345,0,0,0,5.23-2.5,8.837,8.837,0,0,0,2.843-6.29l.014-2.943A9.565,9.565,0,0,0,178.323,61.435Zm0,15.668a6.1,6.1,0,1,1,6.1-6.1A6.1,6.1,0,0,1,178.323,77.1Z"/>
      <path class="cls-3" d="M178.4,65.049a6.1,6.1,0,1,0,6.1,6.1A6.1,6.1,0,0,0,178.4,65.049Zm0,10.636a4.536,4.536,0,1,1,4.536-4.536A4.549,4.549,0,0,1,178.4,75.685Z"/>
      <path class="cls-3" d="M168.755,71a9.564,9.564,0,0,1,18.6-3.131l.016-3.561A11.258,11.258,0,0,0,167.055,71a10.089,10.089,0,0,0,3.894,8.454q1.68-.023,3.187-.061A8.638,8.638,0,0,1,168.755,71Z"/>
      <path class="cls-3" d="M164.51,71a13.8,13.8,0,0,1,22.88-10.4l.014-3.092A16.267,16.267,0,0,0,162.057,71a14.2,14.2,0,0,0,2.313,8.364c1.027,0,2.044,0,3.045-.007A12.071,12.071,0,0,1,164.51,71Z"/>
      <path class="cls-3" d="M159.5,71a18.816,18.816,0,0,1,27.914-16.474l.013-2.767a22.448,22.448,0,0,0-9.107-1.874c-12.24,0-21.115,8.875-21.115,21.115a19.913,19.913,0,0,0,1.554,8.353c.911.007,1.833.012,2.76.015A16.551,16.551,0,0,1,159.5,71Z"/>
      <path class="cls-3" d="M155.069,71a23.263,23.263,0,0,1,32.371-21.4l.011-2.411a27.084,27.084,0,0,0-9.128-1.575A25.146,25.146,0,0,0,152.94,71a24.057,24.057,0,0,0,1.257,8.355c.79.009,1.608,0,2.439.006A20.594,20.594,0,0,1,155.069,71Z"/>
    </g>
    <g id="C-0603">
      <rect id="rect21332-8-1-9-3-8-2-40-6-2-0-6-6-0-5-6-4-8-7-2-0-7-2-3-9-16-2" class="cls-10" x="30.176" y="70.116" width="2.26" height="2.26"/>
      <rect id="rect21332-8-1-9-3-8-2-40-6-2-0-6-6-0-5-6-4-8-7-2-0-7-2-3-10-16-2" class="cls-10" x="30.175" y="66.736" width="2.26" height="2.26"/>
      <path class="cls-11" d="M30.171,71.486v-3.88a.329.329,0,0,1,.277-.33h1.7a.306.306,0,0,1,.287.324h0v3.88a.31.31,0,0,1-.286.33H30.468a.323.323,0,0,1-.3-.32h0Z"/>
      <rect class="cls-12" x="30.169" y="67.704" width="2.27" height="3.685"/>
      <path id="path26341-4-2-6-0-8-1-1-1-5-0-3-3-1-8-3-8-7-7-7-2-4-9-7-2-3-5-16-2" class="cls-13" d="M32.438,70.966v-2.84H30.17v2.84Z"/>
    </g>
    <g id="C-0603-2" data-name="C-0603">
      <rect id="rect21332-8-1-9-3-8-2-40-6-2-0-6-6-0-5-6-4-8-7-2-0-7-2-3-9-16-2-2" data-name="rect21332-8-1-9-3-8-2-40-6-2-0-6-6-0-5-6-4-8-7-2-0-7-2-3-9-16-2" class="cls-10" x="40.193" y="58.183" width="2.26" height="2.26"/>
      <rect id="rect21332-8-1-9-3-8-2-40-6-2-0-6-6-0-5-6-4-8-7-2-0-7-2-3-10-16-2-2" data-name="rect21332-8-1-9-3-8-2-40-6-2-0-6-6-0-5-6-4-8-7-2-0-7-2-3-10-16-2" class="cls-10" x="36.813" y="58.184" width="2.26" height="2.26"/>
      <path class="cls-11" d="M41.563,60.448h-3.88a.329.329,0,0,1-.33-.277v-1.7a.308.308,0,0,1,.324-.287h3.88a.31.31,0,0,1,.33.286v1.681a.321.321,0,0,1-.32.3h0Z"/>
      <rect class="cls-12" x="37.781" y="58.18" width="3.685" height="2.27"/>
      <path id="path26341-4-2-6-0-8-1-1-1-5-0-3-3-1-8-3-8-7-7-7-2-4-9-7-2-3-5-16-2-2" data-name="path26341-4-2-6-0-8-1-1-1-5-0-3-3-1-8-3-8-7-7-7-2-4-9-7-2-3-5-16-2" class="cls-13" d="M41.043,58.181H38.2v2.268h2.84Z"/>
    </g>
    <g id="C-0603-3" data-name="C-0603">
      <rect id="rect21332-8-1-9-3-8-2-40-6-2-0-6-6-0-5-6-4-8-7-2-0-7-2-3-9-16-2-3" data-name="rect21332-8-1-9-3-8-2-40-6-2-0-6-6-0-5-6-4-8-7-2-0-7-2-3-9-16-2" class="cls-10" x="90.302" y="59.663" width="2.26" height="2.26"/>
      <rect id="rect21332-8-1-9-3-8-2-40-6-2-0-6-6-0-5-6-4-8-7-2-0-7-2-3-10-16-2-3" data-name="rect21332-8-1-9-3-8-2-40-6-2-0-6-6-0-5-6-4-8-7-2-0-7-2-3-10-16-2" class="cls-10" x="86.922" y="59.664" width="2.26" height="2.26"/>
      <path class="cls-11" d="M91.672,61.928h-3.88a.329.329,0,0,1-.33-.277v-1.7a.308.308,0,0,1,.324-.287h3.88a.31.31,0,0,1,.33.286v1.681a.321.321,0,0,1-.32.3h0Z"/>
      <rect class="cls-12" x="87.89" y="59.66" width="3.685" height="2.27"/>
      <path id="path26341-4-2-6-0-8-1-1-1-5-0-3-3-1-8-3-8-7-7-7-2-4-9-7-2-3-5-16-2-3" data-name="path26341-4-2-6-0-8-1-1-1-5-0-3-3-1-8-3-8-7-7-7-2-4-9-7-2-3-5-16-2" class="cls-13" d="M91.152,59.661h-2.84v2.268h2.84Z"/>
    </g>
    <g id="C-0603-4" data-name="C-0603">
      <rect id="rect21332-8-1-9-3-8-2-40-6-2-0-6-6-0-5-6-4-8-7-2-0-7-2-3-9-16-2-4" data-name="rect21332-8-1-9-3-8-2-40-6-2-0-6-6-0-5-6-4-8-7-2-0-7-2-3-9-16-2" class="cls-10" x="133.953" y="56.303" width="2.26" height="2.26"/>
      <rect id="rect21332-8-1-9-3-8-2-40-6-2-0-6-6-0-5-6-4-8-7-2-0-7-2-3-10-16-2-4" data-name="rect21332-8-1-9-3-8-2-40-6-2-0-6-6-0-5-6-4-8-7-2-0-7-2-3-10-16-2" class="cls-10" x="130.573" y="56.304" width="2.26" height="2.26"/>
      <path class="cls-11" d="M135.323,58.568h-3.88a.329.329,0,0,1-.33-.277v-1.7a.308.308,0,0,1,.324-.287h3.88a.31.31,0,0,1,.33.286v1.681a.321.321,0,0,1-.32.3h0Z"/>
      <rect class="cls-12" x="131.541" y="56.3" width="3.685" height="2.27"/>
      <path id="path26341-4-2-6-0-8-1-1-1-5-0-3-3-1-8-3-8-7-7-7-2-4-9-7-2-3-5-16-2-4" data-name="path26341-4-2-6-0-8-1-1-1-5-0-3-3-1-8-3-8-7-7-7-2-4-9-7-2-3-5-16-2" class="cls-13" d="M134.8,56.3h-2.84v2.268h2.84Z"/>
    </g>
    <g id="C-0603-5" data-name="C-0603">
      <rect id="rect21332-8-1-9-3-8-2-40-6-2-0-6-6-0-5-6-4-8-7-2-0-7-2-3-9-16-2-5" data-name="rect21332-8-1-9-3-8-2-40-6-2-0-6-6-0-5-6-4-8-7-2-0-7-2-3-9-16-2" class="cls-10" x="133.953" y="73.303" width="2.26" height="2.26"/>
      <rect id="rect21332-8-1-9-3-8-2-40-6-2-0-6-6-0-5-6-4-8-7-2-0-7-2-3-10-16-2-5" data-name="rect21332-8-1-9-3-8-2-40-6-2-0-6-6-0-5-6-4-8-7-2-0-7-2-3-10-16-2" class="cls-10" x="130.573" y="73.304" width="2.26" height="2.26"/>
      <path class="cls-11" d="M135.323,75.568h-3.88a.329.329,0,0,1-.33-.277v-1.7a.308.308,0,0,1,.324-.287h3.88a.31.31,0,0,1,.33.286v1.681a.321.321,0,0,1-.32.3h0Z"/>
      <rect class="cls-12" x="131.541" y="73.3" width="3.685" height="2.27"/>
      <path id="path26341-4-2-6-0-8-1-1-1-5-0-3-3-1-8-3-8-7-7-7-2-4-9-7-2-3-5-16-2-5" data-name="path26341-4-2-6-0-8-1-1-1-5-0-3-3-1-8-3-8-7-7-7-2-4-9-7-2-3-5-16-2" class="cls-13" d="M134.8,73.3h-2.84v2.268h2.84Z"/>
    </g>
    <g id="C-0603-6" data-name="C-0603">
      <rect id="rect21332-8-1-9-3-8-2-40-6-2-0-6-6-0-5-6-4-8-7-2-0-7-2-3-9-16-2-6" data-name="rect21332-8-1-9-3-8-2-40-6-2-0-6-6-0-5-6-4-8-7-2-0-7-2-3-9-16-2" class="cls-10" x="149.169" y="69.356" width="2.26" height="2.26"/>
      <rect id="rect21332-8-1-9-3-8-2-40-6-2-0-6-6-0-5-6-4-8-7-2-0-7-2-3-10-16-2-6" data-name="rect21332-8-1-9-3-8-2-40-6-2-0-6-6-0-5-6-4-8-7-2-0-7-2-3-10-16-2" class="cls-10" x="149.17" y="72.736" width="2.26" height="2.26"/>
      <path class="cls-11" d="M151.434,70.246v3.88a.329.329,0,0,1-.277.33h-1.7a.308.308,0,0,1-.287-.324h0v-3.88a.31.31,0,0,1,.286-.33h1.681a.321.321,0,0,1,.3.32h0Z"/>
      <rect class="cls-12" x="149.166" y="70.343" width="2.27" height="3.685"/>
      <path id="path26341-4-2-6-0-8-1-1-1-5-0-3-3-1-8-3-8-7-7-7-2-4-9-7-2-3-5-16-2-6" data-name="path26341-4-2-6-0-8-1-1-1-5-0-3-3-1-8-3-8-7-7-7-2-4-9-7-2-3-5-16-2" class="cls-13" d="M149.167,70.766v2.84h2.268v-2.84Z"/>
    </g>
    <g id="C-0805">
      <rect id="rect21332-8-1-9-3-8-2-40-6-2-0-6-6-0-5-6-4-8-7-2-0-7-2-3-9-16-3" class="cls-10" x="159.246" y="73.415" width="2.9" height="3.4"/>
      <rect id="rect21332-8-1-9-3-8-2-40-6-2-0-6-6-0-5-6-4-8-7-2-0-7-2-3-10-16-3" class="cls-10" x="154.197" y="73.415" width="2.9" height="3.4"/>
      <path class="cls-11" d="M160.586,76.815h-4.84a.421.421,0,0,1-.42-.42v-2.55a.412.412,0,0,1,.389-.43h4.84a.412.412,0,0,1,.41.41v2.56a.429.429,0,0,1-.41.43h.031Z"/>
      <g id="path26345-3-6-9-3-6-4-2-5-6-8-7-9-0-90-3-1-3-9-2-2-8-5-0-2-3-5-16-3">
        <rect class="cls-12" x="156.027" y="73.415" width="4.25" height="3.4"/>
      </g>
      <path id="path26341-4-2-6-0-8-1-1-1-5-0-3-3-1-8-3-8-7-7-7-2-4-9-7-2-3-5-16-3" class="cls-13" d="M159.586,73.416h-2.84v3.4h2.84Z"/>
    </g>
    <g id="R-0603">
      <rect id="rect21332-8-1-9-3-8-2-40-6-2-0-6-6-0-5-6-4-8-7-2-0-7-2-3-9-16-5" class="cls-10" x="61.353" y="68.982" width="2.26" height="2.268"/>
      <rect id="rect21332-8-1-9-3-8-2-40-6-2-0-6-6-0-5-6-4-8-7-2-0-7-2-3-10-16-5" class="cls-10" x="57.963" y="68.982" width="2.26" height="2.268"/>
      <path class="cls-11" d="M62.723,71.25H58.856a.33.33,0,0,1-.33-.278v-1.7a.306.306,0,0,1,.324-.287h3.87a.308.308,0,0,1,.33.285v1.683a.322.322,0,0,1-.32.3h0Z"/>
      <g id="path26345-3-6-9-3-6-4-2-5-6-8-7-9-0-90-3-1-3-9-2-2-8-5-0-2-3-5-16-5">
        <rect class="cls-12" x="58.943" y="68.982" width="3.68" height="2.268"/>
      </g>
      <path id="path26341-4-2-6-0-8-1-1-1-5-0-3-3-1-8-3-8-7-7-7-2-4-9-7-2-3-5-16-5" class="cls-14" d="M62.2,68.982h-2.83V71.25H62.2Z"/>
    </g>
    <g id="R-0603-2" data-name="R-0603">
      <rect id="rect21332-8-1-9-3-8-2-40-6-2-0-6-6-0-5-6-4-8-7-2-0-7-2-3-9-16-5-2" data-name="rect21332-8-1-9-3-8-2-40-6-2-0-6-6-0-5-6-4-8-7-2-0-7-2-3-9-16-5" class="cls-10" x="144.288" y="67.982" width="2.26" height="2.268"/>
      <rect id="rect21332-8-1-9-3-8-2-40-6-2-0-6-6-0-5-6-4-8-7-2-0-7-2-3-10-16-5-2" data-name="rect21332-8-1-9-3-8-2-40-6-2-0-6-6-0-5-6-4-8-7-2-0-7-2-3-10-16-5" class="cls-10" x="140.898" y="67.982" width="2.26" height="2.268"/>
      <path class="cls-11" d="M145.658,70.25h-3.867a.329.329,0,0,1-.33-.278v-1.7a.305.305,0,0,1,.324-.287h3.87a.309.309,0,0,1,.33.285v1.683a.322.322,0,0,1-.32.3h0Z"/>
      <g id="path26345-3-6-9-3-6-4-2-5-6-8-7-9-0-90-3-1-3-9-2-2-8-5-0-2-3-5-16-5-2" data-name="path26345-3-6-9-3-6-4-2-5-6-8-7-9-0-90-3-1-3-9-2-2-8-5-0-2-3-5-16-5">
        <rect class="cls-12" x="141.878" y="67.982" width="3.68" height="2.268"/>
      </g>
      <path id="path26341-4-2-6-0-8-1-1-1-5-0-3-3-1-8-3-8-7-7-7-2-4-9-7-2-3-5-16-5-2" data-name="path26341-4-2-6-0-8-1-1-1-5-0-3-3-1-8-3-8-7-7-7-2-4-9-7-2-3-5-16-5" class="cls-14" d="M145.138,67.982h-2.83V70.25h2.83Z"/>
    </g>
    <g id="R-0603-3" data-name="R-0603">
      <rect id="rect21332-8-1-9-3-8-2-40-6-2-0-6-6-0-5-6-4-8-7-2-0-7-2-3-9-16-5-3" data-name="rect21332-8-1-9-3-8-2-40-6-2-0-6-6-0-5-6-4-8-7-2-0-7-2-3-9-16-5" class="cls-10" x="144.288" y="73.982" width="2.26" height="2.268"/>
      <rect id="rect21332-8-1-9-3-8-2-40-6-2-0-6-6-0-5-6-4-8-7-2-0-7-2-3-10-16-5-3" data-name="rect21332-8-1-9-3-8-2-40-6-2-0-6-6-0-5-6-4-8-7-2-0-7-2-3-10-16-5" class="cls-10" x="140.898" y="73.982" width="2.26" height="2.268"/>
      <path class="cls-11" d="M145.658,76.25h-3.867a.329.329,0,0,1-.33-.278v-1.7a.305.305,0,0,1,.324-.287h3.87a.309.309,0,0,1,.33.285v1.683a.322.322,0,0,1-.32.3h0Z"/>
      <g id="path26345-3-6-9-3-6-4-2-5-6-8-7-9-0-90-3-1-3-9-2-2-8-5-0-2-3-5-16-5-3" data-name="path26345-3-6-9-3-6-4-2-5-6-8-7-9-0-90-3-1-3-9-2-2-8-5-0-2-3-5-16-5">
        <rect class="cls-12" x="141.878" y="73.982" width="3.68" height="2.268"/>
      </g>
      <path id="path26341-4-2-6-0-8-1-1-1-5-0-3-3-1-8-3-8-7-7-7-2-4-9-7-2-3-5-16-5-3" data-name="path26341-4-2-6-0-8-1-1-1-5-0-3-3-1-8-3-8-7-7-7-2-4-9-7-2-3-5-16-5" class="cls-14" d="M145.138,73.982h-2.83V76.25h2.83Z"/>
    </g>
    <g id="R-0603-4" data-name="R-0603">
      <rect id="rect21332-8-1-9-3-8-2-40-6-2-0-6-6-0-5-6-4-8-7-2-0-7-2-3-9-16-5-4" data-name="rect21332-8-1-9-3-8-2-40-6-2-0-6-6-0-5-6-4-8-7-2-0-7-2-3-9-16-5" class="cls-10" x="74.213" y="64.268" width="2.268" height="2.26"/>
      <rect id="rect21332-8-1-9-3-8-2-40-6-2-0-6-6-0-5-6-4-8-7-2-0-7-2-3-10-16-5-4" data-name="rect21332-8-1-9-3-8-2-40-6-2-0-6-6-0-5-6-4-8-7-2-0-7-2-3-10-16-5" class="cls-10" x="74.213" y="67.658" width="2.268" height="2.26"/>
      <path class="cls-11" d="M76.481,65.158v3.867a.329.329,0,0,1-.278.33H74.5a.306.306,0,0,1-.287-.324h0v-3.87a.309.309,0,0,1,.285-.33h1.683a.321.321,0,0,1,.3.32h0Z"/>
      <g id="path26345-3-6-9-3-6-4-2-5-6-8-7-9-0-90-3-1-3-9-2-2-8-5-0-2-3-5-16-5-4" data-name="path26345-3-6-9-3-6-4-2-5-6-8-7-9-0-90-3-1-3-9-2-2-8-5-0-2-3-5-16-5">
        <rect class="cls-12" x="74.213" y="65.258" width="2.268" height="3.68"/>
      </g>
      <path id="path26341-4-2-6-0-8-1-1-1-5-0-3-3-1-8-3-8-7-7-7-2-4-9-7-2-3-5-16-5-4" data-name="path26341-4-2-6-0-8-1-1-1-5-0-3-3-1-8-3-8-7-7-7-2-4-9-7-2-3-5-16-5" class="cls-14" d="M74.213,65.678v2.83h2.268v-2.83Z"/>
    </g>
    <g id="R-0603-5" data-name="R-0603">
      <rect id="rect21332-8-1-9-3-8-2-40-6-2-0-6-6-0-5-6-4-8-7-2-0-7-2-3-9-16-5-5" data-name="rect21332-8-1-9-3-8-2-40-6-2-0-6-6-0-5-6-4-8-7-2-0-7-2-3-9-16-5" class="cls-10" x="51.141" y="68.983" width="2.26" height="2.268"/>
      <rect id="rect21332-8-1-9-3-8-2-40-6-2-0-6-6-0-5-6-4-8-7-2-0-7-2-3-10-16-5-5" data-name="rect21332-8-1-9-3-8-2-40-6-2-0-6-6-0-5-6-4-8-7-2-0-7-2-3-10-16-5" class="cls-10" x="47.751" y="68.983" width="2.26" height="2.268"/>
      <path class="cls-11" d="M52.511,71.251H48.644a.329.329,0,0,1-.33-.278v-1.7a.305.305,0,0,1,.323-.287h3.87a.31.31,0,0,1,.331.285v1.683a.323.323,0,0,1-.321.3h0Z"/>
      <g id="path26345-3-6-9-3-6-4-2-5-6-8-7-9-0-90-3-1-3-9-2-2-8-5-0-2-3-5-16-5-5" data-name="path26345-3-6-9-3-6-4-2-5-6-8-7-9-0-90-3-1-3-9-2-2-8-5-0-2-3-5-16-5">
        <rect class="cls-12" x="48.731" y="68.983" width="3.68" height="2.268"/>
      </g>
      <path id="path26341-4-2-6-0-8-1-1-1-5-0-3-3-1-8-3-8-7-7-7-2-4-9-7-2-3-5-16-5-5" data-name="path26341-4-2-6-0-8-1-1-1-5-0-3-3-1-8-3-8-7-7-7-2-4-9-7-2-3-5-16-5" class="cls-14" d="M51.991,68.983H49.16v2.268h2.831Z"/>
    </g>
    <g id="LED-0805">
      <rect id="rect21332-8-1-9-3-8-2-40-6-2-0-6-6-0-5-6-4-8-7-2-0-7-2-3-9-16-9" class="cls-10" x="79.311" y="67.795" width="3.4" height="2.9"/>
      <rect id="rect21332-8-1-9-3-8-2-40-6-2-0-6-6-0-5-6-4-8-7-2-0-7-2-3-10-16-9" class="cls-10" x="79.311" y="62.776" width="3.4" height="2.9"/>
      <path class="cls-11" d="M79.311,69.166v-4.84a.42.42,0,0,1,.42-.42h2.55a.412.412,0,0,1,.43.388h0v4.84a.411.411,0,0,1-.41.41h-2.56a.429.429,0,0,1-.43-.41h0Z"/>
      <rect class="cls-12" x="79.311" y="64.606" width="3.4" height="4.25"/>
      <path id="path26341-4-2-6-0-8-1-1-1-5-0-3-3-1-8-3-8-7-7-7-2-4-9-7-2-3-5-16-9" class="cls-15" d="M82.71,68.166V65.325h-3.4v2.841Z"/>
      <path id="path6963-86-8-2-6-0-1-7-9-2-3" class="cls-16" d="M80.8,67.906v-.391h.42v.391Z"/>
    </g>
    <g id="LED-0805-2" data-name="LED-0805">
      <rect id="rect21332-8-1-9-3-8-2-40-6-2-0-6-6-0-5-6-4-8-7-2-0-7-2-3-9-16-9-2" data-name="rect21332-8-1-9-3-8-2-40-6-2-0-6-6-0-5-6-4-8-7-2-0-7-2-3-9-16-9" class="cls-10" x="108.311" y="67.795" width="3.4" height="2.9"/>
      <rect id="rect21332-8-1-9-3-8-2-40-6-2-0-6-6-0-5-6-4-8-7-2-0-7-2-3-10-16-9-2" data-name="rect21332-8-1-9-3-8-2-40-6-2-0-6-6-0-5-6-4-8-7-2-0-7-2-3-10-16-9" class="cls-10" x="108.311" y="62.776" width="3.4" height="2.9"/>
      <path class="cls-11" d="M108.311,69.166v-4.84a.42.42,0,0,1,.42-.42h2.55a.412.412,0,0,1,.43.388h0v4.84a.411.411,0,0,1-.41.41h-2.56a.429.429,0,0,1-.43-.41h0Z"/>
      <rect class="cls-12" x="108.311" y="64.606" width="3.4" height="4.25"/>
      <path id="path26341-4-2-6-0-8-1-1-1-5-0-3-3-1-8-3-8-7-7-7-2-4-9-7-2-3-5-16-9-2" data-name="path26341-4-2-6-0-8-1-1-1-5-0-3-3-1-8-3-8-7-7-7-2-4-9-7-2-3-5-16-9" class="cls-15" d="M111.71,68.166V65.325h-3.4v2.841Z"/>
      <path id="path6963-86-8-2-6-0-1-7-9-2-3-2" data-name="path6963-86-8-2-6-0-1-7-9-2-3" class="cls-16" d="M109.8,67.906v-.391h.42v.391Z"/>
    </g>
    <g id="T-SOT23-5">
      <path id="path3479-7" class="cls-17" d="M148.018,57.219v1.62h-2.57v-1.62Z"/>
      <path id="path3481-0" class="cls-18" d="M146.538,57.219v1.62h-.86v-1.62Z"/>
      <path id="path3483-6" class="cls-17" d="M148.018,62.763v1.6h-2.57v-1.6Z"/>
      <path id="path3485-6" class="cls-18" d="M146.538,62.763v1.6h-.86v-1.6Z"/>
      <path id="path3487-1" class="cls-17" d="M139.429,57.219v1.62h2.558v-1.62Z"/>
      <path id="path3489-6" class="cls-18" d="M140.9,57.219v1.62h.78v-1.62Z"/>
      <path id="path3479-7-2" class="cls-17" d="M148.018,59.983V61.6h-2.57v-1.62Z"/>
      <path id="path3481-0-2" class="cls-18" d="M146.538,59.983V61.6h-.86v-1.62Z"/>
      <path id="path3487-1-2" class="cls-17" d="M139.429,62.752v1.621h2.558V62.752Z"/>
      <path id="path3489-6-2" class="cls-18" d="M140.9,62.752v1.621h.78V62.752Z"/>
      <path id="path3477-9" class="cls-14" d="M145.458,56.584V65h-3.48V56.584Z"/>
    </g>
    <g id="T-SOT23-3">
      <path id="path3479-7-2-2" class="cls-17" d="M57.3,63.648h1.57v2.57H57.3Z"/>
      <path id="path3481-0-2-2" class="cls-18" d="M57.3,63.888h1.57v.85H57.3Z"/>
      <path id="path3483-6-2" class="cls-17" d="M62.784,63.648h1.6v2.57h-1.6Z"/>
      <path id="path3485-6-2" class="cls-18" d="M62.784,63.888h1.6v.85h-1.6Z"/>
      <path id="path3487-1-2-2" class="cls-17" d="M60,60.189h1.621v-2.56H60Z"/>
      <path id="path3489-6-2-2" class="cls-18" d="M60,59.889h1.621V59.1H60Z"/>
      <path id="path3477-9-2" class="cls-14" d="M56.605,60.179h8.42v3.48h-8.42Z"/>
    </g>
    <g id="T-SOT23-3-2" data-name="T-SOT23-3">
      <path id="path3479-7-2-2-2" data-name="path3479-7-2-2" class="cls-17" d="M129.873,68.648h1.57v2.57h-1.57Z"/>
      <path id="path3481-0-2-2-2" data-name="path3481-0-2-2" class="cls-18" d="M129.873,68.888h1.57v.85h-1.57Z"/>
      <path id="path3483-6-2-2" data-name="path3483-6-2" class="cls-17" d="M135.362,68.648h1.6v2.57h-1.6Z"/>
      <path id="path3485-6-2-2" data-name="path3485-6-2" class="cls-18" d="M135.362,68.888h1.6v.85h-1.6Z"/>
      <path id="path3487-1-2-2-2" data-name="path3487-1-2-2" class="cls-17" d="M132.582,65.189H134.2v-2.56h-1.621Z"/>
      <path id="path3489-6-2-2-2" data-name="path3489-6-2-2" class="cls-18" d="M132.582,64.889H134.2V64.1h-1.621Z"/>
      <path id="path3477-9-2-2" data-name="path3477-9-2" class="cls-14" d="M129.183,65.179h8.42v3.48h-8.42Z"/>
    </g>
    <g id="T-SOT23-3-3" data-name="T-SOT23-3">
      <path id="path3479-7-2-2-3" data-name="path3479-7-2-2" class="cls-17" d="M47.056,63.648h1.57v2.57h-1.57Z"/>
      <path id="path3481-0-2-2-3" data-name="path3481-0-2-2" class="cls-18" d="M47.056,63.888h1.57v.85h-1.57Z"/>
      <path id="path3483-6-2-3" data-name="path3483-6-2" class="cls-17" d="M52.545,63.648h1.6v2.57h-1.6Z"/>
      <path id="path3485-6-2-3" data-name="path3485-6-2" class="cls-18" d="M52.545,63.888h1.6v.85h-1.6Z"/>
      <path id="path3487-1-2-2-3" data-name="path3487-1-2-2" class="cls-17" d="M49.765,60.189h1.621v-2.56H49.765Z"/>
      <path id="path3489-6-2-2-3" data-name="path3489-6-2-2" class="cls-18" d="M49.765,59.889h1.621V59.1H49.765Z"/>
      <path id="path3477-9-2-3" data-name="path3477-9-2" class="cls-14" d="M46.366,60.179h8.42v3.48h-8.42Z"/>
    </g>
    <g>
      <g>
        <rect class="cls-19" x="36.165" y="64.327" width="6.936" height="6.936" rx="0.079" transform="translate(107.428 28.162) rotate(90)"/>
        <rect class="cls-20" x="36.352" y="64.569" width="6.564" height="6.452" rx="0.397" transform="translate(107.428 28.162) rotate(90)"/>
        <rect class="cls-21" x="36.456" y="64.672" width="6.354" height="6.246" rx="0.397" transform="translate(107.428 28.162) rotate(90)"/>
        <rect class="cls-22" x="36.74" y="64.951" width="5.786" height="5.688" rx="0.397" transform="translate(107.428 28.162) rotate(90)"/>
      </g>
      <rect class="cls-23" x="39.224" y="69.074" width="0.818" height="0.818" rx="0.409" transform="translate(109.117 29.85) rotate(90)"/>
    </g>
    <g>
      <g>
        <rect class="cls-24" x="152.762" y="60.973" width="10.821" height="8.412" rx="0.079" transform="translate(223.351 -92.993) rotate(90)"/>
        <rect class="cls-25" x="153.052" y="61.266" width="10.24" height="7.825" rx="0.397" transform="translate(223.351 -92.993) rotate(90)"/>
        <rect class="cls-26" x="153.215" y="61.391" width="9.913" height="7.575" rx="0.397" transform="translate(223.351 -92.993) rotate(90)"/>
        <rect class="cls-27" x="153.659" y="61.73" width="9.027" height="6.898" rx="0.397" transform="translate(223.351 -92.993) rotate(90)"/>
        <rect class="cls-28" x="154.008" y="62.134" width="8.172" height="6.12" rx="0.397" transform="translate(223.288 -92.899) rotate(90)"/>
        <path class="cls-29" d="M161.223,60.665h-6.216a.355.355,0,0,0-.362.345v.155h6.075a.355.355,0,0,1,.362.345v7.432a.355.355,0,0,1-.362.344h-6.075v.03a.355.355,0,0,0,.362.345h6.216a.355.355,0,0,0,.363-.345V61.01A.355.355,0,0,0,161.223,60.665Z"/>
        <rect class="cls-30" x="153.58" y="61.73" width="9.027" height="6.898" rx="0.397" transform="translate(223.272 -92.915) rotate(90)"/>
      </g>
      <rect class="cls-31" x="157.53" y="66.042" width="1.284" height="1.284" rx="0.642" transform="translate(224.856 -91.488) rotate(90)"/>
    </g>
    <g>
      <path class="cls-32" d="M.354,42.677H.573a3.067,3.067,0,0,0,1.94-.689A3.3,3.3,0,0,1,4.48,41.13a8.564,8.564,0,0,1,3.3.95,3.025,3.025,0,0,0,2.4.1l1.5-.582a3.9,3.9,0,0,1,2.866.023l1.457.59a3.28,3.28,0,0,0,2.313.056l2.267-.794a3.77,3.77,0,0,1,2.462-.009l2.488.85a2.52,2.52,0,0,0,2.034-.179l1.229-.679a2.718,2.718,0,0,1,2.817.114l2.159.729a3.262,3.262,0,0,0,2.211-.045l1.78-.652a4.164,4.164,0,0,1,2.667-.066l2.947.918a2.168,2.168,0,0,0,1.405-.04l2.582-.9a3.1,3.1,0,0,1,2.231.072l2.119.8a2.618,2.618,0,0,0,1.551.095l3.124-1.054a4.172,4.172,0,0,1,2.857.323l1.011.6a2.347,2.347,0,0,0,1.2.327h0a2.129,2.129,0,0,0,.955-.226l1.012-.506a4.677,4.677,0,0,1,3.335-.329l2.878,1.061h.75"/>
      <path class="cls-32" d="M.354,45.823H.573a3.067,3.067,0,0,0,1.94-.689,3.3,3.3,0,0,1,1.967-.858,8.564,8.564,0,0,1,3.3.95,3.025,3.025,0,0,0,2.4.1l1.5-.581a3.9,3.9,0,0,1,2.866.022l1.457.59a3.28,3.28,0,0,0,2.313.056l2.267-.794a3.77,3.77,0,0,1,2.462-.009l2.488.85a2.52,2.52,0,0,0,2.034-.179L28.8,44.6a2.718,2.718,0,0,1,2.817.114l2.159.729a3.262,3.262,0,0,0,2.211-.045l1.78-.652a4.164,4.164,0,0,1,2.667-.066l2.947.918a2.168,2.168,0,0,0,1.405-.04l2.582-.9a3.1,3.1,0,0,1,2.231.072l2.119.8a2.618,2.618,0,0,0,1.551.095l3.124-1.054a4.172,4.172,0,0,1,2.857.323l1.011.6a2.347,2.347,0,0,0,1.2.327h0a2.129,2.129,0,0,0,.955-.226l1.012-.506a4.677,4.677,0,0,1,3.335-.329l2.878,1.061h.75"/>
      <path class="cls-32" d="M.354,55.261H.573a3.067,3.067,0,0,0,1.94-.689,3.3,3.3,0,0,1,1.967-.858,8.582,8.582,0,0,1,3.3.95,3.021,3.021,0,0,0,2.4.1l1.5-.581a3.893,3.893,0,0,1,2.866.023l1.457.59a3.285,3.285,0,0,0,2.313.055l2.267-.793a3.77,3.77,0,0,1,2.462-.01l2.488.85a2.52,2.52,0,0,0,2.034-.179l1.229-.678a2.718,2.718,0,0,1,2.817.114l2.159.728a3.262,3.262,0,0,0,2.211-.045l1.78-.652a4.157,4.157,0,0,1,2.667-.065l2.947.917A2.162,2.162,0,0,0,44.787,55l2.582-.9a3.1,3.1,0,0,1,2.231.073l2.119.8a2.634,2.634,0,0,0,1.551.095l3.124-1.055a4.172,4.172,0,0,1,2.857.323l1.011.6a2.347,2.347,0,0,0,1.2.327h0a2.142,2.142,0,0,0,.955-.225l1.012-.507a4.682,4.682,0,0,1,3.335-.328l2.878,1.06h.75"/>
      <path class="cls-32" d="M.354,48.969H.573a3.067,3.067,0,0,0,1.94-.689,3.3,3.3,0,0,1,1.967-.858,8.582,8.582,0,0,1,3.3.95,3.025,3.025,0,0,0,2.4.1l1.5-.581a3.9,3.9,0,0,1,2.866.022l1.457.59a3.28,3.28,0,0,0,2.313.056l2.267-.794a3.77,3.77,0,0,1,2.462-.009l2.488.85a2.52,2.52,0,0,0,2.034-.179l1.229-.678a2.718,2.718,0,0,1,2.817.113l2.159.729a3.262,3.262,0,0,0,2.211-.045l1.78-.652a4.164,4.164,0,0,1,2.667-.066l2.947.918a2.168,2.168,0,0,0,1.405-.04l2.582-.9a3.1,3.1,0,0,1,2.231.073l2.119.8a2.634,2.634,0,0,0,1.551.1l3.124-1.055a4.172,4.172,0,0,1,2.857.323l1.011.6a2.347,2.347,0,0,0,1.2.327h0a2.129,2.129,0,0,0,.955-.226l1.012-.506a4.676,4.676,0,0,1,3.335-.328l2.878,1.06h.75"/>
      <path class="cls-32" d="M.354,52.115H.573a3.067,3.067,0,0,0,1.94-.689,3.3,3.3,0,0,1,1.967-.858,8.582,8.582,0,0,1,3.3.95,3.021,3.021,0,0,0,2.4.1l1.5-.581a3.893,3.893,0,0,1,2.866.023l1.457.589a3.28,3.28,0,0,0,2.313.056l2.267-.794A3.777,3.777,0,0,1,23.05,50.9l2.488.85a2.52,2.52,0,0,0,2.034-.179L28.8,50.9a2.718,2.718,0,0,1,2.817.113l2.159.729a3.262,3.262,0,0,0,2.211-.045l1.78-.652a4.164,4.164,0,0,1,2.667-.066l2.947.918a2.162,2.162,0,0,0,1.405-.039l2.582-.9a3.1,3.1,0,0,1,2.231.073l2.119.8a2.634,2.634,0,0,0,1.551.095l3.124-1.055a4.172,4.172,0,0,1,2.857.323l1.011.6a2.347,2.347,0,0,0,1.2.327h0a2.129,2.129,0,0,0,.955-.226l1.012-.506a4.676,4.676,0,0,1,3.335-.328l2.878,1.06h.75"/>
      <path class="cls-32" d="M.354,58.407H.573a3.061,3.061,0,0,0,1.94-.689A3.3,3.3,0,0,1,4.48,56.86a8.582,8.582,0,0,1,3.3.95,3.021,3.021,0,0,0,2.4.1l1.5-.581a3.893,3.893,0,0,1,2.866.023l1.457.59A3.28,3.28,0,0,0,18.321,58l2.267-.793a3.77,3.77,0,0,1,2.462-.01l2.488.85a2.52,2.52,0,0,0,2.034-.179l1.229-.678a2.718,2.718,0,0,1,2.817.114l2.159.728a3.262,3.262,0,0,0,2.211-.045l1.78-.652a4.157,4.157,0,0,1,2.667-.065l2.947.917a2.162,2.162,0,0,0,1.405-.039l2.582-.9a3.1,3.1,0,0,1,2.231.073l2.119.8a2.634,2.634,0,0,0,1.551.095l3.124-1.055a4.178,4.178,0,0,1,2.857.323l1.011.6a2.346,2.346,0,0,0,1.2.326h0a2.142,2.142,0,0,0,.955-.225l1.012-.507a4.682,4.682,0,0,1,3.335-.328l2.878,1.06h.75"/>
    </g>
    <g id="тучи">
      <path class="cls-33" d="M5.925,49.542c-1.753,1.236-2.137,2.466-2.088,3.56A3.109,3.109,0,0,0,5.72,55.924a4.44,4.44,0,0,0,3.144-.4l.8.313a3.749,3.749,0,0,0,.916.245,7.729,7.729,0,0,0,3.8-.55,8.809,8.809,0,0,0,2.519.509c1.169-.032,2.951-.372,3.3-2.255.716-3.9-3.582-4.53-3.582-4.53s-1.242-4.2-5.549-3.8h0A6.236,6.236,0,0,0,7.4,46.706,4.245,4.245,0,0,0,5.925,49.542Z"/>
      <path class="cls-33" d="M48.194,44.429a2.462,2.462,0,0,0-1.288,2.2,1.92,1.92,0,0,0,1.162,1.741,2.737,2.737,0,0,0,1.938-.245l.493.194a2.37,2.37,0,0,0,.565.15,4.757,4.757,0,0,0,2.342-.339,5.426,5.426,0,0,0,1.553.314,1.872,1.872,0,0,0,2.034-1.39c.442-2.4-2.209-2.793-2.209-2.793a3.306,3.306,0,0,0-3.421-2.341h0a3.844,3.844,0,0,0-2.259.766A2.616,2.616,0,0,0,48.194,44.429Z"/>
      <path class="cls-33" d="M38.113,41.2a2.947,2.947,0,0,1,1.541,2.626,2.3,2.3,0,0,1-1.389,2.083,3.286,3.286,0,0,1-2.32-.292l-.59.231a2.837,2.837,0,0,1-.676.18,5.7,5.7,0,0,1-2.8-.406,6.5,6.5,0,0,1-1.858.376,2.239,2.239,0,0,1-2.433-1.664c-.528-2.874,2.642-3.341,2.642-3.341a3.958,3.958,0,0,1,4.094-2.8h0a4.6,4.6,0,0,1,2.7.916A3.13,3.13,0,0,1,38.113,41.2Z"/>
      <g>
        <rect class="cls-33" x="10.94" y="58.462" width="1.836" height="2.651" rx="0.918" transform="matrix(0.866, 0.5, -0.5, 0.866, 31.482, 2.081)"/>
        <rect class="cls-33" x="12.538" y="55.939" width="1.836" height="2.161" rx="0.918" transform="translate(30.312 0.911) rotate(30)"/>
        <rect class="cls-33" x="9.391" y="61.055" width="1.836" height="2.83" rx="0.918" transform="translate(32.616 3.215) rotate(30)"/>
        <rect class="cls-33" x="13.206" y="60.481" width="1.836" height="2.83" rx="0.918" transform="matrix(0.866, 0.5, -0.5, 0.866, 32.84, 1.23)"/>
        <rect class="cls-33" x="15.949" y="56.482" width="1.836" height="2.83" rx="0.918" transform="translate(31.208 -0.677) rotate(30)"/>
        <rect class="cls-33" x="8.797" y="56.061" width="1.836" height="4.151" rx="0.918" transform="translate(30.37 2.931) rotate(30)"/>
        <rect class="cls-33" x="6.205" y="59.821" width="1.836" height="4.151" rx="0.918" transform="translate(31.902 4.731) rotate(30)"/>
        <rect class="cls-33" x="5.064" y="56.885" width="1.836" height="3.012" rx="0.918" transform="translate(29.997 4.832) rotate(30)"/>
        <rect class="cls-33" x="2.616" y="60.207" width="1.836" height="3.012" rx="0.918" transform="translate(31.33 6.501) rotate(30)"/>
      </g>
    </g>
    <g id="луна_звезды" data-name="луна, звезды">
      <polygon class="cls-33" points="120.582 45.545 118.971 44.309 117.297 45.459 117.974 43.545 116.363 42.308 118.393 42.361 119.071 40.446 119.648 42.394 121.679 42.447 120.005 43.597 120.582 45.545"/>
      <polygon class="cls-33" points="115.908 60.548 114.751 59.661 113.55 60.487 114.036 59.113 112.88 58.225 114.337 58.263 114.823 56.889 115.238 58.287 116.695 58.325 115.494 59.151 115.908 60.548"/>
      <polygon class="cls-33" points="128.65 47.559 127.358 46.453 126.004 47.484 126.559 45.769 125.266 44.663 126.902 44.71 127.457 42.996 127.913 44.739 129.548 44.786 128.195 45.816 128.65 47.559"/>
      <path class="cls-33" d="M124.035,55.733a5.824,5.824,0,0,1,.552,2.465v.021a5.9,5.9,0,0,1-5.88,5.88h-.24a5.82,5.82,0,0,1-2.889-.769,5.9,5.9,0,0,0,5.328,3.416h.24a5.9,5.9,0,0,0,5.88-5.88v-.021A5.891,5.891,0,0,0,124.035,55.733Z"/>
    </g>
    <rect class="cls-3" x="132.971" y="47.084" width="24.129" height="7.785" rx="1.515"/>
    <g>
      <rect class="cls-3" x="77.686" y="47.25" width="48.24" height="7.785" rx="1.515"/>
      <rect class="cls-3" x="22.194" y="47.25" width="48.732" height="7.785" rx="1.515"/>
      <text class="cls-34" transform="translate(136.506 52.907)">sound</text>
    </g>
    <text class="cls-34" transform="translate(79.819 52.907)">colour and light</text>
    <text class="cls-34" transform="translate(24.058 52.907)">air and weather</text>
    <g id="ноты">
      <path class="cls-35" d="M187.314,68.758"/>
      <g id="Layer_2" data-name="Layer 2">
        <path class="cls-36" d="M180.422,55.357a.191.191,0,0,0-.191.191V59.12a1.323,1.323,0,0,0-.763-.233.931.931,0,1,0,1.144.907V55.752a1.336,1.336,0,0,1,1.145,1.323.191.191,0,0,0,.382,0A1.718,1.718,0,0,0,180.422,55.357Z"/>
      </g>
      <g id="Layer_2-2" data-name="Layer 2">
        <path class="cls-36" d="M170.422,55.357a.191.191,0,0,0-.191.191V59.12a1.323,1.323,0,0,0-.763-.233.931.931,0,1,0,1.144.907V55.752a1.336,1.336,0,0,1,1.145,1.323.191.191,0,0,0,.382,0A1.718,1.718,0,0,0,170.422,55.357Z"/>
      </g>
      <g id="Layer_2-3" data-name="Layer 2">
        <path class="cls-36" d="M170.422,45.357a.191.191,0,0,0-.191.191V49.12a1.323,1.323,0,0,0-.763-.233.931.931,0,1,0,1.144.907V45.752a1.336,1.336,0,0,1,1.145,1.323.191.191,0,0,0,.382,0A1.718,1.718,0,0,0,170.422,45.357Z"/>
      </g>
      <path class="cls-36" d="M168.361,70.522a.953.953,0,1,1-.863-1.045.708.708,0,0,1,.493.229l.2-2.068-3-.286-.312,3.281a.953.953,0,1,1-.863-1.045.7.7,0,0,1,.488.228l.361-3.8,3.895.37-.394,4.137Z"/>
    </g>
    <g>
      <g>
        <path id="path9530" class="cls-37" d="M18.05,20.054H166.9V33.2H18.05Z"/>
        <polygon class="cls-38" points="16.663 0.603 16.663 33.201 20.951 33.201 20.951 24.747 166.936 24.747 166.936 33.201 171.152 33.201 171.152 0.603 16.663 0.603"/>
        <polygon class="cls-39" points="16.663 0.603 16.663 33.201 20.951 33.201 20.951 24.747 166.936 24.747 166.936 33.201 171.152 33.201 171.152 0.603 16.663 0.603"/>
        <polygon class="cls-40" points="16.934 0.603 16.934 33.201 21.222 33.201 21.222 24.747 167.206 24.747 167.206 33.201 171.422 33.201 171.422 0.603 16.934 0.603"/>
      </g>
      <g>
        <g>
          <polygon id="_0.1.16.5.0.5-8-3-4-4" data-name=" 0.1.16.5.0.5-8-3-4-4" class="cls-41" points="24.233 32.571 24.233 24.749 22.308 24.749 22.308 32.571 24.233 32.571"/>
          <polygon id="_0.1.16.5.0.5-8-3-4-4-2" data-name=" 0.1.16.5.0.5-8-3-4-4" class="cls-42" points="24.401 32.671 24.401 27.163 22.14 27.163 22.14 32.671 24.401 32.671"/>
          <polygon id="_0.1.16.5.0.6-3-1-4-4" data-name=" 0.1.16.5.0.6-3-1-4-4" class="cls-18" points="24.233 27.163 24.233 26.435 22.308 26.435 22.308 27.163 24.233 27.163"/>
        </g>
        <g>
          <polygon id="_0.1.16.5.0.5-8-3-4-4-3" data-name=" 0.1.16.5.0.5-8-3-4-4" class="cls-41" points="27.869 32.571 27.869 24.749 25.944 24.749 25.944 32.571 27.869 32.571"/>
          <polygon id="_0.1.16.5.0.5-8-3-4-4-4" data-name=" 0.1.16.5.0.5-8-3-4-4" class="cls-43" points="28.037 32.671 28.037 27.163 25.776 27.163 25.776 32.671 28.037 32.671"/>
          <polygon id="_0.1.16.5.0.6-3-1-4-4-2" data-name=" 0.1.16.5.0.6-3-1-4-4" class="cls-18" points="27.869 27.163 27.869 26.435 25.944 26.435 25.944 27.163 27.869 27.163"/>
        </g>
        <g>
          <polygon id="_0.1.16.5.0.5-8-3-4-4-5" data-name=" 0.1.16.5.0.5-8-3-4-4" class="cls-41" points="31.506 32.571 31.506 24.749 29.581 24.749 29.581 32.571 31.506 32.571"/>
          <polygon id="_0.1.16.5.0.5-8-3-4-4-6" data-name=" 0.1.16.5.0.5-8-3-4-4" class="cls-44" points="31.674 32.671 31.674 27.163 29.412 27.163 29.412 32.671 31.674 32.671"/>
          <polygon id="_0.1.16.5.0.6-3-1-4-4-3" data-name=" 0.1.16.5.0.6-3-1-4-4" class="cls-18" points="31.506 27.163 31.506 26.435 29.581 26.435 29.581 27.163 31.506 27.163"/>
        </g>
        <g>
          <polygon id="_0.1.16.5.0.5-8-3-4-4-7" data-name=" 0.1.16.5.0.5-8-3-4-4" class="cls-41" points="35.142 32.571 35.142 24.749 33.217 24.749 33.217 32.571 35.142 32.571"/>
          <polygon id="_0.1.16.5.0.5-8-3-4-4-8" data-name=" 0.1.16.5.0.5-8-3-4-4" class="cls-45" points="35.31 32.671 35.31 27.163 33.049 27.163 33.049 32.671 35.31 32.671"/>
          <polygon id="_0.1.16.5.0.6-3-1-4-4-4" data-name=" 0.1.16.5.0.6-3-1-4-4" class="cls-18" points="35.142 27.163 35.142 26.435 33.217 26.435 33.217 27.163 35.142 27.163"/>
        </g>
        <g>
          <polygon id="_0.1.16.5.0.5-8-3-4-4-9" data-name=" 0.1.16.5.0.5-8-3-4-4" class="cls-41" points="38.778 32.571 38.778 24.749 36.853 24.749 36.853 32.571 38.778 32.571"/>
          <polygon id="_0.1.16.5.0.5-8-3-4-4-10" data-name=" 0.1.16.5.0.5-8-3-4-4" class="cls-46" points="38.946 32.671 38.946 27.163 36.685 27.163 36.685 32.671 38.946 32.671"/>
          <polygon id="_0.1.16.5.0.6-3-1-4-4-5" data-name=" 0.1.16.5.0.6-3-1-4-4" class="cls-18" points="38.778 27.163 38.778 26.435 36.853 26.435 36.853 27.163 38.778 27.163"/>
        </g>
        <g>
          <polygon id="_0.1.16.5.0.5-8-3-4-4-11" data-name=" 0.1.16.5.0.5-8-3-4-4" class="cls-41" points="42.414 32.571 42.414 24.749 40.489 24.749 40.489 32.571 42.414 32.571"/>
          <polygon id="_0.1.16.5.0.5-8-3-4-4-12" data-name=" 0.1.16.5.0.5-8-3-4-4" class="cls-47" points="42.583 32.671 42.583 27.163 40.321 27.163 40.321 32.671 42.583 32.671"/>
          <polygon id="_0.1.16.5.0.6-3-1-4-4-6" data-name=" 0.1.16.5.0.6-3-1-4-4" class="cls-18" points="42.414 27.163 42.414 26.435 40.489 26.435 40.489 27.163 42.414 27.163"/>
        </g>
        <g>
          <polygon id="_0.1.16.5.0.5-8-3-4-4-13" data-name=" 0.1.16.5.0.5-8-3-4-4" class="cls-41" points="46.051 32.571 46.051 24.749 44.126 24.749 44.126 32.571 46.051 32.571"/>
          <polygon id="_0.1.16.5.0.5-8-3-4-4-14" data-name=" 0.1.16.5.0.5-8-3-4-4" class="cls-48" points="46.219 32.671 46.219 27.163 43.957 27.163 43.957 32.671 46.219 32.671"/>
          <polygon id="_0.1.16.5.0.6-3-1-4-4-7" data-name=" 0.1.16.5.0.6-3-1-4-4" class="cls-18" points="46.051 27.163 46.051 26.435 44.126 26.435 44.126 27.163 46.051 27.163"/>
        </g>
        <g>
          <polygon id="_0.1.16.5.0.5-8-3-4-4-15" data-name=" 0.1.16.5.0.5-8-3-4-4" class="cls-41" points="49.687 32.571 49.687 24.749 47.762 24.749 47.762 32.571 49.687 32.571"/>
          <polygon id="_0.1.16.5.0.5-8-3-4-4-16" data-name=" 0.1.16.5.0.5-8-3-4-4" class="cls-49" points="49.855 32.671 49.855 27.163 47.594 27.163 47.594 32.671 49.855 32.671"/>
          <polygon id="_0.1.16.5.0.6-3-1-4-4-8" data-name=" 0.1.16.5.0.6-3-1-4-4" class="cls-18" points="49.687 27.163 49.687 26.435 47.762 26.435 47.762 27.163 49.687 27.163"/>
        </g>
        <g>
          <polygon id="_0.1.16.5.0.5-8-3-4-4-17" data-name=" 0.1.16.5.0.5-8-3-4-4" class="cls-41" points="53.323 32.571 53.323 24.749 51.398 24.749 51.398 32.571 53.323 32.571"/>
          <polygon id="_0.1.16.5.0.5-8-3-4-4-18" data-name=" 0.1.16.5.0.5-8-3-4-4" class="cls-50" points="53.491 32.671 53.491 27.163 51.23 27.163 51.23 32.671 53.491 32.671"/>
          <polygon id="_0.1.16.5.0.6-3-1-4-4-9" data-name=" 0.1.16.5.0.6-3-1-4-4" class="cls-18" points="53.323 27.163 53.323 26.435 51.398 26.435 51.398 27.163 53.323 27.163"/>
        </g>
        <g>
          <polygon id="_0.1.16.5.0.5-8-3-4-4-19" data-name=" 0.1.16.5.0.5-8-3-4-4" class="cls-41" points="56.96 32.571 56.96 24.749 55.035 24.749 55.035 32.571 56.96 32.571"/>
          <polygon id="_0.1.16.5.0.5-8-3-4-4-20" data-name=" 0.1.16.5.0.5-8-3-4-4" class="cls-51" points="57.128 32.671 57.128 27.163 54.866 27.163 54.866 32.671 57.128 32.671"/>
          <polygon id="_0.1.16.5.0.6-3-1-4-4-10" data-name=" 0.1.16.5.0.6-3-1-4-4" class="cls-18" points="56.96 27.163 56.96 26.435 55.035 26.435 55.035 27.163 56.96 27.163"/>
        </g>
        <g>
          <polygon id="_0.1.16.5.0.5-8-3-4-4-21" data-name=" 0.1.16.5.0.5-8-3-4-4" class="cls-41" points="60.596 32.571 60.596 24.749 58.671 24.749 58.671 32.571 60.596 32.571"/>
          <polygon id="_0.1.16.5.0.5-8-3-4-4-22" data-name=" 0.1.16.5.0.5-8-3-4-4" class="cls-52" points="60.764 32.671 60.764 27.163 58.503 27.163 58.503 32.671 60.764 32.671"/>
          <polygon id="_0.1.16.5.0.6-3-1-4-4-11" data-name=" 0.1.16.5.0.6-3-1-4-4" class="cls-18" points="60.596 27.163 60.596 26.435 58.671 26.435 58.671 27.163 60.596 27.163"/>
        </g>
        <g>
          <polygon id="_0.1.16.5.0.5-8-3-4-4-23" data-name=" 0.1.16.5.0.5-8-3-4-4" class="cls-41" points="64.232 32.571 64.232 24.749 62.307 24.749 62.307 32.571 64.232 32.571"/>
          <polygon id="_0.1.16.5.0.5-8-3-4-4-24" data-name=" 0.1.16.5.0.5-8-3-4-4" class="cls-53" points="64.4 32.671 64.4 27.163 62.139 27.163 62.139 32.671 64.4 32.671"/>
          <polygon id="_0.1.16.5.0.6-3-1-4-4-12" data-name=" 0.1.16.5.0.6-3-1-4-4" class="cls-18" points="64.232 27.163 64.232 26.435 62.307 26.435 62.307 27.163 64.232 27.163"/>
        </g>
        <g>
          <polygon id="_0.1.16.5.0.5-8-3-4-4-25" data-name=" 0.1.16.5.0.5-8-3-4-4" class="cls-41" points="67.868 32.571 67.868 24.749 65.943 24.749 65.943 32.571 67.868 32.571"/>
          <polygon id="_0.1.16.5.0.5-8-3-4-4-26" data-name=" 0.1.16.5.0.5-8-3-4-4" class="cls-54" points="68.037 32.671 68.037 27.163 65.775 27.163 65.775 32.671 68.037 32.671"/>
          <polygon id="_0.1.16.5.0.6-3-1-4-4-13" data-name=" 0.1.16.5.0.6-3-1-4-4" class="cls-18" points="67.868 27.163 67.868 26.435 65.943 26.435 65.943 27.163 67.868 27.163"/>
        </g>
        <g>
          <polygon id="_0.1.16.5.0.5-8-3-4-4-27" data-name=" 0.1.16.5.0.5-8-3-4-4" class="cls-41" points="71.505 32.571 71.505 24.749 69.58 24.749 69.58 32.571 71.505 32.571"/>
          <polygon id="_0.1.16.5.0.5-8-3-4-4-28" data-name=" 0.1.16.5.0.5-8-3-4-4" class="cls-55" points="71.673 32.671 71.673 27.163 69.411 27.163 69.411 32.671 71.673 32.671"/>
          <polygon id="_0.1.16.5.0.6-3-1-4-4-14" data-name=" 0.1.16.5.0.6-3-1-4-4" class="cls-18" points="71.505 27.163 71.505 26.435 69.58 26.435 69.58 27.163 71.505 27.163"/>
        </g>
        <g>
          <polygon id="_0.1.16.5.0.5-8-3-4-4-29" data-name=" 0.1.16.5.0.5-8-3-4-4" class="cls-41" points="75.141 32.571 75.141 24.749 73.216 24.749 73.216 32.571 75.141 32.571"/>
          <polygon id="_0.1.16.5.0.5-8-3-4-4-30" data-name=" 0.1.16.5.0.5-8-3-4-4" class="cls-56" points="75.309 32.671 75.309 27.163 73.048 27.163 73.048 32.671 75.309 32.671"/>
          <polygon id="_0.1.16.5.0.6-3-1-4-4-15" data-name=" 0.1.16.5.0.6-3-1-4-4" class="cls-18" points="75.141 27.163 75.141 26.435 73.216 26.435 73.216 27.163 75.141 27.163"/>
        </g>
        <g>
          <polygon id="_0.1.16.5.0.5-8-3-4-4-31" data-name=" 0.1.16.5.0.5-8-3-4-4" class="cls-41" points="78.777 32.571 78.777 24.749 76.852 24.749 76.852 32.571 78.777 32.571"/>
          <polygon id="_0.1.16.5.0.5-8-3-4-4-32" data-name=" 0.1.16.5.0.5-8-3-4-4" class="cls-57" points="78.945 32.671 78.945 27.163 76.684 27.163 76.684 32.671 78.945 32.671"/>
          <polygon id="_0.1.16.5.0.6-3-1-4-4-16" data-name=" 0.1.16.5.0.6-3-1-4-4" class="cls-18" points="78.777 27.163 78.777 26.435 76.852 26.435 76.852 27.163 78.777 27.163"/>
        </g>
        <g>
          <polygon id="_0.1.16.5.0.5-8-3-4-4-33" data-name=" 0.1.16.5.0.5-8-3-4-4" class="cls-41" points="82.414 32.571 82.414 24.749 80.489 24.749 80.489 32.571 82.414 32.571"/>
          <polygon id="_0.1.16.5.0.5-8-3-4-4-34" data-name=" 0.1.16.5.0.5-8-3-4-4" class="cls-58" points="82.582 32.671 82.582 27.163 80.32 27.163 80.32 32.671 82.582 32.671"/>
          <polygon id="_0.1.16.5.0.6-3-1-4-4-17" data-name=" 0.1.16.5.0.6-3-1-4-4" class="cls-18" points="82.414 27.163 82.414 26.435 80.489 26.435 80.489 27.163 82.414 27.163"/>
        </g>
        <g>
          <polygon id="_0.1.16.5.0.5-8-3-4-4-35" data-name=" 0.1.16.5.0.5-8-3-4-4" class="cls-41" points="86.05 32.571 86.05 24.749 84.125 24.749 84.125 32.571 86.05 32.571"/>
          <polygon id="_0.1.16.5.0.5-8-3-4-4-36" data-name=" 0.1.16.5.0.5-8-3-4-4" class="cls-59" points="86.218 32.671 86.218 27.163 83.957 27.163 83.957 32.671 86.218 32.671"/>
          <polygon id="_0.1.16.5.0.6-3-1-4-4-18" data-name=" 0.1.16.5.0.6-3-1-4-4" class="cls-18" points="86.05 27.163 86.05 26.435 84.125 26.435 84.125 27.163 86.05 27.163"/>
        </g>
        <g>
          <polygon id="_0.1.16.5.0.5-8-3-4-4-37" data-name=" 0.1.16.5.0.5-8-3-4-4" class="cls-41" points="89.686 32.571 89.686 24.749 87.761 24.749 87.761 32.571 89.686 32.571"/>
          <polygon id="_0.1.16.5.0.5-8-3-4-4-38" data-name=" 0.1.16.5.0.5-8-3-4-4" class="cls-60" points="89.854 32.671 89.854 27.163 87.593 27.163 87.593 32.671 89.854 32.671"/>
          <polygon id="_0.1.16.5.0.6-3-1-4-4-19" data-name=" 0.1.16.5.0.6-3-1-4-4" class="cls-18" points="89.686 27.163 89.686 26.435 87.761 26.435 87.761 27.163 89.686 27.163"/>
        </g>
        <g>
          <polygon id="_0.1.16.5.0.5-8-3-4-4-39" data-name=" 0.1.16.5.0.5-8-3-4-4" class="cls-41" points="93.322 32.571 93.322 24.749 91.397 24.749 91.397 32.571 93.322 32.571"/>
          <polygon id="_0.1.16.5.0.5-8-3-4-4-40" data-name=" 0.1.16.5.0.5-8-3-4-4" class="cls-61" points="93.491 32.671 93.491 27.163 91.229 27.163 91.229 32.671 93.491 32.671"/>
          <polygon id="_0.1.16.5.0.6-3-1-4-4-20" data-name=" 0.1.16.5.0.6-3-1-4-4" class="cls-18" points="93.322 27.163 93.322 26.435 91.397 26.435 91.397 27.163 93.322 27.163"/>
        </g>
        <g>
          <polygon id="_0.1.16.5.0.5-8-3-4-4-41" data-name=" 0.1.16.5.0.5-8-3-4-4" class="cls-41" points="96.959 32.571 96.959 24.749 95.034 24.749 95.034 32.571 96.959 32.571"/>
          <polygon id="_0.1.16.5.0.5-8-3-4-4-42" data-name=" 0.1.16.5.0.5-8-3-4-4" class="cls-62" points="97.127 32.671 97.127 27.163 94.865 27.163 94.865 32.671 97.127 32.671"/>
          <polygon id="_0.1.16.5.0.6-3-1-4-4-21" data-name=" 0.1.16.5.0.6-3-1-4-4" class="cls-18" points="96.959 27.163 96.959 26.435 95.034 26.435 95.034 27.163 96.959 27.163"/>
        </g>
        <g>
          <polygon id="_0.1.16.5.0.5-8-3-4-4-43" data-name=" 0.1.16.5.0.5-8-3-4-4" class="cls-41" points="100.595 32.571 100.595 24.749 98.67 24.749 98.67 32.571 100.595 32.571"/>
          <polygon id="_0.1.16.5.0.5-8-3-4-4-44" data-name=" 0.1.16.5.0.5-8-3-4-4" class="cls-63" points="100.763 32.671 100.763 27.163 98.502 27.163 98.502 32.671 100.763 32.671"/>
          <polygon id="_0.1.16.5.0.6-3-1-4-4-22" data-name=" 0.1.16.5.0.6-3-1-4-4" class="cls-18" points="100.595 27.163 100.595 26.435 98.67 26.435 98.67 27.163 100.595 27.163"/>
        </g>
        <g>
          <polygon id="_0.1.16.5.0.5-8-3-4-4-45" data-name=" 0.1.16.5.0.5-8-3-4-4" class="cls-41" points="104.231 32.571 104.231 24.749 102.306 24.749 102.306 32.571 104.231 32.571"/>
          <polygon id="_0.1.16.5.0.5-8-3-4-4-46" data-name=" 0.1.16.5.0.5-8-3-4-4" class="cls-64" points="104.399 32.671 104.399 27.163 102.138 27.163 102.138 32.671 104.399 32.671"/>
          <polygon id="_0.1.16.5.0.6-3-1-4-4-23" data-name=" 0.1.16.5.0.6-3-1-4-4" class="cls-18" points="104.231 27.163 104.231 26.435 102.306 26.435 102.306 27.163 104.231 27.163"/>
        </g>
        <g>
          <polygon id="_0.1.16.5.0.5-8-3-4-4-47" data-name=" 0.1.16.5.0.5-8-3-4-4" class="cls-41" points="107.868 32.571 107.868 24.749 105.943 24.749 105.943 32.571 107.868 32.571"/>
          <polygon id="_0.1.16.5.0.5-8-3-4-4-48" data-name=" 0.1.16.5.0.5-8-3-4-4" class="cls-65" points="108.036 32.671 108.036 27.163 105.774 27.163 105.774 32.671 108.036 32.671"/>
          <polygon id="_0.1.16.5.0.6-3-1-4-4-24" data-name=" 0.1.16.5.0.6-3-1-4-4" class="cls-18" points="107.868 27.163 107.868 26.435 105.943 26.435 105.943 27.163 107.868 27.163"/>
        </g>
        <g>
          <polygon id="_0.1.16.5.0.5-8-3-4-4-49" data-name=" 0.1.16.5.0.5-8-3-4-4" class="cls-41" points="111.504 32.571 111.504 24.749 109.579 24.749 109.579 32.571 111.504 32.571"/>
          <polygon id="_0.1.16.5.0.5-8-3-4-4-50" data-name=" 0.1.16.5.0.5-8-3-4-4" class="cls-66" points="111.672 32.671 111.672 27.163 109.411 27.163 109.411 32.671 111.672 32.671"/>
          <polygon id="_0.1.16.5.0.6-3-1-4-4-25" data-name=" 0.1.16.5.0.6-3-1-4-4" class="cls-18" points="111.504 27.163 111.504 26.435 109.579 26.435 109.579 27.163 111.504 27.163"/>
        </g>
        <g>
          <polygon id="_0.1.16.5.0.5-8-3-4-4-51" data-name=" 0.1.16.5.0.5-8-3-4-4" class="cls-41" points="115.14 32.571 115.14 24.749 113.215 24.749 113.215 32.571 115.14 32.571"/>
          <polygon id="_0.1.16.5.0.5-8-3-4-4-52" data-name=" 0.1.16.5.0.5-8-3-4-4" class="cls-67" points="115.308 32.671 115.308 27.163 113.047 27.163 113.047 32.671 115.308 32.671"/>
          <polygon id="_0.1.16.5.0.6-3-1-4-4-26" data-name=" 0.1.16.5.0.6-3-1-4-4" class="cls-18" points="115.14 27.163 115.14 26.435 113.215 26.435 113.215 27.163 115.14 27.163"/>
        </g>
        <g>
          <polygon id="_0.1.16.5.0.5-8-3-4-4-53" data-name=" 0.1.16.5.0.5-8-3-4-4" class="cls-41" points="118.776 32.571 118.776 24.749 116.851 24.749 116.851 32.571 118.776 32.571"/>
          <polygon id="_0.1.16.5.0.5-8-3-4-4-54" data-name=" 0.1.16.5.0.5-8-3-4-4" class="cls-68" points="118.945 32.671 118.945 27.163 116.683 27.163 116.683 32.671 118.945 32.671"/>
          <polygon id="_0.1.16.5.0.6-3-1-4-4-27" data-name=" 0.1.16.5.0.6-3-1-4-4" class="cls-18" points="118.776 27.163 118.776 26.435 116.851 26.435 116.851 27.163 118.776 27.163"/>
        </g>
        <g>
          <polygon id="_0.1.16.5.0.5-8-3-4-4-55" data-name=" 0.1.16.5.0.5-8-3-4-4" class="cls-41" points="122.413 32.571 122.413 24.749 120.488 24.749 120.488 32.571 122.413 32.571"/>
          <polygon id="_0.1.16.5.0.5-8-3-4-4-56" data-name=" 0.1.16.5.0.5-8-3-4-4" class="cls-69" points="122.581 32.671 122.581 27.163 120.319 27.163 120.319 32.671 122.581 32.671"/>
          <polygon id="_0.1.16.5.0.6-3-1-4-4-28" data-name=" 0.1.16.5.0.6-3-1-4-4" class="cls-18" points="122.413 27.163 122.413 26.435 120.488 26.435 120.488 27.163 122.413 27.163"/>
        </g>
        <g>
          <polygon id="_0.1.16.5.0.5-8-3-4-4-57" data-name=" 0.1.16.5.0.5-8-3-4-4" class="cls-41" points="126.049 32.571 126.049 24.749 124.124 24.749 124.124 32.571 126.049 32.571"/>
          <polygon id="_0.1.16.5.0.5-8-3-4-4-58" data-name=" 0.1.16.5.0.5-8-3-4-4" class="cls-70" points="126.217 32.671 126.217 27.163 123.956 27.163 123.956 32.671 126.217 32.671"/>
          <polygon id="_0.1.16.5.0.6-3-1-4-4-29" data-name=" 0.1.16.5.0.6-3-1-4-4" class="cls-18" points="126.049 27.163 126.049 26.435 124.124 26.435 124.124 27.163 126.049 27.163"/>
        </g>
        <g>
          <polygon id="_0.1.16.5.0.5-8-3-4-4-59" data-name=" 0.1.16.5.0.5-8-3-4-4" class="cls-41" points="129.685 32.571 129.685 24.749 127.76 24.749 127.76 32.571 129.685 32.571"/>
          <polygon id="_0.1.16.5.0.5-8-3-4-4-60" data-name=" 0.1.16.5.0.5-8-3-4-4" class="cls-71" points="129.853 32.671 129.853 27.163 127.592 27.163 127.592 32.671 129.853 32.671"/>
          <polygon id="_0.1.16.5.0.6-3-1-4-4-30" data-name=" 0.1.16.5.0.6-3-1-4-4" class="cls-18" points="129.685 27.163 129.685 26.435 127.76 26.435 127.76 27.163 129.685 27.163"/>
        </g>
        <g>
          <polygon id="_0.1.16.5.0.5-8-3-4-4-61" data-name=" 0.1.16.5.0.5-8-3-4-4" class="cls-41" points="133.322 32.571 133.322 24.749 131.396 24.749 131.396 32.571 133.322 32.571"/>
          <polygon id="_0.1.16.5.0.5-8-3-4-4-62" data-name=" 0.1.16.5.0.5-8-3-4-4" class="cls-72" points="133.49 32.671 133.49 27.163 131.228 27.163 131.228 32.671 133.49 32.671"/>
          <polygon id="_0.1.16.5.0.6-3-1-4-4-31" data-name=" 0.1.16.5.0.6-3-1-4-4" class="cls-18" points="133.322 27.163 133.322 26.435 131.396 26.435 131.396 27.163 133.322 27.163"/>
        </g>
        <g>
          <polygon id="_0.1.16.5.0.5-8-3-4-4-63" data-name=" 0.1.16.5.0.5-8-3-4-4" class="cls-41" points="136.958 32.571 136.958 24.749 135.033 24.749 135.033 32.571 136.958 32.571"/>
          <polygon id="_0.1.16.5.0.5-8-3-4-4-64" data-name=" 0.1.16.5.0.5-8-3-4-4" class="cls-73" points="137.126 32.671 137.126 27.163 134.865 27.163 134.865 32.671 137.126 32.671"/>
          <polygon id="_0.1.16.5.0.6-3-1-4-4-32" data-name=" 0.1.16.5.0.6-3-1-4-4" class="cls-18" points="136.958 27.163 136.958 26.435 135.033 26.435 135.033 27.163 136.958 27.163"/>
        </g>
        <g>
          <polygon id="_0.1.16.5.0.5-8-3-4-4-65" data-name=" 0.1.16.5.0.5-8-3-4-4" class="cls-41" points="140.594 32.571 140.594 24.749 138.669 24.749 138.669 32.571 140.594 32.571"/>
          <polygon id="_0.1.16.5.0.5-8-3-4-4-66" data-name=" 0.1.16.5.0.5-8-3-4-4" class="cls-74" points="140.762 32.671 140.762 27.163 138.501 27.163 138.501 32.671 140.762 32.671"/>
          <polygon id="_0.1.16.5.0.6-3-1-4-4-33" data-name=" 0.1.16.5.0.6-3-1-4-4" class="cls-18" points="140.594 27.163 140.594 26.435 138.669 26.435 138.669 27.163 140.594 27.163"/>
        </g>
        <g>
          <polygon id="_0.1.16.5.0.5-8-3-4-4-67" data-name=" 0.1.16.5.0.5-8-3-4-4" class="cls-41" points="144.23 32.571 144.23 24.749 142.305 24.749 142.305 32.571 144.23 32.571"/>
          <polygon id="_0.1.16.5.0.5-8-3-4-4-68" data-name=" 0.1.16.5.0.5-8-3-4-4" class="cls-75" points="144.399 32.671 144.399 27.163 142.137 27.163 142.137 32.671 144.399 32.671"/>
          <polygon id="_0.1.16.5.0.6-3-1-4-4-34" data-name=" 0.1.16.5.0.6-3-1-4-4" class="cls-18" points="144.23 27.163 144.23 26.435 142.305 26.435 142.305 27.163 144.23 27.163"/>
        </g>
        <g>
          <polygon id="_0.1.16.5.0.5-8-3-4-4-69" data-name=" 0.1.16.5.0.5-8-3-4-4" class="cls-41" points="147.867 32.571 147.867 24.749 145.942 24.749 145.942 32.571 147.867 32.571"/>
          <polygon id="_0.1.16.5.0.5-8-3-4-4-70" data-name=" 0.1.16.5.0.5-8-3-4-4" class="cls-76" points="148.035 32.671 148.035 27.163 145.773 27.163 145.773 32.671 148.035 32.671"/>
          <polygon id="_0.1.16.5.0.6-3-1-4-4-35" data-name=" 0.1.16.5.0.6-3-1-4-4" class="cls-18" points="147.867 27.163 147.867 26.435 145.942 26.435 145.942 27.163 147.867 27.163"/>
        </g>
        <g>
          <polygon id="_0.1.16.5.0.5-8-3-4-4-71" data-name=" 0.1.16.5.0.5-8-3-4-4" class="cls-41" points="151.503 32.571 151.503 24.749 149.578 24.749 149.578 32.571 151.503 32.571"/>
          <polygon id="_0.1.16.5.0.5-8-3-4-4-72" data-name=" 0.1.16.5.0.5-8-3-4-4" class="cls-77" points="151.671 32.671 151.671 27.163 149.41 27.163 149.41 32.671 151.671 32.671"/>
          <polygon id="_0.1.16.5.0.6-3-1-4-4-36" data-name=" 0.1.16.5.0.6-3-1-4-4" class="cls-18" points="151.503 27.163 151.503 26.435 149.578 26.435 149.578 27.163 151.503 27.163"/>
        </g>
        <g>
          <polygon id="_0.1.16.5.0.5-8-3-4-4-73" data-name=" 0.1.16.5.0.5-8-3-4-4" class="cls-41" points="155.139 32.571 155.139 24.749 153.214 24.749 153.214 32.571 155.139 32.571"/>
          <polygon id="_0.1.16.5.0.5-8-3-4-4-74" data-name=" 0.1.16.5.0.5-8-3-4-4" class="cls-78" points="155.307 32.671 155.307 27.163 153.046 27.163 153.046 32.671 155.307 32.671"/>
          <polygon id="_0.1.16.5.0.6-3-1-4-4-37" data-name=" 0.1.16.5.0.6-3-1-4-4" class="cls-18" points="155.139 27.163 155.139 26.435 153.214 26.435 153.214 27.163 155.139 27.163"/>
        </g>
        <g>
          <polygon id="_0.1.16.5.0.5-8-3-4-4-75" data-name=" 0.1.16.5.0.5-8-3-4-4" class="cls-41" points="158.776 32.571 158.776 24.749 156.85 24.749 156.85 32.571 158.776 32.571"/>
          <polygon id="_0.1.16.5.0.5-8-3-4-4-76" data-name=" 0.1.16.5.0.5-8-3-4-4" class="cls-79" points="158.944 32.671 158.944 27.163 156.682 27.163 156.682 32.671 158.944 32.671"/>
          <polygon id="_0.1.16.5.0.6-3-1-4-4-38" data-name=" 0.1.16.5.0.6-3-1-4-4" class="cls-18" points="158.776 27.163 158.776 26.435 156.85 26.435 156.85 27.163 158.776 27.163"/>
        </g>
        <g>
          <polygon id="_0.1.16.5.0.5-8-3-4-4-77" data-name=" 0.1.16.5.0.5-8-3-4-4" class="cls-41" points="162.412 32.571 162.412 24.749 160.487 24.749 160.487 32.571 162.412 32.571"/>
          <polygon id="_0.1.16.5.0.5-8-3-4-4-78" data-name=" 0.1.16.5.0.5-8-3-4-4" class="cls-80" points="162.58 32.671 162.58 27.163 160.319 27.163 160.319 32.671 162.58 32.671"/>
          <polygon id="_0.1.16.5.0.6-3-1-4-4-39" data-name=" 0.1.16.5.0.6-3-1-4-4" class="cls-18" points="162.412 27.163 162.412 26.435 160.487 26.435 160.487 27.163 162.412 27.163"/>
        </g>
        <g>
          <polygon id="_0.1.16.5.0.5-8-3-4-4-79" data-name=" 0.1.16.5.0.5-8-3-4-4" class="cls-41" points="166.048 32.571 166.048 24.749 164.123 24.749 164.123 32.571 166.048 32.571"/>
          <polygon id="_0.1.16.5.0.5-8-3-4-4-80" data-name=" 0.1.16.5.0.5-8-3-4-4" class="cls-81" points="166.216 32.671 166.216 27.163 163.955 27.163 163.955 32.671 166.216 32.671"/>
          <polygon id="_0.1.16.5.0.6-3-1-4-4-40" data-name=" 0.1.16.5.0.6-3-1-4-4" class="cls-18" points="166.048 27.163 166.048 26.435 164.123 26.435 164.123 27.163 166.048 27.163"/>
        </g>
      </g>
    </g>
    <g>
      <path class="cls-33" d="M86.472,43.841a3.32,3.32,0,0,1,3.319,3.32h.6a3.922,3.922,0,1,0-7.843,0h.6A3.32,3.32,0,0,1,86.472,43.841Z"/>
      <path class="cls-3" d="M86.472,42.492a4.669,4.669,0,0,1,4.669,4.669h.847a5.516,5.516,0,0,0-11.032,0H81.8A4.669,4.669,0,0,1,86.472,42.492Z"/>
      <path class="cls-33" d="M86.472,40.827a6.294,6.294,0,0,1,6.294,6.294h1.142a7.436,7.436,0,0,0-14.872,0h1.141A6.294,6.294,0,0,1,86.472,40.827Z"/>
    </g>
    <g>
      <path class="cls-33" d="M101.323,44.717a2.492,2.492,0,0,1,2.492,2.492h.452a2.944,2.944,0,1,0-5.888,0h.452A2.492,2.492,0,0,1,101.323,44.717Z"/>
      <path class="cls-3" d="M101.323,43.7a3.5,3.5,0,0,1,3.505,3.505h.636a4.141,4.141,0,0,0-8.282,0h.636A3.5,3.5,0,0,1,101.323,43.7Z"/>
      <path class="cls-33" d="M101.323,42.454a4.725,4.725,0,0,1,4.725,4.725h.857a5.582,5.582,0,0,0-11.164,0H96.6A4.724,4.724,0,0,1,101.323,42.454Z"/>
    </g>
    <g>
      <rect class="cls-82" x="93.215" y="63.906" width="3.944" height="6.227"/>
      <g id="T-SOT23-6">
        <path id="path3487-1-2-2-2-2" class="cls-17" d="M99.4,70.624V69h-2.56v1.62Z"/>
        <path id="path3489-6-2-2-2-2" class="cls-18" d="M97.929,70.624V69h-.77v1.62Z"/>
        <path id="path3487-1-2-3" class="cls-17" d="M99.4,65.1v-1.62h-2.56V65.1Z"/>
        <path id="path3489-6-2-3" class="cls-18" d="M97.929,65.1v-1.62h-.77V65.1Z"/>
        <path id="path3487-1-2-3-2-2" class="cls-17" d="M99.4,67.908v-1.62h-2.56v1.62Z"/>
        <path id="path3489-6-2-3-2-2" class="cls-18" d="M97.929,67.908v-1.62h-.77v1.62Z"/>
        <path id="path3487-1-2-2-2-2-2" class="cls-17" d="M90.975,63.478V65.1h2.56v-1.62Z"/>
        <path id="path3489-6-2-2-2-2-2" class="cls-18" d="M92.445,63.478V65.1h.77v-1.62Z"/>
        <path id="path3487-1-2-2-2-3" class="cls-17" d="M90.975,66.288v1.62h2.56v-1.62Z"/>
        <path id="path3489-6-2-2-2-3" class="cls-18" d="M92.445,66.288v1.62h.77v-1.62Z"/>
        <path id="path3487-1-2-2-2-4" class="cls-17" d="M90.975,69.008v1.62h2.56v-1.62Z"/>
        <path id="path3489-6-2-2-2-4" class="cls-18" d="M92.445,69.008v1.62h.77v-1.62Z"/>
      </g>
      <rect class="cls-83" x="93.642" y="64.288" width="3.024" height="5.526"/>
    </g>
  </g>
</svg>
