<?xml version='1.0' encoding='UTF-8' standalone='no'?>
<!-- Created with Fritzing (http://www.fritzing.org/) -->
<svg xmlns:svg='http://www.w3.org/2000/svg' xmlns='http://www.w3.org/2000/svg' version='1.2' baseProfile='tiny' x='0in' y='0in' width='1.4in' height='2.3in' viewBox='0 0 100.8 165.6' >
<g partID='57430'><g transform="matrix(1, 0, 0, 1, 0, -122.4)">
<g id="breadboard">
<g>
<path stroke="#e6c739" id="path3846" stroke-opacity="1" stroke-width="5.04" fill="none" d="m50.4,194.4,0,79.2" style="color:#000000;stroke-linecap:butt;stroke-linejoin:miter;stroke-miterlimit:4;stroke-dasharray:none;stroke-dashoffset:0;marker:none;visibility:visible;display:inline;overflow:visible;enable-background:accumulate"/>
<path stroke="#d2382b" id="path3848" stroke-opacity="1" stroke-width="5.04" fill="none" d="m43.2,194.4,0,79.2" style="color:#000000;stroke-linecap:butt;stroke-linejoin:miter;stroke-miterlimit:4;stroke-dasharray:none;stroke-dashoffset:0;marker:none;visibility:visible;display:inline;overflow:visible;enable-background:accumulate"/>
<path stroke="#323232" id="path3850" stroke-opacity="1" stroke-width="5.04" fill="none" d="m57.6,194.4,0,79.2" style="color:#000000;stroke-linecap:butt;stroke-linejoin:miter;stroke-miterlimit:4;stroke-dasharray:none;stroke-dashoffset:0;marker:none;visibility:visible;display:inline;overflow:visible;enable-background:accumulate"/>
<path stroke="#ffffff" id="path3852" stroke-opacity="0.25" stroke-width="0.72" fill="none" d="m41.76,272.16,0,-72.36" style="color:#000000;stroke-linecap:round;stroke-linejoin:miter;stroke-miterlimit:4;stroke-dasharray:none;stroke-dashoffset:0;marker:none;visibility:visible;display:inline;overflow:visible;enable-background:accumulate"/>
<path stroke="#ffffff" id="path3854" stroke-opacity="0.25" stroke-width="0.72" fill="none" d="M48.96,272.16,48.96,199.8" style="color:#000000;stroke-linecap:round;stroke-linejoin:miter;stroke-miterlimit:4;stroke-dasharray:none;stroke-dashoffset:0;marker:none;visibility:visible;display:inline;overflow:visible;enable-background:accumulate"/>
<path stroke="#ffffff" id="path3856" stroke-opacity="0.25" stroke-width="0.72" fill="none" d="M56.16,272.16,56.16,199.8" style="color:#000000;stroke-linecap:round;stroke-linejoin:miter;stroke-miterlimit:4;stroke-dasharray:none;stroke-dashoffset:0;marker:none;visibility:visible;display:inline;overflow:visible;enable-background:accumulate"/>
<rect width="2.16" x="42.12" stroke="none" y="273.6" id="rect3858" height="7.2" fill="#cccccc" style="opacity:0.95;display:inline"/>
<rect width="2.16" x="49.32" stroke="none" y="273.6" id="rect3900" height="7.2" fill="#cccccc" style="opacity:0.95;display:inline"/>
<rect width="2.16" x="56.52" stroke="none" y="273.6" id="rect3902" height="7.2" fill="#cccccc" style="opacity:0.95;display:inline"/>
<rect width="2.88" x="41.76" stroke="none" y="279.36" id="connector1pin" height="2.88" fill="none" style="opacity:0.51583707;display:inline"/>
<rect width="2.88" x="48.96" stroke="none" y="279.36" id="connector2pin" height="2.88" fill="none" style="opacity:0.51583707;display:inline"/>
<rect width="2.88" x="56.16" stroke="none" y="279.36" id="connector3pin" height="2.88" fill="none" style="opacity:0.51583707;display:inline"/>
<path stroke="none" id="rect2999" fill="#2ca02c" d="m3.6,129.6,0,64.8,93.6,0,0,-64.8,-93.6,0zM7.2,159.125c1.59058,0,2.875,1.28442,2.875,2.875,0,1.59058,-1.28442,2.875,-2.875,2.875,-1.59058,0,-2.875,-1.28442,-2.875,-2.875,0,-1.59058,1.28442,-2.875,2.875,-2.875zm86.4,0c1.59058,0,2.875,1.28442,2.875,2.875,0,1.59058,-1.28442,2.875,-2.875,2.875,-1.59058,0,-2.875,-1.28442,-2.875,-2.875,0,-1.59058,1.28442,-2.875,2.875,-2.875z" style="display:inline"/>
<rect width="72" x="14.4" stroke="#000000" y="126" id="rect3006" height="72" stroke-opacity="1" stroke-width="0.144" fill-opacity="1" fill="#dbe3e2" style="fill-rule:evenodd;stroke-linecap:round;stroke-linejoin:miter;stroke-miterlimit:4;stroke-dasharray:none;display:inline"/>
<g transform="matrix(1, 0, 0, 1, -3.6, -86.4)">
<path stroke="#ffffff" id="path3826" stroke-opacity="0.39130435" stroke-width="10.8" fill-opacity="1" fill="#b7c8be" d="m61.2944,228.069a21.6,21.6,0,0,1,12.417,11.498" style="opacity:0.95;fill-rule:evenodd;stroke-linecap:butt;stroke-linejoin:miter;stroke-miterlimit:4;stroke-dasharray:none;display:inline"/>
</g>
<g transform="matrix(1, 0, 0, 1, -3.6, -86.4)">
<path stroke="#000000" id="path3780" stroke-opacity="0.48369565" stroke-width="0.144" fill-opacity="1" fill="url(#radialGradient3947)" d="m90,248.4a36,36,0,1,1,-72,0,36,36,0,1,1,72,0z" style="opacity:0.95;fill-rule:evenodd;stroke-linecap:round;stroke-linejoin:miter;stroke-miterlimit:4;stroke-dasharray:none;display:inline"/>
</g>
<g transform="matrix(1, 0, 0, 1, -3.6, -86.4)">
<path stroke="#ffffff" id="path3824" stroke-opacity="0.66847827" stroke-width="18" fill="none" d="m40.9324,236.021a18,18,0,0,1,4.22924,-3.30174" style="opacity:0.66515838;stroke-linecap:butt;stroke-linejoin:miter;stroke-miterlimit:4;stroke-dasharray:none;display:inline"/>
</g>
</g>
</g>
</g>
</g></svg>