<svg id="power-plug" xmlns="http://www.w3.org/2000/svg" xmlns:xlink="http://www.w3.org/1999/xlink" width="35.6658mm" height="102.8449mm" viewBox="0 0 101.1 291.5288">
  <defs>
    <style>
      .cls-1, .cls-14, .cls-17, .cls-19, .cls-2, .cls-3, .cls-4 {
        fill: none;
      }

      .cls-1 {
        stroke: blue;
      }

      .cls-1, .cls-2, .cls-3, .cls-4 {
        stroke-linecap: round;
      }

      .cls-1, .cls-14, .cls-17, .cls-18, .cls-19, .cls-2, .cls-21, .cls-3, .cls-4, .cls-5 {
        stroke-miterlimit: 10;
      }

      .cls-1, .cls-2, .cls-3 {
        stroke-width: 4.252px;
      }

      .cls-2 {
        stroke: #78461e;
      }

      .cls-3 {
        stroke: #ff0;
      }

      .cls-4 {
        stroke: #007d00;
        stroke-width: 2.126px;
      }

      .cls-5 {
        fill: #c1c1c1;
      }

      .cls-21, .cls-5 {
        stroke: #000;
        stroke-width: 0.1px;
      }

      .cls-6 {
        fill: url(#Безымянный_градиент);
      }

      .cls-7 {
        fill: url(#Безымянный_градиент_2);
      }

      .cls-8 {
        fill: url(#Безымянный_градиент_3);
      }

      .cls-9 {
        fill: url(#Безымянный_градиент_4);
      }

      .cls-10 {
        fill: #191818;
      }

      .cls-11 {
        fill: url(#Безымянный_градиент_5);
      }

      .cls-12 {
        fill: url(#Безымянный_градиент_6);
      }

      .cls-13 {
        fill: url(#Безымянный_градиент_7);
      }

      .cls-14 {
        stroke: url(#Безымянный_градиент_8);
      }

      .cls-15 {
        fill: url(#Безымянный_градиент_9);
      }

      .cls-16 {
        fill: url(#Безымянный_градиент_10);
      }

      .cls-17 {
        stroke: #191919;
      }

      .cls-18 {
        stroke-width: 0.5px;
        fill: url(#Безымянный_градиент_11);
        stroke: url(#Безымянный_градиент_12);
      }

      .cls-19 {
        stroke: #333;
        stroke-width: 17.0079px;
      }

      .cls-20 {
        fill: #141314;
      }

      .cls-21 {
        fill: url(#Безымянный_градиент_13);
      }
    </style>
    <linearGradient id="Безымянный_градиент" data-name="Безымянный градиент" x1="-1011.6812" y1="-954.7366" x2="-997.1067" y2="-929.4928" gradientTransform="matrix(0, -1, -1, 0, -919.0158, -973.9465)" gradientUnits="userSpaceOnUse">
      <stop offset="0" stop-color="#303030"/>
      <stop offset="0.2451" stop-color="#242424"/>
      <stop offset="0.6216" stop-color="#181818"/>
      <stop offset="1" stop-color="#141414"/>
    </linearGradient>
    <linearGradient id="Безымянный_градиент_2" data-name="Безымянный градиент 2" x1="-980.0819" y1="-946.4575" x2="-975.4224" y2="-938.3873" gradientTransform="matrix(0, -1, -1, 0, -919.0159, -973.9466)" xlink:href="#Безымянный_градиент"/>
    <linearGradient id="Безымянный_градиент_3" data-name="Безымянный градиент 3" x1="-1011.6813" y1="-1009.0591" x2="-997.1069" y2="-983.8154" gradientTransform="matrix(0, -1, -1, 0, -919.0159, -973.9467)" xlink:href="#Безымянный_градиент"/>
    <linearGradient id="Безымянный_градиент_4" data-name="Безымянный градиент 4" x1="-980.0818" y1="-1000.7804" x2="-975.4224" y2="-992.7102" gradientTransform="matrix(0, -1, -1, 0, -919.0159, -973.9466)" xlink:href="#Безымянный_градиент"/>
    <linearGradient id="Безымянный_градиент_5" data-name="Безымянный градиент 5" x1="-1061.2655" y1="-944.668" x2="-1074.0915" y2="-931.8419" gradientTransform="matrix(0, -1, -1, 0, -919.016, -973.9465)" gradientUnits="userSpaceOnUse">
      <stop offset="0"/>
      <stop offset="1" stop-color="#696969"/>
    </linearGradient>
    <linearGradient id="Безымянный_градиент_6" data-name="Безымянный градиент 6" x1="-1082.5195" y1="-1005.6965" x2="-1062.7745" y2="-1005.6965" xlink:href="#Безымянный_градиент_5"/>
    <radialGradient id="Безымянный_градиент_7" data-name="Безымянный градиент 7" cx="-1100.8013" cy="-969.5661" r="17.3253" gradientTransform="matrix(0, -4.7, -1, 0, -919.0159, -5085.6933)" gradientUnits="userSpaceOnUse">
      <stop offset="0" stop-color="#3b3b3b"/>
      <stop offset="1"/>
    </radialGradient>
    <radialGradient id="Безымянный_градиент_8" data-name="Безымянный градиент 8" cx="-1096.9768" cy="-969.566" r="16.1866" gradientTransform="matrix(0, -1, -1, 0, -919.016, -973.9465)" gradientUnits="userSpaceOnUse">
      <stop offset="0.0272" stop-color="#363636"/>
      <stop offset="0.2783" stop-color="#2e2e2e"/>
      <stop offset="0.6687" stop-color="#181818"/>
      <stop offset="1"/>
    </radialGradient>
    <linearGradient id="Безымянный_градиент_9" data-name="Безымянный градиент 9" x1="-1126.2758" y1="-969.2516" x2="-1097.4796" y2="-969.2516" gradientTransform="matrix(0, -1, -1, 0, -919.0159, -973.9466)" gradientUnits="userSpaceOnUse">
      <stop offset="0" stop-color="#3b3b3b"/>
      <stop offset="0.2185" stop-color="#242424"/>
      <stop offset="0.479" stop-color="#101010"/>
      <stop offset="0.7399" stop-color="#040404"/>
      <stop offset="1"/>
    </linearGradient>
    <linearGradient id="Безымянный_градиент_10" data-name="Безымянный градиент 10" x1="-1118.8807" y1="-1116.8698" x2="-1111.1732" y2="-1116.8698" gradientTransform="matrix(0, -1.9741, -0.8656, 0, -916.4639, -2056.4257)" gradientUnits="userSpaceOnUse">
      <stop offset="0" stop-color="#3d3d3d"/>
      <stop offset="0.036" stop-color="#3b3b3b"/>
      <stop offset="0.6411" stop-color="#212121"/>
      <stop offset="1" stop-color="#171717"/>
    </linearGradient>
    <linearGradient id="Безымянный_градиент_11" data-name="Безымянный градиент 11" x1="-1052.5726" y1="-975.2873" x2="-1052.5726" y2="-963.2156" gradientTransform="matrix(0, -1, -1, 0, -919.0158, -973.9465)" gradientUnits="userSpaceOnUse">
      <stop offset="0" stop-color="#e0e0e0"/>
      <stop offset="1" stop-color="#1a1a1a"/>
    </linearGradient>
    <linearGradient id="Безымянный_градиент_12" data-name="Безымянный градиент 12" x1="-1078.6163" y1="-969.2515" x2="-1026.5288" y2="-969.2515" gradientTransform="matrix(0, -1, -1, 0, -919.0158, -973.9465)" gradientUnits="userSpaceOnUse">
      <stop offset="0"/>
      <stop offset="1" stop-color="#2e2e2e"/>
    </linearGradient>
    <linearGradient id="Безымянный_градиент_13" data-name="Безымянный градиент 13" x1="-1159.068" y1="-987.9571" x2="-1134.1084" y2="-944.726" gradientTransform="matrix(0, -1, -1, 0, -919.0159, -973.9466)" xlink:href="#Безымянный_градиент"/>
  </defs>
  <title>power-plug</title>
  <g id="power-plug-2">
    <polyline class="cls-1" points="43.344 228.919 43.344 247.97 43.344 270.416 43.344 289.278"/>
    <polyline class="cls-2" points="48.339 229.044 48.339 248.095 48.339 270.541 48.339 289.403"/>
    <g>
      <polyline class="cls-3" points="53.333 228.919 53.333 247.97 53.333 270.416 53.333 289.278"/>
      <line class="cls-4" x1="53.3333" y1="259.0983" x2="53.3333" y2="290.4574"/>
    </g>
    <g>
      <g>
        <path class="cls-5" d="M18.17,55.1734V3.217A3.1667,3.1667,0,0,1,21.3364.05h3.5589a3.0831,3.0831,0,0,1,3.0833,3.0831h0v52.04a.7083.7083,0,0,1-.7083.7083H18.8787a.7083.7083,0,0,1-.7083-.7083h0Z" transform="translate(0 0)"/>
        <path class="cls-6" d="M20.9054,55.8817V5.1647a.25.25,0,0,1,.25-.25H25.077a.1667.1667,0,0,1,.1667.1667h0v50.8H20.9054Z" transform="translate(0 0)"/>
        <path class="cls-7" d="M18.17,4.8286v.3773h9.8082v-.503A4.6664,4.6664,0,0,0,23.3262.05H22.949A4.7923,4.7923,0,0,0,18.17,4.8286Z" transform="translate(0 0)"/>
      </g>
      <g>
        <path class="cls-5" d="M72.4928,55.1733V3.2167A3.1667,3.1667,0,0,1,75.66.05h3.5587A3.0831,3.0831,0,0,1,82.301,3.1331h0v52.04a.7083.7083,0,0,1-.7083.7083H73.2011a.7083.7083,0,0,1-.7083-.7083Z" transform="translate(0 0)"/>
        <path class="cls-8" d="M75.2278,55.8817V5.1647a.25.25,0,0,1,.25-.25h3.9216a.1667.1667,0,0,1,.1667.1667h0v50.8H75.2278Z" transform="translate(0 0)"/>
        <path class="cls-9" d="M72.4928,4.8286v.3773H82.301v-.503A4.6661,4.6661,0,0,0,77.6485.05h-.3773A4.7925,4.7925,0,0,0,72.4928,4.8286Z" transform="translate(0 0)"/>
      </g>
    </g>
    <path class="cls-10" d="M101.1,53.6183v26.281a34.1093,34.1093,0,0,1-1.5089,8.9279L73.9389,108.4437H27.1613L1.509,88.8272S0,83.3647,0,80.9052V53.6183a1.006,1.006,0,0,1,1.006-1.006h99.0882A1.0058,1.0058,0,0,1,101.1,53.6182Z" transform="translate(0 0)"/>
    <polygon class="cls-11" points="27.161 88.828 27.161 106.935 27.161 108.444 1.509 88.828 3.018 88.828 27.161 88.828"/>
    <polygon class="cls-12" points="73.939 88.828 73.939 106.935 73.77 108.573 99.591 88.828 98.082 88.828 73.939 88.828"/>
    <path class="cls-13" d="M73.8612,52.6123l-.3475,70.9209H27.239V52.6123Z" transform="translate(0 0)"/>
    <line class="cls-14" x1="27.6642" y1="123.0303" x2="73.4359" y2="123.0303"/>
    <path class="cls-15" d="M82.6154,137.9312h0c0,.6483-.1275,1.9131-.1275,1.9131L70.9093,152.3291H30.5562l-12.5884-12.2s-.112-1.7031-.112-2.1982h0c0-.4006.0767-1.858.0767-1.858l9.2286-12.54H73.4362l9.01,12.1924S82.6154,137.1817,82.6154,137.9312Z" transform="translate(0 0)"/>
    <rect class="cls-16" x="30.0534" y="137.1139" width="40.4903" height="15.2153" rx="0.3333" ry="0.3333"/>
    <path class="cls-17" d="M57.5915,53.6589l-.1254,50.39a.3751.3751,0,0,1-.3772.3708H44.0113c-.2075,0-.3773-.1669-.3773-.8343V53.4611Z" transform="translate(0 0)"/>
    <rect class="cls-18" x="44.1998" y="52.8323" width="12.0717" height="51.5875" rx="0.25" ry="0.25"/>
    <polyline class="cls-19" points="48.434 199.421 48.434 218.472 48.434 240.918 48.434 259.78"/>
    <g>
      <polygon class="cls-20" points="64.813 153.005 60.285 200.113 36.141 200.113 32.055 152.329 64.813 153.005"/>
      <path class="cls-21" d="M70.9093,152.3291l-.7428,1.5089-18.8352,1.3893.04,1.5981L68.4385,158.23l-1.8121,11.11-14.5491.5354-.1831,1.1223,14.4809,1.6315-1.9489,11.9517-13.2567.9877-.1979,1.2136L62.22,188.2538l-1.9342,11.8591H36.1415l-.6035-4.88c7.1815-.3275,12.9109-.9361,12.9109-.9361l-.0471-1.65s-6.7659-.1472-14.2836-1.05l-1.082-11.7833,15.2181-.75-.0879-2.5434-16.2659-.2986-1.379-11.1489,17.4428-.1981L47.563,161.63l-16.2576-.62-1.0736-8.68Z" transform="translate(0 0)"/>
    </g>
  </g>
</svg>
