<?xml version="1.0" encoding="UTF-8" standalone="no"?>
<!-- Created with Inkscape (http://www.inkscape.org/) -->

<svg
   xmlns:dc="http://purl.org/dc/elements/1.1/"
   xmlns:cc="http://creativecommons.org/ns#"
   xmlns:rdf="http://www.w3.org/1999/02/22-rdf-syntax-ns#"
   xmlns:svg="http://www.w3.org/2000/svg"
   xmlns="http://www.w3.org/2000/svg"
   xmlns:sodipodi="http://sodipodi.sourceforge.net/DTD/sodipodi-0.dtd"
   xmlns:inkscape="http://www.inkscape.org/namespaces/inkscape"
   width="54.260288mm"
   height="55.233711mm"
   viewBox="0 0 54.260288 55.233711"
   version="1.1"
   id="svg32477"
   inkscape:version="0.92.1 r15371"
   sodipodi:docname="power-bank-li-ion_top.svg">
  <defs
     id="defs32471" />
  <sodipodi:namedview
     id="base"
     pagecolor="#ffffff"
     bordercolor="#666666"
     borderopacity="1.0"
     inkscape:pageopacity="0.0"
     inkscape:pageshadow="2"
     inkscape:zoom="0.98994949"
     inkscape:cx="-77.542868"
     inkscape:cy="82.557563"
     inkscape:document-units="mm"
     inkscape:current-layer="layer1"
     showgrid="false"
     fit-margin-top="0"
     fit-margin-left="0"
     fit-margin-right="0"
     fit-margin-bottom="0"
     inkscape:window-width="1920"
     inkscape:window-height="1017"
     inkscape:window-x="-8"
     inkscape:window-y="-8"
     inkscape:window-maximized="1" />
  <metadata
     id="metadata32474">
    <rdf:RDF>
      <cc:Work
         rdf:about="">
        <dc:format>image/svg+xml</dc:format>
        <dc:type
           rdf:resource="http://purl.org/dc/dcmitype/StillImage" />
        <dc:title></dc:title>
      </cc:Work>
    </rdf:RDF>
  </metadata>
  <g
     inkscape:label="Layer 1"
     inkscape:groupmode="layer"
     id="layer1"
     transform="translate(-26.542475,-90.222435)">
    <g
       id="g33359">
      <g
         inkscape:export-ydpi="103.2458"
         inkscape:export-xdpi="103.2458"
         transform="rotate(180,271.31656,223.44523)"
         id="g71660">
        <g
           transform="matrix(-0.35820635,0,0,0.3513962,515.21621,337.33363)"
           id="g69510">
          <polygon
             style="fill:#b3b3b3"
             points="0.035,34.735 0.035,15.892 17.16,15.892 17.16,34.737 "
             id="polygon69474" />
          <rect
             style="fill:#666666"
             width="3.0409999"
             x="7.5040002"
             y="34.936001"
             height="1.83"
             id="rect69476" />
          <rect
             style="fill:#666666"
             width="3.0409999"
             x="7.5040002"
             y="13.832"
             height="1.829"
             id="rect69478" />
          <rect
             style="fill:#cccccc"
             width="0.13"
             x="17.030001"
             y="15.892"
             height="18.844999"
             id="rect69480" />
          <rect
             style="fill:#333333"
             width="16.853001"
             x="0.30700001"
             y="20.152"
             height="10.292"
             id="rect69482" />
          <rect
             style="fill:#b3b3b3"
             x="0"
             width="0.57599998"
             y="14.658"
             height="1.003"
             id="rect69484" />
          <rect
             style="fill:#cccccc"
             x="0"
             width="0.57599998"
             y="15.021"
             height="0.64600003"
             id="rect69486" />
          <rect
             style="fill:#b3b3b3"
             x="0"
             width="0.57599998"
             y="34.933998"
             height="1.002"
             id="rect69488" />
          <rect
             style="fill:#cccccc"
             x="0"
             width="0.57599998"
             y="34.933998"
             height="0.64600003"
             id="rect69490" />
          <path
             style="fill:#cccccc"
             inkscape:connector-curvature="0"
             id="path69492"
             d="m 16.593,15.661 0.567,0.229 v 2.534 c 0,0 -0.113,-2.302 -0.283,-2.384 -0.17,-0.082 -0.284,0.106 -0.284,0.106 z" />
          <path
             style="fill:#cccccc"
             inkscape:connector-curvature="0"
             id="path69494"
             d="m 16.593,34.936 0.566,-0.229 v -2.533 c 0,0 -0.113,2.301 -0.283,2.383 -0.17,0.082 -0.283,-0.105 -0.283,-0.105 z" />
          <path
             style="fill:#e6e6e6"
             inkscape:connector-curvature="0"
             id="path69496"
             d="m 16.593,31.547 h -1.066 v -1.605 h 1.634 v -0.461 h -0.566 v -8.36 h 0.566 V 20.596 H 15.526 V 18.99 h 1.067 V 15.67 H 0.153 v 19.271 h 16.44 z M 3.303,20.592 H 2.489 V 18.999 H 3.37 c 0.277,-0.427 0.76,-0.708 1.307,-0.708 0.598,0 1.105,0.219 1.369,0.708 v 0 h 4.48 v 1.592 H 6.043 c -0.264,0.488 -0.773,0.825 -1.371,0.825 -0.596,0 -1.105,-0.336 -1.369,-0.824 z m 0,10.887 H 2.489 V 29.887 H 3.37 c 0.277,-0.426 0.76,-0.707 1.307,-0.707 0.598,0 1.105,0.217 1.369,0.707 v 0 h 4.48 v 1.592 H 6.043 c -0.264,0.49 -0.773,0.826 -1.371,0.826 -0.596,0 -1.105,-0.334 -1.369,-0.826 z" />
          <polygon
             style="fill:#f2f2f2"
             points="0.151,16.066 0.151,15.661 16.593,15.661 16.593,17.191 "
             id="polygon69498" />
          <polygon
             style="fill:#999999"
             points="0.151,34.936 11.129,34.368 16.593,33.799 16.593,34.936 "
             id="polygon69500" />
          <rect
             style="fill:#cccccc"
             width="0.131"
             x="10.395"
             y="18.999001"
             height="1.592"
             id="rect69502" />
          <rect
             style="fill:#cccccc"
             width="0.131"
             x="10.395"
             y="29.889"
             height="1.592"
             id="rect69504" />
          <rect
             style="fill:#b3b3b3"
             width="0.66000003"
             x="0.354"
             y="16.605"
             height="17.391001"
             id="rect69506" />
          <rect
             style="fill:#cccccc"
             width="0.31299999"
             x="0.15099999"
             y="16.605"
             height="17.391001"
             id="rect69508" />
        </g>
        <g
           transform="matrix(-0.33072917,0,0,-0.33072917,664.01128,424.58982)"
           id="g69418">
          <g
             id="g69386"
             transform="translate(466.79759,303.15702)">
            <path
               d="M 0,0 -1.141,1.139 V 2.75 L 0,3.891 H 1.611 L 2.75,2.75 V 1.139 L 1.611,0 Z"
               style="fill:#bcbec0;fill-opacity:1;fill-rule:nonzero;stroke:none"
               id="path69384"
               inkscape:connector-curvature="0" />
          </g>
          <path
             d="m 465.77569,323.42592 h -14.25 v 3.167 h 14.25 z"
             style="fill:#034ea2;fill-opacity:1;fill-rule:nonzero;stroke:none"
             id="path69388"
             inkscape:connector-curvature="0" />
          <path
             d="m 465.77569,298.09292 h -14.25 v 2.916 h 14.25 z"
             style="fill:#034ea2;fill-opacity:1;fill-rule:nonzero;stroke:none"
             id="path69390"
             inkscape:connector-curvature="0" />
          <path
             d="m 464.19269,298.09292 h -12.667 v 28.5 h 12.667 z"
             style="fill:#034ea2;fill-opacity:1;fill-rule:nonzero;stroke:none"
             id="path69392"
             inkscape:connector-curvature="0" />
          <g
             id="g69396"
             transform="translate(466.78189,310.36002)">
            <path
               d="M 0,0 -1.141,1.139 V 2.75 L 0,3.891 H 1.611 L 2.75,2.75 V 1.139 L 1.611,0 Z"
               style="fill:#bcbec0;fill-opacity:1;fill-rule:nonzero;stroke:none"
               id="path69394"
               inkscape:connector-curvature="0" />
          </g>
          <g
             id="g69400"
             transform="translate(466.79759,317.56332)">
            <path
               d="M 0,0 -1.141,1.139 V 2.75 L 0,3.891 H 1.611 L 2.75,2.75 V 1.139 L 1.611,0 Z"
               style="fill:#bcbec0;fill-opacity:1;fill-rule:nonzero;stroke:none"
               id="path69398"
               inkscape:connector-curvature="0" />
          </g>
          <g
             id="g69404"
             transform="translate(466.92639,305.95872)">
            <path
               d="M 0,0 H 1.5 V -1.7 H 0 -2.751 V 0 Z"
               style="fill:#ffffff;fill-opacity:1;fill-rule:nonzero;stroke:none"
               id="path69402"
               inkscape:connector-curvature="0" />
          </g>
          <g
             id="g69408"
             transform="translate(466.92639,313.15902)">
            <path
               d="M 0,0 H 1.5 V -1.7 H 0 -2.751 V 0 Z"
               style="fill:#ffffff;fill-opacity:1;fill-rule:nonzero;stroke:none"
               id="path69406"
               inkscape:connector-curvature="0" />
          </g>
          <g
             id="g69412"
             transform="translate(466.92639,318.65902)">
            <path
               d="M 0,0 H -2.751 V 1.699 H 0 1.5 V 0 Z"
               style="fill:#ffffff;fill-opacity:1;fill-rule:nonzero;stroke:none"
               id="path69410"
               inkscape:connector-curvature="0" />
          </g>
          <g
             id="g69416"
             transform="translate(451.56609,320.81912)"
             style="fill:#f9f9f9;stroke:#000000;stroke-width:0.12;stroke-miterlimit:4;stroke-dasharray:none;stroke-opacity:1">
            <path
               d="m 0,0 v -22.681 h -0.761 -0.09 l -2.689,8.451 v 0.049 h -0.71 v 5.67 h 0.71 v 0.06 L -0.851,0 h 0.09 z"
               style="fill:#f9f9f9;fill-opacity:1;fill-rule:nonzero;stroke:#000000;stroke-width:0.12;stroke-miterlimit:4;stroke-dasharray:none;stroke-opacity:1"
               id="path69414"
               inkscape:connector-curvature="0" />
          </g>
        </g>
        <path
           d="m 466.81934,305.62038 c 0.883,0 1.59844,-0.71579 1.59844,-1.59844 0,-0.88265 -0.71544,-1.59878 -1.59844,-1.59878 -0.883,0 -1.59844,0.71613 -1.59844,1.59878 0,0.88265 0.71544,1.59844 1.59844,1.59844 m 0,50.01119 c 0.883,0 1.59844,-0.71579 1.59844,-1.59879 0,-0.88265 -0.71544,-1.59844 -1.59844,-1.59844 -0.883,0 -1.59844,0.71579 -1.59844,1.59844 0,0.883 0.71544,1.59879 1.59844,1.59879 m 40.00006,-50.01119 c 0.883,0 1.59844,-0.71579 1.59844,-1.59844 0,-0.88265 -0.71544,-1.59878 -1.59844,-1.59878 -0.883,0 -1.59879,0.71613 -1.59879,1.59878 0,0.88265 0.71579,1.59844 1.59879,1.59844 m 0,50.01119 c 0.883,0 1.59844,-0.71579 1.59844,-1.59879 0,-0.88265 -0.71544,-1.59844 -1.59844,-1.59844 -0.883,0 -1.59879,0.71579 -1.59879,1.59844 0,0.883 0.71579,1.59879 1.59879,1.59879 m -43.97516,-39.57108 c 0,0 0.95956,-0.0734 0.95956,-1.09926 v -11.57922 c 0,-1.03153 0.83678,-1.86832 1.86866,-1.86832 h 2.33574 c 1.03152,0 1.86831,0.83679 1.86831,1.86832 v 3.15348 h 33.92735 v -3.15348 c 0,-1.03153 0.83714,-1.86832 1.86866,-1.86832 h 2.33574 c 1.03152,0 1.86867,0.83679 1.86867,1.86832 v 3.15348 h 3.52636 c 0.51612,0 0.93416,0.41839 0.93416,0.9345 v 43.15037 c 0,0.51576 -0.41804,0.93486 -0.93416,0.93486 h -3.52636 v 3.16442 c 0,1.03152 -0.83715,1.86901 -1.86867,1.86901 h -2.33574 c -1.03152,0 -1.86866,-0.83749 -1.86866,-1.86901 v -3.16442 h -33.92735 v 3.16442 c 0,1.03152 -0.83679,1.86901 -1.86831,1.86901 h -2.33574 c -1.03188,0 -1.86866,-0.83749 -1.86866,-1.86901 v -3.16442 h -0.95956 c -0.51576,0 -0.93451,-0.4191 -0.93451,-0.93486 v -33.62537 c 0,-0.51611 0.41875,-0.9345 0.93451,-0.9345"
           style="fill:#f2f2f2;fill-opacity:1;fill-rule:nonzero;stroke:#000000;stroke-width:0.15875;stroke-miterlimit:4;stroke-dasharray:none;stroke-opacity:1"
           id="path69340"
           inkscape:connector-curvature="0" />
        <g
           style="stroke-width:0.67873526"
           transform="matrix(0,1.4733285,1.4733285,0,171.08396,-421.31906)"
           id="g69932">
          <g
             style="stroke-width:0.67873526"
             transform="matrix(0.33072937,0,0,0.33072937,445.14261,217.77942)"
             id="g69916">
            <rect
               id="rect69904"
               x="47.627346"
               y="152.75006"
               width="2.3208165"
               height="2.3187988"
               style="fill:#8d8c8c;stroke-width:0.67873526"
               transform="rotate(-90)" />
            <rect
               id="rect69906"
               x="48.186356"
               y="153.31311"
               width="1.1977433"
               height="1.192698"
               style="fill:#8c8663;stroke-width:0.67873526"
               transform="rotate(-90)" />
            <polygon
               id="polygon69908"
               points="4.203,3.012 4.203,4.193 4.759,4.751 4.759,2.454 "
               style="fill:#b8af82;stroke-width:0.67873526"
               transform="matrix(0,-1.0090507,1.0090507,0,150.27386,-45.143052)" />
            <polygon
               id="polygon69910"
               points="4.203,4.193 4.759,4.751 2.462,4.751 3.016,4.193 "
               style="fill:#80795b;stroke-width:0.67873526"
               transform="matrix(0,-1.0090507,1.0090507,0,150.27386,-45.143052)" />
            <polygon
               id="polygon69912"
               points="3.016,4.193 2.462,4.751 2.462,2.454 3.016,3.012 "
               style="fill:#5e5b43;stroke-width:0.67873526"
               transform="matrix(0,-1.0090507,1.0090507,0,150.27386,-45.143052)" />
            <polygon
               id="polygon69914"
               points="4.203,3.012 3.016,3.012 2.462,2.454 4.759,2.454 "
               style="fill:#9a916c;stroke-width:0.67873526"
               transform="matrix(0,-1.0090507,1.0090507,0,150.27386,-45.143052)" />
          </g>
          <g
             style="stroke-width:0.67873526"
             id="g69930"
             transform="matrix(0.33072937,0,0,0.33072937,447.76955,217.73217)">
            <rect
               transform="rotate(-90)"
               style="fill:#8d8c8c;stroke-width:0.67873526"
               height="2.3187988"
               width="2.3208165"
               y="152.75006"
               x="47.627346"
               id="rect69918" />
            <rect
               transform="rotate(-90)"
               style="fill:#8c8663;stroke-width:0.67873526"
               height="1.192698"
               width="1.1977433"
               y="153.31311"
               x="48.186356"
               id="rect69920" />
            <polygon
               transform="matrix(0,-1.0090507,1.0090507,0,150.27386,-45.143052)"
               style="fill:#b8af82;stroke-width:0.67873526"
               points="4.203,3.012 4.203,4.193 4.759,4.751 4.759,2.454 "
               id="polygon69922" />
            <polygon
               transform="matrix(0,-1.0090507,1.0090507,0,150.27386,-45.143052)"
               style="fill:#80795b;stroke-width:0.67873526"
               points="4.203,4.193 4.759,4.751 2.462,4.751 3.016,4.193 "
               id="polygon69924" />
            <polygon
               transform="matrix(0,-1.0090507,1.0090507,0,150.27386,-45.143052)"
               style="fill:#5e5b43;stroke-width:0.67873526"
               points="3.016,4.193 2.462,4.751 2.462,2.454 3.016,3.012 "
               id="polygon69926" />
            <polygon
               transform="matrix(0,-1.0090507,1.0090507,0,150.27386,-45.143052)"
               style="fill:#9a916c;stroke-width:0.67873526"
               points="4.203,3.012 3.016,3.012 2.462,2.454 4.759,2.454 "
               id="polygon69928" />
          </g>
        </g>
      </g>
      <g
         inkscape:export-ydpi="103.2458"
         inkscape:export-xdpi="103.2458"
         transform="matrix(0.33072917,0,0,-0.33072917,-327.52857,215.00802)"
         id="g19962">
        <path
           d="m 1085.0496,349.84123 c 0,1.10988 1.007,1.88689 1.8897,1.88689 h 136.2035 c 1.2501,0 1.8887,-0.64143 1.8887,-1.88689 v -85.40218 c 0,-0.99861 -0.7873,-1.88689 -1.8887,-1.88689 h -136.211 c -1.0257,0 -1.8869,0.73961 -1.8869,1.88689 v 85.40218 0 z"
           id="path4_1_"
           inkscape:connector-curvature="0"
           style="fill:#d2d2d2;stroke:#000000;stroke-width:0.40000001;stroke-miterlimit:4;stroke-dasharray:none;stroke-opacity:1" />
        <path
           d="m 1118.0897,262.75353 h -30.9856 c -1.0233,0 -1.8819,0.73638 -1.8819,1.87864 v 85.02762 0 c 0,1.10503 1.0019,1.87863 1.8819,1.87863 h 30.9791 v -88.78489 0 z"
           id="path4_2_"
           inkscape:connector-curvature="0"
           style="fill:#ffc900" />
        <path
           d="m 1108.6162,262.55309 h -21.6778 c -1.0286,0 -1.8916,0.73961 -1.8916,1.8869 v 85.40124 0 c 0,1.10988 1.0071,1.88689 1.8916,1.88689 h 21.6685 v -89.17503 h 0.01 z"
           enable-background="new    "
           id="path4_3_"
           inkscape:connector-curvature="0"
           style="opacity:0.36000001;fill:#1d1d1d" />
        <path
           d="m 1089.7986,263.43109 c -1.6737,0 -3.799,1.54374 -3.799,3.38482 v 8.46018 c 0,-1.84015 2.1319,-4.70603 3.799,-4.70603 h 130.4587 c 1.6727,0 3.7906,2.86588 3.7906,4.70603 v -8.46018 c 0,-1.84108 -2.1179,-3.38482 -3.7906,-3.38482 z"
           enable-background="new    "
           id="path22_1_"
           inkscape:connector-curvature="0"
           style="opacity:0.35" />
        <path
           d="m 1220.0534,350.74073 c 1.6728,0 3.7991,-1.54281 3.7991,-3.38763 v -8.45644 c 0,1.8308 -2.1263,4.70135 -3.7991,4.70135 h -130.4549 c -1.6718,0 -3.7915,-2.87055 -3.7915,-4.70135 v 8.45644 c 0,1.84482 2.1197,3.38763 3.7915,3.38763 z"
           enable-background="new    "
           id="path22_2_"
           inkscape:connector-curvature="0"
           style="opacity:0.35;fill:#ffffff" />
        <g
           transform="matrix(1.8629352,0,0,-0.93503307,1119.3262,316.5069)"
           id="g19833">
          <text
             style="font-size:12.10639954px;line-height:0%;font-family:EurostileLTStd"
             font-size="12.1064"
             id="text19835">-</text>
        </g>
        <g
           transform="matrix(0.93503307,-4.0871601e-8,-4.0871605e-8,-0.93503298,1131.2306,315.15749)"
           id="g19837">
          <text
             style="font-size:12.10639954px;line-height:0%;font-family:DroidSans"
             font-size="12.1064"
             id="text19839">USN 103450</text>
        </g>
        <g
           transform="matrix(0.93503307,-4.0871601e-8,-4.0871605e-8,-0.93503298,1131.2306,301.57398)"
           id="g19841">
          <text
             style="font-size:12.10639954px;line-height:0%;font-family:DroidSans"
             font-size="12.1064"
             id="text19843">3.7V 2000mAh</text>
        </g>
        <g
           transform="matrix(0.93503307,-4.0871601e-8,-4.0871605e-8,-0.93503298,1118.8883,288.39126)"
           id="g19845">
          <text
             style="font-size:12.10639954px;line-height:0%;font-family:EurostileLTStd"
             font-size="12.1064"
             id="text19847">+</text>
        </g>
        <g
           transform="matrix(0.93503307,-4.0871601e-8,-4.0871605e-8,-0.93503298,1131.2306,287.99038)"
           id="g19849">
          <text
             style="font-size:12.10639954px;line-height:0%;font-family:DroidSans"
             font-size="12.1064"
             id="text19851">2017 03 02</text>
        </g>
      </g>
      <g
         inkscape:export-ydpi="103.2458"
         inkscape:export-xdpi="103.2458"
         transform="matrix(0.02264997,0,0,0.02264997,34.766192,127.27353)"
         style="display:inline"
         id="g67791">
        <g
           id="g67789"
           transform="translate(-1.3888888,0.69444448)">
          <rect
             style="fill:#254e89;fill-opacity:1;stroke:#ff0000;stroke-width:0;stroke-miterlimit:4;stroke-dasharray:none;stroke-opacity:1"
             id="rect67725"
             width="272.2222"
             height="341.66669"
             x="1626.3888"
             y="194.4446"
             rx="0"
             ry="0" />
          <rect
             width="56.472439"
             x="1841.895"
             y="194.16837"
             height="341.52106"
             id="rect67727"
             style="fill:#5171a1" />
          <g
             id="g67785"
             transform="matrix(-15.130479,0,0,-15.13048,1912.3767,355.79769)">
            <g
               id="g67755"
               transform="translate(0,-0.19472471)">
              <path
                 style="fill:#3a5c8e"
                 inkscape:connector-curvature="0"
                 d="m 5.941,5.311 c 0,2.591 2.142,4.698 4.783,4.698 V 0.615 C 8.079,0.611 5.941,2.718 5.941,5.311 Z"
                 id="path67729" />
              <path
                 style="fill:#123c66"
                 inkscape:connector-curvature="0"
                 d="M 15.5,5.311 C 15.5,2.72 13.356,0.615 10.728,0.615 v 9.396 C 13.36,10.012 15.5,7.908 15.5,5.311 Z"
                 id="path67731" />
              <g
                 id="g67743">
                <path
                   style="fill:#8b8b8b"
                   inkscape:connector-curvature="0"
                   d="m 6.869,5.311 c 0,-2.091 1.729,-3.791 3.855,-3.791 2.122,0 3.854,1.7 3.854,3.791 0,1.001 -0.39,1.949 -1.112,2.664 -0.729,0.728 -1.701,1.127 -2.738,1.127 -2.129,0 -3.859,-1.698 -3.859,-3.791 z"
                   id="path67733" />
                <g
                   id="g67737">
                  <path
                     inkscape:connector-curvature="0"
                     d="m 14.529,5.311 c 0,2.065 -1.705,3.742 -3.805,3.737 -2.104,0 -3.804,-1.672 -3.804,-3.737 0,-2.062 1.7,-3.737 3.804,-3.737 2.1,0 3.805,1.676 3.805,3.737 m 0.106,0 c 0,-2.122 -1.754,-3.847 -3.908,-3.847 -2.155,0 -3.909,1.722 -3.909,3.847 0,2.119 1.754,3.841 3.909,3.841 1.057,0.006 2.035,-0.4 2.783,-1.142 0.723,-0.725 1.125,-1.682 1.125,-2.699 z"
                     id="path67735" />
                </g>
                <g
                   style="opacity:0.5"
                   id="g67741">
                  <path
                     inkscape:connector-curvature="0"
                     d="m 14.216,5.311 c 0,0.905 -0.352,1.759 -1.002,2.403 -0.657,0.654 -1.542,1.021 -2.482,1.017 -1.93,0 -3.494,-1.532 -3.494,-3.42 0,-1.892 1.564,-3.426 3.494,-3.426 1.917,0 3.484,1.536 3.484,3.426 m 0.313,0 c 0,-2.062 -1.705,-3.737 -3.805,-3.737 -2.104,0 -3.804,1.676 -3.804,3.737 0,2.065 1.7,3.737 3.804,3.737 2.1,0.005 3.805,-1.67 3.805,-3.737 z"
                     id="path67739" />
                </g>
              </g>
              <g
                 id="g67747">
                <path
                   style="fill:#666666"
                   inkscape:connector-curvature="0"
                   d="m 10.726,1.885 c -0.316,0 -0.612,0.053 -0.909,0.129 v 6.588 c 0.288,0.078 0.593,0.129 0.909,0.129 0.305,0 0.604,-0.045 0.893,-0.129 V 2.007 C 11.331,1.938 11.034,1.885 10.726,1.885 Z"
                   id="path67745" />
              </g>
              <g
                 id="g67753">
                <path
                   style="opacity:0.15"
                   inkscape:connector-curvature="0"
                   d="M 11.469,8.641 C 11.521,8.628 11.572,8.617 11.618,8.602 V 2.007 C 11.569,1.995 11.52,1.986 11.47,1.974 Z"
                   id="path67749"
                   enable-background="new    " />
                <path
                   style="opacity:0.15;fill:#ffffff"
                   inkscape:connector-curvature="0"
                   d="M 9.983,1.973 C 9.927,1.986 9.872,2 9.816,2.014 V 8.602 C 9.872,8.619 9.925,8.63 9.983,8.643 Z"
                   id="path67751"
                   enable-background="new    " />
              </g>
            </g>
            <g
               transform="translate(0.16144851,-11.247868)"
               style="display:inline"
               id="g67783">
              <path
                 style="fill:#3a5c8e"
                 inkscape:connector-curvature="0"
                 d="m 5.941,5.311 c 0,2.591 2.142,4.698 4.783,4.698 V 0.615 C 8.079,0.611 5.941,2.718 5.941,5.311 Z"
                 id="path67757" />
              <path
                 style="fill:#123c66"
                 inkscape:connector-curvature="0"
                 d="M 15.5,5.311 C 15.5,2.72 13.356,0.615 10.728,0.615 v 9.396 C 13.36,10.012 15.5,7.908 15.5,5.311 Z"
                 id="path67759" />
              <g
                 id="g67771">
                <path
                   style="fill:#8b8b8b"
                   inkscape:connector-curvature="0"
                   d="m 6.869,5.311 c 0,-2.091 1.729,-3.791 3.855,-3.791 2.122,0 3.854,1.7 3.854,3.791 0,1.001 -0.39,1.949 -1.112,2.664 -0.729,0.728 -1.701,1.127 -2.738,1.127 -2.129,0 -3.859,-1.698 -3.859,-3.791 z"
                   id="path67761" />
                <g
                   id="g67765">
                  <path
                     inkscape:connector-curvature="0"
                     d="m 14.529,5.311 c 0,2.065 -1.705,3.742 -3.805,3.737 -2.104,0 -3.804,-1.672 -3.804,-3.737 0,-2.062 1.7,-3.737 3.804,-3.737 2.1,0 3.805,1.676 3.805,3.737 m 0.106,0 c 0,-2.122 -1.754,-3.847 -3.908,-3.847 -2.155,0 -3.909,1.722 -3.909,3.847 0,2.119 1.754,3.841 3.909,3.841 1.057,0.006 2.035,-0.4 2.783,-1.142 0.723,-0.725 1.125,-1.682 1.125,-2.699 z"
                     id="path67763" />
                </g>
                <g
                   style="opacity:0.5"
                   id="g67769">
                  <path
                     inkscape:connector-curvature="0"
                     d="m 14.216,5.311 c 0,0.905 -0.352,1.759 -1.002,2.403 -0.657,0.654 -1.542,1.021 -2.482,1.017 -1.93,0 -3.494,-1.532 -3.494,-3.42 0,-1.892 1.564,-3.426 3.494,-3.426 1.917,0 3.484,1.536 3.484,3.426 m 0.313,0 c 0,-2.062 -1.705,-3.737 -3.805,-3.737 -2.104,0 -3.804,1.676 -3.804,3.737 0,2.065 1.7,3.737 3.804,3.737 2.1,0.005 3.805,-1.67 3.805,-3.737 z"
                     id="path67767" />
                </g>
              </g>
              <g
                 id="g67775">
                <path
                   style="fill:#666666"
                   inkscape:connector-curvature="0"
                   d="m 10.726,1.885 c -0.316,0 -0.612,0.053 -0.909,0.129 v 6.588 c 0.288,0.078 0.593,0.129 0.909,0.129 0.305,0 0.604,-0.045 0.893,-0.129 V 2.007 C 11.331,1.938 11.034,1.885 10.726,1.885 Z"
                   id="path67773" />
              </g>
              <g
                 id="g67781">
                <path
                   style="opacity:0.15"
                   inkscape:connector-curvature="0"
                   d="M 11.469,8.641 C 11.521,8.628 11.572,8.617 11.618,8.602 V 2.007 C 11.569,1.995 11.52,1.986 11.47,1.974 Z"
                   id="path67777"
                   enable-background="new    " />
                <path
                   style="opacity:0.15;fill:#ffffff"
                   inkscape:connector-curvature="0"
                   d="M 9.983,1.973 C 9.927,1.986 9.872,2 9.816,2.014 V 8.602 C 9.872,8.619 9.925,8.63 9.983,8.643 Z"
                   id="path67779"
                   enable-background="new    " />
              </g>
            </g>
          </g>
          <rect
             width="32.902214"
             x="1626.937"
             y="194.52002"
             height="341.52106"
             id="rect67787"
             style="display:inline;fill:#173b68;fill-opacity:1" />
        </g>
      </g>
      <g
         inkscape:export-ydpi="103.2458"
         inkscape:export-xdpi="103.2458"
         id="g78414"
         transform="rotate(90,368.91643,-25.797059)">
        <path
           id="path78408"
           d="m 531.81553,275.0134 0.15091,0.0745 q -0.10244,0.13548 -0.10244,0.26558 0,0.20635 0.14816,0.32568 0.14817,0.11933 0.39237,0.11933 0.2323,0 0.37406,-0.11664 0.14177,-0.11753 0.14177,-0.3194 0,-0.14355 -0.0878,-0.23238 h -0.3137 v 0.18213 h -0.15548 v -0.36157 h 0.58351 q 0.0622,0.0718 0.1006,0.20008 0.0375,0.1283 0.0375,0.24942 0,0.27186 -0.18749,0.42976 -0.18841,0.15701 -0.50028,0.15701 -0.31096,0 -0.50394,-0.17226 -0.1939,-0.17316 -0.1939,-0.46655 0,-0.20546 0.11616,-0.33465 z"
           inkscape:connector-curvature="0"
           style="font-style:normal;font-variant:normal;font-weight:normal;font-stretch:normal;font-size:medium;line-height:130.99999428%;font-family:'Trebuchet MS';-inkscape-font-specification:'Trebuchet MS';text-align:end;letter-spacing:0px;word-spacing:0px;text-anchor:end;fill:#000000;fill-opacity:1;stroke:none;stroke-width:0.21292767" />
        <path
           id="path78410"
           d="m 533.08041,273.83267 -0.97953,0.67919 h 0.96124 v 0.17047 h -1.33988 v -0.0718 l 0.92648,-0.66124 h -0.92648 v -0.17047 h 1.35817 z"
           inkscape:connector-curvature="0"
           style="font-style:normal;font-variant:normal;font-weight:normal;font-stretch:normal;font-size:medium;line-height:130.99999428%;font-family:'Trebuchet MS';-inkscape-font-specification:'Trebuchet MS';text-align:end;letter-spacing:0px;word-spacing:0px;text-anchor:end;fill:#000000;fill-opacity:1;stroke:none;stroke-width:0.21292767" />
        <path
           id="path78412"
           d="m 533.06212,273.24411 v 0.26467 h -1.33988 q -0.009,-0.25301 -0.009,-0.32389 0,-0.27544 0.17103,-0.43604 0.17011,-0.1606 0.45364,-0.1606 0.72436,0 0.72436,0.65586 z m -1.17526,0.0852 h 1.00149 q 0.009,-0.0601 0.009,-0.14893 0,-0.18842 -0.14359,-0.29608 -0.1445,-0.10766 -0.40059,-0.10766 -0.47559,0 -0.47559,0.41899 0,0.0251 0.009,0.13368 z"
           inkscape:connector-curvature="0"
           style="font-style:normal;font-variant:normal;font-weight:normal;font-stretch:normal;font-size:medium;line-height:130.99999428%;font-family:'Trebuchet MS';-inkscape-font-specification:'Trebuchet MS';text-align:end;letter-spacing:0px;word-spacing:0px;text-anchor:end;fill:#000000;fill-opacity:1;stroke:none;stroke-width:0.21292767" />
      </g>
      <g
         inkscape:export-ydpi="103.2458"
         inkscape:export-xdpi="103.2458"
         id="g78420"
         transform="rotate(90,396.10516,-13.299579)">
        <path
           d="m 543.36177,314.74123 -0.043,0.061 h -0.64845 v -0.65406 h 0.15549 v 0.48359 h 0.32559 q -0.0503,-0.0664 -0.0503,-0.16867 0,-0.18303 0.11158,-0.27903 0.11158,-0.0969 0.31736,-0.0969 0.50394,0 0.50394,0.44053 0,0.18392 -0.10426,0.30505 l -0.15274,-0.0691 q 0.10152,-0.12202 0.10152,-0.23506 0,-0.25302 -0.32194,-0.25302 -0.29998,0 -0.29998,0.24943 0,0.12022 0.10517,0.21622 z"
           id="path78416"
           inkscape:connector-curvature="0"
           style="font-style:normal;font-variant:normal;font-weight:normal;font-stretch:normal;font-size:medium;line-height:130.99999428%;font-family:'Trebuchet MS';-inkscape-font-specification:'Trebuchet MS';text-align:start;letter-spacing:0px;word-spacing:0px;text-anchor:start;fill:#000000;fill-opacity:1;stroke:none;stroke-width:0.21292767" />
        <path
           d="m 544.034,313.39184 v 0.0906 l -1.35817,0.48987 v -0.19918 l 0.98685,-0.33825 -0.98685,-0.32568 v -0.1929 z"
           id="path78418"
           inkscape:connector-curvature="0"
           style="font-style:normal;font-variant:normal;font-weight:normal;font-stretch:normal;font-size:medium;line-height:130.99999428%;font-family:'Trebuchet MS';-inkscape-font-specification:'Trebuchet MS';text-align:start;letter-spacing:0px;word-spacing:0px;text-anchor:start;fill:#000000;fill-opacity:1;stroke:none;stroke-width:0.21292767" />
      </g>
    </g>
  </g>
</svg>
