<svg id="raspberry-pi-keyboard-original" xmlns="http://www.w3.org/2000/svg" xmlns:xlink="http://www.w3.org/1999/xlink" width="285.8mm" height="235.178mm" viewBox="0 0 810.142 666.645">
  <defs>
    <style>
      .cls-1, .cls-110, .cls-84, .cls-85, .cls-86, .cls-88, .cls-89, .cls-91 {
        fill: none;
      }

      .cls-1, .cls-84 {
        stroke-linecap: round;
      }

      .cls-1 {
        stroke-width: 11.339px;
        stroke: url(#Безымянный_градиент_61);
      }

      .cls-2 {
        fill: #f4f3f8;
        stroke: #ca1146;
        stroke-width: 2.835px;
      }

      .cls-10, .cls-11, .cls-12, .cls-13, .cls-14, .cls-15, .cls-16, .cls-17, .cls-18, .cls-19, .cls-20, .cls-21, .cls-22, .cls-23, .cls-24, .cls-25, .cls-26, .cls-27, .cls-28, .cls-29, .cls-3, .cls-30, .cls-31, .cls-32, .cls-33, .cls-34, .cls-35, .cls-36, .cls-37, .cls-38, .cls-39, .cls-4, .cls-40, .cls-41, .cls-42, .cls-43, .cls-44, .cls-45, .cls-46, .cls-47, .cls-48, .cls-49, .cls-5, .cls-50, .cls-51, .cls-52, .cls-53, .cls-54, .cls-55, .cls-56, .cls-57, .cls-58, .cls-59, .cls-6, .cls-60, .cls-61, .cls-62, .cls-63, .cls-64, .cls-65, .cls-66, .cls-67, .cls-68, .cls-69, .cls-7, .cls-70, .cls-71, .cls-72, .cls-73, .cls-74, .cls-75, .cls-76, .cls-77, .cls-78, .cls-79, .cls-8, .cls-80, .cls-9 {
        fill: #fff;
      }

      .cls-10, .cls-11, .cls-12, .cls-13, .cls-14, .cls-15, .cls-16, .cls-17, .cls-18, .cls-19, .cls-20, .cls-21, .cls-22, .cls-23, .cls-24, .cls-25, .cls-26, .cls-27, .cls-28, .cls-29, .cls-3, .cls-30, .cls-31, .cls-32, .cls-33, .cls-34, .cls-35, .cls-36, .cls-37, .cls-38, .cls-39, .cls-4, .cls-40, .cls-41, .cls-42, .cls-43, .cls-44, .cls-45, .cls-46, .cls-47, .cls-48, .cls-49, .cls-5, .cls-50, .cls-51, .cls-52, .cls-53, .cls-54, .cls-55, .cls-56, .cls-57, .cls-58, .cls-59, .cls-6, .cls-60, .cls-61, .cls-62, .cls-63, .cls-64, .cls-65, .cls-66, .cls-67, .cls-68, .cls-69, .cls-7, .cls-70, .cls-71, .cls-72, .cls-73, .cls-74, .cls-75, .cls-76, .cls-77, .cls-78, .cls-79, .cls-8, .cls-80, .cls-9, .cls-91 {
        stroke-opacity: 0.822;
      }

      .cls-10, .cls-11, .cls-12, .cls-13, .cls-14, .cls-15, .cls-16, .cls-17, .cls-18, .cls-19, .cls-20, .cls-21, .cls-22, .cls-23, .cls-24, .cls-25, .cls-26, .cls-27, .cls-28, .cls-29, .cls-3, .cls-30, .cls-31, .cls-32, .cls-33, .cls-34, .cls-35, .cls-36, .cls-37, .cls-38, .cls-39, .cls-4, .cls-40, .cls-41, .cls-42, .cls-43, .cls-44, .cls-45, .cls-46, .cls-47, .cls-48, .cls-49, .cls-5, .cls-50, .cls-51, .cls-52, .cls-53, .cls-54, .cls-55, .cls-56, .cls-57, .cls-58, .cls-59, .cls-6, .cls-60, .cls-61, .cls-62, .cls-63, .cls-64, .cls-65, .cls-66, .cls-67, .cls-68, .cls-69, .cls-7, .cls-70, .cls-71, .cls-72, .cls-73, .cls-74, .cls-75, .cls-76, .cls-77, .cls-78, .cls-79, .cls-8, .cls-80, .cls-82, .cls-83, .cls-88, .cls-9 {
        stroke-width: 0.992px;
      }

      .cls-3 {
        stroke: url(#Безымянный_градиент_40);
      }

      .cls-4 {
        stroke: url(#Безымянный_градиент_40-2);
      }

      .cls-5 {
        stroke: url(#Безымянный_градиент_40-3);
      }

      .cls-6 {
        stroke: url(#Безымянный_градиент_40-4);
      }

      .cls-7 {
        stroke: url(#Безымянный_градиент_40-5);
      }

      .cls-8 {
        stroke: url(#Безымянный_градиент_40-6);
      }

      .cls-9 {
        stroke: url(#Безымянный_градиент_40-7);
      }

      .cls-10 {
        stroke: url(#Безымянный_градиент_40-8);
      }

      .cls-11 {
        stroke: url(#Безымянный_градиент_40-9);
      }

      .cls-12 {
        stroke: url(#Безымянный_градиент_40-10);
      }

      .cls-13 {
        stroke: url(#Безымянный_градиент_40-11);
      }

      .cls-14 {
        stroke: url(#Безымянный_градиент_40-12);
      }

      .cls-15 {
        stroke: url(#Безымянный_градиент_40-13);
      }

      .cls-16 {
        stroke: url(#Безымянный_градиент_40-14);
      }

      .cls-17 {
        stroke: url(#Безымянный_градиент_40-15);
      }

      .cls-18 {
        stroke: url(#Безымянный_градиент_40-16);
      }

      .cls-19 {
        stroke: url(#Безымянный_градиент_40-17);
      }

      .cls-20 {
        stroke: url(#Безымянный_градиент_40-18);
      }

      .cls-21 {
        stroke: url(#Безымянный_градиент_40-19);
      }

      .cls-22 {
        stroke: url(#Безымянный_градиент_40-20);
      }

      .cls-23 {
        stroke: url(#Безымянный_градиент_40-21);
      }

      .cls-24 {
        stroke: url(#Безымянный_градиент_40-22);
      }

      .cls-25 {
        stroke: url(#Безымянный_градиент_40-23);
      }

      .cls-26 {
        stroke: url(#Безымянный_градиент_40-24);
      }

      .cls-27 {
        stroke: url(#Безымянный_градиент_40-25);
      }

      .cls-28 {
        stroke: url(#Безымянный_градиент_40-26);
      }

      .cls-29 {
        stroke: url(#Безымянный_градиент_40-27);
      }

      .cls-30 {
        stroke: url(#Безымянный_градиент_40-28);
      }

      .cls-31 {
        stroke: url(#Безымянный_градиент_40-29);
      }

      .cls-32 {
        stroke: url(#Безымянный_градиент_40-30);
      }

      .cls-33 {
        stroke: url(#Безымянный_градиент_40-31);
      }

      .cls-34 {
        stroke: url(#Безымянный_градиент_40-32);
      }

      .cls-35 {
        stroke: url(#Безымянный_градиент_40-33);
      }

      .cls-36 {
        stroke: url(#Безымянный_градиент_40-34);
      }

      .cls-37 {
        stroke: url(#Безымянный_градиент_40-35);
      }

      .cls-38 {
        stroke: url(#Безымянный_градиент_40-36);
      }

      .cls-39 {
        stroke: url(#Безымянный_градиент_40-37);
      }

      .cls-40 {
        stroke: url(#Безымянный_градиент_40-38);
      }

      .cls-41 {
        stroke: url(#Безымянный_градиент_40-39);
      }

      .cls-42 {
        stroke: url(#Безымянный_градиент_40-40);
      }

      .cls-43 {
        stroke: url(#Безымянный_градиент_40-41);
      }

      .cls-44 {
        stroke: url(#Безымянный_градиент_40-42);
      }

      .cls-45 {
        stroke: url(#Безымянный_градиент_40-43);
      }

      .cls-46 {
        stroke: url(#Безымянный_градиент_40-44);
      }

      .cls-47 {
        stroke: url(#Безымянный_градиент_40-45);
      }

      .cls-48 {
        stroke: url(#Безымянный_градиент_40-46);
      }

      .cls-49 {
        stroke: url(#Безымянный_градиент_40-47);
      }

      .cls-50 {
        stroke: url(#Безымянный_градиент_40-48);
      }

      .cls-51 {
        stroke: url(#Безымянный_градиент_40-49);
      }

      .cls-52 {
        stroke: url(#Безымянный_градиент_40-50);
      }

      .cls-53 {
        stroke: url(#Безымянный_градиент_40-51);
      }

      .cls-54 {
        stroke: url(#Безымянный_градиент_40-52);
      }

      .cls-55 {
        stroke: url(#Безымянный_градиент_40-53);
      }

      .cls-56 {
        stroke: url(#Безымянный_градиент_40-54);
      }

      .cls-57 {
        stroke: url(#Безымянный_градиент_40-55);
      }

      .cls-58 {
        stroke: url(#Безымянный_градиент_40-56);
      }

      .cls-59 {
        stroke: url(#Безымянный_градиент_40-57);
      }

      .cls-60 {
        stroke: url(#Безымянный_градиент_40-58);
      }

      .cls-61 {
        stroke: url(#Безымянный_градиент_40-59);
      }

      .cls-62 {
        stroke: url(#Безымянный_градиент_40-60);
      }

      .cls-63 {
        stroke: url(#Безымянный_градиент_40-61);
      }

      .cls-64 {
        stroke: url(#Безымянный_градиент_40-62);
      }

      .cls-65 {
        stroke: url(#Безымянный_градиент_40-63);
      }

      .cls-66 {
        stroke: url(#Безымянный_градиент_40-64);
      }

      .cls-67 {
        stroke: url(#Безымянный_градиент_40-65);
      }

      .cls-68 {
        stroke: url(#Безымянный_градиент_40-66);
      }

      .cls-69 {
        stroke: url(#Безымянный_градиент_40-67);
      }

      .cls-70 {
        stroke: url(#Безымянный_градиент_40-68);
      }

      .cls-71 {
        stroke: url(#Безымянный_градиент_40-69);
      }

      .cls-72 {
        stroke: url(#Безымянный_градиент_40-70);
      }

      .cls-73 {
        stroke: url(#Безымянный_градиент_40-71);
      }

      .cls-74 {
        stroke: url(#Безымянный_градиент_40-72);
      }

      .cls-75 {
        stroke: url(#Безымянный_градиент_40-73);
      }

      .cls-76 {
        stroke: url(#Безымянный_градиент_40-74);
      }

      .cls-77 {
        stroke: url(#Безымянный_градиент_40-75);
      }

      .cls-78 {
        stroke: url(#Безымянный_градиент_40-76);
      }

      .cls-79 {
        stroke: url(#Безымянный_градиент_40-77);
      }

      .cls-80 {
        stroke: url(#Безымянный_градиент_40-78);
      }

      .cls-104, .cls-106, .cls-107, .cls-81, .cls-94 {
        fill: #ca1146;
      }

      .cls-82, .cls-83, .cls-88 {
        stroke: #1a1a1a;
      }

      .cls-82, .cls-83 {
        fill-rule: evenodd;
      }

      .cls-83 {
        stroke-miterlimit: 10;
      }

      .cls-110, .cls-84, .cls-85, .cls-86, .cls-87, .cls-89 {
        stroke: #000;
      }

      .cls-84 {
        stroke-miterlimit: 1;
        stroke-width: 0.69px;
      }

      .cls-85 {
        stroke-width: 1.417px;
      }

      .cls-86 {
        stroke-width: 1.386px;
      }

      .cls-87 {
        stroke-width: 1.634px;
      }

      .cls-89 {
        stroke-width: 1.654px;
      }

      .cls-90 {
        fill: #292b2e;
      }

      .cls-91 {
        stroke: #333;
      }

      .cls-110, .cls-91 {
        stroke-width: 0.709px;
      }

      .cls-100, .cls-102, .cls-92, .cls-98, .cls-99 {
        isolation: isolate;
      }

      .cls-106, .cls-92, .cls-93 {
        font-size: 13px;
      }

      .cls-102, .cls-104, .cls-106, .cls-107, .cls-108, .cls-109, .cls-92, .cls-93, .cls-94 {
        font-family: TrebuchetMS, Trebuchet MS;
      }

      .cls-94 {
        font-size: 11px;
      }

      .cls-100, .cls-101, .cls-95, .cls-96, .cls-97, .cls-98, .cls-99 {
        font-size: 15px;
        font-family: TrebuchetMS-Bold, Trebuchet MS;
        font-weight: 700;
      }

      .cls-95 {
        letter-spacing: -0.055em;
      }

      .cls-97 {
        letter-spacing: -0.037em;
      }

      .cls-101, .cls-99 {
        letter-spacing: -0.018em;
      }

      .cls-100 {
        letter-spacing: -0.018em;
      }

      .cls-102, .cls-104 {
        font-size: 9px;
      }

      .cls-103 {
        letter-spacing: -0.047em;
      }

      .cls-105 {
        letter-spacing: -0.125em;
      }

      .cls-107 {
        font-size: 10px;
      }

      .cls-108, .cls-109 {
        font-size: 8px;
      }

      .cls-109 {
        letter-spacing: -0.055em;
      }
    </style>
    <linearGradient id="Безымянный_градиент_61" data-name="Безымянный градиент 61" x1="359.008" y1="163.088" x2="796.184" y2="163.088" gradientUnits="userSpaceOnUse">
      <stop offset="0.02" stop-color="#ca1146"/>
      <stop offset="0.312" stop-color="#ca1146" stop-opacity="0.753"/>
      <stop offset="0.52" stop-color="#ca1146" stop-opacity="0.6"/>
      <stop offset="0.597" stop-color="#ca1146" stop-opacity="0.477"/>
      <stop offset="0.777" stop-color="#ca1146" stop-opacity="0.22"/>
      <stop offset="0.912" stop-color="#ca1146" stop-opacity="0.06"/>
      <stop offset="0.986" stop-color="#ca1146" stop-opacity="0"/>
    </linearGradient>
    <linearGradient id="Безымянный_градиент_40" data-name="Безымянный градиент 40" x1="250.634" y1="622.98" x2="503.04" y2="622.98" gradientUnits="userSpaceOnUse">
      <stop offset="0.02" stop-color="#4d4d4d"/>
      <stop offset="1" stop-color="#333"/>
    </linearGradient>
    <linearGradient id="Безымянный_градиент_40-2" x1="630.187" y1="632.499" x2="676.99" y2="632.499" xlink:href="#Безымянный_градиент_40"/>
    <linearGradient id="Безымянный_градиент_40-3" x1="685.187" y1="632.499" x2="731.99" y2="632.499" xlink:href="#Безымянный_градиент_40"/>
    <linearGradient id="Безымянный_градиент_40-4" x1="685.187" y1="606.964" x2="731.99" y2="606.964" xlink:href="#Безымянный_градиент_40"/>
    <linearGradient id="Безымянный_градиент_40-5" x1="740.187" y1="632.499" x2="786.99" y2="632.499" xlink:href="#Безымянный_градиент_40"/>
    <linearGradient id="Безымянный_градиент_40-6" x1="128.652" y1="623.099" x2="175.073" y2="623.099" xlink:href="#Безымянный_градиент_40"/>
    <linearGradient id="Безымянный_градиент_40-7" x1="578.653" y1="623.099" x2="625.073" y2="623.099" xlink:href="#Безымянный_градиент_40"/>
    <linearGradient id="Безымянный_градиент_40-8" x1="184.652" y1="623.099" x2="241.856" y2="623.099" xlink:href="#Безымянный_градиент_40"/>
    <linearGradient id="Безымянный_градиент_40-9" x1="514.653" y1="623.099" x2="571.856" y2="623.099" xlink:href="#Безымянный_градиент_40"/>
    <linearGradient id="Безымянный_градиент_40-10" x1="75.069" y1="623.099" x2="121.49" y2="623.099" xlink:href="#Безымянный_градиент_40"/>
    <linearGradient id="Безымянный_градиент_40-11" x1="21.486" y1="623.099" x2="67.906" y2="623.099" xlink:href="#Безымянный_градиент_40"/>
    <linearGradient id="Безымянный_градиент_40-12" x1="19.562" y1="565.099" x2="134.723" y2="565.099" xlink:href="#Безымянный_градиент_40"/>
    <linearGradient id="Безымянный_градиент_40-13" x1="677.066" y1="565.099" x2="789.178" y2="565.099" xlink:href="#Безымянный_градиент_40"/>
    <linearGradient id="Безымянный_градиент_40-14" x1="19.562" y1="514.497" x2="108.01" y2="514.497" xlink:href="#Безымянный_градиент_40"/>
    <linearGradient id="Безымянный_градиент_40-15" x1="703.754" y1="513.497" x2="789.286" y2="513.497" xlink:href="#Безымянный_градиент_40"/>
    <linearGradient id="Безымянный_градиент_40-16" x1="19.562" y1="462.297" x2="93.226" y2="462.297" xlink:href="#Безымянный_градиент_40"/>
    <linearGradient id="Безымянный_градиент_40-17" x1="18.486" y1="408.467" x2="64.906" y2="408.467" xlink:href="#Безымянный_градиент_40"/>
    <linearGradient id="Безымянный_градиент_40-18" x1="72.319" y1="408.467" x2="118.74" y2="408.467" xlink:href="#Безымянный_градиент_40"/>
    <linearGradient id="Безымянный_градиент_40-19" x1="126.152" y1="408.467" x2="172.573" y2="408.467" xlink:href="#Безымянный_градиент_40"/>
    <linearGradient id="Безымянный_градиент_40-20" x1="179.986" y1="408.467" x2="226.406" y2="408.467" xlink:href="#Безымянный_градиент_40"/>
    <linearGradient id="Безымянный_градиент_40-21" x1="233.819" y1="408.467" x2="280.24" y2="408.467" xlink:href="#Безымянный_градиент_40"/>
    <linearGradient id="Безымянный_градиент_40-22" x1="287.652" y1="408.467" x2="334.073" y2="408.467" xlink:href="#Безымянный_градиент_40"/>
    <linearGradient id="Безымянный_градиент_40-23" x1="341.486" y1="408.467" x2="387.906" y2="408.467" xlink:href="#Безымянный_градиент_40"/>
    <linearGradient id="Безымянный_градиент_40-24" x1="395.319" y1="408.467" x2="441.74" y2="408.467" xlink:href="#Безымянный_градиент_40"/>
    <linearGradient id="Безымянный_градиент_40-25" x1="449.153" y1="408.467" x2="495.573" y2="408.467" xlink:href="#Безымянный_градиент_40"/>
    <linearGradient id="Безымянный_градиент_40-26" x1="502.986" y1="408.467" x2="549.406" y2="408.467" xlink:href="#Безымянный_градиент_40"/>
    <linearGradient id="Безымянный_градиент_40-27" x1="556.819" y1="408.467" x2="603.24" y2="408.467" xlink:href="#Безымянный_градиент_40"/>
    <linearGradient id="Безымянный_градиент_40-28" x1="610.653" y1="408.467" x2="657.073" y2="408.467" xlink:href="#Безымянный_градиент_40"/>
    <linearGradient id="Безымянный_градиент_40-29" x1="664.486" y1="408.467" x2="710.907" y2="408.467" xlink:href="#Безымянный_градиент_40"/>
    <linearGradient id="Безымянный_градиент_40-30" x1="744.486" y1="460.467" x2="790.907" y2="460.467" xlink:href="#Безымянный_градиент_40"/>
    <linearGradient id="Безымянный_градиент_40-31" x1="690.903" y1="460.467" x2="737.323" y2="460.467" xlink:href="#Безымянный_градиент_40"/>
    <linearGradient id="Безымянный_градиент_40-32" x1="637.319" y1="460.467" x2="683.74" y2="460.467" xlink:href="#Безымянный_градиент_40"/>
    <linearGradient id="Безымянный_градиент_40-33" x1="583.736" y1="460.467" x2="630.156" y2="460.467" xlink:href="#Безымянный_градиент_40"/>
    <linearGradient id="Безымянный_градиент_40-34" x1="530.153" y1="460.467" x2="576.573" y2="460.467" xlink:href="#Безымянный_градиент_40"/>
    <linearGradient id="Безымянный_градиент_40-35" x1="476.569" y1="460.467" x2="522.99" y2="460.467" xlink:href="#Безымянный_градиент_40"/>
    <linearGradient id="Безымянный_градиент_40-36" x1="422.986" y1="460.467" x2="469.406" y2="460.467" xlink:href="#Безымянный_градиент_40"/>
    <linearGradient id="Безымянный_градиент_40-37" x1="369.402" y1="460.467" x2="415.823" y2="460.467" xlink:href="#Безымянный_градиент_40"/>
    <linearGradient id="Безымянный_градиент_40-38" x1="315.819" y1="460.467" x2="362.24" y2="460.467" xlink:href="#Безымянный_градиент_40"/>
    <linearGradient id="Безымянный_градиент_40-39" x1="262.236" y1="460.467" x2="308.656" y2="460.467" xlink:href="#Безымянный_градиент_40"/>
    <linearGradient id="Безымянный_градиент_40-40" x1="208.652" y1="460.467" x2="255.073" y2="460.467" xlink:href="#Безымянный_градиент_40"/>
    <linearGradient id="Безымянный_градиент_40-41" x1="155.069" y1="460.467" x2="201.49" y2="460.467" xlink:href="#Безымянный_градиент_40"/>
    <linearGradient id="Безымянный_градиент_40-42" x1="101.486" y1="460.467" x2="147.906" y2="460.467" xlink:href="#Безымянный_градиент_40"/>
    <linearGradient id="Безымянный_градиент_40-43" x1="650.319" y1="513.467" x2="696.74" y2="513.467" xlink:href="#Безымянный_градиент_40"/>
    <linearGradient id="Безымянный_градиент_40-44" x1="596.736" y1="513.467" x2="643.157" y2="513.467" xlink:href="#Безымянный_градиент_40"/>
    <linearGradient id="Безымянный_градиент_40-45" x1="543.153" y1="513.467" x2="589.573" y2="513.467" xlink:href="#Безымянный_градиент_40"/>
    <linearGradient id="Безымянный_градиент_40-46" x1="489.569" y1="513.467" x2="535.99" y2="513.467" xlink:href="#Безымянный_градиент_40"/>
    <linearGradient id="Безымянный_градиент_40-47" x1="435.986" y1="513.467" x2="482.406" y2="513.467" xlink:href="#Безымянный_градиент_40"/>
    <linearGradient id="Безымянный_градиент_40-48" x1="382.402" y1="513.467" x2="428.823" y2="513.467" xlink:href="#Безымянный_градиент_40"/>
    <linearGradient id="Безымянный_градиент_40-49" x1="328.819" y1="513.467" x2="375.24" y2="513.467" xlink:href="#Безымянный_градиент_40"/>
    <linearGradient id="Безымянный_градиент_40-50" x1="275.236" y1="513.467" x2="321.656" y2="513.467" xlink:href="#Безымянный_градиент_40"/>
    <linearGradient id="Безымянный_градиент_40-51" x1="221.652" y1="513.467" x2="268.073" y2="513.467" xlink:href="#Безымянный_градиент_40"/>
    <linearGradient id="Безымянный_градиент_40-52" x1="168.069" y1="513.467" x2="214.49" y2="513.467" xlink:href="#Безымянный_градиент_40"/>
    <linearGradient id="Безымянный_градиент_40-53" x1="114.486" y1="513.467" x2="160.906" y2="513.467" xlink:href="#Безымянный_градиент_40"/>
    <linearGradient id="Безымянный_градиент_40-54" x1="622.736" y1="565.099" x2="669.157" y2="565.099" xlink:href="#Безымянный_градиент_40"/>
    <linearGradient id="Безымянный_градиент_40-55" x1="569.153" y1="565.099" x2="615.573" y2="565.099" xlink:href="#Безымянный_градиент_40"/>
    <linearGradient id="Безымянный_градиент_40-56" x1="515.569" y1="565.099" x2="561.99" y2="565.099" xlink:href="#Безымянный_градиент_40"/>
    <linearGradient id="Безымянный_градиент_40-57" x1="461.986" y1="565.099" x2="508.406" y2="565.099" xlink:href="#Безымянный_градиент_40"/>
    <linearGradient id="Безымянный_градиент_40-58" x1="408.403" y1="565.099" x2="454.823" y2="565.099" xlink:href="#Безымянный_градиент_40"/>
    <linearGradient id="Безымянный_градиент_40-59" x1="354.819" y1="565.099" x2="401.24" y2="565.099" xlink:href="#Безымянный_градиент_40"/>
    <linearGradient id="Безымянный_градиент_40-60" x1="301.236" y1="565.099" x2="347.656" y2="565.099" xlink:href="#Безымянный_градиент_40"/>
    <linearGradient id="Безымянный_градиент_40-61" x1="247.652" y1="565.099" x2="294.073" y2="565.099" xlink:href="#Безымянный_градиент_40"/>
    <linearGradient id="Безымянный_градиент_40-62" x1="194.069" y1="565.099" x2="240.49" y2="565.099" xlink:href="#Безымянный_градиент_40"/>
    <linearGradient id="Безымянный_градиент_40-63" x1="140.486" y1="565.099" x2="186.906" y2="565.099" xlink:href="#Безымянный_градиент_40"/>
    <linearGradient id="Безымянный_градиент_40-64" x1="718.486" y1="408.467" x2="790.954" y2="408.467" xlink:href="#Безымянный_градиент_40"/>
    <linearGradient id="Безымянный_градиент_40-65" x1="464.364" y1="364.131" x2="514.166" y2="364.131" xlink:href="#Безымянный_градиент_40"/>
    <linearGradient id="Безымянный_градиент_40-66" x1="408.53" y1="364.131" x2="458.333" y2="364.131" xlink:href="#Безымянный_градиент_40"/>
    <linearGradient id="Безымянный_градиент_40-67" x1="352.697" y1="364.131" x2="402.499" y2="364.131" xlink:href="#Безымянный_градиент_40"/>
    <linearGradient id="Безымянный_градиент_40-68" x1="296.864" y1="364.131" x2="346.666" y2="364.131" xlink:href="#Безымянный_градиент_40"/>
    <linearGradient id="Безымянный_градиент_40-69" x1="240.864" y1="364.131" x2="290.666" y2="364.131" xlink:href="#Безымянный_градиент_40"/>
    <linearGradient id="Безымянный_градиент_40-70" x1="184.864" y1="364.131" x2="234.666" y2="364.131" xlink:href="#Безымянный_градиент_40"/>
    <linearGradient id="Безымянный_градиент_40-71" x1="128.863" y1="364.131" x2="178.666" y2="364.131" xlink:href="#Безымянный_градиент_40"/>
    <linearGradient id="Безымянный_градиент_40-72" x1="72.863" y1="364.131" x2="122.666" y2="364.131" xlink:href="#Безымянный_градиент_40"/>
    <linearGradient id="Безымянный_градиент_40-73" x1="16.863" y1="364.131" x2="66.666" y2="364.131" xlink:href="#Безымянный_градиент_40"/>
    <linearGradient id="Безымянный_градиент_40-74" x1="520.197" y1="364.131" x2="570" y2="364.131" xlink:href="#Безымянный_градиент_40"/>
    <linearGradient id="Безымянный_градиент_40-75" x1="631.864" y1="364.131" x2="681.666" y2="364.131" xlink:href="#Безымянный_градиент_40"/>
    <linearGradient id="Безымянный_градиент_40-76" x1="687.364" y1="364.131" x2="737.166" y2="364.131" xlink:href="#Безымянный_градиент_40"/>
    <linearGradient id="Безымянный_градиент_40-77" x1="742.864" y1="364.131" x2="792.666" y2="364.131" xlink:href="#Безымянный_градиент_40"/>
    <linearGradient id="Безымянный_градиент_40-78" x1="576.03" y1="364.131" x2="625.833" y2="364.131" xlink:href="#Безымянный_градиент_40"/>
  </defs>
  <title>raspberry-pi-keyboard-original</title>
  <g>
    <path class="cls-1" d="M368.335,320.507s-2.849-65.17-3.639-121.64c-3.273-233.857,431.522-285.7,425.762,14.976"/>
    <rect class="cls-2" x="1.417" y="320.507" width="807.307" height="344.721" rx="18.757"/>
    <g>
      <g>
        <path id="use6268" class="cls-3" d="M252.31,600.693H501.363a1.193,1.193,0,0,1,1.181,1.2v42.165a1.193,1.193,0,0,1-1.181,1.205H252.31a1.193,1.193,0,0,1-1.18-1.205V601.9A1.193,1.193,0,0,1,252.31,600.693Z"/>
        <path id="use6276" class="cls-4" d="M632.071,619.731h43.035a1.5,1.5,0,0,1,1.388,1.6v22.344a1.5,1.5,0,0,1-1.388,1.6H632.071a1.5,1.5,0,0,1-1.388-1.6V621.327A1.5,1.5,0,0,1,632.071,619.731Z"/>
        <path id="use6276-2" data-name="use6276" class="cls-5" d="M687.071,619.731h43.035a1.5,1.5,0,0,1,1.388,1.6v22.344a1.5,1.5,0,0,1-1.388,1.6H687.071a1.5,1.5,0,0,1-1.388-1.6V621.327A1.5,1.5,0,0,1,687.071,619.731Z"/>
        <path id="use6276-3" data-name="use6276" class="cls-6" d="M687.071,594.2h43.035a1.5,1.5,0,0,1,1.388,1.6v22.343a1.5,1.5,0,0,1-1.388,1.6H687.071a1.5,1.5,0,0,1-1.388-1.6V595.792A1.5,1.5,0,0,1,687.071,594.2Z"/>
        <path id="use6276-4" data-name="use6276" class="cls-7" d="M742.071,619.731h43.035a1.5,1.5,0,0,1,1.388,1.6v22.344a1.5,1.5,0,0,1-1.388,1.6H742.071a1.5,1.5,0,0,1-1.388-1.6V621.327A1.5,1.5,0,0,1,742.071,619.731Z"/>
        <path id="rect3673" class="cls-8" d="M130.525,600.693H173.2a1.368,1.368,0,0,1,1.377,1.358v42.1a1.368,1.368,0,0,1-1.377,1.358H130.525a1.368,1.368,0,0,1-1.377-1.358v-42.1A1.368,1.368,0,0,1,130.525,600.693Z"/>
        <path id="rect3673-2" data-name="rect3673" class="cls-9" d="M580.525,600.693H623.2a1.367,1.367,0,0,1,1.377,1.358v42.1a1.367,1.367,0,0,1-1.377,1.358H580.525a1.367,1.367,0,0,1-1.376-1.358v-42.1A1.367,1.367,0,0,1,580.525,600.693Z"/>
        <path id="rect3673-3" data-name="rect3673" class="cls-10" d="M186.852,600.693h52.8a1.561,1.561,0,0,1,1.7,1.358v42.1a1.561,1.561,0,0,1-1.7,1.358h-52.8a1.561,1.561,0,0,1-1.7-1.358v-42.1A1.561,1.561,0,0,1,186.852,600.693Z"/>
        <path id="rect3673-4" data-name="rect3673" class="cls-11" d="M516.852,600.693h52.8a1.561,1.561,0,0,1,1.7,1.358v42.1a1.561,1.561,0,0,1-1.7,1.358h-52.8a1.56,1.56,0,0,1-1.7-1.358v-42.1A1.56,1.56,0,0,1,516.852,600.693Z"/>
        <path id="rect3673-5" data-name="rect3673" class="cls-12" d="M76.942,600.693h42.675a1.367,1.367,0,0,1,1.376,1.358v42.1a1.367,1.367,0,0,1-1.376,1.358H76.942a1.367,1.367,0,0,1-1.377-1.358v-42.1A1.367,1.367,0,0,1,76.942,600.693Z"/>
        <path id="rect3673-6" data-name="rect3673" class="cls-13" d="M23.358,600.693H66.033a1.367,1.367,0,0,1,1.377,1.358v42.1a1.367,1.367,0,0,1-1.377,1.358H23.358a1.367,1.367,0,0,1-1.376-1.358v-42.1A1.367,1.367,0,0,1,23.358,600.693Z"/>
      </g>
      <g>
        <path id="rect3505" class="cls-14" d="M21.666,542.693H132.619a1.5,1.5,0,0,1,1.608,1.358v42.1a1.5,1.5,0,0,1-1.608,1.358H21.666a1.5,1.5,0,0,1-1.608-1.358v-42.1A1.5,1.5,0,0,1,21.666,542.693Z"/>
        <path id="rect3551" class="cls-15" d="M678.666,542.693H787.578a1.251,1.251,0,0,1,1.1,1.358v42.1a1.251,1.251,0,0,1-1.1,1.358H678.666a1.251,1.251,0,0,1-1.1-1.358v-42.1A1.251,1.251,0,0,1,678.666,542.693Z"/>
        <path id="rect3553" class="cls-16" d="M21.708,492.09h84.156a1.526,1.526,0,0,1,1.65,1.358v42.1a1.526,1.526,0,0,1-1.65,1.358H21.708a1.526,1.526,0,0,1-1.65-1.358v-42.1A1.526,1.526,0,0,1,21.708,492.09Z"/>
        <path id="use3581" class="cls-17" d="M706.817,491.09h79.407c1.417,0,2.566.608,2.566,1.358v42.1c0,.75-1.149,1.358-2.566,1.358H706.817c-1.418,0-2.567-.608-2.567-1.358v-42.1C704.25,491.7,705.4,491.09,706.817,491.09Z"/>
        <path id="rect3611" class="cls-18" d="M21.831,439.891H90.958a1.607,1.607,0,0,1,1.772,1.358v42.1a1.607,1.607,0,0,1-1.772,1.358H21.831a1.608,1.608,0,0,1-1.773-1.358v-42.1A1.608,1.608,0,0,1,21.831,439.891Z"/>
        <path id="rect3673-7" data-name="rect3673" class="cls-19" d="M20.358,386.061H63.033a1.367,1.367,0,0,1,1.377,1.358v42.1a1.367,1.367,0,0,1-1.377,1.358H20.358a1.367,1.367,0,0,1-1.376-1.358v-42.1A1.367,1.367,0,0,1,20.358,386.061Z"/>
        <path id="rect3673-8" data-name="rect3673" class="cls-20" d="M74.192,386.061h42.675a1.367,1.367,0,0,1,1.376,1.358v42.1a1.367,1.367,0,0,1-1.376,1.358H74.192a1.367,1.367,0,0,1-1.377-1.358v-42.1A1.367,1.367,0,0,1,74.192,386.061Z"/>
        <path id="rect3673-9" data-name="rect3673" class="cls-21" d="M128.025,386.061H170.7a1.368,1.368,0,0,1,1.377,1.358v42.1a1.368,1.368,0,0,1-1.377,1.358H128.025a1.368,1.368,0,0,1-1.377-1.358v-42.1A1.368,1.368,0,0,1,128.025,386.061Z"/>
        <path id="rect3673-10" data-name="rect3673" class="cls-22" d="M181.858,386.061h42.676a1.367,1.367,0,0,1,1.376,1.358v42.1a1.367,1.367,0,0,1-1.376,1.358H181.858a1.367,1.367,0,0,1-1.376-1.358v-42.1A1.367,1.367,0,0,1,181.858,386.061Z"/>
        <path id="rect3673-11" data-name="rect3673" class="cls-23" d="M235.692,386.061h42.675a1.368,1.368,0,0,1,1.377,1.358v42.1a1.368,1.368,0,0,1-1.377,1.358H235.692a1.367,1.367,0,0,1-1.377-1.358v-42.1A1.367,1.367,0,0,1,235.692,386.061Z"/>
        <path id="rect3673-12" data-name="rect3673" class="cls-24" d="M289.525,386.061H332.2a1.367,1.367,0,0,1,1.377,1.358v42.1a1.367,1.367,0,0,1-1.377,1.358H289.525a1.368,1.368,0,0,1-1.377-1.358v-42.1A1.368,1.368,0,0,1,289.525,386.061Z"/>
        <path id="rect3673-13" data-name="rect3673" class="cls-25" d="M343.358,386.061h42.676a1.367,1.367,0,0,1,1.376,1.358v42.1a1.367,1.367,0,0,1-1.376,1.358H343.358a1.367,1.367,0,0,1-1.376-1.358v-42.1A1.367,1.367,0,0,1,343.358,386.061Z"/>
        <path id="rect3673-14" data-name="rect3673" class="cls-26" d="M397.192,386.061h42.675a1.368,1.368,0,0,1,1.377,1.358v42.1a1.368,1.368,0,0,1-1.377,1.358H397.192a1.368,1.368,0,0,1-1.377-1.358v-42.1A1.368,1.368,0,0,1,397.192,386.061Z"/>
        <path id="rect3673-15" data-name="rect3673" class="cls-27" d="M451.025,386.061H493.7a1.367,1.367,0,0,1,1.377,1.358v42.1a1.367,1.367,0,0,1-1.377,1.358H451.025a1.367,1.367,0,0,1-1.376-1.358v-42.1A1.367,1.367,0,0,1,451.025,386.061Z"/>
        <path id="rect3673-16" data-name="rect3673" class="cls-28" d="M504.859,386.061h42.675a1.367,1.367,0,0,1,1.376,1.358v42.1a1.367,1.367,0,0,1-1.376,1.358H504.859a1.367,1.367,0,0,1-1.377-1.358v-42.1A1.367,1.367,0,0,1,504.859,386.061Z"/>
        <path id="rect3673-17" data-name="rect3673" class="cls-29" d="M558.692,386.061h42.675a1.368,1.368,0,0,1,1.377,1.358v42.1a1.368,1.368,0,0,1-1.377,1.358H558.692a1.368,1.368,0,0,1-1.377-1.358v-42.1A1.368,1.368,0,0,1,558.692,386.061Z"/>
        <path id="rect3673-18" data-name="rect3673" class="cls-30" d="M612.525,386.061H655.2a1.367,1.367,0,0,1,1.377,1.358v42.1a1.367,1.367,0,0,1-1.377,1.358H612.525a1.367,1.367,0,0,1-1.376-1.358v-42.1A1.367,1.367,0,0,1,612.525,386.061Z"/>
        <path id="rect3673-19" data-name="rect3673" class="cls-31" d="M666.359,386.061h42.675a1.367,1.367,0,0,1,1.376,1.358v42.1a1.367,1.367,0,0,1-1.376,1.358H666.359a1.367,1.367,0,0,1-1.377-1.358v-42.1A1.367,1.367,0,0,1,666.359,386.061Z"/>
        <path id="rect3673-20" data-name="rect3673" class="cls-32" d="M746.359,438.061h42.675a1.368,1.368,0,0,1,1.377,1.358v42.1a1.368,1.368,0,0,1-1.377,1.358H746.359a1.367,1.367,0,0,1-1.377-1.358v-42.1A1.367,1.367,0,0,1,746.359,438.061Z"/>
        <path id="rect3673-21" data-name="rect3673" class="cls-33" d="M692.775,438.061h42.676a1.367,1.367,0,0,1,1.376,1.358v42.1a1.367,1.367,0,0,1-1.376,1.358H692.775a1.367,1.367,0,0,1-1.376-1.358v-42.1A1.367,1.367,0,0,1,692.775,438.061Z"/>
        <path id="rect3673-22" data-name="rect3673" class="cls-34" d="M639.192,438.061h42.675a1.368,1.368,0,0,1,1.377,1.358v42.1a1.368,1.368,0,0,1-1.377,1.358H639.192a1.368,1.368,0,0,1-1.377-1.358v-42.1A1.368,1.368,0,0,1,639.192,438.061Z"/>
        <path id="rect3673-23" data-name="rect3673" class="cls-35" d="M585.609,438.061h42.675a1.367,1.367,0,0,1,1.376,1.358v42.1a1.367,1.367,0,0,1-1.376,1.358H585.609a1.367,1.367,0,0,1-1.377-1.358v-42.1A1.367,1.367,0,0,1,585.609,438.061Z"/>
        <path id="rect3673-24" data-name="rect3673" class="cls-36" d="M532.025,438.061H574.7a1.367,1.367,0,0,1,1.377,1.358v42.1a1.367,1.367,0,0,1-1.377,1.358H532.025a1.367,1.367,0,0,1-1.376-1.358v-42.1A1.367,1.367,0,0,1,532.025,438.061Z"/>
        <path id="rect3673-25" data-name="rect3673" class="cls-37" d="M478.442,438.061h42.675a1.368,1.368,0,0,1,1.377,1.358v42.1a1.368,1.368,0,0,1-1.377,1.358H478.442a1.368,1.368,0,0,1-1.377-1.358v-42.1A1.368,1.368,0,0,1,478.442,438.061Z"/>
        <path id="rect3673-26" data-name="rect3673" class="cls-38" d="M424.859,438.061h42.675a1.367,1.367,0,0,1,1.376,1.358v42.1a1.367,1.367,0,0,1-1.376,1.358H424.859a1.367,1.367,0,0,1-1.377-1.358v-42.1A1.367,1.367,0,0,1,424.859,438.061Z"/>
        <path id="rect3673-27" data-name="rect3673" class="cls-39" d="M371.275,438.061H413.95a1.367,1.367,0,0,1,1.377,1.358v42.1a1.367,1.367,0,0,1-1.377,1.358H371.275a1.367,1.367,0,0,1-1.376-1.358v-42.1A1.367,1.367,0,0,1,371.275,438.061Z"/>
        <path id="rect3673-28" data-name="rect3673" class="cls-40" d="M317.692,438.061h42.675a1.368,1.368,0,0,1,1.377,1.358v42.1a1.368,1.368,0,0,1-1.377,1.358H317.692a1.368,1.368,0,0,1-1.377-1.358v-42.1A1.368,1.368,0,0,1,317.692,438.061Z"/>
        <path id="rect3673-29" data-name="rect3673" class="cls-41" d="M264.108,438.061h42.676a1.367,1.367,0,0,1,1.376,1.358v42.1a1.367,1.367,0,0,1-1.376,1.358H264.108a1.367,1.367,0,0,1-1.376-1.358v-42.1A1.367,1.367,0,0,1,264.108,438.061Z"/>
        <path id="rect3673-30" data-name="rect3673" class="cls-42" d="M210.525,438.061H253.2a1.367,1.367,0,0,1,1.377,1.358v42.1a1.367,1.367,0,0,1-1.377,1.358H210.525a1.368,1.368,0,0,1-1.377-1.358v-42.1A1.368,1.368,0,0,1,210.525,438.061Z"/>
        <path id="rect3673-31" data-name="rect3673" class="cls-43" d="M156.942,438.061h42.675a1.367,1.367,0,0,1,1.376,1.358v42.1a1.367,1.367,0,0,1-1.376,1.358H156.942a1.367,1.367,0,0,1-1.377-1.358v-42.1A1.367,1.367,0,0,1,156.942,438.061Z"/>
        <path id="rect3673-32" data-name="rect3673" class="cls-44" d="M103.358,438.061h42.676a1.367,1.367,0,0,1,1.376,1.358v42.1a1.367,1.367,0,0,1-1.376,1.358H103.358a1.367,1.367,0,0,1-1.376-1.358v-42.1A1.367,1.367,0,0,1,103.358,438.061Z"/>
        <path id="rect3673-33" data-name="rect3673" class="cls-45" d="M652.192,491.061h42.675a1.368,1.368,0,0,1,1.377,1.358v42.1a1.368,1.368,0,0,1-1.377,1.358H652.192a1.368,1.368,0,0,1-1.377-1.358v-42.1A1.368,1.368,0,0,1,652.192,491.061Z"/>
        <path id="rect3673-34" data-name="rect3673" class="cls-46" d="M598.609,491.061h42.675a1.367,1.367,0,0,1,1.376,1.358v42.1a1.367,1.367,0,0,1-1.376,1.358H598.609a1.367,1.367,0,0,1-1.377-1.358v-42.1A1.367,1.367,0,0,1,598.609,491.061Z"/>
        <path id="rect3673-35" data-name="rect3673" class="cls-47" d="M545.025,491.061H587.7a1.367,1.367,0,0,1,1.377,1.358v42.1a1.367,1.367,0,0,1-1.377,1.358H545.025a1.367,1.367,0,0,1-1.376-1.358v-42.1A1.367,1.367,0,0,1,545.025,491.061Z"/>
        <path id="rect3673-36" data-name="rect3673" class="cls-48" d="M491.442,491.061h42.675a1.368,1.368,0,0,1,1.377,1.358v42.1a1.368,1.368,0,0,1-1.377,1.358H491.442a1.368,1.368,0,0,1-1.377-1.358v-42.1A1.368,1.368,0,0,1,491.442,491.061Z"/>
        <path id="rect3673-37" data-name="rect3673" class="cls-49" d="M437.859,491.061h42.675a1.367,1.367,0,0,1,1.376,1.358v42.1a1.367,1.367,0,0,1-1.376,1.358H437.859a1.367,1.367,0,0,1-1.377-1.358v-42.1A1.367,1.367,0,0,1,437.859,491.061Z"/>
        <path id="rect3673-38" data-name="rect3673" class="cls-50" d="M384.275,491.061H426.95a1.367,1.367,0,0,1,1.377,1.358v42.1a1.367,1.367,0,0,1-1.377,1.358H384.275a1.367,1.367,0,0,1-1.376-1.358v-42.1A1.367,1.367,0,0,1,384.275,491.061Z"/>
        <path id="rect3673-39" data-name="rect3673" class="cls-51" d="M330.692,491.061h42.675a1.368,1.368,0,0,1,1.377,1.358v42.1a1.368,1.368,0,0,1-1.377,1.358H330.692a1.368,1.368,0,0,1-1.377-1.358v-42.1A1.368,1.368,0,0,1,330.692,491.061Z"/>
        <path id="rect3673-40" data-name="rect3673" class="cls-52" d="M277.108,491.061h42.676a1.367,1.367,0,0,1,1.376,1.358v42.1a1.367,1.367,0,0,1-1.376,1.358H277.108a1.367,1.367,0,0,1-1.376-1.358v-42.1A1.367,1.367,0,0,1,277.108,491.061Z"/>
        <path id="rect3673-41" data-name="rect3673" class="cls-53" d="M223.525,491.061H266.2a1.367,1.367,0,0,1,1.377,1.358v42.1a1.367,1.367,0,0,1-1.377,1.358H223.525a1.368,1.368,0,0,1-1.377-1.358v-42.1A1.368,1.368,0,0,1,223.525,491.061Z"/>
        <path id="rect3673-42" data-name="rect3673" class="cls-54" d="M169.942,491.061h42.675a1.368,1.368,0,0,1,1.377,1.358v42.1a1.368,1.368,0,0,1-1.377,1.358H169.942a1.367,1.367,0,0,1-1.377-1.358v-42.1A1.367,1.367,0,0,1,169.942,491.061Z"/>
        <path id="rect3673-43" data-name="rect3673" class="cls-55" d="M116.358,491.061h42.676a1.367,1.367,0,0,1,1.376,1.358v42.1a1.367,1.367,0,0,1-1.376,1.358H116.358a1.367,1.367,0,0,1-1.376-1.358v-42.1A1.367,1.367,0,0,1,116.358,491.061Z"/>
        <path id="rect3673-44" data-name="rect3673" class="cls-56" d="M624.609,542.693h42.675a1.367,1.367,0,0,1,1.376,1.358v42.1a1.367,1.367,0,0,1-1.376,1.358H624.609a1.367,1.367,0,0,1-1.377-1.358v-42.1A1.367,1.367,0,0,1,624.609,542.693Z"/>
        <path id="rect3673-45" data-name="rect3673" class="cls-57" d="M571.025,542.693H613.7a1.367,1.367,0,0,1,1.377,1.358v42.1a1.367,1.367,0,0,1-1.377,1.358H571.025a1.367,1.367,0,0,1-1.376-1.358v-42.1A1.367,1.367,0,0,1,571.025,542.693Z"/>
        <path id="rect3673-46" data-name="rect3673" class="cls-58" d="M517.442,542.693h42.675a1.368,1.368,0,0,1,1.377,1.358v42.1a1.368,1.368,0,0,1-1.377,1.358H517.442a1.368,1.368,0,0,1-1.377-1.358v-42.1A1.368,1.368,0,0,1,517.442,542.693Z"/>
        <path id="rect3673-47" data-name="rect3673" class="cls-59" d="M463.859,542.693h42.675a1.367,1.367,0,0,1,1.376,1.358v42.1a1.367,1.367,0,0,1-1.376,1.358H463.859a1.367,1.367,0,0,1-1.377-1.358v-42.1A1.367,1.367,0,0,1,463.859,542.693Z"/>
        <path id="rect3673-48" data-name="rect3673" class="cls-60" d="M410.275,542.693H452.95a1.367,1.367,0,0,1,1.377,1.358v42.1a1.367,1.367,0,0,1-1.377,1.358H410.275a1.367,1.367,0,0,1-1.376-1.358v-42.1A1.367,1.367,0,0,1,410.275,542.693Z"/>
        <path id="rect3673-49" data-name="rect3673" class="cls-61" d="M356.692,542.693h42.675a1.368,1.368,0,0,1,1.377,1.358v42.1a1.368,1.368,0,0,1-1.377,1.358H356.692a1.368,1.368,0,0,1-1.377-1.358v-42.1A1.368,1.368,0,0,1,356.692,542.693Z"/>
        <path id="rect3673-50" data-name="rect3673" class="cls-62" d="M303.108,542.693h42.676a1.367,1.367,0,0,1,1.376,1.358v42.1a1.367,1.367,0,0,1-1.376,1.358H303.108a1.367,1.367,0,0,1-1.376-1.358v-42.1A1.367,1.367,0,0,1,303.108,542.693Z"/>
        <path id="rect3673-51" data-name="rect3673" class="cls-63" d="M249.525,542.693H292.2a1.367,1.367,0,0,1,1.377,1.358v42.1a1.367,1.367,0,0,1-1.377,1.358H249.525a1.368,1.368,0,0,1-1.377-1.358v-42.1A1.368,1.368,0,0,1,249.525,542.693Z"/>
        <path id="rect3673-52" data-name="rect3673" class="cls-64" d="M195.942,542.693h42.675a1.368,1.368,0,0,1,1.377,1.358v42.1a1.368,1.368,0,0,1-1.377,1.358H195.942a1.367,1.367,0,0,1-1.377-1.358v-42.1A1.367,1.367,0,0,1,195.942,542.693Z"/>
        <path id="rect3673-53" data-name="rect3673" class="cls-65" d="M142.358,542.693h42.676a1.367,1.367,0,0,1,1.376,1.358v42.1a1.367,1.367,0,0,1-1.376,1.358H142.358a1.367,1.367,0,0,1-1.376-1.358v-42.1A1.367,1.367,0,0,1,142.358,542.693Z"/>
        <path id="rect3673-54" data-name="rect3673" class="cls-66" d="M721.148,386.061h67.144c1.2,0,2.166.608,2.166,1.358v42.1c0,.75-.97,1.358-2.166,1.358H721.148c-1.2,0-2.166-.608-2.166-1.358v-42.1C718.982,386.669,719.952,386.061,721.148,386.061Z"/>
      </g>
      <g>
        <path id="use3749" class="cls-67" d="M466.464,351.219h45.6c.887,0,1.6.5,1.6,1.123v23.579c0,.62-.718,1.122-1.6,1.122h-45.6c-.886,0-1.6-.5-1.6-1.122V352.342C464.86,351.722,465.578,351.219,466.464,351.219Z"/>
        <path id="use3749-2" data-name="use3749" class="cls-68" d="M410.631,351.219h45.6c.886,0,1.6.5,1.6,1.123v23.579c0,.62-.719,1.122-1.6,1.122h-45.6c-.886,0-1.6-.5-1.6-1.122V352.342C409.026,351.722,409.745,351.219,410.631,351.219Z"/>
        <path id="use3749-3" data-name="use3749" class="cls-69" d="M354.8,351.219h45.6c.886,0,1.6.5,1.6,1.123v23.579c0,.62-.718,1.122-1.6,1.122H354.8c-.887,0-1.605-.5-1.605-1.122V352.342C353.193,351.722,353.911,351.219,354.8,351.219Z"/>
        <path id="use3749-4" data-name="use3749" class="cls-70" d="M298.964,351.219h45.6c.887,0,1.605.5,1.605,1.123v23.579c0,.62-.718,1.122-1.605,1.122h-45.6c-.886,0-1.6-.5-1.6-1.122V352.342C297.36,351.722,298.078,351.219,298.964,351.219Z"/>
        <path id="use3749-5" data-name="use3749" class="cls-71" d="M242.964,351.219h45.6c.887,0,1.605.5,1.605,1.123v23.579c0,.62-.718,1.122-1.605,1.122h-45.6c-.886,0-1.6-.5-1.6-1.122V352.342C241.36,351.722,242.078,351.219,242.964,351.219Z"/>
        <path id="use3749-6" data-name="use3749" class="cls-72" d="M186.964,351.219h45.6c.886,0,1.6.5,1.6,1.123v23.579c0,.62-.719,1.122-1.6,1.122h-45.6c-.886,0-1.6-.5-1.6-1.122V352.342C185.36,351.722,186.078,351.219,186.964,351.219Z"/>
        <path id="use3749-7" data-name="use3749" class="cls-73" d="M130.964,351.219h45.6c.886,0,1.6.5,1.6,1.123v23.579c0,.62-.719,1.122-1.6,1.122h-45.6c-.886,0-1.6-.5-1.6-1.122V352.342C129.36,351.722,130.078,351.219,130.964,351.219Z"/>
        <path id="use3749-8" data-name="use3749" class="cls-74" d="M74.964,351.219h45.6c.886,0,1.605.5,1.605,1.123v23.579c0,.62-.719,1.122-1.605,1.122h-45.6c-.886,0-1.6-.5-1.6-1.122V352.342C73.36,351.722,74.078,351.219,74.964,351.219Z"/>
        <path id="use3749-9" data-name="use3749" class="cls-75" d="M18.964,351.219h45.6c.886,0,1.605.5,1.605,1.123v23.579c0,.62-.719,1.122-1.605,1.122h-45.6c-.886,0-1.6-.5-1.6-1.122V352.342C17.359,351.722,18.078,351.219,18.964,351.219Z"/>
        <path id="use3749-10" data-name="use3749" class="cls-76" d="M522.3,351.219h45.6c.886,0,1.6.5,1.6,1.123v23.579c0,.62-.718,1.122-1.6,1.122H522.3c-.886,0-1.605-.5-1.605-1.122V352.342C520.693,351.722,521.412,351.219,522.3,351.219Z"/>
        <path id="use3749-11" data-name="use3749" class="cls-77" d="M633.964,351.219h45.6c.886,0,1.6.5,1.6,1.123v23.579c0,.62-.718,1.122-1.6,1.122h-45.6c-.886,0-1.6-.5-1.6-1.122V352.342C632.36,351.722,633.078,351.219,633.964,351.219Z"/>
        <path id="use3749-12" data-name="use3749" class="cls-78" d="M689.464,351.219h45.6c.886,0,1.6.5,1.6,1.123v23.579c0,.62-.718,1.122-1.6,1.122h-45.6c-.886,0-1.6-.5-1.6-1.122V352.342C687.86,351.722,688.578,351.219,689.464,351.219Z"/>
        <path id="use3749-13" data-name="use3749" class="cls-79" d="M744.965,351.219h45.6c.886,0,1.6.5,1.6,1.123v23.579c0,.62-.718,1.122-1.6,1.122h-45.6c-.887,0-1.605-.5-1.605-1.122V352.342C743.36,351.722,744.078,351.219,744.965,351.219Z"/>
        <path id="use3749-14" data-name="use3749" class="cls-80" d="M578.131,351.219h45.6c.886,0,1.605.5,1.605,1.123v23.579c0,.62-.719,1.122-1.605,1.122h-45.6c-.886,0-1.605-.5-1.605-1.122V352.342C576.526,351.722,577.245,351.219,578.131,351.219Z"/>
      </g>
    </g>
    <path id="path8715-9-9-0" class="cls-81" d="M142.519,620.942a1.12,1.12,0,0,0,.306,0,1.763,1.763,0,0,0,.432-.169,8.255,8.255,0,0,0,.9-.529c.582-.423,1.156-.865,1.714-1.32.366-.3.7-.628,1.041-.954a4.353,4.353,0,0,0,1.039-1.354.153.153,0,0,0-.117-.237,4.3,4.3,0,0,0-5.21,3.135h0c-.037.151-.066.3-.088.457a3.735,3.735,0,0,0-.017.968m14.627-4.675a4.526,4.526,0,0,0-1.05.13c-.078.024-.124.06-.092.146a1.883,1.883,0,0,0,.151.362,3,3,0,0,0,.338.431c.322.339.643.687.98,1.016s.7.653,1.062.966c.236.2.493.379.738.568.081.06.151.134.234.188a9.577,9.577,0,0,0,1.482.888.7.7,0,0,0,.311.078c.117,0,.161-.013.169-.155v-.643a4.111,4.111,0,0,0-.485-1.692,4.28,4.28,0,0,0-3.827-2.276m6.928,9.218a4.3,4.3,0,0,0-.188-1.136,4.01,4.01,0,0,0-1.113-1.761,3.785,3.785,0,0,0-.944-.661.267.267,0,0,0-.327.071,1.212,1.212,0,0,0-.214.519,5.057,5.057,0,0,0-.124,1.239,8.023,8.023,0,0,0,.069,1c.088.55.158,1.107.274,1.653a7.118,7.118,0,0,0,.359,1.152,1.983,1.983,0,0,0,.648.955.2.2,0,0,0,.259.01.575.575,0,0,0,.113-.1,4.131,4.131,0,0,0,1.185-2.949M142.9,624.135c-.027-.338-.031-.558-.058-.78a1.835,1.835,0,0,0-.374-1.115c-.135-.144-.221-.193-.4-.108a1.866,1.866,0,0,0-.294.169,4.062,4.062,0,0,0-1.636,2.266,3.975,3.975,0,0,0-.073,1.92,4.087,4.087,0,0,0,1.063,2.03.293.293,0,0,0,.3.122.636.636,0,0,0,.274-.144,2.837,2.837,0,0,0,.383-.522,6.214,6.214,0,0,0,.45-1.219,7.7,7.7,0,0,0,.169-.8c.047-.2.083-.4.11-.606.035-.445.057-.892.079-1.23m9.264,14.678a4.079,4.079,0,0,0,1.548-.289,4.545,4.545,0,0,0,2.068-1.615.588.588,0,0,0,.095-.519.886.886,0,0,0-.378-.447,2.186,2.186,0,0,0-.473-.232,4.008,4.008,0,0,0-1-.3c-.315-.042-.628-.078-.942-.111a5.926,5.926,0,0,0-.623-.053c-.205,0-.409.037-.614.034a8.3,8.3,0,0,0-1.457.181,5,5,0,0,0-.92.293,1.315,1.315,0,0,0-.17.069c-.209.133-.412.277-.607.43a.56.56,0,0,0-.118.782l.01.013a4.211,4.211,0,0,0,.991.953,4.4,4.4,0,0,0,2.6.814m.095-19.242a5.373,5.373,0,0,0,1.565-.206,3.756,3.756,0,0,0,.794-.338,2.971,2.971,0,0,0,.5-.325,1.452,1.452,0,0,0,.24-.285.979.979,0,0,0,.063-1.2,2.838,2.838,0,0,0-.8-.828,4.252,4.252,0,0,0-4.538-.4,3.844,3.844,0,0,0-1.255,1,1.14,1.14,0,0,0-.236.7,1.218,1.218,0,0,0,.278.687,1.81,1.81,0,0,0,.717.58,5.149,5.149,0,0,0,2.677.614m-5.922,15.824h.1a1.1,1.1,0,0,0,.888-.371c.074-.091.15-.184.216-.279a.49.49,0,0,0,.085-.169c.037-.169.069-.339.1-.52a1.805,1.805,0,0,0-.033-.746c-.027-.1-.042-.193-.069-.289a2.463,2.463,0,0,0-.11-.454c-.134-.316-.286-.624-.442-.93a6.8,6.8,0,0,0-1.335-1.67,3.818,3.818,0,0,0-.507-.425,4.663,4.663,0,0,0-.9-.507,2.716,2.716,0,0,0-1.14-.17,1.041,1.041,0,0,0-.11.016,1.1,1.1,0,0,0-.587.338,1.5,1.5,0,0,0-.232.321,2.325,2.325,0,0,0-.191.755,4.684,4.684,0,0,0,.1,1.592,4.509,4.509,0,0,0,.9,1.814,4.574,4.574,0,0,0,1.692,1.3,4.511,4.511,0,0,0,1.582.384m10.062-1.785c.01.144.017.289.032.436a2.676,2.676,0,0,0,.048.378,1.39,1.39,0,0,0,.272.524.63.63,0,0,0,.161.18,1.373,1.373,0,0,0,.792.262,4.513,4.513,0,0,0,1.184-.161,4.566,4.566,0,0,0,2.306-1.438,4.437,4.437,0,0,0,1.055-2.279,5.3,5.3,0,0,0,.055-.89,4.407,4.407,0,0,0-.257-1.354,1.4,1.4,0,0,0-.387-.607,1.184,1.184,0,0,0-.934-.286,2.3,2.3,0,0,0-.846.213,4.005,4.005,0,0,0-.474.256c-.227.153-.428.338-.648.507a5,5,0,0,0-.936.958c-.193.25-.353.528-.534.787a4.932,4.932,0,0,0-.716,1.576,3.716,3.716,0,0,0-.169.946m-.423-2.939c-.01-.138-.01-.275-.032-.409-.048-.24-.093-.482-.158-.717a3.048,3.048,0,0,0-.377-.725,1.959,1.959,0,0,0-.149-.226,3.557,3.557,0,0,0-.646-.628,3.163,3.163,0,0,0-.86-.508c-.193-.071-.4-.116-.595-.181a3.283,3.283,0,0,0-1.234-.137,4.02,4.02,0,0,0-1.309.31,3.548,3.548,0,0,0-1.692,1.328c-.1.154-.191.315-.283.47a2.448,2.448,0,0,0-.274.748,3.215,3.215,0,0,0,.491,2.572,3.689,3.689,0,0,0,1.624,1.327,4.061,4.061,0,0,0,3.328-.049,3.657,3.657,0,0,0,1.779-1.66,3.227,3.227,0,0,0,.392-1.51m-2.915-7.707c0,.094.02.231.02.366a3.172,3.172,0,0,0,.215,1.147,7.275,7.275,0,0,0,.567,1.134,6.006,6.006,0,0,0,.568.677,3.3,3.3,0,0,0,1.122.846,5.181,5.181,0,0,0,.619.275,3.045,3.045,0,0,0,2.5-.169,2.8,2.8,0,0,0,1.364-1.628,3.907,3.907,0,0,0,.1-2.238,4.762,4.762,0,0,0-1.015-2.03,4.26,4.26,0,0,0-2.454-1.491,3.022,3.022,0,0,0-1.575.09,2.82,2.82,0,0,0-1.653,1.438,3.594,3.594,0,0,0-.384,1.595m-9.106,1.405h.027v.122c0,.04.01.086.01.128a3.344,3.344,0,0,0,.447,1.56,3.028,3.028,0,0,0,1.692,1.384,3.38,3.38,0,0,0,1.616.12,3.737,3.737,0,0,0,1.453-.577,3.921,3.921,0,0,0,.8-.677,5.768,5.768,0,0,0,.774-1.038,3.7,3.7,0,0,0,.414-1.053,8.368,8.368,0,0,0,.136-1.083,2.831,2.831,0,0,0-.127-.993c-.038-.123-.088-.242-.134-.365a2.786,2.786,0,0,0-.936-1.31,3.13,3.13,0,0,0-2.242-.677,3.752,3.752,0,0,0-1.169.3,4.647,4.647,0,0,0-2.607,3.1c-.081.339-.112.7-.169,1.046m1.549-8.942c.17.012.319.036.469.036a6.2,6.2,0,0,0,2.426-.522,2.117,2.117,0,0,0,1.239-1.409.152.152,0,0,0-.042-.179c-.351-.339-.677-.689-1.048-1a25.311,25.311,0,0,0-4.615-3.035c-.07-.037-.141-.069-.208-.1s-.139-.066-.209-.1a.147.147,0,0,1,.066,0,22.283,22.283,0,0,1,3.6,1.5,16.144,16.144,0,0,1,3.083,2.021.12.12,0,0,0,.1.013,1.73,1.73,0,0,0,1.066-2.015,5.044,5.044,0,0,0-1.184-2.369c-.092-.106-.2-.2-.31-.313a.845.845,0,0,1-.193.508,6.212,6.212,0,0,0-1.067-1.142,3.5,3.5,0,0,1,0,.355.3.3,0,0,1-.222.251,3,3,0,0,0-.951-.857.411.411,0,0,1,.042.44c-.079.185-.11.19-.259.056a3.26,3.26,0,0,0-.981-.636.67.67,0,0,0-.115-.037,2.875,2.875,0,0,1,.169.24.27.27,0,0,1,.022.261c-.049.113-.1.128-.2.06a3.473,3.473,0,0,0-1.354-.507c.032.034.071.052.1.079a1.859,1.859,0,0,1,.24.29c.031.049,0,.135,0,.2a.89.89,0,0,1-.193,0c-.271-.076-.538-.169-.81-.241a4.4,4.4,0,0,0-.44-.064,1.489,1.489,0,0,0,.169.149.341.341,0,0,1,.122.252c.01.127-.031.169-.193.142-.291-.066-.579-.152-.872-.2a1.7,1.7,0,0,0-.727.035l.42.42a7.108,7.108,0,0,1-1.61.037,3.223,3.223,0,0,1,.626,1.246c-.241-.012-.468-.026-.71-.036.042.069.083.139.13.2a3.178,3.178,0,0,0,.712.677.3.3,0,0,1,.139.244c-.169.076-.227.076-.744,0a6.919,6.919,0,0,0,1.088,1.1.445.445,0,0,1-.32.117,3.219,3.219,0,0,1-.339-.024c0,.01.017.024.021.034a5.368,5.368,0,0,0,1.1.861.934.934,0,0,1,.107.091v.036a1.847,1.847,0,0,1-.306.09,3.027,3.027,0,0,1-.33,0l.037.037a5.678,5.678,0,0,0,1.353.795c.048.024.082.047.134.078a.81.81,0,0,1-.626.191,1.437,1.437,0,0,0,.213.129,7.918,7.918,0,0,0,1.254.418.918.918,0,0,1,.12.054c-.11.206-.308.245-.507.3a.288.288,0,0,0,.059.027,3.651,3.651,0,0,0,.952.2c.17.013.356.013.532.037a.894.894,0,0,1,.216.086.852.852,0,0,1-.128.2,2.585,2.585,0,0,1-.307.186m12.971-.428a2.976,2.976,0,0,1,.388-.058,4.283,4.283,0,0,0,1.275-.21c.031-.01.061-.027.109-.047a.658.658,0,0,1-.508-.3,1.136,1.136,0,0,1,.125-.052c.367-.119.734-.23,1.1-.354a2.671,2.671,0,0,0,.369-.179.061.061,0,0,1,0-.027.758.758,0,0,1-.624-.181,1.211,1.211,0,0,1,.135-.078c.259-.134.526-.256.778-.4.217-.127.422-.284.63-.428a.3.3,0,0,1-.017-.027.824.824,0,0,1-.66-.1,1.276,1.276,0,0,1,.112-.095c.181-.123.369-.235.539-.367.209-.169.4-.338.6-.507l-.017-.024a.763.763,0,0,1-.652-.09,6.657,6.657,0,0,0,1.1-1.111,1.084,1.084,0,0,1-.755.023.3.3,0,0,1,.144-.252,7.265,7.265,0,0,0,.557-.5,3.576,3.576,0,0,0,.3-.385c-.259.011-.486.026-.743.036.1-.235.169-.45.264-.653s.23-.394.347-.592a7.258,7.258,0,0,1-1.58-.038l.412-.424a2.381,2.381,0,0,0-.966,0c-.211.042-.414.108-.621.169-.13.037-.2-.01-.191-.144a.387.387,0,0,1,.2-.318c.03-.024.062-.037.115-.073a2.239,2.239,0,0,0-.694.11c-.208.059-.413.134-.618.2-.137.047-.192,0-.169-.137a.452.452,0,0,1,.178-.295c.059-.052.122-.1.189-.152h-.027a3.584,3.584,0,0,0-1.353.531.092.092,0,0,1-.13,0,.112.112,0,0,1-.019-.029.291.291,0,0,1,0-.338c.049-.076.113-.144.169-.215l-.01-.027c-.188.1-.384.179-.56.293-.2.133-.386.291-.575.443-.1.081-.127.081-.188-.034a.433.433,0,0,1,0-.485,1.574,1.574,0,0,0-.186.1,3.5,3.5,0,0,0-.745.738c-.216-.073-.262-.208-.211-.617a6.439,6.439,0,0,0-1.086,1.157.965.965,0,0,1-.205-.508,3.682,3.682,0,0,0-.317.32,5.21,5.21,0,0,0-1.155,2.25,1.887,1.887,0,0,0-.017.887,1.791,1.791,0,0,0,1.074,1.223.1.1,0,0,0,.093-.027c.249-.194.489-.4.741-.583a18.565,18.565,0,0,1,2.846-1.692,23.032,23.032,0,0,1,2.777-1.151l.352-.112a.509.509,0,0,1-.137.088A26.944,26.944,0,0,0,156.9,611.5a13.311,13.311,0,0,0-2.069,1.812.136.136,0,0,0-.037.149,2.157,2.157,0,0,0,1.318,1.462,6.345,6.345,0,0,0,2.125.482c.227.01.454-.01.677-.014-.169-.121-.384-.169-.43-.438m-5.922,25.179h-.846a.541.541,0,0,1-.081-.024,5.474,5.474,0,0,1-1.721-.415,5.814,5.814,0,0,1-2.049-1.414.5.5,0,0,0-.169-.127,12.366,12.366,0,0,1-2.8-1.492,3.072,3.072,0,0,0-.809-.508,2.235,2.235,0,0,1-.318-.157,5.924,5.924,0,0,1-2-1.789,6.065,6.065,0,0,1-.958-2.2,2.939,2.939,0,0,0-.127-.557,13.341,13.341,0,0,1-.677-2.081.369.369,0,0,0-.057-.146,5.786,5.786,0,0,1-.731-1.1,5.068,5.068,0,0,1-.5-1.486c-.037-.215-.062-.431-.093-.644v-.63a.593.593,0,0,1,.021-.11c.037-.265.057-.538.116-.8a5.373,5.373,0,0,1,1.907-3.046,1.117,1.117,0,0,0,.427-.521.673.673,0,0,0,.052-.242,5.662,5.662,0,0,1,2.369-4.738c.093-.067.188-.13.286-.2a1.161,1.161,0,0,1-.726-.677c-.01-.027-.047-.047-.073-.061-.145-.074-.3-.14-.44-.223a1.186,1.186,0,0,1-.626-.846.188.188,0,0,0-.066-.093c-.169-.132-.33-.256-.487-.393a.941.941,0,0,1-.348-.641.64.64,0,0,0-.234-.459.988.988,0,0,1-.338-.795.623.623,0,0,0-.17-.489,1.1,1.1,0,0,1-.243-.978.209.209,0,0,0-.032-.184.545.545,0,0,1-.065-.112,1.155,1.155,0,0,1,.027-1.206.129.129,0,0,0,0-.1,1.1,1.1,0,0,1-.077-.692,1.12,1.12,0,0,1,1.289-.89.12.12,0,0,0,.12-.042,1.1,1.1,0,0,1,.558-.372,2.552,2.552,0,0,1,.8-.1.36.36,0,0,0,.3-.1.766.766,0,0,1,.181-.111,1.4,1.4,0,0,1,.738-.109.191.191,0,0,0,.159-.049,1.074,1.074,0,0,1,.626-.236,2.837,2.837,0,0,1,.727.1.2.2,0,0,0,.146-.023,1.057,1.057,0,0,1,.783-.12c.208.052.405.14.608.208a.279.279,0,0,0,.122,0,4.508,4.508,0,0,1,.467-.054,1.435,1.435,0,0,1,.676.248.168.168,0,0,0,.129.026,1.1,1.1,0,0,1,.947.184c.17.12.31.259.464.389a.169.169,0,0,0,.1.048,1.184,1.184,0,0,1,.858.318,5.592,5.592,0,0,1,1.208,1.568c.1.2.2.4.295.606a.957.957,0,0,0,.042-.105,5.751,5.751,0,0,1,1.5-2.1,1.116,1.116,0,0,1,.8-.282.207.207,0,0,0,.1-.043c.087-.077.17-.159.263-.238a1.191,1.191,0,0,1,1.015-.357.578.578,0,0,0,.424-.087,1.006,1.006,0,0,1,.769-.155.947.947,0,0,0,.658-.088,1.12,1.12,0,0,1,.966-.01.509.509,0,0,0,.4.034.891.891,0,0,1,.21-.043,1.157,1.157,0,0,1,1.027.23.132.132,0,0,0,.1.027,1.307,1.307,0,0,1,1.047.293.119.119,0,0,0,.093.025c.21.014.417.014.623.043a1.234,1.234,0,0,1,.856.441.13.13,0,0,0,.1.036,1.105,1.105,0,0,1,1.082.433,1.083,1.083,0,0,1,.133,1.144.139.139,0,0,0,.01.134,1.092,1.092,0,0,1,.17.641,1.5,1.5,0,0,1-.227.677.272.272,0,0,0-.027.143,1.11,1.11,0,0,1-.169.907c-.068.1-.144.188-.214.283a.164.164,0,0,0-.027.1,1.017,1.017,0,0,1-.138.726,4.743,4.743,0,0,1-.351.423.287.287,0,0,0-.057.137,1.081,1.081,0,0,1-.3.731c-.169.169-.37.305-.552.46a.279.279,0,0,0-.077.117,1.04,1.04,0,0,1-.366.631,3.086,3.086,0,0,1-.536.339.586.586,0,0,0-.313.289,1.182,1.182,0,0,1-.777.58c-.054.014-.106.038-.142.048.249.211.508.413.745.634a5.4,5.4,0,0,1,1.184,1.636,5.474,5.474,0,0,1,.55,2.323.9.9,0,0,0,.123.484.825.825,0,0,0,.193.219,6.854,6.854,0,0,1,.64.531,5.372,5.372,0,0,1,1.643,3.819,7.658,7.658,0,0,1-.054.8,5.069,5.069,0,0,1-.472,1.6,5.476,5.476,0,0,1-.74,1.15.373.373,0,0,0-.059.122c-.113.415-.21.831-.339,1.24a2.366,2.366,0,0,0-.109.657,5.07,5.07,0,0,1-.268,1.544,5.876,5.876,0,0,1-1.23,2.154,5.953,5.953,0,0,1-2.511,1.655,1.031,1.031,0,0,0-.262.119,12.317,12.317,0,0,1-2.765,1.551.386.386,0,0,0-.11.078,5.874,5.874,0,0,1-1.993,1.484,5.5,5.5,0,0,1-1.6.463c-.119.011-.234.034-.35.053"/>
    <path id="path5382" class="cls-82" d="M25.056,471.823"/>
    <path id="path3532" class="cls-83" d="M717.16,612.2"/>
    <path id="path4323" class="cls-83" d="M717.138,628.4"/>
    <path id="path4325" class="cls-83" d="M673.91,634.391"/>
    <path id="path4327" class="cls-83" d="M760.688,634.415"/>
    <path id="path4803" class="cls-84" d="M26.754,569.508l5.558-4.2,5.746,4.2h-2.29l-.024,4.839H29.055v-4.839Z"/>
    <path id="path4803-2" data-name="path4803" class="cls-84" d="M682.754,569.508l5.558-4.2,5.746,4.2h-2.289l-.024,4.839h-6.69v-4.839Z"/>
    <g>
      <line class="cls-85" x1="732.129" y1="411.411" x2="747.11" y2="411.411"/>
      <polygon points="733.328 415.51 726.23 411.411 733.328 407.313 733.328 415.51"/>
    </g>
    <g>
      <line class="cls-85" x1="697.808" y1="637.04" x2="697.808" y2="628.397"/>
      <polygon points="701.907 635.841 697.808 642.939 693.71 635.841 701.907 635.841"/>
    </g>
    <g>
      <line class="cls-85" x1="756.733" y1="634.391" x2="748.089" y2="634.391"/>
      <polygon points="755.533 630.292 762.631 634.391 755.533 638.49 755.533 630.292"/>
    </g>
    <g>
      <line class="cls-85" x1="638.988" y1="634.391" x2="647.631" y2="634.391"/>
      <polygon points="640.187 638.49 633.089 634.391 640.187 630.293 640.187 638.49"/>
    </g>
    <g>
      <line class="cls-86" x1="697.808" y1="604.494" x2="697.808" y2="613.266"/>
      <polygon points="693.799 605.667 697.808 598.725 701.817 605.667 693.799 605.667"/>
    </g>
    <g>
      <path id="path5384" class="cls-87" d="M27.255,460.259v6.048"/>
      <g>
        <line class="cls-85" x1="33.154" y1="463.283" x2="44.654" y2="463.283"/>
        <polygon points="34.353 467.382 27.255 463.283 34.353 459.185 34.353 467.382"/>
      </g>
    </g>
    <g>
      <path id="path5384-2" data-name="path5384" class="cls-87" d="M44.654,475.307v-6.048"/>
      <g>
        <line class="cls-85" x1="38.755" y1="472.283" x2="27.255" y2="472.283"/>
        <polygon points="37.556 468.184 44.654 472.283 37.556 476.382 37.556 468.184"/>
      </g>
    </g>
    <line class="cls-88" x1="751.016" y1="444.051" x2="751.016" y2="455.395"/>
    <line class="cls-88" x1="752.346" y1="458.163" x2="754.65" y2="467.283"/>
    <path id="path5380" class="cls-82" d="M41.581,462.1"/>
    <g>
      <polyline class="cls-89" points="717.293 518.283 728.25 518.283 728.226 511.521"/>
      <polygon points="718.693 523.066 710.41 518.283 718.693 513.501 718.693 523.066"/>
    </g>
    <g>
      <rect class="cls-90" x="688.626" y="334.347" width="7.44" height="7.44" rx="3.72"/>
      <rect class="cls-90" x="710.876" y="334.347" width="7.44" height="7.44" rx="3.72"/>
      <rect class="cls-90" x="733.126" y="334.347" width="7.44" height="7.44" rx="3.72"/>
    </g>
    <rect class="cls-91" x="688.938" y="325.107" width="6.816" height="7.2"/>
    <rect class="cls-91" x="711.188" y="325.107" width="6.816" height="7.2"/>
    <rect class="cls-91" x="733.438" y="325.107" width="6.816" height="7.2"/>
    <g>
      <text class="cls-92" transform="translate(710.411 506.521) scale(0.949 1)">Enter</text>
      <text class="cls-92" transform="translate(26.103 615.899) scale(0.949 1)">Ctrl</text>
      <text class="cls-92" transform="translate(190.72 615.899) scale(0.949 1)">Alt</text>
      <text class="cls-92" transform="translate(520.065 615.899) scale(0.949 1)">Alt</text>
      <text class="cls-92" transform="translate(584.503 615.899) scale(0.949 1)">Ctrl</text>
      <text class="cls-92" transform="translate(24.255 508.521) scale(0.949 1)">Caps<tspan x="0" y="15.6">Lock</tspan></text>
      <text class="cls-92" transform="translate(26.103 560.359) scale(0.949 1)">Shift</text>
      <text class="cls-93" transform="translate(77.946 414.982) scale(0.949 1)">1</text>
      <text class="cls-93" transform="translate(132.961 414.982) scale(0.949 1)">2</text>
      <text class="cls-93" transform="translate(186.986 414.982) scale(0.949 1)">3</text>
      <text class="cls-93" transform="translate(241.36 414.982) scale(0.949 1)">4</text>
      <text class="cls-93" transform="translate(294.7 413.662) scale(0.949 1)">5</text>
      <text class="cls-93" transform="translate(348.134 413.662) scale(0.949 1)">6</text>
      <text class="cls-93" transform="translate(403.151 413.662) scale(0.949 1)">7</text>
      <text class="cls-94" transform="translate(430.799 398.689)">7</text>
      <text class="cls-93" transform="translate(457.159 413.662) scale(0.949 1)">8</text>
      <text class="cls-94" transform="translate(484.999 398.689)">8</text>
      <text class="cls-93" transform="translate(511.5 413.662) scale(0.949 1)">9</text>
      <text class="cls-94" transform="translate(539.608 397.918)">9</text>
      <text class="cls-93" transform="translate(565.53 413.662) scale(0.949 1)">0</text>
      <text class="cls-92" transform="translate(614.931 413.662) scale(0.949 1)">-</text>
      <text class="cls-92" transform="translate(671.146 413.662) scale(0.949 1)">=</text>
      <text class="cls-92" transform="translate(22.46 414.982) scale(0.949 1)">`</text>
      <text class="cls-92" transform="translate(683.244 556.711) scale(0.949 1)">Shift</text>
      <text class="cls-95" transform="translate(121.273 510.417) scale(0.949 1)">A</text>
      <text class="cls-96" transform="translate(175.368 510.417) scale(0.949 1)">S</text>
      <text class="cls-96" transform="translate(228.609 508.521) scale(0.949 1)">D</text>
      <text class="cls-96" transform="translate(283.003 510.417) scale(0.949 1)">F</text>
      <text class="cls-96" transform="translate(336.85 510.417) scale(0.949 1)">G</text>
      <text class="cls-96" transform="translate(389.868 508.521) scale(0.949 1)">H</text>
      <text class="cls-96" transform="translate(446.196 508.521) scale(0.949 1)">J</text>
      <text class="cls-96" transform="translate(496.734 508.521) scale(0.949 1)">K</text>
      <text class="cls-97" transform="translate(551.896 506.521) scale(0.949 1)">L</text>
      <text class="cls-96" transform="translate(148.345 562.157) scale(0.949 1)">Z</text>
      <text class="cls-96" transform="translate(200.993 563.309) scale(0.949 1)">X</text>
      <text class="cls-96" transform="translate(255.979 562.157) scale(0.949 1)">C</text>
      <text class="cls-96" transform="translate(309.989 562.157) scale(0.949 1)">V</text>
      <text class="cls-96" transform="translate(363.421 561.197) scale(0.949 1)">B</text>
      <text class="cls-96" transform="translate(415.973 560.359) scale(0.949 1)">N</text>
      <text class="cls-96" transform="translate(471.772 559.277) scale(0.949 1)">M</text>
      <text class="cls-92" transform="translate(602.744 526.92) scale(0.949 1)">;</text>
      <text class="cls-92" transform="translate(657.895 520.785) scale(0.949 1)">&apos;</text>
      <text class="cls-92" transform="translate(522.494 571.373) scale(0.949 1)">,</text>
      <text class="cls-92" transform="translate(577.538 571.373) scale(0.949 1)">.</text>
      <text class="cls-92" transform="translate(630.683 571.373) scale(0.949 1)">/</text>
      <text class="cls-98" transform="translate(105.846 456.974) scale(0.949 1)">Q</text>
      <text class="cls-98" transform="translate(160.539 456.615) scale(0.949 1)">W</text>
      <text class="cls-98" transform="translate(215.093 455.395) scale(0.949 1)">E</text>
      <text class="cls-98" transform="translate(269.477 455.395) scale(0.949 1)">R</text>
      <text class="cls-99" transform="translate(321.499 455.395) scale(0.949 1)">T</text>
      <text class="cls-100" transform="translate(375.89 455.395) scale(0.949 1)">Y</text>
      <text class="cls-98" transform="translate(430.799 455.395) scale(0.949 1)">U</text>
      <text class="cls-96" transform="translate(483.393 455.395) scale(0.949 1)">I</text>
      <text class="cls-96" transform="translate(536.767 456.615) scale(0.949 1)">O</text>
      <text class="cls-101" transform="translate(592.328 455.395) scale(0.949 1)">P</text>
      <text class="cls-92" transform="translate(642.481 453.816) scale(0.949 1)">{</text>
      <text class="cls-92" transform="translate(695.856 453.816) scale(0.949 1)">}</text>
      <text class="cls-92" transform="translate(616.354 398.688) scale(0.949 1)">_</text>
      <text class="cls-92" transform="translate(671.146 399.721) scale(0.949 1)">+</text>
      <text class="cls-92" transform="translate(602.744 504.287) scale(0.949 1)">:</text>
      <text class="cls-92" transform="translate(657.328 506.521) scale(0.949 1)">&quot;</text>
      <text class="cls-92" transform="translate(522.494 556.711) scale(0.949 1)">&lt;</text>
      <text class="cls-92" transform="translate(577.538 556.711) scale(0.949 1)">&gt;</text>
      <text class="cls-92" transform="translate(630.683 556.711) scale(0.949 1)">?</text>
      <text class="cls-92" transform="translate(643.346 468.153) scale(0.949 1)">[</text>
      <text class="cls-92" transform="matrix(-0.949, 0, 0, 1, 700.482, 468.153)">[</text>
      <text class="cls-92" transform="translate(76.52 399.72) scale(0.949 1)">!</text>
      <text class="cls-92" transform="translate(131.055 399.72) scale(0.949 1)">@</text>
      <text class="cls-92" transform="translate(186.986 399.72) scale(0.949 1)">#</text>
      <text class="cls-92" transform="translate(240.115 399.72) scale(0.949 1)">$</text>
      <text class="cls-92" transform="translate(292.602 399.72) scale(0.949 1)">%</text>
      <text class="cls-92" transform="translate(349.862 399.72) scale(0.949 1)">^</text>
      <text class="cls-92" transform="translate(402.003 399.72) scale(0.949 1)">&amp;</text>
      <text class="cls-92" transform="translate(455.729 398.688) scale(0.949 1)">*</text>
      <text class="cls-92" transform="translate(509.345 399.72) scale(0.949 1)">(</text>
      <text class="cls-92" transform="translate(562.562 399.72) scale(0.949 1)">)</text>
      <text class="cls-92" transform="translate(24.098 399.72) scale(0.949 1)">~</text>
      <text class="cls-102" transform="translate(22.46 361.921) scale(0.95 1)">Esc</text>
      <text class="cls-102" transform="translate(79.734 361.92) scale(0.95 1)">F1</text>
      <text class="cls-102" transform="translate(134.227 361.92) scale(0.95 1)">F2</text>
      <text class="cls-102" transform="translate(190.72 361.92) scale(0.95 1)">F3</text>
      <text class="cls-102" transform="translate(247.178 361.921) scale(0.95 1)">F4</text>
      <text class="cls-102" transform="translate(303.808 361.921) scale(0.95 1)">F5</text>
      <text class="cls-102" transform="translate(359.308 361.92) scale(0.95 1)">F6</text>
      <text class="cls-102" transform="translate(415.973 361.921) scale(0.95 1)">F7</text>
      <text class="cls-102" transform="translate(471.772 361.92) scale(0.95 1)">F8</text>
      <text class="cls-102" transform="translate(695.559 361.92) scale(0.95 1)"><tspan class="cls-103">P</tspan><tspan x="4.596" y="0">rtScn</tspan></text>
      <text class="cls-102" transform="translate(751.016 361.92) scale(0.95 1)">Delete</text>
      <text class="cls-102" transform="translate(638.216 361.92) scale(0.95 1)">Num Lock</text>
      <text class="cls-102" transform="translate(584.177 361.92) scale(0.95 1)">F10</text>
      <text class="cls-102" transform="translate(527.67 361.92) scale(0.95 1)">F9</text>
      <text class="cls-104" transform="translate(77.946 372.396)">F11</text>
      <text class="cls-104" transform="translate(135.402 372.396)">F12</text>
      <text class="cls-104" transform="translate(582.503 372.396)">Scrlk</text>
      <text class="cls-104" transform="translate(695.559 372.395)">SysRq</text>
      <text class="cls-94" transform="translate(594.522 397.012)">.</text>
      <text class="cls-92" transform="translate(724.269 399.72) scale(0.949 1)">Backspace</text>
      <text class="cls-94" transform="translate(458.914 451.779)">4</text>
      <text class="cls-94" transform="translate(513.077 451.78)">5</text>
      <text class="cls-94" transform="translate(566.51 451.78)">6</text>
      <text class="cls-94" transform="translate(621.486 450.332)">-</text>
      <text class="cls-93" transform="translate(25.056 455.395) scale(0.949 1)"><tspan class="cls-105">T</tspan><tspan x="5.929" y="0">ab</tspan></text>
      <text class="cls-94" transform="translate(472.97 503.051)">1</text>
      <text class="cls-94" transform="translate(525.985 503.051)">2</text>
      <text class="cls-94" transform="translate(579.01 503.051)">3</text>
      <text class="cls-94" transform="translate(632.542 503.476)">+</text>
      <text class="cls-104" transform="translate(659.046 556.711)">/</text>
      <text class="cls-104" transform="translate(606.946 556.711)">.</text>
      <text class="cls-94" transform="translate(498.906 556.788)">0</text>
      <text class="cls-106" transform="translate(81.777 615.9)">Fn</text>
      <text class="cls-107" transform="translate(649.626 637.419)">Home</text>
      <text class="cls-107" transform="translate(703.503 608.237)">PgUp</text>
      <text class="cls-107" transform="translate(703.503 637.418)">PgDp</text>
      <text class="cls-107" transform="translate(763.518 637.418)">End</text>
      <text class="cls-108" transform="translate(690.234 331.635)">1</text>
      <text class="cls-109" transform="translate(712.265 330.964)">A</text>
    </g>
    <g>
      <line class="cls-110" x1="736.67" y1="325.839" x2="736.67" y2="330.104"/>
      <polygon points="735.681 329.814 736.67 331.527 737.66 329.814 735.681 329.814"/>
    </g>
  </g>
</svg>
