<svg id="reed-switch" xmlns="http://www.w3.org/2000/svg" xmlns:xlink="http://www.w3.org/1999/xlink" width="35.15mm" height="46.247mm" viewBox="0 0 99.6378 131.0938">
  <defs>
    <style>
      .cls-1, .cls-11 {
        fill: none;
      }

      .cls-1 {
        stroke: #c8c8c8;
        stroke-linecap: round;
        stroke-width: 2.126px;
      }

      .cls-1, .cls-11, .cls-2, .cls-7 {
        stroke-miterlimit: 10;
      }

      .cls-2, .cls-7 {
        stroke: #878686;
        stroke-width: 0.4252px;
      }

      .cls-2 {
        fill: url(#Безымянный_градиент_19);
      }

      .cls-3 {
        fill: url(#Безымянный_градиент_46);
      }

      .cls-4 {
        fill: #f2f2f2;
        opacity: 0.4;
      }

      .cls-5 {
        fill: url(#Безымянный_градиент_24);
      }

      .cls-6 {
        fill: url(#Безымянный_градиент_24-2);
      }

      .cls-7 {
        fill: url(#Безымянный_градиент_19-2);
      }

      .cls-8 {
        fill: url(#Безымянный_градиент_46-2);
      }

      .cls-9 {
        fill: url(#Безымянный_градиент_24-3);
      }

      .cls-10 {
        fill: url(#Безымянный_градиент_24-4);
      }

      .cls-11 {
        stroke-width: 0.2835px;
        stroke: url(#Безымянный_градиент_24-5);
      }
    </style>
    <linearGradient id="Безымянный_градиент_19" data-name="Безымянный градиент 19" x1="49.8189" y1="63.559" x2="49.8189" y2="35.2126" gradientUnits="userSpaceOnUse">
      <stop offset="0" stop-color="#474747"/>
      <stop offset="0.0532" stop-color="#595959"/>
      <stop offset="0.2001" stop-color="#858787"/>
      <stop offset="0.3408" stop-color="#a8abaa"/>
      <stop offset="0.4721" stop-color="#c1c5c4"/>
      <stop offset="0.5902" stop-color="#d1d5d4"/>
      <stop offset="0.6838" stop-color="#d6dad9"/>
      <stop offset="1" stop-color="#f0f0f0"/>
    </linearGradient>
    <linearGradient id="Безымянный_градиент_46" data-name="Безымянный градиент 46" x1="49.9978" y1="57.5308" x2="49.9978" y2="41.5308" gradientUnits="userSpaceOnUse">
      <stop offset="0" stop-color="#787878"/>
      <stop offset="0.0149" stop-color="#848484"/>
      <stop offset="0.0552" stop-color="#9d9f9e"/>
      <stop offset="0.1014" stop-color="#b2b5b4"/>
      <stop offset="0.1553" stop-color="#c2c6c5"/>
      <stop offset="0.2221" stop-color="#ced1d0"/>
      <stop offset="0.3157" stop-color="#d4d8d7"/>
      <stop offset="0.5757" stop-color="#d6dad9"/>
      <stop offset="1" stop-color="#bfbfbf"/>
    </linearGradient>
    <linearGradient id="Безымянный_градиент_24" data-name="Безымянный градиент 24" x1="85.3858" y1="58.089" x2="85.3858" y2="40.6826" gradientUnits="userSpaceOnUse">
      <stop offset="0" stop-color="#f0f0f0"/>
      <stop offset="0.3162" stop-color="#d6dad9"/>
      <stop offset="0.4072" stop-color="#d1d5d4"/>
      <stop offset="0.522" stop-color="#c1c5c4"/>
      <stop offset="0.6497" stop-color="#a8abaa"/>
      <stop offset="0.7866" stop-color="#858787"/>
      <stop offset="0.9293" stop-color="#595959"/>
      <stop offset="1" stop-color="#404040"/>
    </linearGradient>
    <linearGradient id="Безымянный_градиент_24-2" x1="14.3858" y1="58.089" x2="14.3858" y2="40.6826" xlink:href="#Безымянный_градиент_24"/>
    <linearGradient id="Безымянный_градиент_19-2" x1="49.8189" y1="28.559" x2="49.8189" y2="0.2126" xlink:href="#Безымянный_градиент_19"/>
    <linearGradient id="Безымянный_градиент_46-2" x1="49.9978" y1="22.5308" x2="49.9978" y2="6.5308" xlink:href="#Безымянный_градиент_46"/>
    <linearGradient id="Безымянный_градиент_24-3" x1="85.3858" y1="23.089" x2="85.3858" y2="5.6826" xlink:href="#Безымянный_градиент_24"/>
    <linearGradient id="Безымянный_градиент_24-4" x1="14.3858" y1="23.089" x2="14.3858" y2="5.6826" xlink:href="#Безымянный_градиент_24"/>
    <linearGradient id="Безымянный_градиент_24-5" x1="49.9978" y1="17.6726" x2="49.9978" y2="10.3891" xlink:href="#Безымянный_градиент_24"/>
  </defs>
  <title>reed-switch</title>
  <path class="cls-1" d="M51.4978,60.0308c3,51-20,44.899-20,70"/>
  <path class="cls-1" d="M47.4978,60.0308c3,51-20,44.899-20,70"/>
  <g id="reed-switch-2" data-name="reed-switch">
    <path class="cls-2" d="M91.5513,35.2126H8.0866a7.8971,7.8971,0,0,0-7.874,7.8739V55.6851a7.8971,7.8971,0,0,0,7.874,7.8739H91.5513a7.897,7.897,0,0,0,7.8739-7.8739V43.0865A7.897,7.897,0,0,0,91.5513,35.2126ZM14.3858,53.9212a4.5354,4.5354,0,1,1,4.5355-4.5354A4.5487,4.5487,0,0,1,14.3858,53.9212Zm71,0a4.5354,4.5354,0,1,1,4.5355-4.5354A4.5487,4.5487,0,0,1,85.3858,53.9212Z"/>
    <path class="cls-3" d="M79.9978,49.5308l2-8h-65v.4939a8.6677,8.6677,0,0,1,0,14.7222v.7839h66Z"/>
    <path class="cls-4" d="M96.9144,41.5308H.9978v-1c0-1.925,3.575-5,5.5-5h86.5c3,1,6,4.075,6,6h0C98.9978,41.5767,96.96,41.5308,96.9144,41.5308Z"/>
    <path class="cls-5" d="M85.3858,40.6826a8.7032,8.7032,0,1,0,8.7033,8.7032A8.7288,8.7288,0,0,0,85.3858,40.6826Zm0,13.2386a4.5354,4.5354,0,1,1,4.5355-4.5354A4.5487,4.5487,0,0,1,85.3858,53.9212Z"/>
    <path class="cls-6" d="M14.3858,40.6826a8.7032,8.7032,0,1,0,8.7033,8.7032A8.7288,8.7288,0,0,0,14.3858,40.6826Zm0,13.2386a4.5354,4.5354,0,1,1,4.5355-4.5354A4.5487,4.5487,0,0,1,14.3858,53.9212Z"/>
  </g>
  <g id="magnet">
    <path class="cls-7" d="M91.5513.2126H8.0866A7.8971,7.8971,0,0,0,.2126,8.0865V20.6851a7.8971,7.8971,0,0,0,7.874,7.8739H91.5513a7.897,7.897,0,0,0,7.8739-7.8739V8.0865A7.897,7.897,0,0,0,91.5513.2126ZM14.3858,18.9212a4.5354,4.5354,0,1,1,4.5355-4.5354A4.5487,4.5487,0,0,1,14.3858,18.9212Zm71,0a4.5354,4.5354,0,1,1,4.5355-4.5354A4.5487,4.5487,0,0,1,85.3858,18.9212Z"/>
    <path class="cls-8" d="M79.9978,14.5308l2-8h-65v.4939a8.6677,8.6677,0,0,1,0,14.7222v.7839h66Z"/>
    <path class="cls-4" d="M96.9144,6.5308H.9978v-1c0-1.925,3.575-5,5.5-5h86.5c3,1,6,4.075,6,6h0C98.9978,6.5767,96.96,6.5308,96.9144,6.5308Z"/>
    <path class="cls-9" d="M85.3858,5.6826a8.7032,8.7032,0,1,0,8.7033,8.7032A8.7288,8.7288,0,0,0,85.3858,5.6826Zm0,13.2386a4.5354,4.5354,0,1,1,4.5355-4.5354A4.5487,4.5487,0,0,1,85.3858,18.9212Z"/>
    <path class="cls-10" d="M14.3858,5.6826a8.7032,8.7032,0,1,0,8.7033,8.7032A8.7288,8.7288,0,0,0,14.3858,5.6826Zm0,13.2386a4.5354,4.5354,0,1,1,4.5355-4.5354A4.5487,4.5487,0,0,1,14.3858,18.9212Z"/>
    <rect class="cls-11" x="26.9978" y="10.5308" width="46" height="7" rx="3.5" ry="3.5"/>
  </g>
</svg>
