<?xml version="1.0" encoding="UTF-8" standalone="no"?>
<!-- Created with Inkscape (http://www.inkscape.org/) -->

<svg
   xmlns:dc="http://purl.org/dc/elements/1.1/"
   xmlns:cc="http://creativecommons.org/ns#"
   xmlns:rdf="http://www.w3.org/1999/02/22-rdf-syntax-ns#"
   xmlns:svg="http://www.w3.org/2000/svg"
   xmlns="http://www.w3.org/2000/svg"
   xmlns:xlink="http://www.w3.org/1999/xlink"
   xmlns:sodipodi="http://sodipodi.sourceforge.net/DTD/sodipodi-0.dtd"
   xmlns:inkscape="http://www.inkscape.org/namespaces/inkscape"
   width="36.078285mm"
   height="10.736214mm"
   viewBox="0 0 36.078285 10.736214"
   version="1.1"
   id="svg8710"
   inkscape:version="0.92.1 r15371"
   sodipodi:docname="sd-card-micro.svg">
  <defs
     id="defs8704">
    <radialGradient
       id="b"
       gradientUnits="userSpaceOnUse"
       cy="663.78198"
       cx="835.28003"
       gradientTransform="matrix(-54.57,0,0,-76.54,45635.9,51187.2)"
       r="1">
      <stop
         offset="0"
         id="stop334" />
      <stop
         offset="1"
         id="stop336" />
    </radialGradient>
    <radialGradient
       id="ab"
       gradientUnits="userSpaceOnUse"
       cy="250.94701"
       cx="-866.19598"
       gradientTransform="matrix(54.57,0,0,76.54,47323,-18826.3)"
       r="1">
      <stop
         offset="0"
         id="stop499" />
      <stop
         offset="1"
         id="stop501" />
    </radialGradient>
    <linearGradient
       id="aa"
       y2="442.38101"
       gradientUnits="userSpaceOnUse"
       x2="-12.2314"
       y1="442.38101"
       x1="2.2686">
      <stop
         stop-color="#DBC64D"
         offset="0"
         id="stop510" />
      <stop
         stop-color="#C4A330"
         offset="1"
         id="stop512" />
    </linearGradient>
    <linearGradient
       id="z"
       y2="442.32901"
       gradientUnits="userSpaceOnUse"
       x2="-12.2324"
       y1="442.32901"
       x1="2.2676001">
      <stop
         stop-color="#DBC64D"
         offset="0"
         id="stop521" />
      <stop
         stop-color="#C4A330"
         offset="1"
         id="stop523" />
    </linearGradient>
    <linearGradient
       id="y"
       y2="442.38101"
       gradientUnits="userSpaceOnUse"
       x2="-12.2315"
       y1="442.38101"
       x1="2.2685001">
      <stop
         stop-color="#DBC64D"
         offset="0"
         id="stop532" />
      <stop
         stop-color="#C4A330"
         offset="1"
         id="stop534" />
    </linearGradient>
    <linearGradient
       id="x"
       y2="442.38101"
       gradientUnits="userSpaceOnUse"
       x2="-12.2316"
       y1="442.38101"
       x1="2.2684">
      <stop
         stop-color="#DBC64D"
         offset="0"
         id="stop543" />
      <stop
         stop-color="#C4A330"
         offset="1"
         id="stop545" />
    </linearGradient>
    <linearGradient
       id="w"
       y2="442.32901"
       gradientUnits="userSpaceOnUse"
       x2="-12.2316"
       y1="442.32901"
       x1="2.2684">
      <stop
         stop-color="#DBC64D"
         offset="0"
         id="stop554" />
      <stop
         stop-color="#C4A330"
         offset="1"
         id="stop556" />
    </linearGradient>
    <linearGradient
       id="v"
       y2="442.38101"
       gradientUnits="userSpaceOnUse"
       x2="-12.2317"
       y1="442.38101"
       x1="2.2683001">
      <stop
         stop-color="#DBC64D"
         offset="0"
         id="stop565" />
      <stop
         stop-color="#C4A330"
         offset="1"
         id="stop567" />
    </linearGradient>
    <linearGradient
       inkscape:collect="always"
       xlink:href="#a"
       id="linearGradient6822"
       gradientUnits="userSpaceOnUse"
       x1="2.2681999"
       y1="442.38101"
       x2="-12.2318"
       y2="442.38101" />
    <linearGradient
       id="a"
       y2="442.38101"
       gradientUnits="userSpaceOnUse"
       x2="-12.2318"
       y1="442.38101"
       x1="2.2681999">
      <stop
         stop-color="#DBC64D"
         offset="0"
         id="stop576" />
      <stop
         stop-color="#C4A330"
         offset="1"
         id="stop578" />
    </linearGradient>
    <linearGradient
       inkscape:collect="always"
       xlink:href="#a"
       id="linearGradient9563"
       gradientUnits="userSpaceOnUse"
       x1="2.2681999"
       y1="442.38101"
       x2="-12.2318"
       y2="442.38101" />
  </defs>
  <sodipodi:namedview
     id="base"
     pagecolor="#ffffff"
     bordercolor="#666666"
     borderopacity="1.0"
     inkscape:pageopacity="0.0"
     inkscape:pageshadow="2"
     inkscape:zoom="5.6"
     inkscape:cx="45.164757"
     inkscape:cy="1.1394478"
     inkscape:document-units="mm"
     inkscape:current-layer="layer1"
     showgrid="false"
     fit-margin-top="0"
     fit-margin-left="0"
     fit-margin-right="0"
     fit-margin-bottom="0"
     inkscape:window-width="1920"
     inkscape:window-height="1017"
     inkscape:window-x="-8"
     inkscape:window-y="-8"
     inkscape:window-maximized="1"
     showguides="false" />
  <metadata
     id="metadata8707">
    <rdf:RDF>
      <cc:Work
         rdf:about="">
        <dc:format>image/svg+xml</dc:format>
        <dc:type
           rdf:resource="http://purl.org/dc/dcmitype/StillImage" />
        <dc:title />
      </cc:Work>
    </rdf:RDF>
  </metadata>
  <g
     inkscape:label="Layer 1"
     inkscape:groupmode="layer"
     id="layer1"
     transform="translate(278.08677,-45.191417)">
    <g
       id="g4707">
      <g
         id="g5021">
        <g
           id="g506"
           transform="matrix(0,0.19415465,-0.19415465,0,-168.0509,45.262014)">
          <title
             id="title497">.63</title>
          <radialGradient
             r="1"
             gradientTransform="matrix(54.57,0,0,76.54,47323,-18826.3)"
             cx="-866.19598"
             cy="250.94701"
             gradientUnits="userSpaceOnUse"
             id="radialGradient8560">
            <stop
               id="stop8556"
               offset="0" />
            <stop
               id="stop8558"
               offset="1" />
          </radialGradient>
          <path
             inkscape:connector-curvature="0"
             style="fill:url(#ab);stroke:#000000;stroke-width:0.72000003;stroke-linecap:round;stroke-linejoin:round;stroke-miterlimit:3"
             id="path504"
             stroke-miterlimit="3"
             d="m 54.27,381.69 -0.62,-0.409 H 8.22 l -1.13,0.569 v 23.529 l -7.09,8.5 0.06,7.74 0.29,0.479 0.57,0.28 h 1.99 v 5.11 L 0,431.459 v 25.891 l 0.129,0.399 0.511,0.07 h 53.38 l 0.34,-0.271 0.062,-0.261 v -52.03 l 0.148,-22.83 z" />
        </g>
        <g
           id="g517"
           transform="matrix(0,0.19415465,-0.19415465,0,-157.20872,46.940676)">
          <title
             id="title508">.68</title>
          <linearGradient
             x1="2.2686"
             y1="442.38101"
             x2="-12.2314"
             gradientUnits="userSpaceOnUse"
             y2="442.38101"
             id="linearGradient8569">
            <stop
               id="stop8565"
               offset="0"
               stop-color="#DBC64D" />
            <stop
               id="stop8567"
               offset="1"
               stop-color="#C4A330" />
          </linearGradient>
          <rect
             style="fill:url(#aa)"
             id="rect515"
             x="-4.8439999"
             y="448.43701"
             width="14.225"
             height="4.5349998"
             transform="rotate(89.999852,2.2689218,450.70408)" />
        </g>
        <g
           id="g528"
           transform="matrix(0,0.19415465,-0.19415465,0,-157.21881,48.041338)">
          <title
             id="title519">.70</title>
          <linearGradient
             x1="2.2676001"
             y1="442.32901"
             x2="-12.2324"
             gradientUnits="userSpaceOnUse"
             y2="442.32901"
             id="linearGradient8578">
            <stop
               id="stop8574"
               offset="0"
               stop-color="#DBC64D" />
            <stop
               id="stop8576"
               offset="1"
               stop-color="#C4A330" />
          </linearGradient>
          <rect
             style="fill:url(#z)"
             id="rect526"
             x="-4.8449998"
             y="448.43701"
             width="14.226"
             height="4.5349998"
             transform="rotate(89.999852,2.2674218,450.70458)" />
        </g>
        <g
           id="g539"
           transform="matrix(0,0.19415465,-0.19415465,0,-157.20872,49.142001)">
          <title
             id="title530">.71</title>
          <linearGradient
             x1="2.2685001"
             y1="442.38101"
             x2="-12.2315"
             gradientUnits="userSpaceOnUse"
             y2="442.38101"
             id="linearGradient8587">
            <stop
               id="stop8583"
               offset="0"
               stop-color="#DBC64D" />
            <stop
               id="stop8585"
               offset="1"
               stop-color="#C4A330" />
          </linearGradient>
          <rect
             style="fill:url(#y)"
             id="rect537"
             x="-4.8439999"
             y="448.43701"
             width="14.225"
             height="4.5349998"
             transform="rotate(89.999852,2.2689218,450.70408)" />
        </g>
        <g
           id="g550"
           transform="matrix(0,0.19415465,-0.19415465,0,-157.20872,50.242858)">
          <title
             id="title541">.72</title>
          <linearGradient
             x1="2.2684"
             y1="442.38101"
             x2="-12.2316"
             gradientUnits="userSpaceOnUse"
             y2="442.38101"
             id="linearGradient8596">
            <stop
               id="stop8592"
               offset="0"
               stop-color="#DBC64D" />
            <stop
               id="stop8594"
               offset="1"
               stop-color="#C4A330" />
          </linearGradient>
          <rect
             style="fill:url(#x)"
             id="rect548"
             x="-5.6690001"
             y="447.612"
             width="15.874"
             height="4.5349998"
             transform="rotate(89.999852,2.2684228,449.87958)" />
        </g>
        <g
           id="g561"
           transform="matrix(0,0.19415465,-0.19415465,0,-157.21881,51.34352)">
          <title
             id="title552">.73</title>
          <linearGradient
             x1="2.2684"
             y1="442.32901"
             x2="-12.2316"
             gradientUnits="userSpaceOnUse"
             y2="442.32901"
             id="linearGradient8605">
            <stop
               id="stop8601"
               offset="0"
               stop-color="#DBC64D" />
            <stop
               id="stop8603"
               offset="1"
               stop-color="#C4A330" />
          </linearGradient>
          <rect
             style="fill:url(#w)"
             id="rect559"
             x="-4.8449998"
             y="448.436"
             width="14.226"
             height="4.5359998"
             transform="rotate(89.999852,2.2679218,450.70408)" />
        </g>
        <g
           id="g572"
           transform="matrix(0,0.19415465,-0.19415465,0,-157.20872,52.444183)">
          <title
             id="title563">.74</title>
          <linearGradient
             x1="2.2683001"
             y1="442.38101"
             x2="-12.2317"
             gradientUnits="userSpaceOnUse"
             y2="442.38101"
             id="linearGradient8614">
            <stop
               id="stop8610"
               offset="0"
               stop-color="#DBC64D" />
            <stop
               id="stop8612"
               offset="1"
               stop-color="#C4A330" />
          </linearGradient>
          <rect
             style="fill:url(#v)"
             id="rect570"
             x="-5.6690001"
             y="447.612"
             width="15.874"
             height="4.5349998"
             transform="rotate(89.999852,2.2684228,449.87958)" />
        </g>
        <g
           id="g583"
           transform="matrix(0,0.19415465,-0.19415465,0,-157.20872,53.54504)">
          <title
             id="title574">.75</title>
          <linearGradient
             x1="2.2681999"
             y1="442.38101"
             x2="-12.2318"
             gradientUnits="userSpaceOnUse"
             y2="442.38101"
             id="linearGradient8623">
            <stop
               id="stop8619"
               offset="0"
               stop-color="#DBC64D" />
            <stop
               id="stop8621"
               offset="1"
               stop-color="#C4A330" />
          </linearGradient>
          <rect
             style="fill:url(#linearGradient9563)"
             id="rect581"
             x="-4.8449998"
             y="448.43701"
             width="14.226"
             height="4.5349998"
             transform="rotate(89.999852,2.2684218,450.70458)" />
        </g>
        <g
           id="g589"
           transform="matrix(0,0.19415465,-0.19415465,0,-157.20872,54.645703)">
          <title
             id="title585">.76</title>
          <rect
             style="fill:url(#linearGradient6822)"
             id="rect587"
             x="-4.8439999"
             y="448.43701"
             width="14.225"
             height="4.5349998"
             transform="rotate(89.999852,2.2679218,450.70408)" />
        </g>
        <text
           xml:space="preserve"
           style="font-style:normal;font-variant:normal;font-weight:normal;font-stretch:normal;font-size:1.41111112px;line-height:1.25;font-family:'Trebuchet MS';-inkscape-font-specification:'Trebuchet MS';text-align:center;letter-spacing:0px;word-spacing:0px;text-anchor:middle;fill:#ffffff;fill-opacity:1;stroke:none;stroke-width:0.26458332"
           x="-251.52686"
           y="55.125824"
           id="text4829"><tspan
             sodipodi:role="line"
             id="tspan4827"
             x="-251.52686"
             y="55.125824"
             style="font-size:1.0583334px;fill:#ffffff;stroke-width:0.26458332">MADE IN JAPAN</tspan></text>
      </g>
      <g
         id="g4966">
        <g
           id="g341"
           transform="matrix(0,-0.19415213,-0.19415213,0,-189.13014,55.856388)">
          <title
             id="title332">.51</title>
          <radialGradient
             r="1"
             gradientTransform="matrix(-54.57,0,0,-76.54,45635.9,51187.2)"
             cx="835.28003"
             cy="663.78198"
             gradientUnits="userSpaceOnUse"
             id="radialGradient8649">
            <stop
               id="stop8645"
               offset="0" />
            <stop
               id="stop8647"
               offset="1" />
          </radialGradient>
          <path
             inkscape:connector-curvature="0"
             style="fill:url(#b);stroke:#000000;stroke-width:0.72000003;stroke-linecap:round;stroke-linejoin:round;stroke-miterlimit:3"
             id="path339"
             stroke-miterlimit="3"
             d="m 54.27,381.69 -0.62,-0.409 H 8.219 l -1.13,0.568 v 23.531 l -7.089,8.5 0.061,7.74 0.29,0.479 0.569,0.28 h 1.99 v 5.11 L 0,431.46 v 25.89 l 0.13,0.4 0.511,0.07 h 53.38 l 0.341,-0.271 0.06,-0.26 v -52.03 l 0.149,-22.83 z" />
        </g>
        <g
           id="g429"
           transform="matrix(0,0.19415213,-0.19415213,0,-188.19452,44.959404)">
          <title
             id="title425">.32</title>
          <path
             style="fill:none;stroke:#ffffff;stroke-width:0.72000003;stroke-linecap:round;stroke-linejoin:round;stroke-miterlimit:3;stroke-opacity:0.15"
             inkscape:connector-curvature="0"
             id="path427"
             stroke-miterlimit="3"
             d="m 1.752,457.395 c 13.779,-4.11 39.017,-3.929 54.376,0.271" />
        </g>
        <g
           id="g435"
           transform="matrix(0.19415213,0,0,0.19415213,-266.38832,-37.253035)">
          <title
             id="title431">.61</title>
          <path
             style="fill:#ffffff"
             inkscape:connector-curvature="0"
             id="path433"
             d="m 6.72,454.201 c 0.04,-1.999 -1.433,-3.653 -3.288,-3.696 -1.856,-0.042 -3.393,1.544 -3.432,3.542 -0.001,0.052 -0.001,0.103 0,0.154 -0.04,1.997 1.433,3.652 3.288,3.694 1.855,0.042 3.393,-1.543 3.432,-3.542 0.001,-0.05 0.001,-0.101 0,-0.152 z m -1.89,0 c 0,-0.811 -0.656,-1.467 -1.465,-1.467 -0.81,0 -1.466,0.656 -1.466,1.467 0,0.81 0.656,1.465 1.466,1.465 0.809,-10e-4 1.465,-0.656 1.465,-1.465 z" />
        </g>
        <g
           id="g441"
           transform="matrix(0.19415213,0,0,0.19415213,-269.26585,-38.189955)">
          <title
             id="title437">.58</title>
          <circle
             style="fill:#ffffff"
             r="1.206"
             id="ellipse439"
             cx="1.206"
             cy="456.612" />
        </g>
        <g
           id="g447"
           transform="matrix(0.19415213,0,0,0.19415213,-271.24717,-36.346675)">
          <title
             id="title443">.60</title>
          <path
             style="fill:#ffffff"
             inkscape:connector-curvature="0"
             id="path445"
             d="m 4.88,457.82 h 0.81 v -9.109 c 0.26,-0.611 1.45,-0.611 1.75,0.08 v 8.949 h 2.2 v -9.931 c 0,-2.27 -4.08,-2.391 -4.87,-1.169 C 4.05,445.38 0,445.49 0,447.78 v 9.92 h 2.14 v -8.94 c 0.3,-0.688 1.46,-0.688 1.71,-0.08 v 9.102 h 0.79 z" />
        </g>
        <g
           id="g455"
           transform="matrix(0.19415213,0,0,0.19415213,-269.26585,-37.186111)">
          <title
             id="title449">.49</title>
          <path
             style="fill:#ffffff"
             inkscape:connector-curvature="0"
             id="path451"
             d="m 2.41,454.11 z m 0,0 c 0.032,-0.666 -0.48,-1.231 -1.146,-1.264 -0.665,-0.033 -1.231,0.48 -1.264,1.146 -0.002,0.039 -0.002,0.078 0,0.117 v 3.709 h 2.41 z" />
          <path
             style="fill:none"
             inkscape:connector-curvature="0"
             id="path453"
             d="m 2.41,454.11 c 0.032,-0.666 -0.48,-1.231 -1.146,-1.264 -0.665,-0.033 -1.231,0.48 -1.264,1.146 -0.002,0.039 -0.002,0.078 0,0.117 v 3.709 h 2.41 v -3.708" />
        </g>
        <g
           id="g461"
           transform="matrix(0.19415213,0,0,0.19415213,-268.76397,-37.253035)">
          <title
             id="title457">.67</title>
          <path
             style="fill:#ffffff"
             inkscape:connector-curvature="0"
             id="path459"
             d="M 4.83,450.651 H 3.27 v 0.028 c -2.03,0.255 -3.461,2.053 -3.198,4.015 0.229,1.707 1.681,3.016 3.458,3.116 l 1.3,0.01 c 0.509,-0.003 0.961,-0.282 1.13,-0.699 0.221,-0.548 -0.11,-1.146 -0.738,-1.338 -0.088,-0.026 -0.179,-0.045 -0.271,-0.053 l -0.12,-0.01 H 3.54 c -0.861,-0.273 -1.326,-1.152 -1.037,-1.963 0.177,-0.497 0.608,-0.876 1.147,-1.008 h 1.18 c 0.667,0 1.208,-0.472 1.208,-1.05 0,-0.579 -0.541,-1.048 -1.208,-1.048 z" />
        </g>
        <g
           id="g469"
           transform="matrix(0.19415213,0,0,0.19415213,-267.55945,-37.253035)">
          <title
             id="title463">.62</title>
          <path
             style="fill:#ffffff"
             inkscape:connector-curvature="0"
             id="path465"
             d="m 3.77,453.32 z m 2.02,0.571 c 0.325,-1.408 -0.504,-2.824 -1.853,-3.164 -0.33,-0.084 -0.673,-0.096 -1.008,-0.037 -1.367,-0.238 -2.662,0.727 -2.891,2.154 -0.014,0.084 -0.023,0.17 -0.029,0.256 L 0,453.27 v 4.551 h 2.01 v -4.502 c -0.026,-0.434 0.345,-0.805 0.829,-0.829 0.484,-0.023 0.899,0.309 0.927,0.741 10e-4,0.029 10e-4,0.06 0,0.088 l 0.005,0.57 z" />
          <path
             style="fill:none"
             inkscape:connector-curvature="0"
             id="path467"
             d="m 3.77,453.32 m 2.02,0.571 c 0.325,-1.408 -0.504,-2.824 -1.853,-3.164 -0.33,-0.084 -0.673,-0.096 -1.008,-0.037 -1.367,-0.238 -2.662,0.727 -2.891,2.154 -0.014,0.084 -0.023,0.17 -0.029,0.256 L 0,453.27 v 4.551 h 2.01 v -4.502 c -0.026,-0.434 0.345,-0.805 0.829,-0.829 0.484,-0.023 0.899,0.309 0.927,0.741 10e-4,0.029 10e-4,0.06 0,0.088 l 0.005,0.57 2.019,0.002" />
        </g>
        <g
           id="g1232"
           transform="matrix(0.19415213,0,0,0.19415213,-266.01885,-37.652911)">
          <title
             id="title1228">.130</title>
          <circle
             r="1.559"
             id="ellipse1230"
             cx="1.559"
             cy="456.259" />
        </g>
        <g
           style="fill:#ffffff"
           id="g1242"
           transform="matrix(0.19415213,0,0,0.19415213,-293.29101,-26.616138)">
          <path
             inkscape:connector-curvature="0"
             id="path1234"
             d="m 133.202,408.844 c 0.32,-1.393 -0.897,-2.047 -2.343,-2.477 -0.979,-0.289 -2.757,-0.691 -2.757,-1.04 0,-0.446 1.193,-0.434 2.024,-0.456 0.903,-0.025 4.408,-0.029 4.408,-0.029 l 0.447,-1.267 c 0,0 -2.523,-0.066 -5.023,0.058 -3.606,0.18 -4.28,0.979 -4.361,1.745 -0.111,0.994 1.228,1.682 2.039,1.993 0.774,0.293 1.999,0.513 1.999,0.895 0,0.311 -0.462,0.336 -1.791,0.311 -2.059,-0.038 -3.789,-0.243 -3.789,-0.243 l -0.809,2.231 c 0,0 1.964,0.135 4.059,0.135 2.984,-10e-4 5.446,0.116 5.897,-1.856" />
          <path
             inkscape:connector-curvature="0"
             id="path1236"
             d="m 139.256,405.902 c 0.024,0.05 0.042,0.104 0.05,0.155 0.034,0.207 -0.052,0.413 -0.245,0.607 -0.196,0.197 -0.497,0.383 -0.881,0.547 -0.391,0.165 -0.864,0.305 -1.397,0.411 -0.534,0.104 -1.426,0.191 -2.043,0.214 l -1.013,2.851 c 2.335,-0.103 8.801,-0.081 11.286,-3.167 0.312,-0.492 0.368,-1 0.099,-1.487 -0.302,-0.553 -0.878,-0.984 -1.569,-1.324 l -4.344,1.095 c 0.023,0.031 0.043,0.066 0.057,0.098" />
          <path
             inkscape:connector-curvature="0"
             id="path1238"
             d="m 138.889,405.509 c 0.02,0.013 0.038,0.028 0.059,0.042 l 3.674,-1.216 c -0.251,-0.11 -0.598,-0.239 -0.854,-0.308 l -3.183,1.28 c 0.09,0.049 0.231,0.152 0.304,0.202" />
          <path
             inkscape:connector-curvature="0"
             id="path1240"
             d="m 137.846,405.081 2.17,-1.35 c -0.528,-0.075 -0.964,-0.111 -1.218,-0.119 -1.016,-0.023 -1.417,-0.041 -2.543,-0.038 l -0.449,1.268 c 0.277,0.009 0.401,0 0.871,0.044 0.426,0.039 0.822,0.107 1.169,0.195" />
        </g>
        <path
           style="fill:#ffffff;stroke-width:0.19415213"
           inkscape:connector-curvature="0"
           id="path993-1"
           d="m -265.26139,46.101727 1.07619,0.538384 -1.07619,0.53819 z" />
        <g
           id="g4921"
           transform="translate(-4.543582)">
          <text
             id="text4897"
             y="48.778172"
             x="-270.16891"
             style="font-style:normal;font-variant:normal;font-weight:normal;font-stretch:normal;font-size:3.17500019px;line-height:1.25;font-family:'Trebuchet MS';-inkscape-font-specification:'Trebuchet MS';text-align:center;letter-spacing:0px;word-spacing:0px;text-anchor:middle;fill:#ffffff;fill-opacity:1;stroke:none;stroke-width:0.26458332"
             xml:space="preserve"><tspan
               style="font-size:3.17500019px;fill:#ffffff;stroke-width:0.26458332"
               y="48.778172"
               x="-270.16891"
               id="tspan4895"
               sodipodi:role="line">8</tspan></text>
          <text
             id="text4897-2"
             y="48.787647"
             x="-267.93286"
             style="font-style:normal;font-variant:normal;font-weight:normal;font-stretch:normal;font-size:3.17500019px;line-height:1.25;font-family:'Trebuchet MS';-inkscape-font-specification:'Trebuchet MS';text-align:center;letter-spacing:0px;word-spacing:0px;text-anchor:middle;fill:#ffffff;fill-opacity:1;stroke:none;stroke-width:0.26458332"
             xml:space="preserve"><tspan
               style="font-size:1.76388884px;fill:#ffffff;stroke-width:0.26458332"
               y="48.787647"
               x="-267.93286"
               id="tspan4895-4"
               sodipodi:role="line">GB</tspan></text>
        </g>
      </g>
    </g>
  </g>
</svg>
