<?xml version="1.0" encoding="UTF-8" standalone="no"?>
<!-- Created with Inkscape (http://www.inkscape.org/) -->

<svg
   xmlns:dc="http://purl.org/dc/elements/1.1/"
   xmlns:cc="http://creativecommons.org/ns#"
   xmlns:rdf="http://www.w3.org/1999/02/22-rdf-syntax-ns#"
   xmlns:svg="http://www.w3.org/2000/svg"
   xmlns="http://www.w3.org/2000/svg"
   xmlns:sodipodi="http://sodipodi.sourceforge.net/DTD/sodipodi-0.dtd"
   xmlns:inkscape="http://www.inkscape.org/namespaces/inkscape"
   width="27.796829mm"
   height="56.988037mm"
   viewBox="0 0 27.796829 56.988037"
   version="1.1"
   id="svg4774"
   inkscape:version="0.92.1 r15371"
   sodipodi:docname="sensor-liquid-level-contactless_bottom.svg">
  <defs
     id="defs4768" />
  <sodipodi:namedview
     id="base"
     pagecolor="#ffffff"
     bordercolor="#666666"
     borderopacity="1.0"
     inkscape:pageopacity="0.0"
     inkscape:pageshadow="2"
     inkscape:zoom="0.98994949"
     inkscape:cx="326.38219"
     inkscape:cy="-159.25152"
     inkscape:document-units="mm"
     inkscape:current-layer="layer1"
     showgrid="false"
     fit-margin-top="0"
     fit-margin-left="0"
     fit-margin-right="0"
     fit-margin-bottom="0"
     inkscape:window-width="1920"
     inkscape:window-height="1017"
     inkscape:window-x="-8"
     inkscape:window-y="-8"
     inkscape:window-maximized="1" />
  <metadata
     id="metadata4771">
    <rdf:RDF>
      <cc:Work
         rdf:about="">
        <dc:format>image/svg+xml</dc:format>
        <dc:type
           rdf:resource="http://purl.org/dc/dcmitype/StillImage" />
        <dc:title></dc:title>
      </cc:Work>
    </rdf:RDF>
  </metadata>
  <g
     inkscape:label="Layer 1"
     inkscape:groupmode="layer"
     id="layer1"
     transform="translate(580.10675,216.62646)">
    <g
       id="g5452">
      <rect
         ry="13.63316"
         rx="13.63316"
         y="-216.36118"
         x="-579.84149"
         height="27.266319"
         width="27.266319"
         id="rect6227"
         style="opacity:1;fill:#b3b3b3;fill-opacity:1;fill-rule:evenodd;stroke:none;stroke-width:0.27320215;stroke-linecap:butt;stroke-linejoin:miter;stroke-miterlimit:4;stroke-dasharray:none;stroke-dashoffset:0;stroke-opacity:1;paint-order:normal" />
      <path
         id="path4485-34"
         d="m -566.20831,-216.58196 a 13.853872,13.853872 0 0 0 -13.85394,13.85393 13.853872,13.853872 0 0 0 13.85394,13.85395 13.853872,13.853872 0 0 0 0.58807,-0.0295 h 0.0258 v -0.001 a 13.853872,13.853872 0 0 0 13.24002,-13.82329 13.853872,13.853872 0 0 0 -13.85393,-13.85393 z m -0.56741,0.31574 v 0.54157 h 1.18132 v -0.53278 a 13.5596,13.5596 0 0 1 6.06423,1.7663 l -0.30386,0.50281 1.0108,0.61081 0.29248,-0.48369 a 13.5596,13.5596 0 0 1 4.06022,4.43177 l -0.50694,0.27337 0.5612,1.03922 0.48938,-0.26407 a 13.5596,13.5596 0 0 1 1.25367,5.06222 h -0.53227 v 1.18133 h 0.52658 a 13.5596,13.5596 0 0 1 -1.22525,5.02811 l -0.51211,-0.27647 -0.5612,1.03922 0.53123,0.2868 a 13.5596,13.5596 0 0 1 -4.08192,4.47311 l -0.29507,-0.48782 -1.0108,0.61133 0.30851,0.50953 a 13.5596,13.5596 0 0 1 -6.06888,1.7632 v -0.52864 h -1.18132 v 0.52193 a 13.5596,13.5596 0 0 1 -6.1004,-1.76062 l 0.3054,-0.5054 -1.01079,-0.61133 -0.29455,0.48731 a 13.5596,13.5596 0 0 1 -4.08657,-4.46588 l 0.54312,-0.29352 -0.56121,-1.03922 -0.52297,0.28267 a 13.5596,13.5596 0 0 1 -1.24178,-5.03431 h 0.54622 v -1.18133 h -0.5395 a 13.5596,13.5596 0 0 1 1.24023,-5.07772 l 0.5178,0.27957 0.56121,-1.03922 -0.53331,-0.28784 a 13.5596,13.5596 0 0 1 4.06797,-4.41161 l 0.28939,0.478 1.01079,-0.61081 -0.30127,-0.49816 a 13.5596,13.5596 0 0 1 6.11022,-1.77974 z"
         style="opacity:1;vector-effect:none;fill:#f2f2f2;fill-opacity:1;fill-rule:nonzero;stroke:#d2d2d2;stroke-width:0.089;stroke-linecap:round;stroke-linejoin:round;stroke-miterlimit:4;stroke-dasharray:none;stroke-dashoffset:0;stroke-opacity:1"
         inkscape:connector-curvature="0" />
      <path
         sodipodi:nodetypes="cc"
         inkscape:connector-curvature="0"
         id="path4642-5"
         d="m -575.99089,-159.7308 c -1.69205,-27.42246 14.01373,-3.43951 10.73058,-30.79001"
         style="fill:none;stroke:#000000;stroke-width:3;stroke-linecap:butt;stroke-linejoin:miter;stroke-miterlimit:4;stroke-dasharray:none;stroke-opacity:1" />
      <path
         id="path4485-3"
         d="m -566.20832,-215.71989 a 12.991482,12.991482 0 0 0 -12.95002,11.99437 h 0.49594 v 1.99447 h -0.48778 a 12.991482,12.991482 0 0 0 12.94186,11.99438 12.991482,12.991482 0 0 0 12.949,-11.99438 h -0.56023 v -1.99447 h 0.55258 a 12.991482,12.991482 0 0 0 -12.94135,-11.99437 z m -5.61758,3.8726 c 0.83147,0 1.50108,0.66961 1.50108,1.50109 0,0.83148 -0.66961,1.50057 -1.50108,1.50057 -0.83147,0 -1.50108,-0.66909 -1.50108,-1.50057 0,-0.83148 0.66961,-1.50109 1.50108,-1.50109 z"
         style="opacity:1;vector-effect:none;fill:#f9f9f9;fill-opacity:1;fill-rule:nonzero;stroke:#d2d2d2;stroke-width:0.08385707;stroke-linecap:round;stroke-linejoin:round;stroke-miterlimit:4;stroke-dasharray:none;stroke-dashoffset:0;stroke-opacity:1"
         inkscape:connector-curvature="0" />
      <g
         transform="matrix(0.94955995,0,0,0.94955995,-478.86157,-337.89989)"
         id="g6203">
        <g
           id="g6179"
           transform="translate(-2.4267449,-1.5015929)">
          <circle
             id="circle12901-5-2"
             cy="135.83975"
             cx="-95.467934"
             r="0.65923357"
             style="fill:#8c8c8c;stroke-width:0.18486638" />
          <circle
             style="fill:#ff0000;fill-opacity:1;stroke-width:0.18486638"
             id="color_circle1-3-8"
             r="0.24956962"
             cx="-95.495934"
             cy="135.84569" />
          <circle
             style="opacity:1;fill:#ff0000;fill-opacity:0.58823529;stroke:none;stroke-width:0.18486638"
             id="color_circle2-2-6"
             r="1.310148"
             cx="-95.497597"
             cy="135.87088"
             enable-background="new    " />
          <path
             style="opacity:0.6;fill:#ffffff;stroke-width:0.1478931"
             inkscape:connector-curvature="0"
             d="m -95.513364,135.03706 c 0.06137,-0.0148 0.125709,-0.0227 0.191706,-0.0227 0.05601,0 0.110547,0.005 0.163236,0.0164 l 0.06711,-0.32629 c -0.07432,-0.0151 -0.15159,-0.0231 -0.230343,-0.0231 -0.08375,0 -0.215555,0.0156 -0.29412,0.0325 z m -0.328138,-0.2309 c -0.370287,0.18931 -0.623741,0.57457 -0.623741,1.01917 0,0.0765 0.0076,0.15122 0.02184,0.22369 l 0.324997,-0.0728 c -0.0093,-0.0488 -0.01403,-0.0991 -0.01403,-0.15066 0,-0.30485 0.168411,-0.57087 0.417429,-0.70933 z"
             enable-background="new    "
             id="path12913-8-7" />
          <circle
             r="1.331098"
             cy="135.82729"
             cx="-95.477074"
             id="path16388-2-3"
             style="fill:none;stroke:#ff0000;stroke-width:0.1478931;stroke-linecap:round;stroke-miterlimit:4;stroke-dasharray:none;stroke-opacity:1" />
        </g>
      </g>
    </g>
  </g>
</svg>
