<svg id="soil-moisture-sensor" xmlns="http://www.w3.org/2000/svg" width="44.536mm" height="59.15mm" viewBox="0 0 126.243 167.67">
  <title>sensor-soil-moisture-resistive</title>
  <g id="soil-moisture-sensor-2">
    <g id="bottom">
      <path d="M120.607.213H74.761A5.431,5.431,0,0,0,69.338,5.62V143.2l8.25,24.26h4.333l7.067-24.093V56.734c1.166-11.572,16.03-11.53,17.393,0V143.2l8.25,24.26h4.333l7.067-24.093V5.62A5.431,5.431,0,0,0,120.607.213ZM79.319,5.7h.2a4.474,4.474,0,0,1,4.5,4.449v.037a4.52,4.52,0,0,1-4.5,4.387,4.456,4.456,0,0,1-4.5-4.387A4.365,4.365,0,0,1,79.261,5.7Zm36,0h.2a4.474,4.474,0,0,1,4.5,4.449v.037a4.52,4.52,0,0,1-4.5,4.387,4.456,4.456,0,0,1-4.5-4.387A4.365,4.365,0,0,1,115.261,5.7Z" transform="translate(0)" style="fill: #f2f2f2;stroke: #000;stroke-miterlimit: 1;stroke-width: 0.4251999855041504px"/>
      <path d="M106.767,55.1v87.275l7.878,23.669c.548,1.441,3.761,1.375,4.138,0l6.748-23.507V55.1Zm4.263,87.383a.736.736,0,0,1-.734.734h-.016a.736.736,0,0,1-.734-.734v-.016a.736.736,0,0,1,.734-.734h.016a.736.736,0,0,1,.734.734Zm0-16.6a.736.736,0,0,1-.734.734h-.016a.736.736,0,0,1-.734-.734v-.016a.736.736,0,0,1,.734-.734h.016a.736.736,0,0,1,.734.734Zm0-16.6a.736.736,0,0,1-.734.734h-.016a.736.736,0,0,1-.734-.734v-.016a.736.736,0,0,1,.734-.734h.016a.736.736,0,0,1,.734.734Zm0-16.6a.736.736,0,0,1-.734.734h-.016a.736.736,0,0,1-.734-.734v-.016a.736.736,0,0,1,.734-.734h.016a.736.736,0,0,1,.734.734Zm0-16.6a.736.736,0,0,1-.734.734h-.016a.736.736,0,0,1-.734-.734v-.016a.736.736,0,0,1,.734-.734h.016a.736.736,0,0,1,.734.734Zm0-16.6a.736.736,0,0,1-.734.734h-.016a.736.736,0,0,1-.734-.734v-.016a.736.736,0,0,1,.734-.734h.016a.736.736,0,0,1,.734.734Zm3.13,97.408a.737.737,0,0,1-.734.735h-.016a.737.737,0,0,1-.734-.735v-.015a.737.737,0,0,1,.734-.735h.016a.737.737,0,0,1,.734.735Zm3.13-14.408a.736.736,0,0,1-.734.734h-.016a.736.736,0,0,1-.734-.734v-.016a.736.736,0,0,1,.734-.734h.016a.736.736,0,0,1,.734.734Zm0-16.6a.736.736,0,0,1-.734.734h-.016a.736.736,0,0,1-.734-.734v-.016a.736.736,0,0,1,.734-.734h.016a.736.736,0,0,1,.734.734Zm0-16.6a.736.736,0,0,1-.734.734h-.016a.736.736,0,0,1-.734-.734v-.016a.736.736,0,0,1,.734-.734h.016a.736.736,0,0,1,.734.734Zm0-16.6a.736.736,0,0,1-.734.734h-.016a.736.736,0,0,1-.734-.734v-.016a.736.736,0,0,1,.734-.734h.016a.736.736,0,0,1,.734.734Zm0-16.6a.736.736,0,0,1-.734.734h-.016a.736.736,0,0,1-.734-.734v-.016a.736.736,0,0,1,.734-.734h.016a.736.736,0,0,1,.734.734Zm0-16.6a.736.736,0,0,1-.734.734h-.016a.736.736,0,0,1-.734-.734v-.016a.736.736,0,0,1,.734-.734h.016a.736.736,0,0,1,.734.734Zm3.13,97.408a.736.736,0,0,1-.734.735h-.016a.737.737,0,0,1-.734-.735v-.015a.737.737,0,0,1,.734-.735h.016a.737.737,0,0,1,.734.735Zm3.13-14.408a.736.736,0,0,1-.734.734H122.8a.736.736,0,0,1-.734-.734v-.016a.736.736,0,0,1,.734-.734h.016a.736.736,0,0,1,.734.734Zm0-16.6a.736.736,0,0,1-.734.734H122.8a.736.736,0,0,1-.734-.734v-.016a.736.736,0,0,1,.734-.734h.016a.736.736,0,0,1,.734.734Zm0-16.6a.736.736,0,0,1-.734.734H122.8a.736.736,0,0,1-.734-.734v-.016a.736.736,0,0,1,.734-.734h.016a.736.736,0,0,1,.734.734Zm0-16.6a.736.736,0,0,1-.734.734H122.8a.736.736,0,0,1-.734-.734v-.016a.736.736,0,0,1,.734-.734h.016a.736.736,0,0,1,.734.734Zm0-16.6a.736.736,0,0,1-.734.734H122.8a.736.736,0,0,1-.734-.734v-.016a.736.736,0,0,1,.734-.734h.016a.736.736,0,0,1,.734.734Zm0-16.6a.736.736,0,0,1-.734.734H122.8a.736.736,0,0,1-.734-.734v-.016a.736.736,0,0,1,.734-.734h.016a.736.736,0,0,1,.734.734Z" transform="translate(0)" style="fill: #f2cf81"/>
      <path d="M69.767,55.1v87.275l7.878,23.669c.548,1.441,3.761,1.375,4.138,0l6.748-23.507V55.1Zm4.263,87.383a.736.736,0,0,1-.734.734H73.28a.736.736,0,0,1-.734-.734v-.016a.736.736,0,0,1,.734-.734H73.3a.736.736,0,0,1,.734.734Zm0-16.6a.736.736,0,0,1-.734.734H73.28a.736.736,0,0,1-.734-.734v-.016a.736.736,0,0,1,.734-.734H73.3a.736.736,0,0,1,.734.734Zm0-16.6a.736.736,0,0,1-.734.734H73.28a.736.736,0,0,1-.734-.734v-.016a.736.736,0,0,1,.734-.734H73.3a.736.736,0,0,1,.734.734Zm0-16.6a.736.736,0,0,1-.734.734H73.28a.736.736,0,0,1-.734-.734v-.016a.736.736,0,0,1,.734-.734H73.3a.736.736,0,0,1,.734.734Zm0-16.6a.736.736,0,0,1-.734.734H73.28a.736.736,0,0,1-.734-.734v-.016a.736.736,0,0,1,.734-.734H73.3a.736.736,0,0,1,.734.734Zm0-16.6a.736.736,0,0,1-.734.734H73.28a.736.736,0,0,1-.734-.734v-.016a.736.736,0,0,1,.734-.734H73.3a.736.736,0,0,1,.734.734Zm3.13,97.408a.737.737,0,0,1-.734.735H76.41a.737.737,0,0,1-.734-.735v-.015a.737.737,0,0,1,.734-.735h.016a.737.737,0,0,1,.734.735Zm3.13-14.408a.736.736,0,0,1-.734.734H79.54a.736.736,0,0,1-.734-.734v-.016a.736.736,0,0,1,.734-.734h.016a.736.736,0,0,1,.734.734Zm0-16.6a.736.736,0,0,1-.734.734H79.54a.736.736,0,0,1-.734-.734v-.016a.736.736,0,0,1,.734-.734h.016a.736.736,0,0,1,.734.734Zm0-16.6a.736.736,0,0,1-.734.734H79.54a.736.736,0,0,1-.734-.734v-.016a.736.736,0,0,1,.734-.734h.016a.736.736,0,0,1,.734.734Zm0-16.6a.736.736,0,0,1-.734.734H79.54a.736.736,0,0,1-.734-.734v-.016a.736.736,0,0,1,.734-.734h.016a.736.736,0,0,1,.734.734Zm0-16.6a.736.736,0,0,1-.734.734H79.54a.736.736,0,0,1-.734-.734v-.016a.736.736,0,0,1,.734-.734h.016a.736.736,0,0,1,.734.734Zm0-16.6a.736.736,0,0,1-.734.734H79.54a.736.736,0,0,1-.734-.734v-.016a.736.736,0,0,1,.734-.734h.016a.736.736,0,0,1,.734.734Zm3.13,97.408a.736.736,0,0,1-.734.735h-.015a.737.737,0,0,1-.734-.735v-.015a.737.737,0,0,1,.734-.735h.016a.737.737,0,0,1,.734.735Zm3.13-14.408a.736.736,0,0,1-.734.734H85.8a.736.736,0,0,1-.734-.734v-.016a.736.736,0,0,1,.734-.734h.016a.736.736,0,0,1,.734.734Zm0-16.6a.736.736,0,0,1-.734.734H85.8a.736.736,0,0,1-.734-.734v-.016a.736.736,0,0,1,.734-.734h.016a.736.736,0,0,1,.734.734Zm0-16.6a.736.736,0,0,1-.734.734H85.8a.736.736,0,0,1-.734-.734v-.016a.736.736,0,0,1,.734-.734h.016a.736.736,0,0,1,.734.734Zm0-16.6a.736.736,0,0,1-.734.734H85.8a.736.736,0,0,1-.734-.734v-.016a.736.736,0,0,1,.734-.734h.016a.736.736,0,0,1,.734.734Zm0-16.6a.736.736,0,0,1-.734.734H85.8a.736.736,0,0,1-.734-.734v-.016a.736.736,0,0,1,.734-.734h.016a.736.736,0,0,1,.734.734Zm0-16.6a.736.736,0,0,1-.734.734H85.8a.736.736,0,0,1-.734-.734v-.016a.736.736,0,0,1,.734-.734h.016a.736.736,0,0,1,.734.734Z" transform="translate(0)" style="fill: #f2cf81"/>
      <g>
        <path id="rect6749-9" d="M94.621,27.7h6.994a.1.1,0,0,1,.1.094V41.3a.1.1,0,0,1-.1.1h-7a.1.1,0,0,1-.1-.095V27.9C94.518,27.8,94.518,27.7,94.621,27.7Z" transform="translate(0)" style="fill: none;stroke: #000;stroke-width: 0.2800000011920929px"/>
        <path id="rect6749-9-2" d="M87.421,27.7h6.994a.1.1,0,0,1,.1.094V41.3a.1.1,0,0,1-.1.1h-7a.1.1,0,0,1-.1-.095V27.9C87.318,27.8,87.318,27.7,87.421,27.7Z" transform="translate(0)" style="fill: none;stroke: #000;stroke-width: 0.2800000011920929px"/>
        <path id="rect6749-9-3" d="M101.871,27.7h6.945a.1.1,0,0,1,.1.095V41.3a.1.1,0,0,1-.1.1h-6.948a.1.1,0,0,1-.1-.095V27.9C101.667,27.8,101.769,27.7,101.871,27.7Z" transform="translate(0)" style="fill: none;stroke: #000;stroke-miterlimit: 10;stroke-width: 0.2800000011920929px"/>
        <text transform="translate(103.627 40.294)" style="isolation: isolate;font-size: 5px;font-family: TrebuchetMS, Trebuchet MS">G</text>
        <text transform="translate(96.549 40.294)" style="isolation: isolate;font-size: 5px;font-family: TrebuchetMS, Trebuchet MS">V</text>
        <text transform="translate(89.815 40.294)" style="isolation: isolate;font-size: 5px;font-family: TrebuchetMS, Trebuchet MS">S</text>
      </g>
      <g>
        <g id="con-header-2.54-male-1x3">
          <g>
            <path id="path106654-2-2" d="M103.518,34.929h3.9l1.5-1.578V29.307l-1.5-1.578h-4.2l-1.5,1.578V33.35l1.5,1.579Z" transform="translate(0)" style="fill: #404040"/>
            <g>
              <rect id="rect106656-2-2" x="104.018" y="30.194" width="2.3" height="2.268" style="fill: #8d8c8c"/>
              <rect id="rect106658-2-2" x="104.518" y="30.786" width="1.2" height="1.184" style="fill: #8c8663"/>
              <polygon id="polygon106660-2-2" points="104.618 31.97 104.018 32.463 106.418 32.463 105.818 31.97 104.618 31.97" style="fill: #b8af82"/>
              <polygon id="polygon106662-2-2" points="104.018 32.463 104.018 30.194 104.618 30.786 104.618 31.97 104.018 32.463" style="fill: #80795b"/>
              <polygon id="polygon106664-2-2" points="104.018 30.194 106.418 30.194 105.818 30.786 104.618 30.786 104.018 30.194" style="fill: #5e5b43"/>
              <polygon id="polygon106666-2-2" points="105.818 30.786 106.418 30.194 106.418 32.463 105.818 31.97 105.818 30.786" style="fill: #9a916c"/>
            </g>
          </g>
          <g>
            <path id="path106672-2-2" d="M96.318,34.929h3.9l1.5-1.578V29.307l-1.5-1.578h-4.2l-1.5,1.578V33.35l1.5,1.579Z" transform="translate(0)" style="fill: #404040"/>
            <g>
              <rect id="rect106674-2-2" x="96.918" y="30.194" width="2.3" height="2.268" style="fill: #8d8c8c"/>
              <rect id="rect106676-2-2" x="97.418" y="30.786" width="1.2" height="1.184" style="fill: #8c8663"/>
              <polygon id="polygon106678-2-2" points="97.518 31.97 96.918 32.463 99.218 32.463 98.618 31.97 97.518 31.97" style="fill: #b8af82"/>
              <polygon id="polygon106680-2-2" points="96.918 32.463 96.918 30.194 97.518 30.786 97.518 31.97 96.918 32.463" style="fill: #80795b"/>
              <polygon id="polygon106682-2-2" points="96.918 30.194 99.218 30.194 98.618 30.786 97.518 30.786 96.918 30.194" style="fill: #5e5b43"/>
              <polygon id="polygon106684-2-2" points="98.618 30.786 99.218 30.194 99.218 32.463 98.618 31.97 98.618 30.786" style="fill: #9a916c"/>
            </g>
          </g>
          <g>
            <path id="path106726-2-2" d="M89.218,34.929h3.8l1.5-1.578V29.307l-1.5-1.578h-4.2l-1.5,1.578V33.35l1.5,1.579Z" transform="translate(0)" style="fill: #404040"/>
            <g>
              <rect id="rect106728-2-2" x="89.818" y="30.194" width="2.3" height="2.268" style="fill: #8d8c8c"/>
              <rect id="rect106730-2-2" x="90.318" y="30.786" width="1.2" height="1.184" style="fill: #8c8663"/>
              <polygon id="polygon106732-2-2" points="89.818 32.463 92.118 32.463 91.518 31.97 90.418 31.97 89.818 32.463" style="fill: #b8af82"/>
              <polygon id="polygon106734-2-2" points="89.818 30.194 90.418 30.786 90.418 31.97 89.818 32.463 89.818 30.194" style="fill: #80795b"/>
              <polygon id="polygon106736-2-2" points="92.118 30.194 91.518 30.786 90.418 30.786 89.818 30.194 92.118 30.194" style="fill: #5e5b43"/>
              <polygon id="polygon106738-2-2" points="92.118 30.194 92.118 32.463 91.518 31.97 91.518 30.786 92.118 30.194" style="fill: #9a916c"/>
            </g>
          </g>
        </g>
        <g>
          <circle id="_0.1.16.5.0.2-3-8-8" data-name=" 0.1.16.5.0.2-3-8-8" cx="91.018" cy="31.114" r="1.9" style="fill: #b8af82"/>
          <g>
            <polygon points="89.868 14.758 89.868 20.477 89.868 31.895 92.168 31.895 92.168 20.477 92.168 14.758 91.568 11.16 90.368 11.16 89.868 14.758" style="fill: #b8af82"/>
            <polygon id="_0.1.16.5.0.12-8-0-8" data-name=" 0.1.16.5.0.12-8-0-8" points="91.868 14.758 92.168 14.758 92.168 31.895 91.868 31.895 91.868 14.758" style="opacity: 0.10000000149011612;isolation: isolate"/>
            <polygon id="_0.1.16.5.0.11-1-0-8" data-name=" 0.1.16.5.0.11-1-0-8" points="89.868 14.758 90.068 14.758 90.068 31.895 89.868 31.895 89.868 14.758" style="fill: #fff;opacity: 0.20000000298023224;isolation: isolate"/>
            <polygon id="polygon6029-5-3-8" points="89.868 14.758 90.368 11.16 90.668 11.16 90.068 14.758 89.868 14.758" style="fill: #fff;opacity: 0.20000000298023224;isolation: isolate"/>
            <polygon id="_0.1.16.5.0.1.3-8-7-8" data-name=" 0.1.16.5.0.1.3-8-7-8" points="91.868 14.758 91.268 11.16 91.568 11.16 92.168 14.758 91.868 14.758" style="opacity: 0.10000000149011612;isolation: isolate"/>
            <polygon id="_0.1.16.5.0.1.1-5-3-8" data-name=" 0.1.16.5.0.1.1-5-3-8" points="91.568 11.16 90.368 11.16 90.268 12.099 91.668 12.099 91.568 11.16" style="fill: #e2d6a1"/>
            <polygon id="_0.1.16.5.0.6-3-1-8" data-name=" 0.1.16.5.0.6-3-1-8" points="92.168 31.895 92.168 31.27 89.868 31.27 89.868 31.895 92.168 31.895" style="fill: #9a916c"/>
            <polygon id="_0.1.16.5.0.7-7-4-8" data-name=" 0.1.16.5.0.7-7-4-8" points="92.168 31.113 92.168 30.175 89.868 30.175 89.868 31.113 92.168 31.113" style="fill: #e2d6a1"/>
          </g>
        </g>
        <g>
          <circle id="_0.1.16.5.0.2-3-8-8-2" data-name=" 0.1.16.5.0.2-3-8-8-2" cx="98.018" cy="31.114" r="1.9" style="fill: #b8af82"/>
          <g>
            <polygon points="96.868 14.758 96.868 20.477 96.868 31.895 99.168 31.895 99.168 20.477 99.168 14.758 98.568 11.16 97.368 11.16 96.868 14.758" style="fill: #b8af82"/>
            <polygon id="_0.1.16.5.0.12-8-0-8-2" data-name=" 0.1.16.5.0.12-8-0-8-2" points="98.868 14.758 99.168 14.758 99.168 31.895 98.868 31.895 98.868 14.758" style="opacity: 0.10000000149011612;isolation: isolate"/>
            <polygon id="_0.1.16.5.0.11-1-0-8-2" data-name=" 0.1.16.5.0.11-1-0-8-2" points="96.868 14.758 97.068 14.758 97.068 31.895 96.868 31.895 96.868 14.758" style="fill: #fff;opacity: 0.20000000298023224;isolation: isolate"/>
            <polygon id="polygon6029-5-3-8-2" points="96.868 14.758 97.368 11.16 97.668 11.16 97.068 14.758 96.868 14.758" style="fill: #fff;opacity: 0.20000000298023224;isolation: isolate"/>
            <polygon id="_0.1.16.5.0.1.3-8-7-8-2" data-name=" 0.1.16.5.0.1.3-8-7-8-2" points="98.868 14.758 98.268 11.16 98.568 11.16 99.168 14.758 98.868 14.758" style="opacity: 0.10000000149011612;isolation: isolate"/>
            <polygon id="_0.1.16.5.0.1.1-5-3-8-2" data-name=" 0.1.16.5.0.1.1-5-3-8-2" points="98.568 11.16 97.368 11.16 97.268 12.099 98.668 12.099 98.568 11.16" style="fill: #e2d6a1"/>
            <polygon id="_0.1.16.5.0.6-3-1-8-2" data-name=" 0.1.16.5.0.6-3-1-8-2" points="99.168 31.895 99.168 31.27 96.868 31.27 96.868 31.895 99.168 31.895" style="fill: #9a916c"/>
            <polygon id="_0.1.16.5.0.7-7-4-8-2" data-name=" 0.1.16.5.0.7-7-4-8-2" points="99.168 31.113 99.168 30.175 96.868 30.175 96.868 31.113 99.168 31.113" style="fill: #e2d6a1"/>
          </g>
        </g>
        <g>
          <circle id="_0.1.16.5.0.2-3-8-8-3" data-name=" 0.1.16.5.0.2-3-8-8-3" cx="105.318" cy="31.114" r="1.9" style="fill: #b8af82"/>
          <g>
            <polygon points="104.168 14.758 104.168 20.477 104.168 31.895 106.468 31.895 106.468 20.477 106.468 14.758 105.868 11.16 104.668 11.16 104.168 14.758" style="fill: #b8af82"/>
            <polygon id="_0.1.16.5.0.12-8-0-8-3" data-name=" 0.1.16.5.0.12-8-0-8-3" points="106.168 14.758 106.468 14.758 106.468 31.895 106.168 31.895 106.168 14.758" style="opacity: 0.10000000149011612;isolation: isolate"/>
            <polygon id="_0.1.16.5.0.11-1-0-8-3" data-name=" 0.1.16.5.0.11-1-0-8-3" points="104.168 14.758 104.368 14.758 104.368 31.895 104.168 31.895 104.168 14.758" style="fill: #fff;opacity: 0.20000000298023224;isolation: isolate"/>
            <polygon id="polygon6029-5-3-8-3" points="104.168 14.758 104.668 11.16 104.968 11.16 104.368 14.758 104.168 14.758" style="fill: #fff;opacity: 0.20000000298023224;isolation: isolate"/>
            <polygon id="_0.1.16.5.0.1.3-8-7-8-3" data-name=" 0.1.16.5.0.1.3-8-7-8-3" points="106.168 14.758 105.568 11.16 105.868 11.16 106.468 14.758 106.168 14.758" style="opacity: 0.10000000149011612;isolation: isolate"/>
            <polygon id="_0.1.16.5.0.1.1-5-3-8-3" data-name=" 0.1.16.5.0.1.1-5-3-8-3" points="105.868 11.16 104.668 11.16 104.568 12.099 105.968 12.099 105.868 11.16" style="fill: #e2d6a1"/>
            <polygon id="_0.1.16.5.0.6-3-1-8-3" data-name=" 0.1.16.5.0.6-3-1-8-3" points="106.468 31.895 106.468 31.27 104.168 31.27 104.168 31.895 106.468 31.895" style="fill: #9a916c"/>
            <polygon id="_0.1.16.5.0.7-7-4-8-3" data-name=" 0.1.16.5.0.7-7-4-8-3" points="106.468 31.113 106.468 30.175 104.168 30.175 104.168 31.113 106.468 31.113" style="fill: #e2d6a1"/>
          </g>
        </g>
      </g>
      <g id="T-SOT23">
        <path id="path3479-7-2-2" d="M74.95,38.35h1.6v2.6h-1.6Z" transform="translate(0)" style="fill: #b3b3b3"/>
        <path id="path3481-0-2-2" d="M74.95,38.55h1.6v.9h-1.6Z" transform="translate(0)" style="fill: gray"/>
        <path id="path3483-6-2" d="M80.45,38.35h1.6v2.6h-1.6Z" transform="translate(0)" style="fill: #b3b3b3"/>
        <path id="path3485-6-2" d="M80.45,38.55h1.6v.9h-1.6Z" transform="translate(0)" style="fill: gray"/>
        <path id="path3487-1-2-2" d="M77.65,34.85h1.6v-2.6h-1.6Z" transform="translate(0)" style="fill: #b3b3b3"/>
        <path id="path3489-6-2-2" d="M77.65,34.55h1.6v-.8h-1.6Z" transform="translate(0)" style="fill: gray"/>
        <path id="path3477-9-2" d="M74.25,34.85h8.4v3.5h-8.4Z" transform="translate(0)" style="fill: #242424"/>
      </g>
      <g id="R-0603">
        <rect id="rect21332-8-1-9-3-8-2-40-6-2-0-6-6-0-5-6-4-8-7-2-0-7-2-3-9-16-5" x="118.589" y="37.906" width="2.268" height="2.26" style="fill: #d2d1d3"/>
        <rect id="rect21332-8-1-9-3-8-2-40-6-2-0-6-6-0-5-6-4-8-7-2-0-7-2-3-10-16-5" x="118.589" y="34.516" width="2.268" height="2.26" style="fill: #d2d1d3"/>
        <path d="M118.589,39.276v-3.87a.329.329,0,0,1,.277-.33h1.7a.307.307,0,0,1,.287.328h0v3.87a.308.308,0,0,1-.285.33h-1.685a.318.318,0,0,1-.3-.32h0Z" transform="translate(0)" style="fill: #b7b8b9"/>
        <g id="path26345-3-6-9-3-6-4-2-5-6-8-7-9-0-90-3-1-3-9-2-2-8-5-0-2-3-5-16-5">
          <rect x="118.589" y="35.496" width="2.268" height="3.68" style="fill: #d7d3d5"/>
        </g>
        <path id="path26341-4-2-6-0-8-1-1-1-5-0-3-3-1-8-3-8-7-7-7-2-4-9-7-2-3-5-16-5" d="M120.857,38.755v-2.83h-2.268v2.83Z" transform="translate(0)" style="fill: #242424"/>
      </g>
      <g id="R-0603-2">
        <rect id="rect21332-8-1-9-3-8-2-40-6-2-0-6-6-0-5-6-4-8-7-2-0-7-2-3-9-16-5-2" x="113.589" y="37.906" width="2.268" height="2.26" style="fill: #d2d1d3"/>
        <rect id="rect21332-8-1-9-3-8-2-40-6-2-0-6-6-0-5-6-4-8-7-2-0-7-2-3-10-16-5-2" x="113.589" y="34.516" width="2.268" height="2.26" style="fill: #d2d1d3"/>
        <path d="M113.589,39.276v-3.87a.329.329,0,0,1,.277-.33h1.7a.307.307,0,0,1,.287.328h0v3.87a.308.308,0,0,1-.285.33h-1.685a.318.318,0,0,1-.3-.32h0Z" transform="translate(0)" style="fill: #b7b8b9"/>
        <g id="path26345-3-6-9-3-6-4-2-5-6-8-7-9-0-90-3-1-3-9-2-2-8-5-0-2-3-5-16-5-2">
          <rect x="113.589" y="35.496" width="2.268" height="3.68" style="fill: #d7d3d5"/>
        </g>
        <path id="path26341-4-2-6-0-8-1-1-1-5-0-3-3-1-8-3-8-7-7-7-2-4-9-7-2-3-5-16-5-2" d="M115.857,38.755v-2.83h-2.268v2.83Z" transform="translate(0)" style="fill: #242424"/>
      </g>
    </g>
    <g id="top">
      <g>
        <path d="M51.482.213H5.636A5.431,5.431,0,0,0,.213,5.62V143.2l8.25,24.26H12.8l7.067-24.093V56.734c1.166-11.572,16.03-11.53,17.393,0V143.2l8.25,24.26h4.333l7.067-24.093V5.62A5.431,5.431,0,0,0,51.482.213ZM10.194,5.7h.2a4.474,4.474,0,0,1,4.5,4.449v.037a4.52,4.52,0,0,1-4.5,4.387,4.456,4.456,0,0,1-4.5-4.387A4.365,4.365,0,0,1,10.136,5.7Zm36,0h.2a4.474,4.474,0,0,1,4.5,4.449v.037a4.52,4.52,0,0,1-4.5,4.387,4.456,4.456,0,0,1-4.5-4.387A4.365,4.365,0,0,1,46.136,5.7Z" transform="translate(0)" style="fill: #f2f2f2;stroke: #000;stroke-miterlimit: 1;stroke-width: 0.4251999855041504px"/>
        <g>
          <circle id="path4180" cx="36.001" cy="31.179" r="2.62" style="fill: #666"/>
          <circle id="path4180-2" cx="28.912" cy="31.179" r="2.62" style="fill: #666"/>
          <rect id="rect4216" x="19.183" y="28.559" width="5.229" height="5.229" rx="0.48" style="fill: #666"/>
          <rect id="_0.1.5.0.0.6-7" data-name=" 0.1.5.0.0.6-7" x="20.663" y="29.999" width="2.27" height="2.39" style="fill: #8d8c8c"/>
          <rect id="_0.1.5.0.0.37-1" data-name=" 0.1.5.0.0.37-1" x="21.223" y="30.559" width="1.17" height="1.23" style="fill: #8c8663"/>
          <polygon id="_0.1.5.0.0.39-3" data-name=" 0.1.5.0.0.39-3" points="22.383 31.788 22.383 30.578 22.913 30.009 22.913 32.348 22.383 31.788" style="fill: #80795b"/>
          <polygon id="_0.1.5.0.0.40-25" data-name=" 0.1.5.0.0.40-25" points="22.383 30.578 21.203 30.578 20.663 30.009 22.913 30.009 22.383 30.578" style="fill: #5e5b43"/>
          <polygon id="_0.1.5.0.0.41-35" data-name=" 0.1.5.0.0.41-35" points="21.203 31.788 20.663 32.348 20.663 30.009 21.203 30.578 21.203 31.788" style="fill: #9a916c"/>
          <rect id="_0.1.5.0.0.7-6-40" data-name=" 0.1.5.0.0.7-6-40" x="34.882" y="29.999" width="2.27" height="2.39" style="fill: #8d8c8c"/>
          <rect id="_0.1.5.0.0.32-4-7" data-name=" 0.1.5.0.0.32-4-7" x="35.422" y="30.559" width="1.17" height="1.23" style="fill: #8c8663"/>
          <polygon id="_0.1.5.0.0.34-7-3" data-name=" 0.1.5.0.0.34-7-3" points="36.592 30.578 37.132 30.009 37.132 32.348 36.592 31.788 36.592 30.578" style="fill: #80795b"/>
          <polygon id="_0.1.5.0.0.35-0-4" data-name=" 0.1.5.0.0.35-0-4" points="35.432 30.578 34.882 30.009 37.132 30.009 36.592 30.578 35.432 30.578" style="fill: #5e5b43"/>
          <polygon id="_0.1.5.0.0.36-3-0" data-name=" 0.1.5.0.0.36-3-0" points="34.882 32.348 34.882 30.009 35.432 30.578 35.432 31.788 34.882 32.348" style="fill: #9a916c"/>
          <rect id="_0.1.5.0.0.7-2" data-name=" 0.1.5.0.0.7-2" x="27.752" y="29.999" width="2.27" height="2.39" style="fill: #8d8c8c"/>
          <rect id="_0.1.5.0.0.32-9" data-name=" 0.1.5.0.0.32-9" x="28.332" y="30.559" width="1.17" height="1.23" style="fill: #8c8663"/>
          <polygon id="_0.1.5.0.0.34-53" data-name=" 0.1.5.0.0.34-53" points="29.492 31.788 29.492 30.578 30.022 30.009 30.022 32.348 29.492 31.788" style="fill: #80795b"/>
          <polygon id="_0.1.5.0.0.35-4" data-name=" 0.1.5.0.0.35-4" points="29.492 30.578 28.313 30.578 27.773 30.009 30.022 30.009 29.492 30.578" style="fill: #5e5b43"/>
          <polygon id="_0.1.5.0.0.36-32" data-name=" 0.1.5.0.0.36-32" points="28.313 31.788 27.773 32.348 27.773 30.009 28.313 30.578 28.313 31.788" style="fill: #9a916c"/>
          <rect id="_0.1.5.0.0.6-2-26" data-name=" 0.1.5.0.0.6-2-26" x="27.752" y="29.999" width="2.27" height="2.39" style="fill: #8d8c8c"/>
          <rect id="_0.1.5.0.0.37-4-0" data-name=" 0.1.5.0.0.37-4-0" x="28.312" y="30.559" width="1.17" height="1.23" style="fill: #8c8663"/>
          <polygon id="_0.1.5.0.0.39-0-3" data-name=" 0.1.5.0.0.39-0-3" points="29.492 30.578 30.022 30.009 30.022 32.348 29.492 31.788 29.492 30.578" style="fill: #80795b"/>
          <polygon id="_0.1.5.0.0.40-5-10" data-name=" 0.1.5.0.0.40-5-10" points="28.313 30.578 27.773 30.009 30.022 30.009 29.492 30.578 28.313 30.578" style="fill: #5e5b43"/>
          <polygon id="_0.1.5.0.0.41-3-6" data-name=" 0.1.5.0.0.41-3-6" points="27.773 32.348 27.773 30.009 28.313 30.578 28.313 31.788 27.773 32.348" style="fill: #9a916c"/>
          <polygon id="_0.1.5.0.0.38-1" data-name=" 0.1.5.0.0.38-1" points="21.203 31.788 20.663 32.348 22.913 32.348 22.383 31.788 21.203 31.788" style="fill: #b8af82"/>
          <polygon id="_0.1.5.0.0.33-0-0" data-name=" 0.1.5.0.0.33-0-0" points="34.882 32.348 37.132 32.348 36.592 31.788 35.432 31.788 34.882 32.348" style="fill: #b8af82"/>
          <polygon id="_0.1.5.0.0.33-7" data-name=" 0.1.5.0.0.33-7" points="28.313 31.788 27.773 32.348 30.022 32.348 29.492 31.788 28.313 31.788" style="fill: #b8af82"/>
          <polygon id="_0.1.5.0.0.38-0-5" data-name=" 0.1.5.0.0.38-0-5" points="27.773 32.348 30.022 32.348 29.492 31.788 28.313 31.788 27.773 32.348" style="fill: #b8af82"/>
        </g>
        <g>
          <path id="path532-5-4-9-8-5-6-8-0" d="M8.976,34.815a2,2,0,1,1-2,2,2,2,0,0,1,2-2m0,5.3a3.3,3.3,0,1,0-3.3-3.3h0a3.265,3.265,0,0,0,3.23,3.3h.07" transform="translate(0)"/>
          <path id="path536-1-4-0-5-1-3-3-2" d="M8.976,28.415a2.241,2.241,0,0,1,2.2,2.28v.02a2.416,2.416,0,0,1-2.4,2.3,2.241,2.241,0,0,1-2.2-2.28v-.02a2.413,2.413,0,0,1,2.4-2.3h0m0,1.2a1,1,0,0,0,0,2,.945.945,0,0,0,1-.886,1.084,1.084,0,0,0,0-.114,1,1,0,0,0-1-1" transform="translate(0)"/>
          <path id="path540-3-7-2-9-1-0-6-4" d="M9.276,42.315a5.567,5.567,0,0,0,5.1-5.1,5.269,5.269,0,0,0-1.2-3.8l.4-.4a.62.62,0,0,0,.1-.8.608.608,0,0,0-.8,0h-.1l-.9.9a.6.6,0,0,0,0,.8,4.166,4.166,0,0,1,.108,5.891c-.035.037-.071.073-.108.109a4.167,4.167,0,0,1-5.892.108q-.056-.053-.108-.108a4.227,4.227,0,0,1-.1-5.9l.2-.2v-.1a.606.606,0,0,0,0-.8l-.9-.8a.608.608,0,0,0-.8,0,.468.468,0,0,0,0,.8h0l.4.4a5.552,5.552,0,0,0,4.3,9h.3" transform="translate(0)"/>
        </g>
        <path d="M37.642,55.1v87.275l7.878,23.669c.548,1.441,3.761,1.376,4.138,0l6.747-23.506V55.1Zm4.263,87.383a.736.736,0,0,1-.734.734h-.016a.736.736,0,0,1-.734-.734v-.016a.736.736,0,0,1,.734-.734h.016a.736.736,0,0,1,.734.734Zm0-16.6a.736.736,0,0,1-.734.734h-.016a.736.736,0,0,1-.734-.734v-.016a.736.736,0,0,1,.734-.734h.016a.736.736,0,0,1,.734.734Zm0-16.6a.736.736,0,0,1-.734.734h-.016a.736.736,0,0,1-.734-.734v-.016a.736.736,0,0,1,.734-.734h.016a.736.736,0,0,1,.734.734Zm0-16.6a.736.736,0,0,1-.734.734h-.016a.736.736,0,0,1-.734-.734v-.016a.736.736,0,0,1,.734-.734h.016a.736.736,0,0,1,.734.734Zm0-16.6a.736.736,0,0,1-.734.734h-.016a.736.736,0,0,1-.734-.734v-.016a.736.736,0,0,1,.734-.734h.016a.736.736,0,0,1,.734.734Zm0-16.6a.736.736,0,0,1-.734.734h-.016a.736.736,0,0,1-.734-.734v-.016a.736.736,0,0,1,.734-.734h.016a.736.736,0,0,1,.734.734Zm3.13,97.408a.736.736,0,0,1-.734.735h-.016a.736.736,0,0,1-.734-.735v-.015a.737.737,0,0,1,.734-.735H44.3a.737.737,0,0,1,.734.735Zm3.13-14.408a.736.736,0,0,1-.734.734h-.016a.736.736,0,0,1-.734-.734v-.016a.736.736,0,0,1,.734-.734h.016a.736.736,0,0,1,.734.734Zm0-16.6a.736.736,0,0,1-.734.734h-.016a.736.736,0,0,1-.734-.734v-.016a.736.736,0,0,1,.734-.734h.016a.736.736,0,0,1,.734.734Zm0-16.6a.736.736,0,0,1-.734.734h-.016a.736.736,0,0,1-.734-.734v-.016a.736.736,0,0,1,.734-.734h.016a.736.736,0,0,1,.734.734Zm0-16.6a.736.736,0,0,1-.734.734h-.016a.736.736,0,0,1-.734-.734v-.016a.736.736,0,0,1,.734-.734h.016a.736.736,0,0,1,.734.734Zm0-16.6a.736.736,0,0,1-.734.734h-.016a.736.736,0,0,1-.734-.734v-.016a.736.736,0,0,1,.734-.734h.016a.736.736,0,0,1,.734.734Zm0-16.6a.736.736,0,0,1-.734.734h-.016a.736.736,0,0,1-.734-.734v-.016a.736.736,0,0,1,.734-.734h.016a.736.736,0,0,1,.734.734Zm3.13,97.408a.737.737,0,0,1-.734.735h-.015a.737.737,0,0,1-.734-.735v-.015a.737.737,0,0,1,.734-.735h.016a.737.737,0,0,1,.734.735Zm3.13-14.408a.736.736,0,0,1-.734.734h-.016a.736.736,0,0,1-.734-.734v-.016a.736.736,0,0,1,.734-.734h.016a.736.736,0,0,1,.734.734Zm0-16.6a.736.736,0,0,1-.734.734h-.016a.736.736,0,0,1-.734-.734v-.016a.736.736,0,0,1,.734-.734h.016a.736.736,0,0,1,.734.734Zm0-16.6a.736.736,0,0,1-.734.734h-.016a.736.736,0,0,1-.734-.734v-.016a.736.736,0,0,1,.734-.734h.016a.736.736,0,0,1,.734.734Zm0-16.6a.736.736,0,0,1-.734.734h-.016a.736.736,0,0,1-.734-.734v-.016a.736.736,0,0,1,.734-.734h.016a.736.736,0,0,1,.734.734Zm0-16.6a.736.736,0,0,1-.734.734h-.016a.736.736,0,0,1-.734-.734v-.016a.736.736,0,0,1,.734-.734h.016a.736.736,0,0,1,.734.734Zm0-16.6a.736.736,0,0,1-.734.734h-.016a.736.736,0,0,1-.734-.734v-.016a.736.736,0,0,1,.734-.734h.016a.736.736,0,0,1,.734.734Z" transform="translate(0)" style="fill: #f2cf81"/>
        <path d="M.642,55.1v87.275L8.52,166.042c.548,1.441,3.761,1.376,4.138,0l6.747-23.506V55.1Zm4.263,87.383a.736.736,0,0,1-.734.734H4.155a.736.736,0,0,1-.734-.734v-.016a.736.736,0,0,1,.734-.734h.016a.736.736,0,0,1,.734.734Zm0-16.6a.736.736,0,0,1-.734.734H4.155a.736.736,0,0,1-.734-.734v-.016a.736.736,0,0,1,.734-.734h.016a.736.736,0,0,1,.734.734Zm0-16.6a.736.736,0,0,1-.734.734H4.155a.736.736,0,0,1-.734-.734v-.016a.736.736,0,0,1,.734-.734h.016a.736.736,0,0,1,.734.734Zm0-16.6a.736.736,0,0,1-.734.734H4.155a.736.736,0,0,1-.734-.734v-.016a.736.736,0,0,1,.734-.734h.016a.736.736,0,0,1,.734.734Zm0-16.6a.736.736,0,0,1-.734.734H4.155a.736.736,0,0,1-.734-.734v-.016a.736.736,0,0,1,.734-.734h.016a.736.736,0,0,1,.734.734Zm0-16.6a.736.736,0,0,1-.734.734H4.155a.736.736,0,0,1-.734-.734v-.016a.736.736,0,0,1,.734-.734h.016a.736.736,0,0,1,.734.734Zm3.13,97.408a.736.736,0,0,1-.734.735H7.286a.737.737,0,0,1-.735-.735v-.015a.738.738,0,0,1,.735-.735H7.3a.738.738,0,0,1,.735.735Zm3.13-14.408a.736.736,0,0,1-.734.734h-.016a.736.736,0,0,1-.734-.734v-.016a.736.736,0,0,1,.734-.734h.016a.736.736,0,0,1,.734.734Zm0-16.6a.736.736,0,0,1-.734.734h-.016a.736.736,0,0,1-.734-.734v-.016a.736.736,0,0,1,.734-.734h.016a.736.736,0,0,1,.734.734Zm0-16.6a.736.736,0,0,1-.734.734h-.016a.736.736,0,0,1-.734-.734v-.016a.736.736,0,0,1,.734-.734h.016a.736.736,0,0,1,.734.734Zm0-16.6a.736.736,0,0,1-.734.734h-.016a.736.736,0,0,1-.734-.734v-.016a.736.736,0,0,1,.734-.734h.016a.736.736,0,0,1,.734.734Zm0-16.6a.736.736,0,0,1-.734.734h-.016a.736.736,0,0,1-.734-.734v-.016a.736.736,0,0,1,.734-.734h.016a.736.736,0,0,1,.734.734Zm0-16.6a.736.736,0,0,1-.734.734h-.016a.736.736,0,0,1-.734-.734v-.016a.736.736,0,0,1,.734-.734h.016a.736.736,0,0,1,.734.734Zm3.13,97.408a.737.737,0,0,1-.734.735h-.015a.737.737,0,0,1-.734-.735v-.015a.737.737,0,0,1,.734-.735h.016a.737.737,0,0,1,.734.735Zm3.13-14.408a.736.736,0,0,1-.734.734h-.016a.736.736,0,0,1-.734-.734v-.016a.736.736,0,0,1,.734-.734h.016a.736.736,0,0,1,.734.734Zm0-16.6a.736.736,0,0,1-.734.734h-.016a.736.736,0,0,1-.734-.734v-.016a.736.736,0,0,1,.734-.734h.016a.736.736,0,0,1,.734.734Zm0-16.6a.736.736,0,0,1-.734.734h-.016a.736.736,0,0,1-.734-.734v-.016a.736.736,0,0,1,.734-.734h.016a.736.736,0,0,1,.734.734Zm0-16.6a.736.736,0,0,1-.734.734h-.016a.736.736,0,0,1-.734-.734v-.016a.736.736,0,0,1,.734-.734h.016a.736.736,0,0,1,.734.734Zm0-16.6a.736.736,0,0,1-.734.734h-.016a.736.736,0,0,1-.734-.734v-.016a.736.736,0,0,1,.734-.734h.016a.736.736,0,0,1,.734.734Zm0-16.6a.736.736,0,0,1-.734.734h-.016a.736.736,0,0,1-.734-.734v-.016a.736.736,0,0,1,.734-.734h.016a.736.736,0,0,1,.734.734Z" transform="translate(0)" style="fill: #f2cf81"/>
      </g>
    </g>
  </g>
</svg>
