<svg id="servo-fs90r" xmlns="http://www.w3.org/2000/svg" xmlns:xlink="http://www.w3.org/1999/xlink" width="84.865mm" height="71.858mm" viewBox="0 0 240.563 203.691">
  <defs>
    <style>
      .cls-1, .cls-2, .cls-29, .cls-3 {
        fill: none;
      }

      .cls-1 {
        stroke: #754c24;
      }

      .cls-1, .cls-2, .cls-20, .cls-29, .cls-3, .cls-4, .cls-5, .cls-6, .cls-9 {
        stroke-miterlimit: 10;
      }

      .cls-1, .cls-2, .cls-3 {
        stroke-width: 2.126px;
      }

      .cls-2 {
        stroke: red;
      }

      .cls-3 {
        stroke: #fcee21;
      }

      .cls-20, .cls-4, .cls-5, .cls-6, .cls-9 {
        stroke: #154eaa;
      }

      .cls-4, .cls-5, .cls-6, .cls-9 {
        stroke-width: 1.417px;
      }

      .cls-4 {
        fill: url(#Безымянный_градиент_3);
      }

      .cls-19, .cls-20, .cls-5 {
        fill: #2467d3;
      }

      .cls-11, .cls-6, .cls-9 {
        fill: #0f58ce;
      }

      .cls-7 {
        fill: #e6e6e6;
      }

      .cls-8 {
        fill: #333;
      }

      .cls-9 {
        opacity: 0.96;
      }

      .cls-17, .cls-9 {
        isolation: isolate;
      }

      .cls-10 {
        fill: #154eaa;
      }

      .cls-12 {
        fill: #d3d3d3;
      }

      .cls-13 {
        fill: #e8e7e6;
      }

      .cls-14 {
        fill: #7f7b77;
      }

      .cls-15 {
        fill: #999;
      }

      .cls-16 {
        fill: #6d6e71;
      }

      .cls-17, .cls-18 {
        font-size: 5px;
      }

      .cls-17, .cls-18, .cls-22 {
        fill: #fff;
        font-family: TrebuchetMS-Bold, Trebuchet MS;
        font-weight: 700;
      }

      .cls-18 {
        letter-spacing: -0.036em;
      }

      .cls-20 {
        stroke-width: 2.835px;
      }

      .cls-21 {
        fill: #2060bc;
      }

      .cls-22 {
        font-size: 6px;
        letter-spacing: -0.036em;
      }

      .cls-23 {
        fill: #b3b3b3;
      }

      .cls-24 {
        fill: #939598;
      }

      .cls-25 {
        fill: url(#Безымянный_градиент_5);
      }

      .cls-26 {
        fill: url(#Безымянный_градиент_26);
      }

      .cls-27 {
        fill: url(#Безымянный_градиент_25);
      }

      .cls-28 {
        fill: #e6e7e8;
      }

      .cls-29 {
        stroke: #ccc;
      }

      .cls-30 {
        fill: url(#Безымянный_градиент_10);
      }

      .cls-31 {
        fill: url(#Безымянный_градиент_2);
      }

      .cls-32 {
        fill: url(#Безымянный_градиент_10-2);
      }

      .cls-33 {
        fill: url(#Безымянный_градиент_28);
      }

      .cls-34 {
        fill: url(#Безымянный_градиент_2-2);
      }
    </style>
    <linearGradient id="Безымянный_градиент_3" data-name="Безымянный градиент 3" x1="191.247" y1="46.969" x2="191.247" y2="74.225" gradientTransform="matrix(1, 0, 0, -1, 0, 89.376)" gradientUnits="userSpaceOnUse">
      <stop offset="0.035" stop-color="#0071bc"/>
      <stop offset="1" stop-color="#2e3192"/>
    </linearGradient>
    <linearGradient id="Безымянный_градиент_5" data-name="Безымянный градиент 5" x1="47.354" y1="137.573" x2="47.354" y2="125.951" gradientUnits="userSpaceOnUse">
      <stop offset="0.035" stop-color="#0071bc"/>
      <stop offset="0.256" stop-color="#046cb9"/>
      <stop offset="0.522" stop-color="#0e5daf"/>
      <stop offset="0.81" stop-color="#20459f"/>
      <stop offset="1" stop-color="#2e3192"/>
    </linearGradient>
    <linearGradient id="Безымянный_градиент_26" data-name="Безымянный градиент 26" x1="57.859" y1="131.762" x2="59.248" y2="131.762" gradientUnits="userSpaceOnUse">
      <stop offset="0" stop-color="#2e3192"/>
      <stop offset="0.19" stop-color="#20459f"/>
      <stop offset="0.478" stop-color="#0e5daf"/>
      <stop offset="0.744" stop-color="#046cb9"/>
      <stop offset="0.965" stop-color="#0071bc"/>
    </linearGradient>
    <linearGradient id="Безымянный_градиент_25" data-name="Безымянный градиент 25" x1="57.859" y1="127.099" x2="59.248" y2="127.099" gradientUnits="userSpaceOnUse">
      <stop offset="0" stop-color="#2e3192"/>
      <stop offset="0.433" stop-color="#1b4ba3"/>
      <stop offset="0.965" stop-color="#0071bc"/>
    </linearGradient>
    <linearGradient id="Безымянный_градиент_10" data-name="Безымянный градиент 10" x1="193.975" y1="138.242" x2="193.975" y2="126.62" gradientUnits="userSpaceOnUse">
      <stop offset="0.035" stop-color="#0071bc"/>
      <stop offset="0.05" stop-color="#046cb8"/>
      <stop offset="0.113" stop-color="#115aad"/>
      <stop offset="0.19" stop-color="#194ea5"/>
      <stop offset="0.295" stop-color="#1f47a0"/>
      <stop offset="0.553" stop-color="#20459f"/>
      <stop offset="1" stop-color="#2e3192"/>
    </linearGradient>
    <linearGradient id="Безымянный_градиент_2" data-name="Безымянный градиент 2" x1="193.975" y1="138.242" x2="193.975" y2="126.62" xlink:href="#Безымянный_градиент_5"/>
    <linearGradient id="Безымянный_градиент_10-2" x1="186.18" y1="127.768" x2="201.77" y2="127.768" gradientTransform="translate(387.95 255.536) rotate(-180)" xlink:href="#Безымянный_градиент_10"/>
    <linearGradient id="Безымянный_градиент_28" data-name="Безымянный градиент 28" x1="193.665" y1="158.954" x2="193.665" y2="151.584" gradientTransform="translate(387.33 310.538) rotate(-180)" gradientUnits="userSpaceOnUse">
      <stop offset="0.035" stop-color="#297de2"/>
      <stop offset="0.219" stop-color="#2667c8"/>
      <stop offset="0.432" stop-color="#2254b1"/>
      <stop offset="0.633" stop-color="#2149a4"/>
      <stop offset="0.81" stop-color="#20459f"/>
      <stop offset="1" stop-color="#2e3192"/>
    </linearGradient>
    <linearGradient id="Безымянный_градиент_2-2" data-name="Безымянный градиент 2" x1="-1044.563" y1="715.807" x2="-1044.563" y2="751.24" gradientTransform="matrix(-1, 0, 0, 1, -985.612, -700.245)" xlink:href="#Безымянный_градиент_5"/>
  </defs>
  <title>servo-fs90r</title>
  <g id="side3">
    <g>
      <polyline class="cls-1" points="128.503 63.57 131.191 64.258 154.003 64.258"/>
      <polyline class="cls-2" points="128.503 66.258 131.191 66.258 154.003 66.258"/>
      <polyline class="cls-3" points="128.503 69.195 131.003 68.258 154.003 68.258"/>
    </g>
    <polygon class="cls-4" points="224.644 15.151 158.447 15.151 153.956 23.134 153.956 34.585 158.447 42.407 224.644 42.407 228.54 34.744 228.45 23.437 224.644 15.151"/>
    <rect class="cls-5" x="158.253" y="43.4" width="66" height="40.858"/>
    <polygon class="cls-6" points="224.209 57.983 228.761 53.749 228.493 34.399 224.209 43.336 224.209 57.983"/>
    <path class="cls-6" d="M224.714,84.222l4.039-4.371V53.923h-4.5l.055,30.068C224.31,84.241,224.551,84.378,224.714,84.222Z"/>
    <rect class="cls-7" x="158.253" y="53.373" width="65.956" height="14.885"/>
    <rect class="cls-8" x="158.253" y="64.258" width="65.956" height="14"/>
    <polygon class="cls-6" points="158.24 58.169 153.688 53.935 153.956 34.585 158.24 43.523 158.24 58.169"/>
    <path class="cls-6" d="M157.734,84.408,153.7,80.037V54.109h4.5l-.055,30.069C158.138,84.427,157.9,84.564,157.734,84.408Z"/>
    <path class="cls-9" d="M143.369,49.863a8.54,8.54,0,0,1,1.147.546h0a3.763,3.763,0,0,0,3.7.671,3.2,3.2,0,0,0-.112-5.7c-1.284-.6-2.309-.214-3.922.825h0l-.933.425a4.269,4.269,0,0,1-.657.078V42.168h11.256l-.118,5.041,4.378,5.838c.181.229.052,1.227-.208,1.231l-15.3-.169L142.6,49.74A5.641,5.641,0,0,1,143.369,49.863Z"/>
    <path class="cls-9" d="M239.079,49.676a8.546,8.546,0,0,0-1.147.547h0a3.763,3.763,0,0,1-3.7.671,3.2,3.2,0,0,1,.112-5.7c1.284-.606,2.309-.214,3.922.825h0l.933.425a4.269,4.269,0,0,0,.657.078V41.982H228.6l.117,5.041-4.377,5.838c-.181.228-.052,1.226.207,1.231l15.3-.169.007-4.369A5.8,5.8,0,0,0,239.079,49.676Z"/>
    <polygon class="cls-6" points="224.209 57.983 228.761 53.749 228.493 34.399 224.209 43.336 224.209 57.983"/>
    <path class="cls-6" d="M224.714,84.222l4.039-4.371V53.923h-4.5l.055,30.068C224.31,84.241,224.551,84.378,224.714,84.222Z"/>
    <path class="cls-9" d="M239.079,49.676a8.546,8.546,0,0,0-1.147.547h0a3.763,3.763,0,0,1-3.7.671,3.2,3.2,0,0,1,.112-5.7c1.284-.606,2.309-.214,3.922.825h0l.933.425a4.269,4.269,0,0,0,.657.078V41.982H228.6l.117,5.041-4.377,5.838c-.181.228-.052,1.226.207,1.231l15.3-.169.007-4.369A5.8,5.8,0,0,0,239.079,49.676Z"/>
    <g>
      <path id="path5572" class="cls-10" d="M170.656,15.914A12.748,12.748,0,1,0,183.4,28.664a12.747,12.747,0,0,0-12.748-12.75h0"/>
      <path id="path5576" class="cls-10" d="M182.646,21.708a6.954,6.954,0,1,0,6.952,6.955,6.955,6.955,0,0,0-6.952-6.955"/>
      <path id="path5580" class="cls-11" d="M170.656,18.232a10.43,10.43,0,1,0,10.43,10.431,10.43,10.43,0,0,0-10.43-10.431h0"/>
      <path id="path5584" class="cls-11" d="M182.646,23.447a5.215,5.215,0,1,0,5.214,5.216,5.215,5.215,0,0,0-5.214-5.216"/>
      <g>
        <path class="cls-12" d="M181.8,31.706c7.638-4.494,27.468-21.268,27.468-21.268,2.583-2.19,4.383-4.054,4.352-5.971-.022-1.376-.052-3.662-2.023-3.948a9.249,9.249,0,0,0-6.35,1.152S175.072,16.565,165.951,23c-4.148,2.925-3.873,4.541-4.143,6.827-.385,3.264,2.709,5.093,6.22,5.912C173.134,36.926,179.218,33.223,181.8,31.706Z"/>
        <path class="cls-13" d="M181.737,30.993c7.945-4.576,28.174-22.225,28.174-22.225,2.548-2.176,3.441-3.724,3.577-5.189.132-1.412-.7-4.01-4.173-3.518a13.4,13.4,0,0,0-3.816.946c-10.439,3.872-30.067,14.531-39.981,20.544-4.295,2.605-3.984,4.746-4.189,7.092-.292,3.347,2.894,5.323,6.47,6.271C173,36.292,179.164,32.475,181.737,30.993Z"/>
        <path class="cls-14" d="M170.9,32.251h0c2.06,0,6.488-.472,6.488-3.942h0c0-2.06-3.185-3.72-6.1-3.72l-.2.022c-3.37.169-6.044,1.749-6.044,3.809h0C165.04,31.654,168.839,32.251,170.9,32.251Z"/>
        <path class="cls-15" d="M170.9,30.993h0c2.06,0,6.488-.472,6.488-3.942h0c0-2.06-3.185-3.72-6.1-3.72l-.2.022c-3.37.169-6.044,1.749-6.044,3.809h0C165.04,30.4,168.839,30.993,170.9,30.993Z"/>
        <path id="path5616" class="cls-16" d="M179.767,22.87a1.158,1.158,0,1,1,1.617.264h0a1.155,1.155,0,0,1-1.614-.261l0,0"/>
        <path id="path5620" class="cls-16" d="M184.533,19.8a1.159,1.159,0,1,1,1.618.264h0a1.161,1.161,0,0,1-1.618-.264"/>
        <path id="path5624" class="cls-16" d="M189.3,16.726a1.159,1.159,0,1,1,1.616.265,1.159,1.159,0,0,1-1.616-.265h0"/>
        <path id="path5628" class="cls-16" d="M194.071,13.655a1.158,1.158,0,1,1,1.616.264h0a1.157,1.157,0,0,1-1.615-.265"/>
        <path id="path5632" class="cls-16" d="M198.838,10.6a1.159,1.159,0,1,1,1.617.266h0a1.158,1.158,0,0,1-1.616-.266h0"/>
        <path id="path5636" class="cls-16" d="M203.136,8.043a1.609,1.609,0,1,1,0,.005l0-.005"/>
        <path id="path5640" class="cls-16" d="M208.374,4.424a1.159,1.159,0,1,1,1.617.265h0a1.157,1.157,0,0,1-1.615-.264h0"/>
      </g>
    </g>
    <g>
      <text class="cls-17" transform="translate(164.51 70.251) scale(1.338 1)">Continuous servo</text>
      <text class="cls-18" transform="translate(182.446 76.301) scale(1.338 1)">FS90R</text>
    </g>
  </g>
  <g id="side2">
    <g>
      <polyline class="cls-1" points="0.719 187.881 3.713 188.569 29.123 188.569"/>
      <polyline class="cls-2" points="0.719 190.569 3.713 190.569 29.123 190.569"/>
      <polyline class="cls-3" points="0.719 193.506 3.504 192.569 29.123 192.569"/>
    </g>
    <g>
      <g>
        <path class="cls-19" d="M92.827,150.915h12.018a.522.522,0,0,1,.522.522v6.326a.522.522,0,0,1-.522.522H92.827a0,0,0,0,1,0,0v-7.37A0,0,0,0,1,92.827,150.915Z"/>
        <path class="cls-10" d="M92.827,150.915h12.018a.522.522,0,0,1,.522.522v2.419a0,0,0,0,1,0,0H92.827a0,0,0,0,1,0,0v-2.941A0,0,0,0,1,92.827,150.915Z"/>
        <path class="cls-10" d="M102.729,150.915h2.116a.522.522,0,0,1,.522.522v6.485a.363.363,0,0,1-.363.363h-2.275a0,0,0,0,1,0,0v-7.37A0,0,0,0,1,102.729,150.915Z"/>
      </g>
      <g>
        <path class="cls-19" d="M13.176,150.915H25.195a.522.522,0,0,1,.522.522v6.326a.522.522,0,0,1-.522.522H13.176a0,0,0,0,1,0,0v-7.37a0,0,0,0,1,0,0Z" transform="translate(38.893 309.2) rotate(180)"/>
        <path class="cls-10" d="M13.176,150.915h12.54a0,0,0,0,1,0,0v2.419a.522.522,0,0,1-.522.522H13.176a0,0,0,0,1,0,0v-2.941A0,0,0,0,1,13.176,150.915Z" transform="translate(38.893 304.771) rotate(180)"/>
        <path class="cls-10" d="M13.176,150.915h2.275a.363.363,0,0,1,.363.363v6.485a.522.522,0,0,1-.522.522H13.176a0,0,0,0,1,0,0v-7.37A0,0,0,0,1,13.176,150.915Z" transform="translate(28.991 309.2) rotate(180)"/>
      </g>
      <rect class="cls-20" x="27.107" y="138.676" width="64.346" height="62.929"/>
    </g>
    <rect class="cls-21" x="27.804" y="156.588" width="62.479" height="2.828"/>
    <g>
      <rect class="cls-8" x="28.363" y="173.451" width="61.92" height="20.055"/>
      <rect class="cls-7" x="28.363" y="157.451" width="61.92" height="17.82"/>
      <g>
        <text class="cls-17" transform="translate(32.365 182.255) scale(1.338 1)">Continuous servo</text>
        <text class="cls-22" transform="translate(48.302 190.305) scale(1.338 1)">FS90R</text>
      </g>
    </g>
    <rect class="cls-23" x="39.954" y="119.864" width="10.8" height="7.087" transform="translate(90.709 246.816) rotate(180)"/>
    <path class="cls-24" d="M38.634,111.959H52.075a0,0,0,0,1,0,0V123.2a1.2,1.2,0,0,1-1.2,1.2H39.834a1.2,1.2,0,0,1-1.2-1.2V111.959a0,0,0,0,1,0,0Z" transform="translate(90.709 236.355) rotate(180)"/>
    <g>
      <path class="cls-25" d="M28.8,125.951h37.1a1,1,0,0,1,1,1v10.623a0,0,0,0,1,0,0H27.8a0,0,0,0,1,0,0V126.95A1,1,0,0,1,28.8,125.951Z"/>
      <path class="cls-26" d="M58,125.951h1.112a.139.139,0,0,1,.139.139v11.483a0,0,0,0,1,0,0H58a.139.139,0,0,1-.139-.139V126.09a.139.139,0,0,1,.139-.139Z"/>
      <path class="cls-10" d="M27.8,125.951H66.9a0,0,0,0,1,0,0v1.241a1.055,1.055,0,0,1-1.055,1.055H28.579a.775.775,0,0,1-.775-.775v-1.521a0,0,0,0,1,0,0Z" transform="translate(94.709 254.198) rotate(180)"/>
      <rect class="cls-27" x="57.859" y="125.951" width="1.389" height="2.296"/>
    </g>
    <g>
      <rect class="cls-28" y="113.194" width="90.709" height="6.628" rx="2.342" transform="translate(90.709 233.016) rotate(180)"/>
      <line class="cls-29" x1="42.931" y1="113.173" x2="42.931" y2="119.801"/>
      <line class="cls-29" x1="6.931" y1="113.173" x2="6.931" y2="119.801"/>
      <line class="cls-29" x1="48.163" y1="113.194" x2="48.163" y2="119.822"/>
      <line class="cls-29" x1="83.611" y1="113.236" x2="83.611" y2="119.864"/>
    </g>
  </g>
  <g id="side1">
    <g>
      <polyline class="cls-1" points="155.454 188.55 158.448 189.238 183.858 189.238"/>
      <polyline class="cls-2" points="155.454 191.238 158.448 191.238 183.858 191.238"/>
      <polyline class="cls-3" points="155.454 194.175 158.239 193.238 183.858 193.238"/>
    </g>
    <rect class="cls-20" x="176.299" y="139.344" width="35.433" height="62.929"/>
    <rect class="cls-23" x="188.689" y="120.533" width="10.8" height="7.087" transform="translate(388.178 248.153) rotate(180)"/>
    <path class="cls-24" d="M187.368,112.628H200.81a0,0,0,0,1,0,0v11.236a1.2,1.2,0,0,1-1.2,1.2H188.569a1.2,1.2,0,0,1-1.2-1.2V112.628A0,0,0,0,1,187.368,112.628Z" transform="translate(388.178 237.693) rotate(180)"/>
    <g>
      <path class="cls-30" d="M175.894,126.62h36.162a1,1,0,0,1,1,1v10.623a0,0,0,0,1,0,0H174.9a0,0,0,0,1,0,0V127.619a1,1,0,0,1,1-1Z"/>
      <path class="cls-10" d="M174.9,126.62h38.16a0,0,0,0,1,0,0v1.241A1.055,1.055,0,0,1,212,128.916H175.67a.775.775,0,0,1-.775-.775V126.62a0,0,0,0,1,0,0Z" transform="translate(387.95 255.536) rotate(180)"/>
    </g>
    <g>
      <path class="cls-31" d="M187.179,126.62h13.593a1,1,0,0,1,1,1v10.623a0,0,0,0,1,0,0H186.18a0,0,0,0,1,0,0V127.619A1,1,0,0,1,187.179,126.62Z"/>
      <path class="cls-32" d="M186.18,126.62H201.77a0,0,0,0,1,0,0v1.241a1.055,1.055,0,0,1-1.055,1.055h-13.76a.775.775,0,0,1-.775-.775V126.62A0,0,0,0,1,186.18,126.62Z" transform="translate(387.95 255.536) rotate(180)"/>
    </g>
    <rect class="cls-7" x="182.564" y="113.863" width="22.677" height="6.628" rx="2.342" transform="translate(387.806 234.354) rotate(180)"/>
    <line class="cls-29" x1="190.951" y1="113.842" x2="190.951" y2="120.47"/>
    <line class="cls-29" x1="196.898" y1="113.863" x2="196.898" y2="120.491"/>
    <g>
      <path class="cls-19" d="M174.9,151.584h37.94a0,0,0,0,1,0,0v6.749a.621.621,0,0,1-.621.621h-36.77a.549.549,0,0,1-.549-.549v-6.821A0,0,0,0,1,174.9,151.584Z" transform="translate(387.73 310.538) rotate(180)"/>
      <path class="cls-10" d="M174.994,151.584h37.743a.1.1,0,0,1,.1.1V153.9a.621.621,0,0,1-.621.621H175.5a.609.609,0,0,1-.609-.609v-2.233a.1.1,0,0,1,.1-.1Z" transform="translate(387.73 306.109) rotate(-180)"/>
      <path class="cls-10" d="M174.9,151.584h2.462a.363.363,0,0,1,.363.363v6.485a.522.522,0,0,1-.522.522h-2.3a0,0,0,0,1,0,0v-7.37A0,0,0,0,1,174.9,151.584Z" transform="translate(352.615 310.538) rotate(180)"/>
      <rect class="cls-10" x="193.098" y="151.584" width="2.825" height="7.37" transform="translate(389.021 310.538) rotate(180)"/>
      <path class="cls-10" d="M210.23,151.584h2.3a.522.522,0,0,1,.522.522v6.485a.363.363,0,0,1-.363.363H210.23a0,0,0,0,1,0,0v-7.37a0,0,0,0,1,0,0Z"/>
    </g>
    <path class="cls-33" d="M175.687,151.584h35.956a0,0,0,0,1,0,0v6.749a.621.621,0,0,1-.621.621H176.236a.549.549,0,0,1-.549-.549v-6.821A0,0,0,0,1,175.687,151.584Z" transform="translate(387.33 310.538) rotate(180)"/>
    <path class="cls-10" d="M174.994,151.584h37.962a.1.1,0,0,1,.1.1V153.9a.621.621,0,0,1-.621.621H175.5a.609.609,0,0,1-.609-.609v-2.233a.1.1,0,0,1,.1-.1Z" transform="translate(387.95 306.109) rotate(-180)"/>
    <path class="cls-10" d="M175.375,151.584h2.462a.363.363,0,0,1,.363.363v6.485a.522.522,0,0,1-.522.522h-2.3a0,0,0,0,1,0,0v-7.37a0,0,0,0,1,0,0Z" transform="translate(353.575 310.538) rotate(180)"/>
    <path class="cls-10" d="M209.143,151.584h2.286a.522.522,0,0,1,.522.522v6.485a.363.363,0,0,1-.363.363h-2.445a0,0,0,0,1,0,0v-7.37A0,0,0,0,1,209.143,151.584Z"/>
    <g>
      <rect class="cls-10" x="189.098" y="151.584" width="2.825" height="7.37" transform="translate(381.021 310.538) rotate(180)"/>
      <rect class="cls-10" x="194.931" y="151.584" width="2.825" height="7.37" transform="translate(392.688 310.538) rotate(180)"/>
    </g>
  </g>
  <g id="top">
    <g>
      <polyline class="cls-1" points="0.719 30.641 3.407 31.328 26.219 31.328"/>
      <polyline class="cls-2" points="0.719 33.328 3.407 33.328 26.219 33.328"/>
      <polyline class="cls-3" points="0.719 36.266 3.219 35.328 26.219 35.328"/>
    </g>
    <g>
      <path id="path5548" class="cls-19" d="M104.935,15.561a.455.455,0,0,1,.432.462V30.242a.455.455,0,0,1-.432.462h-1.5a2.778,2.778,0,0,1-1.711-.8,3.031,3.031,0,0,0-2.336-.875,4.253,4.253,0,0,0,0,8.488,3.025,3.025,0,0,0,2.335-.875,2.781,2.781,0,0,1,1.712-.8h1.5a.455.455,0,0,1,.432.463V50.532a.455.455,0,0,1-.432.463H13.956a.455.455,0,0,1-.432-.463V36.313a.454.454,0,0,1,.432-.463h1.5a2.778,2.778,0,0,1,1.711.8,3.031,3.031,0,0,0,2.336.875,4.253,4.253,0,0,0,0-8.488h0a3.031,3.031,0,0,0-2.336.875,2.778,2.778,0,0,1-1.711.8h-1.5a.455.455,0,0,1-.432-.462V16.023a.455.455,0,0,1,.432-.462Z"/>
      <path id="path5552" class="cls-10" d="M14.959,50.994h88.973a1.462,1.462,0,0,0,1.435-1.477V36.134a1.462,1.462,0,0,0-1.435-1.477h-1.463a3.731,3.731,0,0,0-2.414,1.081,2.107,2.107,0,0,1-1.544.492,2.954,2.954,0,0,1,0-5.906,2.1,2.1,0,0,1,1.544.493,3.738,3.738,0,0,0,2.414,1.079h1.463a1.46,1.46,0,0,0,1.435-1.476V17.037a1.46,1.46,0,0,0-1.435-1.476H14.959a1.46,1.46,0,0,0-1.435,1.476V30.42A1.459,1.459,0,0,0,14.959,31.9h1.463a3.738,3.738,0,0,0,2.414-1.079,2.1,2.1,0,0,1,1.544-.493,2.954,2.954,0,0,1,0,5.906h0a2.107,2.107,0,0,1-1.544-.492,3.731,3.731,0,0,0-2.414-1.081H14.959a1.462,1.462,0,0,0-1.435,1.477V49.517a1.462,1.462,0,0,0,1.435,1.477m.59-2.708V36.6h.873a1.936,1.936,0,0,1,.934.4,4.1,4.1,0,0,0,3.024,1.107,4.835,4.835,0,1,0,0-9.67,4.085,4.085,0,0,0-3.024,1.11,1.955,1.955,0,0,1-.934.4h-.873V18.27h87.793V29.952h-.873a1.951,1.951,0,0,1-.933-.4,4.092,4.092,0,0,0-3.025-1.11,4.835,4.835,0,1,0,0,9.67A4.1,4.1,0,0,0,101.536,37a1.947,1.947,0,0,1,.933-.4h.873V48.286H15.549"/>
      <path id="path5556" class="cls-34" d="M92.162,15.561a.471.471,0,0,1,.465.462V50.532a.471.471,0,0,1-.465.463H25.74a.47.47,0,0,1-.465-.463V16.023a.47.47,0,0,1,.465-.462Z"/>
      <path id="path5560" class="cls-10" d="M27.149,50.994H91.1a1.5,1.5,0,0,0,1.523-1.477V17.037A1.5,1.5,0,0,0,91.1,15.561H27.149a1.5,1.5,0,0,0-1.522,1.476v32.48a1.505,1.505,0,0,0,1.522,1.477M28.27,18.27H89.707V48.286H28.27Z"/>
      <g>
        <path id="path5572-2" class="cls-10" d="M45.273,50.286a17.008,17.008,0,1,1,17.008-17.01,17.008,17.008,0,0,1-17.008,17.01h0"/>
        <path id="path5576-2" class="cls-10" d="M59.936,43.018a9.74,9.74,0,1,1,9.739-9.742,9.739,9.739,0,0,1-9.739,9.742"/>
      </g>
      <g>
        <path id="path5580-2" class="cls-11" d="M45.273,47.286a14.008,14.008,0,1,1,14.008-14.01,14.008,14.008,0,0,1-14.008,14.01h0"/>
        <path id="path5584-2" class="cls-11" d="M59.936,39.433a6.156,6.156,0,1,1,6.154-6.158h0a6.158,6.158,0,0,1-6.154,6.157"/>
      </g>
      <path class="cls-28" d="M36.571,37.286a9.919,9.919,0,0,0,13.2,4.739h0l.008-.005a9.856,9.856,0,0,0,1.437-.845l39.04-22.953h0a5.667,5.667,0,0,0,2.708-7.543v0h0a5.667,5.667,0,0,0-7.544-2.708h0L42.886,23.505a9.923,9.923,0,0,0-1.562.57l-.014,0h0A9.921,9.921,0,0,0,36.571,37.286Z"/>
      <path id="path5612" class="cls-24" d="M51.554,30.217a6.646,6.646,0,1,1-8.846-3.176,6.645,6.645,0,0,1,8.846,3.176h0"/>
      <g>
        <path id="path5616-2" class="cls-16" d="M89.917,12.116a1.316,1.316,0,1,1-1.751-.629h0a1.313,1.313,0,0,1,1.749.626v0"/>
        <path id="path5620-2" class="cls-16" d="M85.062,14.409a1.9,1.9,0,1,1-2.529-.908,1.9,1.9,0,0,1,2.529.908"/>
        <path id="path5624-2" class="cls-16" d="M79.149,17.2a1.316,1.316,0,1,1-1.751-.63,1.315,1.315,0,0,1,1.751.63l0,0"/>
        <path id="path5628-2" class="cls-16" d="M73.765,19.737a1.316,1.316,0,1,1-1.752-.628h0a1.315,1.315,0,0,1,1.75.628h0"/>
        <path id="path5632-2" class="cls-16" d="M68.38,22.278a1.316,1.316,0,1,1-1.751-.631h0a1.317,1.317,0,0,1,1.75.631"/>
        <path id="path5636-2" class="cls-16" d="M63,24.819a1.316,1.316,0,1,1-1.752-.631A1.315,1.315,0,0,1,63,24.819l0,0"/>
        <path id="path5640-2" class="cls-16" d="M57.612,27.359a1.316,1.316,0,1,1-1.751-.63h0a1.316,1.316,0,0,1,1.751.628v0"/>
      </g>
    </g>
  </g>
</svg>
