<svg id="servo-fb5118m" xmlns="http://www.w3.org/2000/svg" xmlns:xlink="http://www.w3.org/1999/xlink" viewBox="0 0 362.609 318.76"><defs><style>.cls-1,.cls-10,.cls-11,.cls-2,.cls-3,.cls-4,.cls-44{fill:none;}.cls-1,.cls-34,.cls-55{stroke:red;}.cls-1,.cls-2,.cls-3,.cls-4{stroke-linecap:round;stroke-width:2.597px;}.cls-1,.cls-10,.cls-11,.cls-2,.cls-3,.cls-34,.cls-36,.cls-37,.cls-4,.cls-44,.cls-54,.cls-55{stroke-miterlimit:10;}.cls-2{stroke:#000;}.cls-3{stroke:#bcbec0;}.cls-4{stroke:#e8b21a;}.cls-5{fill:url(#linear-gradient);}.cls-6{fill:#ccc;}.cls-7{fill:url(#linear-gradient-2);}.cls-50,.cls-8{opacity:0.48;}.cls-9{fill:#4d4d4d;}.cls-10,.cls-11,.cls-36,.cls-37,.cls-44{stroke:#231f20;}.cls-10{stroke-width:0.502px;}.cls-11{stroke-width:0.502px;}.cls-12{fill:url(#linear-gradient-3);}.cls-13{fill:url(#linear-gradient-4);}.cls-14{fill:url(#linear-gradient-5);}.cls-15{fill:url(#linear-gradient-6);}.cls-16{fill:url(#linear-gradient-7);}.cls-17{fill:url(#linear-gradient-8);}.cls-18{fill:url(#linear-gradient-9);}.cls-19{fill:#414042;}.cls-20{fill:#191919;}.cls-21{fill:#111;}.cls-22{fill:#262626;}.cls-23{fill:url(#radial-gradient);}.cls-24{fill:#1e1e1e;}.cls-25{fill:#343435;}.cls-26{fill:#1e1d1e;}.cls-27{fill:#353535;}.cls-28{fill:#333;}.cls-29{fill:url(#radial-gradient-2);}.cls-30{fill:url(#radial-gradient-3);}.cls-31{fill:#b3b3b3;}.cls-32{fill:#2a2a2b;}.cls-33{fill:red;}.cls-34,.cls-55{fill:#f7e831;}.cls-34{stroke-width:0.283px;}.cls-35{font-size:8.504px;font-family:MyriadPro-Regular, Myriad Pro;}.cls-35,.cls-56{fill:#fff200;}.cls-36,.cls-38{fill:#282626;}.cls-36,.cls-37,.cls-44{stroke-width:0.709px;}.cls-37{fill:#939598;}.cls-39{fill:url(#linear-gradient-10);}.cls-40{fill:url(#linear-gradient-11);}.cls-41{fill:#161414;}.cls-42{fill:url(#linear-gradient-12);}.cls-43{fill:url(#linear-gradient-13);}.cls-45{fill:url(#linear-gradient-14);}.cls-46{fill:url(#linear-gradient-15);}.cls-47{fill:url(#linear-gradient-16);}.cls-48{fill:url(#linear-gradient-17);}.cls-49{fill:url(#linear-gradient-18);}.cls-50{fill:#231f20;}.cls-51{fill:url(#linear-gradient-19);}.cls-52{fill:url(#linear-gradient-20);}.cls-53{fill:#020202;opacity:0.65;}.cls-54{stroke:#fff;stroke-width:0.283px;}.cls-55{stroke-width:0.452px;}.cls-56{font-size:14.173px;font-family:TrebuchetMS, Trebuchet MS;}.cls-57{fill:url(#linear-gradient-21);}.cls-58{fill:url(#linear-gradient-22);}.cls-59{fill:url(#linear-gradient-23);}.cls-60{fill:url(#linear-gradient-24);}</style><linearGradient id="linear-gradient" x1="325.901" y1="198.002" x2="342.341" y2="198.002" gradientUnits="userSpaceOnUse"><stop offset="0" stop-color="#999"/><stop offset="0.539" stop-color="#939598"/><stop offset="0.656" stop-color="#a0a1a3"/><stop offset="0.842" stop-color="#aeaeaf"/><stop offset="1" stop-color="#b3b3b3"/></linearGradient><linearGradient id="linear-gradient-2" x1="305.633" y1="267.31" x2="362.609" y2="267.31" gradientUnits="userSpaceOnUse"><stop offset="0" stop-color="#1a1a1a"/><stop offset="1" stop-color="#333"/></linearGradient><linearGradient id="linear-gradient-3" x1="305.633" y1="212.175" x2="362.609" y2="212.175" xlink:href="#linear-gradient-2"/><linearGradient id="linear-gradient-4" x1="323.629" y1="212.175" x2="344.613" y2="212.175" gradientUnits="userSpaceOnUse"><stop offset="0" stop-color="#a7a9ac" stop-opacity="0.1"/><stop offset="0.52" stop-color="#1a1a1a" stop-opacity="0"/><stop offset="1" stop-color="#a7a9ac" stop-opacity="0.1"/></linearGradient><linearGradient id="linear-gradient-5" x1="315.696" y1="207.073" x2="352.546" y2="207.073" xlink:href="#linear-gradient-2"/><linearGradient id="linear-gradient-6" x1="319.947" y1="204.663" x2="348.293" y2="204.663" xlink:href="#linear-gradient-2"/><linearGradient id="linear-gradient-7" x1="360.569" y1="317.671" x2="362.606" y2="317.671" gradientUnits="userSpaceOnUse"><stop offset="0" stop-color="#6d6e70"/><stop offset="0.716" stop-color="#a4a6a8"/><stop offset="1" stop-color="#bbbdbf"/></linearGradient><linearGradient id="linear-gradient-8" x1="305.63" y1="317.671" x2="307.668" y2="317.671" xlink:href="#linear-gradient-7"/><linearGradient id="linear-gradient-9" x1="305.633" y1="234.144" x2="362.609" y2="234.144" xlink:href="#linear-gradient-2"/><radialGradient id="radial-gradient" cx="103.646" cy="28.491" r="1.417" gradientTransform="translate(-0.2)" gradientUnits="userSpaceOnUse"><stop offset="0" stop-color="#1a1a1a"/><stop offset="1" stop-color="#4d4d4d"/></radialGradient><radialGradient id="radial-gradient-2" cx="81.205" cy="-9.39" r="11.33" gradientTransform="translate(16.879 35.187) scale(0.713 0.713)" gradientUnits="userSpaceOnUse"><stop offset="0" stop-color="#3b3b3b"/><stop offset="0.008" stop-color="#3d3d3d"/><stop offset="0.198" stop-color="#747474"/><stop offset="0.384" stop-color="#a1a1a1"/><stop offset="0.562" stop-color="#c4c4c4"/><stop offset="0.728" stop-color="#ddd"/><stop offset="0.878" stop-color="#ededed"/><stop offset="1" stop-color="#f2f2f2"/></radialGradient><radialGradient id="radial-gradient-3" cx="81.208" cy="-9.39" r="10.373" gradientTransform="translate(16.879 35.187) scale(0.713 0.713)" gradientUnits="userSpaceOnUse"><stop offset="0" stop-color="#a1a1a1"/><stop offset="0.069" stop-color="#ababab"/><stop offset="0.301" stop-color="#c7c7c7"/><stop offset="0.535" stop-color="#dbdbdb"/><stop offset="0.768" stop-color="#e7e7e7"/><stop offset="1" stop-color="#ebebeb"/></radialGradient><linearGradient id="linear-gradient-10" x1="322.073" y1="194.587" x2="346.167" y2="194.587" gradientTransform="translate(668.24 389.173) rotate(-180)" gradientUnits="userSpaceOnUse"><stop offset="0" stop-color="#a7a9ac" stop-opacity="0"/><stop offset="0.176" stop-color="#a7a9ac" stop-opacity="0.074"/><stop offset="0.525" stop-color="#a7a9ac" stop-opacity="0.2"/><stop offset="0.751" stop-color="#6e6f71" stop-opacity="0.119"/><stop offset="1" stop-color="#1a1a1a" stop-opacity="0"/></linearGradient><linearGradient id="linear-gradient-11" x1="322.073" y1="188.064" x2="346.167" y2="188.064" gradientTransform="translate(668.24 376.127) rotate(-180)" gradientUnits="userSpaceOnUse"><stop offset="0" stop-color="#a7a9ac" stop-opacity="0"/><stop offset="0.525" stop-color="#a7a9ac" stop-opacity="0.3"/><stop offset="0.647" stop-color="#95979a" stop-opacity="0.263"/><stop offset="0.817" stop-color="#646567" stop-opacity="0.158"/><stop offset="1" stop-color="#1a1a1a" stop-opacity="0"/></linearGradient><linearGradient id="linear-gradient-12" x1="73.561" y1="195.852" x2="90.002" y2="195.852" gradientTransform="matrix(1, 0, 0, -1, -7.251, 391.704)" xlink:href="#linear-gradient"/><linearGradient id="linear-gradient-13" x1="-4.93" y1="265.16" x2="108.74" y2="265.16" gradientTransform="matrix(-1, 0, 0, 1, 156.312, 0)" xlink:href="#linear-gradient-2"/><linearGradient id="linear-gradient-14" x1="6.689" y1="210.025" x2="108.736" y2="210.025" gradientTransform="matrix(1, 0, 0, -1, 40.887, 420.05)" xlink:href="#linear-gradient-2"/><linearGradient id="linear-gradient-15" x1="71.155" y1="210.025" x2="108.736" y2="210.025" gradientTransform="matrix(-1, 0, 0, 1, 156.312, 0)" gradientUnits="userSpaceOnUse"><stop offset="0" stop-color="#1a1a1a" stop-opacity="0"/><stop offset="1" stop-color="#a7a9ac" stop-opacity="0.3"/></linearGradient><linearGradient id="linear-gradient-16" x1="-113.224" y1="210.025" x2="-101.179" y2="210.025" gradientTransform="translate(250.801)" xlink:href="#linear-gradient-15"/><linearGradient id="linear-gradient-17" x1="63.358" y1="204.923" x2="100.208" y2="204.923" gradientTransform="matrix(1, 0, 0, -1, -7.254, 409.845)" xlink:href="#linear-gradient-2"/><linearGradient id="linear-gradient-18" x1="67.608" y1="202.513" x2="95.955" y2="202.513" gradientTransform="matrix(1, 0, 0, -1, -7.251, 405.026)" xlink:href="#linear-gradient-2"/><linearGradient id="linear-gradient-19" x1="104.672" y1="315.521" x2="108.738" y2="315.521" gradientTransform="matrix(1, 0, 0, -1, -57.098, 631.042)" xlink:href="#linear-gradient-7"/><linearGradient id="linear-gradient-20" x1="-4.932" y1="315.521" x2="-0.867" y2="315.521" gradientTransform="matrix(1, 0, 0, -1, 162.111, 631.043)" xlink:href="#linear-gradient-7"/><linearGradient id="linear-gradient-21" x1="72.639" y1="190.536" x2="90.423" y2="190.536" gradientTransform="matrix(1, 0, 0, -1, -6.751, 381.072)" xlink:href="#linear-gradient-10"/><linearGradient id="linear-gradient-22" x1="27.673" y1="185.913" x2="35.831" y2="185.913" gradientTransform="matrix(1, 0, 0, -1, 92.808, 371.827)" gradientUnits="userSpaceOnUse"><stop offset="0" stop-color="#a7a9ac" stop-opacity="0.3"/><stop offset="1" stop-color="#1a1a1a" stop-opacity="0"/></linearGradient><linearGradient id="linear-gradient-23" x1="113.332" y1="185.913" x2="121.49" y2="185.913" gradientTransform="translate(-92.41)" xlink:href="#linear-gradient-22"/><linearGradient id="linear-gradient-24" x1="158.299" y1="185.913" x2="176.083" y2="185.913" gradientTransform="translate(-92.41)" gradientUnits="userSpaceOnUse"><stop offset="0" stop-color="#a7a9ac" stop-opacity="0"/><stop offset="0.01" stop-color="#a7a9ac" stop-opacity="0.016"/><stop offset="0.109" stop-color="#a7a9ac" stop-opacity="0.141"/><stop offset="0.218" stop-color="#a7a9ac" stop-opacity="0.231"/><stop offset="0.343" stop-color="#a7a9ac" stop-opacity="0.284"/><stop offset="0.525" stop-color="#a7a9ac" stop-opacity="0.3"/><stop offset="0.734" stop-color="#a1a3a6" stop-opacity="0.287"/><stop offset="0.833" stop-color="#8d8e91" stop-opacity="0.244"/><stop offset="0.909" stop-color="#696b6c" stop-opacity="0.169"/><stop offset="0.972" stop-color="#383839" stop-opacity="0.063"/><stop offset="1" stop-color="#1a1a1a" stop-opacity="0"/></linearGradient></defs><g id="side"><g id="шнуры"><line class="cls-1" x1="306.8" y1="306.244" x2="272.757" y2="306.244"/><line class="cls-2" x1="306.8" y1="308.661" x2="272.757" y2="308.661"/><line class="cls-3" x1="306.8" y1="303.541" x2="272.757" y2="303.541"/><line class="cls-4" x1="306.8" y1="300.895" x2="272.757" y2="300.895"/></g><rect class="cls-5" x="325.901" y="192.333" width="16.44" height="11.339"/><rect class="cls-6" x="325.901" y="192.333" width="0.494" height="11.339"/><rect class="cls-6" x="326.898" y="192.333" width="0.494" height="11.339"/><rect class="cls-6" x="327.894" y="192.333" width="0.494" height="11.339"/><rect class="cls-6" x="328.891" y="192.333" width="0.494" height="11.339"/><rect class="cls-6" x="329.888" y="192.333" width="0.494" height="11.339"/><rect class="cls-6" x="330.884" y="192.333" width="0.494" height="11.339"/><rect class="cls-6" x="331.881" y="192.333" width="0.494" height="11.339"/><rect class="cls-6" x="332.877" y="192.333" width="0.494" height="11.339"/><rect class="cls-6" x="333.874" y="192.333" width="0.494" height="11.339"/><rect class="cls-6" x="334.871" y="192.333" width="0.494" height="11.339"/><rect class="cls-6" x="335.867" y="192.333" width="0.494" height="11.339"/><rect class="cls-6" x="336.864" y="192.333" width="0.494" height="11.339"/><rect class="cls-6" x="337.861" y="192.333" width="0.494" height="11.339"/><rect class="cls-6" x="338.857" y="192.333" width="0.494" height="11.339"/><rect class="cls-6" x="339.854" y="192.333" width="0.494" height="11.339"/><rect class="cls-6" x="340.85" y="192.333" width="0.494" height="11.339"/><rect class="cls-6" x="341.847" y="192.333" width="0.494" height="11.339"/><path class="cls-7" d="M305.633,215.86V316.754h2.14v2.006h52.691v-2.006h2.145V215.86Z"/><g class="cls-8"><polygon class="cls-9" points="362.183 217.111 362.183 316.754 360.464 316.754 360.464 317.622 307.773 317.622 307.773 316.754 306.059 316.754 306.059 217.111 362.183 217.111"/></g><line class="cls-10" x1="305.63" y1="238.113" x2="362.606" y2="238.113"/><line class="cls-11" x1="305.633" y1="298.538" x2="362.607" y2="298.538"/><rect class="cls-12" x="305.633" y="208.49" width="56.976" height="7.37"/><g class="cls-8"><rect class="cls-13" x="323.629" y="208.49" width="20.983" height="7.37"/></g><rect class="cls-14" x="315.696" y="205.655" width="36.85" height="2.835"/><rect class="cls-15" x="319.947" y="203.671" width="28.346" height="1.984"/><path class="cls-16" d="M360.569,316.61h2.038a0,0,0,0,1,0,0v1.131a.991.991,0,0,1-.991.991h-.055a.991.991,0,0,1-.991-.991V316.61A0,0,0,0,1,360.569,316.61Z"/><path class="cls-17" d="M305.63,316.61h2.038a0,0,0,0,1,0,0v1.131a.991.991,0,0,1-.991.991h-.055a.991.991,0,0,1-.991-.991V316.61A0,0,0,0,1,305.63,316.61Z"/><line class="cls-11" x1="305.635" y1="313.034" x2="362.609" y2="313.034"/><rect class="cls-18" x="305.633" y="230.176" width="56.976" height="7.937"/><rect class="cls-19" x="331.285" y="226.826" width="5.669" height="3.35"/><rect class="cls-20" x="344.525" y="230.571" width="7.714" height="7.37" transform="translate(114.127 582.638) rotate(-90)"/><rect class="cls-21" x="316.003" y="230.571" width="7.714" height="7.37" transform="translate(85.605 554.116) rotate(-90)"/></g><g id="top"><g id="шнуры-2" data-name="шнуры"><line class="cls-1" x1="48.458" y1="29.964" x2="1.298" y2="29.964"/><line class="cls-2" x1="48.458" y1="32.381" x2="1.298" y2="32.381"/><line class="cls-3" x1="48.458" y1="27.261" x2="1.298" y2="27.261"/><line class="cls-4" x1="48.458" y1="24.615" x2="1.298" y2="24.615"/></g><path class="cls-22" d="M42.342,14.23a6.434,6.434,0,0,1-12.71,1.42h-1.76v25.6h1.76a6.43,6.43,0,1,1,0,2.84h-1.76V56.98h153.07V44.09h-1.76a6.43,6.43,0,1,1,0-2.84h1.76V15.65h-1.76a6.435,6.435,0,1,1,0-2.83h1.76V0H27.872V12.82h1.76a6.434,6.434,0,0,1,12.71,1.41Z"/><path class="cls-23" d="M104.863,28.491a1.286,1.286,0,0,1-.013.187,1.41,1.41,0,1,1,0-.373A1.616,1.616,0,0,1,104.863,28.491Z"/><rect class="cls-24" x="115.394" y="12.976" width="19.937" height="31.032" rx="1.645"/><rect class="cls-25" x="27.872" y="26.506" width="153.071" height="3.969" transform="translate(208.815 56.98) rotate(-180)"/><rect class="cls-26" x="47.573" y="0.144" width="113.669" height="56.693"/><path class="cls-27" d="M47.572,28.49a28.347,28.347,0,0,0,28.35,28.35h70.01V37.37a12.188,12.188,0,0,0,0-17.76V.14H75.922A28.347,28.347,0,0,0,47.572,28.49Z"/><path id="path5572-2" class="cls-28" d="M74.779,46.917A18.425,18.425,0,1,1,93.2,28.49,18.426,18.426,0,0,1,74.779,46.917h0"/><path id="path5576-2" class="cls-19" d="M74.78,42.7a14.207,14.207,0,1,1,14.2-14.209A14.207,14.207,0,0,1,74.78,42.7"/><path class="cls-29" d="M74.78,36.57c-.161,0-.311-.321-.469-.33s-.348.291-.505.272-.271-.356-.427-.385-.381.247-.535.209-.224-.386-.376-.434-.407.2-.556.143-.175-.411-.32-.477-.428.149-.569.075-.124-.429-.26-.512-.443.1-.574.006-.071-.441-.2-.539-.451.042-.57-.064-.018-.446-.131-.558-.453-.012-.558-.131.035-.445-.063-.57-.448-.066-.539-.2.088-.437.006-.574-.437-.119-.511-.26.14-.423.074-.569-.419-.17-.476-.32.191-.4.143-.554-.395-.22-.433-.376.238-.376.209-.534-.365-.266-.384-.424.282-.346.272-.506-.331-.309-.331-.469.321-.311.331-.469-.292-.348-.273-.506.357-.27.385-.426-.247-.381-.209-.535.387-.224.434-.376-.2-.408-.142-.556.41-.175.476-.32-.148-.428-.074-.569.428-.124.511-.26-.1-.443,0-.574.44-.071.539-.2-.043-.451.063-.57.446-.018.559-.131.012-.453.131-.558.444.035.57-.064.065-.447.2-.538.437.088.573.006.119-.437.26-.512.423.141.569.075.171-.419.32-.476.4.191.555.143.22-.395.375-.433.377.238.534.209.266-.365.425-.384.345.281.5.272.309-.331.47-.331.311.321.469.331.347-.292.505-.273.27.357.427.385.38-.247.535-.209.224.387.376.434.407-.2.556-.142.175.41.32.476.428-.149.569-.074.124.428.26.511.442-.1.573,0,.071.44.2.539.451-.043.57.063.018.446.131.559.452.011.558.131-.036.444.063.57.448.065.539.2-.089.437-.006.574.437.119.511.26-.14.423-.075.569.419.17.476.32-.19.4-.143.555.395.219.434.375-.238.376-.21.534.366.266.385.424-.282.346-.272.506.331.309.331.47-.322.31-.331.469.291.347.272.505-.356.27-.385.426.247.381.209.535-.386.225-.434.376.2.408.143.556-.411.176-.476.321.148.428.074.568-.429.124-.512.26.1.443.006.574-.441.071-.539.2.042.45-.064.57-.445.018-.558.13-.012.453-.131.559-.445-.036-.57.063-.066.448-.2.538-.437-.088-.573-.005-.119.436-.261.511-.423-.14-.568-.075-.171.419-.32.476-.4-.191-.555-.143-.22.4-.375.434-.377-.239-.535-.21-.265.366-.424.385-.345-.282-.506-.272S74.941,36.57,74.78,36.57Z"/><path class="cls-30" d="M74.782,35.888a7.4,7.4,0,1,1,7.4-7.4A7.4,7.4,0,0,1,74.782,35.888Z"/><path class="cls-6" d="M74.781,30.736a2.244,2.244,0,1,1,2.244-2.244A2.246,2.246,0,0,1,74.781,30.736Z"/><path class="cls-31" d="M74.782,30.287a1.8,1.8,0,1,1,1.8-1.795A1.8,1.8,0,0,1,74.782,30.287Z"/><path class="cls-32" d="M103.412,27.18a7.08,7.08,0,0,0,7.08,7.08V55.75h32.32V1.61h-32.32V20.09A7.082,7.082,0,0,0,103.412,27.18Z"/><path d="M129.234,43.211a.8.8,0,0,0,.882-.8V37.562l-1.416-.145v3.757l-.946-.1V37.886l-1.415-.145v3.191l-.984-.1V37.074l-1.415-.146v5.017a.8.8,0,0,0,.719.8Z"/><path d="M125.355,30.788l-1.415-.145v5.008a.809.809,0,0,0,.728.806l4.555.467a.81.81,0,0,0,.893-.806V31.276l-1.416-.144v3.757l-.946-.1V31.6l-1.415-.146v3.191l-.984-.1Z"/><path d="M127.754,23.327V20.136l-1.415-.145v3.191l-.984-.1V19.324l-1.415-.145v5.008a.809.809,0,0,0,.727.8l4.557.468a.81.81,0,0,0,.892-.8V19.812l-1.416-.145v3.757Z"/><path d="M128.034,14.676a.963.963,0,0,1,.354.278,1.25,1.25,0,0,1,.22.41,1.4,1.4,0,0,1-.03.993.688.688,0,0,1-.3.315.9.9,0,0,1-.528.088l-1.508-.154a1.076,1.076,0,0,1-.543-.2,1.042,1.042,0,0,1-.329-.418,1.368,1.368,0,0,1-.039-.995.951.951,0,0,1,.212-.343.719.719,0,0,1,.322-.2l.273-.075V12.4l-.381.061a1.97,1.97,0,0,0-1,.474,2.581,2.581,0,0,0-.69,1.018,4.327,4.327,0,0,0,.058,3,2.848,2.848,0,0,0,.844,1.16,2.294,2.294,0,0,0,1.224.5l1.507.155a1.977,1.977,0,0,0,1.239-.251,2.193,2.193,0,0,0,.872-1.023,3.837,3.837,0,0,0,.3-1.583,4.145,4.145,0,0,0-.237-1.405,3.328,3.328,0,0,0-.665-1.122,2.5,2.5,0,0,0-.982-.668l-.431-.158v2.016Z"/><polygon points="123.94 6.852 126.362 7.101 126.362 9.37 123.94 9.121 123.94 11.103 130.116 11.737 130.116 9.755 127.777 9.515 127.777 7.246 130.116 7.486 130.116 5.504 123.94 4.87 123.94 6.852"/><path class="cls-33" d="M120.916,42.329l-2.3-.182.051,8,.039-.855-.119,2.633.165-1.772.277.022-.017,1.782.367-2.607-.118.844.291.023.03-.858-.091,2.612.256-1.738.276.022-.014,1.781.364-2.612-.118.849.25.02.079-.85-.237,2.575.527-2.556-.175.846.331.027,0-.864-.006,2.641.235-1.759.3.024.022-.86-.067,2.612.357-2.584-.117.848.292.023.028-.861L122,52.167l.256-1.734.28.022,0-.872.015,2.652.227-1.761.29.023-.044,1.754.244-1.738.358.029.071,1.784.184-2.631-.06.862.271.022.106,1.784.184-2.622-.06.856.235.019.036-.865-.109,2.612.4-2.584-.132.852.321.026-.027,1.756.227-1.74.266.021,0-.869-.012,2.641.238-1.754.3.024.019-.864-.057,2.612.356-2.585-.117.853.306.025-.028,1.752.34-2.593-.112.857.253.02.009-.877-.026,2.649.247-1.754.367.029-.034-.868.1,2.65.124-1.766.25.02-.044,1.746.238-1.731.271.022,0-.876-.015,2.645.358-2.608-.118.857.307.025.013-.863-.041,2.616.34-2.6-.112.859.258.021,0-.871-.012,2.64.244-1.75.184.014.046-.858-.139,2.631.263-2.621V48.552l-4.469-.356v-4.64l-2.3-.183v4.64l-1.441-.115a1.081,1.081,0,0,1-1-1.078Z"/><path class="cls-33" d="M118.591,25.464l11.448.919v3.571l-9.562-.765C120.706,29.7,118.591,25.464,118.591,25.464Z"/><path class="cls-34" d="M118.223,4.542s-2.746,6.6-1.512,12.53c.927,4.459,4.059,8.288,6.173,11.981,1.589,2.777.781,4.73.368,6.751l-2.544.181c.393-2.239,1.069-3.971-.473-6.83-1.224-2.27-6.318-8.516-6.318-14.7C113.917,10.489,118.223,4.542,118.223,4.542Z"/><text class="cls-35" transform="translate(139.752 45.198) rotate(-90)">FB5118M</text></g><g id="качелька_top" data-name="качелька top"><path class="cls-19" d="M20.922,28.49a7.1,7.1,0,0,0,6.39,7.05c3.71.3,19.79,2.69,34.53,3.98a16.989,16.989,0,0,0,25.93-.06c13.59-1.22,30.96-3.46,34.4-3.91l.45-.06c.11-.02.18-.03.18-.03h.01a7.114,7.114,0,0,0,5.83-6.97,6.4,6.4,0,0,0-.07-.88,6.2,6.2,0,0,0-1.36-3.35,7.054,7.054,0,0,0-5.66-2.85s-19.06-2.55-33.78-3.88a16.976,16.976,0,0,0-25.96-.03c-14.96,1.33-34.48,3.91-34.48,3.91s-.05.02-.07.04A7.1,7.1,0,0,0,20.922,28.49Zm58.11,0a4.25,4.25,0,1,1-4.25-4.25A4.246,4.246,0,0,1,79.032,28.49Zm42.08,0a2.125,2.125,0,1,1,2.12,2.13A2.121,2.121,0,0,1,121.112,28.49Zm-9.64,0a2.125,2.125,0,1,1,2.13,2.13A2.123,2.123,0,0,1,111.472,28.49Zm-9.64,0a2.125,2.125,0,1,1,2.13,2.13A2.123,2.123,0,0,1,101.832,28.49Zm-9.64,0a2.13,2.13,0,1,1,2.13,2.13A2.13,2.13,0,0,1,92.192,28.49Zm-39.08,0a2.125,2.125,0,1,1,2.12,2.13A2.121,2.121,0,0,1,53.112,28.49Zm-9.64,0a2.125,2.125,0,1,1,2.13,2.13A2.123,2.123,0,0,1,43.472,28.49Zm-9.64,0a2.125,2.125,0,1,1,2.13,2.13A2.123,2.123,0,0,1,33.832,28.49Zm-9.64,0a2.13,2.13,0,1,1,2.13,2.13A2.13,2.13,0,0,1,24.192,28.49Z"/><path class="cls-36" d="M60.6,28.49a14.175,14.175,0,1,0,14.18-14.17A14.182,14.182,0,0,0,60.6,28.49Zm9.93,0a4.25,4.25,0,1,1,4.25,4.25A4.246,4.246,0,0,1,70.532,28.49Z"/><path class="cls-37" d="M65.142,28.49a9.64,9.64,0,1,0,9.64-9.64A9.639,9.639,0,0,0,65.142,28.49Zm5.39,0a4.25,4.25,0,1,1,4.25,4.25A4.246,4.246,0,0,1,70.532,28.49Z"/></g><g id="качелька_side" data-name="качелька side"><rect class="cls-38" x="322.073" y="185.087" width="24.094" height="14.885" transform="translate(668.24 385.059) rotate(180)"/><rect class="cls-39" x="322.073" y="189.201" width="24.094" height="10.771" transform="translate(668.24 389.173) rotate(180)"/><rect class="cls-38" x="317.113" y="185.087" width="34.016" height="5.953" transform="translate(668.242 376.127) rotate(180)"/><rect class="cls-40" x="322.073" y="185.087" width="24.094" height="5.953" transform="translate(668.24 376.127) rotate(180)"/></g><g id="side-2" data-name="side"><g id="side-3" data-name="side"><g id="шнуры-3" data-name="шнуры"><line class="cls-1" x1="35.341" y1="303.969" x2="1.298" y2="303.969"/><line class="cls-2" x1="35.341" y1="306.386" x2="1.298" y2="306.386"/><line class="cls-3" x1="35.341" y1="301.265" x2="1.298" y2="301.265"/><line class="cls-4" x1="35.341" y1="298.619" x2="1.298" y2="298.619"/></g><rect class="cls-41" x="27.872" y="228.026" width="153.071" height="7.937"/><polygon class="cls-19" points="27.872 227.963 180.943 227.963 180.943 226.026 104.378 220.026 27.872 226.026 27.872 227.963"/><rect class="cls-42" x="66.31" y="190.182" width="16.44" height="11.339" transform="translate(149.061 391.704) rotate(-180)"/><rect class="cls-6" x="82.256" y="190.182" width="0.494" height="11.339"/><rect class="cls-6" x="81.259" y="190.182" width="0.494" height="11.339"/><rect class="cls-6" x="80.263" y="190.182" width="0.494" height="11.339"/><rect class="cls-6" x="79.266" y="190.182" width="0.494" height="11.339"/><rect class="cls-6" x="78.269" y="190.182" width="0.494" height="11.339"/><rect class="cls-6" x="77.273" y="190.182" width="0.494" height="11.339"/><rect class="cls-6" x="76.276" y="190.182" width="0.494" height="11.339"/><rect class="cls-6" x="75.279" y="190.182" width="0.494" height="11.339"/><rect class="cls-6" x="74.283" y="190.182" width="0.494" height="11.339"/><rect class="cls-6" x="73.286" y="190.182" width="0.494" height="11.339"/><rect class="cls-6" x="72.29" y="190.182" width="0.494" height="11.339"/><rect class="cls-6" x="71.293" y="190.182" width="0.494" height="11.339"/><rect class="cls-6" x="70.296" y="190.182" width="0.494" height="11.339"/><rect class="cls-6" x="69.3" y="190.182" width="0.494" height="11.339"/><rect class="cls-6" x="68.303" y="190.182" width="0.494" height="11.339"/><rect class="cls-6" x="67.306" y="190.182" width="0.494" height="11.339"/><rect class="cls-6" x="66.31" y="190.182" width="0.494" height="11.339"/><path class="cls-43" d="M47.572,213.71V314.6h4.28v2.006h105.12V314.6h4.27V213.71Z"/><g class="cls-8"><polygon class="cls-9" points="48.421 214.961 48.421 314.604 51.851 314.604 51.851 315.471 156.971 315.471 156.971 314.604 160.391 314.604 160.391 214.961 48.421 214.961"/></g><line class="cls-44" x1="161.245" y1="235.963" x2="47.576" y2="235.963"/><line class="cls-44" x1="161.245" y1="296.388" x2="47.576" y2="296.388"/><rect class="cls-45" x="47.576" y="206.34" width="102.047" height="7.37" transform="translate(197.199 420.05) rotate(-180)"/><g class="cls-8"><rect class="cls-46" x="47.576" y="206.34" width="37.582" height="7.37"/></g><g class="cls-8"><rect class="cls-47" x="137.578" y="206.34" width="12.045" height="7.37"/></g><rect class="cls-48" x="56.104" y="203.505" width="36.85" height="2.835" transform="translate(149.058 409.845) rotate(-180)"/><rect class="cls-49" x="60.357" y="201.521" width="28.346" height="1.984" transform="translate(149.061 405.026) rotate(-180)"/><rect class="cls-50" x="43.974" y="296.388" width="3.598" height="12.48"/><polygon class="cls-50" points="34.25 308.052 43.974 308.868 43.974 296.388 34.25 296.916 34.25 308.052"/><rect class="cls-19" x="43.974" y="296.388" width="3.598" height="12.48"/><polygon class="cls-19" points="34.25 308.052 43.974 308.868 43.974 296.388 34.25 296.916 34.25 308.052"/><path class="cls-51" d="M48.566,314.46h2.082a.991.991,0,0,1,.991.991v1.131a0,0,0,0,1,0,0H47.574a0,0,0,0,1,0,0v-1.131A.991.991,0,0,1,48.566,314.46Z" transform="translate(99.214 631.042) rotate(180)"/><path class="cls-52" d="M158.17,314.46h2.082a.991.991,0,0,1,.991.991v1.131a0,0,0,0,1,0,0h-4.065a0,0,0,0,1,0,0v-1.131A.991.991,0,0,1,158.17,314.46Z" transform="translate(318.423 631.043) rotate(180)"/><line class="cls-44" x1="161.241" y1="310.884" x2="47.571" y2="310.884"/></g><rect class="cls-53" x="56.602" y="238.733" width="95.616" height="54.486" rx="6.034"/><path class="cls-54" d="M80.916,266.158a1.278,1.278,0,0,0,1.271,1.408h7.741l.232-2.258H84.166l.155-1.51h5.091l.231-2.257H84.552l.162-1.57h5.993l.232-2.258h-8a1.277,1.277,0,0,0-1.271,1.147Z"/><path class="cls-54" d="M100.735,259.971l.231-2.258H92.977a1.293,1.293,0,0,0-1.286,1.161l-.745,7.267a1.293,1.293,0,0,0,1.286,1.425h7.724l.231-2.258H94.193l.155-1.51h5.091l.232-2.257H94.58l.162-1.57Z"/><path class="cls-54" d="M112.639,263.8h5.091l.231-2.257H112.87l.161-1.57h5.994l.232-2.258h-7.991a1.291,1.291,0,0,0-1.284,1.16l-.746,7.27a1.291,1.291,0,0,0,1.284,1.423h7.726l.231-2.258h-5.994Z"/><path class="cls-54" d="M126.441,264.244a1.536,1.536,0,0,1-.445.566,2.021,2.021,0,0,1-.653.351,2.248,2.248,0,0,1-1.585-.048,1.1,1.1,0,0,1-.5-.475,1.426,1.426,0,0,1-.141-.842l.247-2.406a1.7,1.7,0,0,1,.324-.865,1.653,1.653,0,0,1,.667-.525,2.178,2.178,0,0,1,1.588-.063,1.525,1.525,0,0,1,.547.339,1.124,1.124,0,0,1,.312.514l.121.435h3.156l-.1-.608a3.139,3.139,0,0,0-.757-1.6,4.106,4.106,0,0,0-1.623-1.1,6.92,6.92,0,0,0-4.789.091,4.553,4.553,0,0,0-1.85,1.347,3.66,3.66,0,0,0-.793,1.952l-.247,2.406a3.149,3.149,0,0,0,.4,1.976,3.5,3.5,0,0,0,1.632,1.392,6.143,6.143,0,0,0,2.526.484,6.571,6.571,0,0,0,2.241-.379,5.247,5.247,0,0,0,1.79-1.061,3.984,3.984,0,0,0,1.067-1.566l.252-.687H126.61Z"/><polygon class="cls-54" points="138.922 257.713 138.525 261.577 134.905 261.577 135.302 257.713 132.14 257.713 131.129 267.566 134.291 267.566 134.674 263.835 138.294 263.835 137.911 267.566 141.074 267.566 142.085 257.713 138.922 257.713"/><path class="cls-33" d="M82.323,252.888l.291-3.662-12.764.082,1.363.062-4.2-.191,2.827.263-.035.442-2.842-.026,4.159.586-1.347-.19-.037.464,1.369.048-4.167-.145,2.774.409-.036.44-2.841-.022,4.166.581-1.354-.189-.032.4,1.356.125-4.108-.378,4.079.841-1.351-.279-.043.528,1.379,0-4.213-.011,2.8.376-.038.483,1.371.035-4.166-.107,4.122.57-1.352-.187-.037.466,1.374.044-4.167-.132,2.767.409-.035.446,1.391-.008-4.231.025,2.81.361-.037.463-2.8-.07,2.773.39-.045.569-2.846.114,4.2.294-1.376-.1-.034.432-2.846.169,4.182.3-1.366-.1-.029.376,1.38.058-4.167-.176,4.122.639L69.078,259l-.041.512-2.8-.043,2.777.362-.034.425,1.387.007-4.214-.02,2.8.38-.039.479,1.38.03-4.167-.091,4.123.568-1.361-.187-.039.488-2.8-.044,4.136.542-1.365-.179-.033.4,1.4.014-4.224-.041,2.8.395-.046.585,1.384-.055-4.227.168,2.818.2-.032.4-2.786-.07,2.761.381-.034.431,1.4.008-4.22-.024,4.16.572-1.366-.188-.039.489,1.376.021-4.173-.065,4.143.542-1.372-.179-.032.412,1.389.006-4.211-.019,2.792.389-.024.3,1.37.072-4.2-.222,4.183.42H72.4l.568-7.129h7.4l.292-3.663h-7.4l.184-2.3a1.725,1.725,0,0,1,1.72-1.588Z"/><path class="cls-33" d="M109.229,249.179l-1.466,18.265h-5.7l1.221-15.256C102.472,252.553,109.229,249.179,109.229,249.179Z"/><path class="cls-55" d="M142.608,248.592s-10.525-4.38-19.991-2.412c-7.113,1.478-13.222,6.476-19.113,9.848-4.431,2.536-7.547,1.246-10.771.587l-.289-4.058c3.572.627,6.336,1.705,10.9-.755,3.621-1.953,13.587-10.079,23.452-10.079C133.119,241.723,142.608,248.592,142.608,248.592Z"/><text class="cls-56" transform="translate(77.748 285.373)">FB5118M</text></g><g id="качелька_side-2" data-name="качелька side"><rect class="cls-38" x="20.922" y="182.937" width="107.717" height="5.953" transform="translate(149.561 371.827) rotate(-180)"/><rect class="cls-38" x="65.889" y="182.937" width="17.784" height="15.198" transform="translate(149.561 381.072) rotate(-180)"/><rect class="cls-57" x="65.889" y="182.937" width="17.784" height="15.198" transform="translate(149.561 381.072) rotate(-180)"/><rect class="cls-58" x="120.481" y="182.937" width="8.158" height="5.953" transform="translate(249.12 371.827) rotate(-180)"/><rect class="cls-59" x="20.922" y="182.937" width="8.158" height="5.953"/><rect class="cls-60" x="65.889" y="182.937" width="17.784" height="5.953"/></g></svg>