<svg id="servo-fs0403-fb" xmlns="http://www.w3.org/2000/svg" xmlns:xlink="http://www.w3.org/1999/xlink" viewBox="0 0 174.067 139.656"><defs><style>.cls-1,.cls-2,.cls-3,.cls-4{fill:none;stroke-miterlimit:10;stroke-width:2.126px;}.cls-1{stroke:#8c6239;}.cls-2{stroke:#3aafa1;}.cls-3{stroke:red;}.cls-4{stroke:#f7ac20;}.cls-5{fill:url(#linear-gradient);}.cls-6{fill:#047557;}.cls-25,.cls-6{opacity:0.5;}.cls-7{opacity:0.48;}.cls-8{fill:#065997;}.cls-25,.cls-9{fill:#0fa386;}.cls-47,.cls-9{opacity:0.7;}.cls-10{fill:url(#linear-gradient-2);}.cls-11{fill:url(#linear-gradient-3);}.cls-12{fill:url(#linear-gradient-4);}.cls-13{fill:url(#linear-gradient-5);}.cls-14{fill:url(#linear-gradient-6);}.cls-15{fill:url(#linear-gradient-7);}.cls-16{fill:url(#linear-gradient-8);}.cls-17{fill:url(#linear-gradient-9);}.cls-18{fill:url(#linear-gradient-10);}.cls-19{fill:url(#linear-gradient-11);}.cls-20{fill:#ccc;}.cls-21{fill:url(#linear-gradient-12);}.cls-22{fill:url(#linear-gradient-13);}.cls-23{fill:url(#linear-gradient-14);}.cls-24{opacity:0.8;}.cls-26{fill:url(#linear-gradient-15);}.cls-27{fill:url(#linear-gradient-16);}.cls-28{fill:#e6e7e8;}.cls-29{fill:url(#linear-gradient-17);}.cls-30{fill:#1874c0;}.cls-31{fill:url(#linear-gradient-18);}.cls-32{fill:url(#linear-gradient-19);}.cls-33{fill:url(#linear-gradient-20);}.cls-34{fill:url(#linear-gradient-21);}.cls-35{fill:url(#linear-gradient-22);}.cls-36{fill:url(#linear-gradient-23);}.cls-37{fill:url(#linear-gradient-24);}.cls-38{fill:url(#linear-gradient-25);}.cls-39{fill:#033a76;}.cls-40{fill:url(#linear-gradient-26);}.cls-41{fill:url(#linear-gradient-27);}.cls-42{fill:url(#linear-gradient-28);}.cls-43{fill:url(#linear-gradient-29);}.cls-44{font-size:11.339px;fill:#fff;font-family:TrebuchetMS, Trebuchet MS;}.cls-45{fill:url(#linear-gradient-30);}.cls-46{fill:url(#linear-gradient-31);}.cls-48{fill:#19bfa0;}.cls-49{fill:#154eaa;}.cls-50{fill:#0f58ce;}.cls-51{fill:#1d69d8;}.cls-52{fill:url(#radial-gradient);}.cls-53{fill:url(#radial-gradient-2);}.cls-54{fill:#b3b3b3;}.cls-55{fill:url(#radial-gradient-3);}.cls-56{fill:url(#radial-gradient-4);}</style><linearGradient id="linear-gradient" x1="149.973" y1="112.444" x2="174.067" y2="112.444" gradientUnits="userSpaceOnUse"><stop offset="0" stop-color="#033a76"/><stop offset="0.762" stop-color="#1366ae"/><stop offset="1" stop-color="#1874c0"/></linearGradient><linearGradient id="linear-gradient-2" x1="149.972" y1="79.654" x2="174.067" y2="79.654" xlink:href="#linear-gradient"/><linearGradient id="linear-gradient-3" x1="149.972" y1="79.654" x2="174.067" y2="79.654" gradientUnits="userSpaceOnUse"><stop offset="0" stop-color="#3b6594"/><stop offset="0.035" stop-color="#28578a"/><stop offset="0.081" stop-color="#174a81"/><stop offset="0.138" stop-color="#0c417b"/><stop offset="0.218" stop-color="#053b77"/><stop offset="0.441" stop-color="#033a76"/><stop offset="0.718" stop-color="#053b77"/><stop offset="0.818" stop-color="#0c417b"/><stop offset="0.889" stop-color="#174a81"/><stop offset="0.946" stop-color="#28578a"/><stop offset="0.994" stop-color="#3e6895"/><stop offset="1" stop-color="#416a97"/></linearGradient><linearGradient id="linear-gradient-4" x1="149.972" y1="79.654" x2="174.067" y2="79.654" gradientUnits="userSpaceOnUse"><stop offset="0" stop-color="#e6e7e8" stop-opacity="0.3"/><stop offset="0.011" stop-color="#cbd9d7" stop-opacity="0.324"/><stop offset="0.049" stop-color="#82b5a8" stop-opacity="0.388"/><stop offset="0.094" stop-color="#499883" stop-opacity="0.439"/><stop offset="0.149" stop-color="#21846a" stop-opacity="0.474"/><stop offset="0.226" stop-color="#0a785b" stop-opacity="0.494"/><stop offset="0.441" stop-color="#047557" stop-opacity="0.5"/><stop offset="1" stop-color="#0fa386" stop-opacity="0.7"/></linearGradient><linearGradient id="linear-gradient-5" x1="156.35" y1="81.117" x2="167.689" y2="81.117" xlink:href="#linear-gradient"/><linearGradient id="linear-gradient-6" x1="156.35" y1="81.117" x2="167.689" y2="81.117" xlink:href="#linear-gradient-3"/><linearGradient id="linear-gradient-7" x1="156.35" y1="81.117" x2="167.689" y2="81.117" xlink:href="#linear-gradient-4"/><linearGradient id="linear-gradient-8" x1="159.61" y1="76.002" x2="164.429" y2="76.002" xlink:href="#linear-gradient"/><linearGradient id="linear-gradient-9" x1="159.61" y1="76.002" x2="164.429" y2="76.002" xlink:href="#linear-gradient-3"/><linearGradient id="linear-gradient-10" x1="159.61" y1="76.002" x2="164.429" y2="76.002" xlink:href="#linear-gradient-4"/><linearGradient id="linear-gradient-11" x1="156.971" y1="70.251" x2="167.176" y2="70.251" gradientUnits="userSpaceOnUse"><stop offset="0" stop-color="#999"/><stop offset="0.539" stop-color="#939598"/><stop offset="0.656" stop-color="#a0a1a3"/><stop offset="0.842" stop-color="#aeaeaf"/><stop offset="1" stop-color="#b3b3b3"/></linearGradient><linearGradient id="linear-gradient-12" x1="149.972" y1="97.23" x2="174.067" y2="97.23" gradientUnits="userSpaceOnUse"><stop offset="0.025" stop-color="#033a76"/><stop offset="0.189" stop-color="#0f4e85" stop-opacity="0.8"/><stop offset="0.511" stop-color="#2e81ab" stop-opacity="0.3"/><stop offset="0.822" stop-color="#115187" stop-opacity="0.778"/><stop offset="1" stop-color="#033a76"/></linearGradient><linearGradient id="linear-gradient-13" x1="149.972" y1="97.23" x2="174.067" y2="97.23" gradientUnits="userSpaceOnUse"><stop offset="0.031" stop-color="#033a76" stop-opacity="0"/><stop offset="0.178" stop-color="#0e2c97" stop-opacity="0.076"/><stop offset="0.475" stop-color="#2a07ee" stop-opacity="0.274"/><stop offset="0.511" stop-color="#2e02f9" stop-opacity="0.3"/><stop offset="0.839" stop-color="#0f2a9b" stop-opacity="0.085"/><stop offset="1" stop-color="#033a76" stop-opacity="0"/></linearGradient><linearGradient id="linear-gradient-14" x1="149.972" y1="97.23" x2="174.067" y2="97.23" gradientUnits="userSpaceOnUse"><stop offset="0" stop-color="#047557" stop-opacity="0.5"/><stop offset="0.079" stop-color="#197f64" stop-opacity="0.509"/><stop offset="0.223" stop-color="#509b88" stop-opacity="0.534"/><stop offset="0.415" stop-color="#a8c8c0" stop-opacity="0.573"/><stop offset="0.536" stop-color="#e6e7e8" stop-opacity="0.6"/><stop offset="0.614" stop-color="#b0ccc6" stop-opacity="0.576"/><stop offset="0.737" stop-color="#66a796" stop-opacity="0.544"/><stop offset="0.846" stop-color="#318b74" stop-opacity="0.52"/><stop offset="0.938" stop-color="#107b5f" stop-opacity="0.505"/><stop offset="1" stop-color="#047557" stop-opacity="0.5"/></linearGradient><linearGradient id="linear-gradient-15" x1="172.331" y1="138.763" x2="174.067" y2="138.763" gradientUnits="userSpaceOnUse"><stop offset="0" stop-color="#6d6e70"/><stop offset="0.716" stop-color="#a4a6a8"/><stop offset="1" stop-color="#bbbdbf"/></linearGradient><linearGradient id="linear-gradient-16" x1="149.973" y1="138.763" x2="151.71" y2="138.763" xlink:href="#linear-gradient-15"/><linearGradient id="linear-gradient-17" x1="26.115" y1="79.837" x2="48.792" y2="79.837" xlink:href="#linear-gradient"/><linearGradient id="linear-gradient-18" x1="1021.842" y1="81.779" x2="1029.079" y2="81.779" gradientTransform="matrix(1, 0, 0, -1, -973.051, 163.559)" gradientUnits="userSpaceOnUse"><stop offset="0" stop-color="#e6e7e8" stop-opacity="0.3"/><stop offset="0.01" stop-color="#ced5dc" stop-opacity="0.374"/><stop offset="0.048" stop-color="#849cb7" stop-opacity="0.604"/><stop offset="0.092" stop-color="#497099" stop-opacity="0.783"/><stop offset="0.148" stop-color="#215185" stop-opacity="0.908"/><stop offset="0.226" stop-color="#093f79" stop-opacity="0.98"/><stop offset="0.441" stop-color="#033a76"/><stop offset="0.665" stop-color="#063c77"/><stop offset="0.808" stop-color="#0e437c"/><stop offset="0.928" stop-color="#1d4f84"/><stop offset="1" stop-color="#2a598b"/></linearGradient><linearGradient id="linear-gradient-19" x1="1021.842" y1="81.779" x2="1029.079" y2="81.779" gradientTransform="matrix(1, 0, 0, -1, -973.051, 163.559)" xlink:href="#linear-gradient-4"/><linearGradient id="linear-gradient-20" x1="26.115" y1="80.537" x2="48.792" y2="80.537" gradientUnits="userSpaceOnUse"><stop offset="0" stop-color="#e6e7e8" stop-opacity="0.3"/><stop offset="0.01" stop-color="#ced5dc" stop-opacity="0.374"/><stop offset="0.048" stop-color="#849cb7" stop-opacity="0.604"/><stop offset="0.092" stop-color="#497099" stop-opacity="0.783"/><stop offset="0.148" stop-color="#215185" stop-opacity="0.908"/><stop offset="0.226" stop-color="#093f79" stop-opacity="0.98"/><stop offset="0.441" stop-color="#033a76"/><stop offset="1" stop-color="#2a598b"/></linearGradient><linearGradient id="linear-gradient-21" x1="26.115" y1="80.537" x2="48.792" y2="80.537" xlink:href="#linear-gradient-4"/><linearGradient id="linear-gradient-22" x1="32.351" y1="70.341" x2="42.555" y2="70.341" xlink:href="#linear-gradient-11"/><linearGradient id="linear-gradient-23" x1="78.45" y1="138.763" x2="82.515" y2="138.763" xlink:href="#linear-gradient-15"/><linearGradient id="linear-gradient-24" x1="26.115" y1="138.763" x2="30.18" y2="138.763" xlink:href="#linear-gradient-15"/><linearGradient id="linear-gradient-25" x1="26.114" y1="112.581" x2="82.514" y2="112.581" xlink:href="#linear-gradient"/><linearGradient id="linear-gradient-26" x1="15.765" y1="97.23" x2="21.569" y2="97.23" gradientUnits="userSpaceOnUse"><stop offset="0" stop-color="#e6e7e8" stop-opacity="0.3"/><stop offset="0.01" stop-color="#dde0e4" stop-opacity="0.327"/><stop offset="0.117" stop-color="#8da3bb" stop-opacity="0.573"/><stop offset="0.238" stop-color="#4f749c" stop-opacity="0.764"/><stop offset="0.384" stop-color="#245386" stop-opacity="0.899"/><stop offset="0.577" stop-color="#0a407a" stop-opacity="0.978"/><stop offset="1" stop-color="#033a76"/></linearGradient><linearGradient id="linear-gradient-27" x1="15.765" y1="97.23" x2="21.569" y2="97.23" gradientUnits="userSpaceOnUse"><stop offset="0" stop-color="#e6e7e8" stop-opacity="0.3"/><stop offset="0.014" stop-color="#dae1e0" stop-opacity="0.311"/><stop offset="0.12" stop-color="#8cb9ae" stop-opacity="0.38"/><stop offset="0.241" stop-color="#4f9b87" stop-opacity="0.434"/><stop offset="0.387" stop-color="#24856c" stop-opacity="0.472"/><stop offset="0.579" stop-color="#0b795c" stop-opacity="0.494"/><stop offset="1" stop-color="#047557" stop-opacity="0.5"/></linearGradient><linearGradient id="linear-gradient-28" x1="1131.841" y1="97.23" x2="1137.645" y2="97.23" gradientTransform="matrix(1, 0, 0, -1, -1044.777, 194.461)" xlink:href="#linear-gradient-26"/><linearGradient id="linear-gradient-29" x1="1131.841" y1="97.23" x2="1137.645" y2="97.23" gradientTransform="matrix(1, 0, 0, -1, -1044.777, 194.461)" xlink:href="#linear-gradient-27"/><linearGradient id="linear-gradient-30" x1="29.515" y1="67.764" x2="32.548" y2="67.764" gradientUnits="userSpaceOnUse"><stop offset="0" stop-color="#fff" stop-opacity="0.3"/><stop offset="0.05" stop-color="#fafbfb" stop-opacity="0.429"/><stop offset="0.121" stop-color="#f5f5f6" stop-opacity="0.581"/><stop offset="0.199" stop-color="#f0f1f1" stop-opacity="0.712"/><stop offset="0.286" stop-color="#ecedee" stop-opacity="0.818"/><stop offset="0.385" stop-color="#eaeaeb" stop-opacity="0.9"/><stop offset="0.503" stop-color="#e8e8e9" stop-opacity="0.957"/><stop offset="0.659" stop-color="#e6e7e8" stop-opacity="0.99"/><stop offset="1" stop-color="#e6e7e8"/></linearGradient><linearGradient id="linear-gradient-31" x1="1189.372" y1="69.041" x2="1192.406" y2="69.041" gradientTransform="matrix(1, 0, 0, -1, -1147.124, 138.081)" xlink:href="#linear-gradient-30"/><radialGradient id="radial-gradient" cx="-194.817" cy="-158.437" r="7.156" gradientTransform="translate(176.357 125.014) scale(0.713 0.713)" gradientUnits="userSpaceOnUse"><stop offset="0" stop-color="#3b3b3b"/><stop offset="0.008" stop-color="#3d3d3d"/><stop offset="0.198" stop-color="#747474"/><stop offset="0.384" stop-color="#a1a1a1"/><stop offset="0.562" stop-color="#c4c4c4"/><stop offset="0.728" stop-color="#ddd"/><stop offset="0.878" stop-color="#ededed"/><stop offset="1" stop-color="#f2f2f2"/></radialGradient><radialGradient id="radial-gradient-2" cx="-194.815" cy="-158.437" r="6.552" gradientTransform="translate(176.357 125.014) scale(0.713 0.713)" gradientUnits="userSpaceOnUse"><stop offset="0" stop-color="#a1a1a1"/><stop offset="0.069" stop-color="#ababab"/><stop offset="0.301" stop-color="#c7c7c7"/><stop offset="0.535" stop-color="#dbdbdb"/><stop offset="0.768" stop-color="#e7e7e7"/><stop offset="1" stop-color="#ebebeb"/></radialGradient><radialGradient id="radial-gradient-3" cx="37.429" cy="12.053" r="5.105" gradientTransform="matrix(1, 0, 0, 1, 0, 0)" xlink:href="#radial-gradient"/><radialGradient id="radial-gradient-4" cx="37.429" cy="12.048" r="4.672" gradientTransform="matrix(1, 0, 0, 1, 0, 0)" xlink:href="#radial-gradient-2"/></defs><g id="side"><g id="шнуры"><polyline class="cls-1" points="123.753 130.505 126.998 131.192 154.535 131.192"/><polyline class="cls-2" points="123.753 128.192 126.998 128.879 154.535 128.879"/><polyline class="cls-3" points="123.753 133.192 126.998 133.192 154.535 133.192"/><polyline class="cls-4" points="123.753 136.13 126.771 135.192 154.535 135.192"/></g><polygon class="cls-5" points="174.067 85.231 174.067 137.876 171.972 137.876 171.972 139.656 152.068 139.656 152.068 137.876 149.973 137.876 149.973 85.231 174.067 85.231"/><polygon class="cls-6" points="174.067 85.231 174.067 137.876 171.972 137.876 171.972 139.656 152.068 139.656 152.068 137.876 149.973 137.876 149.973 85.231 174.067 85.231"/><g class="cls-7"><polygon class="cls-8" points="173.753 86.646 173.753 137.435 171.972 137.435 171.972 139.215 152.068 139.215 152.068 137.435 150.287 137.435 150.287 86.646 173.753 86.646"/></g><polygon class="cls-9" points="173.753 86.646 173.753 137.435 171.972 137.435 171.972 139.215 152.068 139.215 152.068 137.435 150.287 137.435 150.287 86.646 173.753 86.646"/><rect class="cls-10" x="149.972" y="74.078" width="24.094" height="11.153"/><rect class="cls-11" x="149.972" y="74.078" width="24.094" height="11.153"/><rect class="cls-12" x="149.972" y="74.078" width="24.094" height="11.153"/><rect class="cls-13" x="156.35" y="77.002" width="11.339" height="8.229"/><rect class="cls-14" x="156.35" y="77.002" width="11.339" height="8.229"/><rect class="cls-15" x="156.35" y="77.002" width="11.339" height="8.229"/><rect class="cls-16" x="159.61" y="75.002" width="4.819" height="2"/><rect class="cls-17" x="159.61" y="75.002" width="4.819" height="2"/><rect class="cls-18" x="159.61" y="75.002" width="4.819" height="2"/><rect class="cls-19" x="156.971" y="66.424" width="10.205" height="7.654"/><rect class="cls-20" x="156.971" y="66.424" width="0.307" height="7.654"/><rect class="cls-20" x="157.59" y="66.424" width="0.307" height="7.654"/><rect class="cls-20" x="158.208" y="66.424" width="0.307" height="7.654"/><rect class="cls-20" x="158.827" y="66.424" width="0.307" height="7.654"/><rect class="cls-20" x="159.446" y="66.424" width="0.307" height="7.654"/><rect class="cls-20" x="160.064" y="66.424" width="0.307" height="7.654"/><rect class="cls-20" x="160.683" y="66.424" width="0.307" height="7.654"/><rect class="cls-20" x="161.301" y="66.424" width="0.307" height="7.654"/><rect class="cls-20" x="161.92" y="66.424" width="0.307" height="7.654"/><rect class="cls-20" x="162.539" y="66.424" width="0.307" height="7.654"/><rect class="cls-20" x="163.157" y="66.424" width="0.307" height="7.654"/><rect class="cls-20" x="163.776" y="66.424" width="0.307" height="7.654"/><rect class="cls-20" x="164.394" y="66.424" width="0.307" height="7.654"/><rect class="cls-20" x="165.013" y="66.424" width="0.307" height="7.654"/><rect class="cls-20" x="165.632" y="66.424" width="0.307" height="7.654"/><rect class="cls-20" x="166.25" y="66.424" width="0.307" height="7.654"/><rect class="cls-20" x="166.869" y="66.424" width="0.307" height="7.654"/><rect class="cls-21" x="149.972" y="96.097" width="24.094" height="2.268"/><rect class="cls-22" x="149.972" y="96.097" width="24.094" height="2.268"/><rect class="cls-23" x="149.972" y="96.097" width="24.094" height="2.268"/><g class="cls-24"><g class="cls-24"><rect class="cls-8" x="149.975" y="98.291" width="24.093" height="21.768"/></g><rect class="cls-25" x="149.975" y="98.291" width="24.093" height="21.768"/></g><path class="cls-26" d="M172.331,137.873h1.736a0,0,0,0,1,0,0v1.133a.648.648,0,0,1-.648.648h-.441a.648.648,0,0,1-.648-.648v-1.133A0,0,0,0,1,172.331,137.873Z"/><path class="cls-27" d="M149.973,137.873h1.736a0,0,0,0,1,0,0v1.133a.648.648,0,0,1-.648.648h-.441a.648.648,0,0,1-.648-.648v-1.133A0,0,0,0,1,149.973,137.873Z"/><g id="качелька"><rect class="cls-28" x="154.31" y="60.326" width="15.752" height="13.107" transform="translate(324.372 133.759) rotate(180)"/></g></g><g id="side-2" data-name="side"><g id="шнуры-2" data-name="шнуры"><polyline class="cls-1" points="0.374 131.474 3.619 132.161 31.157 132.161"/><polyline class="cls-2" points="0.374 129.161 3.619 129.848 31.157 129.848"/><polyline class="cls-3" points="0.374 134.161 3.619 134.161 31.157 134.161"/><polyline class="cls-4" points="0.374 137.099 3.392 136.161 31.157 136.161"/></g><rect class="cls-29" x="26.115" y="74.167" width="22.677" height="11.339"/><rect class="cls-6" x="26.115" y="74.167" width="22.677" height="11.339"/><rect class="cls-30" x="48.792" y="77.002" width="7.237" height="8.504"/><rect class="cls-6" x="48.792" y="77.002" width="7.237" height="8.504"/><g class="cls-7"><rect class="cls-31" x="48.792" y="78.053" width="7.237" height="7.453" transform="translate(104.82 163.559) rotate(-180)"/><rect class="cls-32" x="48.792" y="78.053" width="7.237" height="7.453" transform="translate(104.82 163.559) rotate(-180)"/><rect class="cls-33" x="26.115" y="75.568" width="22.677" height="9.938"/><rect class="cls-34" x="26.115" y="75.568" width="22.677" height="9.938"/></g><rect class="cls-30" x="48.792" y="74.451" width="4.819" height="2.551"/><rect class="cls-6" x="48.792" y="74.451" width="4.819" height="2.551"/><rect class="cls-35" x="32.351" y="66.514" width="10.204" height="7.654"/><rect class="cls-20" x="32.351" y="66.514" width="0.307" height="7.654"/><rect class="cls-20" x="32.97" y="66.514" width="0.307" height="7.654"/><rect class="cls-20" x="33.588" y="66.514" width="0.307" height="7.654"/><rect class="cls-20" x="34.207" y="66.514" width="0.307" height="7.654"/><rect class="cls-20" x="34.826" y="66.514" width="0.307" height="7.654"/><rect class="cls-20" x="35.444" y="66.514" width="0.307" height="7.654"/><rect class="cls-20" x="36.063" y="66.514" width="0.307" height="7.654"/><rect class="cls-20" x="36.681" y="66.514" width="0.307" height="7.654"/><rect class="cls-20" x="37.3" y="66.514" width="0.307" height="7.654"/><rect class="cls-20" x="37.919" y="66.514" width="0.307" height="7.654"/><rect class="cls-20" x="38.537" y="66.514" width="0.307" height="7.654"/><rect class="cls-20" x="39.156" y="66.514" width="0.307" height="7.654"/><rect class="cls-20" x="39.774" y="66.514" width="0.307" height="7.654"/><rect class="cls-20" x="40.393" y="66.514" width="0.307" height="7.654"/><rect class="cls-20" x="41.012" y="66.514" width="0.307" height="7.654"/><rect class="cls-20" x="41.63" y="66.514" width="0.307" height="7.654"/><rect class="cls-20" x="42.249" y="66.514" width="0.307" height="7.654"/><path class="cls-36" d="M78.45,137.873h4.065a0,0,0,0,1,0,0v.79a.991.991,0,0,1-.991.991H79.441a.991.991,0,0,1-.991-.991v-.79A0,0,0,0,1,78.45,137.873Z"/><path class="cls-37" d="M26.115,137.873H30.18a0,0,0,0,1,0,0v.79a.991.991,0,0,1-.991.991H27.106a.991.991,0,0,1-.991-.991v-.79A0,0,0,0,1,26.115,137.873Z"/><path class="cls-38" d="M26.114,85.506v52.37h4.9v1.78h46.6v-1.78h4.9V85.506Z"/><path class="cls-6" d="M26.114,85.506v52.37h4.9v1.78h46.6v-1.78h4.9V85.506Z"/><g class="cls-7"><polygon class="cls-8" points="81.385 86.646 81.385 137.876 77.615 137.876 77.615 138.796 31.015 138.796 31.015 137.876 27.245 137.876 27.245 86.646 81.385 86.646"/></g><polygon class="cls-9" points="81.385 86.646 81.385 137.876 77.615 137.876 77.615 138.796 31.015 138.796 31.015 137.876 27.245 137.876 27.245 86.646 81.385 86.646"/><rect class="cls-39" x="15.765" y="96.097" width="77.102" height="2.268"/><rect class="cls-6" x="15.765" y="96.097" width="77.102" height="2.268"/><rect class="cls-40" x="15.765" y="96.097" width="5.803" height="2.268"/><rect class="cls-41" x="15.765" y="96.097" width="5.803" height="2.268"/><rect class="cls-42" x="87.064" y="96.097" width="5.803" height="2.268" transform="translate(179.932 194.461) rotate(-180)"/><rect class="cls-43" x="87.064" y="96.097" width="5.803" height="2.268" transform="translate(179.932 194.461) rotate(-180)"/><g class="cls-24"><rect class="cls-8" x="26.113" y="98.364" width="56.406" height="21.768"/></g><rect class="cls-25" x="26.113" y="98.364" width="56.406" height="21.768"/><text class="cls-44" transform="translate(28.691 113.048)">FS0403 FB</text><g id="крутилка_side" data-name="крутилка side"><polygon class="cls-28" points="74.586 62.094 43.937 62.094 29.515 62.094 29.515 66.378 29.515 73.433 45.283 73.433 45.283 64.648 74.586 64.648 74.586 62.094"/><rect class="cls-45" x="29.515" y="62.094" width="3.034" height="11.339"/><rect class="cls-46" x="42.249" y="64.648" width="3.034" height="8.785" transform="translate(87.531 138.081) rotate(-180)"/></g></g><g id="top"><g id="шнуры-3" data-name="шнуры"><polyline class="cls-1" points="0.373 10.391 3.061 11.078 25.873 11.078"/><polyline class="cls-2" points="0.373 8.078 3.061 8.765 25.873 8.765"/><polyline class="cls-3" points="0.373 13.078 3.061 13.078 25.873 13.078"/><polyline class="cls-4" points="0.373 16.016 2.873 15.078 25.873 15.078"/></g><path class="cls-30" d="M86.125,0H22.505c-8.99,6.28-8.99,17.81,0,24.09h63.62C95.115,17.812,95.115,6.282,86.125,0Zm-65.57,14.88a2.835,2.835,0,1,1,2.83-2.83A2.827,2.827,0,0,1,20.555,14.882Zm67.52,0a2.835,2.835,0,1,1,2.83-2.83A2.827,2.827,0,0,1,88.075,14.882Z"/><g class="cls-47"><path class="cls-48" d="M86.125,0H22.505c-8.99,6.28-8.99,17.81,0,24.09h63.62C95.115,17.812,95.115,6.282,86.125,0Zm-65.57,14.88a2.835,2.835,0,1,1,2.83-2.83A2.827,2.827,0,0,1,20.555,14.882Zm67.52,0a2.835,2.835,0,1,1,2.83-2.83A2.827,2.827,0,0,1,88.075,14.882Z"/></g><rect class="cls-39" x="26.112" width="56.409" height="24.094"/><rect class="cls-6" x="26.112" width="56.409" height="24.094"/><g class="cls-7"><rect class="cls-8" x="27.246" y="1.134" width="54.142" height="21.827"/></g><rect class="cls-9" x="43.404" y="-15.023" width="21.827" height="54.142" transform="translate(66.365 -42.269) rotate(90)"/><path id="path5572-2" class="cls-49" d="M37.451,23.386A11.339,11.339,0,1,1,48.79,12.046a11.339,11.339,0,0,1-11.339,11.34h0"/><path id="path5572-2-2" data-name="path5572-2" class="cls-6" d="M37.451,23.386A11.339,11.339,0,1,1,48.79,12.046a11.339,11.339,0,0,1-11.339,11.34h0"/><path id="path5576-2" class="cls-49" d="M49.77,17.717a5.67,5.67,0,1,1,5.668-5.671,5.67,5.67,0,0,1-5.668,5.671"/><path id="path5576-2-2" data-name="path5576-2" class="cls-6" d="M49.77,17.717a5.67,5.67,0,1,1,5.668-5.671,5.67,5.67,0,0,1-5.668,5.671"/><path id="path5584-2" class="cls-50" d="M49.771,17.007a4.961,4.961,0,1,1,4.959-4.962h0a4.961,4.961,0,0,1-4.959,4.961"/><path id="path5584-2-2" data-name="path5584-2" class="cls-9" d="M49.771,17.007a4.961,4.961,0,1,1,4.959-4.962h0a4.961,4.961,0,0,1-4.959,4.961"/><path class="cls-51" d="M47.375,12.042a9.4,9.4,0,0,1-.09,1.31,9.888,9.888,0,1,1,.01-2.61A11.067,11.067,0,0,1,47.375,12.042Z"/><path class="cls-9" d="M47.375,12.042a9.4,9.4,0,0,1-.09,1.31,9.888,9.888,0,1,1,.01-2.61A11.067,11.067,0,0,1,47.375,12.042Z"/><path class="cls-51" d="M52.575,12.042a2.8,2.8,0,0,1-.82,1.99,2.754,2.754,0,0,1-1.98.82,2.8,2.8,0,0,1-2.49-1.5,9.4,9.4,0,0,0,.09-1.31,11.067,11.067,0,0,0-.08-1.3,2.755,2.755,0,0,1,2.47-1.5A2.8,2.8,0,0,1,52.575,12.042Z"/><path class="cls-9" d="M52.575,12.042a2.8,2.8,0,0,1-.82,1.99,2.754,2.754,0,0,1-1.98.82,2.8,2.8,0,0,1-2.49-1.5,9.4,9.4,0,0,0,.09-1.31,11.067,11.067,0,0,0-.08-1.3,2.755,2.755,0,0,1,2.47-1.5A2.8,2.8,0,0,1,52.575,12.042Z"/><path class="cls-52" d="M37.45,17.149c-.1,0-.2-.2-.3-.209s-.219.184-.319.172-.17-.225-.269-.243-.241.156-.338.132-.142-.244-.238-.274-.257.126-.351.09-.11-.259-.2-.3-.27.094-.359.047-.079-.271-.164-.323-.28.061-.363,0-.045-.278-.124-.34-.285.027-.36-.04-.011-.282-.083-.353-.285-.007-.352-.083.022-.28-.04-.36-.283-.041-.34-.124.056-.276,0-.362-.275-.075-.322-.164.088-.268.047-.36-.265-.107-.3-.2.121-.254.091-.35-.25-.139-.274-.237.15-.238.132-.338-.231-.167-.243-.268.178-.218.172-.319-.209-.2-.209-.3.2-.2.209-.3-.184-.219-.172-.319.225-.17.243-.269-.156-.241-.132-.338.244-.142.274-.238-.126-.257-.09-.351.259-.11.3-.2-.094-.27-.047-.359.271-.078.323-.164-.061-.28,0-.363.278-.045.34-.124-.027-.284.04-.36.282-.011.353-.082.007-.286.083-.353.28.022.36-.04.041-.283.124-.34.276.056.362,0,.075-.276.164-.323.268.088.36.047.107-.265.2-.3.254.121.35.091.139-.25.237-.274.238.15.338.132.167-.231.268-.243.218.178.319.172.195-.209.3-.209.2.2.3.209.219-.184.319-.172.17.225.269.243.241-.156.338-.132.142.244.238.274.257-.125.351-.09.11.26.2.3.27-.094.359-.047.078.271.164.323.28-.06.363,0,.045.278.124.34.285-.027.36.04.011.282.082.353.286.007.353.083-.022.28.04.36.283.041.34.124-.056.276,0,.362.276.075.323.165-.088.267-.047.359.265.107.3.2-.121.254-.091.35.25.139.274.237-.15.238-.132.338.231.167.243.268-.178.218-.172.319.209.2.209.3-.2.2-.209.3.184.219.172.319-.225.17-.243.269.156.241.132.338-.244.142-.274.238.126.257.09.351-.26.11-.3.2.094.27.047.359-.271.079-.323.165.06.279,0,.362-.278.045-.34.124.027.285-.04.36-.282.011-.353.083-.007.285-.083.352-.28-.022-.36.04-.041.283-.124.34-.276-.056-.362,0-.075.275-.164.322-.268-.088-.36-.047-.107.265-.2.3-.254-.121-.35-.091-.139.25-.237.274-.238-.15-.338-.132-.167.231-.268.243-.218-.178-.319-.172S37.552,17.149,37.45,17.149Z"/><path class="cls-53" d="M37.452,16.718a4.672,4.672,0,1,1,4.671-4.671A4.677,4.677,0,0,1,37.452,16.718Z"/><path class="cls-20" d="M37.451,13.464a1.418,1.418,0,1,1,1.417-1.417A1.418,1.418,0,0,1,37.451,13.464Z"/><path class="cls-54" d="M37.452,13.181a1.134,1.134,0,1,1,1.134-1.134A1.136,1.136,0,0,1,37.452,13.181Z"/><g id="крутить_top" data-name="крутить top"><path class="cls-55" d="M42.534,12.048c0-.1-.21-.19-.21-.29s.18-.22.17-.32-.22-.17-.24-.27.15-.24.13-.34-.24-.14-.27-.23.12-.26.09-.36-.26-.11-.3-.2.09-.27.04-.36-.27-.07-.32-.16.06-.28,0-.36-.27-.05-.34-.13.03-.28-.04-.36-.28-.01-.35-.08-.01-.29-.08-.35-.28.02-.36-.04-.04-.29-.13-.34-.27.05-.36,0-.07-.28-.16-.32-.27.09-.36.04-.11-.26-.2-.3-.26.12-.36.09-.13-.25-.23-.27-.24.15-.34.13-.17-.23-.27-.24-.22.18-.32.17-.19-.21-.3-.21-.19.2-.29.21-.22-.18-.32-.17-.17.22-.27.24-.24-.16-.34-.13-.14.24-.23.27-.26-.12-.35-.09-.11.26-.21.3-.27-.09-.36-.04-.07.27-.16.32-.28-.06-.36,0-.05.27-.13.34-.28-.03-.36.03-.01.29-.08.36-.28,0-.35.08.02.28-.04.36-.28.04-.34.12.05.28,0,.37-.27.07-.32.16.09.27.05.36-.27.11-.31.2.12.26.09.35-.25.14-.27.24.15.24.13.34-.23.17-.24.27.18.22.17.32-.21.19-.21.29.21.2.21.3-.18.22-.17.32.22.17.24.27-.15.24-.13.33.24.15.27.24-.12.26-.09.35.26.11.3.2-.09.27-.04.36.27.08.32.17-.06.28,0,.36.27.05.34.12-.03.29.04.36.28.02.35.09.01.28.08.35.28-.02.36.04.04.28.13.34.27-.06.36,0,.07.27.16.32.27-.09.36-.05.11.27.2.3.26-.12.35-.09.14.25.24.28.24-.15.34-.13.17.23.27.24.22-.18.32-.17.19.21.29.21.2-.21.3-.21.22.18.32.17.17-.23.27-.24.24.15.34.13.14-.25.23-.28.26.13.35.09.11-.25.21-.3.27.1.35.05.08-.27.17-.32.28.06.36,0,.05-.28.13-.34.28.03.36-.04.01-.28.08-.35.28-.01.35-.08-.02-.28.04-.36.28-.04.34-.13-.05-.27,0-.36.27-.07.32-.16-.09-.27-.05-.36.27-.11.3-.21-.12-.25-.09-.35.25-.14.28-.23-.15-.24-.13-.34.23-.17.24-.27-.18-.22-.17-.32S42.534,12.148,42.534,12.048Zm-5.11,1.64a1.635,1.635,0,1,1,1.64-1.64A1.632,1.632,0,0,1,37.424,13.688Z"/><path class="cls-56" d="M37.434,7.378a4.67,4.67,0,1,0,4.67,4.67A4.684,4.684,0,0,0,37.434,7.378Zm-.01,6.31a1.635,1.635,0,1,1,1.64-1.64A1.632,1.632,0,0,1,37.424,13.688Z"/><path class="cls-28" d="M72.665,8.472a4.083,4.083,0,0,0-2.26-.67H44.175a7.938,7.938,0,1,0-.01,8.5h26.24a4.15,4.15,0,0,0,2.3-.69c.05-.04.09-.07.13-.1a4.219,4.219,0,0,0-.17-7.04Zm-35.2,5.22a1.635,1.635,0,1,1,1.63-1.64A1.632,1.632,0,0,1,37.465,13.692Zm17.19-.39a1.25,1.25,0,1,1,1.25-1.25A1.25,1.25,0,0,1,54.655,13.3Zm5.11,0a1.25,1.25,0,1,1,1.26-1.25A1.248,1.248,0,0,1,59.765,13.3Zm5.13,0a1.25,1.25,0,1,1,1.25-1.25A1.253,1.253,0,0,1,64.9,13.3Zm5.11,0a1.25,1.25,0,1,1,1.25-1.25A1.25,1.25,0,0,1,70.005,13.3Z"/></g></g></svg>