<svg id="servo-fs90" xmlns="http://www.w3.org/2000/svg" xmlns:xlink="http://www.w3.org/1999/xlink" width="85.02mm" height="71.442mm" viewBox="0 0 241.001 202.513">
  <defs>
    <style>
      .cls-1, .cls-2, .cls-29, .cls-3 {
        fill: none;
      }

      .cls-1 {
        stroke: #754c24;
      }

      .cls-1, .cls-2, .cls-20, .cls-29, .cls-3, .cls-4, .cls-5, .cls-6, .cls-9 {
        stroke-miterlimit: 10;
      }

      .cls-1, .cls-2, .cls-3 {
        stroke-width: 2.126px;
      }

      .cls-2 {
        stroke: red;
      }

      .cls-3 {
        stroke: #fcee21;
      }

      .cls-20, .cls-4, .cls-5, .cls-6, .cls-9 {
        stroke: #154eaa;
      }

      .cls-4, .cls-5, .cls-6, .cls-9 {
        stroke-width: 1.417px;
      }

      .cls-4 {
        fill: url(#Безымянный_градиент_3);
      }

      .cls-19, .cls-20, .cls-5 {
        fill: #2467d3;
      }

      .cls-11, .cls-6, .cls-9 {
        fill: #0f58ce;
      }

      .cls-7 {
        fill: #e6e6e6;
      }

      .cls-8 {
        fill: #333;
      }

      .cls-9 {
        opacity: 0.96;
      }

      .cls-17, .cls-9 {
        isolation: isolate;
      }

      .cls-10 {
        fill: #154eaa;
      }

      .cls-12 {
        fill: #d3d3d3;
      }

      .cls-13 {
        fill: #e8e7e6;
      }

      .cls-14 {
        fill: #7f7b77;
      }

      .cls-15 {
        fill: #999;
      }

      .cls-16 {
        fill: #6d6e71;
      }

      .cls-17, .cls-18 {
        font-size: 5px;
      }

      .cls-17, .cls-18, .cls-22 {
        fill: #fff;
        font-family: TrebuchetMS-Bold, Trebuchet MS;
        font-weight: 700;
      }

      .cls-18 {
        letter-spacing: -0.036em;
      }

      .cls-20 {
        stroke-width: 2.835px;
      }

      .cls-21 {
        fill: #2060bc;
      }

      .cls-22 {
        font-size: 6px;
        letter-spacing: -0.036em;
      }

      .cls-23 {
        fill: #b3b3b3;
      }

      .cls-24 {
        fill: #939598;
      }

      .cls-25 {
        fill: url(#Безымянный_градиент_2);
      }

      .cls-26 {
        fill: url(#Безымянный_градиент_26);
      }

      .cls-27 {
        fill: url(#Безымянный_градиент_25);
      }

      .cls-28 {
        fill: #e6e7e8;
      }

      .cls-29 {
        stroke: #ccc;
      }

      .cls-30 {
        fill: url(#Безымянный_градиент_10);
      }

      .cls-31 {
        fill: url(#Безымянный_градиент_2-2);
      }

      .cls-32 {
        fill: url(#Безымянный_градиент_10-2);
      }

      .cls-33 {
        fill: url(#Безымянный_градиент_28);
      }

      .cls-34 {
        fill: url(#Безымянный_градиент_2-3);
      }
    </style>
    <linearGradient id="Безымянный_градиент_3" data-name="Безымянный градиент 3" x1="191.686" y1="165.56" x2="191.686" y2="192.816" gradientTransform="matrix(1, 0, 0, -1, 0, 207.967)" gradientUnits="userSpaceOnUse">
      <stop offset="0.035" stop-color="#0071bc"/>
      <stop offset="1" stop-color="#2e3192"/>
    </linearGradient>
    <linearGradient id="Безымянный_градиент_2" data-name="Безымянный градиент 2" x1="47.354" y1="136.395" x2="47.354" y2="124.773" gradientUnits="userSpaceOnUse">
      <stop offset="0.035" stop-color="#0071bc"/>
      <stop offset="0.256" stop-color="#046cb9"/>
      <stop offset="0.522" stop-color="#0e5daf"/>
      <stop offset="0.81" stop-color="#20459f"/>
      <stop offset="1" stop-color="#2e3192"/>
    </linearGradient>
    <linearGradient id="Безымянный_градиент_26" data-name="Безымянный градиент 26" x1="57.859" y1="130.584" x2="59.248" y2="130.584" gradientUnits="userSpaceOnUse">
      <stop offset="0" stop-color="#2e3192"/>
      <stop offset="0.19" stop-color="#20459f"/>
      <stop offset="0.478" stop-color="#0e5daf"/>
      <stop offset="0.744" stop-color="#046cb9"/>
      <stop offset="0.965" stop-color="#0071bc"/>
    </linearGradient>
    <linearGradient id="Безымянный_градиент_25" data-name="Безымянный градиент 25" x1="57.859" y1="125.921" x2="59.248" y2="125.921" gradientUnits="userSpaceOnUse">
      <stop offset="0" stop-color="#2e3192"/>
      <stop offset="0.433" stop-color="#1b4ba3"/>
      <stop offset="0.965" stop-color="#0071bc"/>
    </linearGradient>
    <linearGradient id="Безымянный_градиент_10" data-name="Безымянный градиент 10" x1="193.975" y1="137.064" x2="193.975" y2="125.442" gradientUnits="userSpaceOnUse">
      <stop offset="0.035" stop-color="#0071bc"/>
      <stop offset="0.05" stop-color="#046cb8"/>
      <stop offset="0.113" stop-color="#115aad"/>
      <stop offset="0.19" stop-color="#194ea5"/>
      <stop offset="0.295" stop-color="#1f47a0"/>
      <stop offset="0.553" stop-color="#20459f"/>
      <stop offset="1" stop-color="#2e3192"/>
    </linearGradient>
    <linearGradient id="Безымянный_градиент_2-2" x1="193.975" y1="137.064" x2="193.975" y2="125.442" xlink:href="#Безымянный_градиент_2"/>
    <linearGradient id="Безымянный_градиент_10-2" x1="186.18" y1="126.59" x2="201.77" y2="126.59" gradientTransform="translate(387.95 253.18) rotate(-180)" xlink:href="#Безымянный_градиент_10"/>
    <linearGradient id="Безымянный_градиент_28" data-name="Безымянный градиент 28" x1="193.665" y1="157.776" x2="193.665" y2="150.406" gradientTransform="translate(387.33 308.182) rotate(-180)" gradientUnits="userSpaceOnUse">
      <stop offset="0.035" stop-color="#297de2"/>
      <stop offset="0.219" stop-color="#2667c8"/>
      <stop offset="0.432" stop-color="#2254b1"/>
      <stop offset="0.633" stop-color="#2149a4"/>
      <stop offset="0.81" stop-color="#20459f"/>
      <stop offset="1" stop-color="#2e3192"/>
    </linearGradient>
    <linearGradient id="Безымянный_градиент_2-3" x1="-1072.149" y1="714.628" x2="-1072.149" y2="750.061" gradientTransform="matrix(-1, 0, 0, 1, -1013.198, -700.245)" xlink:href="#Безымянный_градиент_2"/>
  </defs>
  <title>servo-fs90</title>
  <g id="side3">
    <g>
      <polyline class="cls-1" points="128.941 63.57 131.629 64.258 154.441 64.258"/>
      <polyline class="cls-2" points="128.941 66.258 131.629 66.258 154.441 66.258"/>
      <polyline class="cls-3" points="128.941 69.195 131.441 68.258 154.441 68.258"/>
    </g>
    <polygon class="cls-4" points="225.082 15.151 158.885 15.151 154.394 23.134 154.394 34.585 158.885 42.407 225.082 42.407 228.978 34.744 228.888 23.437 225.082 15.151"/>
    <rect class="cls-5" x="158.691" y="43.4" width="66" height="40.858"/>
    <polygon class="cls-6" points="224.647 57.983 229.199 53.749 228.931 34.399 224.647 43.336 224.647 57.983"/>
    <path class="cls-6" d="M225.153,84.222l4.038-4.371V53.923h-4.5l.055,30.068C224.748,84.241,224.99,84.378,225.153,84.222Z" transform="translate(0 0)"/>
    <rect class="cls-7" x="158.691" y="53.373" width="65.956" height="14.885"/>
    <rect class="cls-8" x="158.691" y="64.258" width="65.956" height="14"/>
    <polygon class="cls-6" points="158.678 58.169 154.126 53.935 154.394 34.585 158.678 43.523 158.678 58.169"/>
    <path class="cls-6" d="M158.172,84.408l-4.038-4.371V54.109h4.5l-.055,30.069C158.576,84.427,158.335,84.564,158.172,84.408Z" transform="translate(0 0)"/>
    <path class="cls-9" d="M143.807,49.863a8.483,8.483,0,0,1,1.147.546h0a3.763,3.763,0,0,0,3.7.671,3.2,3.2,0,0,0-.111-5.7c-1.285-.6-2.31-.214-3.923.825h0l-.933.425a4.254,4.254,0,0,1-.657.078V42.168h11.256l-.117,5.041,4.377,5.838c.181.229.052,1.227-.207,1.231l-15.3-.169-.007-4.369A5.617,5.617,0,0,1,143.807,49.863Z" transform="translate(0 0)"/>
    <path class="cls-9" d="M239.517,49.676a8.534,8.534,0,0,0-1.146.547h0a3.764,3.764,0,0,1-3.7.671,3.2,3.2,0,0,1,.111-5.7c1.284-.606,2.309-.214,3.923.825h0l.932.425a4.283,4.283,0,0,0,.657.078V41.982H229.036l.117,5.041-4.378,5.838c-.181.228-.052,1.226.208,1.231l15.3-.169.007-4.369A5.8,5.8,0,0,0,239.517,49.676Z" transform="translate(0 0)"/>
    <polygon class="cls-6" points="224.647 57.983 229.199 53.749 228.931 34.399 224.647 43.336 224.647 57.983"/>
    <path class="cls-6" d="M225.153,84.222l4.038-4.371V53.923h-4.5l.055,30.068C224.748,84.241,224.99,84.378,225.153,84.222Z" transform="translate(0 0)"/>
    <path class="cls-9" d="M239.517,49.676a8.534,8.534,0,0,0-1.146.547h0a3.764,3.764,0,0,1-3.7.671,3.2,3.2,0,0,1,.111-5.7c1.284-.606,2.309-.214,3.923.825h0l.932.425a4.283,4.283,0,0,0,.657.078V41.982H229.036l.117,5.041-4.378,5.838c-.181.228-.052,1.226.208,1.231l15.3-.169.007-4.369A5.8,5.8,0,0,0,239.517,49.676Z" transform="translate(0 0)"/>
    <g>
      <path id="path5572" class="cls-10" d="M171.094,15.914a12.748,12.748,0,1,0,12.748,12.75,12.748,12.748,0,0,0-12.748-12.75h0" transform="translate(0 0)"/>
      <path id="path5576" class="cls-10" d="M183.084,21.708a6.954,6.954,0,1,0,6.953,6.955,6.954,6.954,0,0,0-6.953-6.955" transform="translate(0 0)"/>
      <path id="path5580" class="cls-11" d="M171.094,18.232a10.43,10.43,0,1,0,10.43,10.431,10.43,10.43,0,0,0-10.43-10.431h0" transform="translate(0 0)"/>
      <path id="path5584" class="cls-11" d="M183.084,23.447a5.215,5.215,0,1,0,5.214,5.216,5.215,5.215,0,0,0-5.214-5.216" transform="translate(0 0)"/>
      <g>
        <path class="cls-12" d="M182.234,31.706c7.639-4.494,27.468-21.268,27.468-21.268,2.583-2.19,4.383-4.054,4.352-5.971C214.033,3.091,214,.805,212.031.519a9.249,9.249,0,0,0-6.35,1.152S175.511,16.565,166.389,23c-4.148,2.925-3.873,4.541-4.143,6.827-.385,3.264,2.709,5.093,6.221,5.912C173.573,36.926,179.656,33.223,182.234,31.706Z" transform="translate(0 0)"/>
        <path class="cls-13" d="M182.176,30.993c7.944-4.576,28.173-22.225,28.173-22.225,2.548-2.176,3.441-3.724,3.578-5.189.131-1.412-.7-4.01-4.174-3.518a13.408,13.408,0,0,0-3.816.946C195.5,4.879,175.871,15.538,165.956,21.551c-4.295,2.605-3.984,4.746-4.188,7.092-.292,3.347,2.893,5.323,6.47,6.271C173.439,36.292,179.6,32.475,182.176,30.993Z" transform="translate(0 0)"/>
        <path class="cls-14" d="M171.337,32.251h0c2.06,0,6.488-.472,6.488-3.942h0c0-2.06-3.185-3.72-6.1-3.72l-.2.022c-3.37.169-6.044,1.749-6.044,3.809h0C165.478,31.654,169.277,32.251,171.337,32.251Z" transform="translate(0 0)"/>
        <path class="cls-15" d="M171.337,30.993h0c2.06,0,6.488-.472,6.488-3.942h0c0-2.06-3.185-3.72-6.1-3.72l-.2.022c-3.37.169-6.044,1.749-6.044,3.809h0C165.478,30.4,169.277,30.993,171.337,30.993Z" transform="translate(0 0)"/>
        <path id="path5616" class="cls-16" d="M180.205,22.87a1.159,1.159,0,1,1,1.617.264h0a1.155,1.155,0,0,1-1.614-.261l0,0" transform="translate(0 0)"/>
        <path id="path5620" class="cls-16" d="M184.972,19.8a1.159,1.159,0,1,1,1.618.264h0a1.159,1.159,0,0,1-1.617-.264" transform="translate(0 0)"/>
        <path id="path5624" class="cls-16" d="M189.741,16.726a1.159,1.159,0,1,1,1.617.265,1.159,1.159,0,0,1-1.617-.265h0" transform="translate(0 0)"/>
        <path id="path5628" class="cls-16" d="M194.509,13.655a1.158,1.158,0,1,1,1.617.264h0a1.157,1.157,0,0,1-1.615-.265" transform="translate(0 0)"/>
        <path id="path5632" class="cls-16" d="M199.276,10.6a1.159,1.159,0,1,1,1.617.266h0a1.158,1.158,0,0,1-1.616-.266h0" transform="translate(0 0)"/>
        <path id="path5636" class="cls-16" d="M203.574,8.043a1.609,1.609,0,1,1,0,.005l0-.005" transform="translate(0 0)"/>
        <path id="path5640" class="cls-16" d="M208.812,4.424a1.159,1.159,0,1,1,1.617.265h0a1.158,1.158,0,0,1-1.616-.264h0" transform="translate(0 0)"/>
      </g>
    </g>
    <g>
      <text class="cls-17" transform="translate(168.77 70.251) scale(1.338 1)">Micro Servo 9g</text>
      <text class="cls-18" transform="translate(184.885 76.301) scale(1.338 1)">FS90</text>
    </g>
  </g>
  <g id="side2">
    <g>
      <polyline class="cls-1" points="0.719 186.703 3.713 187.391 29.123 187.391"/>
      <polyline class="cls-2" points="0.719 189.391 3.713 189.391 29.123 189.391"/>
      <polyline class="cls-3" points="0.719 192.328 3.504 191.391 29.123 191.391"/>
    </g>
    <g>
      <g>
        <path class="cls-19" d="M92.827,149.737h12.018a.522.522,0,0,1,.522.522v6.326a.522.522,0,0,1-.522.522H92.827a0,0,0,0,1,0,0v-7.37A0,0,0,0,1,92.827,149.737Z"/>
        <path class="cls-10" d="M92.827,149.737h12.018a.522.522,0,0,1,.522.522v2.419a0,0,0,0,1,0,0H92.827a0,0,0,0,1,0,0v-2.941A0,0,0,0,1,92.827,149.737Z"/>
        <path class="cls-10" d="M102.729,149.737h2.116a.522.522,0,0,1,.522.522v6.485a.363.363,0,0,1-.363.363h-2.275a0,0,0,0,1,0,0v-7.37A0,0,0,0,1,102.729,149.737Z"/>
      </g>
      <g>
        <path class="cls-19" d="M13.176,149.737H25.195a.522.522,0,0,1,.522.522v6.326a.522.522,0,0,1-.522.522H13.176a0,0,0,0,1,0,0v-7.37A0,0,0,0,1,13.176,149.737Z" transform="translate(38.893 306.844) rotate(180)"/>
        <path class="cls-10" d="M13.176,149.737h12.54a0,0,0,0,1,0,0v2.419a.522.522,0,0,1-.522.522H13.176a0,0,0,0,1,0,0v-2.941A0,0,0,0,1,13.176,149.737Z" transform="translate(38.893 302.414) rotate(180)"/>
        <path class="cls-10" d="M13.176,149.737h2.275a.363.363,0,0,1,.363.363v6.485a.522.522,0,0,1-.522.522H13.176a0,0,0,0,1,0,0v-7.37a0,0,0,0,1,0,0Z" transform="translate(28.991 306.844) rotate(180)"/>
      </g>
      <rect class="cls-20" x="27.107" y="137.497" width="64.346" height="62.929"/>
    </g>
    <rect class="cls-21" x="27.804" y="155.41" width="62.479" height="2.828"/>
    <g>
      <rect class="cls-8" x="28.363" y="172.273" width="61.92" height="20.055"/>
      <rect class="cls-7" x="28.363" y="156.273" width="61.92" height="17.82"/>
      <g>
        <text class="cls-17" transform="translate(36.424 181.077) scale(1.338 1)">Micro Servo 9g</text>
        <text class="cls-22" transform="translate(50.302 189.127) scale(1.338 1)">FS90</text>
      </g>
    </g>
    <rect class="cls-23" x="39.954" y="118.686" width="10.8" height="7.087" transform="translate(90.709 244.459) rotate(180)"/>
    <path class="cls-24" d="M38.634,110.781H52.075a0,0,0,0,1,0,0v11.236a1.2,1.2,0,0,1-1.2,1.2H39.834a1.2,1.2,0,0,1-1.2-1.2V110.781A0,0,0,0,1,38.634,110.781Z" transform="translate(90.709 233.998) rotate(180)"/>
    <g>
      <path class="cls-25" d="M28.8,124.773h37.1a1,1,0,0,1,1,1v10.623a0,0,0,0,1,0,0H27.8a0,0,0,0,1,0,0V125.772A1,1,0,0,1,28.8,124.773Z"/>
      <path class="cls-26" d="M58,124.773h1.112a.139.139,0,0,1,.139.139v11.483a0,0,0,0,1,0,0H58a.139.139,0,0,1-.139-.139V124.912a.139.139,0,0,1,.139-.139Z"/>
      <path class="cls-10" d="M27.8,124.773H66.9a0,0,0,0,1,0,0v1.241a1.055,1.055,0,0,1-1.055,1.055H28.579a.775.775,0,0,1-.775-.775v-1.521a0,0,0,0,1,0,0Z" transform="translate(94.709 251.842) rotate(180)"/>
      <rect class="cls-27" x="57.859" y="124.773" width="1.389" height="2.296"/>
    </g>
    <g>
      <rect class="cls-28" y="112.016" width="90.709" height="6.628" rx="2.342" transform="translate(90.709 230.66) rotate(180)"/>
      <line class="cls-29" x1="42.931" y1="111.995" x2="42.931" y2="118.623"/>
      <line class="cls-29" x1="6.931" y1="111.995" x2="6.931" y2="118.623"/>
      <line class="cls-29" x1="48.163" y1="112.016" x2="48.163" y2="118.644"/>
      <line class="cls-29" x1="83.611" y1="112.058" x2="83.611" y2="118.686"/>
    </g>
  </g>
  <g id="side1">
    <g>
      <polyline class="cls-1" points="155.454 187.372 158.448 188.06 183.858 188.06"/>
      <polyline class="cls-2" points="155.454 190.06 158.448 190.06 183.858 190.06"/>
      <polyline class="cls-3" points="155.454 192.997 158.239 192.06 183.858 192.06"/>
    </g>
    <rect class="cls-20" x="176.299" y="138.166" width="35.433" height="62.929"/>
    <rect class="cls-23" x="188.689" y="119.355" width="10.8" height="7.087" transform="translate(388.178 245.797) rotate(180)"/>
    <path class="cls-24" d="M187.368,111.45H200.81a0,0,0,0,1,0,0v11.236a1.2,1.2,0,0,1-1.2,1.2H188.569a1.2,1.2,0,0,1-1.2-1.2V111.45A0,0,0,0,1,187.368,111.45Z" transform="translate(388.178 235.336) rotate(180)"/>
    <g>
      <path class="cls-30" d="M175.894,125.442h36.162a1,1,0,0,1,1,1v10.623a0,0,0,0,1,0,0H174.9a0,0,0,0,1,0,0V126.441A1,1,0,0,1,175.894,125.442Z"/>
      <path class="cls-10" d="M174.9,125.442h38.16a0,0,0,0,1,0,0v1.241A1.055,1.055,0,0,1,212,127.738H175.67a.775.775,0,0,1-.775-.775v-1.521a0,0,0,0,1,0,0Z" transform="translate(387.95 253.18) rotate(180)"/>
    </g>
    <g>
      <path class="cls-31" d="M187.179,125.442h13.593a1,1,0,0,1,1,1v10.623a0,0,0,0,1,0,0H186.18a0,0,0,0,1,0,0V126.441A1,1,0,0,1,187.179,125.442Z"/>
      <path class="cls-32" d="M186.18,125.442H201.77a0,0,0,0,1,0,0v1.241a1.055,1.055,0,0,1-1.055,1.055h-13.76a.775.775,0,0,1-.775-.775v-1.521A0,0,0,0,1,186.18,125.442Z" transform="translate(387.95 253.18) rotate(180)"/>
    </g>
    <rect class="cls-7" x="182.564" y="112.685" width="22.677" height="6.628" rx="2.342" transform="translate(387.806 231.998) rotate(180)"/>
    <line class="cls-29" x1="190.951" y1="112.664" x2="190.951" y2="119.292"/>
    <line class="cls-29" x1="196.898" y1="112.685" x2="196.898" y2="119.313"/>
    <g>
      <path class="cls-19" d="M174.9,150.406h37.94a0,0,0,0,1,0,0v6.749a.621.621,0,0,1-.621.621h-36.77a.549.549,0,0,1-.549-.549v-6.821a0,0,0,0,1,0,0Z" transform="translate(387.73 308.182) rotate(180)"/>
      <path class="cls-10" d="M174.994,150.406h37.743a.1.1,0,0,1,.1.1v2.221a.621.621,0,0,1-.621.621H175.5a.609.609,0,0,1-.609-.609V150.5A.1.1,0,0,1,174.994,150.406Z" transform="translate(387.73 303.752) rotate(-180)"/>
      <path class="cls-10" d="M174.9,150.406h2.462a.363.363,0,0,1,.363.363v6.485a.522.522,0,0,1-.522.522h-2.3a0,0,0,0,1,0,0v-7.37a0,0,0,0,1,0,0Z" transform="translate(352.615 308.182) rotate(180)"/>
      <rect class="cls-10" x="193.098" y="150.406" width="2.825" height="7.37" transform="translate(389.021 308.182) rotate(180)"/>
      <path class="cls-10" d="M210.23,150.406h2.3a.522.522,0,0,1,.522.522v6.485a.363.363,0,0,1-.363.363H210.23a0,0,0,0,1,0,0v-7.37A0,0,0,0,1,210.23,150.406Z"/>
    </g>
    <path class="cls-33" d="M175.687,150.406h35.956a0,0,0,0,1,0,0v6.749a.621.621,0,0,1-.621.621H176.236a.549.549,0,0,1-.549-.549v-6.821A0,0,0,0,1,175.687,150.406Z" transform="translate(387.33 308.182) rotate(180)"/>
    <path class="cls-10" d="M174.994,150.406h37.962a.1.1,0,0,1,.1.1v2.221a.621.621,0,0,1-.621.621H175.5a.609.609,0,0,1-.609-.609V150.5a.1.1,0,0,1,.1-.1Z" transform="translate(387.95 303.752) rotate(-180)"/>
    <path class="cls-10" d="M175.375,150.406h2.462a.363.363,0,0,1,.363.363v6.485a.522.522,0,0,1-.522.522h-2.3a0,0,0,0,1,0,0v-7.37A0,0,0,0,1,175.375,150.406Z" transform="translate(353.575 308.182) rotate(180)"/>
    <path class="cls-10" d="M209.143,150.406h2.286a.522.522,0,0,1,.522.522v6.485a.363.363,0,0,1-.363.363h-2.445a0,0,0,0,1,0,0v-7.37A0,0,0,0,1,209.143,150.406Z"/>
    <g>
      <rect class="cls-10" x="189.098" y="150.406" width="2.825" height="7.37" transform="translate(381.021 308.182) rotate(180)"/>
      <rect class="cls-10" x="194.931" y="150.406" width="2.825" height="7.37" transform="translate(392.688 308.182) rotate(180)"/>
    </g>
  </g>
  <g id="top">
    <g>
      <polyline class="cls-1" points="0.719 29.463 3.407 30.15 26.219 30.15"/>
      <polyline class="cls-2" points="0.719 32.15 3.407 32.15 26.219 32.15"/>
      <polyline class="cls-3" points="0.719 35.088 3.219 34.15 26.219 34.15"/>
    </g>
    <g>
      <path id="path5548" class="cls-19" d="M104.935,14.383a.454.454,0,0,1,.432.462V29.064a.456.456,0,0,1-.432.462h-1.5a2.778,2.778,0,0,1-1.711-.8,3.036,3.036,0,0,0-2.336-.876,4.254,4.254,0,0,0,0,8.489,3.029,3.029,0,0,0,2.335-.875,2.781,2.781,0,0,1,1.712-.8h1.5a.454.454,0,0,1,.432.463V49.354a.455.455,0,0,1-.432.462H13.956a.454.454,0,0,1-.432-.462V35.135a.454.454,0,0,1,.432-.463h1.5a2.773,2.773,0,0,1,1.711.8,3.031,3.031,0,0,0,2.336.875,4.254,4.254,0,0,0,0-8.489h0a3.036,3.036,0,0,0-2.336.876,2.778,2.778,0,0,1-1.711.8h-1.5a.456.456,0,0,1-.432-.462V14.845a.454.454,0,0,1,.432-.462Z" transform="translate(0 0)"/>
      <path id="path5552" class="cls-10" d="M14.959,49.816h88.973a1.462,1.462,0,0,0,1.435-1.477V34.956a1.462,1.462,0,0,0-1.435-1.477h-1.463a3.731,3.731,0,0,0-2.414,1.081,2.111,2.111,0,0,1-1.544.492,2.955,2.955,0,0,1,0-5.907,2.1,2.1,0,0,1,1.544.494,3.738,3.738,0,0,0,2.414,1.079h1.463a1.46,1.46,0,0,0,1.435-1.476V15.859a1.46,1.46,0,0,0-1.435-1.476H14.959a1.46,1.46,0,0,0-1.435,1.476V29.242a1.459,1.459,0,0,0,1.435,1.476h1.463a3.738,3.738,0,0,0,2.414-1.079,2.106,2.106,0,0,1,1.544-.494,2.955,2.955,0,0,1,0,5.907h0a2.111,2.111,0,0,1-1.544-.492,3.731,3.731,0,0,0-2.414-1.081H14.959a1.462,1.462,0,0,0-1.435,1.477V48.339a1.462,1.462,0,0,0,1.435,1.477m.59-2.708V35.424h.873a1.936,1.936,0,0,1,.934.4,4.1,4.1,0,0,0,3.024,1.107,4.835,4.835,0,1,0,0-9.67,4.085,4.085,0,0,0-3.024,1.11,1.955,1.955,0,0,1-.934.4h-.873V17.092h87.793V28.774h-.873a1.951,1.951,0,0,1-.933-.4,4.092,4.092,0,0,0-3.025-1.11,4.835,4.835,0,1,0,0,9.67,4.1,4.1,0,0,0,3.025-1.109,1.947,1.947,0,0,1,.933-.4h.873V47.108H15.549" transform="translate(0 0)"/>
      <path id="path5556" class="cls-34" d="M92.162,14.383a.471.471,0,0,1,.465.462V49.354a.471.471,0,0,1-.465.462H25.74a.469.469,0,0,1-.465-.462V14.845a.469.469,0,0,1,.465-.462Z" transform="translate(0 0)"/>
      <path id="path5560" class="cls-10" d="M27.149,49.816H91.1a1.506,1.506,0,0,0,1.523-1.477V15.859A1.5,1.5,0,0,0,91.1,14.383H27.149a1.5,1.5,0,0,0-1.522,1.476v32.48a1.505,1.505,0,0,0,1.522,1.477M28.27,17.092H89.707V47.108H28.27Z" transform="translate(0 0)"/>
      <g>
        <path id="path5572-2" class="cls-10" d="M45.273,49.108A17.008,17.008,0,1,1,62.281,32.1a17.008,17.008,0,0,1-17.008,17.01h0" transform="translate(0 0)"/>
        <path id="path5576-2" class="cls-10" d="M59.936,41.84A9.74,9.74,0,1,1,69.675,32.1a9.739,9.739,0,0,1-9.739,9.742" transform="translate(0 0)"/>
      </g>
      <g>
        <path id="path5580-2" class="cls-11" d="M45.273,46.108A14.008,14.008,0,1,1,59.281,32.1a14.008,14.008,0,0,1-14.008,14.01h0" transform="translate(0 0)"/>
        <path id="path5584-2" class="cls-11" d="M59.936,38.255A6.156,6.156,0,1,1,66.09,32.1h0a6.158,6.158,0,0,1-6.154,6.157" transform="translate(0 0)"/>
      </g>
      <path class="cls-28" d="M36.571,36.108a9.919,9.919,0,0,0,13.2,4.739h0l.008,0A9.947,9.947,0,0,0,51.223,40l39.04-22.953h0A5.668,5.668,0,0,0,92.972,9.5v0h0a5.668,5.668,0,0,0-7.544-2.709h0L42.886,22.327a9.923,9.923,0,0,0-1.562.57l-.014.005h0A9.921,9.921,0,0,0,36.571,36.108Z" transform="translate(0 0)"/>
      <path id="path5612" class="cls-24" d="M51.554,29.039a6.646,6.646,0,1,1-8.846-3.176,6.646,6.646,0,0,1,8.846,3.176h0" transform="translate(0 0)"/>
      <g>
        <path id="path5616-2" class="cls-16" d="M89.917,10.938a1.316,1.316,0,1,1-1.751-.629h0a1.313,1.313,0,0,1,1.749.626v0" transform="translate(0 0)"/>
        <path id="path5620-2" class="cls-16" d="M85.062,13.231a1.9,1.9,0,1,1-2.529-.908,1.9,1.9,0,0,1,2.529.908" transform="translate(0 0)"/>
        <path id="path5624-2" class="cls-16" d="M79.149,16.019a1.316,1.316,0,1,1-1.751-.63,1.315,1.315,0,0,1,1.751.63l0,0" transform="translate(0 0)"/>
        <path id="path5628-2" class="cls-16" d="M73.765,18.559a1.316,1.316,0,1,1-1.752-.629h0a1.314,1.314,0,0,1,1.75.628h0" transform="translate(0 0)"/>
        <path id="path5632-2" class="cls-16" d="M68.38,21.1a1.316,1.316,0,1,1-1.751-.631h0a1.316,1.316,0,0,1,1.75.631" transform="translate(0 0)"/>
        <path id="path5636-2" class="cls-16" d="M63,23.641a1.316,1.316,0,1,1-1.752-.631A1.315,1.315,0,0,1,63,23.641l0,0" transform="translate(0 0)"/>
        <path id="path5640-2" class="cls-16" d="M57.612,26.181a1.316,1.316,0,1,1-1.751-.63h0a1.315,1.315,0,0,1,1.751.628v0" transform="translate(0 0)"/>
      </g>
    </g>
  </g>
</svg>
