<svg id="servo-fb5317m-360" xmlns="http://www.w3.org/2000/svg" xmlns:xlink="http://www.w3.org/1999/xlink" viewBox="0 0 360.522 268.857"><defs><style>.cls-1,.cls-10,.cls-11,.cls-2,.cls-3,.cls-4,.cls-48{fill:none;}.cls-1,.cls-35,.cls-52{stroke:red;}.cls-1,.cls-2,.cls-3,.cls-4{stroke-linecap:round;stroke-width:2.597px;}.cls-1,.cls-10,.cls-11,.cls-2,.cls-3,.cls-35,.cls-39,.cls-4,.cls-40,.cls-48,.cls-51,.cls-52{stroke-miterlimit:10;}.cls-2{stroke:#000;}.cls-3{stroke:#bcbec0;}.cls-4{stroke:#e8b21a;}.cls-5{fill:url(#linear-gradient);}.cls-6{fill:url(#linear-gradient-2);}.cls-7{fill:url(#linear-gradient-3);}.cls-8{fill:#ccc;}.cls-9{fill:#4d4d4d;}.cls-10,.cls-11,.cls-39,.cls-40,.cls-48{stroke:#231f20;}.cls-10{stroke-width:0.502px;}.cls-11{stroke-width:0.502px;}.cls-12{fill:url(#linear-gradient-4);}.cls-13,.cls-49{opacity:0.48;}.cls-14{fill:url(#linear-gradient-5);}.cls-15{fill:url(#linear-gradient-6);}.cls-16{fill:url(#linear-gradient-7);}.cls-17{fill:url(#linear-gradient-8);}.cls-18{fill:#414042;}.cls-19{fill:#191919;}.cls-20{fill:#111;}.cls-21{fill:#262626;}.cls-22{fill:url(#radial-gradient);}.cls-23{fill:#1e1e1e;}.cls-24{fill:#323233;}.cls-25{fill:#1e1d1e;}.cls-26{fill:#303030;}.cls-27{fill:#161515;}.cls-28{fill:#3f3f3f;}.cls-29{fill:#515051;}.cls-30{fill:url(#radial-gradient-2);}.cls-31{fill:url(#radial-gradient-3);}.cls-32{fill:#b3b3b3;}.cls-33{fill:#2a2a2b;}.cls-34{fill:red;}.cls-35,.cls-52{fill:#f7e831;}.cls-35{stroke-width:0.283px;}.cls-36{font-size:7.001px;font-family:MyriadPro-Regular, Myriad Pro;}.cls-36,.cls-53{fill:#fff200;}.cls-37{fill:url(#linear-gradient-9);}.cls-38{fill:#58595b;}.cls-39,.cls-56{fill:#282626;}.cls-39,.cls-40,.cls-48{stroke-width:0.709px;}.cls-40{fill:#939598;}.cls-41{fill:url(#linear-gradient-10);}.cls-42{fill:url(#linear-gradient-11);}.cls-43{fill:url(#linear-gradient-12);}.cls-44{fill:url(#linear-gradient-13);}.cls-45{fill:url(#linear-gradient-14);}.cls-46{fill:url(#linear-gradient-15);}.cls-47{fill:url(#linear-gradient-16);}.cls-49{fill:#231f20;}.cls-50{fill:#020202;opacity:0.65;}.cls-51{stroke:#fff;stroke-width:0.283px;}.cls-52{stroke-width:0.452px;}.cls-53{font-size:11.339px;font-family:TrebuchetMS, Trebuchet MS;}.cls-54{fill:url(#linear-gradient-17);}.cls-55{fill:url(#linear-gradient-18);}.cls-57{fill:url(#linear-gradient-19);}.cls-58{fill:url(#linear-gradient-20);}.cls-59{fill:url(#linear-gradient-21);}.cls-60{fill:url(#linear-gradient-22);}.cls-61{fill:url(#linear-gradient-23);}.cls-62{fill:url(#linear-gradient-24);}</style><linearGradient id="linear-gradient" x1="358.286" y1="267.843" x2="360.52" y2="267.843" gradientUnits="userSpaceOnUse"><stop offset="0" stop-color="#6d6e70"/><stop offset="0.716" stop-color="#a4a6a8"/><stop offset="1" stop-color="#bbbdbf"/></linearGradient><linearGradient id="linear-gradient-2" x1="303.543" y1="267.843" x2="305.777" y2="267.843" xlink:href="#linear-gradient"/><linearGradient id="linear-gradient-3" x1="323.813" y1="148.943" x2="340.254" y2="148.943" gradientUnits="userSpaceOnUse"><stop offset="0" stop-color="#999"/><stop offset="0.539" stop-color="#939598"/><stop offset="0.656" stop-color="#a0a1a3"/><stop offset="0.842" stop-color="#aeaeaf"/><stop offset="1" stop-color="#b3b3b3"/></linearGradient><linearGradient id="linear-gradient-4" x1="303.546" y1="165.258" x2="360.522" y2="165.258" gradientUnits="userSpaceOnUse"><stop offset="0.011" stop-color="#231f20"/><stop offset="0.608" stop-color="#383638"/><stop offset="1" stop-color="#414042"/></linearGradient><linearGradient id="linear-gradient-5" x1="303.546" y1="165.114" x2="360.522" y2="165.114" gradientUnits="userSpaceOnUse"><stop offset="0" stop-color="#a7a9ac" stop-opacity="0.1"/><stop offset="0.013" stop-color="#abadb0" stop-opacity="0.118"/><stop offset="0.091" stop-color="#bcbec0" stop-opacity="0.199"/><stop offset="0.182" stop-color="#c8cacb" stop-opacity="0.257"/><stop offset="0.297" stop-color="#cfd1d2" stop-opacity="0.29"/><stop offset="0.52" stop-color="#d1d3d4" stop-opacity="0.3"/><stop offset="0.705" stop-color="#cfd1d2" stop-opacity="0.289"/><stop offset="0.819" stop-color="#c7c9ca" stop-opacity="0.252"/><stop offset="0.914" stop-color="#babcbe" stop-opacity="0.19"/><stop offset="0.998" stop-color="#a8aaac" stop-opacity="0.102"/><stop offset="1" stop-color="#a7a9ac" stop-opacity="0.1"/></linearGradient><linearGradient id="linear-gradient-6" x1="319.225" y1="163.989" x2="345.284" y2="163.989" xlink:href="#linear-gradient-5"/><linearGradient id="linear-gradient-7" x1="313.609" y1="156.238" x2="350.459" y2="156.238" gradientUnits="userSpaceOnUse"><stop offset="0" stop-color="#1a1a1a"/><stop offset="1" stop-color="#333"/></linearGradient><linearGradient id="linear-gradient-8" x1="303.546" y1="185.086" x2="360.522" y2="185.086" xlink:href="#linear-gradient-7"/><radialGradient id="radial-gradient" cx="-166.45" cy="28.588" r="1.417" gradientTransform="translate(259.378)" gradientUnits="userSpaceOnUse"><stop offset="0" stop-color="#1a1a1a"/><stop offset="1" stop-color="#4d4d4d"/></radialGradient><radialGradient id="radial-gradient-2" cx="-297.604" cy="-9.255" r="11.33" gradientTransform="translate(276.455 35.187) scale(0.713 0.713)" gradientUnits="userSpaceOnUse"><stop offset="0" stop-color="#3b3b3b"/><stop offset="0.008" stop-color="#3d3d3d"/><stop offset="0.198" stop-color="#747474"/><stop offset="0.384" stop-color="#a1a1a1"/><stop offset="0.562" stop-color="#c4c4c4"/><stop offset="0.728" stop-color="#ddd"/><stop offset="0.878" stop-color="#ededed"/><stop offset="1" stop-color="#f2f2f2"/></radialGradient><radialGradient id="radial-gradient-3" cx="-297.601" cy="-9.255" r="10.373" gradientTransform="translate(276.455 35.187) scale(0.713 0.713)" gradientUnits="userSpaceOnUse"><stop offset="0" stop-color="#a1a1a1"/><stop offset="0.069" stop-color="#ababab"/><stop offset="0.301" stop-color="#c7c7c7"/><stop offset="0.535" stop-color="#dbdbdb"/><stop offset="0.768" stop-color="#e7e7e7"/><stop offset="1" stop-color="#ebebeb"/></radialGradient><linearGradient id="linear-gradient-9" x1="24.912" y1="28.658" x2="41.615" y2="28.658" gradientTransform="translate(107.799)" gradientUnits="userSpaceOnUse"><stop offset="0" stop-color="#6d6e71" stop-opacity="0.3"/><stop offset="0.445" stop-color="#2f2f30" stop-opacity="0.796"/><stop offset="1" stop-color="#161515"/></linearGradient><linearGradient id="linear-gradient-10" x1="52.823" y1="148.098" x2="69.263" y2="148.098" gradientTransform="matrix(1, 0, 0, -1, 2.976, 296.197)" xlink:href="#linear-gradient-3"/><linearGradient id="linear-gradient-11" x1="42.619" y1="156.429" x2="79.47" y2="156.429" gradientTransform="matrix(1, 0, 0, -1, 2.973, 312.858)" xlink:href="#linear-gradient-7"/><linearGradient id="linear-gradient-12" x1="-23.334" y1="164.804" x2="86.954" y2="164.804" gradientTransform="matrix(-1, 0, 0, 1, 125.062, 0)" xlink:href="#linear-gradient-7"/><linearGradient id="linear-gradient-13" x1="50.416" y1="164.285" x2="86.954" y2="164.285" gradientTransform="matrix(-1, 0, 0, 1, 125.062, 0)" gradientUnits="userSpaceOnUse"><stop offset="0" stop-color="#1a1a1a" stop-opacity="0"/><stop offset="1" stop-color="#a7a9ac" stop-opacity="0.3"/></linearGradient><linearGradient id="linear-gradient-14" x1="-92.485" y1="162.272" x2="-71.156" y2="162.272" gradientTransform="translate(219.551)" xlink:href="#linear-gradient-13"/><linearGradient id="linear-gradient-15" x1="-45.369" y1="184.241" x2="107.702" y2="184.241" gradientTransform="matrix(1, 0, 0, -1, 62.729, 368.482)" xlink:href="#linear-gradient-7"/><linearGradient id="linear-gradient-16" x1="-25.668" y1="214.526" x2="88.002" y2="214.526" gradientTransform="matrix(-1, 0, 0, 1, 125.062, 0)" xlink:href="#linear-gradient-7"/><linearGradient id="linear-gradient-17" x1="83.934" y1="267.768" x2="87.999" y2="267.768" gradientTransform="matrix(1, 0, 0, -1, -46.872, 535.536)" xlink:href="#linear-gradient"/><linearGradient id="linear-gradient-18" x1="-25.67" y1="267.768" x2="-21.605" y2="267.768" gradientTransform="matrix(1, 0, 0, -1, 172.337, 535.536)" xlink:href="#linear-gradient"/><linearGradient id="linear-gradient-19" x1="51.914" y1="144.075" x2="69.698" y2="144.075" gradientTransform="matrix(1, 0, 0, -1, 3.449, 288.151)" gradientUnits="userSpaceOnUse"><stop offset="0" stop-color="#a7a9ac" stop-opacity="0"/><stop offset="0.176" stop-color="#a7a9ac" stop-opacity="0.074"/><stop offset="0.525" stop-color="#a7a9ac" stop-opacity="0.2"/><stop offset="0.751" stop-color="#6e6f71" stop-opacity="0.119"/><stop offset="1" stop-color="#1a1a1a" stop-opacity="0"/></linearGradient><linearGradient id="linear-gradient-20" x1="6.948" y1="139.453" x2="15.106" y2="139.453" gradientTransform="matrix(1, 0, 0, -1, 103.007, 278.905)" gradientUnits="userSpaceOnUse"><stop offset="0" stop-color="#a7a9ac" stop-opacity="0.3"/><stop offset="1" stop-color="#1a1a1a" stop-opacity="0"/></linearGradient><linearGradient id="linear-gradient-21" x1="134.057" y1="139.453" x2="142.215" y2="139.453" gradientTransform="translate(-123.66)" xlink:href="#linear-gradient-20"/><linearGradient id="linear-gradient-22" x1="179.024" y1="139.453" x2="196.808" y2="139.453" gradientTransform="translate(-123.66)" gradientUnits="userSpaceOnUse"><stop offset="0" stop-color="#a7a9ac" stop-opacity="0"/><stop offset="0.01" stop-color="#a7a9ac" stop-opacity="0.016"/><stop offset="0.109" stop-color="#a7a9ac" stop-opacity="0.141"/><stop offset="0.218" stop-color="#a7a9ac" stop-opacity="0.231"/><stop offset="0.343" stop-color="#a7a9ac" stop-opacity="0.284"/><stop offset="0.525" stop-color="#a7a9ac" stop-opacity="0.3"/><stop offset="0.734" stop-color="#a1a3a6" stop-opacity="0.287"/><stop offset="0.833" stop-color="#8d8e91" stop-opacity="0.244"/><stop offset="0.909" stop-color="#696b6c" stop-opacity="0.169"/><stop offset="0.972" stop-color="#383839" stop-opacity="0.063"/><stop offset="1" stop-color="#1a1a1a" stop-opacity="0"/></linearGradient><linearGradient id="linear-gradient-23" x1="319.984" y1="145.976" x2="344.079" y2="145.976" gradientTransform="translate(664.063 291.952) rotate(-180)" xlink:href="#linear-gradient-19"/><linearGradient id="linear-gradient-24" x1="319.984" y1="139.453" x2="344.079" y2="139.453" gradientTransform="translate(664.063 278.905) rotate(-180)" gradientUnits="userSpaceOnUse"><stop offset="0" stop-color="#a7a9ac" stop-opacity="0"/><stop offset="0.525" stop-color="#a7a9ac" stop-opacity="0.3"/><stop offset="0.647" stop-color="#95979a" stop-opacity="0.263"/><stop offset="0.817" stop-color="#646567" stop-opacity="0.158"/><stop offset="1" stop-color="#1a1a1a" stop-opacity="0"/></linearGradient></defs><g id="side"><g id="шнуры"><line class="cls-1" x1="304.179" y1="256.215" x2="270.136" y2="256.215"/><line class="cls-2" x1="304.179" y1="258.632" x2="270.136" y2="258.632"/><line class="cls-3" x1="304.179" y1="253.512" x2="270.136" y2="253.512"/><line class="cls-4" x1="304.179" y1="250.866" x2="270.136" y2="250.866"/></g><path class="cls-5" d="M358.286,266.83h2.234a0,0,0,0,1,0,0v1.318a.709.709,0,0,1-.709.709h-.817a.709.709,0,0,1-.709-.709V266.83A0,0,0,0,1,358.286,266.83Z"/><path class="cls-6" d="M303.543,266.83h2.234a0,0,0,0,1,0,0v1.318a.709.709,0,0,1-.709.709h-.817a.709.709,0,0,1-.709-.709V266.83a0,0,0,0,1,0,0Z"/><rect class="cls-7" x="323.813" y="143.274" width="16.44" height="11.339"/><rect class="cls-8" x="323.814" y="143.274" width="0.494" height="11.339"/><rect class="cls-8" x="324.811" y="143.274" width="0.494" height="11.339"/><rect class="cls-8" x="325.807" y="143.274" width="0.494" height="11.339"/><rect class="cls-8" x="326.804" y="143.274" width="0.494" height="11.339"/><rect class="cls-8" x="327.8" y="143.274" width="0.494" height="11.339"/><rect class="cls-8" x="328.797" y="143.274" width="0.494" height="11.339"/><rect class="cls-8" x="329.794" y="143.274" width="0.494" height="11.339"/><rect class="cls-8" x="330.79" y="143.274" width="0.494" height="11.339"/><rect class="cls-8" x="331.787" y="143.274" width="0.494" height="11.339"/><rect class="cls-8" x="332.784" y="143.274" width="0.494" height="11.339"/><rect class="cls-8" x="333.78" y="143.274" width="0.494" height="11.339"/><rect class="cls-8" x="334.777" y="143.274" width="0.494" height="11.339"/><rect class="cls-8" x="335.773" y="143.274" width="0.494" height="11.339"/><rect class="cls-8" x="336.77" y="143.274" width="0.494" height="11.339"/><rect class="cls-8" x="337.767" y="143.274" width="0.494" height="11.339"/><rect class="cls-8" x="338.763" y="143.274" width="0.494" height="11.339"/><rect class="cls-8" x="339.76" y="143.274" width="0.494" height="11.339"/><polygon class="cls-9" points="360.519 168.052 360.519 266.83 357.774 266.83 357.774 268.855 306.283 268.855 306.283 266.83 303.543 266.83 303.543 168.052 360.519 168.052"/><line class="cls-10" x1="303.543" y1="189.054" x2="360.519" y2="189.054"/><line class="cls-11" x1="303.546" y1="249.479" x2="360.52" y2="249.479"/><path class="cls-12" d="M360.522,169.042c-20.881,3.8-39.852,3.759-56.976,0v-10.4h56.976Z"/><g class="cls-13"><path class="cls-14" d="M360.522,168.754c-20.881,3.8-39.852,3.759-56.976,0V158.638h56.976Z"/></g><g class="cls-13"><path class="cls-15" d="M319.225,168.834c8.53.96,20.425.366,26.059-.23l-2.759-9.966H321.542Z"/></g><rect class="cls-16" x="313.609" y="153.838" width="36.85" height="4.8"/><line class="cls-11" x1="303.548" y1="263.975" x2="360.522" y2="263.975"/><rect class="cls-17" x="303.546" y="181.117" width="56.976" height="7.937"/><rect class="cls-18" x="329.198" y="177.767" width="5.669" height="3.35"/><rect class="cls-19" x="342.438" y="181.512" width="7.714" height="7.37" transform="translate(161.098 531.492) rotate(-90)"/><rect class="cls-20" x="313.916" y="181.512" width="7.714" height="7.37" transform="translate(132.576 502.97) rotate(-90)"/></g><g id="top"><g id="шнуры-2" data-name="шнуры"><line class="cls-1" x1="1.311" y1="28.889" x2="37.955" y2="28.889"/><line class="cls-2" x1="1.311" y1="30.776" x2="37.955" y2="30.776"/><line class="cls-3" x1="1.311" y1="26.778" x2="37.955" y2="26.778"/><line class="cls-4" x1="1.298" y1="24.712" x2="37.955" y2="24.712"/></g><path class="cls-21" d="M31.839,14.327a6.434,6.434,0,0,1-12.71,1.42H17.37v25.6h1.759a6.43,6.43,0,1,1,0,2.84H17.37v12.89H170.429V44.187h-1.76a6.43,6.43,0,1,1,0-2.84h1.76v-25.6h-1.76a6.435,6.435,0,1,1,0-2.83h1.76V.1H17.37v12.82h1.759a6.434,6.434,0,0,1,12.71,1.41Z"/><path class="cls-22" d="M94.356,28.587a1.415,1.415,0,0,1-1.416,1.418,1.417,1.417,0,1,1,1.405-1.6A1.6,1.6,0,0,1,94.356,28.587Z"/><rect class="cls-23" x="104.887" y="13.072" width="19.935" height="31.032" rx="1.645"/><rect class="cls-24" x="17.371" y="26.602" width="153.06" height="3.969" transform="translate(187.802 57.173) rotate(-180)"/><rect class="cls-25" x="37.07" y="0.24" width="113.661" height="56.693"/><path class="cls-26" d="M37.955,28.6A27.88,27.88,0,0,0,65.829,56.494h66.882V.708H65.829A27.88,27.88,0,0,0,37.955,28.6Z"/><path class="cls-27" d="M39.982,28.6A35.14,35.14,0,0,0,40.6,35a32.206,32.206,0,0,0,1.922,6.225,25.986,25.986,0,0,0,3.405,5.714,21.3,21.3,0,0,0,2.287,2.482,21,21,0,0,0,2.629,2.144,24.572,24.572,0,0,0,6.071,3.045,26.79,26.79,0,0,0,6.654,1.411c2.256.176,4.583.091,6.884.126l6.918.026c9.224.068,18.447.007,27.671-.04,4.612-.014,9.224-.043,13.836-.117l13.835-.216-.7.7V.708l.7.7-13.835-.223c-4.612-.076-9.224-.107-13.836-.127C95.816,1,86.593.935,77.369.99l-6.918.018c-2.3.032-4.626-.056-6.889.118a26.833,26.833,0,0,0-6.671,1.407A23.936,23.936,0,0,0,50.812,5.6a23.488,23.488,0,0,0-4.907,4.652,26.126,26.126,0,0,0-3.4,5.725A32.181,32.181,0,0,0,39.982,28.6Zm-4.055,0a26.258,26.258,0,0,1,1.084-7.3,26.639,26.639,0,0,1,3.1-6.626,32.249,32.249,0,0,1,10.25-9.769A29.157,29.157,0,0,1,63.51.493C65.849.325,68.143.429,70.451.408l6.918.018C86.593.482,95.816.419,105.04.361c4.612-.02,9.224-.05,13.836-.127L132.711.011l.7-.011V57.2l-.7-.011-13.835-.215c-4.612-.074-9.224-.1-13.836-.118-9.224-.046-18.447-.107-27.671-.039l-6.918.026c-2.309-.018-4.6.089-6.945-.077a28.845,28.845,0,0,1-13.174-4.427,32.518,32.518,0,0,1-10.236-9.8A25.676,25.676,0,0,1,35.927,28.6Z"/><path id="path5572-2" class="cls-28" d="M64.274,47.014A18.426,18.426,0,1,1,82.7,28.586,18.425,18.425,0,0,1,64.274,47.014h0"/><path id="path5576-2" class="cls-29" d="M64.275,42.8a14.207,14.207,0,1,1,14.2-14.21,14.205,14.205,0,0,1-14.2,14.21"/><path class="cls-30" d="M64.275,36.667c-.16,0-.311-.321-.469-.331s-.347.292-.5.273-.27-.357-.427-.385-.38.247-.535.209-.224-.387-.376-.434-.407.2-.555.142-.176-.41-.321-.476-.428.148-.568.074-.124-.428-.26-.511-.443.1-.574,0-.071-.44-.2-.539-.451.043-.57-.063-.019-.446-.131-.559-.453-.011-.558-.131.035-.444-.064-.57-.447-.065-.538-.2.088-.437.006-.573-.437-.119-.512-.26.141-.423.075-.569-.419-.171-.476-.32.191-.4.143-.555-.395-.22-.433-.375.238-.377.209-.534-.365-.266-.384-.425.281-.345.272-.5-.331-.309-.331-.47.321-.311.331-.469-.292-.347-.273-.5.357-.27.385-.427-.247-.38-.209-.535.387-.224.434-.376-.2-.407-.142-.556.41-.175.476-.32-.149-.428-.074-.569.428-.124.511-.26-.1-.442-.005-.573.44-.071.539-.2-.043-.451.063-.57.446-.018.558-.131.012-.452.132-.558.444.036.569-.063.066-.448.2-.538.437.088.574.005.119-.437.26-.511.423.14.569.075.17-.419.32-.476.4.191.554.143.22-.395.376-.434.376.239.534.21.265-.366.424-.385.345.282.506.272.308-.33.469-.33.311.321.469.33.348-.291.5-.272.27.356.427.385.38-.247.535-.209.224.386.376.434.407-.2.556-.143.175.411.32.476.428-.148.569-.074.124.429.26.512.443-.1.573-.006.072.441.2.539.451-.042.57.064.018.445.131.558.452.012.558.131-.036.445.063.57.448.066.538.2-.088.437,0,.573.436.119.511.261-.14.423-.075.568.419.171.476.32-.191.4-.143.555.395.22.433.375-.238.377-.209.535.366.265.385.424-.282.345-.272.506.33.308.33.469-.321.311-.33.469.291.348.272.505-.356.271-.385.427.247.381.209.535-.386.224-.434.376.2.407.143.556-.411.175-.477.32.149.428.075.569-.429.124-.512.26.1.443.006.574-.441.071-.539.2.042.451-.064.57-.445.018-.558.131-.012.453-.131.558-.445-.035-.57.063-.066.448-.2.539-.437-.088-.573-.006-.119.437-.26.511-.424-.14-.569-.074-.171.419-.32.476-.4-.191-.555-.143-.22.4-.375.433-.377-.238-.534-.209-.266.365-.425.385-.345-.282-.5-.273S64.436,36.667,64.275,36.667Z"/><path class="cls-31" d="M64.277,35.985a7.4,7.4,0,1,1,7.4-7.4A7.4,7.4,0,0,1,64.277,35.985Z"/><path class="cls-8" d="M64.276,30.832a2.244,2.244,0,1,1,2.244-2.244A2.246,2.246,0,0,1,64.276,30.832Z"/><path class="cls-32" d="M64.277,30.384a1.8,1.8,0,1,1,1.8-1.8A1.8,1.8,0,0,1,64.277,30.384Z"/><rect class="cls-33" x="98.527" y="1.164" width="32.318" height="54.14" rx="4.266"/><path d="M116.7,42.765a.8.8,0,0,0,.883-.8V37.116l-1.416-.145v3.757l-.946-.1V37.44l-1.415-.145v3.191l-.984-.1V36.628l-1.415-.145V41.5a.8.8,0,0,0,.719.8Z"/><path d="M112.825,30.342,111.41,30.2v5.008a.809.809,0,0,0,.728.806l4.555.467a.81.81,0,0,0,.893-.806V30.831l-1.416-.145v3.757l-.946-.1V31.155l-1.415-.145V34.2l-.984-.1Z"/><path d="M115.224,22.881V19.69l-1.415-.145v3.191l-.984-.1V18.878l-1.415-.145v5.008a.81.81,0,0,0,.727.806l4.557.467a.809.809,0,0,0,.892-.8V19.367l-1.416-.145v3.757Z"/><path d="M115.5,14.23a.951.951,0,0,1,.355.279,1.245,1.245,0,0,1,.22.409,1.4,1.4,0,0,1-.03.994.69.69,0,0,1-.3.314.9.9,0,0,1-.528.089l-1.508-.155a1.075,1.075,0,0,1-.543-.2,1.055,1.055,0,0,1-.329-.418,1.371,1.371,0,0,1-.039-1,.962.962,0,0,1,.213-.343.7.7,0,0,1,.321-.195l.273-.076V11.951l-.381.061a1.97,1.97,0,0,0-1,.474,2.581,2.581,0,0,0-.69,1.018,4.338,4.338,0,0,0,.058,3,2.852,2.852,0,0,0,.844,1.161,2.31,2.31,0,0,0,1.224.5l1.507.154a1.971,1.971,0,0,0,1.239-.251,2.193,2.193,0,0,0,.872-1.023,3.85,3.85,0,0,0,.3-1.583,4.111,4.111,0,0,0-.238-1.4,3.286,3.286,0,0,0-.665-1.122,2.49,2.49,0,0,0-.982-.669l-.43-.158v2.017Z"/><polygon points="111.41 6.406 113.832 6.655 113.832 8.924 111.41 8.675 111.41 10.658 117.586 11.291 117.586 9.309 115.247 9.069 115.247 6.8 117.586 7.04 117.586 5.058 111.41 4.424 111.41 6.406"/><path class="cls-34" d="M108.386,41.884l-2.3-.183.051,8,.039-.854-.12,2.632.165-1.772.277.023-.016,1.781.367-2.607-.119.844.291.023.03-.858-.091,2.613.257-1.739.275.022-.014,1.781.364-2.611-.118.848.251.02.078-.85-.237,2.575.527-2.556-.174.847.331.026,0-.864-.007,2.641.235-1.759.3.025.022-.86-.067,2.611.358-2.584-.118.848.293.023.027-.861-.082,2.612.255-1.735.28.023,0-.872.016,2.652.226-1.762.291.024-.045,1.754.245-1.738.357.028.071,1.784.184-2.631-.06.863.271.021.106,1.784.184-2.621-.06.855.235.019.037-.865-.11,2.612.4-2.584-.132.853.321.025-.027,1.756.227-1.74.266.021,0-.869L113,52.02l.238-1.753.3.024.019-.865-.057,2.612.356-2.584-.117.853.306.024-.028,1.753.34-2.593-.112.856.253.02.008-.876-.025,2.648.247-1.754.367.03-.034-.868.105,2.649.124-1.766.25.02-.044,1.746.238-1.731.271.022,0-.876-.015,2.645.358-2.607-.118.856.307.025.013-.863-.041,2.616.34-2.6-.113.86.259.02,0-.871-.012,2.64.243-1.75.185.015.046-.859-.139,2.632.263-2.622V48.106l-4.469-.356V43.11l-2.3-.183v4.64l-1.441-.115a1.081,1.081,0,0,1-1-1.078Z"/><path class="cls-34" d="M106.061,25.019l11.448.918v3.572l-9.562-.766C108.176,29.254,106.061,25.019,106.061,25.019Z"/><path class="cls-35" d="M105.694,4.1s-2.746,6.6-1.513,12.531c.927,4.458,4.06,8.287,6.173,11.98,1.59,2.777.781,4.731.368,6.751l-2.543.182c.393-2.24,1.068-3.972-.473-6.83-1.225-2.27-6.318-8.517-6.318-14.7C101.388,10.044,105.694,4.1,105.694,4.1Z"/><text class="cls-36" transform="translate(127.269 49.778) rotate(-90)">FB5317M - 360</text><rect class="cls-37" x="132.711" y="0.24" width="16.703" height="56.836"/><rect class="cls-38" x="147.398" y="0.24" width="2.016" height="56.693" transform="translate(296.812 57.173) rotate(-180)"/></g><g id="качелька_top" data-name="качелька top"><path class="cls-18" d="M10.408,28.587a7.1,7.1,0,0,0,6.389,7.05c3.71.3,19.789,2.69,34.528,3.98a16.987,16.987,0,0,0,25.928-.06c13.589-1.22,30.958-3.46,34.4-3.91l.45-.06c.11-.02.18-.03.18-.03h.01a7.114,7.114,0,0,0,5.829-6.97,6.4,6.4,0,0,0-.07-.88,6.2,6.2,0,0,0-1.36-3.35,7.054,7.054,0,0,0-5.659-2.85s-19.059-2.55-33.778-3.88A16.974,16.974,0,0,0,51.3,17.6c-14.959,1.33-34.478,3.91-34.478,3.91s-.05.02-.07.04A7.1,7.1,0,0,0,10.408,28.587Zm58.106,0a4.25,4.25,0,1,1-4.25-4.25A4.246,4.246,0,0,1,68.514,28.587Zm42.077,0a2.125,2.125,0,1,1,2.12,2.13A2.121,2.121,0,0,1,110.591,28.587Zm-9.64,0a2.125,2.125,0,1,1,2.13,2.13A2.123,2.123,0,0,1,100.951,28.587Zm-9.639,0a2.125,2.125,0,1,1,2.13,2.13A2.123,2.123,0,0,1,91.312,28.587Zm-9.639,0a2.13,2.13,0,1,1,2.13,2.13A2.13,2.13,0,0,1,81.673,28.587Zm-39.078,0a2.125,2.125,0,1,1,2.12,2.13A2.121,2.121,0,0,1,42.6,28.587Zm-9.639,0a2.125,2.125,0,1,1,2.13,2.13A2.123,2.123,0,0,1,32.956,28.587Zm-9.639,0a2.125,2.125,0,1,1,2.13,2.13A2.123,2.123,0,0,1,23.317,28.587Zm-9.64,0a2.13,2.13,0,1,1,2.13,2.13A2.13,2.13,0,0,1,13.677,28.587Z"/><path class="cls-39" d="M50.085,28.587a14.174,14.174,0,1,0,14.179-14.17A14.181,14.181,0,0,0,50.085,28.587Zm9.929,0a4.25,4.25,0,1,1,4.25,4.25A4.246,4.246,0,0,1,60.014,28.587Z"/><path class="cls-40" d="M54.625,28.587a9.639,9.639,0,1,0,9.639-9.64A9.638,9.638,0,0,0,54.625,28.587Zm5.389,0a4.25,4.25,0,1,1,4.25,4.25A4.246,4.246,0,0,1,60.014,28.587Z"/></g><g id="side-2" data-name="side"><g id="side-3" data-name="side"><rect class="cls-41" x="55.798" y="142.429" width="16.44" height="11.339" transform="translate(128.037 296.197) rotate(-180)"/><rect class="cls-8" x="71.744" y="142.429" width="0.494" height="11.339"/><rect class="cls-8" x="70.747" y="142.429" width="0.494" height="11.339"/><rect class="cls-8" x="69.751" y="142.429" width="0.494" height="11.339"/><rect class="cls-8" x="68.754" y="142.429" width="0.494" height="11.339"/><rect class="cls-8" x="67.757" y="142.429" width="0.494" height="11.339"/><rect class="cls-8" x="66.761" y="142.429" width="0.494" height="11.339"/><rect class="cls-8" x="65.764" y="142.429" width="0.494" height="11.339"/><rect class="cls-8" x="64.767" y="142.429" width="0.494" height="11.339"/><rect class="cls-8" x="63.771" y="142.429" width="0.494" height="11.339"/><rect class="cls-8" x="62.774" y="142.429" width="0.494" height="11.339"/><rect class="cls-8" x="61.778" y="142.429" width="0.494" height="11.339"/><rect class="cls-8" x="60.781" y="142.429" width="0.494" height="11.339"/><rect class="cls-8" x="59.784" y="142.429" width="0.494" height="11.339"/><rect class="cls-8" x="58.788" y="142.429" width="0.494" height="11.339"/><rect class="cls-8" x="57.791" y="142.429" width="0.494" height="11.339"/><rect class="cls-8" x="56.794" y="142.429" width="0.494" height="11.339"/><rect class="cls-8" x="55.798" y="142.429" width="0.494" height="11.339"/><rect class="cls-42" x="45.592" y="153.768" width="36.85" height="5.323" transform="translate(128.034 312.858) rotate(-180)"/><path class="cls-43" d="M38.387,171.022,148.4,165.957l-15.976-7.37H47.428a9.319,9.319,0,0,0-9.267,10.306Z"/><g class="cls-13"><path class="cls-44" d="M74.645,165.957l-36.406,4.026-.08-.778a9.63,9.63,0,0,1,9.579-10.618H74.645Z"/></g><g class="cls-13"><polygon class="cls-45" points="127.066 165.957 148.395 165.957 132.419 158.587 127.066 165.957"/></g><g id="шнуры-3" data-name="шнуры"><line class="cls-1" x1="1.298" y1="256.215" x2="35.341" y2="256.215"/><line class="cls-2" x1="1.298" y1="258.632" x2="35.341" y2="258.632"/><line class="cls-3" x1="1.298" y1="253.512" x2="35.341" y2="253.512"/><line class="cls-4" x1="1.298" y1="250.866" x2="35.341" y2="250.866"/></g><rect class="cls-46" x="17.36" y="180.272" width="153.071" height="7.937" transform="translate(187.791 368.482) rotate(-180)"/><polygon class="cls-18" points="17.36 180.209 170.431 180.209 170.431 178.272 93.866 172.272 17.36 178.272 17.36 180.209"/><path class="cls-47" d="M37.484,172.51l-.424,94.34h4.28v2.007H146.46V266.85h4.27V165.957C97.737,159.363,39.481,155.054,37.484,172.51Z"/><g class="cls-13"><path class="cls-9" d="M38.334,173.761l-.425,93.089h3.43v.868h105.12v-.868h3.42V167.207C102.091,161.783,42.85,154.658,38.334,173.761Z"/></g><line class="cls-48" x1="150.733" y1="188.209" x2="37.064" y2="188.209"/><line class="cls-48" x1="150.733" y1="248.635" x2="37.064" y2="248.635"/><rect class="cls-49" x="33.462" y="248.635" width="3.598" height="12.48"/><polygon class="cls-49" points="23.738 260.299 33.462 261.115 33.462 248.635 23.738 249.163 23.738 260.299"/><rect class="cls-18" x="33.462" y="248.635" width="3.598" height="12.48"/><polygon class="cls-18" points="23.738 260.299 33.462 261.115 33.462 248.635 23.738 249.163 23.738 260.299"/><rect class="cls-50" x="46.086" y="191.211" width="95.616" height="54.486" rx="6.034"/><path class="cls-51" d="M70.4,218.636a1.276,1.276,0,0,0,1.27,1.407h7.742l.231-2.258H73.649l.155-1.509H78.9l.231-2.258H74.035l.162-1.57h5.994l.231-2.257h-8a1.276,1.276,0,0,0-1.27,1.146Z"/><path class="cls-51" d="M90.219,212.448l.231-2.257H82.46a1.293,1.293,0,0,0-1.286,1.16l-.745,7.268a1.292,1.292,0,0,0,1.286,1.424H89.44l.231-2.258H83.677l.155-1.509h5.09l.232-2.258H84.063l.162-1.57Z"/><path class="cls-51" d="M102.122,216.276h5.091l.231-2.258h-5.091l.161-1.57h5.994l.232-2.257h-7.991a1.291,1.291,0,0,0-1.284,1.159l-.746,7.27A1.291,1.291,0,0,0,100,220.043h7.725l.231-2.258h-5.994Z"/><path class="cls-51" d="M115.924,216.721a1.547,1.547,0,0,1-.445.567,2.018,2.018,0,0,1-.653.35,2.254,2.254,0,0,1-1.585-.047,1.106,1.106,0,0,1-.5-.475,1.439,1.439,0,0,1-.141-.843l.247-2.406a1.708,1.708,0,0,1,.324-.865,1.67,1.67,0,0,1,.667-.525,2.183,2.183,0,0,1,1.588-.062,1.524,1.524,0,0,1,.548.339,1.124,1.124,0,0,1,.311.513l.121.435h3.156l-.1-.608a3.143,3.143,0,0,0-.757-1.6,4.091,4.091,0,0,0-1.623-1.1,6.911,6.911,0,0,0-4.788.092,4.541,4.541,0,0,0-1.851,1.347,3.668,3.668,0,0,0-.793,1.952l-.247,2.405a3.16,3.16,0,0,0,.4,1.977,3.508,3.508,0,0,0,1.633,1.391,6.14,6.14,0,0,0,2.526.484,6.589,6.589,0,0,0,2.24-.378,5.263,5.263,0,0,0,1.79-1.061,3.988,3.988,0,0,0,1.067-1.567l.252-.686h-3.218Z"/><polygon class="cls-51" points="128.405 210.191 128.009 214.054 124.389 214.054 124.785 210.191 121.623 210.191 120.612 220.043 123.774 220.043 124.158 216.312 127.778 216.312 127.395 220.043 130.557 220.043 131.568 210.191 128.405 210.191"/><path class="cls-34" d="M71.806,205.366,72.1,201.7l-12.764.082,1.363.062-4.2-.191,2.826.263-.035.442-2.842-.026,4.159.586-1.346-.189-.037.464,1.368.048-4.167-.146,2.774.41-.035.44-2.842-.023,4.166.581-1.354-.189-.032.4,1.356.124-4.108-.378,4.079.841-1.351-.278-.042.528,1.378,0-4.213-.01,2.805.375-.038.484,1.372.035-4.167-.107,4.123.57-1.353-.187-.037.466,1.374.043-4.166-.131,2.767.408-.036.447,1.391-.008L56,207.967l2.81.362-.037.463-2.8-.071,2.773.39-.046.57-2.846.113,4.2.295-1.376-.1-.034.433-2.846.169,4.182.294-1.365-.1-.03.375,1.38.058L55.8,211.05l4.123.638-1.361-.21-.041.512-2.8-.043,2.776.362-.034.425,1.387.006-4.213-.019,2.8.38-.038.478,1.379.03-4.167-.09,4.123.568-1.361-.188-.039.489-2.8-.044,4.137.542-1.366-.179-.032.4,1.4.013-4.225-.04,2.8.394-.046.586,1.385-.055-4.227.167,2.817.2-.032.4-2.785-.07,2.761.38-.035.432,1.4.008-4.219-.024,4.16.571-1.367-.188-.039.489,1.376.022-4.173-.065,4.143.542-1.371-.18-.033.412,1.389.007-4.211-.019,2.792.388-.024.295,1.37.073-4.2-.222,4.183.419h2.624l.568-7.129h7.4l.292-3.662h-7.4l.183-2.3a1.725,1.725,0,0,1,1.72-1.588Z"/><path class="cls-34" d="M98.712,201.656l-1.465,18.266h-5.7l1.221-15.257C91.956,205.031,98.712,201.656,98.712,201.656Z"/><path class="cls-52" d="M132.091,201.07s-10.525-4.381-19.991-2.413c-7.113,1.479-13.222,6.477-19.113,9.849-4.431,2.536-7.547,1.246-10.77.587l-.29-4.058c3.573.627,6.336,1.705,10.9-.755,3.622-1.953,13.587-10.08,23.452-10.08C122.6,194.2,132.091,201.07,132.091,201.07Z"/><text class="cls-53" transform="translate(58.285 237.851)">FB5317M - 360</text></g><path class="cls-54" d="M38.054,266.707h2.082a.991.991,0,0,1,.991.991v1.131a0,0,0,0,1,0,0H37.062a0,0,0,0,1,0,0V267.7A.991.991,0,0,1,38.054,266.707Z" transform="translate(78.19 535.536) rotate(180)"/><path class="cls-55" d="M147.658,266.707h2.082a.991.991,0,0,1,.991.991v1.131a0,0,0,0,1,0,0h-4.065a0,0,0,0,1,0,0V267.7A.991.991,0,0,1,147.658,266.707Z" transform="translate(297.399 535.536) rotate(180)"/><line class="cls-48" x1="150.729" y1="263.131" x2="37.059" y2="263.131"/></g><g id="качелька_side" data-name="качелька side"><rect class="cls-56" x="10.397" y="136.476" width="107.717" height="5.953" transform="translate(128.511 278.905) rotate(-180)"/><rect class="cls-56" x="55.363" y="136.476" width="17.784" height="15.198" transform="translate(128.511 288.151) rotate(-180)"/><rect class="cls-57" x="55.363" y="136.476" width="17.784" height="15.198" transform="translate(128.511 288.151) rotate(-180)"/><rect class="cls-58" x="109.955" y="136.476" width="8.158" height="5.953" transform="translate(228.069 278.905) rotate(-180)"/><rect class="cls-59" x="10.397" y="136.476" width="8.158" height="5.953"/><rect class="cls-60" x="55.363" y="136.476" width="17.784" height="5.953"/></g><g id="качелька_side-2" data-name="качелька side"><rect class="cls-56" x="319.984" y="136.476" width="24.094" height="14.885" transform="translate(664.063 287.838) rotate(180)"/><rect class="cls-61" x="319.984" y="140.59" width="24.094" height="10.771" transform="translate(664.063 291.952) rotate(180)"/><rect class="cls-56" x="315.025" y="136.476" width="34.016" height="5.953" transform="translate(664.065 278.905) rotate(180)"/><rect class="cls-62" x="319.984" y="136.476" width="24.094" height="5.953" transform="translate(664.063 278.905) rotate(180)"/></g></svg>