<svg id="servo-scs0009" xmlns="http://www.w3.org/2000/svg" xmlns:xlink="http://www.w3.org/1999/xlink" viewBox="0 0 231.283 151.261"><defs><style>.cls-1{fill:url(#linear-gradient);}.cls-2{fill:url(#linear-gradient-2);}.cls-15,.cls-22,.cls-3,.cls-4,.cls-44,.cls-5{fill:none;}.cls-3{stroke:#231f20;}.cls-3,.cls-4,.cls-5{stroke-linecap:round;stroke-width:2.126px;}.cls-15,.cls-22,.cls-3,.cls-34,.cls-4,.cls-44,.cls-5{stroke-miterlimit:10;}.cls-4{stroke:#404041;}.cls-5{stroke:#eaeae9;}.cls-6{fill:url(#linear-gradient-3);}.cls-7{fill:url(#linear-gradient-4);}.cls-8{fill:url(#linear-gradient-5);}.cls-9{fill:#ccc;}.cls-10{fill:url(#linear-gradient-6);}.cls-11{opacity:0.48;}.cls-12{fill:#4d4d4d;}.cls-13{fill:url(#linear-gradient-7);}.cls-14{fill:url(#linear-gradient-8);}.cls-15{stroke:#000;opacity:0.47;}.cls-15,.cls-34,.cls-44{stroke-width:0.283px;}.cls-16{fill:#e6e7e8;}.cls-17{fill:url(#linear-gradient-9);}.cls-18{fill:url(#linear-gradient-10);}.cls-19{fill:url(#linear-gradient-11);}.cls-20{fill:url(#linear-gradient-12);}.cls-21{fill:url(#linear-gradient-13);}.cls-22{stroke:#070707;stroke-opacity:0.37;stroke-width:0.567px;}.cls-23{fill:url(#linear-gradient-14);}.cls-24{fill:url(#linear-gradient-15);}.cls-25{fill:url(#linear-gradient-16);}.cls-26{fill:url(#linear-gradient-17);}.cls-27,.cls-29{opacity:0.8;}.cls-28{fill:#f2f2f2;}.cls-29{fill:#020202;}.cls-30{font-size:11px;font-family:MyriadPro-Regular, Myriad Pro;}.cls-30,.cls-34{fill:#f7e831;}.cls-31{fill:url(#linear-gradient-18);}.cls-32{fill:url(#linear-gradient-19);}.cls-33{fill:red;}.cls-34{stroke:red;}.cls-35{fill:#121212;}.cls-36{fill:#1a1a1a;}.cls-37{fill:#333;}.cls-38{fill:url(#radial-gradient);}.cls-39{fill:url(#radial-gradient-2);}.cls-40{fill:url(#radial-gradient-3);}.cls-41{fill:url(#radial-gradient-4);}.cls-42{fill:#b3b3b3;}.cls-43{fill:url(#linear-gradient-20);}.cls-44{stroke:#929497;}.cls-45{fill:#bbbdbf;opacity:0.43;}</style><linearGradient id="linear-gradient" x1="228.828" y1="149.985" x2="231.279" y2="149.985" gradientUnits="userSpaceOnUse"><stop offset="0" stop-color="#6d6e70"/><stop offset="0.716" stop-color="#a4a6a8"/><stop offset="1" stop-color="#bbbdbf"/></linearGradient><linearGradient id="linear-gradient-2" x1="197.269" y1="149.985" x2="199.72" y2="149.985" xlink:href="#linear-gradient"/><linearGradient id="linear-gradient-3" x1="197.267" y1="84.253" x2="231.283" y2="84.253" gradientUnits="userSpaceOnUse"><stop offset="0" stop-color="#1a1a1a"/><stop offset="0.135" stop-color="#2c2c2c"/><stop offset="0.356" stop-color="#444"/><stop offset="0.492" stop-color="#4d4d4d"/><stop offset="0.596" stop-color="#444" stop-opacity="0.988"/><stop offset="0.767" stop-color="#2b2b2b" stop-opacity="0.956"/><stop offset="0.983" stop-color="#040404" stop-opacity="0.905"/><stop offset="1" stop-opacity="0.9"/></linearGradient><linearGradient id="linear-gradient-4" x1="209.204" y1="84.253" x2="219.346" y2="84.253" gradientUnits="userSpaceOnUse"><stop offset="0" stop-color="#1a1a1a"/><stop offset="0.127" stop-color="#202020"/><stop offset="0.294" stop-color="#303030"/><stop offset="0.481" stop-color="#4b4b4b"/><stop offset="0.492" stop-color="#4d4d4d"/><stop offset="0.543" stop-color="#424242" stop-opacity="0.986"/><stop offset="0.739" stop-color="#1e1e1e" stop-opacity="0.939"/><stop offset="0.898" stop-color="#080808" stop-opacity="0.911"/><stop offset="1" stop-opacity="0.9"/></linearGradient><linearGradient id="linear-gradient-5" x1="209.173" y1="74.969" x2="219.378" y2="74.969" gradientUnits="userSpaceOnUse"><stop offset="0" stop-color="#999"/><stop offset="0.539" stop-color="#939598"/><stop offset="0.656" stop-color="#a0a1a3"/><stop offset="0.842" stop-color="#aeaeaf"/><stop offset="1" stop-color="#b3b3b3"/></linearGradient><linearGradient id="linear-gradient-6" x1="197.269" y1="120.204" x2="231.279" y2="120.204" gradientUnits="userSpaceOnUse"><stop offset="0" stop-color="#1a1a1a"/><stop offset="1" stop-color="#333"/></linearGradient><linearGradient id="linear-gradient-7" x1="198.685" y1="101.408" x2="229.866" y2="101.408" xlink:href="#linear-gradient-6"/><linearGradient id="linear-gradient-8" x1="2951.88" y1="101.408" x2="2957.931" y2="101.408" gradientTransform="matrix(1, 0, 0, -1, -2753.195, 202.816)" gradientUnits="userSpaceOnUse"><stop offset="0" stop-color="#1a1a1a" stop-opacity="0"/><stop offset="1" stop-color="#333"/></linearGradient><linearGradient id="linear-gradient-9" x1="203.815" y1="101.408" x2="209.865" y2="101.408" gradientTransform="translate(20.001)" gradientUnits="userSpaceOnUse"><stop offset="0" stop-color="#1a1a1a" stop-opacity="0"/><stop offset="0.344" stop-color="#1b1b1b" stop-opacity="0.056"/><stop offset="0.586" stop-color="#202020" stop-opacity="0.236"/><stop offset="0.796" stop-color="#272727" stop-opacity="0.539"/><stop offset="0.987" stop-color="#323232" stop-opacity="0.966"/><stop offset="1" stop-color="#333"/></linearGradient><linearGradient id="linear-gradient-10" x1="214.279" y1="91.67" x2="214.279" y2="89.143" gradientUnits="userSpaceOnUse"><stop offset="0" stop-color="#4d4d4d" stop-opacity="0.5"/><stop offset="0.128" stop-color="#989898" stop-opacity="0.288"/><stop offset="0.295" stop-color="#d3d3d3" stop-opacity="0.123"/><stop offset="0.515" stop-color="#f5f5f5" stop-opacity="0.028"/><stop offset="0.997" stop-color="#fff" stop-opacity="0"/></linearGradient><linearGradient id="linear-gradient-11" x1="94.57" y1="149.976" x2="99.329" y2="149.976" xlink:href="#linear-gradient"/><linearGradient id="linear-gradient-12" x1="33.281" y1="149.976" x2="38.04" y2="149.976" xlink:href="#linear-gradient"/><linearGradient id="linear-gradient-13" x1="20.248" y1="101.048" x2="112.374" y2="101.048" xlink:href="#linear-gradient-6"/><linearGradient id="linear-gradient-14" x1="33.283" y1="84.749" x2="64.843" y2="84.749" gradientUnits="userSpaceOnUse"><stop offset="0" stop-color="#2e2e2e"/><stop offset="0.096" stop-color="#252525"/><stop offset="0.433" stop-color="#0a0a0a"/><stop offset="0.631"/><stop offset="1" stop-opacity="0.9"/></linearGradient><linearGradient id="linear-gradient-15" x1="64.843" y1="84.749" x2="74.914" y2="84.749" gradientUnits="userSpaceOnUse"><stop offset="0" stop-opacity="0.9"/><stop offset="0.369"/><stop offset="0.567" stop-color="#0a0a0a"/><stop offset="0.904" stop-color="#252525"/><stop offset="1" stop-color="#2e2e2e"/></linearGradient><linearGradient id="linear-gradient-16" x1="43.962" y1="74.969" x2="54.166" y2="74.969" xlink:href="#linear-gradient-5"/><linearGradient id="linear-gradient-17" x1="33.282" y1="120.536" x2="99.329" y2="120.536" xlink:href="#linear-gradient-6"/><linearGradient id="linear-gradient-18" x1="40.303" y1="69.9" x2="45.073" y2="69.9" gradientUnits="userSpaceOnUse"><stop offset="0" stop-color="#fff" stop-opacity="0.3"/><stop offset="0.05" stop-color="#fafbfb" stop-opacity="0.429"/><stop offset="0.121" stop-color="#f5f5f6" stop-opacity="0.581"/><stop offset="0.199" stop-color="#f0f1f1" stop-opacity="0.712"/><stop offset="0.286" stop-color="#ecedee" stop-opacity="0.818"/><stop offset="0.385" stop-color="#eaeaeb" stop-opacity="0.9"/><stop offset="0.503" stop-color="#e8e8e9" stop-opacity="0.957"/><stop offset="0.659" stop-color="#e6e7e8" stop-opacity="0.99"/><stop offset="1" stop-color="#e6e7e8"/></linearGradient><linearGradient id="linear-gradient-19" x1="2809.36" y1="72.295" x2="2814.13" y2="72.295" gradientTransform="matrix(1, 0, 0, -1, -2754.835, 144.589)" xlink:href="#linear-gradient-18"/><radialGradient id="radial-gradient" cx="50.865" cy="17.008" r="7.795" gradientUnits="userSpaceOnUse"><stop offset="0" stop-color="#4d4d4d"/><stop offset="0.512" stop-color="#4b4b4b"/><stop offset="0.698" stop-color="#444"/><stop offset="0.831" stop-color="#383838"/><stop offset="0.939" stop-color="#282828"/><stop offset="1" stop-color="#1a1a1a"/></radialGradient><radialGradient id="radial-gradient-2" cx="65.35" cy="17.007" r="1.417" gradientUnits="userSpaceOnUse"><stop offset="0" stop-color="#1a1a1a"/><stop offset="1" stop-color="#4d4d4d"/></radialGradient><radialGradient id="radial-gradient-3" cx="-504.847" cy="-600.669" r="9.343" gradientTransform="translate(410.826 445.292) scale(0.713 0.713)" gradientUnits="userSpaceOnUse"><stop offset="0" stop-color="#3b3b3b"/><stop offset="0.008" stop-color="#3d3d3d"/><stop offset="0.198" stop-color="#747474"/><stop offset="0.384" stop-color="#a1a1a1"/><stop offset="0.562" stop-color="#c4c4c4"/><stop offset="0.728" stop-color="#ddd"/><stop offset="0.878" stop-color="#ededed"/><stop offset="1" stop-color="#f2f2f2"/></radialGradient><radialGradient id="radial-gradient-4" cx="-504.845" cy="-600.669" r="8.553" gradientTransform="translate(410.826 445.292) scale(0.713 0.713)" gradientUnits="userSpaceOnUse"><stop offset="0" stop-color="#a1a1a1"/><stop offset="0.069" stop-color="#ababab"/><stop offset="0.301" stop-color="#c7c7c7"/><stop offset="0.535" stop-color="#dbdbdb"/><stop offset="0.768" stop-color="#e7e7e7"/><stop offset="1" stop-color="#ebebeb"/></radialGradient><linearGradient id="linear-gradient-20" x1="78.163" y1="17.008" x2="98.1" y2="17.008" gradientUnits="userSpaceOnUse"><stop offset="0.003" stop-color="#231f20" stop-opacity="0"/><stop offset="1" stop-opacity="0.5"/></linearGradient></defs><g id="side"><path class="cls-1" d="M228.828,148.71h2.451a0,0,0,0,1,0,0v1.63a.921.921,0,0,1-.921.921h-.608a.921.921,0,0,1-.921-.921v-1.63A0,0,0,0,1,228.828,148.71Z"/><path class="cls-2" d="M197.269,148.71h2.451a0,0,0,0,1,0,0v1.63a.921.921,0,0,1-.921.921h-.608a.921.921,0,0,1-.921-.921v-1.63A0,0,0,0,1,197.269,148.71Z"/><g id="шнуры"><polyline class="cls-3" points="166.907 142.996 170.223 142.996 203.292 142.996"/><polyline class="cls-4" points="166.907 144.996 170.223 144.996 203.292 144.996"/><polyline class="cls-5" points="166.907 146.996 169.991 146.996 203.292 146.996"/></g><rect class="cls-6" x="197.267" y="79.363" width="34.016" height="9.78"/><rect class="cls-7" x="209.204" y="79.363" width="10.143" height="9.78"/><rect class="cls-8" x="209.173" y="70.859" width="10.204" height="8.22"/><rect class="cls-9" x="209.174" y="70.859" width="0.307" height="8.22"/><rect class="cls-9" x="209.792" y="70.859" width="0.307" height="8.22"/><rect class="cls-9" x="210.411" y="70.859" width="0.307" height="8.22"/><rect class="cls-9" x="211.029" y="70.859" width="0.307" height="8.22"/><rect class="cls-9" x="211.648" y="70.859" width="0.307" height="8.22"/><rect class="cls-9" x="212.267" y="70.859" width="0.307" height="8.22"/><rect class="cls-9" x="212.885" y="70.859" width="0.307" height="8.22"/><rect class="cls-9" x="213.504" y="70.859" width="0.307" height="8.22"/><rect class="cls-9" x="214.122" y="70.859" width="0.307" height="8.22"/><rect class="cls-9" x="214.741" y="70.859" width="0.307" height="8.22"/><rect class="cls-9" x="215.36" y="70.859" width="0.307" height="8.22"/><rect class="cls-9" x="215.978" y="70.859" width="0.307" height="8.22"/><rect class="cls-9" x="216.597" y="70.859" width="0.307" height="8.22"/><rect class="cls-9" x="217.215" y="70.859" width="0.307" height="8.22"/><rect class="cls-9" x="217.834" y="70.859" width="0.307" height="8.22"/><rect class="cls-9" x="218.453" y="70.859" width="0.307" height="8.22"/><rect class="cls-9" x="219.071" y="70.859" width="0.307" height="8.22"/><polygon class="cls-10" points="231.279 89.146 231.279 148.706 228.371 148.706 228.371 151.261 200.147 151.261 200.147 148.706 197.269 148.706 197.269 89.146 231.279 89.146"/><g class="cls-11"><polygon class="cls-12" points="230.719 91.67 230.719 148.706 228.371 148.706 228.371 150.494 200.171 150.494 200.171 148.706 197.839 148.706 197.839 91.67 230.719 91.67"/></g><rect class="cls-13" x="198.685" y="99.14" width="31.181" height="4.535"/><rect class="cls-14" x="198.685" y="99.14" width="6.05" height="4.535" transform="translate(403.421 202.816) rotate(-180)"/><line class="cls-15" x1="197.267" y1="134.932" x2="231.283" y2="134.932"/><rect class="cls-16" x="202.936" y="63.011" width="22.677" height="13.107" transform="translate(428.549 139.129) rotate(180)"/><rect class="cls-17" x="223.816" y="99.14" width="6.05" height="4.535"/><path class="cls-12" d="M208.558,79.08h11.118a.2.2,0,0,1,.2.2v.085a0,0,0,0,1,0,0h-11.6a0,0,0,0,1,0,0v0a.283.283,0,0,1,.283-.283Z"/><g class="cls-11"><rect class="cls-18" x="197.839" y="89.143" width="32.88" height="2.527"/></g></g><g id="side-2" data-name="side"><g id="шнуры-2" data-name="шнуры"><polyline class="cls-3" points="1.063 142.996 3.999 142.996 33.281 142.996"/><polyline class="cls-4" points="1.063 144.996 3.999 144.996 33.281 144.996"/><polyline class="cls-5" points="1.063 146.996 3.793 146.996 33.281 146.996"/></g><path class="cls-19" d="M94.57,148.7h4.76a0,0,0,0,1,0,0v1.276a1.276,1.276,0,0,1-1.276,1.276H95.845a1.276,1.276,0,0,1-1.276-1.276V148.7A0,0,0,0,1,94.57,148.7Z"/><path class="cls-20" d="M33.281,148.7h4.76a0,0,0,0,1,0,0v1.276a1.276,1.276,0,0,1-1.276,1.276H34.556a1.276,1.276,0,0,1-1.276-1.276V148.7A0,0,0,0,1,33.281,148.7Z"/><rect class="cls-21" x="20.248" y="98.78" width="92.126" height="4.535"/><line class="cls-22" x1="64.843" y1="79.363" x2="64.843" y2="90.135"/><rect class="cls-23" x="33.283" y="79.363" width="31.56" height="10.772"/><rect class="cls-24" x="64.843" y="79.363" width="10.071" height="10.772"/><rect class="cls-25" x="43.962" y="70.859" width="10.204" height="8.22"/><rect class="cls-9" x="43.962" y="70.859" width="0.307" height="8.22"/><rect class="cls-9" x="44.581" y="70.859" width="0.307" height="8.22"/><rect class="cls-9" x="45.199" y="70.859" width="0.307" height="8.22"/><rect class="cls-9" x="45.818" y="70.859" width="0.307" height="8.22"/><rect class="cls-9" x="46.436" y="70.859" width="0.307" height="8.22"/><rect class="cls-9" x="47.055" y="70.859" width="0.307" height="8.22"/><rect class="cls-9" x="47.674" y="70.859" width="0.307" height="8.22"/><rect class="cls-9" x="48.292" y="70.859" width="0.307" height="8.22"/><rect class="cls-9" x="48.911" y="70.859" width="0.307" height="8.22"/><rect class="cls-9" x="49.529" y="70.859" width="0.307" height="8.22"/><rect class="cls-9" x="50.148" y="70.859" width="0.307" height="8.22"/><rect class="cls-9" x="50.766" y="70.859" width="0.307" height="8.22"/><rect class="cls-9" x="51.385" y="70.859" width="0.307" height="8.22"/><rect class="cls-9" x="52.004" y="70.859" width="0.307" height="8.22"/><rect class="cls-9" x="52.622" y="70.859" width="0.307" height="8.22"/><rect class="cls-9" x="53.241" y="70.859" width="0.307" height="8.22"/><rect class="cls-9" x="53.859" y="70.859" width="0.307" height="8.22"/><path class="cls-12" d="M43.547,79.08H54.665a.2.2,0,0,1,.2.2v.085a0,0,0,0,1,0,0h-11.6a0,0,0,0,1,0,0v0A.283.283,0,0,1,43.547,79.08Z"/><path class="cls-26" d="M79.49,90.136H33.282V148.7H38.6v2.24H94.009V148.7h5.32V91.776Z"/><g class="cls-11"><polygon class="cls-12" points="98.01 91.776 98.01 148.696 94.01 148.696 94.01 149.976 38.6 149.976 38.6 148.696 34.61 148.696 34.61 91.416 79.49 91.416 98.01 91.776"/></g><g class="cls-27"><path class="cls-28" d="M38.539,100.525H94.084a1.938,1.938,0,0,1,1.938,1.938V132.6a1.938,1.938,0,0,1-1.938,1.938H38.535A1.938,1.938,0,0,1,36.6,132.6V102.466A1.941,1.941,0,0,1,38.539,100.525Z"/></g><path class="cls-29" d="M38.57,100.556H94.116a1.938,1.938,0,0,1,1.938,1.938v30.141a1.938,1.938,0,0,1-1.938,1.938H38.567a1.938,1.938,0,0,1-1.938-1.938V102.5A1.941,1.941,0,0,1,38.57,100.556Z"/><text class="cls-30" transform="translate(43.789 129.066) scale(1.127 1)">SCS0009</text><g class="cls-11"><g class="cls-11"><rect class="cls-12" x="64.844" y="80.78" width="10.071" height="9.354"/></g><g class="cls-11"><rect class="cls-12" x="33.284" y="79.363" width="31.56" height="10.772"/></g></g><g id="крутилка_side" data-name="крутилка side"><polygon class="cls-16" points="110.171 63.522 62.98 63.522 40.303 63.522 40.303 68.341 40.303 76.278 59.295 76.278 59.295 68.341 110.171 68.341 110.171 63.522"/><rect class="cls-31" x="40.303" y="63.522" width="4.77" height="12.756"/><rect class="cls-32" x="54.525" y="68.311" width="4.77" height="7.966" transform="translate(113.82 144.589) rotate(-180)"/></g><path d="M52.567,116.651a.8.8,0,0,0,.8.882h4.852l.146-1.416H54.6l.1-.946h3.191l.145-1.415H54.846l.1-.984H58.7l.145-1.415H53.832a.8.8,0,0,0-.8.719Z"/><path d="M64.99,112.772l.144-1.415H60.126a.811.811,0,0,0-.806.728l-.467,4.555a.81.81,0,0,0,.806.893H64.5l.145-1.416H60.889l.1-.946h3.191l.145-1.415H61.131l.1-.984Z"/><path d="M72.451,115.171h3.191l.144-1.415H72.6l.1-.984h3.757l.145-1.415H71.59a.809.809,0,0,0-.805.727l-.467,4.557a.809.809,0,0,0,.805.892h4.842l.145-1.416H72.353Z"/><path d="M81.1,115.45a.961.961,0,0,1-.279.355,1.245,1.245,0,0,1-.409.22,1.4,1.4,0,0,1-.994-.03.685.685,0,0,1-.314-.3.9.9,0,0,1-.089-.528l.155-1.509a1.075,1.075,0,0,1,.2-.542,1.048,1.048,0,0,1,.418-.329,1.371,1.371,0,0,1,1-.039.96.96,0,0,1,.343.212.708.708,0,0,1,.195.322l.076.273h1.978l-.061-.381a1.968,1.968,0,0,0-.475-1,2.557,2.557,0,0,0-1.017-.69,4.335,4.335,0,0,0-3,.057,2.857,2.857,0,0,0-1.16.845,2.3,2.3,0,0,0-.5,1.223l-.155,1.508a1.984,1.984,0,0,0,.251,1.239,2.2,2.2,0,0,0,1.024.872,3.85,3.85,0,0,0,1.583.3,4.111,4.111,0,0,0,1.4-.238,3.286,3.286,0,0,0,1.122-.665,2.49,2.49,0,0,0,.669-.982l.158-.43H81.208Z"/><polygon points="88.925 111.357 88.677 113.779 86.408 113.779 86.656 111.357 84.674 111.357 84.04 117.533 86.023 117.533 86.263 115.194 88.532 115.194 88.292 117.533 90.274 117.533 90.908 111.357 88.925 111.357"/><path class="cls-33" d="M53.448,108.333l.183-2.3-8,.051.854.039-2.633-.12,1.772.165-.022.277-1.781-.016,2.607.367-.844-.119-.023.292.858.03-2.613-.092,1.739.257-.022.276-1.781-.014,2.611.364-.848-.119-.02.251.85.079-2.576-.237,2.557.527-.847-.175-.026.331.864,0-2.641-.006,1.758.235-.024.3.86.022-2.612-.067,2.584.357-.847-.117-.024.292.862.027-2.612-.082,1.734.256-.022.28.872-.005-2.652.015,1.761.227-.023.29-1.754-.044,1.738.244-.028.357-1.784.071,2.631.185-.863-.06-.021.271-1.784.106,2.621.184-.856-.06-.018.235.865.036-2.612-.11,2.584.4-.853-.132-.025.321-1.757-.027,1.741.227-.022.266.87,0-2.641-.012,1.753.238-.024.3.865.019-2.612-.057,2.584.356-.853-.118-.024.307-1.753-.028,2.593.34-.856-.112-.02.253.876.008-2.648-.025,1.753.247-.029.367.868-.034-2.649.1,1.766.124-.02.25-1.746-.044,1.73.238-.021.271.875.005-2.644-.015,2.607.358-.857-.118-.024.307.862.013-2.615-.041,2.6.34-.86-.113-.021.259.871,0L43,116.935l1.75.243-.015.185.858.046-2.631-.139,2.622.263h1.645l.356-4.469h4.64l.183-2.3h-4.64l.115-1.44a1.08,1.08,0,0,1,1.078-1Z"/><path class="cls-33" d="M70.313,106.007,69.4,117.456H65.823l.765-9.563C66.078,108.123,70.313,106.007,70.313,106.007Z"/><path class="cls-34" d="M91.236,105.64s-6.6-2.746-12.531-1.512c-4.458.926-8.287,4.059-11.98,6.173-2.778,1.589-4.731.781-6.751.368l-.182-2.544c2.239.393,3.972,1.069,6.83-.473,2.27-1.224,8.517-6.318,14.7-6.318C85.288,101.334,91.236,105.64,91.236,105.64Z"/></g><g id="top"><g id="шнуры-3" data-name="шнуры"><polyline class="cls-3" points="1.063 14.988 3.751 14.988 30.563 14.988"/><polyline class="cls-4" points="1.063 16.988 3.751 16.988 30.563 16.988"/><polyline class="cls-5" points="1.063 18.988 3.563 18.988 30.563 18.988"/></g><path class="cls-35" d="M20.239,1.408V32.6h92.12V1.408Zm5.67,18.43A2.835,2.835,0,1,1,28.739,17,2.838,2.838,0,0,1,25.909,19.838Zm80.78,0a2.835,2.835,0,1,1,2.84-2.84A2.836,2.836,0,0,1,106.689,19.838Z"/><rect class="cls-36" x="33.286" width="66.047" height="34.016"/><path id="path5572-2" class="cls-37" d="M50.864,33.449A16.441,16.441,0,1,1,67.305,17.006,16.441,16.441,0,0,1,50.864,33.449h0"/><path id="path5576-2" class="cls-37" d="M68.437,24.8a7.8,7.8,0,1,1,7.8-7.8,7.8,7.8,0,0,1-7.8,7.8"/><path id="path5576-2-2" data-name="path5576-2" class="cls-38" d="M50.866,24.8a7.8,7.8,0,1,1,7.8-7.8,7.8,7.8,0,0,1-7.8,7.8"/><path class="cls-39" d="M66.768,17.007a1.444,1.444,0,0,1-.013.187,1.414,1.414,0,1,1,0-.373A1.614,1.614,0,0,1,66.768,17.007Z"/><path class="cls-40" d="M50.864,23.669c-.133,0-.256-.265-.387-.272s-.287.24-.417.224-.222-.294-.351-.317-.314.2-.442.172-.184-.319-.31-.358-.335.164-.458.118-.144-.339-.264-.393-.353.122-.469.061-.1-.353-.214-.421-.365.079-.473,0-.059-.363-.162-.444-.372.034-.47-.053-.015-.367-.108-.46-.373-.01-.461-.108.03-.367-.052-.47-.369-.054-.444-.163.073-.36.005-.472-.36-.1-.422-.215.116-.349.062-.469-.346-.141-.392-.264.157-.332.118-.457-.326-.182-.358-.31.2-.31.173-.44-.3-.219-.317-.35.232-.285.224-.417-.273-.255-.273-.387.265-.256.273-.387-.24-.287-.224-.417.293-.222.317-.351-.2-.314-.172-.441.318-.185.357-.311-.164-.335-.117-.458.338-.144.393-.264-.123-.353-.062-.469.354-.1.422-.214-.079-.365,0-.473.363-.059.444-.162-.035-.372.052-.47.368-.015.461-.108.01-.373.108-.461.366.03.47-.052.054-.369.162-.444.36.073.473.005.1-.36.215-.421.348.115.468.061.141-.345.264-.392.332.157.458.118.181-.326.309-.358.311.2.441.173.219-.3.35-.317.284.232.417.224.254-.273.387-.273.256.265.386.273.287-.24.417-.224.223.293.352.317.314-.2.441-.172.185.318.31.357.336-.164.458-.117.145.339.264.393.353-.123.469-.062.1.354.215.422.365-.079.473,0,.059.363.162.444.372-.035.47.052.015.368.108.461.373.01.46.108-.029.366.052.47.369.054.444.162-.073.36,0,.473.36.1.421.215-.116.348-.061.468.345.141.392.264-.157.332-.118.458.326.181.357.309-.2.311-.172.441.3.219.317.35-.233.284-.225.417.273.254.273.387-.265.256-.273.386.241.287.225.417-.294.223-.317.352.2.314.172.441-.319.185-.358.31.164.336.118.458-.339.145-.393.264.122.353.061.47-.353.1-.421.214.079.365,0,.473-.363.059-.444.162.034.372-.053.47-.367.015-.46.108-.01.373-.108.46-.367-.029-.47.052-.054.369-.163.444-.36-.073-.472,0-.1.36-.215.421-.349-.116-.469-.061-.141.345-.264.392-.332-.157-.457-.118-.182.326-.31.357-.31-.2-.44-.172-.219.3-.35.317-.285-.232-.417-.225S51,23.669,50.864,23.669Z"/><path class="cls-41" d="M50.865,23.107a6.1,6.1,0,1,1,6.1-6.1A6.106,6.106,0,0,1,50.865,23.107Z"/><path class="cls-9" d="M50.864,18.858a1.851,1.851,0,1,1,1.851-1.85A1.852,1.852,0,0,1,50.864,18.858Z"/><path class="cls-42" d="M50.865,18.488a1.48,1.48,0,1,1,1.481-1.48A1.482,1.482,0,0,1,50.865,18.488Z"/><g class="cls-11"><rect class="cls-43" x="78.163" y="1.492" width="19.937" height="31.032" rx="1.645"/></g></g><g id="крутилка_top" data-name="крутилка top"><path class="cls-44" d="M57.9,17c0-.15-.29-.28-.3-.42s.26-.31.24-.45-.31-.24-.34-.37.22-.34.19-.48-.34-.2-.39-.33.18-.36.13-.49-.36-.16-.42-.28.13-.38.07-.51-.38-.11-.46-.23.09-.39.01-.51-.39-.06-.48-.17.04-.4-.05-.51-.4-.01-.5-.11-.01-.4-.11-.5-.4.03-.51-.05-.06-.4-.17-.48-.39.08-.51,0-.11-.38-.23-.45-.38.13-.51.07-.15-.37-.28-.42-.36.16-.49.12-.2-.35-.34-.38-.33.21-.47.18-.24-.32-.38-.34a.014.014,0,0,0-.02,0c-.13,0-.29.25-.42.24s-.27-.28-.41-.29a.127.127,0,0,0-.06.01c-.13.06-.25.27-.37.28s-.25-.18-.37-.23a.2.2,0,0,0-.07-.01.086.086,0,0,0-.06.03c-.11.07-.2.29-.32.31s-.29-.16-.41-.17a.047.047,0,0,0-.06-.01c-.02.01-.05.02-.06.04-.1.09-.16.31-.28.34-.1.03-.27-.1-.4-.13a.139.139,0,0,0-.09,0,.09.09,0,0,0-.06.06c-.08.11-.12.32-.22.37s-.29-.07-.41-.09a.2.2,0,0,0-.09.02.138.138,0,0,0-.03.04c-.01.01-.01.01-.02.01-.08.11-.08.34-.18.4s-.29-.02-.42-.02h-.01c-.04,0-.06,0-.08.02a.158.158,0,0,0-.05.08c-.06.12-.04.33-.13.39s-.27.01-.4.02a.232.232,0,0,0-.1.04.16.16,0,0,0-.05.1c-.03.13.01.31-.07.39s-.25.04-.38.07h-.01a.16.16,0,0,0-.1.05.182.182,0,0,0-.04.11c-.01.13.05.31-.02.4s-.26.07-.38.11a.144.144,0,0,0-.1.06.164.164,0,0,0-.02.1c0,.14.08.32.03.41s-.26.1-.37.17a.1.1,0,0,0-.08.06.184.184,0,0,0-.01.13c.03.12.11.28.07.37s-.22.13-.33.19a.213.213,0,0,0-.09.1.2.2,0,0,0,.01.13v.01c.05.12.15.25.12.35s-.2.15-.3.23a.213.213,0,0,0-.09.1.167.167,0,0,0,.03.13c-.01,0-.01,0,0,.01.06.11.17.23.16.33s-.16.17-.26.26a.164.164,0,0,0-.08.12.147.147,0,0,0,.04.12v.01c.07.11.21.22.2.32s-.15.19-.23.29a.147.147,0,0,0,0,.25c.08.1.22.19.23.29s-.13.22-.2.33a.147.147,0,0,0-.04.12.164.164,0,0,0,.08.12c.1.09.24.17.26.26s-.1.21-.16.33a.254.254,0,0,0-.03.14.208.208,0,0,0,.1.11c.1.07.26.13.29.22s-.07.23-.12.35a.174.174,0,0,0-.01.14c.01.04.05.06.09.09.11.06.29.11.33.2s-.04.24-.07.37a.193.193,0,0,0,0,.13.218.218,0,0,0,.09.07h.01c.12.05.3.07.36.16s-.03.27-.03.4a.2.2,0,0,0,.02.11.168.168,0,0,0,.11.06c.12.03.3.03.37.11s.02.25.02.38v.01a.156.156,0,0,0,.03.12.125.125,0,0,0,.11.04h.01c.13.03.31,0,.38.07s.04.25.06.38a.22.22,0,0,0,.05.12.159.159,0,0,0,.12.04c.13,0,.31-.05.39.01s.08.26.11.38v.01a.2.2,0,0,0,.06.09.149.149,0,0,0,.09.02c.14,0,.33-.08.42-.02s.11.28.18.39a.1.1,0,0,0,.05.06.164.164,0,0,0,.1.01c.13-.01.31-.12.41-.08s.13.26.22.37a.09.09,0,0,0,.06.06.139.139,0,0,0,.09,0c.13-.03.3-.16.4-.13.12.03.18.25.28.34.01.02.04.03.06.04a.047.047,0,0,0,.06-.01c.12-.01.29-.2.41-.17s.21.24.32.31a.086.086,0,0,0,.06.03.2.2,0,0,0,.07-.01c.12-.05.25-.24.37-.23s.24.22.37.28a.127.127,0,0,0,.06.01c.14-.01.27-.28.41-.29s.29.24.42.24a.014.014,0,0,0,.02,0c.14-.02.24-.32.38-.34s.34.22.47.18.2-.34.34-.38.36.18.49.13.15-.37.28-.42.38.13.5.06.11-.38.23-.45.4.08.51,0,.07-.39.18-.47.4.03.5-.06.02-.39.12-.49.4-.01.49-.12-.03-.39.06-.5.4-.06.48-.18-.08-.39-.01-.51.39-.1.45-.23-.12-.37-.06-.5.37-.15.42-.28-.17-.36-.13-.5.35-.19.39-.33-.21-.33-.19-.47.33-.24.34-.38-.25-.31-.24-.45S57.9,17.138,57.9,17Zm-6.77,3.8a1.829,1.829,0,0,1-.33.02c-.13,0-.26-.01-.39-.02s-.24-.03-.36-.05a3.829,3.829,0,0,1,0-7.51c.12-.02.24-.04.36-.05s.26-.02.39-.02a1.829,1.829,0,0,1,.33.02,3.824,3.824,0,0,1,0,7.61Z"/><path class="cls-16" d="M54.079,10.671s-.006-.01-.01-.013-.011,0-.016,0a6.935,6.935,0,0,0-.762-.337s-.007-.01-.012-.012-.015,0-.022,0a7.116,7.116,0,0,0-.808-.261,4.729,4.729,0,0,0-.85-.16.014.014,0,0,0-.02,0,5.028,5.028,0,0,0-.78-.05h-.05a.127.127,0,0,0-.06.01,3.636,3.636,0,0,0-.74.05.2.2,0,0,0-.07-.01.086.086,0,0,0-.06.03,3.621,3.621,0,0,0-.73.14.047.047,0,0,0-.06-.01c-.02.01-.05.02-.06.04a4.109,4.109,0,0,0-.68.21.139.139,0,0,0-.09,0,.09.09,0,0,0-.06.06,4.465,4.465,0,0,0-.63.28.2.2,0,0,0-.09.02.138.138,0,0,0-.03.04c-.01.01-.01.01-.02.01a6.1,6.1,0,0,0-.6.38h-.01c-.04,0-.06,0-.08.02a.158.158,0,0,0-.05.08,4.168,4.168,0,0,0-.53.41.232.232,0,0,0-.1.04.16.16,0,0,0-.05.1,3.9,3.9,0,0,0-.45.46h-.01a.16.16,0,0,0-.1.05.182.182,0,0,0-.04.11,4.992,4.992,0,0,0-.4.51.144.144,0,0,0-.1.06.164.164,0,0,0-.02.1c-.12.19-.23.38-.34.58a.1.1,0,0,0-.08.06.184.184,0,0,0-.01.13,4.05,4.05,0,0,0-.26.56.213.213,0,0,0-.09.1.2.2,0,0,0,.01.13v.01a2.994,2.994,0,0,0-.18.58.213.213,0,0,0-.09.1.167.167,0,0,0,.03.13c-.01,0-.01,0,0,.01a2.911,2.911,0,0,0-.1.59.164.164,0,0,0-.08.12.147.147,0,0,0,.04.12v.01a4.088,4.088,0,0,0-.03.61.147.147,0,0,0,0,.25,4.223,4.223,0,0,0,.03.62.147.147,0,0,0-.04.12.164.164,0,0,0,.08.12,3.826,3.826,0,0,0,.1.59.254.254,0,0,0-.03.14.208.208,0,0,0,.1.11,3.737,3.737,0,0,0,.17.57.174.174,0,0,0-.01.14c.01.04.05.06.09.09a3.682,3.682,0,0,0,.26.57.193.193,0,0,0,0,.13.218.218,0,0,0,.09.07h.01c.1.2.22.38.33.56a.2.2,0,0,0,.02.11.168.168,0,0,0,.11.06,3.49,3.49,0,0,0,.39.49v.01a.156.156,0,0,0,.03.12.125.125,0,0,0,.11.04h.01a2.681,2.681,0,0,0,.44.45.22.22,0,0,0,.05.12.159.159,0,0,0,.12.04,4.78,4.78,0,0,0,.5.39v.01a.2.2,0,0,0,.06.09.149.149,0,0,0,.09.02,6.023,6.023,0,0,0,.6.37.1.1,0,0,0,.05.06.164.164,0,0,0,.1.01,4.508,4.508,0,0,0,.63.29.09.09,0,0,0,.06.06.139.139,0,0,0,.09,0,4.109,4.109,0,0,0,.68.21c.01.02.04.03.06.04a.047.047,0,0,0,.06-.01,3.621,3.621,0,0,0,.73.14.086.086,0,0,0,.06.03.2.2,0,0,0,.07-.01,3.636,3.636,0,0,0,.74.05.127.127,0,0,0,.06.01h.05a5.028,5.028,0,0,0,.78-.05.014.014,0,0,0,.02,0,7.125,7.125,0,0,0,2.48-13.427ZM51.129,20.8a1.829,1.829,0,0,1-.33.02c-.13,0-.26-.01-.39-.02s-.24-.03-.36-.05a3.815,3.815,0,0,1,0-7.51c.12-.02.24-.04.36-.05s.26-.02.39-.02a1.829,1.829,0,0,1,.33.02,3.824,3.824,0,0,1,0,7.61Zm-.69,7.52c.1.01.2.01.3.01a11.159,11.159,0,0,0,2.1-.2Z"/><path class="cls-16" d="M103.179,9.908l-51.22-4.18q-.36-.045-.72-.06c-.16-.01-.33-.01-.5-.01-.12,0-.25,0-.37.01a11.333,11.333,0,0,0-.31,22.64c.05,0,.11.01.17.01h.21l2.4-.19,50.34-4.04a7.09,7.09,0,0,0,0-14.18ZM51.6,24.1a.014.014,0,0,1-.02,0,5.028,5.028,0,0,1-.78.05h-.05a.127.127,0,0,1-.06-.01,3.636,3.636,0,0,1-.74-.05.2.2,0,0,1-.07.01.086.086,0,0,1-.06-.03,3.621,3.621,0,0,1-.73-.14.047.047,0,0,1-.06.01c-.02-.01-.05-.02-.06-.04a4.109,4.109,0,0,1-.68-.21.139.139,0,0,1-.09,0,.09.09,0,0,1-.06-.06,4.508,4.508,0,0,1-.63-.29.164.164,0,0,1-.1-.01.1.1,0,0,1-.05-.06,6.023,6.023,0,0,1-.6-.37.149.149,0,0,1-.09-.02.2.2,0,0,1-.06-.09v-.01a4.78,4.78,0,0,1-.5-.39.159.159,0,0,1-.12-.04.22.22,0,0,1-.05-.12,2.681,2.681,0,0,1-.44-.45h-.01a.125.125,0,0,1-.11-.04.156.156,0,0,1-.03-.12v-.01a3.49,3.49,0,0,1-.39-.49.168.168,0,0,1-.11-.06.2.2,0,0,1-.02-.11c-.11-.18-.23-.36-.33-.56h-.01a.218.218,0,0,1-.09-.07.193.193,0,0,1,0-.13,3.682,3.682,0,0,1-.26-.57c-.04-.03-.08-.05-.09-.09a.174.174,0,0,1,.01-.14,3.737,3.737,0,0,1-.17-.57.208.208,0,0,1-.1-.11.254.254,0,0,1,.03-.14,3.826,3.826,0,0,1-.1-.59.164.164,0,0,1-.08-.12.147.147,0,0,1,.04-.12,4.223,4.223,0,0,1-.03-.62.147.147,0,0,1,0-.25,4.088,4.088,0,0,1,.03-.61v-.01a.147.147,0,0,1-.04-.12.164.164,0,0,1,.08-.12,2.911,2.911,0,0,1,.1-.59c-.01-.01-.01-.01,0-.01a.167.167,0,0,1-.03-.13.213.213,0,0,1,.09-.1,2.994,2.994,0,0,1,.18-.58v-.01a.2.2,0,0,1-.01-.13.213.213,0,0,1,.09-.1,4.05,4.05,0,0,1,.26-.56.184.184,0,0,1,.01-.13.1.1,0,0,1,.08-.06c.11-.2.22-.39.34-.58a.164.164,0,0,1,.02-.1.144.144,0,0,1,.1-.06,4.992,4.992,0,0,1,.4-.51.182.182,0,0,1,.04-.11.16.16,0,0,1,.1-.05h.01a3.9,3.9,0,0,1,.45-.46.16.16,0,0,1,.05-.1.232.232,0,0,1,.1-.04,4.168,4.168,0,0,1,.53-.41.158.158,0,0,1,.05-.08c.02-.02.04-.02.08-.02h.01a6.1,6.1,0,0,1,.6-.38c.01,0,.01,0,.02-.01a.138.138,0,0,1,.03-.04.2.2,0,0,1,.09-.02,4.465,4.465,0,0,1,.63-.28.09.09,0,0,1,.06-.06.139.139,0,0,1,.09,0,4.109,4.109,0,0,1,.68-.21c.01-.02.04-.03.06-.04a.047.047,0,0,1,.06.01,3.621,3.621,0,0,1,.73-.14.086.086,0,0,1,.06-.03.2.2,0,0,1,.07.01,3.636,3.636,0,0,1,.74-.05.127.127,0,0,1,.06-.01h.05a5.028,5.028,0,0,1,.78.05.014.014,0,0,1,.02,0,4.729,4.729,0,0,1,.85.16A7.141,7.141,0,0,1,51.6,24.1Zm27.2-5.13a1.98,1.98,0,1,1,1.98-1.98A1.98,1.98,0,0,1,78.8,18.968Zm8.12,0a1.98,1.98,0,1,1,1.99-1.98A1.978,1.978,0,0,1,86.919,18.968Zm8.13,0a1.98,1.98,0,1,1,1.98-1.98A1.98,1.98,0,0,1,95.049,18.968Zm8.12,0a1.98,1.98,0,1,1,1.99-1.98A1.978,1.978,0,0,1,103.169,18.968Z"/><path class="cls-45" d="M54.079,10.671s-.006-.01-.01-.013-.011,0-.016,0a6.935,6.935,0,0,0-.762-.337s-.007-.01-.012-.012-.015,0-.022,0a7.116,7.116,0,0,0-.808-.261,4.729,4.729,0,0,0-.85-.16.014.014,0,0,0-.02,0,5.028,5.028,0,0,0-.78-.05h-.05a.127.127,0,0,0-.06.01,3.636,3.636,0,0,0-.74.05.274.274,0,0,0-.13.02,3.621,3.621,0,0,0-.73.14.266.266,0,0,0-.12.03,4.109,4.109,0,0,0-.68.21.471.471,0,0,0-.15.06,4.465,4.465,0,0,0-.63.28l-.12.06c-.01.01-.01.01-.02.01a6.1,6.1,0,0,0-.6.38h-.01a.642.642,0,0,0-.13.1,4.168,4.168,0,0,0-.53.41,1.92,1.92,0,0,0-.15.14,3.9,3.9,0,0,0-.45.46h-.01a1.07,1.07,0,0,0-.14.16,4.992,4.992,0,0,0-.4.51c-.04.05-.08.1-.12.16-.12.19-.23.38-.34.58a.818.818,0,0,0-.09.19,4.05,4.05,0,0,0-.26.56,1.555,1.555,0,0,0-.08.23v.01a2.994,2.994,0,0,0-.18.58.865.865,0,0,0-.06.23c-.01,0-.01,0,0,.01a2.911,2.911,0,0,0-.1.59,2,2,0,0,0-.04.24v.01a4.088,4.088,0,0,0-.03.61.487.487,0,0,0-.01.12.57.57,0,0,0,.01.13,4.223,4.223,0,0,0,.03.62,2,2,0,0,0,.04.24,3.826,3.826,0,0,0,.1.59.783.783,0,0,0,.07.25,3.737,3.737,0,0,0,.17.57,1.555,1.555,0,0,0,.08.23,3.682,3.682,0,0,0,.26.57c.03.07.06.14.09.2h.01c.1.2.22.38.33.56a1.092,1.092,0,0,0,.13.17,3.49,3.49,0,0,0,.39.49v.01a1,1,0,0,0,.14.16h.01a2.681,2.681,0,0,0,.44.45,1.288,1.288,0,0,0,.17.16,4.78,4.78,0,0,0,.5.39v.01c.05.04.1.07.15.11a6.023,6.023,0,0,0,.6.37,1.009,1.009,0,0,0,.15.07,4.508,4.508,0,0,0,.63.29.471.471,0,0,0,.15.06,4.109,4.109,0,0,0,.68.21.266.266,0,0,0,.12.03,3.621,3.621,0,0,0,.73.14.274.274,0,0,0,.13.02,3.636,3.636,0,0,0,.74.05.127.127,0,0,0,.06.01h.05a5.028,5.028,0,0,0,.78-.05.014.014,0,0,0,.02,0,7.125,7.125,0,0,0,2.48-13.427ZM51.129,20.8a1.829,1.829,0,0,1-.33.02c-.13,0-.26-.01-.39-.02s-.24-.03-.36-.05a3.829,3.829,0,0,1,0-7.51c.12-.02.24-.04.36-.05s.26-.02.39-.02a1.829,1.829,0,0,1,.33.02,3.824,3.824,0,0,1,0,7.61Z"/></g></svg>