<?xml version="1.0" encoding="UTF-8" standalone="no"?>
<!-- Created with Inkscape (http://www.inkscape.org/) -->

<svg
   xmlns:dc="http://purl.org/dc/elements/1.1/"
   xmlns:cc="http://creativecommons.org/ns#"
   xmlns:rdf="http://www.w3.org/1999/02/22-rdf-syntax-ns#"
   xmlns:svg="http://www.w3.org/2000/svg"
   xmlns="http://www.w3.org/2000/svg"
   xmlns:sodipodi="http://sodipodi.sourceforge.net/DTD/sodipodi-0.dtd"
   xmlns:inkscape="http://www.inkscape.org/namespaces/inkscape"
   width="37.500275mm"
   height="15.127278mm"
   viewBox="0 0 37.500275 15.127278"
   version="1.1"
   id="svg22647"
   inkscape:version="0.92.1 r15371"
   sodipodi:docname="servo-fs90.svg">
  <defs
     id="defs22641">
    <clipPath
       clipPathUnits="userSpaceOnUse"
       id="clipPath3321-9-4">
      <path
         d="m 34.0879,88.6362 h 4.5928 v -7.6049 h -4.5928 z"
         id="path3323-4-1"
         inkscape:connector-curvature="0" />
    </clipPath>
    <clipPath
       clipPathUnits="userSpaceOnUse"
       id="clipPath3325-8-3">
      <path
         d="m 34.0879,88.6362 h 4.5928 v -7.6049 h -4.5928 z"
         id="path3327-8-2"
         inkscape:connector-curvature="0" />
    </clipPath>
    <clipPath
       clipPathUnits="userSpaceOnUse"
       id="clipPath3349-2-5-9">
      <path
         d="m 43.4316,88.603 h 3.9893 v -7.605 h -3.9893 z"
         id="path3351-4-3"
         inkscape:connector-curvature="0" />
    </clipPath>
    <clipPath
       clipPathUnits="userSpaceOnUse"
       id="clipPath3353-5-1-8">
      <path
         d="m 43.4316,88.603 h 3.9893 v -7.605 h -3.9893 z"
         id="path3355-5-7-5"
         inkscape:connector-curvature="0" />
    </clipPath>
    <clipPath
       clipPathUnits="userSpaceOnUse"
       id="clipPath3377-1-3">
      <path
         d="m 52.7187,88.6362 h 3.2657 v -7.6049 h -3.2657 z"
         id="path3379-7-4"
         inkscape:connector-curvature="0" />
    </clipPath>
    <clipPath
       clipPathUnits="userSpaceOnUse"
       id="clipPath3381-1-9">
      <path
         d="m 52.7187,88.6362 h 3.2657 v -7.6049 h -3.2657 z"
         id="path3383-1-0"
         inkscape:connector-curvature="0" />
    </clipPath>
    <clipPath
       clipPathUnits="userSpaceOnUse"
       id="clipPath3453-5-7">
      <path
         d="m 79.3516,70.2334 h 8.291 V 18.4463 h -8.291 z"
         id="path3455-2-1"
         inkscape:connector-curvature="0" />
    </clipPath>
    <clipPath
       clipPathUnits="userSpaceOnUse"
       id="clipPath3457-7-1">
      <path
         d="m 79.3516,70.2334 h 8.291 V 18.4463 h -8.291 z"
         id="path3459-6-7"
         inkscape:connector-curvature="0" />
    </clipPath>
    <clipPath
       clipPathUnits="userSpaceOnUse"
       id="clipPath3149-1-0">
      <path
         d="M 2.372,6.645 H 23.841 V 17.45 H 2.372 Z"
         id="path3151-7-8"
         inkscape:connector-curvature="0" />
    </clipPath>
  </defs>
  <sodipodi:namedview
     id="base"
     pagecolor="#ffffff"
     bordercolor="#666666"
     borderopacity="1.0"
     inkscape:pageopacity="0.0"
     inkscape:pageshadow="2"
     inkscape:zoom="0.98994949"
     inkscape:cx="103.38787"
     inkscape:cy="-122.86915"
     inkscape:document-units="mm"
     inkscape:current-layer="layer1"
     showgrid="false"
     inkscape:window-width="1920"
     inkscape:window-height="1017"
     inkscape:window-x="-8"
     inkscape:window-y="-8"
     inkscape:window-maximized="1"
     fit-margin-top="0"
     fit-margin-left="0"
     fit-margin-right="0"
     fit-margin-bottom="0" />
  <metadata
     id="metadata22644">
    <rdf:RDF>
      <cc:Work
         rdf:about="">
        <dc:format>image/svg+xml</dc:format>
        <dc:type
           rdf:resource="http://purl.org/dc/dcmitype/StillImage" />
        <dc:title></dc:title>
      </cc:Work>
    </rdf:RDF>
  </metadata>
  <g
     inkscape:label="Layer 1"
     inkscape:groupmode="layer"
     id="layer1"
     transform="translate(538.84537,131.62912)">
    <g
       id="g23289">
      <path
         d="m -518.58994,-123.60361 h -19.71569"
         style="fill:none;stroke:#845339;stroke-width:1.06433046;stroke-linecap:round;stroke-linejoin:round;stroke-miterlimit:10;stroke-dasharray:none;stroke-opacity:1"
         id="path9253"
         inkscape:connector-curvature="0" />
      <path
         d="m -538.24672,-122.53646 h 19.65642"
         style="fill:none;stroke:#ef3e2d;stroke-width:1.06433046;stroke-linecap:round;stroke-linejoin:round;stroke-miterlimit:10;stroke-dasharray:none;stroke-opacity:1"
         id="path9257"
         inkscape:connector-curvature="0" />
      <path
         d="m -538.28376,-121.46931 h 19.69382"
         style="fill:none;stroke:#ffcf01;stroke-width:1.06433046;stroke-linecap:round;stroke-linejoin:round;stroke-miterlimit:10;stroke-dasharray:none;stroke-opacity:1"
         id="path9261"
         inkscape:connector-curvature="0" />
      <path
         d="m -533.02526,-116.85674 c -0.0801,0 -0.14781,-0.0677 -0.14781,-0.14781 v -4.5593 c 0,-0.0797 0.0677,-0.14782 0.14781,-0.14782 h 0.51259 c 0.17921,0 0.46425,0.12383 0.58667,0.25506 0.0434,0.0469 0.28751,0.28046 0.80045,0.28046 0.75036,0 1.35996,-0.61031 1.35996,-1.36066 0,-0.75001 -0.6096,-1.36032 -1.35996,-1.36032 -0.51294,0 -0.75706,0.23354 -0.80045,0.28046 -0.12242,0.13124 -0.40746,0.25506 -0.58667,0.25506 h -0.51259 c -0.0801,0 -0.14781,-0.0677 -0.14781,-0.14781 v -4.55824 c 0,-0.0801 0.0677,-0.14817 0.14781,-0.14817 h 31.17744 c 0.0801,0 0.14781,0.0681 0.14781,0.14817 v 4.55824 c 0,0.0801 -0.0677,0.14781 -0.14781,0.14781 h -0.51259 c -0.17921,0 -0.46425,-0.12418 -0.58666,-0.25506 -0.0438,-0.0469 -0.28752,-0.28046 -0.80046,-0.28046 -0.75036,0 -1.36031,0.61066 -1.36031,1.36102 0,0.75001 0.60995,1.35996 1.36031,1.35996 0.51294,0 0.75671,-0.23354 0.80046,-0.28081 0.12241,-0.13053 0.40745,-0.25471 0.58666,-0.25471 h 0.51259 c 0.0801,0 0.14781,0.0681 0.14781,0.14782 v 4.5593 c 0,0.0801 -0.0677,0.14781 -0.14781,0.14781 z"
         style="fill:#2576b8;fill-opacity:1;fill-rule:nonzero;stroke:none;stroke-width:0.35277778"
         id="path9265"
         inkscape:connector-curvature="0" />
      <path
         d="m -501.84781,-128.57037 h -31.17709 c -0.27658,0 -0.50306,0.22648 -0.50306,0.50271 v 4.55789 c 0,0.27693 0.22648,0.50341 0.50306,0.50341 h 0.51224 c 0.27693,0 0.65757,-0.1658 0.84596,-0.36795 0,0 0.15663,-0.16792 0.54151,-0.16792 0.55492,0 1.00542,0.45015 1.00542,1.00542 0,0.55562 -0.4505,1.00612 -1.00542,1.00612 -0.38488,0 -0.54151,-0.16792 -0.54151,-0.16792 -0.18839,-0.2025 -0.56903,-0.3676 -0.84596,-0.3676 h -0.51224 c -0.27658,0 -0.50306,0.22613 -0.50306,0.50271 v 4.5586 c 0,0.27693 0.22648,0.50306 0.50306,0.50306 h 31.17709 c 0.27658,0 0.50271,-0.22613 0.50271,-0.50306 v -4.5586 c 0,-0.27658 -0.22613,-0.50271 -0.50271,-0.50271 h -0.51259 c -0.27657,0 -0.65722,0.1651 -0.84596,0.3676 0,0 -0.15628,0.16792 -0.54116,0.16792 -0.55527,0 -1.00541,-0.4505 -1.00541,-1.00542 0,-0.55597 0.45014,-1.00612 1.00541,-1.00612 0.38488,0 0.54116,0.16792 0.54116,0.16792 0.18874,0.20215 0.56939,0.36795 0.84596,0.36795 h 0.51259 c 0.27658,0 0.50271,-0.22648 0.50271,-0.50341 v -4.55789 c 0,-0.27623 -0.22613,-0.50271 -0.50271,-0.50271 m -0.20673,0.70944 v 4.14478 h -0.30586 c -0.0815,-6.8e-4 -0.27093,-0.0833 -0.32702,-0.14217 -0.0861,-0.0924 -0.41698,-0.39334 -1.0601,-0.39334 -0.9458,0 -1.71485,0.7694 -1.71485,1.71555 0,0.94545 0.76905,1.71521 1.71485,1.71521 0.64312,0 0.97402,-0.30127 1.0601,-0.3937 0.0561,-0.0593 0.24553,-0.14146 0.32702,-0.14217 h 0.30586 v 4.14549 h -30.76398 v -4.14549 h 0.30586 c 0.0818,7.2e-4 0.27128,0.0829 0.32737,0.14182 0.0857,0.0928 0.41663,0.39405 1.0601,0.39405 0.94544,0 1.71485,-0.77011 1.71485,-1.71591 0,-0.9458 -0.76941,-1.71485 -1.71485,-1.71485 -0.64347,0 -0.97437,0.30091 -1.0601,0.39334 -0.0561,0.0589 -0.24553,0.14147 -0.32737,0.14217 h -0.30586 v -4.14478 h 30.76398"
         style="fill:#006cb3;fill-opacity:1;fill-rule:nonzero;stroke:none;stroke-width:0.35277778"
         id="path9269"
         inkscape:connector-curvature="0" />
      <path
         d="m -527.99641,-116.85674 c -0.0801,0 -0.14781,-0.0677 -0.14781,-0.14781 v -11.06311 c 0,-0.0801 0.0677,-0.14817 0.14781,-0.14817 h 21.11975 c 0.0801,0 0.14781,0.0681 0.14781,0.14817 v 11.06311 c 0,0.0801 -0.0677,0.14781 -0.14781,0.14781 z"
         style="fill:#006cb3;fill-opacity:1;fill-rule:nonzero;stroke:none;stroke-width:0.35277778"
         id="path9273"
         inkscape:connector-curvature="0" />
      <path
         d="m -506.87666,-128.57037 h -21.11975 c -0.27622,0 -0.50271,0.22648 -0.50271,0.50271 v 11.06276 c 0,0.27693 0.22649,0.50306 0.50271,0.50306 h 21.11975 c 0.27658,0 0.50271,-0.22613 0.50271,-0.50306 v -11.06276 c 0,-0.27623 -0.22613,-0.50271 -0.50271,-0.50271 m -0.20673,11.35909 h -20.70594 v -10.6493 h 20.70594 z"
         style="fill:#115fa4;fill-opacity:1;fill-rule:nonzero;stroke:none;stroke-width:0.35277778"
         id="path9277"
         inkscape:connector-curvature="0" />
      <path
         d="m -507.73638,-127.71171 c 0,-0.27834 0.22578,-0.50377 0.50377,-0.50377 0.27869,0 0.50412,0.22543 0.50412,0.50377 0,0.27799 -0.22543,0.50377 -0.50412,0.50377 -0.27799,0 -0.50377,-0.22578 -0.50377,-0.50377"
         style="fill:#58595b;fill-opacity:1;fill-rule:nonzero;stroke:none;stroke-width:0.35277778"
         id="path9281"
         inkscape:connector-curvature="0" />
      <path
         d="m -528.14458,-127.71171 c 0,-0.27834 0.22578,-0.50377 0.50377,-0.50377 0.27869,0 0.50412,0.22543 0.50412,0.50377 0,0.27799 -0.22543,0.50377 -0.50412,0.50377 -0.27799,0 -0.50377,-0.22578 -0.50377,-0.50377"
         style="fill:#58595b;fill-opacity:1;fill-rule:nonzero;stroke:none;stroke-width:0.35277778"
         id="path9285"
         inkscape:connector-curvature="0" />
      <path
         d="m -522.46485,-116.50185 c -3.3334,0 -6.03426,-2.70157 -6.03426,-6.03497 0,-3.33234 2.70086,-6.03356 6.03426,-6.03356 3.33269,0 6.03426,2.70122 6.03426,6.03356 0,3.3334 -2.70157,6.03497 -6.03426,6.03497"
         style="fill:#115fa4;fill-opacity:1;fill-rule:nonzero;stroke:none;stroke-width:0.35277778"
         id="path9289"
         inkscape:connector-curvature="0" />
      <path
         d="m -517.26244,-119.0803 c -1.90888,0 -3.45616,-1.54728 -3.45616,-3.45652 0,-1.90782 1.54728,-3.45475 3.45616,-3.45475 1.90853,0 3.45546,1.54693 3.45546,3.45475 0,1.90924 -1.54693,3.45652 -3.45546,3.45652"
         style="fill:#115fa4;fill-opacity:1;fill-rule:nonzero;stroke:none;stroke-width:0.35277778"
         id="path9293"
         inkscape:connector-curvature="0" />
      <path
         d="m -522.46485,-117.56618 c -2.74461,0 -4.96993,-2.22497 -4.96993,-4.97064 0,-2.7439 2.22532,-4.96923 4.96993,-4.96923 2.74461,0 4.96993,2.22533 4.96993,4.96923 0,2.74567 -2.22532,4.97064 -4.96993,4.97064"
         style="fill:#2576b8;fill-opacity:1;fill-rule:nonzero;stroke:none;stroke-width:0.35277778"
         id="path9297"
         inkscape:connector-curvature="0" />
      <path
         d="m -517.26244,-120.35241 c -1.20579,0 -2.18405,-0.97825 -2.18405,-2.1844 0,-1.20615 0.97826,-2.18334 2.18405,-2.18334 1.20544,0 2.18334,0.97719 2.18334,2.18334 0,1.20615 -0.9779,2.1844 -2.18334,2.1844"
         style="fill:#2576b8;fill-opacity:1;fill-rule:nonzero;stroke:none;stroke-width:0.35277778"
         id="path9301"
         inkscape:connector-curvature="0" />
      <path
         d="m -517.26279,-121.89017 c -0.35701,0 -0.64594,-0.28892 -0.64594,-0.64594 0,-0.35701 0.28893,-0.64664 0.64594,-0.64664 0.35701,0 0.64594,0.28963 0.64594,0.64664 0,0.35702 -0.28893,0.64594 -0.64594,0.64594"
         style="fill:#226ba9;fill-opacity:1;fill-rule:nonzero;stroke:none;stroke-width:0.35277778"
         id="path9305"
         inkscape:connector-curvature="0" />
      <path
         d="m -522.46485,-120.2868 c -1.24248,0 -2.25002,-1.00683 -2.25002,-2.25002 0,-1.24177 1.00754,-2.24931 2.25002,-2.24931 1.24248,0 2.24931,1.00754 2.24931,2.24931 0,1.24319 -1.00683,2.25002 -2.24931,2.25002"
         style="fill:#115fa4;fill-opacity:1;fill-rule:nonzero;stroke:none;stroke-width:0.35277778"
         id="path9309"
         inkscape:connector-curvature="0" />
      <path
         d="m -522.46485,-121.06503 c -0.8128,0 -1.47179,-0.65828 -1.47179,-1.47179 0,-0.81209 0.65899,-1.47108 1.47179,-1.47108 0.8128,0 1.47108,0.65899 1.47108,1.47108 0,0.81351 -0.65828,1.47179 -1.47108,1.47179"
         style="fill:#d1d3d4;fill-opacity:1;fill-rule:nonzero;stroke:none;stroke-width:0.35277778"
         id="path9313"
         inkscape:connector-curvature="0" />
      <path
         d="m -506.59867,-127.7985 -14.36405,8.44515 -3.00461,-6.36658 15.65204,-5.71677 z"
         style="fill:#e6e7e8;fill-opacity:1;fill-rule:nonzero;stroke:none;stroke-width:0.35277778"
         id="path9317"
         inkscape:connector-curvature="0" />
      <path
         d="m -519.28174,-124.03824 c 0.82973,1.75754 0.0765,3.85516 -1.68099,4.68454 -1.75824,0.83008 -3.85621,0.0776 -4.68594,-1.68099 -0.82903,-1.75789 -0.0766,-3.85551 1.68169,-4.68489 1.75789,-0.82938 3.85586,-0.0773 4.68524,1.68134"
         style="fill:#e6e7e8;fill-opacity:1;fill-rule:nonzero;stroke:none;stroke-width:0.35277778"
         id="path9321"
         inkscape:connector-curvature="0" />
      <path
         d="m -505.63841,-130.47573 c 0.47449,1.00436 0.0444,2.2031 -0.96026,2.67723 -1.00471,0.47413 -2.20416,0.0444 -2.67794,-0.96026 -0.47413,-1.00506 -0.0434,-2.2038 0.96132,-2.67758 1.00401,-0.47378 2.2031,-0.0444 2.67688,0.96061"
         style="fill:#e6e7e8;fill-opacity:1;fill-rule:nonzero;stroke:none;stroke-width:0.35277778"
         id="path9325"
         inkscape:connector-curvature="0" />
      <path
         d="m -520.33266,-123.54223 c 0.55562,1.17757 0.0515,2.58269 -1.12607,3.13866 -1.17792,0.55528 -2.58304,0.0508 -3.13901,-1.12642 -0.55598,-1.17792 -0.0512,-2.58339 1.12642,-3.13901 1.17827,-0.55563 2.58304,-0.0512 3.13866,1.12677"
         style="fill:#bcbec0;fill-opacity:1;fill-rule:nonzero;stroke:none;stroke-width:0.35277778"
         id="path9329"
         inkscape:connector-curvature="0" />
      <path
         d="m -506.72179,-129.96455 c 0.11112,0.23354 0.0106,0.51117 -0.22331,0.62159 -0.23248,0.11042 -0.51117,0.0102 -0.62124,-0.2233 -0.10971,-0.23248 -0.01,-0.51118 0.22366,-0.6216 0.23283,-0.10971 0.51082,-0.01 0.62089,0.22331"
         style="fill:#bcbec0;fill-opacity:1;fill-rule:nonzero;stroke:none;stroke-width:0.35277778"
         id="path9333"
         inkscape:connector-curvature="0" />
      <path
         d="m -508.44441,-129.15105 c 0.15875,0.33584 0.0145,0.73766 -0.32209,0.89676 -0.3369,0.15875 -0.73836,0.0145 -0.89782,-0.32209 -0.15804,-0.33655 -0.0145,-0.73836 0.3228,-0.89676 0.33655,-0.1591 0.73836,-0.0152 0.89711,0.32209"
         style="fill:#bcbec0;fill-opacity:1;fill-rule:nonzero;stroke:none;stroke-width:0.35277778"
         id="path9337"
         inkscape:connector-curvature="0" />
      <path
         d="m -510.54238,-128.16186 c 0.11042,0.23319 0.0106,0.51082 -0.2226,0.62124 -0.23354,0.11007 -0.51153,0.0102 -0.62195,-0.22331 -0.10971,-0.23248 -0.0102,-0.51082 0.22331,-0.62159 0.23318,-0.10936 0.51117,-0.01 0.62124,0.22366"
         style="fill:#bcbec0;fill-opacity:1;fill-rule:nonzero;stroke:none;stroke-width:0.35277778"
         id="path9341"
         inkscape:connector-curvature="0" />
      <path
         d="m -512.45267,-127.26086 c 0.11077,0.23319 0.0102,0.51117 -0.22331,0.62159 -0.23248,0.11042 -0.51117,0.01 -0.62124,-0.2233 -0.11007,-0.23248 -0.0102,-0.51118 0.22366,-0.6216 0.23283,-0.10971 0.51082,-0.01 0.62089,0.22331"
         style="fill:#bcbec0;fill-opacity:1;fill-rule:nonzero;stroke:none;stroke-width:0.35277778"
         id="path9345"
         inkscape:connector-curvature="0" />
      <path
         d="m -514.36296,-126.35916 c 0.11007,0.23283 0.01,0.51117 -0.22331,0.62159 -0.23248,0.10972 -0.51117,0.01 -0.62124,-0.22295 -0.11007,-0.23319 -0.01,-0.51153 0.22366,-0.62265 0.23319,-0.10901 0.51118,-0.01 0.62089,0.22401"
         style="fill:#bcbec0;fill-opacity:1;fill-rule:nonzero;stroke:none;stroke-width:0.35277778"
         id="path9349"
         inkscape:connector-curvature="0" />
      <path
         d="m -516.2729,-125.45781 c 0.11042,0.23248 0.0102,0.51082 -0.22366,0.62124 -0.23283,0.11007 -0.51082,0.01 -0.62124,-0.22366 -0.10972,-0.23248 -0.0102,-0.51047 0.22331,-0.62159 0.23283,-0.10972 0.51152,-0.01 0.62159,0.22401"
         style="fill:#bcbec0;fill-opacity:1;fill-rule:nonzero;stroke:none;stroke-width:0.35277778"
         id="path9353"
         inkscape:connector-curvature="0" />
      <path
         d="m -518.18319,-124.55647 c 0.11042,0.23248 0.0102,0.51117 -0.22331,0.62124 -0.23283,0.11042 -0.51117,0.0102 -0.62159,-0.22331 -0.10972,-0.23283 -0.0102,-0.51117 0.22366,-0.62159 0.23318,-0.10971 0.51082,-0.0102 0.62124,0.22366"
         style="fill:#bcbec0;fill-opacity:1;fill-rule:nonzero;stroke:none;stroke-width:0.35277778"
         id="path9357"
         inkscape:connector-curvature="0" />
      <path
         d="m -522.46485,-121.06503 c -0.8128,0 -1.47179,-0.65828 -1.47179,-1.47179 0,-0.81209 0.65899,-1.47108 1.47179,-1.47108 0.8128,0 1.47108,0.65899 1.47108,1.47108 0,0.81351 -0.65828,1.47179 -1.47108,1.47179"
         style="fill:#d1d3d4;fill-opacity:1;fill-rule:nonzero;stroke:none;stroke-width:0.35277778"
         id="path9361"
         inkscape:connector-curvature="0" />
      <path
         d="m -522.46521,-121.98119 c -0.30692,0 -0.55562,-0.24836 -0.55562,-0.55562 0,-0.30657 0.2487,-0.55528 0.55562,-0.55528 0.30692,0 0.55527,0.24871 0.55527,0.55528 0,0.30726 -0.24835,0.55562 -0.55527,0.55562"
         style="fill:#808285;fill-opacity:1;fill-rule:nonzero;stroke:none;stroke-width:0.35277778"
         id="path9365"
         inkscape:connector-curvature="0" />
      <path
         d="m -507.73638,-117.36086 c 0,-0.27799 0.22578,-0.50412 0.50377,-0.50412 0.27869,0 0.50412,0.22613 0.50412,0.50412 0,0.27799 -0.22543,0.50412 -0.50412,0.50412 -0.27799,0 -0.50377,-0.22613 -0.50377,-0.50412"
         style="fill:#58595b;fill-opacity:1;fill-rule:nonzero;stroke:none;stroke-width:0.35277778"
         id="path9369"
         inkscape:connector-curvature="0" />
      <path
         d="m -528.14458,-117.36086 c 0,-0.27799 0.22578,-0.50412 0.50377,-0.50412 0.27869,0 0.50412,0.22613 0.50412,0.50412 0,0.27799 -0.22543,0.50412 -0.50412,0.50412 -0.27799,0 -0.50377,-0.22613 -0.50377,-0.50412"
         style="fill:#58595b;fill-opacity:1;fill-rule:nonzero;stroke:none;stroke-width:0.35277778"
         id="path9373"
         inkscape:connector-curvature="0" />
    </g>
  </g>
</svg>
