<svg xmlns="http://www.w3.org/2000/svg" xmlns:xlink="http://www.w3.org/1999/xlink" viewBox="0 0 185.097 156.192"><defs><style>.cls-1{isolation:isolate;}.cls-15,.cls-2,.cls-3,.cls-4,.cls-52{fill:none;stroke-miterlimit:10;}.cls-2{stroke:#eaeae9;}.cls-2,.cls-3,.cls-4{stroke-linecap:round;stroke-width:2.126px;}.cls-15,.cls-3{stroke:#404041;}.cls-4{stroke:#231f20;}.cls-5{fill:url(#linear-gradient);}.cls-6{opacity:0.48;}.cls-7{fill:#4d4d4d;}.cls-8{fill:url(#linear-gradient-2);}.cls-9{fill:url(#linear-gradient-3);}.cls-10{fill:#58595b;}.cls-11{fill:url(#linear-gradient-4);}.cls-12{fill:url(#linear-gradient-5);}.cls-13{fill:url(#linear-gradient-6);}.cls-14{fill:url(#linear-gradient-7);}.cls-15,.cls-52{stroke-width:0.283px;}.cls-15{opacity:0.53;mix-blend-mode:darken;}.cls-16,.cls-18{opacity:0.8;}.cls-17{fill:#f2f2f2;}.cls-18{fill:#020202;}.cls-19{fill:url(#linear-gradient-8);}.cls-20{fill:url(#linear-gradient-9);}.cls-21{fill:url(#linear-gradient-10);}.cls-22{fill:url(#linear-gradient-11);}.cls-23{fill:#e6e7e8;}.cls-24{fill:url(#linear-gradient-12);}.cls-25{fill:url(#linear-gradient-13);}.cls-26{fill:url(#linear-gradient-14);}.cls-27{fill:url(#linear-gradient-15);}.cls-28{fill:url(#linear-gradient-16);}.cls-29{fill:url(#linear-gradient-17);}.cls-30{fill:url(#linear-gradient-18);}.cls-31{fill:url(#linear-gradient-19);}.cls-32{fill:url(#linear-gradient-20);}.cls-33{fill:url(#linear-gradient-21);}.cls-34{fill:#fff;}.cls-35{fill:url(#linear-gradient-22);}.cls-36{fill:url(#linear-gradient-23);}.cls-37{fill:url(#linear-gradient-24);}.cls-38{fill:url(#linear-gradient-25);}.cls-39{fill:url(#linear-gradient-26);}.cls-40{fill:url(#linear-gradient-27);}.cls-41{fill:url(#linear-gradient-28);}.cls-42{fill:url(#linear-gradient-29);}.cls-43{fill:#121212;}.cls-44{fill:#1a1a1a;}.cls-45{fill:#1e1e1e;}.cls-46{fill:#333;}.cls-47{fill:#494949;}.cls-48{fill:url(#radial-gradient);}.cls-49{fill:url(#radial-gradient-2);}.cls-50{fill:#929497;}.cls-51{fill:#404041;}.cls-52{stroke:#929497;}.cls-53{fill:#bbbdbf;opacity:0.43;}</style><linearGradient id="linear-gradient" x1="151.081" y1="117.212" x2="185.097" y2="117.212" gradientUnits="userSpaceOnUse"><stop offset="0" stop-color="#1a1a1a"/><stop offset="1" stop-color="#333"/></linearGradient><linearGradient id="linear-gradient-2" x1="155.345" y1="76.819" x2="180.833" y2="76.819" gradientUnits="userSpaceOnUse"><stop offset="0" stop-color="#1a1a1a"/><stop offset="0.135" stop-color="#2c2c2c"/><stop offset="0.356" stop-color="#444"/><stop offset="0.492" stop-color="#4d4d4d"/><stop offset="0.596" stop-color="#444" stop-opacity="0.988"/><stop offset="0.767" stop-color="#2b2b2b" stop-opacity="0.956"/><stop offset="0.983" stop-color="#040404" stop-opacity="0.905"/><stop offset="1" stop-opacity="0.9"/></linearGradient><linearGradient id="linear-gradient-3" x1="160.961" y1="70.583" x2="175.325" y2="70.583" gradientUnits="userSpaceOnUse"><stop offset="0" stop-color="#3b3b3b"/><stop offset="0.221" stop-color="#656667"/><stop offset="0.428" stop-color="#86888b"/><stop offset="0.539" stop-color="#939598"/><stop offset="0.787" stop-color="#a1a3a6"/><stop offset="1" stop-color="#a6a8ab"/></linearGradient><linearGradient id="linear-gradient-4" x1="151.081" y1="91.681" x2="185.097" y2="91.681" xlink:href="#linear-gradient"/><linearGradient id="linear-gradient-5" x1="151.081" y1="91.681" x2="153.641" y2="91.681" gradientUnits="userSpaceOnUse"><stop offset="0" stop-color="#e6e7e8" stop-opacity="0.3"/><stop offset="0.022" stop-color="#dddedf" stop-opacity="0.274"/><stop offset="0.127" stop-color="#bbbcbe" stop-opacity="0.174"/><stop offset="0.248" stop-color="#a1a2a4" stop-opacity="0.096"/><stop offset="0.392" stop-color="#8e8f92" stop-opacity="0.041"/><stop offset="0.583" stop-color="#838487" stop-opacity="0.009"/><stop offset="1" stop-color="#808184" stop-opacity="0"/></linearGradient><linearGradient id="linear-gradient-6" x1="1039.612" y1="91.681" x2="1042.172" y2="91.681" gradientTransform="matrix(1, 0, 0, -1, -857.075, 183.362)" xlink:href="#linear-gradient-5"/><linearGradient id="linear-gradient-7" x1="165.85" y1="91.681" x2="170.328" y2="91.681" gradientTransform="translate(259.77 -76.408) rotate(90)" gradientUnits="userSpaceOnUse"><stop offset="0" stop-color="#252525"/><stop offset="0.042" stop-color="#1f1f1f"/><stop offset="0.187" stop-color="#0d0d0d"/><stop offset="0.344" stop-color="#030303"/><stop offset="0.536"/><stop offset="0.707" stop-color="#030303"/><stop offset="0.824" stop-color="#0c0c0c"/><stop offset="0.925" stop-color="#1b1b1b"/><stop offset="1" stop-color="#2c2c2c"/></linearGradient><linearGradient id="linear-gradient-8" x1="151.083" y1="112.53" x2="151.527" y2="112.53" xlink:href="#linear-gradient-5"/><linearGradient id="linear-gradient-9" x1="184.653" y1="112.53" x2="185.097" y2="112.53" gradientUnits="userSpaceOnUse"><stop offset="0" stop-color="#808184" stop-opacity="0"/><stop offset="0.218" stop-color="#87888b" stop-opacity="0.022"/><stop offset="0.481" stop-color="#9d9ea1" stop-opacity="0.086"/><stop offset="0.767" stop-color="#c1c2c3" stop-opacity="0.19"/><stop offset="1" stop-color="#e6e7e8" stop-opacity="0.3"/></linearGradient><linearGradient id="linear-gradient-10" x1="182.645" y1="154.913" x2="185.097" y2="154.913" gradientUnits="userSpaceOnUse"><stop offset="0" stop-color="#6d6e70"/><stop offset="0.716" stop-color="#a4a6a8"/><stop offset="1" stop-color="#bbbdbf"/></linearGradient><linearGradient id="linear-gradient-11" x1="151.081" y1="154.913" x2="153.533" y2="154.913" xlink:href="#linear-gradient-10"/><linearGradient id="linear-gradient-12" x1="156.794" y1="64.515" x2="161.564" y2="64.515" gradientUnits="userSpaceOnUse"><stop offset="0" stop-color="#fff" stop-opacity="0.3"/><stop offset="0.05" stop-color="#fafbfb" stop-opacity="0.429"/><stop offset="0.121" stop-color="#f5f5f6" stop-opacity="0.581"/><stop offset="0.199" stop-color="#f0f1f1" stop-opacity="0.712"/><stop offset="0.286" stop-color="#ecedee" stop-opacity="0.818"/><stop offset="0.385" stop-color="#eaeaeb" stop-opacity="0.9"/><stop offset="0.503" stop-color="#e8e8e9" stop-opacity="0.957"/><stop offset="0.659" stop-color="#e6e7e8" stop-opacity="0.99"/><stop offset="1" stop-color="#e6e7e8"/></linearGradient><linearGradient id="linear-gradient-13" x1="1055.163" y1="64.515" x2="1059.933" y2="64.515" gradientTransform="matrix(1, 0, 0, -1, -880.442, 129.03)" xlink:href="#linear-gradient-12"/><linearGradient id="linear-gradient-14" x1="31.082" y1="117.212" x2="96.282" y2="117.212" xlink:href="#linear-gradient"/><linearGradient id="linear-gradient-15" x1="18.333" y1="91.681" x2="109.035" y2="91.681" xlink:href="#linear-gradient"/><linearGradient id="linear-gradient-16" x1="18.333" y1="91.681" x2="25.16" y2="91.681" xlink:href="#linear-gradient-5"/><linearGradient id="linear-gradient-17" x1="1115.674" y1="91.681" x2="1122.501" y2="91.681" gradientTransform="matrix(1, 0, 0, -1, -1013.465, 183.362)" xlink:href="#linear-gradient-5"/><linearGradient id="linear-gradient-18" x1="33.057" y1="76.819" x2="58.545" y2="76.819" gradientUnits="userSpaceOnUse"><stop offset="0" stop-color="#2e2e2e"/><stop offset="0.096" stop-color="#252525"/><stop offset="0.433" stop-color="#0a0a0a"/><stop offset="0.631"/><stop offset="1" stop-opacity="0.9"/></linearGradient><linearGradient id="linear-gradient-19" x1="38.673" y1="70.583" x2="53.037" y2="70.583" xlink:href="#linear-gradient-3"/><linearGradient id="linear-gradient-20" x1="31.086" y1="112.53" x2="31.937" y2="112.53" xlink:href="#linear-gradient-5"/><linearGradient id="linear-gradient-21" x1="95.433" y1="112.53" x2="96.283" y2="112.53" gradientUnits="userSpaceOnUse"><stop offset="0" stop-color="#808184" stop-opacity="0"/><stop offset="0.417" stop-color="#838487" stop-opacity="0.009"/><stop offset="0.608" stop-color="#8e8f92" stop-opacity="0.041"/><stop offset="0.752" stop-color="#a1a2a4" stop-opacity="0.096"/><stop offset="0.873" stop-color="#bbbcbe" stop-opacity="0.174"/><stop offset="0.978" stop-color="#dddedf" stop-opacity="0.274"/><stop offset="1" stop-color="#e6e7e8" stop-opacity="0.3"/></linearGradient><linearGradient id="linear-gradient-22" x1="72.866" y1="121.42" x2="84.205" y2="121.42" gradientTransform="translate(199.956 42.885) rotate(90)" gradientUnits="userSpaceOnUse"><stop offset="0" stop-color="#bbbdbf"/><stop offset="1" stop-color="#bbbdbf"/></linearGradient><linearGradient id="linear-gradient-23" x1="72.866" y1="121.42" x2="84.205" y2="121.42" gradientTransform="translate(199.956 42.885) rotate(90)" gradientUnits="userSpaceOnUse"><stop offset="0" stop-color="#bbbdbf"/><stop offset="0.067" stop-color="#c2c3c6"/><stop offset="0.367" stop-color="#dedae0"/><stop offset="0.542" stop-color="#e8e3ea"/><stop offset="0.687" stop-color="#d9d6db"/><stop offset="1" stop-color="#bbbdbf"/></linearGradient><linearGradient id="linear-gradient-24" x1="26.936" y1="130.714" x2="31.086" y2="130.714" xlink:href="#linear-gradient"/><linearGradient id="linear-gradient-25" x1="22.582" y1="130.714" x2="27.044" y2="130.714" xlink:href="#linear-gradient"/><linearGradient id="linear-gradient-26" x1="91.584" y1="154.913" x2="96.282" y2="154.913" xlink:href="#linear-gradient-10"/><linearGradient id="linear-gradient-27" x1="31.082" y1="154.913" x2="35.781" y2="154.913" xlink:href="#linear-gradient-10"/><linearGradient id="linear-gradient-28" x1="34.335" y1="64.515" x2="39.105" y2="64.515" xlink:href="#linear-gradient-12"/><linearGradient id="linear-gradient-29" x1="1177.623" y1="66.91" x2="1182.393" y2="66.91" gradientTransform="matrix(1, 0, 0, -1, -1125.361, 133.819)" xlink:href="#linear-gradient-12"/><radialGradient id="radial-gradient" cx="45.872" cy="17.008" r="7.156" gradientUnits="userSpaceOnUse"><stop offset="0" stop-color="#3b3b3b"/><stop offset="0.2" stop-color="#5e5e5f"/><stop offset="0.422" stop-color="#7d7e80"/><stop offset="0.635" stop-color="#949598"/><stop offset="0.832" stop-color="#a1a3a6"/><stop offset="1" stop-color="#a6a8ab"/></radialGradient><radialGradient id="radial-gradient-2" cx="45.873" cy="17.008" r="6.552" gradientUnits="userSpaceOnUse"><stop offset="0" stop-color="#3b3b3b"/><stop offset="0.38" stop-color="#737373"/><stop offset="1" stop-color="#d6d6d6"/></radialGradient></defs><g class="cls-1"><g id="servo-sts3032"><g id="side"><g id="шнуры"><polyline class="cls-2" points="131.445 128.589 134.133 128.589 156.945 128.589"/><polyline class="cls-3" points="131.445 130.589 134.133 130.589 156.945 130.589"/><polyline class="cls-4" points="131.445 132.589 133.945 132.589 156.945 132.589"/></g><path class="cls-5" d="M185.1,80.132v73.51h-2.958v2.55h-28.1v-2.55h-2.958V80.132c0-1.05.444-1.9.992-1.9h32.038C184.653,78.232,185.1,79.082,185.1,80.132Z"/><g class="cls-6"><path class="cls-7" d="M184.653,80.132v73.51h-2.514v2.55h-28.1v-2.55h-2.514V80.132c0-.58.245-1.05.548-1.05h32.032C184.408,79.082,184.653,79.552,184.653,80.132Z"/></g><rect class="cls-8" x="155.345" y="75.402" width="25.488" height="2.835"/><rect class="cls-9" x="160.961" y="65.764" width="14.364" height="9.638"/><rect class="cls-10" x="160.961" y="65.764" width="0.432" height="9.638"/><rect class="cls-10" x="161.832" y="65.764" width="0.432" height="9.638"/><rect class="cls-10" x="162.702" y="65.764" width="0.432" height="9.638"/><rect class="cls-10" x="163.573" y="65.764" width="0.432" height="9.638"/><rect class="cls-10" x="164.444" y="65.764" width="0.432" height="9.638"/><rect class="cls-10" x="165.315" y="65.764" width="0.432" height="9.638"/><rect class="cls-10" x="166.185" y="65.764" width="0.432" height="9.638"/><rect class="cls-10" x="167.056" y="65.764" width="0.432" height="9.638"/><rect class="cls-10" x="167.927" y="65.764" width="0.432" height="9.638"/><rect class="cls-10" x="168.798" y="65.764" width="0.432" height="9.638"/><rect class="cls-10" x="169.668" y="65.764" width="0.432" height="9.638"/><rect class="cls-10" x="170.539" y="65.764" width="0.432" height="9.638"/><rect class="cls-10" x="171.41" y="65.764" width="0.432" height="9.638"/><rect class="cls-10" x="172.281" y="65.764" width="0.432" height="9.638"/><rect class="cls-10" x="173.151" y="65.764" width="0.432" height="9.638"/><rect class="cls-10" x="174.022" y="65.764" width="0.432" height="9.638"/><rect class="cls-10" x="174.893" y="65.764" width="0.432" height="9.638"/><rect class="cls-11" x="151.081" y="89.555" width="34.016" height="4.252"/><rect class="cls-12" x="151.081" y="89.555" width="2.56" height="4.252"/><rect class="cls-13" x="182.537" y="89.555" width="2.56" height="4.252" transform="translate(367.633 183.362) rotate(-180)"/><rect class="cls-14" x="165.963" y="89.442" width="4.252" height="4.478" transform="translate(76.408 259.77) rotate(-90)"/><line class="cls-15" x1="165.85" y1="89.555" x2="165.85" y2="93.807"/><line class="cls-15" x1="170.328" y1="89.555" x2="170.328" y2="93.807"/><g class="cls-16"><rect class="cls-17" x="151.083" y="96.94" width="34.014" height="31.181"/></g><rect class="cls-18" x="151.083" y="96.94" width="34.014" height="31.181"/><rect class="cls-19" x="151.083" y="96.94" width="0.444" height="31.181"/><rect class="cls-20" x="184.653" y="96.94" width="0.444" height="31.181"/><path class="cls-21" d="M182.645,153.638H185.1a0,0,0,0,1,0,0v1.63a.921.921,0,0,1-.921.921h-.609a.921.921,0,0,1-.921-.921v-1.63a0,0,0,0,1,0,0Z"/><path class="cls-22" d="M151.081,153.638h2.451a0,0,0,0,1,0,0v1.63a.921.921,0,0,1-.921.921H152a.921.921,0,0,1-.921-.921v-1.63a0,0,0,0,1,0,0Z"/><g id="крутилка_side" data-name="крутилка side"><polygon class="cls-23" points="179.471 58.137 156.794 58.137 156.794 62.956 156.794 70.893 179.471 70.893 179.471 62.956 179.471 58.137"/><rect class="cls-24" x="156.794" y="58.137" width="4.77" height="12.756"/><rect class="cls-25" x="174.722" y="58.137" width="4.77" height="12.756" transform="translate(354.213 129.03) rotate(-180)"/></g></g><g id="side-2" data-name="side"><g id="шнуры-2" data-name="шнуры"><polyline class="cls-2" points="1.118 128.589 4.124 128.589 26.936 128.589"/><polyline class="cls-3" points="1.118 130.589 4.124 130.589 26.936 130.589"/><polyline class="cls-4" points="1.118 132.589 3.936 132.589 26.936 132.589"/></g><path class="cls-26" d="M96.282,80.132v73.51h-5.67v2.55H36.752v-2.55h-5.67V80.132a1.9,1.9,0,0,1,1.9-1.9h61.41A1.9,1.9,0,0,1,96.282,80.132Z"/><rect class="cls-27" x="18.333" y="89.555" width="90.702" height="4.252"/><rect class="cls-28" x="18.333" y="89.555" width="6.827" height="4.252"/><rect class="cls-29" x="102.208" y="89.555" width="6.827" height="4.252" transform="translate(211.244 183.362) rotate(-180)"/><g class="cls-6"><path class="cls-7" d="M95.432,80.132v73.51h-4.82v2.55H36.752v-2.55h-4.82V80.132a1.05,1.05,0,0,1,1.05-1.05h61.4A1.05,1.05,0,0,1,95.432,80.132Z"/></g><rect class="cls-30" x="33.057" y="75.402" width="25.488" height="2.835"/><g class="cls-6"><rect class="cls-7" x="33.057" y="75.402" width="25.488" height="2.835"/></g><rect class="cls-31" x="38.673" y="65.764" width="14.364" height="9.638"/><rect class="cls-10" x="38.673" y="65.764" width="0.432" height="9.638"/><rect class="cls-10" x="39.544" y="65.764" width="0.432" height="9.638"/><rect class="cls-10" x="40.414" y="65.764" width="0.432" height="9.638"/><rect class="cls-10" x="41.285" y="65.764" width="0.432" height="9.638"/><rect class="cls-10" x="42.156" y="65.764" width="0.432" height="9.638"/><rect class="cls-10" x="43.027" y="65.764" width="0.432" height="9.638"/><rect class="cls-10" x="43.897" y="65.764" width="0.432" height="9.638"/><rect class="cls-10" x="44.768" y="65.764" width="0.432" height="9.638"/><rect class="cls-10" x="45.639" y="65.764" width="0.432" height="9.638"/><rect class="cls-10" x="46.51" y="65.764" width="0.432" height="9.638"/><rect class="cls-10" x="47.38" y="65.764" width="0.432" height="9.638"/><rect class="cls-10" x="48.251" y="65.764" width="0.432" height="9.638"/><rect class="cls-10" x="49.122" y="65.764" width="0.432" height="9.638"/><rect class="cls-10" x="49.993" y="65.764" width="0.432" height="9.638"/><rect class="cls-10" x="50.863" y="65.764" width="0.432" height="9.638"/><rect class="cls-10" x="51.734" y="65.764" width="0.432" height="9.638"/><rect class="cls-10" x="52.605" y="65.764" width="0.432" height="9.638"/><g class="cls-16"><rect class="cls-17" x="31.086" y="96.94" width="65.197" height="31.181"/></g><rect class="cls-18" x="31.086" y="96.94" width="65.197" height="31.181"/><rect class="cls-32" x="31.086" y="96.94" width="0.851" height="31.181"/><rect class="cls-33" x="95.433" y="96.94" width="0.851" height="31.181"/><polygon class="cls-34" points="42.066 116.301 46.553 116.301 46.666 115.194 43.729 115.194 43.805 114.455 46.3 114.455 46.413 113.348 43.918 113.348 43.998 112.579 46.934 112.579 47.048 111.473 42.562 111.473 42.066 116.301"/><polygon class="cls-34" points="51.794 112.579 51.907 111.473 47.421 111.473 46.926 116.301 51.412 116.301 51.525 115.194 48.589 115.194 48.664 114.455 51.159 114.455 51.272 113.348 48.778 113.348 48.857 112.579 51.794 112.579"/><path class="cls-34" d="M71.048,103.186a14.029,14.029,0,0,0-6.266.57,46.739,46.739,0,0,0-5.439,2.134c-.876.405-1.789.843-2.628,1.269l-1.62.865-.662,8.257H51.857l.552-6.9c-.368.165-.758.331-1.163.48a11.907,11.907,0,0,1-3.577.763l-.162-1.883A13.708,13.708,0,0,0,52.63,107c.861-.432,1.737-.891,2.657-1.344.935-.448,1.825-.853,2.775-1.27a26.776,26.776,0,0,1,6.109-1.984C66.372,102,69.008,101.938,71.048,103.186Z"/><polygon class="cls-34" points="56.826 114.455 59.32 114.455 59.433 113.348 56.939 113.348 57.018 112.579 59.955 112.579 60.068 111.473 55.582 111.473 55.087 116.301 59.573 116.301 59.686 115.194 56.749 115.194 56.826 114.455"/><path class="cls-34" d="M63.483,114.673a.751.751,0,0,1-.218.277.981.981,0,0,1-.32.172,1.1,1.1,0,0,1-.777-.023.55.55,0,0,1-.246-.233.707.707,0,0,1-.069-.413l.121-1.179a.833.833,0,0,1,.159-.423.819.819,0,0,1,.327-.258,1.07,1.07,0,0,1,.778-.03.741.741,0,0,1,.268.166.556.556,0,0,1,.153.251l.059.214h1.546l-.047-.3a1.554,1.554,0,0,0-.371-.784,2.013,2.013,0,0,0-.8-.539,3.392,3.392,0,0,0-2.346.045,2.239,2.239,0,0,0-.907.66,1.8,1.8,0,0,0-.388.957l-.121,1.178a1.547,1.547,0,0,0,.2.969,1.713,1.713,0,0,0,.8.681,3,3,0,0,0,1.237.238,3.229,3.229,0,0,0,1.1-.186,2.566,2.566,0,0,0,.877-.52,1.945,1.945,0,0,0,.523-.767l.123-.337H63.566Z"/><polygon class="cls-34" points="69.071 111.473 68.876 113.366 67.102 113.366 67.297 111.473 65.747 111.473 65.252 116.301 66.801 116.301 66.989 114.472 68.763 114.472 68.575 116.301 70.125 116.301 70.62 111.473 69.071 111.473"/><polygon class="cls-34" points="43.032 110.719 43.175 109.326 36.921 109.357 37.588 109.381 35.53 109.308 36.915 109.408 36.898 109.576 35.506 109.566 37.543 109.789 36.884 109.717 36.866 109.894 37.536 109.912 35.494 109.856 36.853 110.012 36.836 110.179 35.444 110.171 37.485 110.392 36.822 110.32 36.806 110.472 37.471 110.52 35.458 110.376 37.456 110.696 36.794 110.59 36.773 110.791 37.449 110.792 35.384 110.788 36.759 110.931 36.74 111.114 37.412 111.128 35.371 111.087 37.391 111.304 36.728 111.233 36.71 111.41 37.383 111.427 35.342 111.377 36.697 111.532 36.68 111.702 37.362 111.699 35.289 111.708 36.665 111.846 36.647 112.022 35.276 111.995 36.635 112.143 36.612 112.36 35.218 112.403 37.274 112.515 36.6 112.478 36.583 112.643 35.189 112.707 37.238 112.819 36.569 112.782 36.554 112.925 37.231 112.947 35.189 112.88 37.209 113.123 36.542 113.043 36.522 113.238 35.15 113.222 36.51 113.359 36.493 113.521 37.173 113.523 35.108 113.516 36.479 113.66 36.46 113.842 37.136 113.854 35.094 113.819 37.115 114.035 36.448 113.964 36.429 114.15 35.059 114.133 37.086 114.339 36.416 114.271 36.401 114.425 37.086 114.43 35.016 114.414 36.386 114.565 36.363 114.787 37.042 114.766 34.971 114.83 36.351 114.905 36.336 115.057 34.971 115.03 36.324 115.175 36.307 115.339 36.991 115.342 34.924 115.333 36.962 115.55 36.292 115.479 36.273 115.665 36.948 115.673 34.903 115.648 36.933 115.854 36.261 115.786 36.245 115.943 36.926 115.945 34.862 115.938 36.23 116.086 36.219 116.198 36.89 116.225 34.833 116.141 36.882 116.301 38.168 116.301 38.446 113.589 42.073 113.589 42.216 112.197 38.589 112.197 38.741 110.719 43.032 110.719"/><rect class="cls-34" x="34.805" y="118.782" width="35.433" height="0.709"/><path class="cls-34" d="M36.651,125.2a4.763,4.763,0,0,1-.764-.166,3.773,3.773,0,0,1-.663-.277l.552-.432a3.035,3.035,0,0,0,.8.3,4.252,4.252,0,0,0,.944.1,2.789,2.789,0,0,0,1.066-.162c.253-.108.379-.26.379-.458v0a.388.388,0,0,0-.172-.333,1.191,1.191,0,0,0-.444-.183q-.271-.06-.7-.109a.12.12,0,0,0-.028,0,.12.12,0,0,1-.028,0l-.066-.008c-.423-.047-.768-.1-1.033-.156a1.615,1.615,0,0,1-.681-.319.8.8,0,0,1-.283-.658v0a.87.87,0,0,1,.263-.637,1.7,1.7,0,0,1,.768-.4,4.61,4.61,0,0,1,1.215-.139,4.664,4.664,0,0,1,1.945.421l-.505.449a3.6,3.6,0,0,0-.72-.253,3.106,3.106,0,0,0-.72-.085,2.456,2.456,0,0,0-1.008.165.513.513,0,0,0-.359.466v0a.371.371,0,0,0,.185.327,1.357,1.357,0,0,0,.461.175q.276.059.768.118l.033,0,.033,0,.048,0,.048.006a7.77,7.77,0,0,1,.959.178,1.551,1.551,0,0,1,.644.33.791.791,0,0,1,.259.624v.006a.84.84,0,0,1-.274.63,1.787,1.787,0,0,1-.8.4,4.947,4.947,0,0,1-1.255.138A6.442,6.442,0,0,1,36.651,125.2Z"/><path class="cls-34" d="M40.233,121.188H44.7v.537H40.233Zm1.788.33h.888v3.695h-.888Z"/><path class="cls-34" d="M46.429,125.2a4.75,4.75,0,0,1-.763-.166,3.752,3.752,0,0,1-.664-.277l.553-.432a3.015,3.015,0,0,0,.8.3,4.252,4.252,0,0,0,.944.1,2.8,2.8,0,0,0,1.067-.162c.252-.108.378-.26.378-.458v0a.388.388,0,0,0-.172-.333,1.179,1.179,0,0,0-.443-.183c-.182-.04-.416-.076-.7-.109a.118.118,0,0,0-.027,0,.129.129,0,0,1-.029,0l-.065-.008c-.424-.047-.768-.1-1.034-.156a1.615,1.615,0,0,1-.681-.319.8.8,0,0,1-.283-.658v0a.87.87,0,0,1,.263-.637,1.7,1.7,0,0,1,.768-.4,4.616,4.616,0,0,1,1.215-.139,4.664,4.664,0,0,1,1.945.421l-.505.449a3.578,3.578,0,0,0-.72-.253,3.093,3.093,0,0,0-.72-.085,2.454,2.454,0,0,0-1.007.165.512.512,0,0,0-.36.466v0a.371.371,0,0,0,.185.327,1.371,1.371,0,0,0,.462.175q.276.059.768.118l.032,0a.193.193,0,0,1,.033,0l.048,0,.048.006a7.734,7.734,0,0,1,.959.178,1.545,1.545,0,0,1,.644.33.787.787,0,0,1,.259.624v.006a.84.84,0,0,1-.274.63,1.788,1.788,0,0,1-.794.4,4.955,4.955,0,0,1-1.256.138A6.453,6.453,0,0,1,46.429,125.2Z"/><path class="cls-34" d="M51.452,125.131a1.6,1.6,0,0,1-.651-.357,1.033,1.033,0,0,1-.311-.563H51.4a.509.509,0,0,0,.17.282.838.838,0,0,0,.337.165,1.936,1.936,0,0,0,.485.054,1.3,1.3,0,0,0,.683-.15.467.467,0,0,0,.244-.42v-.122a.536.536,0,0,0-.231-.466,1.1,1.1,0,0,0-.652-.165h-.449v-.537h.449a.994.994,0,0,0,.574-.142.454.454,0,0,0,.2-.4v-.124a.407.407,0,0,0-.215-.369,1.183,1.183,0,0,0-.611-.131,1.4,1.4,0,0,0-.405.055.77.77,0,0,0-.3.166.643.643,0,0,0-.181.281h-.9a1.208,1.208,0,0,1,.329-.565,1.567,1.567,0,0,1,.611-.356,2.687,2.687,0,0,1,.849-.123,2.421,2.421,0,0,1,1.266.275.858.858,0,0,1,.449.771v.067a.68.68,0,0,1-.257.526,1.61,1.61,0,0,1-.727.327,1.5,1.5,0,0,1,.8.324.818.818,0,0,1,.285.642v.067a.892.892,0,0,1-.213.6,1.326,1.326,0,0,1-.62.379,3.667,3.667,0,0,1-1.917.007Z"/><path class="cls-34" d="M55.923,124.953a.954.954,0,0,1-.459-.842v-1.83a.954.954,0,0,1,.461-.843,3.17,3.17,0,0,1,2.692,0,.95.95,0,0,1,.459.843v1.83a.952.952,0,0,1-.461.843,3.155,3.155,0,0,1-2.692,0Zm2.041-.392a.515.515,0,0,0,.224-.45v-1.83a.519.519,0,0,0-.222-.45,1.631,1.631,0,0,0-1.392,0,.519.519,0,0,0-.222.45v1.83a.513.513,0,0,0,.224.45,1.612,1.612,0,0,0,1.388,0Z"/><path class="cls-34" d="M61.082,125.131a1.6,1.6,0,0,1-.651-.357,1.046,1.046,0,0,1-.311-.563h.905a.509.509,0,0,0,.17.282.844.844,0,0,0,.337.165,1.939,1.939,0,0,0,.486.054,1.306,1.306,0,0,0,.683-.15.468.468,0,0,0,.243-.42v-.122a.536.536,0,0,0-.23-.466,1.1,1.1,0,0,0-.653-.165h-.448v-.537h.448a1,1,0,0,0,.575-.142.456.456,0,0,0,.2-.4v-.124a.409.409,0,0,0-.215-.369,1.189,1.189,0,0,0-.612-.131,1.4,1.4,0,0,0-.405.055.785.785,0,0,0-.3.166.643.643,0,0,0-.181.281h-.9a1.206,1.206,0,0,1,.328-.565,1.564,1.564,0,0,1,.612-.356,2.681,2.681,0,0,1,.848-.123,2.425,2.425,0,0,1,1.267.275.857.857,0,0,1,.448.771v.067a.68.68,0,0,1-.257.526,1.6,1.6,0,0,1-.727.327,1.5,1.5,0,0,1,.8.324.818.818,0,0,1,.286.642v.067a.893.893,0,0,1-.214.6,1.326,1.326,0,0,1-.62.379,3.667,3.667,0,0,1-1.917.007Z"/><path class="cls-34" d="M65,124.723l2.206-1.871a1.4,1.4,0,0,0,.3-.334.626.626,0,0,0,.107-.323v0a.415.415,0,0,0-.222-.374,1.243,1.243,0,0,0-.631-.132,1.188,1.188,0,0,0-.627.145.6.6,0,0,0-.291.411v0H64.92v0a1.222,1.222,0,0,1,.32-.592,1.557,1.557,0,0,1,.625-.373,2.766,2.766,0,0,1,.884-.129,3.313,3.313,0,0,1,.965.124,1.313,1.313,0,0,1,.61.358.826.826,0,0,1,.209.567v0a.876.876,0,0,1-.139.446,1.955,1.955,0,0,1-.388.449l-1.832,1.583h2.393v.537H65Z"/><rect class="cls-10" x="56.567" y="115.751" width="43.937" height="11.339" transform="translate(-42.885 199.956) rotate(-90)"/><rect class="cls-35" x="59.26" y="115.751" width="38.551" height="11.339" transform="translate(-42.885 199.956) rotate(-90)"/><rect class="cls-36" x="59.26" y="115.751" width="38.551" height="11.339" transform="translate(-42.885 199.956) rotate(-90)"/><rect class="cls-37" x="26.936" y="126.037" width="4.15" height="9.354"/><rect class="cls-38" x="22.582" y="127.313" width="4.462" height="6.803"/><path class="cls-39" d="M91.584,153.638h4.7a0,0,0,0,1,0,0v1.276a1.276,1.276,0,0,1-1.276,1.276H92.859a1.276,1.276,0,0,1-1.276-1.276v-1.276a0,0,0,0,1,0,0Z"/><path class="cls-40" d="M31.082,153.638h4.7a0,0,0,0,1,0,0v1.276a1.276,1.276,0,0,1-1.276,1.276H32.358a1.276,1.276,0,0,1-1.276-1.276v-1.276A0,0,0,0,1,31.082,153.638Z"/><g id="крутилка_side-2" data-name="крутилка side"><polygon class="cls-23" points="105.201 58.137 57.012 58.137 34.335 58.137 34.335 62.956 34.335 70.893 57.012 70.893 57.012 62.956 105.201 62.956 105.201 58.137"/><rect class="cls-41" x="34.335" y="58.137" width="4.77" height="12.756"/><rect class="cls-42" x="52.262" y="62.926" width="4.77" height="7.966" transform="translate(109.294 133.819) rotate(-180)"/></g></g><g id="top"><g id="шнуры-3" data-name="шнуры"><polyline class="cls-2" points="1.063 14.882 7.965 14.882 30.777 14.882"/><polyline class="cls-3" points="1.063 16.882 7.965 16.882 30.777 16.882"/><polyline class="cls-4" points="1.063 18.882 7.777 18.882 30.777 18.882"/></g><path class="cls-43" d="M101.952,19.276a2.268,2.268,0,0,1,0-4.536h7.087V2.9a2.9,2.9,0,0,0-2.9-2.9h-84.9A2.9,2.9,0,0,0,18.33,2.9V14.74h7.087a2.268,2.268,0,0,1,0,4.536H18.33V31.111a2.905,2.905,0,0,0,2.905,2.9h84.9a2.9,2.9,0,0,0,2.9-2.9V19.276ZM24.141,31.748a3.544,3.544,0,1,1,3.544-3.543A3.543,3.543,0,0,1,24.141,31.748ZM103.156,2.2a3.543,3.543,0,1,1-3.543,3.543A3.543,3.543,0,0,1,103.156,2.2ZM24.141,9.354a3.543,3.543,0,1,1,3.544-3.543A3.543,3.543,0,0,1,24.141,9.354Zm79.015,22.322a3.544,3.544,0,1,1,3.543-3.543A3.543,3.543,0,0,1,103.156,31.676Z"/><rect class="cls-44" x="31.086" width="65.197" height="34.016" rx="2.462"/><rect class="cls-45" x="47.527" y="-14.74" width="32.315" height="63.496" rx="1.612" transform="translate(80.692 -46.676) rotate(90)"/><circle class="cls-46" cx="45.873" cy="17.008" r="12.756"/><path class="cls-47" d="M45.873,28.914A11.907,11.907,0,1,1,57.779,17.008,11.919,11.919,0,0,1,45.873,28.914Z"/><path class="cls-48" d="M45.872,24.164c-.143,0-.275-.285-.416-.293s-.308.258-.447.241-.239-.315-.378-.341-.337.219-.474.185-.2-.342-.333-.384-.361.176-.493.126-.155-.363-.283-.422-.379.132-.5.066-.11-.38-.23-.453-.392.085-.508,0-.064-.39-.174-.477-.4.037-.5-.057-.016-.395-.116-.494-.4-.011-.5-.117.032-.393-.056-.5-.4-.059-.477-.175.079-.387.005-.508-.387-.105-.452-.23.124-.375.066-.5-.372-.151-.422-.283.169-.357.127-.492-.35-.2-.384-.332.211-.334.185-.473-.323-.236-.34-.376.249-.306.241-.448-.293-.274-.293-.416.284-.275.293-.416-.258-.308-.242-.447.316-.239.342-.378-.219-.337-.186-.474.343-.2.385-.333-.177-.361-.127-.492.364-.156.422-.284-.131-.379-.065-.5.379-.11.452-.23-.084-.392,0-.508.39-.063.477-.174-.037-.4.056-.505.4-.016.5-.116.01-.4.116-.5.394.032.5-.056.058-.4.174-.477.387.079.508.005.106-.386.231-.452.375.124.5.066.151-.371.283-.422.356.169.491.127.2-.35.333-.384.333.211.473.185.235-.323.376-.34.306.249.448.241.273-.293.416-.293.275.285.415.293.308-.258.448-.241.239.315.378.341.337-.219.474-.186.2.343.333.385.36-.177.492-.126.155.363.284.421.379-.131.5-.065.109.379.23.453.392-.085.508-.005.063.39.174.477.4-.037.5.056.016.4.116.5.4.011.494.116-.031.394.056.505.4.058.477.174-.078.387,0,.508.387.106.453.231-.124.375-.066.5.371.151.421.283-.168.356-.126.491.35.2.384.333-.211.333-.186.473.324.235.341.376-.25.306-.241.448.293.273.293.416-.285.275-.293.415.258.308.241.448-.316.239-.341.378.219.337.185.474-.342.2-.384.333.176.36.126.492-.364.155-.422.284.132.379.066.5-.38.109-.453.23.085.392.005.508-.39.063-.478.174.038.4-.056.5-.395.016-.494.116-.011.4-.117.494-.393-.031-.5.056-.059.4-.175.477-.387-.078-.508-.005-.105.387-.23.453-.375-.124-.5-.066-.151.371-.283.422-.357-.169-.492-.127-.2.35-.332.384-.334-.211-.474-.186-.235.324-.375.341-.306-.25-.448-.241S46.014,24.164,45.872,24.164Z"/><path class="cls-49" d="M45.873,23.559a6.552,6.552,0,1,1,6.551-6.551A6.559,6.559,0,0,1,45.873,23.559Z"/><path class="cls-50" d="M45.872,21.543a4.535,4.535,0,1,1,4.535-4.535A4.54,4.54,0,0,1,45.872,21.543Z"/><path class="cls-51" d="M45.872,20.835A3.827,3.827,0,1,1,49.7,17.008,3.832,3.832,0,0,1,45.872,20.835Z"/><g id="крутилка_top" data-name="крутилка top"><path class="cls-52" d="M52.841,17.013c0-.15-.29-.28-.3-.42s.26-.31.24-.45-.31-.24-.34-.37.22-.34.19-.48-.34-.2-.39-.33.18-.36.13-.49-.36-.16-.42-.28.13-.38.07-.51-.38-.11-.46-.23.09-.39.01-.51-.39-.06-.48-.17.04-.4-.05-.51-.4-.01-.5-.11-.01-.4-.11-.5-.4.03-.51-.05-.06-.4-.17-.48-.39.08-.51,0-.11-.38-.23-.45-.38.13-.51.07-.15-.37-.28-.42-.36.16-.49.12-.2-.35-.34-.38-.33.21-.47.18-.24-.32-.38-.34a.014.014,0,0,0-.02,0c-.13,0-.29.25-.42.24s-.27-.28-.41-.29a.127.127,0,0,0-.06.01c-.13.06-.25.27-.37.28s-.25-.18-.37-.23a.2.2,0,0,0-.07-.01.086.086,0,0,0-.06.03c-.11.07-.2.29-.32.31s-.29-.16-.41-.17a.047.047,0,0,0-.06-.01c-.02.01-.05.02-.06.04-.1.09-.16.31-.28.34-.1.03-.27-.1-.4-.13a.139.139,0,0,0-.09,0,.09.09,0,0,0-.06.06c-.08.11-.12.32-.22.37s-.29-.07-.41-.09a.2.2,0,0,0-.09.02.138.138,0,0,0-.03.04c-.01.01-.01.01-.02.01-.08.11-.08.34-.18.4s-.29-.02-.42-.02H41.7c-.04,0-.06,0-.08.02a.158.158,0,0,0-.05.08c-.06.12-.04.33-.13.39s-.27.01-.4.02a.232.232,0,0,0-.1.04.16.16,0,0,0-.05.1c-.03.13.01.31-.07.39s-.25.04-.38.07h-.01a.16.16,0,0,0-.1.05.182.182,0,0,0-.04.11c-.01.13.05.31-.02.4s-.26.07-.38.11a.144.144,0,0,0-.1.06.164.164,0,0,0-.02.1c0,.14.08.32.03.41s-.26.1-.37.17a.1.1,0,0,0-.08.06.184.184,0,0,0-.01.13c.03.12.11.28.07.37s-.22.13-.33.19a.213.213,0,0,0-.09.1.2.2,0,0,0,.01.13v.01c.05.12.15.25.12.35s-.2.15-.3.23a.213.213,0,0,0-.09.1.167.167,0,0,0,.03.13c-.01,0-.01,0,0,.01.06.11.17.23.16.33s-.16.17-.26.26a.164.164,0,0,0-.08.12.147.147,0,0,0,.04.12v.01c.07.11.21.22.2.32s-.15.19-.23.29a.147.147,0,0,0,0,.25c.08.1.22.19.23.29s-.13.22-.2.33a.147.147,0,0,0-.04.12.164.164,0,0,0,.08.12c.1.09.24.17.26.26s-.1.21-.16.33a.254.254,0,0,0-.03.14.208.208,0,0,0,.1.11c.1.07.26.13.29.22s-.07.23-.12.35a.174.174,0,0,0-.01.14c.01.04.05.06.09.09.11.06.29.11.33.2s-.04.24-.07.37a.193.193,0,0,0,0,.13.218.218,0,0,0,.09.07h.01c.12.05.3.07.36.16s-.03.27-.03.4a.2.2,0,0,0,.02.11.168.168,0,0,0,.11.06c.12.03.3.03.37.11s.02.25.02.38v.01a.156.156,0,0,0,.03.12.125.125,0,0,0,.11.04h.01c.13.03.31,0,.38.07s.04.25.06.38a.22.22,0,0,0,.05.12.159.159,0,0,0,.12.04c.13,0,.31-.05.39.01s.08.26.11.38v.01a.2.2,0,0,0,.06.09.149.149,0,0,0,.09.02c.14,0,.33-.08.42-.02s.11.28.18.39a.1.1,0,0,0,.05.06.164.164,0,0,0,.1.01c.13-.01.31-.12.41-.08s.13.26.22.37a.09.09,0,0,0,.06.06.139.139,0,0,0,.09,0c.13-.03.3-.16.4-.13.12.03.18.25.28.34.01.02.04.03.06.04a.047.047,0,0,0,.06-.01c.12-.01.29-.2.41-.17s.21.24.32.31a.086.086,0,0,0,.06.03.2.2,0,0,0,.07-.01c.12-.05.25-.24.37-.23s.24.22.37.28a.127.127,0,0,0,.06.01c.14-.01.27-.28.41-.29s.29.24.42.24a.014.014,0,0,0,.02,0c.14-.02.24-.32.38-.34s.34.22.47.18.2-.34.34-.38.36.18.49.13.15-.37.28-.42.38.13.5.06.11-.38.23-.45.4.08.51,0,.07-.39.18-.47.4.03.5-.06.02-.39.12-.49.4-.01.49-.12-.03-.39.06-.5.4-.06.48-.18-.08-.39-.01-.51.39-.1.45-.23-.12-.37-.06-.5.37-.15.42-.28-.17-.36-.13-.5.35-.19.39-.33-.21-.33-.19-.47.33-.24.34-.38-.25-.31-.24-.45S52.841,17.153,52.841,17.013Zm-6.77,3.8a1.829,1.829,0,0,1-.33.02c-.13,0-.26-.01-.39-.02s-.24-.03-.36-.05a3.829,3.829,0,0,1,0-7.51c.12-.02.24-.04.36-.05s.26-.02.39-.02a1.829,1.829,0,0,1,.33.02,3.824,3.824,0,0,1,0,7.61Z"/><path class="cls-23" d="M49.021,10.686s-.006-.011-.01-.013-.011,0-.016,0a7.02,7.02,0,0,0-.762-.337s-.007-.01-.012-.012-.015,0-.022,0a6.922,6.922,0,0,0-.808-.261,4.729,4.729,0,0,0-.85-.16.014.014,0,0,0-.02,0,5.028,5.028,0,0,0-.78-.05h-.05a.127.127,0,0,0-.06.01,3.636,3.636,0,0,0-.74.05.2.2,0,0,0-.07-.01.086.086,0,0,0-.06.03,3.621,3.621,0,0,0-.73.14.047.047,0,0,0-.06-.01c-.02.01-.05.02-.06.04a4.109,4.109,0,0,0-.68.21.139.139,0,0,0-.09,0,.09.09,0,0,0-.06.06,4.465,4.465,0,0,0-.63.28.2.2,0,0,0-.09.02.138.138,0,0,0-.03.04c-.01.01-.01.01-.02.01a6.1,6.1,0,0,0-.6.38H41.7c-.04,0-.06,0-.08.02a.158.158,0,0,0-.05.08,4.168,4.168,0,0,0-.53.41.232.232,0,0,0-.1.04.16.16,0,0,0-.05.1,3.9,3.9,0,0,0-.45.46h-.01a.16.16,0,0,0-.1.05.182.182,0,0,0-.04.11,4.992,4.992,0,0,0-.4.51.144.144,0,0,0-.1.06.164.164,0,0,0-.02.1c-.12.19-.23.38-.34.58a.1.1,0,0,0-.08.06.184.184,0,0,0-.01.13,4.05,4.05,0,0,0-.26.56.213.213,0,0,0-.09.1.2.2,0,0,0,.01.13v.01a2.994,2.994,0,0,0-.18.58.213.213,0,0,0-.09.1.167.167,0,0,0,.03.13c-.01,0-.01,0,0,.01a2.911,2.911,0,0,0-.1.59.164.164,0,0,0-.08.12.147.147,0,0,0,.04.12v.01a4.088,4.088,0,0,0-.03.61.147.147,0,0,0,0,.25,4.223,4.223,0,0,0,.03.62.147.147,0,0,0-.04.12.164.164,0,0,0,.08.12,3.826,3.826,0,0,0,.1.59.254.254,0,0,0-.03.14.208.208,0,0,0,.1.11,3.737,3.737,0,0,0,.17.57.174.174,0,0,0-.01.14c.01.04.05.06.09.09a3.682,3.682,0,0,0,.26.57.193.193,0,0,0,0,.13.218.218,0,0,0,.09.07h.01c.1.2.22.38.33.56a.2.2,0,0,0,.02.11.168.168,0,0,0,.11.06,3.49,3.49,0,0,0,.39.49v.01a.156.156,0,0,0,.03.12.125.125,0,0,0,.11.04h.01a2.681,2.681,0,0,0,.44.45.22.22,0,0,0,.05.12.159.159,0,0,0,.12.04,4.78,4.78,0,0,0,.5.39v.01a.2.2,0,0,0,.06.09.149.149,0,0,0,.09.02,6.023,6.023,0,0,0,.6.37.1.1,0,0,0,.05.06.164.164,0,0,0,.1.01,4.508,4.508,0,0,0,.63.29.09.09,0,0,0,.06.06.139.139,0,0,0,.09,0,4.109,4.109,0,0,0,.68.21c.01.02.04.03.06.04a.047.047,0,0,0,.06-.01,3.621,3.621,0,0,0,.73.14.086.086,0,0,0,.06.03.2.2,0,0,0,.07-.01,3.636,3.636,0,0,0,.74.05.127.127,0,0,0,.06.01h.05a5.028,5.028,0,0,0,.78-.05.014.014,0,0,0,.02,0,7.125,7.125,0,0,0,2.48-13.427Zm-2.95,10.127a1.829,1.829,0,0,1-.33.02c-.13,0-.26-.01-.39-.02s-.24-.03-.36-.05a3.815,3.815,0,0,1,0-7.51c.12-.02.24-.04.36-.05s.26-.02.39-.02a1.829,1.829,0,0,1,.33.02,3.824,3.824,0,0,1,0,7.61Zm-.69,7.52c.1.01.2.01.3.01a11.159,11.159,0,0,0,2.1-.2Z"/><path class="cls-23" d="M98.121,9.923,46.9,5.743q-.36-.045-.72-.06c-.16-.01-.33-.01-.5-.01-.12,0-.25,0-.37.01A11.333,11.333,0,0,0,45,28.323c.05,0,.11.01.17.01h.21l2.4-.19,50.34-4.04a7.09,7.09,0,0,0,0-14.18Zm-51.58,14.19a.014.014,0,0,1-.02,0,5.028,5.028,0,0,1-.78.05h-.05a.127.127,0,0,1-.06-.01,3.636,3.636,0,0,1-.74-.05.2.2,0,0,1-.07.01.086.086,0,0,1-.06-.03,3.621,3.621,0,0,1-.73-.14.047.047,0,0,1-.06.01c-.02-.01-.05-.02-.06-.04a4.109,4.109,0,0,1-.68-.21.139.139,0,0,1-.09,0,.09.09,0,0,1-.06-.06,4.508,4.508,0,0,1-.63-.29.164.164,0,0,1-.1-.01.1.1,0,0,1-.05-.06,6.023,6.023,0,0,1-.6-.37.149.149,0,0,1-.09-.02.2.2,0,0,1-.06-.09v-.01a4.78,4.78,0,0,1-.5-.39.159.159,0,0,1-.12-.04.22.22,0,0,1-.05-.12,2.681,2.681,0,0,1-.44-.45h-.01a.125.125,0,0,1-.11-.04.156.156,0,0,1-.03-.12v-.01a3.49,3.49,0,0,1-.39-.49.168.168,0,0,1-.11-.06.2.2,0,0,1-.02-.11c-.11-.18-.23-.36-.33-.56h-.01a.218.218,0,0,1-.09-.07.193.193,0,0,1,0-.13,3.682,3.682,0,0,1-.26-.57c-.04-.03-.08-.05-.09-.09A.174.174,0,0,1,39,19.4a3.737,3.737,0,0,1-.17-.57.208.208,0,0,1-.1-.11.254.254,0,0,1,.03-.14,3.826,3.826,0,0,1-.1-.59.164.164,0,0,1-.08-.12.147.147,0,0,1,.04-.12,4.223,4.223,0,0,1-.03-.62.147.147,0,0,1,0-.25,4.088,4.088,0,0,1,.03-.61v-.01a.147.147,0,0,1-.04-.12.164.164,0,0,1,.08-.12,2.911,2.911,0,0,1,.1-.59c-.01-.01-.01-.01,0-.01a.167.167,0,0,1-.03-.13.213.213,0,0,1,.09-.1,2.994,2.994,0,0,1,.18-.58V14.6a.2.2,0,0,1-.01-.13.213.213,0,0,1,.09-.1,4.05,4.05,0,0,1,.26-.56.184.184,0,0,1,.01-.13.1.1,0,0,1,.08-.06c.11-.2.22-.39.34-.58a.164.164,0,0,1,.02-.1.144.144,0,0,1,.1-.06,4.992,4.992,0,0,1,.4-.51.182.182,0,0,1,.04-.11.16.16,0,0,1,.1-.05h.01a3.9,3.9,0,0,1,.45-.46.16.16,0,0,1,.05-.1.232.232,0,0,1,.1-.04,4.168,4.168,0,0,1,.53-.41.158.158,0,0,1,.05-.08c.02-.02.04-.02.08-.02h.01a6.1,6.1,0,0,1,.6-.38c.01,0,.01,0,.02-.01a.138.138,0,0,1,.03-.04.2.2,0,0,1,.09-.02,4.465,4.465,0,0,1,.63-.28.09.09,0,0,1,.06-.06.139.139,0,0,1,.09,0,4.109,4.109,0,0,1,.68-.21c.01-.02.04-.03.06-.04a.047.047,0,0,1,.06.01,3.621,3.621,0,0,1,.73-.14.086.086,0,0,1,.06-.03.2.2,0,0,1,.07.01,3.636,3.636,0,0,1,.74-.05.127.127,0,0,1,.06-.01h.05a5.028,5.028,0,0,1,.78.05.014.014,0,0,1,.02,0,4.729,4.729,0,0,1,.85.16,7.141,7.141,0,0,1-.85,14.05Zm27.2-5.13A1.98,1.98,0,1,1,75.721,17,1.98,1.98,0,0,1,73.741,18.983Zm8.12,0A1.98,1.98,0,1,1,83.851,17,1.978,1.978,0,0,1,81.861,18.983Zm8.13,0A1.98,1.98,0,1,1,91.971,17,1.98,1.98,0,0,1,89.991,18.983Zm8.12,0A1.98,1.98,0,1,1,100.1,17,1.978,1.978,0,0,1,98.111,18.983Z"/><path class="cls-53" d="M49.021,10.686s-.006-.011-.01-.013-.011,0-.016,0a7.02,7.02,0,0,0-.762-.337s-.007-.01-.012-.012-.015,0-.022,0a6.922,6.922,0,0,0-.808-.261,4.729,4.729,0,0,0-.85-.16.014.014,0,0,0-.02,0,5.028,5.028,0,0,0-.78-.05h-.05a.127.127,0,0,0-.06.01,3.636,3.636,0,0,0-.74.05.274.274,0,0,0-.13.02,3.621,3.621,0,0,0-.73.14.266.266,0,0,0-.12.03,4.109,4.109,0,0,0-.68.21.471.471,0,0,0-.15.06,4.465,4.465,0,0,0-.63.28l-.12.06c-.01.01-.01.01-.02.01a6.1,6.1,0,0,0-.6.38H41.7a.642.642,0,0,0-.13.1,4.168,4.168,0,0,0-.53.41,1.92,1.92,0,0,0-.15.14,3.9,3.9,0,0,0-.45.46h-.01a1.07,1.07,0,0,0-.14.16,4.992,4.992,0,0,0-.4.51c-.04.05-.08.1-.12.16-.12.19-.23.38-.34.58a.818.818,0,0,0-.09.19,4.05,4.05,0,0,0-.26.56,1.555,1.555,0,0,0-.08.23v.01a2.994,2.994,0,0,0-.18.58.865.865,0,0,0-.06.23c-.01,0-.01,0,0,.01a2.911,2.911,0,0,0-.1.59,2,2,0,0,0-.04.24v.01a4.088,4.088,0,0,0-.03.61.487.487,0,0,0-.01.12.57.57,0,0,0,.01.13,4.223,4.223,0,0,0,.03.62,2,2,0,0,0,.04.24,3.826,3.826,0,0,0,.1.59.783.783,0,0,0,.07.25,3.737,3.737,0,0,0,.17.57,1.555,1.555,0,0,0,.08.23,3.682,3.682,0,0,0,.26.57c.03.07.06.14.09.2h.01c.1.2.22.38.33.56a1.092,1.092,0,0,0,.13.17,3.49,3.49,0,0,0,.39.49v.01a1,1,0,0,0,.14.16h.01a2.681,2.681,0,0,0,.44.45,1.288,1.288,0,0,0,.17.16,4.78,4.78,0,0,0,.5.39v.01c.05.04.1.07.15.11a6.023,6.023,0,0,0,.6.37,1.009,1.009,0,0,0,.15.07,4.508,4.508,0,0,0,.63.29.471.471,0,0,0,.15.06,4.109,4.109,0,0,0,.68.21.266.266,0,0,0,.12.03,3.621,3.621,0,0,0,.73.14.274.274,0,0,0,.13.02,3.636,3.636,0,0,0,.74.05.127.127,0,0,0,.06.01h.05a5.028,5.028,0,0,0,.78-.05.014.014,0,0,0,.02,0,7.125,7.125,0,0,0,2.48-13.427Zm-2.95,10.127a1.829,1.829,0,0,1-.33.02c-.13,0-.26-.01-.39-.02s-.24-.03-.36-.05a3.829,3.829,0,0,1,0-7.51c.12-.02.24-.04.36-.05s.26-.02.39-.02a1.829,1.829,0,0,1,.33.02,3.824,3.824,0,0,1,0,7.61Z"/></g></g></g></g></svg>