<svg xmlns="http://www.w3.org/2000/svg" xmlns:xlink="http://www.w3.org/1999/xlink" viewBox="0 0 184.883 156.192"><defs><style>.cls-1{isolation:isolate;}.cls-14,.cls-2,.cls-3,.cls-4,.cls-41{fill:none;stroke-miterlimit:10;}.cls-2{stroke:#231f20;}.cls-2,.cls-3,.cls-4{stroke-linecap:round;stroke-width:2.126px;}.cls-14,.cls-3{stroke:#404041;}.cls-4{stroke:#eaeae9;}.cls-5{fill:url(#linear-gradient);}.cls-6{fill:url(#linear-gradient-2);}.cls-7{fill:#a6a8ab;}.cls-8{fill:url(#linear-gradient-3);}.cls-9{fill:#58595b;}.cls-10{fill:#808184;}.cls-11{fill:url(#linear-gradient-4);}.cls-12{fill:url(#linear-gradient-5);}.cls-13{fill:url(#linear-gradient-6);}.cls-14,.cls-41{stroke-width:0.283px;}.cls-14{opacity:0.53;mix-blend-mode:darken;}.cls-15{fill:#ef493c;}.cls-16{fill:#ac2324;}.cls-17{fill:#ef5656;}.cls-18{fill:url(#linear-gradient-7);}.cls-19{fill:url(#linear-gradient-8);}.cls-20{fill:#e6e7e8;}.cls-21{fill:url(#linear-gradient-9);}.cls-22{fill:url(#linear-gradient-10);}.cls-23{fill:url(#linear-gradient-11);}.cls-24{fill:url(#linear-gradient-12);}.cls-25{fill:url(#linear-gradient-13);}.cls-26{fill:url(#linear-gradient-14);}.cls-27{fill:url(#linear-gradient-15);}.cls-28{fill:#fff;}.cls-29{fill:url(#linear-gradient-16);}.cls-30{fill:url(#linear-gradient-17);}.cls-31{fill:#6d6e70;}.cls-32{fill:url(#linear-gradient-18);}.cls-33{fill:url(#linear-gradient-19);}.cls-34{fill:url(#linear-gradient-20);}.cls-35{fill:url(#linear-gradient-21);}.cls-36,.cls-42{fill:#bbbdbf;}.cls-37{fill:url(#radial-gradient);}.cls-38{fill:url(#radial-gradient-2);}.cls-39{fill:#929497;}.cls-40{fill:#404041;}.cls-41{stroke:#929497;}.cls-42{opacity:0.43;}.cls-43{fill:url(#linear-gradient-22);}.cls-44{fill:url(#linear-gradient-23);}</style><linearGradient id="linear-gradient" x1="150.868" y1="117.212" x2="184.883" y2="117.212" gradientUnits="userSpaceOnUse"><stop offset="0" stop-color="#6d6e70"/><stop offset="0.716" stop-color="#a4a6a8"/><stop offset="1" stop-color="#bbbdbf"/></linearGradient><linearGradient id="linear-gradient-2" x1="151.311" y1="117.637" x2="184.439" y2="117.637" gradientUnits="userSpaceOnUse"><stop offset="0" stop-color="#929497"/><stop offset="1" stop-color="#a6a8ab"/></linearGradient><linearGradient id="linear-gradient-3" x1="160.747" y1="70.583" x2="175.111" y2="70.583" gradientUnits="userSpaceOnUse"><stop offset="0" stop-color="#3b3b3b"/><stop offset="0.221" stop-color="#656667"/><stop offset="0.428" stop-color="#86888b"/><stop offset="0.539" stop-color="#939598"/><stop offset="0.787" stop-color="#a1a3a6"/><stop offset="1" stop-color="#a6a8ab"/></linearGradient><linearGradient id="linear-gradient-4" x1="150.867" y1="91.681" x2="153.428" y2="91.681" gradientUnits="userSpaceOnUse"><stop offset="0" stop-color="#e6e7e8" stop-opacity="0.3"/><stop offset="0.104" stop-color="#c2c3c4" stop-opacity="0.549"/><stop offset="0.227" stop-color="#a4a5a8" stop-opacity="0.75"/><stop offset="0.376" stop-color="#909193" stop-opacity="0.893"/><stop offset="0.571" stop-color="#838487" stop-opacity="0.976"/><stop offset="1" stop-color="#808184"/></linearGradient><linearGradient id="linear-gradient-5" x1="285.826" y1="91.681" x2="288.386" y2="91.681" gradientTransform="matrix(1, 0, 0, -1, -103.503, 183.362)" xlink:href="#linear-gradient-4"/><linearGradient id="linear-gradient-6" x1="165.636" y1="91.681" x2="170.114" y2="91.681" gradientTransform="translate(259.556 -76.194) rotate(90)" gradientUnits="userSpaceOnUse"><stop offset="0" stop-color="#6d6e70"/><stop offset="0.047" stop-color="#666769"/><stop offset="0.215" stop-color="#515153"/><stop offset="0.378" stop-color="#444445"/><stop offset="0.525" stop-color="#404041"/><stop offset="0.677" stop-color="#434344"/><stop offset="0.802" stop-color="#4d4d4e"/><stop offset="0.916" stop-color="#5d5e5f"/><stop offset="0.994" stop-color="#6d6e70"/></linearGradient><linearGradient id="linear-gradient-7" x1="182.432" y1="154.913" x2="184.883" y2="154.913" xlink:href="#linear-gradient"/><linearGradient id="linear-gradient-8" x1="150.868" y1="154.913" x2="153.319" y2="154.913" xlink:href="#linear-gradient"/><linearGradient id="linear-gradient-9" x1="156.58" y1="64.515" x2="161.35" y2="64.515" gradientUnits="userSpaceOnUse"><stop offset="0" stop-color="#fff" stop-opacity="0.3"/><stop offset="0.05" stop-color="#fafbfb" stop-opacity="0.429"/><stop offset="0.121" stop-color="#f5f5f6" stop-opacity="0.581"/><stop offset="0.199" stop-color="#f0f1f1" stop-opacity="0.712"/><stop offset="0.286" stop-color="#ecedee" stop-opacity="0.818"/><stop offset="0.385" stop-color="#eaeaeb" stop-opacity="0.9"/><stop offset="0.503" stop-color="#e8e8e9" stop-opacity="0.957"/><stop offset="0.659" stop-color="#e6e7e8" stop-opacity="0.99"/><stop offset="1" stop-color="#e6e7e8"/></linearGradient><linearGradient id="linear-gradient-10" x1="301.377" y1="64.515" x2="306.147" y2="64.515" gradientTransform="matrix(1, 0, 0, -1, -126.869, 129.03)" xlink:href="#linear-gradient-9"/><linearGradient id="linear-gradient-11" x1="30.869" y1="117.212" x2="96.069" y2="117.212" xlink:href="#linear-gradient"/><linearGradient id="linear-gradient-12" x1="18.12" y1="91.681" x2="24.947" y2="91.681" xlink:href="#linear-gradient-4"/><linearGradient id="linear-gradient-13" x1="361.887" y1="91.681" x2="368.714" y2="91.681" gradientTransform="matrix(1, 0, 0, -1, -259.893, 183.362)" xlink:href="#linear-gradient-4"/><linearGradient id="linear-gradient-14" x1="31.719" y1="117.637" x2="95.219" y2="117.637" xlink:href="#linear-gradient-2"/><linearGradient id="linear-gradient-15" x1="38.459" y1="70.583" x2="52.823" y2="70.583" xlink:href="#linear-gradient-3"/><linearGradient id="linear-gradient-16" x1="72.652" y1="121.42" x2="83.991" y2="121.42" gradientTransform="translate(199.742 43.099) rotate(90)" gradientUnits="userSpaceOnUse"><stop offset="0" stop-color="#bbbdbf"/><stop offset="1" stop-color="#bbbdbf"/></linearGradient><linearGradient id="linear-gradient-17" x1="72.652" y1="121.42" x2="83.991" y2="121.42" gradientTransform="translate(199.742 43.099) rotate(90)" gradientUnits="userSpaceOnUse"><stop offset="0" stop-color="#bbbdbf"/><stop offset="0.067" stop-color="#c2c3c6"/><stop offset="0.367" stop-color="#dedae0"/><stop offset="0.542" stop-color="#e8e3ea"/><stop offset="0.687" stop-color="#d9d6db"/><stop offset="1" stop-color="#bbbdbf"/></linearGradient><linearGradient id="linear-gradient-18" x1="91.37" y1="154.913" x2="96.069" y2="154.913" xlink:href="#linear-gradient"/><linearGradient id="linear-gradient-19" x1="30.869" y1="154.913" x2="35.567" y2="154.913" xlink:href="#linear-gradient"/><linearGradient id="linear-gradient-20" x1="30.872" y1="17.008" x2="96.069" y2="17.008" xlink:href="#linear-gradient-2"/><linearGradient id="linear-gradient-21" x1="31.722" y1="17.008" x2="95.218" y2="17.008" gradientTransform="translate(46.462 80.478) rotate(-90)" gradientUnits="userSpaceOnUse"><stop offset="0" stop-color="#bbbdbf"/><stop offset="1" stop-color="#d0d2d3"/></linearGradient><radialGradient id="radial-gradient" cx="45.658" cy="17.008" r="7.156" gradientUnits="userSpaceOnUse"><stop offset="0" stop-color="#3b3b3b"/><stop offset="0.2" stop-color="#5e5e5f"/><stop offset="0.422" stop-color="#7d7e80"/><stop offset="0.635" stop-color="#949598"/><stop offset="0.832" stop-color="#a1a3a6"/><stop offset="1" stop-color="#a6a8ab"/></radialGradient><radialGradient id="radial-gradient-2" cx="45.659" cy="17.008" r="6.552" gradientUnits="userSpaceOnUse"><stop offset="0" stop-color="#3b3b3b"/><stop offset="0.38" stop-color="#737373"/><stop offset="1" stop-color="#d6d6d6"/></radialGradient><linearGradient id="linear-gradient-22" x1="34.121" y1="64.515" x2="38.891" y2="64.515" xlink:href="#linear-gradient-9"/><linearGradient id="linear-gradient-23" x1="423.837" y1="66.91" x2="428.607" y2="66.91" gradientTransform="matrix(1, 0, 0, -1, -371.788, 133.819)" xlink:href="#linear-gradient-9"/></defs><g class="cls-1"><g id="servo-scs2332"><g id="side"><g id="шнуры"><polyline class="cls-2" points="131.231 128.589 133.919 128.589 156.731 128.589"/><polyline class="cls-3" points="131.231 130.589 133.919 130.589 156.731 130.589"/><polyline class="cls-4" points="131.231 132.589 133.731 132.589 156.731 132.589"/></g><path class="cls-5" d="M184.883,80.132v73.51h-2.958v2.55h-28.1v-2.55h-2.958V80.132c0-1.05.443-1.9.991-1.9H183.9C184.439,78.232,184.883,79.082,184.883,80.132Z"/><path class="cls-6" d="M184.439,80.132v73.51h-2.514v2.55h-28.1v-2.55h-2.515V80.132c0-.58.245-1.05.548-1.05h32.033C184.194,79.082,184.439,79.552,184.439,80.132Z"/><rect class="cls-7" x="155.131" y="75.402" width="25.488" height="2.835"/><rect class="cls-8" x="160.747" y="65.764" width="14.364" height="9.638"/><rect class="cls-9" x="160.747" y="65.764" width="0.432" height="9.638"/><rect class="cls-9" x="161.618" y="65.764" width="0.432" height="9.638"/><rect class="cls-9" x="162.489" y="65.764" width="0.432" height="9.638"/><rect class="cls-9" x="163.359" y="65.764" width="0.432" height="9.638"/><rect class="cls-9" x="164.23" y="65.764" width="0.432" height="9.638"/><rect class="cls-9" x="165.101" y="65.764" width="0.432" height="9.638"/><rect class="cls-9" x="165.972" y="65.764" width="0.432" height="9.638"/><rect class="cls-9" x="166.842" y="65.764" width="0.432" height="9.638"/><rect class="cls-9" x="167.713" y="65.764" width="0.432" height="9.638"/><rect class="cls-9" x="168.584" y="65.764" width="0.432" height="9.638"/><rect class="cls-9" x="169.455" y="65.764" width="0.432" height="9.638"/><rect class="cls-9" x="170.325" y="65.764" width="0.432" height="9.638"/><rect class="cls-9" x="171.196" y="65.764" width="0.432" height="9.638"/><rect class="cls-9" x="172.067" y="65.764" width="0.432" height="9.638"/><rect class="cls-9" x="172.938" y="65.764" width="0.432" height="9.638"/><rect class="cls-9" x="173.808" y="65.764" width="0.432" height="9.638"/><rect class="cls-9" x="174.679" y="65.764" width="0.432" height="9.638"/><rect class="cls-10" x="150.867" y="89.555" width="34.016" height="4.252"/><rect class="cls-11" x="150.867" y="89.555" width="2.56" height="4.252"/><rect class="cls-12" x="182.323" y="89.555" width="2.56" height="4.252" transform="translate(367.206 183.362) rotate(-180)"/><rect class="cls-13" x="165.749" y="89.442" width="4.252" height="4.478" transform="translate(76.194 259.556) rotate(-90)"/><line class="cls-14" x1="165.636" y1="89.555" x2="165.636" y2="93.807"/><line class="cls-14" x1="170.114" y1="89.555" x2="170.114" y2="93.807"/><rect class="cls-15" x="150.87" y="96.94" width="34.014" height="31.181"/><rect class="cls-16" x="150.869" y="96.94" width="0.444" height="31.181"/><rect class="cls-17" x="184.439" y="96.94" width="0.444" height="31.181"/><path class="cls-18" d="M182.432,153.638h2.451a0,0,0,0,1,0,0v1.63a.921.921,0,0,1-.921.921h-.609a.921.921,0,0,1-.921-.921v-1.63A0,0,0,0,1,182.432,153.638Z"/><path class="cls-19" d="M150.868,153.638h2.451a0,0,0,0,1,0,0v1.63a.921.921,0,0,1-.921.921h-.609a.921.921,0,0,1-.921-.921v-1.63A0,0,0,0,1,150.868,153.638Z"/><g id="крутилка_side" data-name="крутилка side"><polygon class="cls-20" points="179.258 58.137 156.58 58.137 156.58 62.956 156.58 70.893 179.258 70.893 179.258 62.956 179.258 58.137"/><rect class="cls-21" x="156.58" y="58.137" width="4.77" height="12.756"/><rect class="cls-22" x="174.508" y="58.137" width="4.77" height="12.756" transform="translate(353.785 129.03) rotate(-180)"/></g></g><g id="side-2" data-name="side"><g id="шнуры-2" data-name="шнуры"><polyline class="cls-2" points="1.223 128.589 3.911 128.589 26.723 128.589"/><polyline class="cls-3" points="1.223 130.589 3.911 130.589 26.723 130.589"/><polyline class="cls-4" points="1.223 132.589 3.723 132.589 26.723 132.589"/></g><path class="cls-23" d="M96.069,80.132v73.51H90.4v2.55H36.539v-2.55h-5.67V80.132a1.9,1.9,0,0,1,1.9-1.9h61.41A1.9,1.9,0,0,1,96.069,80.132Z"/><rect class="cls-10" x="18.12" y="89.555" width="90.702" height="4.252"/><rect class="cls-24" x="18.12" y="89.555" width="6.827" height="4.252"/><rect class="cls-25" x="101.995" y="89.555" width="6.827" height="4.252" transform="translate(210.816 183.362) rotate(-180)"/><path class="cls-26" d="M95.219,80.132v73.51H90.4v2.55H36.539v-2.55h-4.82V80.132a1.05,1.05,0,0,1,1.05-1.05h61.4A1.05,1.05,0,0,1,95.219,80.132Z"/><rect class="cls-7" x="32.843" y="75.402" width="25.488" height="2.835"/><rect class="cls-27" x="38.459" y="65.764" width="14.364" height="9.638"/><rect class="cls-9" x="38.459" y="65.764" width="0.432" height="9.638"/><rect class="cls-9" x="39.33" y="65.764" width="0.432" height="9.638"/><rect class="cls-9" x="40.2" y="65.764" width="0.432" height="9.638"/><rect class="cls-9" x="41.071" y="65.764" width="0.432" height="9.638"/><rect class="cls-9" x="41.942" y="65.764" width="0.432" height="9.638"/><rect class="cls-9" x="42.813" y="65.764" width="0.432" height="9.638"/><rect class="cls-9" x="43.683" y="65.764" width="0.432" height="9.638"/><rect class="cls-9" x="44.554" y="65.764" width="0.432" height="9.638"/><rect class="cls-9" x="45.425" y="65.764" width="0.432" height="9.638"/><rect class="cls-9" x="46.296" y="65.764" width="0.432" height="9.638"/><rect class="cls-9" x="47.166" y="65.764" width="0.432" height="9.638"/><rect class="cls-9" x="48.037" y="65.764" width="0.432" height="9.638"/><rect class="cls-9" x="48.908" y="65.764" width="0.432" height="9.638"/><rect class="cls-9" x="49.779" y="65.764" width="0.432" height="9.638"/><rect class="cls-9" x="50.649" y="65.764" width="0.432" height="9.638"/><rect class="cls-9" x="51.52" y="65.764" width="0.432" height="9.638"/><rect class="cls-9" x="52.391" y="65.764" width="0.432" height="9.638"/><rect class="cls-15" x="30.872" y="96.94" width="65.197" height="31.181"/><rect class="cls-16" x="30.872" y="96.94" width="0.851" height="31.181"/><rect class="cls-17" x="95.219" y="96.94" width="0.851" height="31.181"/><polygon class="cls-28" points="41.852 116.301 46.339 116.301 46.452 115.194 43.515 115.194 43.591 114.455 46.086 114.455 46.199 113.348 43.705 113.348 43.784 112.579 46.72 112.579 46.834 111.473 42.348 111.473 41.852 116.301"/><polygon class="cls-28" points="51.58 112.579 51.693 111.473 47.207 111.473 46.712 116.301 51.198 116.301 51.312 115.194 48.375 115.194 48.451 114.455 50.945 114.455 51.059 113.348 48.564 113.348 48.643 112.579 51.58 112.579"/><path class="cls-28" d="M70.835,103.186a14.033,14.033,0,0,0-6.267.57,46.739,46.739,0,0,0-5.439,2.134c-.876.405-1.789.843-2.628,1.269l-1.619.865-.663,8.257H51.643l.552-6.9c-.368.165-.758.331-1.163.48a11.907,11.907,0,0,1-3.577.763l-.162-1.883A13.708,13.708,0,0,0,52.416,107c.861-.432,1.737-.891,2.657-1.344.935-.448,1.825-.853,2.775-1.27a26.776,26.776,0,0,1,6.109-1.984C66.158,102,68.8,101.938,70.835,103.186Z"/><polygon class="cls-28" points="56.612 114.455 59.106 114.455 59.219 113.348 56.725 113.348 56.804 112.579 59.741 112.579 59.855 111.473 55.368 111.473 54.873 116.301 59.359 116.301 59.472 115.194 56.536 115.194 56.612 114.455"/><path class="cls-28" d="M63.269,114.673a.741.741,0,0,1-.218.277.981.981,0,0,1-.32.172,1.1,1.1,0,0,1-.777-.023.55.55,0,0,1-.246-.233.707.707,0,0,1-.069-.413l.121-1.179a.842.842,0,0,1,.159-.423.819.819,0,0,1,.327-.258,1.07,1.07,0,0,1,.778-.03.732.732,0,0,1,.268.166.556.556,0,0,1,.153.251l.059.214h1.547L65,112.9a1.546,1.546,0,0,0-.371-.784,2.006,2.006,0,0,0-.8-.539,3.393,3.393,0,0,0-2.346.045,2.239,2.239,0,0,0-.907.66,1.8,1.8,0,0,0-.388.957l-.121,1.178a1.547,1.547,0,0,0,.2.969,1.718,1.718,0,0,0,.8.681,3,3,0,0,0,1.237.238,3.225,3.225,0,0,0,1.1-.186,2.566,2.566,0,0,0,.877-.52,1.945,1.945,0,0,0,.523-.767l.124-.337H63.352Z"/><polygon class="cls-28" points="68.857 111.473 68.662 113.366 66.888 113.366 67.083 111.473 65.533 111.473 65.038 116.301 66.588 116.301 66.775 114.472 68.549 114.472 68.361 116.301 69.911 116.301 70.406 111.473 68.857 111.473"/><polygon class="cls-28" points="42.818 110.719 42.961 109.326 36.707 109.357 37.374 109.381 35.316 109.308 36.701 109.408 36.684 109.576 35.292 109.566 37.329 109.789 36.67 109.717 36.652 109.894 37.322 109.912 35.28 109.856 36.639 110.012 36.622 110.179 35.23 110.171 37.271 110.392 36.608 110.32 36.592 110.472 37.257 110.52 35.244 110.376 37.242 110.696 36.58 110.59 36.56 110.791 37.235 110.792 35.171 110.788 36.545 110.931 36.526 111.114 37.198 111.128 35.157 111.087 37.177 111.304 36.514 111.233 36.496 111.41 37.169 111.427 35.128 111.377 36.483 111.532 36.466 111.702 37.148 111.699 35.075 111.708 36.451 111.846 36.433 112.022 35.062 111.995 36.421 112.143 36.399 112.36 35.004 112.403 37.06 112.515 36.386 112.478 36.37 112.643 34.975 112.707 37.024 112.819 36.355 112.782 36.341 112.925 37.017 112.947 34.975 112.88 36.995 113.123 36.328 113.043 36.308 113.238 34.936 113.222 36.296 113.359 36.279 113.521 36.959 113.523 34.895 113.516 36.265 113.66 36.246 113.842 36.922 113.854 34.88 113.819 36.901 114.035 36.234 113.964 36.215 114.15 34.845 114.133 36.872 114.339 36.202 114.271 36.187 114.425 36.872 114.43 34.802 114.414 36.172 114.565 36.15 114.787 36.828 114.766 34.757 114.83 36.137 114.905 36.122 115.057 34.757 115.03 36.11 115.175 36.093 115.339 36.777 115.342 34.71 115.333 36.748 115.55 36.079 115.479 36.059 115.665 36.734 115.673 34.689 115.648 36.719 115.854 36.047 115.786 36.031 115.943 36.712 115.945 34.648 115.938 36.016 116.086 36.005 116.198 36.676 116.225 34.619 116.141 36.668 116.301 37.954 116.301 38.232 113.589 41.859 113.589 42.002 112.197 38.375 112.197 38.527 110.719 42.818 110.719"/><rect class="cls-28" x="34.591" y="118.782" width="35.433" height="0.709"/><path class="cls-28" d="M36.437,125.2a4.787,4.787,0,0,1-.764-.166,3.773,3.773,0,0,1-.663-.277l.552-.432a3.035,3.035,0,0,0,.8.3,4.252,4.252,0,0,0,.944.1,2.8,2.8,0,0,0,1.067-.162c.252-.108.378-.26.378-.458v0a.388.388,0,0,0-.172-.333,1.191,1.191,0,0,0-.444-.183q-.271-.06-.7-.109a.12.12,0,0,0-.028,0,.12.12,0,0,1-.028,0l-.065-.008c-.424-.047-.768-.1-1.034-.156a1.615,1.615,0,0,1-.681-.319.8.8,0,0,1-.283-.658v0a.87.87,0,0,1,.263-.637,1.7,1.7,0,0,1,.768-.4,4.616,4.616,0,0,1,1.215-.139,4.664,4.664,0,0,1,1.945.421l-.5.449a3.6,3.6,0,0,0-.72-.253,3.1,3.1,0,0,0-.72-.085,2.462,2.462,0,0,0-1.008.165.513.513,0,0,0-.359.466v0a.371.371,0,0,0,.185.327,1.365,1.365,0,0,0,.461.175c.185.039.44.078.769.118l.032,0,.033,0,.048,0,.048.006a7.77,7.77,0,0,1,.959.178,1.551,1.551,0,0,1,.644.33.787.787,0,0,1,.259.624v.006a.84.84,0,0,1-.274.63,1.788,1.788,0,0,1-.794.4,4.96,4.96,0,0,1-1.256.138A6.453,6.453,0,0,1,36.437,125.2Z"/><path class="cls-28" d="M41.805,125.069a1.748,1.748,0,0,1-.772-.526,1.22,1.22,0,0,1-.274-.789v-1.105a1.224,1.224,0,0,1,.274-.789,1.766,1.766,0,0,1,.772-.527,3.3,3.3,0,0,1,1.156-.187,3.188,3.188,0,0,1,1,.149,2.133,2.133,0,0,1,.765.419,1.368,1.368,0,0,1,.415.628h-.91a.86.86,0,0,0-.276-.336,1.441,1.441,0,0,0-.455-.229,1.842,1.842,0,0,0-.539-.08,1.794,1.794,0,0,0-.679.119,1.055,1.055,0,0,0-.453.333.817.817,0,0,0-.161.5v1.105a.813.813,0,0,0,.161.5,1.026,1.026,0,0,0,.453.334,1.815,1.815,0,0,0,.679.117,1.931,1.931,0,0,0,.541-.074,1.369,1.369,0,0,0,.453-.222.827.827,0,0,0,.276-.348h.91a1.359,1.359,0,0,1-.418.628,2.135,2.135,0,0,1-.765.419,3.216,3.216,0,0,1-1,.149A3.321,3.321,0,0,1,41.805,125.069Z"/><path class="cls-28" d="M47.438,125.2a4.75,4.75,0,0,1-.763-.166,3.752,3.752,0,0,1-.664-.277l.553-.432a3.028,3.028,0,0,0,.8.3,4.254,4.254,0,0,0,.945.1,2.793,2.793,0,0,0,1.066-.162c.253-.108.379-.26.379-.458v0a.39.39,0,0,0-.172-.333,1.191,1.191,0,0,0-.444-.183q-.273-.06-.7-.109a.127.127,0,0,0-.028,0,.12.12,0,0,1-.028,0l-.066-.008c-.424-.047-.768-.1-1.034-.156a1.615,1.615,0,0,1-.681-.319.8.8,0,0,1-.282-.658v0a.867.867,0,0,1,.263-.637,1.69,1.69,0,0,1,.768-.4,4.608,4.608,0,0,1,1.214-.139,4.764,4.764,0,0,1,.668.047,4.842,4.842,0,0,1,.649.14,4.76,4.76,0,0,1,.628.234l-.5.449a3.586,3.586,0,0,0-.721-.253,3.093,3.093,0,0,0-.72-.085,2.454,2.454,0,0,0-1.007.165.514.514,0,0,0-.36.466v0a.371.371,0,0,0,.185.327,1.371,1.371,0,0,0,.462.175q.276.059.768.118l.033,0,.032,0,.048,0,.048.006a7.754,7.754,0,0,1,.96.178,1.557,1.557,0,0,1,.644.33.79.79,0,0,1,.258.624v.006a.84.84,0,0,1-.274.63,1.783,1.783,0,0,1-.794.4,4.952,4.952,0,0,1-1.255.138A6.457,6.457,0,0,1,47.438,125.2Z"/><path class="cls-28" d="M51.665,124.723l2.206-1.871a1.4,1.4,0,0,0,.3-.334.624.624,0,0,0,.106-.323v0a.414.414,0,0,0-.221-.374,1.247,1.247,0,0,0-.632-.132,1.187,1.187,0,0,0-.626.145.6.6,0,0,0-.292.411v0h-.918v0a1.206,1.206,0,0,1,.32-.592,1.56,1.56,0,0,1,.624-.373,2.771,2.771,0,0,1,.884-.129,3.315,3.315,0,0,1,.966.124,1.31,1.31,0,0,1,.609.358.826.826,0,0,1,.209.567v0a.866.866,0,0,1-.139.446,1.907,1.907,0,0,1-.388.449l-1.832,1.583h2.394v.537H51.665Z"/><path class="cls-28" d="M57.065,125.131a1.6,1.6,0,0,1-.651-.357,1.033,1.033,0,0,1-.311-.563h.905a.509.509,0,0,0,.17.282.838.838,0,0,0,.337.165,1.936,1.936,0,0,0,.485.054,1.31,1.31,0,0,0,.684-.15.468.468,0,0,0,.243-.42v-.122a.536.536,0,0,0-.23-.466,1.1,1.1,0,0,0-.653-.165H57.6v-.537h.448a1,1,0,0,0,.575-.142.456.456,0,0,0,.2-.4v-.124a.408.408,0,0,0-.216-.369,1.183,1.183,0,0,0-.611-.131,1.4,1.4,0,0,0-.405.055.785.785,0,0,0-.3.166.643.643,0,0,0-.181.281h-.9a1.206,1.206,0,0,1,.328-.565,1.567,1.567,0,0,1,.611-.356,2.692,2.692,0,0,1,.849-.123,2.425,2.425,0,0,1,1.267.275.857.857,0,0,1,.448.771v.067a.68.68,0,0,1-.257.526,1.6,1.6,0,0,1-.727.327,1.5,1.5,0,0,1,.8.324.818.818,0,0,1,.285.642v.067a.892.892,0,0,1-.213.6,1.326,1.326,0,0,1-.62.379,3.667,3.667,0,0,1-1.917.007Z"/><path class="cls-28" d="M61.778,125.131a1.6,1.6,0,0,1-.651-.357,1.033,1.033,0,0,1-.311-.563h.9a.509.509,0,0,0,.17.282.838.838,0,0,0,.337.165,1.936,1.936,0,0,0,.485.054,1.3,1.3,0,0,0,.683-.15.467.467,0,0,0,.244-.42v-.122a.538.538,0,0,0-.23-.466,1.1,1.1,0,0,0-.653-.165h-.448v-.537h.448a1,1,0,0,0,.575-.142.456.456,0,0,0,.2-.4v-.124a.408.408,0,0,0-.216-.369,1.183,1.183,0,0,0-.611-.131,1.4,1.4,0,0,0-.405.055.777.777,0,0,0-.3.166.643.643,0,0,0-.181.281h-.9a1.216,1.216,0,0,1,.329-.565,1.567,1.567,0,0,1,.611-.356,2.692,2.692,0,0,1,.849-.123,2.427,2.427,0,0,1,1.267.275.859.859,0,0,1,.448.771v.067a.68.68,0,0,1-.257.526,1.6,1.6,0,0,1-.727.327,1.5,1.5,0,0,1,.8.324.818.818,0,0,1,.285.642v.067a.892.892,0,0,1-.213.6,1.326,1.326,0,0,1-.62.379,3.667,3.667,0,0,1-1.917.007Z"/><path class="cls-28" d="M65.694,124.723l2.206-1.871a1.428,1.428,0,0,0,.3-.334.624.624,0,0,0,.106-.323v0a.415.415,0,0,0-.222-.374,1.241,1.241,0,0,0-.631-.132,1.182,1.182,0,0,0-.626.145.6.6,0,0,0-.292.411v0h-.918v0a1.206,1.206,0,0,1,.32-.592,1.56,1.56,0,0,1,.624-.373,2.766,2.766,0,0,1,.884-.129,3.315,3.315,0,0,1,.966.124,1.31,1.31,0,0,1,.609.358.826.826,0,0,1,.209.567v0a.866.866,0,0,1-.139.446,1.907,1.907,0,0,1-.388.449l-1.832,1.583h2.394v.537H65.694Z"/><rect class="cls-9" x="56.353" y="115.751" width="43.937" height="11.339" transform="translate(-43.099 199.742) rotate(-90)"/><rect class="cls-29" x="59.046" y="115.751" width="38.551" height="11.339" transform="translate(-43.099 199.742) rotate(-90)"/><rect class="cls-30" x="59.046" y="115.751" width="38.551" height="11.339" transform="translate(-43.099 199.742) rotate(-90)"/><rect class="cls-10" x="26.723" y="126.037" width="4.15" height="9.354"/><rect class="cls-31" x="22.368" y="127.313" width="4.462" height="6.803"/><path class="cls-32" d="M91.37,153.638h4.7a0,0,0,0,1,0,0v1.276a1.276,1.276,0,0,1-1.276,1.276H92.646a1.276,1.276,0,0,1-1.276-1.276v-1.276A0,0,0,0,1,91.37,153.638Z"/><path class="cls-33" d="M30.869,153.638h4.7a0,0,0,0,1,0,0v1.276a1.276,1.276,0,0,1-1.276,1.276H32.144a1.276,1.276,0,0,1-1.276-1.276v-1.276a0,0,0,0,1,0,0Z"/></g><g id="top"><g id="шнуры-3" data-name="шнуры"><polyline class="cls-2" points="1.063 14.882 3.751 14.882 30.563 14.882"/><polyline class="cls-3" points="1.063 16.882 3.751 16.882 30.563 16.882"/><polyline class="cls-4" points="1.063 18.882 3.563 18.882 30.563 18.882"/></g><path class="cls-10" d="M101.739,19.276a2.268,2.268,0,0,1,0-4.536h7.086V2.9a2.9,2.9,0,0,0-2.9-2.9h-84.9a2.9,2.9,0,0,0-2.905,2.9V14.74H25.2a2.268,2.268,0,1,1,0,4.536H18.116V31.111a2.905,2.905,0,0,0,2.905,2.9h84.9a2.9,2.9,0,0,0,2.9-2.9V19.276ZM23.927,31.748a3.544,3.544,0,1,1,3.544-3.543A3.543,3.543,0,0,1,23.927,31.748ZM102.942,2.2A3.543,3.543,0,1,1,99.4,5.739,3.543,3.543,0,0,1,102.942,2.2ZM23.927,9.354a3.543,3.543,0,1,1,3.544-3.543A3.543,3.543,0,0,1,23.927,9.354Zm79.015,22.322a3.544,3.544,0,1,1,3.543-3.543A3.543,3.543,0,0,1,102.942,31.676Z"/><rect class="cls-34" x="30.872" width="65.197" height="34.016" rx="2.462"/><rect class="cls-35" x="47.313" y="-14.74" width="32.315" height="63.496" rx="1.612" transform="translate(80.478 -46.462) rotate(90)"/><circle class="cls-7" cx="45.659" cy="17.008" r="12.756"/><path class="cls-36" d="M45.659,28.914A11.907,11.907,0,1,1,57.565,17.008,11.919,11.919,0,0,1,45.659,28.914Z"/><path class="cls-37" d="M45.658,24.164c-.142,0-.275-.285-.416-.293s-.307.258-.447.241-.239-.315-.378-.341-.337.219-.474.185-.2-.342-.333-.384-.361.176-.492.126-.156-.363-.284-.422-.379.132-.5.066-.11-.38-.23-.453-.392.085-.508,0-.063-.39-.174-.477-.4.037-.505-.057-.016-.395-.116-.494-.4-.011-.495-.117.032-.393-.056-.5-.4-.059-.477-.175.079-.387.005-.508-.386-.105-.452-.23.124-.375.066-.5-.371-.151-.422-.283.169-.357.127-.492-.35-.2-.384-.332.211-.334.185-.473-.323-.236-.34-.376.249-.306.241-.448-.293-.274-.293-.416.284-.275.293-.416-.258-.308-.241-.447.315-.239.341-.378-.219-.337-.186-.474.343-.2.385-.333-.177-.361-.126-.492.363-.156.421-.284-.131-.379-.065-.5.379-.11.453-.23-.085-.392-.005-.508.39-.063.477-.174-.037-.4.057-.505.394-.016.494-.116.011-.4.116-.5.394.032.505-.056.058-.4.175-.477.387.079.507.005.106-.386.231-.452.375.124.5.066.151-.371.283-.422.357.169.492.127.194-.35.332-.384.334.211.473.185.236-.323.376-.34.306.249.448.241.273-.293.416-.293.275.285.415.293.308-.258.448-.241.239.315.378.341.337-.219.474-.186.2.343.333.385.36-.177.492-.126.155.363.284.421.379-.131.5-.065.109.379.23.453.392-.085.508-.005.063.39.174.477.4-.037.5.056.016.4.116.5.4.011.494.116-.031.394.056.505.4.058.477.174-.078.387-.005.508.387.106.453.231-.124.375-.066.5.371.151.422.283-.169.356-.127.491.35.2.384.333-.211.333-.186.473.324.235.341.376-.25.306-.241.448.293.273.293.416-.285.275-.293.415.258.308.241.448-.315.239-.341.378.219.337.185.474-.342.2-.384.333.176.36.126.492-.363.155-.422.284.132.379.066.5-.38.109-.453.23.085.392,0,.508-.39.063-.477.174.037.4-.057.5-.394.016-.494.116-.011.4-.116.494-.394-.031-.5.056-.058.4-.175.477-.387-.078-.508-.005-.105.387-.23.453-.375-.124-.5-.066-.151.371-.283.422-.357-.169-.492-.127-.2.35-.332.384-.334-.211-.473-.186-.236.324-.376.341-.306-.25-.448-.241S45.8,24.164,45.658,24.164Z"/><path class="cls-38" d="M45.659,23.559a6.552,6.552,0,1,1,6.552-6.551A6.559,6.559,0,0,1,45.659,23.559Z"/><path class="cls-39" d="M45.658,21.543a4.535,4.535,0,1,1,4.535-4.535A4.54,4.54,0,0,1,45.658,21.543Z"/><path class="cls-40" d="M45.658,20.835a3.827,3.827,0,1,1,3.827-3.827A3.832,3.832,0,0,1,45.658,20.835Z"/></g><g id="крутилка_top" data-name="крутилка top"><path class="cls-41" d="M52.627,17.013c0-.15-.29-.28-.3-.42s.26-.31.24-.45-.31-.24-.34-.37.22-.34.19-.48-.34-.2-.39-.33.18-.36.13-.49-.36-.16-.42-.28.13-.38.07-.51-.38-.11-.46-.23.09-.39.01-.51-.39-.06-.48-.17.04-.4-.05-.51-.4-.01-.5-.11-.01-.4-.11-.5-.4.03-.51-.05-.06-.4-.17-.48-.39.08-.51,0-.11-.38-.23-.45-.38.13-.51.07-.15-.37-.28-.42-.36.16-.49.12-.2-.35-.34-.38-.33.21-.47.18-.24-.32-.38-.34a.014.014,0,0,0-.02,0c-.13,0-.29.25-.42.24s-.27-.28-.41-.29a.127.127,0,0,0-.06.01c-.13.06-.25.27-.37.28s-.25-.18-.37-.23a.2.2,0,0,0-.07-.01.086.086,0,0,0-.06.03c-.11.07-.2.29-.32.31s-.29-.16-.41-.17a.047.047,0,0,0-.06-.01c-.02.01-.05.02-.06.04-.1.09-.16.31-.28.34-.1.03-.27-.1-.4-.13a.139.139,0,0,0-.09,0,.09.09,0,0,0-.06.06c-.08.11-.12.32-.22.37s-.29-.07-.41-.09a.2.2,0,0,0-.09.02.138.138,0,0,0-.03.04c-.01.01-.01.01-.02.01-.08.11-.08.34-.18.4s-.29-.02-.42-.02h-.01c-.04,0-.06,0-.08.02a.158.158,0,0,0-.05.08c-.06.12-.04.33-.13.39s-.27.01-.4.02a.232.232,0,0,0-.1.04.16.16,0,0,0-.05.1c-.03.13.01.31-.07.39s-.25.04-.38.07h-.01a.16.16,0,0,0-.1.05.182.182,0,0,0-.04.11c-.01.13.05.31-.02.4s-.26.07-.38.11a.144.144,0,0,0-.1.06.164.164,0,0,0-.02.1c0,.14.08.32.03.41s-.26.1-.37.17a.1.1,0,0,0-.08.06.184.184,0,0,0-.01.13c.03.12.11.28.07.37s-.22.13-.33.19a.213.213,0,0,0-.09.1.2.2,0,0,0,.01.13v.01c.05.12.15.25.12.35s-.2.15-.3.23a.213.213,0,0,0-.09.1.167.167,0,0,0,.03.13c-.01,0-.01,0,0,.01.06.11.17.23.16.33s-.16.17-.26.26a.164.164,0,0,0-.08.12.147.147,0,0,0,.04.12v.01c.07.11.21.22.2.32s-.15.19-.23.29a.147.147,0,0,0,0,.25c.08.1.22.19.23.29s-.13.22-.2.33a.147.147,0,0,0-.04.12.164.164,0,0,0,.08.12c.1.09.24.17.26.26s-.1.21-.16.33a.254.254,0,0,0-.03.14.208.208,0,0,0,.1.11c.1.07.26.13.29.22s-.07.23-.12.35a.174.174,0,0,0-.01.14c.01.04.05.06.09.09.11.06.29.11.33.2s-.04.24-.07.37a.193.193,0,0,0,0,.13.218.218,0,0,0,.09.07h.01c.12.05.3.07.36.16s-.03.27-.03.4a.2.2,0,0,0,.02.11.168.168,0,0,0,.11.06c.12.03.3.03.37.11s.02.25.02.38v.01a.156.156,0,0,0,.03.12.125.125,0,0,0,.11.04h.01c.13.03.31,0,.38.07s.04.25.06.38a.22.22,0,0,0,.05.12.159.159,0,0,0,.12.04c.13,0,.31-.05.39.01s.08.26.11.38v.01a.2.2,0,0,0,.06.09.149.149,0,0,0,.09.02c.14,0,.33-.08.42-.02s.11.28.18.39a.1.1,0,0,0,.05.06.164.164,0,0,0,.1.01c.13-.01.31-.12.41-.08s.13.26.22.37a.09.09,0,0,0,.06.06.139.139,0,0,0,.09,0c.13-.03.3-.16.4-.13.12.03.18.25.28.34.01.02.04.03.06.04a.047.047,0,0,0,.06-.01c.12-.01.29-.2.41-.17s.21.24.32.31a.086.086,0,0,0,.06.03.2.2,0,0,0,.07-.01c.12-.05.25-.24.37-.23s.24.22.37.28a.127.127,0,0,0,.06.01c.14-.01.27-.28.41-.29s.29.24.42.24a.014.014,0,0,0,.02,0c.14-.02.24-.32.38-.34s.34.22.47.18.2-.34.34-.38.36.18.49.13.15-.37.28-.42.38.13.5.06.11-.38.23-.45.4.08.51,0,.07-.39.18-.47.4.03.5-.06.02-.39.12-.49.4-.01.49-.12-.03-.39.06-.5.4-.06.48-.18-.08-.39-.01-.51.39-.1.45-.23-.12-.37-.06-.5.37-.15.42-.28-.17-.36-.13-.5.35-.19.39-.33-.21-.33-.19-.47.33-.24.34-.38-.25-.31-.24-.45S52.627,17.153,52.627,17.013Zm-6.77,3.8a1.829,1.829,0,0,1-.33.02c-.13,0-.26-.01-.39-.02s-.24-.03-.36-.05a3.829,3.829,0,0,1,0-7.51c.12-.02.24-.04.36-.05s.26-.02.39-.02a1.829,1.829,0,0,1,.33.02,3.824,3.824,0,0,1,0,7.61Z"/><path class="cls-20" d="M48.807,10.686s-.006-.011-.01-.013-.011,0-.016,0a7.02,7.02,0,0,0-.762-.337s-.007-.01-.012-.012-.015,0-.022,0a6.922,6.922,0,0,0-.808-.261,4.729,4.729,0,0,0-.85-.16.014.014,0,0,0-.02,0,5.028,5.028,0,0,0-.78-.05h-.05a.127.127,0,0,0-.06.01,3.636,3.636,0,0,0-.74.05.2.2,0,0,0-.07-.01.086.086,0,0,0-.06.03,3.621,3.621,0,0,0-.73.14.047.047,0,0,0-.06-.01c-.02.01-.05.02-.06.04a4.109,4.109,0,0,0-.68.21.139.139,0,0,0-.09,0,.09.09,0,0,0-.06.06,4.465,4.465,0,0,0-.63.28.2.2,0,0,0-.09.02.138.138,0,0,0-.03.04c-.01.01-.01.01-.02.01a6.1,6.1,0,0,0-.6.38h-.01c-.04,0-.06,0-.08.02a.158.158,0,0,0-.05.08,4.168,4.168,0,0,0-.53.41.232.232,0,0,0-.1.04.16.16,0,0,0-.05.1,3.9,3.9,0,0,0-.45.46h-.01a.16.16,0,0,0-.1.05.182.182,0,0,0-.04.11,4.992,4.992,0,0,0-.4.51.144.144,0,0,0-.1.06.164.164,0,0,0-.02.1c-.12.19-.23.38-.34.58a.1.1,0,0,0-.08.06.184.184,0,0,0-.01.13,4.05,4.05,0,0,0-.26.56.213.213,0,0,0-.09.1.2.2,0,0,0,.01.13v.01a2.994,2.994,0,0,0-.18.58.213.213,0,0,0-.09.1.167.167,0,0,0,.03.13c-.01,0-.01,0,0,.01a2.911,2.911,0,0,0-.1.59.164.164,0,0,0-.08.12.147.147,0,0,0,.04.12v.01a4.088,4.088,0,0,0-.03.61.147.147,0,0,0,0,.25,4.223,4.223,0,0,0,.03.62.147.147,0,0,0-.04.12.164.164,0,0,0,.08.12,3.826,3.826,0,0,0,.1.59.254.254,0,0,0-.03.14.208.208,0,0,0,.1.11,3.737,3.737,0,0,0,.17.57.174.174,0,0,0-.01.14c.01.04.05.06.09.09a3.682,3.682,0,0,0,.26.57.193.193,0,0,0,0,.13.218.218,0,0,0,.09.07h.01c.1.2.22.38.33.56a.2.2,0,0,0,.02.11.168.168,0,0,0,.11.06,3.49,3.49,0,0,0,.39.49v.01a.156.156,0,0,0,.03.12.125.125,0,0,0,.11.04h.01a2.681,2.681,0,0,0,.44.45.22.22,0,0,0,.05.12.159.159,0,0,0,.12.04,4.78,4.78,0,0,0,.5.39v.01a.2.2,0,0,0,.06.09.149.149,0,0,0,.09.02,6.023,6.023,0,0,0,.6.37.1.1,0,0,0,.05.06.164.164,0,0,0,.1.01,4.508,4.508,0,0,0,.63.29.09.09,0,0,0,.06.06.139.139,0,0,0,.09,0,4.109,4.109,0,0,0,.68.21c.01.02.04.03.06.04a.047.047,0,0,0,.06-.01,3.621,3.621,0,0,0,.73.14.086.086,0,0,0,.06.03.2.2,0,0,0,.07-.01,3.636,3.636,0,0,0,.74.05.127.127,0,0,0,.06.01h.05a5.028,5.028,0,0,0,.78-.05.014.014,0,0,0,.02,0,7.125,7.125,0,0,0,2.48-13.427Zm-2.95,10.127a1.829,1.829,0,0,1-.33.02c-.13,0-.26-.01-.39-.02s-.24-.03-.36-.05a3.815,3.815,0,0,1,0-7.51c.12-.02.24-.04.36-.05s.26-.02.39-.02a1.829,1.829,0,0,1,.33.02,3.824,3.824,0,0,1,0,7.61Zm-.69,7.52c.1.01.2.01.3.01a11.159,11.159,0,0,0,2.1-.2Z"/><path class="cls-20" d="M97.907,9.923l-51.22-4.18q-.36-.045-.72-.06c-.16-.01-.33-.01-.5-.01-.12,0-.25,0-.37.01a11.333,11.333,0,0,0-.31,22.64c.05,0,.11.01.17.01h.21l2.4-.19,50.34-4.04a7.09,7.09,0,0,0,0-14.18Zm-51.58,14.19a.014.014,0,0,1-.02,0,5.028,5.028,0,0,1-.78.05h-.05a.127.127,0,0,1-.06-.01,3.636,3.636,0,0,1-.74-.05.2.2,0,0,1-.07.01.086.086,0,0,1-.06-.03,3.621,3.621,0,0,1-.73-.14.047.047,0,0,1-.06.01c-.02-.01-.05-.02-.06-.04a4.109,4.109,0,0,1-.68-.21.139.139,0,0,1-.09,0,.09.09,0,0,1-.06-.06,4.508,4.508,0,0,1-.63-.29.164.164,0,0,1-.1-.01.1.1,0,0,1-.05-.06,6.023,6.023,0,0,1-.6-.37.149.149,0,0,1-.09-.02.2.2,0,0,1-.06-.09v-.01a4.78,4.78,0,0,1-.5-.39.159.159,0,0,1-.12-.04.22.22,0,0,1-.05-.12,2.681,2.681,0,0,1-.44-.45h-.01a.125.125,0,0,1-.11-.04.156.156,0,0,1-.03-.12v-.01a3.49,3.49,0,0,1-.39-.49.168.168,0,0,1-.11-.06.2.2,0,0,1-.02-.11c-.11-.18-.23-.36-.33-.56h-.01a.218.218,0,0,1-.09-.07.193.193,0,0,1,0-.13,3.682,3.682,0,0,1-.26-.57c-.04-.03-.08-.05-.09-.09a.174.174,0,0,1,.01-.14,3.737,3.737,0,0,1-.17-.57.208.208,0,0,1-.1-.11.254.254,0,0,1,.03-.14,3.826,3.826,0,0,1-.1-.59.164.164,0,0,1-.08-.12.147.147,0,0,1,.04-.12,4.223,4.223,0,0,1-.03-.62.147.147,0,0,1,0-.25,4.088,4.088,0,0,1,.03-.61v-.01a.147.147,0,0,1-.04-.12.164.164,0,0,1,.08-.12,2.911,2.911,0,0,1,.1-.59c-.01-.01-.01-.01,0-.01a.167.167,0,0,1-.03-.13.213.213,0,0,1,.09-.1,2.994,2.994,0,0,1,.18-.58V14.6a.2.2,0,0,1-.01-.13.213.213,0,0,1,.09-.1,4.05,4.05,0,0,1,.26-.56.184.184,0,0,1,.01-.13.1.1,0,0,1,.08-.06c.11-.2.22-.39.34-.58a.164.164,0,0,1,.02-.1.144.144,0,0,1,.1-.06,4.992,4.992,0,0,1,.4-.51.182.182,0,0,1,.04-.11.16.16,0,0,1,.1-.05h.01a3.9,3.9,0,0,1,.45-.46.16.16,0,0,1,.05-.1.232.232,0,0,1,.1-.04,4.168,4.168,0,0,1,.53-.41.158.158,0,0,1,.05-.08c.02-.02.04-.02.08-.02h.01a6.1,6.1,0,0,1,.6-.38c.01,0,.01,0,.02-.01a.138.138,0,0,1,.03-.04.2.2,0,0,1,.09-.02,4.465,4.465,0,0,1,.63-.28.09.09,0,0,1,.06-.06.139.139,0,0,1,.09,0,4.109,4.109,0,0,1,.68-.21c.01-.02.04-.03.06-.04a.047.047,0,0,1,.06.01,3.621,3.621,0,0,1,.73-.14.086.086,0,0,1,.06-.03.2.2,0,0,1,.07.01,3.636,3.636,0,0,1,.74-.05.127.127,0,0,1,.06-.01h.05a5.028,5.028,0,0,1,.78.05.014.014,0,0,1,.02,0,4.729,4.729,0,0,1,.85.16,7.141,7.141,0,0,1-.85,14.05Zm27.2-5.13A1.98,1.98,0,1,1,75.507,17,1.98,1.98,0,0,1,73.527,18.983Zm8.12,0A1.98,1.98,0,1,1,83.637,17,1.978,1.978,0,0,1,81.647,18.983Zm8.13,0A1.98,1.98,0,1,1,91.757,17,1.98,1.98,0,0,1,89.777,18.983Zm8.12,0A1.98,1.98,0,1,1,99.887,17,1.978,1.978,0,0,1,97.9,18.983Z"/><path class="cls-42" d="M48.807,10.686s-.006-.011-.01-.013-.011,0-.016,0a7.02,7.02,0,0,0-.762-.337s-.007-.01-.012-.012-.015,0-.022,0a6.922,6.922,0,0,0-.808-.261,4.729,4.729,0,0,0-.85-.16.014.014,0,0,0-.02,0,5.028,5.028,0,0,0-.78-.05h-.05a.127.127,0,0,0-.06.01,3.636,3.636,0,0,0-.74.05.274.274,0,0,0-.13.02,3.621,3.621,0,0,0-.73.14.266.266,0,0,0-.12.03,4.109,4.109,0,0,0-.68.21.471.471,0,0,0-.15.06,4.465,4.465,0,0,0-.63.28l-.12.06c-.01.01-.01.01-.02.01a6.1,6.1,0,0,0-.6.38h-.01a.642.642,0,0,0-.13.1,4.168,4.168,0,0,0-.53.41,1.92,1.92,0,0,0-.15.14,3.9,3.9,0,0,0-.45.46h-.01a1.07,1.07,0,0,0-.14.16,4.992,4.992,0,0,0-.4.51c-.04.05-.08.1-.12.16-.12.19-.23.38-.34.58a.818.818,0,0,0-.09.19,4.05,4.05,0,0,0-.26.56,1.555,1.555,0,0,0-.08.23v.01a2.994,2.994,0,0,0-.18.58.865.865,0,0,0-.06.23c-.01,0-.01,0,0,.01a2.911,2.911,0,0,0-.1.59,2,2,0,0,0-.04.24v.01a4.088,4.088,0,0,0-.03.61.487.487,0,0,0-.01.12.57.57,0,0,0,.01.13,4.223,4.223,0,0,0,.03.62,2,2,0,0,0,.04.24,3.826,3.826,0,0,0,.1.59.783.783,0,0,0,.07.25,3.737,3.737,0,0,0,.17.57,1.555,1.555,0,0,0,.08.23,3.682,3.682,0,0,0,.26.57c.03.07.06.14.09.2h.01c.1.2.22.38.33.56a1.092,1.092,0,0,0,.13.17,3.49,3.49,0,0,0,.39.49v.01a1,1,0,0,0,.14.16h.01a2.681,2.681,0,0,0,.44.45,1.288,1.288,0,0,0,.17.16,4.78,4.78,0,0,0,.5.39v.01c.05.04.1.07.15.11a6.023,6.023,0,0,0,.6.37,1.009,1.009,0,0,0,.15.07,4.508,4.508,0,0,0,.63.29.471.471,0,0,0,.15.06,4.109,4.109,0,0,0,.68.21.266.266,0,0,0,.12.03,3.621,3.621,0,0,0,.73.14.274.274,0,0,0,.13.02,3.636,3.636,0,0,0,.74.05.127.127,0,0,0,.06.01h.05a5.028,5.028,0,0,0,.78-.05.014.014,0,0,0,.02,0,7.125,7.125,0,0,0,2.48-13.427Zm-2.95,10.127a1.829,1.829,0,0,1-.33.02c-.13,0-.26-.01-.39-.02s-.24-.03-.36-.05a3.829,3.829,0,0,1,0-7.51c.12-.02.24-.04.36-.05s.26-.02.39-.02a1.829,1.829,0,0,1,.33.02,3.824,3.824,0,0,1,0,7.61Z"/></g><g id="крутилка_side-2" data-name="крутилка side"><polygon class="cls-20" points="104.987 58.137 56.798 58.137 34.121 58.137 34.121 62.956 34.121 70.893 56.798 70.893 56.798 62.956 104.987 62.956 104.987 58.137"/><rect class="cls-43" x="34.121" y="58.137" width="4.77" height="12.756"/><rect class="cls-44" x="52.048" y="62.926" width="4.77" height="7.966" transform="translate(108.866 133.819) rotate(-180)"/></g></g></g></svg>