<svg id="servo-fs5106b" xmlns="http://www.w3.org/2000/svg" xmlns:xlink="http://www.w3.org/1999/xlink" width="106.537mm" height="86.239mm" viewBox="0 0 301.994 244.457">
  <defs>
    <style>
      .cls-1, .cls-11, .cls-12, .cls-2, .cls-3, .cls-33, .cls-45, .cls-8, .cls-9 {
        fill: none;
      }

      .cls-1 {
        stroke: #754c24;
      }

      .cls-1, .cls-10, .cls-11, .cls-12, .cls-16, .cls-17, .cls-19, .cls-2, .cls-20, .cls-21, .cls-22, .cls-23, .cls-24, .cls-27, .cls-28, .cls-29, .cls-3, .cls-30, .cls-31, .cls-32, .cls-33, .cls-34, .cls-35, .cls-36, .cls-37, .cls-4, .cls-41, .cls-42, .cls-45, .cls-46, .cls-8, .cls-9 {
        stroke-miterlimit: 10;
      }

      .cls-1, .cls-2, .cls-3 {
        stroke-width: 2.126px;
      }

      .cls-2 {
        stroke: red;
      }

      .cls-3 {
        stroke: #fcee21;
      }

      .cls-17, .cls-23, .cls-24, .cls-31, .cls-36, .cls-4, .cls-5 {
        fill: #343434;
      }

      .cls-30, .cls-4, .cls-45, .cls-8, .cls-9 {
        stroke: #4d4d4d;
      }

      .cls-10, .cls-11, .cls-12, .cls-23, .cls-24, .cls-29, .cls-32, .cls-35, .cls-4, .cls-41, .cls-42, .cls-46 {
        stroke-width: 0.142px;
      }

      .cls-10, .cls-29, .cls-30, .cls-6 {
        fill: #2e2e2e;
      }

      .cls-7 {
        fill: #4d4d4d;
      }

      .cls-8 {
        stroke-width: 1.417px;
      }

      .cls-9 {
        stroke-width: 0.992px;
      }

      .cls-10 {
        stroke: url(#Безымянный_градиент_22);
      }

      .cls-11 {
        stroke: url(#Безымянный_градиент_23);
      }

      .cls-12 {
        stroke: url(#Безымянный_градиент_23-2);
      }

      .cls-13, .cls-16, .cls-41, .cls-42 {
        fill: #333;
      }

      .cls-14 {
        fill: url(#Безымянный_градиент_34);
      }

      .cls-15 {
        fill: #b3b3b3;
      }

      .cls-16, .cls-17, .cls-19, .cls-20, .cls-21, .cls-22, .cls-27, .cls-28 {
        stroke: #1a1a1a;
      }

      .cls-16, .cls-17, .cls-31, .cls-33, .cls-34, .cls-36, .cls-37, .cls-45 {
        stroke-width: 0.283px;
      }

      .cls-18, .cls-26, .cls-44 {
        opacity: 0.24;
      }

      .cls-18 {
        fill: url(#Безымянный_градиент_86);
      }

      .cls-19 {
        fill: url(#Безымянный_градиент_73);
      }

      .cls-20 {
        fill: url(#Безымянный_градиент_73-2);
      }

      .cls-21 {
        fill: url(#Безымянный_градиент_73-3);
      }

      .cls-22 {
        fill: url(#Безымянный_градиент_73-4);
      }

      .cls-23 {
        stroke: url(#Безымянный_градиент_98);
      }

      .cls-24 {
        stroke: url(#Безымянный_градиент_96);
      }

      .cls-25 {
        fill: #2b2b2b;
      }

      .cls-26 {
        fill: url(#Безымянный_градиент_86-2);
      }

      .cls-27, .cls-28 {
        stroke-width: 0.567px;
      }

      .cls-27 {
        fill: url(#Безымянный_градиент_73-5);
      }

      .cls-28 {
        fill: url(#Безымянный_градиент_73-6);
      }

      .cls-29 {
        stroke: url(#Безымянный_градиент_22-2);
      }

      .cls-30 {
        stroke-width: 0.113px;
      }

      .cls-31, .cls-33 {
        stroke: #000;
      }

      .cls-32, .cls-34, .cls-35, .cls-37, .cls-46 {
        fill: #2a2a2b;
      }

      .cls-32 {
        stroke: url(#Безымянный_градиент_88);
      }

      .cls-34 {
        stroke: url(#Безымянный_градиент_87);
      }

      .cls-35 {
        stroke: url(#Безымянный_градиент_88-2);
      }

      .cls-36 {
        stroke: gray;
      }

      .cls-37 {
        stroke: url(#Безымянный_градиент_87-2);
      }

      .cls-38 {
        fill: #e6e6e6;
      }

      .cls-39 {
        fill: #1a1a1a;
      }

      .cls-40 {
        font-size: 10px;
        fill: #fff;
        font-family: TrebuchetMS, Trebuchet MS;
      }

      .cls-41 {
        stroke: url(#Безымянный_градиент_87-3);
      }

      .cls-42 {
        stroke: url(#Безымянный_градиент_87-4);
      }

      .cls-43 {
        fill: #999;
      }

      .cls-44 {
        fill: url(#Безымянный_градиент_86-3);
      }

      .cls-46 {
        stroke: url(#Безымянный_градиент_88-3);
      }
    </style>
    <linearGradient id="Безымянный_градиент_22" data-name="Безымянный градиент 22" x1="158.143" y1="162.351" x2="179.545" y2="162.351" gradientUnits="userSpaceOnUse">
      <stop offset="0" stop-color="#121212"/>
      <stop offset="0.1" stop-color="#212121"/>
      <stop offset="0.293" stop-color="#484848"/>
      <stop offset="0.559" stop-color="#888"/>
      <stop offset="0.884" stop-color="#dedede"/>
      <stop offset="1" stop-color="#fff"/>
    </linearGradient>
    <linearGradient id="Безымянный_градиент_23" data-name="Безымянный градиент 23" x1="158.143" y1="162.351" x2="179.545" y2="162.351" gradientUnits="userSpaceOnUse">
      <stop offset="0" stop-color="#262626"/>
      <stop offset="0.305" stop-color="#6c6c6c"/>
      <stop offset="0.785" stop-color="#d5d5d5"/>
      <stop offset="1" stop-color="#fff"/>
    </linearGradient>
    <linearGradient id="Безымянный_градиент_23-2" x1="32.143" y1="162.351" x2="53.545" y2="162.351" gradientTransform="matrix(1, 0, 0, -1, -8, 324.702)" xlink:href="#Безымянный_градиент_23"/>
    <linearGradient id="Безымянный_градиент_34" data-name="Безымянный градиент 34" x1="141.281" y1="140.189" x2="150.497" y2="140.189" gradientUnits="userSpaceOnUse">
      <stop offset="0" stop-color="#0d0d0d"/>
      <stop offset="0.388" stop-color="#0f0f0f"/>
      <stop offset="0.528" stop-color="#161616"/>
      <stop offset="0.627" stop-color="#212121"/>
      <stop offset="0.708" stop-color="#323232"/>
      <stop offset="0.777" stop-color="#484848"/>
      <stop offset="0.838" stop-color="#646464"/>
      <stop offset="0.893" stop-color="#848484"/>
      <stop offset="0.944" stop-color="#aaa"/>
      <stop offset="0.989" stop-color="#d3d3d3"/>
      <stop offset="1" stop-color="#dedede"/>
    </linearGradient>
    <linearGradient id="Безымянный_градиент_86" data-name="Безымянный градиент 86" x1="74.457" y1="119.484" x2="74.457" y2="112.856" gradientTransform="translate(148.914 232.34) rotate(-180)" gradientUnits="userSpaceOnUse">
      <stop offset="0.031" stop-color="#525252" stop-opacity="0"/>
      <stop offset="0.063" stop-color="#565656" stop-opacity="0.078"/>
      <stop offset="0.283" stop-color="#6e6e6e" stop-opacity="0.573"/>
      <stop offset="0.443" stop-color="#7c7c7c" stop-opacity="0.882"/>
      <stop offset="0.525" stop-color="#828282"/>
      <stop offset="1" stop-color="#0f0f0f" stop-opacity="0"/>
    </linearGradient>
    <linearGradient id="Безымянный_градиент_73" data-name="Безымянный градиент 73" x1="72.033" y1="116.17" x2="72.033" y2="116.17" gradientUnits="userSpaceOnUse">
      <stop offset="0.02" stop-color="#525252"/>
      <stop offset="0.028" stop-color="#4d4d4d"/>
      <stop offset="0.074" stop-color="#373737"/>
      <stop offset="0.129" stop-color="#262626"/>
      <stop offset="0.196" stop-color="#1b1b1b"/>
      <stop offset="0.291" stop-color="#141414"/>
      <stop offset="0.553" stop-color="#121212"/>
      <stop offset="0.705" stop-color="#161616"/>
      <stop offset="0.841" stop-color="#202020"/>
      <stop offset="0.97" stop-color="#333"/>
      <stop offset="1" stop-color="#383838"/>
    </linearGradient>
    <linearGradient id="Безымянный_градиент_73-2" x1="36.033" y1="116.17" x2="36.033" y2="116.17" xlink:href="#Безымянный_градиент_73"/>
    <linearGradient id="Безымянный_градиент_73-3" x1="77.265" y1="116.191" x2="77.265" y2="116.191" xlink:href="#Безымянный_градиент_73"/>
    <linearGradient id="Безымянный_градиент_73-4" x1="112.713" y1="116.234" x2="112.713" y2="116.234" xlink:href="#Безымянный_градиент_73"/>
    <linearGradient id="Безымянный_градиент_98" data-name="Безымянный градиент 98" x1="274.836" y1="134.417" x2="274.836" y2="131.441" gradientUnits="userSpaceOnUse">
      <stop offset="0" stop-color="#0d0d0d"/>
      <stop offset="0.692" stop-color="#a1a1a1"/>
      <stop offset="1" stop-color="#dedede"/>
    </linearGradient>
    <linearGradient id="Безымянный_градиент_96" data-name="Безымянный градиент 96" x1="274.836" y1="138.159" x2="274.836" y2="133.766" xlink:href="#Безымянный_градиент_98"/>
    <linearGradient id="Безымянный_градиент_86-2" x1="274.836" y1="119.484" x2="274.836" y2="112.856" gradientTransform="translate(549.672 232.34) rotate(-180)" xlink:href="#Безымянный_градиент_86"/>
    <linearGradient id="Безымянный_градиент_73-5" x1="268.523" y1="116.17" x2="268.523" y2="116.17" xlink:href="#Безымянный_градиент_73"/>
    <linearGradient id="Безымянный_градиент_73-6" x1="281.818" y1="116.234" x2="281.818" y2="116.234" xlink:href="#Безымянный_градиент_73"/>
    <linearGradient id="Безымянный_градиент_22-2" x1="246.829" y1="162.351" x2="301.994" y2="162.351" xlink:href="#Безымянный_градиент_22"/>
    <linearGradient id="Безымянный_градиент_88" data-name="Безымянный градиент 88" x1="400.666" y1="27.557" x2="420.636" y2="27.557" gradientTransform="matrix(-1, 0, 0, 1, 445.931, 0)" gradientUnits="userSpaceOnUse">
      <stop offset="0"/>
      <stop offset="0.373" stop-color="#020202"/>
      <stop offset="0.507" stop-color="#090909"/>
      <stop offset="0.603" stop-color="#141414"/>
      <stop offset="0.68" stop-color="#252525"/>
      <stop offset="0.746" stop-color="#3b3b3b"/>
      <stop offset="0.805" stop-color="#575757"/>
      <stop offset="0.858" stop-color="#777"/>
      <stop offset="0.907" stop-color="#9d9d9d"/>
      <stop offset="0.952" stop-color="#c8c8c8"/>
      <stop offset="0.993" stop-color="#f6f6f6"/>
      <stop offset="1" stop-color="#fff"/>
    </linearGradient>
    <linearGradient id="Безымянный_градиент_87" data-name="Безымянный градиент 87" x1="45.124" y1="27.653" x2="142.405" y2="27.653" gradientUnits="userSpaceOnUse">
      <stop offset="0"/>
      <stop offset="1" stop-color="#fff"/>
    </linearGradient>
    <linearGradient id="Безымянный_градиент_88-2" x1="124.559" y1="27.653" x2="150.212" y2="27.653" gradientTransform="matrix(1, 0, 0, 1, 0, 0)" xlink:href="#Безымянный_градиент_88"/>
    <linearGradient id="Безымянный_градиент_87-2" x1="101.575" y1="27.653" x2="113.197" y2="27.653" xlink:href="#Безымянный_градиент_87"/>
    <linearGradient id="Безымянный_градиент_87-3" x1="50.89" y1="27.653" x2="87.882" y2="27.653" xlink:href="#Безымянный_градиент_87"/>
    <linearGradient id="Безымянный_градиент_87-4" x1="52.307" y1="27.653" x2="86.464" y2="27.653" xlink:href="#Безымянный_градиент_87"/>
    <linearGradient id="Безымянный_градиент_86-3" x1="17.133" y1="27.653" x2="122.502" y2="27.653" gradientTransform="matrix(1, 0, 0, 1, 0, 0)" xlink:href="#Безымянный_градиент_86"/>
    <linearGradient id="Безымянный_градиент_88-3" x1="158.013" y1="27.557" x2="177.984" y2="27.557" gradientTransform="matrix(1, 0, 0, 1, 0, 0)" xlink:href="#Безымянный_градиент_88"/>
  </defs>
  <title>servo-fs5106b</title>
  <g id="side_1" data-name="side 1">
    <g>
      <polyline class="cls-1" points="13.572 231.059 16.566 231.747 41.976 231.747"/>
      <polyline class="cls-2" points="13.572 233.747 16.566 233.747 41.976 233.747"/>
      <polyline class="cls-3" points="13.572 236.684 16.357 235.747 41.976 235.747"/>
    </g>
    <rect class="cls-4" x="44.165" y="229.266" width="1.62" height="8.46"/>
    <rect class="cls-5" x="40.961" y="230.562" width="3.976" height="6.336"/>
    <polygon class="cls-4" points="177.737 158.949 158.214 158.949 158.214 156.33 177.737 158.949"/>
    <polygon class="cls-4" points="26.016 158.949 45.539 158.949 45.539 156.33 26.016 158.949"/>
    <rect class="cls-5" x="45.467" y="143.827" width="112.819" height="100.63" rx="0.968"/>
    <path class="cls-6" d="M45.542,241.446h10.6a.97.97,0,0,1,.97.97v1.966a.074.074,0,0,1-.074.074H45.812a.345.345,0,0,1-.345-.345V241.52A.074.074,0,0,1,45.542,241.446Z" transform="translate(102.582 485.902) rotate(-180)"/>
    <rect class="cls-6" x="45.467" y="233.142" width="112.819" height="7"/>
    <path class="cls-6" d="M24.214,158.949H43.668a1.806,1.806,0,0,1,1.806,1.806v3.191a1.806,1.806,0,0,1-1.806,1.806H24.214a0,0,0,0,1,0,0v-6.8a0,0,0,0,1,0,0Z" transform="translate(69.688 324.702) rotate(-180)"/>
    <path class="cls-7" d="M46.618,241.622h9.038a1.15,1.15,0,0,1,1.15,1.15v.534a1.15,1.15,0,0,1-1.15,1.15h-9.2a.992.992,0,0,1-.992-.992v-.692A1.15,1.15,0,0,1,46.618,241.622Z"/>
    <path class="cls-6" d="M146.984,241.446h11.228a.074.074,0,0,1,.074.074v1.966a.97.97,0,0,1-.97.97h-10.6a.074.074,0,0,1-.074-.074v-2.592A.345.345,0,0,1,146.984,241.446Z"/>
    <rect class="cls-6" x="48.341" y="243.654" width="5.592" height="0.803" rx="0.283"/>
    <rect class="cls-7" x="146.948" y="241.622" width="11.339" height="2.835" rx="1.044"/>
    <rect class="cls-6" x="149.821" y="243.654" width="5.592" height="0.803" rx="0.283"/>
    <line class="cls-8" x1="45.467" y1="166.504" x2="158.286" y2="166.504"/>
    <line class="cls-9" x1="45.467" y1="146.504" x2="158.286" y2="146.504"/>
    <path class="cls-10" d="M158.214,158.949H177.92a1.554,1.554,0,0,1,1.554,1.554v3.7a1.554,1.554,0,0,1-1.554,1.554H158.214a0,0,0,0,1,0,0v-6.8A0,0,0,0,1,158.214,158.949Z"/>
    <path class="cls-11" d="M158.214,158.949H177.92a1.554,1.554,0,0,1,1.554,1.554v3.7a1.554,1.554,0,0,1-1.554,1.554H158.214a0,0,0,0,1,0,0v-6.8A0,0,0,0,1,158.214,158.949Z"/>
    <path class="cls-12" d="M24.214,158.949H43.92a1.554,1.554,0,0,1,1.554,1.554v3.7a1.554,1.554,0,0,1-1.554,1.554H24.214a0,0,0,0,1,0,0v-6.8a0,0,0,0,1,0,0Z" transform="translate(69.688 324.702) rotate(-180)"/>
    <path class="cls-13" d="M48.724,137.024H141.5a.347.347,0,0,1,.347.347v6.456a0,0,0,0,1,0,0H46.636a.347.347,0,0,1-.347-.347v-4.021a2.435,2.435,0,0,1,2.435-2.435Z"/>
    <path class="cls-13" d="M57.734,133.114H91.179a1.7,1.7,0,0,1,1.7,1.7v2.549a0,0,0,0,1,0,0H56.032a0,0,0,0,1,0,0v-2.549a1.7,1.7,0,0,1,1.7-1.7Z"/>
    <path class="cls-13" d="M58.619,131.512H90.3a1.17,1.17,0,0,1,1.17,1.17v1.665a0,0,0,0,1,0,0h-34a.012.012,0,0,1-.012-.012v-1.653a1.17,1.17,0,0,1,1.17-1.17Z"/>
    <rect class="cls-13" x="110.513" y="135.24" width="31.333" height="2.622"/>
    <rect class="cls-13" x="108.005" y="135.584" width="3.072" height="1.44" rx="0.72"/>
    <path class="cls-14" d="M142,136.551h7.776a.72.72,0,0,1,.72.72v6.556a0,0,0,0,1,0,0H142a.72.72,0,0,1-.72-.72v-5.836A.72.72,0,0,1,142,136.551Z"/>
    <rect class="cls-15" x="65.953" y="120.173" width="17.008" height="11.339"/>
    <path class="cls-16" d="M64.665,110.642H84.249a0,0,0,0,1,0,0v15.291a1.2,1.2,0,0,1-1.2,1.2H65.865a1.2,1.2,0,0,1-1.2-1.2V110.642A0,0,0,0,1,64.665,110.642Z" transform="translate(148.914 237.776) rotate(180)"/>
    <g>
      <rect class="cls-17" x="18.473" y="112.877" width="111.969" height="6.628" rx="2.342" transform="translate(148.914 232.383) rotate(180)"/>
      <rect class="cls-18" x="18.473" y="112.856" width="111.969" height="6.628" rx="2.342" transform="translate(148.914 232.34) rotate(180)"/>
      <line class="cls-19" x1="72.033" y1="112.856" x2="72.033" y2="119.484"/>
      <line class="cls-20" x1="36.033" y1="112.856" x2="36.033" y2="119.484"/>
      <line class="cls-21" x1="77.265" y1="112.877" x2="77.265" y2="119.505"/>
      <line class="cls-22" x1="112.713" y1="112.92" x2="112.713" y2="119.548"/>
    </g>
  </g>
  <g id="side">
    <path class="cls-23" d="M259,131.512h31.676a1.17,1.17,0,0,1,1.17,1.17v1.665a0,0,0,0,1,0,0h-34a.012.012,0,0,1-.012-.012v-1.653A1.17,1.17,0,0,1,259,131.512Z"/>
    <g>
      <polyline class="cls-1" points="221.311 231.059 224.305 231.747 249.715 231.747"/>
      <polyline class="cls-2" points="221.311 233.747 224.305 233.747 249.715 233.747"/>
      <polyline class="cls-3" points="221.311 236.684 224.096 235.747 249.715 235.747"/>
      <rect class="cls-4" x="251.904" y="229.266" width="1.62" height="8.46"/>
      <rect class="cls-5" x="248.7" y="230.562" width="3.976" height="6.336"/>
    </g>
    <rect class="cls-5" x="246.9" y="143.827" width="55.023" height="100.63" rx="0.968"/>
    <path class="cls-6" d="M246.974,241.446h4.636a.97.97,0,0,1,.97.97v1.966a.074.074,0,0,1-.074.074h-5.261a.345.345,0,0,1-.345-.345V241.52a.074.074,0,0,1,.074-.074Z" transform="translate(499.48 485.902) rotate(-180)"/>
    <rect class="cls-6" x="246.9" y="233.142" width="55.023" height="7"/>
    <path class="cls-7" d="M248.05,241.622h3.229a1.15,1.15,0,0,1,1.15,1.15v.534a1.15,1.15,0,0,1-1.15,1.15h-3.387a.992.992,0,0,1-.992-.992v-.692A1.15,1.15,0,0,1,248.05,241.622Z"/>
    <path class="cls-6" d="M296.587,241.446h5.261a.074.074,0,0,1,.074.074v1.966a.97.97,0,0,1-.97.97h-4.636a.074.074,0,0,1-.074-.074v-2.592a.345.345,0,0,1,.345-.345Z"/>
    <rect class="cls-6" x="248.301" y="243.654" width="2.727" height="0.803" rx="0.283"/>
    <rect class="cls-7" x="296.393" y="241.622" width="5.53" height="2.835" rx="1.044"/>
    <rect class="cls-6" x="297.794" y="243.654" width="2.727" height="0.803" rx="0.283"/>
    <line class="cls-8" x1="246.9" y1="166.504" x2="301.923" y2="166.504"/>
    <line class="cls-9" x1="246.9" y1="146.504" x2="301.923" y2="146.504"/>
    <path class="cls-13" d="M258.113,140.413h33.445a1.7,1.7,0,0,1,1.7,1.7v2.549a0,0,0,0,1,0,0h-36.85a0,0,0,0,1,0,0v-2.549A1.7,1.7,0,0,1,258.113,140.413Z"/>
    <path class="cls-24" d="M258.113,133.836h33.445a1.7,1.7,0,0,1,1.7,1.7v2.549a0,0,0,0,1,0,0h-36.85a0,0,0,0,1,0,0v-2.549A1.7,1.7,0,0,1,258.113,133.836Z"/>
    <path class="cls-25" d="M249.335,137.578H300.1a1.819,1.819,0,0,1,1.819,1.819v5.268a0,0,0,0,1,0,0H247.247a.347.347,0,0,1-.347-.347v-4.3A2.435,2.435,0,0,1,249.335,137.578Z"/>
    <rect class="cls-15" x="266.332" y="120.173" width="17.008" height="11.339"/>
    <path class="cls-16" d="M265.044,110.642h19.584a0,0,0,0,1,0,0v15.291a1.2,1.2,0,0,1-1.2,1.2H266.244a1.2,1.2,0,0,1-1.2-1.2V110.642A0,0,0,0,1,265.044,110.642Z" transform="translate(549.672 237.776) rotate(180)"/>
    <g>
      <path class="cls-17" d="M260.638,119.484h28.4a2.608,2.608,0,0,0,2.81-2.341V115.2a2.608,2.608,0,0,0-2.81-2.342h-28.4a2.608,2.608,0,0,0-2.81,2.342v1.945A2.608,2.608,0,0,0,260.638,119.484Z" transform="translate(0)"/>
      <rect class="cls-26" x="257.828" y="112.856" width="34.016" height="6.628" rx="2.342" transform="translate(549.672 232.34) rotate(180)"/>
      <line class="cls-27" x1="268.523" y1="112.856" x2="268.523" y2="119.484"/>
      <line class="cls-28" x1="281.818" y1="112.92" x2="281.818" y2="119.548"/>
    </g>
    <path class="cls-29" d="M248.308,158.949h52.061a1.554,1.554,0,0,1,1.554,1.554v3.7a1.554,1.554,0,0,1-1.554,1.554H248.308a1.408,1.408,0,0,1-1.408-1.408v-3.987a1.408,1.408,0,0,1,1.408-1.408Z"/>
    <polygon class="cls-30" points="277.722 153.726 275.722 158.949 273.1 158.949 271.1 153.726 277.722 153.726"/>
    <rect class="cls-4" x="255.428" y="158.949" width="6.264" height="6.803"/>
    <rect class="cls-4" x="287.428" y="158.949" width="6.264" height="6.803"/>
  </g>
  <g id="top">
    <g>
      <polyline class="cls-1" points="0.221 26.985 4.962 27.672 45.195 27.672"/>
      <polyline class="cls-2" points="0.221 29.672 4.962 29.672 45.195 29.672"/>
      <polyline class="cls-3" points="0.221 32.61 4.63 31.672 45.195 31.672"/>
    </g>
    <g>
      <path class="cls-31" d="M31.341,9.72a3.032,3.032,0,0,0-2.336.876,2.779,2.779,0,0,1-1.711.8H25.8a.453.453,0,0,1-.432-.461V.711A.454.454,0,0,1,25.8.249H47.16L47.1,55.163H25.8a.454.454,0,0,1-.432-.462V44.482a.454.454,0,0,1,.432-.463h1.5a2.783,2.783,0,0,1,1.712.8,3.024,3.024,0,0,0,2.335.875,4.254,4.254,0,0,0,0-8.489,3.036,3.036,0,0,0-2.336.876,2.78,2.78,0,0,1-1.711.8H25.8a.455.455,0,0,1-.432-.462V17a.453.453,0,0,1,.432-.462h1.5a2.776,2.776,0,0,1,1.712.795,3.025,3.025,0,0,0,2.335.876,4.114,4.114,0,0,0,3.97-4.245A4.114,4.114,0,0,0,31.341,9.72Z" transform="translate(0)"/>
      <polygon class="cls-32" points="25.366 29.485 45.195 30.485 45.195 24.629 25.366 25.629 25.366 29.485"/>
    </g>
    <path class="cls-31" d="M171.938,9.72a3.032,3.032,0,0,1,2.336.876,2.779,2.779,0,0,0,1.711.8h1.5a.453.453,0,0,0,.432-.461V.711a.454.454,0,0,0-.432-.462H156.119l.056,54.914h21.306a.454.454,0,0,0,.432-.462V44.482a.454.454,0,0,0-.432-.463h-1.5a2.783,2.783,0,0,0-1.712.8,3.024,3.024,0,0,1-2.335.875,4.254,4.254,0,0,1,0-8.489,3.036,3.036,0,0,1,2.336.876,2.78,2.78,0,0,0,1.711.8h1.5a.455.455,0,0,0,.432-.462V17a.453.453,0,0,0-.432-.462h-1.5a2.776,2.776,0,0,0-1.712.795,3.025,3.025,0,0,1-2.335.876,4.114,4.114,0,0,1-3.97-4.245A4.114,4.114,0,0,1,171.938,9.72Z" transform="translate(0)"/>
    <rect class="cls-5" x="45.265" y="0.171" width="112.819" height="54.992" rx="0.968"/>
    <rect class="cls-33" x="45.265" y="0.171" width="112.819" height="54.992" rx="0.968"/>
    <path class="cls-34" d="M94.692,1.171a141.332,141.332,0,0,0-18.12-1c-.5.014-.992.042-1.483.076C74.326.183,73.556.142,72.776.142h0A27.592,27.592,0,0,0,45.265,27.653h0A27.592,27.592,0,0,0,72.776,55.164h0c.63,0,1.252-.029,1.871-.072.634.045,1.274.074,1.925.071,5.285-.021,18.12-1,18.12-1h47.571V1.171Z" transform="translate(0)"/>
    <g>
      <rect class="cls-35" x="124.63" y="14.897" width="25.512" height="25.512" rx="12.756"/>
      <rect class="cls-36" x="106.547" y="1.171" width="35.717" height="52.992"/>
      <rect class="cls-37" x="101.716" y="21.983" width="11.339" height="11.339" rx="5.669"/>
    </g>
    <g>
      <rect class="cls-38" x="107.386" y="2.141" width="16.773" height="51.024"/>
      <rect class="cls-39" x="124.405" y="2.141" width="16.773" height="51.024"/>
      <text class="cls-40" transform="translate(136.098 46.505) rotate(-90)">FS5106B</text>
    </g>
    <g>
      <rect class="cls-41" x="50.96" y="9.227" width="36.85" height="36.85" rx="18.425"/>
      <rect class="cls-42" x="52.378" y="10.645" width="34.016" height="34.016" rx="17.008"/>
      <rect class="cls-15" x="60.882" y="19.149" width="17.008" height="17.008" rx="8.504"/>
      <rect class="cls-43" x="66.553" y="24.82" width="5.665" height="5.665" rx="2.833"/>
    </g>
    <g>
      <g>
        <path class="cls-17" d="M116.771,22.787h0L71.22,17.873a25.789,25.789,0,0,0-4.5.057L22.959,20.8h0a5.668,5.668,0,0,0-5.822,5.509v0a5.668,5.668,0,0,0,5.509,5.822h0l44.69,5.3a28.834,28.834,0,0,0,5.376-.119l44.077-3.267h0a5.54,5.54,0,0,0,5.714-5.523v0A5.816,5.816,0,0,0,116.771,22.787ZM21.789,27.758a1.317,1.317,0,0,1-1.279-1.352v0a1.314,1.314,0,0,1,1.35-1.276h0a1.316,1.316,0,0,1-.073,2.631Zm5.936.751a1.9,1.9,0,1,1,1.952-1.847A1.9,1.9,0,0,1,27.725,28.509Zm5.968-.422a1.316,1.316,0,0,1-1.28-1.35v0a1.316,1.316,0,1,1,1.28,1.355Zm5.949.167A1.315,1.315,0,0,1,38.364,26.9h0a1.315,1.315,0,0,1,1.35-1.278h0a1.316,1.316,0,0,1-.074,2.631Zm5.954.164a1.316,1.316,0,0,1,.069-2.631h0a1.316,1.316,0,1,1-.07,2.631Zm5.951.166a1.315,1.315,0,0,1-1.281-1.35v0a1.315,1.315,0,1,1,1.281,1.354Zm5.95.166a1.315,1.315,0,0,1-1.28-1.351v0a1.315,1.315,0,0,1,1.351-1.278h0A1.316,1.316,0,0,1,57.5,28.75Zm11.876,5.662a6.645,6.645,0,0,1-6.459-6.827h0a6.646,6.646,0,1,1,6.459,6.828ZM83.024,27.8A1.287,1.287,0,0,1,81.7,29.077a1.35,1.35,0,0,1-1.33-1.332,1.287,1.287,0,0,1,1.328-1.282h0a1.349,1.349,0,0,1,1.33,1.331Zm6.012.112a1.287,1.287,0,0,1-1.329,1.28,1.351,1.351,0,0,1-1.329-1.334,1.287,1.287,0,0,1,1.327-1.28A1.35,1.35,0,0,1,89.036,27.9ZM93.718,29.3a1.349,1.349,0,0,1-1.329-1.333,1.287,1.287,0,0,1,1.328-1.282h0a1.352,1.352,0,0,1,1.328,1.334A1.286,1.286,0,0,1,93.718,29.3Zm7.34-1.171a1.286,1.286,0,0,1-1.326,1.283A1.351,1.351,0,0,1,98.4,28.079,1.287,1.287,0,0,1,99.727,26.8h0a1.349,1.349,0,0,1,1.329,1.331Zm6.011.111a1.285,1.285,0,0,1-1.327,1.281,1.349,1.349,0,0,1-1.329-1.332,1.285,1.285,0,0,1,1.327-1.281,1.347,1.347,0,0,1,1.329,1.328Zm4.686,1.975a1.948,1.948,0,0,1-1.921-1.923,1.857,1.857,0,0,1,1.915-1.851,1.951,1.951,0,0,1,1.922,1.923A1.858,1.858,0,0,1,111.755,30.213Zm7.338-1.753a1.287,1.287,0,0,1-1.326,1.283,1.351,1.351,0,0,1-1.331-1.332,1.285,1.285,0,0,1,1.326-1.282h0a1.348,1.348,0,0,1,1.329,1.328Z" transform="translate(0)"/>
        <path class="cls-44" d="M116.771,22.787h0L71.22,17.873a25.789,25.789,0,0,0-4.5.057L22.959,20.8h0a5.668,5.668,0,0,0-5.822,5.509v0a5.668,5.668,0,0,0,5.509,5.822h0l44.69,5.3a28.834,28.834,0,0,0,5.376-.119l44.077-3.267h0a5.54,5.54,0,0,0,5.714-5.523v0A5.816,5.816,0,0,0,116.771,22.787ZM21.789,27.758a1.317,1.317,0,0,1-1.279-1.352v0a1.314,1.314,0,0,1,1.35-1.276h0a1.316,1.316,0,0,1-.073,2.631Zm5.936.751a1.9,1.9,0,1,1,1.952-1.847A1.9,1.9,0,0,1,27.725,28.509Zm5.968-.422a1.316,1.316,0,0,1-1.28-1.35v0a1.316,1.316,0,1,1,1.28,1.355Zm5.949.167A1.315,1.315,0,0,1,38.364,26.9h0a1.315,1.315,0,0,1,1.35-1.278h0a1.316,1.316,0,0,1-.074,2.631Zm5.954.164a1.316,1.316,0,0,1,.069-2.631h0a1.316,1.316,0,1,1-.07,2.631Zm5.951.166a1.315,1.315,0,0,1-1.281-1.35v0a1.315,1.315,0,1,1,1.281,1.354Zm5.95.166a1.315,1.315,0,0,1-1.28-1.351v0a1.315,1.315,0,0,1,1.351-1.278h0A1.316,1.316,0,0,1,57.5,28.75Zm11.876,5.662a6.645,6.645,0,0,1-6.459-6.827h0a6.646,6.646,0,1,1,6.459,6.828ZM83.024,27.8A1.287,1.287,0,0,1,81.7,29.077a1.35,1.35,0,0,1-1.33-1.332,1.287,1.287,0,0,1,1.328-1.282h0a1.349,1.349,0,0,1,1.33,1.331Zm6.012.112a1.287,1.287,0,0,1-1.329,1.28,1.351,1.351,0,0,1-1.329-1.334,1.287,1.287,0,0,1,1.327-1.28A1.35,1.35,0,0,1,89.036,27.9ZM93.718,29.3a1.349,1.349,0,0,1-1.329-1.333,1.287,1.287,0,0,1,1.328-1.282h0a1.352,1.352,0,0,1,1.328,1.334A1.286,1.286,0,0,1,93.718,29.3Zm7.34-1.171a1.286,1.286,0,0,1-1.326,1.283A1.351,1.351,0,0,1,98.4,28.079,1.287,1.287,0,0,1,99.727,26.8h0a1.349,1.349,0,0,1,1.329,1.331Zm6.011.111a1.285,1.285,0,0,1-1.327,1.281,1.349,1.349,0,0,1-1.329-1.332,1.285,1.285,0,0,1,1.327-1.281,1.347,1.347,0,0,1,1.329,1.328Zm4.686,1.975a1.948,1.948,0,0,1-1.921-1.923,1.857,1.857,0,0,1,1.915-1.851,1.951,1.951,0,0,1,1.922,1.923A1.858,1.858,0,0,1,111.755,30.213Zm7.338-1.753a1.287,1.287,0,0,1-1.326,1.283,1.351,1.351,0,0,1-1.331-1.332,1.285,1.285,0,0,1,1.326-1.282h0a1.348,1.348,0,0,1,1.329,1.328Z" transform="translate(0)"/>
      </g>
      <g>
        <path class="cls-39" d="M69.578,20.989A6.68,6.68,0,1,0,69.4,34.346a6.5,6.5,0,0,0,6.7-6.477h0A6.781,6.781,0,0,0,69.578,20.989Zm4.559,6.821A4.6,4.6,0,0,1,69.393,32.4a4.729,4.729,0,1,1,4.744-4.587Z" transform="translate(0)"/>
        <path id="path5612" class="cls-45" d="M75.054,27.838a5.487,5.487,0,0,1-5.66,5.47,5.642,5.642,0,1,1,5.66-5.471h0" transform="translate(0)"/>
      </g>
    </g>
    <polygon class="cls-46" points="177.913 29.485 158.084 30.485 158.084 24.629 177.913 25.629 177.913 29.485"/>
  </g>
</svg>
