<svg id="servo-fs90" xmlns="http://www.w3.org/2000/svg" xmlns:xlink="http://www.w3.org/1999/xlink" width="84.8096mm" height="30.0507mm" viewBox="0 0 240.4052 85.1832">
  <defs>
    <style>
      .cls-1, .cls-2, .cls-3 {
        fill: none;
        stroke-width: 2.126px;
      }

      .cls-1 {
        stroke: #754c24;
      }

      .cls-1, .cls-2, .cls-3, .cls-4, .cls-5, .cls-6, .cls-9 {
        stroke-miterlimit: 10;
      }

      .cls-2 {
        stroke: red;
      }

      .cls-3 {
        stroke: #fcee21;
      }

      .cls-4, .cls-5, .cls-6, .cls-9 {
        stroke: #154eaa;
      }

      .cls-4 {
        stroke-width: 1.4173px;
        fill: url(#Безымянный_градиент_12);
      }

      .cls-17, .cls-5 {
        fill: #2467d3;
      }

      .cls-5, .cls-6, .cls-9 {
        stroke-width: 1.4173px;
      }

      .cls-11, .cls-6, .cls-9 {
        fill: #0f58ce;
      }

      .cls-7 {
        font-size: 7px;
        fill: #f49a40;
        font-family: TrebuchetMS-Bold, Trebuchet MS;
        font-weight: 700;
      }

      .cls-8 {
        letter-spacing: -0.0362em;
      }

      .cls-9 {
        opacity: 0.96;
      }

      .cls-10 {
        fill: #154eaa;
      }

      .cls-12 {
        fill: #d3d3d3;
      }

      .cls-13 {
        fill: #e8e7e6;
      }

      .cls-14 {
        fill: #7f7b77;
      }

      .cls-15 {
        fill: #999;
      }

      .cls-16 {
        fill: #6d6e71;
      }

      .cls-18 {
        fill: url(#Безымянный_градиент_9);
      }

      .cls-19 {
        fill: #e6e7e8;
      }

      .cls-20 {
        fill: #939598;
      }
    </style>
    <linearGradient id="Безымянный_градиент_12" data-name="Безымянный градиент 12" x1="177.2771" y1="42.4065" x2="177.2771" y2="15.1511" gradientUnits="userSpaceOnUse">
      <stop offset="0.0351" stop-color="#0071bc"/>
      <stop offset="1" stop-color="#2e3192"/>
    </linearGradient>
    <linearGradient id="Безымянный_градиент_9" data-name="Безымянный градиент 9" x1="63.7791" y1="52.7952" x2="63.7791" y2="20.7792" gradientTransform="translate(109.1338 67.754) rotate(180)" gradientUnits="userSpaceOnUse">
      <stop offset="0.0351" stop-color="#0071bc"/>
      <stop offset="0.2563" stop-color="#046cb9"/>
      <stop offset="0.5224" stop-color="#0e5daf"/>
      <stop offset="0.8104" stop-color="#20459f"/>
      <stop offset="1" stop-color="#2e3192"/>
    </linearGradient>
  </defs>
  <title>servo-fs90</title>
  <g id="side">
    <g>
      <polyline class="cls-1" points="214.532 64.258 237.344 64.258 240.032 63.57"/>
      <polyline class="cls-2" points="214.532 66.258 237.344 66.258 240.032 66.258"/>
      <polyline class="cls-3" points="214.532 68.258 237.532 68.258 240.032 69.195"/>
    </g>
    <polygon class="cls-4" points="210.673 15.151 144.476 15.151 139.985 23.134 139.985 34.585 144.476 42.407 210.673 42.407 214.569 34.744 214.479 23.437 210.673 15.151"/>
    <rect class="cls-5" x="144.282" y="43.3997" width="66" height="40.8582"/>
    <polygon class="cls-6" points="210.238 57.983 214.79 53.749 214.522 34.399 210.238 43.336 210.238 57.983"/>
    <path class="cls-6" d="M210.7437,84.2222l4.0383-4.3715V53.9227h-4.5l.0554,30.0687C210.3393,84.2408,210.5807,84.378,210.7437,84.2222Z"/>
    <text class="cls-7" transform="translate(161.0741 66.2578) scale(1.5686 1)">SE<tspan class="cls-8" x="7.5607" y="0">R</tspan><tspan x="11.5834" y="0">VO</tspan></text>
    <polygon class="cls-6" points="144.269 58.169 139.717 53.935 139.985 34.585 144.269 43.523 144.269 58.169"/>
    <path class="cls-6" d="M143.7633,84.4085,139.725,80.037V54.109h4.5L144.17,84.1777C144.1676,84.4271,143.9263,84.5643,143.7633,84.4085Z"/>
    <path class="cls-9" d="M129.3986,49.8627a8.5021,8.5021,0,0,1,1.1465.5465h0a3.7621,3.7621,0,0,0,3.7031.6709,3.1975,3.1975,0,0,0-.1115-5.6977c-1.2842-.6057-2.3091-.2139-3.9225.8245h0l-.9328.4251a4.2936,4.2936,0,0,1-.6569.0782V42.1685H139.88l-.1171,5.041,4.3776,5.8375c.1808.2287.0516,1.2268-.2076,1.2311l-15.3017-.1691-.007-4.3691A5.78,5.78,0,0,1,129.3986,49.8627Z"/>
    <path class="cls-9" d="M225.1084,49.6764a8.4959,8.4959,0,0,0-1.1465.5465h0a3.7621,3.7621,0,0,1-3.7031.6709,3.1975,3.1975,0,0,1,.1114-5.6977c1.2843-.6057,2.3092-.2139,3.9226.8245h0l.9328.4251a4.2936,4.2936,0,0,0,.6569.0782V41.9822H214.6267l.1171,5.041-4.3776,5.8375c-.1808.2287-.0516,1.2268.2076,1.2311l15.3017-.1691.007-4.3691A5.7775,5.7775,0,0,0,225.1084,49.6764Z"/>
    <polygon class="cls-6" points="210.238 57.983 214.79 53.749 214.522 34.399 210.238 43.336 210.238 57.983"/>
    <path class="cls-6" d="M210.7437,84.2222l4.0383-4.3715V53.9227h-4.5l.0554,30.0687C210.3393,84.2408,210.5807,84.378,210.7437,84.2222Z"/>
    <path class="cls-9" d="M225.1084,49.6764a8.4959,8.4959,0,0,0-1.1465.5465h0a3.7621,3.7621,0,0,1-3.7031.6709,3.1975,3.1975,0,0,1,.1114-5.6977c1.2843-.6057,2.3092-.2139,3.9226.8245h0l.9328.4251a4.2936,4.2936,0,0,0,.6569.0782V41.9822H214.6267l.1171,5.041-4.3776,5.8375c-.1808.2287-.0516,1.2268.2076,1.2311l15.3017-.1691.007-4.3691A5.7775,5.7775,0,0,0,225.1084,49.6764Z"/>
    <g>
      <path id="path5572" class="cls-10" d="M156.6854,15.9138a12.7481,12.7481,0,1,0,12.7481,12.75,12.7476,12.7476,0,0,0-12.7481-12.7495"/>
      <path id="path5576" class="cls-10" d="M168.675,21.7084a6.9535,6.9535,0,1,0,6.9528,6.9549,6.9542,6.9542,0,0,0-6.9528-6.9549"/>
      <path id="path5580" class="cls-11" d="M156.6854,18.2316a10.43,10.43,0,1,0,10.43,10.4317,10.43,10.43,0,0,0-10.43-10.4317"/>
      <path id="path5584" class="cls-11" d="M168.6752,23.4468a5.2151,5.2151,0,1,0,5.2142,5.216,5.2167,5.2167,0,0,0-5.2142-5.216"/>
      <g>
        <path class="cls-12" d="M167.8254,31.706c7.6384-4.4938,27.4677-21.2682,27.4677-21.2682,2.583-2.19,4.3829-4.0541,4.3525-5.9707-.0219-1.3758-.0524-3.662-2.0232-3.9482a9.2535,9.2535,0,0,0-6.35,1.1523s-30.1706,14.894-39.2922,21.3253c-4.1477,2.9243-3.8732,4.5406-4.1431,6.827-.3851,3.2631,2.7093,5.0928,6.2206,5.9118C159.1638,36.9262,165.2472,33.2228,167.8254,31.706Z"/>
        <path class="cls-13" d="M167.7669,30.9929c7.9445-4.5757,28.1736-22.2248,28.1736-22.2248,2.5478-2.1765,3.441-3.724,3.5773-5.189.1314-1.412-.6964-4.01-4.1738-3.5179a13.3944,13.3944,0,0,0-3.8156.9456c-10.439,3.8724-30.0667,14.5309-39.9811,20.5442-4.2947,2.6049-3.9839,4.7463-4.1885,7.0916-.2921,3.3473,2.8934,5.3231,6.47,6.2712C159.0305,36.2924,165.193,32.4753,167.7669,30.9929Z"/>
        <path class="cls-14" d="M156.9283,32.2512h0c2.06,0,6.4883-.4718,6.4883-3.9421h0c0-2.06-3.1852-3.72-6.1049-3.72l-.1984.0221c-3.37.1689-6.0441,1.749-6.0441,3.809h0C151.0692,31.6543,154.8683,32.2512,156.9283,32.2512Z"/>
        <path class="cls-15" d="M156.9283,30.9929h0c2.06,0,6.4883-.4719,6.4883-3.9421h0c0-2.06-3.1852-3.72-6.1049-3.72l-.1984.0222c-3.37.1689-6.0441,1.749-6.0441,3.809h0C151.0692,30.396,154.8683,30.9929,156.9283,30.9929Z"/>
        <path id="path5616" class="cls-16" d="M165.7963,22.87a1.1584,1.1584,0,1,1,1.6158.2644,1.1561,1.1561,0,0,1-1.6158-.2644"/>
        <path id="path5620" class="cls-16" d="M170.5629,19.8a1.1591,1.1591,0,1,1,1.6175.2643,1.16,1.16,0,0,1-1.6175-.2643"/>
        <path id="path5624" class="cls-16" d="M175.3323,16.7256a1.1583,1.1583,0,1,1,1.6165.2652,1.1574,1.1574,0,0,1-1.6165-.2652"/>
        <path id="path5628" class="cls-16" d="M180.1,13.6553a1.1584,1.1584,0,1,1,1.6155.2646,1.1576,1.1576,0,0,1-1.6155-.2646"/>
        <path id="path5632" class="cls-16" d="M184.8674,10.6028a1.1588,1.1588,0,1,1,1.6167.2661,1.1581,1.1581,0,0,1-1.6167-.2661"/>
        <path id="path5636" class="cls-16" d="M189.165,8.0427a1.7374,1.7374,0,1,1,2.4262.3988,1.7355,1.7355,0,0,1-2.4262-.3988"/>
        <path id="path5640" class="cls-16" d="M194.4034,4.4241a1.1584,1.1584,0,1,1,1.6164.2651,1.1574,1.1574,0,0,1-1.6164-.2651"/>
      </g>
    </g>
  </g>
  <g id="top">
    <g>
      <polyline class="cls-1" points="73.628 29.017 96.44 29.017 99.128 28.33"/>
      <polyline class="cls-2" points="73.628 31.017 96.44 31.017 99.128 31.017"/>
      <polyline class="cls-3" points="73.628 33.017 96.628 33.017 99.128 33.955"/>
    </g>
    <g>
      <path id="path5548" class="cls-17" d="M89.292,14.9588a.4227.4227,0,0,1,.417.417v12.848a.4232.4232,0,0,1-.417.417H87.847a2.7684,2.7684,0,0,1-1.653-.719,3.045,3.045,0,0,0-2.256-.791,3.835,3.835,0,0,0,0,7.67,3.0376,3.0376,0,0,0,2.255-.791,2.7712,2.7712,0,0,1,1.654-.719h1.445a.4229.4229,0,0,1,.417.418v12.848a.4236.4236,0,0,1-.417.418H1.417A.4234.4234,0,0,1,1,46.5568V33.7088a.4228.4228,0,0,1,.417-.418H2.862a2.7658,2.7658,0,0,1,1.653.719,3.0433,3.0433,0,0,0,2.256.791,3.835,3.835,0,0,0,0-7.67,3.0459,3.0459,0,0,0-2.256.791,2.7684,2.7684,0,0,1-1.653.719H1.417A.4232.4232,0,0,1,1,28.2238V15.3758a.4227.4227,0,0,1,.417-.417Z"/>
      <path id="path5552" class="cls-10" d="M1.417,47.9745H89.292a1.4225,1.4225,0,0,0,1.417-1.418V33.7085a1.4225,1.4225,0,0,0-1.417-1.418H87.847a3.7346,3.7346,0,0,0-2.384,1.038,2.1219,2.1219,0,0,1-1.525.472,2.835,2.835,0,0,1,0-5.67,2.1168,2.1168,0,0,1,1.525.474,3.74,3.74,0,0,0,2.384,1.036h1.445a1.421,1.421,0,0,0,1.417-1.417V15.3755a1.421,1.421,0,0,0-1.417-1.417H1.417A1.421,1.421,0,0,0,0,15.3755v12.848a1.421,1.421,0,0,0,1.417,1.417H2.862a3.74,3.74,0,0,0,2.384-1.036,2.1168,2.1168,0,0,1,1.525-.474,2.835,2.835,0,0,1,0,5.67,2.1219,2.1219,0,0,1-1.525-.472,3.7346,3.7346,0,0,0-2.384-1.038H1.417A1.4225,1.4225,0,0,0,0,33.7085v12.848a1.4225,1.4225,0,0,0,1.417,1.418m.583-2V34.2905h.862a1.9032,1.9032,0,0,1,.922.403,4.0179,4.0179,0,0,0,2.987,1.107,4.835,4.835,0,0,0,0-9.67,4.0107,4.0107,0,0,0-2.987,1.11,1.9125,1.9125,0,0,1-.922.4H2V15.9585H88.709v11.682h-.862a1.904,1.904,0,0,1-.921-.4,4.0164,4.0164,0,0,0-2.988-1.11,4.835,4.835,0,0,0,0,9.67,4.0129,4.0129,0,0,0,2.988-1.109,1.9105,1.9105,0,0,1,.921-.401h.862v11.684H2"/>
      <path id="path5556" class="cls-18" d="M75.1182,14.9588a.4227.4227,0,0,1,.417.417v31.181a.4236.4236,0,0,1-.417.418H15.5912a.4234.4234,0,0,1-.417-.418V15.3758a.4227.4227,0,0,1,.417-.417Z"/>
      <path id="path5560" class="cls-10" d="M15.5908,47.9745h59.527a1.4218,1.4218,0,0,0,1.417-1.418V15.3755a1.42,1.42,0,0,0-1.417-1.417H15.5908a1.421,1.421,0,0,0-1.417,1.417v31.181a1.4225,1.4225,0,0,0,1.417,1.418m.583-32.016h58.361v30.016H16.1738Z"/>
      <g>
        <path id="path5572-2" data-name="path5572" class="cls-10" d="M31.1816,47.9745a17.008,17.008,0,1,1,17.008-17.01,17.0075,17.0075,0,0,1-17.008,17.01"/>
        <path id="path5576-2" data-name="path5576" class="cls-10" d="M45.8447,40.7069a9.74,9.74,0,1,1,9.739-9.742,9.741,9.741,0,0,1-9.739,9.742"/>
      </g>
      <g>
        <path id="path5580-2" data-name="path5580" class="cls-11" d="M31.1816,44.9745a14.008,14.008,0,1,1,14.008-14.01,14.0083,14.0083,0,0,1-14.008,14.01"/>
        <path id="path5584-2" data-name="path5584" class="cls-11" d="M45.8447,37.1219a6.156,6.156,0,1,1,6.154-6.157,6.1573,6.1573,0,0,1-6.154,6.157"/>
      </g>
      <path class="cls-19" d="M22.48,34.9746a9.92,9.92,0,0,0,13.2068,4.7381l0,0,.0081-.0047a9.9369,9.9369,0,0,0,1.4372-.845L76.1722,15.91l.0007,0a5.6675,5.6675,0,0,0,2.707-7.546h0a5.6676,5.6676,0,0,0-7.545-2.708h0v0l-42.54,15.5375a9.9458,9.9458,0,0,0-1.5624.5707l-.0132.0048,0,.0005h0A9.9213,9.9213,0,0,0,22.48,34.9746Z"/>
      <path id="path5612" class="cls-20" d="M37.4629,27.9061a6.646,6.646,0,1,1-8.846-3.176,6.6454,6.6454,0,0,1,8.846,3.176"/>
      <g>
        <path id="path5616-2" data-name="path5616" class="cls-16" d="M75.8262,9.8045a1.3158,1.3158,0,1,1-1.75-.629,1.3135,1.3135,0,0,1,1.75.629"/>
        <path id="path5620-2" data-name="path5620" class="cls-16" d="M70.9707,12.0975a1.9,1.9,0,1,1-2.529-.908,1.9006,1.9006,0,0,1,2.529.908"/>
        <path id="path5624-2" data-name="path5624" class="cls-16" d="M65.0576,14.8856a1.3156,1.3156,0,1,1-1.751-.63,1.3136,1.3136,0,0,1,1.751.63"/>
        <path id="path5628-2" data-name="path5628" class="cls-16" d="M59.6738,17.4256a1.3158,1.3158,0,1,1-1.75-.629,1.3147,1.3147,0,0,1,1.75.629"/>
        <path id="path5632-2" data-name="path5632" class="cls-16" d="M54.2891,19.9666a1.316,1.316,0,1,1-1.75-.631,1.3167,1.3167,0,0,1,1.75.631"/>
        <path id="path5636-2" data-name="path5636" class="cls-16" d="M48.9062,22.5077a1.3158,1.3158,0,1,1-1.752-.631,1.3145,1.3145,0,0,1,1.752.631"/>
        <path id="path5640-2" data-name="path5640" class="cls-16" d="M43.5215,25.0477a1.3161,1.3161,0,1,1-1.751-.63,1.315,1.315,0,0,1,1.751.63"/>
      </g>
    </g>
  </g>
</svg>
