<?xml version='1.0' encoding='UTF-8' standalone='no'?>
<!-- Created with Fritzing (http://www.fritzing.org/) -->
<svg xmlns:svg='http://www.w3.org/2000/svg' xmlns='http://www.w3.org/2000/svg' version='1.2' baseProfile='tiny' x='0in' y='0in' width='1.15132in' height='0.917024in' viewBox='0 0 82.8948 66.0257' >
<path stroke='#000000' stroke-width='2.16' stroke-linecap='round' stroke-linejoin='round' fill='none' d='M80.4939,60.0764L81.6624,60.7964' />
<path stroke='#ff0000' stroke-width='2.16' stroke-linecap='round' stroke-linejoin='round' fill='none' d='M80.7199,53.3494L81.6624,53.5964' />
<path stroke='#ffff00' stroke-width='2.16' stroke-linecap='round' stroke-linejoin='round' fill='none' d='M80.604,46.5936L81.6624,46.3964' />
<g partID='71310'><g transform="matrix(1, 0, 0, 1, -0.400297, 32.424)">
 <g  id="breadboard">
  <rect  width="0.72" height="0.72" x="73.0462" fill="none" y="20.1499" id="connector0pin"/>
  <rect  width="0.72" height="0.72" x="73.1246" fill="none" y="18.1174" id="connector1pin"/>
  <rect  width="0.72" height="0.72" x="73.0462" fill="none" y="16.1136" id="connector2pin"/>
  <g  y2="39.406" x1="112.353" x2="113.976032" fill="none" stroke-linecap="round" stroke-width="2.16" id="connector0leg" y1="38.406" stroke="#000000"/>
  <g  y2="29.406" x1="112.667" x2="113.976032" fill="none" stroke-linecap="round" stroke-width="2.16" id="connector1leg" y1="29.063" stroke="#FF0000"/>
  <g  y2="19.406" x1="112.506" x2="113.976032" fill="none" stroke-linecap="round" stroke-width="2.16" id="connector2leg" y1="19.68" stroke="#FFFF00"/>
  <path  d="M73.0462,20.1499c0,0,-5.09688,-1.34568,7.848,7.5024" fill="none" stroke-width="2.16" id="path7" stroke="#000000"/>
  <path  d="M73.1246,18.1174c4.03488,0,4.1076,1.17288,7.9956,2.808" fill="none" stroke-width="2.16" id="path9" stroke="#FF0000"/>
  <path  d="M73.0462,16.1136c5.382,0,7.59816,-3.17664,7.95816,-0.936" fill="none" stroke-width="2.16" id="path11" stroke="#FFFF00"/>
  <polygon  points="0.40032,6.69744,12.5078,6.69744,12.5078,-6.75648,70.3562,-6.75648,70.3562,6.69744,82.463,6.69744,82.463,8.04168,70.3562,8.04168,70.3562,33.6017,12.5078,33.6017,12.5078,8.04168,0.40032,8.04168" fill="#333333" id="polygon13"/>
  <polygon  points="8.47152,8.04168,12.5078,8.04168,12.5078,33.6017,8.47152,29.5668" id="polygon15"/>
  <polygon  points="12.5078,6.69744,0.40032,6.69744,0.40032,-0.03024,8.47152,-0.03024,8.47152,2.6604" fill="#999999" id="polygon17"/>
  <polygon  points="12.5078,-6.75648,8.47152,-10.7921,8.47152,-18.864,12.5078,-22.8996,70.3562,-22.8996,74.3911,-18.864,74.3911,-10.7921,70.3562,-6.75648" fill="#999999" id="polygon19"/>
  <polygon  points="74.3911,8.04168,70.3562,8.04168,70.3562,33.6017,74.3911,29.5668" fill="#666666" id="polygon21"/>
  <polygon  points="70.3562,6.69744,82.4638,6.69744,82.4638,-0.03024,74.3911,-0.03024,74.3911,2.6604" fill="#999999" id="polygon23"/>
  <polygon  points="8.47152,-10.7921,12.5078,-6.75648,12.5078,6.69744,8.47152,2.6604" id="polygon25"/>
  <polygon  points="74.3911,-10.7921,70.3562,-6.75648,70.3562,6.69744,74.3911,2.6604" fill="#666666" id="polygon27"/>
  <path  d="M32.0191,-12.6763c-4.72464,2.5992,-9.92592,1.10952,-11.911,-0.11664C18.1224,-14.0191,6.38568,-24.0034,4.81032,-24.9962c-1.5768,-0.99288,-1.40184,-2.3904,-1.40184,-4.41432c0,-2.57544,1.28448,1.92672,3.97152,3.15288c2.68488,1.22616,27.1318,4.24296,27.1318,8.7192C34.5103,-16.1762,35.0554,-14.3467,32.0191,-12.6763z" fill="#CCCCCC" id="path29"/>
  <path  d="M32.0191,-14.0544c-4.49568,2.97792,-9.92592,1.10952,-11.911,-0.11736C18.1224,-15.3979,6.38568,-25.3822,4.81032,-26.375c-1.5768,-0.99216,-2.21904,-3.91176,-0.05832,-5.31288c2.16,-1.40112,5.13792,-0.58464,7.82352,0.64224c2.6856,1.22616,13.9558,5.95512,17.8085,8.2332C34.2382,-20.5358,36.5162,-17.0323,32.0191,-14.0544zM8.39088,-27.6206c1.89216,0,3.42648,-0.7668,3.42648,-1.71288s-1.53432,-1.71216,-3.42648,-1.71216c-1.89216,0,-3.42576,0.76608,-3.42576,1.71216S6.49872,-27.6206,8.39088,-27.6206z" fill="#FFFFFF" id="path31"/>
  <g  id="g33">
   <path  d="M11.772,-28.9649c-0.33984,-0.7668,-1.70568,-1.34064,-3.34296,-1.34064c-1.63584,0,-3.04632,0.57312,-3.38616,1.33992l0.00288,0.00072c-0.05184,-0.1188,-0.08064,-0.2412,-0.08064,-0.36792c0,-0.94608,1.5336,-1.71216,3.42576,-1.71216c1.89216,0,3.42648,0.76608,3.42648,1.71216c0,0.12672,0,0.25632,-0.05184,0.37512L11.772,-28.9649z" fill="#CCCCCC" id="path35"/>
  </g>
  <g  id="g37">
   <ellipse  cx="25.9862" cy="-18.2779" fill="#999999" rx="5.76144" ry="3.2148" id="ellipse39"/>
   <g  id="g41">
    <path  d="M20.3285,-18.3089c0.57168,1.38168,2.8692,2.41632,5.62104,2.41632c2.75184,0,5.12352,-1.03392,5.69664,-2.41632l-0.00576,0c0.08712,0.21312,0.13536,0.43488,0.13536,0.6624c0,1.70496,-2.57904,3.08736,-5.76144,3.08736c-3.1824,0,-5.76144,-1.3824,-5.76144,-3.08736c0,-0.22752,-0.00072,-0.46224,0.0864,-0.67536L20.3285,-18.3089z" fill="#666666" id="path43"/>
   </g>
  </g>
  <g  id="g45">
   <path  d="M40.7052,-16.7213l0,0.81792l2.45232,0l0,0.8172l0.8172,0l0,0.8172l-0.8172,0l0,0.81792l-4.08816,0l0,-0.81792l3.26952,0l0,-0.8172l-2.45232,0l0,-0.8172l-0.8172,0l0,-0.81792l0.8172,0l0,-0.8172l4.08816,0l0,0.8172L40.7052,-16.7213z" fill="#FFCC33" id="path47"/>
   <path  d="M49.6966,-17.5385l0,0.8172l-3.26952,0l0,0.81792l2.45232,0l0,0.8172l-2.45232,0l0,0.8172l3.26952,0l0,0.81792l-4.90464,0l0,-4.08744L49.6966,-17.5385L49.6966,-17.5385z" fill="#FFCC33" id="path49"/>
   <path  d="M54.6019,-16.7213l0.81864,0l0,1.63512l-0.81864,0l0,0.8172l0.81864,0l0,0.81792l-2.45232,0l0,-0.81792L52.1496,-14.269l0,0.81792l-1.63512,0l0,-4.08744l4.08744,0L54.6019,-16.7213L54.6019,-16.7213zM53.784,-16.7213L52.1496,-16.7213l0,1.63512L53.784,-15.0862L53.784,-16.7213z" fill="#FFCC33" id="path51"/>
   <path  d="M61.1417,-17.5385l0,1.63512l-0.8172,0l0,1.6344l-0.81936,0l0,0.81792l-1.63512,0l0,-0.81792l-0.8172,0l0,-1.6344l-0.81792,0l0,-1.63512l1.63512,0l0,1.63512l1.63512,0l0,-1.63512L61.1417,-17.5385z" fill="#FFCC33" id="path53"/>
   <path  d="M62.7761,-13.451l0,-0.81792l-0.8172,0l0,-2.45232l0.8172,0l0,-0.8172l3.26952,0l0,0.8172l0.81792,0l0,2.45232L66.0456,-14.269l0,0.81792L62.7761,-13.451L62.7761,-13.451zM65.2291,-14.269l0,-2.45232l-1.63512,0l0,2.45232L65.2291,-14.269z" fill="#FFCC33" id="path55"/>
  </g>
 </g>
</g>
</g></svg>