<svg id="servo-fb5317m-360" xmlns="http://www.w3.org/2000/svg" xmlns:xlink="http://www.w3.org/1999/xlink" viewBox="0 0 332.675 267.044"><defs><style>.cls-1,.cls-2,.cls-3,.cls-33,.cls-38,.cls-39,.cls-68,.cls-74,.cls-9{fill:none;}.cls-1{stroke:#704409;}.cls-1,.cls-2,.cls-3{stroke-linecap:round;stroke-width:2.696px;}.cls-1,.cls-2,.cls-3,.cls-33,.cls-38,.cls-39,.cls-63,.cls-68,.cls-74,.cls-9{stroke-miterlimit:10;}.cls-2,.cls-63{stroke:red;}.cls-3{stroke:#e8b21a;}.cls-4{fill:url(#linear-gradient);}.cls-5{fill:url(#linear-gradient-2);}.cls-6{fill:url(#linear-gradient-3);}.cls-24,.cls-7{opacity:0.48;}.cls-8{fill:#4d4d4d;}.cls-9{stroke:#231f20;stroke-width:0.502px;}.cls-10{fill:#2d2d2d;}.cls-11{fill:#414042;}.cls-12{fill:url(#linear-gradient-4);}.cls-13{fill:url(#linear-gradient-5);}.cls-14{fill:url(#linear-gradient-6);}.cls-15{fill:#ccc;}.cls-16{fill:url(#linear-gradient-7);}.cls-17{fill:url(#linear-gradient-8);}.cls-18{fill:url(#linear-gradient-9);}.cls-19{fill:#1390a5;}.cls-20{fill:#22bfee;}.cls-21{fill:url(#linear-gradient-10);}.cls-22{fill:url(#linear-gradient-11);}.cls-23{fill:url(#linear-gradient-12);}.cls-24,.cls-64{fill:#231f20;}.cls-25{fill:url(#linear-gradient-13);}.cls-26{fill:url(#linear-gradient-14);}.cls-27{fill:url(#linear-gradient-15);}.cls-28{fill:url(#linear-gradient-16);}.cls-29{fill:url(#linear-gradient-17);}.cls-30{fill:#bcbec0;}.cls-31{fill:url(#linear-gradient-18);}.cls-32,.cls-34,.cls-35,.cls-72{fill:#fff;}.cls-33,.cls-38,.cls-39{stroke:#fff;}.cls-33{stroke-width:0.599px;}.cls-34{font-size:14.173px;}.cls-34,.cls-35,.cls-72{font-family:TrebuchetMS, Trebuchet MS;}.cls-35{font-size:5.885px;}.cls-36{letter-spacing:-0.055em;}.cls-37{letter-spacing:0em;}.cls-38{font-size:24.638px;stroke-width:0.992px;}.cls-38,.cls-39{font-family:TrebuchetMS-Italic, Trebuchet MS;font-style:italic;}.cls-39{font-size:9.507px;stroke-width:0.425px;}.cls-40{letter-spacing:-0.112em;}.cls-41{letter-spacing:-0.018em;}.cls-42{letter-spacing:-0.056em;}.cls-43{fill:url(#linear-gradient-19);}.cls-44{fill:url(#linear-gradient-20);}.cls-45,.cls-46{opacity:0.4;}.cls-45{fill:url(#linear-gradient-21);}.cls-46{fill:url(#linear-gradient-22);}.cls-47{fill:#f1f2f2;opacity:0.11;}.cls-48{fill:#262626;}.cls-49{fill:url(#radial-gradient);}.cls-50{fill:#1e1e1e;}.cls-51{fill:url(#linear-gradient-23);}.cls-52{fill:#1e1d1e;}.cls-53{fill:#333;}.cls-54{fill:#3f3f3f;}.cls-55{fill:#181819;}.cls-56{opacity:0.83;}.cls-57{fill:#e6e7e8;}.cls-58{fill:url(#radial-gradient-2);}.cls-59{fill:url(#radial-gradient-3);}.cls-60{fill:url(#radial-gradient-4);}.cls-61{fill:#b3b3b3;}.cls-62{fill:red;}.cls-63{fill:#f7e831;stroke-width:0.239px;}.cls-64{font-size:10px;font-family:TrebuchetMS-Bold, Trebuchet MS;font-weight:700;}.cls-65{fill:#58595b;}.cls-66{fill:#191919;}.cls-67{fill:url(#Безымянный_градиент_271);}.cls-68{stroke:#191919;stroke-width:1.417px;}.cls-69{fill:url(#Безымянный_градиент_271-2);}.cls-70{fill:#10a8c1;}.cls-71{fill:#1ebbe0;}.cls-72{font-size:5.669px;}.cls-73{letter-spacing:-0.018em;}.cls-74{stroke:#014c6e;stroke-width:0.425px;opacity:0.44;}</style><linearGradient id="linear-gradient" x1="330.439" y1="266.031" x2="332.673" y2="266.031" gradientUnits="userSpaceOnUse"><stop offset="0" stop-color="#6d6e70"/><stop offset="0.716" stop-color="#a4a6a8"/><stop offset="1" stop-color="#bbbdbf"/></linearGradient><linearGradient id="linear-gradient-2" x1="275.696" y1="266.031" x2="277.93" y2="266.031" xlink:href="#linear-gradient"/><linearGradient id="linear-gradient-3" x1="275.837" y1="210.584" x2="332.53" y2="210.584" gradientUnits="userSpaceOnUse"><stop offset="0" stop-color="#1a1a1a"/><stop offset="1" stop-color="#333"/></linearGradient><linearGradient id="linear-gradient-4" x1="275.837" y1="172.91" x2="277.95" y2="172.91" gradientUnits="userSpaceOnUse"><stop offset="0" stop-color="#58595b"/><stop offset="0.042" stop-color="#505152"/><stop offset="0.15" stop-color="#404141"/><stop offset="0.285" stop-color="#353536"/><stop offset="0.474" stop-color="#2f2f2f"/><stop offset="1" stop-color="#2d2d2d"/></linearGradient><linearGradient id="linear-gradient-5" x1="-559.022" y1="172.91" x2="-556.909" y2="172.91" gradientTransform="matrix(1, 0, 0, -1, 889.435, 345.819)" xlink:href="#linear-gradient-4"/><linearGradient id="linear-gradient-6" x1="295.965" y1="138.687" x2="312.406" y2="138.687" gradientUnits="userSpaceOnUse"><stop offset="0" stop-color="#999"/><stop offset="0.539" stop-color="#939598"/><stop offset="0.656" stop-color="#a0a1a3"/><stop offset="0.842" stop-color="#aeaeaf"/><stop offset="1" stop-color="#b3b3b3"/></linearGradient><linearGradient id="linear-gradient-7" x1="287.75" y1="147.168" x2="320.621" y2="147.168" xlink:href="#linear-gradient-3"/><linearGradient id="linear-gradient-8" x1="275.837" y1="215.146" x2="332.53" y2="215.146" gradientUnits="userSpaceOnUse"><stop offset="0" stop-color="#014c6e"/><stop offset="0.003" stop-color="#055a7e"/><stop offset="0.012" stop-color="#1185ae"/><stop offset="0.018" stop-color="#19a0cc"/><stop offset="0.022" stop-color="#1caad7"/><stop offset="0.034" stop-color="#1dacda"/><stop offset="0.113" stop-color="#20b7e5"/><stop offset="0.224" stop-color="#22bdec"/><stop offset="0.531" stop-color="#22bfee"/><stop offset="0.9" stop-color="#22beec"/><stop offset="0.98" stop-color="#21bbe9"/><stop offset="0.983" stop-color="#1fb4e2"/><stop offset="0.987" stop-color="#1aa2cd"/><stop offset="0.993" stop-color="#1184ac"/><stop offset="0.998" stop-color="#055b7e"/><stop offset="1" stop-color="#014c6e"/></linearGradient><linearGradient id="linear-gradient-9" x1="277.257" y1="151.978" x2="331.115" y2="151.978" xlink:href="#linear-gradient-3"/><linearGradient id="linear-gradient-10" x1="99.144" y1="138.687" x2="115.585" y2="138.687" gradientTransform="matrix(1, 0, 0, -1, -41.089, 277.375)" xlink:href="#linear-gradient-6"/><linearGradient id="linear-gradient-11" x1="90.929" y1="147.168" x2="123.8" y2="147.168" gradientTransform="matrix(1, 0, 0, -1, -41.09, 294.336)" xlink:href="#linear-gradient-3"/><linearGradient id="linear-gradient-12" x1="0" y1="172.456" x2="155.906" y2="172.456" gradientTransform="matrix(1, 0, 0, -1, 17.734, 344.911)" xlink:href="#linear-gradient-3"/><linearGradient id="linear-gradient-13" x1="21.263" y1="210.628" x2="134.643" y2="210.628" gradientTransform="matrix(-1, 0, 0, 1, 173.643, 0)" xlink:href="#linear-gradient-3"/><linearGradient id="linear-gradient-14" x1="130.589" y1="265.983" x2="134.644" y2="265.983" gradientTransform="matrix(1, 0, 0, -1, -91.593, 531.965)" xlink:href="#linear-gradient"/><linearGradient id="linear-gradient-15" x1="21.26" y1="265.983" x2="25.314" y2="265.983" gradientTransform="matrix(1, 0, 0, -1, 127.066, 531.965)" xlink:href="#linear-gradient"/><linearGradient id="linear-gradient-16" x1="25.512" y1="152.239" x2="130.394" y2="152.239" gradientTransform="matrix(1, 0, 0, -1, 17.734, 304.477)" xlink:href="#linear-gradient-3"/><linearGradient id="linear-gradient-17" x1="86.03" y1="152.239" x2="92.077" y2="152.239" gradientTransform="matrix(1, 0, 0, -1, -4.467, 304.477)" gradientUnits="userSpaceOnUse"><stop offset="0" stop-color="#2f2f2f"/><stop offset="0.099" stop-color="#242424"/><stop offset="0.244" stop-color="#1c1c1c"/><stop offset="0.531" stop-color="#1a1a1a"/><stop offset="0.732" stop-color="#1d1d1d"/><stop offset="0.89" stop-color="#272727"/><stop offset="1" stop-color="#333"/></linearGradient><linearGradient id="linear-gradient-18" x1="38.998" y1="215.428" x2="152.383" y2="215.428" xlink:href="#linear-gradient-8"/><linearGradient id="linear-gradient-19" x1="-1402.629" y1="138.482" x2="-1389.669" y2="138.482" gradientTransform="translate(1524.636 0)" gradientUnits="userSpaceOnUse"><stop offset="0" stop-color="#22bfee"/><stop offset="0.031" stop-color="#24b1ee"/><stop offset="0.154" stop-color="#2c7dec"/><stop offset="0.27" stop-color="#3255eb"/><stop offset="0.374" stop-color="#3638eb"/><stop offset="0.465" stop-color="#3926ea"/><stop offset="0.531" stop-color="#3a20ea"/><stop offset="0.592" stop-color="#382cea"/><stop offset="0.705" stop-color="#334dea"/><stop offset="0.854" stop-color="#2a82eb"/><stop offset="1" stop-color="#21bceb"/></linearGradient><linearGradient id="linear-gradient-20" x1="-1431.863" y1="130.183" x2="-1388.589" y2="130.183" gradientTransform="translate(1524.636 0)" gradientUnits="userSpaceOnUse"><stop offset="0" stop-color="#22bfee"/><stop offset="0.056" stop-color="#26a6ed" stop-opacity="0.937"/><stop offset="0.172" stop-color="#2d77ec" stop-opacity="0.818"/><stop offset="0.282" stop-color="#3351eb" stop-opacity="0.723"/><stop offset="0.382" stop-color="#3736eb" stop-opacity="0.656"/><stop offset="0.468" stop-color="#3926ea" stop-opacity="0.615"/><stop offset="0.531" stop-color="#3a20ea" stop-opacity="0.6"/><stop offset="0.589" stop-color="#382bea" stop-opacity="0.629"/><stop offset="0.694" stop-color="#334aea" stop-opacity="0.707"/><stop offset="0.836" stop-color="#2b7beb" stop-opacity="0.834"/><stop offset="1" stop-color="#21bceb"/></linearGradient><linearGradient id="linear-gradient-21" x1="-1449.659" y1="133.018" x2="-1436.411" y2="133.018" xlink:href="#linear-gradient-20"/><linearGradient id="linear-gradient-22" x1="-1475.879" y1="133.018" x2="-1462.631" y2="133.018" xlink:href="#linear-gradient-20"/><radialGradient id="radial-gradient" cx="-135.367" cy="28.348" r="1.417" gradientTransform="translate(228.413)" gradientUnits="userSpaceOnUse"><stop offset="0" stop-color="#1a1a1a"/><stop offset="1" stop-color="#4d4d4d"/></radialGradient><linearGradient id="linear-gradient-23" x1="7.092" y1="28.346" x2="148.824" y2="28.346" gradientTransform="matrix(1, 0, 0, -1, 16.048, 56.693)" gradientUnits="userSpaceOnUse"><stop offset="0" stop-color="#161515"/><stop offset="0.273" stop-color="#292828" stop-opacity="0.87"/><stop offset="0.525" stop-color="#414042" stop-opacity="0.7"/><stop offset="1" stop-color="#161515"/></linearGradient><radialGradient id="radial-gradient-2" cx="107.586" cy="28.348" r="16.299" gradientTransform="matrix(-1, 0, 0, 1, 171.965, 0)" gradientUnits="userSpaceOnUse"><stop offset="0" stop-color="#161515" stop-opacity="0.8"/><stop offset="0.243" stop-color="#262526" stop-opacity="0.763"/><stop offset="0.525" stop-color="#414042" stop-opacity="0.7"/><stop offset="1" stop-color="#161515" stop-opacity="0.8"/></radialGradient><radialGradient id="radial-gradient-3" cx="-270.203" cy="-34.352" r="11.33" gradientTransform="translate(257.039 52.842) scale(0.713 0.713)" gradientUnits="userSpaceOnUse"><stop offset="0" stop-color="#3b3b3b"/><stop offset="0.008" stop-color="#3d3d3d"/><stop offset="0.198" stop-color="#747474"/><stop offset="0.384" stop-color="#a1a1a1"/><stop offset="0.562" stop-color="#c4c4c4"/><stop offset="0.728" stop-color="#ddd"/><stop offset="0.878" stop-color="#ededed"/><stop offset="1" stop-color="#f2f2f2"/></radialGradient><radialGradient id="radial-gradient-4" cx="-270.2" cy="-34.352" r="10.373" gradientTransform="translate(257.039 52.842) scale(0.713 0.713)" gradientUnits="userSpaceOnUse"><stop offset="0" stop-color="#a1a1a1"/><stop offset="0.069" stop-color="#ababab"/><stop offset="0.301" stop-color="#c7c7c7"/><stop offset="0.535" stop-color="#dbdbdb"/><stop offset="0.768" stop-color="#e7e7e7"/><stop offset="1" stop-color="#ebebeb"/></radialGradient><radialGradient id="Безымянный_градиент_271" cx="98.19" cy="18.666" r="2.649" gradientTransform="matrix(-1.067, 0, 0, 1.067, 187.65, -16.473)" gradientUnits="userSpaceOnUse"><stop offset="0" stop-color="#4d4d4d"/><stop offset="0.083" stop-color="#525252"/><stop offset="0.184" stop-color="#616161"/><stop offset="0.295" stop-color="#7a7a7a"/><stop offset="0.411" stop-color="#9c9c9c"/><stop offset="0.478" stop-color="#b3b3b3"/><stop offset="0.577" stop-color="#a0a0a0"/><stop offset="0.777" stop-color="#707070"/><stop offset="1" stop-color="#333"/></radialGradient><radialGradient id="Безымянный_градиент_271-2" cx="98.19" cy="65.541" r="2.649" xlink:href="#Безымянный_градиент_271"/></defs><g id="side"><g id="шнуры"><line class="cls-1" x1="242.185" y1="250.318" x2="278.894" y2="250.318"/><line class="cls-2" x1="242.185" y1="253.021" x2="278.894" y2="253.021"/><line class="cls-3" x1="242.185" y1="255.667" x2="278.894" y2="255.667"/></g><g id="side-2" data-name="side"><path class="cls-4" d="M330.439,265.018h2.234a0,0,0,0,1,0,0v1.318a.709.709,0,0,1-.709.709h-.817a.709.709,0,0,1-.709-.709v-1.318a0,0,0,0,1,0,0Z"/><path class="cls-5" d="M275.7,265.018h2.234a0,0,0,0,1,0,0v1.318a.709.709,0,0,1-.709.709H276.4a.709.709,0,0,1-.709-.709v-1.318A0,0,0,0,1,275.7,265.018Z"/><polygon class="cls-6" points="332.53 154.126 332.53 264.774 329.798 264.774 329.798 267.043 278.563 267.043 278.563 264.774 275.837 264.774 275.837 154.126 332.53 154.126"/><g class="cls-7"><polygon class="cls-8" points="331.112 155.348 331.112 264.254 328.517 264.254 328.517 266.247 279.844 266.247 279.844 264.254 277.254 264.254 277.254 155.348 331.112 155.348"/></g><line class="cls-9" x1="275.701" y1="262.163" x2="332.675" y2="262.163"/><g class="cls-7"><rect class="cls-10" x="275.837" y="168.941" width="56.693" height="7.937"/></g><rect class="cls-11" x="301.351" y="165.591" width="5.669" height="3.35"/></g><rect class="cls-12" x="275.837" y="168.941" width="2.113" height="7.937"/><rect class="cls-13" x="330.413" y="168.941" width="2.113" height="7.937" transform="translate(662.942 345.819) rotate(-180)"/><rect class="cls-14" x="295.965" y="133.018" width="16.44" height="11.339"/><rect class="cls-15" x="295.966" y="133.018" width="0.494" height="11.339"/><rect class="cls-15" x="296.962" y="133.018" width="0.494" height="11.339"/><rect class="cls-15" x="297.959" y="133.018" width="0.494" height="11.339"/><rect class="cls-15" x="298.956" y="133.018" width="0.494" height="11.339"/><rect class="cls-15" x="299.952" y="133.018" width="0.494" height="11.339"/><rect class="cls-15" x="300.949" y="133.018" width="0.494" height="11.339"/><rect class="cls-15" x="301.946" y="133.018" width="0.494" height="11.339"/><rect class="cls-15" x="302.942" y="133.018" width="0.494" height="11.339"/><rect class="cls-15" x="303.939" y="133.018" width="0.494" height="11.339"/><rect class="cls-15" x="304.935" y="133.018" width="0.494" height="11.339"/><rect class="cls-15" x="305.932" y="133.018" width="0.494" height="11.339"/><rect class="cls-15" x="306.929" y="133.018" width="0.494" height="11.339"/><rect class="cls-15" x="307.925" y="133.018" width="0.494" height="11.339"/><rect class="cls-15" x="308.922" y="133.018" width="0.494" height="11.339"/><rect class="cls-15" x="309.919" y="133.018" width="0.494" height="11.339"/><rect class="cls-15" x="310.915" y="133.018" width="0.494" height="11.339"/><rect class="cls-15" x="311.912" y="133.018" width="0.494" height="11.339"/><path class="cls-16" d="M293.073,144.506H315.3a5.323,5.323,0,0,1,5.323,5.323v0a0,0,0,0,1,0,0H287.75a0,0,0,0,1,0,0v0A5.323,5.323,0,0,1,293.073,144.506Z"/><rect class="cls-17" x="275.837" y="179.764" width="56.693" height="70.765"/><path class="cls-18" d="M277.952,149.829h52.467a.7.7,0,0,1,.7.7v3.6a0,0,0,0,1,0,0H277.257a0,0,0,0,1,0,0v-3.6A.7.7,0,0,1,277.952,149.829Z"/></g><g id="качелька_side" data-name="качелька side"><path class="cls-19" d="M321.193,125.488v14.36a1.319,1.319,0,0,1-1.32,1.32h-31.38a1.319,1.319,0,0,1-1.32-1.32v-14.36a1.317,1.317,0,0,1,1.32-1.31h31.38A1.317,1.317,0,0,1,321.193,125.488Z" transform="translate(0.003 0)"/><path class="cls-20" d="M287.173,125.488v14.36a1.319,1.319,0,0,0,1.32,1.32h14.27v-16.99h-14.27A1.317,1.317,0,0,0,287.173,125.488Z" transform="translate(0.003 0)"/><path class="cls-20" d="M319.873,124.178H305.6v16.99h14.27a1.319,1.319,0,0,0,1.32-1.32v-14.36A1.317,1.317,0,0,0,319.873,124.178Z" transform="translate(0.003 0)"/></g><g id="side-3" data-name="side"><rect class="cls-21" x="58.055" y="133.018" width="16.44" height="11.339" transform="translate(132.554 277.375) rotate(-180)"/><rect class="cls-15" x="74.004" y="133.018" width="0.494" height="11.339"/><rect class="cls-15" x="73.007" y="133.018" width="0.494" height="11.339"/><rect class="cls-15" x="72.011" y="133.018" width="0.494" height="11.339"/><rect class="cls-15" x="71.014" y="133.018" width="0.494" height="11.339"/><rect class="cls-15" x="70.018" y="133.018" width="0.494" height="11.339"/><rect class="cls-15" x="69.021" y="133.018" width="0.494" height="11.339"/><rect class="cls-15" x="68.024" y="133.018" width="0.494" height="11.339"/><rect class="cls-15" x="67.028" y="133.018" width="0.494" height="11.339"/><rect class="cls-15" x="66.031" y="133.018" width="0.494" height="11.339"/><rect class="cls-15" x="65.034" y="133.018" width="0.494" height="11.339"/><rect class="cls-15" x="64.038" y="133.018" width="0.494" height="11.339"/><rect class="cls-15" x="63.041" y="133.018" width="0.494" height="11.339"/><rect class="cls-15" x="62.045" y="133.018" width="0.494" height="11.339"/><rect class="cls-15" x="61.048" y="133.018" width="0.494" height="11.339"/><rect class="cls-15" x="60.051" y="133.018" width="0.494" height="11.339"/><rect class="cls-15" x="59.055" y="133.018" width="0.494" height="11.339"/><rect class="cls-15" x="58.058" y="133.018" width="0.494" height="11.339"/><path class="cls-22" d="M49.839,144.506H82.711a0,0,0,0,1,0,0v0a5.323,5.323,0,0,1-5.323,5.323H55.162a5.323,5.323,0,0,1-5.323-5.323v0A0,0,0,0,1,49.839,144.506Z" transform="translate(132.554 294.336) rotate(-180)"/><g id="шнуры-2" data-name="шнуры"><line class="cls-1" x1="1.348" y1="250.289" x2="38.057" y2="250.289"/><line class="cls-2" x1="1.348" y1="252.992" x2="38.057" y2="252.992"/><line class="cls-3" x1="1.348" y1="255.638" x2="38.057" y2="255.638"/></g><rect class="cls-23" x="17.734" y="168.487" width="155.906" height="7.937" transform="translate(191.378 344.911) rotate(-180)"/><polygon class="cls-11" points="24.824 168.424 166.557 168.424 166.557 166.487 95.663 160.487 24.824 166.487 24.824 168.424"/><rect class="cls-24" x="35.402" y="246.849" width="3.598" height="12.48"/><polygon class="cls-24" points="25.678 258.513 35.402 259.329 35.402 246.849 25.678 247.377 25.678 258.513"/><rect class="cls-11" x="35.402" y="246.849" width="3.598" height="12.48"/><polygon class="cls-11" points="25.678 258.513 35.402 259.329 35.402 246.849 25.678 247.377 25.678 258.513"/><polygon class="cls-25" points="39 154.648 39 264.918 43.51 264.918 43.51 266.608 147.87 266.608 147.87 264.918 152.38 264.918 152.38 154.648 39 154.648"/><g class="cls-7"><polygon class="cls-8" points="40.411 155.348 40.411 264.918 43.51 264.918 43.51 265.908 147.87 265.908 147.87 264.918 150.971 264.918 150.971 155.348 40.411 155.348"/></g><path class="cls-26" d="M39.987,264.921H42.06a.991.991,0,0,1,.991.991v1.131a0,0,0,0,1,0,0H39a0,0,0,0,1,0,0v-1.131A.991.991,0,0,1,39.987,264.921Z" transform="translate(82.05 531.965) rotate(180)"/><path class="cls-27" d="M149.317,264.921h2.072a.991.991,0,0,1,.991.991v1.131a0,0,0,0,1,0,0h-4.055a0,0,0,0,1,0,0v-1.131a.991.991,0,0,1,.991-.991Z" transform="translate(300.709 531.965) rotate(180)"/><rect class="cls-28" x="43.246" y="149.829" width="104.882" height="4.819" transform="translate(191.378 304.477) rotate(-180)"/><rect class="cls-29" x="81.563" y="149.829" width="6.047" height="4.819" transform="translate(169.176 304.477) rotate(-180)"/><rect class="cls-30" x="81.563" y="152.239" width="6.047" height="2.535" rx="0.993" transform="translate(169.176 307.013) rotate(-180)"/><rect class="cls-31" x="38.998" y="180.046" width="113.384" height="70.765"/><path class="cls-32" d="M58.819,206.243a1,1,0,0,0,1,1.1h6.07l.182-1.771h-4.7l.122-1.183H65.48l.182-1.771H61.67l.126-1.231h4.7l.182-1.77H60.4a1,1,0,0,0-1,.9Z" transform="translate(0.003 0)"/><path class="cls-32" d="M74.36,201.391l.181-1.77H68.276a1.013,1.013,0,0,0-1.008.91l-.585,5.7a1.014,1.014,0,0,0,1.009,1.117h6.057l.181-1.771h-4.7l.121-1.183h3.992l.182-1.771H69.533l.127-1.231Z" transform="translate(0.003 0)"/><path class="cls-32" d="M83.694,204.393h3.992l.181-1.771H83.875L84,201.391h4.7l.182-1.77H82.617a1.013,1.013,0,0,0-1.007.909l-.585,5.7a1.013,1.013,0,0,0,1.007,1.116H88.09l.182-1.771h-4.7Z" transform="translate(0.003 0)"/><path class="cls-32" d="M94.516,204.742a1.2,1.2,0,0,1-.348.444,1.6,1.6,0,0,1-.513.275,1.771,1.771,0,0,1-1.243-.037.872.872,0,0,1-.393-.373,1.129,1.129,0,0,1-.111-.66L92.1,202.5a1.338,1.338,0,0,1,.254-.678,1.309,1.309,0,0,1,.523-.412,1.709,1.709,0,0,1,1.245-.049,1.193,1.193,0,0,1,.43.266.89.89,0,0,1,.244.4l.095.342h2.474l-.076-.477a2.472,2.472,0,0,0-.594-1.254,3.208,3.208,0,0,0-1.273-.863,5.422,5.422,0,0,0-3.754.072,3.575,3.575,0,0,0-1.452,1.056,2.884,2.884,0,0,0-.621,1.531l-.194,1.886a2.472,2.472,0,0,0,.314,1.55A2.745,2.745,0,0,0,91,206.967a4.81,4.81,0,0,0,1.98.38,5.161,5.161,0,0,0,1.757-.3,4.12,4.12,0,0,0,1.4-.832,3.118,3.118,0,0,0,.836-1.228l.2-.539H94.649Z" transform="translate(0.003 0)"/><polygon class="cls-32" points="104.307 199.621 103.996 202.651 101.157 202.651 101.468 199.621 98.989 199.621 98.196 207.347 100.676 207.347 100.976 204.421 103.815 204.421 103.514 207.347 105.994 207.347 106.787 199.621 104.307 199.621"/><path class="cls-32" d="M59.922,195.837l.228-2.871-10.009.064,1.069.048-3.294-.149,2.217.206-.028.347-2.228-.021,3.261.46-1.056-.149-.029.364,1.073.038-3.268-.114,2.175.321-.027.345-2.228-.018,3.266.455-1.061-.148-.025.314,1.063.1-3.221-.3,3.2.659-1.059-.218-.033.414,1.08,0-3.3-.008,2.2.3-.031.379,1.076.027-3.267-.084,3.232.447-1.06-.146-.029.365,1.077.034-3.267-.1,2.17.32-.028.351,1.091-.007-3.318.019,2.2.284-.029.363-2.194-.055,2.174.306-.035.446-2.232.089,3.291.231-1.079-.076-.027.339-2.231.133,3.279.231-1.07-.076-.024.295,1.082.045L47.37,200.3l3.233.5-1.067-.165-.032.4-2.2-.034,2.177.284-.027.333,1.088,0-3.3-.015,2.193.3-.03.375,1.082.024-3.268-.072,3.234.446-1.068-.147-.03.383-2.193-.035,3.244.426-1.071-.141-.025.317,1.1.011-3.313-.032,2.194.309-.037.459,1.086-.043-3.314.132,2.209.155-.025.312-2.184-.055,2.165.3-.027.338,1.095.006-3.309-.019,3.262.449-1.071-.148-.031.384,1.079.017L46.912,206l3.249.425-1.076-.14-.025.323,1.089,0-3.3-.015,2.189.305-.018.231,1.074.057-3.292-.174,3.28.329h2.058l.445-5.591h5.8l.229-2.871h-5.8l.143-1.8a1.354,1.354,0,0,1,1.349-1.246Z" transform="translate(0.003 0)"/><path class="cls-32" d="M81.02,192.929l-1.149,14.322H75.4l.957-11.963C75.722,195.575,81.02,192.929,81.02,192.929Z" transform="translate(0.003 0)"/><path class="cls-32" d="M107.194,192.469s-8.253-3.435-15.676-1.892c-5.578,1.159-10.368,5.078-14.988,7.723-3.474,1.988-5.917.977-8.445.46l-.227-3.182c2.8.492,4.968,1.337,8.544-.592,2.84-1.532,10.654-7.9,18.39-7.9C99.753,187.082,107.194,192.469,107.194,192.469Z" transform="translate(0.003 0)"/><line class="cls-33" x1="51.753" y1="208.942" x2="81.852" y2="208.942"/><line class="cls-33" x1="84.753" y1="208.942" x2="114.852" y2="208.942"/><line class="cls-33" x1="117.753" y1="208.942" x2="147.852" y2="208.942"/><line class="cls-33" x1="47.753" y1="209.974" x2="77.852" y2="209.974"/><line class="cls-33" x1="80.753" y1="209.974" x2="110.852" y2="209.974"/><line class="cls-33" x1="113.753" y1="209.974" x2="143.852" y2="209.974"/><text class="cls-34" transform="translate(118.761 199.238)">3600</text><text class="cls-35" transform="translate(120.156 205.804) scale(0.744 1)">CORE MO<tspan class="cls-36" x="23.975" y="0">T</tspan><tspan class="cls-37" x="27.068" y="0">OR</tspan></text><text class="cls-38" transform="translate(49.107 232.281) scale(1.517 1)">35 KG</text><text class="cls-39" transform="translate(49.109 243.115) scale(1.529 1)">DIGI<tspan class="cls-40" x="17.552" y="0">T</tspan><tspan x="22.004" y="0">A</tspan><tspan class="cls-41" x="27.812" y="0">L</tspan><tspan x="32.454" y="0" xml:space="preserve"> SE</tspan><tspan class="cls-42" x="44.983" y="0">R</tspan><tspan x="49.983" y="0">VO</tspan></text></g><g id="качелька_side-2" data-name="качелька side"><path class="cls-20" d="M140.953,124.514H46.5a2.211,2.211,0,0,0-2.21,2.21v12.588a2.21,2.21,0,0,0,2.21,2.21H86.379a1.874,1.874,0,0,0,1.874-1.874v-3.795h26.341v4.074a1.6,1.6,0,0,0,1.6,1.595h23.738a1.6,1.6,0,0,0,1.6-1.595v-4.2a1.361,1.361,0,0,0,.792-1.234v-8.613A1.363,1.363,0,0,0,140.953,124.514Z" transform="translate(0.003 0)"/><rect class="cls-43" x="122.007" y="135.442" width="12.96" height="6.08"/><rect class="cls-44" x="92.773" y="124.514" width="43.274" height="11.339"/><path class="cls-45" d="M74.977,124.514H88.225a0,0,0,0,1,0,0v15.1a1.912,1.912,0,0,1-1.912,1.912H74.977a0,0,0,0,1,0,0V124.514A0,0,0,0,1,74.977,124.514Z"/><rect class="cls-46" x="48.757" y="124.514" width="13.248" height="17.008"/><rect class="cls-47" x="62.005" y="124.514" width="13.248" height="17.008"/></g><g id="top"><g id="шнуры-3" data-name="шнуры"><line class="cls-1" x1="1.979" y1="25.669" x2="38.688" y2="25.669"/><line class="cls-2" x1="1.979" y1="28.372" x2="38.688" y2="28.372"/><line class="cls-3" x1="1.979" y1="31.018" x2="38.688" y2="31.018"/></g><path class="cls-48" d="M16.05,2.763v51.17a1.34,1.34,0,0,0,1.34,1.34H170.62a1.34,1.34,0,0,0,1.34-1.34V2.763a1.342,1.342,0,0,0-1.34-1.35H17.39A1.342,1.342,0,0,0,16.05,2.763Zm138.9,39.76a6.38,6.38,0,1,1,6.38,6.37A6.378,6.378,0,0,1,154.95,42.523Zm0-28.35a6.38,6.38,0,1,1,6.38,6.38A6.385,6.385,0,0,1,154.95,14.173ZM20.33,42.523a6.375,6.375,0,1,1,6.38,6.37A6.372,6.372,0,0,1,20.33,42.523Zm0-28.35a6.375,6.375,0,1,1,6.38,6.38A6.378,6.378,0,0,1,20.33,14.173Z" transform="translate(0.003 0)"/><path class="cls-49" d="M94.464,28.347a1.277,1.277,0,0,1-.013.187,1.4,1.4,0,1,1,.013-.187Z" transform="translate(0.003 0)"/><rect class="cls-50" x="104.998" y="12.832" width="19.937" height="31.032" rx="1.645"/><rect class="cls-51" x="23.14" y="26.362" width="141.732" height="3.969" transform="translate(188.016 56.693) rotate(-180)"/><rect class="cls-52" x="37.32" width="113.386" height="56.693" rx="1.919"/><rect class="cls-48" x="67.08" y="-26.929" width="53.858" height="110.551" rx="1.919" transform="translate(122.359 -65.663) rotate(90)"/><rect class="cls-53" x="68.497" y="-25.512" width="51.024" height="107.717" rx="1.919" transform="translate(122.359 -65.663) rotate(90)"/><path id="path5572-2" class="cls-54" d="M64.379,44.647a16.3,16.3,0,1,1,16.3-16.3,16.3,16.3,0,0,1-16.3,16.3h0" transform="translate(0.003 0)"/><rect class="cls-55" x="100.786" y="2.831" width="44.662" height="51.024" rx="2.394"/><g class="cls-56"><path class="cls-57" d="M124.09,53.855h20.13a1.225,1.225,0,0,0,1.225-1.225V5.209a2.378,2.378,0,0,0-2.377-2.378H124.09Z" transform="translate(0.003 0)"/></g><path id="path5572-2-2" data-name="path5572-2" class="cls-58" d="M64.379,44.647a16.3,16.3,0,1,1,16.3-16.3,16.3,16.3,0,0,1-16.3,16.3h0" transform="translate(0.003 0)"/><path class="cls-59" d="M64.38,36.427c-.16,0-.31-.321-.469-.331s-.347.292-.505.273-.27-.357-.426-.386-.381.248-.535.21-.225-.387-.376-.434-.408.2-.556.142-.176-.41-.321-.476-.428.148-.568.074-.124-.429-.26-.511-.443.1-.574.005-.071-.44-.2-.539-.45.042-.57-.063-.018-.446-.13-.559-.453-.012-.559-.131.036-.444-.063-.57-.448-.066-.538-.2.088-.437.005-.573-.436-.119-.511-.26.141-.423.075-.569-.419-.171-.476-.32.191-.4.143-.555-.4-.22-.433-.375.238-.377.209-.534-.366-.266-.385-.425.282-.345.273-.506-.331-.308-.331-.469.321-.311.331-.469-.292-.348-.273-.505.356-.27.385-.427-.247-.38-.209-.535.387-.224.434-.376-.2-.407-.143-.556.411-.175.477-.32-.149-.428-.075-.569.429-.124.512-.26-.1-.442-.005-.573.44-.072.538-.2-.042-.451.064-.57.446-.018.558-.131.012-.452.131-.558.445.035.57-.063.066-.448.2-.539.437.089.574.006.119-.437.26-.511.423.14.569.075.17-.42.32-.476.4.19.554.143.22-.395.376-.434.376.238.534.21.266-.366.424-.385.346.282.506.272.309-.331.469-.331.311.322.469.331.348-.291.506-.272.27.356.426.385.381-.247.535-.209.224.386.376.434.408-.2.556-.143.175.411.32.476.428-.148.569-.074.124.429.26.511.443-.095.574,0,.071.441.2.539.451-.042.57.064.019.445.131.558.453.012.559.131-.036.445.063.57.447.066.538.2-.088.437-.005.573.436.119.511.26-.141.424-.075.569.419.171.476.32-.191.4-.143.555.395.22.433.375-.238.377-.209.534.365.266.385.425-.282.345-.273.506.331.308.331.469-.321.311-.331.469.292.348.273.5-.357.27-.385.427.247.38.209.535-.387.224-.434.376.2.407.142.556-.41.175-.476.32.149.428.074.569-.428.124-.511.26.1.443.005.573-.44.072-.538.2.042.451-.064.57-.446.018-.558.131-.012.452-.132.558-.444-.035-.57.063-.065.448-.2.539-.437-.089-.574-.006-.119.437-.26.511-.423-.14-.569-.074-.17.419-.32.476-.4-.191-.554-.143-.22.4-.376.433-.376-.238-.534-.209-.266.365-.424.384-.346-.282-.506-.272S64.541,36.427,64.38,36.427Z" transform="translate(0.003 0)"/><path class="cls-60" d="M64.383,35.744a7.4,7.4,0,1,1,7.4-7.4A7.4,7.4,0,0,1,64.383,35.744Z" transform="translate(0.003 0)"/><path class="cls-15" d="M64.381,30.592a2.244,2.244,0,1,1,2.244-2.244A2.246,2.246,0,0,1,64.381,30.592Z" transform="translate(0.003 0)"/><path class="cls-61" d="M64.383,30.143a1.8,1.8,0,1,1,1.8-1.8A1.8,1.8,0,0,1,64.383,30.143Z" transform="translate(0.003 0)"/><path d="M117.908,40.8a.675.675,0,0,0,.744-.672V36.03l-1.194-.123v3.169l-.8-.081V36.3l-1.194-.123v2.692l-.83-.085V35.618l-1.194-.123v4.232a.676.676,0,0,0,.606.672Z" transform="translate(0.003 0)"/><path d="M114.636,30.315l-1.194-.122v4.224a.683.683,0,0,0,.614.68l3.843.394a.683.683,0,0,0,.753-.68V30.727l-1.194-.122v3.169l-.8-.082V31l-1.194-.122V33.57l-.83-.086Z" transform="translate(0.003 0)"/><path d="M116.66,24.02V21.329l-1.194-.123V23.9l-.83-.085v-3.17l-1.194-.122v4.225a.684.684,0,0,0,.613.68l3.844.394a.683.683,0,0,0,.753-.679V21.055l-1.194-.122V24.1Z" transform="translate(0.003 0)"/><path d="M116.9,16.722a.824.824,0,0,1,.3.235,1.06,1.06,0,0,1,.185.346,1.194,1.194,0,0,1-.025.838.586.586,0,0,1-.251.265.758.758,0,0,1-.446.075l-1.272-.131a.9.9,0,0,1-.457-.171.875.875,0,0,1-.278-.353,1.152,1.152,0,0,1-.033-.84.812.812,0,0,1,.179-.289.6.6,0,0,1,.272-.165l.23-.064V14.8l-.322.052a1.665,1.665,0,0,0-.845.4,2.174,2.174,0,0,0-.582.859,3.657,3.657,0,0,0,.048,2.532,2.409,2.409,0,0,0,.713.979,1.947,1.947,0,0,0,1.032.419l1.272.13a1.669,1.669,0,0,0,1.045-.211,1.854,1.854,0,0,0,.736-.863,3.246,3.246,0,0,0,.256-1.336,3.477,3.477,0,0,0-.2-1.185,2.779,2.779,0,0,0-.561-.946,2.107,2.107,0,0,0-.829-.565l-.363-.133v1.7Z" transform="translate(0.003 0)"/><polygon points="113.445 10.122 115.488 10.332 115.488 12.246 113.445 12.036 113.445 13.709 118.655 14.243 118.655 12.571 116.682 12.368 116.682 10.454 118.655 10.657 118.655 8.984 113.445 8.45 113.445 10.122"/><path class="cls-62" d="M110.89,40.051l-1.936-.154.043,6.75.033-.721-.1,2.221.139-1.495.234.019-.014,1.5.31-2.2-.1.712.245.019.025-.724-.076,2.2.216-1.467.233.019-.012,1.5.307-2.2-.1.715.212.017.066-.717-.2,2.173.445-2.157-.148.714.279.023,0-.729-.005,2.228.2-1.484.256.02.018-.725-.056,2.2.3-2.18-.1.716.247.019.023-.727-.07,2.2.216-1.463.237.019,0-.736.013,2.237.191-1.486.245.02-.037,1.48.206-1.467.3.024.06,1.505.156-2.219-.051.727.229.019.089,1.5.156-2.212-.051.722.2.016.031-.73-.093,2.2.338-2.18-.112.719.271.022-.022,1.481.191-1.468.225.018,0-.733-.01,2.228.2-1.48.253.021.016-.73-.048,2.2.3-2.181-.1.72.258.021-.023,1.478.287-2.187-.095.722.214.017.007-.739-.022,2.234.209-1.479.309.024-.029-.732.089,2.235.105-1.49.211.017-.038,1.473.2-1.46.228.018,0-.738-.013,2.231.3-2.2-.1.723.259.02.011-.727-.034,2.206.286-2.191-.095.726.218.017,0-.735-.01,2.227.2-1.476.156.012.038-.724-.117,2.22.222-2.212V45.3l-3.77-.3V41.086l-1.937-.154v3.914l-1.215-.1a.913.913,0,0,1-.84-.909Z" transform="translate(0.003 0)"/><path class="cls-62" d="M108.929,25.824l9.658.774v3.014l-8.067-.646C110.713,29.4,108.929,25.824,108.929,25.824Z" transform="translate(0.003 0)"/><path class="cls-63" d="M108.619,8.173s-2.316,5.566-1.276,10.571c.782,3.761,3.425,6.992,5.208,10.107,1.341,2.343.659,3.991.31,5.7l-2.145.153c.331-1.889.9-3.35-.4-5.762-1.033-1.914-5.33-7.184-5.33-12.4C104.986,13.191,108.619,8.173,108.619,8.173Z" transform="translate(0.003 0)"/><text class="cls-64" transform="translate(137.583 49.887) rotate(-90)">FT6335M </text><path class="cls-65" d="M86.183,3.494V0h-6.52V3.494a3.27,3.27,0,0,0,3.26,3.26h0A3.27,3.27,0,0,0,86.183,3.494Z" transform="translate(0.003 0)"/><path class="cls-48" d="M86.037,3.406V0H79.809V3.406A3.123,3.123,0,0,0,82.923,6.52h0A3.123,3.123,0,0,0,86.037,3.406Z" transform="translate(0.003 0)"/><circle class="cls-66" cx="82.914" cy="3.408" r="3.024"/><circle class="cls-67" cx="82.914" cy="3.438" r="2.825"/><line class="cls-68" x1="84.93" y1="3.408" x2="80.899" y2="3.408"/><line class="cls-68" x1="82.914" y1="5.424" x2="82.914" y2="1.392"/><path class="cls-65" d="M79.663,53.2v3.494h6.52V53.2a3.27,3.27,0,0,0-3.26-3.26h0A3.27,3.27,0,0,0,79.663,53.2Z" transform="translate(0.003 0)"/><path class="cls-48" d="M79.809,53.287v3.406h6.228V53.287a3.123,3.123,0,0,0-3.114-3.114h0A3.123,3.123,0,0,0,79.809,53.287Z" transform="translate(0.003 0)"/><circle class="cls-66" cx="82.914" cy="53.408" r="3.024"/><circle class="cls-69" cx="82.914" cy="53.438" r="2.825"/><line class="cls-68" x1="84.93" y1="53.408" x2="80.899" y2="53.408"/><line class="cls-68" x1="82.914" y1="55.424" x2="82.914" y2="51.392"/></g><g id="качелька_top" data-name="качелька top"><path class="cls-70" d="M140.308,28.415a7.085,7.085,0,0,0-7.09-7.15,7,7,0,0,0-2.93.63,8.52,8.52,0,0,1-7.09,0,7.016,7.016,0,0,0-2.94-.63,7.091,7.091,0,0,0-7.09,7.15,7.187,7.187,0,0,0,6.86,7.01,7.093,7.093,0,0,0,3.22-.65,8.22,8.22,0,0,1,6.99,0,7.066,7.066,0,0,0,3.22.65A7.171,7.171,0,0,0,140.308,28.415Zm-15.09-.07a4.96,4.96,0,1,1-4.96-4.96A4.959,4.959,0,0,1,125.218,28.345Zm12.96,0a4.96,4.96,0,1,1-4.96-4.96A4.959,4.959,0,0,1,138.178,28.345Z" transform="translate(0.003 0)"/><path class="cls-20" d="M130.018,17.715H88.668a13.293,13.293,0,0,1-9.57-4.14,21.242,21.242,0,0,0-36.48,13.35h17.21a4.242,4.242,0,0,1,8,0h16.12a4.25,4.25,0,1,1,0,2.84H67.828a4.242,4.242,0,0,1-8,0H42.618A21.4,21.4,0,0,0,63.358,49.6a21.129,21.129,0,0,0,15.77-6.52,13.243,13.243,0,0,1,9.54-4.1h41.02a10.845,10.845,0,0,0,10.9-9.57A10.654,10.654,0,0,0,130.018,17.715Zm-4.73,10.63a4.96,4.96,0,1,1-4.96-4.96A4.959,4.959,0,0,1,125.288,28.345Zm12.96,0a4.96,4.96,0,1,1-4.96-4.96A4.959,4.959,0,0,1,138.248,28.345Z" transform="translate(0.003 0)"/><path class="cls-71" d="M75.078,26.925a11.339,11.339,0,0,0-22.5,0h7.25a4.242,4.242,0,0,1,8,0Zm0,2.84h-7.25a4.242,4.242,0,0,1-8,0h-7.25a11.339,11.339,0,0,0,22.5,0Z" transform="translate(0.003 0)"/><text class="cls-72" transform="translate(100.617 32.385) rotate(-90)">25<tspan class="cls-73" x="5.946" y="0">T</tspan></text><path class="cls-74" d="M130.018,17.715H88.668a13.293,13.293,0,0,1-9.57-4.14,21.242,21.242,0,0,0-36.48,13.35h17.21a4.242,4.242,0,0,1,8,0h16.12a4.25,4.25,0,1,1,0,2.84H67.828a4.242,4.242,0,0,1-8,0H42.618A21.4,21.4,0,0,0,63.358,49.6a21.129,21.129,0,0,0,15.77-6.52,13.243,13.243,0,0,1,9.54-4.1h41.02a10.845,10.845,0,0,0,10.9-9.57A10.654,10.654,0,0,0,130.018,17.715Zm-4.73,10.63a4.96,4.96,0,1,1-4.96-4.96A4.959,4.959,0,0,1,125.288,28.345Zm12.96,0a4.96,4.96,0,1,1-4.96-4.96A4.959,4.959,0,0,1,138.248,28.345Z" transform="translate(0.003 0)"/></g></svg>