<svg id="soil-moisture-sensor" xmlns="http://www.w3.org/2000/svg" width="44.5358mm" height="59.15mm" viewBox="0 0 126.2431 167.6693">
  <defs>
    <style>
      .cls-1 {
        fill: #f2f2f2;
        stroke-miterlimit: 1;
        stroke-width: 0.4252px;
      }

      .cls-1, .cls-3, .cls-4 {
        stroke: #000;
      }

      .cls-2 {
        fill: #f9c953;
      }

      .cls-3, .cls-4 {
        fill: none;
        stroke-width: 0.28px;
      }

      .cls-4 {
        stroke-miterlimit: 10;
      }

      .cls-13, .cls-14, .cls-5 {
        isolation: isolate;
      }

      .cls-5 {
        font-size: 5px;
        font-family: TrebuchetMS, Trebuchet MS;
      }

      .cls-6 {
        fill: #404040;
      }

      .cls-7 {
        fill: #8d8c8c;
      }

      .cls-8 {
        fill: #8c8663;
      }

      .cls-9 {
        fill: #b8af82;
      }

      .cls-10 {
        fill: #80795b;
      }

      .cls-11 {
        fill: #5e5b43;
      }

      .cls-12 {
        fill: #9a916c;
      }

      .cls-13 {
        opacity: 0.1;
      }

      .cls-14 {
        fill: #fff;
        opacity: 0.2;
      }

      .cls-15 {
        fill: #e2d6a1;
      }

      .cls-16 {
        fill: #b3b3b3;
      }

      .cls-17 {
        fill: gray;
      }

      .cls-18 {
        fill: #242424;
      }

      .cls-19 {
        fill: #d2d1d3;
      }

      .cls-20 {
        fill: #b7b8b9;
      }

      .cls-21 {
        fill: #d7d3d5;
      }

      .cls-22 {
        fill: #666;
      }
    </style>
  </defs>
  <title>soil-moisture-sensor</title>
  <g id="soil-moisture-sensor-2" data-name="soil-moisture-sensor">
    <g id="bottom">
      <path class="cls-1" d="M120.6073.2126H74.7608A5.431,5.431,0,0,0,69.3376,5.62V143.1971l8.25,24.26h4.3333l7.0666-24.0935V56.7337c1.1666-11.572,16.03-11.53,17.3931,0v86.4634l8.25,24.26h4.3333l7.0666-24.0935V5.62A5.431,5.431,0,0,0,120.6073.2126ZM79.3192,5.6986h.2a4.4745,4.4745,0,0,1,4.5,4.4863,4.52,4.52,0,0,1-4.5,4.3867,4.4544,4.4544,0,0,1-4.5-4.3867A4.365,4.365,0,0,1,79.3192,5.6986Zm36,0h.2a4.4745,4.4745,0,0,1,4.5,4.4863,4.52,4.52,0,0,1-4.5,4.3867,4.4544,4.4544,0,0,1-4.5-4.3867A4.365,4.365,0,0,1,115.3192,5.6986Z"/>
      <path class="cls-2" d="M106.7674,55.0983v87.2751l7.8777,23.6686c.5481,1.4409,3.761,1.3755,4.1377,0l6.7477-23.5065V55.0983Zm4.263,87.3823a.7366.7366,0,0,1-.7344.7344H110.28a.7365.7365,0,0,1-.7344-.7344v-.0156a.7365.7365,0,0,1,.7344-.7344h.0156a.7365.7365,0,0,1,.7344.7344Zm0-16.6a.7365.7365,0,0,1-.7344.7343H110.28a.7364.7364,0,0,1-.7344-.7343v-.0157a.7365.7365,0,0,1,.7344-.7343h.0156a.7366.7366,0,0,1,.7344.7343Zm0-16.6a.7366.7366,0,0,1-.7344.7344H110.28a.7365.7365,0,0,1-.7344-.7344v-.0156a.7365.7365,0,0,1,.7344-.7344h.0156a.7365.7365,0,0,1,.7344.7344Zm0-16.6a.7366.7366,0,0,1-.7344.7344H110.28a.7365.7365,0,0,1-.7344-.7344V92.665a.7365.7365,0,0,1,.7344-.7344h.0156a.7366.7366,0,0,1,.7344.7344Zm0-16.6a.7366.7366,0,0,1-.7344.7344H110.28a.7365.7365,0,0,1-.7344-.7344V76.065a.7365.7365,0,0,1,.7344-.7344h.0156a.7366.7366,0,0,1,.7344.7344Zm0-16.6a.7366.7366,0,0,1-.7344.7344H110.28a.7365.7365,0,0,1-.7344-.7344V59.465a.7365.7365,0,0,1,.7344-.7344h.0156a.7365.7365,0,0,1,.7344.7344Zm3.13,97.4088a.7366.7366,0,0,1-.7344.7344h-.0156a.7366.7366,0,0,1-.7344-.7344v-.0156a.7366.7366,0,0,1,.7344-.7344h.0156a.7366.7366,0,0,1,.7344.7344Zm3.13-14.4088a.7366.7366,0,0,1-.7344.7344h-.0156a.7366.7366,0,0,1-.7344-.7344v-.0156a.7365.7365,0,0,1,.7344-.7344h.0156a.7365.7365,0,0,1,.7344.7344Zm0-16.6a.7365.7365,0,0,1-.7344.7343h-.0156a.7365.7365,0,0,1-.7344-.7343v-.0157a.7366.7366,0,0,1,.7344-.7343h.0156a.7366.7366,0,0,1,.7344.7343Zm0-16.6a.7366.7366,0,0,1-.7344.7344h-.0156a.7366.7366,0,0,1-.7344-.7344v-.0156a.7365.7365,0,0,1,.7344-.7344h.0156a.7365.7365,0,0,1,.7344.7344Zm0-16.6a.7366.7366,0,0,1-.7344.7344h-.0156a.7366.7366,0,0,1-.7344-.7344V92.665a.7366.7366,0,0,1,.7344-.7344h.0156a.7366.7366,0,0,1,.7344.7344Zm0-16.6a.7366.7366,0,0,1-.7344.7344h-.0156a.7366.7366,0,0,1-.7344-.7344V76.065a.7366.7366,0,0,1,.7344-.7344h.0156a.7366.7366,0,0,1,.7344.7344Zm0-16.6a.7366.7366,0,0,1-.7344.7344h-.0156a.7366.7366,0,0,1-.7344-.7344V59.465a.7365.7365,0,0,1,.7344-.7344h.0156a.7365.7365,0,0,1,.7344.7344Zm3.13,97.4088a.7365.7365,0,0,1-.7344.7344h-.0156a.7366.7366,0,0,1-.7344-.7344v-.0156a.7366.7366,0,0,1,.7344-.7344h.0156a.7365.7365,0,0,1,.7344.7344Zm3.13-14.4088a.7366.7366,0,0,1-.7344.7344h-.0156a.7366.7366,0,0,1-.7344-.7344v-.0156a.7365.7365,0,0,1,.7344-.7344h.0156a.7365.7365,0,0,1,.7344.7344Zm0-16.6a.7365.7365,0,0,1-.7344.7343h-.0156a.7365.7365,0,0,1-.7344-.7343v-.0157a.7366.7366,0,0,1,.7344-.7343h.0156a.7366.7366,0,0,1,.7344.7343Zm0-16.6a.7366.7366,0,0,1-.7344.7344h-.0156a.7366.7366,0,0,1-.7344-.7344v-.0156a.7365.7365,0,0,1,.7344-.7344h.0156a.7365.7365,0,0,1,.7344.7344Zm0-16.6a.7366.7366,0,0,1-.7344.7344h-.0156a.7366.7366,0,0,1-.7344-.7344V92.665a.7366.7366,0,0,1,.7344-.7344h.0156a.7366.7366,0,0,1,.7344.7344Zm0-16.6a.7366.7366,0,0,1-.7344.7344h-.0156a.7366.7366,0,0,1-.7344-.7344V76.065a.7366.7366,0,0,1,.7344-.7344h.0156a.7366.7366,0,0,1,.7344.7344Zm0-16.6a.7366.7366,0,0,1-.7344.7344h-.0156a.7366.7366,0,0,1-.7344-.7344V59.465a.7365.7365,0,0,1,.7344-.7344h.0156a.7365.7365,0,0,1,.7344.7344Z"/>
      <path class="cls-2" d="M69.7674,55.0983v87.2751l7.8777,23.6686c.5481,1.4409,3.761,1.3755,4.1377,0l6.7477-23.5065V55.0983Zm4.263,87.3823a.7366.7366,0,0,1-.7344.7344H73.28a.7365.7365,0,0,1-.7344-.7344v-.0156a.7365.7365,0,0,1,.7344-.7344h.0156a.7365.7365,0,0,1,.7344.7344Zm0-16.6a.7365.7365,0,0,1-.7344.7343H73.28a.7364.7364,0,0,1-.7344-.7343v-.0157a.7365.7365,0,0,1,.7344-.7343h.0156a.7366.7366,0,0,1,.7344.7343Zm0-16.6a.7366.7366,0,0,1-.7344.7344H73.28a.7365.7365,0,0,1-.7344-.7344v-.0156a.7365.7365,0,0,1,.7344-.7344h.0156a.7365.7365,0,0,1,.7344.7344Zm0-16.6a.7366.7366,0,0,1-.7344.7344H73.28a.7365.7365,0,0,1-.7344-.7344V92.665a.7365.7365,0,0,1,.7344-.7344h.0156a.7366.7366,0,0,1,.7344.7344Zm0-16.6a.7366.7366,0,0,1-.7344.7344H73.28a.7365.7365,0,0,1-.7344-.7344V76.065a.7365.7365,0,0,1,.7344-.7344h.0156a.7366.7366,0,0,1,.7344.7344Zm0-16.6a.7366.7366,0,0,1-.7344.7344H73.28a.7365.7365,0,0,1-.7344-.7344V59.465a.7365.7365,0,0,1,.7344-.7344h.0156a.7365.7365,0,0,1,.7344.7344Zm3.13,97.4088a.7366.7366,0,0,1-.7344.7344h-.0156a.7366.7366,0,0,1-.7344-.7344v-.0156a.7366.7366,0,0,1,.7344-.7344h.0156a.7366.7366,0,0,1,.7344.7344Zm3.13-14.4088a.7366.7366,0,0,1-.7344.7344h-.0156a.7366.7366,0,0,1-.7344-.7344v-.0156a.7365.7365,0,0,1,.7344-.7344h.0156a.7365.7365,0,0,1,.7344.7344Zm0-16.6a.7365.7365,0,0,1-.7344.7343h-.0156a.7365.7365,0,0,1-.7344-.7343v-.0157a.7366.7366,0,0,1,.7344-.7343h.0156a.7366.7366,0,0,1,.7344.7343Zm0-16.6a.7366.7366,0,0,1-.7344.7344h-.0156a.7366.7366,0,0,1-.7344-.7344v-.0156a.7365.7365,0,0,1,.7344-.7344h.0156a.7365.7365,0,0,1,.7344.7344Zm0-16.6a.7366.7366,0,0,1-.7344.7344h-.0156a.7366.7366,0,0,1-.7344-.7344V92.665a.7366.7366,0,0,1,.7344-.7344h.0156a.7366.7366,0,0,1,.7344.7344Zm0-16.6a.7366.7366,0,0,1-.7344.7344h-.0156a.7366.7366,0,0,1-.7344-.7344V76.065a.7366.7366,0,0,1,.7344-.7344h.0156a.7366.7366,0,0,1,.7344.7344Zm0-16.6a.7366.7366,0,0,1-.7344.7344h-.0156a.7366.7366,0,0,1-.7344-.7344V59.465a.7365.7365,0,0,1,.7344-.7344h.0156a.7365.7365,0,0,1,.7344.7344Zm3.13,97.4088a.7365.7365,0,0,1-.7344.7344H82.671a.7366.7366,0,0,1-.7344-.7344v-.0156a.7366.7366,0,0,1,.7344-.7344h.0156a.7365.7365,0,0,1,.7344.7344Zm3.13-14.4088a.7366.7366,0,0,1-.7344.7344h-.0156a.7366.7366,0,0,1-.7344-.7344v-.0156a.7365.7365,0,0,1,.7344-.7344h.0156a.7365.7365,0,0,1,.7344.7344Zm0-16.6a.7365.7365,0,0,1-.7344.7343h-.0156a.7365.7365,0,0,1-.7344-.7343v-.0157a.7366.7366,0,0,1,.7344-.7343h.0156a.7366.7366,0,0,1,.7344.7343Zm0-16.6a.7366.7366,0,0,1-.7344.7344h-.0156a.7366.7366,0,0,1-.7344-.7344v-.0156a.7365.7365,0,0,1,.7344-.7344h.0156a.7365.7365,0,0,1,.7344.7344Zm0-16.6a.7366.7366,0,0,1-.7344.7344h-.0156a.7366.7366,0,0,1-.7344-.7344V92.665a.7366.7366,0,0,1,.7344-.7344h.0156a.7366.7366,0,0,1,.7344.7344Zm0-16.6a.7366.7366,0,0,1-.7344.7344h-.0156a.7366.7366,0,0,1-.7344-.7344V76.065a.7366.7366,0,0,1,.7344-.7344h.0156a.7366.7366,0,0,1,.7344.7344Zm0-16.6a.7366.7366,0,0,1-.7344.7344h-.0156a.7366.7366,0,0,1-.7344-.7344V59.465a.7365.7365,0,0,1,.7344-.7344h.0156a.7365.7365,0,0,1,.7344.7344Z"/>
      <g>
        <path id="rect6749-9" class="cls-3" d="M94.6206,27.6986h6.9943a.0989.0989,0,0,1,.1029.1v13.5a.1.1,0,0,1-.1029.1H94.6206a.0988.0988,0,0,1-.1028-.1v-13.4C94.5178,27.7986,94.5178,27.6986,94.6206,27.6986Z"/>
        <path id="rect6749-9-2" data-name="rect6749-9" class="cls-3" d="M87.4206,27.6986h6.9943a.0989.0989,0,0,1,.1029.1v13.5a.1.1,0,0,1-.1029.1H87.4206a.0988.0988,0,0,1-.1028-.1v-13.4C87.3178,27.7986,87.3178,27.6986,87.4206,27.6986Z"/>
        <path id="rect6749-9-3" class="cls-4" d="M101.8708,27.6986h6.9448a.0986.0986,0,0,1,.1022.1v13.5a.0994.0994,0,0,1-.1022.1h-6.9448a.0986.0986,0,0,1-.1021-.1v-13.4C101.6665,27.7986,101.7687,27.6986,101.8708,27.6986Z"/>
        <text class="cls-5" transform="translate(103.6269 40.2942)">G</text>
        <text class="cls-5" transform="translate(96.5491 40.2941)">V</text>
        <text class="cls-5" transform="translate(89.8155 40.2942)">S</text>
      </g>
      <g>
        <g id="con-header-2.54-male-1x3">
          <g>
            <path id="path106654-2-2" class="cls-6" d="M103.5178,34.9286h3.9l1.5-1.5781V29.3067l-1.5-1.5781h-4.2l-1.5,1.5781v4.0438l1.5,1.5781Z"/>
            <g>
              <rect id="rect106656-2-2" class="cls-7" x="104.0178" y="30.1943" width="2.3" height="2.2685"/>
              <rect id="rect106658-2-2" class="cls-8" x="104.5178" y="30.7861" width="1.2" height="1.1836"/>
              <polygon id="polygon106660-2-2" class="cls-9" points="104.618 31.97 104.018 32.463 106.418 32.463 105.818 31.97 104.618 31.97"/>
              <polygon id="polygon106662-2-2" class="cls-10" points="104.018 32.463 104.018 30.194 104.618 30.786 104.618 31.97 104.018 32.463"/>
              <polygon id="polygon106664-2-2" class="cls-11" points="104.018 30.194 106.418 30.194 105.818 30.786 104.618 30.786 104.018 30.194"/>
              <polygon id="polygon106666-2-2" class="cls-12" points="105.818 30.786 106.418 30.194 106.418 32.463 105.818 31.97 105.818 30.786"/>
            </g>
          </g>
          <g>
            <path id="path106672-2-2" class="cls-6" d="M96.3178,34.9286h3.9l1.5-1.5781V29.3067l-1.5-1.5781h-4.2l-1.5,1.5781v4.0438l1.5,1.5781Z"/>
            <g>
              <rect id="rect106674-2-2" class="cls-7" x="96.9178" y="30.1943" width="2.3" height="2.2685"/>
              <rect id="rect106676-2-2" class="cls-8" x="97.4178" y="30.7861" width="1.2" height="1.1836"/>
              <polygon id="polygon106678-2-2" class="cls-9" points="97.518 31.97 96.918 32.463 99.218 32.463 98.618 31.97 97.518 31.97"/>
              <polygon id="polygon106680-2-2" class="cls-10" points="96.918 32.463 96.918 30.194 97.518 30.786 97.518 31.97 96.918 32.463"/>
              <polygon id="polygon106682-2-2" class="cls-11" points="96.918 30.194 99.218 30.194 98.618 30.786 97.518 30.786 96.918 30.194"/>
              <polygon id="polygon106684-2-2" class="cls-12" points="98.618 30.786 99.218 30.194 99.218 32.463 98.618 31.97 98.618 30.786"/>
            </g>
          </g>
          <g>
            <path id="path106726-2-2" class="cls-6" d="M89.2178,34.9286h3.8l1.5-1.5781V29.3067l-1.5-1.5781h-4.2l-1.5,1.5781v4.0438l1.5,1.5781Z"/>
            <g>
              <rect id="rect106728-2-2" class="cls-7" x="89.8178" y="30.1943" width="2.3" height="2.2685"/>
              <rect id="rect106730-2-2" class="cls-8" x="90.3178" y="30.7861" width="1.2" height="1.1836"/>
              <polygon id="polygon106732-2-2" class="cls-9" points="89.818 32.463 92.118 32.463 91.518 31.97 90.418 31.97 89.818 32.463"/>
              <polygon id="polygon106734-2-2" class="cls-10" points="89.818 30.194 90.418 30.786 90.418 31.97 89.818 32.463 89.818 30.194"/>
              <polygon id="polygon106736-2-2" class="cls-11" points="92.118 30.194 91.518 30.786 90.418 30.786 89.818 30.194 92.118 30.194"/>
              <polygon id="polygon106738-2-2" class="cls-12" points="92.118 30.194 92.118 32.463 91.518 31.97 91.518 30.786 92.118 30.194"/>
            </g>
          </g>
        </g>
        <g>
          <circle id="_0.1.16.5.0.2-3-8-8" data-name=" 0.1.16.5.0.2-3-8-8" class="cls-9" cx="91.0178" cy="31.1143" r="1.9003"/>
          <g>
            <polygon class="cls-9" points="89.868 14.758 89.868 20.477 89.868 31.895 92.168 31.895 92.168 20.477 92.168 14.758 91.568 11.16 90.368 11.16 89.868 14.758"/>
            <polygon id="_0.1.16.5.0.12-8-0-8" data-name=" 0.1.16.5.0.12-8-0-8" class="cls-13" points="91.868 14.758 92.168 14.758 92.168 31.895 91.868 31.895 91.868 14.758"/>
            <polygon id="_0.1.16.5.0.11-1-0-8" data-name=" 0.1.16.5.0.11-1-0-8" class="cls-14" points="89.868 14.758 90.068 14.758 90.068 31.895 89.868 31.895 89.868 14.758"/>
            <polygon id="polygon6029-5-3-8" class="cls-14" points="89.868 14.758 90.368 11.16 90.668 11.16 90.068 14.758 89.868 14.758"/>
            <polygon id="_0.1.16.5.0.1.3-8-7-8" data-name=" 0.1.16.5.0.1.3-8-7-8" class="cls-13" points="91.868 14.758 91.268 11.16 91.568 11.16 92.168 14.758 91.868 14.758"/>
            <polygon id="_0.1.16.5.0.1.1-5-3-8" data-name=" 0.1.16.5.0.1.1-5-3-8" class="cls-15" points="91.568 11.16 90.368 11.16 90.268 12.099 91.668 12.099 91.568 11.16"/>
            <polygon id="_0.1.16.5.0.6-3-1-8" data-name=" 0.1.16.5.0.6-3-1-8" class="cls-12" points="92.168 31.895 92.168 31.27 89.868 31.27 89.868 31.895 92.168 31.895"/>
            <polygon id="_0.1.16.5.0.7-7-4-8" data-name=" 0.1.16.5.0.7-7-4-8" class="cls-15" points="92.168 31.113 92.168 30.175 89.868 30.175 89.868 31.113 92.168 31.113"/>
          </g>
        </g>
        <g>
          <circle id="_0.1.16.5.0.2-3-8-8-2" data-name=" 0.1.16.5.0.2-3-8-8" class="cls-9" cx="98.0178" cy="31.1143" r="1.9003"/>
          <g>
            <polygon class="cls-9" points="96.868 14.758 96.868 20.477 96.868 31.895 99.168 31.895 99.168 20.477 99.168 14.758 98.568 11.16 97.368 11.16 96.868 14.758"/>
            <polygon id="_0.1.16.5.0.12-8-0-8-2" data-name=" 0.1.16.5.0.12-8-0-8" class="cls-13" points="98.868 14.758 99.168 14.758 99.168 31.895 98.868 31.895 98.868 14.758"/>
            <polygon id="_0.1.16.5.0.11-1-0-8-2" data-name=" 0.1.16.5.0.11-1-0-8" class="cls-14" points="96.868 14.758 97.068 14.758 97.068 31.895 96.868 31.895 96.868 14.758"/>
            <polygon id="polygon6029-5-3-8-2" data-name="polygon6029-5-3-8" class="cls-14" points="96.868 14.758 97.368 11.16 97.668 11.16 97.068 14.758 96.868 14.758"/>
            <polygon id="_0.1.16.5.0.1.3-8-7-8-2" data-name=" 0.1.16.5.0.1.3-8-7-8" class="cls-13" points="98.868 14.758 98.268 11.16 98.568 11.16 99.168 14.758 98.868 14.758"/>
            <polygon id="_0.1.16.5.0.1.1-5-3-8-2" data-name=" 0.1.16.5.0.1.1-5-3-8" class="cls-15" points="98.568 11.16 97.368 11.16 97.268 12.099 98.668 12.099 98.568 11.16"/>
            <polygon id="_0.1.16.5.0.6-3-1-8-2" data-name=" 0.1.16.5.0.6-3-1-8" class="cls-12" points="99.168 31.895 99.168 31.27 96.868 31.27 96.868 31.895 99.168 31.895"/>
            <polygon id="_0.1.16.5.0.7-7-4-8-2" data-name=" 0.1.16.5.0.7-7-4-8" class="cls-15" points="99.168 31.113 99.168 30.175 96.868 30.175 96.868 31.113 99.168 31.113"/>
          </g>
        </g>
        <g>
          <circle id="_0.1.16.5.0.2-3-8-8-3" data-name=" 0.1.16.5.0.2-3-8-8" class="cls-9" cx="105.3178" cy="31.1143" r="1.9003"/>
          <g>
            <polygon class="cls-9" points="104.168 14.758 104.168 20.477 104.168 31.895 106.468 31.895 106.468 20.477 106.468 14.758 105.868 11.16 104.668 11.16 104.168 14.758"/>
            <polygon id="_0.1.16.5.0.12-8-0-8-3" data-name=" 0.1.16.5.0.12-8-0-8" class="cls-13" points="106.168 14.758 106.468 14.758 106.468 31.895 106.168 31.895 106.168 14.758"/>
            <polygon id="_0.1.16.5.0.11-1-0-8-3" data-name=" 0.1.16.5.0.11-1-0-8" class="cls-14" points="104.168 14.758 104.368 14.758 104.368 31.895 104.168 31.895 104.168 14.758"/>
            <polygon id="polygon6029-5-3-8-3" data-name="polygon6029-5-3-8" class="cls-14" points="104.168 14.758 104.668 11.16 104.968 11.16 104.368 14.758 104.168 14.758"/>
            <polygon id="_0.1.16.5.0.1.3-8-7-8-3" data-name=" 0.1.16.5.0.1.3-8-7-8" class="cls-13" points="106.168 14.758 105.568 11.16 105.868 11.16 106.468 14.758 106.168 14.758"/>
            <polygon id="_0.1.16.5.0.1.1-5-3-8-3" data-name=" 0.1.16.5.0.1.1-5-3-8" class="cls-15" points="105.868 11.16 104.668 11.16 104.568 12.099 105.968 12.099 105.868 11.16"/>
            <polygon id="_0.1.16.5.0.6-3-1-8-3" data-name=" 0.1.16.5.0.6-3-1-8" class="cls-12" points="106.468 31.895 106.468 31.27 104.168 31.27 104.168 31.895 106.468 31.895"/>
            <polygon id="_0.1.16.5.0.7-7-4-8-3" data-name=" 0.1.16.5.0.7-7-4-8" class="cls-15" points="106.468 31.113 106.468 30.175 104.168 30.175 104.168 31.113 106.468 31.113"/>
          </g>
        </g>
      </g>
      <g id="T-SOT23">
        <path id="path3479-7-2-2" class="cls-16" d="M74.95,38.35h1.6v2.6h-1.6Z"/>
        <path id="path3481-0-2-2" class="cls-17" d="M74.95,38.55h1.6v.9h-1.6Z"/>
        <path id="path3483-6-2" class="cls-16" d="M80.45,38.35h1.6v2.6h-1.6Z"/>
        <path id="path3485-6-2" class="cls-17" d="M80.45,38.55h1.6v.9h-1.6Z"/>
        <path id="path3487-1-2-2" class="cls-16" d="M77.65,34.85h1.6v-2.6h-1.6Z"/>
        <path id="path3489-6-2-2" class="cls-17" d="M77.65,34.55h1.6v-.8h-1.6Z"/>
        <path id="path3477-9-2" class="cls-18" d="M74.25,34.85h8.4v3.5h-8.4Z"/>
      </g>
      <g id="R-0603">
        <rect id="rect21332-8-1-9-3-8-2-40-6-2-0-6-6-0-5-6-4-8-7-2-0-7-2-3-9-16-5" class="cls-19" x="118.5892" y="37.9056" width="2.2677" height="2.2598"/>
        <rect id="rect21332-8-1-9-3-8-2-40-6-2-0-6-6-0-5-6-4-8-7-2-0-7-2-3-10-16-5" class="cls-19" x="118.5892" y="34.5158" width="2.2677" height="2.2598"/>
        <path class="cls-20" d="M118.5892,39.2755v-3.87a.3291.3291,0,0,1,.2772-.33h1.7029a.3088.3088,0,0,1,.287.3287v.0012h0v3.87a.3091.3091,0,0,1-.2857.33h-1.6843a.319.319,0,0,1-.297-.32h0Z"/>
        <g id="path26345-3-6-9-3-6-4-2-5-6-8-7-9-0-90-3-1-3-9-2-2-8-5-0-2-3-5-16-5">
          <rect class="cls-21" x="118.5892" y="35.4959" width="2.2677" height="3.6797"/>
        </g>
        <path id="path26341-4-2-6-0-8-1-1-1-5-0-3-3-1-8-3-8-7-7-7-2-4-9-7-2-3-5-16-5" class="cls-18" d="M120.8569,38.7554v-2.83h-2.2677v2.83Z"/>
      </g>
      <g id="R-0603-2" data-name="R-0603">
        <rect id="rect21332-8-1-9-3-8-2-40-6-2-0-6-6-0-5-6-4-8-7-2-0-7-2-3-9-16-5-2" data-name="rect21332-8-1-9-3-8-2-40-6-2-0-6-6-0-5-6-4-8-7-2-0-7-2-3-9-16-5" class="cls-19" x="113.5892" y="37.9056" width="2.2677" height="2.2598"/>
        <rect id="rect21332-8-1-9-3-8-2-40-6-2-0-6-6-0-5-6-4-8-7-2-0-7-2-3-10-16-5-2" data-name="rect21332-8-1-9-3-8-2-40-6-2-0-6-6-0-5-6-4-8-7-2-0-7-2-3-10-16-5" class="cls-19" x="113.5892" y="34.5158" width="2.2677" height="2.2598"/>
        <path class="cls-20" d="M113.5892,39.2755v-3.87a.3291.3291,0,0,1,.2772-.33h1.7029a.3088.3088,0,0,1,.287.3287v.0012h0v3.87a.3091.3091,0,0,1-.2857.33h-1.6843a.319.319,0,0,1-.297-.32h0Z"/>
        <g id="path26345-3-6-9-3-6-4-2-5-6-8-7-9-0-90-3-1-3-9-2-2-8-5-0-2-3-5-16-5-2" data-name="path26345-3-6-9-3-6-4-2-5-6-8-7-9-0-90-3-1-3-9-2-2-8-5-0-2-3-5-16-5">
          <rect class="cls-21" x="113.5892" y="35.4959" width="2.2677" height="3.6797"/>
        </g>
        <path id="path26341-4-2-6-0-8-1-1-1-5-0-3-3-1-8-3-8-7-7-7-2-4-9-7-2-3-5-16-5-2" data-name="path26341-4-2-6-0-8-1-1-1-5-0-3-3-1-8-3-8-7-7-7-2-4-9-7-2-3-5-16-5" class="cls-18" d="M115.8569,38.7554v-2.83h-2.2677v2.83Z"/>
      </g>
    </g>
    <g id="top">
      <g>
        <path class="cls-1" d="M51.4823.2126H5.6358A5.431,5.431,0,0,0,.2126,5.62V143.1971l8.25,24.26h4.3333l7.0666-24.0935V56.7337c1.1666-11.572,16.03-11.53,17.3931,0v86.4634l8.25,24.26h4.3333l7.0666-24.0935V5.62A5.431,5.431,0,0,0,51.4823.2126ZM10.1942,5.6986h.2a4.4745,4.4745,0,0,1,4.5,4.4863,4.52,4.52,0,0,1-4.5,4.3867,4.4544,4.4544,0,0,1-4.5-4.3867A4.3651,4.3651,0,0,1,10.1942,5.6986Zm36,0h.2a4.4745,4.4745,0,0,1,4.5,4.4863,4.52,4.52,0,0,1-4.5,4.3867,4.4544,4.4544,0,0,1-4.5-4.3867A4.3651,4.3651,0,0,1,46.1942,5.6986Z"/>
        <g>
          <circle id="path4180" class="cls-22" cx="36.0015" cy="31.1788" r="2.6198"/>
          <circle id="path4180-2" class="cls-22" cx="28.9122" cy="31.1788" r="2.6198"/>
          <rect id="rect4216" class="cls-22" x="19.1831" y="28.5591" width="5.2295" height="5.2295" rx="0.48" ry="0.48"/>
          <rect id="_0.1.5.0.0.6-7" data-name=" 0.1.5.0.0.6-7" class="cls-7" x="20.6629" y="29.9989" width="2.2698" height="2.3898"/>
          <rect id="_0.1.5.0.0.37-1" data-name=" 0.1.5.0.0.37-1" class="cls-8" x="21.2229" y="30.5589" width="1.1699" height="1.2299"/>
          <polygon id="_0.1.5.0.0.39-3" data-name=" 0.1.5.0.0.39-3" class="cls-10" points="22.383 31.788 22.383 30.578 22.913 30.009 22.913 32.348 22.383 31.788"/>
          <polygon id="_0.1.5.0.0.40-25" data-name=" 0.1.5.0.0.40-25" class="cls-11" points="22.383 30.578 21.203 30.578 20.663 30.009 22.913 30.009 22.383 30.578"/>
          <polygon id="_0.1.5.0.0.41-35" data-name=" 0.1.5.0.0.41-35" class="cls-12" points="21.203 31.788 20.663 32.348 20.663 30.009 21.203 30.578 21.203 31.788"/>
          <rect id="_0.1.5.0.0.7-6-40" data-name=" 0.1.5.0.0.7-6-40" class="cls-7" x="34.8816" y="29.9989" width="2.2698" height="2.3898"/>
          <rect id="_0.1.5.0.0.32-4-7" data-name=" 0.1.5.0.0.32-4-7" class="cls-8" x="35.4216" y="30.5589" width="1.1699" height="1.2299"/>
          <polygon id="_0.1.5.0.0.34-7-3" data-name=" 0.1.5.0.0.34-7-3" class="cls-10" points="36.592 30.578 37.132 30.009 37.132 32.348 36.592 31.788 36.592 30.578"/>
          <polygon id="_0.1.5.0.0.35-0-4" data-name=" 0.1.5.0.0.35-0-4" class="cls-11" points="35.432 30.578 34.882 30.009 37.132 30.009 36.592 30.578 35.432 30.578"/>
          <polygon id="_0.1.5.0.0.36-3-0" data-name=" 0.1.5.0.0.36-3-0" class="cls-12" points="34.882 32.348 34.882 30.009 35.432 30.578 35.432 31.788 34.882 32.348"/>
          <rect id="_0.1.5.0.0.7-2" data-name=" 0.1.5.0.0.7-2" class="cls-7" x="27.7523" y="29.9989" width="2.2698" height="2.3898"/>
          <rect id="_0.1.5.0.0.32-9" data-name=" 0.1.5.0.0.32-9" class="cls-8" x="28.3322" y="30.5589" width="1.1699" height="1.2299"/>
          <polygon id="_0.1.5.0.0.34-53" data-name=" 0.1.5.0.0.34-53" class="cls-10" points="29.492 31.788 29.492 30.578 30.022 30.009 30.022 32.348 29.492 31.788"/>
          <polygon id="_0.1.5.0.0.35-4" data-name=" 0.1.5.0.0.35-4" class="cls-11" points="29.492 30.578 28.313 30.578 27.773 30.009 30.022 30.009 29.492 30.578"/>
          <polygon id="_0.1.5.0.0.36-32" data-name=" 0.1.5.0.0.36-32" class="cls-12" points="28.313 31.788 27.773 32.348 27.773 30.009 28.313 30.578 28.313 31.788"/>
          <rect id="_0.1.5.0.0.6-2-26" data-name=" 0.1.5.0.0.6-2-26" class="cls-7" x="27.7523" y="29.9989" width="2.2698" height="2.3898"/>
          <rect id="_0.1.5.0.0.37-4-0" data-name=" 0.1.5.0.0.37-4-0" class="cls-8" x="28.3122" y="30.5589" width="1.1699" height="1.2299"/>
          <polygon id="_0.1.5.0.0.39-0-3" data-name=" 0.1.5.0.0.39-0-3" class="cls-10" points="29.492 30.578 30.022 30.009 30.022 32.348 29.492 31.788 29.492 30.578"/>
          <polygon id="_0.1.5.0.0.40-5-10" data-name=" 0.1.5.0.0.40-5-10" class="cls-11" points="28.313 30.578 27.773 30.009 30.022 30.009 29.492 30.578 28.313 30.578"/>
          <polygon id="_0.1.5.0.0.41-3-6" data-name=" 0.1.5.0.0.41-3-6" class="cls-12" points="27.773 32.348 27.773 30.009 28.313 30.578 28.313 31.788 27.773 32.348"/>
          <polygon id="_0.1.5.0.0.38-1" data-name=" 0.1.5.0.0.38-1" class="cls-9" points="21.203 31.788 20.663 32.348 22.913 32.348 22.383 31.788 21.203 31.788"/>
          <polygon id="_0.1.5.0.0.33-0-0" data-name=" 0.1.5.0.0.33-0-0" class="cls-9" points="34.882 32.348 37.132 32.348 36.592 31.788 35.432 31.788 34.882 32.348"/>
          <polygon id="_0.1.5.0.0.33-7" data-name=" 0.1.5.0.0.33-7" class="cls-9" points="28.313 31.788 27.773 32.348 30.022 32.348 29.492 31.788 28.313 31.788"/>
          <polygon id="_0.1.5.0.0.38-0-5" data-name=" 0.1.5.0.0.38-0-5" class="cls-9" points="27.773 32.348 30.022 32.348 29.492 31.788 28.313 31.788 27.773 32.348"/>
        </g>
        <g>
          <path id="path532-5-4-9-8-5-6-8-0" d="M8.9757,34.815a2,2,0,1,1-2,2,2.0059,2.0059,0,0,1,2-2m0,5.3a3.3,3.3,0,1,0-3.3-3.3h0a3.2652,3.2652,0,0,0,3.3,3.3h0"/>
          <path id="path536-1-4-0-5-1-3-3-2" d="M8.9757,28.415a2.2405,2.2405,0,0,1,2.2,2.3,2.4161,2.4161,0,0,1-2.4,2.3,2.2405,2.2405,0,0,1-2.2-2.3,2.4139,2.4139,0,0,1,2.4-2.3h0m0,1.2a1,1,0,0,0,0,2,.9448.9448,0,0,0,1-1,1.0021,1.0021,0,0,0-1-1"/>
          <path id="path540-3-7-2-9-1-0-6-4" d="M9.2757,42.315a5.5674,5.5674,0,0,0,5.1-5.1,5.2663,5.2663,0,0,0-1.2-3.8l.4-.4a.6194.6194,0,0,0,.1-.8.6083.6083,0,0,0-.8,0h-.1l-.9.9a.6048.6048,0,0,0,0,.8,4.1665,4.1665,0,0,1,0,6,4.1669,4.1669,0,0,1-6,0,4.2274,4.2274,0,0,1-.1-5.9l.2-.2v-.1a.6048.6048,0,0,0,0-.8l-.9-.8a.6083.6083,0,0,0-.8,0,.4681.4681,0,0,0,0,.8h0l.4.4a5.5524,5.5524,0,0,0,4.3,9h.3"/>
        </g>
        <path class="cls-2" d="M37.6424,55.0983v87.2751L45.52,166.042c.5482,1.4409,3.761,1.3755,4.1377,0l6.7477-23.5065V55.0983Zm4.263,87.3823a.7365.7365,0,0,1-.7344.7344h-.0156a.7366.7366,0,0,1-.7344-.7344v-.0156a.7365.7365,0,0,1,.7344-.7344h.0156a.7365.7365,0,0,1,.7344.7344Zm0-16.6a.7364.7364,0,0,1-.7344.7343h-.0156a.7365.7365,0,0,1-.7344-.7343v-.0157a.7366.7366,0,0,1,.7344-.7343h.0156a.7365.7365,0,0,1,.7344.7343Zm0-16.6a.7365.7365,0,0,1-.7344.7344h-.0156a.7366.7366,0,0,1-.7344-.7344v-.0156a.7365.7365,0,0,1,.7344-.7344h.0156a.7365.7365,0,0,1,.7344.7344Zm0-16.6a.7365.7365,0,0,1-.7344.7344h-.0156a.7366.7366,0,0,1-.7344-.7344V92.665a.7366.7366,0,0,1,.7344-.7344h.0156a.7365.7365,0,0,1,.7344.7344Zm0-16.6a.7365.7365,0,0,1-.7344.7344h-.0156a.7366.7366,0,0,1-.7344-.7344V76.065a.7366.7366,0,0,1,.7344-.7344h.0156a.7365.7365,0,0,1,.7344.7344Zm0-16.6a.7365.7365,0,0,1-.7344.7344h-.0156a.7366.7366,0,0,1-.7344-.7344V59.465a.7365.7365,0,0,1,.7344-.7344h.0156a.7365.7365,0,0,1,.7344.7344Zm3.13,97.4088a.7365.7365,0,0,1-.7344.7344h-.0156a.7366.7366,0,0,1-.7344-.7344v-.0156a.7366.7366,0,0,1,.7344-.7344h.0156a.7365.7365,0,0,1,.7344.7344Zm3.13-14.4088a.7366.7366,0,0,1-.7343.7344h-.0157a.7365.7365,0,0,1-.7343-.7344v-.0156a.7364.7364,0,0,1,.7343-.7344h.0157a.7365.7365,0,0,1,.7343.7344Zm0-16.6a.7365.7365,0,0,1-.7343.7343h-.0157a.7364.7364,0,0,1-.7343-.7343v-.0157a.7365.7365,0,0,1,.7343-.7343h.0157a.7365.7365,0,0,1,.7343.7343Zm0-16.6a.7366.7366,0,0,1-.7343.7344h-.0157a.7365.7365,0,0,1-.7343-.7344v-.0156a.7364.7364,0,0,1,.7343-.7344h.0157a.7365.7365,0,0,1,.7343.7344Zm0-16.6a.7366.7366,0,0,1-.7343.7344h-.0157a.7365.7365,0,0,1-.7343-.7344V92.665a.7365.7365,0,0,1,.7343-.7344h.0157a.7366.7366,0,0,1,.7343.7344Zm0-16.6a.7366.7366,0,0,1-.7343.7344h-.0157a.7365.7365,0,0,1-.7343-.7344V76.065a.7365.7365,0,0,1,.7343-.7344h.0157a.7366.7366,0,0,1,.7343.7344Zm0-16.6a.7366.7366,0,0,1-.7343.7344h-.0157a.7365.7365,0,0,1-.7343-.7344V59.465a.7364.7364,0,0,1,.7343-.7344h.0157a.7365.7365,0,0,1,.7343.7344Zm3.13,97.4088a.7365.7365,0,0,1-.7343.7344H50.546a.7365.7365,0,0,1-.7343-.7344v-.0156a.7365.7365,0,0,1,.7343-.7344h.0157a.7365.7365,0,0,1,.7343.7344Zm3.13-14.4088a.7365.7365,0,0,1-.7344.7344h-.0156a.7366.7366,0,0,1-.7344-.7344v-.0156a.7366.7366,0,0,1,.7344-.7344h.0156a.7365.7365,0,0,1,.7344.7344Zm0-16.6a.7364.7364,0,0,1-.7344.7343h-.0156a.7366.7366,0,0,1-.7344-.7343v-.0157a.7366.7366,0,0,1,.7344-.7343h.0156a.7365.7365,0,0,1,.7344.7343Zm0-16.6a.7365.7365,0,0,1-.7344.7344h-.0156a.7366.7366,0,0,1-.7344-.7344v-.0156a.7366.7366,0,0,1,.7344-.7344h.0156a.7365.7365,0,0,1,.7344.7344Zm0-16.6a.7365.7365,0,0,1-.7344.7344h-.0156a.7366.7366,0,0,1-.7344-.7344V92.665a.7366.7366,0,0,1,.7344-.7344h.0156a.7365.7365,0,0,1,.7344.7344Zm0-16.6a.7365.7365,0,0,1-.7344.7344h-.0156a.7366.7366,0,0,1-.7344-.7344V76.065a.7366.7366,0,0,1,.7344-.7344h.0156a.7365.7365,0,0,1,.7344.7344Zm0-16.6a.7365.7365,0,0,1-.7344.7344h-.0156a.7366.7366,0,0,1-.7344-.7344V59.465a.7366.7366,0,0,1,.7344-.7344h.0156a.7365.7365,0,0,1,.7344.7344Z"/>
        <path class="cls-2" d="M.6424,55.0983v87.2751L8.52,166.042c.5482,1.4409,3.761,1.3755,4.1377,0l6.7477-23.5065V55.0983Zm4.263,87.3823a.7365.7365,0,0,1-.7344.7344H4.1554a.7366.7366,0,0,1-.7344-.7344v-.0156a.7365.7365,0,0,1,.7344-.7344H4.171a.7365.7365,0,0,1,.7344.7344Zm0-16.6a.7364.7364,0,0,1-.7344.7343H4.1554a.7365.7365,0,0,1-.7344-.7343v-.0157a.7366.7366,0,0,1,.7344-.7343H4.171a.7365.7365,0,0,1,.7344.7343Zm0-16.6a.7365.7365,0,0,1-.7344.7344H4.1554a.7366.7366,0,0,1-.7344-.7344v-.0156a.7365.7365,0,0,1,.7344-.7344H4.171a.7365.7365,0,0,1,.7344.7344Zm0-16.6a.7365.7365,0,0,1-.7344.7344H4.1554a.7366.7366,0,0,1-.7344-.7344V92.665a.7366.7366,0,0,1,.7344-.7344H4.171a.7365.7365,0,0,1,.7344.7344Zm0-16.6a.7365.7365,0,0,1-.7344.7344H4.1554a.7366.7366,0,0,1-.7344-.7344V76.065a.7366.7366,0,0,1,.7344-.7344H4.171a.7365.7365,0,0,1,.7344.7344Zm0-16.6a.7365.7365,0,0,1-.7344.7344H4.1554a.7366.7366,0,0,1-.7344-.7344V59.465a.7365.7365,0,0,1,.7344-.7344H4.171a.7365.7365,0,0,1,.7344.7344Zm3.13,97.4088a.7365.7365,0,0,1-.7344.7344H7.2856a.7366.7366,0,0,1-.7344-.7344v-.0156a.7366.7366,0,0,1,.7344-.7344h.0156a.7365.7365,0,0,1,.7344.7344Zm3.13-14.4088a.7366.7366,0,0,1-.7343.7344h-.0157a.7365.7365,0,0,1-.7343-.7344v-.0156a.7364.7364,0,0,1,.7343-.7344h.0157a.7365.7365,0,0,1,.7343.7344Zm0-16.6a.7365.7365,0,0,1-.7343.7343h-.0157a.7364.7364,0,0,1-.7343-.7343v-.0157a.7365.7365,0,0,1,.7343-.7343h.0157a.7365.7365,0,0,1,.7343.7343Zm0-16.6a.7366.7366,0,0,1-.7343.7344h-.0157a.7365.7365,0,0,1-.7343-.7344v-.0156a.7364.7364,0,0,1,.7343-.7344h.0157a.7365.7365,0,0,1,.7343.7344Zm0-16.6a.7366.7366,0,0,1-.7343.7344h-.0157a.7365.7365,0,0,1-.7343-.7344V92.665a.7365.7365,0,0,1,.7343-.7344h.0157a.7366.7366,0,0,1,.7343.7344Zm0-16.6a.7366.7366,0,0,1-.7343.7344h-.0157a.7365.7365,0,0,1-.7343-.7344V76.065a.7365.7365,0,0,1,.7343-.7344h.0157a.7366.7366,0,0,1,.7343.7344Zm0-16.6a.7366.7366,0,0,1-.7343.7344h-.0157a.7365.7365,0,0,1-.7343-.7344V59.465a.7364.7364,0,0,1,.7343-.7344h.0157a.7365.7365,0,0,1,.7343.7344Zm3.13,97.4088a.7365.7365,0,0,1-.7343.7344H13.546a.7365.7365,0,0,1-.7343-.7344v-.0156a.7365.7365,0,0,1,.7343-.7344h.0157a.7365.7365,0,0,1,.7343.7344Zm3.13-14.4088a.7365.7365,0,0,1-.7344.7344h-.0156a.7366.7366,0,0,1-.7344-.7344v-.0156a.7366.7366,0,0,1,.7344-.7344h.0156a.7365.7365,0,0,1,.7344.7344Zm0-16.6a.7364.7364,0,0,1-.7344.7343h-.0156a.7366.7366,0,0,1-.7344-.7343v-.0157a.7366.7366,0,0,1,.7344-.7343h.0156a.7365.7365,0,0,1,.7344.7343Zm0-16.6a.7365.7365,0,0,1-.7344.7344h-.0156a.7366.7366,0,0,1-.7344-.7344v-.0156a.7366.7366,0,0,1,.7344-.7344h.0156a.7365.7365,0,0,1,.7344.7344Zm0-16.6a.7365.7365,0,0,1-.7344.7344h-.0156a.7366.7366,0,0,1-.7344-.7344V92.665a.7366.7366,0,0,1,.7344-.7344h.0156a.7365.7365,0,0,1,.7344.7344Zm0-16.6a.7365.7365,0,0,1-.7344.7344h-.0156a.7366.7366,0,0,1-.7344-.7344V76.065a.7366.7366,0,0,1,.7344-.7344h.0156a.7365.7365,0,0,1,.7344.7344Zm0-16.6a.7365.7365,0,0,1-.7344.7344h-.0156a.7366.7366,0,0,1-.7344-.7344V59.465a.7366.7366,0,0,1,.7344-.7344h.0156a.7365.7365,0,0,1,.7344.7344Z"/>
      </g>
    </g>
  </g>
</svg>
