<svg id="sonoff-smart-switch-powr2" xmlns="http://www.w3.org/2000/svg" xmlns:xlink="http://www.w3.org/1999/xlink" width="113.986mm" height="114.656mm" viewBox="0 0 323.109 325.01">
  <defs>
    <style>
      .cls-1 {
        fill: #dedede;
      }

      .cls-2, .cls-223 {
        fill: #b3b3b3;
      }

      .cls-3 {
        fill: url(#Безымянный_градиент_69);
      }

      .cls-4 {
        fill: #f2f2f2;
      }

      .cls-5 {
        fill: #1f1f1c;
      }

      .cls-18, .cls-22, .cls-23, .cls-5 {
        stroke: #4d4d4d;
      }

      .cls-10, .cls-11, .cls-13, .cls-18, .cls-22, .cls-220, .cls-221, .cls-222, .cls-223, .cls-224, .cls-227, .cls-228, .cls-229, .cls-23, .cls-30, .cls-41, .cls-5 {
        stroke-miterlimit: 10;
      }

      .cls-22, .cls-228, .cls-5 {
        stroke-width: 0.709px;
      }

      .cls-6 {
        fill: url(#Безымянный_градиент_14);
      }

      .cls-7 {
        fill: #cbcbcb;
      }

      .cls-8 {
        fill: #eff0ed;
      }

      .cls-9 {
        fill: #ececec;
      }

      .cls-10, .cls-11, .cls-18, .cls-220, .cls-221, .cls-23, .cls-41 {
        fill: none;
      }

      .cls-10 {
        stroke: #757474;
      }

      .cls-10, .cls-11 {
        stroke-width: 1.417px;
      }

      .cls-11 {
        stroke: #f4f2f2;
        opacity: 0.45;
      }

      .cls-12, .cls-14, .cls-19, .cls-20, .cls-21, .cls-229, .cls-28, .cls-35 {
        fill: #4d4d4d;
      }

      .cls-13, .cls-29, .cls-30, .cls-43 {
        fill: #fff;
      }

      .cls-13, .cls-221, .cls-30 {
        stroke: #000;
      }

      .cls-13 {
        stroke-width: 0.283px;
      }

      .cls-14 {
        font-size: 5px;
      }

      .cls-14, .cls-19, .cls-20, .cls-21, .cls-35 {
        font-family: TrebuchetMS, Trebuchet MS;
      }

      .cls-15 {
        letter-spacing: -0.018em;
      }

      .cls-16 {
        letter-spacing: -0.125em;
      }

      .cls-17, .cls-182, .cls-22 {
        fill: #666;
      }

      .cls-17 {
        stroke: #333;
        stroke-miterlimit: 10;
      }

      .cls-17, .cls-229, .cls-23 {
        stroke-width: 0.283px;
      }

      .cls-19, .cls-20 {
        font-size: 8px;
      }

      .cls-19 {
        letter-spacing: -0.037em;
      }

      .cls-21 {
        font-size: 7px;
      }

      .cls-24 {
        fill: url(#Безымянный_градиент_26);
      }

      .cls-25 {
        fill: #d1d1d1;
      }

      .cls-26 {
        fill: url(#Безымянный_градиент_26-2);
      }

      .cls-27, .cls-42 {
        fill: #999;
      }

      .cls-28, .cls-29 {
        fill-rule: evenodd;
      }

      .cls-30 {
        stroke-width: 0.142px;
      }

      .cls-228, .cls-31 {
        fill: #e6e6e6;
      }

      .cls-32 {
        fill: url(#Безымянный_градиент_179);
      }

      .cls-33, .cls-34 {
        opacity: 0.49;
        isolation: isolate;
      }

      .cls-33 {
        fill: url(#Безымянный_градиент_188);
      }

      .cls-34 {
        fill: url(#Безымянный_градиент_188-2);
      }

      .cls-35 {
        font-size: 6px;
      }

      .cls-36 {
        letter-spacing: -0.047em;
      }

      .cls-37 {
        letter-spacing: -0.014em;
      }

      .cls-38 {
        letter-spacing: -0.055em;
      }

      .cls-39 {
        fill: #9f9894;
      }

      .cls-40 {
        fill: #191919;
      }

      .cls-41 {
        stroke: #191919;
        stroke-width: 2.126px;
      }

      .cls-42 {
        stroke: #6a6464;
        stroke-width: 0.012px;
      }

      .cls-44 {
        fill: #d6d6d6;
      }

      .cls-45 {
        fill: #c6c6c6;
      }

      .cls-46 {
        fill: #b7b7b7;
      }

      .cls-47 {
        fill: #b5b5b5;
      }

      .cls-48 {
        fill: #9e9e9e;
      }

      .cls-49 {
        fill: #979797;
      }

      .cls-50 {
        fill: #cdcdcd;
      }

      .cls-51 {
        fill: #c5c5c5;
      }

      .cls-52 {
        fill: #a5a5a5;
      }

      .cls-53 {
        fill: #8a8a8a;
      }

      .cls-54 {
        fill: #838383;
      }

      .cls-55 {
        fill: #7e7e7e;
      }

      .cls-56 {
        fill: #c1c1c1;
      }

      .cls-57 {
        fill: #c4c4c4;
      }

      .cls-58 {
        fill: #959595;
      }

      .cls-59 {
        fill: #9a9a9a;
      }

      .cls-60 {
        fill: #797979;
      }

      .cls-61 {
        fill: #7f7f7f;
      }

      .cls-62 {
        fill: #a6a6a6;
      }

      .cls-63 {
        fill: #8e8e8e;
      }

      .cls-64 {
        fill: #e0e0e0;
      }

      .cls-65 {
        fill: #cacaca;
      }

      .cls-66 {
        fill: #bcbcbc;
      }

      .cls-67 {
        fill: #eee;
      }

      .cls-68 {
        fill: #fafafa;
      }

      .cls-69 {
        fill: #fdfdfd;
      }

      .cls-70 {
        fill: #f8f8f8;
      }

      .cls-71 {
        fill: #e9e7e7;
      }

      .cls-72 {
        fill: #dad7d7;
      }

      .cls-73 {
        fill: #d4d2d2;
      }

      .cls-74 {
        fill: #d3d0d0;
      }

      .cls-75 {
        fill: #f0f0f0;
      }

      .cls-76 {
        fill: #e2e2e2;
      }

      .cls-77 {
        fill: #f7f7f8;
      }

      .cls-78 {
        fill: #fcfcff;
      }

      .cls-79 {
        fill: #f9f9fc;
      }

      .cls-80 {
        fill: #f1f1f3;
      }

      .cls-81 {
        fill: #ededf1;
      }

      .cls-82 {
        fill: #e7e7e8;
      }

      .cls-83 {
        fill: #d7d7d7;
      }

      .cls-84 {
        fill: #d7d7d9;
      }

      .cls-85 {
        fill: #cdcdcf;
      }

      .cls-86 {
        fill: #bbb;
      }

      .cls-87 {
        fill: #afafaf;
      }

      .cls-88 {
        fill: #a8a8a9;
      }

      .cls-89 {
        fill: #a8a8a8;
      }

      .cls-90 {
        fill: #9f9f9f;
      }

      .cls-91 {
        fill: #818181;
      }

      .cls-92 {
        fill: #c3c3c4;
      }

      .cls-93 {
        fill: #dcdcdd;
      }

      .cls-94 {
        fill: #bebebf;
      }

      .cls-95 {
        fill: #a4a4a5;
      }

      .cls-227, .cls-96 {
        fill: #969696;
      }

      .cls-97 {
        fill: #848485;
      }

      .cls-98 {
        fill: #777778;
      }

      .cls-99 {
        fill: #6e6e6f;
      }

      .cls-100 {
        fill: #8e8e8f;
      }

      .cls-101 {
        fill: #7d7d7e;
      }

      .cls-102 {
        fill: #707072;
      }

      .cls-103 {
        fill: #69696a;
      }

      .cls-104 {
        fill: #dbdbdb;
      }

      .cls-105 {
        fill: #bbbbbc;
      }

      .cls-106 {
        fill: #a1a1a2;
      }

      .cls-107 {
        fill: #a5a5a6;
      }

      .cls-108 {
        fill: #c6c6c7;
      }

      .cls-109 {
        fill: #8b8b8d;
      }

      .cls-110 {
        fill: #7a7a7c;
      }

      .cls-111 {
        fill: #909091;
      }

      .cls-112 {
        fill: #808081;
      }

      .cls-113 {
        fill: #676768;
      }

      .cls-114 {
        fill: #747476;
      }

      .cls-115 {
        fill: #6d6d6e;
      }

      .cls-116 {
        fill: #9d9d9e;
      }

      .cls-117 {
        fill: #858586;
      }

      .cls-118 {
        fill: #9c9c9d;
      }

      .cls-119 {
        fill: #ddddde;
      }

      .cls-120 {
        fill: #c5c5c6;
      }

      .cls-121 {
        fill: #b6b6b7;
      }

      .cls-122 {
        fill: #d1d1d2;
      }

      .cls-123 {
        fill: #ededed;
      }

      .cls-124 {
        fill: #fbfbfb;
      }

      .cls-125 {
        fill: #f1f1f1;
      }

      .cls-126 {
        fill: #ebebeb;
      }

      .cls-127 {
        fill: #d9d9d9;
      }

      .cls-128 {
        fill: #d5d5d5;
      }

      .cls-129 {
        fill: #b2b2b2;
      }

      .cls-130 {
        fill: gray;
      }

      .cls-131 {
        fill: #737373;
      }

      .cls-132 {
        fill: #6f6f6f;
      }

      .cls-133 {
        fill: #757575;
      }

      .cls-134 {
        fill: #858585;
      }

      .cls-135 {
        fill: #9d9d9d;
      }

      .cls-136 {
        fill: #e9e9e9;
      }

      .cls-137 {
        fill: #f9f9f9;
      }

      .cls-138 {
        fill: #fcfcfc;
      }

      .cls-139 {
        fill: #f3f3f3;
      }

      .cls-140 {
        fill: #d9d7d7;
      }

      .cls-141 {
        fill: #bfbcbc;
      }

      .cls-142 {
        fill: #b6b2b2;
      }

      .cls-143 {
        fill: #d0cece;
      }

      .cls-144 {
        fill: #b0adad;
      }

      .cls-145 {
        fill: #a5a2a2;
      }

      .cls-146 {
        fill: #b3afaf;
      }

      .cls-147 {
        fill: #a19d9d;
      }

      .cls-148 {
        fill: #f7f7f7;
      }

      .cls-149 {
        fill: #e5e5e5;
      }

      .cls-150 {
        fill: #d4d4d4;
      }

      .cls-151 {
        fill: #cecece;
      }

      .cls-152 {
        fill: #c8c8c8;
      }

      .cls-153 {
        fill: silver;
      }

      .cls-154, .cls-222 {
        fill: #ccc;
      }

      .cls-155 {
        fill: #d3d3d4;
      }

      .cls-156 {
        fill: #bebebe;
      }

      .cls-157 {
        fill: #e3e3e5;
      }

      .cls-158 {
        fill: #f2f2f7;
      }

      .cls-159 {
        fill: #f7f7fd;
      }

      .cls-160 {
        fill: #d9d9dc;
      }

      .cls-161 {
        fill: #ebebf0;
      }

      .cls-162 {
        fill: #f1f1f7;
      }

      .cls-163 {
        fill: #f9f9ff;
      }

      .cls-164 {
        fill: #f5f5fb;
      }

      .cls-165 {
        fill: #eaeaef;
      }

      .cls-166 {
        fill: #f3f3fa;
      }

      .cls-167 {
        fill: #efeff5;
      }

      .cls-168 {
        fill: #e3e3e9;
      }

      .cls-169 {
        fill: #c6c6ca;
      }

      .cls-170 {
        fill: #9e9e9f;
      }

      .cls-171 {
        fill: #8d8d8d;
      }

      .cls-172 {
        fill: #979799;
      }

      .cls-173 {
        fill: #868686;
      }

      .cls-174 {
        fill: #bebec1;
      }

      .cls-175 {
        fill: #949495;
      }

      .cls-176 {
        fill: #828283;
      }

      .cls-177 {
        fill: #727272;
      }

      .cls-178 {
        fill: #6d6d6d;
      }

      .cls-179 {
        fill: #767676;
      }

      .cls-180 {
        fill: #6b6b6b;
      }

      .cls-181 {
        fill: #6a6a6a;
      }

      .cls-183 {
        fill: #646465;
      }

      .cls-184 {
        fill: #6b6b6c;
      }

      .cls-185 {
        fill: #7c7c7d;
      }

      .cls-186 {
        fill: #959596;
      }

      .cls-187 {
        fill: #b1b1b2;
      }

      .cls-188 {
        fill: #e7e7e7;
      }

      .cls-189 {
        fill: #e3e3e3;
      }

      .cls-190 {
        fill: #f4f4f4;
      }

      .cls-191 {
        fill: #f5f5f5;
      }

      .cls-192 {
        fill: #e8e8e8;
      }

      .cls-193 {
        fill: #949494;
      }

      .cls-194 {
        fill: #707070;
      }

      .cls-195 {
        fill: #6c6c6c;
      }

      .cls-196 {
        fill: #9b9b9b;
      }

      .cls-197 {
        fill: #d0d0d0;
      }

      .cls-198 {
        fill: #fbfafa;
      }

      .cls-199 {
        fill: #efefef;
      }

      .cls-200 {
        fill: #cccaca;
      }

      .cls-201 {
        fill: #a9a6a6;
      }

      .cls-202 {
        fill: #9d9b9b;
      }

      .cls-203 {
        fill: #999696;
      }

      .cls-204 {
        fill: #b6b6b6;
      }

      .cls-205 {
        fill: #d0d0d2;
      }

      .cls-206 {
        fill: #e4e4e8;
      }

      .cls-207 {
        fill: #ededf2;
      }

      .cls-208 {
        fill: #e9e9ed;
      }

      .cls-209 {
        fill: #dddde1;
      }

      .cls-210 {
        fill: #e8e8ed;
      }

      .cls-211 {
        fill: #e3e3e8;
      }

      .cls-212 {
        fill: #d6d6db;
      }

      .cls-213 {
        fill: #b7b7ba;
      }

      .cls-214 {
        fill: #afafb1;
      }

      .cls-215 {
        fill: #656565;
      }

      .cls-216 {
        fill: #636363;
      }

      .cls-217 {
        fill: #7a7a7a;
      }

      .cls-218 {
        fill: #ababab;
      }

      .cls-219 {
        fill: #dcdcdc;
      }

      .cls-220 {
        stroke: #4a4a49;
        stroke-width: 0.71px;
      }

      .cls-221 {
        stroke-width: 0.283px;
      }

      .cls-222, .cls-229 {
        stroke: #999;
      }

      .cls-222 {
        stroke-width: 2.126px;
      }

      .cls-223 {
        stroke: gray;
      }

      .cls-224 {
        stroke: #ccc;
        fill: url(#Безымянный_градиент_10);
      }

      .cls-225 {
        fill: #152809;
      }

      .cls-226 {
        fill: #382f2b;
      }

      .cls-227, .cls-228 {
        stroke: #969696;
      }

      .cls-227 {
        stroke-width: 1.417px;
      }
    </style>
    <linearGradient id="Безымянный_градиент_69" data-name="Безымянный градиент 69" x1="177.485" y1="162.909" x2="321.333" y2="162.909" gradientUnits="userSpaceOnUse">
      <stop offset="0" stop-color="#4d4d4d" stop-opacity="0.2"/>
      <stop offset="0.061" stop-color="#2b2b2b" stop-opacity="0.112"/>
      <stop offset="0.192" stop-color="#090909" stop-opacity="0.024"/>
      <stop offset="0.556" stop-opacity="0"/>
      <stop offset="0.937" stop-opacity="0.094"/>
      <stop offset="1" stop-opacity="0.2"/>
    </linearGradient>
    <radialGradient id="Безымянный_градиент_14" data-name="Безымянный градиент 14" cx="215.273" cy="296.528" r="4.669" gradientUnits="userSpaceOnUse">
      <stop offset="0"/>
      <stop offset="0.374" stop-color="#050505" stop-opacity="0.981"/>
      <stop offset="0.581" stop-color="#151515" stop-opacity="0.919"/>
      <stop offset="0.748" stop-color="#303030" stop-opacity="0.811"/>
      <stop offset="0.892" stop-color="#575757" stop-opacity="0.659"/>
      <stop offset="1" stop-color="gray" stop-opacity="0.5"/>
    </radialGradient>
    <linearGradient id="Безымянный_градиент_26" data-name="Безымянный градиент 26" x1="133.531" y1="280.303" x2="147.381" y2="280.303" gradientUnits="userSpaceOnUse">
      <stop offset="0.008" stop-color="#ececec"/>
      <stop offset="0.592" stop-color="#eaeaea"/>
      <stop offset="0.916" stop-color="#e2e2e2"/>
      <stop offset="1" stop-color="#dedede"/>
    </linearGradient>
    <linearGradient id="Безымянный_градиент_26-2" x1="237.055" y1="280.432" x2="251.902" y2="280.432" gradientTransform="matrix(-1, 0, 0, 1, 251.902, 0)" xlink:href="#Безымянный_градиент_26"/>
    <radialGradient id="Безымянный_градиент_179" data-name="Безымянный градиент 179" cx="52.371" cy="775.857" r="7.521" gradientTransform="translate(0 -696)" gradientUnits="userSpaceOnUse">
      <stop offset="0" stop-color="#fff"/>
      <stop offset="1" stop-color="#ccc"/>
    </radialGradient>
    <linearGradient id="Безымянный_градиент_188" data-name="Безымянный градиент 188" x1="123.659" y1="573.689" x2="126.308" y2="573.689" gradientTransform="matrix(0.986, 0.168, -0.168, 0.986, 31.144, -506.881)" gradientUnits="userSpaceOnUse">
      <stop offset="0.014" stop-color="#f2f2f2" stop-opacity="0"/>
      <stop offset="0.077" stop-color="#f5f5f5" stop-opacity="0.203"/>
      <stop offset="0.16" stop-color="#f8f8f8" stop-opacity="0.442"/>
      <stop offset="0.239" stop-color="#fafafa" stop-opacity="0.642"/>
      <stop offset="0.313" stop-color="#fcfcfc" stop-opacity="0.797"/>
      <stop offset="0.38" stop-color="#fefefe" stop-opacity="0.908"/>
      <stop offset="0.439" stop-color="#fff" stop-opacity="0.976"/>
      <stop offset="0.482" stop-color="#fff"/>
      <stop offset="0.526" stop-color="#fff" stop-opacity="0.967"/>
      <stop offset="0.596" stop-color="#fff" stop-opacity="0.877"/>
      <stop offset="0.684" stop-color="#fff" stop-opacity="0.73"/>
      <stop offset="0.785" stop-color="#fff" stop-opacity="0.526"/>
      <stop offset="0.896" stop-color="#fff" stop-opacity="0.268"/>
      <stop offset="1" stop-color="#fff" stop-opacity="0"/>
    </linearGradient>
    <linearGradient id="Безымянный_градиент_188-2" x1="-2349.552" y1="-12.708" x2="-2346.903" y2="-12.708" gradientTransform="matrix(-0.986, -0.168, 0.168, -0.986, -2265.2, -327.664)" xlink:href="#Безымянный_градиент_188"/>
    <linearGradient id="Безымянный_градиент_10" data-name="Безымянный градиент 10" x1="72.623" y1="318.719" x2="72.623" y2="304.184" gradientUnits="userSpaceOnUse">
      <stop offset="0" stop-color="#e6e6e6"/>
      <stop offset="0.499" stop-color="#e4e4e4"/>
      <stop offset="0.689" stop-color="#ddd"/>
      <stop offset="0.827" stop-color="#d1d1d1"/>
      <stop offset="0.939" stop-color="silver"/>
      <stop offset="1" stop-color="#b3b3b3"/>
    </linearGradient>
  </defs>
  <title>sonoff-smart-switch-powr2</title>
  <g id="bottom">
    <path class="cls-1" d="M323.109,58.043v266.93h-147.4V58.043l6.88-40.9h25.74L230.289.233a1.562,1.562,0,0,1,.42-.19,1.124,1.124,0,0,1,.32-.04H242.4v14.22a5.386,5.386,0,0,0,5.39,5.39h.55a5.394,5.394,0,0,0,5.4-5.39V0h11.53v.07a1.273,1.273,0,0,1,.82.23l24.38,16.84h24.2Z" transform="translate(0 0)"/>
    <path class="cls-2" d="M321.833,60V323H176.985V60l6.761-40.3H209.04L230.62,3.043a1.511,1.511,0,0,1,.413-.187,1.082,1.082,0,0,1,.314-.04H242.52V16.827a5.3,5.3,0,0,0,5.3,5.311h.541a5.308,5.308,0,0,0,5.306-5.311V2.816h11.33v.069a1.254,1.254,0,0,1,.806.227L289.758,19.7h23.781Z" transform="translate(0 0)"/>
    <g>
      <path class="cls-3" d="M177.485,322.5V60l6.684-39.8h25.042L230.926,3.439a1.1,1.1,0,0,1,.244-.1.6.6,0,0,1,.178-.02h10.673v13.51a5.81,5.81,0,0,0,5.8,5.811h.54a5.815,5.815,0,0,0,5.807-5.811V3.317h10.33v.038l.548.029a.79.79,0,0,1,.472.138L289.6,20.2h23.529l8.2,39.848V322.5Z" transform="translate(0 0)"/>
      <path class="cls-4" d="M264.006,3.817l0,.146,1.075-.08a.261.261,0,0,1,.148.052l23.957,16.592.258.178h23.278l8.108,39.4V322H177.986V60.085l6.607-39.38h24.789l.27-.209L231.189,3.868a.47.47,0,0,1,.158-.051H241.52v13.01a6.311,6.311,0,0,0,6.3,6.311h.541a6.317,6.317,0,0,0,6.307-6.311V3.817h9.341m.988-1h-11.33V16.827a5.308,5.308,0,0,1-5.306,5.311h-.541a5.3,5.3,0,0,1-5.3-5.311V2.816H231.347a1.082,1.082,0,0,0-.314.04,1.511,1.511,0,0,0-.413.187L209.04,19.7H183.746L176.985,60V323H321.833V60l-8.294-40.3H289.758L265.8,3.112a1.254,1.254,0,0,0-.717-.23c-.03,0-.059,0-.089,0V2.816Z" transform="translate(0 0)"/>
    </g>
    <rect class="cls-5" x="210.604" y="291.859" width="9.337" height="9.337" rx="4.669"/>
    <rect class="cls-6" x="210.604" y="291.859" width="9.337" height="9.337" rx="4.669"/>
  </g>
  <g id="top">
    <path class="cls-7" d="M147.4,323.872H0V54.585l5.947-36.48H30.922L53.749,2.2a1.544,1.544,0,0,1,2.409,1.025c.452,2.827-1.442,9.572,1.291,13.629C60,20.65,66.982,21.84,73.114,22.329c5.232.418,12.208-1.26,14.719-5.328,2.627-4.254.682-10.979,1.3-13.929a1.546,1.546,0,0,1,2.4-.952l22.619,15.985h25.813L147.4,58.041Z" transform="translate(0 0)"/>
    <path class="cls-8" d="M89.557,0v22.61H55V0h11.69v14.22a5.386,5.386,0,0,0,5.39,5.39h.55a5.394,5.394,0,0,0,5.4-5.39V0Z" transform="translate(0 0)"/>
    <rect class="cls-8" y="58.041" width="147.402" height="266.932"/>
    <polygon class="cls-1" points="147.381 317.813 147.381 324.973 0 324.973 0 317.813 14.247 317.813 14.247 289.593 133.887 289.593 133.887 317.813 147.381 317.813"/>
    <rect class="cls-9" x="14.293" y="241.925" width="119.946" height="48.82"/>
    <g>
      <path class="cls-10" d="M23.185,324.969s-1.126-56.112-1.126-63.408c0-5.664,32.222-15,53.342-14.976,18.993.021,51.072,11.52,51.072,14.976s-3.072,63.412-3.072,63.412" transform="translate(0 0)"/>
      <path class="cls-11" d="M23.185,324.969s-1.126-56.112-1.126-63.408c0-5.664,32.222-15,53.342-14.976,18.993.021,51.072,11.52,51.072,14.976s-3.072,63.412-3.072,63.412" transform="translate(0 0)"/>
    </g>
    <path class="cls-1" d="M147.065,58.041H0l6.185-40.9H32.617L54.582.232a1.322,1.322,0,0,1,2.065,1.173c-.322,4.982-.543,15.309,2.818,18.332,1.791,1.611,8.5,3.312,13.649,2.88,5.444-.456,10.831-1.584,13.423-4.464C89.1,15.311,88.7,6.175,88.3,1.5A1.32,1.32,0,0,1,90.373.3l24.388,16.842h23.9Z" transform="translate(0 0)"/>
    <path class="cls-10" d="M114.761,17.145l2.88,38.016v31.68s17.586,6.24,17.856,8.64,0,93.024,0,93.024l-15.552,11.52v38.112h-.576" transform="translate(0 0)"/>
    <path class="cls-11" d="M114.761,17.145l2.88,38.016v31.68s17.586,6.24,17.856,8.64,0,93.024,0,93.024l-15.552,11.52v38.112h-.576" transform="translate(0 0)"/>
    <path class="cls-10" d="M32.617,17.145l-2.88,38.016v31.68s-17.586,6.24-17.856,8.64,0,93.024,0,93.024l15.552,11.52v38.112h.576" transform="translate(0 0)"/>
    <path class="cls-11" d="M32.617,17.145l-2.88,38.016v31.68s-17.586,6.24-17.856,8.64,0,93.024,0,93.024l15.552,11.52v38.112h.576" transform="translate(0 0)"/>
    <g id="logo">
      <g>
        <path class="cls-12" d="M43.158,98.617a5.332,5.332,0,0,1,.858,1.285,6.652,6.652,0,0,1,.389,1.146,5.863,5.863,0,0,1,.112,1.144,4.656,4.656,0,0,1-.155,1.2,4.868,4.868,0,0,1-.375,1.042,5.3,5.3,0,0,1-.906,1.316.522.522,0,0,0-.149.251.452.452,0,0,0,.06.336.5.5,0,0,0,.283.21.62.62,0,0,0,.131.012.359.359,0,0,0,.224-.059,4.74,4.74,0,0,0,.5-.549,6.185,6.185,0,0,0,1.075-2.114,5.346,5.346,0,0,0,.183-.9c.007-.056.018-.146.024-.2a7,7,0,0,0,.019-.981,4.861,4.861,0,0,0-.051-.525c-.013-.084-.089-.476-.112-.572s-.152-.5-.233-.727a5.985,5.985,0,0,0-.666-1.283,4.331,4.331,0,0,0-.769-.9.464.464,0,0,0-.427.008.636.636,0,0,0-.192.184.43.43,0,0,0-.017.422A1.047,1.047,0,0,0,43.158,98.617Z" transform="translate(0 0)"/>
        <path class="cls-12" d="M41.928,105.357a.45.45,0,0,0,.5-.026,4.088,4.088,0,0,0,.341-.374,4.545,4.545,0,0,0,.967-2.372,4.741,4.741,0,0,0,.015-.691,3.111,3.111,0,0,0-.053-.453,4.434,4.434,0,0,0-1.194-2.412c-.118-.12-.153-.142-.257-.164a.446.446,0,0,0-.343.07.477.477,0,0,0-.211.291.354.354,0,0,0,0,.2.459.459,0,0,0,.127.218,3.761,3.761,0,0,1,.537.712,3.686,3.686,0,0,1,.481,1.769,4.22,4.22,0,0,1-.077.727,3.643,3.643,0,0,1-.9,1.737.544.544,0,0,0-.163.251.474.474,0,0,0,.038.314A.656.656,0,0,0,41.928,105.357Z" transform="translate(0 0)"/>
        <path class="cls-12" d="M42.074,102.18c0-.114,0-.224,0-.246-.007-.081-.036-.274-.056-.366a2.846,2.846,0,0,0-.5-1.107,2.817,2.817,0,0,0-.32-.356.428.428,0,0,0-.539-.015.446.446,0,0,0-.147.612,1.586,1.586,0,0,0,.112.135,1.894,1.894,0,0,1,.508,1.062,2.622,2.622,0,0,1,0,.509,1.937,1.937,0,0,1-.38.893c-.023.031-.085.1-.139.161a.42.42,0,0,0-.158.359.434.434,0,0,0,.138.307.455.455,0,0,0,.528.1.471.471,0,0,0,.155-.124,2.809,2.809,0,0,0,.738-1.392A2.323,2.323,0,0,0,42.074,102.18Z" transform="translate(0 0)"/>
        <polygon class="cls-12" points="30.705 110.603 37.89 110.603 37.89 116.004 30.457 116.004 30.457 118.049 39.935 118.049 39.935 108.558 32.75 108.558 32.75 103.158 40.082 103.158 40.082 101.113 30.705 101.113 30.705 110.603"/>
        <path class="cls-12" d="M41.8,118.049H52.371v-9.491H41.8Zm2.045-7.446h6.485V116H43.841Z" transform="translate(0 0)"/>
        <path class="cls-12" d="M66.375,118.049H76.949v-9.491H66.375ZM68.42,110.6H74.9V116H68.42Z" transform="translate(0 0)"/>
        <polygon class="cls-12" points="54.086 117.957 56.13 117.957 56.13 110.603 62.615 110.603 62.615 117.957 64.66 117.957 64.66 108.558 54.086 108.558 54.086 117.957"/>
        <polygon class="cls-12" points="78.664 118.022 80.709 118.022 80.709 115.148 89.231 115.148 89.231 113.104 80.709 113.104 80.709 110.603 89.231 110.603 89.231 108.558 78.664 108.558 78.664 118.022"/>
        <polygon class="cls-12" points="101.513 110.603 101.513 108.558 90.946 108.558 90.946 118.022 92.991 118.022 92.991 115.148 101.513 115.148 101.513 113.104 92.991 113.104 92.991 110.603 101.513 110.603"/>
      </g>
    </g>
    <g id="logo-2" data-name="logo">
      <g>
        <path class="cls-12" d="M99.032,71.463a3.853,3.853,0,0,1,.944-.63,4.8,4.8,0,0,1,.841-.286,4.249,4.249,0,0,1,.84-.083,3.427,3.427,0,0,1,.884.114,3.643,3.643,0,0,1,.765.275,3.908,3.908,0,0,1,.966.666.373.373,0,0,0,.184.109.325.325,0,0,0,.247-.044.367.367,0,0,0,.154-.207.466.466,0,0,0,.009-.1.266.266,0,0,0-.044-.166,3.456,3.456,0,0,0-.4-.365,4.521,4.521,0,0,0-1.551-.79,3.9,3.9,0,0,0-.66-.134l-.146-.018a5.073,5.073,0,0,0-.72-.014,3.536,3.536,0,0,0-.385.038c-.062.009-.35.065-.42.082s-.367.112-.534.171a4.4,4.4,0,0,0-.942.489,3.119,3.119,0,0,0-.658.565.34.34,0,0,0,.006.313.466.466,0,0,0,.135.141.315.315,0,0,0,.31.013A.809.809,0,0,0,99.032,71.463Z" transform="translate(0 0)"/>
        <path class="cls-12" d="M103.4,72.957a.249.249,0,0,0-.014-.279,2.644,2.644,0,0,0-.207-.189,2.493,2.493,0,0,0-1.7-.544,1.754,1.754,0,0,0-.251.029,2.559,2.559,0,0,0-.482.124,2.485,2.485,0,0,0-.856.538c-.066.066-.078.085-.09.142a.25.25,0,0,0,.038.191.271.271,0,0,0,.162.117.2.2,0,0,0,.113,0,.254.254,0,0,0,.121-.071,2.01,2.01,0,0,1,1.375-.564,2.368,2.368,0,0,1,.4.042,2.025,2.025,0,0,1,.963.5.3.3,0,0,0,.14.09.262.262,0,0,0,.174-.02A.359.359,0,0,0,103.4,72.957Z" transform="translate(0 0)"/>
        <path class="cls-12" d="M101.637,73.94c-.054,0-.106,0-.116,0-.038,0-.129.017-.173.026a1.353,1.353,0,0,0-.522.234,1.282,1.282,0,0,0-.168.151.2.2,0,0,0-.007.254.21.21,0,0,0,.289.07c.01-.007.039-.031.063-.053a.944.944,0,0,1,.129-.1.864.864,0,0,1,.372-.137,1.292,1.292,0,0,1,.241,0,.908.908,0,0,1,.421.179c.014.011.048.04.076.065a.2.2,0,0,0,.169.075.2.2,0,0,0,.145-.065.211.211,0,0,0-.011-.322,1.33,1.33,0,0,0-.657-.349A1.08,1.08,0,0,0,101.637,73.94Z" transform="translate(0 0)"/>
      </g>
    </g>
    <rect class="cls-13" x="43.867" y="71.353" width="17.008" height="17.008" rx="8.504"/>
    <path class="cls-12" d="M107.9,171.721h1.268v-.2H107.9Zm3.623.815h.433a1.014,1.014,0,0,0-.433-.4Zm-6.655,1.5v.734h.574l-.024-.247-.477-.487Zm6.447,5.987.405-4.7-2.468,2.6Zm-5.352-4.946v.083h-.049l.49,5.255,2.359-2.485Zm5.958-2.09h-6.209l.062.657h.189v.932l1.05,1.069v-.5h2.663v.869h-2.3l1.633,1.661,2.76-2.907ZM102.357,185.2l-.259-.247,3.911-4.12-.529-5.673h-.989v-1.516h.069l-3.326-3.387v-.5l3.817,3.884h.288l-.062-.668a.571.571,0,0,1-.223.046.581.581,0,1,1,.457-.938,3.139,3.139,0,0,1,1.96-.779v.445c-.768.1-1.538.318-1.737.786h5.052v-.661a7.8,7.8,0,0,0-1.177-.171v.452h-2.138v-1.068h2.138v.171a7.407,7.407,0,0,1,1.177.163v-.045h.743v.287a1.623,1.623,0,0,1,.866.787c.013.033.023.061.032.085h.46v.435h-.523l-.112,1.292,4.218-4.441v.5l-4.265,4.5-.483,5.619L116.205,185l-.255.25-4.268-4.342-.172,2a.238.238,0,0,1-.193.2v.656h-.806V183.1h-3.062a1.252,1.252,0,0,1-2.359-.584,1.137,1.137,0,0,1,.017-.21Zm5.226-2.539h3.508l.187-2.172-2.266-2.309-2.561,2.7.037.385a1.244,1.244,0,0,1,1.095,1.394Zm-1.243-.8a.651.651,0,1,0,.65.652h0a.651.651,0,0,0-.65-.651Zm0,1.073a.423.423,0,1,1,.422-.424v0a.423.423,0,0,1-.422.422Zm8.9,6.235h-12.6v-2.223h12.6Z" transform="translate(0 0)"/>
    <path id="path7485-7-5-8" class="cls-12" d="M54.09,189.092c-.174-.019-.345-.028-.517-.052a7.37,7.37,0,0,1-2.663-.8,7.677,7.677,0,0,1-3.973-4.827,7.823,7.823,0,0,1,6.177-9.849,7.416,7.416,0,0,1,2.034-.081c.033,0,.063,0,.093,0v2.355a.341.341,0,0,0-.064-.01,5.666,5.666,0,0,0-2.126.152,5.41,5.41,0,0,0-3.732,3.405c-.087.226-.145.463-.223.713h4.571v2.348H49.1c.052.186.1.36.152.532a5.489,5.489,0,0,0,5.441,3.763c.18,0,.363-.024.545-.043v2.357c-.137.01-.268.024-.4.034Z" transform="translate(0 0)"/>
    <path id="path7489-7-0-2" class="cls-12" d="M32.729,180.9c.018-.173.033-.342.052-.516a7.5,7.5,0,0,1,.994-3.017,7.806,7.806,0,0,1,7.549-3.875v2.341a5.47,5.47,0,0,0-4.99,1.958,5.23,5.23,0,0,0-1.245,3.832,5.308,5.308,0,0,0,2.011,3.894,5.5,5.5,0,0,0,4.227,1.193v2.343l-.4.043h-.749a.643.643,0,0,0-.1-.014,7.355,7.355,0,0,1-1.482-.233,7.75,7.75,0,0,1-4.822-3.67,7.476,7.476,0,0,1-.993-3.016c-.019-.171-.034-.342-.052-.514Z" transform="translate(0 0)"/>
    <text class="cls-14" transform="translate(31.839 195.946)">Shenzhen Sonoff<tspan class="cls-15" x="36.865" y="0"> </tspan><tspan class="cls-16" x="38.281" y="0">T</tspan><tspan x="40.562" y="0">echnologies Co., Ltd</tspan></text>
    <rect class="cls-17" x="83.197" y="78.164" width="2.835" height="2.835" rx="1.417"/>
    <rect class="cls-17" x="100.197" y="78.164" width="2.835" height="2.835" rx="1.417"/>
    <g>
      <rect class="cls-18" x="34.496" y="221.152" width="9.504" height="9.504" rx="4.752"/>
      <rect class="cls-18" x="48.296" y="221.152" width="9.504" height="9.504" rx="4.752"/>
      <rect class="cls-18" x="62.096" y="221.152" width="9.504" height="9.504" rx="4.752"/>
      <rect class="cls-18" x="75.896" y="221.152" width="9.504" height="9.504" rx="4.752"/>
      <rect class="cls-18" x="89.696" y="221.152" width="9.504" height="9.504" rx="4.752"/>
      <rect class="cls-18" x="103.496" y="221.152" width="9.504" height="9.504" rx="4.752"/>
      <polygon class="cls-12" points="67.587 214.613 67.587 220.713 66.587 220.713 66.587 215.113 53.587 215.113 53.587 220.713 52.587 220.713 52.587 214.113 67.577 214.113 67.577 214.613 67.587 214.613"/>
      <polygon class="cls-12" points="108.587 214.613 108.587 220.713 107.587 220.713 107.587 215.113 94.587 215.113 94.587 220.713 93.587 220.713 93.587 214.113 108.577 214.113 108.577 214.613 108.587 214.613"/>
    </g>
    <text class="cls-14" transform="translate(31.839 216.009)">Output</text>
    <text class="cls-14" transform="translate(75.029 216.009)">Input</text>
    <g>
      <text class="cls-19" transform="translate(37.272 228.287)">L</text>
      <text class="cls-19" transform="translate(78.672 228.287)">L</text>
      <text class="cls-20" transform="translate(91.895 228.287)">N</text>
      <text class="cls-20" transform="translate(105.695 228.287)">N</text>
      <g>
        <polygon class="cls-12" points="55.697 226.214 55.697 226.924 50.477 226.924 50.477 226.214 52.727 226.214 52.727 222.584 53.437 222.584 53.437 226.214 55.697 226.214"/>
        <rect class="cls-12" x="51.177" y="227.364" width="3.82" height="0.71"/>
        <rect class="cls-12" x="51.737" y="228.514" width="2.7" height="0.71"/>
      </g>
      <g>
        <polygon class="cls-12" points="69.697 226.214 69.697 226.924 64.477 226.924 64.477 226.214 66.727 226.214 66.727 222.584 67.437 222.584 67.437 226.214 69.697 226.214"/>
        <rect class="cls-12" x="65.177" y="227.364" width="3.82" height="0.71"/>
        <rect class="cls-12" x="65.737" y="228.514" width="2.7" height="0.71"/>
      </g>
    </g>
    <g>
      <text class="cls-21" transform="translate(68.753 188.633)">support</text>
      <rect class="cls-12" x="80.579" y="179.451" width="2.844" height="2.844" rx="1.422"/>
      <rect class="cls-12" x="85.199" y="180.244" width="2.268" height="2.268" rx="1.134"/>
      <rect class="cls-12" x="83.423" y="182.847" width="1.417" height="1.417" rx="0.709"/>
      <rect class="cls-22" x="69.257" y="174.321" width="9.612" height="9.612" rx="0.846"/>
      <text class="cls-21" transform="translate(70.985 182.295)">e</text>
      <line class="cls-23" x1="72.667" y1="174.263" x2="72.247" y2="174.893"/>
      <polyline class="cls-23" points="70.997 176.803 70.857 177.023 69.257 179.453"/>
      <line class="cls-23" x1="75.397" y1="182.023" x2="75.337" y2="183.756"/>
      <polyline class="cls-23" points="75.567 177.553 75.607 176.463 75.697 174.263"/>
      <line class="cls-23" x1="75.397" y1="182.023" x2="73.117" y2="183.933"/>
      <line class="cls-23" x1="78.867" y1="179.123" x2="78.217" y2="179.663"/>
      <line class="cls-23" x1="69.257" y1="180.873" x2="72.143" y2="183.792"/>
      <line class="cls-23" x1="70.997" y1="176.803" x2="69.257" y2="176.753"/>
      <polygon class="cls-23" points="78.217 179.663 76.937 180.733 75.397 182.023 75.567 177.553 78.217 179.663"/>
      <polygon class="cls-23" points="74.447 176.653 74.767 176.903 70.997 176.803 72.247 174.893 74.447 176.653"/>
      <line class="cls-23" x1="78.867" y1="180.183" x2="78.217" y2="179.663"/>
      <line class="cls-23" x1="75.567" y1="177.553" x2="74.767" y2="176.903"/>
      <line class="cls-23" x1="72.247" y1="174.893" x2="71.457" y2="174.263"/>
      <line class="cls-23" x1="74.445" y1="176.654" x2="78.575" y2="175.992"/>
      <line class="cls-23" x1="75.991" y1="177.945" x2="78.023" y2="183.933"/>
      <line class="cls-23" x1="70.86" y1="177.026" x2="69.833" y2="183.3"/>
    </g>
    <g>
      <polygon class="cls-24" points="133.531 317.961 133.531 289.109 134.239 243.129 138.885 242.645 147.381 242.645 147.381 268.281 147.381 317.813 133.531 317.961"/>
      <path class="cls-25" d="M136.265,243.513h4.274s.315,10.556-.06,21.886.777,24.386-1.143,32.834c-1.69,7.434-4.932,15.164-5.453,16.884-.158.522-.351-.509-.35-.6l.158-30.9.548-33.67C134.253,247.94,133.533,243.513,136.265,243.513Z" transform="translate(0 0)"/>
    </g>
    <g>
      <path class="cls-26" d="M14.247,317.813s-.019-1.188-.019-2.984l-.183-25.384.8-41c-.074-2.523.329-5.631-1.1-5.467H0V317.89Z" transform="translate(0 0)"/>
      <path class="cls-25" d="M11.311,243.465H7.9a180.625,180.625,0,0,0-.806,22.27c.375,11.33-.777,24.386,1.143,32.834,1.69,7.434,4.932,15.164,5.453,16.884.158.522.351-.509.35-.6l-.158-30.9-.548-33.67C13.323,248.276,14.043,243.465,11.311,243.465Z" transform="translate(0 0)"/>
    </g>
    <rect class="cls-27" y="238.137" width="147.402" height="4.992"/>
    <g>
      <path id="path634" class="cls-28" d="M139.783,231.334l-13,.011c-.509,0-.723-.634-.423-1.255l6.248-12.965c.357-.72,1.018-.728,1.375.024l6.32,12.93c.348.617.095,1.265-.514,1.254Z" transform="translate(0 0)"/>
      <path id="path609" class="cls-29" d="M136.526,225.621l1.833,3.91-6.306.067-3.7-.045,3.076-6.667,1.863-3.866,3.23,6.6Z" transform="translate(0 0)"/>
      <path id="path615" class="cls-28" d="M132.922,221.411l-1.574,4.775,2.2-.931-.775,3.574,1.647-4.385-2.349.9,1.7-3.964-.848.03Z" transform="translate(0 0)"/>
      <path id="path617" class="cls-28" d="M132.607,227.507l.194,1.472.848-1.231-.606.18Z" transform="translate(0 0)"/>
    </g>
    <g>
      <path id="path6771" class="cls-30" d="M60.875,79.858a8.5,8.5,0,1,1-8.5-8.505,8.5,8.5,0,0,1,8.5,8.505h0" transform="translate(0 0)"/>
      <path id="path6775" class="cls-31" d="M60.418,79.858a8.047,8.047,0,1,1-8.046-8.047,8.047,8.047,0,0,1,8.046,8.047v0" transform="translate(0 0)"/>
      <path id="path6787-2" class="cls-32" d="M59.892,79.857a7.521,7.521,0,1,1-7.521-7.521,7.521,7.521,0,0,1,7.521,7.521h0" transform="translate(0 0)"/>
      <path class="cls-33" d="M57.917,83.439a6.422,6.422,0,0,0,.752-1.644,5.4,5.4,0,0,0-1.1-5.892c-.1-.109-.4-.44-.4-.44a7.15,7.15,0,0,1,1.147,6.6A12.47,12.47,0,0,1,57.72,83.7S57.873,83.507,57.917,83.439Z" transform="translate(0 0)"/>
      <path class="cls-34" d="M47.194,76.271a6.506,6.506,0,0,0-.752,1.644,5.4,5.4,0,0,0,1.1,5.893c.1.109.4.44.4.44a7.15,7.15,0,0,1-1.146-6.6,12.413,12.413,0,0,1,.588-1.633S47.239,76.2,47.194,76.271Z" transform="translate(0 0)"/>
    </g>
    <g id="t">
      <text class="cls-35" transform="translate(30.457 129.398)"><tspan class="cls-36">P</tspan><tspan x="3.064" y="0">ower Measuring </tspan><tspan class="cls-37" x="46.69" y="0">W</tspan><tspan x="51.721" y="0">i-Fi Switch</tspan></text>
      <text class="cls-14" transform="translate(30.457 137.284)">Model: POWR2</text>
      <text class="cls-14" transform="translate(30.456 167.779)">FCC ID: 2APN5-POWR2</text>
      <text class="cls-14" transform="translate(30.456 144.908)"><tspan class="cls-37">W</tspan><tspan x="4.192" y="0">i-Fi: 2.4 GHz 802.11 b/g/n</tspan></text>
      <text class="cls-14" transform="translate(30.456 152.532)">Input:<tspan class="cls-38" x="13.459" y="0"> </tspan><tspan x="14.69" y="0">AC 100-240V 50/60Hz 15</tspan><tspan class="cls-38" x="69.653" y="0">A</tspan></text>
      <text class="cls-14" transform="translate(30.456 160.155)">Output:<tspan class="cls-38" x="17.419" y="0"> </tspan><tspan x="18.65" y="0">AC 100-240V 50/60Hz 15</tspan><tspan class="cls-38" x="73.613" y="0">A</tspan></text>
    </g>
    <g>
      <ellipse class="cls-39" cx="71.515" cy="310.227" rx="10.128" ry="9.757"/>
      <g>
        <circle class="cls-40" cx="71.515" cy="309.903" r="7.848"/>
        <line class="cls-41" x1="66.282" y1="309.903" x2="76.747" y2="309.903"/>
        <line class="cls-41" x1="71.515" y1="315.135" x2="71.515" y2="304.67"/>
      </g>
      <g id="screw-male-m3">
        <g id="screw-4-2">
          <path id="rect4500-7-2-5-0-4-2" class="cls-42" d="M71.529,302.782h0a7.1,7.1,0,0,1,7.12,7.082h0v.038h0a7.1,7.1,0,0,1-7.082,7.12h-.038a7.2,7.2,0,0,1-7.12-7.12h0a7.1,7.1,0,0,1,7.081-7.119h.039Z" transform="translate(0 0)"/>
          <path id="path8921-4-4-2" class="cls-31" d="M78.338,309.9a6.967,6.967,0,1,1-7.173-6.809h.053a6.872,6.872,0,0,1,6.811,6.811h0" transform="translate(0 0)"/>
          <path id="path8937-8-4-2" class="cls-43" d="M71.373,309.9h0l.619.155h0Z" transform="translate(0 0)"/>
          <path id="path8939-7-4-2" class="cls-1" d="M72,310.058h.619v.31Z" transform="translate(0 0)"/>
          <path id="path8941-2-4-2" class="cls-43" d="M71.373,309.9" transform="translate(0 0)"/>
          <path id="path8943-8-4-2" class="cls-44" d="M72,310.058h.619v.155Z" transform="translate(0 0)"/>
          <path id="path8945-7-4-2" class="cls-45" d="M72.456,310.368v-.31h.618v.31Z" transform="translate(0 0)"/>
          <path id="path8947-2-4-2" class="cls-46" d="M73.077,310.518v-.465H73.7v.465Z" transform="translate(0 0)"/>
          <path id="path8949-0-4-2" class="cls-47" d="M72.456,310.058V309.9h.618v.155Z" transform="translate(0 0)"/>
          <path id="path8951-2-4-2" class="cls-48" d="M73.077,310.058v-.309h.309v.309Z" transform="translate(0 0)"/>
          <path id="path8953-8-4-2" class="cls-49" d="M73.386,310.213v-.31h.31v.465Z" transform="translate(0 0)"/>
          <path id="path8955-7-4-2" class="cls-43" d="M71.373,309.9" transform="translate(0 0)"/>
          <path id="path8957-9-4-2" class="cls-50" d="M72,309.9h.619v.155Z" transform="translate(0 0)"/>
          <path id="path8959-2-4-2" class="cls-43" d="M71.373,309.9" transform="translate(0 0)"/>
          <path id="path8961-8-4-2" class="cls-51" d="M72,309.746h0l.464-.155h0Z" transform="translate(0 0)"/>
          <path id="path8963-4-4-2" class="cls-52" d="M72.456,309.9v-.155h.618v.465Z" transform="translate(0 0)"/>
          <path id="path8965-6-4-2" class="cls-53" d="M73.077,309.9v-.309h.309v.464Z" transform="translate(0 0)"/>
          <path id="path8967-9-4-2" class="cls-54" d="M73.386,309.9v-.309h.31v.464Z" transform="translate(0 0)"/>
          <path id="path8969-8-4-2" class="cls-27" d="M72.456,309.594l.62-.31v.31Z" transform="translate(0 0)"/>
          <path id="path8971-7-4-2" class="cls-55" d="M73.077,309.594v-.31l.619-.309v.464Z" transform="translate(0 0)"/>
          <path id="path8973-6-4-2" class="cls-43" d="M71.373,309.9h.617l-.465.31Z" transform="translate(0 0)"/>
          <path id="path8975-0-4-2" class="cls-43" d="M71.373,309.9l.464-.309h0Z" transform="translate(0 0)"/>
          <path id="path8977-7-4-2" class="cls-56" d="M72,309.746l.464-.155h0Z" transform="translate(0 0)"/>
          <path id="path8979-1-4-2" class="cls-57" d="M72,309.594l.464-.31h0Z" transform="translate(0 0)"/>
          <path id="path8981-9-4-2" class="cls-43" d="M71.373,309.9h0l.31-.309h0Z" transform="translate(0 0)"/>
          <path id="path8983-2-4-2" class="cls-7" d="M72,309.594h0l.464-.464v.155Z" transform="translate(0 0)"/>
          <path id="path8985-9-4-2" class="cls-58" d="M72.3,309.594l.619-.31h0Z" transform="translate(0 0)"/>
          <path id="path8987-4-4-2" class="cls-59" d="M72.3,309.439l.619-.309v-.155Z" transform="translate(0 0)"/>
          <path id="path8989-65-4-2" class="cls-60" d="M72.921,309.286l.619-.31v-.155l-.619.31Z" transform="translate(0 0)"/>
          <path id="path8991-6-4-2" class="cls-61" d="M72.921,309.126l.619-.31v-.153l-.619.309Z" transform="translate(0 0)"/>
          <path id="path8993-7-4-2" class="cls-62" d="M72.3,309.286v-.155l.464-.464v.308Z" transform="translate(0 0)"/>
          <path id="path8995-5-4-2" class="cls-63" d="M72.766,308.973v-.309l.464-.463c.155.155.155.308.31.308Z" transform="translate(0 0)"/>
          <path id="path8997-16-4-2" class="cls-43" d="M71.373,309.9h0c0-.155.155-.309.31-.464h0Z" transform="translate(0 0)"/>
          <path id="path8999-2-4-2" class="cls-64" d="M71.683,309.594h0c.154-.155.154-.31.309-.464v.155Z" transform="translate(0 0)"/>
          <path id="path9001-5-4-2" class="cls-43" d="M71.373,309.9c.155-.309.464-.619.619-.929h0A3.178,3.178,0,0,1,71.373,309.9Z" transform="translate(0 0)"/>
          <path id="path9003-8-4-2" class="cls-43" d="M71.373,309.9a8.985,8.985,0,0,1,.619-1.083h0Z" transform="translate(0 0)"/>
          <path id="path9005-1-4-2" class="cls-65" d="M72.147,309.126v-.155l.309-.463.31.155Z" transform="translate(0 0)"/>
          <path id="path9007-0-4-2" class="cls-66" d="M72.625,308.665l-.309-.155.309-.464.31.31Z" transform="translate(0 0)"/>
          <path id="path9009-0-4-2" class="cls-67" d="M72,308.973a3.289,3.289,0,0,0,.619-.928H72.46Z" transform="translate(0 0)"/>
          <path id="path9011-8-4-2" class="cls-68" d="M72,308.82a6.959,6.959,0,0,0,.619-1.084h-.308Z" transform="translate(0 0)"/>
          <path id="path9013-6-4-2" class="cls-43" d="M71.373,309.9l.464-1.083h-.154A2.83,2.83,0,0,1,71.373,309.9Z" transform="translate(0 0)"/>
          <path id="path9015-0-4-2" class="cls-43" d="M71.373,309.9a2.908,2.908,0,0,1,.31-1.083h-.155Z" transform="translate(0 0)"/>
          <path id="path9017-11-4-2" class="cls-43" d="M72,308.82l.464-1.084h-.153A2.837,2.837,0,0,0,72,308.82Z" transform="translate(0 0)"/>
          <path id="path9019-3-4-2" class="cls-69" d="M71.839,308.82c.154-.31.154-.774.309-1.084h0A2.936,2.936,0,0,1,71.839,308.82Z" transform="translate(0 0)"/>
          <path id="path9021-1-4-2" class="cls-70" d="M71.683,308.82a2.857,2.857,0,0,1,.309-1.084h-.309Z" transform="translate(0 0)"/>
          <path id="path9023-8-4-2" class="cls-43" d="M71.373,309.9v-1.083h0Z" transform="translate(0 0)"/>
          <path id="path9025-6-4-2" class="cls-43" d="M71.373,309.9v-1.083h0a1.473,1.473,0,0,0,.31,1.083Z" transform="translate(0 0)"/>
          <path id="path9027-9-4-2" class="cls-71" d="M71.529,308.82v-1.238h-.308v1.238Z" transform="translate(0 0)"/>
          <path id="path9029-7-4-2" class="cls-72" d="M71.373,308.82v-1.238h0Z" transform="translate(0 0)"/>
          <path id="path9031-8-4-2" class="cls-73" d="M71.218,308.82v-1.238h0a1.855,1.855,0,0,0,.31,1.238Z" transform="translate(0 0)"/>
          <path id="path9033-1-4-2" class="cls-43" d="M71.373,309.9a1.463,1.463,0,0,0-.31-1.083h0Z" transform="translate(0 0)"/>
          <path id="path9035-8-4-2" class="cls-43" d="M71.373,309.9l-.31-1.083h0C71.063,309.282,71.373,309.593,71.373,309.9Z" transform="translate(0 0)"/>
          <path id="path9037-5-4-2" class="cls-74" d="M71.218,308.82a3.678,3.678,0,0,0-.309-1.238h0C71.063,308.046,71.063,308.51,71.218,308.82Z" transform="translate(0 0)"/>
          <path id="path9039-5-4-2" class="cls-73" d="M71.065,308.82a3.7,3.7,0,0,0-.31-1.238h0Z" transform="translate(0 0)"/>
          <path id="path9041-2-4-2" class="cls-72" d="M71.065,308.82l-.31-1.084h-.311C70.445,308.046,70.755,308.356,71.065,308.82Z" transform="translate(0 0)"/>
          <path id="path9043-8-4-2" class="cls-43" d="M71.373,309.9c0-.309-.31-.619-.464-1.083h0Z" transform="translate(0 0)"/>
          <path id="path9045-4-4-2" class="cls-43" d="M71.373,309.9l-.619-.929h0Z" transform="translate(0 0)"/>
          <path id="path9047-9-4-2" class="cls-71" d="M70.909,308.82c-.155-.31-.31-.774-.465-1.084h-.309Z" transform="translate(0 0)"/>
          <path id="path9049-9-4-2" class="cls-70" d="M70.755,308.973l-.619-.928h0A1.426,1.426,0,0,1,70.755,308.973Z" transform="translate(0 0)"/>
          <path id="path9051-56-4-2" class="cls-69" d="M70.755,308.973a9.3,9.3,0,0,1-.619-.928h0Z" transform="translate(0 0)"/>
          <path id="path9053-9-4-2" class="cls-43" d="M71.373,309.9l-1.393-1.857-.31.155Z" transform="translate(0 0)"/>
          <path id="path9055-1-4-2" class="cls-43" d="M71.373,309.9l-1.7-1.7a.538.538,0,0,0-.155.309A8.355,8.355,0,0,1,71.373,309.9Z" transform="translate(0 0)"/>
          <path id="path9057-6-4-2" class="cls-43" d="M71.373,309.9l-.929-.774h0Z" transform="translate(0 0)"/>
          <path id="path9059-9-4-2" class="cls-43" d="M71.373,309.9l-1.084-.619h0Z" transform="translate(0 0)"/>
          <path id="path9061-58-4-2" class="cls-75" d="M70.444,309.126l-.929-.619a.552.552,0,0,0-.154.309Z" transform="translate(0 0)"/>
          <path id="path9063-5-4-2" class="cls-31" d="M70.444,309.286l-.929-.619v.309Z" transform="translate(0 0)"/>
          <path id="path9065-0-4-2" class="cls-43" d="M71.373,309.9l-1.084-.464h0a2.835,2.835,0,0,1,1.084.31Z" transform="translate(0 0)"/>
          <path id="path9067-6-4-2" class="cls-43" d="M71.373,309.9c-.31-.155-.774-.155-1.084-.309v.309Z" transform="translate(0 0)"/>
          <path id="path9069-5-4-2" class="cls-76" d="M70.291,309.439l-1.084-.464v.31l1.084.309Z" transform="translate(0 0)"/>
          <path id="path9071-3-4-2" class="cls-31" d="M70.291,309.594l-1.084-.31v.465h1.084Z" transform="translate(0 0)"/>
          <path id="path9073-3-4-2" class="cls-43" d="M71.373,309.9H69.051v.465A12.5,12.5,0,0,0,71.373,309.9Z" transform="translate(0 0)"/>
          <path id="path9075-1-4-2" class="cls-43" d="M71.373,309.9a11.809,11.809,0,0,0-2.322.31v.464Z" transform="translate(0 0)"/>
          <path id="path9077-1-4-2" class="cls-43" d="M71.373,309.9l-1.084.31h0Z" transform="translate(0 0)"/>
          <path id="path9079-50-4-2" class="cls-43" d="M71.373,309.9l-1.084.465h0Z" transform="translate(0 0)"/>
          <path id="path9081-4-4-2" class="cls-43" d="M71.373,309.9h0l-.464.155h0Z" transform="translate(0 0)"/>
          <path id="path9083-4-4-2" class="cls-77" d="M70.909,310.058h0l-.62.31h0Z" transform="translate(0 0)"/>
          <path id="path9085-3-4-2" class="cls-78" d="M70.291,310.058l-1.084.31h0Z" transform="translate(0 0)"/>
          <path id="path9087-7-4-2" class="cls-79" d="M70.291,310.368l-1.084.464h0Z" transform="translate(0 0)"/>
          <path id="path9089-59-4-2" class="cls-80" d="M70.291,310.368h0l-.465.31v-.16Z" transform="translate(0 0)"/>
          <path id="path9091-1-4-2" class="cls-81" d="M69.825,310.675v.155l-.464.31v-.31Z" transform="translate(0 0)"/>
          <path id="path9093-7-4-2" class="cls-43" d="M71.373,309.9h0l-.464.31h0Z" transform="translate(0 0)"/>
          <path id="path9095-4-4-2" class="cls-82" d="M70.909,310.058h0l-.465.31h0Z" transform="translate(0 0)"/>
          <path id="path9097-8-4-2" class="cls-43" d="M71.373,309.9h0l-.31.31h0Z" transform="translate(0 0)"/>
          <path id="path9099-7-4-2" class="cls-83" d="M71.065,310.058h0l-.465.465h0Z" transform="translate(0 0)"/>
          <path id="path9101-3-4-2" class="cls-84" d="M70.444,310.518h0l-.464.309h0Z" transform="translate(0 0)"/>
          <path id="path9103-4-4-2" class="cls-85" d="M69.982,310.833h0l-.464.31v-.155Z" transform="translate(0 0)"/>
          <path id="path9105-9-4-2" class="cls-86" d="M70.444,310.675l-.464.31h0Z" transform="translate(0 0)"/>
          <path id="path9107-2-4-2" class="cls-87" d="M70.612,310.675l-.465.464h0Z" transform="translate(0 0)"/>
          <path id="path9109-0-4-2" class="cls-88" d="M69.982,310.987l-.464.31h0Z" transform="translate(0 0)"/>
          <path id="path9111-1-4-2" class="cls-27" d="M70.135,311.139l-.465.31h0Z" transform="translate(0 0)"/>
          <path id="path9113-9-4-2" class="cls-43" d="M71.373,309.9h0l-.31.465h0Z" transform="translate(0 0)"/>
          <path id="path9115-6-4-2" class="cls-50" d="M71.065,310.213h0l-.31.464h0Z" transform="translate(0 0)"/>
          <path id="path9117-8-4-2" class="cls-89" d="M70.612,310.675h0l-.31.464h0Z" transform="translate(0 0)"/>
          <path id="path9119-4-4-2" class="cls-63" d="M70.135,311.139h0l-.31.464h0Z" transform="translate(0 0)"/>
          <path id="path9121-2-4-2" class="cls-90" d="M70.755,310.833h0l-.31.465h0Z" transform="translate(0 0)"/>
          <path id="path9123-7-4-2" class="cls-91" d="M70.291,311.3h0c-.155.154-.31.309-.31.463h-.155Z" transform="translate(0 0)"/>
          <path id="path9125-02-4-2" class="cls-43" d="M71.373,309.9h0c0,.155-.155.31-.31.465h0Z" transform="translate(0 0)"/>
          <path id="path9127-0-4-2" class="cls-92" d="M71.065,310.368h0c-.155.155-.155.31-.31.464h0Z" transform="translate(0 0)"/>
          <path id="path9129-7-4-2" class="cls-43" d="M71.373,309.9h0v.155h0Z" transform="translate(0 0)"/>
          <path id="path9131-5-4-2" class="cls-93" d="M71.218,310.058h0v.31h0Z" transform="translate(0 0)"/>
          <path id="path9133-6-4-2" class="cls-94" d="M71.065,310.368h0v.31h0Z" transform="translate(0 0)"/>
          <path id="path9135-6-4-2" class="cls-95" d="M71.065,310.675h0v.31h0Z" transform="translate(0 0)"/>
          <path id="path9137-9-4-2" class="cls-96" d="M70.755,310.833h0v.306h0Z" transform="translate(0 0)"/>
          <path id="path9139-55-4-2" class="cls-97" d="M70.612,311.139h0v.31h0Z" transform="translate(0 0)"/>
          <path id="path9141-3-4-2" class="cls-98" d="M70.444,311.3h0v.309h-.155Z" transform="translate(0 0)"/>
          <path id="path9143-2-4-2" class="cls-99" d="M70.291,311.606h.154v.311h-.154Z" transform="translate(0 0)"/>
          <path id="path9145-2-4-2" class="cls-100" d="M70.909,310.987h0v.153h0Z" transform="translate(0 0)"/>
          <path id="path9147-7-4-2" class="cls-101" d="M70.755,311.139h0v.31h0Z" transform="translate(0 0)"/>
          <path id="path9149-8-4-2" class="cls-102" d="M70.612,311.45h0v.31h-.155C70.444,311.606,70.444,311.45,70.612,311.45Z" transform="translate(0 0)"/>
          <path id="path9151-6-4-2" class="cls-103" d="M70.444,311.606h.168v.311h-.155Z" transform="translate(0 0)"/>
          <path id="path9153-2-4-2" class="cls-43" d="M71.373,309.9h0v.155h0Z" transform="translate(0 0)"/>
          <path id="path9155-3-4-2" class="cls-104" d="M71.373,310.058h0v.31h0Z" transform="translate(0 0)"/>
          <path id="path9157-3-4-2" class="cls-43" d="M71.373,309.9h0v.155h0Z" transform="translate(0 0)"/>
          <path id="path9159-20-4-2" class="cls-93" d="M71.373,310.058h0v.31h0Z" transform="translate(0 0)"/>
          <path id="path9161-47-4-2" class="cls-105" d="M71.218,310.368h0v.31h0Z" transform="translate(0 0)"/>
          <path id="path9163-8-4-2" class="cls-106" d="M71.065,310.675h0v.31h0Z" transform="translate(0 0)"/>
          <path id="path9165-6-4-2" class="cls-94" d="M71.218,310.518h0v.309h0Z" transform="translate(0 0)"/>
          <path id="path9167-3-4-2" class="cls-107" d="M71.218,310.675h0v.31h-.155Z" transform="translate(0 0)"/>
          <path id="path9169-0-4-2" class="cls-43" d="M71.373,309.9h0v.465h0Z" transform="translate(0 0)"/>
          <path id="path9171-5-4-2" class="cls-108" d="M71.373,310.518h.155v.618h-.31C71.218,310.833,71.373,310.675,71.373,310.518Z" transform="translate(0 0)"/>
          <path id="path9173-14-4-2" class="cls-109" d="M70.909,310.987h0v.31h-.154Z" transform="translate(0 0)"/>
          <path id="path9175-4-4-2" class="cls-110" d="M70.909,311.3h.154v.309h-.308Z" transform="translate(0 0)"/>
          <path id="path9177-4-4-2" class="cls-111" d="M71.065,310.987h.154v.31h-.154Z" transform="translate(0 0)"/>
          <path id="path9179-32-4-2" class="cls-112" d="M71.065,311.3h.154v.309H70.91C71.065,311.45,71.065,311.45,71.065,311.3Z" transform="translate(0 0)"/>
          <path id="path9181-8-4-2" class="cls-99" d="M70.755,311.45h.31v.31h-.31Z" transform="translate(0 0)"/>
          <path id="path9183-8-4-2" class="cls-113" d="M70.612,311.76h.309v.308h-.309Z" transform="translate(0 0)"/>
          <path id="path9185-63-4-2" class="cls-114" d="M71.065,311.606h.309v.311h-.309C70.909,311.76,70.909,311.606,71.065,311.606Z" transform="translate(0 0)"/>
          <path id="path9187-2-4-2" class="cls-115" d="M70.909,311.916h.309v.31h-.309Z" transform="translate(0 0)"/>
          <path id="path9189-28-4-2" class="cls-116" d="M71.218,310.987h.308v.619h-.464C71.218,311.45,71.218,311.3,71.218,310.987Z" transform="translate(0 0)"/>
          <path id="path9191-30-4-2" class="cls-117" d="M71.218,311.606v.619h.308v-.619Z" transform="translate(0 0)"/>
          <path id="path9193-2-4-2" class="cls-118" d="M71.529,311.606v.619h.31v-.619Z" transform="translate(0 0)"/>
          <path id="path9195-93-4-2" class="cls-43" d="M71.373,309.9h0c.155.155.155.31.31.465h0C71.373,310.058,71.373,310.058,71.373,309.9Z" transform="translate(0 0)"/>
          <path id="path9197-2-4-2" class="cls-119" d="M71.529,310.368h0l.31.619h-.465C71.529,310.833,71.529,310.675,71.529,310.368Z" transform="translate(0 0)"/>
          <path id="path9199-8-4-2" class="cls-43" d="M71.373,309.9a7.735,7.735,0,0,1,.464,1.084h0A7.735,7.735,0,0,0,71.373,309.9Z" transform="translate(0 0)"/>
          <path id="path9201-3-4-2" class="cls-43" d="M71.373,309.9a3.191,3.191,0,0,1,.619.929h0l-.774-.774Z" transform="translate(0 0)"/>
          <path id="path9203-40-4-2" class="cls-120" d="M71.683,310.987H72a1.173,1.173,0,0,0,.309.619H71.84Z" transform="translate(0 0)"/>
          <path id="path9205-34-4-2" class="cls-121" d="M71.683,311.606v.464H72v-.464Z" transform="translate(0 0)"/>
          <path id="path9207-2-4-2" class="cls-122" d="M72,311.606v.464h.309A2.219,2.219,0,0,0,72,311.606Z" transform="translate(0 0)"/>
          <path id="path9209-2-4-2" class="cls-123" d="M72,310.987l.464,1.084h.31Z" transform="translate(0 0)"/>
          <path id="path9211-00-4-2" class="cls-68" d="M72,310.833l.619.929h.31Z" transform="translate(0 0)"/>
          <path id="path9213-7-4-2" class="cls-43" d="M71.373,309.9l.774.929h0l-.774-.774Z" transform="translate(0 0)"/>
          <path id="path9215-6-4-2" class="cls-43" d="M71.373,309.9h0l.619.155h0Z" transform="translate(0 0)"/>
          <path id="path9217-2-4-2" class="cls-124" d="M72,310.058h0l.464.31h0Z" transform="translate(0 0)"/>
          <path id="path9219-3-4-2" class="cls-43" d="M72.147,310.675l.774.93v-.155l-.929-.774Z" transform="translate(0 0)"/>
          <path id="path9221-4-4-2" class="cls-68" d="M72.3,310.675l.774.774.155-.155A3.33,3.33,0,0,0,72.3,310.675Z" transform="translate(0 0)"/>
          <path id="path9223-8-4-2" class="cls-43" d="M71.373,309.9h0l.619.155h0Z" transform="translate(0 0)"/>
          <path id="path9225-3-4-2" class="cls-125" d="M72,310.058h0l.464.31h0Z" transform="translate(0 0)"/>
          <path id="path9227-50-4-2" class="cls-43" d="M71.373,309.9h0l.619.155h0Z" transform="translate(0 0)"/>
          <path id="path9229-1-4-2" class="cls-31" d="M72,310.058h0l.619.31h0Z" transform="translate(0 0)"/>
          <path id="path9231-2-4-2" class="cls-9" d="M72.3,310.518h0l.464.309v.155Z" transform="translate(0 0)"/>
          <path id="path9233-10-4-2" class="cls-126" d="M72.766,310.987v-.31l.464.31v.153Z" transform="translate(0 0)"/>
          <path id="path9235-6-4-2" class="cls-127" d="M72.456,310.518h0l.62.155v.154Z" transform="translate(0 0)"/>
          <path id="path9237-1-4-2" class="cls-128" d="M72.921,310.675v-.157l.464.309v.31Z" transform="translate(0 0)"/>
          <path id="path9239-6-4-2" class="cls-129" d="M73.54,310.833l2.477.929a2.158,2.158,0,0,0,.308-.929,13.412,13.412,0,0,0-2.63-.465C73.695,310.518,73.54,310.675,73.54,310.833Z" transform="translate(0 0)"/>
          <path id="path9241-9-4-2" class="cls-58" d="M73.695,310.368c.929.155,1.857.31,2.63.464V309.9h-2.63Z" transform="translate(0 0)"/>
          <path id="path9243-26-4-2" class="cls-130" d="M73.695,309.9h2.63v-.929a15.22,15.22,0,0,0-2.63.465Z" transform="translate(0 0)"/>
          <path id="path9245-11-4-2" class="cls-131" d="M73.695,309.439a23.879,23.879,0,0,1,2.63-.464,2.194,2.194,0,0,0-.308-.929l-2.477.929C73.54,309.126,73.695,309.286,73.695,309.439Z" transform="translate(0 0)"/>
          <path id="path9247-9-4-2" class="cls-132" d="M73.54,308.973l2.477-.928-.155-.465c-.619.31-1.393.774-2.322,1.239Z" transform="translate(0 0)"/>
          <path id="path9249-2-4-2" class="cls-133" d="M73.386,308.82c.929-.464,1.858-.929,2.322-1.238l-.309-.465c-.619.31-1.393.929-2.322,1.393Z" transform="translate(0 0)"/>
          <path id="path9251-5-4-2" class="cls-134" d="M73.386,308.665c.929-.464,1.7-1.083,2.322-1.393l-.155-.464c-.619.619-1.393,1.084-2.013,1.7Z" transform="translate(0 0)"/>
          <path id="path9253-2-4-2" class="cls-135" d="M73.23,308.51a11.733,11.733,0,0,0,2.167-1.7l-.309-.31a21.155,21.155,0,0,1-1.858,1.858Z" transform="translate(0 0)"/>
          <path id="path9255-0-4-2" class="cls-46" d="M73.077,308.2a21.852,21.852,0,0,0,1.857-1.858l-.309-.31c-.465.619-1.239,1.393-1.7,2.014Z" transform="translate(0 0)"/>
          <path id="path9257-5-4-2" class="cls-25" d="M72.921,308.2c.464-.62,1.238-1.393,1.7-2.014l-.465-.31a18.871,18.871,0,0,1-1.548,2.167Z" transform="translate(0 0)"/>
          <path id="path9259-0-4-2" class="cls-136" d="M72.766,307.891c.464-.774,1.084-1.393,1.548-2.167l-.464-.309c-.31.774-.929,1.548-1.239,2.322Z" transform="translate(0 0)"/>
          <path id="path9261-6-4-2" class="cls-137" d="M72.456,307.891c.31-.774.929-1.547,1.239-2.321l-.465-.155-1.083,2.476Z" transform="translate(0 0)"/>
          <path id="path9263-7-4-2" class="cls-43" d="M72.3,307.741l.464-1.238h-.309a10.838,10.838,0,0,1-.465,1.238Z" transform="translate(0 0)"/>
          <path id="path9265-3-4-2" class="cls-138" d="M72,307.741c.155-.464.309-.773.464-1.238H72a2.924,2.924,0,0,1-.31,1.238Z" transform="translate(0 0)"/>
          <path id="path9267-9-4-2" class="cls-139" d="M72,307.579a4.836,4.836,0,0,0,.309-1.237h-.619v1.237Z" transform="translate(0 0)"/>
          <path id="path9269-1-4-2" class="cls-43" d="M72.766,306.652l.464-1.238h-.309a10.838,10.838,0,0,0-.465,1.238Z" transform="translate(0 0)"/>
          <path id="path9271-3-4-2" class="cls-124" d="M72.456,306.5a2.058,2.058,0,0,1,.465-1.237h-.31A3.586,3.586,0,0,0,72.3,306.5Z" transform="translate(0 0)"/>
          <path id="path9273-7-4-2" class="cls-75" d="M72.3,306.344a3.615,3.615,0,0,1,.31-1.239h-.63V306.5Z" transform="translate(0 0)"/>
          <path id="path9275-7-4-2" class="cls-140" d="M71.683,307.579v-1.237h-.62v1.237Z" transform="translate(0 0)"/>
          <path id="path9277-77-4-2" class="cls-141" d="M71.218,307.579v-1.237h-.309A2.937,2.937,0,0,0,71.218,307.579Z" transform="translate(0 0)"/>
          <path id="path9279-1-4-2" class="cls-142" d="M71.065,307.579a4.283,4.283,0,0,0-.155-1.393h-.3a2.941,2.941,0,0,0,.309,1.238Z" transform="translate(0 0)"/>
          <path id="path9281-3-4-2" class="cls-143" d="M71.683,306.344v-1.393h-.774v1.393A.688.688,0,0,1,71.683,306.344Z" transform="translate(0 0)"/>
          <path id="path9283-6-4-2" class="cls-144" d="M71.218,306.344v-1.393h-.309a2.976,2.976,0,0,0,.154,1.238Z" transform="translate(0 0)"/>
          <path id="path9285-4-4-2" class="cls-145" d="M70.909,306.344a3.03,3.03,0,0,0-.155-1.239h-.31a4.732,4.732,0,0,1,.31,1.239Z" transform="translate(0 0)"/>
          <path id="path9287-1-4-2" class="cls-146" d="M70.909,307.579a2.894,2.894,0,0,0-.31-1.237h-.155A10.822,10.822,0,0,0,70.909,307.579Z" transform="translate(0 0)"/>
          <path id="path9289-9-4-2" class="cls-142" d="M70.755,307.741a2.931,2.931,0,0,0-.31-1.238h-.154A11.668,11.668,0,0,1,70.755,307.741Z" transform="translate(0 0)"/>
          <path id="path9291-1-4-2" class="cls-141" d="M70.612,307.741a10.541,10.541,0,0,0-.465-1.238h-.316l.62,1.238Z" transform="translate(0 0)"/>
          <path id="path9293-8-4-2" class="cls-147" d="M70.612,306.344a2.947,2.947,0,0,0-.31-1.239h-.32a2.947,2.947,0,0,0,.31,1.239Z" transform="translate(0 0)"/>
          <path id="path9295-5-4-2" class="cls-145" d="M70.444,306.344a2.916,2.916,0,0,0-.309-1.239h-.31l.464,1.239Z" transform="translate(0 0)"/>
          <path id="path9297-2-4-2" class="cls-144" d="M70.291,306.5l-.465-1.237-.464.155a4.7,4.7,0,0,0,.619,1.237Z" transform="translate(0 0)"/>
          <path id="path9299-0-4-2" class="cls-140" d="M70.444,307.891l-.619-1.238-.31.155c.31.464.465.93.62,1.084Z" transform="translate(0 0)"/>
          <path id="path9301-9-4-2" class="cls-139" d="M70.135,307.891c0-.309-.465-.619-.62-1.083h-.154A6.409,6.409,0,0,0,70.135,307.891Z" transform="translate(0 0)"/>
          <path id="path9303-2-4-2" class="cls-138" d="M70.135,308.046c-.155-.31-.465-.619-.774-1.084h0Z" transform="translate(0 0)"/>
          <path id="path9305-02-4-2" class="cls-143" d="M69.825,306.652a9.226,9.226,0,0,1-.619-1.238l-.464.309a6.528,6.528,0,0,1,.619,1.084Z" transform="translate(0 0)"/>
          <path id="path9307-6-4-2" class="cls-75" d="M69.517,306.652c-.31-.465-.465-.929-.619-1.084h-.3l.774,1.084Z" transform="translate(0 0)"/>
          <path id="path9309-6-4-2" class="cls-124" d="M69.361,306.963l-.774-1.084h-.31l.774,1.084Z" transform="translate(0 0)"/>
          <path id="path9311-7-4-2" class="cls-43" d="M69.982,308.046c-.464-.464-1.238-1.548-1.7-2.014l-.31.155Z" transform="translate(0 0)"/>
          <path id="path9313-89-4-2" class="cls-69" d="M69.825,308.2l-1.7-2.014-.309.155Z" transform="translate(0 0)"/>
          <path id="path9315-1-4-2" class="cls-148" d="M69.67,308.2l-1.857-1.858-.465.464c.62.464,1.548,1.237,2.167,1.7C69.67,308.354,69.67,308.354,69.67,308.2Z" transform="translate(0 0)"/>
          <path id="path9317-0-4-2" class="cls-149" d="M69.517,308.51l-.929-.773c-.155.156-.155.309-.31.309l1.084.619a.155.155,0,0,0,.155-.155Z" transform="translate(0 0)"/>
          <path id="path9319-2-4-2" class="cls-150" d="M69.361,308.665l-1.084-.619v.155Z" transform="translate(0 0)"/>
          <path id="path9321-0-4-2" class="cls-151" d="M69.361,308.82l-1.084-.619v.309Z" transform="translate(0 0)"/>
          <path id="path9323-5-4-2" class="cls-1" d="M68.6,307.741l-1.083-.773-.31.619a6.5,6.5,0,0,1,1.084.619C68.434,307.891,68.434,307.741,68.6,307.741Z" transform="translate(0 0)"/>
          <path id="path9325-7-4-2" class="cls-152" d="M68.277,308.046a3.824,3.824,0,0,0-1.083-.619v.31l1.238.619Z" transform="translate(0 0)"/>
          <path id="path9327-1-4-2" class="cls-153" d="M68.122,308.2l-1.238-.62v.465l1.238.463Z" transform="translate(0 0)"/>
          <path id="path9329-7-4-2" class="cls-154" d="M69.207,308.973l-1.238-.464v.31l1.238.31Z" transform="translate(0 0)"/>
          <path id="path9331-25-4-2" class="cls-151" d="M69.207,309.126l-1.238-.31v.31l1.238.31Z" transform="translate(0 0)"/>
          <path id="path9333-0-4-2" class="cls-155" d="M69.051,309.439l-1.238-.309v.619h1.393C69.051,309.594,69.051,309.594,69.051,309.439Z" transform="translate(0 0)"/>
          <path id="path9335-3-4-2" class="cls-156" d="M67.969,308.51l-1.238-.463a.572.572,0,0,1-.155.463l1.238.31C67.969,308.665,67.969,308.665,67.969,308.51Z" transform="translate(0 0)"/>
          <path id="path9337-89-4-2" class="cls-153" d="M67.969,308.82l-1.238-.31v.464l1.238.31C67.969,308.973,67.813,308.973,67.969,308.82Z" transform="translate(0 0)"/>
          <path id="path9339-16-4-2" class="cls-108" d="M67.813,309.126l-1.238-.31v.93h1.384A.936.936,0,0,1,67.813,309.126Z" transform="translate(0 0)"/>
          <path id="path9341-9-4-2" class="cls-157" d="M69.051,309.746H67.659v.619l1.393-.155Z" transform="translate(0 0)"/>
          <path id="path9343-3-4-2" class="cls-158" d="M69.051,310.058l-1.393.155v.3l1.238-.31C69.051,310.213,69.051,310.213,69.051,310.058Z" transform="translate(0 0)"/>
          <path id="path9345-1-4-2" class="cls-159" d="M69.207,310.368l-1.238.31v.309l1.238-.464C69.051,310.518,69.051,310.518,69.207,310.368Z" transform="translate(0 0)"/>
          <path id="path9347-7-4-2" class="cls-160" d="M67.813,309.746H66.42v.929l1.393-.155c-1.546,2.634-3.095,2.942-3.242-.926C64.409,305.337,67.116,308.433,67.813,309.746Z" transform="translate(0 0)"/>
          <path id="path9349-91-4-2" class="cls-161" d="M67.813,310.368l-1.393.155v.464l1.238-.31C67.813,310.675,67.813,310.518,67.813,310.368Z" transform="translate(0 0)"/>
          <path id="path9351-0-4-2" class="cls-162" d="M67.813,310.675l-1.238.31v.464l1.238-.464Z" transform="translate(0 0)"/>
          <path id="path9353-7-4-2" class="cls-163" d="M69.207,310.675l-1.238.464v.155Z" transform="translate(0 0)"/>
          <path id="path9355-0-4-2" class="cls-164" d="M69.207,310.675l-1.238.464v.155Z" transform="translate(0 0)"/>
          <path id="path9357-7-4-2" class="cls-165" d="M69.361,310.833l-1.239.62a.334.334,0,0,0,.31.309l1.083-.619Z" transform="translate(0 0)"/>
          <path id="path9359-7-4-2" class="cls-166" d="M67.969,310.987l-1.238.464v.31l1.238-.464Z" transform="translate(0 0)"/>
          <path id="path9361-52-4-2" class="cls-167" d="M67.969,311.3l-1.238.463v.309l1.238-.619S68.122,311.3,67.969,311.3Z" transform="translate(0 0)"/>
          <path id="path9363-3-4-2" class="cls-168" d="M68.122,311.45l-1.238.619c0,.155.155.31.31.464l1.083-.773A.55.55,0,0,1,68.122,311.45Z" transform="translate(0 0)"/>
          <path id="path9365-6-4-2" class="cls-169" d="M69.517,311.139l-1.239.619.31.31c.31-.31.774-.619,1.084-.929Z" transform="translate(0 0)"/>
          <path id="path9367-0-4-2" class="cls-170" d="M69.67,311.3l-.464.463h0Z" transform="translate(0 0)"/>
          <path id="path9369-7-4-2" class="cls-171" d="M69.67,311.45l-.464.464h0Z" transform="translate(0 0)"/>
          <path id="path9371-0-4-2" class="cls-172" d="M69.051,311.76l-.619.463h0Z" transform="translate(0 0)"/>
          <path id="path9373-5-4-2" class="cls-173" d="M69.207,311.916l-.464.464.155.155Z" transform="translate(0 0)"/>
          <path id="path9375-4-4-2" class="cls-174" d="M68.277,311.76l-1.083.773L67.5,313a2.818,2.818,0,0,1,1.084-.774Z" transform="translate(0 0)"/>
          <path id="path9377-6-4-2" class="cls-175" d="M68.6,312.223a4.681,4.681,0,0,1-1.083.774l.154.155Z" transform="translate(0 0)"/>
          <path id="path9379-5-4-2" class="cls-176" d="M68.6,312.38l-.929.929.155.31.929-.929Z" transform="translate(0 0)"/>
          <path id="path9381-1-4-2" class="cls-130" d="M69.825,311.606h0l-.31.464h-.154Z" transform="translate(0 0)"/>
          <path id="path9383-8-4-2" class="cls-60" d="M69.361,312.07h.154a2.153,2.153,0,0,0-.464.62l-.309-.31Z" transform="translate(0 0)"/>
          <path id="path9385-57-4-2" class="cls-177" d="M69.982,311.76h.155l-.309.463h-.155Z" transform="translate(0 0)"/>
          <path id="path9387-9-4-2" class="cls-178" d="M69.517,312.223h.155l-.31.464h-.31Z" transform="translate(0 0)"/>
          <path id="path9389-20-4-2" class="cls-179" d="M68.9,312.531l-.928.929.309.31.929-.929Z" transform="translate(0 0)"/>
          <path id="path9391-7-4-2" class="cls-180" d="M69.051,312.689l-.929.93.31.308c.31-.308.464-.773.774-1.082Z" transform="translate(0 0)"/>
          <path id="path9393-4-4-2" class="cls-181" d="M70.135,311.76a.482.482,0,0,0,.309.155l-.464,1.237-.619-.31Z" transform="translate(0 0)"/>
          <path id="path9395-5-4-2" class="cls-182" d="M69.361,312.845l.619.309-.465,1.237-.928-.464A6.81,6.81,0,0,0,69.361,312.845Z" transform="translate(0 0)"/>
          <path id="path9397-9-4-2" class="cls-183" d="M70.444,312.07l-1.083,2.477.619.309c.309-.773.309-1.7.619-2.632Z" transform="translate(0 0)"/>
          <path id="path9399-0-4-2" class="cls-184" d="M70.755,312.07c-.31.773-.31,1.7-.619,2.632h.619a15.129,15.129,0,0,1,.31-2.632Z" transform="translate(0 0)"/>
          <path id="path9401-9-4-2" class="cls-185" d="M71.065,312.223a15.513,15.513,0,0,1-.31,2.631h.619v-2.631Z" transform="translate(0 0)"/>
          <path id="path9403-8-4-2" class="cls-186" d="M71.529,312.223v2.631h.619a18.625,18.625,0,0,0-.464-2.631Z" transform="translate(0 0)"/>
          <path id="path9405-6-4-2" class="cls-187" d="M71.839,312.223a4.309,4.309,0,0,0,.154,1.393h.465a1.746,1.746,0,0,0-.465-1.237Z" transform="translate(0 0)"/>
          <path id="path9407-44-4-2" class="cls-151" d="M72,312.07a1.748,1.748,0,0,0,.464,1.237l.465-.154a3.088,3.088,0,0,0-.62-1.237Z" transform="translate(0 0)"/>
          <path id="path9409-0-4-2" class="cls-188" d="M72.456,311.916a9.667,9.667,0,0,0,.62,1.238l.464-.31a2.8,2.8,0,0,0-.774-1.083Z" transform="translate(0 0)"/>
          <path id="path9411-0-4-2" class="cls-70" d="M72.625,311.76c.31.308.464.773.774,1.082l.464-.309c-.309-.309-.619-.773-.928-.929Z" transform="translate(0 0)"/>
          <path id="path9413-3-4-2" class="cls-87" d="M72,313.464a3.01,3.01,0,0,0,.155,1.238h.619a2.894,2.894,0,0,0-.31-1.238Z" transform="translate(0 0)"/>
          <path id="path9415-3-4-2" class="cls-65" d="M72.456,313.464a2.961,2.961,0,0,0,.31,1.238l.619-.31a8.983,8.983,0,0,0-.619-1.237Z" transform="translate(0 0)"/>
          <path id="path9417-4-4-2" class="cls-189" d="M72.921,313.153a9.726,9.726,0,0,0,.619,1.238c.155-.155.464-.155.619-.31-.309-.309-.464-.774-.774-1.083Z" transform="translate(0 0)"/>
          <path id="path9419-9-4-2" class="cls-190" d="M73.386,313a4.769,4.769,0,0,0,.774,1.084c.155-.155.31-.155.62-.31l-.929-1.084Z" transform="translate(0 0)"/>
          <path id="path9421-6-4-2" class="cls-43" d="M72.921,311.606c.155.311.619.619.929.93l.309-.309-.929-.929Z" transform="translate(0 0)"/>
          <path id="path9423-73-4-2" class="cls-68" d="M73.077,311.45l.929.929.309-.31-1.083-.774Z" transform="translate(0 0)"/>
          <path id="path9425-7-4-2" class="cls-68" d="M73.851,312.689l.929,1.083.464-.464-.929-.929Z" transform="translate(0 0)"/>
          <path id="path9427-4-4-2" class="cls-191" d="M74.16,312.38l.929.929c.155-.155.31-.31.31-.464l-1.084-.774Z" transform="translate(0 0)"/>
          <path id="path9429-8-4-2" class="cls-9" d="M73.386,311.3l1.084.772.31-.308a8.735,8.735,0,0,0-1.084-.619Z" transform="translate(0 0)"/>
          <path id="path9431-1-4-2" class="cls-150" d="M73.386,310.987c.31,0,.774.464,1.084.619,0-.155.155-.309.155-.464l-1.239-.463Z" transform="translate(0 0)"/>
          <path id="path9433-7-4-2" class="cls-192" d="M74.314,312.07l1.083.773c.155-.155.31-.308.31-.463l-1.083-.619Z" transform="translate(0 0)"/>
          <path id="path9435-1-4-2" class="cls-25" d="M74.625,311.606l1.083.619.31-.619-1.238-.463A.684.684,0,0,1,74.625,311.606Z" transform="translate(0 0)"/>
          <path id="path9437-5-4-2" class="cls-129" d="M76.023,311.76l1.856.773.464-1.393a9.669,9.669,0,0,1-2.013-.463A9.739,9.739,0,0,1,76.023,311.76Z" transform="translate(0 0)"/>
          <path id="path9439-2-4-2" class="cls-193" d="M76.325,310.833a9.458,9.458,0,0,1,2.013.465V309.9H76.325Z" transform="translate(0 0)"/>
          <path id="path9441-9-4-2" class="cls-55" d="M76.325,309.9h2.013v-1.238l-2.013.31C76.326,309,66.309,309.451,76.325,309.9Z" transform="translate(0 0)"/>
          <path id="path9443-41-4-2" class="cls-194" d="M76.325,308.973l2.013-.309a2.926,2.926,0,0,0-.309-1.237l-2.014.618C76.173,308.354,76.173,308.665,76.325,308.973Z" transform="translate(0 0)"/>
          <path id="path9445-2-4-2" class="cls-195" d="M76.023,308.046l1.856-.774a1.166,1.166,0,0,0-.309-.619l-1.857.929Z" transform="translate(0 0)"/>
          <path id="path9447-8-4-2" class="cls-177" d="M75.862,307.579l1.857-.929c-.155-.154-.155-.464-.309-.619l-1.7,1.084Z" transform="translate(0 0)"/>
          <path id="path9449-56-4-2" class="cls-54" d="M75.551,307.272l1.7-1.084c-.155-.154-.155-.309-.31-.619L75.4,306.653Z" transform="translate(0 0)"/>
          <path id="path9451-0-4-2" class="cls-196" d="M75.394,306.652l1.7-1.238-.619-.465-1.393,1.395Z" transform="translate(0 0)"/>
          <path id="path9453-0-4-2" class="cls-47" d="M74.934,306.5l1.393-1.393-.464-.464a12.7,12.7,0,0,1-1.393,1.548Z" transform="translate(0 0)"/>
          <path id="path9455-3-4-2" class="cls-197" d="M74.625,306.189c.309-.465,1.083-1.084,1.393-1.548l-.619-.464c-.31.619-.929,1.083-1.239,1.7Z" transform="translate(0 0)"/>
          <path id="path9457-7-4-2" class="cls-192" d="M74.16,305.878c.31-.619.929-1.084,1.239-1.7l-.619-.31a10.27,10.27,0,0,0-.929,1.858Z" transform="translate(0 0)"/>
          <path id="path9459-9-4-2" class="cls-137" d="M73.851,305.57a10.606,10.606,0,0,0,.929-1.858l-.62-.31-.774,1.858Z" transform="translate(0 0)"/>
          <path id="path9461-2-4-2" class="cls-43" d="M73.386,305.259l.774-1.858H73.7a7.606,7.606,0,0,0-.619,2.014Z" transform="translate(0 0)"/>
          <path id="path9463-5-4-2" class="cls-198" d="M72.921,305.259c.309-.619.309-1.393.619-2.014l-.619-.155c-.155.619-.31,1.393-.465,2.014Z" transform="translate(0 0)"/>
          <path id="path9465-9-4-2" class="cls-199" d="M72.625,305.1c.155-.619.31-1.393.464-2.014H72a8.891,8.891,0,0,1-.155,2.014Z" transform="translate(0 0)"/>
          <path id="path9467-2-4-2" class="cls-200" d="M72,304.95a8.659,8.659,0,0,1,.155-2.013H71.067v2.013Z" transform="translate(0 0)"/>
          <path id="path9469-5-4-2" class="cls-201" d="M71.065,304.95v-2.013h-.453a4.566,4.566,0,0,0,.309,2.013Z" transform="translate(0 0)"/>
          <path id="path9471-7-4-2" class="cls-202" d="M70.755,304.95a9.14,9.14,0,0,0-.31-2.013h-.619c.155.619.31,1.393.465,2.013Z" transform="translate(0 0)"/>
          <path id="path9473-8-4-2" class="cls-203" d="M70.291,305.1c-.155-.619-.31-1.393-.465-2.014h-.309a9.982,9.982,0,0,0,.619,2.014Z" transform="translate(0 0)"/>
          <path id="path9475-7-4-2" class="cls-202" d="M70.135,305.1a10.134,10.134,0,0,0-.62-2.014h-.308c.155.619.465,1.238.619,1.858Z" transform="translate(0 0)"/>
          <path id="path9477-1-4-2" class="cls-201" d="M69.825,305.259c-.155-.619-.464-1.238-.619-1.858l-.774.31a10.392,10.392,0,0,0,.929,1.857Z" transform="translate(0 0)"/>
          <path id="path9479-2-4-2" class="cls-200" d="M69.361,305.415c-.31-.463-.619-1.393-.929-1.858l-.619.31a16.606,16.606,0,0,0,1.083,1.7Z" transform="translate(0 0)"/>
          <path id="path9481-2-4-2" class="cls-199" d="M68.743,305.728a15.608,15.608,0,0,0-1.084-1.7l-.309.155c.309.465.928,1.238,1.238,1.7Z" transform="translate(0 0)"/>
          <path id="path9483-2-4-2" class="cls-198" d="M68.6,305.878c-.309-.464-.929-1.238-1.238-1.7l-.31.31,1.239,1.548Z" transform="translate(0 0)"/>
          <path id="path9485-4-4-2" class="cls-43" d="M68.277,306.033l-1.238-1.548-.31.155,1.393,1.547Z" transform="translate(0 0)"/>
          <path id="path9487-7-4-2" class="cls-138" d="M68.122,306.189l-1.393-1.548-.309.31,1.393,1.393Z" transform="translate(0 0)"/>
          <path id="path9489-0-4-2" class="cls-139" d="M67.813,306.344l-1.393-1.393-.619.619a16.523,16.523,0,0,0,1.7,1.237Z" transform="translate(0 0)"/>
          <path id="path9491-7-4-2" class="cls-127" d="M67.5,306.807a16.144,16.144,0,0,0-1.7-1.239l-.465.774a16.34,16.34,0,0,1,1.7,1.084Z" transform="translate(0 0)"/>
          <path id="path9493-2-4-2" class="cls-156" d="M67.039,307.426a16.9,16.9,0,0,1-1.7-1.084l-.155.31,1.858.928Z" transform="translate(0 0)"/>
          <path id="path9495-5-4-2" class="cls-204" d="M66.887,307.741l-1.7-1.083-.155.464,1.858.774Z" transform="translate(0 0)"/>
          <path id="path9497-7-4-2" class="cls-129" d="M66.729,308.046l-1.856-.774c-.155.155-.155.464-.309.619.619.31,1.393.31,2.013.619A.582.582,0,0,0,66.729,308.046Z" transform="translate(0 0)"/>
          <path id="path9499-5-4-2" class="cls-47" d="M66.585,308.51c-.62-.309-1.394-.309-2.014-.619v.619c.619.155,1.393.31,2.014.465Z" transform="translate(0 0)"/>
          <path id="path9501-2-4-2" class="cls-66" d="M66.585,308.82c-.62-.155-1.394-.31-2.014-.464v1.238h2.014Z" transform="translate(0 0)"/>
          <path id="path9503-86-4-2" class="cls-205" d="M66.421,309.746H64.407v1.24l2.014-.31Z" transform="translate(0 0)"/>
          <path id="path9505-1-4-2" class="cls-206" d="M66.421,310.675l-2.014.31v.619c0,.155,1.548-.31,2.014-.464Z" transform="translate(0 0)"/>
          <path id="path9507-78-4-2" class="cls-165" d="M66.585,310.987a9.451,9.451,0,0,0-2.014.464c0,.155.155.465.155.619l2.013-.619Z" transform="translate(0 0)"/>
          <path id="path9509-95-4-2" class="cls-207" d="M66.729,311.45l-.928.31v.31l.928-.31Z" transform="translate(0 0)"/>
          <path id="path9511-25-4-2" class="cls-208" d="M66.729,311.76l-.928.308v.31l.928-.463Z" transform="translate(0 0)"/>
          <path id="path9513-8-4-2" class="cls-209" d="M66.887,312.07l-.929.465a1.152,1.152,0,0,1,.309.619l.929-.619C67.039,312.38,67.039,312.223,66.887,312.07Z" transform="translate(0 0)"/>
          <path id="path9515-4-4-2" class="cls-210" d="M65.647,311.76l-.929.308v.31l.929-.31Z" transform="translate(0 0)"/>
          <path id="path9517-7-4-2" class="cls-211" d="M65.8,312.07l-.929.31a.532.532,0,0,0,.155.309l.928-.465C65.955,312.38,65.955,312.223,65.8,312.07Z" transform="translate(0 0)"/>
          <path id="path9519-9-4-2" class="cls-212" d="M65.955,312.38l-.928.464.464.774L66.42,313C66.111,312.845,66.111,312.689,65.955,312.38Z" transform="translate(0 0)"/>
          <path id="path9521-7-4-2" class="cls-213" d="M67.195,312.531l-.929.619c.155.155.31.465.465.619l.774-.619Z" transform="translate(0 0)"/>
          <path id="path9523-6-4-2" class="cls-100" d="M67.5,313l-.774.619.31.31.774-.774Z" transform="translate(0 0)"/>
          <path id="path9525-4-4-2" class="cls-55" d="M67.659,313.153l-.774.774.31.309.774-.773Z" transform="translate(0 0)"/>
          <path id="path9527-0-4-2" class="cls-214" d="M66.265,313l-.929.619a2.152,2.152,0,0,0,.465.619l.774-.619C66.585,313.464,66.421,313.308,66.265,313Z" transform="translate(0 0)"/>
          <path id="path9529-0-4-2" class="cls-117" d="M66.729,313.464l-.774.619.31.31.774-.62Z" transform="translate(0 0)"/>
          <path id="path9531-2-4-2" class="cls-179" d="M67.039,313.928l-.774.619.31.31.773-.774Z" transform="translate(0 0)"/>
          <path id="path9533-6-4-2" class="cls-131" d="M67.969,313.464l-.774.774.464.309.619-.774Z" transform="translate(0 0)"/>
          <path id="path9535-36-4-2" class="cls-181" d="M68.277,313.771l-.619.774.464.309.62-.928Z" transform="translate(0 0)"/>
          <path id="path9537-9-4-2" class="cls-178" d="M67.195,314.08c.31.31.619.465.929.774l-.619.929-1.084-.774Z" transform="translate(0 0)"/>
          <path id="path9539-4-4-2" class="cls-215" d="M68.6,313.928l-1.083,1.7a3.123,3.123,0,0,0,1.238.619l.774-1.858A1.1,1.1,0,0,1,68.6,313.928Z" transform="translate(0 0)"/>
          <path id="path9541-7-4-2" class="cls-216" d="M69.517,314.393l-.774,1.856a2.188,2.188,0,0,0,.929.31,9.54,9.54,0,0,0,.464-2.014Z" transform="translate(0 0)"/>
          <path id="path9543-2-4-2" class="cls-181" d="M70.135,314.7a9.453,9.453,0,0,0-.465,2.014h.942a8.721,8.721,0,0,1,.154-2.014Z" transform="translate(0 0)"/>
          <path id="path9545-4-4-2" class="cls-217" d="M70.909,314.854c-.155.619,0,1.393-.155,2.014a3.743,3.743,0,0,0,1.857,0c0-.619-.309-1.548-.309-2.014Z" transform="translate(0 0)"/>
          <path id="path9547-91-4-2" class="cls-218" d="M72.147,314.7c0,.619.309,1.548.309,2.014a8.8,8.8,0,0,0,1.858-.62c-.31-.464-.619-1.393-.929-1.857A1.773,1.773,0,0,1,72.147,314.7Z" transform="translate(0 0)"/>
          <path id="path9549-1-4-2" class="cls-219" d="M73.54,314.393c.31.464.619,1.393.929,1.856l.774-.463c-.31-.464-.774-1.238-1.084-1.7A.8.8,0,0,0,73.54,314.393Z" transform="translate(0 0)"/>
          <path id="path9551-6-4-2" class="cls-9" d="M74.16,314.08a16.34,16.34,0,0,0,1.084,1.7l.774-.619c-.465-.464-.929-1.084-1.393-1.548Z" transform="translate(0 0)"/>
          <path id="path9553-84-4-2" class="cls-4" d="M74.625,313.464a13.021,13.021,0,0,0,1.393,1.548l.619-.619A12.783,12.783,0,0,1,75.089,313Z" transform="translate(0 0)"/>
          <path id="path9555-5-4-2" class="cls-67" d="M75.088,313.308a12.783,12.783,0,0,0,1.548,1.393l.464-.619a16.156,16.156,0,0,0-1.7-1.239C75.243,313,75.243,313.153,75.088,313.308Z" transform="translate(0 0)"/>
          <path id="path9557-92-4-2" class="cls-76" d="M75.394,312.845a16.682,16.682,0,0,0,1.7,1.238c.155-.155.31-.466.465-.619a10.4,10.4,0,0,0-1.858-.929Z" transform="translate(0 0)"/>
          <path id="path9559-2-4-2" class="cls-151" d="M75.708,312.38a10.335,10.335,0,0,0,1.858.929c.155-.31.309-.464.309-.774l-1.857-.774Z" transform="translate(0 0)"/>
          <line class="cls-220" x1="71.451" y1="302.881" x2="71.451" y2="316.921"/>
          <line class="cls-220" x1="64.43" y1="309.901" x2="78.471" y2="309.901"/>
        </g>
        <path class="cls-221" d="M71.529,302.782h0a7.2,7.2,0,0,1,7.12,7.119h0a7.2,7.2,0,0,1-7.12,7.12h0a7.207,7.207,0,0,1-7.12-7.12h0a7.006,7.006,0,0,1,6.888-7.119Z" transform="translate(0 0)"/>
      </g>
    </g>
  </g>
  <g id="середина-крышка_снимается" data-name="середина-крышка снимается">
    <path id="середина" class="cls-222" d="M22.736,324.692S21.61,268.58,21.61,261.284c0-5.664,32.222-15,53.342-14.976,18.993.021,51.072,11.52,51.072,14.976s-3.072,63.412-3.072,63.412" transform="translate(0 0)"/>
    <rect class="cls-96" x="27.155" y="320.974" width="91.968" height="2.832"/>
    <rect class="cls-223" x="27.155" y="286.866" width="91.632" height="15.297"/>
    <rect class="cls-224" x="27.155" y="304.184" width="90.936" height="14.534"/>
    <g>
      <rect class="cls-225" x="22.949" y="259.724" width="99.36" height="26.64"/>
      <rect class="cls-226" x="22.949" y="259.724" width="99.36" height="25.64"/>
      <g>
        <g>
          <rect class="cls-31" x="43.828" y="259.724" width="12.131" height="22.608"/>
          <rect class="cls-2" x="44.275" y="260.557" width="11.237" height="20.942"/>
          <rect class="cls-31" x="44.275" y="269.142" width="11.237" height="3.772"/>
        </g>
        <g>
          <rect class="cls-154" x="23.828" y="259.724" width="12.131" height="22.608"/>
          <rect class="cls-2" x="24.275" y="260.557" width="11.237" height="20.942"/>
          <rect class="cls-31" x="24.275" y="269.142" width="11.237" height="3.772"/>
        </g>
        <g>
          <rect class="cls-154" x="58.828" y="259.724" width="12.131" height="22.608"/>
          <rect class="cls-2" x="59.275" y="260.557" width="11.237" height="20.942"/>
          <rect class="cls-31" x="59.275" y="269.142" width="11.237" height="3.772"/>
        </g>
        <g>
          <rect class="cls-154" x="78.828" y="259.724" width="12.131" height="22.608"/>
          <rect class="cls-2" x="79.275" y="260.557" width="11.237" height="20.942"/>
          <rect class="cls-31" x="79.275" y="269.142" width="11.237" height="3.772"/>
        </g>
        <g>
          <rect class="cls-154" x="98.828" y="259.724" width="12.131" height="22.608"/>
          <rect class="cls-2" x="99.275" y="260.557" width="11.237" height="20.942"/>
          <rect class="cls-31" x="99.275" y="269.142" width="11.237" height="3.772"/>
        </g>
        <g>
          <rect class="cls-154" x="112.828" y="259.724" width="12.131" height="22.608"/>
          <rect class="cls-2" x="113.275" y="260.557" width="11.237" height="20.942"/>
          <rect class="cls-31" x="113.275" y="269.142" width="11.237" height="3.772"/>
        </g>
      </g>
    </g>
    <path class="cls-227" d="M75.038,246.55c-20.711-.019-52.307,8.926-52.307,14.362,0,6.989,1.109,60.8,1.109,60.8h98.268s3.02-57.487,3.02-60.8S93.67,246.569,75.038,246.55Zm46.8,22.828a2.426,2.426,0,0,1-2.452,2.4h-1.226v49.414c0,.01,0,.01-.01.01H28.164V271.775H26.84a2.409,2.409,0,0,1-2.441-2.388v-4.333a2.425,2.425,0,0,1,2.451-2.4h1.422a2.713,2.713,0,0,1,2.618-1.927h84.54a2.712,2.712,0,0,1,2.618,1.927h1.334a2.426,2.426,0,0,1,2.452,2.4Z" transform="translate(0 0)"/>
    <path class="cls-228" d="M75.07,245.946c-21.31-.02-53.821,9.31-53.821,14.98,0,7.29,1.14,63.41,1.14,63.41H123.5s3.108-59.96,3.108-63.41S94.242,245.966,75.07,245.946Zm48.151,23.81a2.512,2.512,0,0,1-2.523,2.5h-1.261V323.8c0,.01,0,.01-.01.01H26.839v-51.55H25.476a2.5,2.5,0,0,1-2.512-2.49v-4.52a2.512,2.512,0,0,1,2.523-2.5H26.95a2.8,2.8,0,0,1,2.694-2.01h86.988a2.8,2.8,0,0,1,2.694,2.01H120.7a2.512,2.512,0,0,1,2.523,2.5Z" transform="translate(0 0)"/>
    <path class="cls-154" d="M80.505,321.176h-18.1v-1.117l1.443-2.559a11.41,11.41,0,0,0,7.852,3.256,11.6,11.6,0,0,0,7.639-2.975l1.162,2.278Z" transform="translate(0 0)"/>
    <rect class="cls-154" x="60.607" y="299.432" width="21.701" height="21.701" rx="10.85"/>
    <path class="cls-229" d="M71.457,318.3a8.016,8.016,0,1,1,8.016-8.016A8.025,8.025,0,0,1,71.457,318.3Z" transform="translate(0 0)"/>
    <path class="cls-229" d="M105.828,298.176a3.662,3.662,0,1,1,3.662-3.662A3.666,3.666,0,0,1,105.828,298.176Z" transform="translate(0 0)"/>
  </g>
</svg>
