<svg id="sonoff-smart-switch-minir2" xmlns="http://www.w3.org/2000/svg" xmlns:xlink="http://www.w3.org/1999/xlink" width="95.249mm" height="44.095mm" viewBox="0 0 269.998 124.993">
  <defs>
    <style>
      .cls-1 {
        fill: #232322;
      }

      .cls-2 {
        fill: #515150;
      }

      .cls-3 {
        fill: #191919;
      }

      .cls-4 {
        fill: #353535;
      }

      .cls-5 {
        fill: #4f4f4e;
      }

      .cls-6 {
        fill: #8b8b8b;
      }

      .cls-7 {
        fill: #666;
      }

      .cls-8, .cls-9 {
        opacity: 0.15;
        isolation: isolate;
      }

      .cls-17, .cls-24, .cls-26, .cls-9 {
        fill: #fff;
      }

      .cls-10 {
        fill: #d0d0d0;
      }

      .cls-11 {
        fill: #3f382f;
      }

      .cls-12 {
        fill: #878787;
      }

      .cls-13, .cls-28, .cls-29, .cls-30, .cls-31, .cls-32, .cls-33, .cls-34, .cls-35, .cls-36, .cls-37 {
        fill: #ccc;
      }

      .cls-14 {
        fill: #e6e6e6;
      }

      .cls-15, .cls-16, .cls-25 {
        fill: #b3b3b3;
      }

      .cls-16 {
        font-size: 14px;
        font-family: TrebuchetMS-Bold, Trebuchet MS;
        font-weight: 700;
      }

      .cls-17 {
        font-size: 4px;
      }

      .cls-17, .cls-23, .cls-38, .cls-39 {
        font-family: TrebuchetMS, Trebuchet MS;
      }

      .cls-18 {
        letter-spacing: -0.014em;
      }

      .cls-19 {
        letter-spacing: -0.055em;
      }

      .cls-20 {
        letter-spacing: -0.018em;
      }

      .cls-21 {
        letter-spacing: -0.125em;
      }

      .cls-22, .cls-48 {
        fill: none;
      }

      .cls-22 {
        stroke: #fff;
      }

      .cls-22, .cls-28, .cls-29, .cls-30, .cls-31, .cls-32, .cls-33, .cls-34, .cls-35, .cls-36, .cls-37, .cls-41, .cls-42, .cls-43, .cls-44, .cls-45, .cls-46, .cls-48 {
        stroke-miterlimit: 10;
      }

      .cls-22, .cls-31, .cls-32, .cls-33, .cls-34, .cls-35, .cls-36 {
        stroke-width: 0.709px;
      }

      .cls-23 {
        font-size: 6px;
        fill: #cecece;
      }

      .cls-25, .cls-26 {
        fill-rule: evenodd;
      }

      .cls-27, .cls-38, .cls-39 {
        fill: #f4f4f4;
      }

      .cls-28, .cls-29, .cls-30 {
        stroke-width: 0.425px;
      }

      .cls-28 {
        stroke: url(#Безымянный_градиент_23);
      }

      .cls-29 {
        stroke: url(#Безымянный_градиент_23-2);
      }

      .cls-30 {
        stroke: url(#Безымянный_градиент_23-3);
      }

      .cls-31 {
        stroke: url(#Безымянный_градиент_23-4);
      }

      .cls-32 {
        stroke: url(#Безымянный_градиент_23-5);
      }

      .cls-33 {
        stroke: url(#Безымянный_градиент_23-6);
      }

      .cls-34 {
        stroke: url(#Безымянный_градиент_23-7);
      }

      .cls-35 {
        stroke: url(#Безымянный_градиент_23-8);
      }

      .cls-36 {
        stroke: url(#Безымянный_градиент_23-9);
      }

      .cls-37 {
        stroke: #e6e6e6;
        stroke-width: 0.709px;
      }

      .cls-38, .cls-39 {
        font-size: 5px;
      }

      .cls-38, .cls-40 {
        letter-spacing: -0.1em;
      }

      .cls-39 {
        letter-spacing: -0.137em;
      }

      .cls-41, .cls-42, .cls-43, .cls-44, .cls-45, .cls-46 {
        fill: #f2f2f2;
        stroke-width: 0.283px;
      }

      .cls-41 {
        stroke: url(#Безымянный_градиент_4);
      }

      .cls-42 {
        stroke: url(#Безымянный_градиент_4-2);
      }

      .cls-43 {
        stroke: url(#Безымянный_градиент_4-3);
      }

      .cls-44 {
        stroke: url(#Безымянный_градиент_4-4);
      }

      .cls-45 {
        stroke: url(#Безымянный_градиент_4-5);
      }

      .cls-46 {
        stroke: url(#Безымянный_градиент_4-6);
      }

      .cls-47 {
        fill: #dcdcd9;
      }

      .cls-48 {
        stroke: #322a23;
        stroke-linecap: round;
        stroke-width: 1.417px;
      }
    </style>
    <linearGradient id="Безымянный_градиент_23" data-name="Безымянный градиент 23" x1="32.742" y1="35.862" x2="35.465" y2="35.862" gradientUnits="userSpaceOnUse">
      <stop offset="0" stop-color="#ccc"/>
      <stop offset="1" stop-color="#999"/>
    </linearGradient>
    <linearGradient id="Безымянный_градиент_23-2" x1="31.618" y1="35.863" x2="33.936" y2="35.863" xlink:href="#Безымянный_градиент_23"/>
    <linearGradient id="Безымянный_градиент_23-3" x1="30.496" y1="35.862" x2="32.401" y2="35.862" xlink:href="#Безымянный_градиент_23"/>
    <linearGradient id="Безымянный_градиент_23-4" x1="20.253" y1="42.642" x2="29.728" y2="42.642" xlink:href="#Безымянный_градиент_23"/>
    <linearGradient id="Безымянный_градиент_23-5" x1="30.581" y1="46.032" x2="40.921" y2="46.032" xlink:href="#Безымянный_градиент_23"/>
    <linearGradient id="Безымянный_градиент_23-6" x1="52.967" y1="46.032" x2="63.307" y2="46.032" xlink:href="#Безымянный_градиент_23"/>
    <linearGradient id="Безымянный_градиент_23-7" x1="41.774" y1="45.99" x2="52.114" y2="45.99" xlink:href="#Безымянный_градиент_23"/>
    <linearGradient id="Безымянный_градиент_23-8" x1="64.16" y1="46.02" x2="74.494" y2="46.02" xlink:href="#Безымянный_градиент_23"/>
    <linearGradient id="Безымянный_градиент_23-9" x1="75.347" y1="46.02" x2="85.68" y2="46.02" xlink:href="#Безымянный_градиент_23"/>
    <linearGradient id="Безымянный_градиент_4" data-name="Безымянный градиент 4" x1="22.275" y1="311.027" x2="25.651" y2="311.027" gradientTransform="matrix(1, 0, 0, -1, 0, 410.83)" gradientUnits="userSpaceOnUse">
      <stop offset="0" stop-color="#f2f2f2"/>
      <stop offset="1" stop-color="#999"/>
    </linearGradient>
    <linearGradient id="Безымянный_градиент_4-2" x1="37.028" y1="311.027" x2="40.404" y2="311.027" xlink:href="#Безымянный_градиент_4"/>
    <linearGradient id="Безымянный_градиент_4-3" x1="51.781" y1="311.027" x2="55.156" y2="311.027" xlink:href="#Безымянный_градиент_4"/>
    <linearGradient id="Безымянный_градиент_4-4" x1="66.533" y1="311.027" x2="69.909" y2="311.027" xlink:href="#Безымянный_градиент_4"/>
    <linearGradient id="Безымянный_градиент_4-5" x1="81.286" y1="311.027" x2="84.662" y2="311.027" xlink:href="#Безымянный_градиент_4"/>
    <linearGradient id="Безымянный_градиент_4-6" x1="96.039" y1="311.027" x2="99.415" y2="311.027" xlink:href="#Безымянный_градиент_4"/>
  </defs>
  <title>sonoff-smart-switch-minir2</title>
  <g id="bottom">
    <g>
      <g id="X-screw-5.00-2pin">
        <path class="cls-1" d="M252.789,122.805V101.669c0-1.208-2.011-2.188-4.491-2.188H199.1c-2.48,0-4.491.98-4.491,2.188v21.136c0,1.209,2.011,2.188,4.491,2.188h49.2C250.778,124.993,252.789,124.014,252.789,122.805Z"/>
        <path class="cls-2" d="M194.815,103.733a.206.206,0,0,1-.206-.206v-2.408c-.089-.852,1.244-1.582,2.993-1.638H250.8c1.749.056,2.083.785,1.994,1.638v2.614Z"/>
        <path class="cls-3" d="M252.386,120.741a.4.4,0,0,1,.4.4v3.211c.09.854-1.244.584-2.994.638H196.6c-1.75-.054-2.084-.784-1.993-1.638v-2.407a.207.207,0,0,1,.206-.207Z"/>
        <g id="pin4-5">
          <path id="_0.2.13.5.1.0-8-0-9-31-5" data-name=" 0.2.13.5.1.0-8-0-9-31-5" class="cls-4" d="M231.568,105.776a6.441,6.441,0,0,0-6.347,6.36h12.707a6.4,6.4,0,0,0-6.36-6.414Z"/>
          <path id="_0.2.13.5.1.1-5-0-2-66-5" data-name=" 0.2.13.5.1.1-5-0-2-66-5" class="cls-5" d="M231.568,118.7a6.414,6.414,0,0,0,6.373-6.454h-12.7a6.415,6.415,0,0,0,6.225,6.509h0Z"/>
          <path id="_0.2.13.5.1.2.0-8-9-1-1-5" data-name=" 0.2.13.5.1.2.0-8-9-1-1-5" class="cls-6" d="M231.568,106.954a5.223,5.223,0,0,1,0,10.432,5.016,5.016,0,0,1-3.586-1.5,5.236,5.236,0,0,1,3.586-8.93Z"/>
          <path id="_0.2.13.5.1.3.0-1-9-3-0-5" data-name=" 0.2.13.5.1.3.0-1-9-3-0-5" class="cls-7" d="M236.182,112.136a4.172,4.172,0,0,0-.176-1.232H226.9a4.148,4.148,0,0,0-.19,1.232,3.944,3.944,0,0,0,.19,1.19h9.133A5.031,5.031,0,0,0,236.182,112.136Z"/>
          <path id="_0.2.13.5.1.4.0-0-6-5-2-5" data-name=" 0.2.13.5.1.4.0-0-6-5-2-5" class="cls-8" d="M226.711,113.259v.23h9.3v-.2Z"/>
          <path id="_0.2.13.5.1.4.1-0-85-6-0-5" data-name=" 0.2.13.5.1.4.1-0-85-6-0-5" class="cls-9" d="M236.1,111.256v-.249h-9.39v.23Z"/>
          <path d="M236.886,112.135h0a5.414,5.414,0,0,0-5.413-5.413h0a5.413,5.413,0,1,0,5.413,5.414Zm-10.161,0a4.817,4.817,0,0,1,4.75-4.818h.04a4.818,4.818,0,1,1-4.818,4.818Z"/>
        </g>
        <g id="pin3-5">
          <path id="_0.2.13.5.1.0-8-0-9-31-2-6" data-name=" 0.2.13.5.1.0-8-0-9-31-2-6" class="cls-4" d="M245.658,105.776a6.387,6.387,0,0,0-6.347,6.36h12.706A6.389,6.389,0,0,0,245.658,105.776Z"/>
          <path id="_0.2.13.5.1.1-5-0-2-66-2-6" data-name=" 0.2.13.5.1.1-5-0-2-66-2-6" class="cls-5" d="M245.658,118.7a6.414,6.414,0,0,0,6.347-6.455h-12.72a6.414,6.414,0,0,0,6.279,6.509h0Z"/>
          <path id="_0.2.13.5.1.2.0-8-9-1-1-2-6" data-name=" 0.2.13.5.1.2.0-8-9-1-1-2-6" class="cls-6" d="M245.658,106.954a5.223,5.223,0,0,1,0,10.432,5.064,5.064,0,0,1-3.6-1.5,5.223,5.223,0,0,1,0-7.375h0A5.115,5.115,0,0,1,245.658,106.954Z"/>
          <path id="_0.2.13.5.1.3.0-1-9-3-0-2-6" data-name=" 0.2.13.5.1.3.0-1-9-3-0-2-6" class="cls-7" d="M250.282,112.136a4.148,4.148,0,0,0-.19-1.232h-9.148a4.238,4.238,0,0,0-.176,1.232,4.035,4.035,0,0,0,.176,1.19h9.162A5.049,5.049,0,0,0,250.282,112.136Z"/>
          <path id="_0.2.13.5.1.4.0-0-6-5-2-2-6" data-name=" 0.2.13.5.1.4.0-0-6-5-2-2-6" class="cls-8" d="M240.811,113.259v.23h9.27v-.2Z"/>
          <path id="_0.2.13.5.1.4.1-0-85-6-0-2-6" data-name=" 0.2.13.5.1.4.1-0-85-6-0-2-6" class="cls-9" d="M250.173,111.256v-.249h-9.364v.23Z"/>
          <path d="M250.972,112.135h0a5.413,5.413,0,0,0-5.413-5.412h0a5.413,5.413,0,1,0,5.413,5.413Zm-10.216-.027a4.817,4.817,0,0,1,4.818-4.79h0a4.818,4.818,0,1,1-4.818,4.818Z"/>
        </g>
      </g>
      <g id="X-screw-5.00-2pin-2" data-name="X-screw-5.00-2pin">
        <g id="pin4-5-2" data-name="pin4-5">
          <path id="_0.2.13.5.1.0-8-0-9-31-5-2" data-name=" 0.2.13.5.1.0-8-0-9-31-5" class="cls-4" d="M201.731,105.776a6.441,6.441,0,0,0-6.347,6.36h12.707a6.4,6.4,0,0,0-6.36-6.414Z"/>
          <path id="_0.2.13.5.1.1-5-0-2-66-5-2" data-name=" 0.2.13.5.1.1-5-0-2-66-5" class="cls-5" d="M201.731,118.7a6.414,6.414,0,0,0,6.373-6.454H195.4a6.414,6.414,0,0,0,6.225,6.509h0Z"/>
          <path id="_0.2.13.5.1.2.0-8-9-1-1-5-2" data-name=" 0.2.13.5.1.2.0-8-9-1-1-5" class="cls-6" d="M201.731,106.954a5.223,5.223,0,0,1,0,10.432,5.014,5.014,0,0,1-3.586-1.5,5.236,5.236,0,0,1,3.586-8.93Z"/>
          <path id="_0.2.13.5.1.3.0-1-9-3-0-5-2" data-name=" 0.2.13.5.1.3.0-1-9-3-0-5" class="cls-7" d="M206.345,112.136a4.172,4.172,0,0,0-.176-1.232h-9.106a4.148,4.148,0,0,0-.19,1.232,3.944,3.944,0,0,0,.19,1.19H206.2A5.031,5.031,0,0,0,206.345,112.136Z"/>
          <path id="_0.2.13.5.1.4.0-0-6-5-2-5-2" data-name=" 0.2.13.5.1.4.0-0-6-5-2-5" class="cls-8" d="M196.874,113.259v.23h9.3v-.2Z"/>
          <path id="_0.2.13.5.1.4.1-0-85-6-0-5-2" data-name=" 0.2.13.5.1.4.1-0-85-6-0-5" class="cls-9" d="M206.264,111.256v-.249h-9.39v.23Z"/>
          <path d="M207.049,112.135h0a5.414,5.414,0,0,0-5.413-5.413h0a5.413,5.413,0,1,0,5.413,5.414Zm-10.161,0a4.816,4.816,0,0,1,4.75-4.818h.04a4.818,4.818,0,1,1-4.818,4.818Z"/>
        </g>
        <g id="pin3-5-2" data-name="pin3-5">
          <path id="_0.2.13.5.1.0-8-0-9-31-2-6-2" data-name=" 0.2.13.5.1.0-8-0-9-31-2-6" class="cls-4" d="M215.821,105.776a6.387,6.387,0,0,0-6.347,6.36H222.18A6.389,6.389,0,0,0,215.821,105.776Z"/>
          <path id="_0.2.13.5.1.1-5-0-2-66-2-6-2" data-name=" 0.2.13.5.1.1-5-0-2-66-2-6" class="cls-5" d="M215.821,118.7a6.414,6.414,0,0,0,6.347-6.455h-12.72a6.414,6.414,0,0,0,6.279,6.509h0Z"/>
          <path id="_0.2.13.5.1.2.0-8-9-1-1-2-6-2" data-name=" 0.2.13.5.1.2.0-8-9-1-1-2-6" class="cls-6" d="M215.821,106.954a5.223,5.223,0,0,1,0,10.432,5.064,5.064,0,0,1-3.6-1.5,5.223,5.223,0,0,1,0-7.375h0A5.114,5.114,0,0,1,215.821,106.954Z"/>
          <path id="_0.2.13.5.1.3.0-1-9-3-0-2-6-2" data-name=" 0.2.13.5.1.3.0-1-9-3-0-2-6" class="cls-7" d="M220.445,112.136a4.148,4.148,0,0,0-.19-1.232h-9.148a4.2,4.2,0,0,0-.176,1.232,4.035,4.035,0,0,0,.176,1.19h9.162A5.049,5.049,0,0,0,220.445,112.136Z"/>
          <path id="_0.2.13.5.1.4.0-0-6-5-2-2-6-2" data-name=" 0.2.13.5.1.4.0-0-6-5-2-2-6" class="cls-8" d="M210.974,113.259v.23h9.27v-.2Z"/>
          <path id="_0.2.13.5.1.4.1-0-85-6-0-2-6-2" data-name=" 0.2.13.5.1.4.1-0-85-6-0-2-6" class="cls-9" d="M220.336,111.256v-.249h-9.364v.23Z"/>
          <path d="M221.135,112.135h0a5.413,5.413,0,0,0-5.413-5.412h0a5.413,5.413,0,1,0,5.413,5.413Zm-10.216-.027a4.817,4.817,0,0,1,4.818-4.79h0a4.818,4.818,0,1,1-4.818,4.818Z"/>
        </g>
      </g>
      <g id="X-screw-5.00-2pin-3" data-name="X-screw-5.00-2pin">
        <path class="cls-10" d="M194.607,122.805V101.669a2.213,2.213,0,0,0-2.237-2.188h-24.5a2.213,2.213,0,0,0-2.237,2.188v21.136a2.213,2.213,0,0,0,2.237,2.188h24.5A2.212,2.212,0,0,0,194.607,122.805Z"/>
        <path class="cls-11" d="M165.63,103.733v-2.614a1.576,1.576,0,0,1,1.491-1.638h26a1.575,1.575,0,0,1,1.491,1.638v2.614Z"/>
        <path class="cls-12" d="M194.607,120.741v2.614c.045.854-.159,1.584-1.031,1.638H167.121a1.572,1.572,0,0,1-1.491-1.638v-2.614Z"/>
        <g id="pin4-5-3" data-name="pin4-5">
          <path id="_0.2.13.5.1.0-8-0-9-31-5-3" data-name=" 0.2.13.5.1.0-8-0-9-31-5" class="cls-11" d="M173.384,105.775a6.443,6.443,0,0,0-6.347,6.36h12.707a6.4,6.4,0,0,0-6.36-6.414Z"/>
          <path id="_0.2.13.5.1.1-5-0-2-66-5-3" data-name=" 0.2.13.5.1.1-5-0-2-66-5" class="cls-12" d="M173.384,118.7a6.413,6.413,0,0,0,6.373-6.454h-12.7a6.414,6.414,0,0,0,6.225,6.509h0Z"/>
          <path id="_0.2.13.5.1.2.0-8-9-1-1-5-3" data-name=" 0.2.13.5.1.2.0-8-9-1-1-5" class="cls-6" d="M173.384,106.953a5.223,5.223,0,0,1,0,10.432,5.008,5.008,0,0,1-3.586-1.5,5.236,5.236,0,0,1,3.586-8.93Z"/>
          <path id="_0.2.13.5.1.3.0-1-9-3-0-5-3" data-name=" 0.2.13.5.1.3.0-1-9-3-0-5" class="cls-7" d="M178,112.135a4.181,4.181,0,0,0-.176-1.232h-9.106a4.158,4.158,0,0,0-.19,1.232,3.934,3.934,0,0,0,.19,1.19h9.133A5.018,5.018,0,0,0,178,112.135Z"/>
          <path id="_0.2.13.5.1.4.0-0-6-5-2-5-3" data-name=" 0.2.13.5.1.4.0-0-6-5-2-5" class="cls-8" d="M168.527,113.258v.23h9.3v-.2Z"/>
          <path id="_0.2.13.5.1.4.1-0-85-6-0-5-3" data-name=" 0.2.13.5.1.4.1-0-85-6-0-5" class="cls-9" d="M177.917,111.255v-.249h-9.39v.23Z"/>
          <path d="M178.7,112.134h0a5.416,5.416,0,0,0-5.413-5.413h0a5.413,5.413,0,1,0,5.413,5.414Zm-10.161,0a4.818,4.818,0,0,1,4.75-4.818h.04a4.818,4.818,0,1,1-4.818,4.818Z"/>
        </g>
        <g id="pin3-5-3" data-name="pin3-5">
          <path id="_0.2.13.5.1.0-8-0-9-31-2-6-3" data-name=" 0.2.13.5.1.0-8-0-9-31-2-6" class="cls-11" d="M187.474,105.775a6.388,6.388,0,0,0-6.347,6.36h12.706A6.39,6.39,0,0,0,187.474,105.775Z"/>
          <path id="_0.2.13.5.1.1-5-0-2-66-2-6-3" data-name=" 0.2.13.5.1.1-5-0-2-66-2-6" class="cls-12" d="M187.474,118.7a6.413,6.413,0,0,0,6.347-6.455H181.1a6.413,6.413,0,0,0,6.279,6.509h0Z"/>
          <path id="_0.2.13.5.1.2.0-8-9-1-1-2-6-3" data-name=" 0.2.13.5.1.2.0-8-9-1-1-2-6" class="cls-6" d="M187.474,106.953a5.223,5.223,0,0,1,0,10.432,5.056,5.056,0,0,1-3.6-1.5,5.223,5.223,0,0,1,0-7.375h0A5.122,5.122,0,0,1,187.474,106.953Z"/>
          <path id="_0.2.13.5.1.3.0-1-9-3-0-2-6-3" data-name=" 0.2.13.5.1.3.0-1-9-3-0-2-6" class="cls-7" d="M192.1,112.135a4.158,4.158,0,0,0-.19-1.232H182.76a4.248,4.248,0,0,0-.176,1.232,4.026,4.026,0,0,0,.176,1.19h9.162A5.034,5.034,0,0,0,192.1,112.135Z"/>
          <path id="_0.2.13.5.1.4.0-0-6-5-2-2-6-3" data-name=" 0.2.13.5.1.4.0-0-6-5-2-2-6" class="cls-8" d="M182.627,113.258v.23h9.27v-.2Z"/>
          <path id="_0.2.13.5.1.4.1-0-85-6-0-2-6-3" data-name=" 0.2.13.5.1.4.1-0-85-6-0-2-6" class="cls-9" d="M191.989,111.255v-.249h-9.364v.23Z"/>
          <path d="M192.788,112.134h0a5.414,5.414,0,0,0-5.413-5.412h0a5.413,5.413,0,1,0,5.413,5.413Zm-10.216-.027a4.818,4.818,0,0,1,4.818-4.79h0a4.818,4.818,0,1,1-4.818,4.818Z"/>
        </g>
      </g>
    </g>
    <g>
      <path class="cls-13" d="M149.238,4.51V116.25a4.511,4.511,0,0,0,4.51,4.51h111.74a4.511,4.511,0,0,0,4.51-4.51V4.51A4.511,4.511,0,0,0,265.488,0H153.748A4.511,4.511,0,0,0,149.238,4.51Z"/>
      <rect class="cls-14" x="152.078" y="2.83" width="115.09" height="115.09"/>
    </g>
    <path class="cls-15" d="M249.885,24.47H168.519a3.143,3.143,0,0,0-3.165,3.111V89.245a3.134,3.134,0,0,0,3.165,3.1h81.366a3.134,3.134,0,0,0,3.165-3.1V27.581A3.143,3.143,0,0,0,249.885,24.47Zm1.7,64.775a1.7,1.7,0,0,1-1.7,1.677H168.519a1.7,1.7,0,0,1-1.7-1.677V27.581a1.688,1.688,0,0,1,1.7-1.677h81.366a1.688,1.688,0,0,1,1.7,1.677Z"/>
    <rect class="cls-13" x="184.986" y="24.186" width="49.44" height="80.736" transform="translate(274.26 -145.152) rotate(90)"/>
    <g>
      <rect class="cls-15" x="170.25" y="29.04" width="24.192" height="0.756" rx="0.378"/>
      <rect class="cls-15" x="170.25" y="31.04" width="24.192" height="0.756" rx="0.378"/>
      <rect class="cls-15" x="170.25" y="33.04" width="24.192" height="0.756" rx="0.378"/>
    </g>
    <g>
      <rect class="cls-15" x="225.25" y="29.04" width="24.192" height="0.756" rx="0.378"/>
      <rect class="cls-15" x="225.25" y="31.04" width="24.192" height="0.756" rx="0.378"/>
      <rect class="cls-15" x="225.25" y="33.04" width="24.192" height="0.756" rx="0.378"/>
    </g>
    <text class="cls-16" transform="translate(196.314 36.978)">MINI</text>
    <g>
      <text class="cls-17" transform="translate(171.978 45.666)">Model:MINIR2</text>
      <text class="cls-17" transform="translate(204.37 45.666)">FCC ID:2APN5MINIR2</text>
      <text class="cls-17" transform="translate(171.978 51.99)"><tspan class="cls-18">W</tspan><tspan x="3.354" y="0">i-Fi: IEEE 802.11 b/g/n 2.4GHz</tspan></text>
      <text class="cls-17" transform="translate(171.978 58.314)">Input:<tspan class="cls-19" x="10.768" y="0"> </tspan><tspan x="11.752" y="0">AC 100-240V 50/60Hz 10</tspan><tspan class="cls-19" x="55.723" y="0">A</tspan><tspan x="57.861" y="0" xml:space="preserve"> Max</tspan></text>
      <text class="cls-17" transform="translate(171.978 64.638)">Output:<tspan class="cls-19" x="13.936" y="0"> </tspan><tspan x="14.92" y="0">AC 100-240V 50/60Hz 10</tspan><tspan class="cls-19" x="58.891" y="0">A</tspan><tspan x="61.029" y="0" xml:space="preserve"> Max</tspan></text>
      <text class="cls-17" transform="translate(171.977 70.962)">Shenzhen Sonoff<tspan class="cls-20" x="29.492" y="0"> </tspan><tspan class="cls-21" x="30.625" y="0">T</tspan><tspan x="32.449" y="0">echnologies Go., Ltd.</tspan></text>
    </g>
    <g>
      <rect class="cls-22" x="197.754" y="75.439" width="11.952" height="11.952"/>
      <rect class="cls-22" x="200.356" y="78.041" width="6.748" height="6.748"/>
    </g>
    <g>
      <g>
        <polyline class="cls-22" points="219.498 81.264 218.778 81.264 218.778 86.457 228.426 86.457 228.426 81.264"/>
        <path class="cls-22" d="M219.57,82.663"/>
        <path class="cls-22" d="M227.544,82.663"/>
        <polyline class="cls-22" points="226.994 78.39 223.848 75.683 217.423 81.245 218.886 81.24"/>
        <path class="cls-22" d="M227,78.387"/>
        <polyline class="cls-22" points="227.708 81.214 230.282 81.206 228.237 79.459"/>
        <path class="cls-22" d="M227.634,82.316"/>
        <path class="cls-22" d="M218.85,82.343"/>
      </g>
      <polyline class="cls-22" points="226.998 78.769 226.998 75.469 228.27 75.469 228.27 79.819"/>
    </g>
    <text class="cls-23" transform="translate(190.986 99.186)">MADEINCHIN<tspan class="cls-19" x="33.202" y="0">A</tspan></text>
    <path class="cls-24" d="M240.791,75h.978v-.153h-.978Zm2.793.628h.334a.788.788,0,0,0-.334-.305Zm-5.13,1.158v.565h.442l-.018-.19-.368-.375Zm4.969,4.615.313-3.626-1.9,2.007ZM239.3,77.588v.065h-.038l.377,4.05,1.819-1.916Zm4.592-1.611H239.1l.048.507h.146V77.2l.809.824v-.387h2.053v.67h-1.775l1.259,1.281,2.128-2.241Zm-7.374,9.414-.2-.191,3.015-3.175-.408-4.373h-.763V76.483h.054l-2.564-2.611v-.383l2.942,2.994h.222l-.048-.515A.436.436,0,0,1,238.6,76a.447.447,0,1,1,.352-.723,2.428,2.428,0,0,1,1.511-.6v.344c-.592.076-1.186.245-1.339.606h3.894v-.51a5.918,5.918,0,0,0-.907-.131v.348h-1.648v-.824h1.648v.132a5.89,5.89,0,0,1,.907.125v-.034h.573v.222a1.245,1.245,0,0,1,.667.606c.011.025.018.047.025.066h.355v.335h-.4l-.085,1,3.251-3.424v.382l-3.288,3.468-.372,4.331,3.455,3.519-.2.193-3.29-3.348-.133,1.545a.18.18,0,0,1-.148.152v.506H242.8v-.511h-2.36a.966.966,0,0,1-1.819-.451.868.868,0,0,1,.014-.161Zm4.028-1.957h2.7l.144-1.675-1.746-1.78-1.974,2.083.028.3a.966.966,0,0,1,.852.959A.892.892,0,0,1,240.544,83.434Zm-.958-.618a.5.5,0,1,0,.5.5h0a.5.5,0,0,0-.5-.5Zm0,.827a.326.326,0,1,1,.325-.327v0a.325.325,0,0,1-.325.325Zm6.861,4.807h-9.71V86.736h9.71Z"/>
    <path id="path7485-7-5-8" class="cls-22" d="M188.827,87.471c-.14-.015-.276-.023-.414-.041a5.922,5.922,0,0,1-2.13-.64,6.144,6.144,0,0,1-3.18-3.861,6.258,6.258,0,0,1,4.3-7.733,6.337,6.337,0,0,1,.638-.147,5.922,5.922,0,0,1,1.628-.064h.074V76.87a.3.3,0,0,0-.051-.008,4.537,4.537,0,0,0-1.7.122,4.326,4.326,0,0,0-2.986,2.723c-.069.182-.116.371-.178.571h3.656v1.879h-3.651c.042.148.076.288.121.425a4.394,4.394,0,0,0,4.353,3.011c.144,0,.291-.019.437-.035v1.886c-.11.008-.215.019-.323.027Z"/>
    <path id="path7489-7-0-2" class="cls-22" d="M171.737,80.914c.015-.138.026-.274.042-.413a6.013,6.013,0,0,1,.794-2.414,6.244,6.244,0,0,1,6.04-3.1V76.86a4.377,4.377,0,0,0-3.992,1.567,4.181,4.181,0,0,0-1,3.065,4.244,4.244,0,0,0,1.609,3.116,4.4,4.4,0,0,0,3.382.954v1.875l-.322.034h-.6a.683.683,0,0,0-.079-.011,5.8,5.8,0,0,1-1.185-.187,6.2,6.2,0,0,1-3.858-2.936,5.974,5.974,0,0,1-.8-2.413c-.015-.136-.026-.273-.041-.411Z"/>
    <g>
      <path id="path634" class="cls-25" d="M214.512,116.324l-13.006.011c-.508,0-.722-.634-.423-1.255l6.249-12.965c.357-.719,1.018-.727,1.375.024l6.32,12.93c.348.617.1,1.266-.515,1.255Z"/>
      <path id="path609" class="cls-26" d="M211.254,110.611l1.834,3.911-6.306.066-3.7-.045,3.076-6.667,1.863-3.866,3.229,6.6Z"/>
      <path id="path615" class="cls-25" d="M207.651,106.4l-1.575,4.775,2.205-.931-.775,3.574,1.647-4.385-2.35.9,1.7-3.964-.848.03Z"/>
      <path id="path617" class="cls-25" d="M207.336,112.5l.194,1.472.848-1.231-.606.18Z"/>
    </g>
  </g>
  <g id="top">
    <g>
      <g id="X-screw-5.00-2pin-4" data-name="X-screw-5.00-2pin">
        <path class="cls-1" d="M17.209,122.805V101.669c0-1.208,2.011-2.188,4.491-2.188H70.9c2.48,0,4.491.98,4.491,2.188v21.136c0,1.209-2.011,2.188-4.491,2.188H21.7C19.22,124.993,17.209,124.014,17.209,122.805Z"/>
        <path class="cls-2" d="M75.183,103.733a.206.206,0,0,0,.206-.206v-2.408c.089-.852-1.244-1.582-2.992-1.638H19.2c-1.75.056-2.084.785-2,1.638v2.614Z"/>
        <path class="cls-3" d="M17.612,120.741a.4.4,0,0,0-.4.4v3.211c-.09.854,1.245.584,3,.638H73.4c1.749-.054,2.083-.784,1.992-1.638v-2.407a.207.207,0,0,0-.206-.207Z"/>
        <g id="pin4-5-4" data-name="pin4-5">
          <path id="_0.2.13.5.1.0-8-0-9-31-5-4" data-name=" 0.2.13.5.1.0-8-0-9-31-5" class="cls-4" d="M38.43,105.776a6.441,6.441,0,0,1,6.347,6.36H32.07a6.4,6.4,0,0,1,6.36-6.414Z"/>
          <path id="_0.2.13.5.1.1-5-0-2-66-5-4" data-name=" 0.2.13.5.1.1-5-0-2-66-5" class="cls-5" d="M38.43,118.7a6.414,6.414,0,0,1-6.373-6.454h12.7a6.414,6.414,0,0,1-6.225,6.509h0Z"/>
          <path id="_0.2.13.5.1.2.0-8-9-1-1-5-4" data-name=" 0.2.13.5.1.2.0-8-9-1-1-5" class="cls-6" d="M38.43,106.954a5.223,5.223,0,0,0,0,10.432,5.014,5.014,0,0,0,3.586-1.5,5.236,5.236,0,0,0-3.586-8.93Z"/>
          <path id="_0.2.13.5.1.3.0-1-9-3-0-5-4" data-name=" 0.2.13.5.1.3.0-1-9-3-0-5" class="cls-7" d="M33.816,112.136a4.172,4.172,0,0,1,.176-1.232H43.1a4.148,4.148,0,0,1,.19,1.232,3.944,3.944,0,0,1-.19,1.19H33.965A5.031,5.031,0,0,1,33.816,112.136Z"/>
          <path id="_0.2.13.5.1.4.0-0-6-5-2-5-4" data-name=" 0.2.13.5.1.4.0-0-6-5-2-5" class="cls-8" d="M43.287,113.259v.23h-9.3v-.2Z"/>
          <path id="_0.2.13.5.1.4.1-0-85-6-0-5-4" data-name=" 0.2.13.5.1.4.1-0-85-6-0-5" class="cls-9" d="M33.9,111.256v-.249h9.39v.23Z"/>
          <path d="M33.112,112.136a5.413,5.413,0,1,0,5.413-5.414h0a5.414,5.414,0,0,0-5.413,5.413h0Zm10.189,0a4.818,4.818,0,1,1-4.818-4.818h.04a4.816,4.816,0,0,1,4.75,4.818Z"/>
        </g>
        <g id="pin3-5-4" data-name="pin3-5">
          <path id="_0.2.13.5.1.0-8-0-9-31-2-6-4" data-name=" 0.2.13.5.1.0-8-0-9-31-2-6" class="cls-4" d="M24.34,105.776a6.387,6.387,0,0,1,6.347,6.36H17.981A6.39,6.39,0,0,1,24.34,105.776Z"/>
          <path id="_0.2.13.5.1.1-5-0-2-66-2-6-4" data-name=" 0.2.13.5.1.1-5-0-2-66-2-6" class="cls-5" d="M24.34,118.7a6.414,6.414,0,0,1-6.347-6.455h12.72a6.414,6.414,0,0,1-6.279,6.509h0Z"/>
          <path id="_0.2.13.5.1.2.0-8-9-1-1-2-6-4" data-name=" 0.2.13.5.1.2.0-8-9-1-1-2-6" class="cls-6" d="M24.34,106.954a5.223,5.223,0,0,0,0,10.432,5.064,5.064,0,0,0,3.6-1.5,5.223,5.223,0,0,0,0-7.375h0A5.114,5.114,0,0,0,24.34,106.954Z"/>
          <path id="_0.2.13.5.1.3.0-1-9-3-0-2-6-4" data-name=" 0.2.13.5.1.3.0-1-9-3-0-2-6" class="cls-7" d="M19.716,112.136a4.148,4.148,0,0,1,.19-1.232h9.148a4.2,4.2,0,0,1,.176,1.232,4.035,4.035,0,0,1-.176,1.19H19.892A5.049,5.049,0,0,1,19.716,112.136Z"/>
          <path id="_0.2.13.5.1.4.0-0-6-5-2-2-6-4" data-name=" 0.2.13.5.1.4.0-0-6-5-2-2-6" class="cls-8" d="M29.187,113.259v.23h-9.27v-.2Z"/>
          <path id="_0.2.13.5.1.4.1-0-85-6-0-2-6-4" data-name=" 0.2.13.5.1.4.1-0-85-6-0-2-6" class="cls-9" d="M19.825,111.256v-.249h9.364v.23Z"/>
          <path d="M19.026,112.136a5.413,5.413,0,1,0,5.413-5.413h0a5.413,5.413,0,0,0-5.413,5.412h0Zm10.216,0a4.818,4.818,0,1,1-4.818-4.818h0a4.817,4.817,0,0,1,4.818,4.79Z"/>
        </g>
      </g>
      <g id="X-screw-5.00-2pin-5" data-name="X-screw-5.00-2pin">
        <g id="pin4-5-5" data-name="pin4-5">
          <path id="_0.2.13.5.1.0-8-0-9-31-5-5" data-name=" 0.2.13.5.1.0-8-0-9-31-5" class="cls-4" d="M68.267,105.776a6.441,6.441,0,0,1,6.347,6.36H61.907a6.4,6.4,0,0,1,6.36-6.414Z"/>
          <path id="_0.2.13.5.1.1-5-0-2-66-5-5" data-name=" 0.2.13.5.1.1-5-0-2-66-5" class="cls-5" d="M68.267,118.7a6.414,6.414,0,0,1-6.373-6.454h12.7a6.414,6.414,0,0,1-6.225,6.509h0Z"/>
          <path id="_0.2.13.5.1.2.0-8-9-1-1-5-5" data-name=" 0.2.13.5.1.2.0-8-9-1-1-5" class="cls-6" d="M68.267,106.954a5.223,5.223,0,0,0,0,10.432,5.014,5.014,0,0,0,3.586-1.5,5.236,5.236,0,0,0-3.586-8.93Z"/>
          <path id="_0.2.13.5.1.3.0-1-9-3-0-5-5" data-name=" 0.2.13.5.1.3.0-1-9-3-0-5" class="cls-7" d="M63.653,112.136a4.2,4.2,0,0,1,.176-1.232h9.106a4.148,4.148,0,0,1,.19,1.232,3.944,3.944,0,0,1-.19,1.19H63.8A5.031,5.031,0,0,1,63.653,112.136Z"/>
          <path id="_0.2.13.5.1.4.0-0-6-5-2-5-5" data-name=" 0.2.13.5.1.4.0-0-6-5-2-5" class="cls-8" d="M73.124,113.259v.23h-9.3v-.2Z"/>
          <path id="_0.2.13.5.1.4.1-0-85-6-0-5-5" data-name=" 0.2.13.5.1.4.1-0-85-6-0-5" class="cls-9" d="M63.734,111.256v-.249h9.39v.23Z"/>
          <path d="M62.949,112.136a5.413,5.413,0,1,0,5.413-5.414h0a5.414,5.414,0,0,0-5.413,5.413h0Zm10.189,0a4.818,4.818,0,1,1-4.818-4.818h.04a4.816,4.816,0,0,1,4.75,4.818Z"/>
        </g>
        <g id="pin3-5-5" data-name="pin3-5">
          <path id="_0.2.13.5.1.0-8-0-9-31-2-6-5" data-name=" 0.2.13.5.1.0-8-0-9-31-2-6" class="cls-4" d="M54.177,105.776a6.387,6.387,0,0,1,6.347,6.36H47.818A6.39,6.39,0,0,1,54.177,105.776Z"/>
          <path id="_0.2.13.5.1.1-5-0-2-66-2-6-5" data-name=" 0.2.13.5.1.1-5-0-2-66-2-6" class="cls-5" d="M54.177,118.7a6.414,6.414,0,0,1-6.347-6.455H60.55a6.414,6.414,0,0,1-6.279,6.509h0Z"/>
          <path id="_0.2.13.5.1.2.0-8-9-1-1-2-6-5" data-name=" 0.2.13.5.1.2.0-8-9-1-1-2-6" class="cls-6" d="M54.177,106.954a5.223,5.223,0,0,0,0,10.432,5.062,5.062,0,0,0,3.6-1.5,5.223,5.223,0,0,0,0-7.375h0A5.114,5.114,0,0,0,54.177,106.954Z"/>
          <path id="_0.2.13.5.1.3.0-1-9-3-0-2-6-5" data-name=" 0.2.13.5.1.3.0-1-9-3-0-2-6" class="cls-7" d="M49.553,112.136a4.148,4.148,0,0,1,.19-1.232h9.148a4.172,4.172,0,0,1,.176,1.232,4.035,4.035,0,0,1-.176,1.19H49.729A5.049,5.049,0,0,1,49.553,112.136Z"/>
          <path id="_0.2.13.5.1.4.0-0-6-5-2-2-6-5" data-name=" 0.2.13.5.1.4.0-0-6-5-2-2-6" class="cls-8" d="M59.024,113.259v.23h-9.27v-.2Z"/>
          <path id="_0.2.13.5.1.4.1-0-85-6-0-2-6-5" data-name=" 0.2.13.5.1.4.1-0-85-6-0-2-6" class="cls-9" d="M49.662,111.256v-.249h9.364v.23Z"/>
          <path d="M48.863,112.136a5.413,5.413,0,1,0,5.413-5.413h0a5.413,5.413,0,0,0-5.413,5.412h0Zm10.216,0a4.818,4.818,0,1,1-4.818-4.818h0a4.817,4.817,0,0,1,4.818,4.79Z"/>
        </g>
      </g>
      <g id="X-screw-5.00-2pin-6" data-name="X-screw-5.00-2pin">
        <path class="cls-10" d="M75.391,122.805V101.669a2.213,2.213,0,0,1,2.237-2.188h24.5a2.213,2.213,0,0,1,2.237,2.188v21.136a2.212,2.212,0,0,1-2.237,2.188h-24.5A2.213,2.213,0,0,1,75.391,122.805Z"/>
        <path class="cls-11" d="M104.368,103.733v-2.614a1.576,1.576,0,0,0-1.491-1.638H76.883a1.576,1.576,0,0,0-1.492,1.638v2.614Z"/>
        <path class="cls-12" d="M75.391,120.741v2.614c-.045.854.159,1.584,1.031,1.638h26.455a1.572,1.572,0,0,0,1.491-1.638v-2.614Z"/>
        <g id="pin4-5-6" data-name="pin4-5">
          <path id="_0.2.13.5.1.0-8-0-9-31-5-6" data-name=" 0.2.13.5.1.0-8-0-9-31-5" class="cls-11" d="M96.614,105.775a6.443,6.443,0,0,1,6.347,6.36H90.254a6.4,6.4,0,0,1,6.36-6.414Z"/>
          <path id="_0.2.13.5.1.1-5-0-2-66-5-6" data-name=" 0.2.13.5.1.1-5-0-2-66-5" class="cls-12" d="M96.614,118.7a6.413,6.413,0,0,1-6.373-6.454h12.7a6.413,6.413,0,0,1-6.225,6.509h0Z"/>
          <path id="_0.2.13.5.1.2.0-8-9-1-1-5-6" data-name=" 0.2.13.5.1.2.0-8-9-1-1-5" class="cls-6" d="M96.614,106.953a5.223,5.223,0,0,0,0,10.432,5.006,5.006,0,0,0,3.586-1.5,5.236,5.236,0,0,0-3.586-8.93Z"/>
          <path id="_0.2.13.5.1.3.0-1-9-3-0-5-6" data-name=" 0.2.13.5.1.3.0-1-9-3-0-5" class="cls-7" d="M92,112.135a4.181,4.181,0,0,1,.176-1.232h9.106a4.158,4.158,0,0,1,.19,1.232,3.934,3.934,0,0,1-.19,1.19H92.149A5.018,5.018,0,0,1,92,112.135Z"/>
          <path id="_0.2.13.5.1.4.0-0-6-5-2-5-6" data-name=" 0.2.13.5.1.4.0-0-6-5-2-5" class="cls-8" d="M101.471,113.258v.23h-9.3v-.2Z"/>
          <path id="_0.2.13.5.1.4.1-0-85-6-0-5-6" data-name=" 0.2.13.5.1.4.1-0-85-6-0-5" class="cls-9" d="M92.081,111.255v-.249h9.39v.23Z"/>
          <path d="M91.3,112.135a5.413,5.413,0,1,0,5.413-5.414h0a5.416,5.416,0,0,0-5.413,5.413h0Zm10.189,0a4.818,4.818,0,1,1-4.818-4.818h.04a4.817,4.817,0,0,1,4.75,4.818Z"/>
        </g>
        <g id="pin3-5-6" data-name="pin3-5">
          <path id="_0.2.13.5.1.0-8-0-9-31-2-6-6" data-name=" 0.2.13.5.1.0-8-0-9-31-2-6" class="cls-11" d="M82.524,105.775a6.388,6.388,0,0,1,6.347,6.36H76.165A6.391,6.391,0,0,1,82.524,105.775Z"/>
          <path id="_0.2.13.5.1.1-5-0-2-66-2-6-6" data-name=" 0.2.13.5.1.1-5-0-2-66-2-6" class="cls-12" d="M82.524,118.7a6.413,6.413,0,0,1-6.347-6.455H88.9a6.413,6.413,0,0,1-6.279,6.509h0Z"/>
          <path id="_0.2.13.5.1.2.0-8-9-1-1-2-6-6" data-name=" 0.2.13.5.1.2.0-8-9-1-1-2-6" class="cls-6" d="M82.524,106.953a5.223,5.223,0,0,0,0,10.432,5.056,5.056,0,0,0,3.6-1.5,5.223,5.223,0,0,0,0-7.375h0A5.122,5.122,0,0,0,82.524,106.953Z"/>
          <path id="_0.2.13.5.1.3.0-1-9-3-0-2-6-6" data-name=" 0.2.13.5.1.3.0-1-9-3-0-2-6" class="cls-7" d="M77.9,112.135a4.158,4.158,0,0,1,.19-1.232h9.148a4.214,4.214,0,0,1,.176,1.232,4.026,4.026,0,0,1-.176,1.19H78.076A5.034,5.034,0,0,1,77.9,112.135Z"/>
          <path id="_0.2.13.5.1.4.0-0-6-5-2-2-6-6" data-name=" 0.2.13.5.1.4.0-0-6-5-2-2-6" class="cls-8" d="M87.371,113.258v.23H78.1v-.2Z"/>
          <path id="_0.2.13.5.1.4.1-0-85-6-0-2-6-6" data-name=" 0.2.13.5.1.4.1-0-85-6-0-2-6" class="cls-9" d="M78.009,111.255v-.249h9.364v.23Z"/>
          <path d="M77.21,112.135a5.413,5.413,0,1,0,5.413-5.413h0a5.414,5.414,0,0,0-5.413,5.412h0Zm10.216,0a4.818,4.818,0,1,1-4.818-4.818h0a4.818,4.818,0,0,1,4.818,4.79Z"/>
        </g>
      </g>
    </g>
    <g>
      <path class="cls-13" d="M116.25,0H4.51A4.511,4.511,0,0,0,0,4.51V116.25a4.511,4.511,0,0,0,4.51,4.51H16.84V99.48h87.53v21.28h11.88a4.511,4.511,0,0,0,4.51-4.51V4.51A4.511,4.511,0,0,0,116.25,0Z"/>
      <polygon class="cls-27" points="117.92 2.83 117.92 117.92 104.37 117.92 104.37 103.733 16.84 103.733 16.84 117.92 2.83 117.92 2.83 2.83 117.92 2.83"/>
    </g>
    <g id="logo">
      <g>
        <path class="cls-28" d="M33.175,32.656a4.815,4.815,0,0,1,.782,1.17,6.042,6.042,0,0,1,.355,1.044,5.391,5.391,0,0,1,.1,1.042,4.246,4.246,0,0,1-.141,1.1,4.519,4.519,0,0,1-.342.95,4.815,4.815,0,0,1-.826,1.2.474.474,0,0,0-.135.228.409.409,0,0,0,.055.307.459.459,0,0,0,.257.191.6.6,0,0,0,.119.01.332.332,0,0,0,.2-.053,4.332,4.332,0,0,0,.454-.5,5.639,5.639,0,0,0,.979-1.925,4.835,4.835,0,0,0,.167-.818c.006-.052.016-.133.022-.181a6.265,6.265,0,0,0,.017-.894,4.2,4.2,0,0,0-.047-.478c-.011-.076-.081-.434-.1-.521s-.139-.454-.213-.662a5.418,5.418,0,0,0-.606-1.169,3.9,3.9,0,0,0-.7-.816.424.424,0,0,0-.389.007.6.6,0,0,0-.175.168.392.392,0,0,0-.015.384A.984.984,0,0,0,33.175,32.656Z"/>
        <path class="cls-29" d="M32.055,38.8a.412.412,0,0,0,.459-.024,3.731,3.731,0,0,0,.31-.341,4.142,4.142,0,0,0,.881-2.16,4.34,4.34,0,0,0,.013-.63,2.708,2.708,0,0,0-.048-.412,4.036,4.036,0,0,0-.2-.791,4.078,4.078,0,0,0-.883-1.406c-.108-.109-.139-.129-.234-.15a.41.41,0,0,0-.313.064.438.438,0,0,0-.192.266.324.324,0,0,0,0,.185.41.41,0,0,0,.116.2,3.435,3.435,0,0,1,.489.65,3.351,3.351,0,0,1,.438,1.61,3.841,3.841,0,0,1-.07.662A3.313,3.313,0,0,1,32,38.1a.5.5,0,0,0-.148.229.432.432,0,0,0,.034.287A.622.622,0,0,0,32.055,38.8Z"/>
        <path class="cls-30" d="M32.188,35.9c0-.1,0-.2,0-.224-.006-.074-.032-.249-.05-.333a2.591,2.591,0,0,0-.452-1.009,2.518,2.518,0,0,0-.291-.325A.389.389,0,0,0,30.9,34a.406.406,0,0,0-.134.558,1.212,1.212,0,0,0,.1.123,1.76,1.76,0,0,1,.2.249,1.661,1.661,0,0,1,.265.718,2.32,2.32,0,0,1,0,.464,1.752,1.752,0,0,1-.346.812c-.021.029-.078.095-.126.147a.382.382,0,0,0-.144.328.391.391,0,0,0,.125.279.409.409,0,0,0,.622-.021,2.561,2.561,0,0,0,.673-1.268A2.128,2.128,0,0,0,32.188,35.9Z"/>
        <polygon class="cls-31" points="20.833 43.573 27.378 43.573 27.378 48.492 20.607 48.492 20.607 50.354 29.241 50.354 29.241 41.71 22.696 41.71 22.696 36.792 29.374 36.792 29.374 34.929 20.833 34.929 20.833 43.573"/>
        <path class="cls-32" d="M30.936,50.354h9.631V41.71H30.936ZM32.8,43.573H38.7v4.919H32.8Z"/>
        <path class="cls-33" d="M53.322,50.354h9.631V41.71H53.322Zm1.862-6.781H61.09v4.919H55.184Z"/>
        <polygon class="cls-34" points="42.129 50.271 43.991 50.271 43.991 43.573 49.897 43.573 49.897 50.271 51.76 50.271 51.76 41.71 42.129 41.71 42.129 50.271"/>
        <polygon class="cls-35" points="64.515 50.33 66.377 50.33 66.377 47.713 74.139 47.713 74.139 45.85 66.377 45.85 66.377 43.573 74.139 43.573 74.139 41.71 64.515 41.71 64.515 50.33"/>
        <polygon class="cls-36" points="85.326 43.573 85.326 41.71 75.701 41.71 75.701 50.33 77.564 50.33 77.564 47.713 85.326 47.713 85.326 45.85 77.564 45.85 77.564 43.573 85.326 43.573"/>
      </g>
    </g>
    <rect class="cls-37" x="16.842" y="91.77" width="87.816" height="5.904"/>
    <g id="text">
      <text class="cls-38" transform="translate(20.322 96.27)">N In</text>
      <text class="cls-38" transform="translate(35.544 96.27)">N In</text>
      <text class="cls-39" transform="translate(50.909 96.27)">L<tspan class="cls-40" x="1.846" y="0" xml:space="preserve"> In</tspan></text>
      <text class="cls-39" transform="translate(63.31 96.27)">L<tspan class="cls-40" x="1.846" y="0" xml:space="preserve"> Out</tspan></text>
      <text class="cls-38" transform="translate(80.961 96.27)">S1</text>
      <text class="cls-38" transform="translate(95.592 96.27)">S2</text>
    </g>
    <g>
      <polygon class="cls-41" points="23.963 100.981 22.521 98.483 25.405 98.483 23.963 100.981"/>
      <polygon class="cls-42" points="38.716 100.981 37.273 98.483 40.158 98.483 38.716 100.981"/>
      <polygon class="cls-43" points="53.469 100.981 52.026 98.483 54.911 98.483 53.469 100.981"/>
      <polygon class="cls-44" points="68.221 100.981 66.779 98.483 69.664 98.483 68.221 100.981"/>
      <polygon class="cls-45" points="82.974 100.981 81.532 98.483 84.416 98.483 82.974 100.981"/>
      <polygon class="cls-46" points="97.727 100.981 96.284 98.483 99.169 98.483 97.727 100.981"/>
    </g>
    <g>
      <path class="cls-47" d="M110.359,45.2c0,2.264-1.06,5.912-6.38,6.37h-.39a6.378,6.378,0,0,1-4.51-10.88,6.47,6.47,0,0,1,2.6-1.57v-2.17h4.68v2.33A5.94,5.94,0,0,1,110.359,45.2Z"/>
      <path class="cls-48" d="M101.058,29.778v9.144s-3.884,2.238-4.1,5.9c-.216,3.6,2.124,7.272,6.661,7.272,5.112,0,6.947-3.744,7.019-6.552a6.6,6.6,0,0,0-3.816-6.48V29.778"/>
    </g>
  </g>
</svg>
