<svg id="sonoff-temperature-humidity-sensor-am2301" xmlns="http://www.w3.org/2000/svg" xmlns:xlink="http://www.w3.org/1999/xlink" width="116.205mm" height="103.422mm" viewBox="0 0 329.401 293.165">
  <defs>
    <style>
      .cls-1, .cls-12, .cls-17, .cls-26 {
        fill: none;
      }

      .cls-1 {
        stroke: #000;
        stroke-width: 8.504px;
      }

      .cls-1, .cls-12, .cls-14, .cls-17, .cls-26, .cls-27, .cls-29, .cls-30, .cls-31 {
        stroke-miterlimit: 10;
      }

      .cls-2 {
        fill: url(#Безымянный_градиент_2);
      }

      .cls-3 {
        fill: url(#Безымянный_градиент_2-2);
      }

      .cls-4 {
        fill: url(#Безымянный_градиент_5);
      }

      .cls-5 {
        fill: url(#Безымянный_градиент_5-2);
      }

      .cls-6 {
        fill: url(#Безымянный_градиент_5-3);
      }

      .cls-7, .cls-8 {
        fill: #fff;
      }

      .cls-7 {
        opacity: 0.2;
        isolation: isolate;
      }

      .cls-8 {
        fill-opacity: 0.42;
      }

      .cls-9 {
        fill: #5e5e5d;
      }

      .cls-10 {
        fill: url(#Безымянный_градиент_22);
      }

      .cls-11 {
        fill: url(#Безымянный_градиент_22-2);
      }

      .cls-12 {
        stroke: #4d4d4d;
      }

      .cls-13 {
        fill: #2b2b2a;
      }

      .cls-14, .cls-19, .cls-20, .cls-21 {
        fill: #4d4d4d;
      }

      .cls-14, .cls-17, .cls-26, .cls-27, .cls-29, .cls-30, .cls-31 {
        stroke: #333;
      }

      .cls-15 {
        opacity: 0.36;
        fill: url(#Безымянный_градиент_11);
      }

      .cls-16, .cls-30 {
        fill: #606365;
      }

      .cls-17, .cls-27 {
        stroke-width: 0.709px;
      }

      .cls-18 {
        fill: #2e3130;
      }

      .cls-20 {
        font-size: 7px;
      }

      .cls-20, .cls-21 {
        font-family: TrebuchetMS, Trebuchet MS;
      }

      .cls-21 {
        font-size: 5px;
      }

      .cls-22 {
        letter-spacing: -0.111em;
      }

      .cls-23 {
        letter-spacing: -0.097em;
      }

      .cls-24 {
        letter-spacing: -0.037em;
      }

      .cls-25 {
        letter-spacing: -0.018em;
      }

      .cls-27 {
        fill: #1a1a1a;
      }

      .cls-28 {
        fill: #1c8f5d;
      }

      .cls-29 {
        fill: url(#Безымянный_градиент_67);
      }

      .cls-31 {
        opacity: 0.85;
        fill: url(#Безымянный_градиент_46);
      }

      .cls-32 {
        fill: url(#Безымянный_градиент_22-3);
      }

      .cls-33 {
        fill: url(#Безымянный_градиент_22-4);
      }

      .cls-34 {
        opacity: 0.53;
        fill: url(#Безымянный_градиент_93);
      }

      .cls-35 {
        fill: url(#Безымянный_градиент_2-3);
      }

      .cls-36 {
        fill: url(#Безымянный_градиент_2-4);
      }

      .cls-37 {
        fill: url(#Безымянный_градиент_5-4);
      }

      .cls-38 {
        fill: url(#Безымянный_градиент_5-5);
      }

      .cls-39 {
        fill: url(#Безымянный_градиент_5-6);
      }

      .cls-40 {
        fill: url(#Безымянный_градиент_22-5);
      }

      .cls-41 {
        fill: url(#Безымянный_градиент_22-6);
      }
    </style>
    <linearGradient id="Безымянный_градиент_2" data-name="Безымянный градиент 2" x1="-1356.971" y1="-607.781" x2="-1351.06" y2="-607.781" gradientTransform="matrix(-1, 0, 0, 1, -1034.535, 708.84)" gradientUnits="userSpaceOnUse">
      <stop offset="0" stop-color="gray"/>
      <stop offset="0.5" stop-color="#bfbfbf"/>
      <stop offset="1" stop-color="gray"/>
    </linearGradient>
    <linearGradient id="Безымянный_градиент_2-2" x1="-1358.979" y1="-596.78" x2="-1349.051" y2="-596.78" xlink:href="#Безымянный_градиент_2"/>
    <linearGradient id="Безымянный_градиент_5" data-name="Безымянный градиент 5" x1="-766.701" y1="995.722" x2="-766.701" y2="1001.632" gradientTransform="matrix(0, 1, 1, 0, -679.197, 870.505)" gradientUnits="userSpaceOnUse">
      <stop offset="0" stop-color="#333"/>
      <stop offset="0.5"/>
      <stop offset="1" stop-color="#333"/>
    </linearGradient>
    <linearGradient id="Безымянный_градиент_5-2" x1="-773.045" y1="995.722" x2="-773.045" y2="1001.632" xlink:href="#Безымянный_градиент_5"/>
    <linearGradient id="Безымянный_градиент_5-3" x1="-779.389" y1="995.722" x2="-779.389" y2="1001.632" xlink:href="#Безымянный_градиент_5"/>
    <linearGradient id="Безымянный_градиент_22" data-name="Безымянный градиент 22" x1="-153.117" y1="607.57" x2="-133.274" y2="607.57" gradientTransform="translate(176.285 771.669) rotate(180)" gradientUnits="userSpaceOnUse">
      <stop offset="0.031" stop-color="#4d4d4d"/>
      <stop offset="0.508" stop-color="#666"/>
      <stop offset="0.653" stop-color="#565656"/>
      <stop offset="1" stop-color="#333"/>
    </linearGradient>
    <linearGradient id="Безымянный_градиент_22-2" x1="-153.117" y1="636.956" x2="-133.274" y2="636.956" gradientTransform="translate(462.675 -502.244)" xlink:href="#Безымянный_градиент_22"/>
    <linearGradient id="Безымянный_градиент_11" data-name="Безымянный градиент 11" x1="216.69" y1="150.74" x2="216.69" y2="0.5" gradientUnits="userSpaceOnUse">
      <stop offset="0" stop-color="#b3b3b3"/>
      <stop offset="0.294" stop-color="#848484"/>
      <stop offset="0.61" stop-color="#585858"/>
      <stop offset="0.856" stop-color="#3d3d3d"/>
      <stop offset="1" stop-color="#333"/>
    </linearGradient>
    <linearGradient id="Безымянный_градиент_67" data-name="Безымянный градиент 67" x1="75.303" y1="86.955" x2="150.423" y2="86.955" gradientUnits="userSpaceOnUse">
      <stop offset="0" stop-color="#4d4d4d"/>
      <stop offset="0.041" stop-color="#414141"/>
      <stop offset="0.101" stop-color="#363636"/>
      <stop offset="0.17" stop-color="#333"/>
      <stop offset="0.232" stop-color="#3c3c3c"/>
      <stop offset="0.362" stop-color="#494949"/>
      <stop offset="0.483" stop-color="#4d4d4d"/>
      <stop offset="0.603" stop-color="#525252"/>
      <stop offset="0.738" stop-color="#5f5f5f"/>
      <stop offset="0.788" stop-color="#666"/>
      <stop offset="0.85" stop-color="#565656"/>
      <stop offset="1" stop-color="#333"/>
    </linearGradient>
    <linearGradient id="Безымянный_градиент_46" data-name="Безымянный градиент 46" x1="94.433" y1="13.255" x2="131.293" y2="13.255" gradientUnits="userSpaceOnUse">
      <stop offset="0" stop-color="#4d4d4d"/>
      <stop offset="0.016" stop-color="#4a4a4a"/>
      <stop offset="0.113" stop-color="#3d3d3d"/>
      <stop offset="0.239" stop-color="#353535"/>
      <stop offset="0.489" stop-color="#333"/>
      <stop offset="0.622" stop-color="#3a3a3a"/>
      <stop offset="0.81" stop-color="#4c4c4c"/>
      <stop offset="1" stop-color="#666"/>
    </linearGradient>
    <linearGradient id="Безымянный_градиент_22-3" x1="92.727" y1="171.922" x2="133.011" y2="171.922" gradientTransform="matrix(1, 0, 0, 1, 0, 0)" xlink:href="#Безымянный_градиент_22"/>
    <linearGradient id="Безымянный_градиент_22-4" x1="92.727" y1="160.269" x2="133.011" y2="160.269" gradientTransform="matrix(1, 0, 0, 1, 0, 0)" xlink:href="#Безымянный_градиент_22"/>
    <linearGradient id="Безымянный_градиент_93" data-name="Безымянный градиент 93" x1="75.263" y1="75.62" x2="150.383" y2="75.62" gradientUnits="userSpaceOnUse">
      <stop offset="0" stop-color="#333" stop-opacity="0"/>
      <stop offset="0.012" stop-color="#363636" stop-opacity="0.049"/>
      <stop offset="0.106" stop-color="#474747" stop-opacity="0.39"/>
      <stop offset="0.202" stop-color="#555" stop-opacity="0.658"/>
      <stop offset="0.298" stop-color="#5e5e5e" stop-opacity="0.848"/>
      <stop offset="0.396" stop-color="#646464" stop-opacity="0.962"/>
      <stop offset="0.497" stop-color="#666"/>
      <stop offset="0.59" stop-color="#656565" stop-opacity="0.956"/>
      <stop offset="0.692" stop-color="#626262" stop-opacity="0.826"/>
      <stop offset="0.799" stop-color="#5c5c5c" stop-opacity="0.609"/>
      <stop offset="0.909" stop-color="#555" stop-opacity="0.309"/>
      <stop offset="1" stop-color="#4d4d4d" stop-opacity="0"/>
    </linearGradient>
    <linearGradient id="Безымянный_градиент_2-3" x1="-1047.172" y1="-607.744" x2="-1041.262" y2="-607.744" xlink:href="#Безымянный_градиент_2"/>
    <linearGradient id="Безымянный_градиент_2-4" x1="-1049.18" y1="-596.743" x2="-1039.253" y2="-596.743" xlink:href="#Безымянный_градиент_2"/>
    <linearGradient id="Безымянный_градиент_5-4" x1="-766.664" y1="685.923" x2="-766.664" y2="691.834" xlink:href="#Безымянный_градиент_5"/>
    <linearGradient id="Безымянный_градиент_5-5" x1="-773.008" y1="685.923" x2="-773.008" y2="691.834" xlink:href="#Безымянный_градиент_5"/>
    <linearGradient id="Безымянный_градиент_5-6" x1="-779.352" y1="685.923" x2="-779.352" y2="691.834" xlink:href="#Безымянный_градиент_5"/>
    <linearGradient id="Безымянный_градиент_22-5" x1="0" y1="607.57" x2="19.843" y2="607.57" gradientTransform="matrix(1, 0, 0, -1, 0, 771.669)" xlink:href="#Безымянный_градиент_22"/>
    <linearGradient id="Безымянный_градиент_22-6" x1="0" y1="636.956" x2="19.843" y2="636.956" gradientTransform="matrix(1, 0, 0, -1, 0, 771.669)" xlink:href="#Безымянный_градиент_22"/>
  </defs>
  <title>sonoff-temperature-humidity-sensor-am2301</title>
  <g id="bottom">
    <g>
      <path class="cls-1" d="M217.109,173.41c0,30.411-11.573,117.949,56.884,115.45,60.256-2.2,45.6-85.382,45.277-116.938"/>
      <g>
        <g>
          <path id="stecker" class="cls-2" d="M321.26,89.183a.766.766,0,0,1-.185-.706l1.244-4.678a1.335,1.335,0,0,0-.086-.827l-1.073-2.058a.737.737,0,0,0-.571-.387h-2.217a.737.737,0,0,0-.571.387l-1.074,2.058a1.334,1.334,0,0,0-.085.827l1.244,4.678a.766.766,0,0,1-.185.706l-.874.77a1.1,1.1,0,0,0-.3.729v30.447a.425.425,0,0,0,.369.463h5.172a.425.425,0,0,0,.369-.463V90.682a1.1,1.1,0,0,0-.3-.729Z"/>
          <rect class="cls-3" x="314.516" y="110.666" width="9.928" height="2.789"/>
          <rect id="Ring_3" data-name="Ring 3" class="cls-4" x="316.525" y="103.178" width="5.91" height="1.252"/>
          <rect id="Ring_2" data-name="Ring 2" class="cls-5" x="316.525" y="96.834" width="5.91" height="1.252"/>
          <rect id="Ring_1" data-name="Ring 1" class="cls-6" x="316.525" y="90.49" width="5.91" height="1.252"/>
          <g id="optische_verbesserung_an_der_spitze" data-name="optische verbesserung an der spitze">
            <path class="cls-7" d="M321.056,88.687H317.9a.837.837,0,0,1-.084.327h3.319A.837.837,0,0,1,321.056,88.687Z"/>
            <path class="cls-7" d="M316.636,83.277a1.439,1.439,0,0,0-.022.326h5.733a1.44,1.44,0,0,0-.023-.326Z"/>
          </g>
          <rect id="optische_verbesserung" data-name="optische verbesserung" class="cls-8" x="316.525" y="110.52" width="5.91" height="0.146"/>
        </g>
        <polygon class="cls-9" points="309.559 155.512 329.401 155.512 326.567 172.224 312.393 172.224 309.559 155.512"/>
        <polygon class="cls-10" points="309.559 155.972 329.401 155.972 326.567 172.224 312.393 172.224 309.559 155.972"/>
        <rect class="cls-9" x="309.559" y="113.452" width="19.843" height="42.52" transform="translate(638.96 269.424) rotate(-180)"/>
        <rect class="cls-11" x="309.559" y="113.452" width="19.843" height="42.52" transform="translate(638.96 269.424) rotate(-180)"/>
        <g>
          <line class="cls-12" x1="329.401" y1="138.904" x2="309.559" y2="138.904"/>
          <line class="cls-12" x1="329.401" y1="136.904" x2="309.559" y2="136.904"/>
          <line class="cls-12" x1="329.401" y1="134.904" x2="309.559" y2="134.904"/>
          <line class="cls-12" x1="329.401" y1="132.904" x2="309.559" y2="132.904"/>
          <line class="cls-12" x1="329.401" y1="130.904" x2="309.559" y2="130.904"/>
          <line class="cls-12" x1="329.401" y1="128.904" x2="309.559" y2="128.904"/>
        </g>
        <polygon class="cls-13" points="321.74 168.712 327.162 168.712 326.804 170.824 321.74 170.824 321.74 168.712"/>
        <polygon class="cls-13" points="323.648 157.712 329.07 157.712 328.712 159.824 323.648 159.824 323.648 157.712"/>
        <polygon class="cls-13" points="311.781 168.712 321.248 168.712 321.248 170.824 312.128 170.824 311.781 168.712"/>
        <polygon class="cls-13" points="311.133 164.712 320.6 164.712 320.6 166.824 311.48 166.824 311.133 164.712"/>
        <polygon class="cls-13" points="310.495 161 328.465 161 328.129 163.112 310.831 163.112 310.495 161"/>
        <rect class="cls-13" x="309.559" y="155.282" width="19.843" height="0.912" transform="translate(638.96 311.477) rotate(-180)"/>
      </g>
    </g>
    <path class="cls-14" d="M244.85.5H188.53a9.4,9.4,0,0,0-9.4,9.4V150.74h17.72v22.67h39.69V150.74h17.71V9.9A9.4,9.4,0,0,0,244.85.5ZM212.68,9.25a5.671,5.671,0,1,1-1.66,4.01A5.654,5.654,0,0,1,212.68,9.25Z"/>
    <path class="cls-15" d="M187.712.5h57.956a8.582,8.582,0,0,1,8.582,8.582V150.74a0,0,0,0,1,0,0H179.13a0,0,0,0,1,0,0V9.082A8.582,8.582,0,0,1,187.712.5Z"/>
    <rect class="cls-16" x="196.85" y="170.188" width="39.69" height="3.222"/>
    <rect class="cls-16" x="198.27" y="150.676" width="36.85" height="18.734"/>
    <rect class="cls-16" x="235.246" y="150.676" width="1.294" height="18.734"/>
    <rect class="cls-16" x="196.822" y="150.676" width="1.294" height="18.734"/>
    <line class="cls-17" x1="196.85" y1="169.799" x2="236.54" y2="169.799"/>
    <line class="cls-17" x1="235.246" y1="169.799" x2="235.246" y2="150.676"/>
    <line class="cls-17" x1="198.246" y1="169.799" x2="198.246" y2="150.676"/>
    <g>
      <rect class="cls-18" x="187.026" y="34.108" width="59.328" height="110.064" rx="4.92"/>
      <g id="logo">
        <path class="cls-19" d="M243.3,46.882a2.794,2.794,0,0,1-.675.451,3.538,3.538,0,0,1-.6.2,3.14,3.14,0,0,1-.6.059,2.446,2.446,0,0,1-.632-.082,2.594,2.594,0,0,1-.548-.2,2.783,2.783,0,0,1-.691-.476.269.269,0,0,0-.132-.078.231.231,0,0,0-.176.032.257.257,0,0,0-.11.148.3.3,0,0,0-.007.069.19.19,0,0,0,.031.118,2.5,2.5,0,0,0,.289.261,3.232,3.232,0,0,0,1.11.565,2.813,2.813,0,0,0,.472.1l.1.012a3.765,3.765,0,0,0,.515.01,2.347,2.347,0,0,0,.276-.027c.044-.007.25-.047.3-.058s.262-.081.382-.123a3.148,3.148,0,0,0,.674-.35,2.25,2.25,0,0,0,.471-.4.246.246,0,0,0,0-.224.346.346,0,0,0-.1-.1.226.226,0,0,0-.222-.009A.59.59,0,0,0,243.3,46.882Z"/>
        <path class="cls-19" d="M239.76,46.236a.237.237,0,0,0,.013.265,2.227,2.227,0,0,0,.2.179,2.394,2.394,0,0,0,1.245.508,2.541,2.541,0,0,0,.363.008,1.7,1.7,0,0,0,.238-.028,2.329,2.329,0,0,0,1.267-.627c.063-.063.075-.08.086-.135a.237.237,0,0,0-.036-.18.253.253,0,0,0-.153-.111.2.2,0,0,0-.107,0,.232.232,0,0,0-.115.067,1.906,1.906,0,0,1-1.3.534,2.224,2.224,0,0,1-.382-.04,1.915,1.915,0,0,1-.912-.473.275.275,0,0,0-.132-.086.248.248,0,0,0-.165.02A.351.351,0,0,0,239.76,46.236Z"/>
        <path class="cls-19" d="M241.428,46.313h.13c.042,0,.143-.019.192-.029a1.5,1.5,0,0,0,.581-.261,1.38,1.38,0,0,0,.187-.168.224.224,0,0,0,.008-.283.235.235,0,0,0-.322-.077.779.779,0,0,0-.07.059,1.119,1.119,0,0,1-.144.114.961.961,0,0,1-.414.153,1.411,1.411,0,0,1-.268,0,1.007,1.007,0,0,1-.468-.2,1.067,1.067,0,0,1-.085-.072.217.217,0,0,0-.189-.083.229.229,0,0,0-.161.072.24.24,0,0,0-.053.277.244.244,0,0,0,.065.082,1.48,1.48,0,0,0,.732.388A1.206,1.206,0,0,0,241.428,46.313Z"/>
        <polygon class="cls-19" points="237.004 39.765 237.004 43.539 234.168 43.539 234.168 39.635 233.093 39.635 233.093 44.613 238.078 44.613 238.078 40.839 240.915 40.839 240.915 44.69 241.989 44.69 241.989 39.765 237.004 39.765"/>
        <path class="cls-19" d="M233.093,45.591v5.554h4.985V45.591ZM237,46.665v3.406h-2.836V46.665Z"/>
        <path class="cls-19" d="M233.093,58.5v5.554h4.985V58.5ZM237,59.574V62.98h-2.836V59.574Z"/>
        <polygon class="cls-19" points="233.142 52.045 233.142 53.119 237.004 53.119 237.004 56.525 233.142 56.525 233.142 57.599 238.078 57.599 238.078 52.045 233.142 52.045"/>
        <polygon class="cls-19" points="233.108 64.954 233.108 66.029 234.617 66.029 234.617 70.505 235.691 70.505 235.691 66.029 237.004 66.029 237.004 70.505 238.078 70.505 238.078 64.954 233.108 64.954"/>
        <text/>      </g>
      <line class="cls-12" x1="229.654" y1="38.5" x2="229.654" y2="139.084"/>
    </g>
    <text class="cls-20" transform="translate(233.092 114.285) rotate(90)">AM2301</text>
    <text class="cls-21" transform="translate(222.398 39.742) rotate(90)">POWER: 3.3–5.2V</text>
    <text class="cls-21" transform="translate(216.104 39.741) rotate(90)">HUMI: 0…99.9%RH</text>
    <text class="cls-21" transform="translate(209.808 39.741) rotate(90)">TEMP: −40…5O⁰C</text>
    <text class="cls-21" transform="translate(203.514 39.741) rotate(90)">PRECESION:±3%RH ±0.5⁰C</text>
    <text class="cls-21" transform="translate(197.219 39.741) rotate(90)">OUTPU<tspan class="cls-22" x="15.544" y="0">T</tspan><tspan x="17.894" y="0">:DIGI</tspan><tspan class="cls-23" x="28.96" y="0">T</tspan><tspan x="31.377" y="0">A</tspan><tspan class="cls-24" x="34.326" y="0">L</tspan><tspan x="36.673" y="0" xml:space="preserve"> (</tspan><tspan class="cls-25" x="40.015" y="0">T</tspan><tspan x="42.827" y="0" xml:space="preserve"> WIRE)</tspan></text>
    <text class="cls-21" transform="translate(190.924 39.741) rotate(90)">SERIE NO:D119090419B</text>
    <line class="cls-26" x1="195.598" y1="150.74" x2="239.014" y2="150.74"/>
  </g>
  <g id="top">
    <path class="cls-27" d="M141.023.5H84.7a9.4,9.4,0,0,0-9.4,9.4V150.74h17.72v22.67h39.69V150.74h17.71V9.9A9.4,9.4,0,0,0,141.023.5Zm-32.17,8.75a5.671,5.671,0,1,1-1.66,4.01A5.654,5.654,0,0,1,108.853,9.25Z"/>
    <rect class="cls-28" x="79.635" y="37.42" width="66.816" height="96.384"/>
    <path class="cls-29" d="M128.893,43.83h17.64c.13,0,.25.01.37.02.06.01.12.01.18.02a.566.566,0,0,1,.18.03,1.843,1.843,0,0,1,.25.05,1.17,1.17,0,0,1,.2.05c.08.03.16.05.24.08a2.388,2.388,0,0,1,.37.15c.09.04.17.08.26.13a1.492,1.492,0,0,1,.24.14,3.712,3.712,0,0,1,.32.23.789.789,0,0,1,.15.12,1.738,1.738,0,0,1,.15.13,1.848,1.848,0,0,1,.14.14,3.064,3.064,0,0,1,.4.49,2.111,2.111,0,0,1,.18.27,2.529,2.529,0,0,1,.13.22,1.754,1.754,0,0,1,.13.28V9.9a9.4,9.4,0,0,0-9.4-9.4H84.7a9.4,9.4,0,0,0-9.4,9.4V46.26a3.013,3.013,0,0,1,.16-.31l.67-.88a4.231,4.231,0,0,1,3.01-1.24h17.64a4.25,4.25,0,1,1,0,8.5H79.143a3.866,3.866,0,0,1-.48-.03,3.611,3.611,0,0,1-.97-.23c-.09-.03-.18-.06-.27-.1a4.828,4.828,0,0,1-.59-.32c-.14-.09-.27-.19-.4-.29a.406.406,0,0,1-.1-.09c-.13-.12-.26-.25-.38-.38a5.325,5.325,0,0,1-.36-.47,3.809,3.809,0,0,1-.29-.52V61.66a3.013,3.013,0,0,1,.16-.31l.67-.88a4.231,4.231,0,0,1,3.01-1.24h17.64a4.25,4.25,0,1,1,0,8.5H79.143a3.866,3.866,0,0,1-.48-.03,3.611,3.611,0,0,1-.97-.23c-.09-.03-.18-.06-.27-.1a4.828,4.828,0,0,1-.59-.32c-.14-.09-.27-.19-.4-.29a.406.406,0,0,1-.1-.09c-.13-.12-.26-.25-.38-.38a5.325,5.325,0,0,1-.36-.47,3.809,3.809,0,0,1-.29-.52V77.06a3.013,3.013,0,0,1,.16-.31l.67-.88a4.231,4.231,0,0,1,3.01-1.24h17.64a4.25,4.25,0,1,1,0,8.5H79.143a3.866,3.866,0,0,1-.48-.03,3.611,3.611,0,0,1-.97-.23c-.09-.03-.18-.06-.27-.1a4.828,4.828,0,0,1-.59-.32c-.14-.09-.27-.19-.4-.29a.406.406,0,0,1-.1-.09c-.13-.12-.26-.25-.38-.38a5.325,5.325,0,0,1-.36-.47,3.809,3.809,0,0,1-.29-.52V92.46a3.013,3.013,0,0,1,.16-.31l.67-.88a4.231,4.231,0,0,1,3.01-1.24h17.64a4.25,4.25,0,1,1,0,8.5H79.143a3.866,3.866,0,0,1-.48-.03,3.611,3.611,0,0,1-.97-.23c-.09-.03-.18-.06-.27-.1a4.828,4.828,0,0,1-.59-.32c-.14-.09-.27-.19-.4-.29a.406.406,0,0,1-.1-.09c-.13-.12-.26-.25-.38-.38a5.325,5.325,0,0,1-.36-.47,3.809,3.809,0,0,1-.29-.52v11.76a3.013,3.013,0,0,1,.16-.31l.67-.88a4.231,4.231,0,0,1,3.01-1.24h17.64a4.25,4.25,0,1,1,0,8.5H79.143a3.866,3.866,0,0,1-.48-.03,3.611,3.611,0,0,1-.97-.23c-.09-.03-.18-.06-.27-.1a4.828,4.828,0,0,1-.59-.32c-.14-.09-.27-.19-.4-.29a.406.406,0,0,1-.1-.09c-.13-.12-.26-.25-.38-.38a5.325,5.325,0,0,1-.36-.47,3.809,3.809,0,0,1-.29-.52v11.76a3.013,3.013,0,0,1,.16-.31l.67-.88a4.231,4.231,0,0,1,3.01-1.24h17.64a4.25,4.25,0,1,1,0,8.5H79.143a3.866,3.866,0,0,1-.48-.03,3.611,3.611,0,0,1-.97-.23c-.09-.03-.18-.06-.27-.1a4.828,4.828,0,0,1-.59-.32c-.14-.09-.27-.19-.4-.29a.406.406,0,0,1-.1-.09c-.13-.12-.26-.25-.38-.38a5.325,5.325,0,0,1-.36-.47,3.809,3.809,0,0,1-.29-.52v23.84h17.72v22.67h39.69V150.74h17.71V126.78l-.88,1.31a4.248,4.248,0,0,1-3.01,1.24h-17.64a4.25,4.25,0,1,1,0-8.5h17.64c.13,0,.25.01.37.02.06.01.12.01.18.02a.566.566,0,0,1,.18.03,1.843,1.843,0,0,1,.25.05,1.17,1.17,0,0,1,.2.05c.08.03.16.05.24.08a2.388,2.388,0,0,1,.37.15c.09.04.17.08.26.13a1.492,1.492,0,0,1,.24.14,3.712,3.712,0,0,1,.32.23.789.789,0,0,1,.15.12,1.738,1.738,0,0,1,.15.13,1.848,1.848,0,0,1,.14.14,3.064,3.064,0,0,1,.4.49,2.111,2.111,0,0,1,.18.27,2.529,2.529,0,0,1,.13.22,1.754,1.754,0,0,1,.13.28v-12l-.88,1.31a4.248,4.248,0,0,1-3.01,1.24h-17.64a4.25,4.25,0,1,1,0-8.5h17.64c.13,0,.25.01.37.02.06.01.12.01.18.02a.566.566,0,0,1,.18.03,1.843,1.843,0,0,1,.25.05,1.17,1.17,0,0,1,.2.05c.08.03.16.05.24.08a2.388,2.388,0,0,1,.37.15c.09.04.17.08.26.13a1.492,1.492,0,0,1,.24.14,3.712,3.712,0,0,1,.32.23.789.789,0,0,1,.15.12,1.738,1.738,0,0,1,.15.13,1.848,1.848,0,0,1,.14.14,3.064,3.064,0,0,1,.4.49,2.111,2.111,0,0,1,.18.27,2.529,2.529,0,0,1,.13.22,1.754,1.754,0,0,1,.13.28v-12l-.88,1.31a4.248,4.248,0,0,1-3.01,1.24h-17.64a4.25,4.25,0,1,1,0-8.5h17.64c.13,0,.25.01.37.02.06.01.12.01.18.02a.566.566,0,0,1,.18.03,1.843,1.843,0,0,1,.25.05,1.17,1.17,0,0,1,.2.05c.08.03.16.05.24.08a2.388,2.388,0,0,1,.37.15c.09.04.17.08.26.13a1.492,1.492,0,0,1,.24.14,3.712,3.712,0,0,1,.32.23.789.789,0,0,1,.15.12,1.738,1.738,0,0,1,.15.13,1.848,1.848,0,0,1,.14.14,3.064,3.064,0,0,1,.4.49,2.111,2.111,0,0,1,.18.27,2.529,2.529,0,0,1,.13.22,1.754,1.754,0,0,1,.13.28v-12l-.88,1.31a4.248,4.248,0,0,1-3.01,1.24h-17.64a4.25,4.25,0,1,1,0-8.5h17.64c.13,0,.25.01.37.02.06.01.12.01.18.02a.566.566,0,0,1,.18.03,1.843,1.843,0,0,1,.25.05,1.17,1.17,0,0,1,.2.05c.08.03.16.05.24.08a2.388,2.388,0,0,1,.37.15c.09.04.17.08.26.13a1.492,1.492,0,0,1,.24.14,3.712,3.712,0,0,1,.32.23.789.789,0,0,1,.15.12,1.738,1.738,0,0,1,.15.13,1.848,1.848,0,0,1,.14.14,3.064,3.064,0,0,1,.4.49,2.111,2.111,0,0,1,.18.27,2.529,2.529,0,0,1,.13.22,1.754,1.754,0,0,1,.13.28v-12l-.88,1.31a4.248,4.248,0,0,1-3.01,1.24h-17.64a4.25,4.25,0,1,1,0-8.5h17.64c.13,0,.25.01.37.02.06.01.12.01.18.02a.566.566,0,0,1,.18.03,1.843,1.843,0,0,1,.25.05,1.17,1.17,0,0,1,.2.05c.08.03.16.05.24.08a2.388,2.388,0,0,1,.37.15c.09.04.17.08.26.13a1.492,1.492,0,0,1,.24.14,3.712,3.712,0,0,1,.32.23.789.789,0,0,1,.15.12,1.738,1.738,0,0,1,.15.13,1.848,1.848,0,0,1,.14.14,3.064,3.064,0,0,1,.4.49,2.111,2.111,0,0,1,.18.27,2.529,2.529,0,0,1,.13.22,1.754,1.754,0,0,1,.13.28v-12l-.88,1.31a4.248,4.248,0,0,1-3.01,1.24h-17.64a4.25,4.25,0,1,1,0-8.5Zm-18.4,84.26a4.249,4.249,0,1,1,1.25-3.01A4.231,4.231,0,0,1,110.493,128.09Zm0-15.4a4.249,4.249,0,1,1,1.25-3.01A4.231,4.231,0,0,1,110.493,112.69Zm0-15.4a4.249,4.249,0,1,1,1.25-3.01A4.231,4.231,0,0,1,110.493,97.29Zm0-15.4a4.249,4.249,0,1,1,1.25-3.01A4.231,4.231,0,0,1,110.493,81.89Zm0-15.4a4.249,4.249,0,1,1,1.25-3.01A4.231,4.231,0,0,1,110.493,66.49Zm0-15.4a4.249,4.249,0,1,1,1.25-3.01A4.231,4.231,0,0,1,110.493,51.09Zm-3.3-37.83a5.671,5.671,0,1,1,5.67,5.67A5.619,5.619,0,0,1,107.193,13.26Zm14,114.83a4.249,4.249,0,1,1,1.25-3.01A4.224,4.224,0,0,1,121.193,128.09Zm0-15.4a4.249,4.249,0,1,1,1.25-3.01A4.224,4.224,0,0,1,121.193,112.69Zm0-15.4a4.249,4.249,0,1,1,1.25-3.01A4.224,4.224,0,0,1,121.193,97.29Zm0-15.4a4.249,4.249,0,1,1,1.25-3.01A4.224,4.224,0,0,1,121.193,81.89Zm0-15.4a4.249,4.249,0,1,1,1.25-3.01A4.224,4.224,0,0,1,121.193,66.49Zm0-15.4a4.249,4.249,0,1,1,1.25-3.01A4.224,4.224,0,0,1,121.193,51.09Z"/>
    <g>
      <path class="cls-30" d="M94.433.5V22.65a3.363,3.363,0,0,0,3.37,3.36h30.12a3.363,3.363,0,0,0,3.37-3.36V.5m-14.42,16.77a5.673,5.673,0,1,1,1.66-4.01A5.654,5.654,0,0,1,116.873,17.27Z"/>
      <path class="cls-31" d="M94.433.5V22.65a3.363,3.363,0,0,0,3.37,3.36h30.12a3.363,3.363,0,0,0,3.37-3.36V.5m-14.42,16.77a5.673,5.673,0,1,1,1.66-4.01A5.654,5.654,0,0,1,116.873,17.27Z"/>
    </g>
    <g>
      <path class="cls-1" d="M112.292,173.41c0,30.411,11.573,117.949-56.884,115.45-60.256-2.2-45.6-85.382-45.277-116.938"/>
      <rect class="cls-16" x="92.727" y="170.188" width="40.284" height="3.564"/>
      <rect class="cls-32" x="92.727" y="170.092" width="40.284" height="3.66"/>
      <line class="cls-17" x1="93.023" y1="169.799" x2="132.713" y2="169.799"/>
      <rect class="cls-33" x="92.727" y="150.74" width="40.284" height="19.059"/>
    </g>
    <line class="cls-17" x1="92.331" y1="150.583" x2="133.317" y2="150.583"/>
    <path class="cls-34" d="M128.893,43.83h17.64a4.238,4.238,0,0,1,3.85,2.46V9.08A8.578,8.578,0,0,0,141.8.5h-10.51V22.25a3.756,3.756,0,0,1-3.76,3.76H98.193a3.756,3.756,0,0,1-3.76-3.76V.5H83.843a8.578,8.578,0,0,0-8.58,8.58V46.34a4.159,4.159,0,0,1,.87-1.27,4.231,4.231,0,0,1,3.01-1.24h17.64a4.25,4.25,0,1,1,0,8.5H79.143a4.244,4.244,0,0,1-3.88-2.51V61.74a4.159,4.159,0,0,1,.87-1.27,4.231,4.231,0,0,1,3.01-1.24h17.64a4.25,4.25,0,1,1,0,8.5H79.143a4.244,4.244,0,0,1-3.88-2.51V77.14a4.159,4.159,0,0,1,.87-1.27,4.231,4.231,0,0,1,3.01-1.24h17.64a4.25,4.25,0,1,1,0,8.5H79.143a4.244,4.244,0,0,1-3.88-2.51V92.54a4.159,4.159,0,0,1,.87-1.27,4.231,4.231,0,0,1,3.01-1.24h17.64a4.25,4.25,0,1,1,0,8.5H79.143a4.244,4.244,0,0,1-3.88-2.51v11.92a4.159,4.159,0,0,1,.87-1.27,4.231,4.231,0,0,1,3.01-1.24h17.64a4.25,4.25,0,1,1,0,8.5H79.143a4.244,4.244,0,0,1-3.88-2.51v11.92a4.159,4.159,0,0,1,.87-1.27,4.231,4.231,0,0,1,3.01-1.24h17.64a4.25,4.25,0,1,1,0,8.5H79.143a4.244,4.244,0,0,1-3.88-2.51v23.92h75.12V126.87a3.968,3.968,0,0,1-.84,1.22,4.248,4.248,0,0,1-3.01,1.24h-17.64a4.25,4.25,0,1,1,0-8.5h17.64a4.238,4.238,0,0,1,3.85,2.46V111.47a3.968,3.968,0,0,1-.84,1.22,4.248,4.248,0,0,1-3.01,1.24h-17.64a4.25,4.25,0,1,1,0-8.5h17.64a4.238,4.238,0,0,1,3.85,2.46V96.07a3.968,3.968,0,0,1-.84,1.22,4.248,4.248,0,0,1-3.01,1.24h-17.64a4.25,4.25,0,1,1,0-8.5h17.64a4.238,4.238,0,0,1,3.85,2.46V80.67a3.968,3.968,0,0,1-.84,1.22,4.248,4.248,0,0,1-3.01,1.24h-17.64a4.25,4.25,0,1,1,0-8.5h17.64a4.238,4.238,0,0,1,3.85,2.46V65.27a3.968,3.968,0,0,1-.84,1.22,4.248,4.248,0,0,1-3.01,1.24h-17.64a4.25,4.25,0,1,1,0-8.5h17.64a4.238,4.238,0,0,1,3.85,2.46V49.87a3.968,3.968,0,0,1-.84,1.22,4.248,4.248,0,0,1-3.01,1.24h-17.64a4.25,4.25,0,1,1,0-8.5Zm-18.4,84.26a4.249,4.249,0,1,1,1.25-3.01A4.231,4.231,0,0,1,110.493,128.09Zm0-15.4a4.249,4.249,0,1,1,1.25-3.01A4.231,4.231,0,0,1,110.493,112.69Zm0-15.4a4.249,4.249,0,1,1,1.25-3.01A4.231,4.231,0,0,1,110.493,97.29Zm0-15.4a4.249,4.249,0,1,1,1.25-3.01A4.231,4.231,0,0,1,110.493,81.89Zm0-15.4a4.249,4.249,0,1,1,1.25-3.01A4.231,4.231,0,0,1,110.493,66.49Zm0-15.4a4.249,4.249,0,1,1,1.25-3.01A4.231,4.231,0,0,1,110.493,51.09Zm10.7,77a4.249,4.249,0,1,1,1.25-3.01A4.224,4.224,0,0,1,121.193,128.09Zm0-15.4a4.249,4.249,0,1,1,1.25-3.01A4.224,4.224,0,0,1,121.193,112.69Zm0-15.4a4.249,4.249,0,1,1,1.25-3.01A4.224,4.224,0,0,1,121.193,97.29Zm0-15.4a4.249,4.249,0,1,1,1.25-3.01A4.224,4.224,0,0,1,121.193,81.89Zm0-15.4a4.249,4.249,0,1,1,1.25-3.01A4.224,4.224,0,0,1,121.193,66.49Zm0-15.4a4.249,4.249,0,1,1,1.25-3.01A4.224,4.224,0,0,1,121.193,51.09Z"/>
    <g>
      <path d="M150.783,48.08a4.12,4.12,0,0,1-.4,1.79V46.29A4.12,4.12,0,0,1,150.783,48.08Z"/>
      <path d="M150.783,63.48a4.12,4.12,0,0,1-.4,1.79V61.69A4.12,4.12,0,0,1,150.783,63.48Z"/>
      <path d="M150.783,78.88a4.12,4.12,0,0,1-.4,1.79V77.09A4.12,4.12,0,0,1,150.783,78.88Z"/>
      <path d="M150.783,94.28a4.12,4.12,0,0,1-.4,1.79V92.49A4.12,4.12,0,0,1,150.783,94.28Z"/>
      <path d="M150.783,109.68a4.12,4.12,0,0,1-.4,1.79v-3.58A4.12,4.12,0,0,1,150.783,109.68Z"/>
      <path d="M150.783,125.08a4.12,4.12,0,0,1-.4,1.79v-3.58A4.12,4.12,0,0,1,150.783,125.08Z"/>
      <path d="M75.263,46.34v3.48a4.276,4.276,0,0,1,0-3.48Z"/>
      <path d="M75.263,61.74v3.48a4.276,4.276,0,0,1,0-3.48Z"/>
      <path d="M75.263,77.14v3.48a4.276,4.276,0,0,1,0-3.48Z"/>
      <path d="M75.263,92.54v3.48a4.276,4.276,0,0,1,0-3.48Z"/>
      <path d="M75.263,107.94v3.48a4.276,4.276,0,0,1,0-3.48Z"/>
      <path d="M75.263,123.34v3.48a4.276,4.276,0,0,1,0-3.48Z"/>
    </g>
    <g>
      <g>
        <path id="stecker-2" data-name="stecker" class="cls-35" d="M11.462,89.22a.764.764,0,0,1-.186-.706l1.244-4.678a1.334,1.334,0,0,0-.085-.827l-1.073-2.058a.74.74,0,0,0-.572-.387H8.573A.737.737,0,0,0,8,80.951L6.928,83.009a1.334,1.334,0,0,0-.085.827l1.244,4.678a.766.766,0,0,1-.185.706l-.873.77a1.1,1.1,0,0,0-.3.729v30.447a.425.425,0,0,0,.37.463h5.171a.425.425,0,0,0,.37-.463V90.719a1.1,1.1,0,0,0-.3-.729Z"/>
        <rect class="cls-36" x="4.717" y="110.703" width="9.928" height="2.789"/>
        <rect id="Ring_3-2" data-name="Ring 3" class="cls-37" x="6.726" y="103.215" width="5.91" height="1.252"/>
        <rect id="Ring_2-2" data-name="Ring 2" class="cls-38" x="6.726" y="96.871" width="5.91" height="1.252"/>
        <rect id="Ring_1-2" data-name="Ring 1" class="cls-39" x="6.726" y="90.527" width="5.91" height="1.252"/>
        <g id="optische_verbesserung_an_der_spitze-2" data-name="optische verbesserung an der spitze">
          <path class="cls-7" d="M11.258,88.724H8.106a.82.82,0,0,1-.084.327h3.319A.836.836,0,0,1,11.258,88.724Z"/>
          <path class="cls-7" d="M6.838,83.313a1.453,1.453,0,0,0-.023.327h5.733a1.453,1.453,0,0,0-.023-.327Z"/>
        </g>
        <rect id="optische_verbesserung-2" data-name="optische verbesserung" class="cls-8" x="6.726" y="110.557" width="5.91" height="0.146"/>
      </g>
      <polygon class="cls-9" points="19.843 155.512 0 155.512 2.835 172.224 17.008 172.224 19.843 155.512"/>
      <polygon class="cls-40" points="19.843 155.972 0 155.972 2.835 172.224 17.008 172.224 19.843 155.972"/>
      <rect class="cls-9" y="113.452" width="19.843" height="42.52"/>
      <rect class="cls-41" y="113.452" width="19.843" height="42.52"/>
      <g>
        <line class="cls-12" y1="138.904" x2="19.843" y2="138.904"/>
        <line class="cls-12" y1="136.904" x2="19.843" y2="136.904"/>
        <line class="cls-12" y1="134.904" x2="19.843" y2="134.904"/>
        <line class="cls-12" y1="132.904" x2="19.843" y2="132.904"/>
        <line class="cls-12" y1="130.904" x2="19.843" y2="130.904"/>
        <line class="cls-12" y1="128.904" x2="19.843" y2="128.904"/>
      </g>
      <polygon class="cls-13" points="7.661 168.712 2.239 168.712 2.597 170.824 7.661 170.824 7.661 168.712"/>
      <polygon class="cls-13" points="5.753 157.712 0.331 157.712 0.689 159.824 5.753 159.824 5.753 157.712"/>
      <polygon class="cls-13" points="17.62 168.712 8.153 168.712 8.153 170.824 17.273 170.824 17.62 168.712"/>
      <polygon class="cls-13" points="18.268 164.712 8.801 164.712 8.801 166.824 17.921 166.824 18.268 164.712"/>
      <polygon class="cls-13" points="18.906 161 0.936 161 1.272 163.112 18.57 163.112 18.906 161"/>
      <rect class="cls-13" y="155.282" width="19.843" height="0.912"/>
    </g>
  </g>
</svg>
