<svg id="sonoff-smart-wall-switch-t2eu1c" xmlns="http://www.w3.org/2000/svg" xmlns:xlink="http://www.w3.org/1999/xlink" width="182.05mm" height="86mm" viewBox="0 0 516.047 243.78">
  <defs>
    <style>
      .cls-1 {
        fill: #f2f2ef;
      }

      .cls-2, .cls-30 {
        fill: #1a1a1a;
      }

      .cls-2 {
        stroke: #e6e6e6;
      }

      .cls-11, .cls-13, .cls-14, .cls-15, .cls-16, .cls-17, .cls-18, .cls-19, .cls-2, .cls-21, .cls-22, .cls-23, .cls-24, .cls-25, .cls-26, .cls-27, .cls-3, .cls-30, .cls-31, .cls-32, .cls-33, .cls-34, .cls-35, .cls-36, .cls-38, .cls-39, .cls-48, .cls-9 {
        stroke-miterlimit: 10;
      }

      .cls-2, .cls-9 {
        stroke-width: 2.835px;
      }

      .cls-3 {
        fill: #cacbc4;
      }

      .cls-3, .cls-36 {
        stroke: #333;
      }

      .cls-13, .cls-14, .cls-15, .cls-16, .cls-17, .cls-18, .cls-19, .cls-21, .cls-22, .cls-23, .cls-24, .cls-25, .cls-26, .cls-27, .cls-3, .cls-30, .cls-31, .cls-32, .cls-33, .cls-34, .cls-35, .cls-36 {
        stroke-width: 0.283px;
      }

      .cls-4 {
        fill: #b3b3b3;
      }

      .cls-5 {
        fill: url(#Безымянный_градиент_33);
      }

      .cls-6 {
        fill: url(#Безымянный_градиент_33-2);
      }

      .cls-7 {
        fill: url(#Безымянный_градиент_33-3);
      }

      .cls-8 {
        fill: url(#Безымянный_градиент_33-4);
      }

      .cls-11, .cls-16, .cls-17, .cls-18, .cls-19, .cls-22, .cls-23, .cls-24, .cls-25, .cls-32, .cls-33, .cls-34, .cls-35, .cls-38, .cls-39, .cls-48, .cls-9 {
        fill: none;
      }

      .cls-9 {
        stroke: #b3b3b3;
      }

      .cls-10 {
        fill: #f2f2f2;
      }

      .cls-11 {
        stroke: #ccc;
      }

      .cls-12 {
        fill: #e6e6e6;
      }

      .cls-13 {
        fill: #163a23;
      }

      .cls-13, .cls-14, .cls-15, .cls-21, .cls-26, .cls-27, .cls-30, .cls-31, .cls-38, .cls-39 {
        stroke: #4d4d4d;
      }

      .cls-14 {
        fill: #552105;
      }

      .cls-15 {
        fill: url(#Безымянный_градиент_13);
      }

      .cls-16 {
        stroke: url(#Безымянный_градиент_21);
      }

      .cls-17 {
        stroke: url(#Безымянный_градиент_21-2);
      }

      .cls-18 {
        stroke: url(#Безымянный_градиент_21-3);
      }

      .cls-19 {
        stroke: url(#Безымянный_градиент_21-4);
      }

      .cls-20 {
        fill: #e0892b;
      }

      .cls-21 {
        fill: url(#Безымянный_градиент_13-2);
      }

      .cls-22 {
        stroke: url(#Безымянный_градиент_21-5);
      }

      .cls-23 {
        stroke: url(#Безымянный_градиент_21-6);
      }

      .cls-24 {
        stroke: url(#Безымянный_градиент_21-7);
      }

      .cls-25 {
        stroke: url(#Безымянный_градиент_21-8);
      }

      .cls-26 {
        fill: #212420;
      }

      .cls-27 {
        fill: #88816f;
      }

      .cls-28 {
        fill: #ccc;
      }

      .cls-29, .cls-36, .cls-51 {
        fill: #fff;
      }

      .cls-31 {
        fill: url(#Безымянный_градиент_13-3);
      }

      .cls-32 {
        stroke: url(#Безымянный_градиент_21-9);
      }

      .cls-33 {
        stroke: url(#Безымянный_градиент_21-10);
      }

      .cls-34 {
        stroke: url(#Безымянный_градиент_21-11);
      }

      .cls-35 {
        stroke: url(#Безымянный_градиент_21-12);
      }

      .cls-37, .cls-50 {
        fill: #4d4d4d;
      }

      .cls-38 {
        stroke-width: 0.992px;
      }

      .cls-39 {
        stroke-width: 0.709px;
      }

      .cls-40 {
        font-size: 12px;
        font-family: TrebuchetMS-Bold, Trebuchet MS;
        font-weight: 700;
      }

      .cls-40, .cls-41 {
        fill: #9f999c;
      }

      .cls-41 {
        font-size: 5px;
        font-family: TrebuchetMS, Trebuchet MS;
      }

      .cls-42 {
        letter-spacing: -0.018em;
      }

      .cls-43 {
        letter-spacing: 0em;
      }

      .cls-44 {
        letter-spacing: -0.014em;
      }

      .cls-45 {
        letter-spacing: -0.055em;
      }

      .cls-46 {
        letter-spacing: -0.018em;
      }

      .cls-47 {
        letter-spacing: -0.125em;
      }

      .cls-48 {
        stroke: #9f999c;
        stroke-width: 0.709px;
      }

      .cls-49 {
        letter-spacing: -0.037em;
      }

      .cls-50, .cls-51 {
        fill-rule: evenodd;
      }

      .cls-52 {
        fill: #bebebe;
      }

      .cls-53 {
        fill: #eef4f2;
      }

      .cls-54 {
        fill: url(#Безымянный_градиент_82);
      }
    </style>
    <linearGradient id="Безымянный_градиент_33" data-name="Безымянный градиент 33" x1="463.141" y1="10.65" x2="463.141" y2="4.602" gradientUnits="userSpaceOnUse">
      <stop offset="0.006" stop-color="#ccc" stop-opacity="0"/>
      <stop offset="0.118" stop-color="#a4a4a4" stop-opacity="0.314"/>
      <stop offset="0.282" stop-color="#757575" stop-opacity="0.689"/>
      <stop offset="0.424" stop-color="#575757" stop-opacity="0.918"/>
      <stop offset="0.528" stop-color="#4d4d4d"/>
      <stop offset="0.623" stop-color="#5b5b5b" stop-opacity="0.891"/>
      <stop offset="0.774" stop-color="#818181" stop-opacity="0.594"/>
      <stop offset="0.961" stop-color="#bebebe" stop-opacity="0.112"/>
      <stop offset="1" stop-color="#ccc" stop-opacity="0"/>
    </linearGradient>
    <linearGradient id="Безымянный_градиент_33-2" x1="324.141" y1="10.65" x2="324.141" y2="4.602" xlink:href="#Безымянный_градиент_33"/>
    <linearGradient id="Безымянный_градиент_33-3" x1="443.141" y1="240.65" x2="443.141" y2="234.602" xlink:href="#Безымянный_градиент_33"/>
    <linearGradient id="Безымянный_градиент_33-4" x1="344.141" y1="240.65" x2="344.141" y2="234.602" xlink:href="#Безымянный_градиент_33"/>
    <linearGradient id="Безымянный_градиент_13" data-name="Безымянный градиент 13" x1="378.249" y1="67.58" x2="389.625" y2="67.58" gradientUnits="userSpaceOnUse">
      <stop offset="0" stop-color="#502c17"/>
      <stop offset="0.234" stop-color="#996321"/>
      <stop offset="0.528" stop-color="#f1a52c"/>
      <stop offset="0.774" stop-color="#966325"/>
      <stop offset="1" stop-color="#462a1f"/>
    </linearGradient>
    <linearGradient id="Безымянный_градиент_21" data-name="Безымянный градиент 21" x1="379.984" y1="66.718" x2="387.907" y2="66.718" gradientUnits="userSpaceOnUse">
      <stop offset="0.006" stop-color="#502c17" stop-opacity="0"/>
      <stop offset="0.029" stop-color="#5a351c" stop-opacity="0.07"/>
      <stop offset="0.132" stop-color="#82572f" stop-opacity="0.349"/>
      <stop offset="0.23" stop-color="#a47440" stop-opacity="0.582"/>
      <stop offset="0.322" stop-color="#be8b4c" stop-opacity="0.763"/>
      <stop offset="0.405" stop-color="#d19b55" stop-opacity="0.893"/>
      <stop offset="0.476" stop-color="#dca55b" stop-opacity="0.972"/>
      <stop offset="0.528" stop-color="#e0a85d"/>
      <stop offset="0.572" stop-color="#daa35b" stop-opacity="0.963"/>
      <stop offset="0.642" stop-color="#ca9654" stop-opacity="0.86"/>
      <stop offset="0.729" stop-color="#b1814a" stop-opacity="0.693"/>
      <stop offset="0.83" stop-color="#8d643c" stop-opacity="0.461"/>
      <stop offset="0.941" stop-color="#603f29" stop-opacity="0.168"/>
      <stop offset="1" stop-color="#462a1f" stop-opacity="0"/>
    </linearGradient>
    <linearGradient id="Безымянный_градиент_21-2" x1="427.223" y1="66.387" x2="435.147" y2="66.387" gradientTransform="matrix(1.189, -0.005, -0.005, 1, -128.557, 3.621)" xlink:href="#Безымянный_градиент_21"/>
    <linearGradient id="Безымянный_градиент_21-3" x1="427.223" y1="67.387" x2="435.147" y2="67.387" gradientTransform="matrix(1.189, -0.005, -0.005, 1, -128.557, 3.621)" xlink:href="#Безымянный_градиент_21"/>
    <linearGradient id="Безымянный_градиент_21-4" x1="427.223" y1="68.387" x2="435.147" y2="68.387" gradientTransform="matrix(1.189, -0.005, -0.005, 1, -128.557, 3.621)" xlink:href="#Безымянный_градиент_21"/>
    <linearGradient id="Безымянный_градиент_13-2" x1="397.513" y1="67.58" x2="408.889" y2="67.58" xlink:href="#Безымянный_градиент_13"/>
    <linearGradient id="Безымянный_градиент_21-5" x1="399.248" y1="66.718" x2="407.171" y2="66.718" xlink:href="#Безымянный_градиент_21"/>
    <linearGradient id="Безымянный_градиент_21-6" x1="443.42" y1="66.474" x2="451.344" y2="66.474" gradientTransform="matrix(1.189, -0.005, -0.005, 1, -128.557, 3.621)" xlink:href="#Безымянный_градиент_21"/>
    <linearGradient id="Безымянный_градиент_21-7" x1="443.42" y1="67.474" x2="451.344" y2="67.474" gradientTransform="matrix(1.189, -0.005, -0.005, 1, -128.557, 3.621)" xlink:href="#Безымянный_градиент_21"/>
    <linearGradient id="Безымянный_градиент_21-8" x1="443.42" y1="68.474" x2="451.344" y2="68.474" gradientTransform="matrix(1.189, -0.005, -0.005, 1, -128.557, 3.621)" xlink:href="#Безымянный_градиент_21"/>
    <linearGradient id="Безымянный_градиент_13-3" x1="799.717" y1="-139.784" x2="811.093" y2="-139.784" gradientTransform="translate(479.341 894.829) rotate(-90)" xlink:href="#Безымянный_градиент_13"/>
    <linearGradient id="Безымянный_градиент_21-9" x1="801.451" y1="-140.646" x2="809.375" y2="-140.646" gradientTransform="translate(479.341 894.829) rotate(-90)" xlink:href="#Безымянный_градиент_21"/>
    <linearGradient id="Безымянный_градиент_21-10" x1="780.658" y1="-139.06" x2="788.581" y2="-139.06" gradientTransform="matrix(-0.005, -1.189, 1, 0.005, 482.963, 1023.387)" xlink:href="#Безымянный_градиент_21"/>
    <linearGradient id="Безымянный_градиент_21-11" x1="780.658" y1="-138.06" x2="788.581" y2="-138.06" gradientTransform="matrix(-0.005, -1.189, 1, 0.005, 482.963, 1023.387)" xlink:href="#Безымянный_градиент_21"/>
    <linearGradient id="Безымянный_градиент_21-12" x1="780.658" y1="-137.06" x2="788.581" y2="-137.06" gradientTransform="matrix(-0.005, -1.189, 1, 0.005, 482.963, 1023.387)" xlink:href="#Безымянный_градиент_21"/>
    <linearGradient id="Безымянный_градиент_82" data-name="Безымянный градиент 82" x1="1.418" y1="121.89" x2="242.362" y2="121.89" gradientTransform="translate(0 243.78) rotate(-90)" gradientUnits="userSpaceOnUse">
      <stop offset="0" stop-color="#e8f4ef"/>
      <stop offset="0.09" stop-color="#d8e2de"/>
      <stop offset="0.202" stop-color="#ccd3d0"/>
      <stop offset="0.334" stop-color="#c4cac8"/>
      <stop offset="0.531" stop-color="#c2c7c5"/>
      <stop offset="0.68" stop-color="#c5cac8"/>
      <stop offset="0.811" stop-color="#ced5d2"/>
      <stop offset="0.935" stop-color="#dee7e3"/>
      <stop offset="1" stop-color="#e9f4ef"/>
    </linearGradient>
  </defs>
  <title>sonoff-smart-wall-switch-t2eu1c</title>
  <g id="bottom">
    <rect class="cls-1" x="272.268" width="243.78" height="243.78" rx="6.77"/>
    <rect class="cls-2" x="307.148" y="34.266" width="172.122" height="175.104"/>
    <path class="cls-3" d="M278.855,7.62V237.19h229.57V7.62ZM369.4,38.77a7.474,7.474,0,0,1,7.909-7.01,2.105,2.105,0,0,1,.25.03c10.26-3.67,20.96-2.01,31.6-1.18,7.959.62,7.209,13-.75,12.37-7.771-.6-17.351-2.69-24.991-.2a7.223,7.223,0,0,1-1.61,2.03A7.459,7.459,0,0,1,369.4,38.77Zm-51,97.55a7.479,7.479,0,0,1-14.93-.9,2.552,2.552,0,0,1,.029-.26c-3.67-10.25-2.01-20.95-1.18-31.59.62-7.97,13-7.22,12.37.75-.6,7.77-2.69,17.35-.209,24.98a7,7,0,0,1,2.039,1.62A7.469,7.469,0,0,1,318.4,136.32Zm96.359,69.72a7.49,7.49,0,0,1-7.909,7.01,2.249,2.249,0,0,1-.26-.03c-10.25,3.67-20.951,2.02-31.591,1.19-7.969-.63-7.219-13.01.75-12.38,7.77.6,17.351,2.7,24.981.21a6.959,6.959,0,0,1,1.62-2.04,7.459,7.459,0,0,1,12.409,6.04Zm70.221-68.31c-.63,7.96-13.01,7.21-12.38-.75.6-7.77,2.7-17.35.209-24.99a7.155,7.155,0,0,1-2.04-1.61,7.47,7.47,0,1,1,13.05-4.5c-.01.08-.01.17-.029.26C487.455,116.39,485.805,127.09,484.976,137.73Z"/>
    <g id="дырки">
      <g>
        <rect class="cls-4" x="308.013" y="4.602" width="32.256" height="6.048"/>
        <rect class="cls-4" x="447.013" y="4.602" width="32.256" height="6.048"/>
        <rect class="cls-5" x="447.013" y="4.602" width="32.256" height="6.048"/>
        <rect class="cls-6" x="308.013" y="4.602" width="32.256" height="6.048"/>
      </g>
      <g>
        <rect class="cls-4" x="328.013" y="234.602" width="32.256" height="6.048"/>
        <rect class="cls-4" x="427.013" y="234.602" width="32.256" height="6.048"/>
        <rect class="cls-7" x="427.013" y="234.602" width="32.256" height="6.048"/>
        <rect class="cls-8" x="328.013" y="234.602" width="32.256" height="6.048"/>
      </g>
    </g>
    <g id="вверх">
      <path class="cls-9" d="M466.5,104.266v17.28a72.86,72.86,0,1,1-145.72,0v-17.28a58.655,58.655,0,0,1,35.78-53.86h74.16A58.655,58.655,0,0,1,466.5,104.266Z"/>
      <path class="cls-10" d="M463.571,113.646v6.08h2.93v1.82c0,1.07-.02,2.14-.08,3.2h-2.96v6.08h2.44a73,73,0,0,1-28.37,48.78l-1.73-2.63-5.08,3.34,1.81,2.76a70.627,70.627,0,0,1-6.9,3.89l-1.37-2.85-5.49,2.63,1.29,2.67a69.19,69.19,0,0,1-7.25,2.41l-.89-2.45-5.71,2.08.63,1.74a71.01,71.01,0,0,1-7.19.96V192h-6.08v2.41a70.279,70.279,0,0,1-8.75-.54l.35-2.93-6.04-.73-.32,2.67a71.387,71.387,0,0,1-7.44-1.98l1.08-3.43-5.8-1.82-.99,3.14a71.771,71.771,0,0,1-6.73-3.24l1.97-2.93-5.04-3.39-2.15,3.18a73.125,73.125,0,0,1-32.34-51.58h2.11v-6.08h-2.62c-.06-1.06-.08-2.13-.08-3.2v-1.82h2.7v-6.08h-2.7v-5.02h2.7v-6.08h-2.67a58,58,0,0,1,3.71-18.82l2.18,1.08,5.8-11.75-1.99-.99a59.071,59.071,0,0,1,26.05-21.66h74.16a58.664,58.664,0,0,1,35.75,52.14h-3.01v6.08h3.04v5.02Z"/>
      <path class="cls-11" d="M463.571,113.646v6.08h2.93v1.82c0,1.07-.02,2.14-.08,3.2h-2.96v6.08h2.44a73,73,0,0,1-28.37,48.78l-1.73-2.63-5.08,3.34,1.81,2.76a70.627,70.627,0,0,1-6.9,3.89l-1.37-2.85-5.49,2.63,1.29,2.67a69.19,69.19,0,0,1-7.25,2.41l-.89-2.45-5.71,2.08.63,1.74a71.01,71.01,0,0,1-7.19.96V192h-6.08v2.41a70.279,70.279,0,0,1-8.75-.54l.35-2.93-6.04-.73-.32,2.67a71.387,71.387,0,0,1-7.44-1.98l1.08-3.43-5.8-1.82-.99,3.14a71.771,71.771,0,0,1-6.73-3.24l1.97-2.93-5.04-3.39-2.15,3.18a73.125,73.125,0,0,1-32.34-51.58h2.11v-6.08h-2.62c-.06-1.06-.08-2.13-.08-3.2v-1.82h2.7v-6.08h-2.7v-5.02h2.7v-6.08h-2.67a58,58,0,0,1,3.71-18.82l2.18,1.08,5.8-11.75-1.99-.99a59.071,59.071,0,0,1,26.05-21.66h74.16a58.664,58.664,0,0,1,35.75,52.14h-3.01v6.08h3.04v5.02Z"/>
      <rect class="cls-12" x="356.057" y="50.406" width="75.024" height="26.498"/>
      <g>
        <rect class="cls-13" x="358.985" y="64.736" width="11.376" height="11.376" rx="5.688"/>
        <g>
          <rect class="cls-14" x="378.249" y="64.736" width="11.376" height="11.376" rx="5.688"/>
          <g>
            <path class="cls-15" d="M389.625,70.424H378.249a8.084,8.084,0,0,1,1.424-3.6,6.184,6.184,0,0,1,4.264-2.088,6.3,6.3,0,0,1,4.646,2.406A7.784,7.784,0,0,1,389.625,70.424Z"/>
            <line class="cls-16" x1="379.985" y1="66.761" x2="387.906" y2="66.675"/>
            <line class="cls-17" x1="379.226" y1="67.783" x2="388.647" y2="67.654"/>
            <line class="cls-18" x1="379.221" y1="68.783" x2="388.642" y2="68.654"/>
            <line class="cls-19" x1="379.215" y1="69.783" x2="388.637" y2="69.654"/>
            <rect class="cls-20" x="383.657" y="66.872" width="0.888" height="0.708"/>
            <rect class="cls-20" x="383.657" y="65.872" width="0.888" height="0.708"/>
            <rect class="cls-20" x="383.657" y="67.872" width="0.888" height="0.708"/>
            <rect class="cls-20" x="383.657" y="68.872" width="0.888" height="0.708"/>
            <rect class="cls-20" x="382.657" y="66.872" width="0.888" height="0.708"/>
            <rect class="cls-20" x="382.657" y="65.872" width="0.888" height="0.708"/>
            <rect class="cls-20" x="382.657" y="67.872" width="0.888" height="0.708"/>
            <rect class="cls-20" x="382.657" y="68.872" width="0.888" height="0.708"/>
            <rect class="cls-20" x="381.657" y="66.872" width="0.888" height="0.708"/>
            <rect class="cls-20" x="381.657" y="65.872" width="0.888" height="0.708"/>
            <rect class="cls-20" x="381.657" y="67.872" width="0.888" height="0.708"/>
            <rect class="cls-20" x="381.657" y="68.872" width="0.888" height="0.708"/>
            <rect class="cls-20" x="382.657" y="66.872" width="0.888" height="0.708"/>
            <rect class="cls-20" x="382.657" y="65.872" width="0.888" height="0.708"/>
            <rect class="cls-20" x="382.657" y="67.872" width="0.888" height="0.708"/>
            <rect class="cls-20" x="382.657" y="68.872" width="0.888" height="0.708"/>
            <rect class="cls-20" x="383.657" y="66.872" width="0.888" height="0.708"/>
            <rect class="cls-20" x="383.657" y="65.872" width="0.888" height="0.708"/>
            <rect class="cls-20" x="383.657" y="67.872" width="0.888" height="0.708"/>
            <rect class="cls-20" x="383.657" y="68.872" width="0.888" height="0.708"/>
            <rect class="cls-20" x="384.657" y="66.872" width="0.888" height="0.708"/>
            <rect class="cls-20" x="384.657" y="65.872" width="0.888" height="0.708"/>
            <rect class="cls-20" x="384.657" y="67.872" width="0.888" height="0.708"/>
            <rect class="cls-20" x="384.657" y="68.872" width="0.888" height="0.708"/>
            <rect class="cls-20" x="385.657" y="66.872" width="0.888" height="0.708"/>
            <rect class="cls-20" x="385.657" y="65.872" width="0.888" height="0.708"/>
            <rect class="cls-20" x="385.657" y="67.872" width="0.888" height="0.708"/>
            <rect class="cls-20" x="385.657" y="68.872" width="0.888" height="0.708"/>
          </g>
        </g>
        <g>
          <rect class="cls-14" x="397.513" y="64.736" width="11.376" height="11.376" rx="5.688"/>
          <g>
            <path class="cls-21" d="M408.889,70.424H397.513a8.084,8.084,0,0,1,1.424-3.6,6.184,6.184,0,0,1,4.264-2.088,6.3,6.3,0,0,1,4.646,2.406A7.784,7.784,0,0,1,408.889,70.424Z"/>
            <line class="cls-22" x1="399.249" y1="66.761" x2="407.17" y2="66.675"/>
            <line class="cls-23" x1="398.49" y1="67.783" x2="407.911" y2="67.654"/>
            <line class="cls-24" x1="398.485" y1="68.783" x2="407.906" y2="68.654"/>
            <line class="cls-25" x1="398.479" y1="69.783" x2="407.901" y2="69.654"/>
            <rect class="cls-20" x="402.921" y="66.872" width="0.888" height="0.708"/>
            <rect class="cls-20" x="402.921" y="65.872" width="0.888" height="0.708"/>
            <rect class="cls-20" x="402.921" y="67.872" width="0.888" height="0.708"/>
            <rect class="cls-20" x="402.921" y="68.872" width="0.888" height="0.708"/>
            <rect class="cls-20" x="401.921" y="66.872" width="0.888" height="0.708"/>
            <rect class="cls-20" x="401.921" y="65.872" width="0.888" height="0.708"/>
            <rect class="cls-20" x="401.921" y="67.872" width="0.888" height="0.708"/>
            <rect class="cls-20" x="401.921" y="68.872" width="0.888" height="0.708"/>
            <rect class="cls-20" x="400.921" y="66.872" width="0.888" height="0.708"/>
            <rect class="cls-20" x="400.921" y="65.872" width="0.888" height="0.708"/>
            <rect class="cls-20" x="400.921" y="67.872" width="0.888" height="0.708"/>
            <rect class="cls-20" x="400.921" y="68.872" width="0.888" height="0.708"/>
            <rect class="cls-20" x="401.921" y="66.872" width="0.888" height="0.708"/>
            <rect class="cls-20" x="401.921" y="65.872" width="0.888" height="0.708"/>
            <rect class="cls-20" x="401.921" y="67.872" width="0.888" height="0.708"/>
            <rect class="cls-20" x="401.921" y="68.872" width="0.888" height="0.708"/>
            <rect class="cls-20" x="402.921" y="66.872" width="0.888" height="0.708"/>
            <rect class="cls-20" x="402.921" y="65.872" width="0.888" height="0.708"/>
            <rect class="cls-20" x="402.921" y="67.872" width="0.888" height="0.708"/>
            <rect class="cls-20" x="402.921" y="68.872" width="0.888" height="0.708"/>
            <rect class="cls-20" x="403.921" y="66.872" width="0.888" height="0.708"/>
            <rect class="cls-20" x="403.921" y="65.872" width="0.888" height="0.708"/>
            <rect class="cls-20" x="403.921" y="67.872" width="0.888" height="0.708"/>
            <rect class="cls-20" x="403.921" y="68.872" width="0.888" height="0.708"/>
            <rect class="cls-20" x="404.921" y="66.872" width="0.888" height="0.708"/>
            <rect class="cls-20" x="404.921" y="65.872" width="0.888" height="0.708"/>
            <rect class="cls-20" x="404.921" y="67.872" width="0.888" height="0.708"/>
            <rect class="cls-20" x="404.921" y="68.872" width="0.888" height="0.708"/>
          </g>
        </g>
        <g>
          <rect class="cls-26" x="416.777" y="64.736" width="11.376" height="11.376" rx="5.688"/>
          <path class="cls-27" d="M422.465,76.112h0a5.688,5.688,0,0,1-5.688-5.688h0a5.689,5.689,0,0,1,5.688-5.688h0Z"/>
        </g>
      </g>
      <rect class="cls-28" x="356.057" y="50.406" width="75.024" height="9.578"/>
      <g>
        <rect class="cls-29" x="372.188" y="50.406" width="4.187" height="9.578"/>
        <rect class="cls-29" x="391.476" y="50.406" width="4.187" height="9.578"/>
        <rect class="cls-29" x="410.764" y="50.406" width="4.187" height="9.578"/>
      </g>
      <g>
        <rect class="cls-30" x="336.713" y="83.736" width="11.376" height="11.376" rx="5.688" transform="translate(252.977 431.826) rotate(-90)"/>
        <g>
          <path class="cls-31" d="M342.4,83.736V95.112a8.071,8.071,0,0,1-3.6-1.424,6.184,6.184,0,0,1-2.088-4.264,6.29,6.29,0,0,1,2.407-4.645A7.786,7.786,0,0,1,342.4,83.736Z"/>
          <line class="cls-32" x1="338.739" y1="93.376" x2="338.652" y2="85.456"/>
          <line class="cls-33" x1="339.76" y1="94.135" x2="339.631" y2="84.714"/>
          <line class="cls-34" x1="340.76" y1="94.141" x2="340.631" y2="84.72"/>
          <line class="cls-35" x1="341.76" y1="94.146" x2="341.632" y2="84.725"/>
          <rect class="cls-20" x="338.759" y="88.906" width="0.888" height="0.708" transform="translate(249.943 428.464) rotate(-90)"/>
          <rect class="cls-20" x="337.759" y="88.906" width="0.888" height="0.708" transform="translate(248.943 427.464) rotate(-90)"/>
          <rect class="cls-20" x="339.759" y="88.906" width="0.888" height="0.708" transform="translate(250.943 429.464) rotate(-90)"/>
          <rect class="cls-20" x="340.759" y="88.906" width="0.888" height="0.708" transform="translate(251.943 430.464) rotate(-90)"/>
          <rect class="cls-20" x="338.759" y="89.906" width="0.888" height="0.708" transform="translate(248.943 429.464) rotate(-90)"/>
          <rect class="cls-20" x="337.759" y="89.906" width="0.888" height="0.708" transform="translate(247.943 428.464) rotate(-90)"/>
          <rect class="cls-20" x="339.759" y="89.906" width="0.888" height="0.708" transform="translate(249.943 430.464) rotate(-90)"/>
          <rect class="cls-20" x="340.759" y="89.906" width="0.888" height="0.708" transform="translate(250.943 431.464) rotate(-90)"/>
          <rect class="cls-20" x="338.759" y="90.906" width="0.888" height="0.708" transform="translate(247.943 430.464) rotate(-90)"/>
          <rect class="cls-20" x="337.759" y="90.906" width="0.888" height="0.708" transform="translate(246.943 429.464) rotate(-90)"/>
          <rect class="cls-20" x="339.759" y="90.906" width="0.888" height="0.708" transform="translate(248.943 431.464) rotate(-90)"/>
          <rect class="cls-20" x="340.759" y="90.906" width="0.888" height="0.708" transform="translate(249.943 432.464) rotate(-90)"/>
          <rect class="cls-20" x="338.759" y="89.906" width="0.888" height="0.708" transform="translate(248.943 429.464) rotate(-90)"/>
          <rect class="cls-20" x="337.759" y="89.906" width="0.888" height="0.708" transform="translate(247.943 428.464) rotate(-90)"/>
          <rect class="cls-20" x="339.759" y="89.906" width="0.888" height="0.708" transform="translate(249.943 430.464) rotate(-90)"/>
          <rect class="cls-20" x="340.759" y="89.906" width="0.888" height="0.708" transform="translate(250.943 431.464) rotate(-90)"/>
          <rect class="cls-20" x="338.759" y="88.906" width="0.888" height="0.708" transform="translate(249.943 428.464) rotate(-90)"/>
          <rect class="cls-20" x="337.759" y="88.906" width="0.888" height="0.708" transform="translate(248.943 427.464) rotate(-90)"/>
          <rect class="cls-20" x="339.759" y="88.906" width="0.888" height="0.708" transform="translate(250.943 429.464) rotate(-90)"/>
          <rect class="cls-20" x="340.759" y="88.906" width="0.888" height="0.708" transform="translate(251.943 430.464) rotate(-90)"/>
          <rect class="cls-20" x="338.759" y="87.906" width="0.888" height="0.708" transform="translate(250.943 427.464) rotate(-90)"/>
          <rect class="cls-20" x="337.759" y="87.906" width="0.888" height="0.708" transform="translate(249.943 426.464) rotate(-90)"/>
          <rect class="cls-20" x="339.759" y="87.906" width="0.888" height="0.708" transform="translate(251.943 428.464) rotate(-90)"/>
          <rect class="cls-20" x="340.759" y="87.906" width="0.888" height="0.708" transform="translate(252.943 429.464) rotate(-90)"/>
          <rect class="cls-20" x="338.759" y="86.906" width="0.888" height="0.708" transform="translate(251.943 426.464) rotate(-90)"/>
          <rect class="cls-20" x="337.759" y="86.906" width="0.888" height="0.708" transform="translate(250.943 425.464) rotate(-90)"/>
          <rect class="cls-20" x="339.759" y="86.906" width="0.888" height="0.708" transform="translate(252.943 427.464) rotate(-90)"/>
          <rect class="cls-20" x="340.759" y="86.906" width="0.888" height="0.708" transform="translate(253.943 428.464) rotate(-90)"/>
        </g>
      </g>
    </g>
    <polyline class="cls-36" points="381.881 243.78 381.881 237.194 405.401 237.194 405.401 243.78"/>
    <polyline class="cls-3" points="404.105 236.978 404.105 241.378 383.177 241.378 383.177 236.978"/>
    <g>
      <path class="cls-37" d="M430.834,158.318H431.9v-.166h-1.063Zm3.038.683h.363a.854.854,0,0,0-.363-.331Zm-5.581,1.26v.615h.481l-.02-.207-.4-.408Zm5.407,5.021.339-3.944-2.07,2.183Zm-4.489-4.148v.07h-.041l.411,4.407,1.978-2.085Zm5-1.753H429l.051.551h.159v.782l.88.9v-.421h2.234v.729h-1.931l1.37,1.394,2.315-2.438Zm-8.022,10.242-.218-.207,3.28-3.455L428.8,161.2h-.83v-1.272h.058l-2.789-2.84v-.416l3.2,3.256h.242l-.052-.56a.447.447,0,0,1-.187.038.486.486,0,1,1,.383-.786,2.641,2.641,0,0,1,1.644-.653v.373c-.644.083-1.29.267-1.456.659h4.236v-.554a6.45,6.45,0,0,0-.987-.143v.379h-1.793v-.9h1.793v.143a6.2,6.2,0,0,1,.987.137v-.038h.623v.241a1.356,1.356,0,0,1,.726.66c.012.027.02.051.028.071h.385v.365h-.439l-.093,1.084,3.537-3.725v.415l-3.576,3.773-.406,4.711,3.76,3.829-.214.21L434,166.022l-.145,1.681a.2.2,0,0,1-.161.165v.55h-.676v-.555h-2.568a1.051,1.051,0,0,1-1.979-.49,1.037,1.037,0,0,1,.015-.176Zm4.382-2.129h2.942l.157-1.822-1.9-1.936L429.616,166l.031.323a1.049,1.049,0,0,1,.926,1.043A1.066,1.066,0,0,1,430.565,167.494Zm-1.042-.672a.546.546,0,1,0,.545.547h0a.546.546,0,0,0-.545-.546Zm0,.9a.355.355,0,1,1,.354-.356v0a.356.356,0,0,1-.354.354Zm7.464,5.229H426.424v-1.865h10.563Z"/>
      <path id="path7485-7-5-8" class="cls-38" d="M371.468,172.1c-.162-.018-.321-.026-.481-.048a6.894,6.894,0,0,1-2.479-.744,7.153,7.153,0,0,1-3.7-4.5,7.282,7.282,0,0,1,5.008-9,7.007,7.007,0,0,1,.743-.17,6.871,6.871,0,0,1,1.894-.076c.031,0,.058,0,.087,0v2.192a.311.311,0,0,0-.06-.009,5.282,5.282,0,0,0-1.979.142,5.034,5.034,0,0,0-3.475,3.17c-.081.211-.135.431-.208.663h4.256v2.187h-4.25c.049.173.088.335.141.5a5.112,5.112,0,0,0,5.066,3.5c.168,0,.338-.022.508-.04v2.195c-.128.009-.25.022-.376.031Z"/>
      <path id="path7489-7-0-2" class="cls-38" d="M352.549,164.463c.017-.16.031-.317.049-.479a6.989,6.989,0,0,1,.925-2.81,7.267,7.267,0,0,1,7.028-3.607v2.179a5.1,5.1,0,0,0-4.645,1.823,4.869,4.869,0,0,0-1.159,3.568,4.934,4.934,0,0,0,1.872,3.625,5.113,5.113,0,0,0,3.936,1.111v2.182l-.375.04h-.7a.554.554,0,0,0-.091-.013,6.852,6.852,0,0,1-1.38-.217,7.22,7.22,0,0,1-4.49-3.417,6.98,6.98,0,0,1-.925-2.808c-.017-.159-.03-.318-.048-.478Z"/>
      <g>
        <rect class="cls-38" x="376.512" y="159.956" width="9.713" height="9.713"/>
        <rect class="cls-38" x="378.627" y="162.071" width="5.484" height="5.484"/>
      </g>
      <g>
        <g>
          <polyline class="cls-39" points="392.273 165.113 391.553 165.113 391.553 170.307 401.201 170.307 401.201 165.113"/>
          <path class="cls-39" d="M392.345,166.513"/>
          <path class="cls-39" d="M400.319,166.513"/>
          <polyline class="cls-39" points="399.769 162.239 396.623 159.532 390.198 165.094 391.661 165.089"/>
          <path class="cls-39" d="M399.773,162.236"/>
          <polyline class="cls-39" points="400.482 165.063 403.057 165.055 401.012 163.308"/>
          <path class="cls-39" d="M400.409,166.165"/>
          <path class="cls-39" d="M391.625,166.192"/>
        </g>
        <polyline class="cls-39" points="399.773 162.619 399.773 159.319 401.045 159.319 401.045 163.669"/>
      </g>
      <text class="cls-40" transform="translate(372.502 109.482)">T2EU1C</text>
      <text class="cls-41" transform="translate(353.446 118.602)">Model:<tspan class="cls-42" x="15.054" y="0"> </tspan><tspan class="cls-43" x="16.47" y="0">T2EU1C</tspan></text>
      <text class="cls-41" transform="translate(403.039 118.602)">RF: 433.92MHz</text>
      <text class="cls-41" transform="translate(353.446 139.628)"><tspan class="cls-44">W</tspan><tspan x="4.192" y="0">i-Fi: IEEE 802.11 b/g/n 2.4 GHz</tspan></text>
      <text class="cls-41" transform="translate(353.446 126.186)">Input: 100-240V 50/60Hz 2<tspan class="cls-45" x="59.861" y="0">A</tspan><tspan x="62.534" y="0" xml:space="preserve"> Max</tspan></text>
      <text class="cls-41" transform="translate(353.446 133.146)">Output: 100-240V 50/60Hz 2<tspan class="cls-45" x="63.821" y="0">A</tspan><tspan x="66.494" y="0" xml:space="preserve"> Max</tspan></text>
      <text class="cls-41" transform="translate(353.659 146.538)">Shenzhen Sonoff<tspan class="cls-46" x="36.865" y="0"> </tspan><tspan class="cls-47" x="38.281" y="0">T</tspan><tspan x="40.562" y="0">echnologies Co., Ltd</tspan></text>
      <polyline class="cls-48" points="384.317 80.49 382.589 83.658 386.333 83.658 384.461 87.69"/>
      <polyline class="cls-48" points="403.318 80.49 401.59 83.658 405.334 83.658 403.462 87.69"/>
      <polyline class="cls-48" points="338.689 100.927 340.699 97.242 344.443 97.242 342.571 101.274"/>
      <line class="cls-48" x1="406.565" y1="84.93" x2="406.565" y2="87.69"/>
      <text class="cls-41" transform="translate(336.966 107.97)">N In</text>
      <text class="cls-41" transform="translate(380.463 94.147)"><tspan class="cls-49">L</tspan><tspan x="2.347" y="0" xml:space="preserve"> In</tspan></text>
      <text class="cls-41" transform="translate(400.335 94.147)">Out</text>
      <g>
        <path id="path634" class="cls-50" d="M420.6,172.181l-13.005.012c-.509,0-.723-.634-.423-1.255l6.248-12.966c.357-.719,1.018-.727,1.375.024l6.321,12.93c.347.617.094,1.266-.515,1.255Z"/>
        <path id="path609" class="cls-51" d="M417.338,166.468l1.833,3.911-6.305.066-3.7-.045,3.076-6.667,1.863-3.866,3.23,6.6Z"/>
        <path id="path615" class="cls-50" d="M413.734,162.258l-1.574,4.775,2.2-.931-.775,3.574,1.647-4.384-2.349.9,1.695-3.964-.848.03Z"/>
        <path id="path617" class="cls-50" d="M413.419,168.355l.194,1.471.848-1.231-.606.18Z"/>
      </g>
    </g>
  </g>
  <g id="top">
    <g>
      <rect class="cls-52" width="243.78" height="243.78"/>
      <rect class="cls-53" x="1.417" y="1.418" width="240.945" height="240.945" transform="translate(243.78 0) rotate(90)"/>
      <rect class="cls-54" x="1.417" y="1.418" width="240.945" height="240.945" transform="translate(243.78 0) rotate(90)"/>
    </g>
    <g id="logo">
      <g>
        <path class="cls-37" d="M189.278,217.264a4.323,4.323,0,0,1,.7,1.047,5.452,5.452,0,0,1,.318.934,4.775,4.775,0,0,1,.091.932,3.82,3.82,0,0,1-.126.981,4.019,4.019,0,0,1-.306.85,4.326,4.326,0,0,1-.739,1.072.431.431,0,0,0-.121.2.371.371,0,0,0,.049.274.409.409,0,0,0,.23.171.491.491,0,0,0,.107.01.3.3,0,0,0,.183-.048,3.788,3.788,0,0,0,.406-.448,5,5,0,0,0,.876-1.722,4.237,4.237,0,0,0,.15-.732c0-.046.014-.119.019-.162a5.7,5.7,0,0,0,.016-.8,3.9,3.9,0,0,0-.042-.428c-.011-.068-.073-.388-.091-.466s-.124-.407-.19-.593a4.86,4.86,0,0,0-.543-1.045,3.493,3.493,0,0,0-.627-.731.377.377,0,0,0-.347.007.522.522,0,0,0-.157.15.352.352,0,0,0-.014.344A.88.88,0,0,0,189.278,217.264Z"/>
        <path class="cls-37" d="M188.276,222.756a.367.367,0,0,0,.41-.021,3.526,3.526,0,0,0,.278-.3,3.7,3.7,0,0,0,.787-1.933,3.856,3.856,0,0,0,.013-.564,2.544,2.544,0,0,0-.043-.369,3.628,3.628,0,0,0-.183-.707,3.668,3.668,0,0,0-.79-1.259c-.1-.1-.125-.115-.209-.133a.365.365,0,0,0-.28.057.388.388,0,0,0-.172.238.29.29,0,0,0,0,.165.367.367,0,0,0,.1.178,3.059,3.059,0,0,1,.437.581,3,3,0,0,1,.392,1.44,3.428,3.428,0,0,1-.063.593,2.963,2.963,0,0,1-.734,1.415.451.451,0,0,0-.133.2.39.39,0,0,0,.031.256A.532.532,0,0,0,188.276,222.756Z"/>
        <path class="cls-37" d="M188.4,220.167c0-.092,0-.182,0-.2-.006-.066-.029-.223-.045-.3a2.343,2.343,0,0,0-.4-.9,2.219,2.219,0,0,0-.261-.29.35.35,0,0,0-.439-.012.363.363,0,0,0-.119.5,1.16,1.16,0,0,0,.091.11,1.636,1.636,0,0,1,.177.223,1.491,1.491,0,0,1,.237.642,2.13,2.13,0,0,1,0,.415,1.579,1.579,0,0,1-.31.728c-.019.025-.069.084-.113.131a.341.341,0,0,0-.129.293.356.356,0,0,0,.112.25.374.374,0,0,0,.431.082.382.382,0,0,0,.126-.1,2.291,2.291,0,0,0,.6-1.135A1.912,1.912,0,0,0,188.4,220.167Z"/>
        <polygon class="cls-37" points="179.13 227.031 184.986 227.031 184.986 231.432 178.928 231.432 178.928 233.099 186.652 233.099 186.652 225.365 180.797 225.365 180.797 220.964 186.771 220.964 186.771 219.298 179.13 219.298 179.13 227.031"/>
        <path class="cls-37" d="M188.169,233.1h8.617v-7.734h-8.617Zm1.666-6.068h5.284v4.4h-5.284Z"/>
        <path class="cls-37" d="M208.2,233.1h8.617v-7.734H208.2Zm1.667-6.068h5.284v4.4h-5.284Z"/>
        <polygon class="cls-37" points="198.183 233.024 199.849 233.024 199.849 227.031 205.133 227.031 205.133 233.024 206.8 233.024 206.8 225.365 198.183 225.365 198.183 233.024"/>
        <polygon class="cls-37" points="218.211 233.077 219.878 233.077 219.878 230.735 226.822 230.735 226.822 229.069 219.878 229.069 219.878 227.031 226.822 227.031 226.822 225.365 218.211 225.365 218.211 233.077"/>
        <polygon class="cls-37" points="236.831 227.031 236.831 225.365 228.22 225.365 228.22 233.077 229.886 233.077 229.886 230.735 236.831 230.735 236.831 229.069 229.886 229.069 229.886 227.031 236.831 227.031"/>
      </g>
    </g>
  </g>
</svg>
