<?xml version="1.0" encoding="UTF-8" standalone="no"?>
<!-- Created with Inkscape (http://www.inkscape.org/) -->

<svg
   xmlns:dc="http://purl.org/dc/elements/1.1/"
   xmlns:cc="http://creativecommons.org/ns#"
   xmlns:rdf="http://www.w3.org/1999/02/22-rdf-syntax-ns#"
   xmlns:svg="http://www.w3.org/2000/svg"
   xmlns="http://www.w3.org/2000/svg"
   xmlns:sodipodi="http://sodipodi.sourceforge.net/DTD/sodipodi-0.dtd"
   xmlns:inkscape="http://www.inkscape.org/namespaces/inkscape"
   width="41.50333mm"
   height="58.245468mm"
   viewBox="0 0 41.50333 58.245468"
   version="1.1"
   id="svg5809"
   inkscape:version="0.92.1 r15371"
   sodipodi:docname="speaker.svg">
  <defs
     id="defs5803" />
  <sodipodi:namedview
     id="base"
     pagecolor="#ffffff"
     bordercolor="#666666"
     borderopacity="1.0"
     inkscape:pageopacity="0.0"
     inkscape:pageshadow="2"
     inkscape:zoom="0.7"
     inkscape:cx="-15.932344"
     inkscape:cy="3.4366864"
     inkscape:document-units="mm"
     inkscape:current-layer="layer1"
     showgrid="false"
     fit-margin-top="0"
     fit-margin-left="0"
     fit-margin-right="0"
     fit-margin-bottom="0"
     inkscape:window-width="1920"
     inkscape:window-height="1017"
     inkscape:window-x="-8"
     inkscape:window-y="-8"
     inkscape:window-maximized="1" />
  <metadata
     id="metadata5806">
    <rdf:RDF>
      <cc:Work
         rdf:about="">
        <dc:format>image/svg+xml</dc:format>
        <dc:type
           rdf:resource="http://purl.org/dc/dcmitype/StillImage" />
        <dc:title></dc:title>
      </cc:Work>
    </rdf:RDF>
  </metadata>
  <g
     inkscape:label="Layer 1"
     inkscape:groupmode="layer"
     id="layer1"
     transform="translate(-45.772142,-71.329643)">
    <g
       id="g6460">
      <rect
         style="fill:#919191;stroke-width:0.35277706"
         height="0.10461618"
         width="0.52308089"
         x="67.847725"
         id="connector1pin"
         y="128.3371" />
      <path
         style="fill:none;stroke:#000000;stroke-width:1.05833328;stroke-linecap:round;stroke-miterlimit:4;stroke-dasharray:none"
         inkscape:connector-curvature="0"
         id="path10"
         d="m 65.941862,123.57287 v 5.42069" />
      <path
         style="fill:none;stroke:#ff0000;stroke-width:1.05833125;stroke-linecap:round"
         inkscape:connector-curvature="0"
         id="path12"
         d="m 67.883882,123.61772 v 5.42069" />
      <g
         transform="matrix(0.52308091,0,0,0.52308091,45.772142,71.321274)"
         style="stroke-width:0.67442161"
         id="g66">
        <g
           style="stroke-width:0.67442161"
           id="g62">
          <path
             style="stroke-width:0.67442161"
             inkscape:connector-curvature="0"
             id="path14"
             d="m 79.344,95.675 c 0,2.494 -2.04,4.534 -4.533,4.534 H 4.533 C 2.04,100.209 0,98.169 0,95.675 V 4.55 C 0,2.056 2.04,0.016 4.533,0.016 H 74.81 c 2.493,0 4.533,2.04 4.533,4.534 v 91.125 z" />
          <g
             style="stroke-width:0.67442161"
             id="g60">
            <g
               style="stroke-width:0.67442161"
               id="g58">
              <path
                 style="fill:#1e1e1e;stroke-width:0.67442161"
                 inkscape:connector-curvature="0"
                 id="path16"
                 d="M 77.221,22.887 C 73.134,14.498 66.321,7.683 57.931,3.597 H 21.414 C 13.024,7.683 6.211,14.498 2.124,22.887 v 36.517 c 4.087,8.39 10.9,15.203 19.289,19.291 h 36.519 c 8.389,-4.088 15.202,-10.9 19.289,-19.29 z" />
              <rect
                 style="fill:#1e1e1e;stroke-width:0.67442161"
                 id="rect18"
                 height="21.580999"
                 width="36.516998"
                 x="21.413"
                 y="78.572998" />
              <g
                 style="stroke-width:0.67442161"
                 id="g46">
                <circle
                   style="fill:#333333;stroke-width:0.67442161"
                   id="circle20"
                   cx="39.673"
                   cy="41.033001"
                   r="35.827" />
                <circle
                   style="fill:none;stroke:#b3b3b3;stroke-width:2.42791772"
                   id="circle22"
                   cx="39.673"
                   cy="41.033001"
                   r="29.962" />
                <circle
                   style="fill:none;stroke:#bcbcbc;stroke-width:0.53953725"
                   id="circle24"
                   cx="39.673"
                   cy="41.033001"
                   r="29.962" />
                <g
                   style="stroke-width:0.67442161"
                   id="g44">
                  <g
                     style="stroke-width:0.67442161"
                     id="g30">
                    <path
                       style="fill:#424242;stroke-width:0.67442161"
                       inkscape:connector-curvature="0"
                       id="path26"
                       d="m 46.642,31.971 c 0.332,-0.574 0.136,-1.308 -0.438,-1.639 l -0.53,-0.307 C 45.1,29.693 44.365,29.89 44.033,30.463 l -2.639,4.572 2.607,1.506 z" />
                    <path
                       style="fill:#424242;stroke-width:0.67442161"
                       inkscape:connector-curvature="0"
                       id="path28"
                       d="M 35.254,30.481 C 34.922,29.907 34.19,29.71 33.614,30.042 l -0.53,0.307 c -0.573,0.33 -0.771,1.064 -0.438,1.638 l 2.64,4.573 2.608,-1.507 z" />
                  </g>
                  <g
                     style="stroke-width:0.67442161"
                     id="g42">
                    <g
                       style="stroke-width:0.67442161"
                       id="g36">
                      <circle
                         style="fill:none;stroke:#333333;stroke-width:1.0790745"
                         id="circle32"
                         cx="39.673"
                         cy="41.146"
                         r="7.3309999" />
                      <circle
                         style="stroke-width:0.67442161"
                         id="circle34"
                         cx="39.673"
                         cy="41.146"
                         r="7.3309999" />
                    </g>
                    <path
                       style="opacity:0.18999999;fill:none;stroke:#ffffff;stroke-width:1.0790745;stroke-linecap:round"
                       inkscape:connector-curvature="0"
                       id="path38"
                       enable-background="new    "
                       d="m 44.651,44.236 c -1.034,1.662 -2.877,2.769 -4.978,2.769 -2.856,0 -5.234,-2.043 -5.753,-4.747" />
                    <path
                       style="opacity:0.56000001;fill:#ffffff;stroke-width:0.67442161"
                       inkscape:connector-curvature="0"
                       id="path40"
                       enable-background="new    "
                       d="m 39.538,35.768 c 0.409,0.641 -0.32,1.795 -1.573,2.632 -1.251,0.837 -2.551,1.039 -2.946,0.409 -0.416,-0.644 0.235,-1.867 1.483,-2.708 1.248,-0.841 2.625,-0.974 3.036,-0.333 z" />
                  </g>
                </g>
              </g>
              <g
                 style="stroke-width:0.67442161"
                 id="g56">
                <circle
                   style="fill:#8c8c8c;stroke-width:0.67442161"
                   id="circle48"
                   cx="12.27"
                   cy="13.922"
                   r="1.2309999" />
                <circle
                   style="fill:#8c8c8c;stroke-width:0.67442161"
                   id="circle50"
                   cx="67.074997"
                   cy="13.922"
                   r="1.2309999" />
                <circle
                   style="fill:#8c8c8c;stroke-width:0.67442161"
                   id="circle52"
                   cx="12.27"
                   cy="68.728996"
                   r="1.2309999" />
                <circle
                   style="fill:#8c8c8c;stroke-width:0.67442161"
                   id="circle54"
                   cx="67.074997"
                   cy="68.728996"
                   r="1.2309999" />
              </g>
            </g>
          </g>
        </g>
        <path
           style="stroke-width:0.67442161"
           inkscape:connector-curvature="0"
           id="path64"
           d="m 50.603,91.315 c 0,0.663 -0.537,1.199 -1.2,1.199 h -19.46 c -0.663,0 -1.2,-0.536 -1.2,-1.199 v -2.399 c 0,-0.663 0.537,-1.199 1.2,-1.199 h 19.46 c 0.663,0 1.2,0.536 1.2,1.199 z" />
      </g>
      <path
         style="fill:none;stroke:#333333;stroke-width:0.70555413;stroke-linecap:round"
         inkscape:connector-curvature="0"
         id="path68"
         d="m 47.254552,78.858354 v -4.56441 c 0,-0.81548 0.66641,-1.48189 1.48189,-1.48189 h 3.08251" />
      <path
         style="fill:none;stroke:#333333;stroke-width:0.70555413;stroke-linecap:round"
         inkscape:connector-curvature="0"
         id="path70"
         d="m 85.962542,78.858354 v -4.56441 c 0,-0.81548 -0.66693,-1.48189 -1.48189,-1.48189 h -3.08304" />
      <path
         style="fill:none;stroke:#333333;stroke-width:0.70555413;stroke-linecap:round"
         inkscape:connector-curvature="0"
         id="path72"
         d="m 85.963062,110.3792 v 10.49353 c 0,0.81601 -0.66693,1.48241 -1.48241,1.48241 h -3.08304" />
      <path
         style="fill:none;stroke:#333333;stroke-width:0.70555413;stroke-linecap:round"
         inkscape:connector-curvature="0"
         id="path74"
         d="m 47.254552,110.3792 v 10.49353 c 0,0.81601 0.66641,1.48241 1.48189,1.48241 h 3.08304" />
    </g>
  </g>
</svg>
