<svg id="troyka-5mm-led-module-yellow" xmlns="http://www.w3.org/2000/svg" xmlns:xlink="http://www.w3.org/1999/xlink" width="25.4mm" height="25.4mm" viewBox="0 0 72 72">
  <defs>
    <style>
      .cls-1 {
        fill: #f2f2f2;
        stroke-miterlimit: 1;
        stroke-width: 0.43px;
      }

      .cls-1, .cls-2 {
        stroke: #000;
      }

      .cls-2, .cls-20 {
        fill: none;
      }

      .cls-2 {
        stroke-width: 0.28px;
      }

      .cls-3 {
        fill: #666;
      }

      .cls-4 {
        fill: #8d8c8c;
      }

      .cls-5 {
        fill: #8c8663;
      }

      .cls-6 {
        fill: #b8af82;
      }

      .cls-7 {
        fill: #80795b;
      }

      .cls-8 {
        fill: #5e5b43;
      }

      .cls-9 {
        fill: #9a916c;
      }

      .cls-10, .cls-11, .cls-18, .cls-19, .cls-21, .cls-22, .cls-23, .cls-24 {
        isolation: isolate;
      }

      .cls-11 {
        font-size: 5.41px;
        font-family: TrebuchetMS, Trebuchet MS;
      }

      .cls-12 {
        fill: #404040;
      }

      .cls-13 {
        fill: #b3b3b3;
      }

      .cls-14 {
        fill: gray;
      }

      .cls-15 {
        fill: #1a1a1a;
      }

      .cls-16 {
        fill: #8c8c8c;
      }

      .cls-17 {
        fill: #ff0;
      }

      .cls-18 {
        fill: #fe0;
        opacity: 0.5;
      }

      .cls-19 {
        fill: #fff;
        opacity: 0.6;
      }

      .cls-20 {
        stroke: #fff000;
        stroke-width: 0.2px;
      }

      .cls-20, .cls-21, .cls-23, .cls-24 {
        stroke-linecap: round;
      }

      .cls-21 {
        stroke-width: 0.12px;
        fill: url(#Безымянный_градиент);
        stroke: url(#Безымянный_градиент_2);
      }

      .cls-21, .cls-22, .cls-23 {
        opacity: 0.46;
      }

      .cls-22 {
        fill: url(#Безымянный_градиент_3);
      }

      .cls-23 {
        stroke-width: 0.27px;
        fill: url(#Безымянный_градиент_5);
        stroke: url(#Безымянный_градиент_6);
      }

      .cls-24 {
        stroke-width: 0.07px;
        opacity: 0.39;
        fill: url(#Безымянный_градиент_7);
        stroke: url(#Безымянный_градиент_8);
      }
    </style>
    <radialGradient id="Безымянный_градиент" data-name="Безымянный градиент" cx="-60.01" cy="145.74" r="6.18" gradientTransform="matrix(2.83, 0, 0, -2.89, 204.81, 455.91)" gradientUnits="userSpaceOnUse">
      <stop offset="0" stop-color="#ff0"/>
      <stop offset="1" stop-color="#ff0" stop-opacity="0"/>
    </radialGradient>
    <radialGradient id="Безымянный_градиент_2" data-name="Безымянный градиент 2" cx="45.93" cy="-296.91" r="41.35" gradientTransform="matrix(0.42, 0, 0, -0.43, 15.42, -92.34)" gradientUnits="userSpaceOnUse">
      <stop offset="0"/>
      <stop offset="1" stop-opacity="0"/>
    </radialGradient>
    <radialGradient id="Безымянный_градиент_3" data-name="Безымянный градиент 3" cx="-555.05" cy="637.81" r="10.07" gradientTransform="matrix(-2.83, 0, 0, 2.07, -1539.5, -1286.74)" xlink:href="#Безымянный_градиент"/>
    <radialGradient id="Безымянный_градиент_5" data-name="Безымянный градиент 5" cx="-575.35" cy="607.15" r="5.02" gradientTransform="matrix(-2.83, 0, 0, 3.04, -1596.29, -1812.18)" xlink:href="#Безымянный_градиент"/>
    <radialGradient id="Безымянный_градиент_6" data-name="Безымянный градиент 6" cx="-305.55" cy="263.38" r="1.8" gradientTransform="matrix(-16.52, 0, 0, 3.84, -2095.23, -2698.72)" gradientUnits="userSpaceOnUse">
      <stop offset="0"/>
      <stop offset="0.56" stop-color="#02dd55"/>
      <stop offset="1" stop-color="#0d5" stop-opacity="0"/>
    </radialGradient>
    <radialGradient id="Безымянный_градиент_7" data-name="Безымянный градиент 7" cx="-132.21" cy="427.06" r="0.98" gradientTransform="matrix(-11.95, 0, 0, 9.12, -1545.65, -3859.63)" gradientUnits="userSpaceOnUse">
      <stop offset="0" stop-color="#fff"/>
      <stop offset="1" stop-color="#fff" stop-opacity="0"/>
    </radialGradient>
    <radialGradient id="Безымянный_градиент_8" data-name="Безымянный градиент 8" cx="-2155.02" cy="2562.09" r="41.35" gradientTransform="matrix(-0.19, 0, 0.01, 0.14, -402.6, -326.81)" xlink:href="#Безымянный_градиент_2"/>
  </defs>
  <title>troyka-5mm-led-module_yellow</title>
  <g id="all">
    <path id="troyka-oneunit" class="cls-1" d="M4.72.23A4.48,4.48,0,0,1,.23,4.72V67.3a4.49,4.49,0,0,1,4.49,4.5H67.3a4.49,4.49,0,0,1,4.5-4.5V4.72A4.49,4.49,0,0,1,67.3.23Z" transform="translate(-0.01 -0.01)"/>
    <g id="troyka-pin1">
      <rect id="rect16996" class="cls-2" x="39.49" y="0.3" width="7.13" height="13.81" rx="0.14" ry="0.14"/>
      <rect id="rect16998" class="cls-2" x="32.39" y="0.3" width="7.13" height="13.81" rx="0.14" ry="0.14"/>
      <rect id="rect17000" class="cls-2" x="25.29" y="0.3" width="7.13" height="13.81" rx="0.14" ry="0.14"/>
      <circle id="circle17002" class="cls-3" cx="43.06" cy="10.43" r="2.62"/>
      <circle id="circle17004" class="cls-3" cx="35.95" cy="10.43" r="2.62"/>
      <rect id="rect17006" class="cls-3" x="26.23" y="7.81" width="5.23" height="5.23" rx="0.48" ry="0.48"/>
      <rect id="rect17008" class="cls-4" x="27.72" y="9.24" width="2.27" height="2.39"/>
      <rect id="rect17010" class="cls-5" x="28.27" y="9.82" width="1.17" height="1.23"/>
      <polygon id="polygon17012" class="cls-6" points="29.98 9.24 27.72 9.24 28.27 9.82 29.43 9.82 29.98 9.24"/>
      <polygon id="polygon17014" class="cls-7" points="29.98 11.62 29.43 11.05 29.43 9.82 29.98 9.24 29.98 11.62"/>
      <polygon id="polygon17016" class="cls-8" points="27.72 11.62 28.27 11.05 29.43 11.05 29.98 11.62 27.72 11.62"/>
      <polygon id="polygon17018" class="cls-9" points="27.72 11.62 27.72 9.24 28.27 9.82 28.27 11.05 27.72 11.62"/>
      <rect id="rect17022" class="cls-4" x="41.92" y="9.24" width="2.27" height="2.39"/>
      <rect id="rect17024" class="cls-5" x="42.47" y="9.82" width="1.17" height="1.23"/>
      <polygon id="polygon17026" class="cls-6" points="43.63 9.82 44.18 9.24 41.92 9.24 42.47 9.82 43.63 9.82"/>
      <polygon id="polygon17028" class="cls-7" points="44.18 9.24 44.18 11.62 43.63 11.05 43.63 9.82 44.18 9.24"/>
      <polygon id="polygon17030" class="cls-8" points="44.18 11.62 41.92 11.62 42.47 11.05 43.63 11.05 44.18 11.62"/>
      <polygon id="polygon17032" class="cls-9" points="42.47 11.05 41.92 11.62 41.92 9.24 42.47 9.82 42.47 11.05"/>
      <rect id="rect17036" class="cls-4" x="34.82" y="9.24" width="2.27" height="2.39"/>
      <rect id="rect17038" class="cls-5" x="35.37" y="9.82" width="1.17" height="1.23"/>
      <polygon id="polygon17040" class="cls-6" points="37.08 9.24 34.82 9.24 35.37 9.82 36.53 9.82 37.08 9.24"/>
      <polygon id="polygon17042" class="cls-7" points="37.08 11.62 36.53 11.05 36.53 9.82 37.08 9.24 37.08 11.62"/>
      <polygon id="polygon17044" class="cls-8" points="34.82 11.62 35.37 11.05 36.53 11.05 37.08 11.62 34.82 11.62"/>
      <polygon id="polygon17046" class="cls-9" points="34.82 11.62 34.82 9.24 35.37 9.82 35.37 11.05 34.82 11.62"/>
      <rect id="rect17048" class="cls-4" x="34.82" y="9.24" width="2.27" height="2.39"/>
      <rect id="rect17050" class="cls-5" x="35.37" y="9.82" width="1.17" height="1.23"/>
      <polygon id="polygon17052" class="cls-6" points="36.53 9.82 37.08 9.24 34.82 9.24 35.37 9.82 36.53 9.82"/>
      <polygon id="polygon17054" class="cls-7" points="37.08 9.24 37.08 11.62 36.53 11.05 36.53 9.82 37.08 9.24"/>
      <polygon id="polygon17056" class="cls-8" points="37.08 11.62 34.82 11.62 35.37 11.05 36.53 11.05 37.08 11.62"/>
      <polygon id="polygon17058" class="cls-9" points="35.37 11.05 34.82 11.62 34.82 9.24 35.37 9.82 35.37 11.05"/>
    </g>
    <g id="troyka-pin2">
      <rect id="rect16928" class="cls-2" x="25.19" y="57.78" width="7.13" height="13.81" rx="0.14" ry="0.14"/>
      <rect id="rect16930" class="cls-2" x="32.29" y="57.78" width="7.13" height="13.81" rx="0.14" ry="0.14"/>
      <rect id="rect16932" class="cls-2" x="39.39" y="57.78" width="7.13" height="13.81" rx="0.14" ry="0.14"/>
      <circle id="circle16934" class="cls-3" cx="28.74" cy="61.47" r="2.62"/>
      <circle id="circle16936" class="cls-3" cx="35.85" cy="61.47" r="2.62"/>
      <rect id="rect16938" class="cls-3" x="40.34" y="58.85" width="5.23" height="5.23" rx="0.48" ry="0.48"/>
      <rect id="rect16940" class="cls-4" x="41.82" y="60.27" width="2.27" height="2.39"/>
      <rect id="rect16942" class="cls-5" x="42.37" y="60.85" width="1.17" height="1.23"/>
      <polygon id="polygon16944" class="cls-6" points="42.37 62.08 41.82 62.66 44.08 62.66 43.53 62.08 42.37 62.08"/>
      <polygon id="polygon16946" class="cls-7" points="41.82 62.66 41.82 60.27 42.37 60.85 42.37 62.08 41.82 62.66"/>
      <polygon id="polygon16948" class="cls-8" points="41.82 60.27 44.08 60.27 43.53 60.85 42.37 60.85 41.82 60.27"/>
      <polygon id="polygon16950" class="cls-9" points="43.53 60.85 44.08 60.27 44.08 62.66 43.53 62.08 43.53 60.85"/>
      <rect id="rect16954" class="cls-4" x="27.62" y="60.27" width="2.27" height="2.39"/>
      <rect id="rect16956" class="cls-5" x="28.17" y="60.85" width="1.17" height="1.23"/>
      <polygon id="polygon16958" class="cls-6" points="29.33 62.08 28.17 62.08 27.62 62.66 29.89 62.66 29.33 62.08"/>
      <polygon id="polygon16960" class="cls-7" points="28.17 62.08 27.62 62.66 27.62 60.27 28.17 60.85 28.17 62.08"/>
      <polygon id="polygon16962" class="cls-8" points="28.17 60.85 27.62 60.27 29.89 60.27 29.33 60.85 28.17 60.85"/>
      <polygon id="polygon16964" class="cls-9" points="29.33 62.08 29.33 60.85 29.89 60.27 29.89 62.66 29.33 62.08"/>
      <rect id="rect16968" class="cls-4" x="34.72" y="60.27" width="2.27" height="2.39"/>
      <rect id="rect16970" class="cls-5" x="35.27" y="60.85" width="1.17" height="1.23"/>
      <polygon id="polygon16972" class="cls-6" points="35.27 62.08 34.72 62.66 36.98 62.66 36.43 62.08 35.27 62.08"/>
      <polygon id="polygon16974" class="cls-7" points="34.72 62.66 34.72 60.27 35.27 60.85 35.27 62.08 34.72 62.66"/>
      <polygon id="polygon16976" class="cls-8" points="34.72 60.27 36.98 60.27 36.43 60.85 35.27 60.85 34.72 60.27"/>
      <polygon id="polygon16978" class="cls-9" points="36.43 60.85 36.98 60.27 36.98 62.66 36.43 62.08 36.43 60.85"/>
      <rect id="rect16980" class="cls-4" x="34.72" y="60.27" width="2.27" height="2.39"/>
      <rect id="rect16982" class="cls-5" x="35.27" y="60.85" width="1.17" height="1.23"/>
      <polygon id="polygon16984" class="cls-6" points="36.43 62.08 35.27 62.08 34.72 62.66 36.98 62.66 36.43 62.08"/>
      <polygon id="polygon16986" class="cls-7" points="35.27 62.08 34.72 62.66 34.72 60.27 35.27 60.85 35.27 62.08"/>
      <polygon id="polygon16988" class="cls-8" points="35.27 60.85 34.72 60.27 36.98 60.27 36.43 60.85 35.27 60.85"/>
      <polygon id="polygon16990" class="cls-9" points="36.43 62.08 36.43 60.85 36.98 60.27 36.98 62.66 36.43 62.08"/>
      <g id="text17070" class="cls-10">
        <text class="cls-11" transform="translate(41.38 69.39)">G</text>
      </g>
      <g id="text17090" class="cls-10">
        <text class="cls-11" transform="translate(34.43 69.36)">V</text>
      </g>
      <g id="text17110" class="cls-10">
        <text class="cls-11" transform="translate(27.61 69.39)">S</text>
      </g>
    </g>
    <g id="T1-SOP23">
      <path id="path17192" class="cls-12" d="M17.25,59.46H10.14V56.52h7.11Z" transform="translate(-0.01 -0.01)"/>
      <path id="path17194" class="cls-13" d="M16.7,61.62H15.34V59.45H16.7Z" transform="translate(-0.01 -0.01)"/>
      <path id="path17196" class="cls-14" d="M16.7,60.38H15.34v-.69H16.7Z" transform="translate(-0.01 -0.01)"/>
      <path id="path17198" class="cls-13" d="M12.05,61.62H10.69V59.45h1.36Z" transform="translate(-0.01 -0.01)"/>
      <path id="path17200" class="cls-14" d="M12.05,60.38H10.69v-.69h1.36Z" transform="translate(-0.01 -0.01)"/>
      <path id="path17202" class="cls-13" d="M14.38,54.37H13v2.16h1.37Z" transform="translate(-0.01 -0.01)"/>
      <path id="path17204" class="cls-14" d="M14.38,55.61H13v.69h1.37Z" transform="translate(-0.01 -0.01)"/>
    </g>
    <g id="R2-0603">
      <path id="path17208" class="cls-15" d="M52.6,61.29h-3V55.85h3Z" transform="translate(-0.01 -0.01)"/>
      <path id="path17210" class="cls-13" d="M52.62,56.16h-3v-.95h3Z" transform="translate(-0.01 -0.01)"/>
      <path id="path17212" class="cls-13" d="M52.62,61.83h-3v-1h3Z" transform="translate(-0.01 -0.01)"/>
    </g>
    <g id="R3-0605">
      <path id="path17214" class="cls-15" d="M22.73,60.54H19.78V55.21h2.95Z" transform="translate(-0.01 -0.01)"/>
      <path id="path17216" class="cls-13" d="M22.74,55.74h-3v-1h3Z" transform="translate(-0.01 -0.01)"/>
      <path id="path17218" class="cls-13" d="M22.74,61.4h-3v-1h3Z" transform="translate(-0.01 -0.01)"/>
    </g>
    <g id="R1-0603">
      <path id="path17222" class="cls-15" d="M60.41,61.18H57.46V55.74h2.95Z" transform="translate(-0.01 -0.01)"/>
      <path id="path17224" class="cls-13" d="M60.44,56.05h-3v-1h3Z" transform="translate(-0.01 -0.01)"/>
      <path id="path17226" class="cls-13" d="M60.44,61.72h-3v-1h3Z" transform="translate(-0.01 -0.01)"/>
    </g>
    <g id="L1-5mm">
      <circle id="circle17228" class="cls-16" cx="35.65" cy="35.34" r="3.7"/>
      <circle id="circle17230" class="cls-17" cx="35.49" cy="35.37" r="1.4"/>
      <circle id="circle17232" class="cls-18" cx="35.55" cy="35.35" r="7.35"/>
      <path id="path17234" class="cls-19" d="M34.85,31.27a4.18,4.18,0,0,1,1.07-.13,4.63,4.63,0,0,1,.92.09l.38-1.83a6.16,6.16,0,0,0-1.3-.13,10,10,0,0,0-1.65.18ZM33,30a6.44,6.44,0,0,0-3.38,7l1.82-.41a4.61,4.61,0,0,1-.07-.84,4.55,4.55,0,0,1,2.34-4Z" transform="translate(-0.01 -0.01)"/>
      <circle id="circle17236" class="cls-20" cx="35.6" cy="35.27" r="7.47"/>
      <ellipse id="ellipse16558" class="cls-21" cx="34.7" cy="34.73" rx="17.35" ry="17.69"/>
      <ellipse id="ellipse16560" class="cls-22" cx="33.88" cy="34.57" rx="28.32" ry="20.63"/>
      <ellipse id="ellipse16562" class="cls-23" cx="34.63" cy="34.64" rx="13.83" ry="14.87"/>
      <ellipse id="ellipse16564" class="cls-24" cx="34.95" cy="33.17" rx="11.53" ry="8.83"/>
    </g>
    <g id="amperka-logo">
      <path id="path532-5-4-9-8-5-6-8-0" d="M10.82,11.1a2,2,0,1,1-2,2,2,2,0,0,1,2-2m0,5.32a3.28,3.28,0,1,0-3.28-3.28h0a3.28,3.28,0,0,0,3.28,3.28" transform="translate(-0.01 -0.01)"/>
      <path id="path536-1-4-0-5-1-3-3-2" d="M10.82,4.72a2.29,2.29,0,1,1-.05,0h.05m0,1.24a1,1,0,1,0,1,1,1,1,0,0,0-1-1" transform="translate(-0.01 -0.01)"/>
      <path id="path540-3-7-2-9-1-0-6-4" d="M11.16,18.58a5.47,5.47,0,0,0,5.07-5.09,5.36,5.36,0,0,0-1.18-3.77l.4-.4a.62.62,0,0,0,.06-.85.61.61,0,0,0-.86-.05l-.05.05-.89.89a.54.54,0,0,0,0,.76A4.32,4.32,0,0,1,15,12.9a4.22,4.22,0,1,1-7.17-2.75v-.06a.54.54,0,0,0,0-.76L7,8.46A.64.64,0,0,0,6.1,8.4a.63.63,0,0,0,0,.88l0,0,.42.42a5.38,5.38,0,0,0-1.2,3.39A5.49,5.49,0,0,0,10.8,18.6l.36,0" transform="translate(-0.01 -0.01)"/>
    </g>
  </g>
</svg>
