<svg id="troyka-5mm-led-module-blue" xmlns="http://www.w3.org/2000/svg" xmlns:xlink="http://www.w3.org/1999/xlink" width="25.39mm" height="25.39mm" viewBox="0 0 71.96 71.98">
  <defs>
    <style>
      .cls-1 {
        fill: #f2f2f2;
        stroke-miterlimit: 1;
        stroke-width: 0.43px;
      }

      .cls-1, .cls-2 {
        stroke: #000;
      }

      .cls-19, .cls-2 {
        fill: none;
      }

      .cls-2 {
        stroke-width: 0.28px;
      }

      .cls-3 {
        fill: #666;
      }

      .cls-4 {
        fill: #8d8c8c;
      }

      .cls-5 {
        fill: #8c8663;
      }

      .cls-6 {
        fill: #b8af82;
      }

      .cls-7 {
        fill: #80795b;
      }

      .cls-8 {
        fill: #5e5b43;
      }

      .cls-9 {
        fill: #9a916c;
      }

      .cls-10, .cls-17, .cls-18, .cls-20, .cls-21, .cls-22, .cls-23 {
        isolation: isolate;
      }

      .cls-10 {
        font-size: 5.41px;
        font-family: TrebuchetMS, Trebuchet MS;
      }

      .cls-11 {
        fill: #404040;
      }

      .cls-12 {
        fill: #b3b3b3;
      }

      .cls-13 {
        fill: gray;
      }

      .cls-14 {
        fill: #1a1a1a;
      }

      .cls-15 {
        fill: #8c8c8c;
      }

      .cls-16, .cls-17 {
        fill: blue;
      }

      .cls-17 {
        opacity: 0.5;
      }

      .cls-18 {
        fill: #fff;
        opacity: 0.6;
      }

      .cls-19 {
        stroke: blue;
        stroke-width: 0.2px;
      }

      .cls-19, .cls-22, .cls-23 {
        stroke-linecap: round;
      }

      .cls-20, .cls-21, .cls-22 {
        opacity: 0.57;
      }

      .cls-20 {
        fill: url(#Безымянный_градиент);
      }

      .cls-21 {
        fill: url(#Безымянный_градиент_2);
      }

      .cls-22 {
        stroke-width: 0.27px;
        fill: url(#Безымянный_градиент_3);
        stroke: url(#Безымянный_градиент_4);
      }

      .cls-23 {
        stroke-width: 0.07px;
        opacity: 0.48;
        fill: url(#Безымянный_градиент_5);
        stroke: url(#Безымянный_градиент_6);
      }
    </style>
    <radialGradient id="Безымянный_градиент" data-name="Безымянный градиент" cx="-434.77" cy="-27" r="6.18" gradientTransform="matrix(2.83, 0, 0, -2.89, 1266.38, -42.87)" gradientUnits="userSpaceOnUse">
      <stop offset="0" stop-color="blue"/>
      <stop offset="1" stop-color="blue" stop-opacity="0"/>
    </radialGradient>
    <radialGradient id="Безымянный_градиент_2" data-name="Безымянный градиент 2" cx="-1381.05" cy="894.57" r="10.07" gradientTransform="matrix(-2.83, 0, 0, 2.07, -3875.47, -1817.45)" xlink:href="#Безымянный_градиент"/>
    <radialGradient id="Безымянный_градиент_3" data-name="Безымянный градиент 3" cx="-1381.41" cy="780.89" r="5.02" gradientTransform="matrix(-2.83, 0, 0, 3.04, -3876.55, -2339.05)" xlink:href="#Безымянный_градиент"/>
    <radialGradient id="Безымянный_градиент_4" data-name="Безымянный градиент 4" cx="-948.23" cy="421.2" r="1.8" gradientTransform="matrix(-16.52, 0, 0, 3.84, -12711.55, -3303.48)" gradientUnits="userSpaceOnUse">
      <stop offset="0"/>
      <stop offset="0.56" stop-color="#02dd55"/>
      <stop offset="1" stop-color="#0d5" stop-opacity="0"/>
    </radialGradient>
    <radialGradient id="Безымянный_градиент_5" data-name="Безымянный градиент 5" cx="-788.93" cy="493.5" r="0.98" gradientTransform="matrix(-11.95, 0, 0, 9.12, -9392.28, -4463.57)" gradientUnits="userSpaceOnUse">
      <stop offset="0" stop-color="#fff"/>
      <stop offset="1" stop-color="#fff" stop-opacity="0"/>
    </radialGradient>
    <radialGradient id="Безымянный_градиент_6" data-name="Безымянный градиент 6" cx="-5722.68" cy="6890.67" r="41.35" gradientTransform="matrix(-0.19, 0, 0.01, 0.14, -1122.66, -930.75)" gradientUnits="userSpaceOnUse">
      <stop offset="0"/>
      <stop offset="1" stop-opacity="0"/>
    </radialGradient>
  </defs>
  <title>troyka-5mm-led-module_blue</title>
  <g id="all">
    <path id="troyka-oneunit" class="cls-1" d="M4.7.21A4.49,4.49,0,0,1,.23,4.7h0V67.28a4.49,4.49,0,0,1,4.49,4.49H67.28a4.49,4.49,0,0,1,4.48-4.5h0V4.7A4.5,4.5,0,0,1,67.28.22H4.7Z" transform="translate(-0.01 0)"/>
    <g id="troyka-pins2">
      <rect id="rect6749-8-6" class="cls-2" x="39.48" y="0.3" width="7.13" height="13.81" rx="0.14" ry="0.14"/>
      <rect id="rect6749-9-8-8" class="cls-2" x="32.37" y="0.3" width="7.13" height="13.81" rx="0.14" ry="0.14"/>
      <rect id="rect6749-9-3-2-4" class="cls-2" x="25.27" y="0.3" width="7.13" height="13.81" rx="0.14" ry="0.14"/>
      <circle id="path4180-4-3" class="cls-3" cx="43.05" cy="10.43" r="2.62"/>
      <circle id="path4180-2-5-8" class="cls-3" cx="35.94" cy="10.43" r="2.62"/>
      <rect id="rect4216-5-9" class="cls-3" x="26.2" y="7.8" width="5.23" height="5.23" rx="0.48" ry="0.48"/>
      <rect id="_0.1.5.0.0.6-7-1-8" data-name=" 0.1.5.0.0.6-7-1-8" class="cls-4" x="27.7" y="9.22" width="2.27" height="2.39"/>
      <rect id="_0.1.5.0.0.37-1-1-9" data-name=" 0.1.5.0.0.37-1-1-9" class="cls-5" x="28.26" y="9.81" width="1.17" height="1.23"/>
      <polygon id="_0.1.5.0.0.38-1-5-5" data-name=" 0.1.5.0.0.38-1-5-5" class="cls-6" points="29.96 9.23 27.7 9.23 28.25 9.8 29.41 9.8 29.96 9.23"/>
      <polygon id="_0.1.5.0.0.39-3-2-9" data-name=" 0.1.5.0.0.39-3-2-9" class="cls-7" points="29.96 11.62 29.41 11.04 29.41 9.8 29.96 9.23 29.96 11.62"/>
      <polygon id="_0.1.5.0.0.40-25-7-9" data-name=" 0.1.5.0.0.40-25-7-9" class="cls-8" points="27.7 11.62 28.25 11.04 29.41 11.04 29.96 11.62 27.7 11.62"/>
      <polygon id="_0.1.5.0.0.41-35-6-7" data-name=" 0.1.5.0.0.41-35-6-7" class="cls-9" points="27.7 11.62 27.7 9.23 28.25 9.8 28.25 11.04 27.7 11.62"/>
      <rect id="_0.1.5.0.0.7-6-40-4-9" data-name=" 0.1.5.0.0.7-6-40-4-9" class="cls-4" x="41.89" y="9.22" width="2.27" height="2.39"/>
      <rect id="_0.1.5.0.0.32-4-7-2-1" data-name=" 0.1.5.0.0.32-4-7-2-1" class="cls-5" x="42.46" y="9.81" width="1.17" height="1.23"/>
      <polygon id="_0.1.5.0.0.33-0-0-3-0" data-name=" 0.1.5.0.0.33-0-0-3-0" class="cls-6" points="43.62 9.8 44.16 9.23 41.9 9.23 42.45 9.8 43.62 9.8"/>
      <polygon id="_0.1.5.0.0.34-7-3-2-7" data-name=" 0.1.5.0.0.34-7-3-2-7" class="cls-7" points="44.16 9.23 44.16 11.62 43.62 11.04 43.62 9.8 44.16 9.23"/>
      <polygon id="_0.1.5.0.0.35-0-4-2-7" data-name=" 0.1.5.0.0.35-0-4-2-7" class="cls-8" points="44.16 11.62 41.9 11.62 42.45 11.04 43.62 11.04 44.16 11.62"/>
      <polygon id="_0.1.5.0.0.36-3-0-1-3" data-name=" 0.1.5.0.0.36-3-0-1-3" class="cls-9" points="42.45 11.04 41.9 11.62 41.9 9.23 42.45 9.8 42.45 11.04"/>
      <rect id="_0.1.5.0.0.7-2-8-2" data-name=" 0.1.5.0.0.7-2-8-2" class="cls-4" x="34.8" y="9.22" width="2.27" height="2.39"/>
      <rect id="_0.1.5.0.0.32-9-5-7" data-name=" 0.1.5.0.0.32-9-5-7" class="cls-5" x="35.35" y="9.81" width="1.17" height="1.23"/>
      <polygon id="_0.1.5.0.0.33-7-7-1" data-name=" 0.1.5.0.0.33-7-7-1" class="cls-6" points="37.06 9.23 34.8 9.23 35.35 9.8 36.52 9.8 37.06 9.23"/>
      <polygon id="_0.1.5.0.0.34-53-6-1" data-name=" 0.1.5.0.0.34-53-6-1" class="cls-7" points="37.06 11.62 36.52 11.04 36.52 9.8 37.06 9.23 37.06 11.62"/>
      <polygon id="_0.1.5.0.0.35-4-1-8" data-name=" 0.1.5.0.0.35-4-1-8" class="cls-8" points="34.8 11.62 35.35 11.04 36.52 11.04 37.06 11.62 34.8 11.62"/>
      <polygon id="_0.1.5.0.0.36-32-8-8" data-name=" 0.1.5.0.0.36-32-8-8" class="cls-9" points="34.8 11.62 34.8 9.23 35.35 9.8 35.35 11.04 34.8 11.62"/>
      <rect id="_0.1.5.0.0.6-2-26-9-7" data-name=" 0.1.5.0.0.6-2-26-9-7" class="cls-4" x="34.8" y="9.22" width="2.27" height="2.39"/>
      <rect id="_0.1.5.0.0.37-4-0-2-7" data-name=" 0.1.5.0.0.37-4-0-2-7" class="cls-5" x="35.35" y="9.81" width="1.17" height="1.23"/>
      <polygon id="_0.1.5.0.0.38-0-5-7-6" data-name=" 0.1.5.0.0.38-0-5-7-6" class="cls-6" points="36.52 9.8 37.06 9.23 34.8 9.23 35.34 9.8 36.52 9.8"/>
      <polygon id="_0.1.5.0.0.39-0-3-9-7" data-name=" 0.1.5.0.0.39-0-3-9-7" class="cls-7" points="37.06 9.23 37.06 11.62 36.52 11.04 36.52 9.8 37.06 9.23"/>
      <polygon id="_0.1.5.0.0.40-5-10-5-3" data-name=" 0.1.5.0.0.40-5-10-5-3" class="cls-8" points="37.06 11.62 34.8 11.62 35.34 11.04 36.52 11.04 37.06 11.62"/>
      <polygon id="_0.1.5.0.0.41-3-6-4-8" data-name=" 0.1.5.0.0.41-3-6-4-8" class="cls-9" points="35.34 11.04 34.8 11.62 34.8 9.23 35.34 9.8 35.34 11.04"/>
    </g>
    <g id="troyka-pins">
      <rect id="rect6749-5" class="cls-2" x="25.17" y="57.77" width="7.13" height="13.81" rx="0.14" ry="0.14"/>
      <rect id="rect6749-9-4" class="cls-2" x="32.26" y="57.77" width="7.13" height="13.81" rx="0.14" ry="0.14"/>
      <rect id="rect6749-9-3-21" class="cls-2" x="39.37" y="57.77" width="7.13" height="13.81" rx="0.14" ry="0.14"/>
      <circle id="path4180-5" class="cls-3" cx="28.72" cy="61.46" r="2.62"/>
      <circle id="path4180-2-7" class="cls-3" cx="35.83" cy="61.46" r="2.62"/>
      <rect id="rect4216-6" class="cls-3" x="40.33" y="58.84" width="5.23" height="5.23" rx="0.48" ry="0.48"/>
      <rect id="_0.1.5.0.0.6-7-6" data-name=" 0.1.5.0.0.6-7-6" class="cls-4" x="41.8" y="60.27" width="2.27" height="2.39"/>
      <rect id="_0.1.5.0.0.37-1-0" data-name=" 0.1.5.0.0.37-1-0" class="cls-5" x="42.35" y="60.84" width="1.17" height="1.23"/>
      <polygon id="_0.1.5.0.0.38-1-9" data-name=" 0.1.5.0.0.38-1-9" class="cls-6" points="42.35 62.08 41.8 62.65 44.06 62.65 43.52 62.08 42.35 62.08"/>
      <polygon id="_0.1.5.0.0.39-3-9" data-name=" 0.1.5.0.0.39-3-9" class="cls-7" points="41.8 62.65 41.8 60.27 42.35 60.84 42.35 62.08 41.8 62.65"/>
      <polygon id="_0.1.5.0.0.40-25-0" data-name=" 0.1.5.0.0.40-25-0" class="cls-8" points="41.8 60.27 44.06 60.27 43.52 60.84 42.35 60.84 41.8 60.27"/>
      <polygon id="_0.1.5.0.0.41-35-0" data-name=" 0.1.5.0.0.41-35-0" class="cls-9" points="43.52 60.84 44.06 60.27 44.06 62.65 43.52 62.08 43.52 60.84"/>
      <rect id="_0.1.5.0.0.7-6-40-0" data-name=" 0.1.5.0.0.7-6-40-0" class="cls-4" x="27.61" y="60.27" width="2.27" height="2.39"/>
      <rect id="_0.1.5.0.0.32-4-7-7" data-name=" 0.1.5.0.0.32-4-7-7" class="cls-5" x="28.14" y="60.84" width="1.17" height="1.23"/>
      <polygon id="_0.1.5.0.0.33-0-0-8" data-name=" 0.1.5.0.0.33-0-0-8" class="cls-6" points="29.32 62.08 28.16 62.08 27.61 62.65 29.86 62.65 29.32 62.08"/>
      <polygon id="_0.1.5.0.0.34-7-3-3" data-name=" 0.1.5.0.0.34-7-3-3" class="cls-7" points="28.16 62.08 27.61 62.65 27.61 60.27 28.16 60.84 28.16 62.08"/>
      <polygon id="_0.1.5.0.0.35-0-4-9" data-name=" 0.1.5.0.0.35-0-4-9" class="cls-8" points="28.16 60.84 27.61 60.27 29.86 60.27 29.32 60.84 28.16 60.84"/>
      <polygon id="_0.1.5.0.0.36-3-0-0" data-name=" 0.1.5.0.0.36-3-0-0" class="cls-9" points="29.32 62.08 29.32 60.84 29.86 60.27 29.86 62.65 29.32 62.08"/>
      <rect id="_0.1.5.0.0.7-2-5" data-name=" 0.1.5.0.0.7-2-5" class="cls-4" x="34.71" y="60.27" width="2.27" height="2.39"/>
      <rect id="_0.1.5.0.0.32-9-0" data-name=" 0.1.5.0.0.32-9-0" class="cls-5" x="35.24" y="60.84" width="1.17" height="1.23"/>
      <polygon id="_0.1.5.0.0.33-7-1" data-name=" 0.1.5.0.0.33-7-1" class="cls-6" points="35.26 62.08 34.7 62.65 36.97 62.65 36.41 62.08 35.26 62.08"/>
      <polygon id="_0.1.5.0.0.34-53-5" data-name=" 0.1.5.0.0.34-53-5" class="cls-7" points="34.7 62.65 34.7 60.27 35.26 60.84 35.26 62.08 34.7 62.65"/>
      <polygon id="_0.1.5.0.0.35-4-2" data-name=" 0.1.5.0.0.35-4-2" class="cls-8" points="34.7 60.27 36.97 60.27 36.41 60.84 35.26 60.84 34.7 60.27"/>
      <polygon id="_0.1.5.0.0.36-32-0" data-name=" 0.1.5.0.0.36-32-0" class="cls-9" points="36.41 60.84 36.97 60.27 36.97 62.65 36.41 62.08 36.41 60.84"/>
      <rect id="_0.1.5.0.0.6-2-26-1" data-name=" 0.1.5.0.0.6-2-26-1" class="cls-4" x="34.71" y="60.27" width="2.27" height="2.39"/>
      <rect id="_0.1.5.0.0.37-4-0-0" data-name=" 0.1.5.0.0.37-4-0-0" class="cls-5" x="35.26" y="60.84" width="1.17" height="1.23"/>
      <polygon id="_0.1.5.0.0.38-0-5-9" data-name=" 0.1.5.0.0.38-0-5-9" class="cls-6" points="36.41 62.08 35.26 62.08 34.7 62.65 36.97 62.65 36.41 62.08"/>
      <polygon id="_0.1.5.0.0.39-0-3-7" data-name=" 0.1.5.0.0.39-0-3-7" class="cls-7" points="35.26 62.08 34.7 62.65 34.7 60.27 35.26 60.84 35.26 62.08"/>
      <polygon id="_0.1.5.0.0.40-5-10-59" data-name=" 0.1.5.0.0.40-5-10-59" class="cls-8" points="35.26 60.84 34.7 60.27 36.97 60.27 36.41 60.84 35.26 60.84"/>
      <polygon id="_0.1.5.0.0.41-3-6-1" data-name=" 0.1.5.0.0.41-3-6-1" class="cls-9" points="36.41 62.08 36.41 60.84 36.97 60.27 36.97 62.65 36.41 62.08"/>
      <g id="text3341-9-4-8-5">
        <text class="cls-10" transform="translate(41.37 69.38)">G</text>
      </g>
      <g id="text3369-7-2-8-4">
        <text class="cls-10" transform="translate(34.4 69.35)">V</text>
      </g>
      <g id="text3397-0-1-7-2">
        <text class="cls-10" transform="translate(27.59 69.38)">S</text>
      </g>
    </g>
    <g id="T1-SOT23">
      <path id="path3477-3-3-9-7" class="cls-11" d="M17.23,59.44h-7.1V56.5h7.1Z" transform="translate(-0.01 0)"/>
      <path id="path3479-3-5-4-5" class="cls-12" d="M16.68,61.6H15.32V59.43h1.36Z" transform="translate(-0.01 0)"/>
      <path id="path3481-7-76-7-2" class="cls-13" d="M16.68,60.36H15.32v-.69h1.36Z" transform="translate(-0.01 0)"/>
      <path id="path3483-3-6-6-4" class="cls-12" d="M12,61.6H10.67V59.43H12Z" transform="translate(-0.01 0)"/>
      <path id="path3485-0-5-8-0" class="cls-13" d="M12,60.36H10.67v-.69H12Z" transform="translate(-0.01 0)"/>
      <path id="path3487-1-8-4-8" class="cls-12" d="M14.36,54.35H13v2.16h1.37Z" transform="translate(-0.01 0)"/>
      <path id="path3489-4-2-9-2" class="cls-13" d="M14.36,55.59H13v.69h1.37Z" transform="translate(-0.01 0)"/>
    </g>
    <g id="R2-0503">
      <path id="path3491-8-5-5-1" class="cls-14" d="M52.58,61.27h-3V55.83h3Z" transform="translate(-0.01 0)"/>
      <path id="path3493-7-44-5-0" class="cls-12" d="M52.6,56.13h-3v-1h3Z" transform="translate(-0.01 0)"/>
      <path id="path3495-8-16-1-6" class="cls-12" d="M52.6,61.81h-3v-1h3Z" transform="translate(-0.01 0)"/>
    </g>
    <g id="R3-0503">
      <path id="path3497-9-6-5-2" class="cls-14" d="M22.71,60.52H19.76V55.19h2.95Z" transform="translate(-0.01 0)"/>
      <path id="path3499-8-3-5-9" class="cls-12" d="M22.72,55.72h-3v-1h3Z" transform="translate(-0.01 0)"/>
      <path id="path3501-9-3-8-9" class="cls-12" d="M22.72,61.38h-3v-1h3Z" transform="translate(-0.01 0)"/>
    </g>
    <g id="R1-0503">
      <path id="path3491-8-7-5-8-9" class="cls-14" d="M60.39,61.13h-3V55.72h3Z" transform="translate(-0.01 0)"/>
      <path id="path3493-7-4-3-9-5" class="cls-12" d="M60.42,56h-3V55h3Z" transform="translate(-0.01 0)"/>
      <path id="path3495-8-2-6-8-2" class="cls-12" d="M60.42,61.7h-3v-1h3Z" transform="translate(-0.01 0)"/>
    </g>
    <g id="L1-5mm">
      <circle id="circle12901-53" class="cls-15" cx="35.62" cy="35.34" r="3.7"/>
      <circle id="color_circle1-0" data-name="color circle1-0" class="cls-16" cx="35.48" cy="35.36" r="1.4"/>
      <circle id="color_circle2-8" data-name="color circle2-8" class="cls-17" cx="35.33" cy="35.4" r="7.35"/>
      <path id="path12913-9" class="cls-18" d="M34.83,31.25a4.28,4.28,0,0,1,1.07-.12,4.7,4.7,0,0,1,.92.09l.38-1.83a6.3,6.3,0,0,0-1.3-.13,9.16,9.16,0,0,0-1.65.18ZM33,30a6.43,6.43,0,0,0-3.38,7l1.82-.41a4.76,4.76,0,0,1-.07-.84,4.55,4.55,0,0,1,2.34-4Z" transform="translate(-0.01 0)"/>
      <circle id="path16388-1" class="cls-19" cx="35.51" cy="35.47" r="7.47"/>
      <ellipse id="ellipse16456" class="cls-20" cx="35.78" cy="35.16" rx="17.35" ry="17.69"/>
      <ellipse id="ellipse16458" class="cls-21" cx="35.49" cy="35.27" rx="28.32" ry="20.63"/>
      <ellipse id="ellipse16460" class="cls-22" cx="35.44" cy="35.88" rx="13.83" ry="14.87"/>
      <ellipse id="ellipse16462" class="cls-23" cx="36.03" cy="35.22" rx="11.53" ry="8.83"/>
    </g>
    <g id="amperka-logo">
      <path id="path532-5-4-9-8-5-6-8-0" d="M11.59,10.78a2,2,0,1,1-2,2,2,2,0,0,1,2-2m0,5.32a3.28,3.28,0,1,0-3.28-3.28h0a3.28,3.28,0,0,0,3.25,3.31h0" transform="translate(-0.01 0)"/>
      <path id="path536-1-4-0-5-1-3-3-2" d="M11.59,4.4a2.28,2.28,0,1,1-.07,0h.07m0,1.24a1,1,0,1,0,1,1,1,1,0,0,0-1-1" transform="translate(-0.01 0)"/>
      <path id="path540-3-7-2-9-1-0-6-4" d="M12,18.26a5.49,5.49,0,0,0,5-5.09A5.36,5.36,0,0,0,15.8,9.4l.4-.4a.62.62,0,0,0,.06-.87.6.6,0,0,0-.85,0h0L14.52,9a.54.54,0,0,0,0,.76,4.32,4.32,0,0,1,1.28,2.78A4.22,4.22,0,0,1,7.37,13,4.27,4.27,0,0,1,8.59,9.83V9.77a.54.54,0,0,0,0-.76l-.87-.88a.6.6,0,0,0-.86,0,.6.6,0,0,0,0,.86h0l.42.42a5.38,5.38,0,0,0-1.2,3.39,5.48,5.48,0,0,0,5.48,5.46H12" transform="translate(-0.01 0)"/>
    </g>
  </g>
</svg>
