<svg id="troyka-5mm-led-module-red" xmlns="http://www.w3.org/2000/svg" xmlns:xlink="http://www.w3.org/1999/xlink" width="25.4mm" height="25.4mm" viewBox="0 0 72 72">
  <defs>
    <style>
      .cls-1 {
        fill: #f2f2f2;
        stroke-miterlimit: 1;
        stroke-width: 0.43px;
      }

      .cls-1, .cls-2 {
        stroke: #000;
      }

      .cls-19, .cls-2 {
        fill: none;
      }

      .cls-2 {
        stroke-width: 0.28px;
      }

      .cls-3 {
        fill: #666;
      }

      .cls-4 {
        fill: #8d8c8c;
      }

      .cls-5 {
        fill: #8c8663;
      }

      .cls-6 {
        fill: #b8af82;
      }

      .cls-7 {
        fill: #80795b;
      }

      .cls-8 {
        fill: #5e5b43;
      }

      .cls-9 {
        fill: #9a916c;
      }

      .cls-10, .cls-17, .cls-18, .cls-20, .cls-21, .cls-22, .cls-23 {
        isolation: isolate;
      }

      .cls-10 {
        font-size: 5.41px;
        font-family: TrebuchetMS, Trebuchet MS;
      }

      .cls-11 {
        fill: #404040;
      }

      .cls-12 {
        fill: #b3b3b3;
      }

      .cls-13 {
        fill: gray;
      }

      .cls-14 {
        fill: #1a1a1a;
      }

      .cls-15 {
        fill: #8c8c8c;
      }

      .cls-16, .cls-17 {
        fill: red;
      }

      .cls-17 {
        opacity: 0.53;
      }

      .cls-18 {
        fill: #fff;
        opacity: 0.6;
      }

      .cls-19 {
        stroke: red;
        stroke-width: 0.2px;
      }

      .cls-19, .cls-20, .cls-22, .cls-23 {
        stroke-linecap: round;
      }

      .cls-20 {
        stroke-width: 0.12px;
        fill: url(#Безымянный_градиент);
        stroke: url(#Безымянный_градиент_2);
      }

      .cls-20, .cls-21, .cls-22 {
        opacity: 0.46;
      }

      .cls-21 {
        fill: url(#Безымянный_градиент_3);
      }

      .cls-22 {
        stroke-width: 0.27px;
        fill: url(#Безымянный_градиент_4);
        stroke: url(#Безымянный_градиент_5);
      }

      .cls-23 {
        stroke-width: 0.07px;
        opacity: 0.38;
        fill: url(#Безымянный_градиент_6);
        stroke: url(#Безымянный_градиент_7);
      }
    </style>
    <radialGradient id="Безымянный_градиент" data-name="Безымянный градиент" cx="-266.44" cy="299.16" r="6.18" gradientTransform="translate(788.74 -829.03) scale(2.83 2.89)" gradientUnits="userSpaceOnUse">
      <stop offset="0" stop-color="red"/>
      <stop offset="1" stop-color="red" stop-opacity="0"/>
    </radialGradient>
    <radialGradient id="Безымянный_градиент_2" data-name="Безымянный градиент 2" cx="464.31" cy="1378.56" r="41.38" gradientTransform="translate(-160.62 -556.63) scale(0.42 0.43)" gradientUnits="userSpaceOnUse">
      <stop offset="0"/>
      <stop offset="1" stop-opacity="0"/>
    </radialGradient>
    <radialGradient id="Безымянный_градиент_3" data-name="Безымянный градиент 3" cx="-980.72" cy="-403.71" r="10.07" gradientTransform="matrix(-2.48, -0.05, 0.04, -1.89, -2378.58, -775.01)" xlink:href="#Безымянный_градиент"/>
    <radialGradient id="Безымянный_градиент_4" data-name="Безымянный градиент 4" cx="-967.44" cy="-350.54" r="5.51" gradientTransform="translate(-2462.58 -935.74) rotate(180) scale(2.58 2.77)" xlink:href="#Безымянный_градиент"/>
    <radialGradient id="Безымянный_градиент_5" data-name="Безымянный градиент 5" cx="-626.89" cy="34.71" r="1.8" gradientTransform="translate(-7404.77 -1554.02) rotate(180) scale(16.52 3.84)" gradientUnits="userSpaceOnUse">
      <stop offset="0"/>
      <stop offset="0.56" stop-color="#02dd55"/>
      <stop offset="1" stop-color="#0d5" stop-opacity="0"/>
    </radialGradient>
    <radialGradient id="Безымянный_градиент_6" data-name="Безымянный градиент 6" cx="-460.57" cy="-83.28" r="0.98" gradientTransform="translate(-5469.4 -721.96) rotate(180) scale(11.95 9.12)" gradientUnits="userSpaceOnUse">
      <stop offset="0" stop-color="#fff"/>
      <stop offset="1" stop-color="#fff" stop-opacity="0"/>
    </radialGradient>
    <radialGradient id="Безымянный_градиент_7" data-name="Безымянный градиент 7" cx="-3938.85" cy="-4349.38" r="41.35" gradientTransform="matrix(-0.19, 0, -0.01, -0.14, -759.29, -574.61)" xlink:href="#Безымянный_градиент_2"/>
  </defs>
  <title>troyka-5mm-led-module_red</title>
  <g id="all">
    <path id="triyka-oneunit" class="cls-1" d="M4.71.22A4.49,4.49,0,0,1,.24,4.71h0V67.29a4.49,4.49,0,0,1,4.49,4.49H67.29a4.49,4.49,0,0,1,4.48-4.5h0V4.71A4.49,4.49,0,0,1,67.29.23H4.71Z" transform="translate(-0.01 -0.01)"/>
    <g id="troyka-pins2">
      <rect id="rect17620" class="cls-2" x="39.49" y="0.3" width="7.13" height="13.81" rx="0.14" ry="0.14"/>
      <rect id="rect17622" class="cls-2" x="32.38" y="0.3" width="7.13" height="13.81" rx="0.14" ry="0.14"/>
      <rect id="rect17624" class="cls-2" x="25.29" y="0.3" width="7.13" height="13.81" rx="0.14" ry="0.14"/>
      <circle id="circle17626" class="cls-3" cx="43.06" cy="10.43" r="2.62"/>
      <circle id="circle17628" class="cls-3" cx="35.95" cy="10.43" r="2.62"/>
      <rect id="rect17630" class="cls-3" x="26.22" y="7.8" width="5.23" height="5.23" rx="0.48" ry="0.48"/>
      <rect id="rect17632" class="cls-4" x="27.71" y="9.23" width="2.27" height="2.39"/>
      <rect id="rect17634" class="cls-5" x="28.27" y="9.81" width="1.17" height="1.23"/>
      <polygon id="polygon17636" class="cls-6" points="27.71 9.23 28.27 9.81 29.43 9.81 29.98 9.23 27.71 9.23"/>
      <polygon id="polygon17638" class="cls-7" points="29.43 11.04 29.43 9.81 29.98 9.23 29.98 11.62 29.43 11.04"/>
      <polygon id="polygon17640" class="cls-8" points="28.27 11.04 29.43 11.04 29.98 11.62 27.71 11.62 28.27 11.04"/>
      <polygon id="polygon17642" class="cls-9" points="27.71 9.23 28.27 9.81 28.27 11.04 27.71 11.62 27.71 9.23"/>
      <rect id="rect17646" class="cls-4" x="41.91" y="9.23" width="2.27" height="2.39"/>
      <rect id="rect17648" class="cls-5" x="42.47" y="9.81" width="1.17" height="1.23"/>
      <polygon id="polygon17650" class="cls-6" points="44.17 9.23 41.91 9.23 42.47 9.81 43.63 9.81 44.17 9.23"/>
      <polygon id="polygon17652" class="cls-7" points="44.17 11.62 43.63 11.04 43.63 9.81 44.17 9.23 44.17 11.62"/>
      <polygon id="polygon17654" class="cls-8" points="41.91 11.62 42.47 11.04 43.63 11.04 44.17 11.62 41.91 11.62"/>
      <polygon id="polygon17656" class="cls-9" points="41.91 11.62 41.91 9.23 42.47 9.81 42.47 11.04 41.91 11.62"/>
      <rect id="rect17660" class="cls-4" x="34.81" y="9.23" width="2.27" height="2.39"/>
      <rect id="rect17662" class="cls-5" x="35.36" y="9.81" width="1.17" height="1.23"/>
      <polygon id="polygon17664" class="cls-6" points="34.81 9.23 35.37 9.81 36.52 9.81 37.08 9.23 34.81 9.23"/>
      <polygon id="polygon17666" class="cls-7" points="36.52 11.04 36.52 9.81 37.08 9.23 37.08 11.62 36.52 11.04"/>
      <polygon id="polygon17668" class="cls-8" points="35.37 11.04 36.52 11.04 37.08 11.62 34.81 11.62 35.37 11.04"/>
      <polygon id="polygon17670" class="cls-9" points="34.81 9.23 35.37 9.81 35.37 11.04 34.81 11.62 34.81 9.23"/>
      <rect id="rect17672" class="cls-4" x="34.81" y="9.23" width="2.27" height="2.39"/>
      <rect id="rect17674" class="cls-5" x="35.36" y="9.81" width="1.17" height="1.23"/>
      <polygon id="polygon17676" class="cls-6" points="37.08 9.23 34.81 9.23 35.37 9.81 36.52 9.81 37.08 9.23"/>
      <polygon id="polygon17678" class="cls-7" points="37.08 11.62 36.52 11.04 36.52 9.81 37.08 9.23 37.08 11.62"/>
      <polygon id="polygon17680" class="cls-8" points="34.81 11.62 35.37 11.04 36.52 11.04 37.08 11.62 34.81 11.62"/>
      <polygon id="polygon17682" class="cls-9" points="34.81 11.62 34.81 9.23 35.37 9.81 35.37 11.04 34.81 11.62"/>
    </g>
    <g id="troyka-pins1">
      <rect id="rect17552" class="cls-2" x="25.19" y="57.77" width="7.13" height="13.81" rx="0.14" ry="0.14"/>
      <rect id="rect17554" class="cls-2" x="32.29" y="57.77" width="7.13" height="13.81" rx="0.14" ry="0.14"/>
      <rect id="rect17556" class="cls-2" x="39.38" y="57.77" width="7.13" height="13.81" rx="0.14" ry="0.14"/>
      <circle id="circle17558" class="cls-3" cx="28.73" cy="61.47" r="2.62"/>
      <circle id="circle17560" class="cls-3" cx="35.84" cy="61.47" r="2.62"/>
      <rect id="rect17562" class="cls-3" x="40.34" y="58.84" width="5.23" height="5.23" rx="0.48" ry="0.48"/>
      <rect id="rect17564" class="cls-4" x="41.81" y="60.27" width="2.27" height="2.39"/>
      <rect id="rect17566" class="cls-5" x="42.36" y="60.84" width="1.17" height="1.23"/>
      <polygon id="polygon17568" class="cls-6" points="41.81 62.66 44.08 62.66 43.52 62.08 42.37 62.08 41.81 62.66"/>
      <polygon id="polygon17570" class="cls-7" points="41.81 60.27 42.37 60.84 42.37 62.08 41.81 62.66 41.81 60.27"/>
      <polygon id="polygon17572" class="cls-8" points="44.08 60.27 43.52 60.84 42.37 60.84 41.81 60.27 44.08 60.27"/>
      <polygon id="polygon17574" class="cls-9" points="44.08 60.27 44.08 62.66 43.52 62.08 43.52 60.84 44.08 60.27"/>
      <rect id="rect17578" class="cls-4" x="27.62" y="60.27" width="2.27" height="2.39"/>
      <rect id="rect17580" class="cls-5" x="28.17" y="60.84" width="1.17" height="1.23"/>
      <polygon id="polygon17582" class="cls-6" points="28.16 62.08 27.61 62.66 29.89 62.66 29.32 62.08 28.16 62.08"/>
      <polygon id="polygon17584" class="cls-7" points="27.61 62.66 27.61 60.27 28.16 60.84 28.16 62.08 27.61 62.66"/>
      <polygon id="polygon17586" class="cls-8" points="27.61 60.27 29.89 60.27 29.32 60.84 28.16 60.84 27.61 60.27"/>
      <polygon id="polygon17588" class="cls-9" points="29.32 60.84 29.89 60.27 29.89 62.66 29.32 62.08 29.32 60.84"/>
      <rect id="rect17592" class="cls-4" x="34.72" y="60.27" width="2.27" height="2.39"/>
      <rect id="rect17594" class="cls-5" x="35.27" y="60.84" width="1.17" height="1.23"/>
      <polygon id="polygon17596" class="cls-6" points="34.72 62.66 36.98 62.66 36.42 62.08 35.27 62.08 34.72 62.66"/>
      <polygon id="polygon17598" class="cls-7" points="34.72 60.27 35.27 60.84 35.27 62.08 34.72 62.66 34.72 60.27"/>
      <polygon id="polygon17600" class="cls-8" points="36.98 60.27 36.42 60.84 35.27 60.84 34.72 60.27 36.98 60.27"/>
      <polygon id="polygon17602" class="cls-9" points="36.98 60.27 36.98 62.66 36.42 62.08 36.42 60.84 36.98 60.27"/>
      <rect id="rect17604" class="cls-4" x="34.72" y="60.27" width="2.27" height="2.39"/>
      <rect id="rect17606" class="cls-5" x="35.27" y="60.84" width="1.17" height="1.23"/>
      <polygon id="polygon17608" class="cls-6" points="35.27 62.08 34.72 62.66 36.98 62.66 36.42 62.08 35.27 62.08"/>
      <polygon id="polygon17610" class="cls-7" points="34.72 62.66 34.72 60.27 35.27 60.84 35.27 62.08 34.72 62.66"/>
      <polygon id="polygon17612" class="cls-8" points="34.72 60.27 36.98 60.27 36.42 60.84 35.27 60.84 34.72 60.27"/>
      <polygon id="polygon17614" class="cls-9" points="36.42 60.84 36.98 60.27 36.98 62.66 36.42 62.08 36.42 60.84"/>
      <text class="cls-10" transform="translate(41.38 69.39)">G</text>
      <text class="cls-10" transform="translate(34.42 69.35)">V</text>
      <text class="cls-10" transform="translate(27.6 69.39)">S</text>
    </g>
    <g id="T1-SOP23">
      <path id="path17816" class="cls-11" d="M17.24,59.45H10.13V56.51h7.11Z" transform="translate(-0.01 -0.01)"/>
      <path id="path17818" class="cls-12" d="M16.69,61.61H15.33V59.44h1.36Z" transform="translate(-0.01 -0.01)"/>
      <path id="path17820" class="cls-13" d="M16.69,60.37H15.33v-.69h1.36Z" transform="translate(-0.01 -0.01)"/>
      <path id="path17822" class="cls-12" d="M12,61.61H10.68V59.44H12Z" transform="translate(-0.01 -0.01)"/>
      <path id="path17824" class="cls-13" d="M12,60.37H10.68v-.69H12Z" transform="translate(-0.01 -0.01)"/>
      <path id="path17826" class="cls-12" d="M14.37,54.36H13v2.16h1.37Z" transform="translate(-0.01 -0.01)"/>
      <path id="path17828" class="cls-13" d="M14.37,55.6H13v.69h1.37Z" transform="translate(-0.01 -0.01)"/>
    </g>
    <g id="R2-0603">
      <path id="path17832" class="cls-14" d="M52.59,61.28h-3V55.84h3Z" transform="translate(-0.01 -0.01)"/>
      <path id="path17834" class="cls-12" d="M52.61,56.15h-3V55.2h3Z" transform="translate(-0.01 -0.01)"/>
      <path id="path17836" class="cls-12" d="M52.61,61.82h-3v-1h3Z" transform="translate(-0.01 -0.01)"/>
    </g>
    <g id="R3-0603">
      <path id="path17838" class="cls-14" d="M22.72,60.53H19.77V55.2h2.95Z" transform="translate(-0.01 -0.01)"/>
      <path id="path17840" class="cls-12" d="M22.73,55.73h-3v-1h3Z" transform="translate(-0.01 -0.01)"/>
      <path id="path17842" class="cls-12" d="M22.73,61.39h-3v-1h3Z" transform="translate(-0.01 -0.01)"/>
    </g>
    <g id="R1-0603">
      <path id="path17846" class="cls-14" d="M60.4,61.17H57.45V55.73H60.4Z" transform="translate(-0.01 -0.01)"/>
      <path id="path17848" class="cls-12" d="M60.43,56h-3V55h3Z" transform="translate(-0.01 -0.01)"/>
      <path id="path17850" class="cls-12" d="M60.43,61.71h-3v-1h3Z" transform="translate(-0.01 -0.01)"/>
    </g>
    <g id="L1-5mm">
      <circle id="circle17852" class="cls-15" cx="35.65" cy="35.34" r="3.7"/>
      <circle id="circle17854" class="cls-16" cx="35.49" cy="35.36" r="1.4"/>
      <circle id="circle17856" class="cls-17" cx="35.54" cy="35.09" r="7.35"/>
      <path id="path17858" class="cls-18" d="M34.84,31.26a4.29,4.29,0,0,1,1.07-.13,4.7,4.7,0,0,1,.92.09l.38-1.83a6.3,6.3,0,0,0-1.3-.13,9.16,9.16,0,0,0-1.65.18ZM33,30a6.43,6.43,0,0,0-3.38,7l1.82-.41a4.76,4.76,0,0,1-.07-.84,4.55,4.55,0,0,1,2.34-4Z" transform="translate(-0.01 -0.01)"/>
      <circle id="circle17860" class="cls-19" cx="35.59" cy="35.27" r="7.47"/>
      <ellipse id="ellipse60942-58-7-1" class="cls-20" cx="34.4" cy="35.54" rx="17.35" ry="17.69"/>
      <ellipse id="ellipse60944-02-5-2" class="cls-21" cx="35.06" cy="35.52" rx="28.32" ry="20.63"/>
      <ellipse id="ellipse60946-76-0-6" class="cls-22" cx="33.65" cy="34.65" rx="13.83" ry="14.87"/>
      <ellipse id="ellipse60944-02-5-2-5" class="cls-23" cx="35.06" cy="35.59" rx="11.53" ry="8.83"/>
    </g>
    <g id="amperka-logo">
      <path id="path532-5-4-9-8-5-6-8-0" d="M13.11,10.76a2,2,0,1,1-2,2,2,2,0,0,1,2-2m0,5.32A3.28,3.28,0,1,0,9.83,12.8h0a3.28,3.28,0,0,0,3.28,3.28" transform="translate(-0.01 -0.01)"/>
      <path id="path536-1-4-0-5-1-3-3-2" d="M13.11,4.38a2.28,2.28,0,1,1-.07,0h.07m0,1.24a1,1,0,1,0,1,1,1,1,0,0,0-1-1" transform="translate(-0.01 -0.01)"/>
      <path id="path540-3-7-2-9-1-0-6-4" d="M13.45,18.24a5.49,5.49,0,0,0,5.07-5.09,5.36,5.36,0,0,0-1.18-3.77l.4-.4a.62.62,0,0,0,.06-.85A.61.61,0,0,0,17,8.08l0,.05L16,9a.54.54,0,0,0,0,.76,4.32,4.32,0,0,1,1.28,2.78A4.22,4.22,0,1,1,10.1,9.78v0a.54.54,0,0,0,0-.76l-.87-.87a.6.6,0,0,0-.89.81L8.39,9l.42.42a5.44,5.44,0,0,0,4.28,8.85h.36" transform="translate(-0.01 -0.01)"/>
    </g>
  </g>
</svg>
