<svg id="Слой_1" data-name="Слой 1" xmlns="http://www.w3.org/2000/svg" width="25.38mm" height="25.39mm" viewBox="0 0 71.93 71.96">
  <defs>
    <style>
      .cls-1 {
        fill: #f2f2f2;
        stroke-miterlimit: 1;
        stroke-width: 0.43px;
      }

      .cls-1, .cls-10, .cls-17, .cls-19, .cls-2 {
        stroke: #000;
      }

      .cls-10, .cls-17, .cls-19, .cls-2 {
        fill: none;
        stroke-width: 0.28px;
      }

      .cls-3 {
        fill: #666;
      }

      .cls-4 {
        fill: #8d8c8c;
      }

      .cls-5 {
        fill: #8c8663;
      }

      .cls-6 {
        fill: #b8af82;
      }

      .cls-7 {
        fill: #80795b;
      }

      .cls-8 {
        fill: #5e5b43;
      }

      .cls-9 {
        fill: #9a916c;
      }

      .cls-10, .cls-17 {
        stroke-miterlimit: 10;
      }

      .cls-11, .cls-18, .cls-21, .cls-26, .cls-27 {
        isolation: isolate;
      }

      .cls-11 {
        font-size: 5.43px;
      }

      .cls-11, .cls-18, .cls-21 {
        font-family: TrebuchetMS, Trebuchet MS;
      }

      .cls-12, .cls-38 {
        fill: #b3b3b3;
      }

      .cls-13 {
        fill: #ccc;
      }

      .cls-14 {
        fill: #181818;
      }

      .cls-15 {
        fill: #242424;
      }

      .cls-16, .cls-39 {
        fill: gray;
      }

      .cls-17, .cls-19 {
        stroke-linecap: square;
      }

      .cls-18 {
        font-size: 4.82px;
      }

      .cls-20 {
        fill: #404040;
      }

      .cls-21 {
        font-size: 3.87px;
      }

      .cls-22 {
        fill: #678246;
      }

      .cls-23 {
        fill: #485933;
      }

      .cls-24 {
        fill: #87a85c;
      }

      .cls-25 {
        fill: #8b8b8b;
      }

      .cls-26, .cls-27 {
        opacity: 0.15;
      }

      .cls-27, .cls-33 {
        fill: #fff;
      }

      .cls-28 {
        fill: #d0d1d0;
      }

      .cls-29, .cls-36 {
        fill: #b7b8b9;
      }

      .cls-30 {
        fill: #40bb6a;
      }

      .cls-31 {
        fill: #918f90;
      }

      .cls-32, .cls-37 {
        fill: #d7d3d5;
      }

      .cls-33 {
        fill-opacity: 0.51;
      }

      .cls-34 {
        fill: #545152;
      }

      .cls-35 {
        fill: #d2d1d3;
        stroke-opacity: 0.8;
        stroke-width: 0.01px;
      }

      .cls-35, .cls-36, .cls-37, .cls-38, .cls-39 {
        stroke: #0d0000;
      }

      .cls-36, .cls-37 {
        stroke-width: 0.02px;
      }

      .cls-38, .cls-39 {
        stroke-width: 0.03px;
      }
    </style>
  </defs>
  <title>troyka-mosfet-p-channel</title>
  <g id="ALL">
    <path id="troyka-one-unit" class="cls-1" d="M4.69.21A4.51,4.51,0,0,1,.22,4.71h0V67.28a4.48,4.48,0,0,1,4.49,4.47H67.26a4.49,4.49,0,0,1,4.46-4.5h0V4.71A4.49,4.49,0,0,1,67.26.23h0Z"/>
    <g id="troyka-pins2">
      <rect id="rect6749-8" class="cls-2" x="39.5" y="0.21" width="7.13" height="13.81" rx="0.14" ry="0.14"/>
      <rect id="rect6749-9-8" class="cls-2" x="32.41" y="0.21" width="7.13" height="13.81" rx="0.14" ry="0.14"/>
      <rect id="rect6749-9-3-2" class="cls-2" x="25.3" y="0.21" width="7.13" height="13.81" rx="0.14" ry="0.14"/>
      <circle id="path4180-4" class="cls-3" cx="43.07" cy="10.33" r="2.62"/>
      <circle id="path4180-2-5" class="cls-3" cx="35.96" cy="10.33" r="2.62"/>
      <rect id="rect4216-5" class="cls-3" x="26.24" y="7.7" width="5.23" height="5.23" rx="0.48" ry="0.48"/>
      <rect id="_0.1.5.0.0.6-7-1" data-name=" 0.1.5.0.0.6-7-1" class="cls-4" x="27.73" y="9.13" width="2.27" height="2.39"/>
      <rect id="_0.1.5.0.0.37-1-1" data-name=" 0.1.5.0.0.37-1-1" class="cls-5" x="28.29" y="9.71" width="1.17" height="1.23"/>
      <polygon id="_0.1.5.0.0.38-1-5" data-name=" 0.1.5.0.0.38-1-5" class="cls-6" points="30 9.13 27.73 9.13 28.28 9.7 29.44 9.7 30 9.13"/>
      <polygon id="_0.1.5.0.0.39-3-2" data-name=" 0.1.5.0.0.39-3-2" class="cls-7" points="30 11.52 29.44 10.94 29.44 9.7 30 9.13 30 11.52"/>
      <polygon id="_0.1.5.0.0.40-25-7" data-name=" 0.1.5.0.0.40-25-7" class="cls-8" points="27.73 11.52 28.28 10.94 29.44 10.94 30 11.52 27.73 11.52"/>
      <polygon id="_0.1.5.0.0.41-35-6" data-name=" 0.1.5.0.0.41-35-6" class="cls-9" points="27.73 11.52 27.73 9.13 28.28 9.7 28.28 10.94 27.73 11.52"/>
      <rect id="_0.1.5.0.0.7-6-40-4" data-name=" 0.1.5.0.0.7-6-40-4" class="cls-4" x="41.93" y="9.13" width="2.27" height="2.39"/>
      <rect id="_0.1.5.0.0.32-4-7-2" data-name=" 0.1.5.0.0.32-4-7-2" class="cls-5" x="42.48" y="9.71" width="1.17" height="1.23"/>
      <polygon id="_0.1.5.0.0.33-0-0-3" data-name=" 0.1.5.0.0.33-0-0-3" class="cls-6" points="43.65 9.7 44.19 9.13 41.93 9.13 42.48 9.7 43.65 9.7"/>
      <polygon id="_0.1.5.0.0.34-7-3-2" data-name=" 0.1.5.0.0.34-7-3-2" class="cls-7" points="44.19 9.13 44.19 11.52 43.65 10.94 43.65 9.7 44.19 9.13"/>
      <polygon id="_0.1.5.0.0.35-0-4-2" data-name=" 0.1.5.0.0.35-0-4-2" class="cls-8" points="44.19 11.52 41.93 11.52 42.48 10.94 43.65 10.94 44.19 11.52"/>
      <polygon id="_0.1.5.0.0.36-3-0-1" data-name=" 0.1.5.0.0.36-3-0-1" class="cls-9" points="42.48 10.94 41.93 11.52 41.93 9.13 42.48 9.7 42.48 10.94"/>
      <rect id="_0.1.5.0.0.7-2-8" data-name=" 0.1.5.0.0.7-2-8" class="cls-4" x="34.84" y="9.13" width="2.27" height="2.39"/>
      <rect id="_0.1.5.0.0.32-9-5" data-name=" 0.1.5.0.0.32-9-5" class="cls-5" x="35.39" y="9.71" width="1.17" height="1.23"/>
      <polygon id="_0.1.5.0.0.33-7-7" data-name=" 0.1.5.0.0.33-7-7" class="cls-6" points="37.09 9.13 34.84 9.13 35.38 9.7 36.55 9.7 37.09 9.13"/>
      <polygon id="_0.1.5.0.0.34-53-6" data-name=" 0.1.5.0.0.34-53-6" class="cls-7" points="37.09 11.52 36.55 10.94 36.55 9.7 37.09 9.13 37.09 11.52"/>
      <polygon id="_0.1.5.0.0.35-4-1" data-name=" 0.1.5.0.0.35-4-1" class="cls-8" points="34.84 11.52 35.38 10.94 36.55 10.94 37.09 11.52 34.84 11.52"/>
      <polygon id="_0.1.5.0.0.36-32-8" data-name=" 0.1.5.0.0.36-32-8" class="cls-9" points="34.84 11.52 34.84 9.13 35.38 9.7 35.38 10.94 34.84 11.52"/>
      <rect id="_0.1.5.0.0.6-2-26-9" data-name=" 0.1.5.0.0.6-2-26-9" class="cls-4" x="34.84" y="9.13" width="2.27" height="2.39"/>
      <rect id="_0.1.5.0.0.37-4-0-2" data-name=" 0.1.5.0.0.37-4-0-2" class="cls-5" x="35.39" y="9.71" width="1.17" height="1.23"/>
      <polygon id="_0.1.5.0.0.38-0-5-7" data-name=" 0.1.5.0.0.38-0-5-7" class="cls-6" points="36.55 9.7 37.09 9.13 34.84 9.13 35.38 9.7 36.55 9.7"/>
      <polygon id="_0.1.5.0.0.39-0-3-9" data-name=" 0.1.5.0.0.39-0-3-9" class="cls-7" points="37.09 9.13 37.09 11.52 36.55 10.94 36.55 9.7 37.09 9.13"/>
      <polygon id="_0.1.5.0.0.40-5-10-5" data-name=" 0.1.5.0.0.40-5-10-5" class="cls-8" points="37.09 11.52 34.84 11.52 35.38 10.94 36.55 10.94 37.09 11.52"/>
      <polygon id="_0.1.5.0.0.41-3-6-4" data-name=" 0.1.5.0.0.41-3-6-4" class="cls-9" points="35.38 10.94 34.84 11.52 34.84 9.13 35.38 9.7 35.38 10.94"/>
    </g>
    <g id="troyka-pins">
      <rect id="rect6749" class="cls-2" x="25.3" y="57.92" width="7.13" height="13.81" rx="0.14" ry="0.14"/>
      <rect id="rect6749-9" class="cls-2" x="32.41" y="57.92" width="7.13" height="13.81" rx="0.14" ry="0.14"/>
      <rect id="rect6749-9-3" class="cls-10" x="39.5" y="57.92" width="7.13" height="13.81" rx="0.14" ry="0.14"/>
      <circle id="path4180" class="cls-3" cx="28.85" cy="61.6" r="2.62"/>
      <circle id="path4180-2" class="cls-3" cx="35.96" cy="61.6" r="2.62"/>
      <rect id="rect4216" class="cls-3" x="40.46" y="58.99" width="5.23" height="5.23" rx="0.48" ry="0.48"/>
      <rect id="_0.1.5.0.0.6-7" data-name=" 0.1.5.0.0.6-7" class="cls-4" x="41.93" y="60.42" width="2.27" height="2.39"/>
      <rect id="_0.1.5.0.0.37-1" data-name=" 0.1.5.0.0.37-1" class="cls-5" x="42.48" y="60.99" width="1.17" height="1.23"/>
      <polygon id="_0.1.5.0.0.38-1" data-name=" 0.1.5.0.0.38-1" class="cls-6" points="42.48 62.22 41.94 62.79 44.19 62.79 43.65 62.22 42.48 62.22"/>
      <polygon id="_0.1.5.0.0.39-3" data-name=" 0.1.5.0.0.39-3" class="cls-7" points="41.94 62.79 41.94 60.42 42.48 60.99 42.48 62.22 41.94 62.79"/>
      <polygon id="_0.1.5.0.0.40-25" data-name=" 0.1.5.0.0.40-25" class="cls-8" points="41.94 60.42 44.19 60.42 43.65 60.99 42.48 60.99 41.94 60.42"/>
      <polygon id="_0.1.5.0.0.41-35" data-name=" 0.1.5.0.0.41-35" class="cls-9" points="43.65 60.99 44.19 60.42 44.19 62.79 43.65 62.22 43.65 60.99"/>
      <rect id="_0.1.5.0.0.7-6-40" data-name=" 0.1.5.0.0.7-6-40" class="cls-4" x="27.73" y="60.42" width="2.27" height="2.39"/>
      <rect id="_0.1.5.0.0.32-4-7" data-name=" 0.1.5.0.0.32-4-7" class="cls-5" x="28.27" y="60.99" width="1.17" height="1.23"/>
      <polygon id="_0.1.5.0.0.33-0-0" data-name=" 0.1.5.0.0.33-0-0" class="cls-6" points="29.44 62.22 28.28 62.22 27.73 62.79 30 62.79 29.44 62.22"/>
      <polygon id="_0.1.5.0.0.34-7-3" data-name=" 0.1.5.0.0.34-7-3" class="cls-7" points="28.28 62.22 27.73 62.79 27.73 60.42 28.28 60.99 28.28 62.22"/>
      <polygon id="_0.1.5.0.0.35-0-4" data-name=" 0.1.5.0.0.35-0-4" class="cls-8" points="28.28 60.99 27.73 60.42 30 60.42 29.44 60.99 28.28 60.99"/>
      <polygon id="_0.1.5.0.0.36-3-0" data-name=" 0.1.5.0.0.36-3-0" class="cls-9" points="29.44 62.22 29.44 60.99 30 60.42 30 62.79 29.44 62.22"/>
      <rect id="_0.1.5.0.0.7-2" data-name=" 0.1.5.0.0.7-2" class="cls-4" x="34.84" y="60.42" width="2.27" height="2.39"/>
      <rect id="_0.1.5.0.0.32-9" data-name=" 0.1.5.0.0.32-9" class="cls-5" x="35.37" y="60.99" width="1.17" height="1.23"/>
      <polygon id="_0.1.5.0.0.33-7" data-name=" 0.1.5.0.0.33-7" class="cls-6" points="35.38 62.22 34.84 62.79 37.09 62.79 36.55 62.22 35.38 62.22"/>
      <polygon id="_0.1.5.0.0.34-53" data-name=" 0.1.5.0.0.34-53" class="cls-7" points="34.84 62.79 34.84 60.42 35.38 60.99 35.38 62.22 34.84 62.79"/>
      <polygon id="_0.1.5.0.0.35-4" data-name=" 0.1.5.0.0.35-4" class="cls-8" points="34.84 60.42 37.09 60.42 36.55 60.99 35.38 60.99 34.84 60.42"/>
      <polygon id="_0.1.5.0.0.36-32" data-name=" 0.1.5.0.0.36-32" class="cls-9" points="36.55 60.99 37.09 60.42 37.09 62.79 36.55 62.22 36.55 60.99"/>
      <rect id="_0.1.5.0.0.6-2-26" data-name=" 0.1.5.0.0.6-2-26" class="cls-4" x="34.84" y="60.42" width="2.27" height="2.39"/>
      <rect id="_0.1.5.0.0.37-4-0" data-name=" 0.1.5.0.0.37-4-0" class="cls-5" x="35.39" y="60.99" width="1.17" height="1.23"/>
      <polygon id="_0.1.5.0.0.38-0-5" data-name=" 0.1.5.0.0.38-0-5" class="cls-6" points="36.55 62.22 35.38 62.22 34.84 62.79 37.09 62.79 36.55 62.22"/>
      <polygon id="_0.1.5.0.0.39-0-3" data-name=" 0.1.5.0.0.39-0-3" class="cls-7" points="35.38 62.22 34.84 62.79 34.84 60.42 35.38 60.99 35.38 62.22"/>
      <polygon id="_0.1.5.0.0.40-5-10" data-name=" 0.1.5.0.0.40-5-10" class="cls-8" points="35.38 60.99 34.84 60.42 37.09 60.42 36.55 60.99 35.38 60.99"/>
      <polygon id="_0.1.5.0.0.41-3-6" data-name=" 0.1.5.0.0.41-3-6" class="cls-9" points="36.55 62.22 36.55 60.99 37.09 60.42 37.09 62.79 36.55 62.22"/>
      <text class="cls-11" transform="translate(41.27 69.49)">G</text>
      <text class="cls-11" transform="translate(34.29 69.46)">V</text>
      <text class="cls-11" transform="translate(27.45 69.49)">S</text>
    </g>
    <g id="T3-DPak">
      <rect id="rect22-9" class="cls-12" x="27.28" y="33.8" width="2.41" height="2.65"/>
      <rect id="rect24-5" class="cls-12" x="27.28" y="40.19" width="3.6" height="2.65"/>
      <rect id="rect26-0" class="cls-12" x="27.28" y="27.39" width="3.6" height="2.65"/>
      <polygon id="polygon15-4" class="cls-12" points="6.67 30.93 6.67 39.43 8.02 42.6 10.4 42.6 10.4 27.77 8.02 27.77 6.67 30.93"/>
      <rect id="rect31-0" class="cls-13" x="30.9" y="40.19" width="1.33" height="2.65"/>
      <rect id="rect33-9" class="cls-13" x="30.9" y="27.39" width="1.33" height="2.65"/>
      <polygon class="cls-14" points="12 25.78 10.22 27.25 10.22 42.88 12 44.5 27.38 44.5 27.38 25.78 12 25.78"/>
      <polygon class="cls-15" points="12.57 26.5 10.96 27.98 10.96 42.3 12.57 43.81 26.96 43.81 26.96 26.5 12.57 26.5"/>
      <rect id="rect38-5" class="cls-12" x="32.22" y="40.19" width="3.04" height="2.65"/>
      <rect id="rect40-2" class="cls-12" x="32.22" y="27.39" width="3.04" height="2.65"/>
    </g>
    <g id="T2-SOT23">
      <path id="path3479-7" class="cls-12" d="M7.68,48.45v1.62H5.11V48.45Z"/>
      <path id="path3481-0" class="cls-16" d="M7.44,48.45v1.62H6.59V48.45Z"/>
      <path id="path3483-6" class="cls-12" d="M7.68,54v1.6H5.11V54Z"/>
      <path id="path3485-6" class="cls-16" d="M7.44,54v1.6H6.59V54Z"/>
      <path id="path3487-1" class="cls-12" d="M11.14,51.21v1.62H13.7V51.21Z"/>
      <path id="path3489-6" class="cls-16" d="M11.44,51.21v1.62h.79V51.21Z"/>
      <path id="path3477-9" class="cls-15" d="M11.15,47.81v8.42H7.67V47.81Z"/>
    </g>
    <g id="T1-SOT23">
      <path id="path3479-7-2" class="cls-12" d="M39,54.32H37.34V51.74H39Z"/>
      <path id="path3481-0-2" class="cls-16" d="M39,52.83H37.34V52H39Z"/>
      <path id="path3483-6-2" class="cls-12" d="M33.45,54.32H31.84V51.74h1.61Z"/>
      <path id="path3485-6-2" class="cls-16" d="M33.45,52.83H31.84V52h1.61Z"/>
      <path id="path3487-1-2" class="cls-12" d="M36.2,45.73H34.6v2.55h1.61Z"/>
      <path id="path3489-6-2" class="cls-16" d="M36.2,47.19H34.6V48h1.61Z"/>
      <path id="path3477-9-2" class="cls-15" d="M39.6,51.76H31.2V48.28h8.4Z"/>
    </g>
    <g id="screw-annotation">
      <path id="path33794-6-00" class="cls-17" d="M42.38,25.55h9.77"/>
      <path id="path33794-6-0-3" class="cls-10" d="M42.38,46.17h9.75"/>
      <text class="cls-18" transform="translate(45 32.38)">L+</text>
      <text class="cls-18" transform="translate(45 21.97)">L−</text>
      <path id="path33789-81" class="cls-10" d="M42.38,14.89v8.72"/>
      <path id="path33794-7" class="cls-19" d="M42.38,14.89h2.13"/>
      <path id="path33789-8-9" class="cls-17" d="M42.38,47.89V56.6"/>
      <path id="path33794-6-2-7" class="cls-17" d="M42.44,56.6h2"/>
      <text class="cls-18" transform="translate(44.91 42.56)">P+</text>
      <text class="cls-18" transform="translate(44.91 53.03)">P−</text>
      <path id="path33789-8-8-1" class="cls-17" d="M42.38,25.55V46.17"/>
    </g>
    <g id="JP1-2.54-2pins">
      <polygon id="_0.1.5.0.0.2-4-1-4-2-8" data-name=" 0.1.5.0.0.2-4-1-4-2-8" class="cls-20" points="62.56 60.03 61.05 58.5 57.06 58.5 53.69 58.5 49.72 58.5 48.19 60.03 48.19 64.01 49.72 65.53 53.69 65.53 57.06 65.53 61.05 65.53 62.56 64.01 62.56 60.03"/>
      <polygon id="_0.1.5.0.0.5-5-9-1-4-7" data-name=" 0.1.5.0.0.5-5-9-1-4-7" class="cls-20" points="62.56 60.03 61.05 58.5 57.06 58.5 53.69 58.5 49.72 58.5 48.19 60.03 48.19 64.01 49.72 65.53 53.69 65.53 57.06 65.53 61.05 65.53 62.56 64.01 62.56 60.03"/>
      <rect id="_0.1.5.0.0.6-6-6-6-9-7" data-name=" 0.1.5.0.0.6-6-6-6-9-7" class="cls-4" x="50.62" y="60.71" width="2.32" height="2.32"/>
      <rect id="_0.1.5.0.0.7-8-9-1-2-4" data-name=" 0.1.5.0.0.7-8-9-1-2-4" class="cls-4" x="57.9" y="60.71" width="2.32" height="2.32"/>
      <rect id="_0.1.5.0.0.32-0-8-6-2-6" data-name=" 0.1.5.0.0.32-0-8-6-2-6" class="cls-5" x="58.46" y="61.28" width="1.2" height="1.2"/>
      <polygon id="_0.1.5.0.0.33-77-2-3-1-8" data-name=" 0.1.5.0.0.33-77-2-3-1-8" class="cls-6" points="60.23 60.71 57.9 60.71 58.47 61.28 59.66 61.28 60.23 60.71"/>
      <polygon id="_0.1.5.0.0.34-4-5-3-9-4" data-name=" 0.1.5.0.0.34-4-5-3-9-4" class="cls-7" points="60.23 63.03 59.66 62.47 59.66 61.28 60.23 60.71 60.23 63.03"/>
      <polygon id="_0.1.5.0.0.35-3-5-5-0-6" data-name=" 0.1.5.0.0.35-3-5-5-0-6" class="cls-8" points="57.9 63.03 58.47 62.47 59.66 62.47 60.23 63.03 57.9 63.03"/>
      <polygon id="_0.1.5.0.0.36-1-4-5-0-9" data-name=" 0.1.5.0.0.36-1-4-5-0-9" class="cls-9" points="57.9 63.03 57.9 60.71 58.47 61.28 58.47 62.47 57.9 63.03"/>
      <rect id="_0.1.5.0.0.37-36-9-3-9-7" data-name=" 0.1.5.0.0.37-36-9-3-9-7" class="cls-5" x="51.19" y="61.28" width="1.19" height="1.2"/>
      <polygon id="_0.1.5.0.0.38-3-1-2-5-0" data-name=" 0.1.5.0.0.38-3-1-2-5-0" class="cls-6" points="52.94 60.71 50.62 60.71 51.19 61.28 52.38 61.28 52.94 60.71"/>
      <polygon id="_0.1.5.0.0.39-01-2-8-2-5" data-name=" 0.1.5.0.0.39-01-2-8-2-5" class="cls-7" points="52.94 63.03 52.38 62.47 52.38 61.28 52.94 60.71 52.94 63.03"/>
      <polygon id="_0.1.5.0.0.40-9-5-2-5-7" data-name=" 0.1.5.0.0.40-9-5-2-5-7" class="cls-8" points="50.62 63.03 51.19 62.47 52.38 62.47 52.94 63.03 50.62 63.03"/>
      <polygon id="_0.1.5.0.0.41-0-0-5-1-0" data-name=" 0.1.5.0.0.41-0-0-5-1-0" class="cls-9" points="50.62 63.03 50.62 60.71 51.19 61.28 51.19 62.47 50.62 63.03"/>
    </g>
    <text class="cls-21" transform="translate(51.79 69.47)">V=P+</text>
    <g id="amperka-logo">
      <path id="path532-5-4-9-8-5-6-8-0" d="M12,13.38a2,2,0,1,1-2,2,2,2,0,0,1,2-2m0,5.32A3.28,3.28,0,1,0,8.7,15.41h0A3.27,3.27,0,0,0,12,18.7h0"/>
      <path id="path536-1-4-0-5-1-3-3-2" d="M12,7A2.27,2.27,0,1,1,9.66,9.27,2.27,2.27,0,0,1,12,7h0m0,1.23a1,1,0,0,0,0,2,1,1,0,0,0,0-2"/>
      <path id="path540-3-7-2-9-1-0-6-4" d="M12.32,20.86a5.47,5.47,0,0,0,5.06-5.09A5.31,5.31,0,0,0,16.2,12l.4-.4a.61.61,0,0,0,.06-.85.6.6,0,0,0-.84,0h-.07l-.89.89a.58.58,0,0,0,0,.76,4.22,4.22,0,1,1-6,.08L9,12.39v-.07a.54.54,0,0,0,0-.76l-.86-.87a.65.65,0,0,0-.85-.06.63.63,0,0,0,0,.88h0l.42.42A5.41,5.41,0,0,0,6.47,15.4,5.48,5.48,0,0,0,12,20.87h.39"/>
    </g>
    <g id="X1-screw-3.96-4pin">
      <rect id="rect9729-7-5-7-3-8-5-2-9" class="cls-22" x="52.19" y="14.88" width="19.47" height="41.71" rx="2.36" ry="2.36"/>
      <rect id="rect9729-3-2-1-4-1-3-4-0-8" class="cls-23" x="68.28" y="14.92" width="3.4" height="41.68" rx="0.57" ry="0.57"/>
      <rect id="rect9729-3-4-6-2-0-0-5-6-3-3" class="cls-24" x="52.22" y="14.83" width="3.4" height="41.78" rx="0.57" ry="0.57"/>
      <g id="pin4">
        <path id="_0.2.13.5.1.0-8-0-9-31" data-name=" 0.2.13.5.1.0-8-0-9-31" class="cls-24" d="M66.7,51.41A4.75,4.75,0,0,1,62,56.1V46.71a4.72,4.72,0,0,1,4.74,4.7h0Z"/>
        <path id="_0.2.13.5.1.1-5-0-2-66" data-name=" 0.2.13.5.1.1-5-0-2-66" class="cls-23" d="M57.15,51.41a4.75,4.75,0,0,1,4.79-4.71h0v9.39a4.73,4.73,0,0,1-4.81-4.65h0Z"/>
        <path id="_0.2.13.5.1.2.0-8-9-1-1" data-name=" 0.2.13.5.1.2.0-8-9-1-1" class="cls-25" d="M65.77,51.41a3.86,3.86,0,0,0-7.71,0,3.71,3.71,0,0,0,1.11,2.65,3.87,3.87,0,0,0,6.6-2.65Z"/>
        <path id="_0.2.13.5.1.3.0-1-9-3-0" data-name=" 0.2.13.5.1.3.0-1-9-3-0" class="cls-3" d="M62,48a3.13,3.13,0,0,1,.91.13v6.73A3.14,3.14,0,0,1,62,55a2.89,2.89,0,0,1-.88-.14V48.11A4.34,4.34,0,0,1,62,48Z"/>
        <path id="_0.2.13.5.1.4.0-0-6-5-2" data-name=" 0.2.13.5.1.4.0-0-6-5-2" class="cls-26" d="M61.17,55H61V48.13h.15Z"/>
        <path id="_0.2.13.5.1.4.1-0-85-6-0" data-name=" 0.2.13.5.1.4.1-0-85-6-0" class="cls-27" d="M62.65,48.06h.17V55h-.17Z"/>
        <path d="M62,47.47a4,4,0,1,0,4,4A4,4,0,0,0,62,47.47ZM62,55a3.56,3.56,0,1,1,3.56-3.56h0A3.56,3.56,0,0,1,62,55Z"/>
      </g>
      <g id="pin3">
        <path id="_0.2.13.5.1.0-8-0-9-31-2" data-name=" 0.2.13.5.1.0-8-0-9-31-2" class="cls-24" d="M66.7,41A4.73,4.73,0,0,1,62,45.69V36.3A4.75,4.75,0,0,1,66.7,41Z"/>
        <path id="_0.2.13.5.1.1-5-0-2-66-2" data-name=" 0.2.13.5.1.1-5-0-2-66-2" class="cls-23" d="M57.15,41a4.74,4.74,0,0,1,4.79-4.69h0v9.4a4.73,4.73,0,0,1-4.81-4.64h0Z"/>
        <path id="_0.2.13.5.1.2.0-8-9-1-1-2" data-name=" 0.2.13.5.1.2.0-8-9-1-1-2" class="cls-25" d="M65.77,41a3.86,3.86,0,0,0-7.71,0,3.74,3.74,0,0,0,1.11,2.66,3.86,3.86,0,0,0,5.46,0h0A3.8,3.8,0,0,0,65.77,41Z"/>
        <path id="_0.2.13.5.1.3.0-1-9-3-0-2" data-name=" 0.2.13.5.1.3.0-1-9-3-0-2" class="cls-3" d="M62,37.58a4,4,0,0,1,.91.14v6.73a2.79,2.79,0,0,1-.91.13,2.61,2.61,0,0,1-.88-.13V37.71A4.35,4.35,0,0,1,62,37.58Z"/>
        <path id="_0.2.13.5.1.4.0-0-6-5-2-2" data-name=" 0.2.13.5.1.4.0-0-6-5-2-2" class="cls-26" d="M61.17,44.58H61V37.73h.15Z"/>
        <path id="_0.2.13.5.1.4.1-0-85-6-0-2" data-name=" 0.2.13.5.1.4.1-0-85-6-0-2" class="cls-27" d="M62.65,37.66h.17v6.92h-.17Z"/>
        <path d="M62,37.07a4,4,0,1,0,4,4A4,4,0,0,0,62,37.07Zm0,7.55a3.56,3.56,0,1,1,3.56-3.56h0A3.55,3.55,0,0,1,62,44.62Z"/>
      </g>
      <g id="pin2">
        <path id="_0.2.13.5.1.0-8-0-9-31-3" data-name=" 0.2.13.5.1.0-8-0-9-31-3" class="cls-24" d="M66.7,30.61A4.75,4.75,0,0,1,62,35.3V25.91A4.74,4.74,0,0,1,66.7,30.61Z"/>
        <path id="_0.2.13.5.1.1-5-0-2-66-3" data-name=" 0.2.13.5.1.1-5-0-2-66-3" class="cls-23" d="M57.15,30.61a4.74,4.74,0,0,1,4.76-4.7H62v9.4a4.74,4.74,0,0,1-4.81-4.65h0Z"/>
        <path id="_0.2.13.5.1.2.0-8-9-1-1-3" data-name=" 0.2.13.5.1.2.0-8-9-1-1-3" class="cls-25" d="M65.77,30.61a3.86,3.86,0,0,0-7.71,0,3.74,3.74,0,0,0,1.11,2.66,3.87,3.87,0,0,0,5.47,0A3.8,3.8,0,0,0,65.77,30.61Z"/>
        <path id="_0.2.13.5.1.3.0-1-9-3-0-3" data-name=" 0.2.13.5.1.3.0-1-9-3-0-3" class="cls-3" d="M62,27.19a3.14,3.14,0,0,1,.91.14v6.73a3.13,3.13,0,0,1-.91.13,3.29,3.29,0,0,1-.88-.13V27.32A3.74,3.74,0,0,1,62,27.19Z"/>
        <path id="_0.2.13.5.1.4.0-0-6-5-2-3" data-name=" 0.2.13.5.1.4.0-0-6-5-2-3" class="cls-26" d="M61.17,34.19H61V27.34h.15Z"/>
        <path id="_0.2.13.5.1.4.1-0-85-6-0-3" data-name=" 0.2.13.5.1.4.1-0-85-6-0-3" class="cls-27" d="M62.65,27.27h.17v6.92h-.17Z"/>
        <path d="M62,26.68a4,4,0,1,0,4,4A4,4,0,0,0,62,26.68Zm0,7.55a3.56,3.56,0,1,1,3.56-3.56h0A3.56,3.56,0,0,1,62,34.23Z"/>
      </g>
      <g id="pin1">
        <path id="_0.2.13.5.1.0-8-0-9-31-4" data-name=" 0.2.13.5.1.0-8-0-9-31-4" class="cls-24" d="M66.7,20.21A4.74,4.74,0,0,1,62,24.9V15.51A4.75,4.75,0,0,1,66.7,20.21Z"/>
        <path id="_0.2.13.5.1.1-5-0-2-66-4" data-name=" 0.2.13.5.1.1-5-0-2-66-4" class="cls-23" d="M57.15,20.21a4.74,4.74,0,0,1,4.78-4.7h0v9.4a4.74,4.74,0,0,1-4.81-4.65h0Z"/>
        <path id="_0.2.13.5.1.2.0-8-9-1-1-4" data-name=" 0.2.13.5.1.2.0-8-9-1-1-4" class="cls-25" d="M65.77,20.21a3.86,3.86,0,0,0-7.71,0,3.74,3.74,0,0,0,1.11,2.66,3.87,3.87,0,0,0,6.6-2.66Z"/>
        <path id="_0.2.13.5.1.3.0-1-9-3-0-4" data-name=" 0.2.13.5.1.3.0-1-9-3-0-4" class="cls-3" d="M62,16.79a3.14,3.14,0,0,1,.91.14v6.73a2.82,2.82,0,0,1-.91.13,2.89,2.89,0,0,1-.88-.13V16.92A4.35,4.35,0,0,1,62,16.79Z"/>
        <path id="_0.2.13.5.1.4.0-0-6-5-2-4" data-name=" 0.2.13.5.1.4.0-0-6-5-2-4" class="cls-26" d="M61.17,23.79H61V17h.15Z"/>
        <path id="_0.2.13.5.1.4.1-0-85-6-0-4" data-name=" 0.2.13.5.1.4.1-0-85-6-0-4" class="cls-27" d="M62.65,16.87h.17v6.92h-.17Z"/>
        <path d="M62,16.28a4,4,0,1,0,4,4A4,4,0,0,0,62,16.28Zm0,7.55a3.56,3.56,0,1,1,3.56-3.56h0A3.56,3.56,0,0,1,62,23.83Z"/>
      </g>
    </g>
    <g id="L1-0603">
      <path id="path6859-4-3-0-1-9-0-7-4" class="cls-28" d="M16.57,62.24v-2.7h6.48v2.7H16.57"/>
      <path id="path6871-9-6-0-4-5-4-2-1" class="cls-29" d="M17.05,59.76a.23.23,0,0,1,.21-.21h5.1a.21.21,0,0,1,.21.21V62a.2.2,0,0,1-.2.2H17.28a.2.2,0,0,1-.2-.2h0Z"/>
      <path id="path6873-8-4-1-5-5-5-7-8" class="cls-30" d="M18.05,62.24h3.53V59.55H18.05Z"/>
      <path id="path6877-7-1-7-5-9-6-3-9" class="cls-30" d="M21.52,59.58H18.05v2.63h3.47Zm.06,0v2.66H18.05V59.55h3.53"/>
      <path id="path6879-87-7-8-1-1-8-9-2" class="cls-31" d="M21.43,59.64h-3.3v2.5h3.3Zm.21-.11v2.8H18.05a.12.12,0,0,1-.1-.11V59.55a.15.15,0,0,1,.1-.09h3.53a.06.06,0,0,1,.08,0h0"/>
      <path id="path6881-0-8-1-8-3-8-3-7" class="cls-32" d="M18.05,62.24h-.56V59.53h.56Z"/>
      <path id="path6875-42-1-4-9-5-0-2-6" class="cls-31" d="M21.46,59.64H18.05v2.5h3.37Zm.16,0v2.6a.08.08,0,0,1-.08.08H18.05v-.07h0V59.57a.08.08,0,0,1,.07-.08h3.53a.07.07,0,0,1,.07.07h0"/>
      <path id="path6883-46-4-9-5-9-8-4-5" class="cls-32" d="M22.17,62.24h-.56V59.53h.56Z"/>
      <path id="path6897-5-1-0-5-0-7-8-1" class="cls-33" d="M18.05,59.64h3.49v2.57H18.05Z"/>
      <path id="path6963-86-8-2-6-0-1-7-9" class="cls-34" d="M21.05,61.12h-.39v-.4h.39Z"/>
    </g>
    <g id="R5-0603">
      <rect id="rect21332-8-1-9-3-8-2-40-6-2-0-6-6-0-5-6-4-8-7-2-0-7-2-3" class="cls-35" x="16.42" y="54.97" width="2.72" height="2.59"/>
      <rect id="rect21332-8-1-9-3-8-2-40-6-2-0-6-6-0-5-6-4-8-7-2-0-7-2-3-2" data-name="rect21332-8-1-9-3-8-2-40-6-2-0-6-6-0-5-6-4-8-7-2-0-7-2-3" class="cls-35" x="16.42" y="51.08" width="2.72" height="2.59"/>
      <rect class="cls-36" x="16.41" y="51.88" width="2.73" height="4.72" rx="0.34" ry="0.34" transform="translate(35.55 108.49) rotate(180)"/>
      <path id="path26345-3-6-9-3-6-4-2-5-6-8-7-9-0-90-3-1-3-9-2-2-8-5-0-2-3" class="cls-37" d="M19.14,52.28v3.94H16.41V52.28Z"/>
      <path id="path26341-4-2-6-0-8-1-1-1-5-0-3-3-1-8-3-8-7-7-7-2-4-9-7-2-3" class="cls-15" d="M19.14,55.77v-3H16.41v3Z"/>
    </g>
    <g id="R4-0603">
      <rect id="rect21332-8-1-9-3-8-2-40-6-2-0-6-6-0-5-6-4-8-7-2-0-7-2-3-3" data-name="rect21332-8-1-9-3-8-2-40-6-2-0-6-6-0-5-6-4-8-7-2-0-7-2-3" class="cls-35" x="20.17" y="54.97" width="2.72" height="2.59"/>
      <rect id="rect21332-8-1-9-3-8-2-40-6-2-0-6-6-0-5-6-4-8-7-2-0-7-2-3-4" data-name="rect21332-8-1-9-3-8-2-40-6-2-0-6-6-0-5-6-4-8-7-2-0-7-2-3" class="cls-35" x="20.17" y="51.08" width="2.72" height="2.59"/>
      <rect class="cls-36" x="20.16" y="51.88" width="2.73" height="4.72" rx="0.34" ry="0.34" transform="translate(43.05 108.49) rotate(180)"/>
      <path id="path26345-3-6-9-3-6-4-2-5-6-8-7-9-0-90-3-1-3-9-2-2-8-5-0-2-3-2" data-name="path26345-3-6-9-3-6-4-2-5-6-8-7-9-0-90-3-1-3-9-2-2-8-5-0-2-3" class="cls-37" d="M22.89,52.28v3.94H20.16V52.28Z"/>
      <path id="path26341-4-2-6-0-8-1-1-1-5-0-3-3-1-8-3-8-7-7-7-2-4-9-7-2-3-2" data-name="path26341-4-2-6-0-8-1-1-1-5-0-3-3-1-8-3-8-7-7-7-2-4-9-7-2-3" class="cls-15" d="M22.89,55.77v-3H20.16v3Z"/>
    </g>
    <g id="R3-0603">
      <rect id="rect21332-8-1-9-3-8-2-40-6-2-0-6-6-0-5-6-4-8-7-2-0-7-2-3-5" data-name="rect21332-8-1-9-3-8-2-40-6-2-0-6-6-0-5-6-4-8-7-2-0-7-2-3" class="cls-35" x="23.8" y="51.13" width="2.59" height="2.72"/>
      <rect id="rect21332-8-1-9-3-8-2-40-6-2-0-6-6-0-5-6-4-8-7-2-0-7-2-3-6" data-name="rect21332-8-1-9-3-8-2-40-6-2-0-6-6-0-5-6-4-8-7-2-0-7-2-3" class="cls-35" x="27.69" y="51.13" width="2.59" height="2.72"/>
      <rect class="cls-36" x="25.74" y="50.12" width="2.73" height="4.72" rx="0.34" ry="0.34" transform="translate(-25.38 79.59) rotate(-90)"/>
      <path id="path26345-3-6-9-3-6-4-2-5-6-8-7-9-0-90-3-1-3-9-2-2-8-5-0-2-3-3" data-name="path26345-3-6-9-3-6-4-2-5-6-8-7-9-0-90-3-1-3-9-2-2-8-5-0-2-3" class="cls-37" d="M29.07,53.85H25.14V51.12h3.93Z"/>
      <path id="path26341-4-2-6-0-8-1-1-1-5-0-3-3-1-8-3-8-7-7-7-2-4-9-7-2-3-3" data-name="path26341-4-2-6-0-8-1-1-1-5-0-3-3-1-8-3-8-7-7-7-2-4-9-7-2-3" class="cls-15" d="M25.58,53.85h3.05V51.12H25.58Z"/>
    </g>
    <g id="R2-0603">
      <rect id="rect21332-8-1-9-3-8-2-40-6-2-0-6-6-0-5-6-4-8-7-2-0-7-2-3-7" data-name="rect21332-8-1-9-3-8-2-40-6-2-0-6-6-0-5-6-4-8-7-2-0-7-2-3" class="cls-35" x="37.88" y="37.33" width="2.72" height="2.59"/>
      <rect id="rect21332-8-1-9-3-8-2-40-6-2-0-6-6-0-5-6-4-8-7-2-0-7-2-3-8" data-name="rect21332-8-1-9-3-8-2-40-6-2-0-6-6-0-5-6-4-8-7-2-0-7-2-3" class="cls-35" x="37.88" y="41.22" width="2.72" height="2.59"/>
      <rect class="cls-36" x="37.88" y="38.28" width="2.73" height="4.72" rx="0.34" ry="0.34"/>
      <path id="path26345-3-6-9-3-6-4-2-5-6-8-7-9-0-90-3-1-3-9-2-2-8-5-0-2-3-4" data-name="path26345-3-6-9-3-6-4-2-5-6-8-7-9-0-90-3-1-3-9-2-2-8-5-0-2-3" class="cls-37" d="M37.88,42.6V38.67h2.73V42.6Z"/>
      <path id="path26341-4-2-6-0-8-1-1-1-5-0-3-3-1-8-3-8-7-7-7-2-4-9-7-2-3-4" data-name="path26341-4-2-6-0-8-1-1-1-5-0-3-3-1-8-3-8-7-7-7-2-4-9-7-2-3" class="cls-15" d="M37.88,39.11v3h2.73v-3Z"/>
    </g>
    <g id="R1-0603">
      <rect id="rect21332-8-1-9-3-8-2-40-6-2-0-6-6-0-5-6-4-8-7-2-0-7-2-3-9" data-name="rect21332-8-1-9-3-8-2-40-6-2-0-6-6-0-5-6-4-8-7-2-0-7-2-3" class="cls-35" x="32.02" y="32.16" width="2.72" height="2.59"/>
      <rect id="rect21332-8-1-9-3-8-2-40-6-2-0-6-6-0-5-6-4-8-7-2-0-7-2-3-10" data-name="rect21332-8-1-9-3-8-2-40-6-2-0-6-6-0-5-6-4-8-7-2-0-7-2-3" class="cls-35" x="32.02" y="36.05" width="2.72" height="2.59"/>
      <rect class="cls-36" x="32.01" y="33.11" width="2.73" height="4.72" rx="0.34" ry="0.34"/>
      <path id="path26345-3-6-9-3-6-4-2-5-6-8-7-9-0-90-3-1-3-9-2-2-8-5-0-2-3-5" data-name="path26345-3-6-9-3-6-4-2-5-6-8-7-9-0-90-3-1-3-9-2-2-8-5-0-2-3" class="cls-37" d="M32,37.44V33.51h2.73v3.93Z"/>
      <path id="path26341-4-2-6-0-8-1-1-1-5-0-3-3-1-8-3-8-7-7-7-2-4-9-7-2-3-5" data-name="path26341-4-2-6-0-8-1-1-1-5-0-3-3-1-8-3-8-7-7-7-2-4-9-7-2-3" class="cls-15" d="M32,34v3h2.73V34Z"/>
    </g>
    <g id="D1-SOD323">
      <rect id="rect21332-8-1-9-3-5-5-5-7-7-6" class="cls-35" x="37.31" y="30.97" width="3.8" height="4.08"/>
      <rect id="rect21332-1-0-1-9-2-0-7-3-5-9-5" class="cls-35" x="37.31" y="24.95" width="3.8" height="4.08"/>
      <path id="path32574-5-6-2-6-7" class="cls-38" d="M40.51,26h-2.7v1.9h2.7Z"/>
      <path id="path32578-9-7-2-9-4" class="cls-38" d="M40.47,32.16H38v1.9h2.54Z"/>
      <path id="path32580-3-1-0-1-3" class="cls-39" d="M40.47,33H38v.6h2.54Z"/>
      <path id="path32590-0-9-7-9-9" class="cls-15" d="M41.09,27.08H37.33V33h3.76Z"/>
      <path id="path32576-2-7-7-0-2" class="cls-39" d="M40.51,26.46h-2.7v.61h2.7Z"/>
    </g>
  </g>
</svg>
