<?xml version="1.0" encoding="UTF-8" standalone="no"?>
<!-- Created with Inkscape (http://www.inkscape.org/) -->

<svg
   xmlns:dc="http://purl.org/dc/elements/1.1/"
   xmlns:cc="http://creativecommons.org/ns#"
   xmlns:rdf="http://www.w3.org/1999/02/22-rdf-syntax-ns#"
   xmlns:svg="http://www.w3.org/2000/svg"
   xmlns="http://www.w3.org/2000/svg"
   xmlns:sodipodi="http://sodipodi.sourceforge.net/DTD/sodipodi-0.dtd"
   xmlns:inkscape="http://www.inkscape.org/namespaces/inkscape"
   width="50.703217mm"
   height="4.4173946mm"
   viewBox="0 0 50.703217 4.4173946"
   version="1.1"
   id="svg5336"
   inkscape:version="0.92.1 r15371"
   sodipodi:docname="troyka-nano-switch_bottom.svg">
  <defs
     id="defs5330" />
  <sodipodi:namedview
     id="base"
     pagecolor="#ffffff"
     bordercolor="#666666"
     borderopacity="1.0"
     inkscape:pageopacity="0.0"
     inkscape:pageshadow="2"
     inkscape:zoom="1.979899"
     inkscape:cx="127.15298"
     inkscape:cy="-124.62184"
     inkscape:document-units="mm"
     inkscape:current-layer="layer1"
     showgrid="false"
     fit-margin-top="0"
     fit-margin-left="0"
     fit-margin-right="0"
     fit-margin-bottom="0"
     inkscape:window-width="1920"
     inkscape:window-height="1017"
     inkscape:window-x="-8"
     inkscape:window-y="-8"
     inkscape:window-maximized="1" />
  <metadata
     id="metadata5333">
    <rdf:RDF>
      <cc:Work
         rdf:about="">
        <dc:format>image/svg+xml</dc:format>
        <dc:type
           rdf:resource="http://purl.org/dc/dcmitype/StillImage" />
        <dc:title></dc:title>
      </cc:Work>
    </rdf:RDF>
  </metadata>
  <g
     inkscape:label="Layer 1"
     inkscape:groupmode="layer"
     id="layer1"
     transform="translate(529.57185,124.00632)">
    <rect
       style="opacity:1;fill:#fffbff;fill-opacity:1;stroke:#cbc9cc;stroke-width:0.29104167;stroke-linecap:round;stroke-miterlimit:4;stroke-dasharray:none;stroke-opacity:1"
       id="rect7660"
       width="1.3697563"
       height="0.20045215"
       x="-480.39227"
       y="-122.14413"
       rx="0.46801618"
       ry="0.20045215" />
    <rect
       style="opacity:1;fill:#ff4c0e;fill-opacity:1;stroke:#000000;stroke-width:0.05291667;stroke-linecap:round;stroke-miterlimit:4;stroke-dasharray:none;stroke-opacity:1"
       id="rect7658"
       width="17.505022"
       height="0.56696427"
       x="-497.129"
       y="-122.33066"
       rx="0.25540596"
       ry="0.20045204" />
    <rect
       style="opacity:1;fill:#ffffff;fill-opacity:1;stroke:#cbc9cc;stroke-width:0.29104167;stroke-linecap:round;stroke-miterlimit:4;stroke-dasharray:none;stroke-opacity:1"
       id="rect7662"
       width="1.3697563"
       height="0.20045215"
       x="-512.15753"
       y="-122.20558"
       rx="0.46801618"
       ry="0.20045215" />
    <rect
       ry="0.20045215"
       rx="0.46801618"
       y="-122.20558"
       x="-529.42633"
       height="0.20045215"
       width="1.3697563"
       id="rect7664"
       style="opacity:1;fill:#ffffff;fill-opacity:1;stroke:#cbc9cc;stroke-width:0.29104167;stroke-linecap:round;stroke-miterlimit:4;stroke-dasharray:none;stroke-opacity:1" />
    <rect
       ry="0.20045204"
       rx="0.25540596"
       y="-122.38176"
       x="-528.78448"
       height="0.56696427"
       width="17.505022"
       id="rect7666"
       style="opacity:1;fill:#ffffff;fill-opacity:1;stroke:#000000;stroke-width:0.05291667;stroke-linecap:round;stroke-miterlimit:4;stroke-dasharray:none;stroke-opacity:1" />
    <rect
       style="opacity:1;fill:#ececec;fill-opacity:1;stroke:#000000;stroke-width:0.07377066;stroke-linecap:round;stroke-miterlimit:4;stroke-dasharray:none;stroke-opacity:1"
       id="rect6039"
       width="16.820383"
       height="4.3436241"
       x="495.86304"
       y="119.62581"
       rx="0.46801618"
       ry="0.46801618"
       transform="scale(-1)" />
    <g
       id="g7600"
       transform="translate(-745.15224,-350.54236)">
      <rect
         ry="0.3399727"
         rx="0.3399727"
         y="228.63837"
         x="237.50685"
         height="2.0741313"
         width="9.3582878"
         id="rect3859-8"
         style="fill:#000000;fill-opacity:1;stroke:none;stroke-width:0.2611326" />
      <path
         inkscape:connector-curvature="0"
         d="m 235.12028,229.71305 h 1.76233 c 0.0333,-0.12299 0.0621,-0.23793 0.0739,-0.31213 0.0223,-0.14085 0.017,-0.48189 0,-0.57088 -0.0294,-0.15406 -0.13765,-0.35547 -0.21067,-0.52641 l -0.52947,0.36614 0.14688,0.0895 v 0.2546 l -0.33384,-0.21483 -0.31067,0.21483 v -0.2546 l 0.12302,-0.081 -0.58409,-0.37587 c -0.073,0.1712 -0.18178,0.37317 -0.21124,0.5276 -0.0169,0.089 -0.0224,0.43003 0,0.57088 0.0118,0.0742 0.0405,0.18914 0.0739,0.31213 z m 0.10954,0.38898 c 0.015,0.0531 0.0275,0.0987 0.0359,0.13208 h 1.47151 c 0.008,-0.0334 0.0209,-0.079 0.0359,-0.13208 z m 0.27549,-2.54452 0.39891,-0.21461 -0.21093,-0.23701 -0.18798,0.15038 z m 0.30126,-0.49935 0.47382,0.49935 h 0.23665 l -0.003,-0.27863 -0.29699,-0.22072 h -0.41058 z m -0.48572,0.32293 c 0.056,-0.51115 0.68055,-0.54889 0.68055,-0.54889 0,0 0.62464,0.0377 0.68069,0.54889 0.02,0.18274 -0.0351,0.55499 0,0.7355 4.2e-4,0.002 0.001,0.005 0.001,0.007 l -0.6551,0.43136 -0.70909,-0.43226 c 4.2e-4,-0.002 10e-4,-0.004 10e-4,-0.006 0.0351,-0.18052 -0.02,-0.55276 0,-0.7355 z m 1.3842,3.11987 c 0,-0.0444 0.007,-0.0961 0.0127,-0.1384 h -1.43307 c 0.004,0.0438 0.009,0.0959 0.008,0.12142 -4.3e-4,0.0122 -0.002,0.0138 -0.009,0.0352 -0.008,0.0252 -0.0417,0.0847 0.0339,0.0977 0.51933,0.089 0.75215,0.0904 1.35378,0.017 0.0488,-0.006 0.0545,-0.0599 0.0427,-0.0912 -0.005,-0.0125 -0.008,-0.0266 -0.008,-0.0416 z m -1.54923,-0.65946 h 1.69126 c -0.0126,0.045 -0.0253,0.0895 -0.0375,0.13208 h -1.61634 c -0.0121,-0.0426 -0.0248,-0.0871 -0.0375,-0.13208"
         style="fill:#000000;fill-opacity:1;fill-rule:nonzero;stroke:none;stroke-width:0.2124256"
         id="path22-3" />
      <text
         xml:space="preserve"
         style="font-style:normal;font-weight:normal;font-size:3.54296446px;line-height:0%;font-family:sans-serif;text-align:start;letter-spacing:0px;word-spacing:0px;text-anchor:start;display:inline;fill:#ffffff;fill-opacity:1;stroke:none;stroke-width:0.29524702"
         x="237.81892"
         y="230.25627"
         id="text14779-6-2"><tspan
           id="tspan15197-5"
           sodipodi:role="line"
           x="237.81892"
           y="230.25627"
           style="font-style:normal;font-variant:normal;font-weight:normal;font-stretch:normal;font-size:1.7070744px;line-height:100%;font-family:'Trebuchet MS';-inkscape-font-specification:'Trebuchet MS';text-align:start;text-anchor:start;fill:#ffffff;stroke-width:0.29524702">NanoSwitch</tspan></text>
      <text
         id="text15201-1"
         y="228.17372"
         x="237.69965"
         style="font-style:normal;font-weight:normal;font-size:2.54910731px;line-height:0%;font-family:sans-serif;text-align:start;letter-spacing:0px;word-spacing:0px;text-anchor:start;display:inline;fill:#000000;fill-opacity:1;stroke:none;stroke-width:0.2124256"
         xml:space="preserve"><tspan
           style="font-style:normal;font-variant:normal;font-weight:bold;font-stretch:normal;font-size:1.63466692px;line-height:100%;font-family:'Trebuchet MS';-inkscape-font-specification:'Trebuchet MS Bold';text-align:start;text-anchor:start;stroke-width:0.2124256"
           y="228.17372"
           x="237.69965"
           sodipodi:role="line"
           id="tspan15203-9">Amperka.ru</tspan></text>
    </g>
    <rect
       style="opacity:1;fill:#f9f9f9;fill-opacity:1;stroke:#000000;stroke-width:0.0741547;stroke-linecap:round;stroke-miterlimit:4;stroke-dasharray:none;stroke-opacity:1"
       id="rect7602"
       width="1.8958883"
       height="3.5683846"
       x="-512.37775"
       y="-123.56"
       rx="0.46801618"
       ry="0.46801618" />
    <rect
       ry="0.46801618"
       rx="0.46801618"
       y="-123.56"
       x="-498.03827"
       height="3.5683846"
       width="1.8958883"
       id="rect7604"
       style="opacity:1;fill:#f9f9f9;fill-opacity:1;stroke:#000000;stroke-width:0.0741547;stroke-linecap:round;stroke-miterlimit:4;stroke-dasharray:none;stroke-opacity:1" />
    <rect
       style="opacity:1;fill:#ffffff;fill-opacity:1;stroke:#cbc9cc;stroke-width:0.29104167;stroke-linecap:round;stroke-miterlimit:4;stroke-dasharray:none;stroke-opacity:1"
       id="rect7642"
       width="1.3697563"
       height="0.20045215"
       x="-497.6763"
       y="-121.44255"
       rx="0.46801618"
       ry="0.20045215" />
    <rect
       ry="0.20045215"
       rx="0.46801618"
       y="-121.48729"
       x="-512.15753"
       height="0.20045215"
       width="1.3697563"
       id="rect7644"
       style="opacity:1;fill:#ffffff;fill-opacity:1;stroke:#cbc9cc;stroke-width:0.29104167;stroke-linecap:round;stroke-miterlimit:4;stroke-dasharray:none;stroke-opacity:1" />
    <rect
       style="opacity:1;fill:#ffffff;fill-opacity:1;stroke:#cbc9cc;stroke-width:0.29104167;stroke-linecap:round;stroke-miterlimit:4;stroke-dasharray:none;stroke-opacity:1"
       id="rect7652"
       width="1.3697563"
       height="0.20045215"
       x="-529.42633"
       y="-121.48729"
       rx="0.46801618"
       ry="0.20045215" />
    <rect
       style="opacity:1;fill:#ffffff;fill-opacity:1;stroke:#000000;stroke-width:0.05291667;stroke-linecap:round;stroke-miterlimit:4;stroke-dasharray:none;stroke-opacity:1"
       id="rect7650"
       width="17.505022"
       height="0.56696427"
       x="-528.78448"
       y="-121.66347"
       rx="0.25540596"
       ry="0.20045204" />
    <rect
       ry="0.20045215"
       rx="0.46801618"
       y="-121.44255"
       x="-480.38391"
       height="0.20045215"
       width="1.3697563"
       id="rect7656"
       style="opacity:1;fill:#ffffff;fill-opacity:1;stroke:#cbc9cc;stroke-width:0.29104167;stroke-linecap:round;stroke-miterlimit:4;stroke-dasharray:none;stroke-opacity:1" />
    <rect
       ry="0.20045204"
       rx="0.25540596"
       y="-121.61873"
       x="-497.129"
       height="0.56696427"
       width="17.505022"
       id="rect7654"
       style="opacity:1;fill:#006ba9;fill-opacity:1;stroke:#000000;stroke-width:0.05291667;stroke-linecap:round;stroke-miterlimit:4;stroke-dasharray:none;stroke-opacity:1" />
  </g>
</svg>
