<svg id="troyka-midi-out" xmlns="http://www.w3.org/2000/svg" xmlns:xlink="http://www.w3.org/1999/xlink" viewBox="0 0 171.85 71.99"><defs><style>.cls-1{fill:#f2f2f2;stroke-miterlimit:1;stroke-width:0.43px;}.cls-1,.cls-2,.cls-28,.cls-3{stroke:#000;}.cls-2,.cls-27,.cls-28,.cls-3{fill:none;}.cls-2,.cls-3{stroke-width:0.28px;}.cls-27,.cls-3{stroke-miterlimit:10;}.cls-4{fill:#b7b8b9;}.cls-5{fill:#d7d3d5;}.cls-6{fill:#ddd;}.cls-7{fill:#404040;}.cls-8{fill:#8d8c8c;}.cls-9{fill:#8c8663;}.cls-10{fill:#b8af82;}.cls-11{fill:#80795b;}.cls-12{fill:#5e5b43;}.cls-13{fill:#9a916c;}.cls-14{fill:#b3b3b3;}.cls-15{fill:gray;}.cls-16{fill:#242424;}.cls-17{fill:#d2d1d3;}.cls-18{fill:#966432;}.cls-19{fill:#bbffd0;}.cls-20{opacity:0.96;fill:url(#Безымянный_градиент_19);}.cls-21{fill:#545152;}.cls-22,.cls-25,.cls-26{isolation:isolate;}.cls-22{font-size:5px;font-family:TrebuchetMS, Trebuchet MS;}.cls-23{fill:#8c8c8c;}.cls-24{fill:#e6e6e6;}.cls-25{fill:#999;opacity:0.5;}.cls-26{fill:#fff;opacity:0.6;}.cls-27{stroke:#e7e3dd;stroke-linecap:round;stroke-width:0.567px;}.cls-28{stroke-linecap:square;stroke-miterlimit:11.339;stroke-width:0.5px;}</style><radialGradient id="Безымянный_градиент_19" cx="163.468" cy="-364.909" r="3.275" gradientTransform="translate(299.58 -328.979) rotate(180)" gradientUnits="userSpaceOnUse"><stop offset="0" stop-color="#f3f6f7"/><stop offset="0.371" stop-color="#f7f9f9"/><stop offset="0.62" stop-color="#fefffc"/><stop offset="0.63" stop-color="#fdfefb"/><stop offset="0.849" stop-color="#e3e4e3"/><stop offset="0.98" stop-color="#dadada"/></radialGradient></defs><g id="bottom"><path class="cls-1" d="M167.145.215H104.6a4.428,4.428,0,0,1-4.37,4.5v62.54a4.5,4.5,0,0,1,4.38,4.48l62.56.04a4.522,4.522,0,0,1,4.47-4.51V4.685A4.492,4.492,0,0,1,167.145.215Zm-31.22,40.32a4.535,4.535,0,1,1,4.54-4.54A4.535,4.535,0,0,1,135.925,40.535Z" transform="translate(0 0)"/><path id="rect6749-2" class="cls-2" d="M146.432,20.246h-6.8c-.077,0-.139-.09-.139-.2h0V.449c0-.112.062-.2.14-.2h6.8c.076,0,.137.091.139.2h0v19.6C146.572,20.156,146.509,20.246,146.432,20.246Z" transform="translate(0 0)"/><path id="rect6749-9-2" class="cls-2" d="M139.343,20.246H132.41c-.078,0-.141-.091-.141-.2h0V.451c0-.111.059-.2.136-.2h6.932c.078,0,.141.091.142.2h0V20.044C139.479,20.153,139.418,20.243,139.343,20.246Z" transform="translate(0 0)"/><path id="rect6749-9-3-2-2" class="cls-3" d="M132.123,20.246h-6.761c-.077,0-.138-.089-.138-.2h0V.451c0-.112.062-.2.14-.2h6.761c.076,0,.138.089.138.2h0v19.6c0,.11-.06.2-.136.2h0Z" transform="translate(0 0)"/><path id="rect6749-8-2" class="cls-2" d="M132.133,71.79h-6.771c-.077,0-.138-.089-.138-.2h0V52c0-.111.059-.2.136-.2h6.774c.076,0,.137.088.139.2h0v19.6c0,.112-.063.2-.14.2Z" transform="translate(0 0)"/><path id="rect6749-9-8-2" class="cls-2" d="M139.343,71.79H132.4c-.079,0-.142-.092-.142-.205V51.993c0-.111.061-.2.138-.2h6.94c.078,0,.14.093.142.206V71.588C139.482,71.7,139.419,71.79,139.343,71.79Z" transform="translate(0 0)"/><path id="rect6749-9-3-2-3" class="cls-2" d="M146.432,71.79h-6.81c-.077,0-.139-.09-.139-.2h0v-19.6c0-.111.061-.2.138-.2h6.812c.076,0,.139.09.139.2h0v19.6C146.572,71.7,146.509,71.79,146.432,71.79Z" transform="translate(0 0)"/><path class="cls-4" d="M134.651,18.116V14.259a.267.267,0,0,1,.227-.3h.015a.366.366,0,0,1,.081,0h1.83a.333.333,0,0,1,.323.3v3.852a.266.266,0,0,1-.227.3h-.015a.275.275,0,0,1-.081,0h-1.83a.282.282,0,0,1-.323-.222h0A.224.224,0,0,1,134.651,18.116Z" transform="translate(0 0)"/><g id="path26345-3-6-9-3-6-4-2-5-6-8-7-9-0-90-3-1-3-9-2-2-8-5-0-2-3-5-16-5-2-2-2"><rect class="cls-5" x="134.893" y="13.966" width="1.984" height="4.204"/></g><path class="cls-6" d="M135.3,17.225V14.2c-.01-.113.041-.217.116-.233h0a.081.081,0,0,1,.038,0h.871c.083.007.149.107.154.233v3.022c.011.112-.041.216-.115.232h0a.086.086,0,0,1-.039,0h-.871c-.074.016-.143-.062-.154-.174h0A.225.225,0,0,1,135.3,17.225Z" transform="translate(0 0)"/><path class="cls-4" d="M127.651,3.19h0a.282.282,0,0,1,.323-.222h1.83a.275.275,0,0,1,.081,0h0a.27.27,0,0,1,.243.288h0v3.86a.331.331,0,0,1-.323.3h-1.83a.366.366,0,0,1-.081,0h0a.266.266,0,0,1-.244-.287h0V3.268A.255.255,0,0,1,127.651,3.19Z" transform="translate(0 0)"/><g id="path26345-3-6-9-3-6-4-2-5-6-8-7-9-0-90-3-1-3-9-2-2-8-5-0-2-3-5-16-5-3"><rect class="cls-5" x="127.893" y="3.212" width="1.984" height="4.204"/></g><path class="cls-6" d="M128.3,4.1h0c.011-.113.08-.19.154-.175h.871a.086.086,0,0,1,.039,0h0c.074.016.126.12.115.233V7.178c0,.125-.071.225-.154.232h-.871a.081.081,0,0,1-.038,0h0c-.075-.016-.126-.12-.116-.232V4.159A.249.249,0,0,1,128.3,4.1Z" transform="translate(0 0)"/><path class="cls-4" d="M142.122,3.19h0a.282.282,0,0,1,.323-.222h1.833a.268.268,0,0,1,.08,0h0a.267.267,0,0,1,.243.286h0v3.86a.331.331,0,0,1-.323.3h-1.83a.275.275,0,0,1-.081,0h0a.265.265,0,0,1-.244-.285v0h0V3.267A.2.2,0,0,1,142.122,3.19Z" transform="translate(0 0)"/><g id="path26345-3-6-9-3-6-4-2-5-6-8-7-9-0-90-3-1-3-9-2-2-8-5-0-2-3-5-16-5-4"><rect class="cls-5" x="142.363" y="3.212" width="1.984" height="4.204"/></g><path class="cls-6" d="M142.77,4.1h0c.011-.113.08-.19.154-.175h.871a.086.086,0,0,1,.039,0h0c.074.016.126.12.115.233V7.178c-.005.125-.071.225-.154.232h-.871a.086.086,0,0,1-.039,0h0c-.074-.016-.126-.12-.115-.232V4.159A.208.208,0,0,1,142.77,4.1Z" transform="translate(0 0)"/><path id="path106654-2-2" class="cls-7" d="M141.29,14.019h3.838l1.476-1.553V8.486l-1.476-1.553h-4.134l-1.477,1.553v3.98l1.477,1.553Z" transform="translate(0 0)"/><rect id="rect106656-2-2" class="cls-8" x="141.87" y="9.341" width="2.264" height="2.233"/><rect id="rect106658-2-2" class="cls-9" x="142.451" y="9.924" width="1.092" height="1.165"/><polygon id="polygon106660-2-2" class="cls-10" points="142.451 11.079 141.851 11.564 144.115 11.564 143.524 11.079 142.451 11.079"/><polygon id="polygon106662-2-2" class="cls-11" points="141.851 11.564 141.851 9.332 142.451 9.924 142.451 11.079 141.851 11.564"/><polygon id="polygon106664-2-2" class="cls-12" points="141.851 9.332 144.115 9.332 143.524 9.924 142.451 9.924 141.851 9.332"/><polygon id="polygon106666-2-2" class="cls-13" points="143.524 9.924 144.115 9.332 144.115 11.564 143.524 11.079 143.524 9.924"/><path id="path106672-2-2" class="cls-7" d="M134.194,14.019h3.833l1.474-1.553V8.486l-1.474-1.553h-4.143L132.41,8.486v3.98l1.474,1.553Z" transform="translate(0 0)"/><rect id="rect106674-2-2" class="cls-8" x="134.754" y="9.341" width="2.26" height="2.233"/><rect id="rect106676-2-2" class="cls-9" x="135.383" y="9.924" width="1.09" height="1.165"/><polygon id="polygon106678-2-2" class="cls-10" points="135.383 11.079 134.745 11.564 137.035 11.564 136.455 11.079 135.383 11.079"/><polygon id="polygon106680-2-2" class="cls-11" points="134.745 11.564 134.745 9.332 135.383 9.924 135.383 11.079 134.745 11.564"/><polygon id="polygon106682-2-2" class="cls-12" points="134.745 9.332 137.035 9.332 136.455 9.924 135.383 9.924 134.745 9.332"/><polygon id="polygon106684-2-2" class="cls-13" points="136.455 9.924 137.035 9.332 137.035 11.564 136.455 11.079 136.455 9.924"/><path id="path106726-2-2" class="cls-7" d="M127.184,14.019h3.74l1.477-1.553V8.486l-1.477-1.553h-4.14l-1.476,1.553v3.98l1.476,1.553Z" transform="translate(0 0)"/><rect id="rect106728-2-2" class="cls-8" x="127.752" y="9.341" width="2.264" height="2.233"/><rect id="rect106730-2-2" class="cls-9" x="128.325" y="9.924" width="1.099" height="1.165"/><polygon id="polygon106732-2-2" class="cls-10" points="127.752 11.574 130.055 11.574 129.406 11.079 128.343 11.079 127.752 11.574"/><polygon id="polygon106734-2-2" class="cls-11" points="127.752 9.332 128.343 9.924 128.343 11.079 127.752 11.574 127.752 9.332"/><polygon id="polygon106736-2-2" class="cls-12" points="130.055 9.332 129.406 9.924 128.343 9.924 127.752 9.332 130.055 9.332"/><polygon id="polygon106738-2-2" class="cls-13" points="130.055 9.332 130.055 11.574 129.406 11.079 129.406 9.924 130.055 9.332"/><path class="cls-4" d="M127.617,70.006v-3.85a.265.265,0,0,1,.227-.3h.015a.366.366,0,0,1,.081,0h1.83a.333.333,0,0,1,.323.3v3.85a.266.266,0,0,1-.228.3h-.014a.275.275,0,0,1-.081,0h-1.83a.282.282,0,0,1-.323-.222h0A.171.171,0,0,1,127.617,70.006Z" transform="translate(0 0)"/><g id="path26345-3-6-9-3-6-4-2-5-6-8-7-9-0-90-3-1-3-9-2-2-8-5-0-2-3-5-16-5-5"><rect class="cls-5" x="127.858" y="65.855" width="1.984" height="4.204"/></g><path class="cls-6" d="M128.265,69.115V66.093c-.01-.113.041-.217.116-.233h0a.081.081,0,0,1,.038,0h.871c.083.007.149.107.154.233v3.022c.01.112-.041.216-.116.232h0a.081.081,0,0,1-.038,0h-.871c-.075.016-.144-.062-.154-.174h0A.281.281,0,0,1,128.265,69.115Z" transform="translate(0 0)"/><path class="cls-4" d="M142.088,70.006v-3.85a.265.265,0,0,1,.227-.3h.015a.357.357,0,0,1,.08,0h1.83a.333.333,0,0,1,.323.3v3.85a.266.266,0,0,1-.228.3h-.015a.268.268,0,0,1-.08,0h-1.83a.282.282,0,0,1-.323-.222h0A.186.186,0,0,1,142.088,70.006Z" transform="translate(0 0)"/><g id="path26345-3-6-9-3-6-4-2-5-6-8-7-9-0-90-3-1-3-9-2-2-8-5-0-2-3-5-16-5-6"><rect class="cls-5" x="142.329" y="65.855" width="1.984" height="4.204"/></g><path class="cls-6" d="M142.736,69.115V66.093c-.011-.113.041-.217.115-.233h0a.086.086,0,0,1,.039,0h.871c.083.007.149.107.154.233v3.022c.01.112-.041.216-.116.232h0a.081.081,0,0,1-.038,0h-.871c-.075.016-.144-.062-.154-.174h0A.561.561,0,0,1,142.736,69.115Z" transform="translate(0 0)"/><path class="cls-4" d="M134.617,55.08h0a.282.282,0,0,1,.323-.222h1.83a.268.268,0,0,1,.08,0h0a.267.267,0,0,1,.243.285h0V59a.331.331,0,0,1-.323.3h-1.83a.366.366,0,0,1-.081,0h0a.266.266,0,0,1-.243-.288h0V55.159A.191.191,0,0,1,134.617,55.08Z" transform="translate(0 0)"/><g id="path26345-3-6-9-3-6-4-2-5-6-8-7-9-0-90-3-1-3-9-2-2-8-5-0-2-3-5-16-5-7"><rect class="cls-5" x="134.858" y="55.101" width="1.984" height="4.204"/></g><path class="cls-6" d="M135.265,55.988h0c.011-.113.08-.19.154-.175h.871a.081.081,0,0,1,.038,0h0c.075.016.126.12.116.233v3.022c0,.125-.071.225-.154.232h-.871a.086.086,0,0,1-.039,0h0c-.074-.016-.126-.12-.115-.232V56.046A.281.281,0,0,1,135.265,55.988Z" transform="translate(0 0)"/><path id="path106654-2-3" class="cls-7" d="M141.31,66.013h3.838l1.477-1.553V60.48l-1.477-1.553H141.01l-1.477,1.553v3.979l1.477,1.553Z" transform="translate(0 0)"/><rect id="rect106656-2-3" class="cls-8" x="141.888" y="61.334" width="2.264" height="2.233"/><rect id="rect106658-2-3" class="cls-9" x="142.381" y="61.917" width="1.181" height="1.165"/><polygon id="polygon106660-2-3" class="cls-10" points="142.47 63.072 141.869 63.558 144.133 63.558 143.542 63.072 142.47 63.072"/><polygon id="polygon106662-2-3" class="cls-11" points="141.869 63.558 141.869 61.325 142.47 61.917 142.47 63.072 141.869 63.558"/><polygon id="polygon106664-2-3" class="cls-12" points="141.869 61.325 144.133 61.325 143.542 61.917 142.47 61.917 141.869 61.325"/><polygon id="polygon106666-2-3" class="cls-13" points="143.542 61.917 144.133 61.325 144.133 63.558 143.542 63.072 143.542 61.917"/><path id="path106672-2-3" class="cls-7" d="M134.19,66.013h3.834L139.5,64.46V60.48l-1.474-1.553h-4.138l-1.475,1.553v3.979l1.475,1.553Z" transform="translate(0 0)"/><rect id="rect106674-2-3" class="cls-8" x="134.751" y="61.334" width="2.26" height="2.233"/><rect id="rect106676-2-3" class="cls-9" x="135.242" y="61.917" width="1.179" height="1.165"/><polygon id="polygon106678-2-3" class="cls-10" points="135.38 63.072 134.741 63.558 137.032 63.558 136.452 63.072 135.38 63.072"/><polygon id="polygon106680-2-3" class="cls-11" points="134.741 63.558 134.741 61.325 135.38 61.917 135.38 63.072 134.741 63.558"/><polygon id="polygon106682-2-3" class="cls-12" points="134.741 61.325 137.032 61.325 136.452 61.917 135.38 61.917 134.741 61.325"/><polygon id="polygon106684-2-3" class="cls-13" points="136.452 61.917 137.032 61.325 137.032 63.558 136.452 63.072 136.452 61.917"/><path id="path106726-2-3" class="cls-7" d="M127.157,66.013h3.74l1.476-1.553V60.48L130.9,58.927h-4.134l-1.476,1.553v3.979l1.476,1.553Z" transform="translate(0 0)"/><rect id="rect106728-2-3" class="cls-8" x="127.727" y="61.334" width="2.264" height="2.233"/><rect id="rect106730-2-3" class="cls-9" x="128.318" y="61.917" width="1.083" height="1.165"/><polygon id="polygon106732-2-3" class="cls-10" points="127.747 63.558 130.031 63.558 129.381 63.072 128.318 63.072 127.747 63.558"/><polygon id="polygon106734-2-3" class="cls-11" points="127.747 61.325 128.318 61.917 128.318 63.072 127.747 63.558 127.747 61.325"/><polygon id="polygon106736-2-3" class="cls-12" points="130.031 61.325 129.381 61.917 128.318 61.917 127.747 61.325 130.031 61.325"/><polygon id="polygon106738-2-3" class="cls-13" points="130.031 61.325 130.031 63.558 129.381 63.072 129.381 61.917 130.031 61.325"/><g id="T-SOT23-6"><path id="path3487-1-2-2-2-2" class="cls-14" d="M106.888,22.132h1.621v-2.56h-1.621Z" transform="translate(0 0)"/><path id="path3489-6-2-2-2-2" class="cls-15" d="M106.888,20.664h1.621v-.77h-1.621Z" transform="translate(0 0)"/><path id="path3487-1-2-3" class="cls-14" d="M112.414,22.132h1.62v-2.56h-1.62Z" transform="translate(0 0)"/><path id="path3489-6-2-3" class="cls-15" d="M112.414,20.664h1.62v-.77h-1.62Z" transform="translate(0 0)"/><path id="path3487-1-2-3-2-2" class="cls-14" d="M109.605,22.132h1.62v-2.56h-1.62Z" transform="translate(0 0)"/><path id="path3489-6-2-3-2-2" class="cls-15" d="M109.605,20.664h1.62v-.77h-1.62Z" transform="translate(0 0)"/><path id="path3487-1-2-2-2-2-2" class="cls-14" d="M114.034,13.71h-1.62v2.56h1.62Z" transform="translate(0 0)"/><path id="path3489-6-2-2-2-2-2" class="cls-15" d="M114.034,15.18h-1.62v.77h1.62Z" transform="translate(0 0)"/><path id="path3487-1-2-2-2-3" class="cls-14" d="M111.224,13.71H109.6v2.56h1.62Z" transform="translate(0 0)"/><path id="path3489-6-2-2-2-3" class="cls-15" d="M111.224,15.18H109.6v.77h1.62Z" transform="translate(0 0)"/><path id="path3487-1-2-2-2-4" class="cls-14" d="M108.5,13.71h-1.62v2.56h1.62Z" transform="translate(0 0)"/><path id="path3489-6-2-2-2-4" class="cls-15" d="M108.5,15.18h-1.62v.77h1.62Z" transform="translate(0 0)"/><path id="path3477-9-2-2-2" class="cls-16" d="M106.205,16.182h8.418v3.48h-8.418Z" transform="translate(0 0)"/></g><g id="R-0603"><rect id="rect21332-8-1-9-3-8-2-40-6-2-0-6-6-0-5-6-4-8-7-2-0-7-2-3-9-16-5" class="cls-17" x="107.747" y="8.007" width="2.26" height="2.268"/><rect id="rect21332-8-1-9-3-8-2-40-6-2-0-6-6-0-5-6-4-8-7-2-0-7-2-3-10-16-5" class="cls-17" x="111.137" y="8.007" width="2.26" height="2.268"/><path class="cls-4" d="M108.637,8.007H112.5a.328.328,0,0,1,.33.278v1.7a.306.306,0,0,1-.324.287h-3.87a.309.309,0,0,1-.33-.285V8.3a.321.321,0,0,1,.32-.3h0Z" transform="translate(0 0)"/><g id="path26345-3-6-9-3-6-4-2-5-6-8-7-9-0-90-3-1-3-9-2-2-8-5-0-2-3-5-16-5"><rect class="cls-5" x="108.737" y="8.007" width="3.68" height="2.268"/></g><path id="path26341-4-2-6-0-8-1-1-1-5-0-3-3-1-8-3-8-7-7-7-2-4-9-7-2-3-5-16-5" class="cls-16" d="M109.157,10.275h2.83V8.007h-2.83Z" transform="translate(0 0)"/></g><g id="R-0603-2" data-name="R-0603"><rect id="rect21332-8-1-9-3-8-2-40-6-2-0-6-6-0-5-6-4-8-7-2-0-7-2-3-9-16-5-2" data-name="rect21332-8-1-9-3-8-2-40-6-2-0-6-6-0-5-6-4-8-7-2-0-7-2-3-9-16-5" class="cls-17" x="116.624" y="15.091" width="2.268" height="2.26"/><rect id="rect21332-8-1-9-3-8-2-40-6-2-0-6-6-0-5-6-4-8-7-2-0-7-2-3-10-16-5-2" data-name="rect21332-8-1-9-3-8-2-40-6-2-0-6-6-0-5-6-4-8-7-2-0-7-2-3-10-16-5" class="cls-17" x="116.624" y="18.481" width="2.268" height="2.26"/><path class="cls-4" d="M118.892,15.981v3.867a.328.328,0,0,1-.278.33h-1.7a.306.306,0,0,1-.287-.324h0v-3.87a.309.309,0,0,1,.285-.33H118.6a.321.321,0,0,1,.3.32h0Z" transform="translate(0 0)"/><g id="path26345-3-6-9-3-6-4-2-5-6-8-7-9-0-90-3-1-3-9-2-2-8-5-0-2-3-5-16-5-2" data-name="path26345-3-6-9-3-6-4-2-5-6-8-7-9-0-90-3-1-3-9-2-2-8-5-0-2-3-5-16-5"><rect class="cls-5" x="116.624" y="16.081" width="2.268" height="3.68"/></g><path id="path26341-4-2-6-0-8-1-1-1-5-0-3-3-1-8-3-8-7-7-7-2-4-9-7-2-3-5-16-5-2" data-name="path26341-4-2-6-0-8-1-1-1-5-0-3-3-1-8-3-8-7-7-7-2-4-9-7-2-3-5-16-5" class="cls-16" d="M116.624,16.5v2.83h2.268V16.5Z" transform="translate(0 0)"/></g><g id="R-0603-3" data-name="R-0603"><rect id="rect21332-8-1-9-3-8-2-40-6-2-0-6-6-0-5-6-4-8-7-2-0-7-2-3-9-16-5-3" data-name="rect21332-8-1-9-3-8-2-40-6-2-0-6-6-0-5-6-4-8-7-2-0-7-2-3-9-16-5" class="cls-17" x="108.07" y="60.192" width="2.268" height="2.26"/><rect id="rect21332-8-1-9-3-8-2-40-6-2-0-6-6-0-5-6-4-8-7-2-0-7-2-3-10-16-5-3" data-name="rect21332-8-1-9-3-8-2-40-6-2-0-6-6-0-5-6-4-8-7-2-0-7-2-3-10-16-5" class="cls-17" x="108.07" y="56.801" width="2.268" height="2.26"/><path class="cls-4" d="M108.07,61.561V57.694a.33.33,0,0,1,.278-.33h1.7a.308.308,0,0,1,.287.324h0v3.87a.309.309,0,0,1-.285.33h-1.683a.321.321,0,0,1-.3-.32h0Z" transform="translate(0 0)"/><g id="path26345-3-6-9-3-6-4-2-5-6-8-7-9-0-90-3-1-3-9-2-2-8-5-0-2-3-5-16-5-3-2" data-name="path26345-3-6-9-3-6-4-2-5-6-8-7-9-0-90-3-1-3-9-2-2-8-5-0-2-3-5-16-5"><rect class="cls-5" x="108.07" y="57.781" width="2.268" height="3.68"/></g><path id="path26341-4-2-6-0-8-1-1-1-5-0-3-3-1-8-3-8-7-7-7-2-4-9-7-2-3-5-16-5-3" data-name="path26341-4-2-6-0-8-1-1-1-5-0-3-3-1-8-3-8-7-7-7-2-4-9-7-2-3-5-16-5" class="cls-16" d="M110.338,61.041v-2.83H108.07v2.83Z" transform="translate(0 0)"/></g><g id="R-0603-4" data-name="R-0603"><rect id="rect21332-8-1-9-3-8-2-40-6-2-0-6-6-0-5-6-4-8-7-2-0-7-2-3-9-16-5-4" data-name="rect21332-8-1-9-3-8-2-40-6-2-0-6-6-0-5-6-4-8-7-2-0-7-2-3-9-16-5" class="cls-17" x="114.982" y="60.192" width="2.268" height="2.26"/><rect id="rect21332-8-1-9-3-8-2-40-6-2-0-6-6-0-5-6-4-8-7-2-0-7-2-3-10-16-5-4" data-name="rect21332-8-1-9-3-8-2-40-6-2-0-6-6-0-5-6-4-8-7-2-0-7-2-3-10-16-5" class="cls-17" x="114.982" y="56.801" width="2.268" height="2.26"/><path class="cls-4" d="M114.982,61.561V57.694a.33.33,0,0,1,.278-.33h1.7a.308.308,0,0,1,.287.324h0v3.87a.309.309,0,0,1-.285.33h-1.683a.321.321,0,0,1-.3-.32h0Z" transform="translate(0 0)"/><g id="path26345-3-6-9-3-6-4-2-5-6-8-7-9-0-90-3-1-3-9-2-2-8-5-0-2-3-5-16-5-4-2" data-name="path26345-3-6-9-3-6-4-2-5-6-8-7-9-0-90-3-1-3-9-2-2-8-5-0-2-3-5-16-5"><rect class="cls-5" x="114.982" y="57.781" width="2.268" height="3.68"/></g><path id="path26341-4-2-6-0-8-1-1-1-5-0-3-3-1-8-3-8-7-7-7-2-4-9-7-2-3-5-16-5-4" data-name="path26341-4-2-6-0-8-1-1-1-5-0-3-3-1-8-3-8-7-7-7-2-4-9-7-2-3-5-16-5" class="cls-16" d="M117.25,61.041v-2.83h-2.268v2.83Z" transform="translate(0 0)"/></g><g id="R-0603-5" data-name="R-0603"><rect id="rect21332-8-1-9-3-8-2-40-6-2-0-6-6-0-5-6-4-8-7-2-0-7-2-3-9-16-5-5" data-name="rect21332-8-1-9-3-8-2-40-6-2-0-6-6-0-5-6-4-8-7-2-0-7-2-3-9-16-5" class="cls-17" x="161.485" y="60.186" width="2.268" height="2.26"/><rect id="rect21332-8-1-9-3-8-2-40-6-2-0-6-6-0-5-6-4-8-7-2-0-7-2-3-10-16-5-5" data-name="rect21332-8-1-9-3-8-2-40-6-2-0-6-6-0-5-6-4-8-7-2-0-7-2-3-10-16-5" class="cls-17" x="161.485" y="56.796" width="2.268" height="2.26"/><path class="cls-4" d="M161.485,61.556V57.689a.33.33,0,0,1,.278-.33h1.7a.307.307,0,0,1,.287.324h0v3.87a.308.308,0,0,1-.285.33h-1.683a.321.321,0,0,1-.3-.32h0Z" transform="translate(0 0)"/><g id="path26345-3-6-9-3-6-4-2-5-6-8-7-9-0-90-3-1-3-9-2-2-8-5-0-2-3-5-16-5-5-2" data-name="path26345-3-6-9-3-6-4-2-5-6-8-7-9-0-90-3-1-3-9-2-2-8-5-0-2-3-5-16-5"><rect class="cls-5" x="161.485" y="57.776" width="2.268" height="3.68"/></g><path id="path26341-4-2-6-0-8-1-1-1-5-0-3-3-1-8-3-8-7-7-7-2-4-9-7-2-3-5-16-5-5" data-name="path26341-4-2-6-0-8-1-1-1-5-0-3-3-1-8-3-8-7-7-7-2-4-9-7-2-3-5-16-5" class="cls-16" d="M163.753,61.036v-2.83h-2.268v2.83Z" transform="translate(0 0)"/></g><g id="C-0603"><rect id="rect21332-8-1-9-3-8-2-40-6-2-0-6-6-0-5-6-4-8-7-2-0-7-2-3-9-16-2" class="cls-17" x="110.335" y="50.988" width="2.26" height="2.26"/><rect id="rect21332-8-1-9-3-8-2-40-6-2-0-6-6-0-5-6-4-8-7-2-0-7-2-3-10-16-2" class="cls-17" x="113.715" y="50.987" width="2.26" height="2.26"/><path class="cls-4" d="M111.225,50.983h3.88a.327.327,0,0,1,.33.277v1.7a.307.307,0,0,1-.324.287h-3.88a.311.311,0,0,1-.33-.286V51.28a.321.321,0,0,1,.32-.3h0Z" transform="translate(0 0)"/><rect class="cls-5" x="111.322" y="50.981" width="3.685" height="2.27"/><path id="path26341-4-2-6-0-8-1-1-1-5-0-3-3-1-8-3-8-7-7-7-2-4-9-7-2-3-5-16-2" class="cls-18" d="M111.745,53.25h2.84V50.982h-2.84Z" transform="translate(0 0)"/></g><g id="C-0603-2" data-name="C-0603"><rect id="rect21332-8-1-9-3-8-2-40-6-2-0-6-6-0-5-6-4-8-7-2-0-7-2-3-9-16-2-2" data-name="rect21332-8-1-9-3-8-2-40-6-2-0-6-6-0-5-6-4-8-7-2-0-7-2-3-9-16-2" class="cls-17" x="116.634" y="10.09" width="2.26" height="2.26"/><rect id="rect21332-8-1-9-3-8-2-40-6-2-0-6-6-0-5-6-4-8-7-2-0-7-2-3-10-16-2-2" data-name="rect21332-8-1-9-3-8-2-40-6-2-0-6-6-0-5-6-4-8-7-2-0-7-2-3-10-16-2" class="cls-17" x="120.014" y="10.089" width="2.26" height="2.26"/><path class="cls-4" d="M117.524,10.085h3.88a.329.329,0,0,1,.33.277v1.7a.306.306,0,0,1-.324.287h-3.88a.31.31,0,0,1-.33-.286V10.382a.321.321,0,0,1,.32-.3h0Z" transform="translate(0 0)"/><rect class="cls-5" x="117.621" y="10.083" width="3.685" height="2.27"/><path id="path26341-4-2-6-0-8-1-1-1-5-0-3-3-1-8-3-8-7-7-7-2-4-9-7-2-3-5-16-2-2" data-name="path26341-4-2-6-0-8-1-1-1-5-0-3-3-1-8-3-8-7-7-7-2-4-9-7-2-3-5-16-2" class="cls-18" d="M118.044,12.352h2.84V10.084h-2.84Z" transform="translate(0 0)"/></g><g id="LED-1210"><rect id="rect21332-8-1-9-3-8-2-40-6-2-0-6-6-0-5-6-4-8-7-2-0-7-2-3-9-16-3-7" class="cls-17" x="128.093" y="33.807" width="5.499" height="4.248"/><rect id="rect21332-8-1-9-3-8-2-40-6-2-0-6-6-0-5-6-4-8-7-2-0-7-2-3-10-16-3-7" class="cls-17" x="139.298" y="33.807" width="5.499" height="4.248"/><path class="cls-4" d="M130.864,33.807h11.065c.6.039,1.025.27.96.525v3.186c.088.25-.3.487-.889.539H130.936c-.588-.036-1-.262-.938-.512v-3.2c-.063-.255.343-.488.938-.54h0Z" transform="translate(0 0)"/><g id="path26345-3-6-9-3-6-4-2-5-6-8-7-9-0-90-3-1-3-9-2-2-8-5-0-2-3-5-16-3-6"><rect class="cls-5" x="131.198" y="33.807" width="10.477" height="4.248"/></g><path id="path26341-4-2-6-0-8-1-1-1-5-0-3-3-1-8-3-8-7-7-7-2-4-9-7-2-3-5-16-3-7" class="cls-19" d="M132.468,38.79h7.289V33.072h-7.289Z" transform="translate(0 0)"/><path id="path26341-4-2-6-0-8-1-1-1-5-0-3-3-1-8-3-8-7-7-7-2-4-9-7-2-3-5-16-3-7-2" data-name="path26341-4-2-6-0-8-1-1-1-5-0-3-3-1-8-3-8-7-7-7-2-4-9-7-2-3-5-16-3-7" class="cls-20" d="M132.468,38.79h7.289V33.072h-7.289Z" transform="translate(0 0)"/><path id="path6963-86-8-2-6-0-1-7-9-2-3-3" class="cls-21" d="M133.107,35.578h.578v.706h-.577Z" transform="translate(0 0)"/></g><rect x="153.373" y="6.598" width="0.462" height="0.462"/><rect x="153.835" y="6.598" width="0.462" height="0.462"/><rect x="154.297" y="6.598" width="0.462" height="0.462"/><rect x="154.759" y="6.598" width="0.462" height="0.462"/><rect x="155.221" y="6.598" width="0.462" height="0.462"/><rect x="155.683" y="6.598" width="0.462" height="0.462"/><rect x="156.145" y="6.598" width="0.462" height="0.462"/><rect x="157.069" y="6.598" width="0.462" height="0.462"/><rect x="158.454" y="6.598" width="0.462" height="0.462"/><rect x="158.916" y="6.598" width="0.462" height="0.462"/><rect x="159.378" y="6.598" width="0.462" height="0.462"/><rect x="161.688" y="6.598" width="0.462" height="0.462"/><rect x="162.15" y="6.598" width="0.462" height="0.462"/><rect x="162.612" y="6.598" width="0.462" height="0.462"/><rect x="163.074" y="6.598" width="0.462" height="0.462"/><rect x="163.536" y="6.598" width="0.462" height="0.462"/><rect x="163.998" y="6.598" width="0.462" height="0.462"/><rect x="164.46" y="6.598" width="0.462" height="0.462"/><rect x="153.373" y="7.06" width="0.462" height="0.462"/><rect x="156.145" y="7.06" width="0.462" height="0.462"/><rect x="157.069" y="7.06" width="0.462" height="0.462"/><rect x="157.53" y="7.06" width="0.462" height="0.462"/><rect x="157.992" y="7.06" width="0.462" height="0.462"/><rect x="158.916" y="7.06" width="0.462" height="0.462"/><rect x="159.84" y="7.06" width="0.462" height="0.462"/><rect x="161.688" y="7.06" width="0.462" height="0.462"/><rect x="164.46" y="7.06" width="0.462" height="0.462"/><rect x="153.373" y="7.522" width="0.462" height="0.462"/><rect x="154.297" y="7.522" width="0.462" height="0.462"/><rect x="154.759" y="7.522" width="0.462" height="0.462"/><rect x="155.221" y="7.522" width="0.462" height="0.462"/><rect x="156.145" y="7.522" width="0.462" height="0.462"/><rect x="157.992" y="7.522" width="0.462" height="0.462"/><rect x="158.454" y="7.522" width="0.462" height="0.462"/><rect x="158.916" y="7.522" width="0.462" height="0.462"/><rect x="159.378" y="7.522" width="0.462" height="0.462"/><rect x="160.764" y="7.522" width="0.462" height="0.462"/><rect x="161.688" y="7.522" width="0.462" height="0.462"/><rect x="162.612" y="7.522" width="0.462" height="0.462"/><rect x="163.074" y="7.522" width="0.462" height="0.462"/><rect x="163.536" y="7.522" width="0.462" height="0.462"/><rect x="164.46" y="7.522" width="0.462" height="0.462"/><rect x="153.373" y="7.984" width="0.462" height="0.462"/><rect x="154.297" y="7.984" width="0.462" height="0.462"/><rect x="154.759" y="7.984" width="0.462" height="0.462"/><rect x="155.221" y="7.984" width="0.462" height="0.462"/><rect x="156.145" y="7.984" width="0.462" height="0.462"/><rect x="157.992" y="7.984" width="0.462" height="0.462"/><rect x="159.378" y="7.984" width="0.462" height="0.462"/><rect x="160.764" y="7.984" width="0.462" height="0.462"/><rect x="161.688" y="7.984" width="0.462" height="0.462"/><rect x="162.612" y="7.984" width="0.462" height="0.462"/><rect x="163.074" y="7.984" width="0.462" height="0.462"/><rect x="163.536" y="7.984" width="0.462" height="0.462"/><rect x="164.46" y="7.984" width="0.462" height="0.462"/><rect x="153.373" y="8.446" width="0.462" height="0.462"/><rect x="154.297" y="8.446" width="0.462" height="0.462"/><rect x="154.759" y="8.446" width="0.462" height="0.462"/><rect x="155.221" y="8.446" width="0.462" height="0.462"/><rect x="156.145" y="8.446" width="0.462" height="0.462"/><rect x="157.069" y="8.446" width="0.462" height="0.462"/><rect x="157.53" y="8.446" width="0.462" height="0.462"/><rect x="157.992" y="8.446" width="0.462" height="0.462"/><rect x="158.454" y="8.446" width="0.462" height="0.462"/><rect x="159.84" y="8.446" width="0.462" height="0.462"/><rect x="161.688" y="8.446" width="0.462" height="0.462"/><rect x="162.612" y="8.446" width="0.462" height="0.462"/><rect x="163.074" y="8.446" width="0.462" height="0.462"/><rect x="163.536" y="8.446" width="0.462" height="0.462"/><rect x="164.46" y="8.446" width="0.462" height="0.462"/><rect x="153.373" y="8.908" width="0.462" height="0.462"/><rect x="156.145" y="8.908" width="0.462" height="0.462"/><rect x="157.069" y="8.908" width="0.462" height="0.462"/><rect x="158.454" y="8.908" width="0.462" height="0.462"/><rect x="159.378" y="8.908" width="0.462" height="0.462"/><rect x="159.84" y="8.908" width="0.462" height="0.462"/><rect x="161.688" y="8.908" width="0.462" height="0.462"/><rect x="164.46" y="8.908" width="0.462" height="0.462"/><rect x="153.373" y="9.37" width="0.462" height="0.462"/><rect x="153.835" y="9.37" width="0.462" height="0.462"/><rect x="154.297" y="9.37" width="0.462" height="0.462"/><rect x="154.759" y="9.37" width="0.462" height="0.462"/><rect x="155.221" y="9.37" width="0.462" height="0.462"/><rect x="155.683" y="9.37" width="0.462" height="0.462"/><rect x="156.145" y="9.37" width="0.462" height="0.462"/><rect x="157.069" y="9.37" width="0.462" height="0.462"/><rect x="157.992" y="9.37" width="0.462" height="0.462"/><rect x="158.916" y="9.37" width="0.462" height="0.462"/><rect x="159.84" y="9.37" width="0.462" height="0.462"/><rect x="160.764" y="9.37" width="0.462" height="0.462"/><rect x="161.688" y="9.37" width="0.462" height="0.462"/><rect x="162.15" y="9.37" width="0.462" height="0.462"/><rect x="162.612" y="9.37" width="0.462" height="0.462"/><rect x="163.074" y="9.37" width="0.462" height="0.462"/><rect x="163.536" y="9.37" width="0.462" height="0.462"/><rect x="163.998" y="9.37" width="0.462" height="0.462"/><rect x="164.46" y="9.37" width="0.462" height="0.462"/><rect x="157.069" y="9.832" width="0.462" height="0.462"/><rect x="157.992" y="9.832" width="0.462" height="0.462"/><rect x="158.454" y="9.832" width="0.462" height="0.462"/><rect x="158.916" y="9.832" width="0.462" height="0.462"/><rect x="159.84" y="9.832" width="0.462" height="0.462"/><rect x="160.302" y="9.832" width="0.462" height="0.462"/><rect x="160.764" y="9.832" width="0.462" height="0.462"/><rect x="153.373" y="10.294" width="0.462" height="0.462"/><rect x="153.835" y="10.294" width="0.462" height="0.462"/><rect x="154.297" y="10.294" width="0.462" height="0.462"/><rect x="155.683" y="10.294" width="0.462" height="0.462"/><rect x="156.145" y="10.294" width="0.462" height="0.462"/><rect x="157.069" y="10.294" width="0.462" height="0.462"/><rect x="157.53" y="10.294" width="0.462" height="0.462"/><rect x="157.992" y="10.294" width="0.462" height="0.462"/><rect x="159.378" y="10.294" width="0.462" height="0.462"/><rect x="159.84" y="10.294" width="0.462" height="0.462"/><rect x="160.764" y="10.294" width="0.462" height="0.462"/><rect x="161.226" y="10.294" width="0.462" height="0.462"/><rect x="161.688" y="10.294" width="0.462" height="0.462"/><rect x="162.15" y="10.294" width="0.462" height="0.462"/><rect x="162.612" y="10.294" width="0.462" height="0.462"/><rect x="163.998" y="10.294" width="0.462" height="0.462"/><rect x="164.46" y="10.294" width="0.462" height="0.462"/><rect x="154.297" y="10.756" width="0.462" height="0.462"/><rect x="154.759" y="10.756" width="0.462" height="0.462"/><rect x="155.221" y="10.756" width="0.462" height="0.462"/><rect x="155.683" y="10.756" width="0.462" height="0.462"/><rect x="157.53" y="10.756" width="0.462" height="0.462"/><rect x="157.992" y="10.756" width="0.462" height="0.462"/><rect x="159.378" y="10.756" width="0.462" height="0.462"/><rect x="160.302" y="10.756" width="0.462" height="0.462"/><rect x="161.688" y="10.756" width="0.462" height="0.462"/><rect x="162.15" y="10.756" width="0.462" height="0.462"/><rect x="163.074" y="10.756" width="0.462" height="0.462"/><rect x="163.998" y="10.756" width="0.462" height="0.462"/><rect x="164.46" y="10.756" width="0.462" height="0.462"/><rect x="153.835" y="11.218" width="0.462" height="0.462"/><rect x="154.297" y="11.218" width="0.462" height="0.462"/><rect x="154.759" y="11.218" width="0.462" height="0.462"/><rect x="155.683" y="11.218" width="0.462" height="0.462"/><rect x="156.145" y="11.218" width="0.462" height="0.462"/><rect x="156.607" y="11.218" width="0.462" height="0.462"/><rect x="157.069" y="11.218" width="0.462" height="0.462"/><rect x="158.454" y="11.218" width="0.462" height="0.462"/><rect x="160.302" y="11.218" width="0.462" height="0.462"/><rect x="162.612" y="11.218" width="0.462" height="0.462"/><rect x="163.074" y="11.218" width="0.462" height="0.462"/><rect x="163.536" y="11.218" width="0.462" height="0.462"/><rect x="164.46" y="11.218" width="0.462" height="0.462"/><rect x="153.373" y="11.68" width="0.462" height="0.462"/><rect x="155.683" y="11.68" width="0.462" height="0.462"/><rect x="156.607" y="11.68" width="0.462" height="0.462"/><rect x="157.069" y="11.68" width="0.462" height="0.462"/><rect x="157.53" y="11.68" width="0.462" height="0.462"/><rect x="159.378" y="11.68" width="0.462" height="0.462"/><rect x="161.226" y="11.68" width="0.462" height="0.462"/><rect x="163.074" y="11.68" width="0.462" height="0.462"/><rect x="154.759" y="12.142" width="0.462" height="0.462"/><rect x="155.221" y="12.142" width="0.462" height="0.462"/><rect x="156.145" y="12.142" width="0.462" height="0.462"/><rect x="157.53" y="12.142" width="0.462" height="0.462"/><rect x="158.454" y="12.142" width="0.462" height="0.462"/><rect x="158.916" y="12.142" width="0.462" height="0.462"/><rect x="159.378" y="12.142" width="0.462" height="0.462"/><rect x="160.302" y="12.142" width="0.462" height="0.462"/><rect x="160.764" y="12.142" width="0.462" height="0.462"/><rect x="161.688" y="12.142" width="0.462" height="0.462"/><rect x="162.15" y="12.142" width="0.462" height="0.462"/><rect x="164.46" y="12.142" width="0.462" height="0.462"/><rect x="154.759" y="12.604" width="0.462" height="0.462"/><rect x="155.221" y="12.604" width="0.462" height="0.462"/><rect x="155.683" y="12.604" width="0.462" height="0.462"/><rect x="156.607" y="12.604" width="0.462" height="0.462"/><rect x="158.916" y="12.604" width="0.462" height="0.462"/><rect x="160.302" y="12.604" width="0.462" height="0.462"/><rect x="160.764" y="12.604" width="0.462" height="0.462"/><rect x="161.226" y="12.604" width="0.462" height="0.462"/><rect x="161.688" y="12.604" width="0.462" height="0.462"/><rect x="162.15" y="12.604" width="0.462" height="0.462"/><rect x="163.998" y="12.604" width="0.462" height="0.462"/><rect x="164.46" y="12.604" width="0.462" height="0.462"/><rect x="153.373" y="13.066" width="0.462" height="0.462"/><rect x="153.835" y="13.066" width="0.462" height="0.462"/><rect x="155.221" y="13.066" width="0.462" height="0.462"/><rect x="155.683" y="13.066" width="0.462" height="0.462"/><rect x="156.145" y="13.066" width="0.462" height="0.462"/><rect x="156.607" y="13.066" width="0.462" height="0.462"/><rect x="157.992" y="13.066" width="0.462" height="0.462"/><rect x="158.916" y="13.066" width="0.462" height="0.462"/><rect x="159.378" y="13.066" width="0.462" height="0.462"/><rect x="159.84" y="13.066" width="0.462" height="0.462"/><rect x="160.302" y="13.066" width="0.462" height="0.462"/><rect x="161.226" y="13.066" width="0.462" height="0.462"/><rect x="161.688" y="13.066" width="0.462" height="0.462"/><rect x="163.074" y="13.066" width="0.462" height="0.462"/><rect x="163.536" y="13.066" width="0.462" height="0.462"/><rect x="164.46" y="13.066" width="0.462" height="0.462"/><rect x="154.297" y="13.528" width="0.462" height="0.462"/><rect x="154.759" y="13.528" width="0.462" height="0.462"/><rect x="157.069" y="13.528" width="0.462" height="0.462"/><rect x="158.454" y="13.528" width="0.462" height="0.462"/><rect x="158.916" y="13.528" width="0.462" height="0.462"/><rect x="159.84" y="13.528" width="0.462" height="0.462"/><rect x="160.302" y="13.528" width="0.462" height="0.462"/><rect x="162.15" y="13.528" width="0.462" height="0.462"/><rect x="162.612" y="13.528" width="0.462" height="0.462"/><rect x="163.074" y="13.528" width="0.462" height="0.462"/><rect x="153.373" y="13.989" width="0.462" height="0.462"/><rect x="153.835" y="13.989" width="0.462" height="0.462"/><rect x="154.297" y="13.989" width="0.462" height="0.462"/><rect x="155.221" y="13.989" width="0.462" height="0.462"/><rect x="156.145" y="13.989" width="0.462" height="0.462"/><rect x="157.069" y="13.989" width="0.462" height="0.462"/><rect x="157.992" y="13.989" width="0.462" height="0.462"/><rect x="159.378" y="13.989" width="0.462" height="0.462"/><rect x="159.84" y="13.989" width="0.462" height="0.462"/><rect x="160.764" y="13.989" width="0.462" height="0.462"/><rect x="161.226" y="13.989" width="0.462" height="0.462"/><rect x="161.688" y="13.989" width="0.462" height="0.462"/><rect x="162.15" y="13.989" width="0.462" height="0.462"/><rect x="162.612" y="13.989" width="0.462" height="0.462"/><rect x="163.998" y="13.989" width="0.462" height="0.462"/><rect x="157.069" y="14.451" width="0.462" height="0.462"/><rect x="157.53" y="14.451" width="0.462" height="0.462"/><rect x="159.378" y="14.451" width="0.462" height="0.462"/><rect x="159.84" y="14.451" width="0.462" height="0.462"/><rect x="160.764" y="14.451" width="0.462" height="0.462"/><rect x="162.612" y="14.451" width="0.462" height="0.462"/><rect x="164.46" y="14.451" width="0.462" height="0.462"/><rect x="153.373" y="14.913" width="0.462" height="0.462"/><rect x="153.835" y="14.913" width="0.462" height="0.462"/><rect x="154.297" y="14.913" width="0.462" height="0.462"/><rect x="154.759" y="14.913" width="0.462" height="0.462"/><rect x="155.221" y="14.913" width="0.462" height="0.462"/><rect x="155.683" y="14.913" width="0.462" height="0.462"/><rect x="156.145" y="14.913" width="0.462" height="0.462"/><rect x="157.53" y="14.913" width="0.462" height="0.462"/><rect x="157.992" y="14.913" width="0.462" height="0.462"/><rect x="158.454" y="14.913" width="0.462" height="0.462"/><rect x="160.764" y="14.913" width="0.462" height="0.462"/><rect x="161.688" y="14.913" width="0.462" height="0.462"/><rect x="162.612" y="14.913" width="0.462" height="0.462"/><rect x="164.46" y="14.913" width="0.462" height="0.462"/><rect x="153.373" y="15.375" width="0.462" height="0.462"/><rect x="156.145" y="15.375" width="0.462" height="0.462"/><rect x="157.069" y="15.375" width="0.462" height="0.462"/><rect x="159.378" y="15.375" width="0.462" height="0.462"/><rect x="160.302" y="15.375" width="0.462" height="0.462"/><rect x="160.764" y="15.375" width="0.462" height="0.462"/><rect x="162.612" y="15.375" width="0.462" height="0.462"/><rect x="163.998" y="15.375" width="0.462" height="0.462"/><rect x="164.46" y="15.375" width="0.462" height="0.462"/><rect x="153.373" y="15.837" width="0.462" height="0.462"/><rect x="154.297" y="15.837" width="0.462" height="0.462"/><rect x="154.759" y="15.837" width="0.462" height="0.462"/><rect x="155.221" y="15.837" width="0.462" height="0.462"/><rect x="156.145" y="15.837" width="0.462" height="0.462"/><rect x="157.53" y="15.837" width="0.462" height="0.462"/><rect x="157.992" y="15.837" width="0.462" height="0.462"/><rect x="158.454" y="15.837" width="0.462" height="0.462"/><rect x="158.916" y="15.837" width="0.462" height="0.462"/><rect x="159.378" y="15.837" width="0.462" height="0.462"/><rect x="160.302" y="15.837" width="0.462" height="0.462"/><rect x="160.764" y="15.837" width="0.462" height="0.462"/><rect x="161.226" y="15.837" width="0.462" height="0.462"/><rect x="161.688" y="15.837" width="0.462" height="0.462"/><rect x="162.15" y="15.837" width="0.462" height="0.462"/><rect x="162.612" y="15.837" width="0.462" height="0.462"/><rect x="163.998" y="15.837" width="0.462" height="0.462"/><rect x="164.46" y="15.837" width="0.462" height="0.462"/><rect x="153.373" y="16.299" width="0.462" height="0.462"/><rect x="154.297" y="16.299" width="0.462" height="0.462"/><rect x="154.759" y="16.299" width="0.462" height="0.462"/><rect x="155.221" y="16.299" width="0.462" height="0.462"/><rect x="156.145" y="16.299" width="0.462" height="0.462"/><rect x="157.53" y="16.299" width="0.462" height="0.462"/><rect x="158.916" y="16.299" width="0.462" height="0.462"/><rect x="160.764" y="16.299" width="0.462" height="0.462"/><rect x="161.226" y="16.299" width="0.462" height="0.462"/><rect x="162.612" y="16.299" width="0.462" height="0.462"/><rect x="163.536" y="16.299" width="0.462" height="0.462"/><rect x="163.998" y="16.299" width="0.462" height="0.462"/><rect x="153.373" y="16.761" width="0.462" height="0.462"/><rect x="154.297" y="16.761" width="0.462" height="0.462"/><rect x="154.759" y="16.761" width="0.462" height="0.462"/><rect x="155.221" y="16.761" width="0.462" height="0.462"/><rect x="156.145" y="16.761" width="0.462" height="0.462"/><rect x="157.069" y="16.761" width="0.462" height="0.462"/><rect x="157.53" y="16.761" width="0.462" height="0.462"/><rect x="157.992" y="16.761" width="0.462" height="0.462"/><rect x="158.916" y="16.761" width="0.462" height="0.462"/><rect x="159.378" y="16.761" width="0.462" height="0.462"/><rect x="159.84" y="16.761" width="0.462" height="0.462"/><rect x="160.302" y="16.761" width="0.462" height="0.462"/><rect x="160.764" y="16.761" width="0.462" height="0.462"/><rect x="161.226" y="16.761" width="0.462" height="0.462"/><rect x="162.15" y="16.761" width="0.462" height="0.462"/><rect x="162.612" y="16.761" width="0.462" height="0.462"/><rect x="163.074" y="16.761" width="0.462" height="0.462"/><rect x="163.998" y="16.761" width="0.462" height="0.462"/><rect x="164.46" y="16.761" width="0.462" height="0.462"/><rect x="153.373" y="17.223" width="0.462" height="0.462"/><rect x="156.145" y="17.223" width="0.462" height="0.462"/><rect x="157.069" y="17.223" width="0.462" height="0.462"/><rect x="157.53" y="17.223" width="0.462" height="0.462"/><rect x="158.454" y="17.223" width="0.462" height="0.462"/><rect x="158.916" y="17.223" width="0.462" height="0.462"/><rect x="159.84" y="17.223" width="0.462" height="0.462"/><rect x="160.302" y="17.223" width="0.462" height="0.462"/><rect x="160.764" y="17.223" width="0.462" height="0.462"/><rect x="161.226" y="17.223" width="0.462" height="0.462"/><rect x="162.15" y="17.223" width="0.462" height="0.462"/><rect x="162.612" y="17.223" width="0.462" height="0.462"/><rect x="153.373" y="17.685" width="0.462" height="0.462"/><rect x="153.835" y="17.685" width="0.462" height="0.462"/><rect x="154.297" y="17.685" width="0.462" height="0.462"/><rect x="154.759" y="17.685" width="0.462" height="0.462"/><rect x="155.221" y="17.685" width="0.462" height="0.462"/><rect x="155.683" y="17.685" width="0.462" height="0.462"/><rect x="156.145" y="17.685" width="0.462" height="0.462"/><rect x="157.069" y="17.685" width="0.462" height="0.462"/><rect x="157.992" y="17.685" width="0.462" height="0.462"/><rect x="159.378" y="17.685" width="0.462" height="0.462"/><rect x="159.84" y="17.685" width="0.462" height="0.462"/><rect x="160.764" y="17.685" width="0.462" height="0.462"/><rect x="161.688" y="17.685" width="0.462" height="0.462"/><rect x="163.074" y="17.685" width="0.462" height="0.462"/><rect x="164.46" y="17.685" width="0.462" height="0.462"/><text class="cls-22" transform="translate(126.836 55.991)">G</text><text class="cls-22" transform="translate(126.836 19.272)">M</text><text class="cls-22" transform="translate(134.247 69.791)">V</text><text class="cls-22" transform="translate(141.868 55.755)">S</text><g id="T-SOT23-3"><path id="path3479-7-2-2" class="cls-14" d="M151.164,55.469v1.543h-2.525V55.469Z" transform="translate(0 0)"/><path id="path3481-0-2-2" class="cls-15" d="M150.928,55.469v1.543h-.835V55.469Z" transform="translate(0 0)"/><path id="path3483-6-2" class="cls-14" d="M151.164,60.862v1.572h-2.525V60.862Z" transform="translate(0 0)"/><path id="path3485-6-2" class="cls-15" d="M150.928,60.862v1.572h-.835V60.862Z" transform="translate(0 0)"/><path id="path3487-1-2-2" class="cls-14" d="M154.562,58.131v1.592h2.515V58.131Z" transform="translate(0 0)"/><path id="path3489-6-2-2" class="cls-15" d="M154.857,58.131v1.592h.776V58.131Z" transform="translate(0 0)"/><path id="path3477-9-2" class="cls-16" d="M154.572,54.791v8.272h-3.419V54.791Z" transform="translate(0 0)"/></g></g><g id="top"><path class="cls-1" d="M67.255.215H4.705a4.492,4.492,0,0,1-4.49,4.47v62.58a4.522,4.522,0,0,1,4.47,4.51l62.56-.04a4.5,4.5,0,0,1,4.38-4.48V4.715A4.428,4.428,0,0,1,67.255.215Zm-31.33,40.32a4.535,4.535,0,1,1,4.53-4.54A4.537,4.537,0,0,1,35.925,40.535Z" transform="translate(0 0)"/><g id="troyka-pins2"><path id="rect6749-8-3" class="cls-2" d="M32.213,71.792H25.364c-.077,0-.14-.045-.14-.1V61.971c0-.055.063-.1.14-.1h6.849c.077,0,.14.045.14.1v9.721C32.353,71.747,32.29,71.792,32.213,71.792Z" transform="translate(0 0)"/><path id="rect6749-9-8-3" class="cls-2" d="M39.3,71.792H32.454c-.077,0-.14-.045-.14-.1V61.971c0-.055.063-.1.14-.1H39.3c.077,0,.14.045.14.1v9.721C39.443,71.747,39.38,71.792,39.3,71.792Z" transform="translate(0 0)"/><path id="rect6749-9-3-2-4" class="cls-2" d="M46.432,71.792H39.583c-.077,0-.14-.045-.14-.1V61.971c0-.055.063-.1.14-.1h6.849c.077,0,.14.045.14.1v9.721C46.572,71.747,46.509,71.792,46.432,71.792Z" transform="translate(0 0)"/></g><g id="troyka-pins"><path id="rect6749-3" class="cls-2" d="M46.432,10.169H39.583c-.077,0-.14-.045-.14-.1V.349c0-.056.063-.1.14-.1h6.849c.077,0,.14.045.14.1v9.72C46.572,10.124,46.509,10.169,46.432,10.169Z" transform="translate(0 0)"/><path id="rect6749-9-3-3" class="cls-2" d="M39.3,10.169H32.454c-.077,0-.14-.045-.14-.1V.349c0-.056.063-.1.14-.1H39.3c.077,0,.14.045.14.1v9.72C39.443,10.124,39.38,10.169,39.3,10.169Z" transform="translate(0 0)"/><path id="rect6749-9-3-4-2" class="cls-3" d="M32.213,10.169H25.364c-.077,0-.14-.045-.14-.1V.349c0-.056.063-.1.14-.1h6.849c.077,0,.14.045.14.1v9.72C32.353,10.124,32.29,10.169,32.213,10.169Z" transform="translate(0 0)"/></g><text class="cls-22" transform="translate(41.311 69.458)">G</text><text class="cls-22" transform="translate(41.131 5.419)">M</text><text class="cls-22" transform="translate(34.343 69.497)">V</text><text class="cls-22" transform="translate(27.653 69.456)">S</text><g id="amperka-logo-2-2-2"><g id="g530-2-2-2"><path id="path532-2-2-2" d="M11.927,58.135a2.008,2.008,0,1,0,2.008,2.008h0a2.008,2.008,0,0,0-2.008-2.008h0m0,5.235a3.227,3.227,0,1,1,3.227-3.227,3.227,3.227,0,0,1-3.227,3.227h0" transform="translate(0 0)"/></g><g id="g534-2-2-2"><path id="path536-2-2-2" d="M11.927,51.868A2.229,2.229,0,1,0,14.156,54.1a2.229,2.229,0,0,0-2.229-2.229h0m0,1.219A1.01,1.01,0,1,1,10.918,54.1h0a1.011,1.011,0,0,1,1.009-1.01" transform="translate(0 0)"/></g><g id="g538-2-2-2"><path id="path540-2-2-2" d="M11.558,65.49a5.369,5.369,0,0,1-3.834-8.7L7.331,56.4a.626.626,0,0,1-.06-.836.609.609,0,0,1,.857-.088h.011a.279.279,0,0,1,.044.04l.876.876a.529.529,0,0,1,0,.747h0A4.262,4.262,0,0,0,7.8,59.871a4.15,4.15,0,1,0,7.077-2.679l-.057-.057a.528.528,0,0,1,0-.746h0l.858-.857a.626.626,0,0,1,.831-.059.609.609,0,0,1,.085.857h0c-.013.016-.026.03-.04.045l-.412.412a5.37,5.37,0,0,1-4.572,8.7" transform="translate(0 0)"/></g></g><g id="g14799"><circle id="circle17228-0" class="cls-23" cx="35.892" cy="35.955" r="2.246"/><circle id="circle17230-0" class="cls-24" cx="35.987" cy="35.934" r="0.85"/><circle id="circle17232-6" class="cls-25" cx="35.89" cy="35.976" r="4.464"/><path id="path17234-1" class="cls-26" d="M36.384,38.437a2.8,2.8,0,0,1-1.21.021l-.228,1.112a3.9,3.9,0,0,0,.785.079,5.7,5.7,0,0,0,1-.111Zm1.118.786a3.9,3.9,0,0,0,2.125-3.472,4.153,4.153,0,0,0-.074-.762l-1.108.248a2.712,2.712,0,0,1,.048.513,2.764,2.764,0,0,1-1.422,2.417Z" transform="translate(0 0)"/><circle id="circle17236-3" class="cls-27" cx="35.923" cy="35.997" r="4.535"/></g><circle id="path4877" class="cls-28" cx="35.923" cy="35.997" r="21.206" transform="translate(-12.339 52.029) rotate(-63.435)"/><circle id="path4877-8" class="cls-28" cx="35.923" cy="35.997" r="4.535"/></g></svg>