<svg id="troyka-5mm-led-module-green" xmlns="http://www.w3.org/2000/svg" xmlns:xlink="http://www.w3.org/1999/xlink" width="72" height="72.01" viewBox="0 0 72 72.01">
  <defs>
    <style>
      .cls-1 {
        fill: #f2f2f2;
        stroke-miterlimit: 1;
        stroke-width: 0.43px;
      }

      .cls-1, .cls-2 {
        stroke: #000;
      }

      .cls-19, .cls-2 {
        fill: none;
      }

      .cls-2 {
        stroke-width: 0.28px;
      }

      .cls-3 {
        fill: #666;
      }

      .cls-4 {
        fill: #8d8c8c;
      }

      .cls-5 {
        fill: #8c8663;
      }

      .cls-6 {
        fill: #b8af82;
      }

      .cls-7 {
        fill: #80795b;
      }

      .cls-8 {
        fill: #5e5b43;
      }

      .cls-9 {
        fill: #9a916c;
      }

      .cls-10, .cls-17, .cls-18, .cls-20, .cls-21, .cls-22, .cls-23 {
        isolation: isolate;
      }

      .cls-10 {
        font-size: 5.41px;
        font-family: TrebuchetMS, Trebuchet MS;
      }

      .cls-11 {
        fill: #404040;
      }

      .cls-12 {
        fill: #b3b3b3;
      }

      .cls-13 {
        fill: gray;
      }

      .cls-14 {
        fill: #242424;
      }

      .cls-15 {
        fill: #8c8c8c;
      }

      .cls-16, .cls-17 {
        fill: lime;
      }

      .cls-17 {
        opacity: 0.53;
      }

      .cls-18 {
        fill: #fff;
        opacity: 0.8;
      }

      .cls-19 {
        stroke: #00be00;
        stroke-width: 0.2px;
      }

      .cls-19, .cls-20, .cls-22, .cls-23 {
        stroke-linecap: round;
      }

      .cls-20 {
        stroke-width: 0.12px;
        fill: url(#Безымянный_градиент_14);
        stroke: url(#Безымянный_градиент_6);
      }

      .cls-20, .cls-21, .cls-22 {
        opacity: 0.46;
      }

      .cls-21 {
        fill: url(#Безымянный_градиент_29);
      }

      .cls-22 {
        stroke-width: 0.27px;
        fill: url(#Безымянный_градиент_35);
        stroke: url(#Безымянный_градиент_8);
      }

      .cls-23 {
        stroke-width: 0.07px;
        opacity: 0.38;
        fill: url(#Безымянный_градиент_5);
        stroke: url(#Безымянный_градиент_6-2);
      }
    </style>
    <radialGradient id="Безымянный_градиент_14" data-name="Безымянный градиент 14" cx="-462.26" cy="-26.95" r="6.18" gradientTransform="matrix(2.83, 0, 0, -2.89, 1343.22, -42.49)" gradientUnits="userSpaceOnUse">
      <stop offset="0" stop-color="lime"/>
      <stop offset="1" stop-color="lime" stop-opacity="0"/>
    </radialGradient>
    <radialGradient id="Безымянный_градиент_6" data-name="Безымянный градиент 6" cx="883.56" cy="-1705.82" r="41.37" gradientTransform="matrix(0.42, 0, 0, -0.43, -336.36, -697.52)" gradientUnits="userSpaceOnUse">
      <stop offset="0"/>
      <stop offset="1" stop-opacity="0"/>
    </radialGradient>
    <radialGradient id="Безымянный_градиент_29" data-name="Безымянный градиент 29" cx="-1408.56" cy="937.64" r="10.07" gradientTransform="matrix(-2.48, -0.05, -0.04, 1.89, -3417.95, -1805.69)" xlink:href="#Безымянный_градиент_14"/>
    <radialGradient id="Безымянный_градиент_35" data-name="Безымянный градиент 35" cx="-1388.01" cy="836.87" r="5.51" gradientTransform="matrix(-2.58, 0, 0, 2.77, -3547.33, -2283.02)" xlink:href="#Безымянный_градиент_14"/>
    <radialGradient id="Безымянный_градиент_8" data-name="Безымянный градиент 8" cx="-948.25" cy="421.15" r="1.8" gradientTransform="matrix(-16.52, 0, 0, 3.84, -12713.34, -3304.69)" gradientUnits="userSpaceOnUse">
      <stop offset="0"/>
      <stop offset="0.56" stop-color="#02dd55"/>
      <stop offset="1" stop-color="#0d5" stop-opacity="0"/>
    </radialGradient>
    <radialGradient id="Безымянный_градиент_5" data-name="Безымянный градиент 5" cx="-788.95" cy="493.49" r="0.98" gradientTransform="matrix(-11.95, 0, 0, 9.12, -9393.25, -4463.19)" gradientUnits="userSpaceOnUse">
      <stop offset="0" stop-color="#fff"/>
      <stop offset="1" stop-color="#fff" stop-opacity="0"/>
    </radialGradient>
    <radialGradient id="Безымянный_градиент_6-2" cx="-5724.49" cy="6889.48" r="41.35" gradientTransform="matrix(-0.19, 0, 0.01, 0.14, -1123.63, -930.38)" xlink:href="#Безымянный_градиент_6"/>
  </defs>
  <title>troyka-5mm-led-module-green</title>
  <g id="all">
    <path id="troyka-oneunit" class="cls-1" d="M4.71.21A4.49,4.49,0,0,1,.25,4.71h0V67.29a4.49,4.49,0,0,1,4.49,4.49H67.29a4.49,4.49,0,0,1,4.48-4.5h0V4.71A4.49,4.49,0,0,1,67.29.23v0Z" transform="translate(-0.01 0.01)"/>
    <g id="troyka-pins2">
      <rect id="rect17308" class="cls-2" x="39.49" y="0.31" width="7.13" height="13.81" rx="0.14" ry="0.14"/>
      <rect id="rect17310" class="cls-2" x="32.38" y="0.31" width="7.13" height="13.81" rx="0.14" ry="0.14"/>
      <rect id="rect17312" class="cls-2" x="25.29" y="0.31" width="7.13" height="13.81" rx="0.14" ry="0.14"/>
      <circle id="circle17314" class="cls-3" cx="43.06" cy="10.44" r="2.62"/>
      <circle id="circle17316" class="cls-3" cx="35.95" cy="10.44" r="2.62"/>
      <rect id="rect17318" class="cls-3" x="26.22" y="7.81" width="5.23" height="5.23" rx="0.48" ry="0.48"/>
      <rect id="rect17320" class="cls-4" x="27.71" y="9.24" width="2.27" height="2.39"/>
      <rect id="rect17322" class="cls-5" x="28.27" y="9.82" width="1.17" height="1.23"/>
      <polygon id="polygon17324" class="cls-6" points="29.43 9.82 29.98 9.24 27.71 9.24 28.27 9.82 29.43 9.82"/>
      <polygon id="polygon17326" class="cls-7" points="29.98 9.24 29.98 11.63 29.43 11.05 29.43 9.82 29.98 9.24"/>
      <polygon id="polygon17328" class="cls-8" points="29.98 11.63 27.71 11.63 28.27 11.05 29.43 11.05 29.98 11.63"/>
      <polygon id="polygon17330" class="cls-9" points="28.27 11.05 27.71 11.63 27.71 9.24 28.27 9.82 28.27 11.05"/>
      <rect id="rect17334" class="cls-4" x="41.91" y="9.24" width="2.27" height="2.39"/>
      <rect id="rect17336" class="cls-5" x="42.47" y="9.82" width="1.17" height="1.23"/>
      <polygon id="polygon17338" class="cls-6" points="42.47 9.82 43.63 9.82 44.17 9.24 41.91 9.24 42.47 9.82"/>
      <polygon id="polygon17340" class="cls-7" points="43.63 9.82 44.17 9.24 44.17 11.63 43.63 11.05 43.63 9.82"/>
      <polygon id="polygon17342" class="cls-8" points="43.63 11.05 44.17 11.63 41.91 11.63 42.47 11.05 43.63 11.05"/>
      <polygon id="polygon17344" class="cls-9" points="42.47 9.82 42.47 11.05 41.91 11.63 41.91 9.24 42.47 9.82"/>
      <rect id="rect17348" class="cls-4" x="34.81" y="9.24" width="2.27" height="2.39"/>
      <rect id="rect17350" class="cls-5" x="35.36" y="9.82" width="1.17" height="1.23"/>
      <polygon id="polygon17352" class="cls-6" points="36.52 9.82 37.08 9.24 34.81 9.24 35.37 9.82 36.52 9.82"/>
      <polygon id="polygon17354" class="cls-7" points="37.08 9.24 37.08 11.63 36.52 11.05 36.52 9.82 37.08 9.24"/>
      <polygon id="polygon17356" class="cls-8" points="37.08 11.63 34.81 11.63 35.37 11.05 36.52 11.05 37.08 11.63"/>
      <polygon id="polygon17358" class="cls-9" points="35.37 11.05 34.81 11.63 34.81 9.24 35.37 9.82 35.37 11.05"/>
      <rect id="rect17360" class="cls-4" x="34.81" y="9.24" width="2.27" height="2.39"/>
      <rect id="rect17362" class="cls-5" x="35.36" y="9.82" width="1.17" height="1.23"/>
      <polygon id="polygon17364" class="cls-6" points="35.37 9.82 36.52 9.82 37.08 9.24 34.81 9.24 35.37 9.82"/>
      <polygon id="polygon17366" class="cls-7" points="36.52 9.82 37.08 9.24 37.08 11.63 36.52 11.05 36.52 9.82"/>
      <polygon id="polygon17368" class="cls-8" points="36.52 11.05 37.08 11.63 34.81 11.63 35.37 11.05 36.52 11.05"/>
      <polygon id="polygon17370" class="cls-9" points="35.37 9.82 35.37 11.05 34.81 11.63 34.81 9.24 35.37 9.82"/>
    </g>
    <g id="troyka-pins">
      <rect id="rect17240" class="cls-2" x="25.19" y="58.06" width="7.13" height="13.81" rx="0.14" ry="0.14"/>
      <rect id="rect17242" class="cls-2" x="32.29" y="58.06" width="7.13" height="13.81" rx="0.14" ry="0.14"/>
      <rect id="rect17244" class="cls-2" x="39.38" y="58.06" width="7.13" height="13.81" rx="0.14" ry="0.14"/>
      <circle id="circle17246" class="cls-3" cx="28.73" cy="61.75" r="2.62"/>
      <circle id="circle17248" class="cls-3" cx="35.84" cy="61.75" r="2.62"/>
      <rect id="rect17250" class="cls-3" x="40.34" y="59.13" width="5.23" height="5.23" rx="0.48" ry="0.48"/>
      <rect id="rect17252" class="cls-4" x="41.81" y="60.55" width="2.27" height="2.39"/>
      <rect id="rect17254" class="cls-5" x="42.36" y="61.13" width="1.17" height="1.23"/>
      <polygon id="polygon17256" class="cls-6" points="43.52 62.36 42.37 62.36 41.81 62.94 44.08 62.94 43.52 62.36"/>
      <polygon id="polygon17258" class="cls-7" points="42.37 62.36 41.81 62.94 41.81 60.55 42.37 61.13 42.37 62.36"/>
      <polygon id="polygon17260" class="cls-8" points="42.37 61.13 41.81 60.55 44.08 60.55 43.52 61.13 42.37 61.13"/>
      <polygon id="polygon17262" class="cls-9" points="43.52 62.36 43.52 61.13 44.08 60.55 44.08 62.94 43.52 62.36"/>
      <rect id="rect17266" class="cls-4" x="27.62" y="60.55" width="2.27" height="2.39"/>
      <rect id="rect17268" class="cls-5" x="28.17" y="61.13" width="1.17" height="1.23"/>
      <polygon id="polygon17270" class="cls-6" points="29.89 62.94 29.32 62.36 28.16 62.36 27.61 62.94 29.89 62.94"/>
      <polygon id="polygon17272" class="cls-7" points="28.16 61.13 28.16 62.36 27.61 62.94 27.61 60.55 28.16 61.13"/>
      <polygon id="polygon17274" class="cls-8" points="29.32 61.13 28.16 61.13 27.61 60.55 29.89 60.55 29.32 61.13"/>
      <polygon id="polygon17276" class="cls-9" points="29.89 62.94 29.32 62.36 29.32 61.13 29.89 60.55 29.89 62.94"/>
      <rect id="rect17280" class="cls-4" x="34.72" y="60.55" width="2.27" height="2.39"/>
      <rect id="rect17282" class="cls-5" x="35.27" y="61.13" width="1.17" height="1.23"/>
      <polygon id="polygon17284" class="cls-6" points="36.42 62.36 35.27 62.36 34.72 62.94 36.98 62.94 36.42 62.36"/>
      <polygon id="polygon17286" class="cls-7" points="35.27 62.36 34.72 62.94 34.72 60.55 35.27 61.13 35.27 62.36"/>
      <polygon id="polygon17288" class="cls-8" points="35.27 61.13 34.72 60.55 36.98 60.55 36.42 61.13 35.27 61.13"/>
      <polygon id="polygon17290" class="cls-9" points="36.42 62.36 36.42 61.13 36.98 60.55 36.98 62.94 36.42 62.36"/>
      <rect id="rect17292" class="cls-4" x="34.72" y="60.55" width="2.27" height="2.39"/>
      <rect id="rect17294" class="cls-5" x="35.27" y="61.13" width="1.17" height="1.23"/>
      <polygon id="polygon17296" class="cls-6" points="36.98 62.94 36.42 62.36 35.27 62.36 34.72 62.94 36.98 62.94"/>
      <polygon id="polygon17298" class="cls-7" points="35.27 61.13 35.27 62.36 34.72 62.94 34.72 60.55 35.27 61.13"/>
      <polygon id="polygon17300" class="cls-8" points="36.42 61.13 35.27 61.13 34.72 60.55 36.98 60.55 36.42 61.13"/>
      <polygon id="polygon17302" class="cls-9" points="36.98 62.94 36.42 62.36 36.42 61.13 36.98 60.55 36.98 62.94"/>
      <text class="cls-10" transform="translate(41.38 69.67)">G</text>
      <text class="cls-10" transform="translate(34.42 69.64)">V</text>
      <text class="cls-10" transform="translate(27.6 69.67)">S</text>
    </g>
    <g id="T1-SOT32">
      <path id="path17504" class="cls-11" d="M17.24,59.45H10.13V56.51h7.11Z" transform="translate(-0.01 0.01)"/>
      <path id="path17506" class="cls-12" d="M16.69,61.61H15.33V59.44h1.36Z" transform="translate(-0.01 0.01)"/>
      <path id="path17508" class="cls-13" d="M16.69,60.37H15.33v-.69h1.36Z" transform="translate(-0.01 0.01)"/>
      <path id="path17510" class="cls-12" d="M12,61.61H10.68V59.44H12Z" transform="translate(-0.01 0.01)"/>
      <path id="path17512" class="cls-13" d="M12,60.37H10.68v-.69H12Z" transform="translate(-0.01 0.01)"/>
      <path id="path17514" class="cls-12" d="M14.37,54.36H13v2.16h1.37Z" transform="translate(-0.01 0.01)"/>
      <path id="path17516" class="cls-13" d="M14.37,55.6H13v.69h1.37Z" transform="translate(-0.01 0.01)"/>
    </g>
    <g id="R2-0603">
      <path id="path17520" class="cls-14" d="M52.59,61.28h-3V55.84h3Z" transform="translate(-0.01 0.01)"/>
      <path id="path17522" class="cls-12" d="M52.61,56.15h-3V55.2h3Z" transform="translate(-0.01 0.01)"/>
      <path id="path17524" class="cls-12" d="M52.61,61.82h-3v-1h3Z" transform="translate(-0.01 0.01)"/>
    </g>
    <g id="R3-0603">
      <path id="path17526" class="cls-14" d="M22.72,60.53H19.77V55.2h2.95Z" transform="translate(-0.01 0.01)"/>
      <path id="path17528" class="cls-12" d="M22.73,55.73h-3v-1h3Z" transform="translate(-0.01 0.01)"/>
      <path id="path17530" class="cls-12" d="M22.73,61.39h-3v-1h3Z" transform="translate(-0.01 0.01)"/>
    </g>
    <g id="R1-0603">
      <path id="path17534" class="cls-14" d="M60.4,61.17H57.45V55.73H60.4Z" transform="translate(-0.01 0.01)"/>
      <path id="path17536" class="cls-12" d="M60.43,56h-3V55h3Z" transform="translate(-0.01 0.01)"/>
      <path id="path17538" class="cls-12" d="M60.43,61.71h-3v-1h3Z" transform="translate(-0.01 0.01)"/>
    </g>
    <g id="amperka-logo">
      <path id="path532-5-4-9-8-5-6-8-0" d="M10.84,11a2,2,0,1,1-2,2,2,2,0,0,1,2-2m0,5.32A3.28,3.28,0,1,0,7.56,13h0a3.28,3.28,0,0,0,3.28,3.28h0" transform="translate(-0.01 0.01)"/>
      <path id="path536-1-4-0-5-1-3-3-2" d="M10.84,4.57a2.29,2.29,0,1,1-.05,0h.05m0,1.24a1,1,0,1,0,1,1,1,1,0,0,0-1-1" transform="translate(-0.01 0.01)"/>
      <path id="path540-3-7-2-9-1-0-6-4" d="M11.18,18.43a5.49,5.49,0,0,0,5.07-5.09,5.36,5.36,0,0,0-1.18-3.77l.4-.4a.63.63,0,0,0,.06-.85.6.6,0,0,0-.85-.06h0v.05l-.89.89a.54.54,0,0,0,0,.76A4.28,4.28,0,0,1,15,12.75,4.22,4.22,0,1,1,7.84,10h0a.54.54,0,0,0,0-.76L7,8.31a.6.6,0,1,0-.89.81h0l.42.42A5.41,5.41,0,0,0,5.34,13a5.47,5.47,0,0,0,5.48,5.46h.36" transform="translate(-0.01 0.01)"/>
    </g>
  </g>
  <g id="L1-5mm">
    <circle id="circle17852" class="cls-15" cx="35.98" cy="35.18" r="3.7"/>
    <circle id="circle17854" class="cls-16" cx="35.82" cy="35.2" r="1.4"/>
    <circle id="circle17856" class="cls-17" cx="35.87" cy="34.93" r="7.35"/>
    <path id="path17858" class="cls-18" d="M35.16,31.08A4.82,4.82,0,0,1,36.23,31a4.7,4.7,0,0,1,.92.09l.38-1.83a7,7,0,0,0-1.3-.13,9.26,9.26,0,0,0-1.65.18Zm-1.84-1.26a6.43,6.43,0,0,0-3.38,7l1.82-.41a5.83,5.83,0,0,1-.07-.84,4.57,4.57,0,0,1,2.34-4Z" transform="translate(-0.01 0.01)"/>
    <circle id="circle17860" class="cls-19" cx="35.92" cy="35.11" r="7.47"/>
    <ellipse id="ellipse60942-58-7-1" class="cls-20" cx="34.73" cy="35.38" rx="17.35" ry="17.69"/>
    <ellipse id="ellipse60944-02-5-2" class="cls-21" cx="35.39" cy="35.36" rx="28.32" ry="20.63"/>
    <ellipse id="ellipse60946-76-0-6" class="cls-22" cx="33.98" cy="34.49" rx="13.83" ry="14.87"/>
    <ellipse id="ellipse60944-02-5-2-5" class="cls-23" cx="35.39" cy="35.43" rx="11.53" ry="8.83"/>
  </g>
</svg>
