<svg id="troyka-gps-glonass-v2" xmlns="http://www.w3.org/2000/svg" xmlns:xlink="http://www.w3.org/1999/xlink" width="57.39mm" height="25.42mm" viewBox="0 0 162.69 72.07">
  <defs>
    <style>
      .cls-1, .cls-16 {
        fill: #f2f2f2;
      }

      .cls-1, .cls-13, .cls-2, .cls-49 {
        stroke: #000;
      }

      .cls-1 {
        stroke-miterlimit: 1;
        stroke-width: 0.5px;
      }

      .cls-18, .cls-2, .cls-25, .cls-47 {
        fill: none;
      }

      .cls-13, .cls-18, .cls-2 {
        stroke-width: 0.25px;
      }

      .cls-12, .cls-3 {
        isolation: isolate;
        font-size: 5px;
        font-family: TrebuchetMS, Trebuchet MS;
      }

      .cls-4 {
        fill: #d0d1d0;
      }

      .cls-37, .cls-5 {
        fill: #b7b8b9;
      }

      .cls-6 {
        fill: #40bb6a;
      }

      .cls-7 {
        fill: #918f90;
      }

      .cls-38, .cls-8 {
        fill: #d7d3d5;
      }

      .cls-11, .cls-50, .cls-9 {
        fill: #fff;
      }

      .cls-9 {
        fill-opacity: 0.49;
      }

      .cls-10, .cls-39 {
        fill: #545152;
      }

      .cls-11 {
        fill-opacity: 0.51;
      }

      .cls-12 {
        letter-spacing: -0.04em;
      }

      .cls-13 {
        fill: #d40000;
        fill-opacity: 0;
        stroke-linecap: round;
        stroke-linejoin: round;
      }

      .cls-14 {
        fill: #c18e40;
        fill-opacity: 0.85;
        stroke: #937225;
        stroke-width: 0.2px;
      }

      .cls-15 {
        fill: #e6e6e6;
        stroke: #a0a0a0;
        stroke-width: 0.11px;
      }

      .cls-16 {
        stroke: #cfcfcf;
        stroke-width: 0.12px;
      }

      .cls-17, .cls-23 {
        fill: #ccc;
      }

      .cls-17 {
        stroke: #676051;
        stroke-width: 0.07px;
      }

      .cls-18 {
        stroke: url(#Безымянный_градиент);
      }

      .cls-19 {
        fill: url(#Безымянный_градиент_2);
      }

      .cls-20 {
        fill: url(#Безымянный_градиент_3);
      }

      .cls-21 {
        fill: url(#Безымянный_градиент_4);
      }

      .cls-22 {
        fill: url(#Безымянный_градиент_5);
      }

      .cls-24 {
        fill: url(#Безымянный_градиент_6);
      }

      .cls-25, .cls-49 {
        stroke-width: 0.05px;
      }

      .cls-25 {
        stroke: url(#Безымянный_градиент_7);
      }

      .cls-26, .cls-42, .cls-44 {
        fill: #b3b3b3;
      }

      .cls-26 {
        stroke: #645d5d;
      }

      .cls-26, .cls-27 {
        stroke-width: 0.04px;
      }

      .cls-27, .cls-43, .cls-45 {
        fill: gray;
      }

      .cls-27 {
        stroke: #656565;
      }

      .cls-28 {
        fill: #666;
      }

      .cls-29 {
        fill: #8d8c8c;
      }

      .cls-30 {
        fill: #8c8663;
      }

      .cls-31 {
        fill: #b8af82;
      }

      .cls-32 {
        fill: #80795b;
      }

      .cls-33 {
        fill: #5e5b43;
      }

      .cls-34 {
        fill: #9a916c;
      }

      .cls-35 {
        fill: #d72e13;
      }

      .cls-36 {
        fill: #d2d1d3;
        stroke-opacity: 0.8;
      }

      .cls-36, .cls-37, .cls-38, .cls-39, .cls-40, .cls-46 {
        stroke: #0d0000;
      }

      .cls-36, .cls-44, .cls-45 {
        stroke-width: 0.01px;
      }

      .cls-37, .cls-38, .cls-39, .cls-40, .cls-46, .cls-47 {
        stroke-width: 0.02px;
      }

      .cls-40 {
        fill: #a3774c;
      }

      .cls-41, .cls-46 {
        fill: #404040;
      }

      .cls-44, .cls-45 {
        stroke: #150e0e;
      }

      .cls-46 {
        stroke-opacity: 0.93;
      }

      .cls-47 {
        stroke: #1c1c1c;
      }

      .cls-48 {
        fill: #f9f9f9;
        stroke: #8c8c8c;
        stroke-width: 0.08px;
      }

      .cls-49 {
        fill: #5b5b5b;
      }

      .cls-50 {
        fill-opacity: 0.52;
      }
    </style>
    <linearGradient id="Безымянный_градиент" data-name="Безымянный градиент" x1="-725.56" y1="264.64" x2="-708.4" y2="264.64" gradientTransform="translate(-736.94 -2065.22) rotate(-90) scale(2.93 2.9)" gradientUnits="userSpaceOnUse">
      <stop offset="0" stop-color="#937225"/>
      <stop offset="1" stop-color="#937225" stop-opacity="0"/>
    </linearGradient>
    <linearGradient id="Безымянный_градиент_2" data-name="Безымянный градиент 2" x1="-2299.87" y1="273.88" x2="-2298.24" y2="273.88" gradientTransform="translate(-728.19 -718.64) rotate(-90) scale(0.34 2.77)" gradientUnits="userSpaceOnUse">
      <stop offset="0" stop-color="#ecdcc3"/>
      <stop offset="1" stop-color="#ecdcc3" stop-opacity="0"/>
    </linearGradient>
    <linearGradient id="Безымянный_градиент_3" data-name="Безымянный градиент 3" x1="-6651.68" y1="1074.66" x2="-6645.48" y2="1074.66" gradientTransform="translate(-699.68 -642.97) rotate(-90) scale(0.1 0.68)" xlink:href="#Безымянный_градиент_2"/>
    <linearGradient id="Безымянный_градиент_4" data-name="Безымянный градиент 4" x1="6147.88" y1="1207.15" x2="6154.09" y2="1207.15" gradientTransform="translate(-471.28 -784.38) scale(0.08 0.68)" xlink:href="#Безымянный_градиент_2"/>
    <linearGradient id="Безымянный_градиент_5" data-name="Безымянный градиент 5" x1="-7144.07" y1="1194.61" x2="-7137.87" y2="1194.61" gradientTransform="matrix(-0.08, 0, 0, 0.69, -499.57, -788.58)" xlink:href="#Безымянный_градиент_2"/>
    <linearGradient id="Безымянный_градиент_6" data-name="Безымянный градиент 6" x1="15835.33" y1="3131.58" x2="15841.54" y2="3131.58" gradientTransform="matrix(0.04, 0.03, -0.05, 0.04, -473.01, -589.85)" xlink:href="#Безымянный_градиент_2"/>
    <linearGradient id="Безымянный_градиент_7" data-name="Безымянный градиент 7" x1="-702.91" y1="259.76" x2="-690.09" y2="259.76" gradientTransform="translate(-722.47 -1989.45) rotate(-90) scale(2.9)" gradientUnits="userSpaceOnUse">
      <stop offset="0" stop-color="#2b2b2b"/>
      <stop offset="1"/>
    </linearGradient>
  </defs>
  <title>troyka-gps-glonass-v2</title>
  <path id="rect3082-2-4-3-2-5-0-0" class="cls-1" d="M4.74.25A4.49,4.49,0,0,1,.27,4.74h0V67.32a4.49,4.49,0,0,1,4.49,4.49H67.32a4.49,4.49,0,0,1,4.48-4.5h0V4.74A4.49,4.49,0,0,1,67.32.26H4.74Z" transform="translate(0 0)"/>
  <path id="rect6749-8-2-4-2-4-4-1-7" class="cls-2" d="M46.7.36V8.24a.2.2,0,0,1-.14.08H39.71c-.08,0-.14,0-.14-.08V.36a.2.2,0,0,1,.14-.08h6.85C46.64.28,46.7.32,46.7.36Z" transform="translate(0 0)"/>
  <path id="rect6749-9-8-5-5-0-7-9-3-8" class="cls-2" d="M39.6.36V8.24a.24.24,0,0,1-.14.08H32.61c-.08,0-.14,0-.14-.08V.36a.2.2,0,0,1,.14-.08h6.85C39.53.28,39.6.32,39.6.36Z" transform="translate(0 0)"/>
  <path id="rect6749-9-3-2-0-9-4-3-5-5-0" class="cls-2" d="M32.5.36V8.24a.24.24,0,0,1-.14.08H25.51c-.08,0-.14,0-.14-.08V.36a.2.2,0,0,1,.14-.08h6.85C32.43.28,32.5.32,32.5.36Z" transform="translate(0 0)"/>
  <path id="rect6749-8-2-4-2-4-4-1-4-6" class="cls-2" d="M46.7,71.74V63.86a.2.2,0,0,0-.14-.08H39.71c-.08,0-.14,0-.14.08v7.88a.2.2,0,0,0,.14.08h6.85C46.64,71.82,46.7,71.79,46.7,71.74Z" transform="translate(0 0)"/>
  <path id="rect6749-9-8-5-5-0-7-9-3-2-5" class="cls-2" d="M39.6,71.74V63.86a.24.24,0,0,0-.14-.08H32.61c-.08,0-.14,0-.14.08v7.88a.2.2,0,0,0,.14.08h6.85C39.53,71.82,39.6,71.79,39.6,71.74Z" transform="translate(0 0)"/>
  <path id="rect6749-9-3-2-0-9-4-3-5-5-4-9" class="cls-2" d="M32.5,71.74V63.86a.24.24,0,0,0-.14-.08H25.51c-.08,0-.14,0-.14.08v7.88a.2.2,0,0,0,.14.08h6.85C32.43,71.82,32.5,71.79,32.5,71.74Z" transform="translate(0 0)"/>
  <g id="text3369-4-1-0-2-0-9-4-7-9-6-6">
    <text class="cls-3" transform="translate(34.57 69.57)">V</text>
  </g>
  <g id="text3369-4-1-0-2-0-9-4-7-9-7-8">
    <text class="cls-3" transform="translate(41.53 69.59)">G</text>
  </g>
  <path id="path6859-4-3-0-1-9-0-1-6" class="cls-4" d="M20.92,5.6H14.4V2.9h6.52Z" transform="translate(0 0)"/>
  <path id="path6871-9-6-0-4-5-4-3-0" class="cls-5" d="M14.9,3.12a.21.21,0,0,1,.21-.21h5.1a.21.21,0,0,1,.21.21V5.38a.21.21,0,0,1-.21.21h-5.1a.23.23,0,0,1-.21-.21Z" transform="translate(0 0)"/>
  <path id="path6873-8-4-1-5-5-5-4-1" class="cls-6" d="M15.87,5.59h3.51V2.91H15.87Z" transform="translate(0 0)"/>
  <path id="path6877-7-1-7-5-9-6-0-2" class="cls-6" d="M19.35,2.94H15.89V5.57h3.46Zm.06,0V5.59H15.86V2.91h3.52" transform="translate(0 0)"/>
  <path id="path6879-87-7-8-1-1-8-3-6" class="cls-7" d="M19.28,3H16V5.49h3.31Zm.2-.11V5.59a.1.1,0,0,1-.09.11H15.87a.11.11,0,0,1-.11-.11V2.91a.11.11,0,0,1,.11-.1h3.51a.09.09,0,0,1,.1.1h0" transform="translate(0 0)"/>
  <path id="path6881-0-8-1-8-3-8-6-5" class="cls-8" d="M15.89,5.59h-.57V2.88h.57Z" transform="translate(0 0)"/>
  <path id="path6875-42-1-4-9-5-0-3-7" class="cls-7" d="M19.3,3H15.94v2.5H19.3ZM19.46,3V5.59a.09.09,0,0,1-.08.08H15.87s-.07,0-.08-.06V2.92s0-.07.06-.08h3.53a.09.09,0,0,1,.08.08" transform="translate(0 0)"/>
  <path id="path6883-46-4-9-5-9-8-8-3" class="cls-8" d="M20,5.59h-.56V2.88H20Z" transform="translate(0 0)"/>
  <path id="path6897-5-1-0-5-0-7-5-0" class="cls-9" d="M15.89,3h3.49V5.57H15.89Z" transform="translate(0 0)"/>
  <path id="path6963-86-8-2-6-0-1-1-7" class="cls-10" d="M18.89,4.48h-.42v-.4h.42Z" transform="translate(0 0)"/>
  <path id="path6859-4-3-0-1-9-0-7-4" class="cls-4" d="M58,5.6H51.51V2.9H58Z" transform="translate(0 0)"/>
  <path id="path6871-9-6-0-4-5-4-2-1" class="cls-5" d="M52,3.12a.21.21,0,0,1,.21-.21h5.1a.21.21,0,0,1,.21.21V5.38a.21.21,0,0,1-.21.21H52.22a.22.22,0,0,1-.2-.21Z" transform="translate(0 0)"/>
  <path id="path6873-8-4-1-5-5-5-7-8" class="cls-6" d="M53,5.59h3.52V2.91H53Z" transform="translate(0 0)"/>
  <path id="path6877-7-1-7-5-9-6-3-9" class="cls-6" d="M56.46,2.94H53V5.57h3.46Zm.06,0V5.59H53V2.91h3.52" transform="translate(0 0)"/>
  <path id="path6879-87-7-8-1-1-8-9-2" class="cls-7" d="M56.38,3h-3.3V5.49h3.3Zm.21-.11V5.59a.1.1,0,0,1-.09.11H53a.11.11,0,0,1-.1-.11V2.91a.11.11,0,0,1,.1-.1h3.52a.09.09,0,0,1,.1.1" transform="translate(0 0)"/>
  <path id="path6881-0-8-1-8-3-8-3-7" class="cls-8" d="M53,5.59h-.57V2.88H53Z" transform="translate(0 0)"/>
  <path id="path6875-42-1-4-9-5-0-2-6" class="cls-7" d="M56.41,3H53v2.5h3.36ZM56.57,3V5.59a.09.09,0,0,1-.08.08H53A.07.07,0,0,1,53,5.6h0V2.92s0-.07.06-.08h3.53a.09.09,0,0,1,.08.08h0" transform="translate(0 0)"/>
  <path id="path6883-46-4-9-5-9-8-4-5" class="cls-8" d="M57.11,5.59h-.56V2.88h.56Z" transform="translate(0 0)"/>
  <path id="path6897-5-1-0-5-0-7-8-1" class="cls-11" d="M53,3h3.49V5.57H53Z" transform="translate(0 0)"/>
  <path id="path6963-86-8-2-6-0-1-7-9" class="cls-10" d="M56,4.48H55.6v-.4H56Z" transform="translate(0 0)"/>
  <g id="text4180-1-7-6">
    <text class="cls-3" transform="translate(26.09 69.6)">TX</text>
  </g>
  <g id="text4202-5-2-0">
    <text class="cls-12" transform="translate(27.46 6.1)">P</text>
  </g>
  <g id="text4180-6-0-9-0">
    <text class="cls-3" transform="translate(40.11 6.11)">RX</text>
  </g>
  <path id="rect5077-4-3" class="cls-13" d="M7.65,10.07,4.18,13.33V59.72A2.51,2.51,0,0,0,6.86,62H54.18a2.49,2.49,0,0,0,2.67-2.28V12.35a2.49,2.49,0,0,0-2.67-2.28Z" transform="translate(0 0)"/>
  <path id="rect5077-3-6-0" class="cls-14" d="M9,11.64l-3.28,3V58a2.35,2.35,0,0,0,2.52,2.14H52.79A2.37,2.37,0,0,0,55.31,58V13.77a2.35,2.35,0,0,0-2.52-2.13Z" transform="translate(0 0)"/>
  <path id="rect6280-2-8" class="cls-15" d="M50.55,16l-3.07-2.8H11.1V47.49l3.35,3h36.1Z" transform="translate(0 0)"/>
  <circle id="path7866-7-7" class="cls-16" cx="32.49" cy="30.99" r="2.19"/>
  <path id="path10863-3-8-8" class="cls-17" d="M31.85,29.21c-.55.4-.51,1.35.09,2.13h0c.6.78,1.53,1.08,2.08.68h0c.56-.4.52-1.35-.08-2.13h0A2,2,0,0,0,32.43,29h0a1,1,0,0,0-.58.18" transform="translate(0 0)"/>
  <path id="rect5077-3-0-5-1" class="cls-18" d="M9,10.6l-3.3,3.11V58a2.36,2.36,0,0,0,2.52,2.18H52.8A2.36,2.36,0,0,0,55.31,58V12.78A2.36,2.36,0,0,0,52.8,10.6Z" transform="translate(0 0)"/>
  <path id="rect5077-3-4-6-4" class="cls-19" d="M7,59.6a6,6,0,0,0,2.38.24H51.5a6,6,0,0,0,2.38-.24v-.24H7Z" transform="translate(0 0)"/>
  <path id="rect5077-3-7-0-3" class="cls-20" d="M9.28,12.12H52.9v-.34a5,5,0,0,0-2.21-.26H12.15l-2.87.38Z" transform="translate(0 0)"/>
  <path id="rect5077-3-7-5-8-5" class="cls-21" d="M6,14.73V58.24h.26a6.06,6.06,0,0,0,.2-2.2V17.6l-.29-2.87Z" transform="translate(0 0)"/>
  <path id="rect5077-3-7-5-1-3-3" class="cls-22" d="M55.18,13.75v43.9h-.26a6,6,0,0,1-.21-2.23V16.64l.3-2.89Z" transform="translate(0 0)"/>
  <path id="path10863-3-4-75-7" class="cls-23" d="M55,57.17c-.4-.55-1.35-.52-2.13.08h0c-.78.6-1.09,1.54-.68,2.09h0c.4.55,1.35.51,2.13-.09h0a2,2,0,0,0,.86-1.5h0a1,1,0,0,0-.18-.58" transform="translate(0 0)"/>
  <path id="path10863-3-4-7-2-2" class="cls-23" d="M55.17,13.61c-.21.65-1.13.9-2.06.57h0c-.92-.33-1.5-1.13-1.29-1.78h0c.22-.64,1.14-.9,2.06-.57h0A2,2,0,0,1,55.16,13h0a1.06,1.06,0,0,1,0,.61" transform="translate(0 0)"/>
  <path id="path10863-3-4-5-5-7" class="cls-23" d="M6.13,56.87c.49-.53,1.45-.34,2.14.43h0a1.84,1.84,0,0,1,.38,2.34h0c-.49.53-1.45.33-2.14-.43h0a2.32,2.32,0,0,1-.65-1.75h0a1.07,1.07,0,0,1,.27-.59" transform="translate(0 0)"/>
  <path id="rect5077-3-7-5-6-3-4" class="cls-24" d="M9.27,11.89,6,14.73l.13.11a.26.26,0,0,0,.28-.06l2.92-2.51L9.36,12Z" transform="translate(0 0)"/>
  <path id="rect6280-5-8-1" class="cls-25" d="M50.34,16.2l-3-2.76h-36v34l3.31,2.94H50.34Z" transform="translate(0 0)"/>
  <path id="path536-1-4-8-6-9" d="M63.7,31.29a1.86,1.86,0,1,0,1.86,1.86,1.86,1.86,0,0,0-1.86-1.86h0m0,1a.85.85,0,1,1-.84.86v0a.86.86,0,0,1,.84-.84" transform="translate(0 0)"/>
  <path id="path540-3-7-2-6-6" d="M63.39,42.68a4.5,4.5,0,0,1-4.17-4.19,4.45,4.45,0,0,1,1-3.09l-.33-.32a.51.51,0,0,1,0-.7.5.5,0,0,1,.71,0l0,0,.73.73a.44.44,0,0,1,0,.61l0,0A3.53,3.53,0,0,0,60.24,38a3.47,3.47,0,1,0,5.91-2.24h0a.45.45,0,0,1,0-.63l.72-.72a.52.52,0,0,1,.7,0,.5.5,0,0,1,0,.71s0,0,0,0l-.35.34a4.48,4.48,0,0,1-.69,6.3,4.54,4.54,0,0,1-3.13,1" transform="translate(0 0)"/>
  <path id="path532-5-4-8-1-6" d="M63.7,36.53a1.68,1.68,0,1,0,1.68,1.68,1.68,1.68,0,0,0-1.68-1.68h0m0,4.37a2.7,2.7,0,1,1,2.7-2.7h0a2.7,2.7,0,0,1-2.7,2.69" transform="translate(0 0)"/>
  <path id="rect3082-8-7-7-2-4" class="cls-1" d="M95.36.25a4.49,4.49,0,0,1-4.49,4.49h0V67.32a4.49,4.49,0,0,1,4.5,4.48v0h62.58a4.49,4.49,0,0,1,4.48-4.5h0V4.74a4.49,4.49,0,0,1-4.5-4.48H95.36Z" transform="translate(0 0)"/>
  <path id="rect6749-82-8-8-2-2-8" class="cls-2" d="M137.31.45V18.89c0,.11-.06.19-.14.19h-6.84c-.08,0-.14-.08-.14-.19V.45c0-.1.06-.19.14-.19h6.84C137.25.26,137.31.35,137.31.45Z" transform="translate(0 0)"/>
  <path id="rect6749-9-1-3-6-3-6-9" class="cls-2" d="M130.21.45V18.89c0,.11-.06.19-.14.19h-6.84c-.08,0-.14-.08-.14-.19V.45c0-.11.06-.19.14-.19h6.84C130.15.26,130.21.34,130.21.45Z" transform="translate(0 0)"/>
  <path id="rect6749-9-3-1-0-6-1-8-4" class="cls-2" d="M123.11.45V18.89c0,.11-.06.19-.14.19h-6.85a.18.18,0,0,1-.14-.19V.45a.18.18,0,0,1,.14-.19H123A.28.28,0,0,1,123.11.45Z" transform="translate(0 0)"/>
  <g id="text25926-6-1">
    <text class="cls-3" transform="translate(154.74 20.87) rotate(90)">GPS/GLONASS</text>
  </g>
  <path id="rect6749-82-8-8-3-1" class="cls-2" d="M116,71.63V53.19a.18.18,0,0,1,.14-.19H123c.08,0,.14.08.14.19V71.63c0,.11-.06.19-.14.19h-6.9A.17.17,0,0,1,116,71.63Z" transform="translate(0 0)"/>
  <path id="rect6749-9-1-3-6-2-6" class="cls-2" d="M123.09,71.63V53.19c0-.11.06-.19.14-.19h6.84c.08,0,.14.08.14.19V71.63c0,.11-.06.19-.14.19h-6.84C123.15,71.82,123.09,71.74,123.09,71.63Z" transform="translate(0 0)"/>
  <path id="rect6749-9-3-1-0-6-5-9" class="cls-2" d="M130.19,71.63V53.19c0-.11.06-.19.14-.19h6.84c.08,0,.14.08.14.19V71.63c0,.11-.06.19-.14.19h-6.84C130.25,71.82,130.19,71.74,130.19,71.63Z" transform="translate(0 0)"/>
  <path id="path31391-6-1-3-0-8-4-7-0-3-8-9" class="cls-26" d="M134.42,60.53h-1.35V56.82h1.35Z" transform="translate(0 0)"/>
  <path id="path31393-3-1-6-7-7-8-9-9-9-4-1" class="cls-27" d="M134.12,60.54h-.75V58.37h.75Z" transform="translate(0 0)"/>
  <path id="path3235-4-5-9" class="cls-28" d="M131.78,60h4a.48.48,0,0,1,.48.47v4a.47.47,0,0,1-.48.48h-4a.47.47,0,0,1-.48-.46v-4a.47.47,0,0,1,.47-.47h0" transform="translate(0 0)"/>
  <path id="path3237-8-7-0" class="cls-29" d="M134.81,63.62h-2.13V61.38h2.13Z" transform="translate(0 0)"/>
  <path id="path3239-6-9-8" class="cls-30" d="M134.29,63.07H133.2V61.92h1.09Z" transform="translate(0 0)"/>
  <path id="path3243-0-60-1" class="cls-31" d="M134.29,63.07H133.2l-.52.55h2.13Z" transform="translate(0 0)"/>
  <path id="path3247-0-9-9" class="cls-32" d="M133.2,63.07l-.52.55V61.38l.52.54Z" transform="translate(0 0)"/>
  <path id="path3251-6-69-8" class="cls-33" d="M133.2,61.92l-.52-.54h2.13l-.52.54Z" transform="translate(0 0)"/>
  <path id="path3255-3-9-0" class="cls-34" d="M134.29,63.07V61.92l.52-.54v2.24Z" transform="translate(0 0)"/>
  <path id="path31391-6-1-3-0-8-4-7-0-31-1" class="cls-26" d="M120.23,60.44h-1.35V56.72h1.35Z" transform="translate(0 0)"/>
  <path id="path31393-3-1-6-7-7-8-9-9-2-4" class="cls-27" d="M119.93,60.45h-.75V58.28h.75Z" transform="translate(0 0)"/>
  <path id="path3227-8-1-3" class="cls-28" d="M122,62.59a2.46,2.46,0,1,1-2.47-2.45h0A2.47,2.47,0,0,1,122,62.59" transform="translate(0 0)"/>
  <path id="path3257-8-2-0" class="cls-29" d="M120.62,63.71h-2.13V61.47h2.13Z" transform="translate(0 0)"/>
  <path id="path3259-9-9-6" class="cls-30" d="M120.1,63.17H119V62h1.09Z" transform="translate(0 0)"/>
  <path id="path3263-4-4-1" class="cls-31" d="M120.62,63.71l-.52-.54H119l-.52.54Z" transform="translate(0 0)"/>
  <path id="path3267-6-5-1" class="cls-32" d="M119,62v1.16l-.52.54V61.47Z" transform="translate(0 0)"/>
  <path id="path3271-6-2-1" class="cls-33" d="M120.1,62H119l-.52-.54h2.13Z" transform="translate(0 0)"/>
  <path id="path3275-1-1-6" class="cls-34" d="M120.62,63.71l-.52-.54V62l.52-.54Z" transform="translate(0 0)"/>
  <path id="path31391-6-1-3-0-8-4-7-7-1-4" class="cls-26" d="M127.32,64.47H126v3.72h1.34Z" transform="translate(0 0)"/>
  <path id="path31393-3-1-6-7-7-8-9-1-8-3" class="cls-27" d="M127,64.46h-.76v2.17H127Z" transform="translate(0 0)"/>
  <path id="path3231-0-6-7" class="cls-28" d="M129.1,62.5A2.45,2.45,0,1,1,126.65,60a2.45,2.45,0,0,1,2.45,2.48h0" transform="translate(0 0)"/>
  <path id="path3277-8-8-9" class="cls-29" d="M127.71,63.62h-2.12V61.38h2.12Z" transform="translate(0 0)"/>
  <path id="path3279-4-3-9" class="cls-30" d="M127.2,63.07h-1.1V61.92h1.1Z" transform="translate(0 0)"/>
  <path id="path3283-6-9-5" class="cls-31" d="M127.2,63.07h-1.1l-.51.55h2.12Z" transform="translate(0 0)"/>
  <path id="path3287-7-1-7" class="cls-32" d="M126.1,63.07l-.51.55V61.38l.51.54Z" transform="translate(0 0)"/>
  <path id="path3291-8-2-1" class="cls-33" d="M126.1,61.92l-.51-.54h2.12l-.51.54Z" transform="translate(0 0)"/>
  <path id="path3295-9-8-0" class="cls-34" d="M127.2,63.07V61.92l.51-.54v2.24Z" transform="translate(0 0)"/>
  <path id="path3297-1-0-1" class="cls-29" d="M127.71,63.62h-2.12V61.38h2.12Z" transform="translate(0 0)"/>
  <path id="path3299-3-4-1" class="cls-30" d="M127.2,63.07h-1.1V61.92h1.1Z" transform="translate(0 0)"/>
  <path id="path3303-9-6-3" class="cls-31" d="M127.71,63.62l-.51-.55h-1.1l-.51.55Z" transform="translate(0 0)"/>
  <path id="path3307-4-6-0" class="cls-32" d="M126.1,61.92v1.15l-.51.55V61.38Z" transform="translate(0 0)"/>
  <path id="path3311-7-3-0" class="cls-33" d="M127.2,61.92h-1.1l-.51-.54h2.12Z" transform="translate(0 0)"/>
  <path id="path3315-3-7-6" class="cls-34" d="M127.71,63.62l-.51-.55V61.92l.51-.54Z" transform="translate(0 0)"/>
  <g id="text3369-4-3-2">
    <text class="cls-3" transform="translate(125.22 58.24)">V</text>
  </g>
  <g id="text3341-3-0-1">
    <text class="cls-3" transform="translate(118.14 69.77)">G</text>
  </g>
  <g id="text4180-0-1">
    <text class="cls-3" transform="translate(131.25 69.91)">TX</text>
  </g>
  <g id="text4180-6-9-3">
    <text class="cls-3" transform="translate(116.92 5.31)">RX</text>
  </g>
  <g id="text4202-7-9">
    <text class="cls-12" transform="translate(132.32 5.82)">P</text>
  </g>
  <path id="path31391-6-1-3-0-8-4-7-8-0" class="cls-26" d="M120.23,11.75h-1.35v3.72h1.35Z" transform="translate(0 0)"/>
  <path id="path31393-3-1-6-7-7-8-9-2-5" class="cls-27" d="M119.93,11.74h-.75v2.17h.75Z" transform="translate(0 0)"/>
  <path id="path3235-4-3-1-2" class="cls-28" d="M121.52,12.18h-4a.47.47,0,0,1-.48-.48h0V7.75a.5.5,0,0,1,.48-.48h4a.47.47,0,0,1,.48.48h0V11.7a.47.47,0,0,1-.46.48h0" transform="translate(0 0)"/>
  <path id="path3237-8-2-3-2" class="cls-29" d="M118.49,8.61h2.13v2.24h-2.13Z" transform="translate(0 0)"/>
  <path id="path3239-6-2-6-6" class="cls-30" d="M119,9.15h1.09v1.16H119Z" transform="translate(0 0)"/>
  <path id="path3243-0-6-1-6" class="cls-31" d="M119,9.15h1.09l.52-.54H118.5Z" transform="translate(0 0)"/>
  <path id="path3247-0-5-2-6" class="cls-32" d="M120.1,9.15l.52-.54v2.24l-.52-.54Z" transform="translate(0 0)"/>
  <path id="path3251-6-6-0-4" class="cls-33" d="M120.1,10.31l.52.54h-2.13l.52-.54Z" transform="translate(0 0)"/>
  <path id="path3255-3-8-3-9" class="cls-34" d="M119,9.15v1.16l-.52.54V8.61Z" transform="translate(0 0)"/>
  <path id="path31391-6-1-3-0-8-4-3-9" class="cls-26" d="M127.32,7.51H126V3.79h1.34Z" transform="translate(0 0)"/>
  <path id="path31393-3-1-6-7-7-8-8-3" class="cls-27" d="M127,7.51h-.76V5.34H127Z" transform="translate(0 0)"/>
  <path id="path3231-0-4-7-6" class="cls-28" d="M124.2,9.73a2.45,2.45,0,1,1,2.45,2.45h0a2.45,2.45,0,0,1-2.45-2.45" transform="translate(0 0)"/>
  <path id="path3277-8-3-4-5" class="cls-29" d="M125.59,8.61h2.12v2.24h-2.12Z" transform="translate(0 0)"/>
  <path id="path3279-4-4-9-9" class="cls-30" d="M126.1,9.15h1.1v1.16h-1.1Z" transform="translate(0 0)"/>
  <path id="path3283-6-1-4-9" class="cls-31" d="M126.1,9.15h1.1l.51-.54h-2.12Z" transform="translate(0 0)"/>
  <path id="path3287-7-8-2-2" class="cls-32" d="M127.2,9.15l.51-.54v2.24l-.51-.54Z" transform="translate(0 0)"/>
  <path id="path3291-8-4-3-2" class="cls-33" d="M127.2,10.31l.51.54h-2.12l.51-.54Z" transform="translate(0 0)"/>
  <path id="path3295-9-7-1-6" class="cls-34" d="M126.1,9.15v1.16l-.51.54V8.61Z" transform="translate(0 0)"/>
  <path id="path3297-1-7-4-8" class="cls-29" d="M125.59,8.61h2.12v2.24h-2.12Z" transform="translate(0 0)"/>
  <path id="path3299-3-9-3-6" class="cls-30" d="M126.1,9.15h1.1v1.16h-1.1Z" transform="translate(0 0)"/>
  <path id="path3303-9-1-4-1" class="cls-31" d="M125.59,8.61l.51.54h1.09l.52-.54Z" transform="translate(0 0)"/>
  <path id="path3307-4-8-1-2" class="cls-32" d="M127.2,10.31V9.15l.51-.54v2.24Z" transform="translate(0 0)"/>
  <path id="path3311-7-5-0-2" class="cls-33" d="M126.1,10.31h1.1l.51.54h-2.12Z" transform="translate(0 0)"/>
  <path id="path3315-3-2-6-1" class="cls-34" d="M125.59,8.61l.51.54v1.16l-.51.54Z" transform="translate(0 0)"/>
  <path id="path31391-6-1-3-0-8-4-7-4-4-8" class="cls-26" d="M134.42,11.79h-1.35v3.72h1.35Z" transform="translate(0 0)"/>
  <path id="path31393-3-1-6-7-7-8-9-4-2-9" class="cls-27" d="M134.12,11.79h-.75V14h.75Z" transform="translate(0 0)"/>
  <path id="path3227-8-6-9-7" class="cls-28" d="M131.3,9.68a2.46,2.46,0,1,1,2.46,2.46h0a2.45,2.45,0,0,1-2.45-2.45h0" transform="translate(0 0)"/>
  <path id="path3257-8-9-0-1" class="cls-29" d="M132.68,8.57h2.13V10.8h-2.13Z" transform="translate(0 0)"/>
  <path id="path3259-9-2-5-0" class="cls-30" d="M133.2,9.11h1.09v1.15H133.2Z" transform="translate(0 0)"/>
  <path id="path3263-4-9-0-4" class="cls-31" d="M132.68,8.57l.52.54h1.09l.52-.54Z" transform="translate(0 0)"/>
  <path id="path3267-6-4-2-6" class="cls-32" d="M134.29,10.26V9.11l.52-.54V10.8Z" transform="translate(0 0)"/>
  <path id="path3271-6-1-7-5" class="cls-33" d="M133.2,10.26h1.09l.52.54h-2.13Z" transform="translate(0 0)"/>
  <path id="path3275-1-3-0-7" class="cls-34" d="M132.68,8.57l.52.54v1.15l-.52.54Z" transform="translate(0 0)"/>
  <path id="path17005-0-2" class="cls-35" d="M135.93,14.25h0V14.2H136" transform="translate(0 0)"/>
  <rect id="rect21332-8-1-9-3-8-2-40-6-2-0-6-6-0-5-6-4-8-7-3-3" class="cls-36" x="103.96" y="7.53" width="2.59" height="2.79"/>
  <rect id="rect21332-1-0-1-9-2-7-0-7-0-5-7-7-1-8-9-6-4-7-9-53-4" class="cls-36" x="100.09" y="7.53" width="2.59" height="2.79"/>
  <path id="path26337-9-7-8-6-4-8-3-3-3-3-2-4-8-2-2-7-9-1-5-7-4-4" class="cls-37" d="M100.93,7.75a.19.19,0,0,1,.17-.21h4.38a.2.2,0,0,1,.17.21v2.32a.19.19,0,0,1-.17.21H101.1c-.1,0-.17-.09-.17-.21Z" transform="translate(0 0)"/>
  <path id="path26345-3-6-9-3-6-4-2-5-6-8-7-9-0-90-3-1-3-9-2-2-0-4" class="cls-38" d="M101.77,10.28h-.49V7.55h.49Z" transform="translate(0 0)"/>
  <path id="path26347-2-5-7-6-5-9-5-8-1-0-7-8-4-9-3-1-5-5-2-0-8-7" class="cls-38" d="M105.29,10.29h-.48V7.55h.48Z" transform="translate(0 0)"/>
  <path id="path26341-4-2-6-0-8-1-1-1-5-0-3-3-1-8-3-8-7-7-7-2-8-4" class="cls-39" d="M101.75,10.29h3.07V7.55h-3.07Z" transform="translate(0 0)"/>
  <rect id="rect21332-8-1-9-3-8-2-40-6-2-0-6-6-0-5-6-4-8-7-6-5-8" class="cls-36" x="143.48" y="9.03" width="2.59" height="2.79"/>
  <rect id="rect21332-1-0-1-9-2-7-0-7-0-5-7-7-1-8-9-6-4-7-9-5-3-4" class="cls-36" x="139.62" y="9.03" width="2.59" height="2.79"/>
  <path id="path26337-9-7-8-6-4-8-3-3-3-3-2-4-8-2-2-7-9-1-5-7-0-9-3" class="cls-37" d="M140.45,9.25a.2.2,0,0,1,.17-.23H145a.19.19,0,0,1,.17.21h0v2.32a.19.19,0,0,1-.17.21h-4.4a.19.19,0,0,1-.17-.21h0Z" transform="translate(0 0)"/>
  <path id="path26345-3-6-9-3-6-4-2-5-6-8-7-9-0-90-3-1-3-9-2-2-6-2-6" class="cls-38" d="M141.29,11.78h-.48V9h.48Z" transform="translate(0 0)"/>
  <path id="path26347-2-5-7-6-5-9-5-8-1-0-7-8-4-9-3-1-5-5-2-0-5-9-3" class="cls-38" d="M144.81,11.79h-.48V9h.48Z" transform="translate(0 0)"/>
  <path id="path26341-4-2-6-0-8-1-1-1-5-0-3-3-1-8-3-8-7-7-7-2-0-0-1" class="cls-39" d="M141.27,11.79h3.07V9h-3.07Z" transform="translate(0 0)"/>
  <rect id="rect21332-8-1-9-3-8-2-40-6-2-0-6-6-0-5-6-4-8-7-2-0-7" class="cls-36" x="109.02" y="63.69" width="2.59" height="2.79"/>
  <rect id="rect21332-1-0-1-9-2-7-0-7-0-5-7-7-1-8-9-6-4-7-9-2-3-3" class="cls-36" x="105.15" y="63.69" width="2.59" height="2.79"/>
  <path id="path26337-9-7-8-6-4-8-3-3-3-3-2-4-8-2-2-7-9-1-5-7-01-0-3" class="cls-37" d="M106,63.92a.19.19,0,0,1,.17-.21h4.38a.18.18,0,0,1,.18.2h0v2.31a.2.2,0,0,1-.18.22H106.2a.2.2,0,0,1-.18-.22h0Z" transform="translate(0 0)"/>
  <path id="path26345-3-6-9-3-6-4-2-5-6-8-7-9-0-90-3-1-3-9-2-2-8-5-0" class="cls-38" d="M106.83,66.45h-.49V63.71h.49Z" transform="translate(0 0)"/>
  <path id="path26347-2-5-7-6-5-9-5-8-1-0-7-8-4-9-3-1-5-5-2-0-1-7-0" class="cls-38" d="M110.35,66.45h-.48V63.71h.48Z" transform="translate(0 0)"/>
  <path id="path26341-4-2-6-0-8-1-1-1-5-0-3-3-1-8-3-8-7-7-7-2-4-9-7" class="cls-39" d="M106.81,66.45h3.06V63.71h-3.06Z" transform="translate(0 0)"/>
  <rect id="rect21332-8-1-9-3-8-2-40-6-2-0-6-6-0-5-6-4-8-7-5-3-7-6" class="cls-36" x="139.36" y="18.22" width="2.79" height="2.59"/>
  <rect id="rect21332-1-0-1-9-2-7-0-7-0-5-7-7-1-8-9-6-4-7-9-8-6-6-3" class="cls-36" x="139.36" y="14.36" width="2.79" height="2.59"/>
  <path id="path26337-9-7-8-6-4-8-3-3-3-3-2-4-8-2-2-7-9-1-5-7-3-0-9-5" class="cls-37" d="M141.91,15.19a.19.19,0,0,1,.21.17h0v4.37a.18.18,0,0,1-.2.18h-2.33a.19.19,0,0,1-.21-.17h0V15.37a.18.18,0,0,1,.2-.18h2.33Z" transform="translate(0 0)"/>
  <path id="path26345-3-6-9-3-6-4-2-5-6-8-7-9-0-90-3-1-3-9-2-2-84-9-2-2" class="cls-38" d="M139.38,16v-.48h2.74V16Z" transform="translate(0 0)"/>
  <path id="path26347-2-5-7-6-5-9-5-8-1-0-7-8-4-9-3-1-5-5-2-0-14-0-1-1" class="cls-38" d="M139.37,19.56v-.49h2.75v.49Z" transform="translate(0 0)"/>
  <path id="path26341-4-2-6-0-8-1-1-1-5-0-3-3-1-8-3-8-7-7-7-2-5-5-7-6" class="cls-39" d="M139.38,16v3.07h2.73V16Z" transform="translate(0 0)"/>
  <rect id="rect21332-8-1-9-3-8-2-40-6-2-0-6-6-0-5-5-72-3-3-2-27-6-4-6-8-6-2" class="cls-36" x="99.55" y="56.23" width="2.79" height="2.59"/>
  <rect id="rect21332-1-0-1-9-2-7-0-7-0-5-7-7-1-8-9-9-1-8-6-71-25-1-9-6-5-9-2" class="cls-36" x="99.55" y="52.37" width="2.79" height="2.59"/>
  <path id="path26337-9-7-8-6-4-8-3-3-3-3-2-4-8-2-2-7-4-5-9-9-42-2-4-0-1-7-3-6" class="cls-37" d="M102.11,53.2a.2.2,0,0,1,.21.17v4.38a.19.19,0,0,1-.21.17H99.79c-.12,0-.21-.07-.21-.17V53.37a.19.19,0,0,1,.21-.17h2.32Z" transform="translate(0 0)"/>
  <path id="path26345-3-6-9-3-6-4-2-5-6-8-7-9-0-90-3-1-7-0-5-6-6-2-7-2-7-7-3-3" class="cls-38" d="M99.58,54v-.48h2.74V54Z" transform="translate(0 0)"/>
  <path id="path26347-2-5-7-6-5-9-5-8-1-0-7-8-4-9-3-1-52-8-4-8-1-5-7-5-1-1-0-2" class="cls-38" d="M99.57,57.56v-.48h2.74v.48Z" transform="translate(0 0)"/>
  <path id="path26341-4-2-6-0-8-1-1-1-5-0-3-3-1-8-3-8-9-9-7-9-5-05-5-6-7-0-0-1" class="cls-40" d="M99.57,54v3.07h2.74V54Z" transform="translate(0 0)"/>
  <rect id="rect21332-8-1-9-3-8-2-40-6-2-0-6-6-0-5-5-72-3-3-2-27-6-4-6-7-7-8" class="cls-36" x="110.3" y="56.23" width="2.79" height="2.59"/>
  <rect id="rect21332-1-0-1-9-2-7-0-7-0-5-7-7-1-8-9-9-1-8-6-71-25-1-9-6-4-8-6" class="cls-36" x="110.3" y="52.37" width="2.79" height="2.59"/>
  <path id="path26337-9-7-8-6-4-8-3-3-3-3-2-4-8-2-2-7-4-5-9-9-42-2-4-0-1-72-4-1" class="cls-37" d="M112.85,53.2a.19.19,0,0,1,.21.17h0v4.38c0,.1-.09.17-.21.17h-2.32a.19.19,0,0,1-.21-.17h0V53.37a.2.2,0,0,1,.21-.17Z" transform="translate(0 0)"/>
  <path id="path26345-3-6-9-3-6-4-2-5-6-8-7-9-0-90-3-1-7-0-5-6-6-2-7-2-7-3-6-8" class="cls-38" d="M110.32,54v-.48H113V54Z" transform="translate(0 0)"/>
  <path id="path26347-2-5-7-6-5-9-5-8-1-0-7-8-4-9-3-1-52-8-4-8-1-5-7-5-1-2-6-9" class="cls-38" d="M110.32,57.56v-.48H113v.48Z" transform="translate(0 0)"/>
  <path id="path26341-4-2-6-0-8-1-1-1-5-0-3-3-1-8-3-8-9-9-7-9-5-05-5-6-7-2-7-4" class="cls-40" d="M110.32,54v3.07H113V54Z" transform="translate(0 0)"/>
  <rect id="rect36047-48-4-2-6-4-0-0-9-4" class="cls-41" x="103.96" y="54.62" width="4.73" height="1.95"/>
  <rect id="rect36049-3-3-3-75-7-9-3-6-8" class="cls-42" x="104.32" y="56.57" width="0.9" height="1.44"/>
  <rect id="rect36051-1-5-6-7-5-2-3-9-2" class="cls-43" x="104.32" y="56.72" width="0.9" height="0.46"/>
  <rect id="rect36055-50-9-1-3-3-6-6-2-9" class="cls-42" x="107.42" y="56.57" width="0.9" height="1.44"/>
  <rect id="rect36057-9-5-9-6-1-9-1-3-4" class="cls-43" x="107.42" y="56.72" width="0.9" height="0.46"/>
  <rect id="rect36061-7-8-6-3-5-2-6-2-0" class="cls-42" x="104.32" y="53.18" width="0.9" height="1.44"/>
  <rect id="rect36063-1-8-1-0-4-5-1-1-4" class="cls-43" x="104.32" y="54.01" width="0.9" height="0.46"/>
  <rect id="rect36061-7-8-6-3-5-2-2-1-7-7" class="cls-42" x="107.42" y="53.18" width="0.9" height="1.44"/>
  <rect id="rect36063-1-8-1-0-4-5-0-9-9-3" class="cls-43" x="107.42" y="54.01" width="0.9" height="0.46"/>
  <rect id="rect36049-3-3-3-75-7-9-4-1" class="cls-44" x="100.5" y="16.55" width="1.28" height="2.03"/>
  <rect id="rect36051-1-5-6-7-5-2-2-4" class="cls-45" x="100.5" y="16.76" width="1.28" height="0.64"/>
  <rect id="rect36055-50-9-1-3-3-6-1-0" class="cls-44" x="104.87" y="16.55" width="1.28" height="2.03"/>
  <rect id="rect36057-9-5-9-6-1-9-2-6" class="cls-45" x="104.87" y="16.76" width="1.28" height="0.64"/>
  <rect id="rect36061-7-8-6-3-5-2-3-3" class="cls-44" x="100.5" y="11.78" width="1.28" height="2.03"/>
  <rect id="rect36063-1-8-1-0-4-5-4-1" class="cls-45" x="100.5" y="12.94" width="1.28" height="0.64"/>
  <rect id="rect36061-7-8-6-3-5-2-2-15-5" class="cls-44" x="104.87" y="11.78" width="1.28" height="2.03"/>
  <rect id="rect36063-1-8-1-0-4-5-0-6-3" class="cls-45" x="104.87" y="12.94" width="1.28" height="0.64"/>
  <rect id="rect36061-7-8-6-3-5-2-8-0-9" class="cls-44" x="102.68" y="11.78" width="1.28" height="2.03"/>
  <rect id="rect36063-1-8-1-0-4-5-2-5-0" class="cls-45" x="102.68" y="12.94" width="1.28" height="0.64"/>
  <rect id="rect36061-7-8-6-3-5-2-83-4-0" class="cls-44" x="102.68" y="16.55" width="1.28" height="2.03"/>
  <rect id="rect36063-1-8-1-0-4-5-01-8-6" class="cls-45" x="102.68" y="16.76" width="1.28" height="0.64"/>
  <rect id="rect36047-48-4-2-6-4-0-88-7" class="cls-46" x="99.99" y="13.8" width="6.67" height="2.75"/>
  <rect id="rect36047-48-4-2-6-4-0-9-9-5" class="cls-47" x="100.07" y="13.9" width="6.49" height="2.56"/>
  <rect id="rect36049-3-3-3-75-7-9-33-3-8" class="cls-44" x="145.43" y="18.95" width="1.28" height="2.03"/>
  <rect id="rect36051-1-5-6-7-5-2-5-5-1" class="cls-45" x="145.43" y="19.17" width="1.28" height="0.64"/>
  <rect id="rect36055-50-9-1-3-3-6-2-1-2" class="cls-44" x="149.8" y="18.95" width="1.28" height="2.03"/>
  <rect id="rect36057-9-5-9-6-1-9-0-9-8" class="cls-45" x="149.8" y="19.17" width="1.28" height="0.64"/>
  <rect id="rect36061-7-8-6-3-5-2-4-4-5" class="cls-44" x="145.43" y="14.19" width="1.28" height="2.03"/>
  <rect id="rect36063-1-8-1-0-4-5-8-1-3" class="cls-45" x="145.43" y="15.35" width="1.28" height="0.64"/>
  <rect id="rect36061-7-8-6-3-5-2-2-0-2-3" class="cls-44" x="149.8" y="14.19" width="1.28" height="2.03"/>
  <rect id="rect36063-1-8-1-0-4-5-0-8-0-4" class="cls-45" x="149.8" y="15.35" width="1.28" height="0.64"/>
  <rect id="rect36061-7-8-6-3-5-2-8-8-4-7" class="cls-44" x="147.61" y="14.19" width="1.28" height="2.03"/>
  <rect id="rect36063-1-8-1-0-4-5-2-6-4-7" class="cls-45" x="147.61" y="15.35" width="1.28" height="0.64"/>
  <rect id="rect36061-7-8-6-3-5-2-83-9-0-4" class="cls-44" x="147.61" y="18.95" width="1.28" height="2.03"/>
  <rect id="rect36063-1-8-1-0-4-5-01-9-6-6" class="cls-45" x="147.61" y="19.17" width="1.28" height="0.64"/>
  <rect id="rect36047-48-4-2-6-4-0-8-2-1" class="cls-46" x="144.92" y="16.21" width="6.67" height="2.75"/>
  <rect id="rect36047-48-4-2-6-4-0-9-6-2-8" class="cls-47" x="145" y="16.3" width="6.49" height="2.56"/>
  <rect id="rect21332-8-1-9-3-8-2-40-6-2-0-6-6-0-5-6-4-8-7-5-6-6" class="cls-36" x="150.94" y="61.38" width="2.79" height="2.59"/>
  <rect id="rect21332-1-0-1-9-2-7-0-7-0-5-7-7-1-8-9-6-4-7-9-8-8-0" class="cls-36" x="150.94" y="57.51" width="2.79" height="2.59"/>
  <path id="path26337-9-7-8-6-4-8-3-3-3-3-2-4-8-2-2-7-9-1-5-7-3-1-0" class="cls-37" d="M153.49,58.34a.19.19,0,0,1,.21.17h0v4.37a.18.18,0,0,1-.2.18h-2.33a.19.19,0,0,1-.21-.17h0V58.52a.18.18,0,0,1,.2-.18h2.33Z" transform="translate(0 0)"/>
  <path id="path26345-3-6-9-3-6-4-2-5-6-8-7-9-0-90-3-1-3-9-2-2-84-84-4" class="cls-38" d="M151,59.19V58.7h2.74v.49Z" transform="translate(0 0)"/>
  <path id="path26347-2-5-7-6-5-9-5-8-1-0-7-8-4-9-3-1-5-5-2-0-14-2-9" class="cls-38" d="M151,62.71v-.48h2.74v.48Z" transform="translate(0 0)"/>
  <path id="path26341-4-2-6-0-8-1-1-1-5-0-3-3-1-8-3-8-7-7-7-2-5-57-5" class="cls-39" d="M151,59.17v3.06h2.74V59.17Z" transform="translate(0 0)"/>
  <rect id="rect36049-3-3-3-75-7-9-39-9-0" class="cls-44" x="140.7" y="62.11" width="1.28" height="2.03"/>
  <rect id="rect36051-1-5-6-7-5-2-0-0-4" class="cls-45" x="140.7" y="62.33" width="1.28" height="0.64"/>
  <rect id="rect36055-50-9-1-3-3-6-3-8-9" class="cls-44" x="145.07" y="62.11" width="1.28" height="2.03"/>
  <rect id="rect36057-9-5-9-6-1-9-12-6-8" class="cls-45" x="145.07" y="62.33" width="1.28" height="0.64"/>
  <rect id="rect36061-7-8-6-3-5-2-65-9-5" class="cls-44" x="140.7" y="57.34" width="1.28" height="2.03"/>
  <rect id="rect36063-1-8-1-0-4-5-3-4-3" class="cls-45" x="140.7" y="58.51" width="1.28" height="0.64"/>
  <rect id="rect36061-7-8-6-3-5-2-2-4-9-2" class="cls-44" x="145.07" y="57.34" width="1.28" height="2.03"/>
  <rect id="rect36063-1-8-1-0-4-5-0-5-7-0" class="cls-45" x="145.07" y="58.51" width="1.28" height="0.64"/>
  <rect id="rect36061-7-8-6-3-5-2-8-7-9-4" class="cls-44" x="142.89" y="57.34" width="1.28" height="2.03"/>
  <rect id="rect36063-1-8-1-0-4-5-2-2-6-8" class="cls-45" x="142.89" y="58.51" width="1.28" height="0.64"/>
  <rect id="rect36061-7-8-6-3-5-2-83-6-3-2" class="cls-44" x="142.89" y="62.11" width="1.28" height="2.03"/>
  <rect id="rect36063-1-8-1-0-4-5-01-4-3-2" class="cls-45" x="142.89" y="62.33" width="1.28" height="0.64"/>
  <rect id="rect36047-48-4-2-6-4-0-80-6-9" class="cls-46" x="140.19" y="59.36" width="6.67" height="2.75"/>
  <rect id="rect36047-48-4-2-6-4-0-9-1-0-8" class="cls-47" x="140.28" y="59.46" width="6.49" height="2.56"/>
  <rect id="rect36055-50-9-1-3-3-6-7-6-20-9" class="cls-44" x="93.57" y="20.92" width="2.83" height="1.61"/>
  <path id="path79671-3-7-7-4-6-1" d="M144.48,21.59h1.18v2.35h-2.35V21.59Zm0,2h.84V21.92h-1.67V23.6Zm0-1.34H145v1h-1v-1Zm-1,2.35h.17v-.34h.67v.34h1v.33h.34v-.67H146V22.93h.34v.33h.33v-.67H146v-.33h.34v-.67h.33v.67h.67v-.34H147v-.33h.67v.67h-.34v.33H147v.34h.33v.33H147v.67h.33V23.6h.34v-1H148v1h.34v-1h.33v-.33h-.33V21.6h1v.33H149v2h.33v-.34h.34v-.67h-.34v-.34h.34v-.66h.67v.67h-.67v.34H150v.67h.33v.34H150V23.6h-.34v.34h-.34v.33H150v.34h.33v-.34h1v.67H151v.34h-.33v-.34h-.34v.34h-2v-.67h.33v-.34h-.33v-.33H148V23.6h-.33v.34h-.34v.33H147v.67h.33v-.33h.34v-.34H148v.67h-.67v.34H148v.33h-.67V26h1v.33h.33v.34h-.33v-.34H148v.34h-.33v1H148v-.33h.34V27H149v-.33h.33V27h.34v.34H150V27h.33v-.33h-.67v-.34H150V26h-.34v-.34H150V26h.33v-.34h1v-.33h.33v.33h-.33V26h1.34v.33H152V27h.33v-.33H153v.67h-.33V27h-.34v.67h.34V28H153v.67h-1V28h.33v-.34h-.67V28h-1v.33H151v.34h-1.68v.67h.34V29h.67v.67h-1v.67h.34V30h.67v.33h-.67v.34H150v.67h-.67V31h.34v-.33h-.34v-.34h-1v.34H148v-.34h-.33v-.67h-.34v-.33H147v-.67h.33v-.34h.34V28H147v.33h-.34v1h-.33V30h.33v-.34H147V30h.33v.33H147v.34h-.34V31h.67v-.33h.34v.67h-1V31H146v.34h-.67V31h-1v.34H144v-1h-.67v-1h.34V30H144v-.67h.67V29H144v-.33h-.33V29h-.34v-.67h1V28h-.67v-.39H144v-.33h1.34v.33h-1V28h1v.33H146V28h.34v-.34h.33V28H147v-.34h.33v-.33H146v.33h-.33V27H145v-.33h-.67V27H144v-.33h-.33v.67h-.34v-.67h.34v-.34H144V26h-.67V24.61Zm.5,1h.34v.34h1v-.67H145v.33h-.34v-.67h-.33V24.6H144v.33h-.33v.67Zm.34,4.69h.33v.34h.67V31h.34v-.33h1v-.34h-1v.34h-.34v-.34H145V30h-1v.33Zm.16-1.67h.17v-.34h-.33v.34Zm.67-2h.17v-.34H145v.34Zm.34,3h.5v-1h-1v1Zm0-.67h.17v.34h-.34V29Zm.34-2.68H146v.67h.34v-.67h.33v-.33h-.33v.33H146V25.6h.34v-.33H146v-.34h.34V24.6h.33v-.34H147v-.33h-.34v-.34h-.33v.34h.33v.33h-.33v.34H146v.33h-.33v1.34Zm1-1H147v-.34h-.34v.34Zm.17,1.67h.33v-.67H147v.34h-.34v.33Zm.5,2h.17v-.33h-.34v.33Zm.34.67H148V30h1v-.34h-.34v-.33h-.33V29h.33v-.67H149V28h.33v.33h1V28h.34v-.39H151v-.33h-.33V27h1v.34h-.33v.33h.33v-.33H152V27h-.34v-.33h-1V27h-.34v.34h.34v.33h-1v-.33h-.34V27H149v.34h-.67v.33h.33v.67h-.33v.34H148v.67h-.33v.33Zm.33-.33h.17v.33H148v-.33Zm.34-5.36h.16v.33H149v-.33h-.34v-.34h-.33v.34Zm.67,1h.16v-.33H149v.33Zm1.67,0H151v-.33h-.33v.33Zm.17,1.34h.34v-.33h-.67v.33Zm1.51,2h.17v-.33h-.34v.33Zm-9,2.68h.17v.34h-.34V31Zm4.86,0h.33v-.33h.3V31h-.34v.34H148V31Zm3.52-9.38H153v2.35h-2.34V21.59Zm0,2h.84V21.92H151V23.6Zm0-1.34h.5v1h-1v-1Zm0,6.7H153v2.35h-2.34V29Zm0,2h.84V29.3H151V31Zm0-1.34h.5v1h-1v-1Zm0-5.36H152v.34h-.34v-.34Zm.33.67h.17v-.33H153v.33h-.33v.34H153v.33h-.33v-.33H152v-.34Z" transform="translate(0 0)"/>
  <rect id="rect36057-9-5-9-6-1-9-4-3-1-8" class="cls-45" x="95.04" y="20.92" width="0.81" height="1.61"/>
  <rect id="rect36055-50-9-1-3-3-6-7-6-0-02-1" class="cls-44" x="93.57" y="24.15" width="2.83" height="1.61"/>
  <rect id="rect36057-9-5-9-6-1-9-4-3-8-0-3" class="cls-45" x="95.04" y="24.15" width="0.81" height="1.61"/>
  <rect id="rect36055-50-9-1-3-3-6-7-6-7-7-5" class="cls-44" x="93.57" y="27.39" width="2.83" height="1.61"/>
  <rect id="rect36057-9-5-9-6-1-9-4-3-6-9-6" class="cls-45" x="95.04" y="27.39" width="0.81" height="1.61"/>
  <rect id="rect36055-50-9-1-3-3-6-7-6-2-7-8" class="cls-44" x="93.57" y="30.62" width="2.83" height="1.61"/>
  <rect id="rect36057-9-5-9-6-1-9-4-3-2-56-7" class="cls-45" x="95.04" y="30.62" width="0.81" height="1.61"/>
  <rect id="rect36055-50-9-1-3-3-6-7-6-6-9-5" class="cls-44" x="93.57" y="33.85" width="2.83" height="1.61"/>
  <rect id="rect36057-9-5-9-6-1-9-4-3-0-1-5" class="cls-45" x="95.04" y="33.85" width="0.81" height="1.61"/>
  <rect id="rect36055-50-9-1-3-3-6-7-6-00-9-4" class="cls-44" x="93.57" y="37.08" width="2.83" height="1.61"/>
  <rect id="rect36057-9-5-9-6-1-9-4-3-3-0-8" class="cls-45" x="95.04" y="37.08" width="0.81" height="1.61"/>
  <rect id="rect36055-50-9-1-3-3-6-7-6-09-2-1" class="cls-44" x="93.57" y="40.32" width="2.83" height="1.61"/>
  <rect id="rect36057-9-5-9-6-1-9-4-3-9-7-7" class="cls-45" x="95.04" y="40.32" width="0.81" height="1.61"/>
  <rect id="rect36055-50-9-1-3-3-6-7-6-4-07-5" class="cls-44" x="93.57" y="43.55" width="2.83" height="1.61"/>
  <rect id="rect36057-9-5-9-6-1-9-4-3-28-7-2" class="cls-45" x="95.04" y="43.55" width="0.81" height="1.61"/>
  <rect id="rect36055-50-9-1-3-3-6-7-6-9-3-6" class="cls-44" x="93.57" y="46.78" width="2.83" height="1.61"/>
  <rect id="rect36057-9-5-9-6-1-9-4-3-09-8-7" class="cls-45" x="95.04" y="46.78" width="0.81" height="1.61"/>
  <path id="path3153-2-8" class="cls-48" d="M114.64,19.52l12.13.06,1.22,1v28.5l-1.12,1H97.26l-.82-.88h0V20.34l1-.92,4.36.06h12.85Z" transform="translate(0 0)"/>
  <rect id="rect36055-50-9-1-3-3-6-7-6-3-0-0" class="cls-44" x="127.98" y="20.92" width="2.83" height="1.61"/>
  <path id="path79671-3-7-7-7-8-9" d="M119.71,24.82h-2.39v4.79h4.78V24.82Zm0,4.1H118V25.51h3.42v3.41Zm0-2.73h-1v2h2v-2Zm2,4.79h-.34v-.69H120V31h-2v.68h-.68V30.29h-.68V27.56H116v.68h-.68V26.87h1.37v-.68H116V24.82h-.68v1.37h-1.37v-.68h.69v-.69h-1.39v1.37h.68v.68h.69v.69h-.69v.68h.69v1.37h-.69v-.69h-.68v-2h-.68v2h-.69v-2h-.68v-.68h.68V24.82h-2v.69h.69v4.1h-.69v-.68h-.68V27.56h.68v-.69h-.68V25.51H107.8v1.36h1.37v.69h-.68v1.37h-.69v.68h.69v-.68h.68v.68h.68v.68h-1.36V31h-.69v-.69h-2V31.7h.69v.68h.68V31.7h.68v.68H112V31h-.68v-.69H112v-.68h.69V29h.68v.68H114v.68h.69V31.7H114V31h-.68v-.69h-.68V31.7H114v.68h-1.36V33H114v.68h-2v.68h-.68v.69H112v-.69h.69v.69h.68v2h-.68v-.69H112V35.7h-1.36V35H110v.68h-.68v.68h-.68V35.7h-.69V35h1.37v-.69h-.68v-.68h.68V33h-.68v.68h-.69V33h-2v-.69H105V33h.68v.68H103v.68h1.37v1.37h-.69v-.68h-1.36v1.36H103v-.68h.68v1.37H103v.68h-.68v1.37h2V37.81h-.69v-.68H105v.68h2v.68h-.68v.69h3.41v1.36h-.68v-.68H107.7v1.37h2V42.6H109v-.69h-1.37v.69H109v.68h-.68v1.37h1.36V44H109v-.68h.68V42.6h2v.68h.69V42.6h.68V41.23h.68v-.69h.69V39.18h-.69v-.69h-.68v-.68h1.37v.68h.68v2.06h.68v1.36h-.68v-.68h-.68v.68h-.69v.69h.69v.68h.68V44h-1.37v-.68h-.68v1.37h2V44h1.37v.69H118V44h2v.69h.69v-2h1.36V40.54h-.68v1.37h-.68V40.54h-1.37v-.68h1.37v-.68h.68v.68h.68V38.49h-2v-.68h1.37v-.68h-.68v-.69H118v.69h2v.68h-2v.68h-1.36v-.68H116v-.68h-.68v.68h-.68v-.68h-.69v-.69h2.74v.69h.68V35.76h1.37v-.68H120v.68h.69v-.68h.68v1.36h.68V35.08h-.68v-.69h-.68v-.68h1.37V31Zm-1,2H120v.68h-2V32.34h.69V33h.68V31.66H120V31h.69v.68h.68V33ZM120,42.6h-.68v.68H118V44h-.68v-.68h-2V42.6h2v.68H118V42.6h.69v-.69h2v.69Zm-.34-3.42h-.34v-.69H120v.69Zm-1.36-4.1H118v-.69h.69v.69Zm-.69,6.15h-1v-2h2v2Zm0-1.37h-.34v.68H118v-.68ZM117,34.39h-.34v1.37H116V34.39h-.68v-.68H116v.68h.69V33H116v-.69h.69v-.68H116V31h-.68v-.69h-.68v-.68h.68V29H116v.68h-.68v.68H116V31h.69v.68h.68v2.73Zm-2-2h-.34v-.68h.68v.68Zm-.34,3.42H114V34.39h.69v.69h.68v.68Zm-1,4.1h-.34v-.68H114v.68ZM113,41.28h-.34V42h-2v-.68h.68v-.69H112v-.68h-.68V38.49h-.68v-.68H110v.68h-2v-.68h-.68v-.68h-.68v-.69h.68v-.68h-2v.68H106v.69h-1v-.69h-.68v-.68H105v-.68h2v.68h.68v.68H107v.69h2v-.69h.68v-.68h.69v.68h1.36v.69h-.68v1.36h.68v.69h.69v1.36h.68v.69Zm-.68-.69H112v.69h.69v-.69Zm-.69-10.93h-.34v.68h-.68v-.68h.68V29H112v.68Zm-1.36,2.05h-.35V31h.69v.68Zm-3.42,0h-.34V31h.68v.68Zm-.34,2.73h-.69v-.68h1.37v.68Zm-3.08,4.1H103v-.68h.68v.68ZM121.88,44h-.34v.69h.69V44ZM112,44h-.68v-.68h-.68V44h.68v.69h1.37V44Zm-7.29-19.19h-2.39v4.79h4.78V24.82Zm0,4.11H103V25.51h3.42v3.42Zm0-2.74h-1v2h2v-2Zm0,13.67h-2.39v4.79h4.78V39.86Zm0,4.1H103V40.54h3.42V44Zm0-2.73h-1v2h2v-2Zm0-10.94h-.34V31H105v-.69ZM104,31.66h-.34V31h-1.36v.68h.7v.68h-.68V33H103v-.69h1.37v-.68Z" transform="translate(0 0)"/>
  <rect id="rect36057-9-5-9-6-1-9-4-3-97-7-5" class="cls-45" x="128.53" y="20.92" width="0.81" height="1.61"/>
  <rect id="rect36055-50-9-1-3-3-6-7-6-0-0-2-9" class="cls-44" x="127.98" y="24.15" width="2.83" height="1.61"/>
  <rect id="rect36057-9-5-9-6-1-9-4-3-8-3-6-3" class="cls-45" x="128.53" y="24.15" width="0.81" height="1.61"/>
  <rect id="rect36055-50-9-1-3-3-6-7-6-7-2-2-1" class="cls-44" x="127.98" y="27.39" width="2.83" height="1.61"/>
  <rect id="rect36057-9-5-9-6-1-9-4-3-6-8-5-7" class="cls-45" x="128.53" y="27.39" width="0.81" height="1.61"/>
  <rect id="rect36055-50-9-1-3-3-6-7-6-2-9-2-1" class="cls-44" x="127.98" y="30.62" width="2.83" height="1.61"/>
  <rect id="rect36057-9-5-9-6-1-9-4-3-2-5-2-8" class="cls-45" x="128.53" y="30.62" width="0.81" height="1.61"/>
  <rect id="rect36055-50-9-1-3-3-6-7-6-6-4-0-4" class="cls-44" x="127.98" y="33.85" width="2.83" height="1.61"/>
  <rect id="rect36057-9-5-9-6-1-9-4-3-0-4-8-6" class="cls-45" x="128.53" y="33.85" width="0.81" height="1.61"/>
  <rect id="rect36055-50-9-1-3-3-6-7-6-00-2-0-9" class="cls-44" x="127.98" y="37.08" width="2.83" height="1.61"/>
  <rect id="rect36057-9-5-9-6-1-9-4-3-3-1-8-0" class="cls-45" x="128.53" y="37.08" width="0.81" height="1.61"/>
  <rect id="rect36055-50-9-1-3-3-6-7-6-09-6-2-8" class="cls-44" x="127.98" y="40.32" width="2.83" height="1.61"/>
  <rect id="rect36057-9-5-9-6-1-9-4-3-9-5-3-5" class="cls-45" x="128.53" y="40.32" width="0.81" height="1.61"/>
  <rect id="rect36055-50-9-1-3-3-6-7-6-4-0-9-7" class="cls-44" x="127.98" y="43.55" width="2.83" height="1.61"/>
  <rect id="rect36057-9-5-9-6-1-9-4-3-28-0-5-3" class="cls-45" x="128.53" y="43.55" width="0.81" height="1.61"/>
  <rect id="rect36055-50-9-1-3-3-6-7-6-9-0-8-3" class="cls-44" x="127.98" y="46.78" width="2.83" height="1.61"/>
  <rect id="rect36057-9-5-9-6-1-9-4-3-09-7-2-3" class="cls-45" x="128.53" y="46.78" width="0.81" height="1.61"/>
  <rect id="rect21332-8-1-9-3-8-2-40-6-2-0-6-6-0-5-6-4-8-7-5-7-1-7" class="cls-36" x="131.89" y="36.3" width="0.87" height="0.82"/>
  <rect id="rect21332-1-0-1-9-2-7-0-7-0-5-7-7-1-8-9-6-4-7-9-8-2-7-5" class="cls-36" x="131.89" y="35.07" width="0.87" height="0.82"/>
  <path id="path26337-9-7-8-6-4-8-3-3-3-3-2-4-8-2-2-7-9-1-5-7-3-8-5-0" class="cls-37" d="M132.69,35.33a.06.06,0,0,1,.06.06v1.38a.06.06,0,0,1-.06.06H132a.06.06,0,0,1-.06-.06V35.39a.06.06,0,0,1,.06-.06Z" transform="translate(0 0)"/>
  <path id="path26345-3-6-9-3-6-4-2-5-6-8-7-9-0-90-3-1-3-9-2-2-84-8-6-1" class="cls-38" d="M131.89,35.6v-.15h.86v.15Z" transform="translate(0 0)"/>
  <path id="path26347-2-5-7-6-5-9-5-8-1-0-7-8-4-9-3-1-5-5-2-0-14-4-6-3" class="cls-38" d="M131.89,36.72v-.16h.86v.16Z" transform="translate(0 0)"/>
  <path id="path26341-4-2-6-0-8-1-1-1-5-0-3-3-1-8-3-8-7-7-7-2-5-51-4-2" class="cls-39" d="M131.89,35.59v1h.86v-1Z" transform="translate(0 0)"/>
  <rect id="rect21332-8-1-9-3-8-2-40-6-2-0-6-6-0-5-6-4-8-7-5-7-2-4-6" class="cls-36" x="133.27" y="36.3" width="0.87" height="0.82"/>
  <rect id="rect21332-1-0-1-9-2-7-0-7-0-5-7-7-1-8-9-6-4-7-9-8-2-0-8-4" class="cls-36" x="133.27" y="35.07" width="0.87" height="0.82"/>
  <path id="path26337-9-7-8-6-4-8-3-3-3-3-2-4-8-2-2-7-9-1-5-7-3-8-9-3-1" class="cls-37" d="M134,35.33a.07.07,0,0,1,.07.06v1.38a.07.07,0,0,1-.07.06h-.72a.07.07,0,0,1-.07-.06V35.39a.07.07,0,0,1,.07-.06Z" transform="translate(0 0)"/>
  <path id="path26345-3-6-9-3-6-4-2-5-6-8-7-9-0-90-3-1-3-9-2-2-84-8-7-6-7" class="cls-38" d="M133.27,35.6v-.15h.86v.15Z" transform="translate(0 0)"/>
  <path id="path26347-2-5-7-6-5-9-5-8-1-0-7-8-4-9-3-1-5-5-2-0-14-4-1-0-4" class="cls-38" d="M133.27,36.72v-.16h.86v.16Z" transform="translate(0 0)"/>
  <path id="path26341-4-2-6-0-8-1-1-1-5-0-3-3-1-8-3-8-7-7-7-2-5-51-2-3-9" class="cls-39" d="M133.27,35.59v1h.86v-1Z" transform="translate(0 0)"/>
  <circle id="path2845-0-9" class="cls-49" cx="97.99" cy="21.23" r="0.64"/>
  <path id="path6859-4-3-0-1-9-0-1-6-8" class="cls-4" d="M23.8,69H17.27v-2.7H23.8Z" transform="translate(0 0)"/>
  <path id="path6871-9-6-0-4-5-4-3-0-9" class="cls-5" d="M17.78,66.48a.2.2,0,0,1,.19-.21h5.12a.2.2,0,0,1,.2.2h0v2.26a.22.22,0,0,1-.2.21H18a.22.22,0,0,1-.2-.21Z" transform="translate(0 0)"/>
  <path id="path6873-8-4-1-5-5-5-4-1-4" class="cls-6" d="M18.74,69h3.51V66.27H18.74Z" transform="translate(0 0)"/>
  <path id="path6877-7-1-7-5-9-6-0-2-7" class="cls-6" d="M22.23,66.3H18.77v2.63h3.46Zm.05,0V69H18.74V66.27h3.51" transform="translate(0 0)"/>
  <path id="path6879-87-7-8-1-1-8-3-6-8" class="cls-7" d="M22.15,66.37H18.84v2.48h3.31Zm.21-.1V69a.11.11,0,0,1-.11.11H18.74a.11.11,0,0,1-.11-.11h0V66.27a.11.11,0,0,1,.11-.1h3.51a.11.11,0,0,1,.11.1" transform="translate(0 0)"/>
  <path id="path6881-0-8-1-8-3-8-6-5-7" class="cls-8" d="M18.76,69H18.2V66.24h.56Z" transform="translate(0 0)"/>
  <path id="path6875-42-1-4-9-5-0-3-7-4" class="cls-7" d="M22.18,66.35H18.82v2.53h3.36Zm.15-.08V69s0,.07-.06.08H18.74a.09.09,0,0,1-.08-.08h0V66.27a.08.08,0,0,1,.08-.07h3.51s.07,0,.08.06h0" transform="translate(0 0)"/>
  <path id="path6883-46-4-9-5-9-8-8-3-5" class="cls-8" d="M22.88,69h-.57V66.24h.57Z" transform="translate(0 0)"/>
  <path id="path6897-5-1-0-5-0-7-5-0-0" class="cls-50" d="M18.77,66.4h3.48v2.53H18.77Z" transform="translate(0 0)"/>
  <path id="path6963-86-8-2-6-0-1-1-7-7" class="cls-10" d="M21.77,67.84h-.42v-.4h.42Z" transform="translate(0 0)"/>
</svg>
