<svg id="troyka-midi-in" xmlns="http://www.w3.org/2000/svg" xmlns:xlink="http://www.w3.org/1999/xlink" viewBox="0 0 171.844 71.992"><defs><style>.cls-1{fill:#f2f2f2;stroke-miterlimit:1;stroke-width:0.43px;}.cls-1,.cls-2,.cls-3{stroke:#000;}.cls-2,.cls-29,.cls-3{fill:none;}.cls-2,.cls-3{stroke-width:0.28px;}.cls-29,.cls-3{stroke-miterlimit:10;}.cls-4{fill:#b7b8b9;}.cls-5{fill:#d7d3d5;}.cls-6{fill:#ddd;}.cls-7{fill:#404040;}.cls-8{fill:#8d8c8c;}.cls-9{fill:#8c8663;}.cls-10{fill:#b8af82;}.cls-11{fill:#80795b;}.cls-12{fill:#5e5b43;}.cls-13{fill:#9a916c;}.cls-14{fill:#b3b3b3;}.cls-15{fill:gray;}.cls-16{fill:#242424;}.cls-17{fill:#d2d1d3;}.cls-18{fill:#966432;}.cls-19{fill:#bbffd0;}.cls-20{opacity:0.96;fill:url(#Безымянный_градиент_19);}.cls-21{fill:#545152;}.cls-22{fill:#d1d3d4;}.cls-23{fill:#b4b4b4;}.cls-24{fill:#f6f6f6;opacity:0.45;}.cls-25{fill:#8c8c8c;}.cls-26{fill:#e6e6e6;}.cls-27{fill:#999;opacity:0.5;}.cls-27,.cls-28,.cls-31{isolation:isolate;}.cls-28{fill:#fff;opacity:0.6;}.cls-29{stroke:#e7e3dd;stroke-linecap:round;stroke-width:0.567px;}.cls-30{fill:#a0a0a0;}.cls-31{font-size:5px;font-family:TrebuchetMS, Trebuchet MS;}.cls-32{fill:#24252c;}.cls-33{fill:#040408;}.cls-34{fill:#686867;}.cls-35{fill:#1b1a22;}.cls-36{opacity:0.42;fill:url(#Безымянный_градиент_8);}.cls-37{fill:#101118;}.cls-38{fill:#3a3940;}.cls-39{fill:#0b080d;}</style><radialGradient id="Безымянный_градиент_19" cx="155.834" cy="9.066" r="3.275" gradientUnits="userSpaceOnUse"><stop offset="0" stop-color="#f3f6f7"/><stop offset="0.371" stop-color="#f7f9f9"/><stop offset="0.62" stop-color="#fefffc"/><stop offset="0.63" stop-color="#fdfefb"/><stop offset="0.849" stop-color="#e3e4e3"/><stop offset="0.98" stop-color="#dadada"/></radialGradient><linearGradient id="Безымянный_градиент_8" x1="32.4" y1="34.75" x2="65.589" y2="34.75" gradientUnits="userSpaceOnUse"><stop offset="0" stop-color="#fff" stop-opacity="0.3"/><stop offset="1" stop-opacity="0"/></linearGradient></defs><g id="bottom"><path class="cls-1" d="M167.251.25,104.69.21a4.522,4.522,0,0,1-4.47,4.51V67.3a4.492,4.492,0,0,1,4.49,4.47h62.55a4.429,4.429,0,0,1,4.37-4.5V4.73A4.5,4.5,0,0,1,167.251.25Zm-49.32,65.07a3.357,3.357,0,0,1-2.4,1,3.4,3.4,0,0,1-3.4-3.4,3.4,3.4,0,1,1,5.8,2.4Zm40-54a3.357,3.357,0,0,1-2.4,1,3.4,3.4,0,0,1-3.4-3.4,3.4,3.4,0,1,1,5.8,2.4Zm6.6,42.29a2.835,2.835,0,1,1,2.831-2.84A2.83,2.83,0,0,1,164.53,53.61Zm0-29a2.835,2.835,0,1,1,2.831-2.84A2.83,2.83,0,0,1,164.53,24.61Z" transform="translate(-0.002 0.005)"/><path id="rect6749-2" class="cls-2" d="M125.421,57.932h6.8a.14.14,0,0,1,.14.139h0V71.6a.14.14,0,0,1-.14.14h-6.8a.141.141,0,0,1-.139-.139h0V58.072A.14.14,0,0,1,125.421,57.932Z" transform="translate(-0.002 0.005)"/><path id="rect6749-9-2" class="cls-2" d="M132.509,57.932h6.933a.142.142,0,0,1,.142.141h0V71.6a.138.138,0,0,1-.136.14h-6.932a.141.141,0,0,1-.142-.141h0V58.072A.139.139,0,0,1,132.509,57.932Z" transform="translate(-0.002 0.005)"/><path id="rect6749-9-3-2-2" class="cls-3" d="M139.729,57.932h6.762a.138.138,0,0,1,.138.138h0V71.6a.14.14,0,0,1-.14.14h-6.761a.138.138,0,0,1-.139-.138h0V58.072a.138.138,0,0,1,.136-.14h0Z" transform="translate(-0.002 0.005)"/><path id="rect6749-8-2" class="cls-2" d="M139.72.2h6.771a.138.138,0,0,1,.138.138h0v13.53a.138.138,0,0,1-.136.14h-6.775a.14.14,0,0,1-.139-.137h0V.338a.14.14,0,0,1,.14-.14Z" transform="translate(-0.002 0.005)"/><path id="rect6749-9-8-2" class="cls-2" d="M132.509.2h6.939a.142.142,0,0,1,.142.142V13.866a.139.139,0,0,1-.138.14h-6.94a.145.145,0,0,1-.142-.142V.337A.141.141,0,0,1,132.509.2Z" transform="translate(-0.002 0.005)"/><path id="rect6749-9-3-2-3" class="cls-2" d="M125.421.2h6.81a.139.139,0,0,1,.139.139h0v13.53a.14.14,0,0,1-.138.14H125.42a.139.139,0,0,1-.139-.139h0V.337A.14.14,0,0,1,125.421.2Z" transform="translate(-0.002 0.005)"/><path class="cls-4" d="M137.2,53.871v3.857a.265.265,0,0,1-.227.3h-.015a.366.366,0,0,1-.081,0h-1.83a.332.332,0,0,1-.323-.3V53.876a.267.267,0,0,1,.227-.3h.015a.275.275,0,0,1,.081,0h1.83a.282.282,0,0,1,.323.222h0A.224.224,0,0,1,137.2,53.871Z" transform="translate(-0.002 0.005)"/><g id="path26345-3-6-9-3-6-4-2-5-6-8-7-9-0-90-3-1-3-9-2-2-8-5-0-2-3-5-16-5-2-2-2"><rect class="cls-5" x="134.974" y="53.822" width="1.984" height="4.204"/></g><path class="cls-6" d="M136.553,54.762v3.022c.01.113-.041.217-.116.233h0a.081.081,0,0,1-.038,0h-.871c-.082-.007-.149-.107-.154-.233V54.762c-.011-.112.041-.216.115-.232h0a.086.086,0,0,1,.039,0h.871c.075-.016.144.062.155.174h0A.225.225,0,0,1,136.553,54.762Z" transform="translate(-0.002 0.005)"/><path class="cls-4" d="M144.2,68.8h0a.282.282,0,0,1-.323.222h-1.83a.275.275,0,0,1-.081,0h0a.27.27,0,0,1-.243-.288h0v-3.86a.332.332,0,0,1,.323-.3h1.83a.366.366,0,0,1,.081,0h0a.266.266,0,0,1,.244.287h0v3.86A.255.255,0,0,1,144.2,68.8Z" transform="translate(-0.002 0.005)"/><g id="path26345-3-6-9-3-6-4-2-5-6-8-7-9-0-90-3-1-3-9-2-2-8-5-0-2-3-5-16-5-3"><rect class="cls-5" x="141.974" y="64.576" width="1.984" height="4.204"/></g><path class="cls-6" d="M143.553,67.889h0c-.011.113-.08.19-.154.175h-.871a.086.086,0,0,1-.039,0h0c-.074-.016-.126-.12-.115-.233V64.809c0-.125.071-.225.154-.232h.871a.081.081,0,0,1,.038,0h0c.075.016.126.12.116.232v3.019A.249.249,0,0,1,143.553,67.889Z" transform="translate(-0.002 0.005)"/><path class="cls-4" d="M129.73,68.8h0a.282.282,0,0,1-.323.222h-1.833a.268.268,0,0,1-.08,0h0a.267.267,0,0,1-.243-.286h0v-3.86a.332.332,0,0,1,.323-.3h1.83a.275.275,0,0,1,.081,0h0a.266.266,0,0,1,.244.285v0h0v3.86A.2.2,0,0,1,129.73,68.8Z" transform="translate(-0.002 0.005)"/><g id="path26345-3-6-9-3-6-4-2-5-6-8-7-9-0-90-3-1-3-9-2-2-8-5-0-2-3-5-16-5-4"><rect class="cls-5" x="127.504" y="64.576" width="1.984" height="4.204"/></g><path class="cls-6" d="M129.082,67.889h0c-.011.113-.08.19-.154.175h-.871a.086.086,0,0,1-.039,0h0c-.074-.016-.126-.12-.115-.233V64.809c0-.125.071-.225.154-.232h.871a.086.086,0,0,1,.039,0h0c.074.016.126.12.115.232v3.019A.208.208,0,0,1,129.082,67.889Z" transform="translate(-0.002 0.005)"/><path id="path106654-2-2" class="cls-7" d="M130.562,57.968h-3.838l-1.476,1.553V63.5l1.476,1.553h4.134l1.477-1.553v-3.98l-1.477-1.553Z" transform="translate(-0.002 0.005)"/><rect id="rect106656-2-2" class="cls-8" x="127.717" y="60.418" width="2.264" height="2.233"/><rect id="rect106658-2-2" class="cls-9" x="128.308" y="60.903" width="1.092" height="1.165"/><polygon id="polygon106660-2-2" class="cls-10" points="129.4 60.913 130 60.428 127.736 60.428 128.327 60.913 129.4 60.913"/><polygon id="polygon106662-2-2" class="cls-11" points="130 60.428 130 62.66 129.4 62.068 129.4 60.913 130 60.428"/><polygon id="polygon106664-2-2" class="cls-12" points="130 62.66 127.736 62.66 128.327 62.068 129.4 62.068 130 62.66"/><polygon id="polygon106666-2-2" class="cls-13" points="128.327 62.068 127.736 62.66 127.736 60.428 128.327 60.913 128.327 62.068"/><path id="path106672-2-2" class="cls-7" d="M137.658,57.968h-3.833l-1.474,1.553V63.5l1.474,1.553h4.143l1.474-1.553v-3.98l-1.474-1.553Z" transform="translate(-0.002 0.005)"/><rect id="rect106674-2-2" class="cls-8" x="134.837" y="60.418" width="2.26" height="2.233"/><rect id="rect106676-2-2" class="cls-9" x="135.377" y="60.903" width="1.09" height="1.165"/><polygon id="polygon106678-2-2" class="cls-10" points="136.468 60.913 137.106 60.428 134.816 60.428 135.396 60.913 136.468 60.913"/><polygon id="polygon106680-2-2" class="cls-11" points="137.106 60.428 137.106 62.66 136.468 62.068 136.468 60.913 137.106 60.428"/><polygon id="polygon106682-2-2" class="cls-12" points="137.106 62.66 134.816 62.66 135.396 62.068 136.468 62.068 137.106 62.66"/><polygon id="polygon106684-2-2" class="cls-13" points="135.396 62.068 134.816 62.66 134.816 60.428 135.396 60.913 135.396 62.068"/><path id="path106726-2-2" class="cls-7" d="M144.668,57.968h-3.74l-1.477,1.553V63.5l1.477,1.553h4.14l1.476-1.553v-3.98l-1.476-1.553Z" transform="translate(-0.002 0.005)"/><rect id="rect106728-2-2" class="cls-8" x="141.835" y="60.418" width="2.264" height="2.233"/><rect id="rect106730-2-2" class="cls-9" x="142.426" y="60.903" width="1.099" height="1.165"/><polygon id="polygon106732-2-2" class="cls-10" points="144.099 60.418 141.796 60.418 142.445 60.913 143.508 60.913 144.099 60.418"/><polygon id="polygon106734-2-2" class="cls-11" points="144.099 62.66 143.508 62.068 143.508 60.913 144.099 60.418 144.099 62.66"/><polygon id="polygon106736-2-2" class="cls-12" points="141.796 62.66 142.445 62.068 143.508 62.068 144.099 62.66 141.796 62.66"/><polygon id="polygon106738-2-2" class="cls-13" points="141.796 62.66 141.796 60.418 142.445 60.913 142.445 62.068 141.796 62.66"/><path class="cls-4" d="M143.961,1.981v3.85a.265.265,0,0,1-.226.3h-.016a.366.366,0,0,1-.081,0h-1.83a.332.332,0,0,1-.323-.3V1.981a.267.267,0,0,1,.228-.3h.015a.268.268,0,0,1,.08,0h1.83a.282.282,0,0,1,.323.222h0A.171.171,0,0,1,143.961,1.981Z" transform="translate(-0.002 0.005)"/><g id="path26345-3-6-9-3-6-4-2-5-6-8-7-9-0-90-3-1-3-9-2-2-8-5-0-2-3-5-16-5-5"><rect class="cls-5" x="141.735" y="1.933" width="1.984" height="4.204"/></g><path class="cls-6" d="M143.313,2.872V5.894c.01.113-.041.217-.116.233h0a.081.081,0,0,1-.038,0h-.871c-.083-.007-.149-.107-.154-.233V2.872c-.01-.112.041-.216.116-.232h0a.081.081,0,0,1,.038,0h.871c.075-.016.144.062.154.174h0A.281.281,0,0,1,143.313,2.872Z" transform="translate(-0.002 0.005)"/><path class="cls-4" d="M129.49,1.981v3.85a.265.265,0,0,1-.227.3h-.015a.357.357,0,0,1-.08,0h-1.83a.332.332,0,0,1-.323-.3V1.981a.267.267,0,0,1,.228-.3h.015a.268.268,0,0,1,.08,0h1.83a.282.282,0,0,1,.323.222h0A.186.186,0,0,1,129.49,1.981Z" transform="translate(-0.002 0.005)"/><g id="path26345-3-6-9-3-6-4-2-5-6-8-7-9-0-90-3-1-3-9-2-2-8-5-0-2-3-5-16-5-6"><rect class="cls-5" x="127.264" y="1.933" width="1.984" height="4.204"/></g><path class="cls-6" d="M128.842,2.872V5.894c.011.113-.041.217-.115.233h0a.086.086,0,0,1-.039,0h-.871c-.083-.007-.149-.107-.154-.233V2.872c-.01-.112.041-.216.116-.232h0a.081.081,0,0,1,.038,0h.871c.075-.016.144.062.154.174h0A.561.561,0,0,1,128.842,2.872Z" transform="translate(-0.002 0.005)"/><path class="cls-4" d="M136.961,16.907h0a.282.282,0,0,1-.323.222h-1.83a.268.268,0,0,1-.08,0h0a.267.267,0,0,1-.243-.285h0v-3.86a.332.332,0,0,1,.323-.3h1.83a.366.366,0,0,1,.081,0h0a.267.267,0,0,1,.243.288h0v3.856A.191.191,0,0,1,136.961,16.907Z" transform="translate(-0.002 0.005)"/><g id="path26345-3-6-9-3-6-4-2-5-6-8-7-9-0-90-3-1-3-9-2-2-8-5-0-2-3-5-16-5-7"><rect class="cls-5" x="134.735" y="12.687" width="1.984" height="4.204"/></g><path class="cls-6" d="M136.313,16h0c-.011.113-.08.19-.154.175h-.871a.081.081,0,0,1-.038,0h0c-.075-.016-.126-.12-.116-.233V12.919c0-.125.071-.225.154-.232h.871a.086.086,0,0,1,.039,0h0c.074.016.127.12.115.232v3.022A.281.281,0,0,1,136.313,16Z" transform="translate(-0.002 0.005)"/><path id="path106654-2-3" class="cls-7" d="M130.268,5.974H126.43l-1.477,1.553v3.98l1.477,1.553h4.138l1.477-1.553V7.528l-1.477-1.553Z" transform="translate(-0.002 0.005)"/><rect id="rect106656-2-3" class="cls-8" x="127.425" y="8.425" width="2.264" height="2.233"/><rect id="rect106658-2-3" class="cls-9" x="128.015" y="8.91" width="1.181" height="1.165"/><polygon id="polygon106660-2-3" class="cls-10" points="129.107 8.92 129.708 8.434 127.444 8.434 128.035 8.92 129.107 8.92"/><polygon id="polygon106662-2-3" class="cls-11" points="129.708 8.434 129.708 10.667 129.107 10.075 129.107 8.92 129.708 8.434"/><polygon id="polygon106664-2-3" class="cls-12" points="129.708 10.667 127.444 10.667 128.035 10.075 129.107 10.075 129.708 10.667"/><polygon id="polygon106666-2-3" class="cls-13" points="128.035 10.075 127.444 10.667 127.444 8.434 128.035 8.92 128.035 10.075"/><path id="path106672-2-3" class="cls-7" d="M137.388,5.974h-3.834L132.08,7.527v3.98l1.474,1.553h4.138l1.475-1.553V7.528l-1.475-1.553Z" transform="translate(-0.002 0.005)"/><rect id="rect106674-2-3" class="cls-8" x="134.566" y="8.425" width="2.26" height="2.233"/><rect id="rect106676-2-3" class="cls-9" x="135.156" y="8.91" width="1.179" height="1.165"/><polygon id="polygon106678-2-3" class="cls-10" points="136.197 8.92 136.836 8.434 134.545 8.434 135.125 8.92 136.197 8.92"/><polygon id="polygon106680-2-3" class="cls-11" points="136.836 8.434 136.836 10.667 136.197 10.075 136.197 8.92 136.836 8.434"/><polygon id="polygon106682-2-3" class="cls-12" points="136.836 10.667 134.545 10.667 135.125 10.075 136.197 10.075 136.836 10.667"/><polygon id="polygon106684-2-3" class="cls-13" points="135.125 10.075 134.545 10.667 134.545 8.434 135.125 8.92 135.125 10.075"/><path id="path106726-2-3" class="cls-7" d="M144.421,5.974h-3.74l-1.476,1.553v3.98l1.476,1.553h4.134l1.476-1.553V7.528l-1.476-1.553Z" transform="translate(-0.002 0.005)"/><rect id="rect106728-2-3" class="cls-8" x="141.586" y="8.425" width="2.264" height="2.233"/><rect id="rect106730-2-3" class="cls-9" x="142.176" y="8.91" width="1.083" height="1.165"/><polygon id="polygon106732-2-3" class="cls-10" points="143.83 8.434 141.546 8.434 142.196 8.92 143.259 8.92 143.83 8.434"/><polygon id="polygon106734-2-3" class="cls-11" points="143.83 10.667 143.259 10.075 143.259 8.92 143.83 8.434 143.83 10.667"/><polygon id="polygon106736-2-3" class="cls-12" points="141.546 10.667 142.196 10.075 143.259 10.075 143.83 10.667 141.546 10.667"/><polygon id="polygon106738-2-3" class="cls-13" points="141.546 10.667 141.546 8.434 142.196 8.92 142.196 10.075 141.546 10.667"/><g id="T-SOT23-5"><path id="path3479-7" class="cls-14" d="M111.455,24.643v1.62h2.57v-1.62Z" transform="translate(-0.002 0.005)"/><path id="path3481-0" class="cls-15" d="M112.935,24.643v1.62h.86v-1.62Z" transform="translate(-0.002 0.005)"/><path id="path3483-6" class="cls-14" d="M111.455,30.187v1.6h2.57v-1.6Z" transform="translate(-0.002 0.005)"/><path id="path3485-6" class="cls-15" d="M112.935,30.187v1.6h.86v-1.6Z" transform="translate(-0.002 0.005)"/><path id="path3487-1" class="cls-14" d="M120.044,24.643v1.62h-2.558v-1.62Z" transform="translate(-0.002 0.005)"/><path id="path3489-6" class="cls-15" d="M118.574,24.643v1.62h-.78v-1.62Z" transform="translate(-0.002 0.005)"/><path id="path3479-7-2" class="cls-14" d="M111.455,27.407v1.62h2.57v-1.62Z" transform="translate(-0.002 0.005)"/><path id="path3481-0-2" class="cls-15" d="M112.935,27.407v1.62h.86v-1.62Z" transform="translate(-0.002 0.005)"/><path id="path3487-1-2" class="cls-14" d="M120.044,30.176V31.8h-2.558V30.176Z" transform="translate(-0.002 0.005)"/><path id="path3489-6-2" class="cls-15" d="M118.574,30.176V31.8h-.78V30.176Z" transform="translate(-0.002 0.005)"/><path id="path3477-9" class="cls-16" d="M114.015,24.008v8.419h3.48V24.008Z" transform="translate(-0.002 0.005)"/></g><g id="T-SOT23-6"><path id="path3487-1-2-2-2-2" class="cls-14" d="M122.194,42.972v-1.62h-2.559v1.62Z" transform="translate(-0.002 0.005)"/><path id="path3489-6-2-2-2-2" class="cls-15" d="M120.726,42.972v-1.62h-.77v1.62Z" transform="translate(-0.002 0.005)"/><path id="path3487-1-2-3" class="cls-14" d="M122.194,37.446v-1.62h-2.559v1.62Z" transform="translate(-0.002 0.005)"/><path id="path3489-6-2-3" class="cls-15" d="M120.726,37.446v-1.62h-.77v1.62Z" transform="translate(-0.002 0.005)"/><path id="path3487-1-2-3-2-2" class="cls-14" d="M122.194,40.256v-1.62h-2.559v1.62Z" transform="translate(-0.002 0.005)"/><path id="path3489-6-2-3-2-2" class="cls-15" d="M120.726,40.256v-1.62h-.77v1.62Z" transform="translate(-0.002 0.005)"/><path id="path3487-1-2-2-2-2-2" class="cls-14" d="M113.772,35.826v1.62h2.56v-1.62Z" transform="translate(-0.002 0.005)"/><path id="path3489-6-2-2-2-2-2" class="cls-15" d="M115.242,35.826v1.62h.77v-1.62Z" transform="translate(-0.002 0.005)"/><path id="path3487-1-2-2-2-3" class="cls-14" d="M113.772,38.636v1.62h2.56v-1.62Z" transform="translate(-0.002 0.005)"/><path id="path3489-6-2-2-2-3" class="cls-15" d="M115.242,38.636v1.62h.77v-1.62Z" transform="translate(-0.002 0.005)"/><path id="path3487-1-2-2-2-4" class="cls-14" d="M113.772,41.356v1.62h2.56v-1.62Z" transform="translate(-0.002 0.005)"/><path id="path3489-6-2-2-2-4" class="cls-15" d="M115.242,41.356v1.62h.77v-1.62Z" transform="translate(-0.002 0.005)"/><path id="path3477-9-2-2-2" class="cls-16" d="M116.244,43.655V35.237h3.48v8.418Z" transform="translate(-0.002 0.005)"/></g><g id="R-0603"><rect id="rect21332-8-1-9-3-8-2-40-6-2-0-6-6-0-5-6-4-8-7-2-0-7-2-3-9-16-5" class="cls-17" x="155.808" y="53.546" width="2.268" height="2.26"/><rect id="rect21332-8-1-9-3-8-2-40-6-2-0-6-6-0-5-6-4-8-7-2-0-7-2-3-10-16-5" class="cls-17" x="155.808" y="50.156" width="2.268" height="2.26"/><path class="cls-4" d="M155.809,54.911V51.044a.331.331,0,0,1,.278-.33h1.7a.306.306,0,0,1,.287.324h0v3.87a.308.308,0,0,1-.285.33h-1.683a.322.322,0,0,1-.3-.32h0Z" transform="translate(-0.002 0.005)"/><g id="path26345-3-6-9-3-6-4-2-5-6-8-7-9-0-90-3-1-3-9-2-2-8-5-0-2-3-5-16-5"><rect class="cls-5" x="155.808" y="51.136" width="2.268" height="3.68"/></g><path id="path26341-4-2-6-0-8-1-1-1-5-0-3-3-1-8-3-8-7-7-7-2-4-9-7-2-3-5-16-5" class="cls-16" d="M158.077,54.391v-2.83h-2.268v2.83Z" transform="translate(-0.002 0.005)"/></g><g id="R-0603-2" data-name="R-0603"><rect id="rect21332-8-1-9-3-8-2-40-6-2-0-6-6-0-5-6-4-8-7-2-0-7-2-3-9-16-5-2" data-name="rect21332-8-1-9-3-8-2-40-6-2-0-6-6-0-5-6-4-8-7-2-0-7-2-3-9-16-5" class="cls-17" x="141.808" y="29.546" width="2.268" height="2.26"/><rect id="rect21332-8-1-9-3-8-2-40-6-2-0-6-6-0-5-6-4-8-7-2-0-7-2-3-10-16-5-2" data-name="rect21332-8-1-9-3-8-2-40-6-2-0-6-6-0-5-6-4-8-7-2-0-7-2-3-10-16-5" class="cls-17" x="141.808" y="26.156" width="2.268" height="2.26"/><path class="cls-4" d="M141.809,30.911V27.044a.331.331,0,0,1,.278-.33h1.7a.305.305,0,0,1,.287.324h0v3.87a.308.308,0,0,1-.285.33h-1.683a.322.322,0,0,1-.3-.32h0Z" transform="translate(-0.002 0.005)"/><g id="path26345-3-6-9-3-6-4-2-5-6-8-7-9-0-90-3-1-3-9-2-2-8-5-0-2-3-5-16-5-2" data-name="path26345-3-6-9-3-6-4-2-5-6-8-7-9-0-90-3-1-3-9-2-2-8-5-0-2-3-5-16-5"><rect class="cls-5" x="141.808" y="27.136" width="2.268" height="3.68"/></g><path id="path26341-4-2-6-0-8-1-1-1-5-0-3-3-1-8-3-8-7-7-7-2-4-9-7-2-3-5-16-5-2" data-name="path26341-4-2-6-0-8-1-1-1-5-0-3-3-1-8-3-8-7-7-7-2-4-9-7-2-3-5-16-5" class="cls-16" d="M144.077,30.391v-2.83h-2.268v2.83Z" transform="translate(-0.002 0.005)"/></g><g id="R-0603-3" data-name="R-0603"><rect id="rect21332-8-1-9-3-8-2-40-6-2-0-6-6-0-5-6-4-8-7-2-0-7-2-3-9-16-5-3" data-name="rect21332-8-1-9-3-8-2-40-6-2-0-6-6-0-5-6-4-8-7-2-0-7-2-3-9-16-5" class="cls-17" x="118.358" y="47.238" width="2.26" height="2.268"/><rect id="rect21332-8-1-9-3-8-2-40-6-2-0-6-6-0-5-6-4-8-7-2-0-7-2-3-10-16-5-3" data-name="rect21332-8-1-9-3-8-2-40-6-2-0-6-6-0-5-6-4-8-7-2-0-7-2-3-10-16-5" class="cls-17" x="114.968" y="47.238" width="2.26" height="2.268"/><path class="cls-4" d="M119.729,49.5h-3.867a.33.33,0,0,1-.33-.278v-1.7a.306.306,0,0,1,.324-.287h3.87a.309.309,0,0,1,.33.285V49.2a.321.321,0,0,1-.32.3h0Z" transform="translate(-0.002 0.005)"/><g id="path26345-3-6-9-3-6-4-2-5-6-8-7-9-0-90-3-1-3-9-2-2-8-5-0-2-3-5-16-5-3-2" data-name="path26345-3-6-9-3-6-4-2-5-6-8-7-9-0-90-3-1-3-9-2-2-8-5-0-2-3-5-16-5"><rect class="cls-5" x="115.948" y="47.238" width="3.68" height="2.268"/></g><path id="path26341-4-2-6-0-8-1-1-1-5-0-3-3-1-8-3-8-7-7-7-2-4-9-7-2-3-5-16-5-3" data-name="path26341-4-2-6-0-8-1-1-1-5-0-3-3-1-8-3-8-7-7-7-2-4-9-7-2-3-5-16-5" class="cls-16" d="M119.209,47.233h-2.83V49.5h2.83Z" transform="translate(-0.002 0.005)"/></g><g id="R-0603-4" data-name="R-0603"><rect id="rect21332-8-1-9-3-8-2-40-6-2-0-6-6-0-5-6-4-8-7-2-0-7-2-3-9-16-5-4" data-name="rect21332-8-1-9-3-8-2-40-6-2-0-6-6-0-5-6-4-8-7-2-0-7-2-3-9-16-5" class="cls-17" x="156.358" y="14.238" width="2.26" height="2.268"/><rect id="rect21332-8-1-9-3-8-2-40-6-2-0-6-6-0-5-6-4-8-7-2-0-7-2-3-10-16-5-4" data-name="rect21332-8-1-9-3-8-2-40-6-2-0-6-6-0-5-6-4-8-7-2-0-7-2-3-10-16-5" class="cls-17" x="152.968" y="14.238" width="2.26" height="2.268"/><path class="cls-4" d="M157.729,16.5h-3.867a.33.33,0,0,1-.33-.278v-1.7a.306.306,0,0,1,.324-.287h3.87a.309.309,0,0,1,.33.285V16.2a.321.321,0,0,1-.32.3h0Z" transform="translate(-0.002 0.005)"/><g id="path26345-3-6-9-3-6-4-2-5-6-8-7-9-0-90-3-1-3-9-2-2-8-5-0-2-3-5-16-5-4-2" data-name="path26345-3-6-9-3-6-4-2-5-6-8-7-9-0-90-3-1-3-9-2-2-8-5-0-2-3-5-16-5"><rect class="cls-5" x="153.948" y="14.238" width="3.68" height="2.268"/></g><path id="path26341-4-2-6-0-8-1-1-1-5-0-3-3-1-8-3-8-7-7-7-2-4-9-7-2-3-5-16-5-4" data-name="path26341-4-2-6-0-8-1-1-1-5-0-3-3-1-8-3-8-7-7-7-2-4-9-7-2-3-5-16-5" class="cls-16" d="M157.209,14.233h-2.83V16.5h2.83Z" transform="translate(-0.002 0.005)"/></g><g id="C-0603"><rect id="rect21332-8-1-9-3-8-2-40-6-2-0-6-6-0-5-6-4-8-7-2-0-7-2-3-9-16-2" class="cls-17" x="127.979" y="40.001" width="2.26" height="2.26"/><rect id="rect21332-8-1-9-3-8-2-40-6-2-0-6-6-0-5-6-4-8-7-2-0-7-2-3-10-16-2" class="cls-17" x="127.978" y="36.621" width="2.26" height="2.26"/><path class="cls-4" d="M127.976,41.366v-3.88a.329.329,0,0,1,.277-.33h1.7a.308.308,0,0,1,.287.324h0v3.88a.31.31,0,0,1-.286.33h-1.681a.321.321,0,0,1-.3-.32h0Z" transform="translate(-0.002 0.005)"/><rect class="cls-5" x="127.972" y="37.589" width="2.27" height="3.685"/><path id="path26341-4-2-6-0-8-1-1-1-5-0-3-3-1-8-3-8-7-7-7-2-4-9-7-2-3-5-16-2" class="cls-18" d="M130.243,40.846v-2.84h-2.268v2.84Z" transform="translate(-0.002 0.005)"/></g><g id="C-0603-2" data-name="C-0603"><rect id="rect21332-8-1-9-3-8-2-40-6-2-0-6-6-0-5-6-4-8-7-2-0-7-2-3-9-16-2-2" data-name="rect21332-8-1-9-3-8-2-40-6-2-0-6-6-0-5-6-4-8-7-2-0-7-2-3-9-16-2" class="cls-17" x="123.219" y="28.976" width="2.26" height="2.26"/><rect id="rect21332-8-1-9-3-8-2-40-6-2-0-6-6-0-5-6-4-8-7-2-0-7-2-3-10-16-2-2" data-name="rect21332-8-1-9-3-8-2-40-6-2-0-6-6-0-5-6-4-8-7-2-0-7-2-3-10-16-2" class="cls-17" x="123.218" y="25.596" width="2.26" height="2.26"/></g><g id="C-0603-3" data-name="C-0603"><rect id="rect21332-8-1-9-3-8-2-40-6-2-0-6-6-0-5-6-4-8-7-2-0-7-2-3-9-16-2-3" data-name="rect21332-8-1-9-3-8-2-40-6-2-0-6-6-0-5-6-4-8-7-2-0-7-2-3-9-16-2" class="cls-17" x="134.593" y="27.972" width="2.26" height="2.26"/><rect id="rect21332-8-1-9-3-8-2-40-6-2-0-6-6-0-5-6-4-8-7-2-0-7-2-3-10-16-2-3" data-name="rect21332-8-1-9-3-8-2-40-6-2-0-6-6-0-5-6-4-8-7-2-0-7-2-3-10-16-2" class="cls-17" x="134.592" y="24.592" width="2.26" height="2.26"/></g><g id="C-0603-4" data-name="C-0603"><rect id="rect21332-8-1-9-3-8-2-40-6-2-0-6-6-0-5-6-4-8-7-2-0-7-2-3-9-16-2-4" data-name="rect21332-8-1-9-3-8-2-40-6-2-0-6-6-0-5-6-4-8-7-2-0-7-2-3-9-16-2" class="cls-17" x="134.593" y="44.972" width="2.26" height="2.26"/><rect id="rect21332-8-1-9-3-8-2-40-6-2-0-6-6-0-5-6-4-8-7-2-0-7-2-3-10-16-2-4" data-name="rect21332-8-1-9-3-8-2-40-6-2-0-6-6-0-5-6-4-8-7-2-0-7-2-3-10-16-2" class="cls-17" x="134.592" y="41.592" width="2.26" height="2.26"/></g><g id="C-0603-5" data-name="C-0603"><rect id="rect21332-8-1-9-3-8-2-40-6-2-0-6-6-0-5-6-4-8-7-2-0-7-2-3-9-16-2-5" data-name="rect21332-8-1-9-3-8-2-40-6-2-0-6-6-0-5-6-4-8-7-2-0-7-2-3-9-16-2" class="cls-17" x="115.283" y="55.281" width="2.26" height="2.26"/><rect id="rect21332-8-1-9-3-8-2-40-6-2-0-6-6-0-5-6-4-8-7-2-0-7-2-3-10-16-2-5" data-name="rect21332-8-1-9-3-8-2-40-6-2-0-6-6-0-5-6-4-8-7-2-0-7-2-3-10-16-2" class="cls-17" x="111.903" y="55.282" width="2.26" height="2.26"/></g><g id="C-0603-6" data-name="C-0603"><rect id="rect21332-8-1-9-3-8-2-40-6-2-0-6-6-0-5-6-4-8-7-2-0-7-2-3-9-16-2-6" data-name="rect21332-8-1-9-3-8-2-40-6-2-0-6-6-0-5-6-4-8-7-2-0-7-2-3-9-16-2" class="cls-17" x="115.801" y="18.937" width="2.26" height="2.26"/><rect id="rect21332-8-1-9-3-8-2-40-6-2-0-6-6-0-5-6-4-8-7-2-0-7-2-3-10-16-2-6" data-name="rect21332-8-1-9-3-8-2-40-6-2-0-6-6-0-5-6-4-8-7-2-0-7-2-3-10-16-2" class="cls-17" x="112.421" y="18.938" width="2.26" height="2.26"/><path class="cls-4" d="M117.172,21.2h-3.88a.331.331,0,0,1-.33-.277v-1.7a.307.307,0,0,1,.324-.287h3.88a.309.309,0,0,1,.33.286V20.9a.321.321,0,0,1-.32.3h0Z" transform="translate(-0.002 0.005)"/><rect class="cls-5" x="113.389" y="18.934" width="3.685" height="2.27"/><path id="path26341-4-2-6-0-8-1-1-1-5-0-3-3-1-8-3-8-7-7-7-2-4-9-7-2-3-5-16-2-2" data-name="path26341-4-2-6-0-8-1-1-1-5-0-3-3-1-8-3-8-7-7-7-2-4-9-7-2-3-5-16-2" class="cls-18" d="M116.653,18.93h-2.841V21.2h2.841Z" transform="translate(-0.002 0.005)"/></g><g id="D-SOD323-2"><rect id="rect21332-8-1-9-3-5-5-5-7-7-6-2" class="cls-17" x="141.196" y="37.525" width="3.493" height="3.75"/><rect id="rect21332-1-0-1-9-2-0-7-3-5-9-5-2" class="cls-17" x="141.196" y="43.067" width="3.493" height="3.75"/><path id="path32574-5-6-2-6-7-2" class="cls-14" d="M141.7,45.846h2.482V44.1H141.7Z" transform="translate(-0.002 0.005)"/><path id="path32578-9-7-2-9-4-2" class="cls-14" d="M141.785,40.186h2.326V38.439h-2.335Z" transform="translate(-0.002 0.005)"/><path id="path32580-3-1-0-1-3-2" class="cls-15" d="M141.785,39.414h2.326v-.552h-2.335Z" transform="translate(-0.002 0.005)"/><path id="path32590-0-9-7-9-9-2" class="cls-16" d="M141.215,44.863h3.456V39.412h-3.456Z" transform="translate(-0.002 0.005)"/><path id="path32576-2-7-7-0-2-2" class="cls-15" d="M141.7,45.433h2.482v-.561H141.7Z" transform="translate(-0.002 0.005)"/></g><g id="LED-1210"><rect id="rect21332-8-1-9-3-8-2-40-6-2-0-6-6-0-5-6-4-8-7-2-0-7-2-3-9-16-3-7" class="cls-17" x="158.353" y="6.947" width="5.499" height="4.248"/><rect id="rect21332-8-1-9-3-8-2-40-6-2-0-6-6-0-5-6-4-8-7-2-0-7-2-3-10-16-3-7" class="cls-17" x="147.148" y="6.947" width="5.499" height="4.248"/><path class="cls-4" d="M161.083,11.19H150.017c-.6-.039-1.025-.27-.96-.525V7.479c-.088-.251.3-.487.889-.539H161.01c.588.036,1,.262.938.511v3.2c.063.255-.343.488-.938.54h0Z" transform="translate(-0.002 0.005)"/><g id="path26345-3-6-9-3-6-4-2-5-6-8-7-9-0-90-3-1-3-9-2-2-8-5-0-2-3-5-16-3-6"><rect class="cls-5" x="150.27" y="6.947" width="10.477" height="4.248"/></g><path id="path26341-4-2-6-0-8-1-1-1-5-0-3-3-1-8-3-8-7-7-7-2-4-9-7-2-3-5-16-3-7" class="cls-19" d="M159.478,6.207h-7.289v5.718h7.289Z" transform="translate(-0.002 0.005)"/><path id="path26341-4-2-6-0-8-1-1-1-5-0-3-3-1-8-3-8-7-7-7-2-4-9-7-2-3-5-16-3-7-2" data-name="path26341-4-2-6-0-8-1-1-1-5-0-3-3-1-8-3-8-7-7-7-2-4-9-7-2-3-5-16-3-7" class="cls-20" d="M159.478,6.207h-7.289v5.718h7.289Z" transform="translate(-0.002 0.005)"/><path id="path6963-86-8-2-6-0-1-7-9-2-3-3" class="cls-21" d="M158.839,9.419h-.578V8.713h.577Z" transform="translate(-0.002 0.005)"/></g><path id="path3870-5-4-1-3-9-13-48-56-2-23-7-6-6" class="cls-22" d="M149.069,42.777h1.416v2.831h-1.416Z" transform="translate(-0.002 0.005)"/><rect id="rect36057-3-4-8-4-7-5-0-7-5-24-7-7-2-5-48-13-48-56-2-23-7-6-6" class="cls-15" x="149.067" y="44.026" width="1.417" height="0.34"/><path id="path3870-5-4-1-3-9-13-48-56-2-23-7-6-7" class="cls-22" d="M156.935,42.777h1.416v2.831h-1.416Z" transform="translate(-0.002 0.005)"/><rect id="rect36057-3-4-8-4-7-5-0-7-5-24-7-7-2-5-48-13-48-56-2-23-7-6-7" class="cls-15" x="156.933" y="44.026" width="1.417" height="0.34"/><path id="path3870-5-4-1-3-9-13-48-56-2-23-7-6-6-2" data-name="path3870-5-4-1-3-9-13-48-56-2-23-7-6-6" class="cls-22" d="M149.069,25.993h1.416v2.831h-1.416Z" transform="translate(-0.002 0.005)"/><rect id="rect36057-3-4-8-4-7-5-0-7-5-24-7-7-2-5-48-13-48-56-2-23-7-6-6-2" data-name="rect36057-3-4-8-4-7-5-0-7-5-24-7-7-2-5-48-13-48-56-2-23-7-6-6" class="cls-15" x="149.067" y="27.242" width="1.417" height="0.34"/><path id="path3870-5-4-1-3-9-13-48-56-2-23-7-6-7-2" data-name="path3870-5-4-1-3-9-13-48-56-2-23-7-6-7" class="cls-22" d="M156.935,25.993h1.416v2.831h-1.416Z" transform="translate(-0.002 0.005)"/><rect id="rect36057-3-4-8-4-7-5-0-7-5-24-7-7-2-5-48-13-48-56-2-23-7-6-7-2" data-name="rect36057-3-4-8-4-7-5-0-7-5-24-7-7-2-5-48-13-48-56-2-23-7-6-7" class="cls-15" x="156.933" y="27.242" width="1.417" height="0.34"/><rect class="cls-16" x="148.039" y="28.744" width="11.339" height="14.173"/><path id="rect67054-7-7-5-2-2-3-2" class="cls-23" d="M157.846,29.6h0a.581.581,0,0,1,.572.572h0a.567.567,0,0,1-.567.567h0a.556.556,0,0,1-.567-.545h0v-.01h0a.562.562,0,0,1,.551-.573h0Z" transform="translate(-0.002 0.005)"/><rect x="109.932" y="2.453" width="0.462" height="0.462"/><rect x="110.394" y="2.453" width="0.462" height="0.462"/><rect x="110.856" y="2.453" width="0.462" height="0.462"/><rect x="111.317" y="2.453" width="0.462" height="0.462"/><rect x="111.779" y="2.453" width="0.462" height="0.462"/><rect x="112.241" y="2.453" width="0.462" height="0.462"/><rect x="112.703" y="2.453" width="0.462" height="0.462"/><rect x="113.627" y="2.453" width="0.462" height="0.462"/><rect x="115.013" y="2.453" width="0.462" height="0.462"/><rect x="115.475" y="2.453" width="0.462" height="0.462"/><rect x="115.937" y="2.453" width="0.462" height="0.462"/><rect x="118.247" y="2.453" width="0.462" height="0.462"/><rect x="118.708" y="2.453" width="0.462" height="0.462"/><rect x="119.17" y="2.453" width="0.462" height="0.462"/><rect x="119.632" y="2.453" width="0.462" height="0.462"/><rect x="120.094" y="2.453" width="0.462" height="0.462"/><rect x="120.556" y="2.453" width="0.462" height="0.462"/><rect x="121.018" y="2.453" width="0.462" height="0.462"/><rect x="109.932" y="2.915" width="0.462" height="0.462"/><rect x="112.703" y="2.915" width="0.462" height="0.462"/><rect x="113.627" y="2.915" width="0.462" height="0.462"/><rect x="114.089" y="2.915" width="0.462" height="0.462"/><rect x="114.551" y="2.915" width="0.462" height="0.462"/><rect x="115.475" y="2.915" width="0.462" height="0.462"/><rect x="116.399" y="2.915" width="0.462" height="0.462"/><rect x="118.247" y="2.915" width="0.462" height="0.462"/><rect x="121.018" y="2.915" width="0.462" height="0.462"/><rect x="109.932" y="3.377" width="0.462" height="0.462"/><rect x="110.856" y="3.377" width="0.462" height="0.462"/><rect x="111.317" y="3.377" width="0.462" height="0.462"/><rect x="111.779" y="3.377" width="0.462" height="0.462"/><rect x="112.703" y="3.377" width="0.462" height="0.462"/><rect x="114.551" y="3.377" width="0.462" height="0.462"/><rect x="115.013" y="3.377" width="0.462" height="0.462"/><rect x="115.475" y="3.377" width="0.462" height="0.462"/><rect x="115.937" y="3.377" width="0.462" height="0.462"/><rect x="117.323" y="3.377" width="0.462" height="0.462"/><rect x="118.247" y="3.377" width="0.462" height="0.462"/><rect x="119.17" y="3.377" width="0.462" height="0.462"/><rect x="119.632" y="3.377" width="0.462" height="0.462"/><rect x="120.094" y="3.377" width="0.462" height="0.462"/><rect x="121.018" y="3.377" width="0.462" height="0.462"/><rect x="109.932" y="3.839" width="0.462" height="0.462"/><rect x="110.856" y="3.839" width="0.462" height="0.462"/><rect x="111.317" y="3.839" width="0.462" height="0.462"/><rect x="111.779" y="3.839" width="0.462" height="0.462"/><rect x="112.703" y="3.839" width="0.462" height="0.462"/><rect x="114.551" y="3.839" width="0.462" height="0.462"/><rect x="115.937" y="3.839" width="0.462" height="0.462"/><rect x="117.323" y="3.839" width="0.462" height="0.462"/><rect x="118.247" y="3.839" width="0.462" height="0.462"/><rect x="119.17" y="3.839" width="0.462" height="0.462"/><rect x="119.632" y="3.839" width="0.462" height="0.462"/><rect x="120.094" y="3.839" width="0.462" height="0.462"/><rect x="121.018" y="3.839" width="0.462" height="0.462"/><rect x="109.932" y="4.301" width="0.462" height="0.462"/><rect x="110.856" y="4.301" width="0.462" height="0.462"/><rect x="111.317" y="4.301" width="0.462" height="0.462"/><rect x="111.779" y="4.301" width="0.462" height="0.462"/><rect x="112.703" y="4.301" width="0.462" height="0.462"/><rect x="113.627" y="4.301" width="0.462" height="0.462"/><rect x="114.089" y="4.301" width="0.462" height="0.462"/><rect x="114.551" y="4.301" width="0.462" height="0.462"/><rect x="115.013" y="4.301" width="0.462" height="0.462"/><rect x="116.399" y="4.301" width="0.462" height="0.462"/><rect x="118.247" y="4.301" width="0.462" height="0.462"/><rect x="119.17" y="4.301" width="0.462" height="0.462"/><rect x="119.632" y="4.301" width="0.462" height="0.462"/><rect x="120.094" y="4.301" width="0.462" height="0.462"/><rect x="121.018" y="4.301" width="0.462" height="0.462"/><rect x="109.932" y="4.763" width="0.462" height="0.462"/><rect x="112.703" y="4.763" width="0.462" height="0.462"/><rect x="113.627" y="4.763" width="0.462" height="0.462"/><rect x="115.013" y="4.763" width="0.462" height="0.462"/><rect x="115.937" y="4.763" width="0.462" height="0.462"/><rect x="116.399" y="4.763" width="0.462" height="0.462"/><rect x="118.247" y="4.763" width="0.462" height="0.462"/><rect x="121.018" y="4.763" width="0.462" height="0.462"/><rect x="109.932" y="5.225" width="0.462" height="0.462"/><rect x="110.394" y="5.225" width="0.462" height="0.462"/><rect x="110.856" y="5.225" width="0.462" height="0.462"/><rect x="111.317" y="5.225" width="0.462" height="0.462"/><rect x="111.779" y="5.225" width="0.462" height="0.462"/><rect x="112.241" y="5.225" width="0.462" height="0.462"/><rect x="112.703" y="5.225" width="0.462" height="0.462"/><rect x="113.627" y="5.225" width="0.462" height="0.462"/><rect x="114.551" y="5.225" width="0.462" height="0.462"/><rect x="115.475" y="5.225" width="0.462" height="0.462"/><rect x="116.399" y="5.225" width="0.462" height="0.462"/><rect x="117.323" y="5.225" width="0.462" height="0.462"/><rect x="118.247" y="5.225" width="0.462" height="0.462"/><rect x="118.708" y="5.225" width="0.462" height="0.462"/><rect x="119.17" y="5.225" width="0.462" height="0.462"/><rect x="119.632" y="5.225" width="0.462" height="0.462"/><rect x="120.094" y="5.225" width="0.462" height="0.462"/><rect x="120.556" y="5.225" width="0.462" height="0.462"/><rect x="121.018" y="5.225" width="0.462" height="0.462"/><rect x="113.627" y="5.686" width="0.462" height="0.462"/><rect x="114.551" y="5.686" width="0.462" height="0.462"/><rect x="115.013" y="5.686" width="0.462" height="0.462"/><rect x="115.475" y="5.686" width="0.462" height="0.462"/><rect x="116.399" y="5.686" width="0.462" height="0.462"/><rect x="116.861" y="5.686" width="0.462" height="0.462"/><rect x="117.323" y="5.686" width="0.462" height="0.462"/><rect x="109.932" y="6.148" width="0.462" height="0.462"/><rect x="110.394" y="6.148" width="0.462" height="0.462"/><rect x="110.856" y="6.148" width="0.462" height="0.462"/><rect x="112.241" y="6.148" width="0.462" height="0.462"/><rect x="112.703" y="6.148" width="0.462" height="0.462"/><rect x="113.627" y="6.148" width="0.462" height="0.462"/><rect x="114.089" y="6.148" width="0.462" height="0.462"/><rect x="114.551" y="6.148" width="0.462" height="0.462"/><rect x="115.937" y="6.148" width="0.462" height="0.462"/><rect x="116.399" y="6.148" width="0.462" height="0.462"/><rect x="117.323" y="6.148" width="0.462" height="0.462"/><rect x="117.785" y="6.148" width="0.462" height="0.462"/><rect x="118.247" y="6.148" width="0.462" height="0.462"/><rect x="118.708" y="6.148" width="0.462" height="0.462"/><rect x="119.17" y="6.148" width="0.462" height="0.462"/><rect x="120.556" y="6.148" width="0.462" height="0.462"/><rect x="121.018" y="6.148" width="0.462" height="0.462"/><rect x="110.856" y="6.61" width="0.462" height="0.462"/><rect x="111.317" y="6.61" width="0.462" height="0.462"/><rect x="111.779" y="6.61" width="0.462" height="0.462"/><rect x="112.241" y="6.61" width="0.462" height="0.462"/><rect x="114.089" y="6.61" width="0.462" height="0.462"/><rect x="114.551" y="6.61" width="0.462" height="0.462"/><rect x="115.937" y="6.61" width="0.462" height="0.462"/><rect x="116.861" y="6.61" width="0.462" height="0.462"/><rect x="118.247" y="6.61" width="0.462" height="0.462"/><rect x="118.708" y="6.61" width="0.462" height="0.462"/><rect x="119.632" y="6.61" width="0.462" height="0.462"/><rect x="120.556" y="6.61" width="0.462" height="0.462"/><rect x="121.018" y="6.61" width="0.462" height="0.462"/><rect x="110.394" y="7.072" width="0.462" height="0.462"/><rect x="110.856" y="7.072" width="0.462" height="0.462"/><rect x="111.317" y="7.072" width="0.462" height="0.462"/><rect x="112.241" y="7.072" width="0.462" height="0.462"/><rect x="112.703" y="7.072" width="0.462" height="0.462"/><rect x="113.165" y="7.072" width="0.462" height="0.462"/><rect x="113.627" y="7.072" width="0.462" height="0.462"/><rect x="115.013" y="7.072" width="0.462" height="0.462"/><rect x="116.861" y="7.072" width="0.462" height="0.462"/><rect x="119.17" y="7.072" width="0.462" height="0.462"/><rect x="119.632" y="7.072" width="0.462" height="0.462"/><rect x="120.094" y="7.072" width="0.462" height="0.462"/><rect x="121.018" y="7.072" width="0.462" height="0.462"/><rect x="109.932" y="7.534" width="0.462" height="0.462"/><rect x="112.241" y="7.534" width="0.462" height="0.462"/><rect x="113.165" y="7.534" width="0.462" height="0.462"/><rect x="113.627" y="7.534" width="0.462" height="0.462"/><rect x="114.089" y="7.534" width="0.462" height="0.462"/><rect x="115.937" y="7.534" width="0.462" height="0.462"/><rect x="117.785" y="7.534" width="0.462" height="0.462"/><rect x="119.632" y="7.534" width="0.462" height="0.462"/><rect x="111.317" y="7.996" width="0.462" height="0.462"/><rect x="111.779" y="7.996" width="0.462" height="0.462"/><rect x="112.703" y="7.996" width="0.462" height="0.462"/><rect x="114.089" y="7.996" width="0.462" height="0.462"/><rect x="115.013" y="7.996" width="0.462" height="0.462"/><rect x="115.475" y="7.996" width="0.462" height="0.462"/><rect x="115.937" y="7.996" width="0.462" height="0.462"/><rect x="116.861" y="7.996" width="0.462" height="0.462"/><rect x="117.323" y="7.996" width="0.462" height="0.462"/><rect x="118.247" y="7.996" width="0.462" height="0.462"/><rect x="118.708" y="7.996" width="0.462" height="0.462"/><rect x="121.018" y="7.996" width="0.462" height="0.462"/><rect x="111.317" y="8.458" width="0.462" height="0.462"/><rect x="111.779" y="8.458" width="0.462" height="0.462"/><rect x="112.241" y="8.458" width="0.462" height="0.462"/><rect x="113.165" y="8.458" width="0.462" height="0.462"/><rect x="115.475" y="8.458" width="0.462" height="0.462"/><rect x="116.861" y="8.458" width="0.462" height="0.462"/><rect x="117.323" y="8.458" width="0.462" height="0.462"/><rect x="117.785" y="8.458" width="0.462" height="0.462"/><rect x="118.247" y="8.458" width="0.462" height="0.462"/><rect x="118.708" y="8.458" width="0.462" height="0.462"/><rect x="120.556" y="8.458" width="0.462" height="0.462"/><rect x="121.018" y="8.458" width="0.462" height="0.462"/><rect x="109.932" y="8.92" width="0.462" height="0.462"/><rect x="110.394" y="8.92" width="0.462" height="0.462"/><rect x="111.779" y="8.92" width="0.462" height="0.462"/><rect x="112.241" y="8.92" width="0.462" height="0.462"/><rect x="112.703" y="8.92" width="0.462" height="0.462"/><rect x="113.165" y="8.92" width="0.462" height="0.462"/><rect x="114.551" y="8.92" width="0.462" height="0.462"/><rect x="115.475" y="8.92" width="0.462" height="0.462"/><rect x="115.937" y="8.92" width="0.462" height="0.462"/><rect x="116.399" y="8.92" width="0.462" height="0.462"/><rect x="116.861" y="8.92" width="0.462" height="0.462"/><rect x="117.785" y="8.92" width="0.462" height="0.462"/><rect x="118.247" y="8.92" width="0.462" height="0.462"/><rect x="119.632" y="8.92" width="0.462" height="0.462"/><rect x="120.094" y="8.92" width="0.462" height="0.462"/><rect x="121.018" y="8.92" width="0.462" height="0.462"/><rect x="110.856" y="9.382" width="0.462" height="0.462"/><rect x="111.317" y="9.382" width="0.462" height="0.462"/><rect x="113.627" y="9.382" width="0.462" height="0.462"/><rect x="115.013" y="9.382" width="0.462" height="0.462"/><rect x="115.475" y="9.382" width="0.462" height="0.462"/><rect x="116.399" y="9.382" width="0.462" height="0.462"/><rect x="116.861" y="9.382" width="0.462" height="0.462"/><rect x="118.708" y="9.382" width="0.462" height="0.462"/><rect x="119.17" y="9.382" width="0.462" height="0.462"/><rect x="119.632" y="9.382" width="0.462" height="0.462"/><rect x="109.932" y="9.844" width="0.462" height="0.462"/><rect x="110.394" y="9.844" width="0.462" height="0.462"/><rect x="110.856" y="9.844" width="0.462" height="0.462"/><rect x="111.779" y="9.844" width="0.462" height="0.462"/><rect x="112.703" y="9.844" width="0.462" height="0.462"/><rect x="113.627" y="9.844" width="0.462" height="0.462"/><rect x="114.551" y="9.844" width="0.462" height="0.462"/><rect x="115.937" y="9.844" width="0.462" height="0.462"/><rect x="116.399" y="9.844" width="0.462" height="0.462"/><rect x="117.323" y="9.844" width="0.462" height="0.462"/><rect x="117.785" y="9.844" width="0.462" height="0.462"/><rect x="118.247" y="9.844" width="0.462" height="0.462"/><rect x="118.708" y="9.844" width="0.462" height="0.462"/><rect x="119.17" y="9.844" width="0.462" height="0.462"/><rect x="120.556" y="9.844" width="0.462" height="0.462"/><rect x="113.627" y="10.306" width="0.462" height="0.462"/><rect x="114.089" y="10.306" width="0.462" height="0.462"/><rect x="115.937" y="10.306" width="0.462" height="0.462"/><rect x="116.399" y="10.306" width="0.462" height="0.462"/><rect x="117.323" y="10.306" width="0.462" height="0.462"/><rect x="119.17" y="10.306" width="0.462" height="0.462"/><rect x="121.018" y="10.306" width="0.462" height="0.462"/><rect x="109.932" y="10.768" width="0.462" height="0.462"/><rect x="110.394" y="10.768" width="0.462" height="0.462"/><rect x="110.856" y="10.768" width="0.462" height="0.462"/><rect x="111.317" y="10.768" width="0.462" height="0.462"/><rect x="111.779" y="10.768" width="0.462" height="0.462"/><rect x="112.241" y="10.768" width="0.462" height="0.462"/><rect x="112.703" y="10.768" width="0.462" height="0.462"/><rect x="114.089" y="10.768" width="0.462" height="0.462"/><rect x="114.551" y="10.768" width="0.462" height="0.462"/><rect x="115.013" y="10.768" width="0.462" height="0.462"/><rect x="117.323" y="10.768" width="0.462" height="0.462"/><rect x="118.247" y="10.768" width="0.462" height="0.462"/><rect x="119.17" y="10.768" width="0.462" height="0.462"/><rect x="121.018" y="10.768" width="0.462" height="0.462"/><rect x="109.932" y="11.23" width="0.462" height="0.462"/><rect x="112.703" y="11.23" width="0.462" height="0.462"/><rect x="113.627" y="11.23" width="0.462" height="0.462"/><rect x="115.937" y="11.23" width="0.462" height="0.462"/><rect x="116.861" y="11.23" width="0.462" height="0.462"/><rect x="117.323" y="11.23" width="0.462" height="0.462"/><rect x="119.17" y="11.23" width="0.462" height="0.462"/><rect x="120.556" y="11.23" width="0.462" height="0.462"/><rect x="121.018" y="11.23" width="0.462" height="0.462"/><rect x="109.932" y="11.692" width="0.462" height="0.462"/><rect x="110.856" y="11.692" width="0.462" height="0.462"/><rect x="111.317" y="11.692" width="0.462" height="0.462"/><rect x="111.779" y="11.692" width="0.462" height="0.462"/><rect x="112.703" y="11.692" width="0.462" height="0.462"/><rect x="114.089" y="11.692" width="0.462" height="0.462"/><rect x="114.551" y="11.692" width="0.462" height="0.462"/><rect x="115.013" y="11.692" width="0.462" height="0.462"/><rect x="115.475" y="11.692" width="0.462" height="0.462"/><rect x="115.937" y="11.692" width="0.462" height="0.462"/><rect x="116.861" y="11.692" width="0.462" height="0.462"/><rect x="117.323" y="11.692" width="0.462" height="0.462"/><rect x="117.785" y="11.692" width="0.462" height="0.462"/><rect x="118.247" y="11.692" width="0.462" height="0.462"/><rect x="118.708" y="11.692" width="0.462" height="0.462"/><rect x="119.17" y="11.692" width="0.462" height="0.462"/><rect x="120.556" y="11.692" width="0.462" height="0.462"/><rect x="121.018" y="11.692" width="0.462" height="0.462"/><rect x="109.932" y="12.154" width="0.462" height="0.462"/><rect x="110.856" y="12.154" width="0.462" height="0.462"/><rect x="111.317" y="12.154" width="0.462" height="0.462"/><rect x="111.779" y="12.154" width="0.462" height="0.462"/><rect x="112.703" y="12.154" width="0.462" height="0.462"/><rect x="114.089" y="12.154" width="0.462" height="0.462"/><rect x="115.475" y="12.154" width="0.462" height="0.462"/><rect x="117.323" y="12.154" width="0.462" height="0.462"/><rect x="117.785" y="12.154" width="0.462" height="0.462"/><rect x="119.17" y="12.154" width="0.462" height="0.462"/><rect x="120.094" y="12.154" width="0.462" height="0.462"/><rect x="120.556" y="12.154" width="0.462" height="0.462"/><rect x="109.932" y="12.616" width="0.462" height="0.462"/><rect x="110.856" y="12.616" width="0.462" height="0.462"/><rect x="111.317" y="12.616" width="0.462" height="0.462"/><rect x="111.779" y="12.616" width="0.462" height="0.462"/><rect x="112.703" y="12.616" width="0.462" height="0.462"/><rect x="113.627" y="12.616" width="0.462" height="0.462"/><rect x="114.089" y="12.616" width="0.462" height="0.462"/><rect x="114.551" y="12.616" width="0.462" height="0.462"/><rect x="115.475" y="12.616" width="0.462" height="0.462"/><rect x="115.937" y="12.616" width="0.462" height="0.462"/><rect x="116.399" y="12.616" width="0.462" height="0.462"/><rect x="116.861" y="12.616" width="0.462" height="0.462"/><rect x="117.323" y="12.616" width="0.462" height="0.462"/><rect x="117.785" y="12.616" width="0.462" height="0.462"/><rect x="118.708" y="12.616" width="0.462" height="0.462"/><rect x="119.17" y="12.616" width="0.462" height="0.462"/><rect x="119.632" y="12.616" width="0.462" height="0.462"/><rect x="120.556" y="12.616" width="0.462" height="0.462"/><rect x="121.018" y="12.616" width="0.462" height="0.462"/><rect x="109.932" y="13.077" width="0.462" height="0.462"/><rect x="112.703" y="13.077" width="0.462" height="0.462"/><rect x="113.627" y="13.077" width="0.462" height="0.462"/><rect x="114.089" y="13.077" width="0.462" height="0.462"/><rect x="115.013" y="13.077" width="0.462" height="0.462"/><rect x="115.475" y="13.077" width="0.462" height="0.462"/><rect x="116.399" y="13.077" width="0.462" height="0.462"/><rect x="116.861" y="13.077" width="0.462" height="0.462"/><rect x="117.323" y="13.077" width="0.462" height="0.462"/><rect x="117.785" y="13.077" width="0.462" height="0.462"/><rect x="118.708" y="13.077" width="0.462" height="0.462"/><rect x="119.17" y="13.077" width="0.462" height="0.462"/><rect x="109.932" y="13.539" width="0.462" height="0.462"/><rect x="110.394" y="13.539" width="0.462" height="0.462"/><rect x="110.856" y="13.539" width="0.462" height="0.462"/><rect x="111.317" y="13.539" width="0.462" height="0.462"/><rect x="111.779" y="13.539" width="0.462" height="0.462"/><rect x="112.241" y="13.539" width="0.462" height="0.462"/><rect x="112.703" y="13.539" width="0.462" height="0.462"/><rect x="113.627" y="13.539" width="0.462" height="0.462"/><rect x="114.551" y="13.539" width="0.462" height="0.462"/><rect x="115.937" y="13.539" width="0.462" height="0.462"/><rect x="116.399" y="13.539" width="0.462" height="0.462"/><rect x="117.323" y="13.539" width="0.462" height="0.462"/><rect x="118.247" y="13.539" width="0.462" height="0.462"/><rect x="119.632" y="13.539" width="0.462" height="0.462"/><rect x="121.018" y="13.539" width="0.462" height="0.462"/></g><g id="top"><g id="g14799"><rect class="cls-24" x="10.509" y="6.157" width="11.7" height="5.394"/><circle id="circle17228-0" class="cls-25" cx="16.372" cy="8.959" r="1.062"/><circle id="circle17230-0" class="cls-26" cx="16.327" cy="8.968" r="0.402"/><circle id="circle17232-6" class="cls-27" cx="16.373" cy="8.949" r="2.11"/><path id="path17234-1" class="cls-28" d="M16.141,7.781a1.307,1.307,0,0,1,.309-.037,1.34,1.34,0,0,1,.263.026l.108-.525a1.824,1.824,0,0,0-.371-.037,2.74,2.74,0,0,0-.474.052Zm-.528-.372a1.841,1.841,0,0,0-1,1.641,1.936,1.936,0,0,0,.035.36l.524-.117a1.221,1.221,0,0,1-.023-.243,1.305,1.305,0,0,1,.672-1.142Z" transform="translate(-0.002 0.005)"/><circle id="circle17236-3" class="cls-29" cx="16.357" cy="8.938" r="2.144"/></g><path class="cls-1" d="M.217,4.732v62.54a4.43,4.43,0,0,1,4.37,4.5H67.136a4.493,4.493,0,0,1,4.49-4.47V4.722A4.521,4.521,0,0,1,67.157.212L4.6.252A4.5,4.5,0,0,1,.217,4.732Zm52.7,58.19a3.4,3.4,0,0,1,6.8,0,3.4,3.4,0,0,1-3.4,3.4,3.414,3.414,0,0,1-3.4-3.4Zm-40-54a3.4,3.4,0,0,1,6.8,0,3.4,3.4,0,0,1-3.4,3.4,3.414,3.414,0,0,1-3.4-3.4Zm-8.43,41.85a2.831,2.831,0,1,1,2.83,2.84A2.827,2.827,0,0,1,4.486,50.772Zm0-29a2.831,2.831,0,1,1,2.83,2.84A2.821,2.821,0,0,1,4.486,21.772Z" transform="translate(-0.002 0.005)"/><g id="troyka-pins2"><rect id="rect6749-8-3" class="cls-2" x="39.49" y="0.202" width="7.129" height="13.809" rx="0.14"/><rect id="rect6749-9-8-3" class="cls-2" x="32.4" y="0.202" width="7.129" height="13.809" rx="0.14"/><rect id="rect6749-9-3-2-4" class="cls-2" x="25.271" y="0.202" width="7.129" height="13.809" rx="0.14"/><rect id="rect4216-5" class="cls-30" x="26.241" y="7.721" width="5.23" height="5.229" rx="0.48"/><rect id="_0.1.5.0.0.6-7-1" data-name=" 0.1.5.0.0.6-7-1" class="cls-8" x="27.701" y="9.151" width="2.27" height="2.39"/><rect id="_0.1.5.0.0.37-1-1" data-name=" 0.1.5.0.0.37-1-1" class="cls-9" x="28.261" y="9.731" width="1.17" height="1.23"/><polygon id="_0.1.5.0.0.38-1-5" data-name=" 0.1.5.0.0.38-1-5" class="cls-10" points="29.97 9.141 27.72 9.141 28.26 9.721 29.42 9.721 29.97 9.141"/><polygon id="_0.1.5.0.0.39-3-2" data-name=" 0.1.5.0.0.39-3-2" class="cls-11" points="29.97 11.551 29.42 10.971 29.42 9.721 29.97 9.141 29.97 11.551"/><polygon id="_0.1.5.0.0.40-25-7" data-name=" 0.1.5.0.0.40-25-7" class="cls-12" points="27.72 11.551 28.26 10.971 29.42 10.971 29.97 11.551 27.72 11.551"/><polygon id="_0.1.5.0.0.41-35-6" data-name=" 0.1.5.0.0.41-35-6" class="cls-13" points="27.72 11.551 27.72 9.141 28.26 9.721 28.26 10.971 27.72 11.551"/><circle id="path4180-4" class="cls-30" cx="43.049" cy="10.361" r="2.62"/><rect id="_0.1.5.0.0.7-6-40-4" data-name=" 0.1.5.0.0.7-6-40-4" class="cls-8" x="41.919" y="9.151" width="2.27" height="2.39"/><rect id="_0.1.5.0.0.32-4-7-2" data-name=" 0.1.5.0.0.32-4-7-2" class="cls-9" x="42.459" y="9.731" width="1.17" height="1.23"/><polygon id="_0.1.5.0.0.33-0-0-3" data-name=" 0.1.5.0.0.33-0-0-3" class="cls-10" points="43.649 9.721 44.189 9.141 41.899 9.141 42.469 9.721 43.649 9.721"/><polygon id="_0.1.5.0.0.34-7-3-2" data-name=" 0.1.5.0.0.34-7-3-2" class="cls-11" points="44.189 9.141 44.189 11.551 43.649 10.971 43.649 9.721 44.189 9.141"/><polygon id="_0.1.5.0.0.35-0-4-2" data-name=" 0.1.5.0.0.35-0-4-2" class="cls-12" points="44.189 11.551 41.899 11.551 42.469 10.971 43.649 10.971 44.189 11.551"/><polygon id="_0.1.5.0.0.36-3-0-1" data-name=" 0.1.5.0.0.36-3-0-1" class="cls-13" points="42.469 10.971 41.899 11.551 41.899 9.141 42.469 9.721 42.469 10.971"/><circle id="path4180-2-5" class="cls-30" cx="35.94" cy="10.361" r="2.62"/><rect id="_0.1.5.0.0.7-2-8" data-name=" 0.1.5.0.0.7-2-8" class="cls-8" x="34.83" y="9.151" width="2.27" height="2.39"/><rect id="_0.1.5.0.0.32-9-5" data-name=" 0.1.5.0.0.32-9-5" class="cls-9" x="35.37" y="9.731" width="1.17" height="1.23"/><polygon id="_0.1.5.0.0.33-7-7" data-name=" 0.1.5.0.0.33-7-7" class="cls-10" points="37.079 9.141 34.83 9.141 35.36 9.721 36.539 9.721 37.079 9.141"/><polygon id="_0.1.5.0.0.34-53-6" data-name=" 0.1.5.0.0.34-53-6" class="cls-11" points="37.079 11.551 36.539 10.971 36.539 9.721 37.079 9.141 37.079 11.551"/><polygon id="_0.1.5.0.0.35-4-1" data-name=" 0.1.5.0.0.35-4-1" class="cls-12" points="34.83 11.551 35.36 10.971 36.539 10.971 37.079 11.551 34.83 11.551"/><polygon id="_0.1.5.0.0.36-32-8" data-name=" 0.1.5.0.0.36-32-8" class="cls-13" points="34.83 11.551 34.83 9.141 35.36 9.721 35.36 10.971 34.83 11.551"/><rect id="_0.1.5.0.0.6-2-26-9" data-name=" 0.1.5.0.0.6-2-26-9" class="cls-8" x="34.83" y="9.151" width="2.27" height="2.39"/><rect id="_0.1.5.0.0.37-4-0-2" data-name=" 0.1.5.0.0.37-4-0-2" class="cls-9" x="35.37" y="9.731" width="1.17" height="1.23"/><polygon id="_0.1.5.0.0.38-0-5-7" data-name=" 0.1.5.0.0.38-0-5-7" class="cls-10" points="36.539 9.721 37.079 9.141 34.83 9.141 35.36 9.721 36.539 9.721"/><polygon id="_0.1.5.0.0.39-0-3-9" data-name=" 0.1.5.0.0.39-0-3-9" class="cls-11" points="37.079 9.141 37.079 11.551 36.539 10.971 36.539 9.721 37.079 9.141"/><polygon id="_0.1.5.0.0.40-5-10-5" data-name=" 0.1.5.0.0.40-5-10-5" class="cls-12" points="37.079 11.551 34.83 11.551 35.36 10.971 36.539 10.971 37.079 11.551"/><polygon id="_0.1.5.0.0.41-3-6-4" data-name=" 0.1.5.0.0.41-3-6-4" class="cls-13" points="35.36 10.971 34.83 11.551 34.83 9.141 35.36 9.721 35.36 10.971"/></g><g id="troyka-pins"><rect id="rect6749-3" class="cls-2" x="25.271" y="57.937" width="7.129" height="13.809" rx="0.14"/><rect id="rect6749-9-3-3" class="cls-2" x="32.4" y="57.937" width="7.129" height="13.809" rx="0.14"/><rect id="rect6749-9-3-4-2" class="cls-3" x="39.49" y="57.937" width="7.129" height="13.809" rx="0.14"/><rect id="rect4216" class="cls-30" x="40.44" y="58.997" width="5.229" height="5.23" rx="0.48"/><rect id="_0.1.5.0.0.6-7" data-name=" 0.1.5.0.0.6-7" class="cls-8" x="41.919" y="60.436" width="2.27" height="2.39"/><rect id="_0.1.5.0.0.37-1" data-name=" 0.1.5.0.0.37-1" class="cls-9" x="42.459" y="60.996" width="1.17" height="1.23"/><polygon id="_0.1.5.0.0.38-1" data-name=" 0.1.5.0.0.38-1" class="cls-10" points="42.469 62.226 41.939 62.786 44.189 62.786 43.649 62.226 42.469 62.226"/><polygon id="_0.1.5.0.0.39-3" data-name=" 0.1.5.0.0.39-3" class="cls-11" points="41.939 62.786 41.939 60.447 42.469 61.016 42.469 62.226 41.939 62.786"/><polygon id="_0.1.5.0.0.40-25" data-name=" 0.1.5.0.0.40-25" class="cls-12" points="41.939 60.447 44.189 60.447 43.649 61.016 42.469 61.016 41.939 60.447"/><polygon id="_0.1.5.0.0.41-35" data-name=" 0.1.5.0.0.41-35" class="cls-13" points="43.649 61.016 44.189 60.447 44.189 62.786 43.649 62.226 43.649 61.016"/><circle id="path4180" class="cls-30" cx="28.851" cy="61.616" r="2.62"/><rect id="_0.1.5.0.0.7-6-40" data-name=" 0.1.5.0.0.7-6-40" class="cls-8" x="27.701" y="60.436" width="2.27" height="2.39"/><rect id="_0.1.5.0.0.32-4-7" data-name=" 0.1.5.0.0.32-4-7" class="cls-9" x="28.261" y="60.996" width="1.17" height="1.23"/><polygon id="_0.1.5.0.0.33-0-0" data-name=" 0.1.5.0.0.33-0-0" class="cls-10" points="29.42 62.226 28.26 62.226 27.72 62.786 29.97 62.786 29.42 62.226"/><polygon id="_0.1.5.0.0.34-7-3" data-name=" 0.1.5.0.0.34-7-3" class="cls-11" points="28.26 62.226 27.72 62.786 27.72 60.447 28.26 61.016 28.26 62.226"/><polygon id="_0.1.5.0.0.35-0-4" data-name=" 0.1.5.0.0.35-0-4" class="cls-12" points="28.26 61.016 27.72 60.447 29.97 60.447 29.42 61.016 28.26 61.016"/><polygon id="_0.1.5.0.0.36-3-0" data-name=" 0.1.5.0.0.36-3-0" class="cls-13" points="29.42 62.226 29.42 61.016 29.97 60.447 29.97 62.786 29.42 62.226"/><circle id="path4180-2" class="cls-30" cx="35.94" cy="61.616" r="2.62"/><rect id="_0.1.5.0.0.7-2" data-name=" 0.1.5.0.0.7-2" class="cls-8" x="34.83" y="60.436" width="2.27" height="2.39"/><rect id="_0.1.5.0.0.32-9" data-name=" 0.1.5.0.0.32-9" class="cls-9" x="35.35" y="60.996" width="1.17" height="1.23"/><polygon id="_0.1.5.0.0.33-7" data-name=" 0.1.5.0.0.33-7" class="cls-10" points="35.36 62.226 34.83 62.786 37.079 62.786 36.539 62.226 35.36 62.226"/><polygon id="_0.1.5.0.0.34-53" data-name=" 0.1.5.0.0.34-53" class="cls-11" points="34.83 62.786 34.83 60.447 35.36 61.016 35.36 62.226 34.83 62.786"/><polygon id="_0.1.5.0.0.35-4" data-name=" 0.1.5.0.0.35-4" class="cls-12" points="34.83 60.447 37.079 60.447 36.539 61.016 35.36 61.016 34.83 60.447"/><polygon id="_0.1.5.0.0.36-32" data-name=" 0.1.5.0.0.36-32" class="cls-13" points="36.539 61.016 37.079 60.447 37.079 62.786 36.539 62.226 36.539 61.016"/><rect id="_0.1.5.0.0.6-2-26" data-name=" 0.1.5.0.0.6-2-26" class="cls-8" x="34.83" y="60.436" width="2.27" height="2.39"/><rect id="_0.1.5.0.0.37-4-0" data-name=" 0.1.5.0.0.37-4-0" class="cls-9" x="35.37" y="60.996" width="1.17" height="1.23"/><polygon id="_0.1.5.0.0.38-0-5" data-name=" 0.1.5.0.0.38-0-5" class="cls-10" points="36.539 62.226 35.36 62.226 34.83 62.786 37.079 62.786 36.539 62.226"/><polygon id="_0.1.5.0.0.39-0-3" data-name=" 0.1.5.0.0.39-0-3" class="cls-11" points="35.36 62.226 34.83 62.786 34.83 60.447 35.36 61.016 35.36 62.226"/><polygon id="_0.1.5.0.0.40-5-10" data-name=" 0.1.5.0.0.40-5-10" class="cls-12" points="35.36 61.016 34.83 60.447 37.079 60.447 36.539 61.016 35.36 61.016"/><polygon id="_0.1.5.0.0.41-3-6" data-name=" 0.1.5.0.0.41-3-6" class="cls-13" points="36.539 62.226 36.539 61.016 37.079 60.447 37.079 62.786 36.539 62.226"/></g><text class="cls-31" transform="translate(41.26 69.516)">G</text><text class="cls-31" transform="translate(34.562 69.475)">V</text><text class="cls-31" transform="translate(27.441 69.516)">S</text><g id="amperka-logo-2-2-2"><g id="g530-2-2-2"><path id="path532-2-2-2" d="M7.4,34.2A2.008,2.008,0,1,0,9.407,36.2h0A2.008,2.008,0,0,0,7.4,34.2h0m0,5.235A3.227,3.227,0,1,1,10.626,36.2,3.227,3.227,0,0,1,7.4,39.431h0" transform="translate(-0.002 0.005)"/></g><g id="g534-2-2-2"><path id="path536-2-2-2" d="M7.4,27.929a2.229,2.229,0,1,0,2.229,2.229A2.229,2.229,0,0,0,7.4,27.929h0m0,1.219A1.01,1.01,0,1,1,6.39,30.159h0A1.011,1.011,0,0,1,7.4,29.149" transform="translate(-0.002 0.005)"/></g><g id="g538-2-2-2"><path id="path540-2-2-2" d="M7.03,41.551a5.369,5.369,0,0,1-3.834-8.7L2.8,32.457a.626.626,0,0,1-.06-.836.609.609,0,0,1,.857-.088h.011a.338.338,0,0,1,.044.04l.876.876a.529.529,0,0,1,0,.747h0a4.261,4.261,0,0,0-1.264,2.736,4.15,4.15,0,1,0,7.077-2.679l-.057-.057a.528.528,0,0,1,0-.746h0l.858-.857a.626.626,0,0,1,.831-.059.609.609,0,0,1,.085.857h0c-.013.016-.026.03-.04.045l-.412.412a5.37,5.37,0,0,1-4.572,8.7" transform="translate(-0.002 0.005)"/></g></g><path class="cls-32" d="M63.57,11.442V58.048a1.662,1.662,0,0,1-1.662,1.662h-41.9a1.663,1.663,0,0,1-1.662-1.662V51.592a1.663,1.663,0,0,1,1.662-1.662H22.7a1.662,1.662,0,0,0,1.662-1.662V41.222A1.662,1.662,0,0,0,22.7,39.56H20.012A1.663,1.663,0,0,1,18.35,37.9V31.592a1.663,1.663,0,0,1,1.662-1.662H22.7a1.662,1.662,0,0,0,1.662-1.662V21.222A1.662,1.662,0,0,0,22.7,19.56H20.012A1.663,1.663,0,0,1,18.35,17.9V11.442A1.663,1.663,0,0,1,20.012,9.78h41.9A1.662,1.662,0,0,1,63.57,11.442Z" transform="translate(-0.002 0.005)"/><rect class="cls-33" x="28.465" y="17.688" width="4.808" height="9.721"/><rect class="cls-34" x="28.465" y="19.441" width="4.808" height="6.816"/><rect class="cls-33" x="28.465" y="40.688" width="4.808" height="9.721"/><rect class="cls-34" x="28.465" y="42.441" width="4.808" height="6.816"/><rect class="cls-35" x="32.4" y="11.163" width="33.188" height="47.173"/><rect class="cls-36" x="32.4" y="11.163" width="33.188" height="47.173"/><rect class="cls-37" x="32.4" y="30.68" width="34.016" height="8.141"/><polygon class="cls-38" points="71.109 6.705 71.109 66.095 68.119 66.095 68.119 60.735 65.589 60.735 65.589 3.405 68.119 3.405 68.119 6.705 71.109 6.705"/><rect class="cls-39" x="21.465" y="12.95" width="6.192" height="3.596"/><rect class="cls-39" x="21.465" y="30.68" width="4.808" height="7.636"/><rect class="cls-39" x="21.465" y="52.95" width="6.192" height="3.596"/></g></svg>