<?xml version="1.0" encoding="UTF-8" standalone="no"?>
<!-- Created with Fritzing (http://www.fritzing.org/) -->

<svg
   xmlns:dc="http://purl.org/dc/elements/1.1/"
   xmlns:cc="http://creativecommons.org/ns#"
   xmlns:rdf="http://www.w3.org/1999/02/22-rdf-syntax-ns#"
   xmlns:svg="http://www.w3.org/2000/svg"
   xmlns="http://www.w3.org/2000/svg"
   xmlns:xlink="http://www.w3.org/1999/xlink"
   xmlns:sodipodi="http://sodipodi.sourceforge.net/DTD/sodipodi-0.dtd"
   xmlns:inkscape="http://www.inkscape.org/namespaces/inkscape"
   width="90"
   x="0in"
   version="1.2"
   y="0in"
   height="90"
   viewBox="0 0 999.99993 1000"
   id="svg2"
   inkscape:version="0.48.4 r9939"
   sodipodi:docname="Troyka_sample1.svg">
  <metadata
     id="metadata157">
    <rdf:RDF>
      <cc:Work
         rdf:about="">
        <dc:format>image/svg+xml</dc:format>
        <dc:type
           rdf:resource="http://purl.org/dc/dcmitype/StillImage" />
        <dc:title />
      </cc:Work>
    </rdf:RDF>
  </metadata>
  <defs
     id="defs155">
    <clipPath
       clipPathUnits="userSpaceOnUse"
       id="clipPath18">
      <path
         inkscape:connector-curvature="0"
         d="m 0,0 1786.82,0 0,3550 L 0,3550 0,0 z"
         id="path20" />
    </clipPath>
    <clipPath
       clipPathUnits="userSpaceOnUse"
       id="clipPath18-1">
      <path
         inkscape:connector-curvature="0"
         d="m 0,0 1786.82,0 0,3550 L 0,3550 0,0 z"
         id="path20-7" />
    </clipPath>
  </defs>
  <sodipodi:namedview
     pagecolor="#ffffff"
     bordercolor="#666666"
     borderopacity="1"
     objecttolerance="10"
     gridtolerance="10"
     guidetolerance="10"
     inkscape:pageopacity="0"
     inkscape:pageshadow="2"
     inkscape:window-width="1920"
     inkscape:window-height="1017"
     id="namedview153"
     showgrid="false"
     units="px"
     inkscape:zoom="5.6568543"
     inkscape:cx="33.941586"
     inkscape:cy="53.53886"
     inkscape:window-x="-8"
     inkscape:window-y="-8"
     inkscape:window-maximized="1"
     inkscape:current-layer="layer4"
     showguides="true"
     inkscape:guide-bbox="true" />
  <desc
     id="desc4">Fritzing breadboard generated by brd2svg</desc>
  <g
     inkscape:groupmode="layer"
     id="layer4"
     inkscape:label="pic"
     style="display:inline" />
  <g
     inkscape:groupmode="layer"
     id="layer1"
     inkscape:label="design"
     style="display:inline" />
  <g
     inkscape:groupmode="layer"
     id="layer3"
     inkscape:label="copper"
     style="display:inline" />
  <g
     inkscape:groupmode="layer"
     id="layer2"
     inkscape:label="breadbord"
     style="display:inline">
    <g
       id="g4357"
       transform="translate(0.69444444,-0.69443444)">
      <image
         y="0"
         x="0"
         id="image3142"
         xlink:href="file:///D:/docs/Documents/%D0%A2%D0%B5%D0%BA%D1%81%D1%82%20%D0%B4%D0%BB%D1%8F%20%D1%81%D0%B0%D0%B9%D1%82%D0%B0/%D0%9F%D1%80%D0%BE%D0%B4%D1%83%D0%BA%D1%82%D1%8B/%D0%A8%D1%91%D0%BB%D0%BA/module-m2-mosfet-a5-placement-n.png"
         height="1000"
         width="1000"
         style="display:inline" />
      <g
         transform="matrix(0,-0.06719612,-0.06719612,0,976.29943,197.12441)"
         id="g14"
         style="fill:#000000;display:inline">
        <g
           id="g16"
           clip-path="url(#clipPath18-1)"
           style="fill:#000000">
          <path
             inkscape:connector-curvature="0"
             d="m 81.7031,896.66 1623.4369,0 c 30.71,113.3 57.19,219.18 68.05,287.53 20.56,129.75 15.61,443.91 0,525.89 -27.05,141.92 -126.8,327.45 -194.07,484.92 l -487.74,-337.28 135.3,-82.48 0,-234.53 -307.524,197.9 -286.187,-197.9 0,234.53 113.32,74.61 -538.051,346.25 C 140.953,2038.39 40.7852,1852.34 13.6445,1710.08 c -15.58981,-81.98 -20.62106,-396.14 0,-525.89 10.8594,-68.35 37.3399,-174.23 68.0586,-287.53 z M 182.602,538.332 c 13.793,-48.91 25.347,-90.891 33.062,-121.672 l 1355.536,0 c 7.71,30.781 19.26,72.762 33.05,121.672 l -1421.648,0 z m 253.781,2343.988 367.472,197.7 -194.3,218.33 -173.172,-138.53 0,-277.5 z m 277.519,460 436.478,-460 218,0 -2.67,256.67 -273.58,203.33 -378.228,0 z M 266.465,3044.84 c 51.555,470.86 626.91,505.63 626.91,505.63 0,0 575.415,-34.77 627.045,-505.63 18.41,-168.34 -32.37,-511.25 0,-677.54 0.42,-2.21 0.98,-4.51 1.45,-6.75 l -603.475,-397.37 -653.207,398.2 c 0.414,1.96 0.902,3.99 1.277,5.92 32.324,166.29 -18.442,509.2 0,677.54 z m 1275.105,-2874 c 0,40.93 6.28,88.531 11.67,127.492 l -1320.127,0 c 3.942,-40.32 7.918,-88.332 7.203,-111.844 -0.382,-11.289 -2.218,-12.687 -8.632,-32.398 -7.508,-23.238 -38.438,-77.9884 31.254,-89.9884 478.394,-82 692.867,-83.2305 1247.082,-15.6407 44.95,5.4688 50.24,55.1411 39.32,84.0391 -4.35,11.551 -7.77,24.551 -7.77,38.34 z m -1427.129,607.492 1557.969,0 c -11.64,-41.41 -23.31,-82.434 -34.5,-121.672 l -1488.957,0 c -11.195,39.238 -22.867,80.262 -34.512,121.672"
             style="fill:#000000;fill-opacity:1;fill-rule:nonzero;stroke:none"
             id="path22" />
        </g>
      </g>
      <g
         id="g3975">
        <path
           inkscape:connector-curvature="0"
           id="path3026"
           style="font-size:111.1111145px;font-style:normal;font-variant:normal;font-weight:bold;font-stretch:normal;text-align:start;line-height:100%;letter-spacing:0px;word-spacing:0px;text-anchor:start;fill:#000000;fill-opacity:1;stroke:none;font-family:Trebuchet MS;-inkscape-font-specification:Trebuchet MS Bold"
           d="m 971.97906,788.49821 -16.11328,5.80512 0,27.23524 16.11328,5.53386 0,15.67925 -80.5664,-31.68403 0,-6.18489 80.5664,-31.9553 z m -56.26085,19.477 29.35113,9.54861 0,-19.09723 z" />
        <path
           inkscape:connector-curvature="0"
           id="path3028"
           style="font-size:111.1111145px;font-style:normal;font-variant:normal;font-weight:bold;font-stretch:normal;text-align:start;line-height:100%;letter-spacing:0px;word-spacing:0px;text-anchor:start;fill:#000000;fill-opacity:1;stroke:none;font-family:Trebuchet MS;-inkscape-font-specification:Trebuchet MS Bold"
           d="m 971.97906,698.11192 -36.40408,0 c -7.63161,8e-5 -11.44743,3.41804 -11.44748,10.25391 5e-5,2.02552 0.59684,3.97865 1.79037,5.85937 1.19362,1.88085 2.56804,3.20101 4.12326,3.96051 l 41.93793,0 0,13.56337 -38.51996,0 c -2.85731,4e-5 -5.12691,0.88618 -6.80881,2.65842 -1.68181,1.77231 -2.52274,4.26797 -2.52279,7.48698 5e-5,1.69997 0.63301,3.55363 1.89887,5.56098 1.26596,2.0074 2.65847,3.4632 4.17752,4.3674 l 41.77517,0 0,13.56337 -58.10547,0 0,-9.3316 5.09983,-2.76692 c -4.12321,-3.76156 -6.18484,-8.62628 -6.1849,-14.59419 6e-5,-7.70395 2.09786,-13.50907 6.29341,-17.41536 -1.9169,-1.69989 -3.44504,-4.06896 -4.58442,-7.10721 -1.13926,-3.03813 -1.70893,-6.07632 -1.70899,-9.11458 6e-5,-6.47418 1.85372,-11.5107 5.56099,-15.1096 3.70737,-3.59872 8.79815,-5.39813 15.27235,-5.39822 l 38.3572,0 z" />
        <path
           inkscape:connector-curvature="0"
           id="path3030"
           style="font-size:111.1111145px;font-style:normal;font-variant:normal;font-weight:bold;font-stretch:normal;text-align:start;line-height:100%;letter-spacing:0px;word-spacing:0px;text-anchor:start;fill:#000000;fill-opacity:1;stroke:none;font-family:Trebuchet MS;-inkscape-font-specification:Trebuchet MS Bold"
           d="m 970.51422,657.42182 24.2513,0 0,13.56337 -80.89193,0 0,-13.56337 3.90625,0 c -3.32748,-3.39986 -4.99126,-7.57738 -4.99132,-12.53256 6e-5,-18.51846 10.19971,-27.77771 30.59896,-27.77777 9.51247,6e-5 16.83668,2.55901 21.97266,7.67686 5.136,5.11796 7.70399,12.10761 7.70399,20.96897 0,4.26797 -0.84997,8.15613 -2.54991,11.6645 z m -42.42622,0 30.54471,0 c 1.98931,-2.45947 2.98395,-5.3349 2.98394,-8.62631 10e-6,-6.25719 -1.49196,-10.75119 -4.47591,-13.48198 -2.98392,-2.73072 -7.69493,-4.0961 -14.13303,-4.09614 -6.87207,4e-5 -11.70967,1.35638 -14.5128,4.06901 -2.80305,2.71271 -4.2046,7.19766 -4.20465,13.45486 5e-5,3.25523 1.26596,6.14875 3.79774,8.68056 z" />
        <path
           inkscape:connector-curvature="0"
           id="path3032"
           style="font-size:111.1111145px;font-style:normal;font-variant:normal;font-weight:bold;font-stretch:normal;text-align:start;line-height:100%;letter-spacing:0px;word-spacing:0px;text-anchor:start;fill:#000000;fill-opacity:1;stroke:none;font-family:Trebuchet MS;-inkscape-font-specification:Trebuchet MS Bold"
           d="m 947.07672,553.36366 0,41.50391 c 4.62965,-0.25317 8.22846,-1.8446 10.79644,-4.77431 2.56801,-2.92966 3.85201,-6.87208 3.852,-11.82726 1e-5,-6.18485 -1.60951,-10.88681 -4.82856,-14.1059 l 10.36241,-5.26259 c 3.87008,4.77436 5.80512,11.89964 5.80512,21.37587 0,8.86143 -2.59512,15.86916 -7.78537,21.02322 -5.19024,5.15409 -12.43307,7.73113 -21.72852,7.73112 -9.15071,10e-6 -16.56534,-2.83021 -22.24392,-8.49067 -5.67847,-5.66042 -8.51774,-12.45114 -8.5178,-20.37217 6e-5,-8.42734 2.51381,-15.19093 7.54124,-20.2908 5.02753,-5.09977 11.42944,-7.64968 19.20573,-7.64974 1.6638,6e-5 4.17754,0.37983 7.54123,1.13932 z m -10.19965,41.01563 0,-28.53733 c -8.49967,0.94044 -12.74952,5.6424 -12.74957,14.1059 5e-5,7.74019 4.2499,12.55066 12.74957,14.43143 z" />
        <path
           inkscape:connector-curvature="0"
           id="path3034"
           style="font-size:111.1111145px;font-style:normal;font-variant:normal;font-weight:bold;font-stretch:normal;text-align:start;line-height:100%;letter-spacing:0px;word-spacing:0px;text-anchor:start;fill:#000000;fill-opacity:1;stroke:none;font-family:Trebuchet MS;-inkscape-font-specification:Trebuchet MS Bold"
           d="m 926.51465,507.84499 c -1.59138,2.42336 -2.3871,5.08177 -2.38715,7.97526 5e-5,3.14673 1.42872,5.94078 4.28603,8.38216 2.85739,2.44143 6.34769,3.66213 10.47092,3.66211 l 33.09461,0 0,13.56337 -58.10547,0 0,-13.56337 5.31684,0 c -4.26788,-3.79772 -6.40185,-8.84329 -6.40191,-15.13672 6e-5,-4.62959 0.70536,-8.17415 2.11589,-10.63368 z" />
        <path
           inkscape:connector-curvature="0"
           id="path3036"
           style="font-size:111.1111145px;font-style:normal;font-variant:normal;font-weight:bold;font-stretch:normal;text-align:start;line-height:100%;letter-spacing:0px;word-spacing:0px;text-anchor:start;fill:#000000;fill-opacity:1;stroke:none;font-family:Trebuchet MS;-inkscape-font-specification:Trebuchet MS Bold"
           d="m 971.97906,456.73823 -26.31293,17.08984 6.89019,6.51042 19.42274,0 0,13.56337 -79.7526,0 -3.25521,-13.56337 47.20052,0 -22.29818,-19.36849 0,-16.3303 22.02691,19.63976 36.07856,-23.65452 z" />
        <path
           inkscape:connector-curvature="0"
           id="path3038"
           style="font-size:111.1111145px;font-style:normal;font-variant:normal;font-weight:bold;font-stretch:normal;text-align:start;line-height:100%;letter-spacing:0px;word-spacing:0px;text-anchor:start;fill:#000000;fill-opacity:1;stroke:none;font-family:Trebuchet MS;-inkscape-font-specification:Trebuchet MS Bold"
           d="m 966.17394,400.58586 c 2.02547,1.22978 3.6802,3.37279 4.9642,6.42903 1.28399,3.05631 1.92599,6.24822 1.92599,9.57574 0,6.25725 -1.5643,11.17623 -4.69292,14.75695 -3.12861,3.58073 -7.56835,5.3711 -13.31923,5.37109 -6.72741,1e-5 -11.98999,-2.52278 -15.78776,-7.56836 -3.79771,-5.04555 -5.69658,-12.21605 -5.69661,-21.5115 3e-5,-1.5914 0.2713,-3.47219 0.8138,-5.64236 -6.8359,4e-5 -10.25386,4.32223 -10.25391,12.96658 5e-5,5.09985 0.85002,9.36778 2.54991,12.80382 l -10.52517,2.92969 c -2.24242,-4.66579 -3.36366,-10.21772 -3.36372,-16.65582 6e-5,-8.86137 2.01648,-15.35369 6.04927,-19.477 4.03289,-4.12321 11.67358,-6.18484 22.92209,-6.18489 l 12.42405,0 c 7.74017,5e-5 12.60489,-1.55522 14.59418,-4.6658 1.95313,1.12129 3.15574,2.36912 3.60786,3.74349 0.45211,1.37447 0.67816,2.94782 0.67816,4.72005 0,1.95317 -0.72338,3.70736 -2.17013,5.26259 -1.44676,1.5553 -3.02011,2.6042 -4.72006,3.1467 z m -21.53863,1.30208 c -0.47016,2.31485 -0.70526,4.05096 -0.70529,5.20834 3e-5,10.70604 3.50841,16.05904 10.52517,16.05902 5.20835,2e-5 7.81251,-3.02009 7.8125,-9.06033 10e-6,-8.13798 -4.06899,-12.20699 -12.20703,-12.20703 z" />
        <path
           inkscape:connector-curvature="0"
           id="path3040"
           style="font-size:111.1111145px;font-style:normal;font-variant:normal;font-weight:bold;font-stretch:normal;text-align:start;line-height:100%;letter-spacing:0px;word-spacing:0px;text-anchor:start;fill:#000000;fill-opacity:1;stroke:none;font-family:Trebuchet MS;-inkscape-font-specification:Trebuchet MS Bold"
           d="m 964.87186,371.56026 c -2.71266,10e-6 -5.01843,-0.94942 -6.91732,-2.84831 -1.89885,-1.89885 -2.84829,-4.20462 -2.84831,-6.91731 2e-5,-2.71266 0.94946,-5.01843 2.84831,-6.91732 1.89889,-1.89885 4.20466,-2.84828 6.91732,-2.84831 2.71268,3e-5 5.02749,0.94946 6.94444,2.84831 1.91696,1.89889 2.87544,4.20466 2.87544,6.91732 0,2.71269 -0.95848,5.01846 -2.87544,6.91731 -1.91695,1.89889 -4.23176,2.84832 -6.94444,2.84831 z" />
        <path
           inkscape:connector-curvature="0"
           id="path3042"
           style="font-size:111.1111145px;font-style:normal;font-variant:normal;font-weight:bold;font-stretch:normal;text-align:start;line-height:100%;letter-spacing:0px;word-spacing:0px;text-anchor:start;fill:#000000;fill-opacity:1;stroke:none;font-family:Trebuchet MS;-inkscape-font-specification:Trebuchet MS Bold"
           d="m 926.51465,299.29463 c -1.59138,2.42336 -2.3871,5.08178 -2.38715,7.97526 5e-5,3.14673 1.42872,5.94079 4.28603,8.38216 2.85739,2.44143 6.34769,3.66214 10.47092,3.66211 l 33.09461,0 0,13.56337 -58.10547,0 0,-13.56337 5.31684,0 c -4.26788,-3.79771 -6.40185,-8.84328 -6.40191,-15.13671 6e-5,-4.62959 0.70536,-8.17415 2.11589,-10.63369 z" />
        <path
           inkscape:connector-curvature="0"
           id="path3044"
           style="font-size:111.1111145px;font-style:normal;font-variant:normal;font-weight:bold;font-stretch:normal;text-align:start;line-height:100%;letter-spacing:0px;word-spacing:0px;text-anchor:start;fill:#000000;fill-opacity:1;stroke:none;font-family:Trebuchet MS;-inkscape-font-specification:Trebuchet MS Bold"
           d="m 972.03332,247.9166 -4.88281,0 c 1.6276,1.917 3.02011,4.55734 4.17751,7.92101 1.15741,3.36375 1.73611,6.4562 1.73611,9.27735 0,13.49104 -7.16145,20.23655 -21.48437,20.23654 l -37.70617,0 0,-13.56337 36.67535,0 c 7.45083,2e-5 11.17623,-3.3456 11.17622,-10.03689 1e-5,-3.07433 -0.79571,-5.93168 -2.38715,-8.57205 -1.59143,-2.64029 -3.43604,-4.39449 -5.53386,-5.26259 l -39.93056,0 0,-13.56336 58.15973,0 z" />
      </g>
      <path
         id="rect3082"
         d="m 62.847187,0 c 0,34.78959 -28.057632,62.847222 -62.847222,62.847222 l 0,874.305548 c 34.78959,0 62.847222,28.05763 62.847222,62.84722 l 874.305543,0 c 0,-34.78959 28.05764,-62.84722 62.84722,-62.84722 l 0,-874.305548 C 965.21037,62.847222 937.15273,34.78959 937.15273,0 L 62.847187,0 z"
         style="fill:#e6e6e6;fill-opacity:1;fill-rule:nonzero;stroke:#000000;stroke-width:1.11111116;stroke-miterlimit:0;stroke-opacity:1;stroke-dasharray:none;display:inline"
         inkscape:connector-curvature="0" />
      <g
         id="g4314">
        <rect
           style="font-size:105.24749756px;font-style:normal;font-weight:normal;text-align:start;line-height:100%;letter-spacing:0px;word-spacing:0px;text-anchor:start;fill:none;stroke:#000000;stroke-width:7.65314722;stroke-miterlimit:4;stroke-opacity:1;stroke-dasharray:none;font-family:Sans"
           id="rect6749"
           width="192.93941"
           height="99.577477"
           x="-990.6731"
           y="348.91248"
           rx="2.0766783"
           transform="matrix(0,-1,1,0,0,0)"
           ry="2.0766783" />
        <rect
           style="font-size:105.24749756px;font-style:normal;font-weight:normal;text-align:start;line-height:100%;letter-spacing:0px;word-spacing:0px;text-anchor:start;fill:none;stroke:#000000;stroke-width:7.65235424;stroke-miterlimit:4;stroke-opacity:1;stroke-dasharray:none;font-family:Sans"
           id="rect6749-9"
           width="192.9402"
           height="99.578285"
           x="-990.67346"
           y="448.12302"
           rx="2.0766869"
           transform="matrix(0,-1,1,0,0,0)"
           ry="2.0766869" />
        <rect
           style="font-size:105.24749756px;font-style:normal;font-weight:normal;text-align:start;line-height:100%;letter-spacing:0px;word-spacing:0px;text-anchor:start;fill:none;stroke:#000000;stroke-width:7.65235472;stroke-miterlimit:4;stroke-opacity:1;stroke-dasharray:none;font-family:Sans"
           id="rect6749-9-3"
           width="192.9402"
           height="99.578285"
           x="-990.67352"
           y="547.33398"
           rx="2.0766871"
           transform="matrix(0,-1,1,0,0,0)"
           ry="2.0766871" />
        <path
           sodipodi:type="arc"
           style="fill:#666666;fill-opacity:1;fill-rule:nonzero;stroke:none"
           id="path4180"
           sodipodi:cx="-19.501408"
           sodipodi:cy="88.399887"
           sodipodi:rx="4.3003101"
           sodipodi:ry="4.3003101"
           d="m -15.201097,88.399887 a 4.3003101,4.3003101 0 1 1 -8.600621,0 4.3003101,4.3003101 0 1 1 8.600621,0 z"
           transform="matrix(8.5017124,0,0,8.5017124,564.41211,97.663848)" />
        <path
           sodipodi:type="arc"
           style="fill:#666666;fill-opacity:1;fill-rule:nonzero;stroke:none;display:inline"
           id="path4180-2"
           sodipodi:cx="-19.501408"
           sodipodi:cy="88.399887"
           sodipodi:rx="4.3003101"
           sodipodi:ry="4.3003101"
           d="m -15.201097,88.399887 a 4.3003101,4.3003101 0 1 1 -8.600621,0 4.3003101,4.3003101 0 1 1 8.600621,0 z"
           transform="matrix(8.5017124,0,0,8.5017124,663.70743,97.663848)" />
        <rect
           style="fill:#666666;fill-opacity:1;fill-rule:nonzero;stroke:none"
           id="rect4216"
           width="73.120003"
           height="73.120003"
           x="560.64746"
           y="812.6543"
           rx="7.1444483"
           ry="7.1444483" />
        <g
           id="g4114">
          <g
             transform="translate(-0.78573089,-0.78573089)"
             id="g3132">
            <rect
               id="_x30_.1.5.0.0.6-7"
               x="833.33075"
               y="-613.70831"
               width="33.3386"
               height="31.65897"
               style="font-size:105.24749756px;font-style:normal;font-weight:normal;text-align:start;line-height:100%;letter-spacing:0px;word-spacing:0px;text-anchor:start;fill:#8d8c8c;fill-opacity:1;stroke:none;font-family:Sans"
               transform="matrix(0,1,-1,0,0,0)" />
            <rect
               id="_x30_.1.5.0.0.37-1"
               x="841.36096"
               y="-606.021"
               width="17.20562"
               height="16.284117"
               style="font-size:105.24749756px;font-style:normal;font-weight:normal;text-align:start;line-height:100%;letter-spacing:0px;word-spacing:0px;text-anchor:start;fill:#8c8663;fill-opacity:1;stroke:none;font-family:Sans"
               transform="matrix(0,1,-1,0,0,0)" />
            <polygon
               id="_x30_.1.5.0.0.38-1"
               points="4.203,3.012 4.203,4.193 4.759,4.751 4.759,2.454 "
               style="font-size:105.24749756px;font-style:normal;font-weight:normal;text-align:start;line-height:100%;letter-spacing:0px;word-spacing:0px;text-anchor:start;fill:#b8af82;fill-opacity:1;stroke:none;font-family:Sans"
               transform="matrix(0,14.495044,-13.776748,0,647.51645,797.64384)" />
            <polygon
               id="_x30_.1.5.0.0.39-3"
               points="4.203,4.193 4.759,4.751 2.462,4.751 3.016,4.193 "
               style="font-size:105.24749756px;font-style:normal;font-weight:normal;text-align:start;line-height:100%;letter-spacing:0px;word-spacing:0px;text-anchor:start;fill:#80795b;fill-opacity:1;stroke:none;font-family:Sans"
               transform="matrix(0,14.495044,-13.776748,0,647.51645,797.64384)" />
            <polygon
               id="_x30_.1.5.0.0.40-25"
               points="3.016,4.193 2.462,4.751 2.462,2.454 3.016,3.012 "
               style="font-size:105.24749756px;font-style:normal;font-weight:normal;text-align:start;line-height:100%;letter-spacing:0px;word-spacing:0px;text-anchor:start;fill:#5e5b43;fill-opacity:1;stroke:none;font-family:Sans"
               transform="matrix(0,14.495044,-13.776748,0,647.51645,797.64384)" />
            <polygon
               id="_x30_.1.5.0.0.41-35"
               points="4.203,3.012 3.016,3.012 2.462,2.454 4.759,2.454 "
               style="font-size:105.24749756px;font-style:normal;font-weight:normal;text-align:start;line-height:100%;letter-spacing:0px;word-spacing:0px;text-anchor:start;fill:#9a916c;fill-opacity:1;stroke:none;font-family:Sans"
               transform="matrix(0,14.495044,-13.776748,0,647.51645,797.64384)" />
          </g>
          <g
             transform="translate(-0.78573089,-0.78573089)"
             id="g3154">
            <rect
               id="_x30_.1.5.0.0.7-6-40"
               x="833.33075"
               y="-415.3465"
               width="33.3386"
               height="31.65897"
               style="font-size:105.24749756px;font-style:normal;font-weight:normal;text-align:start;line-height:100%;letter-spacing:0px;word-spacing:0px;text-anchor:start;fill:#8d8c8c;fill-opacity:1;stroke:none;font-family:Sans"
               transform="matrix(0,1,-1,0,0,0)" />
            <rect
               id="_x30_.1.5.0.0.32-4-7"
               x="841.36096"
               y="-407.64511"
               width="17.20562"
               height="16.311668"
               style="font-size:105.24749756px;font-style:normal;font-weight:normal;text-align:start;line-height:100%;letter-spacing:0px;word-spacing:0px;text-anchor:start;fill:#8c8663;fill-opacity:1;stroke:none;font-family:Sans"
               transform="matrix(0,1,-1,0,0,0)" />
            <polygon
               id="_x30_.1.5.0.0.33-0-0"
               points="4.759,9.653 4.203,10.212 4.203,11.393 4.759,11.951 "
               style="font-size:105.24749756px;font-style:normal;font-weight:normal;text-align:start;line-height:100%;letter-spacing:0px;word-spacing:0px;text-anchor:start;fill:#b8af82;fill-opacity:1;stroke:none;font-family:Sans"
               transform="matrix(0,14.495044,-13.776748,0,548.33325,797.64384)" />
            <polygon
               id="_x30_.1.5.0.0.34-7-3"
               points="3.016,11.393 4.203,11.393 4.759,11.951 2.462,11.951 "
               style="font-size:105.24749756px;font-style:normal;font-weight:normal;text-align:start;line-height:100%;letter-spacing:0px;word-spacing:0px;text-anchor:start;fill:#80795b;fill-opacity:1;stroke:none;font-family:Sans"
               transform="matrix(0,14.495044,-13.776748,0,548.33325,797.64384)" />
            <polygon
               id="_x30_.1.5.0.0.35-0-4"
               points="3.016,10.212 3.016,11.393 2.462,11.951 2.462,9.653 "
               style="font-size:105.24749756px;font-style:normal;font-weight:normal;text-align:start;line-height:100%;letter-spacing:0px;word-spacing:0px;text-anchor:start;fill:#5e5b43;fill-opacity:1;stroke:none;font-family:Sans"
               transform="matrix(0,14.495044,-13.776748,0,548.33325,797.64384)" />
            <polygon
               id="_x30_.1.5.0.0.36-3-0"
               points="4.759,9.653 4.203,10.212 3.016,10.212 2.462,9.653 "
               style="font-size:105.24749756px;font-style:normal;font-weight:normal;text-align:start;line-height:100%;letter-spacing:0px;word-spacing:0px;text-anchor:start;fill:#9a916c;fill-opacity:1;stroke:none;font-family:Sans"
               transform="matrix(0,14.495044,-13.776748,0,548.33325,797.64384)" />
          </g>
          <g
             transform="translate(-0.78573089,-0.78573089)"
             id="g3140">
            <rect
               id="_x30_.1.5.0.0.7-2"
               x="833.33075"
               y="-514.52954"
               width="33.3386"
               height="31.65897"
               style="font-size:105.24749756px;font-style:normal;font-weight:normal;text-align:start;line-height:100%;letter-spacing:0px;word-spacing:0px;text-anchor:start;fill:#8d8c8c;fill-opacity:1;stroke:none;font-family:Sans"
               transform="matrix(0,1,-1,0,0,0)" />
            <rect
               id="_x30_.1.5.0.0.32-9"
               x="841.36096"
               y="-506.82816"
               width="17.20562"
               height="16.311668"
               style="font-size:105.24749756px;font-style:normal;font-weight:normal;text-align:start;line-height:100%;letter-spacing:0px;word-spacing:0px;text-anchor:start;fill:#8c8663;fill-opacity:1;stroke:none;font-family:Sans"
               transform="matrix(0,1,-1,0,0,0)" />
            <polygon
               id="_x30_.1.5.0.0.33-7"
               points="4.203,10.212 4.203,11.393 4.759,11.951 4.759,9.653 "
               style="font-size:105.24749756px;font-style:normal;font-weight:normal;text-align:start;line-height:100%;letter-spacing:0px;word-spacing:0px;text-anchor:start;fill:#b8af82;fill-opacity:1;stroke:none;font-family:Sans"
               transform="matrix(0,14.495044,-13.776748,0,647.51645,797.64384)" />
            <polygon
               id="_x30_.1.5.0.0.34-53"
               points="4.203,11.393 4.759,11.951 2.462,11.951 3.016,11.393 "
               style="font-size:105.24749756px;font-style:normal;font-weight:normal;text-align:start;line-height:100%;letter-spacing:0px;word-spacing:0px;text-anchor:start;fill:#80795b;fill-opacity:1;stroke:none;font-family:Sans"
               transform="matrix(0,14.495044,-13.776748,0,647.51645,797.64384)" />
            <polygon
               id="_x30_.1.5.0.0.35-4"
               points="3.016,11.393 2.462,11.951 2.462,9.653 3.016,10.212 "
               style="font-size:105.24749756px;font-style:normal;font-weight:normal;text-align:start;line-height:100%;letter-spacing:0px;word-spacing:0px;text-anchor:start;fill:#5e5b43;fill-opacity:1;stroke:none;font-family:Sans"
               transform="matrix(0,14.495044,-13.776748,0,647.51645,797.64384)" />
            <polygon
               id="_x30_.1.5.0.0.36-32"
               points="4.203,10.212 3.016,10.212 2.462,9.653 4.759,9.653 "
               style="font-size:105.24749756px;font-style:normal;font-weight:normal;text-align:start;line-height:100%;letter-spacing:0px;word-spacing:0px;text-anchor:start;fill:#9a916c;fill-opacity:1;stroke:none;font-family:Sans"
               transform="matrix(0,14.495044,-13.776748,0,647.51645,797.64384)" />
            <rect
               id="_x30_.1.5.0.0.6-2-26"
               x="833.33075"
               y="-514.52521"
               width="33.3386"
               height="31.65897"
               style="font-size:105.24749756px;font-style:normal;font-weight:normal;text-align:start;line-height:100%;letter-spacing:0px;word-spacing:0px;text-anchor:start;fill:#8d8c8c;fill-opacity:1;stroke:none;font-family:Sans"
               transform="matrix(0,1,-1,0,0,0)" />
            <rect
               id="_x30_.1.5.0.0.37-4-0"
               x="841.36096"
               y="-506.83768"
               width="17.20562"
               height="16.284117"
               style="font-size:105.24749756px;font-style:normal;font-weight:normal;text-align:start;line-height:100%;letter-spacing:0px;word-spacing:0px;text-anchor:start;fill:#8c8663;fill-opacity:1;stroke:none;font-family:Sans"
               transform="matrix(0,1,-1,0,0,0)" />
            <polygon
               id="_x30_.1.5.0.0.38-0-5"
               points="4.759,2.454 4.203,3.012 4.203,4.193 4.759,4.751 "
               style="font-size:105.24749756px;font-style:normal;font-weight:normal;text-align:start;line-height:100%;letter-spacing:0px;word-spacing:0px;text-anchor:start;fill:#b8af82;fill-opacity:1;stroke:none;font-family:Sans"
               transform="matrix(0,14.495044,-13.776748,0,548.33325,797.64384)" />
            <polygon
               id="_x30_.1.5.0.0.39-0-3"
               points="3.016,4.193 4.203,4.193 4.759,4.751 2.462,4.751 "
               style="font-size:105.24749756px;font-style:normal;font-weight:normal;text-align:start;line-height:100%;letter-spacing:0px;word-spacing:0px;text-anchor:start;fill:#80795b;fill-opacity:1;stroke:none;font-family:Sans"
               transform="matrix(0,14.495044,-13.776748,0,548.33325,797.64384)" />
            <polygon
               id="_x30_.1.5.0.0.40-5-10"
               points="3.016,3.012 3.016,4.193 2.462,4.751 2.462,2.454 "
               style="font-size:105.24749756px;font-style:normal;font-weight:normal;text-align:start;line-height:100%;letter-spacing:0px;word-spacing:0px;text-anchor:start;fill:#5e5b43;fill-opacity:1;stroke:none;font-family:Sans"
               transform="matrix(0,14.495044,-13.776748,0,548.33325,797.64384)" />
            <polygon
               id="_x30_.1.5.0.0.41-3-6"
               points="4.759,2.454 4.203,3.012 3.016,3.012 2.462,2.454 "
               style="font-size:105.24749756px;font-style:normal;font-weight:normal;text-align:start;line-height:100%;letter-spacing:0px;word-spacing:0px;text-anchor:start;fill:#9a916c;fill-opacity:1;stroke:none;font-family:Sans"
               transform="matrix(0,14.495044,-13.776748,0,548.33325,797.64384)" />
          </g>
        </g>
        <text
           sodipodi:linespacing="125%"
           id="text14375-8-2-3"
           y="968.28265"
           x="572.86853"
           style="font-size:75.45545197px;font-style:normal;font-weight:normal;text-align:start;line-height:125%;letter-spacing:0px;word-spacing:0px;text-anchor:start;fill:#000000;fill-opacity:1;stroke:none;display:inline;font-family:Sans"
           xml:space="preserve"><tspan
             id="tspan9997"
             style="font-style:normal;font-variant:normal;font-weight:normal;font-stretch:normal;text-align:start;text-anchor:start;font-family:Trebuchet MS;-inkscape-font-specification:Trebuchet MS"
             y="968.28265"
             x="572.86853"
             sodipodi:role="line">G</tspan></text>
        <text
           sodipodi:linespacing="125%"
           id="text14375-8-2-3-0"
           y="967.91437"
           x="475.75079"
           style="font-size:75.45545197px;font-style:normal;font-weight:normal;text-align:start;line-height:125%;letter-spacing:0px;word-spacing:0px;text-anchor:start;fill:#000000;fill-opacity:1;stroke:none;display:inline;font-family:Sans"
           xml:space="preserve"><tspan
             id="tspan9997-6"
             style="font-style:normal;font-variant:normal;font-weight:normal;font-stretch:normal;text-align:start;text-anchor:start;font-family:Trebuchet MS;-inkscape-font-specification:Trebuchet MS"
             y="967.91437"
             x="475.75079"
             sodipodi:role="line">V</tspan></text>
        <text
           sodipodi:linespacing="125%"
           id="text14375-8-2-3-6"
           y="968.28265"
           x="380.60419"
           style="font-size:75.45545197px;font-style:normal;font-weight:normal;text-align:start;line-height:125%;letter-spacing:0px;word-spacing:0px;text-anchor:start;fill:#000000;fill-opacity:1;stroke:none;display:inline;font-family:Sans"
           xml:space="preserve"><tspan
             id="tspan9997-1"
             style="font-style:normal;font-variant:normal;font-weight:normal;font-stretch:normal;text-align:start;text-anchor:start;font-family:Trebuchet MS;-inkscape-font-specification:Trebuchet MS"
             y="968.28265"
             x="380.60419"
             sodipodi:role="line">S</tspan></text>
      </g>
      <path
         id="path3068"
         d="m 907.93683,729.49258 0,-115.15108 c -7.89854,-2.07854 -15.79697,-4.15708 -20.36975,-4.9885 -9.14556,-1.24712 -31.59374,-0.83141 -37.41374,0 -9.97697,2.07855 -23.2796,9.14558 -34.50369,14.13407 l 24.11101,34.50376 5.8199,-9.56128 16.62839,0 -14.13415,21.61681 14.13415,20.36969 -16.62839,0 -5.40419,-7.89846 -24.52672,38.24513 c 11.22409,4.57279 24.52672,11.63982 34.50369,13.71836 5.82,0.83146 28.26818,1.24712 37.41374,0 4.57278,-0.83146 12.47121,-2.90995 20.36975,-4.9885 z m 25.35813,-7.06703 c 3.32566,-0.83141 6.65131,-1.66283 8.72985,-2.49424 l 0,-96.02853 c -2.07854,-0.41571 -5.40419,-1.24712 -8.72985,-2.49424 l 0,101.01701 z m -166.28314,-17.87543 -14.13404,-26.1896 -15.38126,13.71835 9.97707,12.47125 19.53823,0 z m -32.84096,-19.95398 32.84096,-30.76239 0,-15.38119 -18.29111,0 -14.54985,19.53827 0,26.60531 z m 21.20116,32.0095 c -33.25667,-3.74137 -35.75091,-44.48075 -35.75091,-44.48075 0,0 2.49424,-41.15508 35.75091,-44.48074 12.05551,-1.66283 36.16652,2.07854 48.22213,0 0,0 0.41571,-0.4157 0.41571,-0.4157 l 28.26807,42.81791 -28.26807,46.55928 c 0,0 -0.41571,0 -0.41571,0 -12.05561,-2.49424 -36.16662,1.24712 -48.22213,0 z M 959.4845,625.98132 c -2.90995,0 -6.2356,-0.41571 -9.14555,-0.83142 l 0,93.53429 c 2.90995,0 6.2356,-0.41571 7.89843,-0.41571 0.83152,0 0.83152,0 2.49425,0.83142 1.66293,0.4157 5.40429,2.49424 6.23571,-2.49426 5.8199,-33.67233 5.8199,-49.05352 1.24712,-88.54578 -0.41571,-2.90996 -4.15707,-3.32567 -6.23561,-2.49424 -0.83152,0 -1.66293,0.41571 -2.49435,0.41571 z m -43.23353,101.43273 0,-110.5783 c 2.90995,0.83141 5.8199,1.66283 8.72985,2.49424 l 0,105.58981 c -2.90995,0.83142 -5.8199,1.66283 -8.72985,2.49425"
         style="fill:#000000;fill-opacity:1;fill-rule:nonzero;stroke:none"
         inkscape:connector-curvature="0" />
      <rect
         rx="17.564674"
         y="204.84035"
         x="25.143353"
         height="594.79828"
         width="96.644905"
         id="rect3223"
         style="fill:#000000;fill-opacity:1;stroke:none;display:inline"
         ry="17.564674" />
      <path
         inkscape:connector-curvature="0"
         style="fill:#000000;fill-opacity:1;fill-rule:nonzero;stroke:none"
         d="m 969.0483,541.05562 -11.16007,4.08294 0,18.78152 11.16007,3.81074 0,10.88785 -55.80018,-21.77569 0,-4.35513 55.80018,-22.04787 z m -38.92407,13.60979 20.41472,6.53271 0,-13.3376 z"
         id="path3070" />
      <path
         inkscape:connector-curvature="0"
         style="fill:#000000;fill-opacity:1;fill-rule:nonzero;stroke:none"
         d="m 969.0483,478.72276 -25.31423,0 c -5.17171,0 -7.89367,2.17757 -7.89367,7.07709 0,1.36098 0.54439,2.72197 1.36098,4.08294 0.81659,1.08879 1.63317,2.17757 2.72195,2.72196 l 29.12497,0 0,9.25466 -26.67521,0 c -1.90537,0 -3.53854,0.54442 -4.62732,1.90537 -1.08878,1.08879 -1.90537,2.99415 -1.90537,5.17172 0,1.08878 0.54439,2.44977 1.36098,3.81074 0.81659,1.36098 1.90537,2.44977 2.99415,2.99416 l 28.85277,0 0,9.25466 -40.28505,0 0,-6.2605 3.53861,-1.90538 c -2.72202,-2.72196 -4.083,-5.9883 -4.083,-10.07125 0,-5.44391 1.36098,-9.52685 4.3552,-12.24881 -1.36098,-1.08878 -2.44983,-2.72196 -3.26641,-4.89952 -0.81659,-1.90538 -1.08879,-4.08295 -1.08879,-6.26052 0,-4.35513 1.08879,-7.89367 3.81081,-10.34344 2.44976,-2.44976 5.9883,-3.81074 10.61562,-3.81074 l 26.40301,0 z"
         id="path3072" />
      <path
         inkscape:connector-curvature="0"
         style="fill:#000000;fill-opacity:1;fill-rule:nonzero;stroke:none"
         d="m 967.95952,450.41438 16.87611,0 0,9.52686 -56.07238,0 0,-9.52686 2.72203,0 c -2.17763,-2.17756 -3.26642,-5.17172 -3.26642,-8.71027 0,-12.7932 6.80496,-19.0537 20.95911,-19.0537 6.53269,0 11.7044,1.63317 15.24294,5.17171 3.53861,3.53855 5.44398,8.43807 5.44398,14.69858 0,2.72196 -0.54446,5.44392 -1.90537,7.89368 z m -29.39716,0 21.23123,0 c 1.36098,-1.63317 2.17757,-3.53855 2.17757,-5.9883 0,-4.35514 -1.08879,-7.34929 -3.26635,-9.25467 -1.90537,-1.90536 -5.17171,-2.72196 -9.79903,-2.72196 -4.62732,0 -7.89367,0.8166 -10.07123,2.72196 -1.90537,1.90538 -2.72195,4.89953 -2.72195,9.25467 0,2.17756 0.81658,4.35513 2.44976,5.9883 z"
         id="path3074" />
      <path
         inkscape:connector-curvature="0"
         style="fill:#000000;fill-opacity:1;fill-rule:nonzero;stroke:none"
         d="m 951.89993,378.55466 0,28.58058 c 2.99415,0 5.7161,-1.08879 7.34927,-3.26635 1.90537,-1.90538 2.72196,-4.62734 2.72196,-8.16588 0,-4.35514 -1.08879,-7.34929 -3.26635,-9.79905 l 7.07715,-3.53855 c 2.72195,3.26635 4.08293,8.16588 4.08293,14.69858 0,6.26051 -1.90537,11.16003 -5.44398,14.69857 -3.53854,3.53855 -8.71025,5.17172 -14.97074,5.17172 -6.53269,0 -11.4322,-1.90536 -15.51513,-5.71611 -3.81081,-4.08293 -5.71618,-8.71027 -5.71618,-14.15418 0,-5.71612 1.63318,-10.61564 5.17178,-14.15419 3.53854,-3.26635 7.89367,-5.17172 13.33758,-5.17172 1.08878,0 2.72195,0.27217 5.17171,0.81658 z m -7.07708,28.30838 0,-19.5981 c -5.9883,0.54441 -8.98245,3.81074 -8.98245,9.52685 0,5.44392 2.99415,8.71027 8.98245,10.07125 z"
         id="path3076" />
      <path
         inkscape:connector-curvature="0"
         style="fill:#000000;fill-opacity:1;fill-rule:nonzero;stroke:none"
         d="m 937.47357,346.97994 c -1.08878,1.63318 -1.63317,3.53855 -1.63317,5.71612 0,2.17756 1.08878,4.08294 2.99415,5.71611 2.17756,1.63318 4.35513,2.44976 7.34928,2.44976 l 22.86447,0 0,9.52686 -40.28505,0 0,-9.52686 3.81081,0 c -2.99422,-2.44976 -4.3552,-5.98831 -4.3552,-10.34344 0,-3.26636 0.2722,-5.71612 1.36098,-7.3493 z"
         id="path3078" />
      <path
         inkscape:connector-curvature="0"
         style="fill:#000000;fill-opacity:1;fill-rule:nonzero;stroke:none"
         d="m 969.0483,311.86667 -18.23715,11.70442 4.89951,4.35514 13.33764,0 0,9.52685 -55.25579,0 -2.17756,-9.52685 32.66351,0 -15.51521,-13.3376 0,-11.16003 15.24301,13.60979 25.04204,-16.33175 z"
         id="path3080" />
      <path
         inkscape:connector-curvature="0"
         style="fill:#000000;fill-opacity:1;fill-rule:nonzero;stroke:none"
         d="m 964.9653,272.94265 c 1.36105,0.81659 2.72203,2.17757 3.53861,4.35515 0.81659,2.17756 1.36098,4.35513 1.36098,6.80489 0,4.08293 -1.08878,7.62148 -3.26634,10.07125 -2.17764,2.44976 -5.17178,3.81074 -9.25472,3.81074 -4.62732,0 -8.43805,-1.90537 -10.88781,-5.44392 -2.72195,-3.26635 -4.08293,-8.43807 -4.08293,-14.69857 0,-1.0888 0.2722,-2.44977 0.54439,-4.08295 -4.62732,0 -7.07708,2.99415 -7.07708,8.98247 0,3.53855 0.81659,6.5327 1.90537,8.98246 l -7.34927,1.90537 c -1.63325,-2.99415 -2.17764,-7.07709 -2.17764,-11.43222 0,-5.98832 1.36098,-10.61565 4.083,-13.33761 2.72196,-2.99415 8.16586,-4.35513 15.78733,-4.35513 l 8.71025,0 c 5.17172,0 8.71032,-1.08878 10.0713,-3.26635 1.36098,0.81659 2.17756,1.63318 2.44976,2.72196 0.27213,0.81659 0.54439,1.90537 0.54439,3.26635 0,1.36098 -0.54439,2.44977 -1.63317,3.53855 -0.81659,1.08878 -1.90537,1.90537 -3.26635,2.17756 z m -14.97074,0.81659 c -0.27219,1.63318 -0.27219,2.72196 -0.27219,3.53856 0,7.62148 2.44975,11.16003 7.07714,11.16003 3.81074,0 5.44391,-1.90538 5.44391,-6.26051 0,-5.44393 -2.72195,-8.43808 -8.43806,-8.43808 z"
         id="path3082" />
      <path
         inkscape:connector-curvature="0"
         style="fill:#000000;fill-opacity:1;fill-rule:nonzero;stroke:none"
         d="m 964.14872,252.80016 c -1.90537,0 -3.53854,-0.54442 -4.89952,-1.90537 -1.36097,-1.36098 -1.90537,-2.99415 -1.90537,-4.89953 0,-1.90536 0.54446,-3.26635 1.90537,-4.62733 1.36098,-1.36098 2.99415,-1.90538 4.89952,-1.90538 1.90543,0 3.53861,0.54443 4.89958,1.90538 1.08879,1.36098 1.90537,2.72197 1.90537,4.62733 0,1.90538 -0.81658,3.53855 -1.90537,4.89953 -1.36097,1.36098 -2.99415,1.90537 -4.89958,1.90537 z"
         id="path3084" />
      <path
         inkscape:connector-curvature="0"
         style="fill:#000000;fill-opacity:1;fill-rule:nonzero;stroke:none"
         d="m 937.47357,202.98831 c -1.08878,1.63317 -1.63317,3.53854 -1.63317,5.44392 0,2.17757 1.08878,4.08294 2.99415,5.71612 2.17756,1.63317 4.35513,2.44975 7.34928,2.44975 l 22.86447,0 0,9.52686 -40.28505,0 0,-9.52686 3.81081,0 c -2.99422,-2.44975 -4.3552,-5.9883 -4.3552,-10.34345 0,-3.26634 0.2722,-5.71611 1.36098,-7.34928 z"
         id="path3086" />
      <path
         inkscape:connector-curvature="0"
         style="fill:#000000;fill-opacity:1;fill-rule:nonzero;stroke:none"
         d="m 969.0483,167.33064 -3.26634,0 c 1.08878,1.36098 1.90537,3.26635 2.72195,5.44392 0.81659,2.44977 1.36098,4.62734 1.36098,6.53271 0,9.25466 -5.17178,13.88199 -14.97081,13.88199 l -26.13083,0 0,-9.25467 25.58644,0 c 4.89951,0 7.62147,-2.44975 7.62147,-7.07709 0,-2.17756 -0.54439,-4.08294 -1.63318,-5.98831 -1.08878,-1.63318 -2.44975,-2.99416 -3.81073,-3.53855 l -27.764,0 0,-9.25466 40.28505,0 z"
         id="path3088" />
      <text
         xml:space="preserve"
         style="font-size:81.73418427px;font-style:normal;font-variant:normal;font-weight:bold;font-stretch:normal;line-height:125%;letter-spacing:0px;word-spacing:0px;fill:#ffffff;fill-opacity:1;stroke:none;font-family:Trebuchet MS;-inkscape-font-specification:Trebuchet MS Bold"
         x="-783.59985"
         y="98.94902"
         id="text3994"
         sodipodi:linespacing="125%"
         transform="matrix(0,-1,1,0,0,0)"><tspan
           sodipodi:role="line"
           id="tspan3996"
           x="-783.59985"
           y="98.94902">Troyka Module </tspan></text>
    </g>
  </g>
</svg>
