<?xml version="1.0" encoding="UTF-8"?>
<!DOCTYPE svg PUBLIC "-//W3C//DTD SVG 1.1//EN" "http://www.w3.org/Graphics/SVG/1.1/DTD/svg11.dtd">
<!-- Creator: CorelDRAW X6 -->
<svg xmlns="http://www.w3.org/2000/svg" xml:space="preserve" width="300px" height="300px" version="1.1" style="shape-rendering:geometricPrecision; text-rendering:geometricPrecision; image-rendering:optimizeQuality; fill-rule:evenodd; clip-rule:evenodd"
viewBox="0 0 300 300"
 xmlns:xlink="http://www.w3.org/1999/xlink">
 <defs>
  <style type="text/css">
   <![CDATA[
    .str2 {stroke:black;stroke-width:0.9;stroke-linejoin:bevel}
    .str1 {stroke:#00004C;stroke-width:0.9;stroke-linejoin:bevel}
    .str0 {stroke:#5B5B5B;stroke-width:0.9;stroke-linejoin:bevel}
    .fil0 {fill:none}
    .fil1 {fill:#2B2A29}
    .fnt0 {font-weight:bold;font-size:24.3354;font-family:'Trebuchet MS'}
   ]]>
  </style>
 </defs>
 <g id="Слой_x0020_1">
  <metadata id="CorelCorpID_0Corel-Layer"/>
  <g id="_783744400">
   <line class="fil0 str0" x1="135" y1="90" x2="105" y2= "90" />
   <line class="fil0 str0" x1="195" y1="90" x2="165" y2= "90" />
   <line class="fil0 str0" x1="195" y1="210" x2="165" y2= "210" />
   <line class="fil0 str0" x1="165" y1="210" x2="165" y2= "297" />
   <line class="fil0 str0" x1="135" y1="297" x2="135" y2= "210" />
   <line class="fil0 str0" x1="135" y1="210" x2="105" y2= "210" />
   <line class="fil0 str0" x1="285" y1="270" x2="225" y2= "270" />
   <line class="fil0 str0" x1="225" y1="270" x2="195" y2= "270" />
   <line class="fil0 str0" x1="105" y1="270" x2="75" y2= "270" />
   <line class="fil0 str0" x1="75" y1="270" x2="15" y2= "270" />
   <line class="fil0 str0" x1="255" y1="210" x2="225" y2= "210" />
   <line class="fil0 str0" x1="75" y1="210" x2="45" y2= "210" />
   <line class="fil0 str0" x1="285" y1="240" x2="255" y2= "240" />
   <line class="fil0 str0" x1="45" y1="240" x2="15" y2= "240" />
   <line class="fil0 str0" x1="285" y1="180" x2="135" y2= "180" />
   <line class="fil0 str0" x1="135" y1="180" x2="75" y2= "180" />
   <line class="fil0 str0" x1="75" y1="180" x2="45" y2= "180" />
   <line class="fil0 str0" x1="45" y1="180" x2="15" y2= "180" />
   <line class="fil0 str0" x1="285" y1="120" x2="255" y2= "120" />
   <line class="fil0 str0" x1="255" y1="120" x2="225" y2= "120" />
   <line class="fil0 str0" x1="225" y1="120" x2="165" y2= "120" />
   <line class="fil0 str0" x1="165" y1="120" x2="15" y2= "120" />
   <line class="fil0 str0" x1="285" y1="60" x2="255" y2= "60" />
   <line class="fil0 str0" x1="255" y1="90" x2="225" y2= "90" />
   <line class="fil0 str0" x1="75" y1="90" x2="45" y2= "90" />
   <line class="fil0 str0" x1="45" y1="60" x2="15" y2= "60" />
   <line class="fil0 str0" x1="285" y1="30" x2="225" y2= "30" />
   <line class="fil0 str0" x1="225" y1="30" x2="195" y2= "30" />
   <line class="fil0 str0" x1="105" y1="30" x2="75" y2= "30" />
   <line class="fil0 str0" x1="75" y1="30" x2="15" y2= "30" />
   <line class="fil0 str0" x1="255" y1="150" x2="225" y2= "150" />
   <line class="fil0 str0" x1="165" y1="150" x2="135" y2= "150" />
   <line class="fil0 str0" x1="75" y1="150" x2="45" y2= "150" />
   <line class="fil0 str0" x1="285" y1="30" x2="285" y2= "270" />
   <line class="fil0 str0" x1="255" y1="60" x2="255" y2= "90" />
   <line class="fil0 str0" x1="255" y1="120" x2="255" y2= "150" />
   <line class="fil0 str0" x1="255" y1="210" x2="255" y2= "240" />
   <line class="fil0 str0" x1="225" y1="150" x2="225" y2= "270" />
   <line class="fil0 str0" x1="225" y1="30" x2="225" y2= "120" />
   <line class="fil0 str0" x1="195" y1="90" x2="195" y2= "210" />
   <line class="fil0 str0" x1="105" y1="90" x2="105" y2= "210" />
   <line class="fil0 str0" x1="165" y1="120" x2="165" y2= "150" />
   <line class="fil0 str0" x1="135" y1="150" x2="135" y2= "180" />
   <line class="fil0 str0" x1="75" y1="30" x2="75" y2= "150" />
   <line class="fil0 str0" x1="75" y1="180" x2="75" y2= "270" />
   <line class="fil0 str0" x1="45" y1="60" x2="45" y2= "90" />
   <line class="fil0 str0" x1="45" y1="150" x2="45" y2= "180" />
   <line class="fil0 str0" x1="45" y1="210" x2="45" y2= "240" />
   <line class="fil0 str0" x1="15" y1="30" x2="15" y2= "270" />
   <line class="fil0 str0" x1="195" y1="30" x2="195" y2= "6" />
   <path class="fil0 str0" d="M192 3c1,0 2,0 2,1 1,1 1,1 1,2"/>
   <line class="fil0 str0" x1="192" y1="3" x2="165" y2= "3" />
   <line class="fil0 str0" x1="165" y1="3" x2="135" y2= "3" />
   <line class="fil0 str0" x1="135" y1="3" x2="108" y2= "3" />
   <path class="fil0 str0" d="M105 6c0,-1 0,-2 1,-2 1,-1 1,-1 2,-1"/>
   <line class="fil0 str0" x1="105" y1="6" x2="105" y2= "30" />
   <line class="fil0 str0" x1="135" y1="3" x2="135" y2= "90" />
   <line class="fil0 str0" x1="165" y1="3" x2="165" y2= "90" />
   <line class="fil0 str0" x1="195" y1="270" x2="195" y2= "294" />
   <path class="fil0 str0" d="M195 294c0,1 0,2 -1,2 -1,1 -1,1 -2,1"/>
   <line class="fil0 str0" x1="192" y1="297" x2="165" y2= "297" />
   <line class="fil0 str0" x1="165" y1="297" x2="135" y2= "297" />
   <line class="fil0 str0" x1="135" y1="297" x2="108" y2= "297" />
   <path class="fil0 str0" d="M108 297c-2,0 -3,-1 -3,-3"/>
   <line class="fil0 str0" x1="105" y1="294" x2="105" y2= "270" />
   <line class="fil0 str1" x1="281" y1="300" x2="19" y2= "300" />
   <line class="fil0 str1" x1="0" y1="281" x2="0" y2= "19" />
   <line class="fil0 str1" x1="19" y1="0" x2="281" y2= "0" />
   <line class="fil0 str1" x1="300" y1="19" x2="300" y2= "281" />
   <path class="fil0 str1" d="M281 300c0,-5 2,-10 6,-13 4,-4 8,-6 13,-6"/>
   <path class="fil0 str1" d="M300 19c-10,0 -19,-8 -19,-19"/>
   <path class="fil0 str1" d="M19 0c0,5 -2,10 -6,13 -4,4 -8,6 -13,6"/>
   <path class="fil0 str1" d="M0 281c5,0 10,2 13,6 4,4 6,8 6,13"/>
   <path class="fil0 str2" d="M80 225c0,-6 5,-10 11,-10 6,0 10,5 10,10 0,6 -5,11 -10,11 -6,0 -11,-5 -11,-11z"/>
   <path class="fil0 str2" d="M110 225c0,-6 5,-10 11,-10 6,0 11,5 11,10 0,6 -5,11 -11,11 -6,0 -11,-5 -11,-11z"/>
   <path class="fil0 str2" d="M80 195c0,-6 5,-11 11,-11 6,0 10,5 10,11 0,6 -5,11 -10,11 -6,0 -11,-5 -11,-11z"/>
   <path class="fil0 str2" d="M80 255c0,-6 5,-11 11,-11 6,0 10,5 10,11 0,6 -5,10 -10,10 -6,0 -11,-5 -11,-10z"/>
   <path class="fil0 str2" d="M20 225c0,-6 5,-10 11,-10 6,0 11,5 11,10 0,6 -5,11 -11,11 -6,0 -11,-5 -11,-11z"/>
   <path class="fil0 str2" d="M20 195c0,-6 5,-11 11,-11 6,0 11,5 11,11 0,6 -5,11 -11,11 -6,0 -11,-5 -11,-11z"/>
   <path class="fil0 str2" d="M50 195c0,-6 5,-11 11,-11 6,0 11,5 11,11 0,6 -5,11 -11,11 -6,0 -11,-5 -11,-11z"/>
   <path class="fil0 str2" d="M200 225c0,-6 5,-10 10,-10 6,0 11,5 11,10 0,6 -5,11 -11,11 -6,0 -10,-5 -10,-11z"/>
   <path class="fil0 str2" d="M200 195c0,-6 5,-11 10,-11 6,0 11,5 11,11 0,6 -5,11 -11,11 -6,0 -10,-5 -10,-11z"/>
   <path class="fil0 str2" d="M170 225c0,-6 5,-10 11,-10 6,0 11,5 11,10 0,6 -5,11 -11,11 -6,0 -11,-5 -11,-11z"/>
   <path class="fil0 str2" d="M200 255c0,-6 5,-11 10,-11 6,0 11,5 11,11 0,6 -5,10 -11,10 -6,0 -10,-5 -10,-10z"/>
   <path class="fil0 str2" d="M259 255c0,-6 5,-11 11,-11 6,0 11,5 11,11 0,6 -5,10 -11,10 -6,0 -11,-5 -11,-10z"/>
   <path class="fil0 str2" d="M229 255c0,-6 5,-11 11,-11 6,0 11,5 11,11 0,6 -5,10 -11,10 -6,0 -11,-5 -11,-10z"/>
   <path class="fil0 str2" d="M229 225c0,-6 5,-10 11,-10 6,0 11,5 11,10 0,6 -5,11 -11,11 -6,0 -11,-5 -11,-11z"/>
   <path class="fil0 str2" d="M259 225c0,-6 5,-10 11,-10 6,0 11,5 11,10 0,6 -5,11 -11,11 -6,0 -11,-5 -11,-11z"/>
   <path class="fil0 str2" d="M259 195c0,-6 5,-11 11,-11 6,0 11,5 11,11 0,6 -5,11 -11,11 -6,0 -11,-5 -11,-11z"/>
   <path class="fil0 str2" d="M229 195c0,-6 5,-11 11,-11 6,0 11,5 11,11 0,6 -5,11 -11,11 -6,0 -11,-5 -11,-11z"/>
   <path class="fil0 str2" d="M20 255c0,-6 5,-11 11,-11 6,0 11,5 11,11 0,6 -5,10 -11,10 -6,0 -11,-5 -11,-10z"/>
   <path class="fil0 str2" d="M50 255c0,-6 5,-11 11,-11 6,0 11,5 11,11 0,6 -5,10 -11,10 -6,0 -11,-5 -11,-10z"/>
   <path class="fil0 str2" d="M50 225c0,-6 5,-10 11,-10 6,0 11,5 11,10 0,6 -5,11 -11,11 -6,0 -11,-5 -11,-11z"/>
   <path class="fil0 str2" d="M259 165c0,-6 5,-11 11,-11 6,0 11,5 11,11 0,6 -5,11 -11,11 -6,0 -11,-5 -11,-11z"/>
   <path class="fil0 str2" d="M259 135c0,-6 5,-11 11,-11 6,0 11,5 11,11 0,6 -5,11 -11,11 -6,0 -11,-5 -11,-11z"/>
   <path class="fil0 str2" d="M229 165c0,-6 5,-11 11,-11 6,0 11,5 11,11 0,6 -5,11 -11,11 -6,0 -11,-5 -11,-11z"/>
   <path class="fil0 str2" d="M229 135c0,-6 5,-11 11,-11 6,0 11,5 11,11 0,6 -5,11 -11,11 -6,0 -11,-5 -11,-11z"/>
   <path class="fil0 str2" d="M200 135c0,-6 5,-11 10,-11 6,0 11,5 11,11 0,6 -5,11 -11,11 -6,0 -10,-5 -10,-11z"/>
   <path class="fil0 str2" d="M200 165c0,-6 5,-11 10,-11 6,0 11,5 11,11 0,6 -5,11 -11,11 -6,0 -10,-5 -10,-11z"/>
   <path class="fil0 str2" d="M170 135c0,-6 5,-11 11,-11 6,0 11,5 11,11 0,6 -5,11 -11,11 -6,0 -11,-5 -11,-11z"/>
   <path class="fil0 str2" d="M170 165c0,-6 5,-11 11,-11 6,0 11,5 11,11 0,6 -5,11 -11,11 -6,0 -11,-5 -11,-11z"/>
   <path class="fil0 str2" d="M140 165c0,-6 5,-11 11,-11 6,0 11,5 11,11 0,6 -5,11 -11,11 -6,0 -11,-5 -11,-11z"/>
   <path class="fil0 str2" d="M110 165c0,-6 5,-11 11,-11 6,0 11,5 11,11 0,6 -5,11 -11,11 -6,0 -11,-5 -11,-11z"/>
   <path class="fil0 str2" d="M110 135c0,-6 5,-11 11,-11 6,0 11,5 11,11 0,6 -5,11 -11,11 -6,0 -11,-5 -11,-11z"/>
   <path class="fil0 str2" d="M140 135c0,-6 5,-11 11,-11 6,0 11,5 11,11 0,6 -5,11 -11,11 -6,0 -11,-5 -11,-11z"/>
   <path class="fil0 str2" d="M50 165c0,-6 5,-11 11,-11 6,0 11,5 11,11 0,6 -5,11 -11,11 -6,0 -11,-5 -11,-11z"/>
   <path class="fil0 str2" d="M80 165c0,-6 5,-11 11,-11 6,0 10,5 10,11 0,6 -5,11 -10,11 -6,0 -11,-5 -11,-11z"/>
   <path class="fil0 str2" d="M80 135c0,-6 5,-11 11,-11 6,0 10,5 10,11 0,6 -5,11 -10,11 -6,0 -11,-5 -11,-11z"/>
   <path class="fil0 str2" d="M50 135c0,-6 5,-11 11,-11 6,0 11,5 11,11 0,6 -5,11 -11,11 -6,0 -11,-5 -11,-11z"/>
   <path class="fil0 str2" d="M20 135c0,-6 5,-11 11,-11 6,0 11,5 11,11 0,6 -5,11 -11,11 -6,0 -11,-5 -11,-11z"/>
   <path class="fil0 str2" d="M20 165c0,-6 5,-11 11,-11 6,0 11,5 11,11 0,6 -5,11 -11,11 -6,0 -11,-5 -11,-11z"/>
   <path class="fil0 str2" d="M259 105c0,-6 5,-11 11,-11 6,0 11,5 11,11 0,6 -5,10 -11,10 -6,0 -11,-5 -11,-10z"/>
   <path class="fil0 str2" d="M229 105c0,-6 5,-11 11,-11 6,0 11,5 11,11 0,6 -5,10 -11,10 -6,0 -11,-5 -11,-10z"/>
   <path class="fil0 str2" d="M259 75c0,-6 5,-11 11,-11 6,0 11,5 11,11 0,6 -5,11 -11,11 -6,0 -11,-5 -11,-11z"/>
   <path class="fil0 str2" d="M229 75c0,-6 5,-11 11,-11 6,0 11,5 11,11 0,6 -5,11 -11,11 -6,0 -11,-5 -11,-11z"/>
   <path class="fil0 str2" d="M229 45c0,-6 5,-11 11,-11 6,0 11,5 11,11 0,6 -5,11 -11,11 -6,0 -11,-5 -11,-11z"/>
   <path class="fil0 str2" d="M259 45c0,-6 5,-11 11,-11 6,0 11,5 11,11 0,6 -5,11 -11,11 -6,0 -11,-5 -11,-11z"/>
   <path class="fil0 str2" d="M50 75c0,-6 5,-11 11,-11 6,0 11,5 11,11 0,6 -5,11 -11,11 -6,0 -11,-5 -11,-11z"/>
   <path class="fil0 str2" d="M50 45c0,-6 5,-11 11,-11 6,0 11,5 11,11 0,6 -5,11 -11,11 -6,0 -11,-5 -11,-11z"/>
   <path class="fil0 str2" d="M20 45c0,-6 5,-11 11,-11 6,0 11,5 11,11 0,6 -5,11 -11,11 -6,0 -11,-5 -11,-11z"/>
   <path class="fil0 str2" d="M20 105c0,-6 5,-11 11,-11 6,0 11,5 11,11 0,6 -5,10 -11,10 -6,0 -11,-5 -11,-10z"/>
   <path class="fil0 str2" d="M50 105c0,-6 5,-11 11,-11 6,0 11,5 11,11 0,6 -5,10 -11,10 -6,0 -11,-5 -11,-10z"/>
   <path class="fil0 str2" d="M20 75c0,-6 5,-11 11,-11 6,0 11,5 11,11 0,6 -5,11 -11,11 -6,0 -11,-5 -11,-11z"/>
   <path class="fil0 str2" d="M140 225c0,-6 5,-10 11,-10 6,0 11,5 11,10 0,6 -5,11 -11,11 -6,0 -11,-5 -11,-11z"/>
   <path class="fil0 str2" d="M170 195c0,-6 5,-11 11,-11 6,0 11,5 11,11 0,6 -5,11 -11,11 -6,0 -11,-5 -11,-11z"/>
   <path class="fil0 str2" d="M140 195c0,-6 5,-11 11,-11 6,0 11,5 11,11 0,6 -5,11 -11,11 -6,0 -11,-5 -11,-11z"/>
   <path class="fil0 str2" d="M110 195c0,-6 5,-11 11,-11 6,0 11,5 11,11 0,6 -5,11 -11,11 -6,0 -11,-5 -11,-11z"/>
   <path class="fil0 str2" d="M80 75c0,-6 5,-11 11,-11 6,0 10,5 10,11 0,6 -5,11 -10,11 -6,0 -11,-5 -11,-11z"/>
   <path class="fil0 str2" d="M110 75c0,-6 5,-11 11,-11 6,0 11,5 11,11 0,6 -5,11 -11,11 -6,0 -11,-5 -11,-11z"/>
   <path class="fil0 str2" d="M80 105c0,-6 5,-11 11,-11 6,0 10,5 10,11 0,6 -5,10 -10,10 -6,0 -11,-5 -11,-10z"/>
   <path class="fil0 str2" d="M80 45c0,-6 5,-11 11,-11 6,0 10,5 10,11 0,6 -5,11 -10,11 -6,0 -11,-5 -11,-11z"/>
   <path class="fil0 str2" d="M140 75c0,-6 5,-11 11,-11 6,0 11,5 11,11 0,6 -5,11 -11,11 -6,0 -11,-5 -11,-11z"/>
   <path class="fil0 str2" d="M140 105c0,-6 5,-11 11,-11 6,0 11,5 11,11 0,6 -5,10 -11,10 -6,0 -11,-5 -11,-10z"/>
   <path class="fil0 str2" d="M170 105c0,-6 5,-11 11,-11 6,0 11,5 11,11 0,6 -5,10 -11,10 -6,0 -11,-5 -11,-10z"/>
   <path class="fil0 str2" d="M110 105c0,-6 5,-11 11,-11 6,0 11,5 11,11 0,6 -5,10 -11,10 -6,0 -11,-5 -11,-10z"/>
   <path class="fil0 str2" d="M200 75c0,-6 5,-11 10,-11 6,0 11,5 11,11 0,6 -5,11 -11,11 -6,0 -10,-5 -10,-11z"/>
   <path class="fil0 str2" d="M170 75c0,-6 5,-11 11,-11 6,0 11,5 11,11 0,6 -5,11 -11,11 -6,0 -11,-5 -11,-11z"/>
   <path class="fil0 str2" d="M200 105c0,-6 5,-11 10,-11 6,0 11,5 11,11 0,6 -5,10 -11,10 -6,0 -10,-5 -10,-10z"/>
   <path class="fil0 str2" d="M200 45c0,-6 5,-11 10,-11 6,0 11,5 11,11 0,6 -5,11 -11,11 -6,0 -10,-5 -10,-11z"/>
   <path class="fil0 str2" d="M110 255c0,-6 5,-11 11,-11 6,0 11,5 11,11 0,6 -5,10 -11,10 -6,0 -11,-5 -11,-10z"/>
   <path class="fil0 str2" d="M170 255c0,-6 5,-11 11,-11 6,0 11,5 11,11 0,6 -5,10 -11,10 -6,0 -11,-5 -11,-10z"/>
   <path class="fil0 str2" d="M140 255c0,-6 5,-11 11,-11 6,0 11,5 11,11 0,6 -5,10 -11,10 -6,0 -11,-5 -11,-10z"/>
   <path class="fil0 str2" d="M110 45c0,-6 5,-11 11,-11 6,0 11,5 11,11 0,6 -5,11 -11,11 -6,0 -11,-5 -11,-11z"/>
   <path class="fil0 str2" d="M140 45c0,-6 5,-11 11,-11 6,0 11,5 11,11 0,6 -5,11 -11,11 -6,0 -11,-5 -11,-11z"/>
   <path class="fil0 str2" d="M170 45c0,-6 5,-11 11,-11 6,0 11,5 11,11 0,6 -5,11 -11,11 -6,0 -11,-5 -11,-11z"/>
   <text x="113" y="26"  class="fil1 fnt0">X</text>
   <text x="144" y="26"  class="fil1 fnt0">Y</text>
   <text x="174" y="26"  class="fil1 fnt0">Z</text>
   <text x="112" y="292"  class="fil1 fnt0">G</text>
   <text x="142" y="292"  class="fil1 fnt0">V</text>
   <text x="174" y="292"  class="fil1 fnt0">S</text>
  </g>
 </g>
</svg>
