<svg id="troyka-mosfet-p-channel" xmlns="http://www.w3.org/2000/svg" width="25.4mm" height="25.4mm" viewBox="0 0 72 72">
  <defs>
    <style>
      .cls-1 {
        fill: #f2f2f2;
        stroke-miterlimit: 1;
        stroke-width: 0.43px;
      }

      .cls-1, .cls-10, .cls-17, .cls-19, .cls-2 {
        stroke: #000;
      }

      .cls-10, .cls-17, .cls-19, .cls-2 {
        fill: none;
        stroke-width: 0.28px;
      }

      .cls-3 {
        fill: #666;
      }

      .cls-4 {
        fill: #8d8c8c;
      }

      .cls-5 {
        fill: #8c8663;
      }

      .cls-6 {
        fill: #b8af82;
      }

      .cls-7 {
        fill: #80795b;
      }

      .cls-8 {
        fill: #5e5b43;
      }

      .cls-9 {
        fill: #9a916c;
      }

      .cls-10, .cls-17 {
        stroke-miterlimit: 10;
      }

      .cls-11, .cls-18, .cls-20, .cls-25, .cls-26 {
        isolation: isolate;
      }

      .cls-11 {
        font-size: 5.43px;
      }

      .cls-11, .cls-18, .cls-20 {
        font-family: TrebuchetMS, Trebuchet MS;
      }

      .cls-12 {
        fill: #b3b3b3;
      }

      .cls-13 {
        fill: #333;
      }

      .cls-14 {
        fill: #ccc;
      }

      .cls-15 {
        fill: #404040;
      }

      .cls-16 {
        fill: gray;
      }

      .cls-17, .cls-19 {
        stroke-linecap: square;
      }

      .cls-18 {
        font-size: 4.82px;
      }

      .cls-20 {
        font-size: 3.87px;
      }

      .cls-21 {
        fill: #678246;
      }

      .cls-22 {
        fill: #485933;
      }

      .cls-23 {
        fill: #87a85c;
      }

      .cls-24 {
        fill: #8b8b8b;
      }

      .cls-25, .cls-26 {
        opacity: 0.15;
      }

      .cls-26, .cls-32 {
        fill: #fff;
      }

      .cls-27 {
        fill: #d0d1d0;
      }

      .cls-28, .cls-35 {
        fill: #b7b8b9;
      }

      .cls-29 {
        fill: #40bb6a;
      }

      .cls-30 {
        fill: #918f90;
      }

      .cls-31, .cls-36 {
        fill: #d7d3d5;
      }

      .cls-32 {
        fill-opacity: 0.51;
      }

      .cls-33, .cls-37 {
        fill: #545152;
      }

      .cls-34 {
        fill: #d2d1d3;
        stroke-opacity: 0.8;
        stroke-width: 0.01px;
      }

      .cls-34, .cls-35, .cls-36, .cls-37 {
        stroke: #0d0000;
      }

      .cls-35, .cls-36, .cls-37 {
        stroke-width: 0.02px;
      }
    </style>
  </defs>
  <title>troyka-mosfet-v3</title>
  <g id="all">
    <path id="troyka-one-unit" class="cls-1" d="M4.71.21a4.49,4.49,0,0,1-4.5,4.5V67.29a4.49,4.49,0,0,1,4.5,4.5H67.29a4.49,4.49,0,0,1,4.5-4.5V4.71a4.49,4.49,0,0,1-4.5-4.5Z"/>
    <g id="troyka-pins2">
      <rect id="rect6749-8" class="cls-2" x="39.25" y="0.17" width="7.13" height="13.81" rx="0.14" ry="0.14"/>
      <rect id="rect6749-9-8" class="cls-2" x="32.15" y="0.17" width="7.13" height="13.81" rx="0.14" ry="0.14"/>
      <rect id="rect6749-9-3-2" class="cls-2" x="25.04" y="0.17" width="7.13" height="13.81" rx="0.14" ry="0.14"/>
      <circle id="path4180-4" class="cls-3" cx="42.82" cy="10.3" r="2.62"/>
      <circle id="path4180-2-5" class="cls-3" cx="35.71" cy="10.3" r="2.62"/>
      <rect id="rect4216-5" class="cls-3" x="25.99" y="7.68" width="5.23" height="5.23" rx="0.48" ry="0.48"/>
      <rect id="_0.1.5.0.0.6-7-1" data-name="0.1.5.0.0.6-7-1" class="cls-4" x="27.48" y="9.1" width="2.27" height="2.39"/>
      <rect id="_0.1.5.0.0.37-1-1" data-name="0.1.5.0.0.37-1-1" class="cls-5" x="28.03" y="9.68" width="1.17" height="1.23"/>
      <polygon id="_0.1.5.0.0.38-1-5" data-name="0.1.5.0.0.38-1-5" class="cls-6" points="29.74 9.11 27.48 9.11 28.03 9.68 29.19 9.68 29.74 9.11"/>
      <polygon id="_0.1.5.0.0.39-3-2" data-name="0.1.5.0.0.39-3-2" class="cls-7" points="29.74 11.49 29.19 10.91 29.19 9.68 29.74 9.11 29.74 11.49"/>
      <polygon id="_0.1.5.0.0.40-25-7" data-name="0.1.5.0.0.40-25-7" class="cls-8" points="27.48 11.49 28.03 10.91 29.19 10.91 29.74 11.49 27.48 11.49"/>
      <polygon id="_0.1.5.0.0.41-35-6" data-name="0.1.5.0.0.41-35-6" class="cls-9" points="27.48 11.49 27.48 9.11 28.03 9.68 28.03 10.91 27.48 11.49"/>
      <rect id="_0.1.5.0.0.7-6-40-4" data-name="0.1.5.0.0.7-6-40-4" class="cls-4" x="41.68" y="9.1" width="2.27" height="2.39"/>
      <rect id="_0.1.5.0.0.32-4-7-2" data-name="0.1.5.0.0.32-4-7-2" class="cls-5" x="42.23" y="9.68" width="1.17" height="1.23"/>
      <polygon id="_0.1.5.0.0.33-0-0-3" data-name="0.1.5.0.0.33-0-0-3" class="cls-6" points="43.39 9.68 43.94 9.11 41.67 9.11 42.23 9.68 43.39 9.68"/>
      <polygon id="_0.1.5.0.0.34-7-3-2" data-name="0.1.5.0.0.34-7-3-2" class="cls-7" points="43.94 9.11 43.94 11.49 43.39 10.91 43.39 9.68 43.94 9.11"/>
      <polygon id="_0.1.5.0.0.35-0-4-2" data-name="0.1.5.0.0.35-0-4-2" class="cls-8" points="43.94 11.49 41.67 11.49 42.23 10.91 43.39 10.91 43.94 11.49"/>
      <polygon id="_0.1.5.0.0.36-3-0-1" data-name="0.1.5.0.0.36-3-0-1" class="cls-9" points="42.23 10.91 41.67 11.49 41.67 9.11 42.23 9.68 42.23 10.91"/>
      <rect id="_0.1.5.0.0.7-2-8" data-name="0.1.5.0.0.7-2-8" class="cls-4" x="34.58" y="9.1" width="2.27" height="2.39"/>
      <rect id="_0.1.5.0.0.32-9-5" data-name="0.1.5.0.0.32-9-5" class="cls-5" x="35.13" y="9.68" width="1.17" height="1.23"/>
      <polygon id="_0.1.5.0.0.33-7-7" data-name="0.1.5.0.0.33-7-7" class="cls-6" points="36.84 9.11 34.58 9.11 35.13 9.68 36.29 9.68 36.84 9.11"/>
      <polygon id="_0.1.5.0.0.34-53-6" data-name="0.1.5.0.0.34-53-6" class="cls-7" points="36.84 11.49 36.29 10.91 36.29 9.68 36.84 9.11 36.84 11.49"/>
      <polygon id="_0.1.5.0.0.35-4-1" data-name="0.1.5.0.0.35-4-1" class="cls-8" points="34.58 11.49 35.13 10.91 36.29 10.91 36.84 11.49 34.58 11.49"/>
      <polygon id="_0.1.5.0.0.36-32-8" data-name="0.1.5.0.0.36-32-8" class="cls-9" points="34.58 11.49 34.58 9.11 35.13 9.68 35.13 10.91 34.58 11.49"/>
      <rect id="_0.1.5.0.0.6-2-26-9" data-name="0.1.5.0.0.6-2-26-9" class="cls-4" x="34.58" y="9.1" width="2.27" height="2.39"/>
      <rect id="_0.1.5.0.0.37-4-0-2" data-name="0.1.5.0.0.37-4-0-2" class="cls-5" x="35.13" y="9.68" width="1.17" height="1.23"/>
      <polygon id="_0.1.5.0.0.38-0-5-7" data-name="0.1.5.0.0.38-0-5-7" class="cls-6" points="36.29 9.68 36.84 9.11 34.58 9.11 35.13 9.68 36.29 9.68"/>
      <polygon id="_0.1.5.0.0.39-0-3-9" data-name="0.1.5.0.0.39-0-3-9" class="cls-7" points="36.84 9.11 36.84 11.49 36.29 10.91 36.29 9.68 36.84 9.11"/>
      <polygon id="_0.1.5.0.0.40-5-10-5" data-name="0.1.5.0.0.40-5-10-5" class="cls-8" points="36.84 11.49 34.58 11.49 35.13 10.91 36.29 10.91 36.84 11.49"/>
      <polygon id="_0.1.5.0.0.41-3-6-4" data-name="0.1.5.0.0.41-3-6-4" class="cls-9" points="35.13 10.91 34.58 11.49 34.58 9.11 35.13 9.68 35.13 10.91"/>
    </g>
    <g id="troyka-pins">
      <rect id="rect6749" class="cls-2" x="25.04" y="57.94" width="7.13" height="13.81" rx="0.14" ry="0.14"/>
      <rect id="rect6749-9" class="cls-2" x="32.15" y="57.94" width="7.13" height="13.81" rx="0.14" ry="0.14"/>
      <rect id="rect6749-9-3" class="cls-10" x="39.25" y="57.94" width="7.13" height="13.81" rx="0.14" ry="0.14"/>
      <circle id="path4180" class="cls-3" cx="28.6" cy="61.62" r="2.62"/>
      <circle id="path4180-2" class="cls-3" cx="35.71" cy="61.62" r="2.62"/>
      <rect id="rect4216" class="cls-3" x="40.2" y="59.01" width="5.23" height="5.23" rx="0.48" ry="0.48"/>
      <rect id="_0.1.5.0.0.6-7" data-name="0.1.5.0.0.6-7" class="cls-4" x="41.68" y="60.43" width="2.27" height="2.39"/>
      <rect id="_0.1.5.0.0.37-1" data-name="0.1.5.0.0.37-1" class="cls-5" x="42.23" y="61" width="1.17" height="1.23"/>
      <polygon id="_0.1.5.0.0.38-1" data-name="0.1.5.0.0.38-1" class="cls-6" points="42.23 62.24 41.68 62.81 43.94 62.81 43.39 62.24 42.23 62.24"/>
      <polygon id="_0.1.5.0.0.39-3" data-name="0.1.5.0.0.39-3" class="cls-7" points="41.68 62.81 41.68 60.43 42.23 61 42.23 62.24 41.68 62.81"/>
      <polygon id="_0.1.5.0.0.40-25" data-name="0.1.5.0.0.40-25" class="cls-8" points="41.68 60.43 43.94 60.43 43.39 61 42.23 61 41.68 60.43"/>
      <polygon id="_0.1.5.0.0.41-35" data-name="0.1.5.0.0.41-35" class="cls-9" points="43.39 61 43.94 60.43 43.94 62.81 43.39 62.24 43.39 61"/>
      <rect id="_0.1.5.0.0.7-6-40" data-name="0.1.5.0.0.7-6-40" class="cls-4" x="27.48" y="60.43" width="2.27" height="2.39"/>
      <rect id="_0.1.5.0.0.32-4-7" data-name="0.1.5.0.0.32-4-7" class="cls-5" x="28.02" y="61" width="1.17" height="1.23"/>
      <polygon id="_0.1.5.0.0.33-0-0" data-name="0.1.5.0.0.33-0-0" class="cls-6" points="29.19 62.24 28.03 62.24 27.48 62.81 29.74 62.81 29.19 62.24"/>
      <polygon id="_0.1.5.0.0.34-7-3" data-name="0.1.5.0.0.34-7-3" class="cls-7" points="28.03 62.24 27.48 62.81 27.48 60.43 28.03 61 28.03 62.24"/>
      <polygon id="_0.1.5.0.0.35-0-4" data-name="0.1.5.0.0.35-0-4" class="cls-8" points="28.03 61 27.48 60.43 29.74 60.43 29.19 61 28.03 61"/>
      <polygon id="_0.1.5.0.0.36-3-0" data-name="0.1.5.0.0.36-3-0" class="cls-9" points="29.19 62.24 29.19 61 29.74 60.43 29.74 62.81 29.19 62.24"/>
      <rect id="_0.1.5.0.0.7-2" data-name="0.1.5.0.0.7-2" class="cls-4" x="34.58" y="60.43" width="2.27" height="2.39"/>
      <rect id="_0.1.5.0.0.32-9" data-name="0.1.5.0.0.32-9" class="cls-5" x="35.12" y="61" width="1.17" height="1.23"/>
      <polygon id="_0.1.5.0.0.33-7" data-name="0.1.5.0.0.33-7" class="cls-6" points="35.13 62.24 34.58 62.81 36.84 62.81 36.29 62.24 35.13 62.24"/>
      <polygon id="_0.1.5.0.0.34-53" data-name="0.1.5.0.0.34-53" class="cls-7" points="34.58 62.81 34.58 60.43 35.13 61 35.13 62.24 34.58 62.81"/>
      <polygon id="_0.1.5.0.0.35-4" data-name="0.1.5.0.0.35-4" class="cls-8" points="34.58 60.43 36.84 60.43 36.29 61 35.13 61 34.58 60.43"/>
      <polygon id="_0.1.5.0.0.36-32" data-name="0.1.5.0.0.36-32" class="cls-9" points="36.29 61 36.84 60.43 36.84 62.81 36.29 62.24 36.29 61"/>
      <rect id="_0.1.5.0.0.6-2-26" data-name="0.1.5.0.0.6-2-26" class="cls-4" x="34.58" y="60.43" width="2.27" height="2.39"/>
      <rect id="_0.1.5.0.0.37-4-0" data-name="0.1.5.0.0.37-4-0" class="cls-5" x="35.13" y="61" width="1.17" height="1.23"/>
      <polygon id="_0.1.5.0.0.38-0-5" data-name="0.1.5.0.0.38-0-5" class="cls-6" points="36.29 62.24 35.13 62.24 34.58 62.81 36.84 62.81 36.29 62.24"/>
      <polygon id="_0.1.5.0.0.39-0-3" data-name="0.1.5.0.0.39-0-3" class="cls-7" points="35.13 62.24 34.58 62.81 34.58 60.43 35.13 61 35.13 62.24"/>
      <polygon id="_0.1.5.0.0.40-5-10" data-name="0.1.5.0.0.40-5-10" class="cls-8" points="35.13 61 34.58 60.43 36.84 60.43 36.29 61 35.13 61"/>
      <polygon id="_0.1.5.0.0.41-3-6" data-name="0.1.5.0.0.41-3-6" class="cls-9" points="36.29 62.24 36.29 61 36.84 60.43 36.84 62.81 36.29 62.24"/>
      <text class="cls-11" transform="translate(41.02 69.5)">G</text>
      <text class="cls-11" transform="translate(34.04 69.48)">V</text>
      <text class="cls-11" transform="translate(27.2 69.5)">S</text>
    </g>
    <g id="T2-DPak">
      <rect id="rect22-9" class="cls-12" x="27.32" y="33.81" width="2.41" height="2.65"/>
      <rect id="rect24-5" class="cls-12" x="27.32" y="40.21" width="3.6" height="2.65"/>
      <rect id="rect26-0" class="cls-12" x="27.32" y="27.41" width="3.6" height="2.65"/>
      <polygon id="polygon15-4" class="cls-12" points="6.71 30.94 6.71 39.45 8.06 42.61 10.43 42.61 10.43 27.78 8.06 27.78 6.71 30.94"/>
      <rect id="rect19-9" class="cls-13" x="12.04" y="25.79" width="15.38" height="18.72"/>
      <rect id="rect31-0" class="cls-14" x="30.93" y="40.21" width="1.33" height="2.65"/>
      <rect id="rect33-9" class="cls-14" x="30.93" y="27.41" width="1.33" height="2.65"/>
      <path id="path3842-7-4" class="cls-13" d="M12.18,44.62,10.41,43V27.36l1.77-1.64Z"/>
      <path id="path3842-4" class="cls-15" d="M12.64,43.82,11,42.32V28l1.64-1.5Z"/>
      <rect id="rect17-4" class="cls-15" x="12.6" y="26.51" width="14.39" height="17.31"/>
      <rect id="rect38-5" class="cls-12" x="32.26" y="40.21" width="3.04" height="2.65"/>
      <rect id="rect40-2" class="cls-12" x="32.26" y="27.41" width="3.04" height="2.65"/>
    </g>
    <g id="T1-SOT23">
      <path id="path3477-9" class="cls-15" d="M21.64,63.77H13.22V60.29h8.42Z"/>
      <path id="path3479-7" class="cls-12" d="M21,66.33H19.38V63.76H21Z"/>
      <path id="path3481-0" class="cls-16" d="M21,64.85H19.38V64H21Z"/>
      <path id="path3483-6" class="cls-12" d="M15.48,66.33H13.87V63.76h1.61Z"/>
      <path id="path3485-6" class="cls-16" d="M15.48,64.85H13.87V64h1.61Z"/>
      <path id="path3487-1" class="cls-12" d="M18.24,57.74H16.62V60.3h1.62Z"/>
      <path id="path3489-6" class="cls-16" d="M18.24,59.21H16.62V60h1.62Z"/>
    </g>
    <g id="screw-annotation">
      <path id="path33794-6-00" class="cls-17" d="M42.42,25.56h9.77"/>
      <path id="path33794-6-0-3" class="cls-10" d="M42.42,46.19h9.75"/>
      <text class="cls-18" transform="translate(45.03 32.39)">L+</text>
      <text class="cls-18" transform="translate(45.03 21.99)">L−</text>
      <path id="path33789-81" class="cls-10" d="M42.42,14.9v8.72"/>
      <path id="path33794-7" class="cls-19" d="M42.42,14.9h2.13"/>
      <path id="path33789-8-9" class="cls-17" d="M42.42,47.9v8.71"/>
      <path id="path33794-6-2-7" class="cls-17" d="M42.48,56.61h2"/>
      <text class="cls-18" transform="translate(44.94 42.58)">P+</text>
      <text class="cls-18" transform="translate(44.94 53.04)">P−</text>
      <path id="path33789-8-8-1" class="cls-17" d="M42.42,25.56V46.19"/>
    </g>
    <g id="JP1-2_54-2pins" data-name="JP1-2,54-2pins">
      <polygon id="_0.1.5.0.0.2-4-1-4-2-8" data-name="0.1.5.0.0.2-4-1-4-2-8" class="cls-15" points="62.6 60.04 61.08 58.51 57.1 58.51 53.73 58.51 49.75 58.51 48.23 60.04 48.23 64.02 49.75 65.54 53.73 65.54 57.1 65.54 61.08 65.54 62.6 64.02 62.6 60.04"/>
      <polygon id="_0.1.5.0.0.5-5-9-1-4-7" data-name="0.1.5.0.0.5-5-9-1-4-7" class="cls-15" points="62.6 60.04 61.08 58.51 57.1 58.51 53.73 58.51 49.75 58.51 48.23 60.04 48.23 64.02 49.75 65.54 53.73 65.54 57.1 65.54 61.08 65.54 62.6 64.02 62.6 60.04"/>
      <rect id="_0.1.5.0.0.6-6-6-6-9-7" data-name="0.1.5.0.0.6-6-6-6-9-7" class="cls-4" x="50.66" y="60.73" width="2.32" height="2.32"/>
      <rect id="_0.1.5.0.0.7-8-9-1-2-4" data-name="0.1.5.0.0.7-8-9-1-2-4" class="cls-4" x="57.93" y="60.73" width="2.32" height="2.32"/>
      <rect id="_0.1.5.0.0.32-0-8-6-2-6" data-name="0.1.5.0.0.32-0-8-6-2-6" class="cls-5" x="58.5" y="61.29" width="1.2" height="1.2"/>
      <polygon id="_0.1.5.0.0.33-77-2-3-1-8" data-name="0.1.5.0.0.33-77-2-3-1-8" class="cls-6" points="60.26 60.73 57.93 60.73 58.5 61.3 59.69 61.3 60.26 60.73"/>
      <polygon id="_0.1.5.0.0.34-4-5-3-9-4" data-name="0.1.5.0.0.34-4-5-3-9-4" class="cls-7" points="60.26 63.05 59.69 62.49 59.69 61.3 60.26 60.73 60.26 63.05"/>
      <polygon id="_0.1.5.0.0.35-3-5-5-0-6" data-name="0.1.5.0.0.35-3-5-5-0-6" class="cls-8" points="57.93 63.05 58.5 62.49 59.69 62.49 60.26 63.05 57.93 63.05"/>
      <polygon id="_0.1.5.0.0.36-1-4-5-0-9" data-name="0.1.5.0.0.36-1-4-5-0-9" class="cls-9" points="57.93 63.05 57.93 60.73 58.5 61.3 58.5 62.49 57.93 63.05"/>
      <rect id="_0.1.5.0.0.37-36-9-3-9-7" data-name="0.1.5.0.0.37-36-9-3-9-7" class="cls-5" x="51.22" y="61.29" width="1.19" height="1.2"/>
      <polygon id="_0.1.5.0.0.38-3-1-2-5-0" data-name="0.1.5.0.0.38-3-1-2-5-0" class="cls-6" points="52.98 60.73 50.66 60.73 51.22 61.3 52.42 61.3 52.98 60.73"/>
      <polygon id="_0.1.5.0.0.39-01-2-8-2-5" data-name="0.1.5.0.0.39-01-2-8-2-5" class="cls-7" points="52.98 63.05 52.42 62.49 52.42 61.3 52.98 60.73 52.98 63.05"/>
      <polygon id="_0.1.5.0.0.40-9-5-2-5-7" data-name="0.1.5.0.0.40-9-5-2-5-7" class="cls-8" points="50.66 63.05 51.22 62.49 52.42 62.49 52.98 63.05 50.66 63.05"/>
      <polygon id="_0.1.5.0.0.41-0-0-5-1-0" data-name="0.1.5.0.0.41-0-0-5-1-0" class="cls-9" points="50.66 63.05 50.66 60.73 51.22 61.3 51.22 62.49 50.66 63.05"/>
    </g>
    <text class="cls-20" transform="translate(51.82 69.49)">V=P+</text>
    <g id="amperka-logo">
      <path id="path532-5-4-9-8-5-6-8-0" d="M12,13.38a2,2,0,1,1-2,2,2,2,0,0,1,2-2m0,5.32a3.28,3.28,0,1,0-3.28-3.28A3.28,3.28,0,0,0,12,18.7"/>
      <path id="path536-1-4-0-5-1-3-3-2" d="M12,7A2.27,2.27,0,1,1,9.69,9.28,2.27,2.27,0,0,1,12,7m0,1.24a1,1,0,1,0,1,1,1,1,0,0,0-1-1"/>
      <path id="path540-3-7-2-9-1-0-6-4" d="M12.34,20.86a5.48,5.48,0,0,0,5.07-5.09A5.36,5.36,0,0,0,16.23,12l.4-.4a.63.63,0,0,0,.06-.85.61.61,0,0,0-.91,0l-.89.89a.54.54,0,0,0,0,.76,4.34,4.34,0,0,1,1.28,2.78A4.22,4.22,0,1,1,9,12.43l0-.06a.54.54,0,0,0,0-.76l-.87-.87a.63.63,0,0,0-.85-.06.62.62,0,0,0,0,.92l.42.42A5.38,5.38,0,0,0,6.5,15.41a5.47,5.47,0,0,0,5.84,5.45"/>
    </g>
    <g id="X1-screw-3.96-4pin">
      <rect id="rect9729-7-5-7-3-8-5-2-9" class="cls-21" x="52.22" y="14.9" width="19.47" height="41.72" rx="2.36" ry="2.36"/>
      <rect id="rect9729-3-2-1-4-1-3-4-0-8" class="cls-22" x="68.32" y="14.94" width="3.4" height="41.69" rx="0.57" ry="0.57"/>
      <rect id="rect9729-3-4-6-2-0-0-5-6-3-3" class="cls-23" x="52.26" y="14.84" width="3.4" height="41.79" rx="0.57" ry="0.57"/>
      <path id="_0.2.13.5.1.0-8-5" data-name="0.2.13.5.1.0-8-5" class="cls-23" d="M66.73,51.35A4.74,4.74,0,0,1,62,56V46.65A4.73,4.73,0,0,1,66.73,51.35Z"/>
      <path id="_0.2.13.5.1.1-5-9" data-name="0.2.13.5.1.1-5-9" class="cls-22" d="M57.18,51.35A4.74,4.74,0,0,1,62,46.65v9.4a4.74,4.74,0,0,1-4.77-4.7Z"/>
      <path id="_0.2.13.5.1.2.0-8-7" data-name="0.2.13.5.1.2.0-8-7" class="cls-24" d="M65.81,51.35a3.86,3.86,0,0,0-7.71,0A3.71,3.71,0,0,0,59.21,54a3.87,3.87,0,0,0,6.6-2.66Z"/>
      <path id="_0.2.13.5.1.2.1.0-3-7" data-name="0.2.13.5.1.2.1.0-3-7" d="M58.15,51.35A3.81,3.81,0,1,0,62,47.61a3.76,3.76,0,0,0-3.8,3.74m-.11,0a3.88,3.88,0,1,1,1.13,2.7A3.8,3.8,0,0,1,58,51.35Z"/>
      <path id="_0.2.13.5.1.2.2.0-6-2" data-name="0.2.13.5.1.2.2.0-6-2" d="M58.46,51.35a3.35,3.35,0,0,0,1,2.4,3.52,3.52,0,0,0,2.48,1,3.43,3.43,0,1,0-3.48-3.42m-.31,0A3.81,3.81,0,1,1,62,55.08,3.77,3.77,0,0,1,58.15,51.35Z"/>
      <path id="_0.2.13.5.1.3.0-1-8" data-name="0.2.13.5.1.3.0-1-8" class="cls-3" d="M62,47.92a3.45,3.45,0,0,1,.91.13v6.59a3.39,3.39,0,0,1-.91.13,3.3,3.3,0,0,1-.89-.13V48A3.74,3.74,0,0,1,62,47.92Z"/>
      <path id="_0.2.13.5.1.4.0-0-7" data-name="0.2.13.5.1.4.0-0-7" class="cls-25" d="M61.21,54.68l-.15,0V48l.15,0Z"/>
      <path id="_0.2.13.5.1.4.1-0-4" data-name="0.2.13.5.1.4.1-0-4" class="cls-26" d="M62.69,48l.17,0v6.59l-.17,0Z"/>
      <path id="_0.2.13.5.1.0-8-2-4" data-name="0.2.13.5.1.0-8-2-4" class="cls-23" d="M66.73,41A4.74,4.74,0,0,1,62,45.73V36.34A4.73,4.73,0,0,1,66.73,41Z"/>
      <path id="_0.2.13.5.1.1-5-7-9" data-name="0.2.13.5.1.1-5-7-9" class="cls-22" d="M57.18,41A4.74,4.74,0,0,1,62,36.34v9.4A4.74,4.74,0,0,1,57.18,41Z"/>
      <path id="_0.2.13.5.1.2.0-8-6-4" data-name="0.2.13.5.1.2.0-8-6-4" class="cls-24" d="M65.81,41a3.86,3.86,0,0,0-7.71,0,3.71,3.71,0,0,0,1.11,2.66A3.87,3.87,0,0,0,65.81,41Z"/>
      <path id="_0.2.13.5.1.2.1.0-3-4-9" data-name="0.2.13.5.1.2.1.0-3-4-9" d="M58.15,41A3.81,3.81,0,1,0,62,37.3,3.76,3.76,0,0,0,58.15,41M58,41a3.88,3.88,0,1,1,1.13,2.7A3.8,3.8,0,0,1,58,41Z"/>
      <path id="_0.2.13.5.1.2.2.0-6-6-4" data-name="0.2.13.5.1.2.2.0-6-6-4" d="M58.46,41a3.35,3.35,0,0,0,1,2.4,3.52,3.52,0,0,0,2.48,1A3.43,3.43,0,1,0,58.46,41m-.31,0A3.81,3.81,0,1,1,62,44.77,3.77,3.77,0,0,1,58.15,41Z"/>
      <path id="_0.2.13.5.1.3.0-1-0-8" data-name="0.2.13.5.1.3.0-1-0-8" class="cls-3" d="M62,37.61a3.45,3.45,0,0,1,.91.13v6.59a3.39,3.39,0,0,1-.91.13,3.3,3.3,0,0,1-.89-.13v-6.6A3.74,3.74,0,0,1,62,37.61Z"/>
      <path id="_0.2.13.5.1.4.0-0-9-7" data-name="0.2.13.5.1.4.0-0-9-7" class="cls-25" d="M61.21,44.37l-.15,0v-6.6l.15,0Z"/>
      <path id="_0.2.13.5.1.4.1-0-8-4" data-name="0.2.13.5.1.4.1-0-8-4" class="cls-26" d="M62.69,37.7l.17,0v6.59l-.17,0Z"/>
      <path id="_0.2.13.5.1.0-8-0-9" data-name="0.2.13.5.1.0-8-0-9" class="cls-23" d="M66.73,30.73A4.74,4.74,0,0,1,62,35.42V26A4.73,4.73,0,0,1,66.73,30.73Z"/>
      <path id="_0.2.13.5.1.1-5-0-2" data-name="0.2.13.5.1.1-5-0-2" class="cls-22" d="M57.18,30.73A4.74,4.74,0,0,1,62,26v9.4a4.74,4.74,0,0,1-4.77-4.7Z"/>
      <path id="_0.2.13.5.1.2.0-8-9-1" data-name="0.2.13.5.1.2.0-8-9-1" class="cls-24" d="M65.81,30.73a3.86,3.86,0,0,0-7.71,0,3.71,3.71,0,0,0,1.11,2.66,3.87,3.87,0,0,0,6.6-2.66Z"/>
      <path id="_0.2.13.5.1.2.1.0-3-40-3" data-name="0.2.13.5.1.2.1.0-3-40-3" d="M58.15,30.73A3.81,3.81,0,1,0,62,27a3.76,3.76,0,0,0-3.8,3.74m-.11,0a3.88,3.88,0,1,1,1.13,2.7A3.8,3.8,0,0,1,58,30.73Z"/>
      <path id="_0.2.13.5.1.2.2.0-6-8-5" data-name="0.2.13.5.1.2.2.0-6-8-5" d="M58.46,30.73a3.35,3.35,0,0,0,1,2.4,3.52,3.52,0,0,0,2.48,1,3.43,3.43,0,1,0-3.48-3.42m-.31,0A3.81,3.81,0,1,1,62,34.46,3.77,3.77,0,0,1,58.15,30.73Z"/>
      <path id="_0.2.13.5.1.3.0-1-9-3" data-name="0.2.13.5.1.3.0-1-9-3" class="cls-3" d="M62,27.3a3.45,3.45,0,0,1,.91.13V34a3.39,3.39,0,0,1-.91.13,3.3,3.3,0,0,1-.89-.13v-6.6A3.74,3.74,0,0,1,62,27.3Z"/>
      <path id="_0.2.13.5.1.4.0-0-6-5" data-name="0.2.13.5.1.4.0-0-6-5" class="cls-25" d="M61.21,34.06l-.15,0v-6.6l.15,0Z"/>
      <path id="_0.2.13.5.1.4.1-0-85-6" data-name="0.2.13.5.1.4.1-0-85-6" class="cls-26" d="M62.69,27.39l.17,0V34l-.17,0Z"/>
      <path id="_0.2.13.5.1.0-8-0-9-31" data-name="0.2.13.5.1.0-8-0-9-31" class="cls-23" d="M66.73,20.42A4.74,4.74,0,0,1,62,25.11V15.72A4.73,4.73,0,0,1,66.73,20.42Z"/>
      <path id="_0.2.13.5.1.1-5-0-2-66" data-name="0.2.13.5.1.1-5-0-2-66" class="cls-22" d="M57.18,20.42A4.74,4.74,0,0,1,62,15.72v9.4A4.74,4.74,0,0,1,57.18,20.42Z"/>
      <path id="_0.2.13.5.1.2.0-8-9-1-1" data-name="0.2.13.5.1.2.0-8-9-1-1" class="cls-24" d="M65.81,20.42a3.86,3.86,0,0,0-7.71,0,3.71,3.71,0,0,0,1.11,2.66,3.87,3.87,0,0,0,6.6-2.66Z"/>
      <path id="_0.2.13.5.1.2.1.0-3-40-3-8" data-name="0.2.13.5.1.2.1.0-3-40-3-8" d="M58.15,20.42A3.81,3.81,0,1,0,62,16.68a3.76,3.76,0,0,0-3.8,3.74m-.11,0a3.88,3.88,0,1,1,1.13,2.7A3.8,3.8,0,0,1,58,20.42Z"/>
      <path id="_0.2.13.5.1.2.2.0-6-8-5-7" data-name="0.2.13.5.1.2.2.0-6-8-5-7" d="M58.46,20.42a3.35,3.35,0,0,0,1,2.4,3.52,3.52,0,0,0,2.48,1,3.43,3.43,0,1,0-3.48-3.42m-.31,0A3.81,3.81,0,1,1,62,24.15,3.77,3.77,0,0,1,58.15,20.42Z"/>
      <path id="_0.2.13.5.1.3.0-1-9-3-0" data-name="0.2.13.5.1.3.0-1-9-3-0" class="cls-3" d="M62,17a3.45,3.45,0,0,1,.91.13v6.59a3.39,3.39,0,0,1-.91.13,3.3,3.3,0,0,1-.89-.13v-6.6A3.74,3.74,0,0,1,62,17Z"/>
      <path id="_0.2.13.5.1.4.0-0-6-5-2" data-name="0.2.13.5.1.4.0-0-6-5-2" class="cls-25" d="M61.21,23.75l-.15,0v-6.6l.15,0Z"/>
      <path id="_0.2.13.5.1.4.1-0-85-6-0" data-name="0.2.13.5.1.4.1-0-85-6-0" class="cls-26" d="M62.69,17.08l.17,0v6.59l-.17,0Z"/>
    </g>
    <g id="L1-0603">
      <path id="path6859-4-3-0-1-9-0-7-4" class="cls-27" d="M13.59,54.26v-2.7h6.49v2.7H13.59"/>
      <path id="path6871-9-6-0-4-5-4-2-1" class="cls-28" d="M14.08,51.78a.22.22,0,0,1,.21-.21h5.1a.21.21,0,0,1,.21.21V54a.21.21,0,0,1-.21.21H14.3a.22.22,0,0,1-.2-.21Z"/>
      <path id="path6873-8-4-1-5-5-5-7-8" class="cls-29" d="M15.08,54.25H18.6V51.57H15.08Z"/>
      <path id="path6877-7-1-7-5-9-6-3-9" class="cls-29" d="M18.54,51.6H15.08v2.63h3.46Zm.06,0v2.65H15.08V51.57H18.6"/>
      <path id="path6879-87-7-8-1-1-8-9-2" class="cls-30" d="M18.46,51.66h-3.3v2.49h3.3Zm.21-.11v2.7a.09.09,0,0,1-.09.11h-3.5a.11.11,0,0,1-.1-.11V51.57a.13.13,0,0,1,.1-.1H18.6a.09.09,0,0,1,.1.08v0"/>
      <path id="path6881-0-8-1-8-3-8-3-7" class="cls-31" d="M15.08,54.25h-.57V51.54h.57Z"/>
      <path id="path6875-42-1-4-9-5-0-2-6" class="cls-30" d="M18.49,51.66H15.08v2.5h3.36Zm.16,0v2.59a.09.09,0,0,1-.08.08H15.08a.09.09,0,0,1,0-.07h0V51.58s0-.07.06-.08h3.53s.08,0,.08.08h0"/>
      <path id="path6883-46-4-9-5-9-8-4-5" class="cls-31" d="M19.19,54.25h-.56V51.54h.56Z"/>
      <path id="path6897-5-1-0-5-0-7-8-1" class="cls-32" d="M15.08,51.66h3.49v2.57H15.08Z"/>
      <path id="path6963-86-8-2-6-0-1-7-9" class="cls-33" d="M18.08,53.14h-.4v-.4h.4Z"/>
    </g>
    <g id="R3-0603">
      <rect id="rect21332-8-1-9-3-8-2-40-6-2-0-6-6-0-5-6-4-8-7-2-0-7" class="cls-34" x="26.72" y="50.69" width="2.59" height="2.79"/>
      <rect id="rect21332-1-0-1-9-2-7-0-7-0-5-7-7-1-8-9-6-4-7-9-2-3-3" class="cls-34" x="22.85" y="50.69" width="2.59" height="2.79"/>
      <path id="path26337-9-7-8-6-4-8-3-3-3-3-2-4-8-2-2-7-9-1-5-7-01-0-3" class="cls-35" d="M23.7,50.92a.18.18,0,0,1,.16-.21h4.39a.19.19,0,0,1,.18.18v0h0v2.31a.21.21,0,0,1-.18.22H23.9a.2.2,0,0,1-.18-.22h0Z"/>
      <path id="path26345-3-6-9-3-6-4-2-5-6-8-7-9-0-90-3-1-3-9-2-2-8-5-0" class="cls-36" d="M24.53,53.45H24V50.71h.49Z"/>
      <path id="path26347-2-5-7-6-5-9-5-8-1-0-7-8-4-9-3-1-5-5-2-0-1-7-0" class="cls-36" d="M28.05,53.45h-.48V50.71h.48Z"/>
      <path id="path26341-4-2-6-0-8-1-1-1-5-0-3-3-1-8-3-8-7-7-7-2-4-9-7" class="cls-37" d="M24.51,53.45h3.06V50.71H24.51Z"/>
    </g>
    <g id="R1-0603">
      <rect id="rect21332-8-1-9-3-8-2-40-6-2-0-6-6-0-5-6-4-8-7-2-0-7-2" data-name="rect21332-8-1-9-3-8-2-40-6-2-0-6-6-0-5-6-4-8-7-2-0-7" class="cls-34" x="33.03" y="50.07" width="2.79" height="2.59"/>
      <rect id="rect21332-1-0-1-9-2-7-0-7-0-5-7-7-1-8-9-6-4-7-9-2-3-3-2" data-name="rect21332-1-0-1-9-2-7-0-7-0-5-7-7-1-8-9-6-4-7-9-2-3-3" class="cls-34" x="33.03" y="46.2" width="2.79" height="2.59"/>
      <path id="path26337-9-7-8-6-4-8-3-3-3-3-2-4-8-2-2-7-9-1-5-7-01-0-3-2" data-name="path26337-9-7-8-6-4-8-3-3-3-3-2-4-8-2-2-7-9-1-5-7-01-0-3" class="cls-35" d="M35.59,47.05a.19.19,0,0,1,.21.17h0V51.6a.18.18,0,0,1-.18.18H33.29a.2.2,0,0,1-.22-.18h0V47.25a.2.2,0,0,1,.22-.18h0Z"/>
      <path id="path26345-3-6-9-3-6-4-2-5-6-8-7-9-0-90-3-1-3-9-2-2-8-5-0-2" data-name="path26345-3-6-9-3-6-4-2-5-6-8-7-9-0-90-3-1-3-9-2-2-8-5-0" class="cls-36" d="M33.06,47.88v-.49H35.8v.49Z"/>
      <path id="path26347-2-5-7-6-5-9-5-8-1-0-7-8-4-9-3-1-5-5-2-0-1-7-0-2" data-name="path26347-2-5-7-6-5-9-5-8-1-0-7-8-4-9-3-1-5-5-2-0-1-7-0" class="cls-36" d="M33.06,51.4v-.48H35.8v.48Z"/>
      <path id="path26341-4-2-6-0-8-1-1-1-5-0-3-3-1-8-3-8-7-7-7-2-4-9-7-2" data-name="path26341-4-2-6-0-8-1-1-1-5-0-3-3-1-8-3-8-7-7-7-2-4-9-7" class="cls-37" d="M33.06,47.86v3.06H35.8V47.86Z"/>
    </g>
    <g id="R2-0603">
      <rect id="rect21332-8-1-9-3-8-2-40-6-2-0-6-6-0-5-6-4-8-7-2-0-7-3" data-name="rect21332-8-1-9-3-8-2-40-6-2-0-6-6-0-5-6-4-8-7-2-0-7" class="cls-34" x="7.18" y="56.68" width="2.79" height="2.59"/>
      <rect id="rect21332-1-0-1-9-2-7-0-7-0-5-7-7-1-8-9-6-4-7-9-2-3-3-3" data-name="rect21332-1-0-1-9-2-7-0-7-0-5-7-7-1-8-9-6-4-7-9-2-3-3" class="cls-34" x="7.18" y="52.81" width="2.79" height="2.59"/>
      <path id="path26337-9-7-8-6-4-8-3-3-3-3-2-4-8-2-2-7-9-1-5-7-01-0-3-3" data-name="path26337-9-7-8-6-4-8-3-3-3-3-2-4-8-2-2-7-9-1-5-7-01-0-3" class="cls-35" d="M9.74,53.66a.2.2,0,0,1,.21.17h0v4.38a.18.18,0,0,1-.18.18H7.44a.19.19,0,0,1-.22-.17h0V53.86a.19.19,0,0,1,.21-.18h0Z"/>
      <path id="path26345-3-6-9-3-6-4-2-5-6-8-7-9-0-90-3-1-3-9-2-2-8-5-0-3" data-name="path26345-3-6-9-3-6-4-2-5-6-8-7-9-0-90-3-1-3-9-2-2-8-5-0" class="cls-36" d="M7.21,54.49V54H10v.49Z"/>
      <path id="path26347-2-5-7-6-5-9-5-8-1-0-7-8-4-9-3-1-5-5-2-0-1-7-0-3" data-name="path26347-2-5-7-6-5-9-5-8-1-0-7-8-4-9-3-1-5-5-2-0-1-7-0" class="cls-36" d="M7.21,58v-.48H10V58Z"/>
      <path id="path26341-4-2-6-0-8-1-1-1-5-0-3-3-1-8-3-8-7-7-7-2-4-9-7-3" data-name="path26341-4-2-6-0-8-1-1-1-5-0-3-3-1-8-3-8-7-7-7-2-4-9-7" class="cls-37" d="M7.21,54.47v3.06H10V54.47Z"/>
    </g>
  </g>
</svg>
