<svg id="troyka-mosfet-p-channel" xmlns="http://www.w3.org/2000/svg" width="25.4mm" height="25.4mm" viewBox="0 0 72.01 72.01">
  <defs>
    <style>
      .cls-1 {
        fill: #f2f2f2;
        stroke-miterlimit: 1;
        stroke-width: 0.43px;
      }

      .cls-1, .cls-14, .cls-17, .cls-19, .cls-6 {
        stroke: #000;
      }

      .cls-2 {
        fill: #b3b3b3;
      }

      .cls-3 {
        fill: #ccc;
      }

      .cls-4 {
        fill: #181818;
      }

      .cls-5 {
        fill: #242424;
      }

      .cls-14, .cls-17, .cls-19, .cls-6 {
        fill: none;
        stroke-width: 0.28px;
      }

      .cls-7 {
        fill: #666;
      }

      .cls-8 {
        fill: #8d8c8c;
      }

      .cls-9 {
        fill: #8c8663;
      }

      .cls-10 {
        fill: #b8af82;
      }

      .cls-11 {
        fill: #80795b;
      }

      .cls-12 {
        fill: #5e5b43;
      }

      .cls-13 {
        fill: #9a916c;
      }

      .cls-14, .cls-17 {
        stroke-miterlimit: 10;
      }

      .cls-15, .cls-18, .cls-21, .cls-26, .cls-27 {
        isolation: isolate;
      }

      .cls-15 {
        font-size: 5.43px;
      }

      .cls-15, .cls-18, .cls-21 {
        font-family: TrebuchetMS, Trebuchet MS;
      }

      .cls-16 {
        fill: gray;
      }

      .cls-17, .cls-19 {
        stroke-linecap: square;
      }

      .cls-18 {
        font-size: 4.82px;
      }

      .cls-20 {
        fill: #404040;
      }

      .cls-21 {
        font-size: 3.87px;
      }

      .cls-22 {
        fill: #678246;
      }

      .cls-23 {
        fill: #485933;
      }

      .cls-24 {
        fill: #87a85c;
      }

      .cls-25 {
        fill: #8b8b8b;
      }

      .cls-26, .cls-27 {
        opacity: 0.15;
      }

      .cls-27, .cls-36 {
        fill: #fff;
      }

      .cls-28 {
        fill: #d2d1d3;
        stroke-opacity: 0.8;
        stroke-width: 0.01px;
      }

      .cls-28, .cls-29, .cls-30 {
        stroke: #0d0000;
      }

      .cls-29, .cls-32 {
        fill: #b7b8b9;
      }

      .cls-29, .cls-30 {
        stroke-width: 0.02px;
      }

      .cls-30, .cls-35 {
        fill: #d7d3d5;
      }

      .cls-31 {
        fill: #d0d1d0;
      }

      .cls-33 {
        fill: #40bb6a;
      }

      .cls-34 {
        fill: #918f90;
      }

      .cls-36 {
        fill-opacity: 0.51;
      }

      .cls-37 {
        fill: #545152;
      }
    </style>
  </defs>
  <title>troyka-mosfet-n-channel</title>
  <g id="all">
    <path id="troyka-one-unit" class="cls-1" d="M4.71.21A4.49,4.49,0,0,1,.23,4.71h0V67.29a4.49,4.49,0,0,1,4.5,4.48v0H67.29a4.49,4.49,0,0,1,4.48-4.5h0V4.71A4.49,4.49,0,0,1,67.29.23v0Z" transform="translate(0 0.01)"/>
    <g id="T1-DPak">
      <rect id="rect22-9" class="cls-2" x="27.32" y="34.06" width="2.41" height="2.65"/>
      <rect id="rect24-5" class="cls-2" x="27.32" y="40.46" width="3.6" height="2.65"/>
      <rect id="rect26-0" class="cls-2" x="27.32" y="27.65" width="3.6" height="2.65"/>
      <polygon id="polygon15-4" class="cls-2" points="6.71 31.19 6.71 39.7 8.06 42.87 10.44 42.87 10.44 28.03 8.06 28.03 6.71 31.19"/>
      <rect id="rect31-0" class="cls-3" x="30.94" y="40.46" width="1.33" height="2.65"/>
      <rect id="rect33-9" class="cls-3" x="30.94" y="27.65" width="1.33" height="2.65"/>
      <polygon class="cls-4" points="12.04 26.04 10.26 27.51 10.26 43.15 12.04 44.77 27.42 44.77 27.42 26.04 12.04 26.04"/>
      <polygon class="cls-5" points="12.61 26.76 11 28.24 11 42.57 12.61 44.08 27 44.08 27 26.76 12.61 26.76"/>
      <rect id="rect38-5" class="cls-2" x="32.26" y="40.46" width="3.04" height="2.65"/>
      <rect id="rect40-2" class="cls-2" x="32.26" y="27.65" width="3.04" height="2.65"/>
    </g>
    <g id="troyka-pins2">
      <rect id="rect6749-8" class="cls-6" x="39.54" y="0.18" width="7.13" height="13.81" rx="0.14" ry="0.14"/>
      <rect id="rect6749-9-8" class="cls-6" x="32.45" y="0.18" width="7.13" height="13.81" rx="0.14" ry="0.14"/>
      <rect id="rect6749-9-3-2" class="cls-6" x="25.34" y="0.18" width="7.13" height="13.81" rx="0.14" ry="0.14"/>
      <circle id="path4180-4" class="cls-7" cx="43.11" cy="10.31" r="2.62"/>
      <circle id="path4180-2-5" class="cls-7" cx="36" cy="10.31" r="2.62"/>
      <rect id="rect4216-5" class="cls-7" x="26.28" y="7.68" width="5.23" height="5.23" rx="0.48" ry="0.48"/>
      <rect id="_0.1.5.0.0.6-7-1" data-name=" 0.1.5.0.0.6-7-1" class="cls-8" x="27.77" y="9.11" width="2.27" height="2.39"/>
      <rect id="_0.1.5.0.0.37-1-1" data-name=" 0.1.5.0.0.37-1-1" class="cls-9" x="28.33" y="9.69" width="1.17" height="1.23"/>
      <polygon id="_0.1.5.0.0.38-1-5" data-name=" 0.1.5.0.0.38-1-5" class="cls-10" points="30.04 9.12 27.77 9.12 28.32 9.69 29.48 9.69 30.04 9.12"/>
      <polygon id="_0.1.5.0.0.39-3-2" data-name=" 0.1.5.0.0.39-3-2" class="cls-11" points="30.04 11.49 29.48 10.91 29.48 9.69 30.04 9.12 30.04 11.49"/>
      <polygon id="_0.1.5.0.0.40-25-7" data-name=" 0.1.5.0.0.40-25-7" class="cls-12" points="27.77 11.49 28.32 10.91 29.48 10.91 30.04 11.49 27.77 11.49"/>
      <polygon id="_0.1.5.0.0.41-35-6" data-name=" 0.1.5.0.0.41-35-6" class="cls-13" points="27.77 11.49 27.77 9.12 28.32 9.69 28.32 10.91 27.77 11.49"/>
      <rect id="_0.1.5.0.0.7-6-40-4" data-name=" 0.1.5.0.0.7-6-40-4" class="cls-8" x="41.97" y="9.11" width="2.27" height="2.39"/>
      <rect id="_0.1.5.0.0.32-4-7-2" data-name=" 0.1.5.0.0.32-4-7-2" class="cls-9" x="42.52" y="9.69" width="1.17" height="1.23"/>
      <polygon id="_0.1.5.0.0.33-0-0-3" data-name=" 0.1.5.0.0.33-0-0-3" class="cls-10" points="43.69 9.69 44.23 9.12 41.97 9.12 42.52 9.69 43.69 9.69"/>
      <polygon id="_0.1.5.0.0.34-7-3-2" data-name=" 0.1.5.0.0.34-7-3-2" class="cls-11" points="44.23 9.12 44.23 11.49 43.69 10.91 43.69 9.69 44.23 9.12"/>
      <polygon id="_0.1.5.0.0.35-0-4-2" data-name=" 0.1.5.0.0.35-0-4-2" class="cls-12" points="44.23 11.49 41.97 11.49 42.52 10.91 43.69 10.91 44.23 11.49"/>
      <polygon id="_0.1.5.0.0.36-3-0-1" data-name=" 0.1.5.0.0.36-3-0-1" class="cls-13" points="42.52 10.91 41.97 11.49 41.97 9.12 42.52 9.69 42.52 10.91"/>
      <rect id="_0.1.5.0.0.7-2-8" data-name=" 0.1.5.0.0.7-2-8" class="cls-8" x="34.88" y="9.11" width="2.27" height="2.39"/>
      <rect id="_0.1.5.0.0.32-9-5" data-name=" 0.1.5.0.0.32-9-5" class="cls-9" x="35.43" y="9.69" width="1.17" height="1.23"/>
      <polygon id="_0.1.5.0.0.33-7-7" data-name=" 0.1.5.0.0.33-7-7" class="cls-10" points="37.13 9.12 34.88 9.12 35.42 9.69 36.59 9.69 37.13 9.12"/>
      <polygon id="_0.1.5.0.0.34-53-6" data-name=" 0.1.5.0.0.34-53-6" class="cls-11" points="37.13 11.49 36.59 10.91 36.59 9.69 37.13 9.12 37.13 11.49"/>
      <polygon id="_0.1.5.0.0.35-4-1" data-name=" 0.1.5.0.0.35-4-1" class="cls-12" points="34.88 11.49 35.42 10.91 36.59 10.91 37.13 11.49 34.88 11.49"/>
      <polygon id="_0.1.5.0.0.36-32-8" data-name=" 0.1.5.0.0.36-32-8" class="cls-13" points="34.88 11.49 34.88 9.12 35.42 9.69 35.42 10.91 34.88 11.49"/>
      <rect id="_0.1.5.0.0.6-2-26-9" data-name=" 0.1.5.0.0.6-2-26-9" class="cls-8" x="34.88" y="9.11" width="2.27" height="2.39"/>
      <rect id="_0.1.5.0.0.37-4-0-2" data-name=" 0.1.5.0.0.37-4-0-2" class="cls-9" x="35.43" y="9.69" width="1.17" height="1.23"/>
      <polygon id="_0.1.5.0.0.38-0-5-7" data-name=" 0.1.5.0.0.38-0-5-7" class="cls-10" points="36.59 9.69 37.13 9.12 34.88 9.12 35.42 9.69 36.59 9.69"/>
      <polygon id="_0.1.5.0.0.39-0-3-9" data-name=" 0.1.5.0.0.39-0-3-9" class="cls-11" points="37.13 9.12 37.13 11.49 36.59 10.91 36.59 9.69 37.13 9.12"/>
      <polygon id="_0.1.5.0.0.40-5-10-5" data-name=" 0.1.5.0.0.40-5-10-5" class="cls-12" points="37.13 11.49 34.88 11.49 35.42 10.91 36.59 10.91 37.13 11.49"/>
      <polygon id="_0.1.5.0.0.41-3-6-4" data-name=" 0.1.5.0.0.41-3-6-4" class="cls-13" points="35.42 10.91 34.88 11.49 34.88 9.12 35.42 9.69 35.42 10.91"/>
    </g>
    <g id="troyka-pins">
      <rect id="rect6749" class="cls-6" x="25.34" y="57.94" width="7.13" height="13.81" rx="0.14" ry="0.14"/>
      <rect id="rect6749-9" class="cls-6" x="32.45" y="57.94" width="7.13" height="13.81" rx="0.14" ry="0.14"/>
      <rect id="rect6749-9-3" class="cls-14" x="39.54" y="57.94" width="7.13" height="13.81" rx="0.14" ry="0.14"/>
      <circle id="path4180" class="cls-7" cx="28.89" cy="61.62" r="2.62"/>
      <circle id="path4180-2" class="cls-7" cx="36" cy="61.62" r="2.62"/>
      <rect id="rect4216" class="cls-7" x="40.5" y="59.01" width="5.23" height="5.23" rx="0.48" ry="0.48"/>
      <rect id="_0.1.5.0.0.6-7" data-name=" 0.1.5.0.0.6-7" class="cls-8" x="41.97" y="60.44" width="2.27" height="2.39"/>
      <rect id="_0.1.5.0.0.37-1" data-name=" 0.1.5.0.0.37-1" class="cls-9" x="42.52" y="61.01" width="1.17" height="1.23"/>
      <polygon id="_0.1.5.0.0.38-1" data-name=" 0.1.5.0.0.38-1" class="cls-10" points="42.52 62.24 41.98 62.81 44.23 62.81 43.69 62.24 42.52 62.24"/>
      <polygon id="_0.1.5.0.0.39-3" data-name=" 0.1.5.0.0.39-3" class="cls-11" points="41.98 62.81 41.98 60.44 42.52 61.01 42.52 62.24 41.98 62.81"/>
      <polygon id="_0.1.5.0.0.40-25" data-name=" 0.1.5.0.0.40-25" class="cls-12" points="41.98 60.44 44.23 60.44 43.69 61.01 42.52 61.01 41.98 60.44"/>
      <polygon id="_0.1.5.0.0.41-35" data-name=" 0.1.5.0.0.41-35" class="cls-13" points="43.69 61.01 44.23 60.44 44.23 62.81 43.69 62.24 43.69 61.01"/>
      <rect id="_0.1.5.0.0.7-6-40" data-name=" 0.1.5.0.0.7-6-40" class="cls-8" x="27.77" y="60.44" width="2.27" height="2.39"/>
      <rect id="_0.1.5.0.0.32-4-7" data-name=" 0.1.5.0.0.32-4-7" class="cls-9" x="28.31" y="61.01" width="1.17" height="1.23"/>
      <polygon id="_0.1.5.0.0.33-0-0" data-name=" 0.1.5.0.0.33-0-0" class="cls-10" points="29.48 62.24 28.32 62.24 27.77 62.81 30.04 62.81 29.48 62.24"/>
      <polygon id="_0.1.5.0.0.34-7-3" data-name=" 0.1.5.0.0.34-7-3" class="cls-11" points="28.32 62.24 27.77 62.81 27.77 60.44 28.32 61.01 28.32 62.24"/>
      <polygon id="_0.1.5.0.0.35-0-4" data-name=" 0.1.5.0.0.35-0-4" class="cls-12" points="28.32 61.01 27.77 60.44 30.04 60.44 29.48 61.01 28.32 61.01"/>
      <polygon id="_0.1.5.0.0.36-3-0" data-name=" 0.1.5.0.0.36-3-0" class="cls-13" points="29.48 62.24 29.48 61.01 30.04 60.44 30.04 62.81 29.48 62.24"/>
      <rect id="_0.1.5.0.0.7-2" data-name=" 0.1.5.0.0.7-2" class="cls-8" x="34.88" y="60.44" width="2.27" height="2.39"/>
      <rect id="_0.1.5.0.0.32-9" data-name=" 0.1.5.0.0.32-9" class="cls-9" x="35.41" y="61.01" width="1.17" height="1.23"/>
      <polygon id="_0.1.5.0.0.33-7" data-name=" 0.1.5.0.0.33-7" class="cls-10" points="35.42 62.24 34.88 62.81 37.13 62.81 36.59 62.24 35.42 62.24"/>
      <polygon id="_0.1.5.0.0.34-53" data-name=" 0.1.5.0.0.34-53" class="cls-11" points="34.88 62.81 34.88 60.44 35.42 61.01 35.42 62.24 34.88 62.81"/>
      <polygon id="_0.1.5.0.0.35-4" data-name=" 0.1.5.0.0.35-4" class="cls-12" points="34.88 60.44 37.13 60.44 36.59 61.01 35.42 61.01 34.88 60.44"/>
      <polygon id="_0.1.5.0.0.36-32" data-name=" 0.1.5.0.0.36-32" class="cls-13" points="36.59 61.01 37.13 60.44 37.13 62.81 36.59 62.24 36.59 61.01"/>
      <rect id="_0.1.5.0.0.6-2-26" data-name=" 0.1.5.0.0.6-2-26" class="cls-8" x="34.88" y="60.44" width="2.27" height="2.39"/>
      <rect id="_0.1.5.0.0.37-4-0" data-name=" 0.1.5.0.0.37-4-0" class="cls-9" x="35.43" y="61.01" width="1.17" height="1.23"/>
      <polygon id="_0.1.5.0.0.38-0-5" data-name=" 0.1.5.0.0.38-0-5" class="cls-10" points="36.59 62.24 35.42 62.24 34.88 62.81 37.13 62.81 36.59 62.24"/>
      <polygon id="_0.1.5.0.0.39-0-3" data-name=" 0.1.5.0.0.39-0-3" class="cls-11" points="35.42 62.24 34.88 62.81 34.88 60.44 35.42 61.01 35.42 62.24"/>
      <polygon id="_0.1.5.0.0.40-5-10" data-name=" 0.1.5.0.0.40-5-10" class="cls-12" points="35.42 61.01 34.88 60.44 37.13 60.44 36.59 61.01 35.42 61.01"/>
      <polygon id="_0.1.5.0.0.41-3-6" data-name=" 0.1.5.0.0.41-3-6" class="cls-13" points="36.59 62.24 36.59 61.01 37.13 60.44 37.13 62.81 36.59 62.24"/>
      <text class="cls-15" transform="translate(41.31 69.51)">G</text>
      <text class="cls-15" transform="translate(34.34 69.49)">V</text>
      <text class="cls-15" transform="translate(27.49 69.51)">S</text>
    </g>
    <g id="T2-SOT23">
      <path id="path3477-9" class="cls-5" d="M21.64,63.77H13.22V60.29h8.42Z" transform="translate(0 0.01)"/>
      <path id="path3479-7" class="cls-2" d="M21,66.33H19.38V63.76H21Z" transform="translate(0 0.01)"/>
      <path id="path3481-0" class="cls-16" d="M21,64.85H19.38V64H21Z" transform="translate(0 0.01)"/>
      <path id="path3483-6" class="cls-2" d="M15.48,66.33H13.87V63.76h1.61Z" transform="translate(0 0.01)"/>
      <path id="path3485-6" class="cls-16" d="M15.48,64.85H13.87V64h1.61Z" transform="translate(0 0.01)"/>
      <path id="path3487-1" class="cls-2" d="M18.24,57.74H16.62V60.3h1.62Z" transform="translate(0 0.01)"/>
      <path id="path3489-6" class="cls-16" d="M18.24,59.21H16.62V60h1.62Z" transform="translate(0 0.01)"/>
    </g>
    <g id="screw-annotation">
      <path id="path33794-6-00" class="cls-17" d="M42.42,25.56h9.77" transform="translate(0 0.01)"/>
      <path id="path33794-6-0-3" class="cls-14" d="M42.42,46.19h9.75" transform="translate(0 0.01)"/>
      <text class="cls-18" transform="translate(45.03 32.4)">L+</text>
      <text class="cls-18" transform="translate(45.03 21.99)">L−</text>
      <path id="path33789-81" class="cls-14" d="M42.42,14.9v8.72" transform="translate(0 0.01)"/>
      <path id="path33794-7" class="cls-19" d="M42.42,14.9h2.13" transform="translate(0 0.01)"/>
      <path id="path33789-8-9" class="cls-17" d="M42.42,47.9v8.71" transform="translate(0 0.01)"/>
      <path id="path33794-6-2-7" class="cls-17" d="M42.48,56.61h2" transform="translate(0 0.01)"/>
      <text class="cls-18" transform="translate(44.95 42.59)">P+</text>
      <text class="cls-18" transform="translate(44.95 53.05)">P−</text>
      <path id="path33789-8-8-1" class="cls-17" d="M42.42,25.56V46.19" transform="translate(0 0.01)"/>
    </g>
    <g id="JP1-2_54-2pins" data-name="JP1-2 54-2pins">
      <polygon id="_0.1.5.0.0.2-4-1-4-2-8" data-name=" 0.1.5.0.0.2-4-1-4-2-8" class="cls-20" points="62.6 60.05 61.09 58.52 57.1 58.52 53.73 58.52 49.76 58.52 48.23 60.05 48.23 64.03 49.76 65.55 53.73 65.55 57.1 65.55 61.09 65.55 62.6 64.03 62.6 60.05"/>
      <polygon id="_0.1.5.0.0.5-5-9-1-4-7" data-name=" 0.1.5.0.0.5-5-9-1-4-7" class="cls-20" points="62.6 60.05 61.09 58.52 57.1 58.52 53.73 58.52 49.76 58.52 48.23 60.05 48.23 64.03 49.76 65.55 53.73 65.55 57.1 65.55 61.09 65.55 62.6 64.03 62.6 60.05"/>
      <rect id="_0.1.5.0.0.6-6-6-6-9-7" data-name=" 0.1.5.0.0.6-6-6-6-9-7" class="cls-8" x="50.66" y="60.73" width="2.32" height="2.32"/>
      <rect id="_0.1.5.0.0.7-8-9-1-2-4" data-name=" 0.1.5.0.0.7-8-9-1-2-4" class="cls-8" x="57.94" y="60.73" width="2.32" height="2.32"/>
      <rect id="_0.1.5.0.0.32-0-8-6-2-6" data-name=" 0.1.5.0.0.32-0-8-6-2-6" class="cls-9" x="58.5" y="61.3" width="1.2" height="1.2"/>
      <polygon id="_0.1.5.0.0.33-77-2-3-1-8" data-name=" 0.1.5.0.0.33-77-2-3-1-8" class="cls-10" points="60.27 60.73 57.94 60.73 58.51 61.3 59.7 61.3 60.27 60.73"/>
      <polygon id="_0.1.5.0.0.34-4-5-3-9-4" data-name=" 0.1.5.0.0.34-4-5-3-9-4" class="cls-11" points="60.27 63.05 59.7 62.49 59.7 61.3 60.27 60.73 60.27 63.05"/>
      <polygon id="_0.1.5.0.0.35-3-5-5-0-6" data-name=" 0.1.5.0.0.35-3-5-5-0-6" class="cls-12" points="57.94 63.05 58.51 62.49 59.7 62.49 60.27 63.05 57.94 63.05"/>
      <polygon id="_0.1.5.0.0.36-1-4-5-0-9" data-name=" 0.1.5.0.0.36-1-4-5-0-9" class="cls-13" points="57.94 63.05 57.94 60.73 58.51 61.3 58.51 62.49 57.94 63.05"/>
      <rect id="_0.1.5.0.0.37-36-9-3-9-7" data-name=" 0.1.5.0.0.37-36-9-3-9-7" class="cls-9" x="51.23" y="61.3" width="1.19" height="1.2"/>
      <polygon id="_0.1.5.0.0.38-3-1-2-5-0" data-name=" 0.1.5.0.0.38-3-1-2-5-0" class="cls-10" points="52.98 60.73 50.66 60.73 51.23 61.3 52.42 61.3 52.98 60.73"/>
      <polygon id="_0.1.5.0.0.39-01-2-8-2-5" data-name=" 0.1.5.0.0.39-01-2-8-2-5" class="cls-11" points="52.98 63.05 52.42 62.49 52.42 61.3 52.98 60.73 52.98 63.05"/>
      <polygon id="_0.1.5.0.0.40-9-5-2-5-7" data-name=" 0.1.5.0.0.40-9-5-2-5-7" class="cls-12" points="50.66 63.05 51.23 62.49 52.42 62.49 52.98 63.05 50.66 63.05"/>
      <polygon id="_0.1.5.0.0.41-0-0-5-1-0" data-name=" 0.1.5.0.0.41-0-0-5-1-0" class="cls-13" points="50.66 63.05 50.66 60.73 51.23 61.3 51.23 62.49 50.66 63.05"/>
    </g>
    <text class="cls-21" transform="translate(51.83 69.49)">V=P+</text>
    <g id="amperka-logo">
      <path id="path532-5-4-9-8-5-6-8-0" d="M12.74,12.92a2,2,0,1,1-2,2,2,2,0,0,1,2-2m0,5.32A3.28,3.28,0,1,0,9.44,15h0a3.26,3.26,0,0,0,3.25,3.29h.05" transform="translate(0 0.01)"/>
      <path id="path536-1-4-0-5-1-3-3-2" d="M12.74,6.54a2.06,2.06,0,1,1-.08,0h.08m0,1.23a1,1,0,1,0,0,2,1,1,0,0,0,0-2" transform="translate(0 0.01)"/>
      <path id="path540-3-7-2-9-1-0-6-4" d="M13.06,20.4a5.48,5.48,0,0,0,5.06-5.09,5.33,5.33,0,0,0-1.18-3.77l.4-.4a.62.62,0,0,0,.06-.85.6.6,0,0,0-.84,0h-.07l-.89.89a.58.58,0,0,0,0,.76,4.22,4.22,0,1,1-6,.08l.14-.09v-.07a.56.56,0,0,0,0-.76l-.86-.87A.66.66,0,0,0,8,10.17a.65.65,0,0,0,0,.88H8l.43.42A5.41,5.41,0,0,0,7.2,14.94a5.5,5.5,0,0,0,5.5,5.47h.43" transform="translate(0 0.01)"/>
    </g>
    <g id="X1-screw-3.96-4pin">
      <rect id="rect9729-7-5-7-3-8-5-2-9" class="cls-22" x="52.27" y="14.9" width="19.47" height="41.72" rx="2.36" ry="2.36"/>
      <rect id="rect9729-3-2-1-4-1-3-4-0-8" class="cls-23" x="68.36" y="14.94" width="3.4" height="41.69" rx="0.57" ry="0.57"/>
      <rect id="rect9729-3-4-6-2-0-0-5-6-3-3" class="cls-24" x="52.3" y="14.85" width="3.4" height="41.79" rx="0.57" ry="0.57"/>
      <g id="pin4">
        <path id="_0.2.13.5.1.0-8-0-9-31" data-name=" 0.2.13.5.1.0-8-0-9-31" class="cls-24" d="M66.78,51.43a4.76,4.76,0,0,1-4.7,4.69V46.73a4.73,4.73,0,0,1,4.74,4.7h0Z" transform="translate(0 0.01)"/>
        <path id="_0.2.13.5.1.1-5-0-2-66" data-name=" 0.2.13.5.1.1-5-0-2-66" class="cls-23" d="M57.22,51.43A4.75,4.75,0,0,1,62,46.72h0v9.39a4.74,4.74,0,0,1-4.82-4.65h0Z" transform="translate(0 0.01)"/>
        <path id="_0.2.13.5.1.2.0-8-9-1-1" data-name=" 0.2.13.5.1.2.0-8-9-1-1" class="cls-25" d="M65.85,51.43a3.87,3.87,0,0,0-7.72,0,3.73,3.73,0,0,0,1.11,2.65,3.88,3.88,0,0,0,5.48,0A3.92,3.92,0,0,0,65.85,51.43Z" transform="translate(0 0.01)"/>
        <path id="_0.2.13.5.1.3.0-1-9-3-0" data-name=" 0.2.13.5.1.3.0-1-9-3-0" class="cls-7" d="M62.08,48a3.18,3.18,0,0,1,.91.13v6.73a3.19,3.19,0,0,1-.91.14,3,3,0,0,1-.89-.14V48.13A3.8,3.8,0,0,1,62.08,48Z" transform="translate(0 0.01)"/>
        <path id="_0.2.13.5.1.4.0-0-6-5-2" data-name=" 0.2.13.5.1.4.0-0-6-5-2" class="cls-26" d="M61.24,55h-.17V48.15h.15Z" transform="translate(0 0.01)"/>
        <path id="_0.2.13.5.1.4.1-0-85-6-0" data-name=" 0.2.13.5.1.4.1-0-85-6-0" class="cls-27" d="M62.73,48.08h.17V55h-.17Z" transform="translate(0 0.01)"/>
        <path d="M62.08,47.49a4,4,0,1,0,4,4A4,4,0,0,0,62.08,47.49Zm0,7.53a3.56,3.56,0,1,1,3.56-3.56h0A3.57,3.57,0,0,1,62.08,55Z" transform="translate(0 0.01)"/>
      </g>
      <g id="pin3">
        <path id="_0.2.13.5.1.0-8-0-9-31-2" data-name=" 0.2.13.5.1.0-8-0-9-31-2" class="cls-24" d="M66.78,41a4.74,4.74,0,0,1-4.7,4.69V36.32A4.75,4.75,0,0,1,66.78,41Z" transform="translate(0 0.01)"/>
        <path id="_0.2.13.5.1.1-5-0-2-66-2" data-name=" 0.2.13.5.1.1-5-0-2-66-2" class="cls-23" d="M57.22,41A4.74,4.74,0,0,1,62,36.33h0v9.4a4.75,4.75,0,0,1-4.82-4.64h0Z" transform="translate(0 0.01)"/>
        <path id="_0.2.13.5.1.2.0-8-9-1-1-2" data-name=" 0.2.13.5.1.2.0-8-9-1-1-2" class="cls-25" d="M65.85,41a3.87,3.87,0,0,0-7.72,0,3.75,3.75,0,0,0,1.11,2.66,3.87,3.87,0,0,0,5.46,0h0A3.87,3.87,0,0,0,65.85,41Z" transform="translate(0 0.01)"/>
        <path id="_0.2.13.5.1.3.0-1-9-3-0-2" data-name=" 0.2.13.5.1.3.0-1-9-3-0-2" class="cls-7" d="M62.08,37.6a3.59,3.59,0,0,1,.91.14v6.73a3.18,3.18,0,0,1-.91.13,3,3,0,0,1-.89-.13V37.73A3.83,3.83,0,0,1,62.08,37.6Z" transform="translate(0 0.01)"/>
        <path id="_0.2.13.5.1.4.0-0-6-5-2-2" data-name=" 0.2.13.5.1.4.0-0-6-5-2-2" class="cls-26" d="M61.24,44.6h-.17V37.75h.15Z" transform="translate(0 0.01)"/>
        <path id="_0.2.13.5.1.4.1-0-85-6-0-2" data-name=" 0.2.13.5.1.4.1-0-85-6-0-2" class="cls-27" d="M62.73,37.68h.17V44.6h-.17Z" transform="translate(0 0.01)"/>
        <path d="M62.08,37.09a4,4,0,1,0,4,4A4,4,0,0,0,62.08,37.09Zm0,7.55a3.56,3.56,0,1,1,3.56-3.56h0a3.56,3.56,0,0,1-3.54,3.56Z" transform="translate(0 0.01)"/>
      </g>
      <g id="pin2">
        <path id="_0.2.13.5.1.0-8-0-9-31-3" data-name=" 0.2.13.5.1.0-8-0-9-31-3" class="cls-24" d="M66.78,30.62a4.74,4.74,0,0,1-4.7,4.69V25.92A4.76,4.76,0,0,1,66.78,30.62Z" transform="translate(0 0.01)"/>
        <path id="_0.2.13.5.1.1-5-0-2-66-3" data-name=" 0.2.13.5.1.1-5-0-2-66-3" class="cls-23" d="M57.22,30.62A4.75,4.75,0,0,1,62,25.92h.09v9.4a4.74,4.74,0,0,1-4.82-4.65h0Z" transform="translate(0 0.01)"/>
        <path id="_0.2.13.5.1.2.0-8-9-1-1-3" data-name=" 0.2.13.5.1.2.0-8-9-1-1-3" class="cls-25" d="M65.85,30.62a3.87,3.87,0,0,0-7.72,0,3.74,3.74,0,0,0,1.11,2.66,3.88,3.88,0,0,0,5.48,0A3.82,3.82,0,0,0,65.85,30.62Z" transform="translate(0 0.01)"/>
        <path id="_0.2.13.5.1.3.0-1-9-3-0-3" data-name=" 0.2.13.5.1.3.0-1-9-3-0-3" class="cls-7" d="M62.08,27.2a3.59,3.59,0,0,1,.91.14v6.73a2.86,2.86,0,0,1-.91.13,3,3,0,0,1-.89-.13V27.33A4.45,4.45,0,0,1,62.08,27.2Z" transform="translate(0 0.01)"/>
        <path id="_0.2.13.5.1.4.0-0-6-5-2-3" data-name=" 0.2.13.5.1.4.0-0-6-5-2-3" class="cls-26" d="M61.24,34.2h-.17V27.35h.15Z" transform="translate(0 0.01)"/>
        <path id="_0.2.13.5.1.4.1-0-85-6-0-3" data-name=" 0.2.13.5.1.4.1-0-85-6-0-3" class="cls-27" d="M62.73,27.28h.17V34.2h-.17Z" transform="translate(0 0.01)"/>
        <path d="M62.08,26.69a4,4,0,1,0,4,4A4,4,0,0,0,62.08,26.69Zm0,7.55a3.56,3.56,0,1,1,3.56-3.56h0A3.56,3.56,0,0,1,62.08,34.24Z" transform="translate(0 0.01)"/>
      </g>
      <g id="pin1">
        <path id="_0.2.13.5.1.0-8-0-9-31-4" data-name=" 0.2.13.5.1.0-8-0-9-31-4" class="cls-24" d="M66.78,20.22a4.74,4.74,0,0,1-4.7,4.69V15.52A4.76,4.76,0,0,1,66.78,20.22Z" transform="translate(0 0.01)"/>
        <path id="_0.2.13.5.1.1-5-0-2-66-4" data-name=" 0.2.13.5.1.1-5-0-2-66-4" class="cls-23" d="M57.22,20.22A4.75,4.75,0,0,1,62,15.52h0v9.4a4.74,4.74,0,0,1-4.82-4.65h0Z" transform="translate(0 0.01)"/>
        <path id="_0.2.13.5.1.2.0-8-9-1-1-4" data-name=" 0.2.13.5.1.2.0-8-9-1-1-4" class="cls-25" d="M65.85,20.22a3.87,3.87,0,0,0-7.72,0,3.74,3.74,0,0,0,1.11,2.66,3.88,3.88,0,0,0,6.61-2.66Z" transform="translate(0 0.01)"/>
        <path id="_0.2.13.5.1.3.0-1-9-3-0-4" data-name=" 0.2.13.5.1.3.0-1-9-3-0-4" class="cls-7" d="M62.08,16.8a3.19,3.19,0,0,1,.91.14v6.73a2.61,2.61,0,0,1-.91.13,2.7,2.7,0,0,1-.89-.13V16.93A5.31,5.31,0,0,1,62.08,16.8Z" transform="translate(0 0.01)"/>
        <path id="_0.2.13.5.1.4.0-0-6-5-2-4" data-name=" 0.2.13.5.1.4.0-0-6-5-2-4" class="cls-26" d="M61.24,23.8h-.17V17h.15Z" transform="translate(0 0.01)"/>
        <path id="_0.2.13.5.1.4.1-0-85-6-0-4" data-name=" 0.2.13.5.1.4.1-0-85-6-0-4" class="cls-27" d="M62.73,16.88h.17V23.8h-.17Z" transform="translate(0 0.01)"/>
        <path d="M62.08,16.29a4,4,0,1,0,4,4A4,4,0,0,0,62.08,16.29Zm0,7.55a3.56,3.56,0,1,1,3.56-3.56h0A3.56,3.56,0,0,1,62.08,23.84Z" transform="translate(0 0.01)"/>
      </g>
    </g>
    <g id="R3-0603">
      <rect id="rect21332-8-1-9-3-8-2-40-6-2-0-6-6-0-5-6-4-8-7-2-0-7-2-3-9" class="cls-28" x="22.83" y="51.13" width="2.59" height="2.72"/>
      <rect id="rect21332-8-1-9-3-8-2-40-6-2-0-6-6-0-5-6-4-8-7-2-0-7-2-3-10" class="cls-28" x="26.72" y="51.13" width="2.59" height="2.72"/>
      <rect class="cls-29" x="23.78" y="51.13" width="4.72" height="2.73" rx="0.34" ry="0.34"/>
      <path id="path26345-3-6-9-3-6-4-2-5-6-8-7-9-0-90-3-1-3-9-2-2-8-5-0-2-3-5" class="cls-30" d="M28.1,53.87H24.17V51.14H28.1Z" transform="translate(0 0.01)"/>
      <path id="path26341-4-2-6-0-8-1-1-1-5-0-3-3-1-8-3-8-7-7-7-2-4-9-7-2-3-5" class="cls-5" d="M24.66,53.87h3V51.14h-3Z" transform="translate(0 0.01)"/>
    </g>
    <g id="R2-0603">
      <rect id="rect21332-8-1-9-3-8-2-40-6-2-0-6-6-0-5-6-4-8-7-2-0-7-2-3-9-2" data-name="rect21332-8-1-9-3-8-2-40-6-2-0-6-6-0-5-6-4-8-7-2-0-7-2-3-9" class="cls-28" x="7.23" y="51.06" width="2.72" height="2.59"/>
      <rect id="rect21332-8-1-9-3-8-2-40-6-2-0-6-6-0-5-6-4-8-7-2-0-7-2-3-10-2" data-name="rect21332-8-1-9-3-8-2-40-6-2-0-6-6-0-5-6-4-8-7-2-0-7-2-3-10" class="cls-28" x="7.23" y="54.96" width="2.72" height="2.59"/>
      <rect class="cls-29" x="7.22" y="52.01" width="2.73" height="4.72" rx="0.34" ry="0.34"/>
      <path id="path26345-3-6-9-3-6-4-2-5-6-8-7-9-0-90-3-1-3-9-2-2-8-5-0-2-3-5-2" data-name="path26345-3-6-9-3-6-4-2-5-6-8-7-9-0-90-3-1-3-9-2-2-8-5-0-2-3-5" class="cls-30" d="M7.2,56.34V52.41H9.94v3.93Z" transform="translate(0 0.01)"/>
      <path id="path26341-4-2-6-0-8-1-1-1-5-0-3-3-1-8-3-8-7-7-7-2-4-9-7-2-3-5-2" data-name="path26341-4-2-6-0-8-1-1-1-5-0-3-3-1-8-3-8-7-7-7-2-4-9-7-2-3-5" class="cls-5" d="M7.2,52.9v3H9.94v-3Z" transform="translate(0 0.01)"/>
    </g>
    <g id="R1-0603">
      <rect id="rect21332-8-1-9-3-8-2-40-6-2-0-6-6-0-5-6-4-8-7-2-0-7-2-3-9-3" data-name="rect21332-8-1-9-3-8-2-40-6-2-0-6-6-0-5-6-4-8-7-2-0-7-2-3-9" class="cls-28" x="33.09" y="47.4" width="2.72" height="2.59"/>
      <rect id="rect21332-8-1-9-3-8-2-40-6-2-0-6-6-0-5-6-4-8-7-2-0-7-2-3-10-3" data-name="rect21332-8-1-9-3-8-2-40-6-2-0-6-6-0-5-6-4-8-7-2-0-7-2-3-10" class="cls-28" x="33.09" y="51.29" width="2.72" height="2.59"/>
      <rect class="cls-29" x="33.08" y="48.35" width="2.73" height="4.72" rx="0.34" ry="0.34"/>
      <path id="path26345-3-6-9-3-6-4-2-5-6-8-7-9-0-90-3-1-3-9-2-2-8-5-0-2-3-5-3" data-name="path26345-3-6-9-3-6-4-2-5-6-8-7-9-0-90-3-1-3-9-2-2-8-5-0-2-3-5" class="cls-30" d="M33.06,52.67V48.74H35.8v3.93Z" transform="translate(0 0.01)"/>
      <path id="path26341-4-2-6-0-8-1-1-1-5-0-3-3-1-8-3-8-7-7-7-2-4-9-7-2-3-5-3" data-name="path26341-4-2-6-0-8-1-1-1-5-0-3-3-1-8-3-8-7-7-7-2-4-9-7-2-3-5" class="cls-5" d="M33.06,49.23v3H35.8v-3Z" transform="translate(0 0.01)"/>
    </g>
    <g id="L1-0603">
      <path id="path6859-4-3-0-1-9-0-7-4" class="cls-31" d="M13.59,53.85v-2.7h6.49v2.7H13.59" transform="translate(0 0.01)"/>
      <path id="path6871-9-6-0-4-5-4-2-1" class="cls-32" d="M14.08,51.37a.22.22,0,0,1,.21-.21h5.1a.21.21,0,0,1,.21.21v2.22a.21.21,0,0,1-.21.21H14.3a.22.22,0,0,1-.2-.21Z" transform="translate(0 0.01)"/>
      <path id="path6873-8-4-1-5-5-5-7-8" class="cls-33" d="M15.08,53.84H18.6V51.16H15.08Z" transform="translate(0 0.01)"/>
      <path id="path6877-7-1-7-5-9-6-3-9" class="cls-33" d="M18.54,51.19H15.08v2.63h3.46Zm.06,0v2.65H15.08V51.16H18.6" transform="translate(0 0.01)"/>
      <path id="path6879-87-7-8-1-1-8-9-2" class="cls-34" d="M18.46,51.25h-3.3v2.49h3.3Zm.21-.11v2.7a.09.09,0,0,1-.07.1H15.08a.12.12,0,0,1-.1-.11V51.16a.12.12,0,0,1,.1-.1H18.6a.08.08,0,0,1,.1.07h0" transform="translate(0 0.01)"/>
      <path id="path6881-0-8-1-8-3-8-3-7" class="cls-35" d="M15.08,53.84h-.57V51.13h.57Z" transform="translate(0 0.01)"/>
      <path id="path6875-42-1-4-9-5-0-2-6" class="cls-34" d="M18.49,51.25H15.08v2.5h3.36Zm.16,0v2.59s0,.07-.08.08H15.08a.08.08,0,0,1,0-.07h0V51.17s0-.07.06-.08h3.53a.08.08,0,0,1,.08.08h0" transform="translate(0 0.01)"/>
      <path id="path6883-46-4-9-5-9-8-4-5" class="cls-35" d="M19.19,53.84h-.56V51.13h.56Z" transform="translate(0 0.01)"/>
      <path id="path6897-5-1-0-5-0-7-8-1" class="cls-36" d="M15.08,51.25h3.49v2.57H15.08Z" transform="translate(0 0.01)"/>
      <path id="path6963-86-8-2-6-0-1-7-9" class="cls-37" d="M18.08,52.73h-.4v-.4h.4Z" transform="translate(0 0.01)"/>
    </g>
  </g>
</svg>
