<svg id="troyka-5mm-led-module-red" xmlns="http://www.w3.org/2000/svg" xmlns:xlink="http://www.w3.org/1999/xlink" width="72" height="72" viewBox="0 0 72 72">
  <defs>
    <style>
      .cls-1 {
        fill: #f2f2f2;
        stroke-miterlimit: 1;
        stroke-width: 0.43px;
      }

      .cls-1, .cls-2 {
        stroke: #000;
      }

      .cls-19, .cls-2 {
        fill: none;
      }

      .cls-2 {
        stroke-width: 0.28px;
      }

      .cls-3 {
        fill: #666;
      }

      .cls-4 {
        fill: #8d8c8c;
      }

      .cls-5 {
        fill: #8c8663;
      }

      .cls-6 {
        fill: #b8af82;
      }

      .cls-7 {
        fill: #80795b;
      }

      .cls-8 {
        fill: #5e5b43;
      }

      .cls-9 {
        fill: #9a916c;
      }

      .cls-10, .cls-17, .cls-18, .cls-20, .cls-21, .cls-22, .cls-23 {
        isolation: isolate;
      }

      .cls-10 {
        font-size: 5.41px;
        font-family: TrebuchetMS, Trebuchet MS;
      }

      .cls-11 {
        fill: #404040;
      }

      .cls-12 {
        fill: #b3b3b3;
      }

      .cls-13 {
        fill: gray;
      }

      .cls-14 {
        fill: #1a1a1a;
      }

      .cls-15 {
        fill: #8c8c8c;
      }

      .cls-16, .cls-17 {
        fill: red;
      }

      .cls-17 {
        opacity: 0.53;
      }

      .cls-18 {
        fill: #fff;
        opacity: 0.6;
      }

      .cls-19 {
        stroke: red;
        stroke-width: 0.2px;
      }

      .cls-19, .cls-20, .cls-22, .cls-23 {
        stroke-linecap: round;
      }

      .cls-20 {
        stroke-width: 0.12px;
        fill: url(#Безымянный_градиент);
        stroke: url(#Безымянный_градиент_2);
      }

      .cls-20, .cls-21, .cls-22 {
        opacity: 0.46;
      }

      .cls-21 {
        fill: url(#Безымянный_градиент_3);
      }

      .cls-22 {
        stroke-width: 0.27px;
        fill: url(#Безымянный_градиент_5);
        stroke: url(#Безымянный_градиент_6);
      }

      .cls-23 {
        stroke-width: 0.07px;
        opacity: 0.38;
        fill: url(#Безымянный_градиент_7);
        stroke: url(#Безымянный_градиент_8);
      }
    </style>
    <radialGradient id="Безымянный_градиент" data-name="Безымянный градиент" cx="-70.51" cy="182.69" r="6.18" gradientTransform="matrix(2.83, 0, 0, -2.89, 234.26, 563.51)" gradientUnits="userSpaceOnUse">
      <stop offset="0" stop-color="red"/>
      <stop offset="1" stop-color="red" stop-opacity="0"/>
    </radialGradient>
    <radialGradient id="Безымянный_градиент_2" data-name="Безымянный градиент 2" cx="45.93" cy="-296.91" r="41.35" gradientTransform="matrix(0.42, 0, 0, -0.43, 15.13, -91.51)" gradientUnits="userSpaceOnUse">
      <stop offset="0"/>
      <stop offset="1" stop-opacity="0"/>
    </radialGradient>
    <radialGradient id="Безымянный_градиент_3" data-name="Безымянный градиент 3" cx="-553.01" cy="623.69" r="10.07" gradientTransform="matrix(-2.48, -0.05, -0.04, 1.89, -1309.05, -1169.38)" xlink:href="#Безымянный_градиент"/>
    <radialGradient id="Безымянный_градиент_5" data-name="Безымянный градиент 5" cx="-547" cy="618.15" r="5.51" gradientTransform="matrix(-2.58, 0, 0, 2.77, -1377.84, -1677.02)" xlink:href="#Безымянный_градиент"/>
    <radialGradient id="Безымянный_градиент_6" data-name="Безымянный градиент 6" cx="-305.55" cy="263.38" r="1.8" gradientTransform="matrix(-16.52, 0, 0, 3.84, -2096.2, -2698.7)" gradientUnits="userSpaceOnUse">
      <stop offset="0"/>
      <stop offset="0.56" stop-color="#02dd55"/>
      <stop offset="1" stop-color="#0d5" stop-opacity="0"/>
    </radialGradient>
    <radialGradient id="Безымянный_градиент_7" data-name="Безымянный градиент 7" cx="-132.21" cy="427.06" r="0.98" gradientTransform="matrix(-11.95, 0, 0, 9.12, -1545.55, -3857.2)" gradientUnits="userSpaceOnUse">
      <stop offset="0" stop-color="#fff"/>
      <stop offset="1" stop-color="#fff" stop-opacity="0"/>
    </radialGradient>
    <radialGradient id="Безымянный_градиент_8" data-name="Безымянный градиент 8" cx="-2155.02" cy="2562.09" r="41.35" gradientTransform="matrix(-0.19, 0, 0.01, 0.14, -402.49, -324.38)" xlink:href="#Безымянный_градиент_2"/>
  </defs>
  <title>troyka-5mm-led-module_red</title>
  <g id="all">
    <path id="triyka-oneunit" class="cls-1" d="M4.72.23A4.48,4.48,0,0,1,.23,4.72V67.3a4.49,4.49,0,0,1,4.49,4.5H67.3a4.49,4.49,0,0,1,4.5-4.5V4.72A4.49,4.49,0,0,1,67.3.23Z" transform="translate(-0.01 -0.01)"/>
    <g id="troyka-pins2">
      <rect id="rect17620" class="cls-2" x="39.49" y="0.3" width="7.13" height="13.81" rx="0.14" ry="0.14"/>
      <rect id="rect17622" class="cls-2" x="32.39" y="0.3" width="7.13" height="13.81" rx="0.14" ry="0.14"/>
      <rect id="rect17624" class="cls-2" x="25.29" y="0.3" width="7.13" height="13.81" rx="0.14" ry="0.14"/>
      <circle id="circle17626" class="cls-3" cx="43.06" cy="10.43" r="2.62"/>
      <circle id="circle17628" class="cls-3" cx="35.95" cy="10.43" r="2.62"/>
      <rect id="rect17630" class="cls-3" x="26.23" y="7.81" width="5.23" height="5.23" rx="0.48" ry="0.48"/>
      <rect id="rect17632" class="cls-4" x="27.72" y="9.24" width="2.27" height="2.39"/>
      <rect id="rect17634" class="cls-5" x="28.27" y="9.82" width="1.17" height="1.23"/>
      <polygon id="polygon17636" class="cls-6" points="27.72 9.24 28.27 9.82 29.43 9.82 29.98 9.24 27.72 9.24"/>
      <polygon id="polygon17638" class="cls-7" points="29.43 11.05 29.43 9.82 29.98 9.24 29.98 11.62 29.43 11.05"/>
      <polygon id="polygon17640" class="cls-8" points="28.27 11.05 29.43 11.05 29.98 11.62 27.72 11.62 28.27 11.05"/>
      <polygon id="polygon17642" class="cls-9" points="27.72 9.24 28.27 9.82 28.27 11.05 27.72 11.62 27.72 9.24"/>
      <rect id="rect17646" class="cls-4" x="41.92" y="9.24" width="2.27" height="2.39"/>
      <rect id="rect17648" class="cls-5" x="42.47" y="9.82" width="1.17" height="1.23"/>
      <polygon id="polygon17650" class="cls-6" points="44.18 9.24 41.92 9.24 42.47 9.82 43.63 9.82 44.18 9.24"/>
      <polygon id="polygon17652" class="cls-7" points="44.18 11.62 43.63 11.05 43.63 9.82 44.18 9.24 44.18 11.62"/>
      <polygon id="polygon17654" class="cls-8" points="41.92 11.62 42.47 11.05 43.63 11.05 44.18 11.62 41.92 11.62"/>
      <polygon id="polygon17656" class="cls-9" points="41.92 11.62 41.92 9.24 42.47 9.82 42.47 11.05 41.92 11.62"/>
      <rect id="rect17660" class="cls-4" x="34.82" y="9.24" width="2.27" height="2.39"/>
      <rect id="rect17662" class="cls-5" x="35.37" y="9.82" width="1.17" height="1.23"/>
      <polygon id="polygon17664" class="cls-6" points="34.82 9.24 35.37 9.82 36.53 9.82 37.08 9.24 34.82 9.24"/>
      <polygon id="polygon17666" class="cls-7" points="36.53 11.05 36.53 9.82 37.08 9.24 37.08 11.62 36.53 11.05"/>
      <polygon id="polygon17668" class="cls-8" points="35.37 11.05 36.53 11.05 37.08 11.62 34.82 11.62 35.37 11.05"/>
      <polygon id="polygon17670" class="cls-9" points="34.82 9.24 35.37 9.82 35.37 11.05 34.82 11.62 34.82 9.24"/>
      <rect id="rect17672" class="cls-4" x="34.82" y="9.24" width="2.27" height="2.39"/>
      <rect id="rect17674" class="cls-5" x="35.37" y="9.82" width="1.17" height="1.23"/>
      <polygon id="polygon17676" class="cls-6" points="37.08 9.24 34.82 9.24 35.37 9.82 36.53 9.82 37.08 9.24"/>
      <polygon id="polygon17678" class="cls-7" points="37.08 11.62 36.53 11.05 36.53 9.82 37.08 9.24 37.08 11.62"/>
      <polygon id="polygon17680" class="cls-8" points="34.82 11.62 35.37 11.05 36.53 11.05 37.08 11.62 34.82 11.62"/>
      <polygon id="polygon17682" class="cls-9" points="34.82 11.62 34.82 9.24 35.37 9.82 35.37 11.05 34.82 11.62"/>
    </g>
    <g id="troyka-pins1">
      <rect id="rect17552" class="cls-2" x="25.19" y="57.78" width="7.13" height="13.81" rx="0.14" ry="0.14"/>
      <rect id="rect17554" class="cls-2" x="32.29" y="57.78" width="7.13" height="13.81" rx="0.14" ry="0.14"/>
      <rect id="rect17556" class="cls-2" x="39.39" y="57.78" width="7.13" height="13.81" rx="0.14" ry="0.14"/>
      <circle id="circle17558" class="cls-3" cx="28.74" cy="61.47" r="2.62"/>
      <circle id="circle17560" class="cls-3" cx="35.85" cy="61.47" r="2.62"/>
      <rect id="rect17562" class="cls-3" x="40.34" y="58.85" width="5.23" height="5.23" rx="0.48" ry="0.48"/>
      <rect id="rect17564" class="cls-4" x="41.82" y="60.27" width="2.27" height="2.39"/>
      <rect id="rect17566" class="cls-5" x="42.37" y="60.85" width="1.17" height="1.23"/>
      <polygon id="polygon17568" class="cls-6" points="41.82 62.66 44.08 62.66 43.53 62.08 42.37 62.08 41.82 62.66"/>
      <polygon id="polygon17570" class="cls-7" points="41.82 60.27 42.37 60.85 42.37 62.08 41.82 62.66 41.82 60.27"/>
      <polygon id="polygon17572" class="cls-8" points="44.08 60.27 43.53 60.85 42.37 60.85 41.82 60.27 44.08 60.27"/>
      <polygon id="polygon17574" class="cls-9" points="44.08 60.27 44.08 62.66 43.53 62.08 43.53 60.85 44.08 60.27"/>
      <rect id="rect17578" class="cls-4" x="27.62" y="60.27" width="2.27" height="2.39"/>
      <rect id="rect17580" class="cls-5" x="28.17" y="60.85" width="1.17" height="1.23"/>
      <polygon id="polygon17582" class="cls-6" points="28.17 62.08 27.62 62.66 29.89 62.66 29.33 62.08 28.17 62.08"/>
      <polygon id="polygon17584" class="cls-7" points="27.62 62.66 27.62 60.27 28.17 60.85 28.17 62.08 27.62 62.66"/>
      <polygon id="polygon17586" class="cls-8" points="27.62 60.27 29.89 60.27 29.33 60.85 28.17 60.85 27.62 60.27"/>
      <polygon id="polygon17588" class="cls-9" points="29.33 60.85 29.89 60.27 29.89 62.66 29.33 62.08 29.33 60.85"/>
      <rect id="rect17592" class="cls-4" x="34.72" y="60.27" width="2.27" height="2.39"/>
      <rect id="rect17594" class="cls-5" x="35.27" y="60.85" width="1.17" height="1.23"/>
      <polygon id="polygon17596" class="cls-6" points="34.72 62.66 36.98 62.66 36.43 62.08 35.27 62.08 34.72 62.66"/>
      <polygon id="polygon17598" class="cls-7" points="34.72 60.27 35.27 60.85 35.27 62.08 34.72 62.66 34.72 60.27"/>
      <polygon id="polygon17600" class="cls-8" points="36.98 60.27 36.43 60.85 35.27 60.85 34.72 60.27 36.98 60.27"/>
      <polygon id="polygon17602" class="cls-9" points="36.98 60.27 36.98 62.66 36.43 62.08 36.43 60.85 36.98 60.27"/>
      <rect id="rect17604" class="cls-4" x="34.72" y="60.27" width="2.27" height="2.39"/>
      <rect id="rect17606" class="cls-5" x="35.27" y="60.85" width="1.17" height="1.23"/>
      <polygon id="polygon17608" class="cls-6" points="35.27 62.08 34.72 62.66 36.98 62.66 36.43 62.08 35.27 62.08"/>
      <polygon id="polygon17610" class="cls-7" points="34.72 62.66 34.72 60.27 35.27 60.85 35.27 62.08 34.72 62.66"/>
      <polygon id="polygon17612" class="cls-8" points="34.72 60.27 36.98 60.27 36.43 60.85 35.27 60.85 34.72 60.27"/>
      <polygon id="polygon17614" class="cls-9" points="36.43 60.85 36.98 60.27 36.98 62.66 36.43 62.08 36.43 60.85"/>
      <text class="cls-10" transform="translate(41.38 69.39)">G</text>
      <text class="cls-10" transform="translate(34.43 69.36)">V</text>
      <text class="cls-10" transform="translate(27.61 69.39)">S</text>
    </g>
    <g id="T1-SOP23">
      <path id="path17816" class="cls-11" d="M17.25,59.46H10.14V56.52h7.11Z" transform="translate(-0.01 -0.01)"/>
      <path id="path17818" class="cls-12" d="M16.7,61.62H15.34V59.45H16.7Z" transform="translate(-0.01 -0.01)"/>
      <path id="path17820" class="cls-13" d="M16.7,60.38H15.34v-.69H16.7Z" transform="translate(-0.01 -0.01)"/>
      <path id="path17822" class="cls-12" d="M12.05,61.62H10.69V59.45h1.36Z" transform="translate(-0.01 -0.01)"/>
      <path id="path17824" class="cls-13" d="M12.05,60.38H10.69v-.69h1.36Z" transform="translate(-0.01 -0.01)"/>
      <path id="path17826" class="cls-12" d="M14.38,54.37H13v2.16h1.37Z" transform="translate(-0.01 -0.01)"/>
      <path id="path17828" class="cls-13" d="M14.38,55.61H13v.69h1.37Z" transform="translate(-0.01 -0.01)"/>
    </g>
    <g id="R2-0603">
      <path id="path17832" class="cls-14" d="M52.6,61.29h-3V55.85h3Z" transform="translate(-0.01 -0.01)"/>
      <path id="path17834" class="cls-12" d="M52.62,56.16h-3v-.95h3Z" transform="translate(-0.01 -0.01)"/>
      <path id="path17836" class="cls-12" d="M52.62,61.83h-3v-1h3Z" transform="translate(-0.01 -0.01)"/>
    </g>
    <g id="R3-0603">
      <path id="path17838" class="cls-14" d="M22.73,60.54H19.78V55.21h2.95Z" transform="translate(-0.01 -0.01)"/>
      <path id="path17840" class="cls-12" d="M22.74,55.74h-3v-1h3Z" transform="translate(-0.01 -0.01)"/>
      <path id="path17842" class="cls-12" d="M22.74,61.4h-3v-1h3Z" transform="translate(-0.01 -0.01)"/>
    </g>
    <g id="R1-0603">
      <path id="path17846" class="cls-14" d="M60.41,61.18H57.46V55.74h2.95Z" transform="translate(-0.01 -0.01)"/>
      <path id="path17848" class="cls-12" d="M60.44,56.05h-3v-1h3Z" transform="translate(-0.01 -0.01)"/>
      <path id="path17850" class="cls-12" d="M60.44,61.72h-3v-1h3Z" transform="translate(-0.01 -0.01)"/>
    </g>
    <g id="L1-5mm">
      <circle id="circle17852" class="cls-15" cx="35.65" cy="35.34" r="3.7"/>
      <circle id="circle17854" class="cls-16" cx="35.49" cy="35.37" r="1.4"/>
      <circle id="circle17856" class="cls-17" cx="35.54" cy="35.1" r="7.35"/>
      <path id="path17858" class="cls-18" d="M34.85,31.27a4.18,4.18,0,0,1,1.07-.13,4.63,4.63,0,0,1,.92.09l.38-1.83a6.16,6.16,0,0,0-1.3-.13,10,10,0,0,0-1.65.18ZM33,30a6.44,6.44,0,0,0-3.38,7l1.82-.41a4.61,4.61,0,0,1-.07-.84,4.55,4.55,0,0,1,2.34-4Z" transform="translate(-0.01 -0.01)"/>
      <circle id="circle17860" class="cls-19" cx="35.6" cy="35.27" r="7.47"/>
      <ellipse id="ellipse60942-58-7-1" class="cls-20" cx="34.4" cy="35.55" rx="17.35" ry="17.69"/>
      <ellipse id="ellipse60944-02-5-2" class="cls-21" cx="35.06" cy="35.53" rx="28.32" ry="20.63"/>
      <ellipse id="ellipse60946-76-0-6" class="cls-22" cx="33.66" cy="34.66" rx="13.83" ry="14.87"/>
      <ellipse id="ellipse60944-02-5-2-5" class="cls-23" cx="35.06" cy="35.6" rx="11.53" ry="8.83"/>
    </g>
    <g id="amperka-logo">
      <path id="path532-5-4-9-8-5-6-8-0" d="M13.12,10.77a2,2,0,1,1-2,2,2,2,0,0,1,2-2m0,5.32a3.28,3.28,0,1,0-3.28-3.28h0a3.28,3.28,0,0,0,3.28,3.28" transform="translate(-0.01 -0.01)"/>
      <path id="path536-1-4-0-5-1-3-3-2" d="M13.12,4.39a2.27,2.27,0,1,1-2.31,2.28,2.26,2.26,0,0,1,2.31-2.28h0m0,1.24a1,1,0,1,0,1,1,1,1,0,0,0-1-1" transform="translate(-0.01 -0.01)"/>
      <path id="path540-3-7-2-9-1-0-6-4" d="M13.46,18.25a5.48,5.48,0,0,0,5.07-5.09,5.36,5.36,0,0,0-1.18-3.77l.4-.4a.62.62,0,0,0,.06-.85A.61.61,0,0,0,17,8.09l-.05.05L16,9a.54.54,0,0,0,0,.76,4.32,4.32,0,0,1,1.28,2.78,4.22,4.22,0,1,1-7.17-2.75V9.76a.54.54,0,0,0,0-.76l-.87-.87a.6.6,0,1,0-.89.81L8.4,9l.42.42a5.42,5.42,0,0,0-1.2,3.39,5.47,5.47,0,0,0,5.48,5.46h.36" transform="translate(-0.01 -0.01)"/>
    </g>
  </g>
</svg>
