<svg id="troyka-midi-out" xmlns="http://www.w3.org/2000/svg" xmlns:xlink="http://www.w3.org/1999/xlink" viewBox="0 0 171.844 71.99"><defs><style>.cls-1{fill:#f2f2f2;stroke-miterlimit:1;stroke-width:0.43px;}.cls-1,.cls-2,.cls-23,.cls-3{stroke:#000;}.cls-2,.cls-23,.cls-3,.cls-30{fill:none;}.cls-2,.cls-3{stroke-width:0.28px;}.cls-23,.cls-3,.cls-30{stroke-miterlimit:10;}.cls-4{fill:#b7b8b9;}.cls-5{fill:#d7d3d5;}.cls-6{fill:#ddd;}.cls-7{fill:#404040;}.cls-8{fill:#8d8c8c;}.cls-9{fill:#8c8663;}.cls-10{fill:#b8af82;}.cls-11{fill:#80795b;}.cls-12{fill:#5e5b43;}.cls-13{fill:#9a916c;}.cls-14{fill:#b3b3b3;}.cls-15{fill:gray;}.cls-16{fill:#242424;}.cls-17{fill:#d2d1d3;}.cls-18{fill:#966432;}.cls-19{fill:#bbffd0;}.cls-20{opacity:0.96;fill:url(#Безымянный_градиент_19);}.cls-21{fill:#545152;}.cls-22{fill:#d1d3d4;}.cls-23{stroke-width:0.25px;}.cls-24{fill:#b4b4b4;}.cls-25{fill:#f6f6f6;opacity:0.45;}.cls-26{fill:#8c8c8c;}.cls-27{fill:#e6e6e6;}.cls-28{fill:#999;opacity:0.5;}.cls-28,.cls-29,.cls-32{isolation:isolate;}.cls-29{fill:#fff;opacity:0.6;}.cls-30{stroke:#e7e3dd;stroke-linecap:round;stroke-width:0.567px;}.cls-31{fill:#a0a0a0;}.cls-32{font-size:5px;font-family:TrebuchetMS, Trebuchet MS;}.cls-33{fill:#24252c;}.cls-34{fill:#040408;}.cls-35{fill:#686867;}.cls-36{fill:#1b1a22;}.cls-37{opacity:0.42;fill:url(#Безымянный_градиент_8);}.cls-38{fill:#101118;}.cls-39{fill:#3a3940;}.cls-40{fill:#0b080d;}</style><radialGradient id="Безымянный_градиент_19" cx="155.832" cy="9.084" r="3.275" gradientTransform="translate(271.848 72.003) rotate(180)" gradientUnits="userSpaceOnUse"><stop offset="0" stop-color="#f3f6f7"/><stop offset="0.371" stop-color="#f7f9f9"/><stop offset="0.62" stop-color="#fefffc"/><stop offset="0.63" stop-color="#fdfefb"/><stop offset="0.849" stop-color="#e3e4e3"/><stop offset="0.98" stop-color="#dadada"/></radialGradient><linearGradient id="Безымянный_градиент_8" x1="32.4" y1="34.763" x2="65.589" y2="34.763" gradientTransform="translate(-26.149 2.479)" gradientUnits="userSpaceOnUse"><stop offset="0" stop-color="#fff" stop-opacity="0.3"/><stop offset="1" stop-opacity="0"/></linearGradient></defs><g id="bottom"><path class="cls-1" d="M104.6,71.735l62.56.04a4.522,4.522,0,0,1,4.47-4.51V4.685a4.492,4.492,0,0,1-4.49-4.47h-62.55a4.428,4.428,0,0,1-4.37,4.5v62.54A4.5,4.5,0,0,1,104.6,71.735Zm49.32-65.07a3.353,3.353,0,0,1,2.4-1,3.4,3.4,0,0,1,3.4,3.4,3.4,3.4,0,1,1-5.8-2.4Zm-40,54a3.353,3.353,0,0,1,2.4-1,3.4,3.4,0,0,1,3.4,3.4,3.4,3.4,0,1,1-5.8-2.4Zm-6.6-42.29a2.835,2.835,0,1,1-2.83,2.84A2.83,2.83,0,0,1,107.319,18.375Zm0,29a2.835,2.835,0,1,1-2.83,2.84A2.83,2.83,0,0,1,107.319,47.375Z"/><path id="rect6749-2" class="cls-2" d="M146.429,20.244h-6.8c-.077,0-.139-.09-.139-.2h0V.447c0-.112.063-.2.14-.2h6.8c.076,0,.138.091.139.2h0v19.6C146.569,20.153,146.506,20.244,146.429,20.244Z"/><path id="rect6749-9-2" class="cls-2" d="M139.34,20.244h-6.933c-.078,0-.141-.091-.141-.2h0V.448c0-.11.06-.2.136-.2h6.932c.078,0,.141.091.142.2h0V20.041C139.476,20.151,139.416,20.241,139.34,20.244Z"/><path id="rect6749-9-3-2-2" class="cls-3" d="M132.12,20.244h-6.761c-.076,0-.138-.089-.138-.2h0V.448c0-.112.063-.2.14-.2h6.761c.076,0,.138.089.138.2h0v19.6c0,.111-.06.2-.136.2h0Z"/><path id="rect6749-8-2" class="cls-2" d="M132.13,71.788h-6.771c-.076,0-.138-.089-.138-.2h0v-19.6c0-.11.06-.2.136-.2h6.774c.076,0,.138.088.139.2h0v19.6c0,.112-.063.2-.14.2Z"/><path id="rect6749-9-8-2" class="cls-2" d="M139.34,71.788H132.4c-.078,0-.142-.092-.142-.2V51.991c0-.111.061-.2.138-.2h6.94c.078,0,.141.093.142.206V71.585C139.479,71.7,139.417,71.787,139.34,71.788Z"/><path id="rect6749-9-3-2-3" class="cls-2" d="M146.429,71.788h-6.81c-.077,0-.139-.09-.139-.2h0v-19.6c0-.111.061-.2.138-.2h6.812c.077,0,.139.09.139.2h0v19.6C146.569,71.7,146.506,71.788,146.429,71.788Z"/><path class="cls-4" d="M134.648,18.114V14.257a.267.267,0,0,1,.227-.3h.015a.366.366,0,0,1,.081,0h1.83a.332.332,0,0,1,.323.3v3.852a.267.267,0,0,1-.227.3h-.015a.275.275,0,0,1-.081,0h-1.83a.282.282,0,0,1-.323-.222h0A.224.224,0,0,1,134.648,18.114Z"/><g id="path26345-3-6-9-3-6-4-2-5-6-8-7-9-0-90-3-1-3-9-2-2-8-5-0-2-3-5-16-5-2-2-2"><rect class="cls-5" x="134.89" y="13.964" width="1.984" height="4.204"/></g><path class="cls-6" d="M135.3,17.223V14.2c-.01-.113.041-.217.116-.233h0a.081.081,0,0,1,.038,0h.871c.083.007.149.107.154.233v3.022c.011.112-.041.216-.115.232h0a.086.086,0,0,1-.039,0h-.871c-.074.016-.143-.062-.154-.174h0A.281.281,0,0,1,135.3,17.223Z"/><path class="cls-4" d="M127.648,3.188h0a.282.282,0,0,1,.323-.222h1.83a.275.275,0,0,1,.081,0h0a.269.269,0,0,1,.243.288h0v3.86a.331.331,0,0,1-.323.3h-1.83a.366.366,0,0,1-.081,0h0a.266.266,0,0,1-.243-.287h0V3.266A.255.255,0,0,1,127.648,3.188Z"/><g id="path26345-3-6-9-3-6-4-2-5-6-8-7-9-0-90-3-1-3-9-2-2-8-5-0-2-3-5-16-5-3"><rect class="cls-5" x="127.89" y="3.21" width="1.984" height="4.204"/></g><path class="cls-6" d="M128.3,4.1h0c.011-.113.08-.19.154-.175h.871a.086.086,0,0,1,.039,0h0c.074.016.126.12.115.233V7.176c0,.125-.071.225-.154.232h-.871a.081.081,0,0,1-.038,0h0c-.075-.016-.126-.12-.116-.232V4.157A.311.311,0,0,1,128.3,4.1Z"/><path class="cls-4" d="M142.119,3.188h0a.282.282,0,0,1,.323-.222h1.833a.268.268,0,0,1,.08,0h0a.266.266,0,0,1,.243.286h0v3.86a.331.331,0,0,1-.323.3h-1.83a.275.275,0,0,1-.081,0h0a.265.265,0,0,1-.243-.285v0h0V3.265A.221.221,0,0,1,142.119,3.188Z"/><g id="path26345-3-6-9-3-6-4-2-5-6-8-7-9-0-90-3-1-3-9-2-2-8-5-0-2-3-5-16-5-4"><rect class="cls-5" x="142.36" y="3.21" width="1.984" height="4.204"/></g><path class="cls-6" d="M142.767,4.1h0c.011-.113.08-.19.154-.175h.871a.086.086,0,0,1,.039,0h0c.074.016.126.12.115.233V7.176c0,.125-.071.225-.154.232h-.871a.086.086,0,0,1-.039,0h0c-.074-.016-.126-.12-.115-.232V4.157A.311.311,0,0,1,142.767,4.1Z"/><path id="path106654-2-2" class="cls-7" d="M141.287,14.017h3.838l1.476-1.553V8.484l-1.476-1.553h-4.134l-1.477,1.553v3.98l1.477,1.553Z"/><rect id="rect106656-2-2" class="cls-8" x="141.867" y="9.339" width="2.264" height="2.233"/><rect id="rect106658-2-2" class="cls-9" x="142.448" y="9.922" width="1.092" height="1.165"/><polygon id="polygon106660-2-2" class="cls-10" points="142.448 11.077 141.848 11.562 144.112 11.562 143.521 11.077 142.448 11.077"/><polygon id="polygon106662-2-2" class="cls-11" points="141.848 11.562 141.848 9.33 142.448 9.922 142.448 11.077 141.848 11.562"/><polygon id="polygon106664-2-2" class="cls-12" points="141.848 9.33 144.112 9.33 143.521 9.922 142.448 9.922 141.848 9.33"/><polygon id="polygon106666-2-2" class="cls-13" points="143.521 9.922 144.112 9.33 144.112 11.562 143.521 11.077 143.521 9.922"/><path id="path106672-2-2" class="cls-7" d="M134.191,14.017h3.833l1.474-1.553V8.484l-1.474-1.553h-4.143l-1.474,1.553v3.98l1.474,1.553Z"/><rect id="rect106674-2-2" class="cls-8" x="134.751" y="9.339" width="2.26" height="2.233"/><rect id="rect106676-2-2" class="cls-9" x="135.38" y="9.922" width="1.09" height="1.165"/><polygon id="polygon106678-2-2" class="cls-10" points="135.38 11.077 134.742 11.562 137.032 11.562 136.452 11.077 135.38 11.077"/><polygon id="polygon106680-2-2" class="cls-11" points="134.742 11.562 134.742 9.33 135.38 9.922 135.38 11.077 134.742 11.562"/><polygon id="polygon106682-2-2" class="cls-12" points="134.742 9.33 137.032 9.33 136.452 9.922 135.38 9.922 134.742 9.33"/><polygon id="polygon106684-2-2" class="cls-13" points="136.452 9.922 137.032 9.33 137.032 11.562 136.452 11.077 136.452 9.922"/><path id="path106726-2-2" class="cls-7" d="M127.181,14.017h3.74l1.477-1.553V8.484l-1.477-1.553h-4.14l-1.476,1.553v3.98l1.476,1.553Z"/><rect id="rect106728-2-2" class="cls-8" x="127.749" y="9.339" width="2.264" height="2.233"/><rect id="rect106730-2-2" class="cls-9" x="128.323" y="9.922" width="1.099" height="1.165"/><polygon id="polygon106732-2-2" class="cls-10" points="127.749 11.572 130.052 11.572 129.403 11.077 128.34 11.077 127.749 11.572"/><polygon id="polygon106734-2-2" class="cls-11" points="127.749 9.33 128.34 9.922 128.34 11.077 127.749 11.572 127.749 9.33"/><polygon id="polygon106736-2-2" class="cls-12" points="130.052 9.33 129.403 9.922 128.34 9.922 127.749 9.33 130.052 9.33"/><polygon id="polygon106738-2-2" class="cls-13" points="130.052 9.33 130.052 11.572 129.403 11.077 129.403 9.922 130.052 9.33"/><path class="cls-4" d="M127.614,70v-3.85a.265.265,0,0,1,.227-.3h.015a.366.366,0,0,1,.081,0h1.83a.332.332,0,0,1,.323.3V70a.266.266,0,0,1-.227.3h-.015a.275.275,0,0,1-.081,0h-1.83a.282.282,0,0,1-.323-.222h0A.2.2,0,0,1,127.614,70Z"/><g id="path26345-3-6-9-3-6-4-2-5-6-8-7-9-0-90-3-1-3-9-2-2-8-5-0-2-3-5-16-5-5"><rect class="cls-5" x="127.855" y="65.853" width="1.984" height="4.204"/></g><path class="cls-6" d="M128.262,69.113V66.091c-.01-.113.041-.217.116-.233h0a.081.081,0,0,1,.038,0h.871c.083.007.149.107.154.233v3.022c.01.112-.041.216-.116.232h0a.081.081,0,0,1-.038,0h-.871c-.075.016-.144-.062-.154-.174h0A.281.281,0,0,1,128.262,69.113Z"/><path class="cls-4" d="M142.085,70v-3.85a.265.265,0,0,1,.227-.3h.015a.357.357,0,0,1,.08,0h1.83a.332.332,0,0,1,.323.3V70a.266.266,0,0,1-.227.3h-.016a.268.268,0,0,1-.08,0h-1.83a.282.282,0,0,1-.323-.222h0A.2.2,0,0,1,142.085,70Z"/><g id="path26345-3-6-9-3-6-4-2-5-6-8-7-9-0-90-3-1-3-9-2-2-8-5-0-2-3-5-16-5-6"><rect class="cls-5" x="142.326" y="65.853" width="1.984" height="4.204"/></g><path class="cls-6" d="M142.733,69.113V66.091c-.011-.113.041-.217.115-.233h0a.086.086,0,0,1,.039,0h.871c.083.007.149.107.154.233v3.022c.01.112-.041.216-.116.232h0a.081.081,0,0,1-.038,0h-.871c-.075.016-.144-.062-.154-.174h0A.561.561,0,0,1,142.733,69.113Z"/><path class="cls-4" d="M134.614,55.078h0a.282.282,0,0,1,.323-.222h1.83a.268.268,0,0,1,.08,0h0a.266.266,0,0,1,.243.285h0V59a.331.331,0,0,1-.323.3h-1.83a.366.366,0,0,1-.081,0h0a.267.267,0,0,1-.243-.288h0V55.157A.21.21,0,0,1,134.614,55.078Z"/><g id="path26345-3-6-9-3-6-4-2-5-6-8-7-9-0-90-3-1-3-9-2-2-8-5-0-2-3-5-16-5-7"><rect class="cls-5" x="134.855" y="55.099" width="1.984" height="4.204"/></g><path class="cls-6" d="M135.262,55.986h0c.011-.113.08-.19.154-.175h.871a.081.081,0,0,1,.038,0h0c.075.016.126.12.116.233v3.022c0,.125-.071.225-.154.232h-.871a.086.086,0,0,1-.039,0h0c-.074-.016-.126-.12-.115-.232V56.044A.281.281,0,0,1,135.262,55.986Z"/><path id="path106654-2-3" class="cls-7" d="M141.307,66.011h3.838l1.477-1.553v-3.98l-1.477-1.553h-4.138l-1.477,1.553v3.979l1.477,1.553Z"/><rect id="rect106656-2-3" class="cls-8" x="141.885" y="61.332" width="2.264" height="2.233"/><rect id="rect106658-2-3" class="cls-9" x="142.378" y="61.915" width="1.181" height="1.165"/><polygon id="polygon106660-2-3" class="cls-10" points="142.467 63.07 141.866 63.556 144.13 63.556 143.539 63.07 142.467 63.07"/><polygon id="polygon106662-2-3" class="cls-11" points="141.866 63.556 141.866 61.323 142.467 61.915 142.467 63.07 141.866 63.556"/><polygon id="polygon106664-2-3" class="cls-12" points="141.866 61.323 144.13 61.323 143.539 61.915 142.467 61.915 141.866 61.323"/><polygon id="polygon106666-2-3" class="cls-13" points="143.539 61.915 144.13 61.323 144.13 63.556 143.539 63.07 143.539 61.915"/><path id="path106672-2-3" class="cls-7" d="M134.187,66.011h3.834l1.474-1.553v-3.98l-1.474-1.553h-4.138l-1.475,1.553v3.979l1.475,1.553Z"/><rect id="rect106674-2-3" class="cls-8" x="134.748" y="61.332" width="2.26" height="2.233"/><rect id="rect106676-2-3" class="cls-9" x="135.239" y="61.915" width="1.179" height="1.165"/><polygon id="polygon106678-2-3" class="cls-10" points="135.377 63.07 134.738 63.556 137.029 63.556 136.449 63.07 135.377 63.07"/><polygon id="polygon106680-2-3" class="cls-11" points="134.738 63.556 134.738 61.323 135.377 61.915 135.377 63.07 134.738 63.556"/><polygon id="polygon106682-2-3" class="cls-12" points="134.738 61.323 137.029 61.323 136.449 61.915 135.377 61.915 134.738 61.323"/><polygon id="polygon106684-2-3" class="cls-13" points="136.449 61.915 137.029 61.323 137.029 63.556 136.449 63.07 136.449 61.915"/><path id="path106726-2-3" class="cls-7" d="M127.154,66.011h3.74l1.476-1.553v-3.98l-1.476-1.553H126.76l-1.476,1.553v3.979l1.476,1.553Z"/><rect id="rect106728-2-3" class="cls-8" x="127.724" y="61.332" width="2.264" height="2.233"/><rect id="rect106730-2-3" class="cls-9" x="128.315" y="61.915" width="1.083" height="1.165"/><polygon id="polygon106732-2-3" class="cls-10" points="127.744 63.556 130.028 63.556 129.378 63.07 128.315 63.07 127.744 63.556"/><polygon id="polygon106734-2-3" class="cls-11" points="127.744 61.323 128.315 61.915 128.315 63.07 127.744 63.556 127.744 61.323"/><polygon id="polygon106736-2-3" class="cls-12" points="130.028 61.323 129.378 61.915 128.315 61.915 127.744 61.323 130.028 61.323"/><polygon id="polygon106738-2-3" class="cls-13" points="130.028 61.323 130.028 63.556 129.378 63.07 129.378 61.915 130.028 61.323"/><g id="T-SOT23-5"><path id="path3479-7" class="cls-14" d="M112.333,25.219V26.84h2.57V25.219Z"/><path id="path3481-0" class="cls-15" d="M113.813,25.219V26.84h.86V25.219Z"/><path id="path3483-6" class="cls-14" d="M112.333,30.763v1.6h2.57v-1.6Z"/><path id="path3485-6" class="cls-15" d="M113.813,30.763v1.6h.86v-1.6Z"/><path id="path3487-1" class="cls-14" d="M120.922,25.219V26.84h-2.558V25.219Z"/><path id="path3489-6" class="cls-15" d="M119.452,25.219V26.84h-.78V25.219Z"/><path id="path3479-7-2" class="cls-14" d="M112.333,27.983V29.6h2.57v-1.62Z"/><path id="path3481-0-2" class="cls-15" d="M113.813,27.983V29.6h.86v-1.62Z"/><path id="path3487-1-2" class="cls-14" d="M120.922,30.752v1.621h-2.558V30.752Z"/><path id="path3489-6-2" class="cls-15" d="M119.452,30.752v1.621h-.78V30.752Z"/><path id="path3477-9" class="cls-16" d="M114.893,24.584V33h3.48V24.584Z"/></g><g id="T-SOT23-6"><path id="path3487-1-2-2-2-2" class="cls-14" d="M114.669,36.658v1.62h2.56v-1.62Z"/><path id="path3489-6-2-2-2-2" class="cls-15" d="M116.137,36.658v1.62h.77v-1.62Z"/><path id="path3487-1-2-3" class="cls-14" d="M114.669,42.184V43.8h2.56v-1.62Z"/><path id="path3489-6-2-3" class="cls-15" d="M116.137,42.184V43.8h.77v-1.62Z"/><path id="path3487-1-2-3-2-2" class="cls-14" d="M114.669,39.374v1.62h2.56v-1.62Z"/><path id="path3489-6-2-3-2-2" class="cls-15" d="M116.137,39.374v1.62h.77v-1.62Z"/><path id="path3487-1-2-2-2-2-2" class="cls-14" d="M123.091,43.8v-1.62h-2.56V43.8Z"/><path id="path3489-6-2-2-2-2-2" class="cls-15" d="M121.621,43.8v-1.62h-.77V43.8Z"/><path id="path3487-1-2-2-2-3" class="cls-14" d="M123.091,40.994v-1.62h-2.56v1.62Z"/><path id="path3489-6-2-2-2-3" class="cls-15" d="M121.621,40.994v-1.62h-.77v1.62Z"/><path id="path3487-1-2-2-2-4" class="cls-14" d="M123.091,38.274v-1.62h-2.56v1.62Z"/><path id="path3489-6-2-2-2-4" class="cls-15" d="M121.621,38.274v-1.62h-.77v1.62Z"/><path id="path3477-9-2-2-2" class="cls-16" d="M120.619,35.975v8.418h-3.48V35.975Z"/></g><g id="R-0603"><rect id="rect21332-8-1-9-3-8-2-40-6-2-0-6-6-0-5-6-4-8-7-2-0-7-2-3-9-16-5" class="cls-17" x="135.341" y="42.029" width="2.268" height="2.26"/><rect id="rect21332-8-1-9-3-8-2-40-6-2-0-6-6-0-5-6-4-8-7-2-0-7-2-3-10-16-5" class="cls-17" x="135.341" y="45.419" width="2.268" height="2.26"/><path class="cls-4" d="M137.609,42.919v3.867a.329.329,0,0,1-.278.33h-1.7a.306.306,0,0,1-.287-.324h0v-3.87a.309.309,0,0,1,.285-.33h1.683a.321.321,0,0,1,.3.32h0Z"/><g id="path26345-3-6-9-3-6-4-2-5-6-8-7-9-0-90-3-1-3-9-2-2-8-5-0-2-3-5-16-5"><rect class="cls-5" x="135.341" y="43.019" width="2.268" height="3.68"/></g><path id="path26341-4-2-6-0-8-1-1-1-5-0-3-3-1-8-3-8-7-7-7-2-4-9-7-2-3-5-16-5" class="cls-16" d="M135.341,43.439v2.83h2.268v-2.83Z"/></g><g id="R-0603-2" data-name="R-0603"><rect id="rect21332-8-1-9-3-8-2-40-6-2-0-6-6-0-5-6-4-8-7-2-0-7-2-3-9-16-5-2" data-name="rect21332-8-1-9-3-8-2-40-6-2-0-6-6-0-5-6-4-8-7-2-0-7-2-3-9-16-5" class="cls-17" x="158.705" y="49.599" width="2.268" height="2.26"/><rect id="rect21332-8-1-9-3-8-2-40-6-2-0-6-6-0-5-6-4-8-7-2-0-7-2-3-10-16-5-2" data-name="rect21332-8-1-9-3-8-2-40-6-2-0-6-6-0-5-6-4-8-7-2-0-7-2-3-10-16-5" class="cls-17" x="158.705" y="46.208" width="2.268" height="2.26"/><path class="cls-4" d="M158.705,50.968V47.1a.33.33,0,0,1,.278-.33h1.7a.307.307,0,0,1,.287.324h0v3.87a.308.308,0,0,1-.285.33H159a.321.321,0,0,1-.3-.32h0Z"/><g id="path26345-3-6-9-3-6-4-2-5-6-8-7-9-0-90-3-1-3-9-2-2-8-5-0-2-3-5-16-5-2" data-name="path26345-3-6-9-3-6-4-2-5-6-8-7-9-0-90-3-1-3-9-2-2-8-5-0-2-3-5-16-5"><rect class="cls-5" x="158.705" y="47.188" width="2.268" height="3.68"/></g><path id="path26341-4-2-6-0-8-1-1-1-5-0-3-3-1-8-3-8-7-7-7-2-4-9-7-2-3-5-16-5-2" data-name="path26341-4-2-6-0-8-1-1-1-5-0-3-3-1-8-3-8-7-7-7-2-4-9-7-2-3-5-16-5" class="cls-16" d="M160.973,50.448v-2.83h-2.268v2.83Z"/></g><g id="R-0603-3" data-name="R-0603"><rect id="rect21332-8-1-9-3-8-2-40-6-2-0-6-6-0-5-6-4-8-7-2-0-7-2-3-9-16-5-3" data-name="rect21332-8-1-9-3-8-2-40-6-2-0-6-6-0-5-6-4-8-7-2-0-7-2-3-9-16-5" class="cls-17" x="135.341" y="25.158" width="2.268" height="2.26"/><rect id="rect21332-8-1-9-3-8-2-40-6-2-0-6-6-0-5-6-4-8-7-2-0-7-2-3-10-16-5-3" data-name="rect21332-8-1-9-3-8-2-40-6-2-0-6-6-0-5-6-4-8-7-2-0-7-2-3-10-16-5" class="cls-17" x="135.341" y="28.548" width="2.268" height="2.26"/><path class="cls-4" d="M137.609,26.048v3.867a.329.329,0,0,1-.278.33h-1.7a.306.306,0,0,1-.287-.324h0v-3.87a.309.309,0,0,1,.285-.33h1.683a.321.321,0,0,1,.3.32h0Z"/><g id="path26345-3-6-9-3-6-4-2-5-6-8-7-9-0-90-3-1-3-9-2-2-8-5-0-2-3-5-16-5-3-2" data-name="path26345-3-6-9-3-6-4-2-5-6-8-7-9-0-90-3-1-3-9-2-2-8-5-0-2-3-5-16-5"><rect class="cls-5" x="135.341" y="26.148" width="2.268" height="3.68"/></g><path id="path26341-4-2-6-0-8-1-1-1-5-0-3-3-1-8-3-8-7-7-7-2-4-9-7-2-3-5-16-5-3" data-name="path26341-4-2-6-0-8-1-1-1-5-0-3-3-1-8-3-8-7-7-7-2-4-9-7-2-3-5-16-5" class="cls-16" d="M135.341,26.568V29.4h2.268v-2.83Z"/></g><g id="R-0603-4" data-name="R-0603"><rect id="rect21332-8-1-9-3-8-2-40-6-2-0-6-6-0-5-6-4-8-7-2-0-7-2-3-9-16-5-4" data-name="rect21332-8-1-9-3-8-2-40-6-2-0-6-6-0-5-6-4-8-7-2-0-7-2-3-9-16-5" class="cls-17" x="113.23" y="55.484" width="2.26" height="2.268"/><rect id="rect21332-8-1-9-3-8-2-40-6-2-0-6-6-0-5-6-4-8-7-2-0-7-2-3-10-16-5-4" data-name="rect21332-8-1-9-3-8-2-40-6-2-0-6-6-0-5-6-4-8-7-2-0-7-2-3-10-16-5" class="cls-17" x="116.62" y="55.484" width="2.26" height="2.268"/><path class="cls-4" d="M114.12,55.484h3.867a.329.329,0,0,1,.33.278v1.7a.305.305,0,0,1-.324.287h-3.87a.309.309,0,0,1-.33-.285V55.781a.322.322,0,0,1,.32-.3h0Z"/><g id="path26345-3-6-9-3-6-4-2-5-6-8-7-9-0-90-3-1-3-9-2-2-8-5-0-2-3-5-16-5-4-2" data-name="path26345-3-6-9-3-6-4-2-5-6-8-7-9-0-90-3-1-3-9-2-2-8-5-0-2-3-5-16-5"><rect class="cls-5" x="114.22" y="55.484" width="3.68" height="2.268"/></g><path id="path26341-4-2-6-0-8-1-1-1-5-0-3-3-1-8-3-8-7-7-7-2-4-9-7-2-3-5-16-5-4" data-name="path26341-4-2-6-0-8-1-1-1-5-0-3-3-1-8-3-8-7-7-7-2-4-9-7-2-3-5-16-5" class="cls-16" d="M114.64,57.752h2.83V55.484h-2.83Z"/></g><g id="C-0603"><rect id="rect21332-8-1-9-3-8-2-40-6-2-0-6-6-0-5-6-4-8-7-2-0-7-2-3-9-16-2" class="cls-17" x="128.366" y="37.378" width="2.26" height="2.26"/><rect id="rect21332-8-1-9-3-8-2-40-6-2-0-6-6-0-5-6-4-8-7-2-0-7-2-3-10-16-2" class="cls-17" x="128.367" y="40.758" width="2.26" height="2.26"/><path class="cls-4" d="M130.631,38.268v3.88a.328.328,0,0,1-.277.33h-1.7a.308.308,0,0,1-.287-.324h0v-3.88a.311.311,0,0,1,.286-.33h1.681a.321.321,0,0,1,.3.32h0Z"/><rect class="cls-5" x="128.363" y="38.365" width="2.27" height="3.685"/><path id="path26341-4-2-6-0-8-1-1-1-5-0-3-3-1-8-3-8-7-7-7-2-4-9-7-2-3-5-16-2" class="cls-18" d="M128.364,38.788v2.84h2.268v-2.84Z"/></g><g id="C-0603-2" data-name="C-0603"><rect id="rect21332-8-1-9-3-8-2-40-6-2-0-6-6-0-5-6-4-8-7-2-0-7-2-3-9-16-2-2" data-name="rect21332-8-1-9-3-8-2-40-6-2-0-6-6-0-5-6-4-8-7-2-0-7-2-3-9-16-2" class="cls-17" x="113.032" y="19.011" width="2.26" height="2.26"/><rect id="rect21332-8-1-9-3-8-2-40-6-2-0-6-6-0-5-6-4-8-7-2-0-7-2-3-10-16-2-2" data-name="rect21332-8-1-9-3-8-2-40-6-2-0-6-6-0-5-6-4-8-7-2-0-7-2-3-10-16-2" class="cls-17" x="116.412" y="19.01" width="2.26" height="2.26"/><path class="cls-4" d="M113.922,19.006h3.88a.331.331,0,0,1,.33.277v1.7a.307.307,0,0,1-.324.287h-3.88a.31.31,0,0,1-.33-.286V19.3a.322.322,0,0,1,.32-.3h0Z"/><rect class="cls-5" x="114.019" y="19.004" width="3.685" height="2.27"/><path id="path26341-4-2-6-0-8-1-1-1-5-0-3-3-1-8-3-8-7-7-7-2-4-9-7-2-3-5-16-2-2" data-name="path26341-4-2-6-0-8-1-1-1-5-0-3-3-1-8-3-8-7-7-7-2-4-9-7-2-3-5-16-2" class="cls-18" d="M114.442,21.273h2.84V19.005h-2.84Z"/></g><g id="C-0603-3" data-name="C-0603"><rect id="rect21332-8-1-9-3-8-2-40-6-2-0-6-6-0-5-6-4-8-7-2-0-7-2-3-9-16-2-3" data-name="rect21332-8-1-9-3-8-2-40-6-2-0-6-6-0-5-6-4-8-7-2-0-7-2-3-9-16-2" class="cls-17" x="115.497" y="47.902" width="2.26" height="2.26"/><rect id="rect21332-8-1-9-3-8-2-40-6-2-0-6-6-0-5-6-4-8-7-2-0-7-2-3-10-16-2-3" data-name="rect21332-8-1-9-3-8-2-40-6-2-0-6-6-0-5-6-4-8-7-2-0-7-2-3-10-16-2" class="cls-17" x="118.877" y="47.901" width="2.26" height="2.26"/></g><g id="C-0603-4" data-name="C-0603"><rect id="rect21332-8-1-9-3-8-2-40-6-2-0-6-6-0-5-6-4-8-7-2-0-7-2-3-9-16-2-4" data-name="rect21332-8-1-9-3-8-2-40-6-2-0-6-6-0-5-6-4-8-7-2-0-7-2-3-9-16-2" class="cls-17" x="142.555" y="36.554" width="2.26" height="2.26"/><rect id="rect21332-8-1-9-3-8-2-40-6-2-0-6-6-0-5-6-4-8-7-2-0-7-2-3-10-16-2-4" data-name="rect21332-8-1-9-3-8-2-40-6-2-0-6-6-0-5-6-4-8-7-2-0-7-2-3-10-16-2" class="cls-17" x="142.556" y="39.934" width="2.26" height="2.26"/></g><g id="C-0603-5" data-name="C-0603"><rect id="rect21332-8-1-9-3-8-2-40-6-2-0-6-6-0-5-6-4-8-7-2-0-7-2-3-9-16-2-5" data-name="rect21332-8-1-9-3-8-2-40-6-2-0-6-6-0-5-6-4-8-7-2-0-7-2-3-9-16-2" class="cls-17" x="142.555" y="26.842" width="2.26" height="2.26"/><rect id="rect21332-8-1-9-3-8-2-40-6-2-0-6-6-0-5-6-4-8-7-2-0-7-2-3-10-16-2-5" data-name="rect21332-8-1-9-3-8-2-40-6-2-0-6-6-0-5-6-4-8-7-2-0-7-2-3-10-16-2" class="cls-17" x="142.556" y="30.222" width="2.26" height="2.26"/></g><g id="C-0603-6" data-name="C-0603"><rect id="rect21332-8-1-9-3-8-2-40-6-2-0-6-6-0-5-6-4-8-7-2-0-7-2-3-9-16-2-6" data-name="rect21332-8-1-9-3-8-2-40-6-2-0-6-6-0-5-6-4-8-7-2-0-7-2-3-9-16-2" class="cls-17" x="153.745" y="14.349" width="2.26" height="2.26"/><rect id="rect21332-8-1-9-3-8-2-40-6-2-0-6-6-0-5-6-4-8-7-2-0-7-2-3-10-16-2-6" data-name="rect21332-8-1-9-3-8-2-40-6-2-0-6-6-0-5-6-4-8-7-2-0-7-2-3-10-16-2" class="cls-17" x="157.125" y="14.348" width="2.26" height="2.26"/></g><g id="D-SOD323-2"><rect id="rect21332-8-1-9-3-5-5-5-7-7-6-2" class="cls-17" x="123.92" y="29.662" width="3.493" height="3.75"/><rect id="rect21332-1-0-1-9-2-0-7-3-5-9-5-2" class="cls-17" x="123.92" y="24.12" width="3.493" height="3.75"/><path id="path32574-5-6-2-6-7-2" class="cls-14" d="M126.907,25.085h-2.481v1.747h2.481Z"/><path id="path32578-9-7-2-9-4-2" class="cls-14" d="M126.825,30.746H124.5v1.746h2.335Z"/><path id="path32580-3-1-0-1-3-2" class="cls-15" d="M126.825,31.518H124.5v.552h2.335Z"/><path id="path32590-0-9-7-9-9-2" class="cls-16" d="M127.4,26.069h-3.456v5.45H127.4Z"/><path id="path32576-2-7-7-0-2-2" class="cls-15" d="M126.907,25.5h-2.481v.56h2.481Z"/></g><g id="LED-1210"><rect id="rect21332-8-1-9-3-8-2-40-6-2-0-6-6-0-5-6-4-8-7-2-0-7-2-3-9-16-3-7" class="cls-17" x="107.996" y="60.795" width="5.499" height="4.248"/><rect id="rect21332-8-1-9-3-8-2-40-6-2-0-6-6-0-5-6-4-8-7-2-0-7-2-3-10-16-3-7" class="cls-17" x="119.201" y="60.795" width="5.499" height="4.248"/><path class="cls-4" d="M110.767,60.8h11.066c.6.039,1.024.27.959.525v3.186c.089.251-.3.487-.888.54H110.839c-.588-.037-1-.263-.938-.512v-3.2c-.063-.255.343-.488.938-.539h-.072Z"/><g id="path26345-3-6-9-3-6-4-2-5-6-8-7-9-0-90-3-1-3-9-2-2-8-5-0-2-3-5-16-3-6"><rect class="cls-5" x="111.101" y="60.795" width="10.477" height="4.248"/></g><path id="path26341-4-2-6-0-8-1-1-1-5-0-3-3-1-8-3-8-7-7-7-2-4-9-7-2-3-5-16-3-7" class="cls-19" d="M112.371,65.778h7.289V60.06h-7.289Z"/><path id="path26341-4-2-6-0-8-1-1-1-5-0-3-3-1-8-3-8-7-7-7-2-4-9-7-2-3-5-16-3-7-2" data-name="path26341-4-2-6-0-8-1-1-1-5-0-3-3-1-8-3-8-7-7-7-2-4-9-7-2-3-5-16-3-7" class="cls-20" d="M112.371,65.778h7.289V60.06h-7.289Z"/><path id="path6963-86-8-2-6-0-1-7-9-2-3-3" class="cls-21" d="M113.01,62.566h.579v.706h-.577Z"/></g><path id="path3870-5-4-1-3-9-13-48-56-2-23-7-6-6" class="cls-22" d="M150.507,40.994v1.6h-3.818v-1.6Z"/><rect id="rect36057-3-4-8-4-7-5-0-7-5-24-7-7-2-5-48-13-48-56-2-23-7-6-6" class="cls-15" x="148.371" y="40.994" width="0.459" height="1.602"/><path id="path3870-5-4-1-3-9-13-48-56-2-23-7-6-6-2" data-name="path3870-5-4-1-3-9-13-48-56-2-23-7-6-6" class="cls-22" d="M150.507,37.4V39h-3.818V37.4Z"/><rect id="rect36057-3-4-8-4-7-5-0-7-5-24-7-7-2-5-48-13-48-56-2-23-7-6-6-2" data-name="rect36057-3-4-8-4-7-5-0-7-5-24-7-7-2-5-48-13-48-56-2-23-7-6-6" class="cls-15" x="148.371" y="37.403" width="0.459" height="1.602"/><path id="path3870-5-4-1-3-9-13-48-56-2-23-7-6-6-3" data-name="path3870-5-4-1-3-9-13-48-56-2-23-7-6-6" class="cls-22" d="M150.507,33.811v1.6h-3.818v-1.6Z"/><rect id="rect36057-3-4-8-4-7-5-0-7-5-24-7-7-2-5-48-13-48-56-2-23-7-6-6-3" data-name="rect36057-3-4-8-4-7-5-0-7-5-24-7-7-2-5-48-13-48-56-2-23-7-6-6" class="cls-15" x="148.371" y="33.811" width="0.459" height="1.602"/><path id="path3870-5-4-1-3-9-13-48-56-2-23-7-6-6-4" data-name="path3870-5-4-1-3-9-13-48-56-2-23-7-6-6" class="cls-22" d="M150.507,30.22v1.6h-3.818v-1.6Z"/><rect id="rect36057-3-4-8-4-7-5-0-7-5-24-7-7-2-5-48-13-48-56-2-23-7-6-6-4" data-name="rect36057-3-4-8-4-7-5-0-7-5-24-7-7-2-5-48-13-48-56-2-23-7-6-6" class="cls-15" x="148.371" y="30.22" width="0.459" height="1.602"/><path id="path3870-5-4-1-3-9-13-48-56-2-23-7-6-6-5" data-name="path3870-5-4-1-3-9-13-48-56-2-23-7-6-6" class="cls-22" d="M165.887,40.994v1.6h-3.818v-1.6Z"/><rect id="rect36057-3-4-8-4-7-5-0-7-5-24-7-7-2-5-48-13-48-56-2-23-7-6-6-5" data-name="rect36057-3-4-8-4-7-5-0-7-5-24-7-7-2-5-48-13-48-56-2-23-7-6-6" class="cls-15" x="163.75" y="40.994" width="0.459" height="1.602"/><path id="path3870-5-4-1-3-9-13-48-56-2-23-7-6-6-6" data-name="path3870-5-4-1-3-9-13-48-56-2-23-7-6-6" class="cls-22" d="M165.887,37.4V39h-3.818V37.4Z"/><rect id="rect36057-3-4-8-4-7-5-0-7-5-24-7-7-2-5-48-13-48-56-2-23-7-6-6-6" data-name="rect36057-3-4-8-4-7-5-0-7-5-24-7-7-2-5-48-13-48-56-2-23-7-6-6" class="cls-15" x="163.75" y="37.403" width="0.459" height="1.602"/><path id="path3870-5-4-1-3-9-13-48-56-2-23-7-6-6-7" data-name="path3870-5-4-1-3-9-13-48-56-2-23-7-6-6" class="cls-22" d="M165.887,33.811v1.6h-3.818v-1.6Z"/><rect id="rect36057-3-4-8-4-7-5-0-7-5-24-7-7-2-5-48-13-48-56-2-23-7-6-6-7" data-name="rect36057-3-4-8-4-7-5-0-7-5-24-7-7-2-5-48-13-48-56-2-23-7-6-6" class="cls-15" x="163.75" y="33.811" width="0.459" height="1.602"/><path id="path3870-5-4-1-3-9-13-48-56-2-23-7-6-6-8" data-name="path3870-5-4-1-3-9-13-48-56-2-23-7-6-6" class="cls-22" d="M165.887,30.22v1.6h-3.818v-1.6Z"/><rect id="rect36057-3-4-8-4-7-5-0-7-5-24-7-7-2-5-48-13-48-56-2-23-7-6-6-8" data-name="rect36057-3-4-8-4-7-5-0-7-5-24-7-7-2-5-48-13-48-56-2-23-7-6-6" class="cls-15" x="163.75" y="30.22" width="0.459" height="1.602"/><path class="cls-23" d="M150.339,43.767V29.6h4.26a1.494,1.494,0,0,0,2.82,0h4.26v14.17Z"/><path id="rect67054-7-7-5-2-2-3-2" class="cls-24" d="M160.141,30.452h0a.581.581,0,0,1,.572.572h0a.567.567,0,0,1-.567.567h0a.556.556,0,0,1-.567-.545h0v-.01h0a.562.562,0,0,1,.551-.572h0Z"/><rect x="150.368" y="57.989" width="0.462" height="0.462"/><rect x="150.83" y="57.989" width="0.462" height="0.462"/><rect x="151.292" y="57.989" width="0.462" height="0.462"/><rect x="151.754" y="57.989" width="0.462" height="0.462"/><rect x="152.216" y="57.989" width="0.462" height="0.462"/><rect x="152.678" y="57.989" width="0.462" height="0.462"/><rect x="153.139" y="57.989" width="0.462" height="0.462"/><rect x="154.063" y="57.989" width="0.462" height="0.462"/><rect x="155.449" y="57.989" width="0.462" height="0.462"/><rect x="155.911" y="57.989" width="0.462" height="0.462"/><rect x="156.373" y="57.989" width="0.462" height="0.462"/><rect x="158.683" y="57.989" width="0.462" height="0.462"/><rect x="159.145" y="57.989" width="0.462" height="0.462"/><rect x="159.607" y="57.989" width="0.462" height="0.462"/><rect x="160.069" y="57.989" width="0.462" height="0.462"/><rect x="160.53" y="57.989" width="0.462" height="0.462"/><rect x="160.992" y="57.989" width="0.462" height="0.462"/><rect x="161.454" y="57.989" width="0.462" height="0.462"/><rect x="150.368" y="58.451" width="0.462" height="0.462"/><rect x="153.139" y="58.451" width="0.462" height="0.462"/><rect x="154.063" y="58.451" width="0.462" height="0.462"/><rect x="154.525" y="58.451" width="0.462" height="0.462"/><rect x="154.987" y="58.451" width="0.462" height="0.462"/><rect x="155.911" y="58.451" width="0.462" height="0.462"/><rect x="156.835" y="58.451" width="0.462" height="0.462"/><rect x="158.683" y="58.451" width="0.462" height="0.462"/><rect x="161.454" y="58.451" width="0.462" height="0.462"/><rect x="150.368" y="58.913" width="0.462" height="0.462"/><rect x="151.292" y="58.913" width="0.462" height="0.462"/><rect x="151.754" y="58.913" width="0.462" height="0.462"/><rect x="152.216" y="58.913" width="0.462" height="0.462"/><rect x="153.139" y="58.913" width="0.462" height="0.462"/><rect x="154.987" y="58.913" width="0.462" height="0.462"/><rect x="155.449" y="58.913" width="0.462" height="0.462"/><rect x="155.911" y="58.913" width="0.462" height="0.462"/><rect x="156.373" y="58.913" width="0.462" height="0.462"/><rect x="157.759" y="58.913" width="0.462" height="0.462"/><rect x="158.683" y="58.913" width="0.462" height="0.462"/><rect x="159.607" y="58.913" width="0.462" height="0.462"/><rect x="160.069" y="58.913" width="0.462" height="0.462"/><rect x="160.53" y="58.913" width="0.462" height="0.462"/><rect x="161.454" y="58.913" width="0.462" height="0.462"/><rect x="150.368" y="59.375" width="0.462" height="0.462"/><rect x="151.292" y="59.375" width="0.462" height="0.462"/><rect x="151.754" y="59.375" width="0.462" height="0.462"/><rect x="152.216" y="59.375" width="0.462" height="0.462"/><rect x="153.139" y="59.375" width="0.462" height="0.462"/><rect x="154.987" y="59.375" width="0.462" height="0.462"/><rect x="156.373" y="59.375" width="0.462" height="0.462"/><rect x="157.759" y="59.375" width="0.462" height="0.462"/><rect x="158.683" y="59.375" width="0.462" height="0.462"/><rect x="159.607" y="59.375" width="0.462" height="0.462"/><rect x="160.069" y="59.375" width="0.462" height="0.462"/><rect x="160.53" y="59.375" width="0.462" height="0.462"/><rect x="161.454" y="59.375" width="0.462" height="0.462"/><rect x="150.368" y="59.836" width="0.462" height="0.462"/><rect x="151.292" y="59.836" width="0.462" height="0.462"/><rect x="151.754" y="59.836" width="0.462" height="0.462"/><rect x="152.216" y="59.836" width="0.462" height="0.462"/><rect x="153.139" y="59.836" width="0.462" height="0.462"/><rect x="154.063" y="59.836" width="0.462" height="0.462"/><rect x="154.525" y="59.836" width="0.462" height="0.462"/><rect x="154.987" y="59.836" width="0.462" height="0.462"/><rect x="155.449" y="59.836" width="0.462" height="0.462"/><rect x="156.835" y="59.836" width="0.462" height="0.462"/><rect x="158.683" y="59.836" width="0.462" height="0.462"/><rect x="159.607" y="59.836" width="0.462" height="0.462"/><rect x="160.069" y="59.836" width="0.462" height="0.462"/><rect x="160.53" y="59.836" width="0.462" height="0.462"/><rect x="161.454" y="59.836" width="0.462" height="0.462"/><rect x="150.368" y="60.298" width="0.462" height="0.462"/><rect x="153.139" y="60.298" width="0.462" height="0.462"/><rect x="154.063" y="60.298" width="0.462" height="0.462"/><rect x="155.449" y="60.298" width="0.462" height="0.462"/><rect x="156.373" y="60.298" width="0.462" height="0.462"/><rect x="156.835" y="60.298" width="0.462" height="0.462"/><rect x="158.683" y="60.298" width="0.462" height="0.462"/><rect x="161.454" y="60.298" width="0.462" height="0.462"/><rect x="150.368" y="60.76" width="0.462" height="0.462"/><rect x="150.83" y="60.76" width="0.462" height="0.462"/><rect x="151.292" y="60.76" width="0.462" height="0.462"/><rect x="151.754" y="60.76" width="0.462" height="0.462"/><rect x="152.216" y="60.76" width="0.462" height="0.462"/><rect x="152.678" y="60.76" width="0.462" height="0.462"/><rect x="153.139" y="60.76" width="0.462" height="0.462"/><rect x="154.063" y="60.76" width="0.462" height="0.462"/><rect x="154.987" y="60.76" width="0.462" height="0.462"/><rect x="155.911" y="60.76" width="0.462" height="0.462"/><rect x="156.835" y="60.76" width="0.462" height="0.462"/><rect x="157.759" y="60.76" width="0.462" height="0.462"/><rect x="158.683" y="60.76" width="0.462" height="0.462"/><rect x="159.145" y="60.76" width="0.462" height="0.462"/><rect x="159.607" y="60.76" width="0.462" height="0.462"/><rect x="160.069" y="60.76" width="0.462" height="0.462"/><rect x="160.53" y="60.76" width="0.462" height="0.462"/><rect x="160.992" y="60.76" width="0.462" height="0.462"/><rect x="161.454" y="60.76" width="0.462" height="0.462"/><rect x="154.063" y="61.222" width="0.462" height="0.462"/><rect x="154.987" y="61.222" width="0.462" height="0.462"/><rect x="155.449" y="61.222" width="0.462" height="0.462"/><rect x="155.911" y="61.222" width="0.462" height="0.462"/><rect x="156.835" y="61.222" width="0.462" height="0.462"/><rect x="157.297" y="61.222" width="0.462" height="0.462"/><rect x="157.759" y="61.222" width="0.462" height="0.462"/><rect x="150.368" y="61.684" width="0.462" height="0.462"/><rect x="150.83" y="61.684" width="0.462" height="0.462"/><rect x="151.292" y="61.684" width="0.462" height="0.462"/><rect x="152.678" y="61.684" width="0.462" height="0.462"/><rect x="153.139" y="61.684" width="0.462" height="0.462"/><rect x="154.063" y="61.684" width="0.462" height="0.462"/><rect x="154.525" y="61.684" width="0.462" height="0.462"/><rect x="154.987" y="61.684" width="0.462" height="0.462"/><rect x="156.373" y="61.684" width="0.462" height="0.462"/><rect x="156.835" y="61.684" width="0.462" height="0.462"/><rect x="157.759" y="61.684" width="0.462" height="0.462"/><rect x="158.221" y="61.684" width="0.462" height="0.462"/><rect x="158.683" y="61.684" width="0.462" height="0.462"/><rect x="159.145" y="61.684" width="0.462" height="0.462"/><rect x="159.607" y="61.684" width="0.462" height="0.462"/><rect x="160.992" y="61.684" width="0.462" height="0.462"/><rect x="161.454" y="61.684" width="0.462" height="0.462"/><rect x="151.292" y="62.146" width="0.462" height="0.462"/><rect x="151.754" y="62.146" width="0.462" height="0.462"/><rect x="152.216" y="62.146" width="0.462" height="0.462"/><rect x="152.678" y="62.146" width="0.462" height="0.462"/><rect x="154.525" y="62.146" width="0.462" height="0.462"/><rect x="154.987" y="62.146" width="0.462" height="0.462"/><rect x="156.373" y="62.146" width="0.462" height="0.462"/><rect x="157.297" y="62.146" width="0.462" height="0.462"/><rect x="158.683" y="62.146" width="0.462" height="0.462"/><rect x="159.145" y="62.146" width="0.462" height="0.462"/><rect x="160.069" y="62.146" width="0.462" height="0.462"/><rect x="160.992" y="62.146" width="0.462" height="0.462"/><rect x="161.454" y="62.146" width="0.462" height="0.462"/><rect x="150.83" y="62.608" width="0.462" height="0.462"/><rect x="151.292" y="62.608" width="0.462" height="0.462"/><rect x="151.754" y="62.608" width="0.462" height="0.462"/><rect x="152.678" y="62.608" width="0.462" height="0.462"/><rect x="153.139" y="62.608" width="0.462" height="0.462"/><rect x="153.601" y="62.608" width="0.462" height="0.462"/><rect x="154.063" y="62.608" width="0.462" height="0.462"/><rect x="155.449" y="62.608" width="0.462" height="0.462"/><rect x="157.297" y="62.608" width="0.462" height="0.462"/><rect x="159.607" y="62.608" width="0.462" height="0.462"/><rect x="160.069" y="62.608" width="0.462" height="0.462"/><rect x="160.53" y="62.608" width="0.462" height="0.462"/><rect x="161.454" y="62.608" width="0.462" height="0.462"/><rect x="150.368" y="63.07" width="0.462" height="0.462"/><rect x="152.678" y="63.07" width="0.462" height="0.462"/><rect x="153.601" y="63.07" width="0.462" height="0.462"/><rect x="154.063" y="63.07" width="0.462" height="0.462"/><rect x="154.525" y="63.07" width="0.462" height="0.462"/><rect x="156.373" y="63.07" width="0.462" height="0.462"/><rect x="158.221" y="63.07" width="0.462" height="0.462"/><rect x="160.069" y="63.07" width="0.462" height="0.462"/><rect x="151.754" y="63.532" width="0.462" height="0.462"/><rect x="152.216" y="63.532" width="0.462" height="0.462"/><rect x="153.139" y="63.532" width="0.462" height="0.462"/><rect x="154.525" y="63.532" width="0.462" height="0.462"/><rect x="155.449" y="63.532" width="0.462" height="0.462"/><rect x="155.911" y="63.532" width="0.462" height="0.462"/><rect x="156.373" y="63.532" width="0.462" height="0.462"/><rect x="157.297" y="63.532" width="0.462" height="0.462"/><rect x="157.759" y="63.532" width="0.462" height="0.462"/><rect x="158.683" y="63.532" width="0.462" height="0.462"/><rect x="159.145" y="63.532" width="0.462" height="0.462"/><rect x="161.454" y="63.532" width="0.462" height="0.462"/><rect x="151.754" y="63.994" width="0.462" height="0.462"/><rect x="152.216" y="63.994" width="0.462" height="0.462"/><rect x="152.678" y="63.994" width="0.462" height="0.462"/><rect x="153.601" y="63.994" width="0.462" height="0.462"/><rect x="155.911" y="63.994" width="0.462" height="0.462"/><rect x="157.297" y="63.994" width="0.462" height="0.462"/><rect x="157.759" y="63.994" width="0.462" height="0.462"/><rect x="158.221" y="63.994" width="0.462" height="0.462"/><rect x="158.683" y="63.994" width="0.462" height="0.462"/><rect x="159.145" y="63.994" width="0.462" height="0.462"/><rect x="160.992" y="63.994" width="0.462" height="0.462"/><rect x="161.454" y="63.994" width="0.462" height="0.462"/><rect x="150.368" y="64.456" width="0.462" height="0.462"/><rect x="150.83" y="64.456" width="0.462" height="0.462"/><rect x="152.216" y="64.456" width="0.462" height="0.462"/><rect x="152.678" y="64.456" width="0.462" height="0.462"/><rect x="153.139" y="64.456" width="0.462" height="0.462"/><rect x="153.601" y="64.456" width="0.462" height="0.462"/><rect x="154.987" y="64.456" width="0.462" height="0.462"/><rect x="155.911" y="64.456" width="0.462" height="0.462"/><rect x="156.373" y="64.456" width="0.462" height="0.462"/><rect x="156.835" y="64.456" width="0.462" height="0.462"/><rect x="157.297" y="64.456" width="0.462" height="0.462"/><rect x="158.221" y="64.456" width="0.462" height="0.462"/><rect x="158.683" y="64.456" width="0.462" height="0.462"/><rect x="160.069" y="64.456" width="0.462" height="0.462"/><rect x="160.53" y="64.456" width="0.462" height="0.462"/><rect x="161.454" y="64.456" width="0.462" height="0.462"/><rect x="151.292" y="64.918" width="0.462" height="0.462"/><rect x="151.754" y="64.918" width="0.462" height="0.462"/><rect x="154.063" y="64.918" width="0.462" height="0.462"/><rect x="155.449" y="64.918" width="0.462" height="0.462"/><rect x="155.911" y="64.918" width="0.462" height="0.462"/><rect x="156.835" y="64.918" width="0.462" height="0.462"/><rect x="157.297" y="64.918" width="0.462" height="0.462"/><rect x="159.145" y="64.918" width="0.462" height="0.462"/><rect x="159.607" y="64.918" width="0.462" height="0.462"/><rect x="160.069" y="64.918" width="0.462" height="0.462"/><rect x="150.368" y="65.38" width="0.462" height="0.462"/><rect x="150.83" y="65.38" width="0.462" height="0.462"/><rect x="151.292" y="65.38" width="0.462" height="0.462"/><rect x="152.216" y="65.38" width="0.462" height="0.462"/><rect x="153.139" y="65.38" width="0.462" height="0.462"/><rect x="154.063" y="65.38" width="0.462" height="0.462"/><rect x="154.987" y="65.38" width="0.462" height="0.462"/><rect x="156.373" y="65.38" width="0.462" height="0.462"/><rect x="156.835" y="65.38" width="0.462" height="0.462"/><rect x="157.759" y="65.38" width="0.462" height="0.462"/><rect x="158.221" y="65.38" width="0.462" height="0.462"/><rect x="158.683" y="65.38" width="0.462" height="0.462"/><rect x="159.145" y="65.38" width="0.462" height="0.462"/><rect x="159.607" y="65.38" width="0.462" height="0.462"/><rect x="160.992" y="65.38" width="0.462" height="0.462"/><rect x="154.063" y="65.842" width="0.462" height="0.462"/><rect x="154.525" y="65.842" width="0.462" height="0.462"/><rect x="156.373" y="65.842" width="0.462" height="0.462"/><rect x="156.835" y="65.842" width="0.462" height="0.462"/><rect x="157.759" y="65.842" width="0.462" height="0.462"/><rect x="159.607" y="65.842" width="0.462" height="0.462"/><rect x="161.454" y="65.842" width="0.462" height="0.462"/><rect x="150.368" y="66.304" width="0.462" height="0.462"/><rect x="150.83" y="66.304" width="0.462" height="0.462"/><rect x="151.292" y="66.304" width="0.462" height="0.462"/><rect x="151.754" y="66.304" width="0.462" height="0.462"/><rect x="152.216" y="66.304" width="0.462" height="0.462"/><rect x="152.678" y="66.304" width="0.462" height="0.462"/><rect x="153.139" y="66.304" width="0.462" height="0.462"/><rect x="154.525" y="66.304" width="0.462" height="0.462"/><rect x="154.987" y="66.304" width="0.462" height="0.462"/><rect x="155.449" y="66.304" width="0.462" height="0.462"/><rect x="157.759" y="66.304" width="0.462" height="0.462"/><rect x="158.683" y="66.304" width="0.462" height="0.462"/><rect x="159.607" y="66.304" width="0.462" height="0.462"/><rect x="161.454" y="66.304" width="0.462" height="0.462"/><rect x="150.368" y="66.765" width="0.462" height="0.462"/><rect x="153.139" y="66.765" width="0.462" height="0.462"/><rect x="154.063" y="66.765" width="0.462" height="0.462"/><rect x="156.373" y="66.765" width="0.462" height="0.462"/><rect x="157.297" y="66.765" width="0.462" height="0.462"/><rect x="157.759" y="66.765" width="0.462" height="0.462"/><rect x="159.607" y="66.765" width="0.462" height="0.462"/><rect x="160.992" y="66.765" width="0.462" height="0.462"/><rect x="161.454" y="66.765" width="0.462" height="0.462"/><rect x="150.368" y="67.227" width="0.462" height="0.462"/><rect x="151.292" y="67.227" width="0.462" height="0.462"/><rect x="151.754" y="67.227" width="0.462" height="0.462"/><rect x="152.216" y="67.227" width="0.462" height="0.462"/><rect x="153.139" y="67.227" width="0.462" height="0.462"/><rect x="154.525" y="67.227" width="0.462" height="0.462"/><rect x="154.987" y="67.227" width="0.462" height="0.462"/><rect x="155.449" y="67.227" width="0.462" height="0.462"/><rect x="155.911" y="67.227" width="0.462" height="0.462"/><rect x="156.373" y="67.227" width="0.462" height="0.462"/><rect x="157.297" y="67.227" width="0.462" height="0.462"/><rect x="157.759" y="67.227" width="0.462" height="0.462"/><rect x="158.221" y="67.227" width="0.462" height="0.462"/><rect x="158.683" y="67.227" width="0.462" height="0.462"/><rect x="159.145" y="67.227" width="0.462" height="0.462"/><rect x="159.607" y="67.227" width="0.462" height="0.462"/><rect x="160.992" y="67.227" width="0.462" height="0.462"/><rect x="161.454" y="67.227" width="0.462" height="0.462"/><rect x="150.368" y="67.689" width="0.462" height="0.462"/><rect x="151.292" y="67.689" width="0.462" height="0.462"/><rect x="151.754" y="67.689" width="0.462" height="0.462"/><rect x="152.216" y="67.689" width="0.462" height="0.462"/><rect x="153.139" y="67.689" width="0.462" height="0.462"/><rect x="154.525" y="67.689" width="0.462" height="0.462"/><rect x="155.911" y="67.689" width="0.462" height="0.462"/><rect x="157.759" y="67.689" width="0.462" height="0.462"/><rect x="158.221" y="67.689" width="0.462" height="0.462"/><rect x="159.607" y="67.689" width="0.462" height="0.462"/><rect x="160.53" y="67.689" width="0.462" height="0.462"/><rect x="160.992" y="67.689" width="0.462" height="0.462"/><rect x="150.368" y="68.151" width="0.462" height="0.462"/><rect x="151.292" y="68.151" width="0.462" height="0.462"/><rect x="151.754" y="68.151" width="0.462" height="0.462"/><rect x="152.216" y="68.151" width="0.462" height="0.462"/><rect x="153.139" y="68.151" width="0.462" height="0.462"/><rect x="154.063" y="68.151" width="0.462" height="0.462"/><rect x="154.525" y="68.151" width="0.462" height="0.462"/><rect x="154.987" y="68.151" width="0.462" height="0.462"/><rect x="155.911" y="68.151" width="0.462" height="0.462"/><rect x="156.373" y="68.151" width="0.462" height="0.462"/><rect x="156.835" y="68.151" width="0.462" height="0.462"/><rect x="157.297" y="68.151" width="0.462" height="0.462"/><rect x="157.759" y="68.151" width="0.462" height="0.462"/><rect x="158.221" y="68.151" width="0.462" height="0.462"/><rect x="159.145" y="68.151" width="0.462" height="0.462"/><rect x="159.607" y="68.151" width="0.462" height="0.462"/><rect x="160.069" y="68.151" width="0.462" height="0.462"/><rect x="160.992" y="68.151" width="0.462" height="0.462"/><rect x="161.454" y="68.151" width="0.462" height="0.462"/><rect x="150.368" y="68.613" width="0.462" height="0.462"/><rect x="153.139" y="68.613" width="0.462" height="0.462"/><rect x="154.063" y="68.613" width="0.462" height="0.462"/><rect x="154.525" y="68.613" width="0.462" height="0.462"/><rect x="155.449" y="68.613" width="0.462" height="0.462"/><rect x="155.911" y="68.613" width="0.462" height="0.462"/><rect x="156.835" y="68.613" width="0.462" height="0.462"/><rect x="157.297" y="68.613" width="0.462" height="0.462"/><rect x="157.759" y="68.613" width="0.462" height="0.462"/><rect x="158.221" y="68.613" width="0.462" height="0.462"/><rect x="159.145" y="68.613" width="0.462" height="0.462"/><rect x="159.607" y="68.613" width="0.462" height="0.462"/><rect x="150.368" y="69.075" width="0.462" height="0.462"/><rect x="150.83" y="69.075" width="0.462" height="0.462"/><rect x="151.292" y="69.075" width="0.462" height="0.462"/><rect x="151.754" y="69.075" width="0.462" height="0.462"/><rect x="152.216" y="69.075" width="0.462" height="0.462"/><rect x="152.678" y="69.075" width="0.462" height="0.462"/><rect x="153.139" y="69.075" width="0.462" height="0.462"/><rect x="154.063" y="69.075" width="0.462" height="0.462"/><rect x="154.987" y="69.075" width="0.462" height="0.462"/><rect x="156.373" y="69.075" width="0.462" height="0.462"/><rect x="156.835" y="69.075" width="0.462" height="0.462"/><rect x="157.759" y="69.075" width="0.462" height="0.462"/><rect x="158.683" y="69.075" width="0.462" height="0.462"/><rect x="160.069" y="69.075" width="0.462" height="0.462"/><rect x="161.454" y="69.075" width="0.462" height="0.462"/></g><g id="top"><g id="g14799"><rect class="cls-25" x="49.631" y="60.441" width="11.7" height="5.394" transform="translate(110.962 126.276) rotate(180)"/><circle id="circle17228-0" class="cls-26" cx="55.468" cy="63.033" r="1.062"/><circle id="circle17230-0" class="cls-27" cx="55.513" cy="63.024" r="0.402"/><circle id="circle17232-6" class="cls-28" cx="55.467" cy="63.043" r="2.11"/><path id="path17234-1" class="cls-29" d="M55.7,64.206a1.3,1.3,0,0,1-.308.037,1.34,1.34,0,0,1-.263-.026l-.108.525a1.817,1.817,0,0,0,.371.037,2.718,2.718,0,0,0,.473-.052Zm.529.372a1.842,1.842,0,0,0,1-1.641,1.936,1.936,0,0,0-.035-.36l-.523.117a1.313,1.313,0,0,1-.65,1.385Z"/><circle id="circle17236-3" class="cls-30" cx="55.483" cy="63.053" r="2.144"/></g><path class="cls-1" d="M71.625,67.255V4.715a4.428,4.428,0,0,1-4.37-4.5H4.705a4.492,4.492,0,0,1-4.49,4.47v62.58a4.522,4.522,0,0,1,4.47,4.51l62.56-.04A4.5,4.5,0,0,1,71.625,67.255Zm-52.7-58.19a3.4,3.4,0,0,1-6.8,0,3.4,3.4,0,0,1,3.4-3.4,3.414,3.414,0,0,1,3.4,3.4Zm40,54a3.4,3.4,0,0,1-6.8,0,3.4,3.4,0,0,1,3.4-3.4,3.414,3.414,0,0,1,3.4,3.4Zm8.43-41.85a2.83,2.83,0,1,1-2.83-2.84A2.827,2.827,0,0,1,67.355,21.215Zm0,29a2.83,2.83,0,1,1-2.83-2.84A2.821,2.821,0,0,1,67.355,50.215Z"/><g id="troyka-pins2"><rect id="rect6749-8-3" class="cls-2" x="25.22" y="57.981" width="7.129" height="13.809" rx="0.14"/><rect id="rect6749-9-8-3" class="cls-2" x="32.31" y="57.981" width="7.129" height="13.809" rx="0.14"/><rect id="rect6749-9-3-2-4" class="cls-2" x="39.439" y="57.981" width="7.129" height="13.809" rx="0.14"/><rect id="rect4216-5" class="cls-31" x="40.368" y="59.042" width="5.23" height="5.229" rx="0.48"/><rect id="_0.1.5.0.0.6-7-1" data-name=" 0.1.5.0.0.6-7-1" class="cls-8" x="41.868" y="60.451" width="2.27" height="2.39"/><rect id="_0.1.5.0.0.37-1-1" data-name=" 0.1.5.0.0.37-1-1" class="cls-9" x="42.408" y="61.031" width="1.17" height="1.23"/><polygon id="_0.1.5.0.0.38-1-5" data-name=" 0.1.5.0.0.38-1-5" class="cls-10" points="41.869 62.851 44.119 62.851 43.579 62.271 42.419 62.271 41.869 62.851"/><polygon id="_0.1.5.0.0.39-3-2" data-name=" 0.1.5.0.0.39-3-2" class="cls-11" points="41.869 60.441 42.419 61.021 42.419 62.271 41.869 62.851 41.869 60.441"/><polygon id="_0.1.5.0.0.40-25-7" data-name=" 0.1.5.0.0.40-25-7" class="cls-12" points="44.119 60.441 43.579 61.021 42.419 61.021 41.869 60.441 44.119 60.441"/><polygon id="_0.1.5.0.0.41-35-6" data-name=" 0.1.5.0.0.41-35-6" class="cls-13" points="44.119 60.441 44.119 62.851 43.579 62.271 43.579 61.021 44.119 60.441"/><circle id="path4180-4" class="cls-31" cx="28.79" cy="61.631" r="2.62"/><rect id="_0.1.5.0.0.7-6-40-4" data-name=" 0.1.5.0.0.7-6-40-4" class="cls-8" x="27.65" y="60.451" width="2.27" height="2.39"/><rect id="_0.1.5.0.0.32-4-7-2" data-name=" 0.1.5.0.0.32-4-7-2" class="cls-9" x="28.21" y="61.031" width="1.17" height="1.23"/><polygon id="_0.1.5.0.0.33-0-0-3" data-name=" 0.1.5.0.0.33-0-0-3" class="cls-10" points="28.19 62.271 27.65 62.851 29.94 62.851 29.37 62.271 28.19 62.271"/><polygon id="_0.1.5.0.0.34-7-3-2" data-name=" 0.1.5.0.0.34-7-3-2" class="cls-11" points="27.65 62.851 27.65 60.441 28.19 61.021 28.19 62.271 27.65 62.851"/><polygon id="_0.1.5.0.0.35-0-4-2" data-name=" 0.1.5.0.0.35-0-4-2" class="cls-12" points="27.65 60.441 29.94 60.441 29.37 61.021 28.19 61.021 27.65 60.441"/><polygon id="_0.1.5.0.0.36-3-0-1" data-name=" 0.1.5.0.0.36-3-0-1" class="cls-13" points="29.37 61.021 29.94 60.441 29.94 62.851 29.37 62.271 29.37 61.021"/><circle id="path4180-2-5" class="cls-31" cx="35.899" cy="61.631" r="2.62"/><rect id="_0.1.5.0.0.7-2-8" data-name=" 0.1.5.0.0.7-2-8" class="cls-8" x="34.739" y="60.451" width="2.27" height="2.39"/><rect id="_0.1.5.0.0.32-9-5" data-name=" 0.1.5.0.0.32-9-5" class="cls-9" x="35.299" y="61.031" width="1.17" height="1.23"/><polygon id="_0.1.5.0.0.33-7-7" data-name=" 0.1.5.0.0.33-7-7" class="cls-10" points="34.76 62.851 37.009 62.851 36.479 62.271 35.3 62.271 34.76 62.851"/><polygon id="_0.1.5.0.0.34-53-6" data-name=" 0.1.5.0.0.34-53-6" class="cls-11" points="34.76 60.441 35.3 61.021 35.3 62.271 34.76 62.851 34.76 60.441"/><polygon id="_0.1.5.0.0.35-4-1" data-name=" 0.1.5.0.0.35-4-1" class="cls-12" points="37.009 60.441 36.479 61.021 35.3 61.021 34.76 60.441 37.009 60.441"/><polygon id="_0.1.5.0.0.36-32-8" data-name=" 0.1.5.0.0.36-32-8" class="cls-13" points="37.009 60.441 37.009 62.851 36.479 62.271 36.479 61.021 37.009 60.441"/><rect id="_0.1.5.0.0.6-2-26-9" data-name=" 0.1.5.0.0.6-2-26-9" class="cls-8" x="34.739" y="60.451" width="2.27" height="2.39"/><rect id="_0.1.5.0.0.37-4-0-2" data-name=" 0.1.5.0.0.37-4-0-2" class="cls-9" x="35.299" y="61.031" width="1.17" height="1.23"/><polygon id="_0.1.5.0.0.38-0-5-7" data-name=" 0.1.5.0.0.38-0-5-7" class="cls-10" points="35.3 62.271 34.76 62.851 37.009 62.851 36.479 62.271 35.3 62.271"/><polygon id="_0.1.5.0.0.39-0-3-9" data-name=" 0.1.5.0.0.39-0-3-9" class="cls-11" points="34.76 62.851 34.76 60.441 35.3 61.021 35.3 62.271 34.76 62.851"/><polygon id="_0.1.5.0.0.40-5-10-5" data-name=" 0.1.5.0.0.40-5-10-5" class="cls-12" points="34.76 60.441 37.009 60.441 36.479 61.021 35.3 61.021 34.76 60.441"/><polygon id="_0.1.5.0.0.41-3-6-4" data-name=" 0.1.5.0.0.41-3-6-4" class="cls-13" points="36.479 61.021 37.009 60.441 37.009 62.851 36.479 62.271 36.479 61.021"/></g><g id="troyka-pins"><rect id="rect6749-3" class="cls-2" x="39.439" y="0.246" width="7.129" height="13.809" rx="0.14"/><rect id="rect6749-9-3-3" class="cls-2" x="32.31" y="0.246" width="7.129" height="13.809" rx="0.14"/><rect id="rect6749-9-3-4-2" class="cls-3" x="25.22" y="0.246" width="7.129" height="13.809" rx="0.14"/><rect id="rect4216" class="cls-31" x="26.17" y="7.765" width="5.229" height="5.23" rx="0.48"/><rect id="_0.1.5.0.0.6-7" data-name=" 0.1.5.0.0.6-7" class="cls-8" x="27.65" y="9.166" width="2.27" height="2.39"/><rect id="_0.1.5.0.0.37-1" data-name=" 0.1.5.0.0.37-1" class="cls-9" x="28.21" y="9.766" width="1.17" height="1.23"/><polygon id="_0.1.5.0.0.38-1" data-name=" 0.1.5.0.0.38-1" class="cls-10" points="29.37 9.766 29.9 9.206 27.65 9.206 28.19 9.766 29.37 9.766"/><polygon id="_0.1.5.0.0.39-3" data-name=" 0.1.5.0.0.39-3" class="cls-11" points="29.9 9.206 29.9 11.545 29.37 10.976 29.37 9.766 29.9 9.206"/><polygon id="_0.1.5.0.0.40-25" data-name=" 0.1.5.0.0.40-25" class="cls-12" points="29.9 11.545 27.65 11.545 28.19 10.976 29.37 10.976 29.9 11.545"/><polygon id="_0.1.5.0.0.41-35" data-name=" 0.1.5.0.0.41-35" class="cls-13" points="28.19 10.976 27.65 11.545 27.65 9.206 28.19 9.766 28.19 10.976"/><circle id="path4180" class="cls-31" cx="42.988" cy="10.376" r="2.62"/><rect id="_0.1.5.0.0.7-6-40" data-name=" 0.1.5.0.0.7-6-40" class="cls-8" x="41.868" y="9.166" width="2.27" height="2.39"/><rect id="_0.1.5.0.0.32-4-7" data-name=" 0.1.5.0.0.32-4-7" class="cls-9" x="42.408" y="9.766" width="1.17" height="1.23"/><polygon id="_0.1.5.0.0.33-0-0" data-name=" 0.1.5.0.0.33-0-0" class="cls-10" points="42.419 9.766 43.579 9.766 44.119 9.206 41.869 9.206 42.419 9.766"/><polygon id="_0.1.5.0.0.34-7-3" data-name=" 0.1.5.0.0.34-7-3" class="cls-11" points="43.579 9.766 44.119 9.206 44.119 11.545 43.579 10.976 43.579 9.766"/><polygon id="_0.1.5.0.0.35-0-4" data-name=" 0.1.5.0.0.35-0-4" class="cls-12" points="43.579 10.976 44.119 11.545 41.869 11.545 42.419 10.976 43.579 10.976"/><polygon id="_0.1.5.0.0.36-3-0" data-name=" 0.1.5.0.0.36-3-0" class="cls-13" points="42.419 9.766 42.419 10.976 41.869 11.545 41.869 9.206 42.419 9.766"/><circle id="path4180-2" class="cls-31" cx="35.899" cy="10.376" r="2.62"/><rect id="_0.1.5.0.0.7-2" data-name=" 0.1.5.0.0.7-2" class="cls-8" x="34.739" y="9.166" width="2.27" height="2.39"/><rect id="_0.1.5.0.0.32-9" data-name=" 0.1.5.0.0.32-9" class="cls-9" x="35.319" y="9.766" width="1.17" height="1.23"/><polygon id="_0.1.5.0.0.33-7" data-name=" 0.1.5.0.0.33-7" class="cls-10" points="36.479 9.766 37.009 9.206 34.76 9.206 35.3 9.766 36.479 9.766"/><polygon id="_0.1.5.0.0.34-53" data-name=" 0.1.5.0.0.34-53" class="cls-11" points="37.009 9.206 37.009 11.545 36.479 10.976 36.479 9.766 37.009 9.206"/><polygon id="_0.1.5.0.0.35-4" data-name=" 0.1.5.0.0.35-4" class="cls-12" points="37.009 11.545 34.76 11.545 35.3 10.976 36.479 10.976 37.009 11.545"/><polygon id="_0.1.5.0.0.36-32" data-name=" 0.1.5.0.0.36-32" class="cls-13" points="35.3 10.976 34.76 11.545 34.76 9.206 35.3 9.766 35.3 10.976"/><rect id="_0.1.5.0.0.6-2-26" data-name=" 0.1.5.0.0.6-2-26" class="cls-8" x="34.739" y="9.166" width="2.27" height="2.39"/><rect id="_0.1.5.0.0.37-4-0" data-name=" 0.1.5.0.0.37-4-0" class="cls-9" x="35.299" y="9.766" width="1.17" height="1.23"/><polygon id="_0.1.5.0.0.38-0-5" data-name=" 0.1.5.0.0.38-0-5" class="cls-10" points="35.3 9.766 36.479 9.766 37.009 9.206 34.76 9.206 35.3 9.766"/><polygon id="_0.1.5.0.0.39-0-3" data-name=" 0.1.5.0.0.39-0-3" class="cls-11" points="36.479 9.766 37.009 9.206 37.009 11.545 36.479 10.976 36.479 9.766"/><polygon id="_0.1.5.0.0.40-5-10" data-name=" 0.1.5.0.0.40-5-10" class="cls-12" points="36.479 10.976 37.009 11.545 34.76 11.545 35.3 10.976 36.479 10.976"/><polygon id="_0.1.5.0.0.41-3-6" data-name=" 0.1.5.0.0.41-3-6" class="cls-13" points="35.3 9.766 35.3 10.976 34.76 11.545 34.76 9.206 35.3 9.766"/></g><text class="cls-32" transform="translate(41.308 69.455)">G</text><text class="cls-32" transform="translate(34.341 69.494)">V</text><text class="cls-32" transform="translate(27.65 69.453)">S</text><g id="amperka-logo-2-2-2"><g id="g530-2-2-2"><path id="path532-2-2-2" d="M64.436,36.693A2.008,2.008,0,1,0,66.444,38.7h0a2.008,2.008,0,0,0-2.008-2.008h0m0,5.235A3.227,3.227,0,1,1,67.663,38.7a3.227,3.227,0,0,1-3.227,3.227h0"/></g><g id="g534-2-2-2"><path id="path536-2-2-2" d="M64.436,30.426a2.229,2.229,0,1,0,2.229,2.229,2.229,2.229,0,0,0-2.229-2.229h0m0,1.219a1.01,1.01,0,1,1-1.009,1.011h0a1.011,1.011,0,0,1,1.009-1.01"/></g><g id="g538-2-2-2"><path id="path540-2-2-2" d="M64.067,44.048a5.37,5.37,0,0,1-3.834-8.7l-.393-.394a.626.626,0,0,1-.06-.836.61.61,0,0,1,.857-.088h.011a.279.279,0,0,1,.044.04l.876.876a.529.529,0,0,1,0,.747h0A4.264,4.264,0,0,0,60.3,38.429a4.15,4.15,0,1,0,7.077-2.679l-.057-.057a.529.529,0,0,1,0-.746h0l.858-.857a.626.626,0,0,1,.831-.059.607.607,0,0,1,.085.857h0c-.013.016-.026.03-.04.045l-.412.412a5.37,5.37,0,0,1-4.572,8.7"/></g></g><path class="cls-33" d="M8.271,60.545V13.939a1.662,1.662,0,0,1,1.662-1.662h41.9a1.662,1.662,0,0,1,1.662,1.662V20.4a1.662,1.662,0,0,1-1.662,1.662H49.143a1.662,1.662,0,0,0-1.662,1.662v7.046a1.662,1.662,0,0,0,1.662,1.662h2.686a1.662,1.662,0,0,1,1.662,1.662V40.4a1.662,1.662,0,0,1-1.662,1.662H49.143a1.662,1.662,0,0,0-1.662,1.662v7.046a1.662,1.662,0,0,0,1.662,1.662h2.686a1.662,1.662,0,0,1,1.662,1.662v6.456a1.662,1.662,0,0,1-1.662,1.662H9.933A1.662,1.662,0,0,1,8.271,60.545Z"/><rect class="cls-34" x="38.567" y="44.583" width="4.808" height="9.721" transform="translate(81.942 98.887) rotate(180)"/><rect class="cls-35" x="38.567" y="45.735" width="4.808" height="6.816" transform="translate(81.942 98.286) rotate(180)"/><rect class="cls-34" x="38.567" y="21.583" width="4.808" height="9.721" transform="translate(81.942 52.887) rotate(180)"/><rect class="cls-35" x="38.567" y="22.735" width="4.808" height="6.816" transform="translate(81.942 52.286) rotate(180)"/><rect class="cls-36" x="6.251" y="13.655" width="33.188" height="47.173" transform="translate(45.69 74.484) rotate(180)"/><rect class="cls-37" x="6.251" y="13.655" width="33.188" height="47.173" transform="translate(45.69 74.484) rotate(180)"/><rect class="cls-38" x="5.423" y="33.171" width="34.016" height="8.141" transform="translate(44.862 74.484) rotate(180)"/><polygon class="cls-39" points="0.731 65.287 0.731 5.897 3.721 5.897 3.721 11.257 6.251 11.257 6.251 68.587 3.721 68.587 3.721 65.287 0.731 65.287"/><rect class="cls-40" x="44.183" y="55.446" width="6.192" height="3.596" transform="translate(94.558 114.488) rotate(180)"/><rect class="cls-40" x="45.567" y="33.676" width="4.808" height="7.636" transform="translate(95.942 74.988) rotate(180)"/><rect class="cls-40" x="44.183" y="15.446" width="6.192" height="3.596" transform="translate(94.558 34.488) rotate(180)"/></g></svg>