<svg id="Слой_1" data-name="Слой 1" xmlns="http://www.w3.org/2000/svg" width="25.3794mm" height="25.3935mm" viewBox="0 0 71.9416 71.9816">
  <defs>
    <style>
      .cls-1 {
        fill: #f2f2f2;
        stroke-miterlimit: 1;
        stroke-width: 0.43px;
      }

      .cls-1, .cls-10, .cls-17, .cls-19, .cls-2 {
        stroke: #000;
      }

      .cls-10, .cls-17, .cls-19, .cls-2 {
        fill: none;
        stroke-width: 0.28px;
      }

      .cls-3 {
        fill: #666;
      }

      .cls-4 {
        fill: #8d8c8c;
      }

      .cls-5 {
        fill: #8c8663;
      }

      .cls-6 {
        fill: #b8af82;
      }

      .cls-7 {
        fill: #80795b;
      }

      .cls-8 {
        fill: #5e5b43;
      }

      .cls-9 {
        fill: #9a916c;
      }

      .cls-10, .cls-17 {
        stroke-miterlimit: 10;
      }

      .cls-11, .cls-18, .cls-21, .cls-26, .cls-27 {
        isolation: isolate;
      }

      .cls-11 {
        font-size: 5.4309px;
      }

      .cls-11, .cls-18, .cls-21 {
        font-family: TrebuchetMS, Trebuchet MS;
      }

      .cls-12, .cls-38 {
        fill: #b3b3b3;
      }

      .cls-13 {
        fill: #ccc;
      }

      .cls-14 {
        fill: #181818;
      }

      .cls-15 {
        fill: #242424;
      }

      .cls-16, .cls-39 {
        fill: gray;
      }

      .cls-17, .cls-19 {
        stroke-linecap: square;
      }

      .cls-18 {
        font-size: 4.8208px;
      }

      .cls-20 {
        fill: #404040;
      }

      .cls-21 {
        font-size: 3.8706px;
      }

      .cls-22 {
        fill: #678246;
      }

      .cls-23 {
        fill: #485933;
      }

      .cls-24 {
        fill: #87a85c;
      }

      .cls-25 {
        fill: #8b8b8b;
      }

      .cls-26, .cls-27 {
        opacity: 0.15;
      }

      .cls-27, .cls-33 {
        fill: #fff;
      }

      .cls-28 {
        fill: #d0d1d0;
      }

      .cls-29, .cls-36 {
        fill: #b7b8b9;
      }

      .cls-30 {
        fill: #40bb6a;
      }

      .cls-31 {
        fill: #918f90;
      }

      .cls-32, .cls-37 {
        fill: #d7d3d5;
      }

      .cls-33 {
        fill-opacity: 0.51;
      }

      .cls-34 {
        fill: #545152;
      }

      .cls-35 {
        fill: #d2d1d3;
        stroke-opacity: 0.8;
        stroke-width: 0.01px;
      }

      .cls-35, .cls-36, .cls-37, .cls-38, .cls-39 {
        stroke: #0d0000;
      }

      .cls-36, .cls-37 {
        stroke-width: 0.02px;
      }

      .cls-38, .cls-39 {
        stroke-width: 0.03px;
      }
    </style>
  </defs>
  <title>troyka-mosfet-p-channel</title>
  <g id="troyka-mosfet-p-channel">
    <path id="troyka-one-unit" class="cls-1" d="M4.6916.21A4.5109,4.5109,0,0,1,.2209,4.7108h0v62.58a4.4807,4.4807,0,0,1,4.4907,4.4707h62.56a4.4907,4.4907,0,0,1,4.4607-4.5007h0V4.7108A4.4909,4.4909,0,0,1,67.2717.23h0Z" transform="translate(-0.0059 0.005)"/>
    <g id="troyka-pins2">
      <rect id="rect6749-8" class="cls-2" x="39.5014" y="0.215" width="7.1312" height="13.8122" rx="0.14" ry="0.14"/>
      <rect id="rect6749-9-8" class="cls-2" x="32.4102" y="0.215" width="7.1312" height="13.8122" rx="0.14" ry="0.14"/>
      <rect id="rect6749-9-3-2" class="cls-2" x="25.2991" y="0.215" width="7.1312" height="13.8122" rx="0.14" ry="0.14"/>
      <circle id="path4180-4" class="cls-3" cx="43.0719" cy="10.3366" r="2.6204"/>
      <circle id="path4180-2-5" class="cls-3" cx="35.9608" cy="10.3366" r="2.6204"/>
      <rect id="rect4216-5" class="cls-3" x="26.2392" y="7.7062" width="5.2308" height="5.2308" rx="0.4801" ry="0.4801"/>
      <rect id="_0.1.5.0.0.6-7-1" data-name=" 0.1.5.0.0.6-7-1" class="cls-4" x="27.7295" y="9.1364" width="2.2704" height="2.3904"/>
      <rect id="_0.1.5.0.0.37-1-1" data-name=" 0.1.5.0.0.37-1-1" class="cls-5" x="28.2895" y="9.7165" width="1.1702" height="1.2302"/>
      <polygon id="_0.1.5.0.0.38-1-5" data-name=" 0.1.5.0.0.38-1-5" class="cls-6" points="30 9.136 27.729 9.136 28.28 9.707 29.44 9.707 30 9.136"/>
      <polygon id="_0.1.5.0.0.39-3-2" data-name=" 0.1.5.0.0.39-3-2" class="cls-7" points="30 11.527 29.44 10.947 29.44 9.707 30 9.136 30 11.527"/>
      <polygon id="_0.1.5.0.0.40-25-7" data-name=" 0.1.5.0.0.40-25-7" class="cls-8" points="27.729 11.527 28.28 10.947 29.44 10.947 30 11.527 27.729 11.527"/>
      <polygon id="_0.1.5.0.0.41-35-6" data-name=" 0.1.5.0.0.41-35-6" class="cls-9" points="27.729 11.527 27.729 9.136 28.28 9.707 28.28 10.947 27.729 11.527"/>
      <rect id="_0.1.5.0.0.7-6-40-4" data-name=" 0.1.5.0.0.7-6-40-4" class="cls-4" x="41.9318" y="9.1364" width="2.2704" height="2.3904"/>
      <rect id="_0.1.5.0.0.32-4-7-2" data-name=" 0.1.5.0.0.32-4-7-2" class="cls-5" x="42.4818" y="9.7165" width="1.1702" height="1.2302"/>
      <polygon id="_0.1.5.0.0.33-0-0-3" data-name=" 0.1.5.0.0.33-0-0-3" class="cls-6" points="43.652 9.707 44.192 9.136 41.932 9.136 42.482 9.707 43.652 9.707"/>
      <polygon id="_0.1.5.0.0.34-7-3-2" data-name=" 0.1.5.0.0.34-7-3-2" class="cls-7" points="44.192 9.136 44.192 11.527 43.652 10.947 43.652 9.707 44.192 9.136"/>
      <polygon id="_0.1.5.0.0.35-0-4-2" data-name=" 0.1.5.0.0.35-0-4-2" class="cls-8" points="44.192 11.527 41.932 11.527 42.482 10.947 43.652 10.947 44.192 11.527"/>
      <polygon id="_0.1.5.0.0.36-3-0-1" data-name=" 0.1.5.0.0.36-3-0-1" class="cls-9" points="42.482 10.947 41.932 11.527 41.932 9.136 42.482 9.707 42.482 10.947"/>
      <rect id="_0.1.5.0.0.7-2-8" data-name=" 0.1.5.0.0.7-2-8" class="cls-4" x="34.8406" y="9.1364" width="2.2704" height="2.3904"/>
      <rect id="_0.1.5.0.0.32-9-5" data-name=" 0.1.5.0.0.32-9-5" class="cls-5" x="35.3907" y="9.7165" width="1.1702" height="1.2302"/>
      <polygon id="_0.1.5.0.0.33-7-7" data-name=" 0.1.5.0.0.33-7-7" class="cls-6" points="37.091 9.136 34.841 9.136 35.381 9.707 36.551 9.707 37.091 9.136"/>
      <polygon id="_0.1.5.0.0.34-53-6" data-name=" 0.1.5.0.0.34-53-6" class="cls-7" points="37.091 11.527 36.551 10.947 36.551 9.707 37.091 9.136 37.091 11.527"/>
      <polygon id="_0.1.5.0.0.35-4-1" data-name=" 0.1.5.0.0.35-4-1" class="cls-8" points="34.841 11.527 35.381 10.947 36.551 10.947 37.091 11.527 34.841 11.527"/>
      <polygon id="_0.1.5.0.0.36-32-8" data-name=" 0.1.5.0.0.36-32-8" class="cls-9" points="34.841 11.527 34.841 9.136 35.381 9.707 35.381 10.947 34.841 11.527"/>
      <rect id="_0.1.5.0.0.6-2-26-9" data-name=" 0.1.5.0.0.6-2-26-9" class="cls-4" x="34.8406" y="9.1364" width="2.2704" height="2.3904"/>
      <rect id="_0.1.5.0.0.37-4-0-2" data-name=" 0.1.5.0.0.37-4-0-2" class="cls-5" x="35.3907" y="9.7165" width="1.1702" height="1.2302"/>
      <polygon id="_0.1.5.0.0.38-0-5-7" data-name=" 0.1.5.0.0.38-0-5-7" class="cls-6" points="36.551 9.707 37.091 9.136 34.841 9.136 35.381 9.707 36.551 9.707"/>
      <polygon id="_0.1.5.0.0.39-0-3-9" data-name=" 0.1.5.0.0.39-0-3-9" class="cls-7" points="37.091 9.136 37.091 11.527 36.551 10.947 36.551 9.707 37.091 9.136"/>
      <polygon id="_0.1.5.0.0.40-5-10-5" data-name=" 0.1.5.0.0.40-5-10-5" class="cls-8" points="37.091 11.527 34.841 11.527 35.381 10.947 36.551 10.947 37.091 11.527"/>
      <polygon id="_0.1.5.0.0.41-3-6-4" data-name=" 0.1.5.0.0.41-3-6-4" class="cls-9" points="35.381 10.947 34.841 11.527 34.841 9.136 35.381 9.707 35.381 10.947"/>
    </g>
    <g id="troyka-pins">
      <rect id="rect6749" class="cls-2" x="25.2991" y="57.9343" width="7.1312" height="13.8122" rx="0.14" ry="0.14"/>
      <rect id="rect6749-9" class="cls-2" x="32.4102" y="57.9343" width="7.1312" height="13.8122" rx="0.14" ry="0.14"/>
      <rect id="rect6749-9-3" class="cls-10" x="39.5014" y="57.9343" width="7.1312" height="13.8122" rx="0.14" ry="0.14"/>
      <circle id="path4180" class="cls-3" cx="28.8496" cy="61.6149" r="2.6204"/>
      <circle id="path4180-2" class="cls-3" cx="35.9608" cy="61.6149" r="2.6204"/>
      <rect id="rect4216" class="cls-3" x="40.4615" y="59.0045" width="5.2308" height="5.2308" rx="0.4801" ry="0.4801"/>
      <rect id="_0.1.5.0.0.6-7" data-name=" 0.1.5.0.0.6-7" class="cls-4" x="41.9318" y="60.4347" width="2.2704" height="2.3904"/>
      <rect id="_0.1.5.0.0.37-1" data-name=" 0.1.5.0.0.37-1" class="cls-5" x="42.4818" y="61.0048" width="1.1702" height="1.2302"/>
      <polygon id="_0.1.5.0.0.38-1" data-name=" 0.1.5.0.0.38-1" class="cls-6" points="42.482 62.235 41.942 62.805 44.192 62.805 43.652 62.235 42.482 62.235"/>
      <polygon id="_0.1.5.0.0.39-3" data-name=" 0.1.5.0.0.39-3" class="cls-7" points="41.942 62.805 41.942 60.435 42.482 61.005 42.482 62.235 41.942 62.805"/>
      <polygon id="_0.1.5.0.0.40-25" data-name=" 0.1.5.0.0.40-25" class="cls-8" points="41.942 60.435 44.192 60.435 43.652 61.005 42.482 61.005 41.942 60.435"/>
      <polygon id="_0.1.5.0.0.41-35" data-name=" 0.1.5.0.0.41-35" class="cls-9" points="43.652 61.005 44.192 60.435 44.192 62.805 43.652 62.235 43.652 61.005"/>
      <rect id="_0.1.5.0.0.7-6-40" data-name=" 0.1.5.0.0.7-6-40" class="cls-4" x="27.7295" y="60.4347" width="2.2704" height="2.3904"/>
      <rect id="_0.1.5.0.0.32-4-7" data-name=" 0.1.5.0.0.32-4-7" class="cls-5" x="28.2695" y="61.0048" width="1.1702" height="1.2302"/>
      <polygon id="_0.1.5.0.0.33-0-0" data-name=" 0.1.5.0.0.33-0-0" class="cls-6" points="29.44 62.235 28.28 62.235 27.729 62.805 30 62.805 29.44 62.235"/>
      <polygon id="_0.1.5.0.0.34-7-3" data-name=" 0.1.5.0.0.34-7-3" class="cls-7" points="28.28 62.235 27.729 62.805 27.729 60.435 28.28 61.005 28.28 62.235"/>
      <polygon id="_0.1.5.0.0.35-0-4" data-name=" 0.1.5.0.0.35-0-4" class="cls-8" points="28.28 61.005 27.729 60.435 30 60.435 29.44 61.005 28.28 61.005"/>
      <polygon id="_0.1.5.0.0.36-3-0" data-name=" 0.1.5.0.0.36-3-0" class="cls-9" points="29.44 62.235 29.44 61.005 30 60.435 30 62.805 29.44 62.235"/>
      <rect id="_0.1.5.0.0.7-2" data-name=" 0.1.5.0.0.7-2" class="cls-4" x="34.8406" y="60.4347" width="2.2704" height="2.3904"/>
      <rect id="_0.1.5.0.0.32-9" data-name=" 0.1.5.0.0.32-9" class="cls-5" x="35.3707" y="61.0048" width="1.1702" height="1.2302"/>
      <polygon id="_0.1.5.0.0.33-7" data-name=" 0.1.5.0.0.33-7" class="cls-6" points="35.381 62.235 34.841 62.805 37.091 62.805 36.551 62.235 35.381 62.235"/>
      <polygon id="_0.1.5.0.0.34-53" data-name=" 0.1.5.0.0.34-53" class="cls-7" points="34.841 62.805 34.841 60.435 35.381 61.005 35.381 62.235 34.841 62.805"/>
      <polygon id="_0.1.5.0.0.35-4" data-name=" 0.1.5.0.0.35-4" class="cls-8" points="34.841 60.435 37.091 60.435 36.551 61.005 35.381 61.005 34.841 60.435"/>
      <polygon id="_0.1.5.0.0.36-32" data-name=" 0.1.5.0.0.36-32" class="cls-9" points="36.551 61.005 37.091 60.435 37.091 62.805 36.551 62.235 36.551 61.005"/>
      <rect id="_0.1.5.0.0.6-2-26" data-name=" 0.1.5.0.0.6-2-26" class="cls-4" x="34.8406" y="60.4347" width="2.2704" height="2.3904"/>
      <rect id="_0.1.5.0.0.37-4-0" data-name=" 0.1.5.0.0.37-4-0" class="cls-5" x="35.3907" y="61.0048" width="1.1702" height="1.2302"/>
      <polygon id="_0.1.5.0.0.38-0-5" data-name=" 0.1.5.0.0.38-0-5" class="cls-6" points="36.551 62.235 35.381 62.235 34.841 62.805 37.091 62.805 36.551 62.235"/>
      <polygon id="_0.1.5.0.0.39-0-3" data-name=" 0.1.5.0.0.39-0-3" class="cls-7" points="35.381 62.235 34.841 62.805 34.841 60.435 35.381 61.005 35.381 62.235"/>
      <polygon id="_0.1.5.0.0.40-5-10" data-name=" 0.1.5.0.0.40-5-10" class="cls-8" points="35.381 61.005 34.841 60.435 37.091 60.435 36.551 61.005 35.381 61.005"/>
      <polygon id="_0.1.5.0.0.41-3-6" data-name=" 0.1.5.0.0.41-3-6" class="cls-9" points="36.551 62.235 36.551 61.005 37.091 60.435 37.091 62.805 36.551 62.235"/>
      <text class="cls-11" transform="translate(41.2715 69.5059)">G</text>
      <text class="cls-11" transform="translate(34.2905 69.4757)">V</text>
      <text class="cls-11" transform="translate(27.4492 69.5059)">S</text>
    </g>
    <g id="T3-DPak">
      <rect id="rect22-9" class="cls-12" x="27.2794" y="33.8104" width="2.4104" height="2.6504"/>
      <rect id="rect24-5" class="cls-12" x="27.2794" y="40.2015" width="3.6006" height="2.6504"/>
      <rect id="rect26-0" class="cls-12" x="27.2794" y="27.3994" width="3.6006" height="2.6504"/>
      <polygon id="polygon15-4" class="cls-12" points="6.666 30.94 6.666 39.441 8.016 42.612 10.397 42.612 10.397 27.779 8.016 27.779 6.666 30.94"/>
      <rect id="rect31-0" class="cls-13" x="30.9" y="40.2015" width="1.3302" height="2.6504"/>
      <rect id="rect33-9" class="cls-13" x="30.9" y="27.3994" width="1.3302" height="2.6504"/>
      <polygon class="cls-14" points="11.997 25.789 10.217 27.259 10.217 42.892 11.997 44.512 27.379 44.512 27.379 25.789 11.997 25.789"/>
      <polygon class="cls-15" points="12.567 26.509 10.957 27.989 10.957 42.312 12.567 43.822 26.959 43.822 26.959 26.509 12.567 26.509"/>
      <rect id="rect38-5" class="cls-12" x="32.2202" y="40.2015" width="3.0405" height="2.6504"/>
      <rect id="rect40-2" class="cls-12" x="32.2202" y="27.3994" width="3.0405" height="2.6504"/>
    </g>
    <g id="T2-SOT23">
      <path id="path3479-7" class="cls-12" d="M7.6821,48.4578v1.62h-2.57v-1.62Z" transform="translate(-0.0059 0.005)"/>
      <path id="path3481-0" class="cls-16" d="M7.442,48.4578v1.62h-.85v-1.62Z" transform="translate(-0.0059 0.005)"/>
      <path id="path3483-6" class="cls-12" d="M7.6821,54.0087v1.6h-2.57v-1.6Z" transform="translate(-0.0059 0.005)"/>
      <path id="path3485-6" class="cls-16" d="M7.442,54.0087v1.6h-.85v-1.6Z" transform="translate(-0.0059 0.005)"/>
      <path id="path3487-1" class="cls-12" d="M11.1426,51.2183v1.62h2.56v-1.62Z" transform="translate(-0.0059 0.005)"/>
      <path id="path3489-6" class="cls-16" d="M11.4427,51.2183v1.62h.79v-1.62Z" transform="translate(-0.0059 0.005)"/>
      <path id="path3477-9" class="cls-15" d="M11.1526,47.8177v8.4214h-3.48V47.8177Z" transform="translate(-0.0059 0.005)"/>
    </g>
    <g id="T1-SOT23">
      <path id="path3479-7-2" class="cls-12" d="M39.0071,54.3288h-1.66v-2.58h1.66Z" transform="translate(-0.0059 0.005)"/>
      <path id="path3481-0-2" class="cls-16" d="M39.0071,52.8386h-1.66v-.83h1.66Z" transform="translate(-0.0059 0.005)"/>
      <path id="path3483-6-2" class="cls-12" d="M33.4562,54.3288h-1.61v-2.58h1.61Z" transform="translate(-0.0059 0.005)"/>
      <path id="path3485-6-2" class="cls-16" d="M33.4562,52.8386h-1.61v-.83h1.61Z" transform="translate(-0.0059 0.005)"/>
      <path id="path3487-1-2" class="cls-12" d="M36.2067,45.7374h-1.6v2.55h1.61Z" transform="translate(-0.0059 0.005)"/>
      <path id="path3489-6-2" class="cls-16" d="M36.2067,47.1976h-1.6v.81h1.61Z" transform="translate(-0.0059 0.005)"/>
      <path id="path3477-9-2" class="cls-15" d="M39.6072,51.7684H31.2059V48.2878h8.4013Z" transform="translate(-0.0059 0.005)"/>
    </g>
    <g id="screw-annotation">
      <path id="path33794-6-00" class="cls-17" d="M42.3877,25.5541h9.7716" transform="translate(-0.0059 0.005)"/>
      <path id="path33794-6-0-3" class="cls-10" d="M42.3877,46.1775h9.7516" transform="translate(-0.0059 0.005)"/>
      <text class="cls-18" transform="translate(45.0019 32.3897)">L−</text>
      <text class="cls-18" transform="translate(45.0019 21.9781)">L+</text>
      <path id="path33789-81" class="cls-10" d="M42.3877,14.8924v8.7214" transform="translate(-0.0059 0.005)"/>
      <path id="path33794-7" class="cls-19" d="M42.3877,14.8924h2.13" transform="translate(-0.0059 0.005)"/>
      <path id="path33789-8-9" class="cls-17" d="M42.3877,47.8978v8.7114" transform="translate(-0.0059 0.005)"/>
      <path id="path33794-6-2-7" class="cls-17" d="M42.4477,56.6092h2" transform="translate(-0.0059 0.005)"/>
      <text class="cls-18" transform="translate(44.9121 42.5714)">P−</text>
      <text class="cls-18" transform="translate(44.9121 53.0431)">P+</text>
      <path id="path33789-8-8-1" class="cls-17" d="M42.3877,25.5541V46.1775" transform="translate(-0.0059 0.005)"/>
    </g>
    <g id="JP1-2.54-2pins">
      <polygon id="_0.1.5.0.0.2-4-1-4-2-8" data-name=" 0.1.5.0.0.2-4-1-4-2-8" class="cls-20" points="62.565 60.045 61.055 58.514 57.064 58.514 53.694 58.514 49.723 58.514 48.193 60.045 48.193 64.025 49.723 65.546 53.694 65.546 57.064 65.546 61.055 65.546 62.565 64.025 62.565 60.045"/>
      <polygon id="_0.1.5.0.0.5-5-9-1-4-7" data-name=" 0.1.5.0.0.5-5-9-1-4-7" class="cls-20" points="62.565 60.045 61.055 58.514 57.064 58.514 53.694 58.514 49.723 58.514 48.193 60.045 48.193 64.025 49.723 65.546 53.694 65.546 57.064 65.546 61.055 65.546 62.565 64.025 62.565 60.045"/>
      <rect id="_0.1.5.0.0.6-6-6-6-9-7" data-name=" 0.1.5.0.0.6-6-6-6-9-7" class="cls-4" x="50.6232" y="60.7248" width="2.3204" height="2.3204"/>
      <rect id="_0.1.5.0.0.7-8-9-1-2-4" data-name=" 0.1.5.0.0.7-8-9-1-2-4" class="cls-4" x="57.9043" y="60.7248" width="2.3204" height="2.3204"/>
      <rect id="_0.1.5.0.0.32-0-8-6-2-6" data-name=" 0.1.5.0.0.32-0-8-6-2-6" class="cls-5" x="58.4644" y="61.2949" width="1.2002" height="1.2002"/>
      <polygon id="_0.1.5.0.0.33-77-2-3-1-8" data-name=" 0.1.5.0.0.33-77-2-3-1-8" class="cls-6" points="60.235 60.725 57.904 60.725 58.474 61.295 59.665 61.295 60.235 60.725"/>
      <polygon id="_0.1.5.0.0.34-4-5-3-9-4" data-name=" 0.1.5.0.0.34-4-5-3-9-4" class="cls-7" points="60.235 63.045 59.665 62.485 59.665 61.295 60.235 60.725 60.235 63.045"/>
      <polygon id="_0.1.5.0.0.35-3-5-5-0-6" data-name=" 0.1.5.0.0.35-3-5-5-0-6" class="cls-8" points="57.904 63.045 58.474 62.485 59.665 62.485 60.235 63.045 57.904 63.045"/>
      <polygon id="_0.1.5.0.0.36-1-4-5-0-9" data-name=" 0.1.5.0.0.36-1-4-5-0-9" class="cls-9" points="57.904 63.045 57.904 60.725 58.474 61.295 58.474 62.485 57.904 63.045"/>
      <rect id="_0.1.5.0.0.37-36-9-3-9-7" data-name=" 0.1.5.0.0.37-36-9-3-9-7" class="cls-5" x="51.1932" y="61.2949" width="1.1902" height="1.2002"/>
      <polygon id="_0.1.5.0.0.38-3-1-2-5-0" data-name=" 0.1.5.0.0.38-3-1-2-5-0" class="cls-6" points="52.944 60.725 50.623 60.725 51.193 61.295 52.383 61.295 52.944 60.725"/>
      <polygon id="_0.1.5.0.0.39-01-2-8-2-5" data-name=" 0.1.5.0.0.39-01-2-8-2-5" class="cls-7" points="52.944 63.045 52.383 62.485 52.383 61.295 52.944 60.725 52.944 63.045"/>
      <polygon id="_0.1.5.0.0.40-9-5-2-5-7" data-name=" 0.1.5.0.0.40-9-5-2-5-7" class="cls-8" points="50.623 63.045 51.193 62.485 52.383 62.485 52.944 63.045 50.623 63.045"/>
      <polygon id="_0.1.5.0.0.41-0-0-5-1-0" data-name=" 0.1.5.0.0.41-0-0-5-1-0" class="cls-9" points="50.623 63.045 50.623 60.725 51.193 61.295 51.193 62.485 50.623 63.045"/>
    </g>
    <text class="cls-21" transform="translate(51.7934 69.4859)">V=P+</text>
    <g id="amperka-logo">
      <path id="path532-5-4-9-8-5-6-8-0" d="M12.0028,13.3822a2,2,0,1,1-2,2,2,2,0,0,1,2-2m0,5.3208a3.2805,3.2805,0,1,0-3.3006-3.29h0a3.2706,3.2706,0,0,0,3.25,3.2906c.0167,0,.0334,0,.05,0h0" transform="translate(-0.0059 0.005)"/>
      <path id="path536-1-4-0-5-1-3-3-2" d="M12.0028,7.0011A2.2729,2.2729,0,1,1,11.9317,7c.0237,0,.0474,0,.0711.001h0m0,1.23a1,1,0,1,0,1,1,1,1,0,0,0-1-1" transform="translate(-0.0059 0.005)"/>
      <path id="path540-3-7-2-9-1-0-6-4" d="M12.3228,20.8634a5.4708,5.4708,0,0,0,5.0608-5.0908,5.3113,5.3113,0,0,0-1.18-3.7707l.4-.4a.61.61,0,0,0,.06-.85.6.6,0,0,0-.84,0h-.07l-.89.89a.58.58,0,0,0,0,.76,4.2207,4.2207,0,1,1-6.0009.08l.14-.09v-.07a.54.54,0,0,0,0-.76l-.86-.87a.65.65,0,0,0-.85-.06.63.63,0,0,0,0,.88h0l.42.42a5.4108,5.4108,0,0,0-1.24,3.4706,5.4808,5.4808,0,0,0,5.4906,5.4711l.04,0h.39" transform="translate(-0.0059 0.005)"/>
    </g>
    <g id="X1-screw-3.96-4pin">
      <rect id="rect9729-7-5-7-3-8-5-2-9" class="cls-22" x="52.1934" y="14.8874" width="19.4731" height="41.7168" rx="2.3604" ry="2.3604"/>
      <rect id="rect9729-3-2-1-4-1-3-4-0-8" class="cls-23" x="68.286" y="14.9274" width="3.4006" height="41.6867" rx="0.5701" ry="0.5701"/>
      <rect id="rect9729-3-4-6-2-0-0-5-6-3-3" class="cls-24" x="52.2234" y="14.8374" width="3.4006" height="41.7868" rx="0.5701" ry="0.5701"/>
      <g id="pin4">
        <path id="_0.2.13.5.1.0-8-0-9-31" data-name=" 0.2.13.5.1.0-8-0-9-31" class="cls-24" d="M66.7116,51.4183a4.7507,4.7507,0,0,1-4.7007,4.6908V46.7176a4.7207,4.7207,0,0,1,4.7407,4.7006h-.04Z" transform="translate(-0.0059 0.005)"/>
        <path id="_0.2.13.5.1.1-5-0-2-66" data-name=" 0.2.13.5.1.1-5-0-2-66" class="cls-23" d="M57.16,51.4183a4.7507,4.7507,0,0,1,4.79-4.7107h0v9.3915A4.7309,4.7309,0,0,1,57.14,51.45v-.0014h0Z" transform="translate(-0.0059 0.005)"/>
        <path id="_0.2.13.5.1.2.0-8-9-1-1" data-name=" 0.2.13.5.1.2.0-8-9-1-1" class="cls-25" d="M65.7815,51.4183a3.8607,3.8607,0,0,0-7.7113,0,3.7112,3.7112,0,0,0,1.11,2.6505,3.8707,3.8707,0,0,0,6.6011-2.6505Z" transform="translate(-0.0059 0.005)"/>
        <path id="_0.2.13.5.1.3.0-1-9-3-0" data-name=" 0.2.13.5.1.3.0-1-9-3-0" class="cls-3" d="M62.0109,48.0078a3.13,3.13,0,0,1,.91.13v6.7311a3.1413,3.1413,0,0,1-.91.14,2.8907,2.8907,0,0,1-.88-.14V48.1178A4.3419,4.3419,0,0,1,62.0109,48.0078Z" transform="translate(-0.0059 0.005)"/>
        <path id="_0.2.13.5.1.4.0-0-6-5-2" data-name=" 0.2.13.5.1.4.0-0-6-5-2" class="cls-26" d="M61.1807,55.0089h-.17V48.1378h.15Z" transform="translate(-0.0059 0.005)"/>
        <path id="_0.2.13.5.1.4.1-0-85-6-0" data-name=" 0.2.13.5.1.4.1-0-85-6-0" class="cls-27" d="M62.661,48.0678h.17v6.9411h-.17Z" transform="translate(-0.0059 0.005)"/>
        <path d="M62.0109,47.4777a4.0007,4.0007,0,1,0,4.0006,4.0006A4.0006,4.0006,0,0,0,62.0109,47.4777Zm0,7.5312a3.5606,3.5606,0,1,1,3.56-3.5606h0A3.5605,3.5605,0,0,1,62.0109,55.0089Z" transform="translate(-0.0059 0.005)"/>
      </g>
      <g id="pin3">
        <path id="_0.2.13.5.1.0-8-0-9-31-2" data-name=" 0.2.13.5.1.0-8-0-9-31-2" class="cls-24" d="M66.7116,41.0066a4.7307,4.7307,0,0,1-4.7007,4.6908V36.3059A4.7507,4.7507,0,0,1,66.7116,41.0066Z" transform="translate(-0.0059 0.005)"/>
        <path id="_0.2.13.5.1.1-5-0-2-66-2" data-name=" 0.2.13.5.1.1-5-0-2-66-2" class="cls-23" d="M57.16,41.0066a4.7407,4.7407,0,0,1,4.79-4.6907h.0006v9.4015A4.7308,4.7308,0,0,1,57.14,41.0766h0Z" transform="translate(-0.0059 0.005)"/>
        <path id="_0.2.13.5.1.2.0-8-9-1-1-2" data-name=" 0.2.13.5.1.2.0-8-9-1-1-2" class="cls-25" d="M65.7815,41.0066a3.8607,3.8607,0,0,0-7.7113,0,3.7411,3.7411,0,0,0,1.11,2.66,3.8607,3.8607,0,0,0,5.46.0011l.0011-.0011h0A3.8008,3.8008,0,0,0,65.7815,41.0066Z" transform="translate(-0.0059 0.005)"/>
        <path id="_0.2.13.5.1.3.0-1-9-3-0-2" data-name=" 0.2.13.5.1.3.0-1-9-3-0-2" class="cls-3" d="M62.0109,37.5861a4.0045,4.0045,0,0,1,.91.14v6.7311a2.7886,2.7886,0,0,1-.91.13,2.6089,2.6089,0,0,1-.88-.13V37.7161A4.3477,4.3477,0,0,1,62.0109,37.5861Z" transform="translate(-0.0059 0.005)"/>
        <path id="_0.2.13.5.1.4.0-0-6-5-2-2" data-name=" 0.2.13.5.1.4.0-0-6-5-2-2" class="cls-26" d="M61.1807,44.5872h-.17V37.7361h.15Z" transform="translate(-0.0059 0.005)"/>
        <path id="_0.2.13.5.1.4.1-0-85-6-0-2" data-name=" 0.2.13.5.1.4.1-0-85-6-0-2" class="cls-27" d="M62.661,37.6661h.17v6.9211h-.17Z" transform="translate(-0.0059 0.005)"/>
        <path d="M62.0109,37.076a4.0007,4.0007,0,1,0,4.0006,4.0006A4.0006,4.0006,0,0,0,62.0109,37.076Zm0,7.5512a3.5606,3.5606,0,1,1,3.56-3.5606h0a3.55,3.55,0,0,1-3.54,3.5606Z" transform="translate(-0.0059 0.005)"/>
      </g>
      <g id="pin2">
        <path id="_0.2.13.5.1.0-8-0-9-31-3" data-name=" 0.2.13.5.1.0-8-0-9-31-3" class="cls-24" d="M66.7116,30.615a4.7507,4.7507,0,0,1-4.7007,4.6907V25.9142A4.7407,4.7407,0,0,1,66.7116,30.615Z" transform="translate(-0.0059 0.005)"/>
        <path id="_0.2.13.5.1.1-5-0-2-66-3" data-name=" 0.2.13.5.1.1-5-0-2-66-3" class="cls-23" d="M57.16,30.615a4.7408,4.7408,0,0,1,4.7608-4.7008h.09v9.4015A4.7408,4.7408,0,0,1,57.2,30.665h0Z" transform="translate(-0.0059 0.005)"/>
        <path id="_0.2.13.5.1.2.0-8-9-1-1-3" data-name=" 0.2.13.5.1.2.0-8-9-1-1-3" class="cls-25" d="M65.7815,30.615a3.8607,3.8607,0,0,0-7.7113,0,3.741,3.741,0,0,0,1.11,2.66,3.8706,3.8706,0,0,0,5.4709,0A3.8011,3.8011,0,0,0,65.7815,30.615Z" transform="translate(-0.0059 0.005)"/>
        <path id="_0.2.13.5.1.3.0-1-9-3-0-3" data-name=" 0.2.13.5.1.3.0-1-9-3-0-3" class="cls-3" d="M62.0109,27.1944a3.1413,3.1413,0,0,1,.91.14v6.7311a3.13,3.13,0,0,1-.91.13,3.291,3.291,0,0,1-.88-.13V27.3244A3.7429,3.7429,0,0,1,62.0109,27.1944Z" transform="translate(-0.0059 0.005)"/>
        <path id="_0.2.13.5.1.4.0-0-6-5-2-3" data-name=" 0.2.13.5.1.4.0-0-6-5-2-3" class="cls-26" d="M61.1807,34.1955h-.17V27.3444h.15Z" transform="translate(-0.0059 0.005)"/>
        <path id="_0.2.13.5.1.4.1-0-85-6-0-3" data-name=" 0.2.13.5.1.4.1-0-85-6-0-3" class="cls-27" d="M62.661,27.2744h.17v6.9211h-.17Z" transform="translate(-0.0059 0.005)"/>
        <path d="M62.0109,26.6843a4.0007,4.0007,0,1,0,4.0006,4.0007A4.0007,4.0007,0,0,0,62.0109,26.6843Zm0,7.5512a3.5606,3.5606,0,1,1,3.56-3.5605h0A3.5605,3.5605,0,0,1,62.0109,34.2355Z" transform="translate(-0.0059 0.005)"/>
      </g>
      <g id="pin1">
        <path id="_0.2.13.5.1.0-8-0-9-31-4" data-name=" 0.2.13.5.1.0-8-0-9-31-4" class="cls-24" d="M66.7116,20.2133a4.7406,4.7406,0,0,1-4.7007,4.6907V15.5125A4.7507,4.7507,0,0,1,66.7116,20.2133Z" transform="translate(-0.0059 0.005)"/>
        <path id="_0.2.13.5.1.1-5-0-2-66-4" data-name=" 0.2.13.5.1.1-5-0-2-66-4" class="cls-23" d="M57.16,20.2133a4.7408,4.7408,0,0,1,4.78-4.7008h0V24.914A4.7407,4.7407,0,0,1,57.13,20.2633h0Z" transform="translate(-0.0059 0.005)"/>
        <path id="_0.2.13.5.1.2.0-8-9-1-1-4" data-name=" 0.2.13.5.1.2.0-8-9-1-1-4" class="cls-25" d="M65.7815,20.2133a3.8607,3.8607,0,0,0-7.7113,0,3.741,3.741,0,0,0,1.11,2.66,3.8707,3.8707,0,0,0,6.6011-2.66Z" transform="translate(-0.0059 0.005)"/>
        <path id="_0.2.13.5.1.3.0-1-9-3-0-4" data-name=" 0.2.13.5.1.3.0-1-9-3-0-4" class="cls-3" d="M62.0109,16.7927a3.1413,3.1413,0,0,1,.91.14v6.7311a2.8192,2.8192,0,0,1-.91.13,2.8919,2.8919,0,0,1-.88-.13V16.9227A4.3548,4.3548,0,0,1,62.0109,16.7927Z" transform="translate(-0.0059 0.005)"/>
        <path id="_0.2.13.5.1.4.0-0-6-5-2-4" data-name=" 0.2.13.5.1.4.0-0-6-5-2-4" class="cls-26" d="M61.1807,23.7939h-.17V17.0028h.15Z" transform="translate(-0.0059 0.005)"/>
        <path id="_0.2.13.5.1.4.1-0-85-6-0-4" data-name=" 0.2.13.5.1.4.1-0-85-6-0-4" class="cls-27" d="M62.661,16.8727h.17v6.9212h-.17Z" transform="translate(-0.0059 0.005)"/>
        <path d="M62.0109,16.2826a4.0007,4.0007,0,1,0,4.0006,4.0007A4.0007,4.0007,0,0,0,62.0109,16.2826Zm0,7.5513a3.5606,3.5606,0,1,1,3.56-3.5606h0A3.5606,3.5606,0,0,1,62.0109,23.8339Z" transform="translate(-0.0059 0.005)"/>
      </g>
    </g>
    <g id="L1-0603">
      <path id="path6859-4-3-0-1-9-0-7-4" class="cls-28" d="M16.5735,62.25V59.55h6.4811V62.25H16.5735" transform="translate(-0.0059 0.005)"/>
      <path id="path6871-9-6-0-4-5-4-2-1" class="cls-29" d="M17.0536,59.77a.23.23,0,0,1,.21-.21h5.1009a.21.21,0,0,1,.21.21v2.24a.2.2,0,0,1-.2.2H17.2836a.2.2,0,0,1-.2-.2h0Z" transform="translate(-0.0059 0.005)"/>
      <path id="path6873-8-4-1-5-5-5-7-8" class="cls-30" d="M18.0538,62.25h3.5305V59.56h-3.53Z" transform="translate(-0.0059 0.005)"/>
      <path id="path6877-7-1-7-5-9-6-3-9" class="cls-30" d="M21.5243,59.59H18.0538V62.22h3.4705Zm.06,0V62.25h-3.53V59.56h3.5305" transform="translate(-0.0059 0.005)"/>
      <path id="path6879-87-7-8-1-1-8-9-2" class="cls-31" d="M21.4343,59.65h-3.3v2.5h3.3Zm.21-.11v2.8H18.0538a.12.12,0,0,1-.1-.11V59.56a.15.15,0,0,1,.1-.09h3.5305a.06.06,0,0,1,.08,0h0" transform="translate(-0.0059 0.005)"/>
      <path id="path6881-0-8-1-8-3-8-3-7" class="cls-32" d="M18.0538,62.25h-.56V59.54h.56Z" transform="translate(-0.0059 0.005)"/>
      <path id="path6875-42-1-4-9-5-0-2-6" class="cls-31" d="M21.4643,59.65H18.0538v2.5h3.3705Zm.16,0v2.6a.08.08,0,0,1-.08.08H18.0538v-.07h0V59.58a.08.08,0,0,1,.07-.08h3.5305a.07.07,0,0,1,.07.07h0" transform="translate(-0.0059 0.005)"/>
      <path id="path6883-46-4-9-5-9-8-4-5" class="cls-32" d="M22.1744,62.25h-.56V59.54h.56Z" transform="translate(-0.0059 0.005)"/>
      <path id="path6897-5-1-0-5-0-7-8-1" class="cls-33" d="M18.0538,59.65h3.4905v2.57H18.0538Z" transform="translate(-0.0059 0.005)"/>
      <path id="path6963-86-8-2-6-0-1-7-9" class="cls-34" d="M21.0542,61.13h-.39v-.4h.39Z" transform="translate(-0.0059 0.005)"/>
    </g>
    <g id="R5-0603">
      <rect id="rect21332-8-1-9-3-8-2-40-6-2-0-6-6-0-5-6-4-8-7-2-0-7-2-3" class="cls-35" x="16.4176" y="54.9839" width="2.7204" height="2.5904"/>
      <rect id="rect21332-8-1-9-3-8-2-40-6-2-0-6-6-0-5-6-4-8-7-2-0-7-2-3-2" class="cls-35" x="16.4176" y="51.0932" width="2.7204" height="2.5904"/>
      <rect class="cls-36" x="16.4076" y="51.9034" width="2.7304" height="4.7208" rx="0.3401" ry="0.3401"/>
      <path id="path26345-3-6-9-3-6-4-2-5-6-8-7-9-0-90-3-1-3-9-2-2-8-5-0-2-3" class="cls-37" d="M19.1439,52.2885v3.9406h-2.73V52.2885Z" transform="translate(-0.0059 0.005)"/>
      <path id="path26341-4-2-6-0-8-1-1-1-5-0-3-3-1-8-3-8-7-7-7-2-4-9-7-2-3" class="cls-15" d="M19.1439,55.779V52.7785h-2.73V55.779Z" transform="translate(-0.0059 0.005)"/>
    </g>
    <g id="R4-0603">
      <rect id="rect21332-8-1-9-3-8-2-40-6-2-0-6-6-0-5-6-4-8-7-2-0-7-2-3-3" class="cls-35" x="20.1682" y="54.9839" width="2.7204" height="2.5904"/>
      <rect id="rect21332-8-1-9-3-8-2-40-6-2-0-6-6-0-5-6-4-8-7-2-0-7-2-3-4" class="cls-35" x="20.1682" y="51.0932" width="2.7204" height="2.5904"/>
      <rect class="cls-36" x="20.1582" y="51.9034" width="2.7304" height="4.7208" rx="0.3401" ry="0.3401"/>
      <path id="path26345-3-6-9-3-6-4-2-5-6-8-7-9-0-90-3-1-3-9-2-2-8-5-0-2-3-2" class="cls-37" d="M22.8945,52.2885v3.9406h-2.73V52.2885Z" transform="translate(-0.0059 0.005)"/>
      <path id="path26341-4-2-6-0-8-1-1-1-5-0-3-3-1-8-3-8-7-7-7-2-4-9-7-2-3-2" class="cls-15" d="M22.8945,55.779V52.7785h-2.73V55.779Z" transform="translate(-0.0059 0.005)"/>
    </g>
    <g id="R3-0603">
      <rect id="rect21332-8-1-9-3-8-2-40-6-2-0-6-6-0-5-6-4-8-7-2-0-7-2-3-5" class="cls-35" x="23.7988" y="51.1432" width="2.5904" height="2.7204"/>
      <rect id="rect21332-8-1-9-3-8-2-40-6-2-0-6-6-0-5-6-4-8-7-2-0-7-2-3-6" class="cls-35" x="27.6894" y="51.1432" width="2.5904" height="2.7204"/>
      <rect class="cls-36" x="24.739" y="51.1332" width="4.7208" height="2.7304" rx="0.3401" ry="0.3401"/>
      <path id="path26345-3-6-9-3-6-4-2-5-6-8-7-9-0-90-3-1-3-9-2-2-8-5-0-2-3-3" class="cls-37" d="M29.0755,53.8587H25.1449v-2.73h3.9306Z" transform="translate(-0.0059 0.005)"/>
      <path id="path26341-4-2-6-0-8-1-1-1-5-0-3-3-1-8-3-8-7-7-7-2-4-9-7-2-3-3" class="cls-15" d="M25.585,53.8587h3.05v-2.73h-3.05Z" transform="translate(-0.0059 0.005)"/>
    </g>
    <g id="R2-0603">
      <rect id="rect21332-8-1-9-3-8-2-40-6-2-0-6-6-0-5-6-4-8-7-2-0-7-2-3-7" class="cls-35" x="37.8811" y="37.341" width="2.7204" height="2.5904"/>
      <rect id="rect21332-8-1-9-3-8-2-40-6-2-0-6-6-0-5-6-4-8-7-2-0-7-2-3-8" class="cls-35" x="37.8811" y="41.2316" width="2.7204" height="2.5904"/>
      <rect class="cls-36" x="37.8811" y="38.2912" width="2.7304" height="4.7208" rx="0.3401" ry="0.3401"/>
      <path id="path26345-3-6-9-3-6-4-2-5-6-8-7-9-0-90-3-1-3-9-2-2-8-5-0-2-3-4" class="cls-37" d="M37.887,42.6069V38.6763h2.73v3.9306Z" transform="translate(-0.0059 0.005)"/>
      <path id="path26341-4-2-6-0-8-1-1-1-5-0-3-3-1-8-3-8-7-7-7-2-4-9-7-2-3-4" class="cls-15" d="M37.887,39.1163v3h2.73v-3Z" transform="translate(-0.0059 0.005)"/>
    </g>
    <g id="R1-0603">
      <rect id="rect21332-8-1-9-3-8-2-40-6-2-0-6-6-0-5-6-4-8-7-2-0-7-2-3-9" class="cls-35" x="32.0201" y="32.1702" width="2.7204" height="2.5904"/>
      <rect id="rect21332-8-1-9-3-8-2-40-6-2-0-6-6-0-5-6-4-8-7-2-0-7-2-3-10" class="cls-35" x="32.0201" y="36.0608" width="2.7204" height="2.5904"/>
      <rect class="cls-36" x="32.0101" y="33.1203" width="2.7304" height="4.7208" rx="0.3401" ry="0.3401"/>
      <path id="path26345-3-6-9-3-6-4-2-5-6-8-7-9-0-90-3-1-3-9-2-2-8-5-0-2-3-5" class="cls-37" d="M32.006,37.4461V33.5154h2.73v3.9307Z" transform="translate(-0.0059 0.005)"/>
      <path id="path26341-4-2-6-0-8-1-1-1-5-0-3-3-1-8-3-8-7-7-7-2-4-9-7-2-3-5" class="cls-15" d="M32.006,34.0055V37.006h2.73V34.0055Z" transform="translate(-0.0059 0.005)"/>
    </g>
    <g id="D1-SOD323">
      <rect id="rect21332-8-1-9-3-5-5-5-7-7-6" class="cls-35" x="37.311" y="30.98" width="3.8006" height="4.0807"/>
      <rect id="rect21332-1-0-1-9-2-0-7-3-5-9-5" class="cls-35" x="37.311" y="24.959" width="3.8006" height="4.0807"/>
      <path id="path32574-5-6-2-6-7" class="cls-38" d="M40.5174,26.0042h-2.7v1.9h2.7Z" transform="translate(-0.0059 0.005)"/>
      <path id="path32578-9-7-2-9-4" class="cls-38" d="M40.4774,32.1652h-2.47v1.9h2.54Z" transform="translate(-0.0059 0.005)"/>
      <path id="path32580-3-1-0-1-3" class="cls-39" d="M40.4774,33.0053h-2.47v.6h2.54Z" transform="translate(-0.0059 0.005)"/>
      <path id="path32590-0-9-7-9-9" class="cls-15" d="M41.0975,27.0844H37.3369v5.9209h3.7606Z" transform="translate(-0.0059 0.005)"/>
      <path id="path32576-2-7-7-0-2" class="cls-39" d="M40.5174,26.4643h-2.7v.61h2.7Z" transform="translate(-0.0059 0.005)"/>
    </g>
  </g>
</svg>
