<svg id="troyka-5mm-led-module-green" xmlns="http://www.w3.org/2000/svg" xmlns:xlink="http://www.w3.org/1999/xlink" width="25.4mm" height="25.4mm" viewBox="0 0 72 72">
  <defs>
    <style>
      .cls-1 {
        fill: #f2f2f2;
        stroke-miterlimit: 1;
        stroke-width: 0.43px;
      }

      .cls-1, .cls-2 {
        stroke: #000;
      }

      .cls-17, .cls-2 {
        fill: none;
      }

      .cls-2 {
        stroke-width: 0.28px;
      }

      .cls-3 {
        fill: #666;
      }

      .cls-4 {
        fill: #8d8c8c;
      }

      .cls-5 {
        fill: #8c8663;
      }

      .cls-6 {
        fill: #b8af82;
      }

      .cls-7 {
        fill: #80795b;
      }

      .cls-8 {
        fill: #5e5b43;
      }

      .cls-9 {
        fill: #9a916c;
      }

      .cls-10, .cls-16, .cls-21 {
        isolation: isolate;
      }

      .cls-10 {
        font-size: 5.41px;
        font-family: TrebuchetMS, Trebuchet MS;
      }

      .cls-11 {
        fill: #404040;
      }

      .cls-12 {
        fill: #b3b3b3;
      }

      .cls-13 {
        fill: gray;
      }

      .cls-14 {
        fill: #1a1a1a;
      }

      .cls-15, .cls-16 {
        fill: lime;
      }

      .cls-16, .cls-19 {
        opacity: 0.5;
      }

      .cls-17 {
        stroke: lime;
        stroke-width: 0.2px;
      }

      .cls-17, .cls-20, .cls-21 {
        stroke-linecap: round;
      }

      .cls-18 {
        fill: url(#Безымянный_градиент);
      }

      .cls-19 {
        fill: url(#Безымянный_градиент_3);
      }

      .cls-20 {
        stroke-width: 0.27px;
        fill: url(#Безымянный_градиент_5);
        stroke: url(#Безымянный_градиент_6);
      }

      .cls-21 {
        stroke-width: 0.07px;
        opacity: 0.84;
        fill: url(#Безымянный_градиент_7);
        stroke: url(#Безымянный_градиент_8);
      }
    </style>
    <radialGradient id="Безымянный_градиент" data-name="Безымянный градиент" cx="-34.59" cy="169.65" r="6.18" gradientTransform="matrix(2.83, 0, 0, -2.89, 133.46, 525.84)" gradientUnits="userSpaceOnUse">
      <stop offset="0" stop-color="lime"/>
      <stop offset="1" stop-color="lime" stop-opacity="0"/>
    </radialGradient>
    <radialGradient id="Безымянный_градиент_3" data-name="Безымянный градиент 3" cx="-579.06" cy="642.91" r="10.07" gradientTransform="matrix(-2.83, 0, 0, 2.07, -1607.11, -1297.01)" xlink:href="#Безымянный_градиент"/>
    <radialGradient id="Безымянный_градиент_5" data-name="Безымянный градиент 5" cx="-596.14" cy="579.85" r="5.02" gradientTransform="matrix(-2.83, 0, 0, 3.04, -1653.98, -1729.08)" xlink:href="#Безымянный_градиент"/>
    <radialGradient id="Безымянный_градиент_6" data-name="Безымянный градиент 6" cx="-305.55" cy="263.38" r="1.8" gradientTransform="matrix(-16.52, 0, 0, 3.84, -2094, -2698.68)" gradientUnits="userSpaceOnUse">
      <stop offset="0"/>
      <stop offset="0.56" stop-color="#02dd55"/>
      <stop offset="1" stop-color="#0d5" stop-opacity="0"/>
    </radialGradient>
    <radialGradient id="Безымянный_градиент_7" data-name="Безымянный градиент 7" cx="-132.21" cy="427.06" r="0.98" gradientTransform="matrix(-11.95, 0, 0, 9.12, -1544.42, -3857.71)" gradientUnits="userSpaceOnUse">
      <stop offset="0" stop-color="#fff"/>
      <stop offset="1" stop-color="#fff" stop-opacity="0"/>
    </radialGradient>
    <radialGradient id="Безымянный_градиент_8" data-name="Безымянный градиент 8" cx="-2155.02" cy="2562.09" r="41.35" gradientTransform="matrix(-0.19, 0, 0.01, 0.14, -401.37, -324.89)" gradientUnits="userSpaceOnUse">
      <stop offset="0"/>
      <stop offset="1" stop-opacity="0"/>
    </radialGradient>
  </defs>
  <title>troyka-5mm-led-module_green</title>
  <g id="all">
    <path id="troyka-oneunit" class="cls-1" d="M4.72.22A4.48,4.48,0,0,1,.23,4.72V67.3a4.49,4.49,0,0,1,4.49,4.5H67.3a4.49,4.49,0,0,1,4.5-4.5V4.72A4.49,4.49,0,0,1,67.3.22Z" transform="translate(-0.01 -0.01)"/>
    <g id="troyka-pins2">
      <rect id="rect17308" class="cls-2" x="39.49" y="0.3" width="7.13" height="13.81" rx="0.14" ry="0.14"/>
      <rect id="rect17310" class="cls-2" x="32.39" y="0.3" width="7.13" height="13.81" rx="0.14" ry="0.14"/>
      <rect id="rect17312" class="cls-2" x="25.29" y="0.3" width="7.13" height="13.81" rx="0.14" ry="0.14"/>
      <circle id="circle17314" class="cls-3" cx="43.06" cy="10.43" r="2.62"/>
      <circle id="circle17316" class="cls-3" cx="35.95" cy="10.43" r="2.62"/>
      <rect id="rect17318" class="cls-3" x="26.23" y="7.81" width="5.23" height="5.23" rx="0.48" ry="0.48"/>
      <rect id="rect17320" class="cls-4" x="27.72" y="9.24" width="2.27" height="2.39"/>
      <rect id="rect17322" class="cls-5" x="28.27" y="9.82" width="1.17" height="1.23"/>
      <polygon id="polygon17324" class="cls-6" points="29.43 9.82 29.98 9.24 27.72 9.24 28.27 9.82 29.43 9.82"/>
      <polygon id="polygon17326" class="cls-7" points="29.98 9.24 29.98 11.62 29.43 11.05 29.43 9.82 29.98 9.24"/>
      <polygon id="polygon17328" class="cls-8" points="29.98 11.62 27.72 11.62 28.27 11.05 29.43 11.05 29.98 11.62"/>
      <polygon id="polygon17330" class="cls-9" points="28.27 11.05 27.72 11.62 27.72 9.24 28.27 9.82 28.27 11.05"/>
      <rect id="rect17334" class="cls-4" x="41.92" y="9.24" width="2.27" height="2.39"/>
      <rect id="rect17336" class="cls-5" x="42.47" y="9.82" width="1.17" height="1.23"/>
      <polygon id="polygon17338" class="cls-6" points="42.47 9.82 43.63 9.82 44.18 9.24 41.92 9.24 42.47 9.82"/>
      <polygon id="polygon17340" class="cls-7" points="43.63 9.82 44.18 9.24 44.18 11.62 43.63 11.05 43.63 9.82"/>
      <polygon id="polygon17342" class="cls-8" points="43.63 11.05 44.18 11.62 41.92 11.62 42.47 11.05 43.63 11.05"/>
      <polygon id="polygon17344" class="cls-9" points="42.47 9.82 42.47 11.05 41.92 11.62 41.92 9.24 42.47 9.82"/>
      <rect id="rect17348" class="cls-4" x="34.82" y="9.24" width="2.27" height="2.39"/>
      <rect id="rect17350" class="cls-5" x="35.37" y="9.82" width="1.17" height="1.23"/>
      <polygon id="polygon17352" class="cls-6" points="36.53 9.82 37.08 9.24 34.82 9.24 35.37 9.82 36.53 9.82"/>
      <polygon id="polygon17354" class="cls-7" points="37.08 9.24 37.08 11.62 36.53 11.05 36.53 9.82 37.08 9.24"/>
      <polygon id="polygon17356" class="cls-8" points="37.08 11.62 34.82 11.62 35.37 11.05 36.53 11.05 37.08 11.62"/>
      <polygon id="polygon17358" class="cls-9" points="35.37 11.05 34.82 11.62 34.82 9.24 35.37 9.82 35.37 11.05"/>
      <rect id="rect17360" class="cls-4" x="34.82" y="9.24" width="2.27" height="2.39"/>
      <rect id="rect17362" class="cls-5" x="35.37" y="9.82" width="1.17" height="1.23"/>
      <polygon id="polygon17364" class="cls-6" points="35.37 9.82 36.53 9.82 37.08 9.24 34.82 9.24 35.37 9.82"/>
      <polygon id="polygon17366" class="cls-7" points="36.53 9.82 37.08 9.24 37.08 11.62 36.53 11.05 36.53 9.82"/>
      <polygon id="polygon17368" class="cls-8" points="36.53 11.05 37.08 11.62 34.82 11.62 35.37 11.05 36.53 11.05"/>
      <polygon id="polygon17370" class="cls-9" points="35.37 9.82 35.37 11.05 34.82 11.62 34.82 9.24 35.37 9.82"/>
    </g>
    <g id="troyka-pins">
      <rect id="rect17240" class="cls-2" x="25.19" y="57.78" width="7.13" height="13.81" rx="0.14" ry="0.14"/>
      <rect id="rect17242" class="cls-2" x="32.29" y="57.78" width="7.13" height="13.81" rx="0.14" ry="0.14"/>
      <rect id="rect17244" class="cls-2" x="39.39" y="57.78" width="7.13" height="13.81" rx="0.14" ry="0.14"/>
      <circle id="circle17246" class="cls-3" cx="28.74" cy="61.47" r="2.62"/>
      <circle id="circle17248" class="cls-3" cx="35.85" cy="61.47" r="2.62"/>
      <rect id="rect17250" class="cls-3" x="40.34" y="58.85" width="5.23" height="5.23" rx="0.48" ry="0.48"/>
      <rect id="rect17252" class="cls-4" x="41.82" y="60.27" width="2.27" height="2.39"/>
      <rect id="rect17254" class="cls-5" x="42.37" y="60.85" width="1.17" height="1.23"/>
      <polygon id="polygon17256" class="cls-6" points="43.53 62.08 42.37 62.08 41.82 62.66 44.08 62.66 43.53 62.08"/>
      <polygon id="polygon17258" class="cls-7" points="42.37 62.08 41.82 62.66 41.82 60.27 42.37 60.85 42.37 62.08"/>
      <polygon id="polygon17260" class="cls-8" points="42.37 60.85 41.82 60.27 44.08 60.27 43.53 60.85 42.37 60.85"/>
      <polygon id="polygon17262" class="cls-9" points="43.53 62.08 43.53 60.85 44.08 60.27 44.08 62.66 43.53 62.08"/>
      <rect id="rect17266" class="cls-4" x="27.62" y="60.27" width="2.27" height="2.39"/>
      <rect id="rect17268" class="cls-5" x="28.17" y="60.85" width="1.17" height="1.23"/>
      <polygon id="polygon17270" class="cls-6" points="29.89 62.66 29.33 62.08 28.17 62.08 27.62 62.66 29.89 62.66"/>
      <polygon id="polygon17272" class="cls-7" points="28.17 60.85 28.17 62.08 27.62 62.66 27.62 60.27 28.17 60.85"/>
      <polygon id="polygon17274" class="cls-8" points="29.33 60.85 28.17 60.85 27.62 60.27 29.89 60.27 29.33 60.85"/>
      <polygon id="polygon17276" class="cls-9" points="29.89 62.66 29.33 62.08 29.33 60.85 29.89 60.27 29.89 62.66"/>
      <rect id="rect17280" class="cls-4" x="34.72" y="60.27" width="2.27" height="2.39"/>
      <rect id="rect17282" class="cls-5" x="35.27" y="60.85" width="1.17" height="1.23"/>
      <polygon id="polygon17284" class="cls-6" points="36.43 62.08 35.27 62.08 34.72 62.66 36.98 62.66 36.43 62.08"/>
      <polygon id="polygon17286" class="cls-7" points="35.27 62.08 34.72 62.66 34.72 60.27 35.27 60.85 35.27 62.08"/>
      <polygon id="polygon17288" class="cls-8" points="35.27 60.85 34.72 60.27 36.98 60.27 36.43 60.85 35.27 60.85"/>
      <polygon id="polygon17290" class="cls-9" points="36.43 62.08 36.43 60.85 36.98 60.27 36.98 62.66 36.43 62.08"/>
      <rect id="rect17292" class="cls-4" x="34.72" y="60.27" width="2.27" height="2.39"/>
      <rect id="rect17294" class="cls-5" x="35.27" y="60.85" width="1.17" height="1.23"/>
      <polygon id="polygon17296" class="cls-6" points="36.98 62.66 36.43 62.08 35.27 62.08 34.72 62.66 36.98 62.66"/>
      <polygon id="polygon17298" class="cls-7" points="35.27 60.85 35.27 62.08 34.72 62.66 34.72 60.27 35.27 60.85"/>
      <polygon id="polygon17300" class="cls-8" points="36.43 60.85 35.27 60.85 34.72 60.27 36.98 60.27 36.43 60.85"/>
      <polygon id="polygon17302" class="cls-9" points="36.98 62.66 36.43 62.08 36.43 60.85 36.98 60.27 36.98 62.66"/>
      <text class="cls-10" transform="translate(41.38 69.39)">G</text>
      <text class="cls-10" transform="translate(34.43 69.36)">V</text>
      <text class="cls-10" transform="translate(27.61 69.39)">S</text>
    </g>
    <g id="T1-SOT32">
      <path id="path17504" class="cls-11" d="M17.25,59.46H10.14V56.52h7.11Z" transform="translate(-0.01 -0.01)"/>
      <path id="path17506" class="cls-12" d="M16.7,61.62H15.34V59.45H16.7Z" transform="translate(-0.01 -0.01)"/>
      <path id="path17508" class="cls-13" d="M16.7,60.38H15.34v-.69H16.7Z" transform="translate(-0.01 -0.01)"/>
      <path id="path17510" class="cls-12" d="M12.05,61.62H10.69V59.45h1.36Z" transform="translate(-0.01 -0.01)"/>
      <path id="path17512" class="cls-13" d="M12.05,60.38H10.69v-.69h1.36Z" transform="translate(-0.01 -0.01)"/>
      <path id="path17514" class="cls-12" d="M14.38,54.37H13v2.16h1.37Z" transform="translate(-0.01 -0.01)"/>
      <path id="path17516" class="cls-13" d="M14.38,55.61H13v.69h1.37Z" transform="translate(-0.01 -0.01)"/>
    </g>
    <g id="R2-0603">
      <path id="path17520" class="cls-14" d="M52.6,61.29h-3V55.85h3Z" transform="translate(-0.01 -0.01)"/>
      <path id="path17522" class="cls-12" d="M52.62,56.16h-3v-.95h3Z" transform="translate(-0.01 -0.01)"/>
      <path id="path17524" class="cls-12" d="M52.62,61.83h-3v-1h3Z" transform="translate(-0.01 -0.01)"/>
    </g>
    <g id="R3-0603">
      <path id="path17526" class="cls-14" d="M22.73,60.54H19.78V55.21h2.95Z" transform="translate(-0.01 -0.01)"/>
      <path id="path17528" class="cls-12" d="M22.74,55.74h-3v-1h3Z" transform="translate(-0.01 -0.01)"/>
      <path id="path17530" class="cls-12" d="M22.74,61.4h-3v-1h3Z" transform="translate(-0.01 -0.01)"/>
    </g>
    <g id="R1-0603">
      <path id="path17534" class="cls-14" d="M60.41,61.18H57.46V55.74h2.95Z" transform="translate(-0.01 -0.01)"/>
      <path id="path17536" class="cls-12" d="M60.44,56.05h-3v-1h3Z" transform="translate(-0.01 -0.01)"/>
      <path id="path17538" class="cls-12" d="M60.44,61.72h-3v-1h3Z" transform="translate(-0.01 -0.01)"/>
    </g>
    <g id="L1-5mm">
      <circle id="circle17542" class="cls-15" cx="35.49" cy="35.37" r="1.4"/>
      <circle id="circle17544" class="cls-16" cx="35.27" cy="35.31" r="7.35"/>
      <circle id="circle17548" class="cls-17" cx="35.36" cy="35.22" r="7.47"/>
      <ellipse id="ellipse16510" class="cls-18" cx="35.39" cy="35.57" rx="17.35" ry="17.69"/>
      <ellipse id="ellipse16512" class="cls-19" cx="34.31" cy="34.88" rx="28.32" ry="20.63"/>
      <ellipse id="ellipse16514" class="cls-20" cx="35.86" cy="34.68" rx="13.83" ry="14.87"/>
      <ellipse id="ellipse16516" class="cls-21" cx="36.19" cy="35.08" rx="11.53" ry="8.83"/>
    </g>
    <g id="amperka-logo">
      <path id="path532-5-4-9-8-5-6-8-0" d="M10.85,11a2,2,0,1,1-2,2,2,2,0,0,1,2-2m0,5.32A3.28,3.28,0,1,0,7.57,13h0a3.28,3.28,0,0,0,3.28,3.28" transform="translate(-0.01 -0.01)"/>
      <path id="path536-1-4-0-5-1-3-3-2" d="M10.85,4.58A2.27,2.27,0,1,1,8.54,6.86a2.27,2.27,0,0,1,2.31-2.28h0m0,1.24a1,1,0,1,0,1,1,1,1,0,0,0-1-1" transform="translate(-0.01 -0.01)"/>
      <path id="path540-3-7-2-9-1-0-6-4" d="M11.19,18.44a5.49,5.49,0,0,0,5.07-5.09,5.36,5.36,0,0,0-1.18-3.77l.4-.4a.63.63,0,0,0,.06-.85.6.6,0,0,0-.86-.05l0,.05-.89.89a.54.54,0,0,0,0,.76A4.32,4.32,0,0,1,15,12.76,4.22,4.22,0,1,1,7.85,10V10a.54.54,0,0,0,0-.76L7,8.32a.6.6,0,1,0-.89.81l0,0,.42.42A5.36,5.36,0,0,0,5.35,13a5.47,5.47,0,0,0,5.48,5.46h.36" transform="translate(-0.01 -0.01)"/>
    </g>
  </g>
</svg>
