<svg id="troyka-pad-1x1" xmlns="http://www.w3.org/2000/svg" viewBox="0 0 102.061 71.99"><defs><style>.cls-1{fill:#f2f2f2;stroke-miterlimit:1;stroke-width:0.43px;}.cls-1,.cls-2,.cls-8{stroke:#000;}.cls-2,.cls-8{fill:none;stroke-width:0.28px;}.cls-3{fill:#404040;}.cls-4{fill:#2a2a29;}.cls-5{fill:#474747;}.cls-6{fill:#595959;}.cls-7{fill:#373737;}.cls-8{stroke-miterlimit:10;}.cls-10,.cls-11,.cls-12,.cls-21,.cls-22,.cls-9{isolation:isolate;}.cls-10,.cls-11,.cls-12,.cls-9{font-size:5px;font-family:TrebuchetMS, Trebuchet MS;}.cls-10{letter-spacing:0.02em;}.cls-11{letter-spacing:-0.018em;}.cls-12{letter-spacing:0.002em;}.cls-13{fill:#303030;}.cls-14{fill:#8d8c8c;}.cls-15{fill:#8c8663;}.cls-16{fill:#b8af82;}.cls-17{fill:#80795b;}.cls-18{fill:#5e5b43;}.cls-19{fill:#9a916c;}.cls-20{fill:#e2d6a1;}.cls-21{fill:#fff;opacity:0.2;}.cls-22{opacity:0.1;}</style></defs><g id="top"><path class="cls-1" d="M82.581.215H20.031a4.492,4.492,0,0,1-4.49,4.47v62.58a4.522,4.522,0,0,1,4.47,4.51l62.56-.04a4.5,4.5,0,0,1,4.38-4.48V4.715A4.428,4.428,0,0,1,82.581.215Zm-38.47,40.17a4.48,4.48,0,1,1,4.49-4.48A4.479,4.479,0,0,1,44.111,40.385Zm14.26,0a4.48,4.48,0,1,1,4.49-4.48A4.479,4.479,0,0,1,58.371,40.385Z" transform="translate(-0.216)"/><g id="troyka-pins2"><rect id="rect6749-8-3" class="cls-2" x="40.099" y="57.978" width="7.129" height="13.809" rx="0.14"/><rect id="rect6749-9-8-3" class="cls-2" x="47.189" y="57.978" width="7.129" height="13.809" rx="0.14"/><rect id="rect6749-9-3-2-4" class="cls-2" x="54.318" y="57.978" width="7.129" height="13.809" rx="0.14"/><rect id="_0.1.4.0.0.0.0-6-5-7-09-5-5-8-6-4-6" data-name=" 0.1.4.0.0.0.0-6-5-7-09-5-5-8-6-4-6" class="cls-3" x="39.989" y="57.978" width="21.543" height="7.181"/><rect id="_0.1.4.0.0.0.26-5-0-2-7-7-5-3-8-1-9" data-name=" 0.1.4.0.0.0.26-5-0-2-7-7-5-3-8-1-9" x="42.19" y="60.181" width="2.773" height="2.775"/><polygon id="_0.1.4.0.0.0.27-7-9-2-3-6-2-1-5-2-9" data-name=" 0.1.4.0.0.0.27-7-9-2-3-6-2-1-5-2-9" class="cls-4" points="41.168 59.159 42.188 60.182 44.962 60.182 45.988 59.159 41.168 59.159"/><polygon id="_0.1.4.0.0.0.28-5-4-8-7-6-6-1-2-6-1" data-name=" 0.1.4.0.0.0.28-5-4-8-7-6-6-1-2-6-1" class="cls-5" points="45.988 59.159 44.962 60.185 44.962 62.959 45.988 63.979 45.988 59.159"/><polygon id="_0.1.4.0.0.0.29-4-7-2-2-5-8-2-0-6-1" data-name=" 0.1.4.0.0.0.29-4-7-2-2-5-8-2-0-6-1" class="cls-6" points="45.987 63.979 44.962 62.959 42.188 62.959 41.168 63.979 45.987 63.979"/><polygon id="_0.1.4.0.0.0.30-1-8-8-6-8-9-5-1-9-2" data-name=" 0.1.4.0.0.0.30-1-8-8-6-8-9-5-1-9-2" class="cls-7" points="41.166 63.979 42.188 62.957 42.188 60.182 41.166 59.159 41.166 63.979"/><rect id="_0.1.4.0.0.0.31-2-3-9-01-2-2-7-2-1-9" data-name=" 0.1.4.0.0.0.31-2-3-9-01-2-2-7-2-1-9" x="49.373" y="60.181" width="2.772" height="2.775"/><polygon id="_0.1.4.0.0.0.32-0-5-0-6-5-9-6-8-4-5" data-name=" 0.1.4.0.0.0.32-0-5-0-6-5-9-6-8-4-5" class="cls-4" points="48.348 59.159 49.369 60.182 52.147 60.182 53.17 59.159 48.348 59.159"/><polygon id="_0.1.4.0.0.0.33-0-1-7-5-4-5-2-2-3-3" data-name=" 0.1.4.0.0.0.33-0-1-7-5-4-5-2-2-3-3" class="cls-5" points="53.17 59.159 52.147 60.185 52.147 62.959 53.17 63.979 53.17 59.159"/><polygon id="_0.1.4.0.0.0.34-1-2-8-7-4-9-1-9-4-0" data-name=" 0.1.4.0.0.0.34-1-2-8-7-4-9-1-9-4-0" class="cls-6" points="53.168 63.979 52.145 62.959 49.369 62.959 48.348 63.979 53.168 63.979"/><polygon id="_0.1.4.0.0.0.35-4-0-1-5-1-4-6-7-6-4" data-name=" 0.1.4.0.0.0.35-4-0-1-5-1-4-6-7-6-4" class="cls-7" points="48.346 63.979 49.369 62.957 49.369 60.182 48.346 59.159 48.346 63.979"/><rect id="_0.1.4.0.0.0.36-6-1-5-4-6-5-1-6-8-6" data-name=" 0.1.4.0.0.0.36-6-1-5-4-6-5-1-6-8-6" x="56.555" y="60.181" width="2.774" height="2.775"/><polygon id="_0.1.4.0.0.0.37-0-6-8-1-1-0-1-8-4-3" data-name=" 0.1.4.0.0.0.37-0-6-8-1-1-0-1-8-4-3" class="cls-4" points="55.531 59.159 56.552 60.182 59.329 60.182 60.35 59.159 55.531 59.159"/><polygon id="_0.1.4.0.0.0.38-7-4-6-2-6-5-5-8-3-2" data-name=" 0.1.4.0.0.0.38-7-4-6-2-6-5-5-8-3-2" class="cls-5" points="60.35 59.159 59.329 60.185 59.329 62.959 60.35 63.979 60.35 59.159"/><polygon id="_0.1.4.0.0.0.39-1-0-1-0-3-8-7-7-8-8" data-name=" 0.1.4.0.0.0.39-1-0-1-0-3-8-7-7-8-8" class="cls-6" points="60.347 63.979 59.328 62.959 56.552 62.959 55.531 63.979 60.347 63.979"/><polygon id="_0.1.4.0.0.0.40-7-6-2-0-3-8-4-8-4-9" data-name=" 0.1.4.0.0.0.40-7-6-2-0-3-8-4-8-4-9" class="cls-7" points="55.529 63.979 56.552 62.957 56.552 60.182 55.529 59.159 55.529 63.979"/></g><g id="troyka-pins"><rect id="rect6749-3" class="cls-2" x="54.318" y="0.243" width="7.129" height="13.809" rx="0.14"/><rect id="rect6749-9-3-3" class="cls-2" x="47.189" y="0.243" width="7.129" height="13.809" rx="0.14"/><rect id="rect6749-9-3-4-2" class="cls-8" x="40.099" y="0.243" width="7.129" height="13.809" rx="0.14"/><rect id="_0.1.4.0.0.0.0-6-5-7-09-5-5-8-6-4-6-2" data-name=" 0.1.4.0.0.0.0-6-5-7-09-5-5-8-6-4-6" class="cls-3" x="40.078" y="6.761" width="21.543" height="7.181"/><rect id="_0.1.4.0.0.0.26-5-0-2-7-7-5-3-8-1-9-2" data-name=" 0.1.4.0.0.0.26-5-0-2-7-7-5-3-8-1-9" x="42.279" y="8.964" width="2.773" height="2.775"/><polygon id="_0.1.4.0.0.0.27-7-9-2-3-6-2-1-5-2-9-2" data-name=" 0.1.4.0.0.0.27-7-9-2-3-6-2-1-5-2-9" class="cls-4" points="41.257 7.942 42.277 8.965 45.051 8.965 46.077 7.942 41.257 7.942"/><polygon id="_0.1.4.0.0.0.28-5-4-8-7-6-6-1-2-6-1-2" data-name=" 0.1.4.0.0.0.28-5-4-8-7-6-6-1-2-6-1" class="cls-5" points="46.077 7.942 45.051 8.968 45.051 11.742 46.077 12.762 46.077 7.942"/><polygon id="_0.1.4.0.0.0.29-4-7-2-2-5-8-2-0-6-1-2" data-name=" 0.1.4.0.0.0.29-4-7-2-2-5-8-2-0-6-1" class="cls-6" points="46.076 12.762 45.051 11.742 42.277 11.742 41.257 12.762 46.076 12.762"/><polygon id="_0.1.4.0.0.0.30-1-8-8-6-8-9-5-1-9-2-2" data-name=" 0.1.4.0.0.0.30-1-8-8-6-8-9-5-1-9-2" class="cls-7" points="41.255 12.762 42.277 11.74 42.277 8.965 41.255 7.942 41.255 12.762"/><rect id="_0.1.4.0.0.0.31-2-3-9-01-2-2-7-2-1-9-2" data-name=" 0.1.4.0.0.0.31-2-3-9-01-2-2-7-2-1-9" x="49.463" y="8.964" width="2.772" height="2.775"/><polygon id="_0.1.4.0.0.0.32-0-5-0-6-5-9-6-8-4-5-2" data-name=" 0.1.4.0.0.0.32-0-5-0-6-5-9-6-8-4-5" class="cls-4" points="48.437 7.942 49.458 8.965 52.236 8.965 53.259 7.942 48.437 7.942"/><polygon id="_0.1.4.0.0.0.33-0-1-7-5-4-5-2-2-3-3-2" data-name=" 0.1.4.0.0.0.33-0-1-7-5-4-5-2-2-3-3" class="cls-5" points="53.259 7.942 52.236 8.968 52.236 11.742 53.259 12.762 53.259 7.942"/><polygon id="_0.1.4.0.0.0.34-1-2-8-7-4-9-1-9-4-0-2" data-name=" 0.1.4.0.0.0.34-1-2-8-7-4-9-1-9-4-0" class="cls-6" points="53.257 12.762 52.234 11.742 49.458 11.742 48.437 12.762 53.257 12.762"/><polygon id="_0.1.4.0.0.0.35-4-0-1-5-1-4-6-7-6-4-2" data-name=" 0.1.4.0.0.0.35-4-0-1-5-1-4-6-7-6-4" class="cls-7" points="48.435 12.762 49.458 11.74 49.458 8.965 48.435 7.942 48.435 12.762"/><rect id="_0.1.4.0.0.0.36-6-1-5-4-6-5-1-6-8-6-2" data-name=" 0.1.4.0.0.0.36-6-1-5-4-6-5-1-6-8-6" x="56.645" y="8.964" width="2.774" height="2.775"/><polygon id="_0.1.4.0.0.0.37-0-6-8-1-1-0-1-8-4-3-2" data-name=" 0.1.4.0.0.0.37-0-6-8-1-1-0-1-8-4-3" class="cls-4" points="55.62 7.942 56.641 8.965 59.418 8.965 60.439 7.942 55.62 7.942"/><polygon id="_0.1.4.0.0.0.38-7-4-6-2-6-5-5-8-3-2-2" data-name=" 0.1.4.0.0.0.38-7-4-6-2-6-5-5-8-3-2" class="cls-5" points="60.439 7.942 59.418 8.968 59.418 11.742 60.439 12.762 60.439 7.942"/><polygon id="_0.1.4.0.0.0.39-1-0-1-0-3-8-7-7-8-8-2" data-name=" 0.1.4.0.0.0.39-1-0-1-0-3-8-7-7-8-8" class="cls-6" points="60.436 12.762 59.417 11.742 56.641 11.742 55.62 12.762 60.436 12.762"/><polygon id="_0.1.4.0.0.0.40-7-6-2-0-3-8-4-8-4-9-2" data-name=" 0.1.4.0.0.0.40-7-6-2-0-3-8-4-8-4-9" class="cls-7" points="55.618 12.762 56.641 11.74 56.641 8.965 55.618 7.942 55.618 12.762"/></g><text class="cls-9" transform="translate(56.187 70.172)">G</text><text class="cls-9" transform="translate(49.219 70.211)">V</text><text class="cls-9" transform="translate(42.529 70.17)">S</text><text class="cls-10" transform="translate(32.723 41.47)">G</text><text class="cls-10" transform="translate(32.945 48.723)">V</text><text class="cls-10" transform="translate(33.211 55.978)">S</text><text class="cls-9" transform="translate(56.443 5.428)">X</text><text class="cls-11" transform="translate(49.219 5.467)">Y</text><text class="cls-9" transform="translate(42.529 5.426)">Z</text><text class="cls-10" transform="translate(33.022 34.216)">X</text><text class="cls-12" transform="translate(33.033 26.962)">Y</text><text class="cls-10" transform="translate(33.037 19.709)">Z</text><text class="cls-10" transform="translate(65.284 41.47)">G</text><text class="cls-10" transform="translate(65.506 48.723)">V</text><text class="cls-10" transform="translate(65.773 55.978)">S</text><text class="cls-10" transform="translate(65.583 34.216)">X</text><text class="cls-12" transform="translate(65.594 26.962)">Y</text><text class="cls-10" transform="translate(65.599 19.709)">Z</text><g id="pin-header-angle-8pin"><path id="path106672-2-3" class="cls-3" d="M76.548,50.58H72.714L71.24,52.134v3.98l1.474,1.553h4.138l1.475-1.553v-3.98l-1.475-1.553Z" transform="translate(-0.216)"/><rect class="cls-13" x="72.54" y="51.036" width="4.056" height="6.175"/><rect id="rect106674-2-3" class="cls-14" x="73.506" y="53.026" width="2.26" height="2.233"/><rect id="rect106676-2-3" class="cls-15" x="74.065" y="53.521" width="1.072" height="1.155"/><polygon id="polygon106678-2-3" class="cls-16" points="75.137 53.521 75.776 53.026 73.485 53.026 74.065 53.521 75.137 53.521"/><polygon id="polygon106680-2-3" class="cls-17" points="75.776 53.026 75.776 55.268 75.137 54.676 75.137 53.521 75.776 53.026"/><polygon id="polygon106682-2-3" class="cls-18" points="75.776 55.268 73.485 55.268 74.065 54.676 75.137 54.676 75.776 55.268"/><polygon id="polygon106684-2-3" class="cls-19" points="74.065 54.676 73.485 55.268 73.485 53.026 74.065 53.521 74.065 54.676"/><path id="path106672-2-3-2" data-name="path106672-2-3" class="cls-3" d="M76.548,43.328H72.714L71.24,44.881v3.98l1.474,1.553h4.138l1.475-1.553V44.882l-1.475-1.553Z" transform="translate(-0.216)"/><rect class="cls-13" x="72.54" y="43.784" width="4.056" height="6.175"/><rect id="rect106674-2-3-2" data-name="rect106674-2-3" class="cls-14" x="73.506" y="45.774" width="2.26" height="2.233"/><rect id="rect106676-2-3-2" data-name="rect106676-2-3" class="cls-15" x="74.065" y="46.269" width="1.072" height="1.155"/><polygon id="polygon106678-2-3-2" data-name="polygon106678-2-3" class="cls-16" points="75.137 46.269 75.776 45.774 73.485 45.774 74.065 46.269 75.137 46.269"/><polygon id="polygon106680-2-3-2" data-name="polygon106680-2-3" class="cls-17" points="75.776 45.774 75.776 48.016 75.137 47.424 75.137 46.269 75.776 45.774"/><polygon id="polygon106682-2-3-2" data-name="polygon106682-2-3" class="cls-18" points="75.776 48.016 73.485 48.016 74.065 47.424 75.137 47.424 75.776 48.016"/><polygon id="polygon106684-2-3-2" data-name="polygon106684-2-3" class="cls-19" points="74.065 47.424 73.485 48.016 73.485 45.774 74.065 46.269 74.065 47.424"/><path id="path106672-2-3-3" data-name="path106672-2-3" class="cls-3" d="M76.548,36.1H72.714L71.24,37.653v3.98l1.474,1.553h4.138l1.475-1.553V37.654L76.852,36.1Z" transform="translate(-0.216)"/><rect class="cls-13" x="72.54" y="36.556" width="4.056" height="6.175"/><rect id="rect106674-2-3-3" data-name="rect106674-2-3" class="cls-14" x="73.506" y="38.546" width="2.26" height="2.233"/><rect id="rect106676-2-3-3" data-name="rect106676-2-3" class="cls-15" x="74.065" y="39.041" width="1.072" height="1.155"/><polygon id="polygon106678-2-3-3" data-name="polygon106678-2-3" class="cls-16" points="75.137 39.041 75.776 38.546 73.485 38.546 74.065 39.041 75.137 39.041"/><polygon id="polygon106680-2-3-3" data-name="polygon106680-2-3" class="cls-17" points="75.776 38.546 75.776 40.788 75.137 40.196 75.137 39.041 75.776 38.546"/><polygon id="polygon106682-2-3-3" data-name="polygon106682-2-3" class="cls-18" points="75.776 40.788 73.485 40.788 74.065 40.196 75.137 40.196 75.776 40.788"/><polygon id="polygon106684-2-3-3" data-name="polygon106684-2-3" class="cls-19" points="74.065 40.196 73.485 40.788 73.485 38.546 74.065 39.041 74.065 40.196"/><path id="path106672-2-3-4" data-name="path106672-2-3" class="cls-3" d="M76.548,28.884H72.714L71.24,30.437v3.98l1.474,1.553h4.138l1.475-1.553V30.438l-1.475-1.553Z" transform="translate(-0.216)"/><rect class="cls-13" x="72.54" y="29.34" width="4.056" height="6.175"/><rect id="rect106674-2-3-4" data-name="rect106674-2-3" class="cls-14" x="73.506" y="31.33" width="2.26" height="2.233"/><rect id="rect106676-2-3-4" data-name="rect106676-2-3" class="cls-15" x="74.065" y="31.825" width="1.072" height="1.155"/><polygon id="polygon106678-2-3-4" data-name="polygon106678-2-3" class="cls-16" points="75.137 31.825 75.776 31.33 73.485 31.33 74.065 31.825 75.137 31.825"/><polygon id="polygon106680-2-3-4" data-name="polygon106680-2-3" class="cls-17" points="75.776 31.33 75.776 33.572 75.137 32.98 75.137 31.825 75.776 31.33"/><polygon id="polygon106682-2-3-4" data-name="polygon106682-2-3" class="cls-18" points="75.776 33.572 73.485 33.572 74.065 32.98 75.137 32.98 75.776 33.572"/><polygon id="polygon106684-2-3-4" data-name="polygon106684-2-3" class="cls-19" points="74.065 32.98 73.485 33.572 73.485 31.33 74.065 31.825 74.065 32.98"/><path id="path106672-2-3-5" data-name="path106672-2-3" class="cls-3" d="M76.548,21.656H72.714L71.24,23.209v3.98l1.474,1.553h4.138l1.475-1.553V23.21l-1.475-1.553Z" transform="translate(-0.216)"/><rect class="cls-13" x="72.54" y="22.112" width="4.056" height="6.175"/><rect id="rect106674-2-3-5" data-name="rect106674-2-3" class="cls-14" x="73.506" y="24.102" width="2.26" height="2.233"/><rect id="rect106676-2-3-5" data-name="rect106676-2-3" class="cls-15" x="74.065" y="24.597" width="1.072" height="1.155"/><polygon id="polygon106678-2-3-5" data-name="polygon106678-2-3" class="cls-16" points="75.137 24.597 75.776 24.102 73.485 24.102 74.065 24.597 75.137 24.597"/><polygon id="polygon106680-2-3-5" data-name="polygon106680-2-3" class="cls-17" points="75.776 24.102 75.776 26.344 75.137 25.752 75.137 24.597 75.776 24.102"/><polygon id="polygon106682-2-3-5" data-name="polygon106682-2-3" class="cls-18" points="75.776 26.344 73.485 26.344 74.065 25.752 75.137 25.752 75.776 26.344"/><polygon id="polygon106684-2-3-5" data-name="polygon106684-2-3" class="cls-19" points="74.065 25.752 73.485 26.344 73.485 24.102 74.065 24.597 74.065 25.752"/><path id="path106672-2-3-6" data-name="path106672-2-3" class="cls-3" d="M76.548,14.428H72.714L71.24,15.981v3.98l1.474,1.553h4.138l1.475-1.553V15.982l-1.475-1.553Z" transform="translate(-0.216)"/><rect class="cls-13" x="72.54" y="14.884" width="4.056" height="6.175"/><rect id="rect106674-2-3-6" data-name="rect106674-2-3" class="cls-14" x="73.506" y="16.874" width="2.26" height="2.233"/><rect id="rect106676-2-3-6" data-name="rect106676-2-3" class="cls-15" x="74.065" y="17.369" width="1.072" height="1.155"/><polygon id="polygon106678-2-3-6" data-name="polygon106678-2-3" class="cls-16" points="75.137 17.369 75.776 16.874 73.485 16.874 74.065 17.369 75.137 17.369"/><polygon id="polygon106680-2-3-6" data-name="polygon106680-2-3" class="cls-17" points="75.776 16.874 75.776 19.116 75.137 18.524 75.137 17.369 75.776 16.874"/><polygon id="polygon106682-2-3-6" data-name="polygon106682-2-3" class="cls-18" points="75.776 19.116 73.485 19.116 74.065 18.524 75.137 18.524 75.776 19.116"/><polygon id="polygon106684-2-3-6" data-name="polygon106684-2-3" class="cls-19" points="74.065 18.524 73.485 19.116 73.485 16.874 74.065 17.369 74.065 18.524"/><path class="cls-3" d="M76.8,14.382H72.7l-1.6,1.5v4.2l1.6,1.5h4.1l1.6-1.5v-4.2Zm1.033,5.374-1.352,1.267H73.01l-1.351-1.267V16.209l1.351-1.267h3.462l1.352,1.267Z" transform="translate(-0.216)"/><polygon id="_0.1.16.5.0.5-8-3-3" data-name=" 0.1.16.5.0.5-8-3-3" class="cls-16" points="73.677 19.132 80.956 19.132 80.956 16.833 73.677 16.833 73.677 19.132"/><polygon id="_0.1.16.5.0.6-3-1-3" data-name=" 0.1.16.5.0.6-3-1-3" class="cls-19" points="73.677 19.132 74.115 19.132 74.115 16.833 73.677 16.833 73.677 19.132"/><polygon id="_0.1.16.5.0.7-7-4-3" data-name=" 0.1.16.5.0.7-7-4-3" class="cls-20" points="74.133 19.132 74.792 19.132 74.792 16.833 74.133 16.833 74.133 19.132"/><polygon id="_0.1.16.5.0.11-1-0-3" data-name=" 0.1.16.5.0.11-1-0-3" class="cls-21" points="78.83 16.833 78.83 17.111 73.677 17.111 73.677 16.833 78.83 16.833"/><polygon id="_0.1.16.5.0.12-8-0-3" data-name=" 0.1.16.5.0.12-8-0-3" class="cls-22" points="78.83 18.871 78.83 19.151 73.677 19.151 73.677 18.871 78.83 18.871"/><path class="cls-3" d="M76.8,21.611H72.7l-1.6,1.5v4.2l1.6,1.5h4.1l1.6-1.5v-4.2Zm1.033,5.374-1.352,1.267H73.01l-1.351-1.267V23.439l1.351-1.267h3.462l1.352,1.267Z" transform="translate(-0.216)"/><polygon id="_0.1.16.5.0.5-8-3-4" data-name=" 0.1.16.5.0.5-8-3-4" class="cls-16" points="73.677 26.359 80.956 26.359 80.956 24.062 73.677 24.062 73.677 26.359"/><polygon id="_0.1.16.5.0.6-3-1-4" data-name=" 0.1.16.5.0.6-3-1-4" class="cls-19" points="73.677 26.359 74.115 26.359 74.115 24.062 73.677 24.062 73.677 26.359"/><polygon id="_0.1.16.5.0.7-7-4-4" data-name=" 0.1.16.5.0.7-7-4-4" class="cls-20" points="74.133 26.359 74.792 26.359 74.792 24.062 74.133 24.062 74.133 26.359"/><polygon id="_0.1.16.5.0.11-1-0-4" data-name=" 0.1.16.5.0.11-1-0-4" class="cls-21" points="78.83 24.062 78.83 24.34 73.677 24.34 73.677 24.062 78.83 24.062"/><polygon id="_0.1.16.5.0.12-8-0-4" data-name=" 0.1.16.5.0.12-8-0-4" class="cls-22" points="78.83 26.099 78.83 26.379 73.677 26.379 73.677 26.099 78.83 26.099"/><path class="cls-3" d="M76.8,28.839H72.7l-1.6,1.5v4.2l1.6,1.5h4.1l1.6-1.5v-4.2Zm1.033,5.374-1.352,1.266H73.01l-1.351-1.266V30.666L73.01,29.4h3.462l1.352,1.267Z" transform="translate(-0.216)"/><polygon id="_0.1.16.5.0.5-8-3-5" data-name=" 0.1.16.5.0.5-8-3-5" class="cls-16" points="73.677 33.588 80.956 33.588 80.956 31.29 73.677 31.29 73.677 33.588"/><polygon id="_0.1.16.5.0.6-3-1-5" data-name=" 0.1.16.5.0.6-3-1-5" class="cls-19" points="73.677 33.588 74.115 33.588 74.115 31.29 73.677 31.29 73.677 33.588"/><polygon id="_0.1.16.5.0.7-7-4-5" data-name=" 0.1.16.5.0.7-7-4-5" class="cls-20" points="74.133 33.588 74.792 33.588 74.792 31.29 74.133 31.29 74.133 33.588"/><polygon id="_0.1.16.5.0.11-1-0-5" data-name=" 0.1.16.5.0.11-1-0-5" class="cls-21" points="78.83 31.29 78.83 31.567 73.677 31.567 73.677 31.29 78.83 31.29"/><polygon id="_0.1.16.5.0.12-8-0-5" data-name=" 0.1.16.5.0.12-8-0-5" class="cls-22" points="78.83 33.328 78.83 33.607 73.677 33.607 73.677 33.328 78.83 33.328"/><path class="cls-3" d="M76.8,36.068H72.7l-1.6,1.5v4.2l1.6,1.5h4.1l1.6-1.5v-4.2Zm1.033,5.373-1.352,1.267H73.01l-1.351-1.267V37.894l1.351-1.266h3.462l1.352,1.266Z" transform="translate(-0.216)"/><polygon id="_0.1.16.5.0.5-8-3-6" data-name=" 0.1.16.5.0.5-8-3-6" class="cls-16" points="73.677 40.817 80.956 40.817 80.956 38.518 73.677 38.518 73.677 40.817"/><polygon id="_0.1.16.5.0.6-3-1-6" data-name=" 0.1.16.5.0.6-3-1-6" class="cls-19" points="73.677 40.817 74.115 40.817 74.115 38.518 73.677 38.518 73.677 40.817"/><polygon id="_0.1.16.5.0.7-7-4-6" data-name=" 0.1.16.5.0.7-7-4-6" class="cls-20" points="74.133 40.817 74.792 40.817 74.792 38.518 74.133 38.518 74.133 40.817"/><polygon id="_0.1.16.5.0.11-1-0-6" data-name=" 0.1.16.5.0.11-1-0-6" class="cls-21" points="78.83 38.518 78.83 38.797 73.677 38.797 73.677 38.518 78.83 38.518"/><polygon id="_0.1.16.5.0.12-8-0-6" data-name=" 0.1.16.5.0.12-8-0-6" class="cls-22" points="78.83 40.557 78.83 40.836 73.677 40.836 73.677 40.557 78.83 40.557"/><path class="cls-3" d="M76.8,43.3H72.7l-1.6,1.5V49l1.6,1.5h4.1L78.4,49V44.8Zm1.033,5.373-1.352,1.267H73.01l-1.351-1.267V45.123l1.351-1.267h3.462l1.352,1.267Z" transform="translate(-0.216)"/><polygon id="_0.1.16.5.0.5-8-3-7" data-name=" 0.1.16.5.0.5-8-3-7" class="cls-16" points="73.677 48.045 80.956 48.045 80.956 45.747 73.677 45.747 73.677 48.045"/><polygon id="_0.1.16.5.0.6-3-1-7" data-name=" 0.1.16.5.0.6-3-1-7" class="cls-19" points="73.677 48.045 74.115 48.045 74.115 45.747 73.677 45.747 73.677 48.045"/><polygon id="_0.1.16.5.0.7-7-4-7" data-name=" 0.1.16.5.0.7-7-4-7" class="cls-20" points="74.133 48.045 74.792 48.045 74.792 45.747 74.133 45.747 74.133 48.045"/><polygon id="_0.1.16.5.0.11-1-0-7" data-name=" 0.1.16.5.0.11-1-0-7" class="cls-21" points="78.83 45.747 78.83 46.025 73.677 46.025 73.677 45.747 78.83 45.747"/><polygon id="_0.1.16.5.0.12-8-0-7" data-name=" 0.1.16.5.0.12-8-0-7" class="cls-22" points="78.83 47.785 78.83 48.064 73.677 48.064 73.677 47.785 78.83 47.785"/><path class="cls-3" d="M76.8,50.524H72.7l-1.6,1.5v4.2l1.6,1.5h4.1l1.6-1.5v-4.2ZM77.828,55.9l-1.352,1.266H73.01L71.659,55.9V52.356l1.351-1.267h3.462l1.352,1.267Z" transform="translate(-0.216)"/><g id="_0.1.16.5.0.1-7-8-3" data-name=" 0.1.16.5.0.1-7-8-3"><polygon id="connector232pin-0-8-3" class="cls-16" points="78.819 16.833 99.713 16.833 102.061 17.392 102.061 18.57 99.713 19.132 78.819 19.132 78.819 16.833"/><polygon id="_0.1.16.5.0.1.1-5-3-3" data-name=" 0.1.16.5.0.1.1-5-3-3" class="cls-20" points="102.061 18.57 102.061 17.392 101.404 17.234 101.404 18.731 102.061 18.57"/><polygon id="polygon6029-5-3-3" class="cls-21" points="99.713 16.833 102.061 17.392 102.061 17.671 99.713 17.111 78.819 17.111 78.819 16.833 99.713 16.833"/><polygon id="_0.1.16.5.0.1.3-8-7-3" data-name=" 0.1.16.5.0.1.3-8-7-3" class="cls-22" points="99.713 18.871 102.061 18.312 102.061 18.59 99.713 19.151 78.819 19.151 78.819 18.871 99.713 18.871"/></g><g id="_0.1.16.5.0.1-7-8-4" data-name=" 0.1.16.5.0.1-7-8-4"><polygon id="connector232pin-0-8-4" class="cls-16" points="78.819 24.062 99.713 24.062 102.061 24.621 102.061 25.799 99.713 26.359 78.819 26.359 78.819 24.062"/><polygon id="_0.1.16.5.0.1.1-5-3-4" data-name=" 0.1.16.5.0.1.1-5-3-4" class="cls-20" points="102.061 25.799 102.061 24.621 101.404 24.463 101.404 25.96 102.061 25.799"/><polygon id="polygon6029-5-3-4" class="cls-21" points="99.713 24.062 102.061 24.621 102.061 24.899 99.713 24.34 78.819 24.34 78.819 24.062 99.713 24.062"/><polygon id="_0.1.16.5.0.1.3-8-7-4" data-name=" 0.1.16.5.0.1.3-8-7-4" class="cls-22" points="99.713 26.099 102.061 25.54 102.061 25.819 99.713 26.379 78.819 26.379 78.819 26.099 99.713 26.099"/></g><g id="_0.1.16.5.0.1-7-8-5" data-name=" 0.1.16.5.0.1-7-8-5"><polygon id="connector232pin-0-8-5" class="cls-16" points="78.819 31.29 99.713 31.29 102.061 31.849 102.061 33.026 99.713 33.588 78.819 33.588 78.819 31.29"/><polygon id="_0.1.16.5.0.1.1-5-3-5" data-name=" 0.1.16.5.0.1.1-5-3-5" class="cls-20" points="102.061 33.026 102.061 31.849 101.404 31.691 101.404 33.187 102.061 33.026"/><polygon id="polygon6029-5-3-5" class="cls-21" points="99.713 31.29 102.061 31.849 102.061 32.127 99.713 31.567 78.819 31.567 78.819 31.29 99.713 31.29"/><polygon id="_0.1.16.5.0.1.3-8-7-5" data-name=" 0.1.16.5.0.1.3-8-7-5" class="cls-22" points="99.713 33.328 102.061 32.769 102.061 33.047 99.713 33.607 78.819 33.607 78.819 33.328 99.713 33.328"/></g><g id="_0.1.16.5.0.1-7-8-6" data-name=" 0.1.16.5.0.1-7-8-6"><polygon id="connector232pin-0-8-6" class="cls-16" points="78.819 38.518 99.713 38.518 102.061 39.078 102.061 40.255 99.713 40.817 78.819 40.817 78.819 38.518"/><polygon id="_0.1.16.5.0.1.1-5-3-6" data-name=" 0.1.16.5.0.1.1-5-3-6" class="cls-20" points="102.061 40.255 102.061 39.078 101.404 38.92 101.404 40.416 102.061 40.255"/><polygon id="polygon6029-5-3-6" class="cls-21" points="99.713 38.518 102.061 39.078 102.061 39.356 99.713 38.797 78.819 38.797 78.819 38.518 99.713 38.518"/><polygon id="_0.1.16.5.0.1.3-8-7-6" data-name=" 0.1.16.5.0.1.3-8-7-6" class="cls-22" points="99.713 40.557 102.061 39.997 102.061 40.275 99.713 40.836 78.819 40.836 78.819 40.557 99.713 40.557"/></g><g id="_0.1.16.5.0.1-7-8-7" data-name=" 0.1.16.5.0.1-7-8-7"><polygon id="connector232pin-0-8-7" class="cls-16" points="78.819 45.747 99.713 45.747 102.061 46.306 102.061 47.484 99.713 48.045 78.819 48.045 78.819 45.747"/><polygon id="_0.1.16.5.0.1.1-5-3-7" data-name=" 0.1.16.5.0.1.1-5-3-7" class="cls-20" points="102.061 47.484 102.061 46.306 101.404 46.148 101.404 47.645 102.061 47.484"/><polygon id="polygon6029-5-3-7" class="cls-21" points="99.713 45.747 102.061 46.306 102.061 46.583 99.713 46.025 78.819 46.025 78.819 45.747 99.713 45.747"/><polygon id="_0.1.16.5.0.1.3-8-7-7" data-name=" 0.1.16.5.0.1.3-8-7-7" class="cls-22" points="99.713 47.785 102.061 47.226 102.061 47.504 99.713 48.064 78.819 48.064 78.819 47.785 99.713 47.785"/></g><g id="_0.1.16.5.0.1-7-8-8" data-name=" 0.1.16.5.0.1-7-8-8"><polygon id="connector232pin-0-8-8" class="cls-16" points="78.819 52.974 99.713 52.974 102.061 53.534 102.061 54.712 99.713 55.274 78.819 55.274 78.819 52.974"/><polygon id="_0.1.16.5.0.1.1-5-3-8" data-name=" 0.1.16.5.0.1.1-5-3-8" class="cls-20" points="102.061 54.712 102.061 53.534 101.404 53.375 101.404 54.873 102.061 54.712"/><polygon id="polygon6029-5-3-8" class="cls-21" points="99.713 52.974 102.061 53.534 102.061 53.812 99.713 53.253 78.819 53.253 78.819 52.974 99.713 52.974"/><polygon id="_0.1.16.5.0.1.3-8-7-8" data-name=" 0.1.16.5.0.1.3-8-7-8" class="cls-22" points="99.713 55.013 102.061 54.453 102.061 54.732 99.713 55.293 78.819 55.293 78.819 55.013 99.713 55.013"/></g><polygon id="_0.1.16.5.0.5-8-3-8" data-name=" 0.1.16.5.0.5-8-3-8" class="cls-16" points="73.677 55.274 80.956 55.274 80.956 52.974 73.677 52.974 73.677 55.274"/><polygon id="_0.1.16.5.0.6-3-1-8" data-name=" 0.1.16.5.0.6-3-1-8" class="cls-19" points="73.677 55.274 74.115 55.274 74.115 52.974 73.677 52.974 73.677 55.274"/><polygon id="_0.1.16.5.0.7-7-4-8" data-name=" 0.1.16.5.0.7-7-4-8" class="cls-20" points="74.133 55.274 74.792 55.274 74.792 52.974 74.133 52.974 74.133 55.274"/><polygon id="_0.1.16.5.0.11-1-0-8" data-name=" 0.1.16.5.0.11-1-0-8" class="cls-21" points="78.83 52.974 78.83 53.253 73.677 53.253 73.677 52.974 78.83 52.974"/><polygon id="_0.1.16.5.0.12-8-0-8" data-name=" 0.1.16.5.0.12-8-0-8" class="cls-22" points="78.83 55.013 78.83 55.293 73.677 55.293 73.677 55.013 78.83 55.013"/></g><g id="pin-header-angle-8pin-2" data-name="pin-header-angle-8pin"><path id="path106672-2-3-7" data-name="path106672-2-3" class="cls-3" d="M25.944,50.58h3.834l1.474,1.554v3.98l-1.474,1.553H25.64l-1.475-1.553v-3.98l1.475-1.553Z" transform="translate(-0.216)"/><rect class="cls-13" x="25.68" y="51.036" width="4.056" height="6.175" transform="translate(55.201 108.247) rotate(-180)"/><rect id="rect106674-2-3-7" data-name="rect106674-2-3" class="cls-14" x="26.294" y="53.026" width="2.26" height="2.233"/><rect id="rect106676-2-3-7" data-name="rect106676-2-3" class="cls-15" x="26.923" y="53.521" width="1.072" height="1.155"/><polygon id="polygon106678-2-3-7" data-name="polygon106678-2-3" class="cls-16" points="26.923 53.521 26.284 53.026 28.575 53.026 27.995 53.521 26.923 53.521"/><polygon id="polygon106680-2-3-7" data-name="polygon106680-2-3" class="cls-17" points="26.284 53.026 26.284 55.268 26.923 54.676 26.923 53.521 26.284 53.026"/><polygon id="polygon106682-2-3-7" data-name="polygon106682-2-3" class="cls-18" points="26.284 55.268 28.575 55.268 27.995 54.676 26.923 54.676 26.284 55.268"/><polygon id="polygon106684-2-3-7" data-name="polygon106684-2-3" class="cls-19" points="27.995 54.676 28.575 55.268 28.575 53.026 27.995 53.521 27.995 54.676"/><path id="path106672-2-3-8" data-name="path106672-2-3" class="cls-3" d="M25.944,43.328h3.834l1.474,1.553v3.98l-1.474,1.553H25.64l-1.475-1.553V44.882l1.475-1.553Z" transform="translate(-0.216)"/><rect class="cls-13" x="25.68" y="43.784" width="4.056" height="6.175" transform="translate(55.201 93.742) rotate(-180)"/><rect id="rect106674-2-3-8" data-name="rect106674-2-3" class="cls-14" x="26.294" y="45.774" width="2.26" height="2.233"/><rect id="rect106676-2-3-8" data-name="rect106676-2-3" class="cls-15" x="26.923" y="46.269" width="1.072" height="1.155"/><polygon id="polygon106678-2-3-8" data-name="polygon106678-2-3" class="cls-16" points="26.923 46.269 26.284 45.774 28.575 45.774 27.995 46.269 26.923 46.269"/><polygon id="polygon106680-2-3-8" data-name="polygon106680-2-3" class="cls-17" points="26.284 45.774 26.284 48.016 26.923 47.424 26.923 46.269 26.284 45.774"/><polygon id="polygon106682-2-3-8" data-name="polygon106682-2-3" class="cls-18" points="26.284 48.016 28.575 48.016 27.995 47.424 26.923 47.424 26.284 48.016"/><polygon id="polygon106684-2-3-8" data-name="polygon106684-2-3" class="cls-19" points="27.995 47.424 28.575 48.016 28.575 45.774 27.995 46.269 27.995 47.424"/><path id="path106672-2-3-9" data-name="path106672-2-3" class="cls-3" d="M25.944,36.1h3.834l1.474,1.553v3.98l-1.474,1.553H25.64l-1.475-1.553V37.654L25.64,36.1Z" transform="translate(-0.216)"/><rect class="cls-13" x="25.68" y="36.556" width="4.056" height="6.175" transform="translate(55.201 79.286) rotate(-180)"/><rect id="rect106674-2-3-9" data-name="rect106674-2-3" class="cls-14" x="26.294" y="38.546" width="2.26" height="2.233"/><rect id="rect106676-2-3-9" data-name="rect106676-2-3" class="cls-15" x="26.923" y="39.041" width="1.072" height="1.155"/><polygon id="polygon106678-2-3-9" data-name="polygon106678-2-3" class="cls-16" points="26.923 39.041 26.284 38.546 28.575 38.546 27.995 39.041 26.923 39.041"/><polygon id="polygon106680-2-3-9" data-name="polygon106680-2-3" class="cls-17" points="26.284 38.546 26.284 40.788 26.923 40.196 26.923 39.041 26.284 38.546"/><polygon id="polygon106682-2-3-9" data-name="polygon106682-2-3" class="cls-18" points="26.284 40.788 28.575 40.788 27.995 40.196 26.923 40.196 26.284 40.788"/><polygon id="polygon106684-2-3-9" data-name="polygon106684-2-3" class="cls-19" points="27.995 40.196 28.575 40.788 28.575 38.546 27.995 39.041 27.995 40.196"/><path id="path106672-2-3-10" data-name="path106672-2-3" class="cls-3" d="M25.944,28.884h3.834l1.474,1.553v3.98L29.778,35.97H25.64l-1.475-1.553V30.438l1.475-1.553Z" transform="translate(-0.216)"/><rect class="cls-13" x="25.68" y="29.34" width="4.056" height="6.175" transform="translate(55.201 64.855) rotate(-180)"/><rect id="rect106674-2-3-10" data-name="rect106674-2-3" class="cls-14" x="26.294" y="31.33" width="2.26" height="2.233"/><rect id="rect106676-2-3-10" data-name="rect106676-2-3" class="cls-15" x="26.923" y="31.825" width="1.072" height="1.155"/><polygon id="polygon106678-2-3-10" data-name="polygon106678-2-3" class="cls-16" points="26.923 31.825 26.284 31.33 28.575 31.33 27.995 31.825 26.923 31.825"/><polygon id="polygon106680-2-3-10" data-name="polygon106680-2-3" class="cls-17" points="26.284 31.33 26.284 33.572 26.923 32.98 26.923 31.825 26.284 31.33"/><polygon id="polygon106682-2-3-10" data-name="polygon106682-2-3" class="cls-18" points="26.284 33.572 28.575 33.572 27.995 32.98 26.923 32.98 26.284 33.572"/><polygon id="polygon106684-2-3-10" data-name="polygon106684-2-3" class="cls-19" points="27.995 32.98 28.575 33.572 28.575 31.33 27.995 31.825 27.995 32.98"/><path id="path106672-2-3-11" data-name="path106672-2-3" class="cls-3" d="M25.944,21.656h3.834l1.474,1.553v3.98l-1.474,1.553H25.64l-1.475-1.553V23.21l1.475-1.553Z" transform="translate(-0.216)"/><rect class="cls-13" x="25.68" y="22.112" width="4.056" height="6.175" transform="translate(55.201 50.398) rotate(-180)"/><rect id="rect106674-2-3-11" data-name="rect106674-2-3" class="cls-14" x="26.294" y="24.102" width="2.26" height="2.233"/><rect id="rect106676-2-3-11" data-name="rect106676-2-3" class="cls-15" x="26.923" y="24.597" width="1.072" height="1.155"/><polygon id="polygon106678-2-3-11" data-name="polygon106678-2-3" class="cls-16" points="26.923 24.597 26.284 24.102 28.575 24.102 27.995 24.597 26.923 24.597"/><polygon id="polygon106680-2-3-11" data-name="polygon106680-2-3" class="cls-17" points="26.284 24.102 26.284 26.344 26.923 25.752 26.923 24.597 26.284 24.102"/><polygon id="polygon106682-2-3-11" data-name="polygon106682-2-3" class="cls-18" points="26.284 26.344 28.575 26.344 27.995 25.752 26.923 25.752 26.284 26.344"/><polygon id="polygon106684-2-3-11" data-name="polygon106684-2-3" class="cls-19" points="27.995 25.752 28.575 26.344 28.575 24.102 27.995 24.597 27.995 25.752"/><path id="path106672-2-3-12" data-name="path106672-2-3" class="cls-3" d="M25.944,14.428h3.834l1.474,1.553v3.98l-1.474,1.553H25.64l-1.475-1.553V15.982l1.475-1.553Z" transform="translate(-0.216)"/><rect class="cls-13" x="25.68" y="14.884" width="4.056" height="6.175" transform="translate(55.201 35.943) rotate(-180)"/><rect id="rect106674-2-3-12" data-name="rect106674-2-3" class="cls-14" x="26.294" y="16.874" width="2.26" height="2.233"/><rect id="rect106676-2-3-12" data-name="rect106676-2-3" class="cls-15" x="26.923" y="17.369" width="1.072" height="1.155"/><polygon id="polygon106678-2-3-12" data-name="polygon106678-2-3" class="cls-16" points="26.923 17.369 26.284 16.874 28.575 16.874 27.995 17.369 26.923 17.369"/><polygon id="polygon106680-2-3-12" data-name="polygon106680-2-3" class="cls-17" points="26.284 16.874 26.284 19.116 26.923 18.524 26.923 17.369 26.284 16.874"/><polygon id="polygon106682-2-3-12" data-name="polygon106682-2-3" class="cls-18" points="26.284 19.116 28.575 19.116 27.995 18.524 26.923 18.524 26.284 19.116"/><polygon id="polygon106684-2-3-12" data-name="polygon106684-2-3" class="cls-19" points="27.995 18.524 28.575 19.116 28.575 16.874 27.995 17.369 27.995 18.524"/><path class="cls-3" d="M24.092,15.882v4.2l1.6,1.5h4.1l1.6-1.5v-4.2l-1.6-1.5H25.7Zm.576.327,1.352-1.267h3.462l1.351,1.267v3.547l-1.351,1.267H26.016l-1.352-1.267Z" transform="translate(-0.216)"/><polygon id="_0.1.16.5.0.5-8-3-3-2" data-name=" 0.1.16.5.0.5-8-3-3" class="cls-16" points="28.384 19.132 21.105 19.132 21.105 16.833 28.384 16.833 28.384 19.132"/><polygon id="_0.1.16.5.0.6-3-1-3-2" data-name=" 0.1.16.5.0.6-3-1-3" class="cls-19" points="28.384 19.132 27.946 19.132 27.946 16.833 28.384 16.833 28.384 19.132"/><polygon id="_0.1.16.5.0.7-7-4-3-2" data-name=" 0.1.16.5.0.7-7-4-3" class="cls-20" points="27.928 19.132 27.269 19.132 27.269 16.833 27.928 16.833 27.928 19.132"/><polygon id="_0.1.16.5.0.11-1-0-3-2" data-name=" 0.1.16.5.0.11-1-0-3" class="cls-21" points="23.231 16.833 23.231 17.111 28.384 17.111 28.384 16.833 23.231 16.833"/><polygon id="_0.1.16.5.0.12-8-0-3-2" data-name=" 0.1.16.5.0.12-8-0-3" class="cls-22" points="23.231 18.871 23.231 19.151 28.384 19.151 28.384 18.871 23.231 18.871"/><path class="cls-3" d="M24.092,23.111v4.2l1.6,1.5h4.1l1.6-1.5v-4.2l-1.6-1.5H25.7Zm.576.328,1.352-1.267h3.462l1.351,1.267v3.546l-1.351,1.267H26.016l-1.352-1.267Z" transform="translate(-0.216)"/><polygon id="_0.1.16.5.0.5-8-3-4-2" data-name=" 0.1.16.5.0.5-8-3-4" class="cls-16" points="28.384 26.359 21.105 26.359 21.105 24.062 28.384 24.062 28.384 26.359"/><polygon id="_0.1.16.5.0.6-3-1-4-2" data-name=" 0.1.16.5.0.6-3-1-4" class="cls-19" points="28.384 26.359 27.946 26.359 27.946 24.062 28.384 24.062 28.384 26.359"/><polygon id="_0.1.16.5.0.7-7-4-4-2" data-name=" 0.1.16.5.0.7-7-4-4" class="cls-20" points="27.928 26.359 27.269 26.359 27.269 24.062 27.928 24.062 27.928 26.359"/><polygon id="_0.1.16.5.0.11-1-0-4-2" data-name=" 0.1.16.5.0.11-1-0-4" class="cls-21" points="23.231 24.062 23.231 24.34 28.384 24.34 28.384 24.062 23.231 24.062"/><polygon id="_0.1.16.5.0.12-8-0-4-2" data-name=" 0.1.16.5.0.12-8-0-4" class="cls-22" points="23.231 26.099 23.231 26.379 28.384 26.379 28.384 26.099 23.231 26.099"/><path class="cls-3" d="M24.092,30.339v4.2l1.6,1.5h4.1l1.6-1.5v-4.2l-1.6-1.5H25.7Zm.576.327L26.02,29.4h3.462l1.351,1.267v3.547l-1.351,1.266H26.016l-1.352-1.266Z" transform="translate(-0.216)"/><polygon id="_0.1.16.5.0.5-8-3-5-2" data-name=" 0.1.16.5.0.5-8-3-5" class="cls-16" points="28.384 33.588 21.105 33.588 21.105 31.29 28.384 31.29 28.384 33.588"/><polygon id="_0.1.16.5.0.6-3-1-5-2" data-name=" 0.1.16.5.0.6-3-1-5" class="cls-19" points="28.384 33.588 27.946 33.588 27.946 31.29 28.384 31.29 28.384 33.588"/><polygon id="_0.1.16.5.0.7-7-4-5-2" data-name=" 0.1.16.5.0.7-7-4-5" class="cls-20" points="27.928 33.588 27.269 33.588 27.269 31.29 27.928 31.29 27.928 33.588"/><polygon id="_0.1.16.5.0.11-1-0-5-2" data-name=" 0.1.16.5.0.11-1-0-5" class="cls-21" points="23.231 31.29 23.231 31.567 28.384 31.567 28.384 31.29 23.231 31.29"/><polygon id="_0.1.16.5.0.12-8-0-5-2" data-name=" 0.1.16.5.0.12-8-0-5" class="cls-22" points="23.231 33.328 23.231 33.607 28.384 33.607 28.384 33.328 23.231 33.328"/><path class="cls-3" d="M24.092,37.568v4.2l1.6,1.5h4.1l1.6-1.5v-4.2l-1.6-1.5H25.7Zm.576.326,1.352-1.266h3.462l1.351,1.266v3.547l-1.351,1.267H26.016l-1.352-1.267Z" transform="translate(-0.216)"/><polygon id="_0.1.16.5.0.5-8-3-6-2" data-name=" 0.1.16.5.0.5-8-3-6" class="cls-16" points="28.384 40.817 21.105 40.817 21.105 38.518 28.384 38.518 28.384 40.817"/><polygon id="_0.1.16.5.0.6-3-1-6-2" data-name=" 0.1.16.5.0.6-3-1-6" class="cls-19" points="28.384 40.817 27.946 40.817 27.946 38.518 28.384 38.518 28.384 40.817"/><polygon id="_0.1.16.5.0.7-7-4-6-2" data-name=" 0.1.16.5.0.7-7-4-6" class="cls-20" points="27.928 40.817 27.269 40.817 27.269 38.518 27.928 38.518 27.928 40.817"/><polygon id="_0.1.16.5.0.11-1-0-6-2" data-name=" 0.1.16.5.0.11-1-0-6" class="cls-21" points="23.231 38.518 23.231 38.797 28.384 38.797 28.384 38.518 23.231 38.518"/><polygon id="_0.1.16.5.0.12-8-0-6-2" data-name=" 0.1.16.5.0.12-8-0-6" class="cls-22" points="23.231 40.557 23.231 40.836 28.384 40.836 28.384 40.557 23.231 40.557"/><path class="cls-3" d="M24.092,44.8V49l1.6,1.5h4.1l1.6-1.5V44.8l-1.6-1.5H25.7Zm.576.327,1.352-1.267h3.462l1.351,1.267v3.546l-1.351,1.267H26.016l-1.352-1.267Z" transform="translate(-0.216)"/><polygon id="_0.1.16.5.0.5-8-3-7-2" data-name=" 0.1.16.5.0.5-8-3-7" class="cls-16" points="28.384 48.045 21.105 48.045 21.105 45.747 28.384 45.747 28.384 48.045"/><polygon id="_0.1.16.5.0.6-3-1-7-2" data-name=" 0.1.16.5.0.6-3-1-7" class="cls-19" points="28.384 48.045 27.946 48.045 27.946 45.747 28.384 45.747 28.384 48.045"/><polygon id="_0.1.16.5.0.7-7-4-7-2" data-name=" 0.1.16.5.0.7-7-4-7" class="cls-20" points="27.928 48.045 27.269 48.045 27.269 45.747 27.928 45.747 27.928 48.045"/><polygon id="_0.1.16.5.0.11-1-0-7-2" data-name=" 0.1.16.5.0.11-1-0-7" class="cls-21" points="23.231 45.747 23.231 46.025 28.384 46.025 28.384 45.747 23.231 45.747"/><polygon id="_0.1.16.5.0.12-8-0-7-2" data-name=" 0.1.16.5.0.12-8-0-7" class="cls-22" points="23.231 47.785 23.231 48.064 28.384 48.064 28.384 47.785 23.231 47.785"/><path class="cls-3" d="M24.092,52.024v4.2l1.6,1.5h4.1l1.6-1.5v-4.2l-1.6-1.5H25.7Zm.576.332,1.352-1.267h3.462l1.351,1.267V55.9l-1.351,1.266H26.016L24.664,55.9Z" transform="translate(-0.216)"/><g id="_0.1.16.5.0.1-7-8-3-2" data-name=" 0.1.16.5.0.1-7-8-3"><polygon id="connector232pin-0-8-3-2" data-name="connector232pin-0-8-3" class="cls-16" points="23.242 16.833 2.348 16.833 0 17.392 0 18.57 2.348 19.132 23.242 19.132 23.242 16.833"/><polygon id="_0.1.16.5.0.1.1-5-3-3-2" data-name=" 0.1.16.5.0.1.1-5-3-3" class="cls-20" points="0 18.57 0 17.392 0.657 17.234 0.657 18.731 0 18.57"/><polygon id="polygon6029-5-3-3-2" data-name="polygon6029-5-3-3" class="cls-21" points="2.348 16.833 0 17.392 0 17.671 2.348 17.111 23.242 17.111 23.242 16.833 2.348 16.833"/><polygon id="_0.1.16.5.0.1.3-8-7-3-2" data-name=" 0.1.16.5.0.1.3-8-7-3" class="cls-22" points="2.348 18.871 0 18.312 0 18.59 2.348 19.151 23.242 19.151 23.242 18.871 2.348 18.871"/></g><g id="_0.1.16.5.0.1-7-8-4-2" data-name=" 0.1.16.5.0.1-7-8-4"><polygon id="connector232pin-0-8-4-2" data-name="connector232pin-0-8-4" class="cls-16" points="23.242 24.062 2.348 24.062 0 24.621 0 25.799 2.348 26.359 23.242 26.359 23.242 24.062"/><polygon id="_0.1.16.5.0.1.1-5-3-4-2" data-name=" 0.1.16.5.0.1.1-5-3-4" class="cls-20" points="0 25.799 0 24.621 0.657 24.463 0.657 25.96 0 25.799"/><polygon id="polygon6029-5-3-4-2" data-name="polygon6029-5-3-4" class="cls-21" points="2.348 24.062 0 24.621 0 24.899 2.348 24.34 23.242 24.34 23.242 24.062 2.348 24.062"/><polygon id="_0.1.16.5.0.1.3-8-7-4-2" data-name=" 0.1.16.5.0.1.3-8-7-4" class="cls-22" points="2.348 26.099 0 25.54 0 25.819 2.348 26.379 23.242 26.379 23.242 26.099 2.348 26.099"/></g><g id="_0.1.16.5.0.1-7-8-5-2" data-name=" 0.1.16.5.0.1-7-8-5"><polygon id="connector232pin-0-8-5-2" data-name="connector232pin-0-8-5" class="cls-16" points="23.242 31.29 2.348 31.29 0 31.849 0 33.026 2.348 33.588 23.242 33.588 23.242 31.29"/><polygon id="_0.1.16.5.0.1.1-5-3-5-2" data-name=" 0.1.16.5.0.1.1-5-3-5" class="cls-20" points="0 33.026 0 31.849 0.657 31.691 0.657 33.187 0 33.026"/><polygon id="polygon6029-5-3-5-2" data-name="polygon6029-5-3-5" class="cls-21" points="2.348 31.29 0 31.849 0 32.127 2.348 31.567 23.242 31.567 23.242 31.29 2.348 31.29"/><polygon id="_0.1.16.5.0.1.3-8-7-5-2" data-name=" 0.1.16.5.0.1.3-8-7-5" class="cls-22" points="2.348 33.328 0 32.769 0 33.047 2.348 33.607 23.242 33.607 23.242 33.328 2.348 33.328"/></g><g id="_0.1.16.5.0.1-7-8-6-2" data-name=" 0.1.16.5.0.1-7-8-6"><polygon id="connector232pin-0-8-6-2" data-name="connector232pin-0-8-6" class="cls-16" points="23.242 38.518 2.348 38.518 0 39.078 0 40.255 2.348 40.817 23.242 40.817 23.242 38.518"/><polygon id="_0.1.16.5.0.1.1-5-3-6-2" data-name=" 0.1.16.5.0.1.1-5-3-6" class="cls-20" points="0 40.255 0 39.078 0.657 38.92 0.657 40.416 0 40.255"/><polygon id="polygon6029-5-3-6-2" data-name="polygon6029-5-3-6" class="cls-21" points="2.348 38.518 0 39.078 0 39.356 2.348 38.797 23.242 38.797 23.242 38.518 2.348 38.518"/><polygon id="_0.1.16.5.0.1.3-8-7-6-2" data-name=" 0.1.16.5.0.1.3-8-7-6" class="cls-22" points="2.348 40.557 0 39.997 0 40.275 2.348 40.836 23.242 40.836 23.242 40.557 2.348 40.557"/></g><g id="_0.1.16.5.0.1-7-8-7-2" data-name=" 0.1.16.5.0.1-7-8-7"><polygon id="connector232pin-0-8-7-2" data-name="connector232pin-0-8-7" class="cls-16" points="23.242 45.747 2.348 45.747 0 46.306 0 47.484 2.348 48.045 23.242 48.045 23.242 45.747"/><polygon id="_0.1.16.5.0.1.1-5-3-7-2" data-name=" 0.1.16.5.0.1.1-5-3-7" class="cls-20" points="0 47.484 0 46.306 0.657 46.148 0.657 47.645 0 47.484"/><polygon id="polygon6029-5-3-7-2" data-name="polygon6029-5-3-7" class="cls-21" points="2.348 45.747 0 46.306 0 46.583 2.348 46.025 23.242 46.025 23.242 45.747 2.348 45.747"/><polygon id="_0.1.16.5.0.1.3-8-7-7-2" data-name=" 0.1.16.5.0.1.3-8-7-7" class="cls-22" points="2.348 47.785 0 47.226 0 47.504 2.348 48.064 23.242 48.064 23.242 47.785 2.348 47.785"/></g><g id="_0.1.16.5.0.1-7-8-8-2" data-name=" 0.1.16.5.0.1-7-8-8"><polygon id="connector232pin-0-8-8-2" data-name="connector232pin-0-8-8" class="cls-16" points="23.242 52.974 2.348 52.974 0 53.534 0 54.712 2.348 55.274 23.242 55.274 23.242 52.974"/><polygon id="_0.1.16.5.0.1.1-5-3-8-2" data-name=" 0.1.16.5.0.1.1-5-3-8" class="cls-20" points="0 54.712 0 53.534 0.657 53.375 0.657 54.873 0 54.712"/><polygon id="polygon6029-5-3-8-2" data-name="polygon6029-5-3-8" class="cls-21" points="2.348 52.974 0 53.534 0 53.812 2.348 53.253 23.242 53.253 23.242 52.974 2.348 52.974"/><polygon id="_0.1.16.5.0.1.3-8-7-8-2" data-name=" 0.1.16.5.0.1.3-8-7-8" class="cls-22" points="2.348 55.013 0 54.453 0 54.732 2.348 55.293 23.242 55.293 23.242 55.013 2.348 55.013"/></g><polygon id="_0.1.16.5.0.5-8-3-8-2" data-name=" 0.1.16.5.0.5-8-3-8" class="cls-16" points="28.384 55.274 21.105 55.274 21.105 52.974 28.384 52.974 28.384 55.274"/><polygon id="_0.1.16.5.0.6-3-1-8-2" data-name=" 0.1.16.5.0.6-3-1-8" class="cls-19" points="28.384 55.274 27.946 55.274 27.946 52.974 28.384 52.974 28.384 55.274"/><polygon id="_0.1.16.5.0.7-7-4-8-2" data-name=" 0.1.16.5.0.7-7-4-8" class="cls-20" points="27.928 55.274 27.269 55.274 27.269 52.974 27.928 52.974 27.928 55.274"/><polygon id="_0.1.16.5.0.11-1-0-8-2" data-name=" 0.1.16.5.0.11-1-0-8" class="cls-21" points="23.231 52.974 23.231 53.253 28.384 53.253 28.384 52.974 23.231 52.974"/><polygon id="_0.1.16.5.0.12-8-0-8-2" data-name=" 0.1.16.5.0.12-8-0-8" class="cls-22" points="23.231 55.013 23.231 55.293 28.384 55.293 28.384 55.013 23.231 55.013"/></g></g></svg>