<svg id="troyka-5mm-led-module-yellow" xmlns="http://www.w3.org/2000/svg" xmlns:xlink="http://www.w3.org/1999/xlink" width="72" height="72" viewBox="0 0 72 72">
  <defs>
    <style>
      .cls-1 {
        fill: #f2f2f2;
        stroke-miterlimit: 1;
        stroke-width: 0.43px;
      }

      .cls-1, .cls-2 {
        stroke: #000;
      }

      .cls-1, .cls-14, .cls-15, .cls-16, .cls-22 {
        stroke-linecap: round;
      }

      .cls-15, .cls-2 {
        fill: none;
      }

      .cls-2 {
        stroke-width: 0.28px;
      }

      .cls-3 {
        fill: #666;
      }

      .cls-4 {
        fill: #8d8c8c;
      }

      .cls-5 {
        fill: #8c8663;
      }

      .cls-6 {
        fill: #b8af82;
      }

      .cls-7 {
        fill: #80795b;
      }

      .cls-8 {
        fill: #5e5b43;
      }

      .cls-9 {
        fill: #9a916c;
      }

      .cls-10, .cls-14, .cls-16, .cls-17, .cls-18, .cls-20, .cls-22 {
        isolation: isolate;
      }

      .cls-10 {
        font-size: 5.41px;
        font-family: TrebuchetMS, Trebuchet MS;
      }

      .cls-11 {
        fill: #242424;
      }

      .cls-12 {
        fill: #b3b3b3;
      }

      .cls-13 {
        fill: gray;
      }

      .cls-14 {
        stroke-width: 0.27px;
        fill: url(#Безымянный_градиент_4);
        stroke: url(#Безымянный_градиент_5);
      }

      .cls-14, .cls-16, .cls-17 {
        opacity: 0.46;
      }

      .cls-15 {
        stroke: #ffdd10;
        stroke-width: 0.28px;
      }

      .cls-16 {
        stroke-width: 0.12px;
        fill: url(#Безымянный_градиент);
        stroke: url(#Безымянный_градиент_2);
      }

      .cls-17 {
        fill: url(#Безымянный_градиент_3);
      }

      .cls-18 {
        fill: #fe0;
      }

      .cls-18, .cls-19 {
        opacity: 0.5;
      }

      .cls-19 {
        fill: #8c8c8c;
      }

      .cls-20 {
        fill: #fff;
        opacity: 0.6;
      }

      .cls-21 {
        fill: #ff0;
      }

      .cls-22 {
        stroke-width: 0.07px;
        opacity: 0.39;
        fill: url(#Безымянный_градиент_6);
        stroke: url(#Безымянный_градиент_7);
      }
    </style>
    <radialGradient id="Безымянный_градиент_4" data-name="Безымянный градиент 4" cx="-985.42" cy="-329.83" r="5.02" gradientTransform="translate(-2756.8 -969.12) rotate(180) scale(2.83 3.04)" gradientUnits="userSpaceOnUse">
      <stop offset="0" stop-color="#ff0"/>
      <stop offset="1" stop-color="#ff0" stop-opacity="0"/>
    </radialGradient>
    <radialGradient id="Безымянный_градиент_5" data-name="Безымянный градиент 5" cx="-626.9" cy="34.71" r="1.8" gradientTransform="translate(-7403.88 -1554.06) rotate(180) scale(16.52 3.84)" gradientUnits="userSpaceOnUse">
      <stop offset="0"/>
      <stop offset="0.56" stop-color="#02dd55"/>
      <stop offset="1" stop-color="#0d5" stop-opacity="0"/>
    </radialGradient>
    <radialGradient id="Безымянный_градиент" data-name="Безымянный градиент" cx="-255.45" cy="336.1" r="6.18" gradientTransform="translate(759.31 -936.61) scale(2.83 2.89)" xlink:href="#Безымянный_градиент_4"/>
    <radialGradient id="Безымянный_градиент_2" data-name="Безымянный градиент 2" cx="467.7" cy="1378.56" r="41.36" gradientTransform="translate(-160.32 -557.45) scale(0.42 0.43)" gradientUnits="userSpaceOnUse">
      <stop offset="0"/>
      <stop offset="1" stop-opacity="0"/>
    </radialGradient>
    <radialGradient id="Безымянный_градиент_3" data-name="Безымянный градиент 3" cx="-965.56" cy="-407.76" r="10.07" gradientTransform="translate(-2700.01 -809.36) rotate(180) scale(2.83 2.07)" xlink:href="#Безымянный_градиент_4"/>
    <radialGradient id="Безымянный_градиент_6" data-name="Безымянный градиент 6" cx="-460.57" cy="-83.29" r="0.98" gradientTransform="translate(-5469.56 -724.44) rotate(180) scale(11.95 9.12)" gradientUnits="userSpaceOnUse">
      <stop offset="0" stop-color="#fff"/>
      <stop offset="1" stop-color="#fff" stop-opacity="0"/>
    </radialGradient>
    <radialGradient id="Безымянный_градиент_7" data-name="Безымянный градиент 7" cx="-3938.85" cy="-4349.38" r="41.35" gradientTransform="matrix(-0.19, 0, -0.01, -0.14, -759.41, -577.04)" xlink:href="#Безымянный_градиент_2"/>
  </defs>
  <title>troyka-5mm-led-module-yellow</title>
  <g id="all">
    <path id="troyka-oneunit" class="cls-1" d="M4.7.22A4.46,4.46,0,0,1,.24,4.7h0V67.29a4.49,4.49,0,0,1,4.49,4.48v0H67.29a4.48,4.48,0,0,1,4.47-4.5,0,0,0,0,1,0,0V4.7A4.48,4.48,0,0,1,67.29.23H4.7Z" transform="translate(0 0)"/>
    <g id="troyka-pin1">
      <rect id="rect16996" class="cls-2" x="39.49" y="0.3" width="7.13" height="13.81" rx="0.14" ry="0.14"/>
      <rect id="rect16998" class="cls-2" x="32.39" y="0.3" width="7.13" height="13.81" rx="0.14" ry="0.14"/>
      <rect id="rect17000" class="cls-2" x="25.29" y="0.3" width="7.13" height="13.81" rx="0.14" ry="0.14"/>
      <circle id="circle17002" class="cls-3" cx="43.06" cy="10.43" r="2.62"/>
      <circle id="circle17004" class="cls-3" cx="35.95" cy="10.43" r="2.62"/>
      <rect id="rect17006" class="cls-3" x="26.23" y="7.81" width="5.23" height="5.23" rx="0.48" ry="0.48"/>
      <rect id="rect17008" class="cls-4" x="27.72" y="9.24" width="2.27" height="2.39"/>
      <rect id="rect17010" class="cls-5" x="28.27" y="9.82" width="1.17" height="1.23"/>
      <polygon id="polygon17012" class="cls-6" points="29.98 9.23 27.71 9.23 28.27 9.81 29.43 9.81 29.98 9.23"/>
      <polygon id="polygon17014" class="cls-7" points="29.98 11.62 29.43 11.04 29.43 9.81 29.98 9.23 29.98 11.62"/>
      <polygon id="polygon17016" class="cls-8" points="27.71 11.62 28.27 11.04 29.43 11.04 29.98 11.62 27.71 11.62"/>
      <polygon id="polygon17018" class="cls-9" points="27.71 11.62 27.71 9.23 28.27 9.81 28.27 11.04 27.71 11.62"/>
      <rect id="rect17022" class="cls-4" x="41.92" y="9.24" width="2.27" height="2.39"/>
      <rect id="rect17024" class="cls-5" x="42.47" y="9.82" width="1.17" height="1.23"/>
      <polygon id="polygon17026" class="cls-6" points="43.63 9.81 44.17 9.23 41.91 9.23 42.47 9.81 43.63 9.81"/>
      <polygon id="polygon17028" class="cls-7" points="44.17 9.23 44.17 11.62 43.63 11.04 43.63 9.81 44.17 9.23"/>
      <polygon id="polygon17030" class="cls-8" points="44.17 11.62 41.91 11.62 42.47 11.04 43.63 11.04 44.17 11.62"/>
      <polygon id="polygon17032" class="cls-9" points="42.47 11.04 41.91 11.62 41.91 9.23 42.47 9.81 42.47 11.04"/>
      <rect id="rect17036" class="cls-4" x="34.82" y="9.24" width="2.27" height="2.39"/>
      <rect id="rect17038" class="cls-5" x="35.37" y="9.82" width="1.17" height="1.23"/>
      <polygon id="polygon17040" class="cls-6" points="37.08 9.23 34.81 9.23 35.37 9.81 36.52 9.81 37.08 9.23"/>
      <polygon id="polygon17042" class="cls-7" points="37.08 11.62 36.52 11.04 36.52 9.81 37.08 9.23 37.08 11.62"/>
      <polygon id="polygon17044" class="cls-8" points="34.81 11.62 35.37 11.04 36.52 11.04 37.08 11.62 34.81 11.62"/>
      <polygon id="polygon17046" class="cls-9" points="34.81 11.62 34.81 9.23 35.37 9.81 35.37 11.04 34.81 11.62"/>
      <rect id="rect17048" class="cls-4" x="34.82" y="9.24" width="2.27" height="2.39"/>
      <rect id="rect17050" class="cls-5" x="35.37" y="9.82" width="1.17" height="1.23"/>
      <polygon id="polygon17052" class="cls-6" points="36.52 9.81 37.08 9.23 34.81 9.23 35.37 9.81 36.52 9.81"/>
      <polygon id="polygon17054" class="cls-7" points="37.08 9.23 37.08 11.62 36.52 11.04 36.52 9.81 37.08 9.23"/>
      <polygon id="polygon17056" class="cls-8" points="37.08 11.62 34.81 11.62 35.37 11.04 36.52 11.04 37.08 11.62"/>
      <polygon id="polygon17058" class="cls-9" points="35.37 11.04 34.81 11.62 34.81 9.23 35.37 9.81 35.37 11.04"/>
    </g>
    <g id="troyka-pin2">
      <rect id="rect16928" class="cls-2" x="25.19" y="58.05" width="7.13" height="13.81" rx="0.14" ry="0.14"/>
      <rect id="rect16930" class="cls-2" x="32.29" y="58.05" width="7.13" height="13.81" rx="0.14" ry="0.14"/>
      <rect id="rect16932" class="cls-2" x="39.39" y="58.05" width="7.13" height="13.81" rx="0.14" ry="0.14"/>
      <circle id="circle16934" class="cls-3" cx="28.74" cy="61.74" r="2.62"/>
      <circle id="circle16936" class="cls-3" cx="35.85" cy="61.74" r="2.62"/>
      <rect id="rect16938" class="cls-3" x="40.34" y="59.12" width="5.23" height="5.23" rx="0.48" ry="0.48"/>
      <rect id="rect16940" class="cls-4" x="41.82" y="60.54" width="2.27" height="2.39"/>
      <rect id="rect16942" class="cls-5" x="42.37" y="61.12" width="1.17" height="1.23"/>
      <polygon id="polygon16944" class="cls-6" points="42.37 62.35 41.81 62.93 44.08 62.93 43.52 62.35 42.37 62.35"/>
      <polygon id="polygon16946" class="cls-7" points="41.81 62.93 41.81 60.54 42.37 61.12 42.37 62.35 41.81 62.93"/>
      <polygon id="polygon16948" class="cls-8" points="41.81 60.54 44.08 60.54 43.52 61.12 42.37 61.12 41.81 60.54"/>
      <polygon id="polygon16950" class="cls-9" points="43.52 61.12 44.08 60.54 44.08 62.93 43.52 62.35 43.52 61.12"/>
      <rect id="rect16954" class="cls-4" x="27.62" y="60.54" width="2.27" height="2.39"/>
      <rect id="rect16956" class="cls-5" x="28.17" y="61.12" width="1.17" height="1.23"/>
      <polygon id="polygon16958" class="cls-6" points="29.32 62.35 28.16 62.35 27.61 62.93 29.89 62.93 29.32 62.35"/>
      <polygon id="polygon16960" class="cls-7" points="28.16 62.35 27.61 62.93 27.61 60.54 28.16 61.12 28.16 62.35"/>
      <polygon id="polygon16962" class="cls-8" points="28.16 61.12 27.61 60.54 29.89 60.54 29.32 61.12 28.16 61.12"/>
      <polygon id="polygon16964" class="cls-9" points="29.32 62.35 29.32 61.12 29.89 60.54 29.89 62.93 29.32 62.35"/>
      <rect id="rect16968" class="cls-4" x="34.72" y="60.54" width="2.27" height="2.39"/>
      <rect id="rect16970" class="cls-5" x="35.27" y="61.12" width="1.17" height="1.23"/>
      <polygon id="polygon16972" class="cls-6" points="35.27 62.35 34.72 62.93 36.98 62.93 36.42 62.35 35.27 62.35"/>
      <polygon id="polygon16974" class="cls-7" points="34.72 62.93 34.72 60.54 35.27 61.12 35.27 62.35 34.72 62.93"/>
      <polygon id="polygon16976" class="cls-8" points="34.72 60.54 36.98 60.54 36.42 61.12 35.27 61.12 34.72 60.54"/>
      <polygon id="polygon16978" class="cls-9" points="36.42 61.12 36.98 60.54 36.98 62.93 36.42 62.35 36.42 61.12"/>
      <rect id="rect16980" class="cls-4" x="34.72" y="60.54" width="2.27" height="2.39"/>
      <rect id="rect16982" class="cls-5" x="35.27" y="61.12" width="1.17" height="1.23"/>
      <polygon id="polygon16984" class="cls-6" points="36.42 62.35 35.27 62.35 34.72 62.93 36.98 62.93 36.42 62.35"/>
      <polygon id="polygon16986" class="cls-7" points="35.27 62.35 34.72 62.93 34.72 60.54 35.27 61.12 35.27 62.35"/>
      <polygon id="polygon16988" class="cls-8" points="35.27 61.12 34.72 60.54 36.98 60.54 36.42 61.12 35.27 61.12"/>
      <polygon id="polygon16990" class="cls-9" points="36.42 62.35 36.42 61.12 36.98 60.54 36.98 62.93 36.42 62.35"/>
      <g id="text17070">
        <text class="cls-10" transform="translate(41.38 69.66)">G</text>
      </g>
      <g id="text17090">
        <text class="cls-10" transform="translate(34.43 69.63)">V</text>
      </g>
      <g id="text17110">
        <text class="cls-10" transform="translate(27.61 69.66)">S</text>
      </g>
    </g>
    <g id="T1-SOP23">
      <path id="path17192" class="cls-11" d="M17.23,59.44h-7.1V56.51h7.1Z" transform="translate(0 0)"/>
      <path id="path17194" class="cls-12" d="M16.69,61.6H15.33V59.44h1.36Z" transform="translate(0 0)"/>
      <path id="path17196" class="cls-13" d="M16.69,60.37H15.33v-.69h1.36Z" transform="translate(0 0)"/>
      <path id="path17198" class="cls-12" d="M12,61.6H10.67V59.44H12Z" transform="translate(0 0)"/>
      <path id="path17200" class="cls-13" d="M12,60.37H10.67v-.69H12Z" transform="translate(0 0)"/>
      <path id="path17202" class="cls-12" d="M14.37,54.35H13v2.16h1.37Z" transform="translate(0 0)"/>
      <path id="path17204" class="cls-13" d="M14.37,55.6H13v.68h1.37Z" transform="translate(0 0)"/>
    </g>
    <g id="R2-0603">
      <path id="path17208" class="cls-11" d="M52.6,61.28h-3V55.84h3Z" transform="translate(0 0)"/>
      <path id="path17210" class="cls-12" d="M52.6,56.14h-3v-1h3Z" transform="translate(0 0)"/>
      <path id="path17212" class="cls-12" d="M52.6,61.82h-3v-1h3Z" transform="translate(0 0)"/>
    </g>
    <g id="R3-0603">
      <path id="path17214" class="cls-11" d="M22.71,60.53H19.77V55.19h2.95Z" transform="translate(0 0)"/>
      <path id="path17216" class="cls-12" d="M22.72,55.73h-3v-1h3Z" transform="translate(0 0)"/>
      <path id="path17218" class="cls-12" d="M22.72,61.39h-3v-1h3Z" transform="translate(0 0)"/>
    </g>
    <g id="R1-0603">
      <path id="path17222" class="cls-11" d="M60.39,61.17h-3V55.73h3Z" transform="translate(0 0)"/>
      <path id="path17224" class="cls-12" d="M60.42,56h-3V55h3Z" transform="translate(0 0)"/>
      <path id="path17226" class="cls-12" d="M60.42,61.71h-3v-1h3Z" transform="translate(0 0)"/>
    </g>
    <g id="L1-5mm">
      <ellipse id="ellipse16562" class="cls-14" cx="34.63" cy="34.64" rx="13.83" ry="14.87"/>
      <circle id="circle17236" class="cls-15" cx="35.6" cy="35.27" r="7.47"/>
      <ellipse id="ellipse16558" class="cls-16" cx="36.11" cy="34.73" rx="17.35" ry="17.69"/>
      <ellipse id="ellipse16560" class="cls-17" cx="35.13" cy="35.73" rx="28.32" ry="20.63"/>
      <circle id="circle17232" class="cls-18" cx="35.55" cy="35.35" r="7.35"/>
      <circle id="circle17228" class="cls-19" cx="35.65" cy="35.34" r="3.7"/>
      <path id="path17234" class="cls-20" d="M34.83,31.26a3.87,3.87,0,0,1,1.07-.13,3.55,3.55,0,0,1,.92.09l.38-1.83a5.62,5.62,0,0,0-1.3-.13,9.26,9.26,0,0,0-1.65.18ZM33,30a6.47,6.47,0,0,0-3.38,7l1.82-.4a6,6,0,0,1-.07-.85,4.57,4.57,0,0,1,2.34-4Z" transform="translate(0 0)"/>
      <circle id="circle17230" class="cls-21" cx="35.49" cy="35.37" r="1.4"/>
      <ellipse id="ellipse16564" class="cls-22" cx="34.95" cy="33.17" rx="11.53" ry="8.83"/>
    </g>
    <g id="amperka-logo">
      <path id="path532-5-4-9-8-5-6-8-0" d="M10.8,11.09a2,2,0,1,1-2,2,2,2,0,0,1,2-2m0,5.32a3.29,3.29,0,1,0-3.28-3.29h0a3.28,3.28,0,0,0,3.28,3.28" transform="translate(0 0)"/>
      <path id="path536-1-4-0-5-1-3-3-2" d="M10.8,4.7a2.29,2.29,0,1,1-.05,0h.05M10.8,6a1,1,0,1,0,1,1,1,1,0,0,0-1-1" transform="translate(0 0)"/>
      <path id="path540-3-7-2-9-1-0-6-4" d="M11.14,18.56a5.45,5.45,0,0,0,5.07-5.09A5.33,5.33,0,0,0,15,9.7l.4-.4a.6.6,0,1,0-.8-.9l-.05,0-.89.89a.56.56,0,0,0,0,.76A4.28,4.28,0,0,1,15,12.88a4.22,4.22,0,1,1-7.17-2.75v-.06a.54.54,0,0,0,0-.76L7,8.45a.64.64,0,0,0-.9-.07.65.65,0,0,0,0,.88h0l.42.42a5.48,5.48,0,0,0,4.27,8.9h.37" transform="translate(0 0)"/>
    </g>
  </g>
</svg>
