<svg id="troyka-5mm-led-module-blue" xmlns="http://www.w3.org/2000/svg" xmlns:xlink="http://www.w3.org/1999/xlink" width="72" height="72" viewBox="0 0 72 72">
  <defs>
    <style>
      .cls-1 {
        fill: #f2f2f2;
        stroke-miterlimit: 1;
        stroke-width: 0.43px;
      }

      .cls-1, .cls-2 {
        stroke: #000;
      }

      .cls-19, .cls-2 {
        fill: none;
      }

      .cls-2 {
        stroke-width: 0.28px;
      }

      .cls-3 {
        fill: #666;
      }

      .cls-4 {
        fill: #8d8c8c;
      }

      .cls-5 {
        fill: #8c8663;
      }

      .cls-6 {
        fill: #b8af82;
      }

      .cls-7 {
        fill: #80795b;
      }

      .cls-8 {
        fill: #5e5b43;
      }

      .cls-9 {
        fill: #9a916c;
      }

      .cls-10, .cls-17, .cls-18, .cls-20, .cls-21, .cls-22, .cls-23 {
        isolation: isolate;
      }

      .cls-10 {
        font-size: 5.41px;
        font-family: TrebuchetMS, Trebuchet MS;
      }

      .cls-11 {
        fill: #404040;
      }

      .cls-12 {
        fill: #b3b3b3;
      }

      .cls-13 {
        fill: gray;
      }

      .cls-14 {
        fill: #1a1a1a;
      }

      .cls-15 {
        fill: #8c8c8c;
      }

      .cls-16, .cls-17 {
        fill: blue;
      }

      .cls-17 {
        opacity: 0.5;
      }

      .cls-18 {
        fill: #fff;
        opacity: 0.6;
      }

      .cls-19 {
        stroke: blue;
        stroke-width: 0.2px;
      }

      .cls-19, .cls-22, .cls-23 {
        stroke-linecap: round;
      }

      .cls-20, .cls-21, .cls-22 {
        opacity: 0.57;
      }

      .cls-20 {
        fill: url(#Безымянный_градиент);
      }

      .cls-21 {
        fill: url(#Безымянный_градиент_2);
      }

      .cls-22 {
        stroke-width: 0.27px;
        fill: url(#Безымянный_градиент_3);
        stroke: url(#Безымянный_градиент_4);
      }

      .cls-23 {
        stroke-width: 0.07px;
        opacity: 0.48;
        fill: url(#Безымянный_градиент_5);
        stroke: url(#Безымянный_градиент_6);
      }
    </style>
    <radialGradient id="Безымянный_градиент" data-name="Безымянный градиент" cx="-238.84" cy="299.16" r="6.18" gradientTransform="translate(711.91 -829.4) scale(2.83 2.89)" gradientUnits="userSpaceOnUse">
      <stop offset="0" stop-color="blue"/>
      <stop offset="1" stop-color="blue" stop-opacity="0"/>
    </radialGradient>
    <radialGradient id="Безымянный_градиент_2" data-name="Безымянный градиент 2" cx="-970.98" cy="-371.19" r="10.07" gradientTransform="translate(-2714.97 -734.06) rotate(180) scale(2.83 2.07)" xlink:href="#Безымянный_градиент"/>
    <radialGradient id="Безымянный_градиент_3" data-name="Безымянный градиент 3" cx="-971.34" cy="-304.22" r="5.02" gradientTransform="translate(-2716.04 -889.96) rotate(180) scale(2.83 3.04)" xlink:href="#Безымянный_градиент"/>
    <radialGradient id="Безымянный_градиент_4" data-name="Безымянный градиент 4" cx="-626.89" cy="34.71" r="1.8" gradientTransform="translate(-7402.97 -1552.79) rotate(180) scale(16.52 3.84)" gradientUnits="userSpaceOnUse">
      <stop offset="0"/>
      <stop offset="0.56" stop-color="#02dd55"/>
      <stop offset="1" stop-color="#0d5" stop-opacity="0"/>
    </radialGradient>
    <radialGradient id="Безымянный_градиент_5" data-name="Безымянный градиент 5" cx="-460.57" cy="-83.28" r="0.98" gradientTransform="translate(-5468.41 -722.33) rotate(180) scale(11.95 9.12)" gradientUnits="userSpaceOnUse">
      <stop offset="0" stop-color="#fff"/>
      <stop offset="1" stop-color="#fff" stop-opacity="0"/>
    </radialGradient>
    <radialGradient id="Безымянный_градиент_6" data-name="Безымянный градиент 6" cx="-3938.85" cy="-4349.38" r="41.35" gradientTransform="matrix(-0.19, 0, -0.01, -0.14, -758.31, -574.97)" gradientUnits="userSpaceOnUse">
      <stop offset="0"/>
      <stop offset="1" stop-opacity="0"/>
    </radialGradient>
  </defs>
  <title>troyka-5mm-led-module_blue</title>
  <g id="all">
    <path id="troyka-oneunit" class="cls-1" d="M4.57.08A4.49,4.49,0,0,1,.1,4.57h0V67.15a4.49,4.49,0,0,1,4.49,4.49H67.15a4.49,4.49,0,0,1,4.48-4.5h0V4.57A4.49,4.49,0,0,1,67.15.09H4.57Z" transform="translate(0.13 0.13)"/>
    <g id="troyka-pins2">
      <rect id="rect6749-8-6" class="cls-2" x="39.49" y="0.3" width="7.13" height="13.81" rx="0.14" ry="0.14"/>
      <rect id="rect6749-9-8-8" class="cls-2" x="32.38" y="0.3" width="7.13" height="13.81" rx="0.14" ry="0.14"/>
      <rect id="rect6749-9-3-2-4" class="cls-2" x="25.28" y="0.3" width="7.13" height="13.81" rx="0.14" ry="0.14"/>
      <circle id="path4180-4-3" class="cls-3" cx="43.06" cy="10.43" r="2.62"/>
      <circle id="path4180-2-5-8" class="cls-3" cx="35.95" cy="10.43" r="2.62"/>
      <rect id="rect4216-5-9" class="cls-3" x="26.22" y="7.81" width="5.23" height="5.23" rx="0.48" ry="0.48"/>
      <rect id="_0.1.5.0.0.6-7-1-8" data-name=" 0.1.5.0.0.6-7-1-8" class="cls-4" x="27.72" y="9.23" width="2.27" height="2.39"/>
      <rect id="_0.1.5.0.0.37-1-1-9" data-name=" 0.1.5.0.0.37-1-1-9" class="cls-5" x="28.27" y="9.81" width="1.17" height="1.23"/>
      <polygon id="_0.1.5.0.0.38-1-5-5" data-name=" 0.1.5.0.0.38-1-5-5" class="cls-6" points="29.98 9.24 27.72 9.24 28.27 9.81 29.43 9.81 29.98 9.24"/>
      <polygon id="_0.1.5.0.0.39-3-2-9" data-name=" 0.1.5.0.0.39-3-2-9" class="cls-7" points="29.98 11.62 29.43 11.04 29.43 9.81 29.98 9.24 29.98 11.62"/>
      <polygon id="_0.1.5.0.0.40-25-7-9" data-name=" 0.1.5.0.0.40-25-7-9" class="cls-8" points="27.72 11.62 28.27 11.04 29.43 11.04 29.98 11.62 27.72 11.62"/>
      <polygon id="_0.1.5.0.0.41-35-6-7" data-name=" 0.1.5.0.0.41-35-6-7" class="cls-9" points="27.72 11.62 27.72 9.24 28.27 9.81 28.27 11.04 27.72 11.62"/>
      <rect id="_0.1.5.0.0.7-6-40-4-9" data-name=" 0.1.5.0.0.7-6-40-4-9" class="cls-4" x="41.91" y="9.23" width="2.27" height="2.39"/>
      <rect id="_0.1.5.0.0.32-4-7-2-1" data-name=" 0.1.5.0.0.32-4-7-2-1" class="cls-5" x="42.47" y="9.81" width="1.17" height="1.23"/>
      <polygon id="_0.1.5.0.0.33-0-0-3-0" data-name=" 0.1.5.0.0.33-0-0-3-0" class="cls-6" points="43.63 9.81 44.18 9.24 41.91 9.24 42.47 9.81 43.63 9.81"/>
      <polygon id="_0.1.5.0.0.34-7-3-2-7" data-name=" 0.1.5.0.0.34-7-3-2-7" class="cls-7" points="44.18 9.24 44.18 11.62 43.63 11.04 43.63 9.81 44.18 9.24"/>
      <polygon id="_0.1.5.0.0.35-0-4-2-7" data-name=" 0.1.5.0.0.35-0-4-2-7" class="cls-8" points="44.18 11.62 41.91 11.62 42.47 11.04 43.63 11.04 44.18 11.62"/>
      <polygon id="_0.1.5.0.0.36-3-0-1-3" data-name=" 0.1.5.0.0.36-3-0-1-3" class="cls-9" points="42.47 11.04 41.91 11.62 41.91 9.24 42.47 9.81 42.47 11.04"/>
      <rect id="_0.1.5.0.0.7-2-8-2" data-name=" 0.1.5.0.0.7-2-8-2" class="cls-4" x="34.81" y="9.23" width="2.27" height="2.39"/>
      <rect id="_0.1.5.0.0.32-9-5-7" data-name=" 0.1.5.0.0.32-9-5-7" class="cls-5" x="35.37" y="9.81" width="1.17" height="1.23"/>
      <polygon id="_0.1.5.0.0.33-7-7-1" data-name=" 0.1.5.0.0.33-7-7-1" class="cls-6" points="37.08 9.24 34.82 9.24 35.37 9.81 36.53 9.81 37.08 9.24"/>
      <polygon id="_0.1.5.0.0.34-53-6-1" data-name=" 0.1.5.0.0.34-53-6-1" class="cls-7" points="37.08 11.62 36.53 11.04 36.53 9.81 37.08 9.24 37.08 11.62"/>
      <polygon id="_0.1.5.0.0.35-4-1-8" data-name=" 0.1.5.0.0.35-4-1-8" class="cls-8" points="34.82 11.62 35.37 11.04 36.53 11.04 37.08 11.62 34.82 11.62"/>
      <polygon id="_0.1.5.0.0.36-32-8-8" data-name=" 0.1.5.0.0.36-32-8-8" class="cls-9" points="34.82 11.62 34.82 9.24 35.37 9.81 35.37 11.04 34.82 11.62"/>
      <rect id="_0.1.5.0.0.6-2-26-9-7" data-name=" 0.1.5.0.0.6-2-26-9-7" class="cls-4" x="34.82" y="9.23" width="2.27" height="2.39"/>
      <rect id="_0.1.5.0.0.37-4-0-2-7" data-name=" 0.1.5.0.0.37-4-0-2-7" class="cls-5" x="35.37" y="9.81" width="1.17" height="1.23"/>
      <polygon id="_0.1.5.0.0.38-0-5-7-6" data-name=" 0.1.5.0.0.38-0-5-7-6" class="cls-6" points="36.53 9.81 37.08 9.24 34.82 9.24 35.36 9.81 36.53 9.81"/>
      <polygon id="_0.1.5.0.0.39-0-3-9-7" data-name=" 0.1.5.0.0.39-0-3-9-7" class="cls-7" points="37.08 9.24 37.08 11.62 36.53 11.04 36.53 9.81 37.08 9.24"/>
      <polygon id="_0.1.5.0.0.40-5-10-5-3" data-name=" 0.1.5.0.0.40-5-10-5-3" class="cls-8" points="37.08 11.62 34.82 11.62 35.36 11.04 36.53 11.04 37.08 11.62"/>
      <polygon id="_0.1.5.0.0.41-3-6-4-8" data-name=" 0.1.5.0.0.41-3-6-4-8" class="cls-9" points="35.36 11.04 34.82 11.62 34.82 9.24 35.36 9.81 35.36 11.04"/>
    </g>
    <g id="troyka-pins">
      <rect id="rect6749-5" class="cls-2" x="25.18" y="57.78" width="7.13" height="13.81" rx="0.14" ry="0.14"/>
      <rect id="rect6749-9-4" class="cls-2" x="32.28" y="57.78" width="7.13" height="13.81" rx="0.14" ry="0.14"/>
      <rect id="rect6749-9-3-21" class="cls-2" x="39.39" y="57.78" width="7.13" height="13.81" rx="0.14" ry="0.14"/>
      <circle id="path4180-5" class="cls-3" cx="28.74" cy="61.46" r="2.62"/>
      <circle id="path4180-2-7" class="cls-3" cx="35.85" cy="61.46" r="2.62"/>
      <rect id="rect4216-6" class="cls-3" x="40.34" y="58.85" width="5.23" height="5.23" rx="0.48" ry="0.48"/>
      <rect id="_0.1.5.0.0.6-7-6" data-name=" 0.1.5.0.0.6-7-6" class="cls-4" x="41.81" y="60.27" width="2.27" height="2.39"/>
      <rect id="_0.1.5.0.0.37-1-0" data-name=" 0.1.5.0.0.37-1-0" class="cls-5" x="42.36" y="60.84" width="1.17" height="1.23"/>
      <polygon id="_0.1.5.0.0.38-1-9" data-name=" 0.1.5.0.0.38-1-9" class="cls-6" points="42.37 62.08 41.82 62.65 44.08 62.65 43.53 62.08 42.37 62.08"/>
      <polygon id="_0.1.5.0.0.39-3-9" data-name=" 0.1.5.0.0.39-3-9" class="cls-7" points="41.82 62.65 41.82 60.27 42.37 60.84 42.37 62.08 41.82 62.65"/>
      <polygon id="_0.1.5.0.0.40-25-0" data-name=" 0.1.5.0.0.40-25-0" class="cls-8" points="41.82 60.27 44.08 60.27 43.53 60.84 42.37 60.84 41.82 60.27"/>
      <polygon id="_0.1.5.0.0.41-35-0" data-name=" 0.1.5.0.0.41-35-0" class="cls-9" points="43.53 60.84 44.08 60.27 44.08 62.65 43.53 62.08 43.53 60.84"/>
      <rect id="_0.1.5.0.0.7-6-40-0" data-name=" 0.1.5.0.0.7-6-40-0" class="cls-4" x="27.62" y="60.27" width="2.27" height="2.39"/>
      <rect id="_0.1.5.0.0.32-4-7-7" data-name=" 0.1.5.0.0.32-4-7-7" class="cls-5" x="28.16" y="60.84" width="1.17" height="1.23"/>
      <polygon id="_0.1.5.0.0.33-0-0-8" data-name=" 0.1.5.0.0.33-0-0-8" class="cls-6" points="29.33 62.08 28.17 62.08 27.62 62.65 29.88 62.65 29.33 62.08"/>
      <polygon id="_0.1.5.0.0.34-7-3-3" data-name=" 0.1.5.0.0.34-7-3-3" class="cls-7" points="28.17 62.08 27.62 62.65 27.62 60.27 28.17 60.84 28.17 62.08"/>
      <polygon id="_0.1.5.0.0.35-0-4-9" data-name=" 0.1.5.0.0.35-0-4-9" class="cls-8" points="28.17 60.84 27.62 60.27 29.88 60.27 29.33 60.84 28.17 60.84"/>
      <polygon id="_0.1.5.0.0.36-3-0-0" data-name=" 0.1.5.0.0.36-3-0-0" class="cls-9" points="29.33 62.08 29.33 60.84 29.88 60.27 29.88 62.65 29.33 62.08"/>
      <rect id="_0.1.5.0.0.7-2-5" data-name=" 0.1.5.0.0.7-2-5" class="cls-4" x="34.72" y="60.27" width="2.27" height="2.39"/>
      <rect id="_0.1.5.0.0.32-9-0" data-name=" 0.1.5.0.0.32-9-0" class="cls-5" x="35.26" y="60.84" width="1.17" height="1.23"/>
      <polygon id="_0.1.5.0.0.33-7-1" data-name=" 0.1.5.0.0.33-7-1" class="cls-6" points="35.27 62.08 34.72 62.65 36.98 62.65 36.43 62.08 35.27 62.08"/>
      <polygon id="_0.1.5.0.0.34-53-5" data-name=" 0.1.5.0.0.34-53-5" class="cls-7" points="34.72 62.65 34.72 60.27 35.27 60.84 35.27 62.08 34.72 62.65"/>
      <polygon id="_0.1.5.0.0.35-4-2" data-name=" 0.1.5.0.0.35-4-2" class="cls-8" points="34.72 60.27 36.98 60.27 36.43 60.84 35.27 60.84 34.72 60.27"/>
      <polygon id="_0.1.5.0.0.36-32-0" data-name=" 0.1.5.0.0.36-32-0" class="cls-9" points="36.43 60.84 36.98 60.27 36.98 62.65 36.43 62.08 36.43 60.84"/>
      <rect id="_0.1.5.0.0.6-2-26-1" data-name=" 0.1.5.0.0.6-2-26-1" class="cls-4" x="34.72" y="60.27" width="2.27" height="2.39"/>
      <rect id="_0.1.5.0.0.37-4-0-0" data-name=" 0.1.5.0.0.37-4-0-0" class="cls-5" x="35.27" y="60.84" width="1.17" height="1.23"/>
      <polygon id="_0.1.5.0.0.38-0-5-9" data-name=" 0.1.5.0.0.38-0-5-9" class="cls-6" points="36.43 62.08 35.27 62.08 34.72 62.65 36.98 62.65 36.43 62.08"/>
      <polygon id="_0.1.5.0.0.39-0-3-7" data-name=" 0.1.5.0.0.39-0-3-7" class="cls-7" points="35.27 62.08 34.72 62.65 34.72 60.27 35.27 60.84 35.27 62.08"/>
      <polygon id="_0.1.5.0.0.40-5-10-59" data-name=" 0.1.5.0.0.40-5-10-59" class="cls-8" points="35.27 60.84 34.72 60.27 36.98 60.27 36.43 60.84 35.27 60.84"/>
      <polygon id="_0.1.5.0.0.41-3-6-1" data-name=" 0.1.5.0.0.41-3-6-1" class="cls-9" points="36.43 62.08 36.43 60.84 36.98 60.27 36.98 62.65 36.43 62.08"/>
      <g id="text3341-9-4-8-5">
        <text class="cls-10" transform="translate(41.38 69.38)">G</text>
      </g>
      <g id="text3369-7-2-8-4">
        <text class="cls-10" transform="translate(34.42 69.36)">V</text>
      </g>
      <g id="text3397-0-1-7-2">
        <text class="cls-10" transform="translate(27.61 69.38)">S</text>
      </g>
    </g>
    <g id="T1-SOT23">
      <path id="path3477-3-3-9-7" class="cls-11" d="M17.1,59.31H10V56.37H17.1Z" transform="translate(0.13 0.13)"/>
      <path id="path3479-3-5-4-5" class="cls-12" d="M16.55,61.47H15.19V59.3h1.36Z" transform="translate(0.13 0.13)"/>
      <path id="path3481-7-76-7-2" class="cls-13" d="M16.55,60.23H15.19v-.69h1.36Z" transform="translate(0.13 0.13)"/>
      <path id="path3483-3-6-6-4" class="cls-12" d="M11.9,61.47H10.54V59.3H11.9Z" transform="translate(0.13 0.13)"/>
      <path id="path3485-0-5-8-0" class="cls-13" d="M11.9,60.23H10.54v-.69H11.9Z" transform="translate(0.13 0.13)"/>
      <path id="path3487-1-8-4-8" class="cls-12" d="M14.23,54.22H12.85v2.16h1.37Z" transform="translate(0.13 0.13)"/>
      <path id="path3489-4-2-9-2" class="cls-13" d="M14.23,55.46H12.85v.69h1.37Z" transform="translate(0.13 0.13)"/>
    </g>
    <g id="R2-0503">
      <path id="path3491-8-5-5-1" class="cls-14" d="M52.45,61.14h-3V55.7h3Z" transform="translate(0.13 0.13)"/>
      <path id="path3493-7-44-5-0" class="cls-12" d="M52.47,56h-3v-.95h3Z" transform="translate(0.13 0.13)"/>
      <path id="path3495-8-16-1-6" class="cls-12" d="M52.47,61.68h-3v-1h3Z" transform="translate(0.13 0.13)"/>
    </g>
    <g id="R3-0503">
      <path id="path3497-9-6-5-2" class="cls-14" d="M22.58,60.39H19.63V55.06h2.95Z" transform="translate(0.13 0.13)"/>
      <path id="path3499-8-3-5-9" class="cls-12" d="M22.59,55.59h-3v-1h3Z" transform="translate(0.13 0.13)"/>
      <path id="path3501-9-3-8-9" class="cls-12" d="M22.59,61.25h-3v-1h3Z" transform="translate(0.13 0.13)"/>
    </g>
    <g id="R1-0503">
      <path id="path3491-8-7-5-8-9" class="cls-14" d="M60.26,61H57.31V55.59h2.95Z" transform="translate(0.13 0.13)"/>
      <path id="path3493-7-4-3-9-5" class="cls-12" d="M60.29,55.9h-3v-1h3Z" transform="translate(0.13 0.13)"/>
      <path id="path3495-8-2-6-8-2" class="cls-12" d="M60.29,61.57h-3v-1h3Z" transform="translate(0.13 0.13)"/>
    </g>
    <g id="L1-5mm">
      <circle id="circle12901-53" class="cls-15" cx="35.64" cy="35.34" r="3.7"/>
      <circle id="color_circle1-0" data-name="color circle1-0" class="cls-16" cx="35.49" cy="35.37" r="1.4"/>
      <circle id="color_circle2-8" data-name="color circle2-8" class="cls-17" cx="35.35" cy="35.41" r="7.35"/>
      <path id="path12913-9" class="cls-18" d="M34.7,31.12A4.29,4.29,0,0,1,35.77,31a4.7,4.7,0,0,1,.92.09l.38-1.83a6.3,6.3,0,0,0-1.3-.13,9.16,9.16,0,0,0-1.65.18Zm-1.85-1.27a6.43,6.43,0,0,0-3.38,7l1.82-.41a4.76,4.76,0,0,1-.07-.84,4.55,4.55,0,0,1,2.34-4Z" transform="translate(0.13 0.13)"/>
      <circle id="path16388-1" class="cls-19" cx="35.53" cy="35.47" r="7.47"/>
      <ellipse id="ellipse16456" class="cls-20" cx="35.79" cy="35.17" rx="17.35" ry="17.69"/>
      <ellipse id="ellipse16458" class="cls-21" cx="35.51" cy="35.28" rx="28.32" ry="20.63"/>
      <ellipse id="ellipse16460" class="cls-22" cx="35.45" cy="35.89" rx="13.83" ry="14.87"/>
      <ellipse id="ellipse16462" class="cls-23" cx="36.04" cy="35.22" rx="11.53" ry="8.83"/>
    </g>
    <g id="amperka-logo">
      <path id="path532-5-4-9-8-5-6-8-0" d="M11.46,10.65a2,2,0,1,1-2,2,2,2,0,0,1,2-2m0,5.32a3.28,3.28,0,1,0-3.28-3.28h0A3.28,3.28,0,0,0,11.46,16" transform="translate(0.13 0.13)"/>
      <path id="path536-1-4-0-5-1-3-3-2" d="M11.46,4.27a2.28,2.28,0,1,1-.07,0h.07m0,1.24a1,1,0,1,0,1,1,1,1,0,0,0-1-1" transform="translate(0.13 0.13)"/>
      <path id="path540-3-7-2-9-1-0-6-4" d="M11.85,18.13a5.49,5.49,0,0,0,5-5.09,5.36,5.36,0,0,0-1.18-3.77l.4-.4A.62.62,0,0,0,16.13,8,.6.6,0,0,0,15.28,8h0V8l-.89.89a.54.54,0,0,0,0,.76,4.32,4.32,0,0,1,1.28,2.78A4.22,4.22,0,1,1,8.46,9.7V9.64a.54.54,0,0,0,0-.76L7.59,8a.61.61,0,0,0-.89.84h0l.42.42a5.38,5.38,0,0,0-1.2,3.39,5.48,5.48,0,0,0,5.48,5.46h.45" transform="translate(0.13 0.13)"/>
    </g>
  </g>
</svg>
