<?xml version="1.0" encoding="UTF-8" standalone="no"?>
<!-- Created with Inkscape (http://www.inkscape.org/) -->

<svg
   xmlns:dc="http://purl.org/dc/elements/1.1/"
   xmlns:cc="http://creativecommons.org/ns#"
   xmlns:rdf="http://www.w3.org/1999/02/22-rdf-syntax-ns#"
   xmlns:svg="http://www.w3.org/2000/svg"
   xmlns="http://www.w3.org/2000/svg"
   xmlns:sodipodi="http://sodipodi.sourceforge.net/DTD/sodipodi-0.dtd"
   xmlns:inkscape="http://www.inkscape.org/namespaces/inkscape"
   width="88.808281mm"
   height="10.000192mm"
   viewBox="0 0 88.808281 10.000192"
   version="1.1"
   id="svg20108"
   inkscape:version="0.92.1 r15371"
   sodipodi:docname="usb-cable-micro.svg">
  <defs
     id="defs20102">
    <clipPath
       id="clipPath7747"
       clipPathUnits="userSpaceOnUse">
      <path
         inkscape:connector-curvature="0"
         id="path7745"
         d="m 372.255,441.272 h 14.959 v -19.465 h -14.959 z" />
    </clipPath>
    <clipPath
       id="clipPath7751"
       clipPathUnits="userSpaceOnUse">
      <path
         inkscape:connector-curvature="0"
         id="path7749"
         d="m 372.255,421.807 h 14.959 v 19.465 h -14.959 z" />
    </clipPath>
    <clipPath
       id="clipPath7725"
       clipPathUnits="userSpaceOnUse">
      <path
         inkscape:connector-curvature="0"
         id="path7723"
         d="m 372.255,419.317 h 14.959 v -1.712 h -14.959 z" />
    </clipPath>
    <clipPath
       id="clipPath7729"
       clipPathUnits="userSpaceOnUse">
      <path
         inkscape:connector-curvature="0"
         id="path7727"
         d="m 372.255,417.605 h 14.959 v 1.712 h -14.959 z" />
    </clipPath>
    <clipPath
       id="clipPath7703"
       clipPathUnits="userSpaceOnUse">
      <path
         inkscape:connector-curvature="0"
         id="path7701"
         d="m 374.065,447.664 h 11.338 v -1.713 h -11.338 z" />
    </clipPath>
    <clipPath
       id="clipPath7707"
       clipPathUnits="userSpaceOnUse">
      <path
         inkscape:connector-curvature="0"
         id="path7705"
         d="m 374.065,445.951 h 11.338 v 1.713 h -11.338 z" />
    </clipPath>
    <clipPath
       id="clipPath7671"
       clipPathUnits="userSpaceOnUse">
      <path
         inkscape:connector-curvature="0"
         id="path7669"
         d="m 372.376,412.966 h 14.715 v -8.969 h -14.715 z" />
    </clipPath>
    <clipPath
       id="clipPath7675"
       clipPathUnits="userSpaceOnUse">
      <path
         inkscape:connector-curvature="0"
         id="path7673"
         d="m 372.376,403.997 h 14.715 v 8.969 h -14.715 z" />
    </clipPath>
    <clipPath
       id="clipPath7647"
       clipPathUnits="userSpaceOnUse">
      <path
         inkscape:connector-curvature="0"
         id="path7645"
         d="m 370.8,400.997 h 17.868 v -29.5 H 370.8 Z" />
    </clipPath>
    <clipPath
       id="clipPath7651"
       clipPathUnits="userSpaceOnUse">
      <path
         inkscape:connector-curvature="0"
         id="path7649"
         d="m 370.8,371.497 h 17.868 v 29.5 H 370.8 Z" />
    </clipPath>
    <clipPath
       id="clipPath3907-7-8"
       clipPathUnits="userSpaceOnUse">
      <path
         id="path3909-45-20"
         d="m 300.629,240.804 h 4.071 v -9.842 h -4.071 z"
         inkscape:connector-curvature="0" />
    </clipPath>
    <clipPath
       id="clipPath3907-7-1"
       clipPathUnits="userSpaceOnUse">
      <path
         id="path3909-45-2"
         d="m 300.629,240.804 h 4.071 v -9.842 h -4.071 z"
         inkscape:connector-curvature="0" />
    </clipPath>
    <clipPath
       id="clipPath3907-7"
       clipPathUnits="userSpaceOnUse">
      <path
         id="path3909-45"
         d="m 300.629,240.804 h 4.071 v -9.842 h -4.071 z"
         inkscape:connector-curvature="0" />
    </clipPath>
    <clipPath
       id="clipPath3907-1"
       clipPathUnits="userSpaceOnUse">
      <path
         id="path3909-4"
         d="m 300.629,240.804 h 4.071 v -9.842 h -4.071 z"
         inkscape:connector-curvature="0" />
    </clipPath>
    <clipPath
       id="clipPath14079-4-7"
       clipPathUnits="userSpaceOnUse">
      <path
         id="path14081-4-7"
         d="m 419.538,383.996 h 2.229 v -9.067 h -2.229 z"
         inkscape:connector-curvature="0" />
    </clipPath>
    <clipPath
       id="clipPath14093-8-8"
       clipPathUnits="userSpaceOnUse">
      <path
         id="path14095-8-6"
         d="m 431.135,383.996 h 2.229 v -9.067 h -2.229 z"
         inkscape:connector-curvature="0" />
    </clipPath>
    <clipPath
       id="clipPath14107-9-2"
       clipPathUnits="userSpaceOnUse">
      <path
         id="path14109-1-3"
         d="m 427.157,383.996 h 2.228 v -9.067 h -2.228 z"
         inkscape:connector-curvature="0" />
    </clipPath>
    <clipPath
       id="clipPath14121-8-9"
       clipPathUnits="userSpaceOnUse">
      <path
         id="path14123-7-6"
         d="m 423.576,383.996 h 2.229 v -9.067 h -2.229 z"
         inkscape:connector-curvature="0" />
    </clipPath>
    <clipPath
       id="clipPath14079-4"
       clipPathUnits="userSpaceOnUse">
      <path
         id="path14081-4"
         d="m 419.538,383.996 h 2.229 v -9.067 h -2.229 z"
         inkscape:connector-curvature="0" />
    </clipPath>
    <clipPath
       id="clipPath14093-8"
       clipPathUnits="userSpaceOnUse">
      <path
         id="path14095-8"
         d="m 431.135,383.996 h 2.229 v -9.067 h -2.229 z"
         inkscape:connector-curvature="0" />
    </clipPath>
    <clipPath
       id="clipPath14107-9"
       clipPathUnits="userSpaceOnUse">
      <path
         id="path14109-1"
         d="m 427.157,383.996 h 2.228 v -9.067 h -2.228 z"
         inkscape:connector-curvature="0" />
    </clipPath>
    <clipPath
       id="clipPath14121-8"
       clipPathUnits="userSpaceOnUse">
      <path
         id="path14123-7"
         d="m 423.576,383.996 h 2.229 v -9.067 h -2.229 z"
         inkscape:connector-curvature="0" />
    </clipPath>
    <clipPath
       id="clipPath14079"
       clipPathUnits="userSpaceOnUse">
      <path
         id="path14081"
         d="m 419.538,383.996 h 2.229 v -9.067 h -2.229 z"
         inkscape:connector-curvature="0" />
    </clipPath>
    <clipPath
       id="clipPath14093"
       clipPathUnits="userSpaceOnUse">
      <path
         id="path14095"
         d="m 431.135,383.996 h 2.229 v -9.067 h -2.229 z"
         inkscape:connector-curvature="0" />
    </clipPath>
    <clipPath
       id="clipPath14107"
       clipPathUnits="userSpaceOnUse">
      <path
         id="path14109"
         d="m 427.157,383.996 h 2.228 v -9.067 h -2.228 z"
         inkscape:connector-curvature="0" />
    </clipPath>
    <clipPath
       id="clipPath14121"
       clipPathUnits="userSpaceOnUse">
      <path
         id="path14123"
         d="m 423.576,383.996 h 2.229 v -9.067 h -2.229 z"
         inkscape:connector-curvature="0" />
    </clipPath>
    <clipPath
       id="clipPath13715"
       clipPathUnits="userSpaceOnUse">
      <path
         id="path13717"
         d="m 427.871,355.135 h 0.975 v -18.474 h -0.975 z"
         inkscape:connector-curvature="0" />
    </clipPath>
    <clipPath
       id="clipPath13743"
       clipPathUnits="userSpaceOnUse">
      <path
         id="path13745"
         d="m 404.066,355.135 h 0.975 v -18.474 h -0.975 z"
         inkscape:connector-curvature="0" />
    </clipPath>
    <clipPath
       id="clipPath13771"
       clipPathUnits="userSpaceOnUse">
      <path
         id="path13773"
         d="m 407.198,358.47 h 18.474 v -0.975 h -18.474 z"
         inkscape:connector-curvature="0" />
    </clipPath>
    <clipPath
       id="clipPath13799"
       clipPathUnits="userSpaceOnUse">
      <path
         id="path13801"
         d="m 407.198,334.3 h 18.474 v -0.975 h -18.474 z"
         inkscape:connector-curvature="0" />
    </clipPath>
    <clipPath
       id="clipPath13861"
       clipPathUnits="userSpaceOnUse">
      <path
         id="path13863"
         d="m 410.666,353.423 h 11.538 v -5.876 h -11.538 z"
         inkscape:connector-curvature="0" />
    </clipPath>
    <clipPath
       id="clipPath13897"
       clipPathUnits="userSpaceOnUse">
      <path
         id="path13899"
         d="m 407.372,354.809 h 1.341 v -1.341 h -1.341 z"
         inkscape:connector-curvature="0" />
    </clipPath>
    <clipPath
       id="clipPath13913"
       clipPathUnits="userSpaceOnUse">
      <path
         id="path13915"
         d="m 410.666,345.005 h 12.457 v -6.663 h -12.457 z"
         inkscape:connector-curvature="0" />
    </clipPath>
    <clipPath
       id="clipPath12999"
       clipPathUnits="userSpaceOnUse">
      <path
         id="path13001"
         d="m 366.098,378.557 h 20.691 v -55.398 h -20.691 z"
         inkscape:connector-curvature="0" />
    </clipPath>
    <clipPath
       id="clipPath13027"
       clipPathUnits="userSpaceOnUse">
      <path
         id="path13029"
         d="m 368.826,375.068 h 15.235 v -48.42 h -15.235 z"
         inkscape:connector-curvature="0" />
    </clipPath>
    <clipPath
       id="clipPath3907"
       clipPathUnits="userSpaceOnUse">
      <path
         id="path3909"
         d="m 300.629,240.804 h 4.071 v -9.842 h -4.071 z"
         inkscape:connector-curvature="0" />
    </clipPath>
  </defs>
  <sodipodi:namedview
     id="base"
     pagecolor="#ffffff"
     bordercolor="#666666"
     borderopacity="1.0"
     inkscape:pageopacity="0.0"
     inkscape:pageshadow="2"
     inkscape:zoom="2.8"
     inkscape:cx="95.571297"
     inkscape:cy="-51.641907"
     inkscape:document-units="mm"
     inkscape:current-layer="layer1"
     showgrid="false"
     fit-margin-top="0"
     fit-margin-left="0"
     fit-margin-right="0"
     fit-margin-bottom="0"
     inkscape:window-width="1920"
     inkscape:window-height="1017"
     inkscape:window-x="-8"
     inkscape:window-y="-8"
     inkscape:window-maximized="1" />
  <metadata
     id="metadata20105">
    <rdf:RDF>
      <cc:Work
         rdf:about="">
        <dc:format>image/svg+xml</dc:format>
        <dc:type
           rdf:resource="http://purl.org/dc/dcmitype/StillImage" />
        <dc:title></dc:title>
      </cc:Work>
    </rdf:RDF>
  </metadata>
  <g
     inkscape:label="Layer 1"
     inkscape:groupmode="layer"
     id="layer1"
     transform="translate(137.79008,-18.801122)">
    <g
       id="g20856"
       transform="translate(13.959304,-1.0559225)">
      <g
         transform="rotate(90,72.177644,-80.929934)"
         id="g19432">
        <g
           id="g19422">
          <g
             transform="matrix(0.35277777,0,0,-0.35277777,180.60332,119.36415)"
             id="g7619">
            <path
               inkscape:connector-curvature="0"
               id="path7621"
               style="fill:#f58220;fill-opacity:1;fill-rule:nonzero;stroke:none"
               d="m 0,0 v 0.116 1.713 2.489 2.333 3.377 2.334 3.377 2.333 3.377 2.334 3.545 c 0,0.624 -0.51,1.134 -1.134,1.134 H -1.81 v 1.713 154.574 H -13.148 V 30.175 28.462 h -0.677 c -0.624,0 -1.134,-0.51 -1.134,-1.134 V 23.783 21.449 18.072 15.739 12.362 10.028 6.651 4.318 1.829 0.116 0 c -3.796,-0.625 -6.694,-3.912 -6.694,-7.884 v -5.942 -9.058 -25.189 c 0,-1.559 1.276,-2.835 2.835,-2.835 H 3.859 c 1.559,0 2.835,1.276 2.835,2.835 v 25.189 9.058 5.942 C 6.694,-3.912 3.796,-0.625 0,0" />
          </g>
          <path
             inkscape:connector-curvature="0"
             id="path7623"
             style="fill:#d1d3d4;fill-opacity:1;fill-rule:nonzero;stroke:none;stroke-width:0.35277778"
             d="m 174.46463,137.32301 h 7.00017 v 5.67408 h -7.00017 z" />
          <path
             inkscape:connector-curvature="0"
             id="path7625"
             style="fill:#bcbec0;fill-opacity:1;fill-rule:nonzero;stroke:none;stroke-width:0.35277778"
             d="m 180.51935,137.32301 h 0.9451 v 5.67408 h -0.9451 z" />
          <path
             inkscape:connector-curvature="0"
             id="path7627"
             style="fill:#e6e7e8;fill-opacity:1;fill-rule:nonzero;stroke:none;stroke-width:0.35277778"
             d="m 175.40972,137.32301 h 5.10963 v 5.67408 h -5.10963 z" />
          <g
             transform="matrix(0.35277777,0,0,-0.35277777,177.0639,137.32301)"
             id="g7629">
            <path
               inkscape:connector-curvature="0"
               id="path7631"
               style="fill:none;stroke:#939598;stroke-width:1;stroke-linecap:butt;stroke-linejoin:miter;stroke-miterlimit:10;stroke-dasharray:none;stroke-opacity:1"
               d="m 0,0 v -4.167 h 3.014 v -4.5 H 0 v -4.167 h 3.014 v -3.25" />
          </g>
        </g>
      </g>
      <g
         transform="matrix(0,0.35277777,0.35277777,0,-275.39693,-109.10475)"
         id="g7641">
        <g
           id="g7643" />
        <g
           id="g7663">
          <g
             id="g7661"
             clip-path="url(#clipPath7647)">
            <g
               id="g7659">
              <g
                 id="g7657"
                 clip-path="url(#clipPath7651)">
                <g
                   id="g7655"
                   transform="translate(374.136,399.996)">
                  <path
                     inkscape:connector-curvature="0"
                     id="path7653"
                     style="fill:#d1d3d4;fill-opacity:1;fill-rule:nonzero;stroke:none"
                     d="m 0,0 c -1.287,0 -2.335,-1.047 -2.335,-2.334 v -22.831 c 0,-1.288 1.048,-2.335 2.335,-2.335 h 11.198 c 1.287,0 2.334,1.047 2.334,2.335 V -2.334 C 13.532,-1.047 12.485,0 11.198,0 Z M 11.198,-28.5 H 0 c -1.839,0 -3.335,1.496 -3.335,3.335 V -2.334 C -3.335,-0.496 -1.839,1 0,1 h 11.198 c 1.838,0 3.334,-1.496 3.334,-3.334 v -22.831 c 0,-1.839 -1.496,-3.335 -3.334,-3.335" />
                </g>
              </g>
            </g>
          </g>
        </g>
      </g>
      <g
         transform="matrix(0,0.35277777,0.35277777,0,-275.39693,-109.10475)"
         id="g7665">
        <g
           id="g7667" />
        <g
           id="g7695">
          <g
             id="g7693"
             clip-path="url(#clipPath7671)">
            <g
               id="g7691">
              <g
                 id="g7689"
                 clip-path="url(#clipPath7675)">
                <g
                   id="g7679"
                   transform="translate(386.592,403.996)">
                  <path
                     inkscape:connector-curvature="0"
                     id="path7677"
                     style="fill:#d1d3d4;fill-opacity:1;fill-rule:nonzero;stroke:none"
                     d="m 0,0 h -13.715 c -0.276,0 -0.5,0.224 -0.5,0.5 0,0.276 0.224,0.5 0.5,0.5 H 0 C 0.276,1 0.5,0.776 0.5,0.5 0.5,0.224 0.276,0 0,0" />
                </g>
                <g
                   id="g7683"
                   transform="translate(384.529,407.981)">
                  <path
                     inkscape:connector-curvature="0"
                     id="path7681"
                     style="fill:#d1d3d4;fill-opacity:1;fill-rule:nonzero;stroke:none"
                     d="m 0,0 h -9.59 c -0.276,0 -0.5,0.224 -0.5,0.5 0,0.276 0.224,0.5 0.5,0.5 H 0 C 0.276,1 0.5,0.776 0.5,0.5 0.5,0.224 0.276,0 0,0" />
                </g>
                <g
                   id="g7687"
                   transform="translate(381.904,411.965)">
                  <path
                     inkscape:connector-curvature="0"
                     id="path7685"
                     style="fill:#d1d3d4;fill-opacity:1;fill-rule:nonzero;stroke:none"
                     d="m 0,0 h -4.34 c -0.276,0 -0.5,0.224 -0.5,0.5 0,0.276 0.224,0.5 0.5,0.5 H 0 C 0.276,1 0.5,0.776 0.5,0.5 0.5,0.224 0.276,0 0,0" />
                </g>
              </g>
            </g>
          </g>
        </g>
      </g>
      <g
         transform="matrix(0,0.35277777,0.35277777,0,-275.39693,-109.10475)"
         id="g7697">
        <g
           id="g7699" />
        <g
           id="g7717">
          <g
             id="g7715"
             clip-path="url(#clipPath7703)">
            <g
               id="g7713">
              <g
                 id="g7711"
                 clip-path="url(#clipPath7707)">
                <path
                   inkscape:connector-curvature="0"
                   id="path7709"
                   style="fill:#d1d3d4;fill-opacity:1;fill-rule:nonzero;stroke:none"
                   d="m 385.403,445.951 h -11.338 v 1.713 h 11.338 z" />
              </g>
            </g>
          </g>
        </g>
      </g>
      <g
         transform="matrix(0,0.35277777,0.35277777,0,-275.39693,-109.10475)"
         id="g7719">
        <g
           id="g7721" />
        <g
           id="g7739">
          <g
             id="g7737"
             clip-path="url(#clipPath7725)">
            <g
               id="g7735">
              <g
                 id="g7733"
                 clip-path="url(#clipPath7729)">
                <path
                   inkscape:connector-curvature="0"
                   id="path7731"
                   style="fill:#d1d3d4;fill-opacity:1;fill-rule:nonzero;stroke:none"
                   d="m 387.214,417.605 h -14.959 v 1.713 h 14.959 z" />
              </g>
            </g>
          </g>
        </g>
      </g>
      <g
         transform="matrix(0,0.35277777,0.35277777,0,-275.39693,-109.10475)"
         id="g7741">
        <g
           id="g7743" />
        <g
           id="g7767">
          <g
             id="g7765"
             clip-path="url(#clipPath7747)">
            <g
               id="g7763">
              <g
                 id="g7761"
                 clip-path="url(#clipPath7751)">
                <path
                   inkscape:connector-curvature="0"
                   id="path7753"
                   style="fill:#d1d3d4;fill-opacity:1;fill-rule:nonzero;stroke:none"
                   d="m 387.214,438.938 h -14.959 v 2.333 h 14.959 z" />
                <path
                   inkscape:connector-curvature="0"
                   id="path7755"
                   style="fill:#d1d3d4;fill-opacity:1;fill-rule:nonzero;stroke:none"
                   d="m 387.214,433.228 h -14.959 v 2.333 h 14.959 z" />
                <path
                   inkscape:connector-curvature="0"
                   id="path7757"
                   style="fill:#d1d3d4;fill-opacity:1;fill-rule:nonzero;stroke:none"
                   d="m 387.214,427.517 h -14.959 v 2.333 h 14.959 z" />
                <path
                   inkscape:connector-curvature="0"
                   id="path7759"
                   style="fill:#d1d3d4;fill-opacity:1;fill-rule:nonzero;stroke:none"
                   d="m 387.214,421.807 h -14.959 v 2.333 h 14.959 z" />
              </g>
            </g>
          </g>
        </g>
      </g>
    </g>
  </g>
</svg>
