<svg id="voltage-regulator-dc-dc-arduino" xmlns="http://www.w3.org/2000/svg" width="46.0692mm" height="13.1517mm" viewBox="0 0 130.59 37.2804">
  <defs>
    <style>
      .cls-1 {
        fill: #f2f2f2;
        stroke: #000;
        stroke-miterlimit: 1;
        stroke-width: 0.43px;
      }

      .cls-16, .cls-2 {
        font-size: 5px;
        font-family: TrebuchetMS, Trebuchet MS;
      }

      .cls-3 {
        letter-spacing: -0.0181em;
      }

      .cls-4 {
        fill: #404040;
      }

      .cls-5 {
        fill: #b8af82;
      }

      .cls-6 {
        fill: #e2d6a1;
      }

      .cls-7 {
        fill: #fff;
        opacity: 0.2;
      }

      .cls-16, .cls-7, .cls-8 {
        isolation: isolate;
      }

      .cls-8 {
        opacity: 0.1;
      }

      .cls-9 {
        fill: #9a916c;
      }

      .cls-10 {
        fill: #474747;
      }

      .cls-11 {
        fill: #373737;
      }

      .cls-12 {
        fill: #666;
      }

      .cls-13 {
        fill: #8c8663;
      }

      .cls-14 {
        fill: #80795b;
      }

      .cls-15 {
        fill: #5e5b43;
      }

      .cls-17 {
        fill: #b3b3b3;
      }

      .cls-18 {
        fill: gray;
      }

      .cls-19 {
        fill: #242424;
      }

      .cls-20 {
        fill: #d2d1d3;
      }

      .cls-21 {
        fill: #b7b8b9;
      }

      .cls-22 {
        fill: #d7d3d5;
      }

      .cls-23 {
        fill: #d0d1d0;
      }

      .cls-24 {
        fill: #b8b9ba;
      }

      .cls-25 {
        fill: #966432;
      }
    </style>
  </defs>
  <title>voltage-regulator-dc-dc-arduino</title>
  <g id="bottom">
    <path id="board" class="cls-1" d="M70.8474.215v36.85H130.375V.215Zm4.521,5.2809A1.1339,1.1339,0,1,1,76.5023,4.362,1.1339,1.1339,0,0,1,75.3684,5.4959Zm7.2123,0A1.1339,1.1339,0,1,1,83.7145,4.362,1.1339,1.1339,0,0,1,82.5807,5.4959Zm7.2122,0A1.1339,1.1339,0,1,1,90.9267,4.362,1.1339,1.1339,0,0,1,89.7929,5.4959Zm7.2122,0A1.1339,1.1339,0,1,1,98.1389,4.362,1.1339,1.1339,0,0,1,97.0051,5.4959Zm7.2122,0a1.1339,1.1339,0,1,1,1.1339-1.1339A1.1338,1.1338,0,0,1,104.2173,5.4959Zm7.2122,0a1.1339,1.1339,0,1,1,1.1339-1.1339A1.1338,1.1338,0,0,1,111.43,5.4959Zm7.2123,0a1.1339,1.1339,0,1,1,1.1338-1.1339A1.1338,1.1338,0,0,1,118.6418,5.4959Zm7.2122,0h0a1.1339,1.1339,0,1,1,0-2.2677h0a1.1339,1.1339,0,1,1,0,2.2677Z"/>
    <text class="cls-2" transform="translate(73.5678 18.1643) rotate(90)">VIN</text>
    <text class="cls-2" transform="translate(80.766 18.1646) rotate(90)">GND</text>
    <text class="cls-2" transform="translate(87.9643 18.1642) rotate(90)">GND</text>
    <text class="cls-2" transform="translate(95.1625 18.1644) rotate(90)">+5V</text>
    <text class="cls-2" transform="translate(102.3617 18.1645) rotate(90)">+3V3</text>
    <text class="cls-2" transform="translate(109.56 18.1645) rotate(90)">RESE<tspan class="cls-3" x="10.6714" y="0">T</tspan></text>
    <text class="cls-2" transform="translate(116.7582 18.1645) rotate(90)">IOREF</text>
    <text class="cls-2" transform="translate(123.9564 18.1645) rotate(90)">VIN</text>
    <g id="pin-header-angle-8pin">
      <g>
        <path class="cls-4" d="M129.4961,6.3236v-4.1l-1.5-1.6h-4.2l-1.5,1.6v4.1l1.5,1.6h4.2Zm-5.3734,1.0322L122.856,6.0047V2.5425l1.2667-1.3511h3.5466l1.2667,1.3511V6.0047l-1.2667,1.3511Z"/>
        <rect id="_0.1.16.5.0.0-3-4" data-name=" 0.1.16.5.0.0-3-4" x="122.2959" y="8.5772" width="7.2043" height="5.9566"/>
        <g id="_0.1.16.5.0.1-7-8" data-name=" 0.1.16.5.0.1-7-8">
          <polygon id="connector232pin-0-8" class="cls-5" points="127.046 13.102 127.046 33.996 126.486 36.344 125.308 36.344 124.747 33.996 124.747 13.102 127.046 13.102"/>
          <polygon id="_0.1.16.5.0.1.1-5-3" data-name=" 0.1.16.5.0.1.1-5-3" class="cls-6" points="125.308 36.344 126.486 36.344 126.644 35.687 125.147 35.687 125.308 36.344"/>
          <polygon id="polygon6029-5-3" class="cls-7" points="127.046 33.996 126.486 36.344 126.208 36.344 126.767 33.996 126.767 13.102 127.046 13.102 127.046 33.996"/>
          <polygon id="_0.1.16.5.0.1.3-8-7" data-name=" 0.1.16.5.0.1.3-8-7" class="cls-8" points="125.007 33.996 125.567 36.344 125.288 36.344 124.728 33.996 124.728 13.102 125.007 13.102 125.007 33.996"/>
        </g>
        <circle id="_0.1.16.5.0.2-3-8" data-name=" 0.1.16.5.0.2-3-8" class="cls-5" cx="125.8961" cy="4.2736" r="1.8931"/>
        <polygon id="_0.1.16.5.0.5-8-3" data-name=" 0.1.16.5.0.5-8-3" class="cls-5" points="124.747 3.424 124.747 10.703 127.046 10.703 127.046 3.424 124.747 3.424"/>
        <polygon id="_0.1.16.5.0.6-3-1" data-name=" 0.1.16.5.0.6-3-1" class="cls-9" points="124.747 3.424 124.747 3.862 127.046 3.862 127.046 3.424 124.747 3.424"/>
        <polygon id="_0.1.16.5.0.7-7-4" data-name=" 0.1.16.5.0.7-7-4" class="cls-6" points="124.747 3.88 124.747 4.539 127.046 4.539 127.046 3.88 124.747 3.88"/>
        <rect id="_0.1.16.5.0.8-9-4" data-name=" 0.1.16.5.0.8-9-4" class="cls-4" x="123.3195" y="8.5772" width="5.1561" height="5.9566"/>
        <polygon id="_0.1.16.5.0.9-3-6" data-name=" 0.1.16.5.0.9-3-6" class="cls-10" points="123.316 14.533 123.316 8.577 122.294 8.577 122.294 14.533 123.316 14.533"/>
        <polygon id="_0.1.16.5.0.10-9-2" data-name=" 0.1.16.5.0.10-9-2" class="cls-11" points="128.475 8.577 128.475 14.533 129.5 14.533 129.5 8.577 128.475 8.577"/>
        <polygon id="_0.1.16.5.0.11-1-0" data-name=" 0.1.16.5.0.11-1-0" class="cls-7" points="127.046 8.577 126.767 8.577 126.767 3.424 127.046 3.424 127.046 8.577"/>
        <polygon id="_0.1.16.5.0.12-8-0" data-name=" 0.1.16.5.0.12-8-0" class="cls-8" points="125.007 8.577 124.728 8.577 124.728 3.424 125.007 3.424 125.007 8.577"/>
      </g>
      <g>
        <path class="cls-4" d="M122.2818,6.3236v-4.1l-1.5-1.6h-4.2l-1.5,1.6v4.1l1.5,1.6h4.2Zm-5.3735,1.0322-1.2667-1.3511V2.5425l1.2667-1.3511h3.5469l1.2667,1.3511V6.0047l-1.2667,1.3511Z"/>
        <rect id="_0.1.16.5.0.0-3-4-2" data-name=" 0.1.16.5.0.0-3-4-2" x="115.0815" y="8.5772" width="7.2043" height="5.9566"/>
        <g id="_0.1.16.5.0.1-7-8-2" data-name=" 0.1.16.5.0.1-7-8-2">
          <polygon id="connector232pin-0-8-2" class="cls-5" points="119.831 13.102 119.831 33.996 119.272 36.344 118.094 36.344 117.533 33.996 117.533 13.102 119.831 13.102"/>
          <polygon id="_0.1.16.5.0.1.1-5-3-2" data-name=" 0.1.16.5.0.1.1-5-3-2" class="cls-6" points="118.094 36.344 119.272 36.344 119.43 35.687 117.933 35.687 118.094 36.344"/>
          <polygon id="polygon6029-5-3-2" class="cls-7" points="119.831 33.996 119.272 36.344 118.994 36.344 119.553 33.996 119.553 13.102 119.831 13.102 119.831 33.996"/>
          <polygon id="_0.1.16.5.0.1.3-8-7-2" data-name=" 0.1.16.5.0.1.3-8-7-2" class="cls-8" points="117.793 33.996 118.352 36.344 118.074 36.344 117.514 33.996 117.514 13.102 117.793 13.102 117.793 33.996"/>
        </g>
        <circle id="_0.1.16.5.0.2-3-8-2" data-name=" 0.1.16.5.0.2-3-8-2" class="cls-5" cx="118.6817" cy="4.2736" r="1.8931"/>
        <polygon id="_0.1.16.5.0.5-8-3-2" data-name=" 0.1.16.5.0.5-8-3-2" class="cls-5" points="117.533 3.424 117.533 10.703 119.831 10.703 119.831 3.424 117.533 3.424"/>
        <polygon id="_0.1.16.5.0.6-3-1-2" data-name=" 0.1.16.5.0.6-3-1-2" class="cls-9" points="117.533 3.424 117.533 3.862 119.831 3.862 119.831 3.424 117.533 3.424"/>
        <polygon id="_0.1.16.5.0.7-7-4-2" data-name=" 0.1.16.5.0.7-7-4-2" class="cls-6" points="117.533 3.88 117.533 4.539 119.831 4.539 119.831 3.88 117.533 3.88"/>
        <rect id="_0.1.16.5.0.8-9-4-2" data-name=" 0.1.16.5.0.8-9-4-2" class="cls-4" x="116.1051" y="8.5772" width="5.1561" height="5.9566"/>
        <polygon id="_0.1.16.5.0.9-3-6-2" data-name=" 0.1.16.5.0.9-3-6-2" class="cls-10" points="116.102 14.533 116.102 8.577 115.079 8.577 115.079 14.533 116.102 14.533"/>
        <polygon id="_0.1.16.5.0.10-9-2-2" data-name=" 0.1.16.5.0.10-9-2-2" class="cls-11" points="121.261 8.577 121.261 14.533 122.286 14.533 122.286 8.577 121.261 8.577"/>
        <polygon id="_0.1.16.5.0.11-1-0-2" data-name=" 0.1.16.5.0.11-1-0-2" class="cls-7" points="119.831 8.577 119.553 8.577 119.553 3.424 119.831 3.424 119.831 8.577"/>
        <polygon id="_0.1.16.5.0.12-8-0-2" data-name=" 0.1.16.5.0.12-8-0-2" class="cls-8" points="117.793 8.577 117.514 8.577 117.514 3.424 117.793 3.424 117.793 8.577"/>
      </g>
      <g>
        <path class="cls-4" d="M115.0664,6.3236v-4.1l-1.5-1.6h-4.2l-1.5,1.6v4.1l1.5,1.6h4.2ZM109.693,7.3558l-1.2667-1.3511V2.5425l1.2667-1.3511H113.24l1.2667,1.3511V6.0047L113.24,7.3558Z"/>
        <rect id="_0.1.16.5.0.0-3-4-3" data-name=" 0.1.16.5.0.0-3-4-3" x="107.8662" y="8.5772" width="7.2043" height="5.9566"/>
        <g id="_0.1.16.5.0.1-7-8-3" data-name=" 0.1.16.5.0.1-7-8-3">
          <polygon id="connector232pin-0-8-3" class="cls-5" points="112.616 13.102 112.616 33.996 112.057 36.344 110.879 36.344 110.317 33.996 110.317 13.102 112.616 13.102"/>
          <polygon id="_0.1.16.5.0.1.1-5-3-3" data-name=" 0.1.16.5.0.1.1-5-3-3" class="cls-6" points="110.879 36.344 112.057 36.344 112.215 35.687 110.718 35.687 110.879 36.344"/>
          <polygon id="polygon6029-5-3-3" class="cls-7" points="112.616 33.996 112.057 36.344 111.778 36.344 112.338 33.996 112.338 13.102 112.616 13.102 112.616 33.996"/>
          <polygon id="_0.1.16.5.0.1.3-8-7-3" data-name=" 0.1.16.5.0.1.3-8-7-3" class="cls-8" points="110.578 33.996 111.137 36.344 110.859 36.344 110.298 33.996 110.298 13.102 110.578 13.102 110.578 33.996"/>
        </g>
        <circle id="_0.1.16.5.0.2-3-8-3" data-name=" 0.1.16.5.0.2-3-8-3" class="cls-5" cx="111.4663" cy="4.2736" r="1.8931"/>
        <polygon id="_0.1.16.5.0.5-8-3-3" data-name=" 0.1.16.5.0.5-8-3-3" class="cls-5" points="110.317 3.424 110.317 10.703 112.616 10.703 112.616 3.424 110.317 3.424"/>
        <polygon id="_0.1.16.5.0.6-3-1-3" data-name=" 0.1.16.5.0.6-3-1-3" class="cls-9" points="110.317 3.424 110.317 3.862 112.616 3.862 112.616 3.424 110.317 3.424"/>
        <polygon id="_0.1.16.5.0.7-7-4-3" data-name=" 0.1.16.5.0.7-7-4-3" class="cls-6" points="110.317 3.88 110.317 4.539 112.616 4.539 112.616 3.88 110.317 3.88"/>
        <rect id="_0.1.16.5.0.8-9-4-3" data-name=" 0.1.16.5.0.8-9-4-3" class="cls-4" x="108.8898" y="8.5772" width="5.1561" height="5.9566"/>
        <polygon id="_0.1.16.5.0.9-3-6-3" data-name=" 0.1.16.5.0.9-3-6-3" class="cls-10" points="108.887 14.533 108.887 8.577 107.864 8.577 107.864 14.533 108.887 14.533"/>
        <polygon id="_0.1.16.5.0.10-9-2-3" data-name=" 0.1.16.5.0.10-9-2-3" class="cls-11" points="114.046 8.577 114.046 14.533 115.07 14.533 115.07 8.577 114.046 8.577"/>
        <polygon id="_0.1.16.5.0.11-1-0-3" data-name=" 0.1.16.5.0.11-1-0-3" class="cls-7" points="112.616 8.577 112.338 8.577 112.338 3.424 112.616 3.424 112.616 8.577"/>
        <polygon id="_0.1.16.5.0.12-8-0-3" data-name=" 0.1.16.5.0.12-8-0-3" class="cls-8" points="110.578 8.577 110.298 8.577 110.298 3.424 110.578 3.424 110.578 8.577"/>
      </g>
      <g>
        <path class="cls-4" d="M107.838,6.3236v-4.1l-1.5-1.6h-4.2l-1.5,1.6v4.1l1.5,1.6h4.2Zm-5.3735,1.0322-1.2666-1.3511V2.5425l1.2666-1.3511h3.5467l1.2666,1.3511V6.0047l-1.2666,1.3511Z"/>
        <rect id="_0.1.16.5.0.0-3-4-4" data-name=" 0.1.16.5.0.0-3-4-4" x="100.6378" y="8.5772" width="7.2043" height="5.9566"/>
        <g id="_0.1.16.5.0.1-7-8-4" data-name=" 0.1.16.5.0.1-7-8-4">
          <polygon id="connector232pin-0-8-4" class="cls-5" points="105.387 13.102 105.387 33.996 104.828 36.344 103.65 36.344 103.089 33.996 103.089 13.102 105.387 13.102"/>
          <polygon id="_0.1.16.5.0.1.1-5-3-4" data-name=" 0.1.16.5.0.1.1-5-3-4" class="cls-6" points="103.65 36.344 104.828 36.344 104.986 35.687 103.489 35.687 103.65 36.344"/>
          <polygon id="polygon6029-5-3-4" class="cls-7" points="105.387 33.996 104.828 36.344 104.55 36.344 105.109 33.996 105.109 13.102 105.387 13.102 105.387 33.996"/>
          <polygon id="_0.1.16.5.0.1.3-8-7-4" data-name=" 0.1.16.5.0.1.3-8-7-4" class="cls-8" points="103.349 33.996 103.909 36.344 103.63 36.344 103.07 33.996 103.07 13.102 103.349 13.102 103.349 33.996"/>
        </g>
        <circle id="_0.1.16.5.0.2-3-8-4" data-name=" 0.1.16.5.0.2-3-8-4" class="cls-5" cx="104.238" cy="4.2736" r="1.8931"/>
        <polygon id="_0.1.16.5.0.5-8-3-4" data-name=" 0.1.16.5.0.5-8-3-4" class="cls-5" points="103.089 3.424 103.089 10.703 105.387 10.703 105.387 3.424 103.089 3.424"/>
        <polygon id="_0.1.16.5.0.6-3-1-4" data-name=" 0.1.16.5.0.6-3-1-4" class="cls-9" points="103.089 3.424 103.089 3.862 105.387 3.862 105.387 3.424 103.089 3.424"/>
        <polygon id="_0.1.16.5.0.7-7-4-4" data-name=" 0.1.16.5.0.7-7-4-4" class="cls-6" points="103.089 3.88 103.089 4.539 105.387 4.539 105.387 3.88 103.089 3.88"/>
        <rect id="_0.1.16.5.0.8-9-4-4" data-name=" 0.1.16.5.0.8-9-4-4" class="cls-4" x="101.6614" y="8.5772" width="5.1561" height="5.9566"/>
        <polygon id="_0.1.16.5.0.9-3-6-4" data-name=" 0.1.16.5.0.9-3-6-4" class="cls-10" points="101.658 14.533 101.658 8.577 100.636 8.577 100.636 14.533 101.658 14.533"/>
        <polygon id="_0.1.16.5.0.10-9-2-4" data-name=" 0.1.16.5.0.10-9-2-4" class="cls-11" points="106.817 8.577 106.817 14.533 107.842 14.533 107.842 8.577 106.817 8.577"/>
        <polygon id="_0.1.16.5.0.11-1-0-4" data-name=" 0.1.16.5.0.11-1-0-4" class="cls-7" points="105.387 8.577 105.109 8.577 105.109 3.424 105.387 3.424 105.387 8.577"/>
        <polygon id="_0.1.16.5.0.12-8-0-4" data-name=" 0.1.16.5.0.12-8-0-4" class="cls-8" points="103.349 8.577 103.07 8.577 103.07 3.424 103.349 3.424 103.349 8.577"/>
      </g>
      <g>
        <path class="cls-4" d="M100.61,6.3236v-4.1l-1.5-1.6h-4.2l-1.5,1.6v4.1l1.5,1.6h4.2ZM95.2361,7.3558,93.97,6.0047V2.5425l1.2666-1.3511h3.5467L100.05,2.5425V6.0047L98.7828,7.3558Z"/>
        <rect id="_0.1.16.5.0.0-3-4-5" data-name=" 0.1.16.5.0.0-3-4-5" x="93.4094" y="8.5772" width="7.2043" height="5.9566"/>
        <g id="_0.1.16.5.0.1-7-8-5" data-name=" 0.1.16.5.0.1-7-8-5">
          <polygon id="connector232pin-0-8-5" class="cls-5" points="98.159 13.102 98.159 33.996 97.6 36.344 96.422 36.344 95.861 33.996 95.861 13.102 98.159 13.102"/>
          <polygon id="_0.1.16.5.0.1.1-5-3-5" data-name=" 0.1.16.5.0.1.1-5-3-5" class="cls-6" points="96.422 36.344 97.6 36.344 97.758 35.687 96.261 35.687 96.422 36.344"/>
          <polygon id="polygon6029-5-3-5" class="cls-7" points="98.159 33.996 97.6 36.344 97.322 36.344 97.881 33.996 97.881 13.102 98.159 13.102 98.159 33.996"/>
          <polygon id="_0.1.16.5.0.1.3-8-7-5" data-name=" 0.1.16.5.0.1.3-8-7-5" class="cls-8" points="96.121 33.996 96.68 36.344 96.402 36.344 95.842 33.996 95.842 13.102 96.121 13.102 96.121 33.996"/>
        </g>
        <circle id="_0.1.16.5.0.2-3-8-5" data-name=" 0.1.16.5.0.2-3-8-5" class="cls-5" cx="97.0096" cy="4.2736" r="1.8931"/>
        <polygon id="_0.1.16.5.0.5-8-3-5" data-name=" 0.1.16.5.0.5-8-3-5" class="cls-5" points="95.861 3.424 95.861 10.703 98.159 10.703 98.159 3.424 95.861 3.424"/>
        <polygon id="_0.1.16.5.0.6-3-1-5" data-name=" 0.1.16.5.0.6-3-1-5" class="cls-9" points="95.861 3.424 95.861 3.862 98.159 3.862 98.159 3.424 95.861 3.424"/>
        <polygon id="_0.1.16.5.0.7-7-4-5" data-name=" 0.1.16.5.0.7-7-4-5" class="cls-6" points="95.861 3.88 95.861 4.539 98.159 4.539 98.159 3.88 95.861 3.88"/>
        <rect id="_0.1.16.5.0.8-9-4-5" data-name=" 0.1.16.5.0.8-9-4-5" class="cls-4" x="94.433" y="8.5772" width="5.1561" height="5.9566"/>
        <polygon id="_0.1.16.5.0.9-3-6-5" data-name=" 0.1.16.5.0.9-3-6-5" class="cls-10" points="94.43 14.533 94.43 8.577 93.407 8.577 93.407 14.533 94.43 14.533"/>
        <polygon id="_0.1.16.5.0.10-9-2-5" data-name=" 0.1.16.5.0.10-9-2-5" class="cls-11" points="99.589 8.577 99.589 14.533 100.614 14.533 100.614 8.577 99.589 8.577"/>
        <polygon id="_0.1.16.5.0.11-1-0-5" data-name=" 0.1.16.5.0.11-1-0-5" class="cls-7" points="98.159 8.577 97.881 8.577 97.881 3.424 98.159 3.424 98.159 8.577"/>
        <polygon id="_0.1.16.5.0.12-8-0-5" data-name=" 0.1.16.5.0.12-8-0-5" class="cls-8" points="96.121 8.577 95.842 8.577 95.842 3.424 96.121 3.424 96.121 8.577"/>
      </g>
      <g>
        <path class="cls-4" d="M93.3812,6.3236v-4.1l-1.5-1.6h-4.2l-1.5,1.6v4.1l1.5,1.6h4.2ZM88.0078,7.3558,86.7411,6.0047V2.5425l1.2667-1.3511h3.5466L92.821,2.5425V6.0047L91.5544,7.3558Z"/>
        <rect id="_0.1.16.5.0.0-3-4-6" data-name=" 0.1.16.5.0.0-3-4-6" x="86.181" y="8.5772" width="7.2043" height="5.9566"/>
        <g id="_0.1.16.5.0.1-7-8-6" data-name=" 0.1.16.5.0.1-7-8-6">
          <polygon id="connector232pin-0-8-6" class="cls-5" points="90.931 13.102 90.931 33.996 90.371 36.344 89.194 36.344 88.632 33.996 88.632 13.102 90.931 13.102"/>
          <polygon id="_0.1.16.5.0.1.1-5-3-6" data-name=" 0.1.16.5.0.1.1-5-3-6" class="cls-6" points="89.194 36.344 90.371 36.344 90.529 35.687 89.033 35.687 89.194 36.344"/>
          <polygon id="polygon6029-5-3-6" class="cls-7" points="90.931 33.996 90.371 36.344 90.093 36.344 90.652 33.996 90.652 13.102 90.931 13.102 90.931 33.996"/>
          <polygon id="_0.1.16.5.0.1.3-8-7-6" data-name=" 0.1.16.5.0.1.3-8-7-6" class="cls-8" points="88.892 33.996 89.452 36.344 89.174 36.344 88.613 33.996 88.613 13.102 88.892 13.102 88.892 33.996"/>
        </g>
        <circle id="_0.1.16.5.0.2-3-8-6" data-name=" 0.1.16.5.0.2-3-8-6" class="cls-5" cx="89.7812" cy="4.2736" r="1.8931"/>
        <polygon id="_0.1.16.5.0.5-8-3-6" data-name=" 0.1.16.5.0.5-8-3-6" class="cls-5" points="88.632 3.424 88.632 10.703 90.931 10.703 90.931 3.424 88.632 3.424"/>
        <polygon id="_0.1.16.5.0.6-3-1-6" data-name=" 0.1.16.5.0.6-3-1-6" class="cls-9" points="88.632 3.424 88.632 3.862 90.931 3.862 90.931 3.424 88.632 3.424"/>
        <polygon id="_0.1.16.5.0.7-7-4-6" data-name=" 0.1.16.5.0.7-7-4-6" class="cls-6" points="88.632 3.88 88.632 4.539 90.931 4.539 90.931 3.88 88.632 3.88"/>
        <rect id="_0.1.16.5.0.8-9-4-6" data-name=" 0.1.16.5.0.8-9-4-6" class="cls-4" x="87.2046" y="8.5772" width="5.1561" height="5.9566"/>
        <polygon id="_0.1.16.5.0.9-3-6-6" data-name=" 0.1.16.5.0.9-3-6-6" class="cls-10" points="87.201 14.533 87.201 8.577 86.179 8.577 86.179 14.533 87.201 14.533"/>
        <polygon id="_0.1.16.5.0.10-9-2-6" data-name=" 0.1.16.5.0.10-9-2-6" class="cls-11" points="92.361 8.577 92.361 14.533 93.385 14.533 93.385 8.577 92.361 8.577"/>
        <polygon id="_0.1.16.5.0.11-1-0-6" data-name=" 0.1.16.5.0.11-1-0-6" class="cls-7" points="90.931 8.577 90.652 8.577 90.652 3.424 90.931 3.424 90.931 8.577"/>
        <polygon id="_0.1.16.5.0.12-8-0-6" data-name=" 0.1.16.5.0.12-8-0-6" class="cls-8" points="88.892 8.577 88.613 8.577 88.613 3.424 88.892 3.424 88.892 8.577"/>
      </g>
      <g>
        <path class="cls-4" d="M86.1528,6.3236v-4.1l-1.5-1.6h-4.2l-1.5,1.6v4.1l1.5,1.6h4.2ZM80.7794,7.3558,79.5128,6.0047V2.5425l1.2666-1.3511h3.5467l1.2666,1.3511V6.0047L84.3261,7.3558Z"/>
        <rect id="_0.1.16.5.0.0-3-4-7" data-name=" 0.1.16.5.0.0-3-4-7" x="78.9526" y="8.5772" width="7.2043" height="5.9566"/>
        <g id="_0.1.16.5.0.1-7-8-7" data-name=" 0.1.16.5.0.1-7-8-7">
          <polygon id="connector232pin-0-8-7" class="cls-5" points="83.702 13.102 83.702 33.996 83.143 36.344 81.965 36.344 81.404 33.996 81.404 13.102 83.702 13.102"/>
          <polygon id="_0.1.16.5.0.1.1-5-3-7" data-name=" 0.1.16.5.0.1.1-5-3-7" class="cls-6" points="81.965 36.344 83.143 36.344 83.301 35.687 81.804 35.687 81.965 36.344"/>
          <polygon id="polygon6029-5-3-7" class="cls-7" points="83.702 33.996 83.143 36.344 82.865 36.344 83.424 33.996 83.424 13.102 83.702 13.102 83.702 33.996"/>
          <polygon id="_0.1.16.5.0.1.3-8-7-7" data-name=" 0.1.16.5.0.1.3-8-7-7" class="cls-8" points="81.664 33.996 82.223 36.344 81.945 36.344 81.385 33.996 81.385 13.102 81.664 13.102 81.664 33.996"/>
        </g>
        <circle id="_0.1.16.5.0.2-3-8-7" data-name=" 0.1.16.5.0.2-3-8-7" class="cls-5" cx="82.5528" cy="4.2736" r="1.8931"/>
        <polygon id="_0.1.16.5.0.5-8-3-7" data-name=" 0.1.16.5.0.5-8-3-7" class="cls-5" points="81.404 3.424 81.404 10.703 83.702 10.703 83.702 3.424 81.404 3.424"/>
        <polygon id="_0.1.16.5.0.6-3-1-7" data-name=" 0.1.16.5.0.6-3-1-7" class="cls-9" points="81.404 3.424 81.404 3.862 83.702 3.862 83.702 3.424 81.404 3.424"/>
        <polygon id="_0.1.16.5.0.7-7-4-7" data-name=" 0.1.16.5.0.7-7-4-7" class="cls-6" points="81.404 3.88 81.404 4.539 83.702 4.539 83.702 3.88 81.404 3.88"/>
        <rect id="_0.1.16.5.0.8-9-4-7" data-name=" 0.1.16.5.0.8-9-4-7" class="cls-4" x="79.9762" y="8.5772" width="5.1561" height="5.9566"/>
        <polygon id="_0.1.16.5.0.9-3-6-7" data-name=" 0.1.16.5.0.9-3-6-7" class="cls-10" points="79.973 14.533 79.973 8.577 78.95 8.577 78.95 14.533 79.973 14.533"/>
        <polygon id="_0.1.16.5.0.10-9-2-7" data-name=" 0.1.16.5.0.10-9-2-7" class="cls-11" points="85.132 8.577 85.132 14.533 86.157 14.533 86.157 8.577 85.132 8.577"/>
        <polygon id="_0.1.16.5.0.11-1-0-7" data-name=" 0.1.16.5.0.11-1-0-7" class="cls-7" points="83.702 8.577 83.424 8.577 83.424 3.424 83.702 3.424 83.702 8.577"/>
        <polygon id="_0.1.16.5.0.12-8-0-7" data-name=" 0.1.16.5.0.12-8-0-7" class="cls-8" points="81.664 8.577 81.385 8.577 81.385 3.424 81.664 3.424 81.664 8.577"/>
      </g>
      <g>
        <path class="cls-4" d="M78.9245,6.3236v-4.1l-1.5-1.6h-4.2l-1.5,1.6v4.1l1.5,1.6h4.2ZM73.551,7.3558,72.2844,6.0047V2.5425L73.551,1.1914h3.5467l1.2667,1.3511V6.0047L77.0977,7.3558Z"/>
        <rect id="_0.1.16.5.0.0-3-4-8" data-name=" 0.1.16.5.0.0-3-4-8" x="71.7242" y="8.5772" width="7.2043" height="5.9566"/>
        <g id="_0.1.16.5.0.1-7-8-8" data-name=" 0.1.16.5.0.1-7-8-8">
          <polygon id="connector232pin-0-8-8" class="cls-5" points="76.474 13.102 76.474 33.996 75.915 36.344 74.737 36.344 74.175 33.996 74.175 13.102 76.474 13.102"/>
          <polygon id="_0.1.16.5.0.1.1-5-3-8" data-name=" 0.1.16.5.0.1.1-5-3-8" class="cls-6" points="74.737 36.344 75.915 36.344 76.073 35.687 74.576 35.687 74.737 36.344"/>
          <polygon id="polygon6029-5-3-8" class="cls-7" points="76.474 33.996 75.915 36.344 75.636 36.344 76.196 33.996 76.196 13.102 76.474 13.102 76.474 33.996"/>
          <polygon id="_0.1.16.5.0.1.3-8-7-8" data-name=" 0.1.16.5.0.1.3-8-7-8" class="cls-8" points="74.436 33.996 74.995 36.344 74.717 36.344 74.156 33.996 74.156 13.102 74.436 13.102 74.436 33.996"/>
        </g>
        <circle id="_0.1.16.5.0.2-3-8-8" data-name=" 0.1.16.5.0.2-3-8-8" class="cls-5" cx="75.3244" cy="4.2736" r="1.8931"/>
        <polygon id="_0.1.16.5.0.5-8-3-8" data-name=" 0.1.16.5.0.5-8-3-8" class="cls-5" points="74.175 3.424 74.175 10.703 76.474 10.703 76.474 3.424 74.175 3.424"/>
        <polygon id="_0.1.16.5.0.6-3-1-8" data-name=" 0.1.16.5.0.6-3-1-8" class="cls-9" points="74.175 3.424 74.175 3.862 76.474 3.862 76.474 3.424 74.175 3.424"/>
        <polygon id="_0.1.16.5.0.7-7-4-8" data-name=" 0.1.16.5.0.7-7-4-8" class="cls-6" points="74.175 3.88 74.175 4.539 76.474 4.539 76.474 3.88 74.175 3.88"/>
        <rect id="_0.1.16.5.0.8-9-4-8" data-name=" 0.1.16.5.0.8-9-4-8" class="cls-4" x="72.7478" y="8.5772" width="5.1561" height="5.9566"/>
        <polygon id="_0.1.16.5.0.9-3-6-8" data-name=" 0.1.16.5.0.9-3-6-8" class="cls-10" points="72.745 14.533 72.745 8.577 71.722 8.577 71.722 14.533 72.745 14.533"/>
        <polygon id="_0.1.16.5.0.10-9-2-8" data-name=" 0.1.16.5.0.10-9-2-8" class="cls-11" points="77.904 8.577 77.904 14.533 78.928 14.533 78.928 8.577 77.904 8.577"/>
        <polygon id="_0.1.16.5.0.11-1-0-8" data-name=" 0.1.16.5.0.11-1-0-8" class="cls-7" points="76.474 8.577 76.196 8.577 76.196 3.424 76.474 3.424 76.474 8.577"/>
        <polygon id="_0.1.16.5.0.12-8-0-8" data-name=" 0.1.16.5.0.12-8-0-8" class="cls-8" points="74.436 8.577 74.156 8.577 74.156 3.424 74.436 3.424 74.436 8.577"/>
      </g>
    </g>
  </g>
  <g id="top">
    <path id="board-2" data-name="board" class="cls-1" d="M.215.215v36.85H59.7425V.215ZM4.7359,5.4959A1.1339,1.1339,0,1,1,5.87,4.362,1.1339,1.1339,0,0,1,4.7359,5.4959Zm7.2123,0A1.1339,1.1339,0,1,1,13.0821,4.362,1.1339,1.1339,0,0,1,11.9482,5.4959Zm7.2122,0A1.1339,1.1339,0,1,1,20.2943,4.362,1.1338,1.1338,0,0,1,19.16,5.4959Zm7.2123,0A1.1339,1.1339,0,1,1,27.5065,4.362,1.1338,1.1338,0,0,1,26.3727,5.4959Zm7.2122,0A1.1339,1.1339,0,1,1,34.7187,4.362,1.1339,1.1339,0,0,1,33.5849,5.4959Zm7.2122,0A1.1339,1.1339,0,1,1,41.9309,4.362,1.1339,1.1339,0,0,1,40.7971,5.4959Zm7.2122,0A1.1339,1.1339,0,1,1,49.1432,4.362,1.1338,1.1338,0,0,1,48.0093,5.4959Zm7.2123,0h0a1.1339,1.1339,0,0,1,0-2.2677h0a1.1339,1.1339,0,0,1,0,2.2677Z"/>
    <g id="pin-other-side-8pin">
      <g id="pin-other-side">
        <path id="path214942" class="cls-12" d="M7.347,4.362A2.611,2.611,0,1,1,4.736,1.751h0A2.611,2.611,0,0,1,7.347,4.362h0"/>
        <path id="path214948" class="cls-13" d="M5.317,4.9741H4.152v-1.23H5.317Z"/>
        <path id="path214950" class="cls-5" d="M5.317,4.9741H4.154l-.548.576H5.867Z"/>
        <path id="path214954" class="cls-14" d="M4.155,4.9741l-.549.576V3.1721l.549.573Z"/>
        <path id="path214958" class="cls-15" d="M4.155,3.7441,3.606,3.17H5.867l-.55.574Z"/>
        <path id="path214962" class="cls-9" d="M5.317,4.9741v-1.23l.55-.573V5.55Z"/>
      </g>
      <g id="pin-other-side-2" data-name="pin-other-side">
        <path id="path214942-2" data-name="path214942" class="cls-12" d="M14.5592,4.362a2.611,2.611,0,1,1-2.611-2.611h0a2.611,2.611,0,0,1,2.611,2.611h0"/>
        <path id="path214948-2" data-name="path214948" class="cls-13" d="M12.5292,4.9741h-1.165v-1.23h1.165Z"/>
        <path id="path214950-2" data-name="path214950" class="cls-5" d="M12.5292,4.9741h-1.163l-.548.576h2.261Z"/>
        <path id="path214954-2" data-name="path214954" class="cls-14" d="M11.3672,4.9741l-.549.576V3.1721l.549.573Z"/>
        <path id="path214958-2" data-name="path214958" class="cls-15" d="M11.3672,3.7441l-.549-.574h2.261l-.55.574Z"/>
        <path id="path214962-2" data-name="path214962" class="cls-9" d="M12.5292,4.9741v-1.23l.55-.573V5.55Z"/>
      </g>
      <g id="pin-other-side-3" data-name="pin-other-side">
        <path id="path214942-3" data-name="path214942" class="cls-12" d="M21.7714,4.362A2.611,2.611,0,1,1,19.16,1.751h0a2.611,2.611,0,0,1,2.611,2.611h0"/>
        <path id="path214948-3" data-name="path214948" class="cls-13" d="M19.7414,4.9741h-1.165v-1.23h1.165Z"/>
        <path id="path214950-3" data-name="path214950" class="cls-5" d="M19.7414,4.9741h-1.163l-.548.576h2.261Z"/>
        <path id="path214954-3" data-name="path214954" class="cls-14" d="M18.5794,4.9741l-.549.576V3.1721l.549.573Z"/>
        <path id="path214958-3" data-name="path214958" class="cls-15" d="M18.5794,3.7441,18.03,3.17h2.261l-.55.574Z"/>
        <path id="path214962-3" data-name="path214962" class="cls-9" d="M19.7414,4.9741v-1.23l.55-.573V5.55Z"/>
      </g>
      <g id="pin-other-side-4" data-name="pin-other-side">
        <path id="path214942-4" data-name="path214942" class="cls-12" d="M28.9836,4.362a2.611,2.611,0,1,1-2.611-2.611h0a2.611,2.611,0,0,1,2.611,2.611h0"/>
        <path id="path214948-4" data-name="path214948" class="cls-13" d="M26.9537,4.9741H25.7886v-1.23h1.1651Z"/>
        <path id="path214950-4" data-name="path214950" class="cls-5" d="M26.9537,4.9741H25.7906l-.5479.576h2.261Z"/>
        <path id="path214954-4" data-name="path214954" class="cls-14" d="M25.7916,4.9741l-.549.576V3.1721l.549.573Z"/>
        <path id="path214958-4" data-name="path214958" class="cls-15" d="M25.7916,3.7441l-.549-.574h2.261l-.55.574Z"/>
        <path id="path214962-4" data-name="path214962" class="cls-9" d="M26.9537,4.9741v-1.23l.55-.573V5.55Z"/>
      </g>
      <g id="pin-other-side-5" data-name="pin-other-side">
        <path id="path214942-5" data-name="path214942" class="cls-12" d="M36.1959,4.362a2.611,2.611,0,1,1-2.611-2.611h0a2.611,2.611,0,0,1,2.611,2.611h0"/>
        <path id="path214948-5" data-name="path214948" class="cls-13" d="M34.1659,4.9741h-1.165v-1.23h1.165Z"/>
        <path id="path214950-5" data-name="path214950" class="cls-5" d="M34.1659,4.9741h-1.163l-.548.576h2.261Z"/>
        <path id="path214954-5" data-name="path214954" class="cls-14" d="M33.0039,4.9741l-.549.576V3.1721l.549.573Z"/>
        <path id="path214958-5" data-name="path214958" class="cls-15" d="M33.0039,3.7441l-.549-.574h2.261l-.55.574Z"/>
        <path id="path214962-5" data-name="path214962" class="cls-9" d="M34.1659,4.9741v-1.23l.55-.573V5.55Z"/>
      </g>
      <g id="pin-other-side-6" data-name="pin-other-side">
        <path id="path214942-6" data-name="path214942" class="cls-12" d="M43.4081,4.362a2.611,2.611,0,1,1-2.611-2.611h0a2.611,2.611,0,0,1,2.611,2.611h0"/>
        <path id="path214948-6" data-name="path214948" class="cls-13" d="M41.3781,4.9741h-1.165v-1.23h1.165Z"/>
        <path id="path214950-6" data-name="path214950" class="cls-5" d="M41.3781,4.9741h-1.163l-.548.576h2.261Z"/>
        <path id="path214954-6" data-name="path214954" class="cls-14" d="M40.2161,4.9741l-.549.576V3.1721l.549.573Z"/>
        <path id="path214958-6" data-name="path214958" class="cls-15" d="M40.2161,3.7441l-.549-.574h2.261l-.55.574Z"/>
        <path id="path214962-6" data-name="path214962" class="cls-9" d="M41.3781,4.9741v-1.23l.55-.573V5.55Z"/>
      </g>
      <g id="pin-other-side-7" data-name="pin-other-side">
        <path id="path214942-7" data-name="path214942" class="cls-12" d="M50.62,4.362a2.611,2.611,0,1,1-2.611-2.611h0A2.611,2.611,0,0,1,50.62,4.362h0"/>
        <path id="path214948-7" data-name="path214948" class="cls-13" d="M48.59,4.9741h-1.165v-1.23H48.59Z"/>
        <path id="path214950-7" data-name="path214950" class="cls-5" d="M48.59,4.9741h-1.163l-.548.576H49.14Z"/>
        <path id="path214954-7" data-name="path214954" class="cls-14" d="M47.4283,4.9741l-.549.576V3.1721l.549.573Z"/>
        <path id="path214958-7" data-name="path214958" class="cls-15" d="M47.4283,3.7441l-.549-.574H49.14l-.55.574Z"/>
        <path id="path214962-7" data-name="path214962" class="cls-9" d="M48.59,4.9741v-1.23l.55-.573V5.55Z"/>
      </g>
      <g id="pin-other-side-8" data-name="pin-other-side">
        <path id="path214942-8" data-name="path214942" class="cls-12" d="M57.8326,4.362a2.611,2.611,0,1,1-2.611-2.611h0a2.611,2.611,0,0,1,2.611,2.611h0"/>
        <path id="path214948-8" data-name="path214948" class="cls-13" d="M55.8026,4.9741h-1.165v-1.23h1.165Z"/>
        <path id="path214950-8" data-name="path214950" class="cls-5" d="M55.8026,4.9741H54.64l-.548.576h2.261Z"/>
        <path id="path214954-8" data-name="path214954" class="cls-14" d="M54.6406,4.9741l-.549.576V3.1721l.549.573Z"/>
        <path id="path214958-8" data-name="path214958" class="cls-15" d="M54.6406,3.7441l-.549-.574h2.261l-.55.574Z"/>
        <path id="path214962-8" data-name="path214962" class="cls-9" d="M55.8026,4.9741v-1.23l.55-.573V5.55Z"/>
      </g>
    </g>
    <text class="cls-16" transform="translate(51.861 11.6538)">VIN</text>
    <text class="cls-16" transform="translate(39.6669 11.6543)">GND</text>
    <text class="cls-16" transform="translate(29.6623 11.654)">+5V</text>
    <g id="T-SOT235-2">
      <g>
        <path id="path3487-1-2-2-2" class="cls-17" d="M48.69,30.8816v-1.62H46.13v1.62Z"/>
        <path id="path3489-6-2-2-2" class="cls-18" d="M47.22,30.8816v-1.62h-.77v1.62Z"/>
      </g>
      <g>
        <path id="path3487-1-2-3" class="cls-17" d="M48.69,25.352v-1.62H46.13v1.62Z"/>
        <path id="path3489-6-2-3" class="cls-18" d="M47.22,25.352v-1.62h-.77v1.62Z"/>
      </g>
      <g>
        <path id="path3487-1-2-3-2" class="cls-17" d="M48.69,28.1618v-1.62H46.13v1.62Z"/>
        <path id="path3489-6-2-3-2" class="cls-18" d="M47.22,28.1618v-1.62h-.77v1.62Z"/>
      </g>
      <g>
        <path id="path3487-1-2-2-2-2" class="cls-17" d="M40.2662,23.7322v1.62h2.56v-1.62Z"/>
        <path id="path3489-6-2-2-2-2" class="cls-18" d="M41.7361,23.7322v1.62h.77v-1.62Z"/>
      </g>
      <g>
        <path id="path3487-1-2-2-2-3" class="cls-17" d="M40.2662,26.5418v1.62h2.56v-1.62Z"/>
        <path id="path3489-6-2-2-2-3" class="cls-18" d="M41.7361,26.5418v1.62h.77v-1.62Z"/>
      </g>
      <g>
        <path id="path3487-1-2-2-2-4" class="cls-17" d="M40.2662,29.2617v1.62h2.56v-1.62Z"/>
        <path id="path3489-6-2-2-2-4" class="cls-18" d="M41.7361,29.2617v1.62h.77v-1.62Z"/>
      </g>
      <path id="path3477-9-2-2" class="cls-19" d="M42.7382,31.5615V23.1423h3.48v8.4192Z"/>
    </g>
    <g id="R-0603">
      <rect id="rect21332-8-1-9-3-8-2-40-6-2-0-6-6-0-5-6-4-8-7-2-0-7-2-3-9-16-5" class="cls-20" x="54.0881" y="18.97" width="2.2677" height="2.2598"/>
      <rect id="rect21332-8-1-9-3-8-2-40-6-2-0-6-6-0-5-6-4-8-7-2-0-7-2-3-10-16-5" class="cls-20" x="54.0881" y="15.5803" width="2.2677" height="2.2598"/>
      <path class="cls-21" d="M54.0881,20.34V16.47a.329.329,0,0,1,.2772-.33h1.7029a.3087.3087,0,0,1,.287.3287V16.47h0v3.87a.309.309,0,0,1-.2857.33H54.3852a.319.319,0,0,1-.297-.32h0Z"/>
      <g id="path26345-3-6-9-3-6-4-2-5-6-8-7-9-0-90-3-1-3-9-2-2-8-5-0-2-3-5-16-5">
        <rect class="cls-22" x="54.0881" y="16.5603" width="2.2677" height="3.6797"/>
      </g>
      <path id="path26341-4-2-6-0-8-1-1-1-5-0-3-3-1-8-3-8-7-7-7-2-4-9-7-2-3-5-16-5" class="cls-19" d="M56.3558,19.82V16.99H54.0881v2.83Z"/>
    </g>
    <g id="R-0603-2" data-name="R-0603">
      <rect id="rect21332-8-1-9-3-8-2-40-6-2-0-6-6-0-5-6-4-8-7-2-0-7-2-3-9-16-5-2" data-name="rect21332-8-1-9-3-8-2-40-6-2-0-6-6-0-5-6-4-8-7-2-0-7-2-3-9-16-5" class="cls-20" x="52.3697" y="27.9465" width="2.2677" height="2.2598"/>
      <rect id="rect21332-8-1-9-3-8-2-40-6-2-0-6-6-0-5-6-4-8-7-2-0-7-2-3-10-16-5-2" data-name="rect21332-8-1-9-3-8-2-40-6-2-0-6-6-0-5-6-4-8-7-2-0-7-2-3-10-16-5" class="cls-20" x="52.3697" y="24.5568" width="2.2677" height="2.2598"/>
      <path class="cls-21" d="M52.37,29.3164v-3.87a.3288.3288,0,0,1,.2772-.33H54.35a.3088.3088,0,0,1,.287.3287v.0012h0v3.87a.3091.3091,0,0,1-.2857.33H52.6668a.319.319,0,0,1-.297-.32h0Z"/>
      <g id="path26345-3-6-9-3-6-4-2-5-6-8-7-9-0-90-3-1-3-9-2-2-8-5-0-2-3-5-16-5-2" data-name="path26345-3-6-9-3-6-4-2-5-6-8-7-9-0-90-3-1-3-9-2-2-8-5-0-2-3-5-16-5">
        <rect class="cls-22" x="52.3697" y="25.5368" width="2.2677" height="3.6797"/>
      </g>
      <path id="path26341-4-2-6-0-8-1-1-1-5-0-3-3-1-8-3-8-7-7-7-2-4-9-7-2-3-5-16-5-2" data-name="path26341-4-2-6-0-8-1-1-1-5-0-3-3-1-8-3-8-7-7-7-2-4-9-7-2-3-5-16-5" class="cls-19" d="M54.6374,28.7963v-2.83H52.37v2.83Z"/>
    </g>
    <g id="L-4pin">
      <g>
        <g>
          <path class="cls-23" d="M12.22,29.317v2.98c0,.8512,1.2473,1.5606,2.8347,1.5606s2.8346-.7093,2.8346-1.5606v-2.98Z"/>
          <rect class="cls-24" x="12.22" y="30.8962" width="5.6693" height="1.5041"/>
        </g>
        <g>
          <path class="cls-23" d="M4.845,29.317v2.98c0,.8512,1.2473,1.5606,2.8347,1.5606s2.8346-.7093,2.8346-1.5606v-2.98Z"/>
          <rect class="cls-24" x="4.845" y="30.8962" width="5.6693" height="1.5041"/>
        </g>
      </g>
      <g>
        <g>
          <path class="cls-23" d="M10.5143,14.483V11.5035c0-.8512-1.2472-1.5606-2.8346-1.5606s-2.8347.7093-2.8347,1.5606v2.98Z"/>
          <rect class="cls-24" x="4.845" y="11.3997" width="5.6693" height="1.5041"/>
        </g>
        <g>
          <path class="cls-23" d="M17.8893,14.483V11.5035c0-.8512-1.2472-1.5606-2.8346-1.5606s-2.8347.7093-2.8347,1.5606v2.98Z"/>
          <rect class="cls-24" x="12.22" y="11.3997" width="5.6693" height="1.5041"/>
        </g>
      </g>
      <rect class="cls-19" x="1.7294" y="12.3115" width="19.2756" height="19.2756" rx="3.3394" ry="3.3394"/>
    </g>
    <g>
      <g id="C-1210">
        <rect id="rect21332-8-1-9-3-8-2-40-6-2-0-6-6-0-5-6-4-8-7-2-0-7-2-3-9-16-3" class="cls-20" x="22.8299" y="17.0258" width="7.0866" height="3.8684"/>
        <rect id="rect21332-8-1-9-3-8-2-40-6-2-0-6-6-0-5-6-4-8-7-2-0-7-2-3-10-16-3" class="cls-20" x="22.8299" y="9.1443" width="7.0866" height="3.8684"/>
        <path class="cls-21" d="M22.83,18.9436V11.16a.7953.7953,0,0,1,.8754-.6755H29.02a.8009.8009,0,0,1,.8963.6254h0v.0018h0v7.7835a.7762.7762,0,0,1-.8546.6594H23.7263a.8271.8271,0,0,1-.8963-.6594h0Z"/>
        <g id="path26345-3-6-9-3-6-4-2-5-6-8-7-9-0-90-3-1-3-9-2-2-8-5-0-2-3-5-16-3">
          <rect class="cls-22" x="22.8299" y="11.3398" width="7.0866" height="7.3701"/>
        </g>
        <path id="path26341-4-2-6-0-8-1-1-1-5-0-3-3-1-8-3-8-7-7-7-2-4-9-7-2-3-5-16-3" class="cls-25" d="M29.9163,17.8744V12.2051H22.83v5.6693Z"/>
      </g>
      <g id="C-1210-2" data-name="C-1210">
        <rect id="rect21332-8-1-9-3-8-2-40-6-2-0-6-6-0-5-6-4-8-7-2-0-7-2-3-9-16-3-2" data-name="rect21332-8-1-9-3-8-2-40-6-2-0-6-6-0-5-6-4-8-7-2-0-7-2-3-9-16-3" class="cls-20" x="22.8301" y="30.7873" width="7.0866" height="3.8684"/>
        <rect id="rect21332-8-1-9-3-8-2-40-6-2-0-6-6-0-5-6-4-8-7-2-0-7-2-3-10-16-3-2" data-name="rect21332-8-1-9-3-8-2-40-6-2-0-6-6-0-5-6-4-8-7-2-0-7-2-3-10-16-3" class="cls-20" x="22.8301" y="22.9058" width="7.0866" height="3.8684"/>
        <path class="cls-21" d="M22.83,32.7051V24.9216a.7952.7952,0,0,1,.8754-.6754h5.315a.8008.8008,0,0,1,.8963.6254h0v.0017h0v7.7835a.7762.7762,0,0,1-.8546.6594H23.7265a.8271.8271,0,0,1-.8963-.6594h0Z"/>
        <g id="path26345-3-6-9-3-6-4-2-5-6-8-7-9-0-90-3-1-3-9-2-2-8-5-0-2-3-5-16-3-2" data-name="path26345-3-6-9-3-6-4-2-5-6-8-7-9-0-90-3-1-3-9-2-2-8-5-0-2-3-5-16-3">
          <rect class="cls-22" x="22.8301" y="25.1013" width="7.0866" height="7.3701"/>
        </g>
        <path id="path26341-4-2-6-0-8-1-1-1-5-0-3-3-1-8-3-8-7-7-7-2-4-9-7-2-3-5-16-3-2" data-name="path26341-4-2-6-0-8-1-1-1-5-0-3-3-1-8-3-8-7-7-7-2-4-9-7-2-3-5-16-3" class="cls-25" d="M29.9165,31.6359V25.9666H22.83v5.6693Z"/>
      </g>
    </g>
    <g id="C-0805">
      <rect id="rect21332-8-1-9-3-8-2-40-6-2-0-6-6-0-5-6-4-8-7-2-0-7-2-3-9-16-3-3" data-name="rect21332-8-1-9-3-8-2-40-6-2-0-6-6-0-5-6-4-8-7-2-0-7-2-3-9-16-3" class="cls-20" x="34.1663" y="27.0415" width="3.3997" height="2.8997"/>
      <rect id="rect21332-8-1-9-3-8-2-40-6-2-0-6-6-0-5-6-4-8-7-2-0-7-2-3-10-16-3-3" data-name="rect21332-8-1-9-3-8-2-40-6-2-0-6-6-0-5-6-4-8-7-2-0-7-2-3-10-16-3" class="cls-20" x="34.1663" y="21.992" width="3.3997" height="2.8997"/>
      <path class="cls-21" d="M34.1663,28.3813v-4.84a.42.42,0,0,1,.42-.42h2.55a.41.41,0,0,1,.43.3889h0v.0011h0v4.84a.41.41,0,0,1-.41.41h-2.56a.43.43,0,0,1-.43-.41h0Z"/>
      <g id="path26345-3-6-9-3-6-4-2-5-6-8-7-9-0-90-3-1-3-9-2-2-8-5-0-2-3-5-16-3-3" data-name="path26345-3-6-9-3-6-4-2-5-6-8-7-9-0-90-3-1-3-9-2-2-8-5-0-2-3-5-16-3">
        <rect class="cls-22" x="34.1663" y="23.8218" width="3.3997" height="4.2496"/>
      </g>
      <path id="path26341-4-2-6-0-8-1-1-1-5-0-3-3-1-8-3-8-7-7-7-2-4-9-7-2-3-5-16-3-3" data-name="path26341-4-2-6-0-8-1-1-1-5-0-3-3-1-8-3-8-7-7-7-2-4-9-7-2-3-5-16-3" class="cls-25" d="M37.5659,27.3815v-2.84h-3.4v2.84Z"/>
    </g>
    <g id="R-0603-3" data-name="R-0603">
      <rect id="rect21332-8-1-9-3-8-2-40-6-2-0-6-6-0-5-6-4-8-7-2-0-7-2-3-9-16-5-3" data-name="rect21332-8-1-9-3-8-2-40-6-2-0-6-6-0-5-6-4-8-7-2-0-7-2-3-9-16-5" class="cls-20" x="41.6531" y="14.1166" width="2.2598" height="2.2677"/>
      <rect id="rect21332-8-1-9-3-8-2-40-6-2-0-6-6-0-5-6-4-8-7-2-0-7-2-3-10-16-5-3" data-name="rect21332-8-1-9-3-8-2-40-6-2-0-6-6-0-5-6-4-8-7-2-0-7-2-3-10-16-5" class="cls-20" x="45.0428" y="14.1166" width="2.2598" height="2.2677"/>
      <path class="cls-21" d="M42.543,14.1166h3.87a.3289.3289,0,0,1,.33.2772v1.7029a.3088.3088,0,0,1-.3287.287H42.5431a.309.309,0,0,1-.33-.2857V14.4137a.3189.3189,0,0,1,.32-.297h.01Z"/>
      <g id="path26345-3-6-9-3-6-4-2-5-6-8-7-9-0-90-3-1-3-9-2-2-8-5-0-2-3-5-16-5-3" data-name="path26345-3-6-9-3-6-4-2-5-6-8-7-9-0-90-3-1-3-9-2-2-8-5-0-2-3-5-16-5">
        <rect class="cls-22" x="42.6429" y="14.1166" width="3.6797" height="2.2677"/>
      </g>
      <path id="path26341-4-2-6-0-8-1-1-1-5-0-3-3-1-8-3-8-7-7-7-2-4-9-7-2-3-5-16-5-3" data-name="path26341-4-2-6-0-8-1-1-1-5-0-3-3-1-8-3-8-7-7-7-2-4-9-7-2-3-5-16-5" class="cls-19" d="M43.063,16.3843h2.83V14.1166h-2.83Z"/>
    </g>
    <g id="C-0603">
      <rect id="rect21332-8-1-9-3-8-2-40-6-2-0-6-6-0-5-6-4-8-7-2-0-7-2-3-9-16-2" class="cls-20" x="44.8231" y="18.9664" width="2.2598" height="2.2598"/>
      <rect id="rect21332-8-1-9-3-8-2-40-6-2-0-6-6-0-5-6-4-8-7-2-0-7-2-3-10-16-2" class="cls-20" x="48.2028" y="18.9657" width="2.2598" height="2.2598"/>
      <path class="cls-21" d="M45.713,18.9617h3.88a.329.329,0,0,1,.33.2772v1.7027a.3089.3089,0,0,1-.3287.2872H45.7129a.309.309,0,0,1-.33-.2858V19.2589a.3188.3188,0,0,1,.32-.297h0Z"/>
      <rect class="cls-22" x="45.8103" y="18.96" width="3.685" height="2.2698"/>
      <path id="path26341-4-2-6-0-8-1-1-1-5-0-3-3-1-8-3-8-7-7-7-2-4-9-7-2-3-5-16-2" class="cls-25" d="M46.233,21.2289h2.84v-2.268h-2.84Z"/>
    </g>
  </g>
</svg>
