<?xml version="1.0" encoding="UTF-8" standalone="no"?>
<!-- Created with Inkscape (http://www.inkscape.org/) -->

<svg
   xmlns:dc="http://purl.org/dc/elements/1.1/"
   xmlns:cc="http://creativecommons.org/ns#"
   xmlns:rdf="http://www.w3.org/1999/02/22-rdf-syntax-ns#"
   xmlns:svg="http://www.w3.org/2000/svg"
   xmlns="http://www.w3.org/2000/svg"
   xmlns:sodipodi="http://sodipodi.sourceforge.net/DTD/sodipodi-0.dtd"
   xmlns:inkscape="http://www.inkscape.org/namespaces/inkscape"
   width="88.406754mm"
   height="71.740494mm"
   viewBox="0 0 88.406754 71.740494"
   version="1.1"
   id="svg27173"
   inkscape:version="0.92.1 r15371"
   sodipodi:docname="wall-plug-1a.svg">
  <defs
     id="defs27167" />
  <sodipodi:namedview
     id="base"
     pagecolor="#ffffff"
     bordercolor="#666666"
     borderopacity="1.0"
     inkscape:pageopacity="0.0"
     inkscape:pageshadow="2"
     inkscape:zoom="1.4"
     inkscape:cx="332.97947"
     inkscape:cy="3.1589081"
     inkscape:document-units="mm"
     inkscape:current-layer="layer1"
     showgrid="false"
     fit-margin-top="0"
     fit-margin-left="0"
     fit-margin-right="0"
     fit-margin-bottom="0"
     inkscape:window-width="1920"
     inkscape:window-height="1017"
     inkscape:window-x="-8"
     inkscape:window-y="-8"
     inkscape:window-maximized="1" />
  <metadata
     id="metadata27170">
    <rdf:RDF>
      <cc:Work
         rdf:about="">
        <dc:format>image/svg+xml</dc:format>
        <dc:type
           rdf:resource="http://purl.org/dc/dcmitype/StillImage" />
        <dc:title></dc:title>
      </cc:Work>
    </rdf:RDF>
  </metadata>
  <g
     inkscape:label="Layer 1"
     inkscape:groupmode="layer"
     id="layer1"
     transform="translate(580.92957,167.49524)">
    <g
       id="g28007">
      <text
         y="-103.61436"
         x="-568.47449"
         id="text44"
         style="font-variant:normal;font-weight:500;font-stretch:normal;font-size:1.76388884px;font-family:DINPro;-inkscape-font-specification:DINPro-Medium;writing-mode:lr-tb;fill:#666666;fill-opacity:1;fill-rule:nonzero;stroke:none;stroke-width:0.35277778">
        <tspan
           style="fill:#666666;stroke-width:0.35277778"
           id="tspan30"
           sodipodi:role="line"
           y="-103.61436"
           x="-568.47449 -567.5343">3B</tspan>
        <tspan
           style="fill:#666666;stroke-width:0.35277778"
           id="tspan32"
           sodipodi:role="line"
           y="-108.12463"
           x="-570.04785 -569.10773 -568.61737 -567.67719">4.5B</tspan>
        <tspan
           style="fill:#666666;stroke-width:0.35277778"
           id="tspan34"
           sodipodi:role="line"
           y="-112.17981"
           x="-565.56232 -564.62213">5B</tspan>
        <tspan
           style="fill:#666666;stroke-width:0.35277778"
           id="tspan36"
           sodipodi:role="line"
           y="-113.27696"
           x="-561.26544 -560.32532">6B</tspan>
        <tspan
           style="fill:#666666;stroke-width:0.35277778"
           id="tspan38"
           sodipodi:role="line"
           y="-112.17981"
           x="-557.40784 -556.46771 -555.97729 -555.03717">7.5B</tspan>
        <tspan
           style="fill:#666666;stroke-width:0.35277778"
           id="tspan40"
           sodipodi:role="line"
           y="-108.12463"
           x="-553.63489 -552.6947">9B</tspan>
        <tspan
           style="fill:#666666;stroke-width:0.35277778"
           id="tspan42"
           sodipodi:role="line"
           y="-103.61436"
           x="-553.90826 -552.96814 -552.02795">12B</tspan>
      </text>
      <path
         d="m -560.16645,-112.70457 v 12.45411"
         style="fill:none;stroke:#ffffff;stroke-width:0.64911115;stroke-linecap:butt;stroke-linejoin:miter;stroke-miterlimit:10;stroke-dasharray:none;stroke-opacity:1"
         id="path48"
         inkscape:connector-curvature="0" />
      <path
         d="m -566.08868,-108.40186 11.84452,3.84845"
         style="fill:none;stroke:#ffffff;stroke-width:0.64911115;stroke-linecap:butt;stroke-linejoin:miter;stroke-miterlimit:10;stroke-dasharray:none;stroke-opacity:1"
         id="path56"
         inkscape:connector-curvature="0" />
      <path
         d="m -566.08868,-104.55332 11.84451,-3.84846"
         style="fill:none;stroke:#ffffff;stroke-width:0.64911115;stroke-linecap:butt;stroke-linejoin:miter;stroke-miterlimit:10;stroke-dasharray:none;stroke-opacity:1"
         id="path60"
         inkscape:connector-curvature="0" />
      <path
         inkscape:connector-curvature="0"
         id="path52"
         style="fill:none;stroke:#ffffff;stroke-width:0.64911115;stroke-linecap:butt;stroke-linejoin:miter;stroke-miterlimit:10;stroke-dasharray:none;stroke-opacity:1"
         d="m -554.38474,-104.18453 -11.59738,-4.53923" />
      <path
         inkscape:connector-curvature="0"
         id="path64"
         style="fill:none;stroke:#ffffff;stroke-width:0.64911115;stroke-linecap:butt;stroke-linejoin:miter;stroke-miterlimit:10;stroke-dasharray:none;stroke-opacity:1"
         d="m -559.81692,-112.67024 -0.73283,12.43249" />
      <path
         inkscape:connector-curvature="0"
         id="path76"
         style="fill:#ffcf01;fill-opacity:1;fill-rule:nonzero;stroke:none;stroke-width:0.35277778"
         d="m -563.08809,-111.01361 c 2.50645,-1.60452 5.85039,-0.87087 7.45491,1.63558 1.60452,2.50645 0.87107,5.85068 -1.63538,7.4552 -2.50615,1.60433 -5.85058,0.87058 -7.4551,-1.63587 -1.60452,-2.50645 -0.87058,-5.85057 1.63557,-7.45491" />
      <path
         inkscape:connector-curvature="0"
         id="path80"
         style="fill:#ffffff;fill-opacity:1;fill-rule:nonzero;stroke:none;stroke-width:0.35277778"
         d="m -557.13738,-101.71791 c 2.61935,-1.6768 3.38614,-5.1718 1.70934,-7.79115 -1.67698,-2.61965 -5.17199,-3.38644 -7.79134,-1.70964 -2.61935,1.67679 -3.38614,5.1718 -1.70916,7.79145 1.6768,2.61935 5.17181,3.38614 7.79116,1.70934 m -0.26248,-0.41002 c -2.39711,1.53453 -5.58443,0.8355 -7.11896,-1.56161 -1.53471,-2.39741 -0.8352,-5.58462 1.56191,-7.11915 2.39712,-1.53453 5.58444,-0.8355 7.11915,1.56191 1.53453,2.39711 0.83502,5.58433 -1.5621,7.11885" />
      <path
         inkscape:connector-curvature="0"
         id="path84"
         style="fill:none;stroke:#f89836;stroke-width:1.2982223;stroke-linecap:butt;stroke-linejoin:miter;stroke-miterlimit:10;stroke-dasharray:none;stroke-opacity:1"
         d="m -563.5662,-107.77799 5.68337,2.22427" />
      <path
         inkscape:connector-curvature="0"
         id="path88"
         style="fill:#f89836;fill-opacity:1;fill-rule:nonzero;stroke:none;stroke-width:0.35277778"
         d="m -558.74857,-104.43283 2.68727,-0.40796 -1.69648,-2.12337 z" />
      <g
         inkscape:export-ydpi="88.48484"
         inkscape:export-xdpi="88.48484"
         inkscape:export-filename="C:\Users\Aleksey\Desktop\path240791.png"
         transform="matrix(0,-0.35277777,-0.35277777,0,-536.54554,-165.61776)"
         id="g90">
        <path
           inkscape:connector-curvature="0"
           id="path92"
           style="fill:#e6e7e8;fill-opacity:1;fill-rule:nonzero;stroke:none"
           d="m 0,0 h -115.169 c -2.939,0 -5.322,2.383 -5.322,5.322 v 115.169 c 0,2.939 2.383,5.322 5.322,5.322 H 0 c 2.939,0 5.322,-2.383 5.322,-5.322 V 5.322 C 5.322,2.383 2.939,0 0,0" />
      </g>
      <g
         inkscape:export-ydpi="88.48484"
         inkscape:export-xdpi="88.48484"
         inkscape:export-filename="C:\Users\Aleksey\Desktop\path240791.png"
         transform="matrix(0,-0.35277777,-0.35277777,0,-558.73747,-163.4456)"
         id="g94">
        <path
           inkscape:connector-curvature="0"
           id="path96"
           style="fill:#d1d3d4;fill-opacity:1;fill-rule:nonzero;stroke:none"
           d="m 0,0 c 0,-28.402 -23.025,-51.427 -51.427,-51.427 -28.402,0 -51.427,23.025 -51.427,51.427 0,28.402 23.025,51.427 51.427,51.427 C -23.025,51.427 0,28.402 0,0" />
      </g>
      <path
         inkscape:export-ydpi="88.48484"
         inkscape:export-xdpi="88.48484"
         inkscape:export-filename="C:\Users\Aleksey\Desktop\path240791.png"
         d="m -525.6423,-145.32045 h 3.27201 22.68855 c 3.36938,0 6.10059,2.7312 6.10059,6.10093 v 10.56923 c 0,3.36938 -2.73121,6.10058 -6.10059,6.10058"
         style="fill:none;stroke:#58595b;stroke-width:2.11666656;stroke-linecap:butt;stroke-linejoin:miter;stroke-miterlimit:10;stroke-dasharray:none;stroke-opacity:1"
         id="path100"
         inkscape:connector-curvature="0" />
      <g
         inkscape:export-ydpi="88.48484"
         inkscape:export-xdpi="88.48484"
         inkscape:export-filename="C:\Users\Aleksey\Desktop\path240791.png"
         transform="matrix(0,-0.35277777,-0.35277777,0,-519.07676,-146.96624)"
         id="g102">
        <path
           inkscape:connector-curvature="0"
           id="path104"
           style="fill:#58595b;fill-opacity:1;fill-rule:nonzero;stroke:none"
           d="m 0,0 h -9.331 c -1.589,0 -2.877,1.288 -2.877,2.878 V 4.573 H 2.878 V 2.878 C 2.878,1.288 1.589,0 0,0" />
      </g>
      <g
         inkscape:export-ydpi="88.48484"
         inkscape:export-xdpi="88.48484"
         inkscape:export-filename="C:\Users\Aleksey\Desktop\path240791.png"
         transform="matrix(0,-0.35277777,-0.35277777,0,-541.77472,-158.15457)"
         id="g106">
        <path
           inkscape:connector-curvature="0"
           id="path108"
           style="fill:#414042;fill-opacity:1;fill-rule:nonzero;stroke:none"
           d="m 0,0 c 0.957,11.273 6.275,33.393 6.275,46.687 0,13.293 -6.579,29.331 -16.264,32.692 -9.685,3.36 -21.286,3.36 -26.391,3.36 -5.105,0 -16.803,0 -26.488,-3.36 -9.686,-3.361 -16.264,-19.399 -16.264,-32.692 0,-13.294 5.317,-35.414 6.274,-46.687 0.957,-11.273 -0.106,-23.184 0,-32.436 0.107,-9.253 0.745,-12.975 7.445,-20.525 6.7,-7.551 18.398,-6.807 22.014,-6.807 h 7.019 6.922 c 3.615,0 15.314,-0.744 22.014,6.807 6.7,7.55 7.338,11.272 7.444,20.525 0.106,9.252 -0.957,21.163 0,32.436" />
      </g>
      <g
         inkscape:export-ydpi="88.48484"
         inkscape:export-xdpi="88.48484"
         inkscape:export-filename="C:\Users\Aleksey\Desktop\path240791.png"
         transform="matrix(0,-0.35277777,-0.35277777,0,-549.99103,-145.32046)"
         id="g110">
        <path
           inkscape:connector-curvature="0"
           id="path112"
           style="fill:#414042;fill-opacity:1;fill-rule:nonzero;stroke:none"
           d="m 0,0 h 26.809 v -61.836 c 0,-1.325 -1.074,-2.398 -2.398,-2.398 h -8.45 c 0,-9.465 -7.453,-12.55 -15.961,-12.55 -8.508,0 -16.059,3.085 -16.059,12.55 h -8.449 c -1.325,0 -2.398,1.073 -2.398,2.398 V 0 Z" />
      </g>
      <g
         inkscape:export-ydpi="88.48484"
         inkscape:export-xdpi="88.48484"
         inkscape:export-filename="C:\Users\Aleksey\Desktop\path240791.png"
         transform="matrix(0,-0.35277777,-0.35277777,0,-519.07676,-145.32046)"
         id="g114">
        <path
           inkscape:connector-curvature="0"
           id="path116"
           style="fill:#414042;fill-opacity:1;fill-rule:nonzero;stroke:none"
           d="m 0,0 h -5.422 l 2.088,-23.825 c 0.021,-0.239 0.221,-0.422 0.461,-0.422 H 0 2.873 c 0.24,0 0.44,0.183 0.461,0.422 L 5.422,0 Z" />
      </g>
      <g
         inkscape:export-ydpi="88.48484"
         inkscape:export-xdpi="88.48484"
         inkscape:export-filename="C:\Users\Aleksey\Desktop\path240791.png"
         transform="matrix(0,-0.35277777,-0.35277777,0,-525.56099,-153.28681)"
         id="g118">
        <path
           inkscape:connector-curvature="0"
           id="path120"
           style="fill:#ef3e2d;fill-opacity:1;fill-rule:nonzero;stroke:none"
           d="m 0,0 c 0,-1.523 -1.234,-2.757 -2.757,-2.757 -1.523,0 -2.757,1.234 -2.757,2.757 0,1.523 1.234,2.757 2.757,2.757 C -1.234,2.757 0,1.523 0,0" />
      </g>
      <path
         inkscape:export-ydpi="88.48484"
         inkscape:export-xdpi="88.48484"
         inkscape:export-filename="C:\Users\Aleksey\Desktop\path240791.png"
         sodipodi:nodetypes="ccsssc"
         inkscape:connector-curvature="0"
         id="path13119"
         style="fill:none;stroke:#58595b;stroke-width:2.11666656;stroke-linecap:butt;stroke-linejoin:miter;stroke-miterlimit:10;stroke-dasharray:none;stroke-opacity:1"
         d="m -499.41716,-122.54975 -3.37621,-0.0149 h -22.68854 c -3.36938,0 -6.10059,2.73121 -6.10059,6.10094 v 10.56923 c 0,3.36937 2.73121,6.100581 6.10059,6.100581" />
      <text
         transform="rotate(90)"
         y="507.90546"
         x="-101.59946"
         id="text526"
         style="font-variant:normal;font-weight:500;font-stretch:normal;font-size:1.12130415px;font-family:DINPro;-inkscape-font-specification:DINPro-Medium;writing-mode:lr-tb;fill:#ffffff;fill-opacity:1;fill-rule:nonzero;stroke:none;stroke-width:0.35277778">
        <tspan
           style="stroke-width:0.35277778"
           id="tspan524"
           sodipodi:role="line"
           y="507.90546"
           x="-101.59946 -101.00182 -100.69009 -100.09243 -99.494781 -98.897125 -98.585403">5.0×2.1</tspan>
      </text>
      <path
         inkscape:connector-curvature="0"
         id="path530"
         style="fill:#e6e7e8;fill-opacity:1;fill-rule:nonzero;stroke:none;stroke-width:0.35277775"
         d="m -499.37276,-101.34805 v 1.602317 h 6.11716 v -1.602317 z" />
      <path
         inkscape:connector-curvature="0"
         id="path534"
         style="fill:#d1d3d4;fill-opacity:1;fill-rule:nonzero;stroke:none;stroke-width:0.35277778"
         d="m -499.37276,-98.118275 v -1.627807 h 6.11716 v 1.627807 z" />
      <g
         transform="matrix(0,0.35277777,0.35277777,0,-512.74628,-101.1314)"
         id="g536">
        <path
           inkscape:connector-curvature="0"
           id="path538"
           style="fill:#e6e7e8;fill-opacity:1;fill-rule:nonzero;stroke:none"
           d="M 0,0 V 12.252 H -1.074 V 0.835 Z" />
      </g>
      <g
         transform="matrix(0,0.35277777,0.35277777,0,-512.45156,-100.76169)"
         id="g540">
        <path
           inkscape:connector-curvature="0"
           id="path542"
           style="fill:#d1d3d4;fill-opacity:1;fill-rule:nonzero;stroke:none"
           d="M 0,0 V 11.417 H -1.061 V -0.835 Z" />
      </g>
      <g
         transform="matrix(0,0.35277777,0.35277777,0,-512.74628,-98.351373)"
         id="g544">
        <path
           inkscape:connector-curvature="0"
           id="path546"
           style="fill:#e6e7e8;fill-opacity:1;fill-rule:nonzero;stroke:none"
           d="M 0,0 V 12.252 H -1.074 V 0.835 Z" />
      </g>
      <g
         transform="matrix(0,0.35277777,0.35277777,0,-512.45156,-97.981703)"
         id="g548">
        <path
           inkscape:connector-curvature="0"
           id="path550"
           style="fill:#d1d3d4;fill-opacity:1;fill-rule:nonzero;stroke:none"
           d="M 0,0 V 11.417 H -1.061 V -0.835 Z" />
      </g>
      <path
         inkscape:connector-curvature="0"
         id="path552"
         style="fill:#414042;fill-opacity:1;fill-rule:nonzero;stroke:none;stroke-width:0.35277778"
         d="m -500.66781,-101.53925 v 1.793168 h 1.29505 v -1.793168 z" />
      <path
         inkscape:connector-curvature="0"
         id="path554"
         style="fill:#58595b;fill-opacity:1;fill-rule:nonzero;stroke:none;stroke-width:0.35277778"
         d="m -503.72569,-102.07688 v 2.330798 h 3.05788 v -2.330798 z" />
      <g
         transform="matrix(0,0.35277777,0.35277777,0,-505.80872,-102.81606)"
         id="g556">
        <path
           inkscape:connector-curvature="0"
           id="path558"
           style="fill:#414042;fill-opacity:1;fill-rule:nonzero;stroke:none"
           d="M 0,0 0.806,-7.831 H 8.703 V 5.904 H 2.096 Z" />
      </g>
      <g
         transform="matrix(0,0.35277777,0.35277777,0,-505.80872,-96.675894)"
         id="g560">
        <path
           inkscape:connector-curvature="0"
           id="path562"
           style="fill:#414042;fill-opacity:1;fill-rule:nonzero;stroke:none"
           d="M 0,0 -0.806,-7.831 H -8.703 V 5.904 h 6.607 z" />
      </g>
      <g
         transform="matrix(0,0.35277777,0.35277777,0,-505.89907,-102.18737)"
         id="g564">
        <path
           inkscape:connector-curvature="0"
           id="path566"
           style="fill:#4d4d4f;fill-opacity:1;fill-rule:nonzero;stroke:none"
           d="M 0,0 V -7.575 H 6.92 V 6.161 H 4.767 Z" />
      </g>
      <g
         transform="matrix(0,0.35277777,0.35277777,0,-505.89907,-97.304584)"
         id="g568">
        <path
           inkscape:connector-curvature="0"
           id="path570"
           style="fill:#4d4d4f;fill-opacity:1;fill-rule:nonzero;stroke:none"
           d="M 0,0 V -7.575 H -6.921 V 6.161 h 2.154 z" />
      </g>
      <g
         transform="matrix(0,0.35277777,0.35277777,0,-503.4334,-100.74458)"
         id="g580">
        <path
           inkscape:connector-curvature="0"
           id="path582"
           style="fill:#414042;fill-opacity:1;fill-rule:nonzero;stroke:none"
           d="M 0,0 H 2.831 V 7.048 H 0 c -1.139,0 -2.062,-0.924 -2.062,-2.062 V 2.062 C -2.062,0.923 -1.139,0 0,0" />
      </g>
      <path
         inkscape:connector-curvature="0"
         id="path584"
         style="fill:#414042;fill-opacity:1;fill-rule:nonzero;stroke:none;stroke-width:0.35277778"
         d="m -500.66781,-97.952911 v -1.793171 h 1.29505 v 1.793171 z" />
      <path
         inkscape:connector-curvature="0"
         id="path586"
         style="fill:#58595b;fill-opacity:1;fill-rule:nonzero;stroke:none;stroke-width:0.35277778"
         d="m -503.72569,-97.415283 v -2.330799 h 3.05788 v 2.330799 z" />
      <g
         transform="matrix(0,0.35277777,0.35277777,0,-503.4334,-98.747404)"
         id="g588">
        <path
           inkscape:connector-curvature="0"
           id="path590"
           style="fill:#414042;fill-opacity:1;fill-rule:nonzero;stroke:none"
           d="M 0,0 H -2.831 V 7.048 H 0 c 1.139,0 2.062,-0.924 2.062,-2.062 V 2.062 C 2.062,0.923 1.139,0 0,0" />
      </g>
      <g
         transform="matrix(0,0.35277777,0.35277777,0,-504.21629,-99.745984)"
         id="g592">
        <path
           inkscape:connector-curvature="0"
           id="path594"
           style="fill:none;stroke:#292829;stroke-width:2.08800006;stroke-linecap:butt;stroke-linejoin:miter;stroke-miterlimit:10;stroke-dasharray:none;stroke-opacity:1"
           d="M 0,0 V -5.314" />
      </g>
      <g
         transform="matrix(0,0.35277777,0.35277777,0,-506.00088,-99.074712)"
         id="g596">
        <path
           inkscape:connector-curvature="0"
           id="path598"
           style="fill:#292829;fill-opacity:1;fill-rule:nonzero;stroke:none"
           d="m 0,0 h -3.806 l 1.903,-1.902 z" />
      </g>
      <g
         transform="matrix(0,0.35277777,0.35277777,0,-502.19674,-99.070093)"
         id="g600">
        <path
           inkscape:connector-curvature="0"
           id="path602"
           style="fill:none;stroke:#292829;stroke-width:0.41800001;stroke-linecap:butt;stroke-linejoin:miter;stroke-miterlimit:10;stroke-dasharray:none;stroke-opacity:1"
           d="m 0,0 c 0,-0.686 -0.556,-1.241 -1.241,-1.241 -0.685,0 -1.241,0.555 -1.241,1.241 0,0.685 0.556,1.241 1.241,1.241 C -0.556,1.241 0,0.685 0,0 Z" />
      </g>
      <g
         transform="matrix(0,0.35277777,0.35277777,0,-503.02309,-99.507952)"
         id="g604">
        <path
           inkscape:connector-curvature="0"
           id="path606"
           style="fill:none;stroke:#292829;stroke-width:0.41800001;stroke-linecap:butt;stroke-linejoin:miter;stroke-miterlimit:10;stroke-dasharray:none;stroke-opacity:1"
           d="m 0,0 c -1.294,0 -2.342,1.049 -2.342,2.342 0,1.294 1.048,2.343 2.342,2.343" />
      </g>
      <g
         transform="matrix(0,0.35277777,0.35277777,0,-502.19674,-101.19656)"
         id="g608">
        <path
           inkscape:connector-curvature="0"
           id="path610"
           style="fill:none;stroke:#292829;stroke-width:0.41800001;stroke-linecap:butt;stroke-linejoin:miter;stroke-miterlimit:10;stroke-dasharray:none;stroke-opacity:1"
           d="M 0,0 H 1.746" />
      </g>
      <g
         transform="matrix(0,0.35277777,0.35277777,0,-502.19674,-98.821424)"
         id="g612">
        <path
           inkscape:connector-curvature="0"
           id="path614"
           style="fill:none;stroke:#292829;stroke-width:0.41800001;stroke-linecap:butt;stroke-linejoin:miter;stroke-miterlimit:10;stroke-dasharray:none;stroke-opacity:1"
           d="M 0,0 H 1.746" />
      </g>
      <g
         transform="matrix(0,0.35277777,0.35277777,0,-502.50475,-98.513444)"
         id="g616">
        <path
           inkscape:connector-curvature="0"
           id="path618"
           style="fill:none;stroke:#292829;stroke-width:0.41800001;stroke-linecap:butt;stroke-linejoin:miter;stroke-miterlimit:10;stroke-dasharray:none;stroke-opacity:1"
           d="M 0,0 V 1.746" />
      </g>
      <path
         inkscape:connector-curvature="0"
         id="path620"
         style="fill:#58595b;fill-opacity:1;fill-rule:nonzero;stroke:none;stroke-width:0.35277778"
         d="m -510.18187,-101.84087 v 2.094788 h 4.85986 v -2.094788 z" />
      <g
         transform="matrix(0,0.35277777,0.35277777,0,-510.18176,-103.7372)"
         id="g622">
        <path
           inkscape:connector-curvature="0"
           id="path624"
           style="fill:#414042;fill-opacity:1;fill-rule:nonzero;stroke:none"
           d="M 0,0 H 11.314 V -1.845 H 2.796 Z" />
      </g>
      <path
         inkscape:connector-curvature="0"
         id="path626"
         style="fill:#6d6e71;fill-opacity:1;fill-rule:nonzero;stroke:none;stroke-width:0.35277778"
         d="m -510.18187,-101.84087 v -1.89654 h 4.85986 v 1.89654 z" />
      <g
         transform="matrix(0,0.35277777,0.35277777,0,-517.3126,-99.745984)"
         id="g628">
        <path
           inkscape:connector-curvature="0"
           id="path630"
           style="fill:#4d4d4f;fill-opacity:1;fill-rule:nonzero;stroke:none"
           d="M 0,0 H -6.755 L -8.517,18.368 H 0 Z" />
      </g>
      <g
         transform="matrix(0,0.35277777,0.35277777,0,-525.91395,-99.745984)"
         id="g632">
        <path
           inkscape:connector-curvature="0"
           id="path634"
           style="fill:#414042;fill-opacity:1;fill-rule:nonzero;stroke:none"
           d="M 0,0 H -3.869 L -6.178,24.382 H 0 Z" />
      </g>
      <path
         inkscape:connector-curvature="0"
         id="path636"
         style="fill:#58595b;fill-opacity:1;fill-rule:nonzero;stroke:none;stroke-width:0.35277778"
         d="m -510.18187,-97.651291 v -2.094791 h 4.85986 v 2.094791 z" />
      <g
         transform="matrix(0,0.35277777,0.35277777,0,-510.18176,-95.754752)"
         id="g638">
        <path
           inkscape:connector-curvature="0"
           id="path640"
           style="fill:#414042;fill-opacity:1;fill-rule:nonzero;stroke:none"
           d="m 0,0 h -11.314 v -1.845 h 8.518 z" />
      </g>
      <path
         inkscape:connector-curvature="0"
         id="path642"
         style="fill:#4d4d4f;fill-opacity:1;fill-rule:nonzero;stroke:none;stroke-width:0.35277778"
         d="m -510.18187,-97.651291 v 1.896539 h 4.85986 v -1.896539 z" />
      <g
         transform="matrix(0,0.35277777,0.35277777,0,-517.3126,-99.745984)"
         id="g644">
        <path
           inkscape:connector-curvature="0"
           id="path646"
           style="fill:#4d4d4f;fill-opacity:1;fill-rule:nonzero;stroke:none"
           d="M 0,0 H 6.755 L 8.517,18.368 H 0 Z" />
      </g>
      <g
         transform="matrix(0,0.35277777,0.35277777,0,-525.91395,-99.745984)"
         id="g648">
        <path
           inkscape:connector-curvature="0"
           id="path650"
           style="fill:#414042;fill-opacity:1;fill-rule:nonzero;stroke:none"
           d="M 0,0 H 3.869 L 6.178,24.382 H 0 Z" />
      </g>
      <g
         transform="matrix(0,0.35277777,0.35277777,0,-508.95984,-99.745984)"
         id="g652">
        <path
           inkscape:connector-curvature="0"
           id="path654"
           style="fill:none;stroke:#292829;stroke-width:2.87899995;stroke-linecap:butt;stroke-linejoin:miter;stroke-miterlimit:10;stroke-dasharray:none;stroke-opacity:1"
           d="M 0,0 V 5.314" />
      </g>
      <g
         transform="matrix(0,0.35277777,0.35277777,0,-507.20929,-100.67138)"
         id="g656">
        <path
           inkscape:connector-curvature="0"
           id="path658"
           style="fill:#292829;fill-opacity:1;fill-rule:nonzero;stroke:none"
           d="M 0,0 H 5.246 L 2.623,2.623 Z" />
      </g>
    </g>
  </g>
</svg>
