<?xml version="1.0" encoding="UTF-8"?>
<!DOCTYPE svg PUBLIC "-//W3C//DTD SVG 1.1//EN" "http://www.w3.org/Graphics/SVG/1.1/DTD/svg11.dtd">
<!-- Creator: CorelDRAW X6 -->
<svg xmlns="http://www.w3.org/2000/svg" xml:space="preserve" width="54.8262mm" height="34.9962mm" version="1.1" style="shape-rendering:geometricPrecision; text-rendering:geometricPrecision; image-rendering:optimizeQuality; fill-rule:evenodd; clip-rule:evenodd"
viewBox="0 0 2398 1531"
 xmlns:xlink="http://www.w3.org/1999/xlink">
 <defs>
  <style type="text/css">
   <![CDATA[
    .str0 {stroke:black;stroke-width:3.33319}
    .fil1 {fill:none}
    .fil0 {fill:#D9DADA}
   ]]>
  </style>
 </defs>
 <g id="Слой_x0020_1">
  <metadata id="CorelCorpID_0Corel-Layer"/>
  <polygon class="fil0 str0" points="1522,309 1522,650 708,650 538,479 367,650 13,650 13,309 "/>
  <polygon class="fil0 str0" points="367,892 367,650 538,479 708,650 708,892 "/>
  <path class="fil0 str0" d="M18 892l1039 0c9,0 16,7 16,16l0 405c0,9 -7,16 -16,16l-1039 0c-9,0 -16,-7 -16,-16l0 -405c0,-4 2,-8 5,-11 3,-3 7,-5 11,-5z"/>
  <polygon class="fil0 str0" points="367,1398 708,1398 756,1398 975,1398 975,1442 708,1442 708,1529 538,1529 367,1529 367,1442 100,1442 100,1398 "/>
  <rect class="fil0 str0" x="367" y="1330" width="341" height="68"/>
  <rect class="fil0 str0" x="1522" y="114" width="219" height="731"/>
  <rect class="fil0 str0" x="1934" y="68" width="175" height="827"/>
  <rect class="fil0 str0" x="2109" y="239" width="287" height="481"/>
  <rect class="fil0 str0" x="1781" y="75" width="87" height="809"/>
  <rect class="fil0 str0" x="1740" y="239" width="41" height="481"/>
  <rect class="fil0 str0" x="1869" y="239" width="44" height="481"/>
  <rect class="fil0 str0" x="1912" y="2" width="22" height="955"/>
  <line class="fil1 str0" x1="1522" y1="479" x2="1740" y2= "479" />
  <line class="fil1 str0" x1="2109" y1="479" x2="1934" y2= "479" />
  <line class="fil1 str0" x1="367" y1="1442" x2="708" y2= "1442" />
 </g>
</svg>
