<?xml version="1.0" encoding="UTF-8" standalone="no"?>
<!-- Created with Inkscape (http://www.inkscape.org/) -->

<svg
   xmlns:dc="http://purl.org/dc/elements/1.1/"
   xmlns:cc="http://creativecommons.org/ns#"
   xmlns:rdf="http://www.w3.org/1999/02/22-rdf-syntax-ns#"
   xmlns:svg="http://www.w3.org/2000/svg"
   xmlns="http://www.w3.org/2000/svg"
   xmlns:sodipodi="http://sodipodi.sourceforge.net/DTD/sodipodi-0.dtd"
   xmlns:inkscape="http://www.inkscape.org/namespaces/inkscape"
   width="69.761673mm"
   height="34.718834mm"
   viewBox="0 0 69.761673 34.718834"
   version="1.1"
   id="svg12520"
   inkscape:version="0.92.1 r15371"
   sodipodi:docname="water-level-sensor-angle.svg">
  <defs
     id="defs12514" />
  <sodipodi:namedview
     id="base"
     pagecolor="#ffffff"
     bordercolor="#666666"
     borderopacity="1.0"
     inkscape:pageopacity="0.0"
     inkscape:pageshadow="2"
     inkscape:zoom="1.4"
     inkscape:cx="40.514997"
     inkscape:cy="16.351931"
     inkscape:document-units="mm"
     inkscape:current-layer="layer1"
     showgrid="false"
     fit-margin-top="0"
     fit-margin-left="0"
     fit-margin-right="0"
     fit-margin-bottom="0"
     inkscape:window-width="1920"
     inkscape:window-height="1017"
     inkscape:window-x="-8"
     inkscape:window-y="-8"
     inkscape:window-maximized="1" />
  <metadata
     id="metadata12517">
    <rdf:RDF>
      <cc:Work
         rdf:about="">
        <dc:format>image/svg+xml</dc:format>
        <dc:type
           rdf:resource="http://purl.org/dc/dcmitype/StillImage" />
        <dc:title></dc:title>
      </cc:Work>
    </rdf:RDF>
  </metadata>
  <g
     inkscape:label="Layer 1"
     inkscape:groupmode="layer"
     id="layer1"
     transform="translate(-61.88107,-100.47987)">
    <g
       id="g13222">
      <g
         transform="matrix(0.35277777,0,0,-0.35277777,71.89464,110.78475)"
         id="g6789">
        <path
           inkscape:connector-curvature="0"
           id="path6791"
           style="fill:none;stroke:#ffcf01;stroke-width:3;stroke-linecap:round;stroke-linejoin:round;stroke-miterlimit:10;stroke-dasharray:none;stroke-opacity:1"
           d="M 0,0 H 12.925" />
      </g>
      <g
         transform="matrix(0.35277777,0,0,-0.35277777,76.45432,112.20136)"
         id="g6793">
        <path
           inkscape:connector-curvature="0"
           id="path6795"
           style="fill:none;stroke:#ffcf01;stroke-width:3;stroke-linecap:round;stroke-linejoin:round;stroke-miterlimit:10;stroke-dasharray:none;stroke-opacity:1"
           d="M 0,0 H -12.925" />
      </g>
      <g
         transform="matrix(0.35277777,0,0,-0.35277777,76.45432,112.20136)"
         id="g6797">
        <path
           inkscape:connector-curvature="0"
           id="path6799"
           style="fill:none;stroke:#ffcf01;stroke-width:3;stroke-linecap:round;stroke-linejoin:round;stroke-miterlimit:10;stroke-dasharray:none;stroke-opacity:1"
           d="M 0,0 C 2.309,0 4.18,-1.871 4.18,-4.18" />
      </g>
      <g
         transform="matrix(0.35277777,0,0,-0.35277777,77.92879,109.31091)"
         id="g6801">
        <path
           inkscape:connector-curvature="0"
           id="path6803"
           style="fill:none;stroke:#ffcf01;stroke-width:3;stroke-linecap:round;stroke-linejoin:round;stroke-miterlimit:10;stroke-dasharray:none;stroke-opacity:1"
           d="M 0,0 C 0,-2.309 -1.871,-4.18 -4.18,-4.18" />
      </g>
      <path
         inkscape:connector-curvature="0"
         id="path6805"
         style="fill:#dcddde;fill-opacity:1;fill-rule:nonzero;stroke:none;stroke-width:0.35277778"
         d="m 131.6427,129.89786 h -24.03828 v -9.08403 h 24.03828 z" />
      <path
         inkscape:connector-curvature="0"
         id="path6807"
         style="fill:#e0e1e2;fill-opacity:1;fill-rule:nonzero;stroke:none;stroke-width:0.35277778"
         d="m 108.11383,129.89822 h -0.50905 v -9.08404 h 0.50905 z" />
      <path
         inkscape:connector-curvature="0"
         id="path6809"
         style="fill:#d1d3d4;fill-opacity:1;fill-rule:nonzero;stroke:none;stroke-width:0.35277778"
         d="m 108.81904,129.89822 h 3.96875 v -9.08404 h -3.96875 z" />
      <path
         inkscape:connector-curvature="0"
         id="path6811"
         style="fill:#e0e1e2;fill-opacity:1;fill-rule:nonzero;stroke:none;stroke-width:0.35277778"
         d="m 131.6427,129.89822 h -4.06294 v -9.08404 h 4.06294 z" />
      <g
         transform="matrix(0.35277777,0,0,-0.35277777,131.39579,107.36609)"
         id="g6813">
        <path
           inkscape:connector-curvature="0"
           id="path6815"
           style="fill:#e6e7e8;fill-opacity:1;fill-rule:nonzero;stroke:none"
           d="m 0,0 v -21.69 h -22.52 l -10.85,10.85 -10.84,-10.85 H -95.94 V -10.84 0 Z" />
      </g>
      <path
         inkscape:connector-curvature="0"
         id="path6817"
         style="fill:#e2e3e4;fill-opacity:1;fill-rule:nonzero;stroke:none;stroke-width:0.35277778"
         d="m 97.55026,114.69454 h 33.8455 v -2.74108 h -33.8455 z" />
      <path
         inkscape:connector-curvature="0"
         id="path6819"
         style="fill:#ededee;fill-opacity:1;fill-rule:nonzero;stroke:none;stroke-width:0.35277778"
         d="m 97.55026,108.36677 h 33.8455 v -0.58808 h -33.8455 z" />
      <g
         transform="matrix(0.35277777,0,0,-0.35277777,123.45124,132.77313)"
         id="g6821">
        <path
           inkscape:connector-curvature="0"
           id="path6823"
           style="fill:#dcddde;fill-opacity:1;fill-rule:nonzero;stroke:none"
           d="M 0,0 V -5.56 H -10.85 -21.69 V 0 Z" />
      </g>
      <path
         inkscape:connector-curvature="0"
         id="path6825"
         style="fill:#dcddde;fill-opacity:1;fill-rule:nonzero;stroke:none;stroke-width:0.35277778"
         d="m 123.4512,131.79263 h -7.65175 v -1.53105 h 7.65175 z" />
      <g
         transform="matrix(0.35277777,0,0,-0.35277777,123.45124,115.01784)"
         id="g6827">
        <path
           inkscape:connector-curvature="0"
           id="path6829"
           style="fill:#e0e1e2;fill-opacity:1;fill-rule:nonzero;stroke:none"
           d="M 0,0 V -15.41 H -21.69 V 0 l 10.84,10.85 z" />
      </g>
      <g
         transform="matrix(0.35277777,0,0,-0.35277777,123.45124,131.79241)"
         id="g6831">
        <path
           inkscape:connector-curvature="0"
           id="path6833"
           style="fill:#c7c8ca;fill-opacity:1;fill-rule:nonzero;stroke:none"
           d="M 0,0 H 16.96 V -2.78 H 0 -21.69 -38.66 V 0 h 16.97 z" />
      </g>
      <g
         transform="matrix(0.35277777,0,0,-0.35277777,107.60446,129.89804)"
         id="g6835">
        <path
           inkscape:connector-curvature="0"
           id="path6837"
           style="fill:#c7c8ca;fill-opacity:1;fill-rule:nonzero;stroke:none"
           d="m 0,0 h 68.14 c 0,-0.57 -0.46,-1.03 -1.03,-1.03 H 44.92 23.23 1.03 C 0.47,-1.03 0,-0.57 0,0" />
      </g>
      <g
         transform="matrix(0.35277777,0,0,-0.35277777,131.27938,120.45413)"
         id="g6839">
        <path
           inkscape:connector-curvature="0"
           id="path6841"
           style="fill:#e6e7e8;fill-opacity:1;fill-rule:nonzero;stroke:none"
           d="m 0,0 c 0.57,0 1.03,-0.46 1.03,-1.02 h -68.14 c 0,0.56 0.47,1.02 1.03,1.02 h 22.2 21.69 z" />
      </g>
      <g
         transform="matrix(0.35277777,0,0,-0.35277777,97.55029,115.01784)"
         id="g6843">
        <path
           inkscape:connector-curvature="0"
           id="path6845"
           style="fill:#d1d3d4;fill-opacity:1;fill-rule:nonzero;stroke:none"
           d="m 0,0 v -12.37 h -13.9 v 7.92 15.3 H 0 Z" />
      </g>
      <g
         transform="matrix(0.35277777,0,0,-0.35277777,97.55029,107.36609)"
         id="g6847">
        <path
           inkscape:connector-curvature="0"
           id="path6849"
           style="fill:#dcddde;fill-opacity:1;fill-rule:nonzero;stroke:none"
           d="M 0,0 V -10.84 H -13.9 V 4.45 12.38 H 0 Z" />
      </g>
      <g
         transform="matrix(0.35277777,0,0,-0.35277777,92.64668,111.19019)"
         id="g6851">
        <path
           inkscape:connector-curvature="0"
           id="path6853"
           style="fill:#e6e7e8;fill-opacity:1;fill-rule:nonzero;stroke:none"
           d="M 0,0 V -15.3 H -2.59 V 15.29 H 0 Z" />
      </g>
      <g
         transform="matrix(0.35277777,0,0,-0.35277777,91.73299,116.5877)"
         id="g6855">
        <path
           inkscape:connector-curvature="0"
           id="path6857"
           style="fill:#dcddde;fill-opacity:1;fill-rule:nonzero;stroke:none"
           d="M 0,0 V -10.43 H -5.56 V 0 30.59 41.02 H 0 V 30.59 Z" />
      </g>
      <path
         inkscape:connector-curvature="0"
         id="path6859"
         style="fill:#e6e7e8;fill-opacity:1;fill-rule:nonzero;stroke:none;stroke-width:0.35277778"
         d="m 89.77151,116.5879 h -0.98072 v -10.79147 h 0.98072 z" />
      <g
         transform="matrix(0.35277777,0,0,-0.35277777,88.79082,116.5877)"
         id="g6861">
        <path
           inkscape:connector-curvature="0"
           id="path6863"
           style="fill:#c7c8ca;fill-opacity:1;fill-rule:nonzero;stroke:none"
           d="m 0,0 v -15.07 h -1.39 v 3.95 0.24 25.94 0.24 0.24 25.93 0.24 3.95 H 0 V 30.59 Z" />
      </g>
      <g
         transform="matrix(0.35277777,0,0,-0.35277777,88.30046,120.42591)"
         id="g6865">
        <path
           inkscape:connector-curvature="0"
           id="path6867"
           style="fill:#d1d3d4;fill-opacity:1;fill-rule:nonzero;stroke:none"
           d="m 0,0 v -0.24 h -11.13 v 11.12 15.3 H 0 v -0.24 z" />
      </g>
      <g
         transform="matrix(0.35277777,0,0,-0.35277777,88.30046,111.10553)"
         id="g6869">
        <path
           inkscape:connector-curvature="0"
           id="path6871"
           style="fill:#dcddde;fill-opacity:1;fill-rule:nonzero;stroke:none"
           d="M 0,0 V -0.24 H -11.13 V 15.05 26.17 H 0 v -0.24 z" />
      </g>
      <g
         transform="matrix(0.35277777,0,0,-0.35277777,84.37404,111.19019)"
         id="g6873">
        <path
           inkscape:connector-curvature="0"
           id="path6875"
           style="fill:#e6e7e8;fill-opacity:1;fill-rule:nonzero;stroke:none"
           d="m 0,0 v -15.3 h -18.27 v 7.56 3.15 3.61 16.27 H 0 Z" />
      </g>
      <path
         inkscape:connector-curvature="0"
         id="path6877"
         style="fill:#e2e3e4;fill-opacity:1;fill-rule:nonzero;stroke:none;stroke-width:0.35277778"
         d="m 77.95098,116.00406 h 6.42338 v -2.99862 h -6.42338 z" />
      <path
         inkscape:connector-curvature="0"
         id="path6879"
         style="fill:#ededee;fill-opacity:1;fill-rule:nonzero;stroke:none;stroke-width:0.35277778"
         d="m 77.95098,107.09466 h 6.42338 v -0.56268 h -6.42338 z" />
      <g
         transform="matrix(0.35277777,0,0,-0.35277777,74.16585,110.78542)"
         id="g6881">
        <path
           inkscape:connector-curvature="0"
           id="path6883"
           style="fill:none;stroke:#ffcf01;stroke-width:3;stroke-linecap:round;stroke-linejoin:round;stroke-miterlimit:10;stroke-dasharray:none;stroke-opacity:1"
           d="m 0,0 h -24.743 c -4.739,0 -8.58,-3.841 -8.58,-8.58 v -43.289 c 0,-4.738 3.839,-8.578 8.576,-8.58 l 56.695,-0.024 c 2.309,0 4.18,-1.871 4.18,-4.18" />
      </g>
      <g
         transform="matrix(0.35277777,0,0,-0.35277777,74.16585,112.20203)"
         id="g6885">
        <path
           inkscape:connector-curvature="0"
           id="path6887"
           style="fill:none;stroke:#ffcf01;stroke-width:3;stroke-linecap:round;stroke-linejoin:round;stroke-miterlimit:10;stroke-dasharray:none;stroke-opacity:1"
           d="m 0,0 h -24.194 c -2.716,0 -4.917,-2.201 -4.917,-4.917 v -42.61 c 0,-2.715 2.201,-4.917 4.917,-4.917 h 56.142 c 2.309,0 4.18,1.871 4.18,4.18" />
      </g>
      <path
         inkscape:connector-curvature="0"
         id="path6889"
         style="fill:#414042;fill-opacity:1;fill-rule:nonzero;stroke:none;stroke-width:0.35277778"
         d="m 98.56626,135.1987 h -11.7856 v -7.60483 h 11.7856 z" />
    </g>
  </g>
</svg>
