<svg id="_1.54inch-nfc-powered-e-paper-bw" data-name="1.54inch-nfc-powered-e-paper-bw" xmlns="http://www.w3.org/2000/svg" width="92.857mm" height="48.09mm" viewBox="0 0 263.217 136.319">
  <defs>
    <style>
      .cls-1 {
        fill: #ccc;
      }

      .cls-2, .cls-3 {
        fill: none;
        stroke: #b3b3b3;
      }

      .cls-10, .cls-2, .cls-3, .cls-6, .cls-7, .cls-8, .cls-9 {
        stroke-miterlimit: 10;
      }

      .cls-10, .cls-2, .cls-9 {
        stroke-width: 0.709px;
      }

      .cls-3, .cls-8 {
        stroke-width: 1.417px;
      }

      .cls-4, .cls-8 {
        fill: #f2f2f2;
      }

      .cls-10, .cls-12, .cls-5 {
        fill: #fff;
      }

      .cls-6 {
        fill: #e7e2e1;
        stroke: #999;
        stroke-width: 1.134px;
      }

      .cls-11, .cls-7, .cls-9 {
        fill: #1a1a1a;
      }

      .cls-10, .cls-7, .cls-8, .cls-9 {
        stroke: #000;
      }

      .cls-12 {
        font-size: 9px;
        font-family: TrebuchetMS-Bold, Trebuchet MS;
        font-weight: 700;
      }
    </style>
  </defs>
  <title>waveshare-display-e-ink-paper-1n54in-nfc</title>
  <g id="bottom">
    <path class="cls-1" d="M145.842,14.944v106.44a14.583,14.583,0,0,0,14.58,14.58h87.85a14.585,14.585,0,0,0,14.59-14.58V6.544a6.188,6.188,0,0,0-6.19-6.19h-96.25A14.585,14.585,0,0,0,145.842,14.944Zm108.09-9.56a3.585,3.585,0,1,1,1.05,2.55A3.624,3.624,0,0,1,253.932,5.384Z"/>
    <path class="cls-2" d="M145.842,14.944v106.44a14.583,14.583,0,0,0,14.58,14.58h87.85a14.585,14.585,0,0,0,14.59-14.58V6.544a6.188,6.188,0,0,0-6.19-6.19h-96.25A14.585,14.585,0,0,0,145.842,14.944Z"/>
    <path class="cls-3" d="M148.682,14.944v106.44a11.76,11.76,0,0,0,11.74,11.75h87.85a11.762,11.762,0,0,0,11.75-11.75V14.944a19.925,19.925,0,0,0-.43-5.53,2.614,2.614,0,0,1-.4.02,5.654,5.654,0,0,1-5.65-5.5,21.758,21.758,0,0,0-5.27-.74h-87.85A11.76,11.76,0,0,0,148.682,14.944Z"/>
    <path class="cls-4" d="M148.682,14.944v106.44a11.76,11.76,0,0,0,11.74,11.75h87.85a11.762,11.762,0,0,0,11.75-11.75V14.944a19.925,19.925,0,0,0-.43-5.53,2.614,2.614,0,0,1-.4.02,5.654,5.654,0,0,1-5.65-5.5,21.758,21.758,0,0,0-5.27-.74h-87.85A11.76,11.76,0,0,0,148.682,14.944Z"/>
    <rect class="cls-5" x="202.384" y="0.354" width="3.936" height="2.84" transform="translate(408.705 3.549) rotate(-180)"/>
  </g>
  <g id="top">
    <path class="cls-1" d="M102.794.354H6.544a6.188,6.188,0,0,0-6.19,6.19v114.84a14.585,14.585,0,0,0,14.59,14.58h87.85a14.583,14.583,0,0,0,14.58-14.58V14.944A14.585,14.585,0,0,0,102.794.354ZM8.234,7.934a3.621,3.621,0,1,1,1.05-2.55A3.624,3.624,0,0,1,8.234,7.934Z"/>
    <path class="cls-2" d="M102.794.354H6.544a6.188,6.188,0,0,0-6.19,6.19v114.84a14.585,14.585,0,0,0,14.59,14.58h87.85a14.583,14.583,0,0,0,14.58-14.58V14.944A14.585,14.585,0,0,0,102.794.354Z"/>
    <path class="cls-3" d="M114.534,14.944v106.44a11.76,11.76,0,0,1-11.74,11.75H14.944a11.762,11.762,0,0,1-11.75-11.75V14.944a19.925,19.925,0,0,1,.43-5.53,2.614,2.614,0,0,0,.4.02,5.654,5.654,0,0,0,5.65-5.5,21.758,21.758,0,0,1,5.27-.74h87.85A11.76,11.76,0,0,1,114.534,14.944Z"/>
    <path class="cls-4" d="M114.534,14.944v106.44a11.76,11.76,0,0,1-11.74,11.75H14.944a11.762,11.762,0,0,1-11.75-11.75V14.944a19.925,19.925,0,0,1,.43-5.53,2.614,2.614,0,0,0,.4.02,5.654,5.654,0,0,0,5.65-5.5,21.758,21.758,0,0,1,5.27-.74h87.85A11.76,11.76,0,0,1,114.534,14.944Z"/>
    <rect class="cls-6" x="19.732" y="19.26" width="78.236" height="78.236"/>
    <rect class="cls-5" x="56.896" y="0.354" width="3.936" height="2.84"/>
    <g id="панда">
      <g id="ушки">
        <path class="cls-7" d="M40.216,50.424H42.1a4.788,4.788,0,0,1,4.788,4.788v1.4A4.788,4.788,0,0,1,42.1,61.4H38.814a4.788,4.788,0,0,1-4.788-4.788v0a6.19,6.19,0,0,1,6.19-6.19Z" transform="translate(62.223 -9.578) rotate(54.273)"/>
        <path class="cls-7" d="M66.292,52.588H69a4.478,4.478,0,0,1,4.478,4.478v2.866A4.478,4.478,0,0,1,69,64.411H66.767a6.149,6.149,0,0,1-6.149-6.149v0a5.673,5.673,0,0,1,5.673-5.673Z" transform="translate(155.948 62.294) rotate(141.339)"/>
      </g>
      <g id="лапы">
        <path class="cls-7" d="M81.992,82.492H90.4a3.1,3.1,0,0,1,3.1,3.1v.36a3.1,3.1,0,0,1-3.1,3.1H81.835a0,0,0,0,1,0,0V82.649a.157.157,0,0,1,.157-.157Z"/>
        <path class="cls-7" d="M85.6,72.551l-5.9,5.213a3.2,3.2,0,0,1-4.644-.289l-1.174-1.451a3.554,3.554,0,0,1,.5-4.831L80.28,65.98a4.11,4.11,0,0,1,5.959.371h0A4.561,4.561,0,0,1,85.6,72.551Z"/>
      </g>
      <path class="cls-8" d="M86.239,80.461A13.087,13.087,0,0,1,83.2,88.828H68.653s-3.534-5.053-3.534-8.367A11.1,11.1,0,0,1,75.967,69.133C81.055,69.133,86.239,75.757,86.239,80.461Z"/>
      <g>
        <path class="cls-4" d="M73.523,74.585a14.847,14.847,0,0,1-4.38,10.52c-2.436,2.437-7.987,3.915-11.616,4.2-.392.031.008.031-.392.031-5.3,0-10.842-.336-12.862-1.186a33,33,0,0,1-8.77-2.94c-2.31-1.31-5.155-2.675-5.81-5.81-1.21-5.8,1.97-9.672,4.23-10.56v-2.18a14.966,14.966,0,0,1,11.91-14.61l7.42-2.96.87,2.6,4.564.4-.576.885,1.836.216-.27.1,2.034.442-.868.148,1.31.97-.03-.01A22.877,22.877,0,0,1,73.523,74.585Z"/>
        <path d="M74.184,74.585a23.515,23.515,0,0,1-.839,4.808,11.855,11.855,0,0,1-2.409,4.2c-.523.613-1.081,1.183-1.647,1.747a10.06,10.06,0,0,1-1.948,1.424,20.739,20.739,0,0,1-4.4,1.81,29.018,29.018,0,0,1-4.646.966l-.592.061-.279.032a1.272,1.272,0,0,1-.329.027l-1.178.008-2.358-.018c-1.572-.029-3.145-.091-4.72-.218a19.25,19.25,0,0,1-4.755-.83l.1.03a34.724,34.724,0,0,1-7.323-2.112c-.589-.25-1.174-.543-1.737-.85-.542-.3-1.1-.6-1.651-.924a11.293,11.293,0,0,1-3.086-2.466,6.2,6.2,0,0,1-1.029-1.792A7.1,7.1,0,0,1,29,78.508a12.43,12.43,0,0,1,.3-3.882A10.861,10.861,0,0,1,30.867,71.1a7.612,7.612,0,0,1,2.911-2.615h0l-.249.366a18.683,18.683,0,0,1,.383-5.709,15.106,15.106,0,0,1,2.422-5.224,15.687,15.687,0,0,1,9.433-6.171l-.054.016c2.466-1,4.972-1.909,7.39-3.034h0l.393-.157.135.4c.292.866.581,1.733.85,2.607l-.327-.258,4.559.456.529.053-.285.447-.569.89-.24-.512,1.838.2,1.459.16-1.382.512-.269.1-.044-.671,2.037.426,1.822.38-1.838.34-.866.161.162-.68,1.331.942,2.124,1.5-2.5-.776-.03-.009h0l.34-.753A23.506,23.506,0,0,1,73.358,68.523,20.382,20.382,0,0,1,74.184,74.585Zm-1.321,0a26.471,26.471,0,0,0-.74-5.73,22.145,22.145,0,0,0-2.157-5.373A22.606,22.606,0,0,0,61.914,55.2l-3.473-2.08,3.814,1.327h0l.029.01-.378.727-1.289-1-.7-.544.865-.135.87-.136-.016.721-2.03-.459-1.188-.268,1.143-.4.271-.1.077.673-1.834-.231-.534-.068.294-.444.583-.881.244.5-4.569-.345-.24-.019-.087-.239c-.311-.86-.6-1.726-.89-2.593l.529.245h0c-2.528.848-4.969,1.916-7.449,2.886l-.027.01-.027.006a14.6,14.6,0,0,0-8.968,5.961,14.411,14.411,0,0,0-2.17,5.006,28.941,28.941,0,0,0-.443,5.508l-.011.266-.239.1h0a4.6,4.6,0,0,0-1.492.9,6.414,6.414,0,0,0-1.2,1.34,8.1,8.1,0,0,0-1.357,3.331,10.2,10.2,0,0,0,.051,3.589A6.99,6.99,0,0,0,31.357,81.5a10.138,10.138,0,0,0,2.726,2.228c.522.318,1.065.62,1.613.935a18.172,18.172,0,0,0,1.623.825,35.658,35.658,0,0,0,7.038,2.2l.053.011.049.019a18.624,18.624,0,0,0,4.461.886c1.546.163,3.1.264,4.664.33l2.342.076,1.172.021c.094,0,.213.019.249-.007l.306-.026.576-.055a28.554,28.554,0,0,0,4.555-.915c2.931-.886,6-2.1,7.547-4.879a21.076,21.076,0,0,0,1.884-4.123A10.453,10.453,0,0,0,72.863,74.585Z"/>
      </g>
      <path id="нос" class="cls-9" d="M44.752,78.3a1.306,1.306,0,0,1-1.48-.244c-.595-.58-1.37-1.408-1.317-1.729h0a1.08,1.08,0,0,1,1.309-.749l2.291.378a1.081,1.081,0,0,1,1,1.13h0C46.5,77.411,45.5,77.945,44.752,78.3Z"/>
      <g id="глаза">
        <path class="cls-9" d="M60.676,78.98l-1.149.048c-3.922,0-8.136-3.257-8.136-7.179h0a4.829,4.829,0,0,1,4.828-4.828h3.113a6.652,6.652,0,0,1,6.651,6.652h0A5.322,5.322,0,0,1,60.676,78.98Z"/>
        <path class="cls-9" d="M33.823,75.805h0c-1.351-.464-3.07-2.278-3.216-3.36-.074-.55.779-1.536,1.584-2.544l.639-1.453a4.7,4.7,0,0,1,5.958-2.91h0A4.7,4.7,0,0,1,41.7,71.5l-.594,1.729C40.267,75.664,36.262,76.643,33.823,75.805Z"/>
        <rect class="cls-10" x="34.135" y="70.861" width="4.392" height="2.112" rx="1.056"/>
        <rect class="cls-10" x="55.135" y="71.861" width="4.392" height="2.112" rx="1.056"/>
      </g>
      <rect class="cls-9" x="27.871" y="82.897" width="22.176" height="5.93" rx="2.965"/>
      <path class="cls-9" d="M74.6,85.065v1.11a2.97,2.97,0,0,1-2.97,2.96H58.6a1.326,1.326,0,0,1-1.08.56h-2.83a1.329,1.329,0,0,1-1.33-1.33,14.412,14.412,0,0,1-.67-1.88v-.01a2.589,2.589,0,0,1-.17-.92,2.663,2.663,0,0,1,2.66-2.66h1.46a2.66,2.66,0,0,1,1.25.31h5.87c.84-.44,3.69-1.89,3.89-1.89h3.4A3.668,3.668,0,0,1,74.6,85.065Z"/>
      <path class="cls-11" d="M44.863,52.621,53.1,49.533,54.123,51.7l4.168.53-.756,1a3.193,3.193,0,0,0-1.872-.747,25.363,25.363,0,0,1-2.952-.324C51.589,51.757,44.863,52.621,44.863,52.621Z"/>
      <g>
        <path class="cls-9" d="M75.463,36.241c0,2.876-2.717,5.443-6.971,7.126-.786.312-1.021,4.034-3.325,5.222,0,0-.512-4.036-1.21-3.892a36.646,36.646,0,0,1-7.358.724c-10.418,0-18.864-4.11-18.864-9.18s8.446-9.18,18.864-9.18S75.463,31.171,75.463,36.241Z"/>
        <text class="cls-12" transform="translate(45.735 38.445)">Zzz. .</text>
      </g>
    </g>
  </g>
</svg>
