<svg id="wifi-slot-connector" xmlns="http://www.w3.org/2000/svg" width="14.5292mm" height="14.4908mm" viewBox="0 0 41.1853 41.0762">
  <defs>
    <style>
      .cls-1 {
        fill: #f2f2f2;
        stroke: #000;
        stroke-width: 0.1719px;
        opacity: 0.997;
        isolation: isolate;
      }

      .cls-1, .cls-2 {
        stroke-linecap: round;
      }

      .cls-2 {
        fill: none;
        stroke: #d0b532;
        stroke-miterlimit: 1;
        stroke-width: 0.5px;
      }
    </style>
  </defs>
  <title>wifi-slot-connector</title>
  <g id="wifi-slot-connector-2" data-name="wifi-slot-connector">
    <path id="rect7330" class="cls-1" d="M34.836.2437l-.0292.0015h.0323a6.4861,6.4861,0,0,1,6.39,6.6065V7.234c.017-.1879.0284-.3776.0284-.57a6.4056,6.4056,0,0,0-6.42-6.42Zm6.3926,6.99A6.42,6.42,0,1,1,34.8067.2452H6.7315a6.4212,6.4212,0,1,1-6.42,6.42,6.4069,6.4069,0,0,1,6.42-6.42H6.6451A6.4873,6.4873,0,0,0,.254,6.8517V34.524a6.4176,6.4176,0,1,1,6.4116,6.6211c-.18,0-.3582-.0113-.5347-.0255.17.0141.34.0283.5142.0283H34.839a6.23,6.23,0,0,0,3.9155-1.3872,6.4213,6.4213,0,1,1,2.1636-3.1845,6.8391,6.8391,0,0,0,.3106-2.0361ZM40.918,36.5748c-.0538.1729-.1119.3436-.1788.51C40.8049,36.9176,40.8659,36.7484,40.918,36.5748Zm-2.1635,3.1846c.0405-.0324.0833-.0621.123-.0953C38.8378,39.6976,38.795,39.7268,38.7545,39.7594Zm.123-.0953c.0573-.0482.11-.1009.1656-.1508C38.9872,39.5629,38.935,39.6165,38.8775,39.6641Zm.1656-.1508c.1085-.0969.2162-.1947.3178-.2988C39.26,39.3194,39.1509,39.4157,39.0431,39.5133Zm.3178-.2988A6.3956,6.3956,0,0,0,40.7261,37.12,6.6048,6.6048,0,0,1,39.3609,39.2145ZM20.6724,16.1784A4.5117,4.5117,0,1,1,16.1549,20.69,4.5049,4.5049,0,0,1,20.6724,16.1784ZM.254,34.5387c-.0015.0624-.01.1233-.01.1859a6.4054,6.4054,0,0,0,5.1094,6.2871A6.5413,6.5413,0,0,1,.254,34.5386Zm5.0991,6.4731c.1447.03.2928.0491.4409.0689C5.6464,41.0608,5.4973,41.0421,5.3531,41.0118Zm.4409.0689c.0691.0085.1368.0227.2066.0306C5.9307,41.1028,5.8633,41.0886,5.794,41.0807Z" transform="translate(-0.1578 -0.1577)"/>
    <path id="rect40479-4-85-5" class="cls-2" d="M6.6651,1.1485h0A5.5848,5.5848,0,0,1,12.25,6.7333h0a5.5848,5.5848,0,0,1-5.5848,5.5848h0A5.5848,5.5848,0,0,1,1.08,6.7333h0A5.5848,5.5848,0,0,1,6.6651,1.1485Z" transform="translate(-0.1578 -0.1577)"/>
    <path id="rect40479-4-85-6" class="cls-2" d="M6.598,29.2065h0a5.5848,5.5848,0,0,1,5.5848,5.5848h0A5.5848,5.5848,0,0,1,6.598,40.3761h0a5.5848,5.5848,0,0,1-5.5847-5.5848h0A5.5848,5.5848,0,0,1,6.598,29.2065Z" transform="translate(-0.1578 -0.1577)"/>
    <path id="rect7296" class="cls-2" d="M34.7686,1.1468h0a5.5848,5.5848,0,0,1,5.5848,5.5848h0a5.5848,5.5848,0,0,1-5.5848,5.5848h0a5.5848,5.5848,0,0,1-5.5848-5.5848h0A5.5848,5.5848,0,0,1,34.7686,1.1468Z" transform="translate(-0.1578 -0.1577)"/>
    <path id="rect40479-4-85-6-2" data-name="rect40479-4-85-6" class="cls-2" d="M34.7686,29.2065h0a5.5848,5.5848,0,0,1,5.5848,5.5848h0a5.5848,5.5848,0,0,1-5.5848,5.5848h0a5.5848,5.5848,0,0,1-5.5848-5.5848h0A5.5848,5.5848,0,0,1,34.7686,29.2065Z" transform="translate(-0.1578 -0.1577)"/>
  </g>
</svg>
