<svg id="wifi-slot-connector" xmlns="http://www.w3.org/2000/svg" width="14.6187mm" height="14.5801mm" viewBox="0 0 41.4387 41.3295">
  <defs>
    <style>
      .cls-1 {
        fill: #f2f2f2;
        stroke: #000;
        stroke-width: 0.4252px;
        opacity: 0.997;
        isolation: isolate;
      }

      .cls-1, .cls-2 {
        stroke-linecap: round;
      }

      .cls-2 {
        fill: none;
        stroke: #d0b532;
        stroke-miterlimit: 1;
        stroke-width: 0.9921px;
      }
    </style>
  </defs>
  <title>wifi-slot-connector</title>
  <g id="wifi-slot-connector-2">
    <path id="rect7330" class="cls-1" d="M34.8047.2323l-.0292.0015h.0323a6.4861,6.4861,0,0,1,6.39,6.58v.4084c.017-.1879.0284-.3776.0284-.57A6.4057,6.4057,0,0,0,34.835.2322h-.03Zm6.3926,6.99A6.42,6.42,0,1,1,34.7754.2338H6.7A6.4212,6.4212,0,1,1,.28,6.6562V6.6538A6.407,6.407,0,0,1,6.674.2338h-.06A6.4874,6.4874,0,0,0,.2223,6.8155V34.5126a6.4176,6.4176,0,1,1,6.4116,6.6211c-.18,0-.3582-.0113-.5347-.0255.17.0141.34.0283.5142.0283H34.8077a6.2292,6.2292,0,0,0,3.9155-1.3872,6.4213,6.4213,0,1,1,2.1633-3.1845,6.8411,6.8411,0,0,0,.3106-2.0361Zm-.3108,29.3411c-.0538.1729-.1119.3436-.1788.51C40.7736,36.9062,40.8346,36.737,40.8865,36.5634ZM38.723,39.748c.0405-.0324.0833-.0621.123-.0953-.0395.0335-.0823.0627-.1228.0953Zm.123-.0953c.0573-.0482.11-.1009.1656-.1508-.0557.05-.1079.1032-.1651.1508Zm.1656-.1508c.1085-.0969.2162-.1947.3178-.2988-.1007.1049-.21.2012-.3176.2988Zm.3178-.2988a6.3945,6.3945,0,0,0,1.3652-2.0945,6.6044,6.6044,0,0,1-1.365,2.0945ZM20.6411,16.167a4.5079,4.5079,0,1,1-.0193,0ZM.2227,34.5273c-.0015.0624-.01.1233-.01.1859A6.4052,6.4052,0,0,0,5.3221,41,6.5411,6.5411,0,0,1,.2227,34.5272ZM5.3218,41c.1447.03.2928.0491.4409.0689C5.6151,41.0494,5.4665,41.0307,5.3218,41Zm.4409.0689c.0691.0085.1368.0227.2066.0306C5.8994,41.0914,5.832,41.0772,5.7627,41.0693Z" transform="translate(-0.0001 -0.0196)"/>
    <path id="rect40479-4-85-5" class="cls-2" d="M7.0433.5419h0a6.3123,6.3123,0,0,1,6.3124,6.3118h0A6.3123,6.3123,0,0,1,7.0434,13.166h0A6.3122,6.3122,0,0,1,.7307,6.8546h0A6.3122,6.3122,0,0,1,7.0424.5419h.0009Z" transform="translate(-0.0001 -0.0196)"/>
    <path id="rect40479-4-85-5-2" class="cls-2" d="M34.4183.7294h0a6.3123,6.3123,0,0,1,6.3124,6.3118h0a6.3123,6.3123,0,0,1-6.3123,6.3123h0A6.3121,6.3121,0,0,1,28.1057,7.042v0h0A6.3122,6.3122,0,0,1,34.4178.7294h.0005Z" transform="translate(-0.0001 -0.0196)"/>
    <path id="rect40479-4-85-5-3" class="cls-2" d="M6.9808,28.0627h0a6.3123,6.3123,0,0,1,6.3124,6.3122h0a6.3123,6.3123,0,0,1-6.3123,6.3123h0A6.3121,6.3121,0,0,1,.6682,34.3757v0h0A6.3123,6.3123,0,0,1,6.98,28.0631Z" transform="translate(-0.0001 -0.0196)"/>
    <path id="rect40479-4-85-5-4" class="cls-2" d="M34.3515,28.0365h0a6.3124,6.3124,0,0,1,6.3124,6.3121h0a6.3123,6.3123,0,0,1-6.3122,6.3124h0A6.3121,6.3121,0,0,1,28.0388,34.35v-.0008h0a6.3122,6.3122,0,0,1,6.3122-6.3122Z" transform="translate(-0.0001 -0.0196)"/>
  </g>
</svg>
