<?xml version="1.0" encoding="UTF-8" standalone="no"?>
<!-- Created with Inkscape (http://www.inkscape.org/) -->

<svg
   xmlns:dc="http://purl.org/dc/elements/1.1/"
   xmlns:cc="http://creativecommons.org/ns#"
   xmlns:rdf="http://www.w3.org/1999/02/22-rdf-syntax-ns#"
   xmlns:svg="http://www.w3.org/2000/svg"
   xmlns="http://www.w3.org/2000/svg"
   xmlns:sodipodi="http://sodipodi.sourceforge.net/DTD/sodipodi-0.dtd"
   xmlns:inkscape="http://www.inkscape.org/namespaces/inkscape"
   width="14.640318mm"
   height="14.601542mm"
   viewBox="0 0 14.640318 14.601542"
   version="1.1"
   id="svg7403"
   inkscape:version="0.92.1 r15371"
   sodipodi:docname="slot-jamper.svg">
  <defs
     id="defs7397" />
  <sodipodi:namedview
     id="base"
     pagecolor="#ffffff"
     bordercolor="#666666"
     borderopacity="1.0"
     inkscape:pageopacity="0.0"
     inkscape:pageshadow="2"
     inkscape:zoom="1.1894531"
     inkscape:cx="-109.9753"
     inkscape:cy="-82.462372"
     inkscape:document-units="mm"
     inkscape:current-layer="layer1"
     showgrid="false"
     fit-margin-top="0"
     fit-margin-left="0"
     fit-margin-right="0"
     fit-margin-bottom="0"
     inkscape:window-width="1920"
     inkscape:window-height="1017"
     inkscape:window-x="-8"
     inkscape:window-y="-8"
     inkscape:window-maximized="1" />
  <metadata
     id="metadata7400">
    <rdf:RDF>
      <cc:Work
         rdf:about="">
        <dc:format>image/svg+xml</dc:format>
        <dc:type
           rdf:resource="http://purl.org/dc/dcmitype/StillImage" />
        <dc:title></dc:title>
      </cc:Work>
    </rdf:RDF>
  </metadata>
  <g
     inkscape:label="Layer 1"
     inkscape:groupmode="layer"
     id="layer1"
     transform="translate(-96.114984,-112.41362)">
    <g
       id="g7381"
       transform="translate(592.8735,243.57217)">
      <path
         id="rect7330"
         transform="matrix(0.26458333,0,0,0.26458333,-553.78326,-148.64773)"
         d="m 261.97461,66.425781 c -0.0132,0 -0.0259,0.0019 -0.0391,0.002 h 0.043 c 4.72044,0 8.51953,3.928241 8.51953,8.808594 v 0.509766 c 0.0218,-0.250412 0.0371,-0.5035 0.0371,-0.759766 0,-4.743243 -3.81731,-8.560547 -8.56055,-8.560547 z m 8.52344,9.320313 c -0.38234,4.384467 -4.03646,7.802734 -8.52344,7.802734 -4.74324,0 -8.5625,-3.819257 -8.5625,-8.5625 0,-4.730066 3.79852,-8.537459 8.52344,-8.558594 h -37.4336 c 4.74325,0 8.5625,3.817305 8.5625,8.560547 0,4.743243 -3.81925,8.5625 -8.5625,8.5625 -4.74324,0 -8.56054,-3.819257 -8.56054,-8.5625 0,-4.743242 3.8173,-8.560547 8.56054,-8.560547 h -0.11523 c -4.72044,0 -8.52149,3.928241 -8.52149,8.808594 v 36.896482 c 0.14153,-4.61744 3.89584,-8.29492 8.54883,-8.29492 4.74325,0 8.56055,3.81926 8.56055,8.5625 0,4.74324 -3.8173,8.56055 -8.56055,8.56055 -0.24046,0 -0.47756,-0.0159 -0.71289,-0.0352 0.2269,0.0186 0.45388,0.0371 0.68555,0.0371 h 37.5918 c 1.97297,0 3.77979,-0.69404 5.2207,-1.84961 -1.45867,1.15419 -3.30159,1.8457 -5.31445,1.8457 -4.74325,0 -8.5625,-3.8173 -8.5625,-8.56054 0,-4.74325 3.81925,-8.5625 8.5625,-8.5625 4.74324,0 8.5625,3.81925 8.5625,8.5625 0,0.85974 -0.12961,1.68699 -0.36329,2.46875 0.26605,-0.85511 0.41407,-1.76601 0.41407,-2.71485 z m -0.41407,39.121096 c -0.0717,0.23042 -0.14922,0.45809 -0.23828,0.67969 0.0877,-0.22268 0.16909,-0.44822 0.23828,-0.67969 z m -2.88476,4.24609 c 0.0542,-0.0429 0.11096,-0.0828 0.16406,-0.12695 -0.0529,0.0446 -0.11012,0.0837 -0.16406,0.12695 z m 0.16406,-0.12695 c 0.0762,-0.0642 0.14677,-0.13435 0.2207,-0.20117 -0.0743,0.0662 -0.14414,0.13752 -0.2207,0.20117 z m 0.2207,-0.20117 c 0.14479,-0.12918 0.28819,-0.25978 0.42383,-0.39844 -0.13505,0.13969 -0.27993,0.26839 -0.42383,0.39844 z m 0.42383,-0.39844 c 0.778,-0.79529 1.39894,-1.74146 1.82031,-2.79297 -0.42982,1.05247 -1.05181,1.99811 -1.82031,2.79297 z M 243.08984,87.671875 c 3.33691,0 6.02344,2.683253 6.02344,6.015625 0,3.332409 -2.68653,6.015625 -6.02344,6.015625 -3.3369,0 -6.02343,-2.683216 -6.02343,-6.015625 0,-3.332372 2.68653,-6.015625 6.02343,-6.015625 z m -27.22461,24.480465 c -0.002,0.0831 -0.0137,0.16437 -0.0137,0.24805 0,4.14322 2.91408,7.57938 6.8125,8.38281 -3.88984,-0.81898 -6.79883,-4.36051 -6.79883,-8.63086 z m 6.79883,8.63086 c 0.19286,0.0398 0.39044,0.0652 0.58789,0.0918 -0.1968,-0.0269 -0.39564,-0.0513 -0.58789,-0.0918 z m 0.58789,0.0918 c 0.0921,0.0126 0.18241,0.0315 0.27539,0.041 -0.0932,-0.01 -0.18307,-0.0286 -0.27539,-0.041 z"
         style="opacity:0.997;fill:#f2f2f2;fill-opacity:1;fill-rule:nonzero;stroke:#000000;stroke-width:0.64987499;stroke-linecap:round;stroke-miterlimit:4;stroke-dasharray:none;stroke-opacity:1"
         inkscape:connector-curvature="0" />
      <rect
         ry="1.97019"
         rx="1.97019"
         y="-130.75339"
         x="-496.37741"
         height="3.9403801"
         width="3.9403801"
         id="rect40479-4-85-5"
         style="opacity:1;fill:none;fill-opacity:1;stroke:#d0b532;stroke-width:0.5;stroke-linecap:round;stroke-miterlimit:0;stroke-dasharray:none;stroke-opacity:1" />
      <rect
         ry="1.97019"
         rx="1.97019"
         y="-120.85514"
         x="-496.40106"
         height="3.9403801"
         width="3.9403801"
         id="rect40479-4-85-6"
         style="opacity:1;fill:none;fill-opacity:1;stroke:#d0b532;stroke-width:0.5;stroke-linecap:round;stroke-miterlimit:0;stroke-dasharray:none;stroke-opacity:1" />
      <rect
         style="opacity:1;fill:none;fill-opacity:1;stroke:#d0b532;stroke-width:0.5;stroke-linecap:round;stroke-miterlimit:0;stroke-dasharray:none;stroke-opacity:1"
         id="rect7296"
         width="3.9403801"
         height="3.9403801"
         x="-486.4631"
         y="-130.754"
         rx="1.97019"
         ry="1.97019" />
      <rect
         style="opacity:1;fill:none;fill-opacity:1;stroke:#d0b532;stroke-width:0.5;stroke-linecap:round;stroke-miterlimit:0;stroke-dasharray:none;stroke-opacity:1"
         id="rect7302"
         width="3.9403801"
         height="3.9403801"
         x="-486.48672"
         y="-120.85575"
         rx="1.97019"
         ry="1.97019" />
    </g>
  </g>
</svg>
