<svg id="wifi-slot-connector" xmlns="http://www.w3.org/2000/svg" width="14.6482mm" height="14.587mm" viewBox="0 0 41.5224 41.3491">
  <defs>
    <style>
      .cls-1 {
        fill: #f2f2f2;
        stroke: #000;
        stroke-width: 0.4252px;
        opacity: 0.997;
        isolation: isolate;
      }

      .cls-1, .cls-2 {
        stroke-linecap: round;
      }

      .cls-2 {
        fill: none;
        stroke: #d0b532;
        stroke-miterlimit: 1;
        stroke-width: 0.7087px;
      }
    </style>
  </defs>
  <title>wifi-slot-connector</title>
  <g id="wifi-slot-connector-2">
    <path id="rect7330" class="cls-1" d="M34.6782.0861,34.649.0876h.0323a6.4861,6.4861,0,0,1,6.39,6.58l0,.0261v.3823c.017-.1879.0284-.3776.0284-.57a6.4056,6.4056,0,0,0-6.3912-6.42H34.68Zm6.3926,6.99A6.42,6.42,0,1,1,34.6489.0876H6.5737A6.4212,6.4212,0,1,1,.1537,6.51V6.5076A6.407,6.407,0,0,1,6.5475.0876h-.06A6.4874,6.4874,0,0,0,.0958,6.6693l0,.0248V34.3664a6.4176,6.4176,0,1,1,6.4116,6.6211c-.18,0-.3582-.0113-.5347-.0255.17.0141.34.0283.5142.0283H34.6812a6.2292,6.2292,0,0,0,3.9155-1.3872A6.4213,6.4213,0,1,1,40.76,36.4186a6.8411,6.8411,0,0,0,.3106-2.0361ZM40.76,36.4172c-.0538.1729-.1119.3436-.1788.51C40.6471,36.76,40.7081,36.5908,40.76,36.4172Zm-2.1635,3.1846c.0405-.0324.0833-.0621.123-.0953C38.68,39.54,38.6372,39.5692,38.5967,39.6018Zm.123-.0953c.0573-.0482.11-.1009.1656-.1508C38.8294,39.4053,38.7772,39.4589,38.72,39.5065Zm.1656-.1508c.1085-.0969.2162-.1947.3178-.2988C39.1022,39.1618,38.9931,39.2581,38.8853,39.3557Zm.3178-.2988a6.3945,6.3945,0,0,0,1.3652-2.0945A6.6038,6.6038,0,0,1,39.2031,39.0569ZM20.5146,16.0208a4.5079,4.5079,0,1,1-.0193,0ZM.0962,34.3811c-.0015.0624-.01.1233-.01.1859a6.4053,6.4053,0,0,0,5.1094,6.2871A6.5412,6.5412,0,0,1,.0962,34.381Zm5.0991,6.4731c.1447.03.2928.0491.4409.0689C5.4886,40.9032,5.34,40.8845,5.1953,40.8542Zm.4409.0689c.0691.0085.1368.0227.2066.0306C5.7729,40.9452,5.7055,40.931,5.6362,40.9231Z" transform="translate(0.1264 0.1462)"/>
    <path id="rect40479-4-85-5" class="cls-2" d="M6.6043.2082h0A6.3122,6.3122,0,0,1,12.9167,6.52h0a6.3123,6.3123,0,0,1-6.3123,6.3123h0A6.3121,6.3121,0,0,1,.2917,6.5209v0h0A6.3122,6.3122,0,0,1,6.6039.2082Z" transform="translate(0.1264 0.1462)"/>
    <path id="rect40479-4-85-5-2" data-name="rect40479-4-85-5" class="cls-2" d="M34.7293.2082h0A6.3122,6.3122,0,0,1,41.0417,6.52h0a6.3123,6.3123,0,0,1-6.3123,6.3123h0a6.3121,6.3121,0,0,1-6.3127-6.3118v0h0A6.3122,6.3122,0,0,1,34.7289.2082Z" transform="translate(0.1264 0.1462)"/>
    <path id="rect40479-4-85-5-3" data-name="rect40479-4-85-5" class="cls-2" d="M6.6043,28.1665h0a6.3123,6.3123,0,0,1,6.3124,6.3122h0A6.3123,6.3123,0,0,1,6.6044,40.791h0A6.3121,6.3121,0,0,1,.2917,34.4792v0h0a6.3123,6.3123,0,0,1,6.3122-6.3123Z" transform="translate(0.1264 0.1462)"/>
    <path id="rect40479-4-85-5-4" data-name="rect40479-4-85-5" class="cls-2" d="M34.6,28.2028h0a6.3123,6.3123,0,0,1,6.3124,6.3121h0A6.3123,6.3123,0,0,1,34.6,40.8273h0a6.3121,6.3121,0,0,1-6.3127-6.3118V34.515h0A6.3122,6.3122,0,0,1,34.6,28.2028Z" transform="translate(0.1264 0.1462)"/>
  </g>
</svg>
